<?xml version="1.0" encoding="UTF-8" standalone="no"?>
<!DOCTYPE svg PUBLIC "-//W3C//DTD SVG 1.1//EN"
 "http://www.w3.org/Graphics/SVG/1.1/DTD/svg11.dtd">
<!-- Generated by graphviz version 2.43.0 (0)
 -->
<!-- Title: qjs::Context::Module::class_registrar&lt; T &gt; Pages: 1 -->
<!--zoomable 746 -->
<svg id="main" version="1.1" xmlns="http://www.w3.org/2000/svg" xmlns:xlink="http://www.w3.org/1999/xlink" xml:space="preserve" onload="init(evt)">
<style type="text/css"><![CDATA[
.edge:hover path { stroke: red; }
.edge:hover polygon { stroke: red; fill: red; }
]]></style>
<script type="text/javascript"><![CDATA[
var edges = document.getElementsByTagName('g');
if (edges && edges.length) {
  for (var i=0;i<edges.length;i++) {
    if (edges[i].id.substr(0,4)=='edge') {
      edges[i].setAttribute('class','edge');
    }
  }
}
]]></script>
        <defs>
                <circle id="rim" cx="0" cy="0" r="7"/>
                <circle id="rim2" cx="0" cy="0" r="3.5"/>
                <g id="zoomPlus">
                        <use xlink:href="#rim" fill="#404040">
                                <set attributeName="fill" to="#808080" begin="zoomplus.mouseover" end="zoomplus.mouseout"/>
                        </use>
                        <path d="M-4,0h8M0,-4v8" fill="none" stroke="white" stroke-width="1.5" pointer-events="none"/>
                </g>
                <g id="zoomMin">
                        <use xlink:href="#rim" fill="#404040">
                                <set attributeName="fill" to="#808080" begin="zoomminus.mouseover" end="zoomminus.mouseout"/>
                        </use>
                        <path d="M-4,0h8" fill="none" stroke="white" stroke-width="1.5" pointer-events="none"/>
                </g>
                <g id="dirArrow">
                        <path fill="none" stroke="white" stroke-width="1.5" d="M0,-3.0v7 M-2.5,-0.5L0,-3.0L2.5,-0.5"/>
                </g>
               <g id="resetDef">
                       <use xlink:href="#rim2" fill="#404040">
                               <set attributeName="fill" to="#808080" begin="reset.mouseover" end="reset.mouseout"/>
                       </use>
               </g>
        </defs>

<script type="text/javascript">
var viewWidth = 601;
var viewHeight = 746;
var sectionId = 'dynsection-0';
</script>
<script xlink:href="svgpan.js"/>
<svg id="graph" class="graph">
<g id="viewport">
<title>qjs::Context::Module::class_registrar&lt; T &gt;</title>
<!-- Node1 -->
<g id="node1" class="node">
<title>Node1</title>
<g id="a_node1"><a xlink:title="Helper class to register class members and constructors.">
<polygon fill="#bfbfbf" stroke="black" points="45,-0.5 45,-30.5 167,-30.5 167,-0.5 45,-0.5"/>
<text text-anchor="start" x="53" y="-18.5" font-family="Helvetica,sans-Serif" font-size="10.00">qjs::Context::Module</text>
<text text-anchor="middle" x="106" y="-7.5" font-family="Helvetica,sans-Serif" font-size="10.00">::class_registrar&lt; T &gt;</text>
</a>
</g>
</g>
<!-- Node2 -->
<g id="node2" class="node">
<title>Node2</title>
<g id="a_node2"><a xlink:href="classqjs_1_1Value.html" target="_top" xlink:title="JSValue with RAAI semantics.">
<polygon fill="none" stroke="black" points="0,-223.5 0,-242.5 64,-242.5 64,-223.5 0,-223.5"/>
<text text-anchor="middle" x="32" y="-230.5" font-family="Helvetica,sans-Serif" font-size="10.00">qjs::Value</text>
</a>
</g>
</g>
<!-- Node2&#45;&gt;Node1 -->
<g id="edge1" class="edge">
<title>Node2&#45;&gt;Node1</title>
<path fill="none" stroke="#9a32cd" stroke-dasharray="5,2" d="M28.72,-213.3C25.38,-189.88 22.09,-148.85 33,-116 44.55,-81.23 73.24,-48.52 91.02,-30.62"/>
<polygon fill="#9a32cd" stroke="#9a32cd" points="25.27,-213.94 30.3,-223.26 32.19,-212.84 25.27,-213.94"/>
<text text-anchor="middle" x="58.5" y="-119" font-family="Helvetica,sans-Serif" font-size="10.00"> prototype</text>
</g>
<!-- Node3 -->
<g id="node3" class="node">
<title>Node3</title>
<g id="a_node3"><a xlink:href="structJSValue.html" target="_top" xlink:title=" ">
<polygon fill="none" stroke="black" points="36.5,-526.5 36.5,-545.5 89.5,-545.5 89.5,-526.5 36.5,-526.5"/>
<text text-anchor="middle" x="63" y="-533.5" font-family="Helvetica,sans-Serif" font-size="10.00">JSValue</text>
</a>
</g>
</g>
<!-- Node3&#45;&gt;Node2 -->
<g id="edge2" class="edge">
<title>Node3&#45;&gt;Node2</title>
<path fill="none" stroke="#9a32cd" stroke-dasharray="5,2" d="M53.98,-517.17C52.51,-513.85 51.11,-510.36 50,-507 45.87,-494.5 45.66,-491.06 44,-478 32.38,-386.7 31.84,-274.86 31.94,-242.91"/>
<polygon fill="#9a32cd" stroke="#9a32cd" points="50.91,-518.86 58.37,-526.38 57.23,-515.85 50.91,-518.86"/>
<text text-anchor="middle" x="39" y="-331" font-family="Helvetica,sans-Serif" font-size="10.00"> v</text>
</g>
<!-- Node5 -->
<g id="node5" class="node">
<title>Node5</title>
<g id="a_node5"><a xlink:href="structJSContext.html" target="_top" xlink:title=" ">
<polygon fill="none" stroke="black" points="242,-290.5 242,-309.5 306,-309.5 306,-290.5 242,-290.5"/>
<text text-anchor="middle" x="274" y="-297.5" font-family="Helvetica,sans-Serif" font-size="10.00">JSContext</text>
</a>
</g>
</g>
<!-- Node3&#45;&gt;Node5 -->
<g id="edge14" class="edge">
<title>Node3&#45;&gt;Node5</title>
<path fill="none" stroke="#9a32cd" stroke-dasharray="5,2" d="M57.6,-516.49C48.52,-481.19 34.64,-403.63 72,-357 93.16,-330.59 190.21,-312.99 241.7,-305.35"/>
<polygon fill="#9a32cd" stroke="#9a32cd" points="54.29,-517.65 60.3,-526.37 61.04,-515.8 54.29,-517.65"/>
<text text-anchor="middle" x="124" y="-470" font-family="Helvetica,sans-Serif" font-size="10.00"> async_iterator_proto</text>
<text text-anchor="middle" x="124" y="-459" font-family="Helvetica,sans-Serif" font-size="10.00">function_proto</text>
<text text-anchor="middle" x="124" y="-448" font-family="Helvetica,sans-Serif" font-size="10.00">function_ctor</text>
<text text-anchor="middle" x="124" y="-437" font-family="Helvetica,sans-Serif" font-size="10.00">array_ctor</text>
<text text-anchor="middle" x="124" y="-426" font-family="Helvetica,sans-Serif" font-size="10.00">class_proto</text>
<text text-anchor="middle" x="124" y="-415" font-family="Helvetica,sans-Serif" font-size="10.00">array_proto_values</text>
<text text-anchor="middle" x="124" y="-404" font-family="Helvetica,sans-Serif" font-size="10.00">regexp_ctor</text>
<text text-anchor="middle" x="124" y="-393" font-family="Helvetica,sans-Serif" font-size="10.00">throw_type_error</text>
<text text-anchor="middle" x="124" y="-382" font-family="Helvetica,sans-Serif" font-size="10.00">native_error_proto</text>
<text text-anchor="middle" x="124" y="-371" font-family="Helvetica,sans-Serif" font-size="10.00">eval_obj</text>
<text text-anchor="middle" x="124" y="-360" font-family="Helvetica,sans-Serif" font-size="10.00">...</text>
</g>
<!-- Node6 -->
<g id="node6" class="node">
<title>Node6</title>
<g id="a_node6"><a xlink:href="structJSRuntime.html" target="_top" xlink:title=" ">
<polygon fill="none" stroke="red" points="185.5,-408 185.5,-427 252.5,-427 252.5,-408 185.5,-408"/>
<text text-anchor="middle" x="219" y="-415" font-family="Helvetica,sans-Serif" font-size="10.00">JSRuntime</text>
</a>
</g>
</g>
<!-- Node3&#45;&gt;Node6 -->
<g id="edge8" class="edge">
<title>Node3&#45;&gt;Node6</title>
<path fill="none" stroke="#9a32cd" stroke-dasharray="5,2" d="M73.92,-518.25C79.86,-510.39 87.85,-501.56 97,-496 125.92,-478.42 142.42,-496.13 171,-478 191.4,-465.06 207.05,-440.45 214.4,-427.3"/>
<polygon fill="#9a32cd" stroke="#9a32cd" points="71.02,-516.28 68.14,-526.47 76.75,-520.3 71.02,-516.28"/>
<text text-anchor="middle" x="142.5" y="-499" font-family="Helvetica,sans-Serif" font-size="10.00"> current_exception</text>
</g>
<!-- Node4 -->
<g id="node4" class="node">
<title>Node4</title>
<g id="a_node4"><a xlink:href="unionJSValueUnion.html" target="_top" xlink:title=" ">
<polygon fill="none" stroke="black" points="22.5,-649.5 22.5,-668.5 103.5,-668.5 103.5,-649.5 22.5,-649.5"/>
<text text-anchor="middle" x="63" y="-656.5" font-family="Helvetica,sans-Serif" font-size="10.00">JSValueUnion</text>
</a>
</g>
</g>
<!-- Node4&#45;&gt;Node3 -->
<g id="edge3" class="edge">
<title>Node4&#45;&gt;Node3</title>
<path fill="none" stroke="#9a32cd" stroke-dasharray="5,2" d="M63,-638.99C63,-612.35 63,-565 63,-545.62"/>
<polygon fill="#9a32cd" stroke="#9a32cd" points="59.5,-639.3 63,-649.3 66.5,-639.3 59.5,-639.3"/>
<text text-anchor="middle" x="68" y="-595.5" font-family="Helvetica,sans-Serif" font-size="10.00"> u</text>
</g>
<!-- Node5&#45;&gt;Node2 -->
<g id="edge4" class="edge">
<title>Node5&#45;&gt;Node2</title>
<path fill="none" stroke="#9a32cd" stroke-dasharray="5,2" d="M232.39,-287.82C184.6,-274.99 107.25,-254.21 63.96,-242.58"/>
<polygon fill="#9a32cd" stroke="#9a32cd" points="231.55,-291.22 242.11,-290.44 233.36,-284.46 231.55,-291.22"/>
<text text-anchor="middle" x="177.5" y="-264" font-family="Helvetica,sans-Serif" font-size="10.00"> ctx</text>
</g>
<!-- Node46 -->
<g id="node10" class="node">
<title>Node46</title>
<g id="a_node10"><a xlink:href="classqjs_1_1Context.html" target="_top" xlink:title="Wrapper over JSContext * ctx Calls JS_SetContextOpaque(ctx, this); on construction and JS_FreeContext...">
<polygon fill="none" stroke="black" points="165.5,-78.5 165.5,-97.5 240.5,-97.5 240.5,-78.5 165.5,-78.5"/>
<text text-anchor="middle" x="203" y="-85.5" font-family="Helvetica,sans-Serif" font-size="10.00">qjs::Context</text>
</a>
</g>
</g>
<!-- Node5&#45;&gt;Node46 -->
<g id="edge18" class="edge">
<title>Node5&#45;&gt;Node46</title>
<path fill="none" stroke="#9a32cd" stroke-dasharray="5,2" d="M279.67,-280.36C287.7,-250.52 299.49,-190.77 281,-145 271.51,-121.51 245.79,-106.17 226.46,-97.58"/>
<polygon fill="#9a32cd" stroke="#9a32cd" points="276.23,-279.66 276.85,-290.23 282.96,-281.58 276.23,-279.66"/>
<text text-anchor="middle" x="299.5" y="-197" font-family="Helvetica,sans-Serif" font-size="10.00"> ctx</text>
</g>
<!-- Node48 -->
<g id="node12" class="node">
<title>Node48</title>
<g id="a_node12"><a xlink:href="classqjs_1_1Context_1_1Module.html" target="_top" xlink:title="Module wrapper Workaround for lack of opaque pointer for module load function by keeping a list of mo...">
<polygon fill="none" stroke="red" points="144.5,-223.5 144.5,-242.5 261.5,-242.5 261.5,-223.5 144.5,-223.5"/>
<text text-anchor="middle" x="203" y="-230.5" font-family="Helvetica,sans-Serif" font-size="10.00">qjs::Context::Module</text>
</a>
</g>
</g>
<!-- Node5&#45;&gt;Node48 -->
<g id="edge21" class="edge">
<title>Node5&#45;&gt;Node48</title>
<path fill="none" stroke="#9a32cd" stroke-dasharray="5,2" d="M256.91,-283.36C242.95,-270.58 223.74,-252.99 212.42,-242.63"/>
<polygon fill="#9a32cd" stroke="#9a32cd" points="254.69,-286.06 264.42,-290.23 259.41,-280.9 254.69,-286.06"/>
<text text-anchor="middle" x="252.5" y="-264" font-family="Helvetica,sans-Serif" font-size="10.00"> ctx</text>
</g>
<!-- Node6&#45;&gt;Node5 -->
<g id="edge5" class="edge">
<title>Node6&#45;&gt;Node5</title>
<path fill="none" stroke="#9a32cd" stroke-dasharray="5,2" d="M225.43,-398.32C232.14,-380.09 243.43,-351.45 256,-328 259.41,-321.64 263.91,-314.89 267.55,-309.73"/>
<polygon fill="#9a32cd" stroke="#9a32cd" points="222.05,-397.36 221.95,-407.96 228.64,-399.74 222.05,-397.36"/>
<text text-anchor="middle" x="261.5" y="-331" font-family="Helvetica,sans-Serif" font-size="10.00"> rt</text>
</g>
<!-- Node7 -->
<g id="node7" class="node">
<title>Node7</title>
<g id="a_node7"><a xlink:href="structlist__head.html" target="_top" xlink:title=" ">
<polygon fill="none" stroke="black" points="291.5,-717.5 291.5,-736.5 352.5,-736.5 352.5,-717.5 291.5,-717.5"/>
<text text-anchor="middle" x="322" y="-724.5" font-family="Helvetica,sans-Serif" font-size="10.00">list_head</text>
</a>
</g>
</g>
<!-- Node7&#45;&gt;Node5 -->
<g id="edge13" class="edge">
<title>Node7&#45;&gt;Node5</title>
<path fill="none" stroke="#9a32cd" stroke-dasharray="5,2" d="M363.04,-719.96C418.09,-710.69 509,-690.73 509,-660 509,-660 509,-660 509,-416.5 509,-327.17 370.54,-306.93 306.18,-302.34"/>
<polygon fill="#9a32cd" stroke="#9a32cd" points="362.18,-716.56 352.88,-721.62 363.31,-723.47 362.18,-716.56"/>
<text text-anchor="middle" x="551" y="-539" font-family="Helvetica,sans-Serif" font-size="10.00"> loaded_modules</text>
<text text-anchor="middle" x="551" y="-528" font-family="Helvetica,sans-Serif" font-size="10.00">link</text>
</g>
<!-- Node7&#45;&gt;Node6 -->
<g id="edge6" class="edge">
<title>Node7&#45;&gt;Node6</title>
<path fill="none" stroke="#9a32cd" stroke-dasharray="5,2" d="M292.45,-712.97C262.64,-698 218.32,-670.34 199,-631 163.71,-559.16 202.21,-457.27 215.1,-427.18"/>
<polygon fill="#9a32cd" stroke="#9a32cd" points="291.05,-716.18 301.58,-717.38 294.1,-709.87 291.05,-716.18"/>
<text text-anchor="middle" x="243.5" y="-623" font-family="Helvetica,sans-Serif" font-size="10.00"> job_list</text>
<text text-anchor="middle" x="243.5" y="-612" font-family="Helvetica,sans-Serif" font-size="10.00">tmp_obj_list</text>
<text text-anchor="start" x="199" y="-601" font-family="Helvetica,sans-Serif" font-size="10.00">gc_zero_ref_count</text>
<text text-anchor="middle" x="243.5" y="-590" font-family="Helvetica,sans-Serif" font-size="10.00">_list</text>
<text text-anchor="middle" x="243.5" y="-579" font-family="Helvetica,sans-Serif" font-size="10.00">gc_obj_list</text>
<text text-anchor="middle" x="243.5" y="-568" font-family="Helvetica,sans-Serif" font-size="10.00">context_list</text>
</g>
<!-- Node7&#45;&gt;Node7 -->
<g id="edge7" class="edge">
<title>Node7&#45;&gt;Node7</title>
<path fill="none" stroke="#9a32cd" stroke-dasharray="5,2" d="M363.08,-732.35C367.59,-731.33 370.5,-729.55 370.5,-727 370.5,-722.82 362.67,-720.69 352.78,-720.63"/>
<polygon fill="#9a32cd" stroke="#9a32cd" points="362.39,-728.91 352.78,-733.37 363.08,-735.87 362.39,-728.91"/>
<text text-anchor="middle" x="383" y="-730" font-family="Helvetica,sans-Serif" font-size="10.00"> prev</text>
<text text-anchor="middle" x="383" y="-719" font-family="Helvetica,sans-Serif" font-size="10.00">next</text>
</g>
<!-- Node17 -->
<g id="node9" class="node">
<title>Node17</title>
<g id="a_node9"><a xlink:href="structJSGCObjectHeader.html" target="_top" xlink:title=" ">
<polygon fill="none" stroke="black" points="268.5,-649.5 268.5,-668.5 375.5,-668.5 375.5,-649.5 268.5,-649.5"/>
<text text-anchor="middle" x="322" y="-656.5" font-family="Helvetica,sans-Serif" font-size="10.00">JSGCObjectHeader</text>
</a>
</g>
</g>
<!-- Node7&#45;&gt;Node17 -->
<g id="edge12" class="edge">
<title>Node7&#45;&gt;Node17</title>
<path fill="none" stroke="#9a32cd" stroke-dasharray="5,2" d="M322,-707.04C322,-694.47 322,-678.56 322,-668.84"/>
<polygon fill="#9a32cd" stroke="#9a32cd" points="318.5,-707.37 322,-717.37 325.5,-707.37 318.5,-707.37"/>
<text text-anchor="middle" x="333" y="-690" font-family="Helvetica,sans-Serif" font-size="10.00"> link</text>
</g>
<!-- Node13 -->
<g id="node8" class="node">
<title>Node13</title>
<g id="a_node8"><a xlink:href="structJSShape.html" target="_top" xlink:title=" ">
<polygon fill="none" stroke="red" points="311,-526.5 311,-545.5 367,-545.5 367,-526.5 311,-526.5"/>
<text text-anchor="middle" x="339" y="-533.5" font-family="Helvetica,sans-Serif" font-size="10.00">JSShape</text>
</a>
</g>
</g>
<!-- Node13&#45;&gt;Node5 -->
<g id="edge15" class="edge">
<title>Node13&#45;&gt;Node5</title>
<path fill="none" stroke="#9a32cd" stroke-dasharray="5,2" d="M376.19,-521.54C382.1,-517.75 387.43,-512.97 391,-507 393.51,-502.8 392.25,-500.73 391,-496 369.72,-415.87 304.62,-335.98 281.91,-309.86"/>
<polygon fill="#9a32cd" stroke="#9a32cd" points="374.36,-518.55 367.26,-526.41 377.72,-524.69 374.36,-518.55"/>
<text text-anchor="middle" x="416" y="-415" font-family="Helvetica,sans-Serif" font-size="10.00"> array_shape</text>
</g>
<!-- Node13&#45;&gt;Node6 -->
<g id="edge9" class="edge">
<title>Node13&#45;&gt;Node6</title>
<path fill="none" stroke="#9a32cd" stroke-dasharray="5,2" d="M331.77,-516.95C328.48,-509.98 324.16,-502.22 319,-496 293.89,-465.74 255.01,-439.91 233.88,-427.1"/>
<polygon fill="#9a32cd" stroke="#9a32cd" points="328.63,-518.52 335.83,-526.3 335.05,-515.73 328.63,-518.52"/>
<text text-anchor="middle" x="356.5" y="-499" font-family="Helvetica,sans-Serif" font-size="10.00"> shape_hash</text>
</g>
<!-- Node13&#45;&gt;Node13 -->
<g id="edge10" class="edge">
<title>Node13&#45;&gt;Node13</title>
<path fill="none" stroke="#9a32cd" stroke-dasharray="5,2" d="M377.55,-541.45C382.06,-540.45 385,-538.63 385,-536 385,-531.68 377.09,-529.56 367.3,-529.63"/>
<polygon fill="#9a32cd" stroke="#9a32cd" points="376.94,-537.99 367.3,-542.37 377.57,-544.96 376.94,-537.99"/>
<text text-anchor="middle" x="429" y="-533.5" font-family="Helvetica,sans-Serif" font-size="10.00"> shape_hash_next</text>
</g>
<!-- Node17&#45;&gt;Node5 -->
<g id="edge16" class="edge">
<title>Node17&#45;&gt;Node5</title>
<path fill="none" stroke="#9a32cd" stroke-dasharray="5,2" d="M316.06,-639.85C304.99,-605.72 281.98,-533.06 278,-507 266.45,-431.33 271.41,-338.22 273.35,-309.7"/>
<polygon fill="#9a32cd" stroke="#9a32cd" points="312.77,-641.05 319.19,-649.47 319.42,-638.88 312.77,-641.05"/>
<text text-anchor="middle" x="296.5" y="-499" font-family="Helvetica,sans-Serif" font-size="10.00"> header</text>
</g>
<!-- Node17&#45;&gt;Node13 -->
<g id="edge11" class="edge">
<title>Node17&#45;&gt;Node13</title>
<path fill="none" stroke="#9a32cd" stroke-dasharray="5,2" d="M324.62,-639.35C328.35,-612.77 335.05,-565.08 337.79,-545.62"/>
<polygon fill="#9a32cd" stroke="#9a32cd" points="321.15,-638.91 323.22,-649.3 328.08,-639.88 321.15,-638.91"/>
<text text-anchor="middle" x="352.5" y="-595.5" font-family="Helvetica,sans-Serif" font-size="10.00"> header</text>
</g>
<!-- Node46&#45;&gt;Node1 -->
<g id="edge17" class="edge">
<title>Node46&#45;&gt;Node1</title>
<path fill="none" stroke="#9a32cd" stroke-dasharray="5,2" d="M183,-72.47C166.11,-60.19 142.08,-42.72 125.37,-30.58"/>
<polygon fill="#9a32cd" stroke="#9a32cd" points="180.96,-75.31 191.11,-78.36 185.07,-69.64 180.96,-75.31"/>
<text text-anchor="middle" x="184" y="-52" font-family="Helvetica,sans-Serif" font-size="10.00"> context</text>
</g>
<!-- Node47 -->
<g id="node11" class="node">
<title>Node47</title>
<g id="a_node11"><a xlink:title=" ">
<polygon fill="none" stroke="#bfbfbf" points="134,-145.5 134,-175.5 272,-175.5 272,-145.5 134,-145.5"/>
<text text-anchor="start" x="142" y="-163.5" font-family="Helvetica,sans-Serif" font-size="10.00">std::vector&lt; qjs::Context</text>
<text text-anchor="middle" x="203" y="-152.5" font-family="Helvetica,sans-Serif" font-size="10.00">::Module &gt;</text>
</a>
</g>
</g>
<!-- Node47&#45;&gt;Node46 -->
<g id="edge19" class="edge">
<title>Node47&#45;&gt;Node46</title>
<path fill="none" stroke="#9a32cd" stroke-dasharray="5,2" d="M203,-135.09C203,-122.21 203,-107.2 203,-97.89"/>
<polygon fill="#9a32cd" stroke="#9a32cd" points="199.5,-135.23 203,-145.23 206.5,-135.23 199.5,-135.23"/>
<text text-anchor="middle" x="226" y="-119" font-family="Helvetica,sans-Serif" font-size="10.00"> modules</text>
</g>
<!-- Node48&#45;&gt;Node1 -->
<g id="edge22" class="edge">
<title>Node48&#45;&gt;Node1</title>
<path fill="none" stroke="#9a32cd" stroke-dasharray="5,2" d="M173.88,-218.75C156.72,-209.35 136.23,-195.02 125,-176 97.21,-128.93 100.84,-60.44 104.06,-30.92"/>
<polygon fill="#9a32cd" stroke="#9a32cd" points="172.51,-221.98 183,-223.46 175.72,-215.76 172.51,-221.98"/>
<text text-anchor="middle" x="127" y="-119" font-family="Helvetica,sans-Serif" font-size="10.00"> module</text>
</g>
<!-- Node48&#45;&gt;Node47 -->
<g id="edge20" class="edge">
<title>Node48&#45;&gt;Node47</title>
<path fill="none" stroke="#9a32cd" stroke-dasharray="5,2" d="M203,-213.24C203,-201.41 203,-186.38 203,-175.58"/>
<polygon fill="#9a32cd" stroke="#9a32cd" points="199.5,-213.36 203,-223.36 206.5,-213.36 199.5,-213.36"/>
<text text-anchor="middle" x="227.5" y="-197" font-family="Helvetica,sans-Serif" font-size="10.00"> elements</text>
</g>
</g>
</svg>
        <g id="navigator" transform="translate(0 0)" fill="#404254">
                <rect fill="#f2f5e9" fill-opacity="0.5" stroke="#606060" stroke-width=".5" x="0" y="0" width="60" height="60"/>
                <use id="zoomplus" xlink:href="#zoomPlus" x="17" y="9" onmousedown="handleZoom(evt,'in')"/>
                <use id="zoomminus" xlink:href="#zoomMin" x="42" y="9" onmousedown="handleZoom(evt,'out')"/>
                <use id="reset" xlink:href="#resetDef" x="30" y="36" onmousedown="handleReset()"/>
                <g id="arrowUp" xlink:href="#dirArrow" transform="translate(30 24)" onmousedown="handlePan(0,-1)">
                  <use xlink:href="#rim" fill="#404040">
                        <set attributeName="fill" to="#808080" begin="arrowUp.mouseover" end="arrowUp.mouseout"/>
                  </use>
                  <path fill="none" stroke="white" stroke-width="1.5" d="M0,-3.0v7 M-2.5,-0.5L0,-3.0L2.5,-0.5"/>
                </g>
                <g id="arrowRight" xlink:href="#dirArrow" transform="rotate(90) translate(36 -43)" onmousedown="handlePan(1,0)">
                  <use xlink:href="#rim" fill="#404040">
                        <set attributeName="fill" to="#808080" begin="arrowRight.mouseover" end="arrowRight.mouseout"/>
                  </use>
                  <path fill="none" stroke="white" stroke-width="1.5" d="M0,-3.0v7 M-2.5,-0.5L0,-3.0L2.5,-0.5"/>
                </g>
                <g id="arrowDown" xlink:href="#dirArrow" transform="rotate(180) translate(-30 -48)" onmousedown="handlePan(0,1)">
                  <use xlink:href="#rim" fill="#404040">
                        <set attributeName="fill" to="#808080" begin="arrowDown.mouseover" end="arrowDown.mouseout"/>
                  </use>
                  <path fill="none" stroke="white" stroke-width="1.5" d="M0,-3.0v7 M-2.5,-0.5L0,-3.0L2.5,-0.5"/>
                </g>
                <g id="arrowLeft" xlink:href="#dirArrow" transform="rotate(270) translate(-36 17)" onmousedown="handlePan(-1,0)">
                  <use xlink:href="#rim" fill="#404040">
                        <set attributeName="fill" to="#808080" begin="arrowLeft.mouseover" end="arrowLeft.mouseout"/>
                  </use>
                  <path fill="none" stroke="white" stroke-width="1.5" d="M0,-3.0v7 M-2.5,-0.5L0,-3.0L2.5,-0.5"/>
                </g>
        </g>
        <svg viewBox="0 0 15 15" width="100%" height="30px" preserveAspectRatio="xMaxYMin meet">
         <g id="arrow_out" transform="scale(0.3 0.3)">
          <a xlink:href="classqjs_1_1Context_1_1Module_1_1class__registrar__coll__graph_org.svg" target="_base">
           <rect id="button" ry="5" rx="5" y="6" x="6" height="38" width="38"
                fill="#f2f5e9" fill-opacity="0.5" stroke="#606060" stroke-width="1.0"/>
           <path id="arrow"
             d="M 11.500037,31.436501 C 11.940474,20.09759 22.043105,11.32322 32.158766,21.979434 L 37.068811,17.246167 C 37.068811,17.246167 37.088388,32 37.088388,32 L 22.160133,31.978069 C 22.160133,31.978069 26.997745,27.140456 26.997745,27.140456 C 18.528582,18.264221 13.291696,25.230495 11.500037,31.436501 z"
             style="fill:#404040;"/>
          </a>
         </g>
        </svg>
</svg>
