<?xml version="1.0" encoding="UTF-8" standalone="no"?>
<!DOCTYPE svg PUBLIC "-//W3C//DTD SVG 1.1//EN"
 "http://www.w3.org/Graphics/SVG/1.1/DTD/svg11.dtd">
<!-- Generated by graphviz version 2.43.0 (0)
 -->
<!-- Title: qjs::Context::Module Pages: 1 -->
<svg width="1258pt" height="854pt"
 viewBox="0.00 0.00 1258.00 854.00" xmlns="http://www.w3.org/2000/svg" xmlns:xlink="http://www.w3.org/1999/xlink">
<g id="graph0" class="graph" transform="scale(1 1) rotate(0) translate(4 850)">
<title>qjs::Context::Module</title>
<!-- Node1 -->
<g id="node1" class="node">
<title>Node1</title>
<g id="a_node1"><a xlink:title="Module wrapper Workaround for lack of opaque pointer for module load function by keeping a list of mo...">
<polygon fill="#bfbfbf" stroke="black" points="1133,-331.5 1133,-350.5 1250,-350.5 1250,-331.5 1133,-331.5"/>
<text text-anchor="middle" x="1191.5" y="-338.5" font-family="Helvetica,sans-Serif" font-size="10.00">qjs::Context::Module</text>
</a>
</g>
</g>
<!-- Node2 -->
<g id="node2" class="node">
<title>Node2</title>
<g id="a_node2"><a xlink:href="structJSContext.html" target="_top" xlink:title=" ">
<polygon fill="none" stroke="black" points="910.5,-331.5 910.5,-350.5 974.5,-350.5 974.5,-331.5 910.5,-331.5"/>
<text text-anchor="middle" x="942.5" y="-338.5" font-family="Helvetica,sans-Serif" font-size="10.00">JSContext</text>
</a>
</g>
</g>
<!-- Node2&#45;&gt;Node1 -->
<g id="edge1" class="edge">
<title>Node2&#45;&gt;Node1</title>
<path fill="none" stroke="#9a32cd" stroke-dasharray="5,2" d="M984.83,-341C1025.3,-341 1087.29,-341 1132.65,-341"/>
<polygon fill="#9a32cd" stroke="#9a32cd" points="984.78,-337.5 974.78,-341 984.78,-344.5 984.78,-337.5"/>
<text text-anchor="middle" x="1065" y="-344" font-family="Helvetica,sans-Serif" font-size="10.00"> ctx</text>
</g>
<!-- Node3 -->
<g id="node3" class="node">
<title>Node3</title>
<g id="a_node3"><a xlink:href="structJSRuntime.html" target="_top" xlink:title=" ">
<polygon fill="none" stroke="black" points="669.5,-569.5 669.5,-588.5 736.5,-588.5 736.5,-569.5 669.5,-569.5"/>
<text text-anchor="middle" x="703" y="-576.5" font-family="Helvetica,sans-Serif" font-size="10.00">JSRuntime</text>
</a>
</g>
</g>
<!-- Node3&#45;&gt;Node2 -->
<g id="edge2" class="edge">
<title>Node3&#45;&gt;Node2</title>
<path fill="none" stroke="#9a32cd" stroke-dasharray="5,2" d="M723.96,-562.85C758.03,-534.37 827.83,-471.95 870,-406 881.83,-387.5 872.23,-375.28 888,-360 894.16,-354.03 902.31,-349.93 910.39,-347.11"/>
<polygon fill="#9a32cd" stroke="#9a32cd" points="721.58,-560.27 716.1,-569.34 726.04,-565.67 721.58,-560.27"/>
<text text-anchor="middle" x="821" y="-521" font-family="Helvetica,sans-Serif" font-size="10.00"> rt</text>
</g>
<!-- Node4 -->
<g id="node4" class="node">
<title>Node4</title>
<g id="a_node4"><a xlink:href="structlist__head.html" target="_top" xlink:title=" ">
<polygon fill="none" stroke="black" points="0,-605.5 0,-624.5 61,-624.5 61,-605.5 0,-605.5"/>
<text text-anchor="middle" x="30.5" y="-612.5" font-family="Helvetica,sans-Serif" font-size="10.00">list_head</text>
</a>
</g>
</g>
<!-- Node4&#45;&gt;Node2 -->
<g id="edge20" class="edge">
<title>Node4&#45;&gt;Node2</title>
<path fill="none" stroke="#9a32cd" stroke-dasharray="5,2" d="M34.88,-634.47C45.1,-686.35 80.77,-824 171.5,-824 171.5,-824 171.5,-824 704,-824 852.9,-824 824.43,-674.75 870,-533 881.83,-496.2 864.1,-390.38 888,-360 893.55,-352.95 901.91,-348.51 910.39,-345.72"/>
<polygon fill="#9a32cd" stroke="#9a32cd" points="38.29,-633.71 33.02,-624.52 31.41,-634.99 38.29,-633.71"/>
<text text-anchor="middle" x="431.5" y="-838" font-family="Helvetica,sans-Serif" font-size="10.00"> loaded_modules</text>
<text text-anchor="middle" x="431.5" y="-827" font-family="Helvetica,sans-Serif" font-size="10.00">link</text>
</g>
<!-- Node4&#45;&gt;Node3 -->
<g id="edge3" class="edge">
<title>Node4&#45;&gt;Node3</title>
<path fill="none" stroke="#9a32cd" stroke-dasharray="5,2" d="M61.04,-628.77C116.42,-653.75 240.28,-705.63 351,-724 421.59,-735.71 440.48,-726.34 512,-724 566.31,-722.22 588.78,-746.13 634,-716 679.74,-685.52 695.97,-614.76 700.51,-588.79"/>
<polygon fill="#9a32cd" stroke="#9a32cd" points="62.37,-625.53 51.82,-624.58 59.47,-631.91 62.37,-625.53"/>
<text text-anchor="middle" x="288.5" y="-778" font-family="Helvetica,sans-Serif" font-size="10.00"> job_list</text>
<text text-anchor="middle" x="288.5" y="-767" font-family="Helvetica,sans-Serif" font-size="10.00">tmp_obj_list</text>
<text text-anchor="start" x="244" y="-756" font-family="Helvetica,sans-Serif" font-size="10.00">gc_zero_ref_count</text>
<text text-anchor="middle" x="288.5" y="-745" font-family="Helvetica,sans-Serif" font-size="10.00">_list</text>
<text text-anchor="middle" x="288.5" y="-734" font-family="Helvetica,sans-Serif" font-size="10.00">gc_obj_list</text>
<text text-anchor="middle" x="288.5" y="-723" font-family="Helvetica,sans-Serif" font-size="10.00">context_list</text>
</g>
<!-- Node4&#45;&gt;Node4 -->
<g id="edge4" class="edge">
<title>Node4&#45;&gt;Node4</title>
<path fill="none" stroke="#9a32cd" stroke-dasharray="5,2" d="M19.82,-634.77C20.66,-639.5 24.22,-643 30.5,-643 40.81,-643 43.79,-633.57 39.44,-624.76"/>
<polygon fill="#9a32cd" stroke="#9a32cd" points="23.29,-635.21 21.56,-624.76 16.4,-634.01 23.29,-635.21"/>
<text text-anchor="middle" x="30.5" y="-657" font-family="Helvetica,sans-Serif" font-size="10.00"> prev</text>
<text text-anchor="middle" x="30.5" y="-646" font-family="Helvetica,sans-Serif" font-size="10.00">next</text>
</g>
<!-- Node16 -->
<g id="node12" class="node">
<title>Node16</title>
<g id="a_node12"><a xlink:href="structJSGCObjectHeader.html" target="_top" xlink:title=" ">
<polygon fill="none" stroke="black" points="119,-210.5 119,-229.5 226,-229.5 226,-210.5 119,-210.5"/>
<text text-anchor="middle" x="172.5" y="-217.5" font-family="Helvetica,sans-Serif" font-size="10.00">JSGCObjectHeader</text>
</a>
</g>
</g>
<!-- Node4&#45;&gt;Node16 -->
<g id="edge14" class="edge">
<title>Node4&#45;&gt;Node16</title>
<path fill="none" stroke="#9a32cd" stroke-dasharray="5,2" d="M33.65,-595.44C40.08,-542.47 62.36,-392.81 119,-283 129.96,-261.74 149.15,-241.25 161.04,-229.68"/>
<polygon fill="#9a32cd" stroke="#9a32cd" points="30.16,-595.15 32.48,-605.49 37.11,-595.96 30.16,-595.15"/>
<text text-anchor="middle" x="90" y="-381" font-family="Helvetica,sans-Serif" font-size="10.00"> link</text>
</g>
<!-- Node31 -->
<g id="node14" class="node">
<title>Node31</title>
<g id="a_node14"><a xlink:href="structJSStackFrame.html" target="_top" xlink:title=" ">
<polygon fill="none" stroke="black" points="390,-552.5 390,-571.5 473,-571.5 473,-552.5 390,-552.5"/>
<text text-anchor="middle" x="431.5" y="-559.5" font-family="Helvetica,sans-Serif" font-size="10.00">JSStackFrame</text>
</a>
</g>
</g>
<!-- Node4&#45;&gt;Node31 -->
<g id="edge17" class="edge">
<title>Node4&#45;&gt;Node31</title>
<path fill="none" stroke="#9a32cd" stroke-dasharray="5,2" d="M71.25,-617.32C129.45,-619.79 240.92,-620.96 333,-601 361.69,-594.78 392.85,-580.96 412.04,-571.56"/>
<polygon fill="#9a32cd" stroke="#9a32cd" points="71.17,-613.81 61.02,-616.85 70.85,-620.81 71.17,-613.81"/>
<text text-anchor="middle" x="172.5" y="-621" font-family="Helvetica,sans-Serif" font-size="10.00"> var_ref_list</text>
</g>
<!-- Node45 -->
<g id="node15" class="node">
<title>Node45</title>
<g id="a_node15"><a xlink:href="structJSModuleDef.html" target="_top" xlink:title=" ">
<polygon fill="none" stroke="black" points="903,-104.5 903,-123.5 982,-123.5 982,-104.5 903,-104.5"/>
<text text-anchor="middle" x="942.5" y="-111.5" font-family="Helvetica,sans-Serif" font-size="10.00">JSModuleDef</text>
</a>
</g>
</g>
<!-- Node4&#45;&gt;Node45 -->
<g id="edge25" class="edge">
<title>Node4&#45;&gt;Node45</title>
<path fill="none" stroke="#9a32cd" stroke-dasharray="5,2" d="M31.67,-595.15C33.09,-489.7 46.43,0 171.5,0 171.5,0 171.5,0 704,0 780.1,0 803.89,-4.3 870,-42 898.46,-58.23 923.31,-88.89 934.77,-104.44"/>
<polygon fill="#9a32cd" stroke="#9a32cd" points="28.17,-595.3 31.55,-605.34 35.17,-595.38 28.17,-595.3"/>
<text text-anchor="middle" x="431.5" y="-3" font-family="Helvetica,sans-Serif" font-size="10.00"> link</text>
</g>
<!-- Node5 -->
<g id="node5" class="node">
<title>Node5</title>
<g id="a_node5"><a xlink:href="structJSMallocState.html" target="_top" xlink:title=" ">
<polygon fill="none" stroke="black" points="390,-657.5 390,-676.5 473,-676.5 473,-657.5 390,-657.5"/>
<text text-anchor="middle" x="431.5" y="-664.5" font-family="Helvetica,sans-Serif" font-size="10.00">JSMallocState</text>
</a>
</g>
</g>
<!-- Node5&#45;&gt;Node3 -->
<g id="edge5" class="edge">
<title>Node5&#45;&gt;Node3</title>
<path fill="none" stroke="#9a32cd" stroke-dasharray="5,2" d="M483.2,-661.96C524.96,-656.53 585.05,-645.7 634,-625 655.79,-615.78 677.91,-599.18 690.78,-588.64"/>
<polygon fill="#9a32cd" stroke="#9a32cd" points="482.75,-658.49 473.26,-663.2 483.62,-665.44 482.75,-658.49"/>
<text text-anchor="middle" x="582" y="-657" font-family="Helvetica,sans-Serif" font-size="10.00"> malloc_state</text>
</g>
<!-- Node6 -->
<g id="node6" class="node">
<title>Node6</title>
<g id="a_node6"><a xlink:href="structJSValue.html" target="_top" xlink:title=" ">
<polygon fill="none" stroke="red" points="146,-382.5 146,-401.5 199,-401.5 199,-382.5 146,-382.5"/>
<text text-anchor="middle" x="172.5" y="-389.5" font-family="Helvetica,sans-Serif" font-size="10.00">JSValue</text>
</a>
</g>
</g>
<!-- Node6&#45;&gt;Node2 -->
<g id="edge21" class="edge">
<title>Node6&#45;&gt;Node2</title>
<path fill="none" stroke="#9a32cd" stroke-dasharray="5,2" d="M209.43,-390.85C287.01,-388.24 475.97,-381.22 634,-370 735.09,-362.82 854.52,-350.44 910.11,-344.44"/>
<polygon fill="#9a32cd" stroke="#9a32cd" points="209.12,-387.36 199.24,-391.19 209.35,-394.35 209.12,-387.36"/>
<text text-anchor="middle" x="582" y="-489" font-family="Helvetica,sans-Serif" font-size="10.00"> async_iterator_proto</text>
<text text-anchor="middle" x="582" y="-478" font-family="Helvetica,sans-Serif" font-size="10.00">function_proto</text>
<text text-anchor="middle" x="582" y="-467" font-family="Helvetica,sans-Serif" font-size="10.00">function_ctor</text>
<text text-anchor="middle" x="582" y="-456" font-family="Helvetica,sans-Serif" font-size="10.00">array_ctor</text>
<text text-anchor="middle" x="582" y="-445" font-family="Helvetica,sans-Serif" font-size="10.00">class_proto</text>
<text text-anchor="middle" x="582" y="-434" font-family="Helvetica,sans-Serif" font-size="10.00">array_proto_values</text>
<text text-anchor="middle" x="582" y="-423" font-family="Helvetica,sans-Serif" font-size="10.00">regexp_ctor</text>
<text text-anchor="middle" x="582" y="-412" font-family="Helvetica,sans-Serif" font-size="10.00">throw_type_error</text>
<text text-anchor="middle" x="582" y="-401" font-family="Helvetica,sans-Serif" font-size="10.00">native_error_proto</text>
<text text-anchor="middle" x="582" y="-390" font-family="Helvetica,sans-Serif" font-size="10.00">eval_obj</text>
<text text-anchor="middle" x="582" y="-379" font-family="Helvetica,sans-Serif" font-size="10.00">...</text>
</g>
<!-- Node6&#45;&gt;Node3 -->
<g id="edge6" class="edge">
<title>Node6&#45;&gt;Node3</title>
<path fill="none" stroke="#9a32cd" stroke-dasharray="5,2" d="M194.8,-407.46C227.03,-430.14 290.85,-472.32 351,-496 419.23,-522.86 446.74,-498.58 512,-532 521.53,-536.88 520.37,-543.32 530,-548 575.03,-569.89 633.46,-576.44 669.32,-578.33"/>
<polygon fill="#9a32cd" stroke="#9a32cd" points="196.75,-404.55 186.57,-401.61 192.69,-410.26 196.75,-404.55"/>
<text text-anchor="middle" x="431.5" y="-535" font-family="Helvetica,sans-Serif" font-size="10.00"> current_exception</text>
</g>
<!-- Node6&#45;&gt;Node31 -->
<g id="edge18" class="edge">
<title>Node6&#45;&gt;Node31</title>
<path fill="none" stroke="#9a32cd" stroke-dasharray="5,2" d="M177.23,-411.66C184.3,-443.05 202.79,-503.98 244,-534 266.63,-550.48 342.24,-557.44 389.96,-560.24"/>
<polygon fill="#9a32cd" stroke="#9a32cd" points="180.59,-410.62 175.13,-401.55 173.74,-412.05 180.59,-410.62"/>
<text text-anchor="middle" x="288.5" y="-591" font-family="Helvetica,sans-Serif" font-size="10.00"> var_buf</text>
<text text-anchor="middle" x="288.5" y="-580" font-family="Helvetica,sans-Serif" font-size="10.00">arg_buf</text>
<text text-anchor="middle" x="288.5" y="-569" font-family="Helvetica,sans-Serif" font-size="10.00">cur_sp</text>
<text text-anchor="middle" x="288.5" y="-558" font-family="Helvetica,sans-Serif" font-size="10.00">cur_func</text>
</g>
<!-- Node6&#45;&gt;Node45 -->
<g id="edge26" class="edge">
<title>Node6&#45;&gt;Node45</title>
<path fill="none" stroke="#9a32cd" stroke-dasharray="5,2" d="M185.69,-374.25C198.48,-356.71 220.05,-330.1 244,-313 285.98,-283.02 301.72,-283.25 351,-268 473.65,-230.04 509.15,-239.95 634,-210 739.79,-184.62 767.39,-181.17 870,-145 887.74,-138.75 907.29,-130.15 921.46,-123.59"/>
<polygon fill="#9a32cd" stroke="#9a32cd" points="182.77,-372.31 179.83,-382.49 188.47,-376.37 182.77,-372.31"/>
<text text-anchor="middle" x="582" y="-267" font-family="Helvetica,sans-Serif" font-size="10.00"> func_obj</text>
<text text-anchor="middle" x="582" y="-256" font-family="Helvetica,sans-Serif" font-size="10.00">meta_obj</text>
<text text-anchor="middle" x="582" y="-245" font-family="Helvetica,sans-Serif" font-size="10.00">eval_exception</text>
<text text-anchor="middle" x="582" y="-234" font-family="Helvetica,sans-Serif" font-size="10.00">module_ns</text>
</g>
<!-- Node15 -->
<g id="node20" class="node">
<title>Node15</title>
<g id="a_node20"><a xlink:href="structJSVarRef.html" target="_top" xlink:title=" ">
<polygon fill="none" stroke="black" points="402.5,-98.5 402.5,-117.5 460.5,-117.5 460.5,-98.5 402.5,-98.5"/>
<text text-anchor="middle" x="431.5" y="-105.5" font-family="Helvetica,sans-Serif" font-size="10.00">JSVarRef</text>
</a>
</g>
</g>
<!-- Node6&#45;&gt;Node15 -->
<g id="edge34" class="edge">
<title>Node6&#45;&gt;Node15</title>
<path fill="none" stroke="#9a32cd" stroke-dasharray="5,2" d="M189.87,-374.82C201.82,-361.27 217.36,-341.33 226,-321 244.85,-276.61 216.36,-253.52 244,-214 282.85,-158.45 360.72,-128.31 402.5,-115.53"/>
<polygon fill="#9a32cd" stroke="#9a32cd" points="187.14,-372.62 183,-382.37 192.32,-377.33 187.14,-372.62"/>
<text text-anchor="middle" x="288.5" y="-228" font-family="Helvetica,sans-Serif" font-size="10.00"> pvalue</text>
<text text-anchor="middle" x="288.5" y="-217" font-family="Helvetica,sans-Serif" font-size="10.00">value</text>
</g>
<!-- Node8 -->
<g id="node7" class="node">
<title>Node8</title>
<g id="a_node7"><a xlink:href="structJSMallocFunctions.html" target="_top" xlink:title=" ">
<polygon fill="none" stroke="black" points="379.5,-619.5 379.5,-638.5 483.5,-638.5 483.5,-619.5 379.5,-619.5"/>
<text text-anchor="middle" x="431.5" y="-626.5" font-family="Helvetica,sans-Serif" font-size="10.00">JSMallocFunctions</text>
</a>
</g>
</g>
<!-- Node8&#45;&gt;Node3 -->
<g id="edge7" class="edge">
<title>Node8&#45;&gt;Node3</title>
<path fill="none" stroke="#9a32cd" stroke-dasharray="5,2" d="M493.72,-617.88C533.67,-610.59 586.95,-600.82 634,-592 645.58,-589.83 658.26,-587.42 669.5,-585.26"/>
<polygon fill="#9a32cd" stroke="#9a32cd" points="493.08,-614.44 483.87,-619.67 494.33,-621.32 493.08,-614.44"/>
<text text-anchor="middle" x="582" y="-613" font-family="Helvetica,sans-Serif" font-size="10.00"> mf</text>
</g>
<!-- Node9 -->
<g id="node8" class="node">
<title>Node9</title>
<g id="a_node8"><a xlink:href="structJSSharedArrayBufferFunctions.html" target="_top" xlink:title=" ">
<polygon fill="none" stroke="black" points="351,-467.5 351,-486.5 512,-486.5 512,-467.5 351,-467.5"/>
<text text-anchor="middle" x="431.5" y="-474.5" font-family="Helvetica,sans-Serif" font-size="10.00">JSSharedArrayBufferFunctions</text>
</a>
</g>
</g>
<!-- Node9&#45;&gt;Node3 -->
<g id="edge8" class="edge">
<title>Node9&#45;&gt;Node3</title>
<path fill="none" stroke="#9a32cd" stroke-dasharray="5,2" d="M483.2,-489.55C492.98,-492.73 502.99,-496.54 512,-501 520.85,-505.38 521,-509.96 530,-514 573.19,-533.37 590.13,-519.2 634,-537 654.57,-545.35 675.99,-559.67 689.16,-569.23"/>
<polygon fill="#9a32cd" stroke="#9a32cd" points="484.12,-486.17 473.53,-486.57 482.06,-492.86 484.12,-486.17"/>
<text text-anchor="middle" x="582" y="-540" font-family="Helvetica,sans-Serif" font-size="10.00"> sab_funcs</text>
</g>
<!-- Node10 -->
<g id="node9" class="node">
<title>Node10</title>
<g id="a_node9"><a xlink:href="structJSString.html" target="_top" xlink:title=" ">
<polygon fill="none" stroke="black" points="404.5,-344.5 404.5,-363.5 458.5,-363.5 458.5,-344.5 404.5,-344.5"/>
<text text-anchor="middle" x="431.5" y="-351.5" font-family="Helvetica,sans-Serif" font-size="10.00">JSString</text>
</a>
</g>
</g>
<!-- Node10&#45;&gt;Node3 -->
<g id="edge9" class="edge">
<title>Node10&#45;&gt;Node3</title>
<path fill="none" stroke="#9a32cd" stroke-dasharray="5,2" d="M468.83,-350.01C519.75,-345.23 608.93,-340.02 634,-359 703.49,-411.6 703.94,-534.15 702.54,-569.37"/>
<polygon fill="#9a32cd" stroke="#9a32cd" points="468.2,-346.56 458.59,-351.02 468.88,-353.52 468.2,-346.56"/>
<text text-anchor="middle" x="582" y="-362" font-family="Helvetica,sans-Serif" font-size="10.00"> atom_array</text>
</g>
<!-- Node11 -->
<g id="node10" class="node">
<title>Node11</title>
<g id="a_node10"><a xlink:href="structJSRefCountHeader.html" target="_top" xlink:title=" ">
<polygon fill="none" stroke="black" points="119.5,-292.5 119.5,-311.5 225.5,-311.5 225.5,-292.5 119.5,-292.5"/>
<text text-anchor="middle" x="172.5" y="-299.5" font-family="Helvetica,sans-Serif" font-size="10.00">JSRefCountHeader</text>
</a>
</g>
</g>
<!-- Node11&#45;&gt;Node10 -->
<g id="edge10" class="edge">
<title>Node11&#45;&gt;Node10</title>
<path fill="none" stroke="#9a32cd" stroke-dasharray="5,2" d="M230.46,-313.52C284.7,-324.5 363.89,-340.52 404.45,-348.73"/>
<polygon fill="#9a32cd" stroke="#9a32cd" points="231.13,-310.09 220.64,-311.54 229.75,-316.95 231.13,-310.09"/>
<text text-anchor="middle" x="288.5" y="-337" font-family="Helvetica,sans-Serif" font-size="10.00"> header</text>
</g>
<!-- Node11&#45;&gt;Node45 -->
<g id="edge27" class="edge">
<title>Node11&#45;&gt;Node45</title>
<path fill="none" stroke="#9a32cd" stroke-dasharray="5,2" d="M191.67,-285.1C203.26,-273.29 217.63,-256.54 226,-239 243.75,-201.79 212.53,-174.64 244,-148 265.63,-129.69 725.67,-133.91 754,-133 805.56,-131.35 818.79,-135.21 870,-129 880.7,-127.7 892.18,-125.61 902.74,-123.4"/>
<polygon fill="#9a32cd" stroke="#9a32cd" points="188.88,-282.93 184.2,-292.44 193.78,-287.93 188.88,-282.93"/>
<text text-anchor="middle" x="582" y="-137" font-family="Helvetica,sans-Serif" font-size="10.00"> header</text>
</g>
<!-- Node12 -->
<g id="node11" class="node">
<title>Node12</title>
<g id="a_node11"><a xlink:href="structJSShape.html" target="_top" xlink:title=" ">
<polygon fill="none" stroke="red" points="403.5,-277.5 403.5,-296.5 459.5,-296.5 459.5,-277.5 403.5,-277.5"/>
<text text-anchor="middle" x="431.5" y="-284.5" font-family="Helvetica,sans-Serif" font-size="10.00">JSShape</text>
</a>
</g>
</g>
<!-- Node12&#45;&gt;Node2 -->
<g id="edge22" class="edge">
<title>Node12&#45;&gt;Node2</title>
<path fill="none" stroke="#9a32cd" stroke-dasharray="5,2" d="M469.77,-290.02C510.24,-293.37 576.75,-299.09 634,-305 735.05,-315.43 854.5,-330.08 910.1,-337.04"/>
<polygon fill="#9a32cd" stroke="#9a32cd" points="469.83,-286.51 459.57,-289.18 469.25,-293.49 469.83,-286.51"/>
<text text-anchor="middle" x="703" y="-320" font-family="Helvetica,sans-Serif" font-size="10.00"> array_shape</text>
</g>
<!-- Node12&#45;&gt;Node3 -->
<g id="edge11" class="edge">
<title>Node12&#45;&gt;Node3</title>
<path fill="none" stroke="#9a32cd" stroke-dasharray="5,2" d="M469.66,-292.79C524.55,-301.67 622.12,-318.78 634,-330 670.31,-364.32 694.96,-527.79 700.71,-569.36"/>
<polygon fill="#9a32cd" stroke="#9a32cd" points="470.04,-289.31 459.61,-291.18 468.93,-296.22 470.04,-289.31"/>
<text text-anchor="middle" x="582" y="-333" font-family="Helvetica,sans-Serif" font-size="10.00"> shape_hash</text>
</g>
<!-- Node12&#45;&gt;Node12 -->
<g id="edge12" class="edge">
<title>Node12&#45;&gt;Node12</title>
<path fill="none" stroke="#9a32cd" stroke-dasharray="5,2" d="M404.99,-305.65C406.1,-310.94 414.94,-315 431.5,-315 456.74,-315 464.03,-305.57 453.39,-296.76"/>
<polygon fill="#9a32cd" stroke="#9a32cd" points="408.11,-307.24 409.61,-296.76 401.9,-304.02 408.11,-307.24"/>
<text text-anchor="middle" x="431.5" y="-318" font-family="Helvetica,sans-Serif" font-size="10.00"> shape_hash_next</text>
</g>
<!-- Node16&#45;&gt;Node2 -->
<g id="edge23" class="edge">
<title>Node16&#45;&gt;Node2</title>
<path fill="none" stroke="#9a32cd" stroke-dasharray="5,2" d="M227.53,-208.57C314.35,-192.19 489.83,-167.32 634,-199 754.61,-225.5 884.26,-304.08 926.97,-331.46"/>
<polygon fill="#9a32cd" stroke="#9a32cd" points="226.8,-205.15 217.64,-210.47 228.12,-212.02 226.8,-205.15"/>
<text text-anchor="middle" x="582" y="-202" font-family="Helvetica,sans-Serif" font-size="10.00"> header</text>
</g>
<!-- Node16&#45;&gt;Node12 -->
<g id="edge13" class="edge">
<title>Node16&#45;&gt;Node12</title>
<path fill="none" stroke="#9a32cd" stroke-dasharray="5,2" d="M219.99,-232.12C273.6,-246.1 359.93,-268.6 403.5,-279.96"/>
<polygon fill="#9a32cd" stroke="#9a32cd" points="220.61,-228.66 210.05,-229.53 218.84,-235.44 220.61,-228.66"/>
<text text-anchor="middle" x="288.5" y="-265" font-family="Helvetica,sans-Serif" font-size="10.00"> header</text>
</g>
<!-- Node16&#45;&gt;Node15 -->
<g id="edge35" class="edge">
<title>Node16&#45;&gt;Node15</title>
<path fill="none" stroke="#9a32cd" stroke-dasharray="5,2" d="M179.31,-200.64C188.35,-174.41 208.53,-128.61 244,-109 294.01,-81.34 363.71,-91.35 402.18,-100.23"/>
<polygon fill="#9a32cd" stroke="#9a32cd" points="175.95,-199.65 176.2,-210.25 182.61,-201.81 175.95,-199.65"/>
<text text-anchor="middle" x="288.5" y="-112" font-family="Helvetica,sans-Serif" font-size="10.00"> header</text>
</g>
<!-- Node43 -->
<g id="node13" class="node">
<title>Node43</title>
<g id="a_node13"><a xlink:href="structJSClass.html" target="_top" xlink:title=" ">
<polygon fill="none" stroke="red" points="405.5,-695.5 405.5,-714.5 457.5,-714.5 457.5,-695.5 405.5,-695.5"/>
<text text-anchor="middle" x="431.5" y="-702.5" font-family="Helvetica,sans-Serif" font-size="10.00">JSClass</text>
</a>
</g>
</g>
<!-- Node43&#45;&gt;Node3 -->
<g id="edge15" class="edge">
<title>Node43&#45;&gt;Node3</title>
<path fill="none" stroke="#9a32cd" stroke-dasharray="5,2" d="M467.94,-706.24C510.47,-706.11 582.48,-700.61 634,-669 666.38,-649.13 688.74,-607.69 697.66,-588.78"/>
<polygon fill="#9a32cd" stroke="#9a32cd" points="467.82,-702.74 457.8,-706.17 467.77,-709.74 467.82,-702.74"/>
<text text-anchor="middle" x="582" y="-704" font-family="Helvetica,sans-Serif" font-size="10.00"> class_array</text>
</g>
<!-- Node31&#45;&gt;Node3 -->
<g id="edge16" class="edge">
<title>Node31&#45;&gt;Node3</title>
<path fill="none" stroke="#9a32cd" stroke-dasharray="5,2" d="M483.35,-568.49C498.35,-570.2 514.82,-571.88 530,-573 578.42,-576.57 634.67,-578.03 669.31,-578.61"/>
<polygon fill="#9a32cd" stroke="#9a32cd" points="483.57,-564.99 473.23,-567.31 482.76,-571.95 483.57,-564.99"/>
<text text-anchor="middle" x="582" y="-580" font-family="Helvetica,sans-Serif" font-size="10.00"> current_stack_frame</text>
</g>
<!-- Node31&#45;&gt;Node31 -->
<g id="edge19" class="edge">
<title>Node31&#45;&gt;Node31</title>
<path fill="none" stroke="#9a32cd" stroke-dasharray="5,2" d="M404.99,-580.65C406.1,-585.94 414.94,-590 431.5,-590 456.74,-590 464.03,-580.57 453.39,-571.76"/>
<polygon fill="#9a32cd" stroke="#9a32cd" points="408.11,-582.24 409.61,-571.76 401.9,-579.02 408.11,-582.24"/>
<text text-anchor="middle" x="431.5" y="-593" font-family="Helvetica,sans-Serif" font-size="10.00"> prev_frame</text>
</g>
<!-- Node45&#45;&gt;Node1 -->
<g id="edge24" class="edge">
<title>Node45&#45;&gt;Node1</title>
<path fill="none" stroke="#9a32cd" stroke-dasharray="5,2" d="M961.67,-130.69C1010.18,-175.28 1141.67,-296.12 1179.93,-331.28"/>
<polygon fill="#9a32cd" stroke="#9a32cd" points="963.84,-127.94 954.11,-123.75 959.11,-133.1 963.84,-127.94"/>
<text text-anchor="middle" x="1065" y="-271" font-family="Helvetica,sans-Serif" font-size="10.00"> m</text>
</g>
<!-- Node47 -->
<g id="node17" class="node">
<title>Node47</title>
<g id="a_node17"><a xlink:href="structJSReqModuleEntry.html" target="_top" xlink:title=" ">
<polygon fill="none" stroke="black" points="1138.5,-104.5 1138.5,-123.5 1244.5,-123.5 1244.5,-104.5 1138.5,-104.5"/>
<text text-anchor="middle" x="1191.5" y="-111.5" font-family="Helvetica,sans-Serif" font-size="10.00">JSReqModuleEntry</text>
</a>
</g>
</g>
<!-- Node45&#45;&gt;Node47 -->
<g id="edge30" class="edge">
<title>Node45&#45;&gt;Node47</title>
<path fill="none" stroke="#9a32cd" stroke-dasharray="5,2" d="M991.83,-102.45C999.54,-101.02 1007.46,-99.78 1015,-99 1059.21,-94.41 1070.77,-94.65 1115,-99 1126.44,-100.13 1138.71,-102.19 1149.97,-104.43"/>
<polygon fill="#9a32cd" stroke="#9a32cd" points="990.99,-99.05 981.86,-104.43 992.35,-105.92 990.99,-99.05"/>
<text text-anchor="middle" x="1065" y="-102" font-family="Helvetica,sans-Serif" font-size="10.00"> module</text>
</g>
<!-- Node46 -->
<g id="node16" class="node">
<title>Node46</title>
<g id="a_node16"><a xlink:href="structJSStarExportEntry.html" target="_top" xlink:title=" ">
<polygon fill="none" stroke="black" points="652,-104.5 652,-123.5 754,-123.5 754,-104.5 652,-104.5"/>
<text text-anchor="middle" x="703" y="-111.5" font-family="Helvetica,sans-Serif" font-size="10.00">JSStarExportEntry</text>
</a>
</g>
</g>
<!-- Node46&#45;&gt;Node45 -->
<g id="edge28" class="edge">
<title>Node46&#45;&gt;Node45</title>
<path fill="none" stroke="#9a32cd" stroke-dasharray="5,2" d="M764.26,-114C807.79,-114 865.3,-114 902.83,-114"/>
<polygon fill="#9a32cd" stroke="#9a32cd" points="764.08,-110.5 754.08,-114 764.08,-117.5 764.08,-110.5"/>
<text text-anchor="middle" x="821" y="-117" font-family="Helvetica,sans-Serif" font-size="10.00"> star_export_entries</text>
</g>
<!-- Node47&#45;&gt;Node45 -->
<g id="edge29" class="edge">
<title>Node47&#45;&gt;Node45</title>
<path fill="none" stroke="#9a32cd" stroke-dasharray="5,2" d="M1128.27,-114C1082.31,-114 1021.2,-114 982.09,-114"/>
<polygon fill="#9a32cd" stroke="#9a32cd" points="1128.42,-117.5 1138.42,-114 1128.42,-110.5 1128.42,-117.5"/>
<text text-anchor="middle" x="1065" y="-117" font-family="Helvetica,sans-Serif" font-size="10.00"> req_module_entries</text>
</g>
<!-- Node48 -->
<g id="node18" class="node">
<title>Node48</title>
<g id="a_node18"><a xlink:href="structJSImportEntry.html" target="_top" xlink:title=" ">
<polygon fill="none" stroke="black" points="661.5,-66.5 661.5,-85.5 744.5,-85.5 744.5,-66.5 661.5,-66.5"/>
<text text-anchor="middle" x="703" y="-73.5" font-family="Helvetica,sans-Serif" font-size="10.00">JSImportEntry</text>
</a>
</g>
</g>
<!-- Node48&#45;&gt;Node45 -->
<g id="edge31" class="edge">
<title>Node48&#45;&gt;Node45</title>
<path fill="none" stroke="#9a32cd" stroke-dasharray="5,2" d="M755,-82.14C787.91,-86.33 831.59,-92.32 870,-99 880.62,-100.85 892.07,-103.12 902.63,-105.34"/>
<polygon fill="#9a32cd" stroke="#9a32cd" points="755.07,-78.62 744.71,-80.84 754.2,-85.57 755.07,-78.62"/>
<text text-anchor="middle" x="821" y="-102" font-family="Helvetica,sans-Serif" font-size="10.00"> import_entries</text>
</g>
<!-- Node49 -->
<g id="node19" class="node">
<title>Node49</title>
<g id="a_node19"><a xlink:href="structJSExportEntry.html" target="_top" xlink:title=" ">
<polygon fill="none" stroke="black" points="661.5,-28.5 661.5,-47.5 744.5,-47.5 744.5,-28.5 661.5,-28.5"/>
<text text-anchor="middle" x="703" y="-35.5" font-family="Helvetica,sans-Serif" font-size="10.00">JSExportEntry</text>
</a>
</g>
</g>
<!-- Node49&#45;&gt;Node45 -->
<g id="edge32" class="edge">
<title>Node49&#45;&gt;Node45</title>
<path fill="none" stroke="#9a32cd" stroke-dasharray="5,2" d="M754.75,-42.97C788.32,-47.41 832.82,-55.53 870,-70 892.28,-78.67 915.36,-94.29 929.07,-104.39"/>
<polygon fill="#9a32cd" stroke="#9a32cd" points="755.07,-39.48 744.71,-41.71 754.19,-46.43 755.07,-39.48"/>
<text text-anchor="middle" x="821" y="-73" font-family="Helvetica,sans-Serif" font-size="10.00"> export_entries</text>
</g>
<!-- Node15&#45;&gt;Node49 -->
<g id="edge33" class="edge">
<title>Node15&#45;&gt;Node49</title>
<path fill="none" stroke="#9a32cd" stroke-dasharray="5,2" d="M470.34,-98.17C521.95,-84.77 613.83,-60.9 665,-47.61"/>
<polygon fill="#9a32cd" stroke="#9a32cd" points="469.38,-94.81 460.58,-100.71 471.14,-101.58 469.38,-94.81"/>
<text text-anchor="middle" x="582" y="-85" font-family="Helvetica,sans-Serif" font-size="10.00"> var_ref</text>
</g>
<!-- Node50 -->
<g id="node21" class="node">
<title>Node50</title>
<g id="a_node21"><a xlink:title=" ">
<polygon fill="none" stroke="#bfbfbf" points="888,-369.5 888,-388.5 997,-388.5 997,-369.5 888,-369.5"/>
<text text-anchor="middle" x="942.5" y="-376.5" font-family="Helvetica,sans-Serif" font-size="10.00">std::vector&lt; nvp &gt;</text>
</a>
</g>
</g>
<!-- Node50&#45;&gt;Node1 -->
<g id="edge36" class="edge">
<title>Node50&#45;&gt;Node1</title>
<path fill="none" stroke="#9a32cd" stroke-dasharray="5,2" d="M1007.53,-371.38C1039.83,-367.29 1079.57,-361.89 1115,-356 1124.76,-354.38 1135.18,-352.44 1145.07,-350.51"/>
<polygon fill="#9a32cd" stroke="#9a32cd" points="1006.8,-367.95 997.32,-372.66 1007.67,-374.89 1006.8,-367.95"/>
<text text-anchor="middle" x="1065" y="-373" font-family="Helvetica,sans-Serif" font-size="10.00"> exports</text>
</g>
</g>
</svg>
