<?xml version="1.0" encoding="UTF-8" standalone="no"?>
<!DOCTYPE svg PUBLIC "-//W3C//DTD SVG 1.1//EN"
 "http://www.w3.org/Graphics/SVG/1.1/DTD/svg11.dtd">
<!-- Generated by graphviz version 2.43.0 (0)
 -->
<!-- Title: dbuf_put_u64 Pages: 1 -->
<svg width="299pt" height="28pt"
 viewBox="0.00 0.00 299.00 28.00" xmlns="http://www.w3.org/2000/svg" xmlns:xlink="http://www.w3.org/1999/xlink">
<g id="graph0" class="graph" transform="scale(1 1) rotate(0) translate(4 24)">
<title>dbuf_put_u64</title>
<!-- Node1 -->
<g id="node1" class="node">
<title>Node1</title>
<g id="a_node1"><a xlink:title=" ">
<polygon fill="#bfbfbf" stroke="black" points="0,-0.5 0,-19.5 83,-19.5 83,-0.5 0,-0.5"/>
<text text-anchor="middle" x="41.5" y="-7.5" font-family="Helvetica,sans-Serif" font-size="10.00">dbuf_put_u64</text>
</a>
</g>
</g>
<!-- Node2 -->
<g id="node2" class="node">
<title>Node2</title>
<g id="a_node2"><a xlink:href="cutils_8h.html#ad1cfaae47347ae771136b5a9bbda49aa" target="_top" xlink:title=" ">
<polygon fill="none" stroke="black" points="119,-0.5 119,-19.5 178,-19.5 178,-0.5 119,-0.5"/>
<text text-anchor="middle" x="148.5" y="-7.5" font-family="Helvetica,sans-Serif" font-size="10.00">dbuf_put</text>
</a>
</g>
</g>
<!-- Node1&#45;&gt;Node2 -->
<g id="edge1" class="edge">
<title>Node1&#45;&gt;Node2</title>
<path fill="none" stroke="midnightblue" d="M83.1,-10C91.45,-10 100.24,-10 108.54,-10"/>
<polygon fill="midnightblue" stroke="midnightblue" points="108.72,-13.5 118.72,-10 108.72,-6.5 108.72,-13.5"/>
</g>
<!-- Node3 -->
<g id="node3" class="node">
<title>Node3</title>
<g id="a_node3"><a xlink:href="cutils_8h.html#ac0b9ce26415947e972d6781d9f2fb11b" target="_top" xlink:title=" ">
<polygon fill="none" stroke="black" points="214,-0.5 214,-19.5 291,-19.5 291,-0.5 214,-0.5"/>
<text text-anchor="middle" x="252.5" y="-7.5" font-family="Helvetica,sans-Serif" font-size="10.00">dbuf_realloc</text>
</a>
</g>
</g>
<!-- Node2&#45;&gt;Node3 -->
<g id="edge2" class="edge">
<title>Node2&#45;&gt;Node3</title>
<path fill="none" stroke="midnightblue" d="M178.18,-10C186.15,-10 195.01,-10 203.75,-10"/>
<polygon fill="midnightblue" stroke="midnightblue" points="203.89,-13.5 213.89,-10 203.89,-6.5 203.89,-13.5"/>
</g>
</g>
</svg>
