<?xml version="1.0" encoding="UTF-8" standalone="no"?>
<!DOCTYPE svg PUBLIC "-//W3C//DTD SVG 1.1//EN"
 "http://www.w3.org/Graphics/SVG/1.1/DTD/svg11.dtd">
<!-- Generated by graphviz version 2.43.0 (0)
 -->
<!-- Title: quickjs/cutils.h Pages: 1 -->
<svg width="708pt" height="84pt"
 viewBox="0.00 0.00 708.00 84.00" xmlns="http://www.w3.org/2000/svg" xmlns:xlink="http://www.w3.org/1999/xlink">
<g id="graph0" class="graph" transform="scale(1 1) rotate(0) translate(4 80)">
<title>quickjs/cutils.h</title>
<!-- Node1 -->
<g id="node1" class="node">
<title>Node1</title>
<g id="a_node1"><a xlink:title=" ">
<polygon fill="#bfbfbf" stroke="black" points="282,-56.5 282,-75.5 371,-75.5 371,-56.5 282,-56.5"/>
<text text-anchor="middle" x="326.5" y="-63.5" font-family="Helvetica,sans-Serif" font-size="10.00">quickjs/cutils.h</text>
</a>
</g>
</g>
<!-- Node2 -->
<g id="node2" class="node">
<title>Node2</title>
<g id="a_node2"><a xlink:href="cutils_8c.html" target="_top" xlink:title=" ">
<polygon fill="none" stroke="black" points="0,-0.5 0,-19.5 89,-19.5 89,-0.5 0,-0.5"/>
<text text-anchor="middle" x="44.5" y="-7.5" font-family="Helvetica,sans-Serif" font-size="10.00">quickjs/cutils.c</text>
</a>
</g>
</g>
<!-- Node1&#45;&gt;Node2 -->
<g id="edge1" class="edge">
<title>Node1&#45;&gt;Node2</title>
<path fill="none" stroke="midnightblue" d="M271.86,-54.54C218.56,-44.33 138.5,-29 88.97,-19.52"/>
<polygon fill="midnightblue" stroke="midnightblue" points="271.34,-58 281.82,-56.44 272.65,-51.13 271.34,-58"/>
</g>
<!-- Node3 -->
<g id="node3" class="node">
<title>Node3</title>
<g id="a_node3"><a xlink:href="libbf_8c.html" target="_top" xlink:title=" ">
<polygon fill="none" stroke="black" points="107,-0.5 107,-19.5 190,-19.5 190,-0.5 107,-0.5"/>
<text text-anchor="middle" x="148.5" y="-7.5" font-family="Helvetica,sans-Serif" font-size="10.00">quickjs/libbf.c</text>
</a>
</g>
</g>
<!-- Node1&#45;&gt;Node3 -->
<g id="edge2" class="edge">
<title>Node1&#45;&gt;Node3</title>
<path fill="none" stroke="midnightblue" d="M288.38,-53.44C254.82,-43.26 206.73,-28.66 176.57,-19.52"/>
<polygon fill="midnightblue" stroke="midnightblue" points="287.71,-56.89 298.3,-56.44 289.74,-50.19 287.71,-56.89"/>
</g>
<!-- Node4 -->
<g id="node4" class="node">
<title>Node4</title>
<g id="a_node4"><a xlink:href="libregexp_8c.html" target="_top" xlink:title=" ">
<polygon fill="none" stroke="black" points="208.5,-0.5 208.5,-19.5 316.5,-19.5 316.5,-0.5 208.5,-0.5"/>
<text text-anchor="middle" x="262.5" y="-7.5" font-family="Helvetica,sans-Serif" font-size="10.00">quickjs/libregexp.c</text>
</a>
</g>
</g>
<!-- Node1&#45;&gt;Node4 -->
<g id="edge3" class="edge">
<title>Node1&#45;&gt;Node4</title>
<path fill="none" stroke="midnightblue" d="M308.51,-49.82C297.04,-40.15 282.59,-27.95 272.97,-19.83"/>
<polygon fill="midnightblue" stroke="midnightblue" points="306.32,-52.55 316.22,-56.32 310.83,-47.2 306.32,-52.55"/>
</g>
<!-- Node5 -->
<g id="node5" class="node">
<title>Node5</title>
<g id="a_node5"><a xlink:href="libunicode_8c.html" target="_top" xlink:title=" ">
<polygon fill="none" stroke="black" points="335,-0.5 335,-19.5 448,-19.5 448,-0.5 335,-0.5"/>
<text text-anchor="middle" x="391.5" y="-7.5" font-family="Helvetica,sans-Serif" font-size="10.00">quickjs/libunicode.c</text>
</a>
</g>
</g>
<!-- Node1&#45;&gt;Node5 -->
<g id="edge4" class="edge">
<title>Node1&#45;&gt;Node5</title>
<path fill="none" stroke="midnightblue" d="M344.77,-49.82C356.42,-40.15 371.1,-27.95 380.87,-19.83"/>
<polygon fill="midnightblue" stroke="midnightblue" points="342.4,-47.24 336.94,-56.32 346.87,-52.63 342.4,-47.24"/>
</g>
<!-- Node6 -->
<g id="node6" class="node">
<title>Node6</title>
<g id="a_node6"><a xlink:href="quickjs-libc_8c.html" target="_top" xlink:title=" ">
<polygon fill="none" stroke="black" points="466.5,-0.5 466.5,-19.5 584.5,-19.5 584.5,-0.5 466.5,-0.5"/>
<text text-anchor="middle" x="525.5" y="-7.5" font-family="Helvetica,sans-Serif" font-size="10.00">quickjs/quickjs&#45;libc.c</text>
</a>
</g>
</g>
<!-- Node1&#45;&gt;Node6 -->
<g id="edge5" class="edge">
<title>Node1&#45;&gt;Node6</title>
<path fill="none" stroke="midnightblue" d="M368.15,-53.7C405.71,-43.51 460.11,-28.74 494.12,-19.52"/>
<polygon fill="midnightblue" stroke="midnightblue" points="366.77,-50.45 358.03,-56.44 368.6,-57.2 366.77,-50.45"/>
</g>
<!-- Node7 -->
<g id="node7" class="node">
<title>Node7</title>
<g id="a_node7"><a xlink:href="quickjs_8c.html" target="_top" xlink:title=" ">
<polygon fill="none" stroke="black" points="603,-0.5 603,-19.5 700,-19.5 700,-0.5 603,-0.5"/>
<text text-anchor="middle" x="651.5" y="-7.5" font-family="Helvetica,sans-Serif" font-size="10.00">quickjs/quickjs.c</text>
</a>
</g>
</g>
<!-- Node1&#45;&gt;Node7 -->
<g id="edge6" class="edge">
<title>Node1&#45;&gt;Node7</title>
<path fill="none" stroke="midnightblue" d="M380.99,-55.95C442.97,-45.65 543.28,-28.98 602.76,-19.1"/>
<polygon fill="midnightblue" stroke="midnightblue" points="380.3,-52.51 371.01,-57.6 381.45,-59.42 380.3,-52.51"/>
</g>
</g>
</svg>
