<?xml version="1.0" encoding="UTF-8" standalone="no"?>
<!DOCTYPE svg PUBLIC "-//W3C//DTD SVG 1.1//EN"
 "http://www.w3.org/Graphics/SVG/1.1/DTD/svg11.dtd">
<!-- Generated by graphviz version 2.43.0 (0)
 -->
<!-- Title: mul_mod_fast3 Pages: 1 -->
<svg width="396pt" height="66pt"
 viewBox="0.00 0.00 396.00 66.00" xmlns="http://www.w3.org/2000/svg" xmlns:xlink="http://www.w3.org/1999/xlink">
<g id="graph0" class="graph" transform="scale(1 1) rotate(0) translate(4 62)">
<title>mul_mod_fast3</title>
<!-- Node1 -->
<g id="node1" class="node">
<title>Node1</title>
<g id="a_node1"><a xlink:title=" ">
<polygon fill="#bfbfbf" stroke="black" points="296,-19.5 296,-38.5 388,-38.5 388,-19.5 296,-19.5"/>
<text text-anchor="middle" x="342" y="-26.5" font-family="Helvetica,sans-Serif" font-size="10.00">mul_mod_fast3</text>
</a>
</g>
</g>
<!-- Node2 -->
<g id="node2" class="node">
<title>Node2</title>
<g id="a_node2"><a xlink:href="libbf_8c.html#ab3fb41bbc385686962ae17d42f66d2ab" target="_top" xlink:title=" ">
<polygon fill="none" stroke="black" points="214,-38.5 214,-57.5 260,-57.5 260,-38.5 214,-38.5"/>
<text text-anchor="middle" x="237" y="-45.5" font-family="Helvetica,sans-Serif" font-size="10.00">ntt_fft</text>
</a>
</g>
</g>
<!-- Node1&#45;&gt;Node2 -->
<g id="edge1" class="edge">
<title>Node1&#45;&gt;Node2</title>
<path fill="none" stroke="midnightblue" d="M285.95,-39.15C276.86,-40.83 267.92,-42.48 260.26,-43.89"/>
<polygon fill="midnightblue" stroke="midnightblue" points="286.62,-42.59 295.82,-37.33 285.35,-35.71 286.62,-42.59"/>
</g>
<!-- Node70 -->
<g id="node5" class="node">
<title>Node70</title>
<g id="a_node5"><a xlink:href="libbf_8c.html#a09b7b1b6746e8dfb0af0801e4dff8b54" target="_top" xlink:title=" ">
<polygon fill="none" stroke="black" points="98,-0.5 98,-19.5 175,-19.5 175,-0.5 98,-0.5"/>
<text text-anchor="middle" x="136.5" y="-7.5" font-family="Helvetica,sans-Serif" font-size="10.00">ntt_vec_mul</text>
</a>
</g>
</g>
<!-- Node1&#45;&gt;Node70 -->
<g id="edge5" class="edge">
<title>Node1&#45;&gt;Node70</title>
<path fill="none" stroke="midnightblue" d="M285.73,-23.84C250.61,-20.56 206.08,-16.4 175.04,-13.5"/>
<polygon fill="midnightblue" stroke="midnightblue" points="285.55,-27.34 295.84,-24.78 286.21,-20.37 285.55,-27.34"/>
</g>
<!-- Node3 -->
<g id="node3" class="node">
<title>Node3</title>
<g id="a_node3"><a xlink:href="libbf_8c.html#a53010343d7669bc13648ab1a56ea8563" target="_top" xlink:title=" ">
<polygon fill="none" stroke="black" points="95,-38.5 95,-57.5 178,-57.5 178,-38.5 95,-38.5"/>
<text text-anchor="middle" x="136.5" y="-45.5" font-family="Helvetica,sans-Serif" font-size="10.00">ntt_fft_partial</text>
</a>
</g>
</g>
<!-- Node2&#45;&gt;Node3 -->
<g id="edge2" class="edge">
<title>Node2&#45;&gt;Node3</title>
<path fill="none" stroke="midnightblue" d="M203.54,-48C195.49,-48 186.75,-48 178.35,-48"/>
<polygon fill="midnightblue" stroke="midnightblue" points="203.65,-51.5 213.65,-48 203.65,-44.5 203.65,-51.5"/>
</g>
<!-- Node4 -->
<g id="node4" class="node">
<title>Node4</title>
<g id="a_node4"><a xlink:href="libbf_8c.html#a6ae58e818e85536ef032aeac42aaa3e0" target="_top" xlink:title=" ">
<polygon fill="none" stroke="red" points="0,-19.5 0,-38.5 59,-38.5 59,-19.5 0,-19.5"/>
<text text-anchor="middle" x="29.5" y="-26.5" font-family="Helvetica,sans-Serif" font-size="10.00">ntt_conv</text>
</a>
</g>
</g>
<!-- Node3&#45;&gt;Node4 -->
<g id="edge3" class="edge">
<title>Node3&#45;&gt;Node4</title>
<path fill="none" stroke="midnightblue" d="M85.01,-38.86C76.18,-37.27 67.26,-35.65 59.28,-34.21"/>
<polygon fill="midnightblue" stroke="midnightblue" points="84.44,-42.32 94.9,-40.65 85.69,-35.43 84.44,-42.32"/>
</g>
<!-- Node4&#45;&gt;Node4 -->
<g id="edge4" class="edge">
<title>Node4&#45;&gt;Node4</title>
<path fill="none" stroke="midnightblue" d="M49.13,-48.4C47.82,-53.31 41.27,-57 29.5,-57 10.66,-57 5.21,-47.57 13.16,-38.76"/>
<polygon fill="midnightblue" stroke="midnightblue" points="52.38,-47.09 45.84,-38.76 45.76,-49.35 52.38,-47.09"/>
</g>
<!-- Node70&#45;&gt;Node4 -->
<g id="edge6" class="edge">
<title>Node70&#45;&gt;Node4</title>
<path fill="none" stroke="midnightblue" d="M87.86,-18.62C78.11,-20.39 68.13,-22.19 59.28,-23.79"/>
<polygon fill="midnightblue" stroke="midnightblue" points="88.67,-22.03 97.89,-16.81 87.43,-15.14 88.67,-22.03"/>
</g>
</g>
</svg>
