<?xml version="1.0" encoding="UTF-8" standalone="no"?>
<!DOCTYPE svg PUBLIC "-//W3C//DTD SVG 1.1//EN"
 "http://www.w3.org/Graphics/SVG/1.1/DTD/svg11.dtd">
<!-- Generated by graphviz version 2.43.0 (0)
 -->
<!-- Title: bf_set Pages: 1 -->
<svg width="599pt" height="1034pt"
 viewBox="0.00 0.00 599.00 1034.00" xmlns="http://www.w3.org/2000/svg" xmlns:xlink="http://www.w3.org/1999/xlink">
<g id="graph0" class="graph" transform="scale(1 1) rotate(0) translate(4 1030)">
<title>bf_set</title>
<!-- Node1 -->
<g id="node1" class="node">
<title>Node1</title>
<g id="a_node1"><a xlink:title=" ">
<polygon fill="#bfbfbf" stroke="black" points="544,-455.5 544,-474.5 591,-474.5 591,-455.5 544,-455.5"/>
<text text-anchor="middle" x="567.5" y="-462.5" font-family="Helvetica,sans-Serif" font-size="10.00">bf_set</text>
</a>
</g>
</g>
<!-- Node2 -->
<g id="node2" class="node">
<title>Node2</title>
<g id="a_node2"><a xlink:href="libbf_8c.html#aaebd1df91497246cd81f23918af58d33" target="_top" xlink:title=" ">
<polygon fill="none" stroke="black" points="405.5,-968.5 405.5,-987.5 497.5,-987.5 497.5,-968.5 405.5,-968.5"/>
<text text-anchor="middle" x="451.5" y="-975.5" font-family="Helvetica,sans-Serif" font-size="10.00">bf_add_internal</text>
</a>
</g>
</g>
<!-- Node1&#45;&gt;Node2 -->
<g id="edge1" class="edge">
<title>Node1&#45;&gt;Node2</title>
<path fill="none" stroke="midnightblue" d="M566.68,-485C567.06,-567.18 564.64,-878.06 508,-954 503.29,-960.31 496.58,-964.98 489.44,-968.44"/>
<polygon fill="midnightblue" stroke="midnightblue" points="570.18,-484.57 566.61,-474.59 563.18,-484.61 570.18,-484.57"/>
</g>
<!-- Node6 -->
<g id="node5" class="node">
<title>Node6</title>
<g id="a_node5"><a xlink:href="libbf_8h.html#a8ee86879e3da22442956f47356855edd" target="_top" xlink:title=" ">
<polygon fill="none" stroke="black" points="0,-854.5 0,-873.5 52,-873.5 52,-854.5 0,-854.5"/>
<text text-anchor="middle" x="26" y="-861.5" font-family="Helvetica,sans-Serif" font-size="10.00">bf_asin</text>
</a>
</g>
</g>
<!-- Node1&#45;&gt;Node6 -->
<g id="edge4" class="edge">
<title>Node1&#45;&gt;Node6</title>
<path fill="none" stroke="midnightblue" d="M566.72,-484.93C567.1,-560.5 564.4,-827.99 508,-886 380.53,-1017.11 119.7,-908.09 46.49,-873.59"/>
<polygon fill="midnightblue" stroke="midnightblue" points="570.21,-484.48 566.64,-474.51 563.21,-484.54 570.21,-484.48"/>
</g>
<!-- Node7 -->
<g id="node6" class="node">
<title>Node7</title>
<g id="a_node6"><a xlink:href="libbf_8h.html#a0bb2c5b98e3f978b84df9849c7ec50d6" target="_top" xlink:title=" ">
<polygon fill="none" stroke="red" points="124,-854.5 124,-873.5 177,-873.5 177,-854.5 124,-854.5"/>
<text text-anchor="middle" x="150.5" y="-861.5" font-family="Helvetica,sans-Serif" font-size="10.00">bf_atan</text>
</a>
</g>
</g>
<!-- Node1&#45;&gt;Node7 -->
<g id="edge5" class="edge">
<title>Node1&#45;&gt;Node7</title>
<path fill="none" stroke="midnightblue" d="M566.24,-484.65C564.89,-554.76 556.76,-791.27 508,-845 422.2,-939.55 243.64,-894.24 177.17,-872.93"/>
<polygon fill="midnightblue" stroke="midnightblue" points="569.74,-484.61 566.4,-474.55 562.74,-484.49 569.74,-484.61"/>
</g>
<!-- Node17 -->
<g id="node7" class="node">
<title>Node17</title>
<g id="a_node7"><a xlink:href="libbf_8c.html#aa4b535a5b33344704c576607ab4f0463" target="_top" xlink:title=" ">
<polygon fill="none" stroke="black" points="256,-778.5 256,-797.5 352,-797.5 352,-778.5 256,-778.5"/>
<text text-anchor="middle" x="304" y="-785.5" font-family="Helvetica,sans-Serif" font-size="10.00">bf_atan_internal</text>
</a>
</g>
</g>
<!-- Node1&#45;&gt;Node17 -->
<g id="edge6" class="edge">
<title>Node1&#45;&gt;Node17</title>
<path fill="none" stroke="midnightblue" d="M564.75,-484.87C559.47,-540.33 541.95,-695.05 508,-731 467.79,-773.58 398.54,-785.2 352.27,-787.93"/>
<polygon fill="midnightblue" stroke="midnightblue" points="568.26,-484.9 565.69,-474.62 561.29,-484.26 568.26,-484.9"/>
</g>
<!-- Node49 -->
<g id="node9" class="node">
<title>Node49</title>
<g id="a_node9"><a xlink:href="libbf_8c.html#aaaeb6c790a8b174f3c5631ee33c81910" target="_top" xlink:title=" ">
<polygon fill="none" stroke="red" points="257,-398.5 257,-417.5 351,-417.5 351,-398.5 257,-398.5"/>
<text text-anchor="middle" x="304" y="-405.5" font-family="Helvetica,sans-Serif" font-size="10.00">bf_atof_internal</text>
</a>
</g>
</g>
<!-- Node1&#45;&gt;Node49 -->
<g id="edge10" class="edge">
<title>Node1&#45;&gt;Node49</title>
<path fill="none" stroke="midnightblue" d="M544.26,-449.69C533.73,-443.18 520.69,-436.14 508,-432 456.05,-415.03 393.14,-409.8 351.26,-408.31"/>
<polygon fill="midnightblue" stroke="midnightblue" points="542.51,-452.72 552.81,-455.2 546.3,-446.84 542.51,-452.72"/>
</g>
<!-- Node60 -->
<g id="node10" class="node">
<title>Node60</title>
<g id="a_node10"><a xlink:href="libbf_8c.html#afad3b4ae5f29e7af0b533bb452a4f36a" target="_top" xlink:title=" ">
<polygon fill="none" stroke="black" points="412,-816.5 412,-835.5 491,-835.5 491,-816.5 412,-816.5"/>
<text text-anchor="middle" x="451.5" y="-823.5" font-family="Helvetica,sans-Serif" font-size="10.00">bf_const_get</text>
</a>
</g>
</g>
<!-- Node1&#45;&gt;Node60 -->
<g id="edge11" class="edge">
<title>Node1&#45;&gt;Node60</title>
<path fill="none" stroke="midnightblue" d="M564.72,-484.76C558.9,-546.07 539.05,-731.98 508,-783 499.13,-797.58 483.36,-809.07 470.89,-816.49"/>
<polygon fill="midnightblue" stroke="midnightblue" points="568.23,-484.81 565.67,-474.53 561.26,-484.17 568.23,-484.81"/>
</g>
<!-- Node34 -->
<g id="node12" class="node">
<title>Node34</title>
<g id="a_node12"><a xlink:href="libbf_8c.html#aab7bc918fdd8dbef25c31c6881c73fdd" target="_top" xlink:title=" ">
<polygon fill="none" stroke="red" points="106,-702.5 106,-721.5 195,-721.5 195,-702.5 106,-702.5"/>
<text text-anchor="middle" x="150.5" y="-709.5" font-family="Helvetica,sans-Serif" font-size="10.00">bf_log_internal</text>
</a>
</g>
</g>
<!-- Node1&#45;&gt;Node34 -->
<g id="edge22" class="edge">
<title>Node1&#45;&gt;Node34</title>
<path fill="none" stroke="midnightblue" d="M566.1,-484.88C564.22,-521.78 554.63,-600.87 508,-642 461.94,-682.62 279.64,-701.95 195.05,-708.87"/>
<polygon fill="midnightblue" stroke="midnightblue" points="569.6,-484.99 566.47,-474.87 562.6,-484.73 569.6,-484.99"/>
</g>
<!-- Node40 -->
<g id="node14" class="node">
<title>Node40</title>
<g id="a_node14"><a xlink:href="libbf_8c.html#a829c2ed2112548096d41c6ceb017e542" target="_top" xlink:title=" ">
<polygon fill="none" stroke="red" points="399.5,-266.5 399.5,-285.5 503.5,-285.5 503.5,-266.5 399.5,-266.5"/>
<text text-anchor="middle" x="451.5" y="-273.5" font-family="Helvetica,sans-Serif" font-size="10.00">bf_const_log2_rec</text>
</a>
</g>
</g>
<!-- Node1&#45;&gt;Node40 -->
<g id="edge16" class="edge">
<title>Node1&#45;&gt;Node40</title>
<path fill="none" stroke="midnightblue" d="M562.23,-445.11C555.04,-415.15 538.25,-357.72 508,-318 497.68,-304.45 481.89,-293.08 469.79,-285.61"/>
<polygon fill="midnightblue" stroke="midnightblue" points="558.88,-446.19 564.52,-455.16 565.71,-444.63 558.88,-446.19"/>
</g>
<!-- Node61 -->
<g id="node15" class="node">
<title>Node61</title>
<g id="a_node15"><a xlink:href="libbf_8c.html#a13930fbd670b65bf9f8c07a0fbcfc63b" target="_top" xlink:title=" ">
<polygon fill="none" stroke="black" points="395,-228.5 395,-247.5 508,-247.5 508,-228.5 395,-228.5"/>
<text text-anchor="middle" x="451.5" y="-235.5" font-family="Helvetica,sans-Serif" font-size="10.00">bf_convert_to_radix</text>
</a>
</g>
</g>
<!-- Node1&#45;&gt;Node61 -->
<g id="edge18" class="edge">
<title>Node1&#45;&gt;Node61</title>
<path fill="none" stroke="midnightblue" d="M566.7,-445.21C566.01,-404.46 558.66,-310.56 508,-257 504.36,-253.15 499.91,-250.08 495.13,-247.64"/>
<polygon fill="midnightblue" stroke="midnightblue" points="563.2,-445.23 566.74,-455.21 570.2,-445.2 563.2,-445.23"/>
</g>
<!-- Node18 -->
<g id="node16" class="node">
<title>Node18</title>
<g id="a_node16"><a xlink:href="libbf_8h.html#a951ec20cd7fa3bf021d165b213e15ce4" target="_top" xlink:title=" ">
<polygon fill="none" stroke="red" points="271,-171.5 271,-190.5 337,-190.5 337,-171.5 271,-171.5"/>
<text text-anchor="middle" x="304" y="-178.5" font-family="Helvetica,sans-Serif" font-size="10.00">bf_divrem</text>
</a>
</g>
</g>
<!-- Node1&#45;&gt;Node18 -->
<g id="edge19" class="edge">
<title>Node1&#45;&gt;Node18</title>
<path fill="none" stroke="midnightblue" d="M564.57,-445.43C558.97,-392.87 541.02,-250.46 508,-219 483.92,-196.06 388.15,-186.41 337.23,-182.84"/>
<polygon fill="midnightblue" stroke="midnightblue" points="561.1,-445.88 565.6,-455.47 568.06,-445.17 561.1,-445.88"/>
</g>
<!-- Node31 -->
<g id="node17" class="node">
<title>Node31</title>
<g id="a_node17"><a xlink:href="libbf_8c.html#ad79aefc435021a0743c89cb4aec7fa56" target="_top" xlink:title=" ">
<polygon fill="none" stroke="red" points="257.5,-341.5 257.5,-360.5 350.5,-360.5 350.5,-341.5 257.5,-341.5"/>
<text text-anchor="middle" x="304" y="-348.5" font-family="Helvetica,sans-Serif" font-size="10.00">bf_ftoa_internal</text>
</a>
</g>
</g>
<!-- Node1&#45;&gt;Node31 -->
<g id="edge20" class="edge">
<title>Node1&#45;&gt;Node31</title>
<path fill="none" stroke="midnightblue" d="M562.89,-445.28C556.81,-418.49 541.72,-371.6 508,-351 455.22,-318.76 379.4,-330.72 336.94,-341.44"/>
<polygon fill="midnightblue" stroke="midnightblue" points="559.53,-446.3 564.97,-455.39 566.38,-444.89 559.53,-446.3"/>
</g>
<!-- Node62 -->
<g id="node18" class="node">
<title>Node62</title>
<g id="a_node18"><a xlink:href="libbf_8h.html#a74f8125e45e931d1ecec220cea9c952e" target="_top" xlink:title=" ">
<polygon fill="none" stroke="black" points="408.5,-114.5 408.5,-133.5 494.5,-133.5 494.5,-114.5 408.5,-114.5"/>
<text text-anchor="middle" x="451.5" y="-121.5" font-family="Helvetica,sans-Serif" font-size="10.00">bf_get_float64</text>
</a>
</g>
</g>
<!-- Node1&#45;&gt;Node62 -->
<g id="edge21" class="edge">
<title>Node1&#45;&gt;Node62</title>
<path fill="none" stroke="midnightblue" d="M565.48,-445.3C561.85,-382.59 547.59,-189.03 508,-143 504.35,-138.75 499.7,-135.45 494.66,-132.89"/>
<polygon fill="midnightblue" stroke="midnightblue" points="561.99,-445.63 566.04,-455.42 568.98,-445.24 561.99,-445.63"/>
</g>
<!-- Node63 -->
<g id="node19" class="node">
<title>Node63</title>
<g id="a_node19"><a xlink:href="libbf_8h.html#a0b4d56fc6808de8feed2a234525df692" target="_top" xlink:title=" ">
<polygon fill="none" stroke="black" points="398.5,-360.5 398.5,-379.5 504.5,-379.5 504.5,-360.5 398.5,-360.5"/>
<text text-anchor="middle" x="451.5" y="-367.5" font-family="Helvetica,sans-Serif" font-size="10.00">bf_mul_pow_radix</text>
</a>
</g>
</g>
<!-- Node1&#45;&gt;Node63 -->
<g id="edge23" class="edge">
<title>Node1&#45;&gt;Node63</title>
<path fill="none" stroke="midnightblue" d="M554.89,-446.45C544.29,-430.75 527.34,-408.55 508,-394 500.11,-388.07 490.54,-383.26 481.57,-379.54"/>
<polygon fill="midnightblue" stroke="midnightblue" points="552.24,-448.8 560.64,-455.26 558.1,-444.97 552.24,-448.8"/>
</g>
<!-- Node27 -->
<g id="node20" class="node">
<title>Node27</title>
<g id="a_node20"><a xlink:href="libbf_8h.html#a93fe073491f8c5f086a75e7bf8865b34" target="_top" xlink:title=" ">
<polygon fill="none" stroke="black" points="0,-474.5 0,-493.5 52,-493.5 52,-474.5 0,-474.5"/>
<text text-anchor="middle" x="26" y="-481.5" font-family="Helvetica,sans-Serif" font-size="10.00">bf_pow</text>
</a>
</g>
</g>
<!-- Node1&#45;&gt;Node27 -->
<g id="edge26" class="edge">
<title>Node1&#45;&gt;Node27</title>
<path fill="none" stroke="midnightblue" d="M533.74,-461.56C455.87,-454.12 253.81,-439.22 88,-465 75.83,-466.89 62.75,-470.71 51.83,-474.44"/>
<polygon fill="midnightblue" stroke="midnightblue" points="533.6,-465.06 543.89,-462.55 534.28,-458.09 533.6,-465.06"/>
</g>
<!-- Node64 -->
<g id="node21" class="node">
<title>Node64</title>
<g id="a_node21"><a xlink:href="libbf_8c.html#a3ae2be576639444cdfcb0a232471e77d" target="_top" xlink:title=" ">
<polygon fill="none" stroke="red" points="117.5,-474.5 117.5,-493.5 183.5,-493.5 183.5,-474.5 117.5,-474.5"/>
<text text-anchor="middle" x="150.5" y="-481.5" font-family="Helvetica,sans-Serif" font-size="10.00">bf_pow_ui</text>
</a>
</g>
</g>
<!-- Node1&#45;&gt;Node64 -->
<g id="edge27" class="edge">
<title>Node1&#45;&gt;Node64</title>
<path fill="none" stroke="midnightblue" d="M533.72,-466.5C455.95,-470.06 261.01,-478.99 183.76,-482.52"/>
<polygon fill="midnightblue" stroke="midnightblue" points="534.06,-469.99 543.89,-466.04 533.74,-463 534.06,-469.99"/>
</g>
<!-- Node12 -->
<g id="node22" class="node">
<title>Node12</title>
<g id="a_node22"><a xlink:href="libbf_8h.html#a9a518cd74072443dc50e179d2a9ea610" target="_top" xlink:title=" ">
<polygon fill="none" stroke="black" points="428.5,-76.5 428.5,-95.5 474.5,-95.5 474.5,-76.5 428.5,-76.5"/>
<text text-anchor="middle" x="451.5" y="-83.5" font-family="Helvetica,sans-Serif" font-size="10.00">bf_sin</text>
</a>
</g>
</g>
<!-- Node1&#45;&gt;Node12 -->
<g id="edge29" class="edge">
<title>Node1&#45;&gt;Node12</title>
<path fill="none" stroke="midnightblue" d="M565.89,-445.21C563.43,-377.63 552.11,-157.26 508,-105 499.79,-95.27 486.36,-90.51 474.77,-88.19"/>
<polygon fill="midnightblue" stroke="midnightblue" points="562.4,-445.47 566.24,-455.34 569.4,-445.23 562.4,-445.47"/>
</g>
<!-- Node21 -->
<g id="node23" class="node">
<title>Node21</title>
<g id="a_node23"><a xlink:href="libbf_8c.html#a2b19e3958f6cf3fa0cc534681a5ff259" target="_top" xlink:title=" ">
<polygon fill="none" stroke="red" points="119.5,-607.5 119.5,-626.5 181.5,-626.5 181.5,-607.5 119.5,-607.5"/>
<text text-anchor="middle" x="150.5" y="-614.5" font-family="Helvetica,sans-Serif" font-size="10.00">bf_sincos</text>
</a>
</g>
</g>
<!-- Node1&#45;&gt;Node21 -->
<g id="edge30" class="edge">
<title>Node1&#45;&gt;Node21</title>
<path fill="none" stroke="midnightblue" d="M560.61,-484.36C552.6,-507.14 535.97,-544.21 508,-563 454.67,-598.82 257.69,-611.91 181.69,-615.7"/>
<polygon fill="midnightblue" stroke="midnightblue" points="563.97,-485.34 563.77,-474.75 557.32,-483.15 563.97,-485.34"/>
</g>
<!-- Node67 -->
<g id="node24" class="node">
<title>Node67</title>
<g id="a_node24"><a xlink:href="libbf_8h.html#a1a8b9ac1fea38b97fc6be8663ce9e867" target="_top" xlink:title=" ">
<polygon fill="none" stroke="red" points="426.5,-702.5 426.5,-721.5 476.5,-721.5 476.5,-702.5 426.5,-702.5"/>
<text text-anchor="middle" x="451.5" y="-709.5" font-family="Helvetica,sans-Serif" font-size="10.00">bf_sqrt</text>
</a>
</g>
</g>
<!-- Node1&#45;&gt;Node67 -->
<g id="edge31" class="edge">
<title>Node1&#45;&gt;Node67</title>
<path fill="none" stroke="midnightblue" d="M566.8,-484.99C566.38,-527.5 559.6,-627.92 508,-688 500,-697.32 487.72,-703.13 476.74,-706.7"/>
<polygon fill="midnightblue" stroke="midnightblue" points="570.3,-484.82 566.79,-474.83 563.3,-484.83 570.3,-484.82"/>
</g>
<!-- Node53 -->
<g id="node25" class="node">
<title>Node53</title>
<g id="a_node25"><a xlink:href="libbf_8c.html#a15b40c4ae7e9b401fd0c6dc398eacef7" target="_top" xlink:title=" ">
<polygon fill="none" stroke="black" points="269,-626.5 269,-645.5 339,-645.5 339,-626.5 269,-626.5"/>
<text text-anchor="middle" x="304" y="-633.5" font-family="Helvetica,sans-Serif" font-size="10.00">bf_sqrt_sin</text>
</a>
</g>
</g>
<!-- Node1&#45;&gt;Node53 -->
<g id="edge40" class="edge">
<title>Node1&#45;&gt;Node53</title>
<path fill="none" stroke="midnightblue" d="M564.92,-484.48C561.17,-516.73 548.73,-580.72 508,-612 459.02,-649.61 382.84,-647.18 339.07,-641.77"/>
<polygon fill="midnightblue" stroke="midnightblue" points="568.4,-484.81 565.91,-474.51 561.44,-484.11 568.4,-484.81"/>
</g>
<!-- Node54 -->
<g id="node26" class="node">
<title>Node54</title>
<g id="a_node26"><a xlink:href="libbf_8h.html#ae080fd42a2c7fc561d7084762204357e" target="_top" xlink:title=" ">
<polygon fill="none" stroke="black" points="269,-550.5 269,-569.5 339,-569.5 339,-550.5 269,-550.5"/>
<text text-anchor="middle" x="304" y="-557.5" font-family="Helvetica,sans-Serif" font-size="10.00">bf_sqrtrem</text>
</a>
</g>
</g>
<!-- Node1&#45;&gt;Node54 -->
<g id="edge41" class="edge">
<title>Node1&#45;&gt;Node54</title>
<path fill="none" stroke="midnightblue" d="M556.77,-483.47C546.88,-500.21 529.91,-524.04 508,-536 454.58,-565.16 381.63,-566.02 339.29,-563.41"/>
<polygon fill="midnightblue" stroke="midnightblue" points="559.92,-485.01 561.75,-474.57 553.81,-481.58 559.92,-485.01"/>
</g>
<!-- Node55 -->
<g id="node27" class="node">
<title>Node55</title>
<g id="a_node27"><a xlink:href="libbf_8c.html#ace5bdd7550302e2fb4b14c3a907dee7b" target="_top" xlink:title=" ">
<polygon fill="none" stroke="black" points="88,-512.5 88,-531.5 213,-531.5 213,-512.5 88,-512.5"/>
<text text-anchor="middle" x="150.5" y="-519.5" font-family="Helvetica,sans-Serif" font-size="10.00">check_exact_power2n</text>
</a>
</g>
</g>
<!-- Node1&#45;&gt;Node55 -->
<g id="edge46" class="edge">
<title>Node1&#45;&gt;Node55</title>
<path fill="none" stroke="midnightblue" d="M534.23,-476.8C525.79,-479.53 516.63,-482.16 508,-484 406.04,-505.75 284.88,-515.3 213.3,-519.31"/>
<polygon fill="midnightblue" stroke="midnightblue" points="535.37,-480.11 543.74,-473.61 533.15,-473.48 535.37,-480.11"/>
</g>
<!-- Node13 -->
<g id="node28" class="node">
<title>Node13</title>
<g id="a_node28"><a xlink:href="libbf_8h.html#a3291f57ed40cdf116203afa57f73e91e" target="_top" xlink:title=" ">
<polygon fill="none" stroke="black" points="428,-38.5 428,-57.5 475,-57.5 475,-38.5 428,-38.5"/>
<text text-anchor="middle" x="451.5" y="-45.5" font-family="Helvetica,sans-Serif" font-size="10.00">bf_tan</text>
</a>
</g>
</g>
<!-- Node1&#45;&gt;Node13 -->
<g id="edge42" class="edge">
<title>Node1&#45;&gt;Node13</title>
<path fill="none" stroke="midnightblue" d="M566.23,-445.04C564.86,-372.7 556.63,-125.51 508,-67 499.93,-57.29 486.65,-52.53 475.11,-50.2"/>
<polygon fill="midnightblue" stroke="midnightblue" points="562.74,-445.49 566.4,-455.43 569.74,-445.37 562.74,-445.49"/>
</g>
<!-- Node59 -->
<g id="node29" class="node">
<title>Node59</title>
<g id="a_node29"><a xlink:href="libbf_8c.html#a4f1865c8160fb851cce8015c3edb4d4f" target="_top" xlink:title=" ">
<polygon fill="none" stroke="black" points="413.5,-152.5 413.5,-171.5 489.5,-171.5 489.5,-152.5 413.5,-152.5"/>
<text text-anchor="middle" x="451.5" y="-159.5" font-family="Helvetica,sans-Serif" font-size="10.00">bf_tdivremu</text>
</a>
</g>
</g>
<!-- Node1&#45;&gt;Node59 -->
<g id="edge43" class="edge">
<title>Node1&#45;&gt;Node59</title>
<path fill="none" stroke="midnightblue" d="M564.7,-445.14C559.18,-388.26 540.87,-226.26 508,-186 502.89,-179.74 495.83,-175.07 488.46,-171.61"/>
<polygon fill="midnightblue" stroke="midnightblue" points="561.23,-445.69 565.66,-455.32 568.2,-445.04 561.23,-445.69"/>
</g>
<!-- Node68 -->
<g id="node30" class="node">
<title>Node68</title>
<g id="a_node30"><a xlink:href="libbf_8h.html#ae69271a2b54f2ce850db0c96c3b20a82" target="_top" xlink:title=" ">
<polygon fill="none" stroke="red" points="419.5,-0.5 419.5,-19.5 483.5,-19.5 483.5,-0.5 419.5,-0.5"/>
<text text-anchor="middle" x="451.5" y="-7.5" font-family="Helvetica,sans-Serif" font-size="10.00">bfdec_set</text>
</a>
</g>
</g>
<!-- Node1&#45;&gt;Node68 -->
<g id="edge45" class="edge">
<title>Node1&#45;&gt;Node68</title>
<path fill="none" stroke="midnightblue" d="M566.52,-445.12C566.18,-368.56 561.22,-93.86 508,-29 501.93,-21.6 492.83,-17.07 483.75,-14.31"/>
<polygon fill="midnightblue" stroke="midnightblue" points="563.02,-445.3 566.54,-455.29 570.02,-445.28 563.02,-445.3"/>
</g>
<!-- Node3 -->
<g id="node3" class="node">
<title>Node3</title>
<g id="a_node3"><a xlink:href="libbf_8c.html#a951a1d3ebb338129d86e00f51b47f2ee" target="_top" xlink:title=" ">
<polygon fill="none" stroke="red" points="274,-968.5 274,-987.5 334,-987.5 334,-968.5 274,-968.5"/>
<text text-anchor="middle" x="304" y="-975.5" font-family="Helvetica,sans-Serif" font-size="10.00">__bf_add</text>
</a>
</g>
</g>
<!-- Node2&#45;&gt;Node3 -->
<g id="edge2" class="edge">
<title>Node2&#45;&gt;Node3</title>
<path fill="none" stroke="midnightblue" d="M395.25,-978C374.46,-978 351.64,-978 334.15,-978"/>
<polygon fill="midnightblue" stroke="midnightblue" points="395.26,-981.5 405.26,-978 395.26,-974.5 395.26,-981.5"/>
</g>
<!-- Node57 -->
<g id="node4" class="node">
<title>Node57</title>
<g id="a_node4"><a xlink:href="libbf_8c.html#aa3b3bc85aee9c531439d5fbc92986dfe" target="_top" xlink:title=" ">
<polygon fill="none" stroke="red" points="274.5,-1006.5 274.5,-1025.5 333.5,-1025.5 333.5,-1006.5 274.5,-1006.5"/>
<text text-anchor="middle" x="304" y="-1013.5" font-family="Helvetica,sans-Serif" font-size="10.00">__bf_sub</text>
</a>
</g>
</g>
<!-- Node2&#45;&gt;Node57 -->
<g id="edge3" class="edge">
<title>Node2&#45;&gt;Node57</title>
<path fill="none" stroke="midnightblue" d="M403.88,-990.18C380.89,-996.18 353.88,-1003.23 333.91,-1008.45"/>
<polygon fill="midnightblue" stroke="midnightblue" points="404.99,-993.5 413.78,-987.59 403.22,-986.73 404.99,-993.5"/>
</g>
<!-- Node17&#45;&gt;Node7 -->
<g id="edge9" class="edge">
<title>Node17&#45;&gt;Node7</title>
<path fill="none" stroke="midnightblue" d="M262.93,-801.13C258.18,-802.97 253.44,-804.94 249,-807 218.22,-821.25 184.51,-842.27 165.89,-854.41"/>
<polygon fill="midnightblue" stroke="midnightblue" points="264.44,-804.31 272.6,-797.55 262.01,-797.74 264.44,-804.31"/>
</g>
<!-- Node15 -->
<g id="node8" class="node">
<title>Node15</title>
<g id="a_node8"><a xlink:href="libbf_8c.html#a4a0919b7e170befaf75d114d48d350cc" target="_top" xlink:title=" ">
<polygon fill="none" stroke="red" points="103,-778.5 103,-797.5 198,-797.5 198,-778.5 103,-778.5"/>
<text text-anchor="middle" x="150.5" y="-785.5" font-family="Helvetica,sans-Serif" font-size="10.00">bf_asin_internal</text>
</a>
</g>
</g>
<!-- Node17&#45;&gt;Node15 -->
<g id="edge7" class="edge">
<title>Node17&#45;&gt;Node15</title>
<path fill="none" stroke="midnightblue" d="M245.74,-788C230,-788 213.12,-788 198.06,-788"/>
<polygon fill="midnightblue" stroke="midnightblue" points="245.89,-791.5 255.89,-788 245.89,-784.5 245.89,-791.5"/>
</g>
<!-- Node15&#45;&gt;Node6 -->
<g id="edge8" class="edge">
<title>Node15&#45;&gt;Node6</title>
<path fill="none" stroke="midnightblue" d="M125.23,-803.06C100.6,-818.34 63.22,-841.53 42.39,-854.45"/>
<polygon fill="midnightblue" stroke="midnightblue" points="127.33,-805.87 133.99,-797.63 123.64,-799.92 127.33,-805.87"/>
</g>
<!-- Node42 -->
<g id="node11" class="node">
<title>Node42</title>
<g id="a_node11"><a xlink:href="libbf_8h.html#a9660e7199a5e3dd436970b5e2e481516" target="_top" xlink:title=" ">
<polygon fill="none" stroke="red" points="262,-816.5 262,-835.5 346,-835.5 346,-816.5 262,-816.5"/>
<text text-anchor="middle" x="304" y="-823.5" font-family="Helvetica,sans-Serif" font-size="10.00">bf_const_log2</text>
</a>
</g>
</g>
<!-- Node60&#45;&gt;Node42 -->
<g id="edge12" class="edge">
<title>Node60&#45;&gt;Node42</title>
<path fill="none" stroke="midnightblue" d="M401.83,-826C383.74,-826 363.42,-826 346.08,-826"/>
<polygon fill="midnightblue" stroke="midnightblue" points="401.89,-829.5 411.89,-826 401.89,-822.5 401.89,-829.5"/>
</g>
<!-- Node45 -->
<g id="node13" class="node">
<title>Node45</title>
<g id="a_node13"><a xlink:href="libbf_8c.html#a25b9653cbfca557499e786f8d2a7eb2e" target="_top" xlink:title=" ">
<polygon fill="none" stroke="red" points="249,-854.5 249,-873.5 359,-873.5 359,-854.5 249,-854.5"/>
<text text-anchor="middle" x="304" y="-861.5" font-family="Helvetica,sans-Serif" font-size="10.00">bf_const_pi_signed</text>
</a>
</g>
</g>
<!-- Node60&#45;&gt;Node45 -->
<g id="edge14" class="edge">
<title>Node60&#45;&gt;Node45</title>
<path fill="none" stroke="midnightblue" d="M403.85,-838.18C383.65,-843.46 360.35,-849.54 341.45,-854.48"/>
<polygon fill="midnightblue" stroke="midnightblue" points="404.99,-841.5 413.78,-835.59 403.22,-834.73 404.99,-841.5"/>
</g>
<!-- Node42&#45;&gt;Node34 -->
<g id="edge13" class="edge">
<title>Node42&#45;&gt;Node34</title>
<path fill="none" stroke="midnightblue" d="M258.88,-812.49C255.44,-810.84 252.1,-809.01 249,-807 229.48,-794.34 229.54,-785.36 213,-769 195.82,-752.01 175.06,-733.08 162.59,-721.88"/>
<polygon fill="midnightblue" stroke="midnightblue" points="257.58,-815.74 268.15,-816.48 260.35,-809.31 257.58,-815.74"/>
</g>
<!-- Node45&#45;&gt;Node7 -->
<g id="edge15" class="edge">
<title>Node45&#45;&gt;Node7</title>
<path fill="none" stroke="midnightblue" d="M238.55,-864C216.86,-864 193.9,-864 177.01,-864"/>
<polygon fill="midnightblue" stroke="midnightblue" points="238.73,-867.5 248.73,-864 238.73,-860.5 238.73,-867.5"/>
</g>
<!-- Node40&#45;&gt;Node40 -->
<g id="edge17" class="edge">
<title>Node40&#45;&gt;Node40</title>
<path fill="none" stroke="midnightblue" d="M472.98,-295.4C471.55,-300.31 464.39,-304 451.5,-304 430.88,-304 424.92,-294.57 433.62,-285.76"/>
<polygon fill="midnightblue" stroke="midnightblue" points="476.16,-293.9 469.38,-285.76 469.6,-296.35 476.16,-293.9"/>
</g>
<!-- Node63&#45;&gt;Node49 -->
<g id="edge24" class="edge">
<title>Node63&#45;&gt;Node49</title>
<path fill="none" stroke="midnightblue" d="M403.85,-382.18C383.65,-387.46 360.35,-393.54 341.45,-398.48"/>
<polygon fill="midnightblue" stroke="midnightblue" points="404.99,-385.5 413.78,-379.59 403.22,-378.73 404.99,-385.5"/>
</g>
<!-- Node63&#45;&gt;Node31 -->
<g id="edge25" class="edge">
<title>Node63&#45;&gt;Node31</title>
<path fill="none" stroke="midnightblue" d="M388.43,-361.89C375.86,-360.25 362.86,-358.56 350.96,-357"/>
<polygon fill="midnightblue" stroke="midnightblue" points="388.01,-365.37 398.38,-363.19 388.92,-358.43 388.01,-365.37"/>
</g>
<!-- Node64&#45;&gt;Node27 -->
<g id="edge28" class="edge">
<title>Node64&#45;&gt;Node27</title>
<path fill="none" stroke="midnightblue" d="M107.13,-484C88.75,-484 67.85,-484 52.01,-484"/>
<polygon fill="midnightblue" stroke="midnightblue" points="107.31,-487.5 117.31,-484 107.31,-480.5 107.31,-487.5"/>
</g>
<!-- Node67&#45;&gt;Node17 -->
<g id="edge33" class="edge">
<title>Node67&#45;&gt;Node17</title>
<path fill="none" stroke="midnightblue" d="M425.76,-726.94C407.55,-737.72 382.06,-752.36 359,-764 348.93,-769.09 337.54,-774.23 327.83,-778.45"/>
<polygon fill="midnightblue" stroke="midnightblue" points="427.77,-729.82 434.56,-721.69 424.18,-723.81 427.77,-729.82"/>
</g>
<!-- Node67&#45;&gt;Node15 -->
<g id="edge32" class="edge">
<title>Node67&#45;&gt;Node15</title>
<path fill="none" stroke="midnightblue" d="M416.44,-720.66C360.12,-734.97 247.98,-763.48 189.29,-778.39"/>
<polygon fill="midnightblue" stroke="midnightblue" points="417.46,-724.01 426.28,-718.16 415.73,-717.23 417.46,-724.01"/>
</g>
<!-- Node67&#45;&gt;Node34 -->
<g id="edge34" class="edge">
<title>Node67&#45;&gt;Node34</title>
<path fill="none" stroke="midnightblue" d="M416.09,-712C361.5,-712 255.12,-712 195.21,-712"/>
<polygon fill="midnightblue" stroke="midnightblue" points="416.28,-715.5 426.28,-712 416.28,-708.5 416.28,-715.5"/>
</g>
<!-- Node67&#45;&gt;Node53 -->
<g id="edge35" class="edge">
<title>Node67&#45;&gt;Node53</title>
<path fill="none" stroke="midnightblue" d="M423.21,-697.74C393.99,-682.48 348.45,-658.7 323.28,-645.55"/>
<polygon fill="midnightblue" stroke="midnightblue" points="421.59,-700.85 432.07,-702.37 424.83,-694.64 421.59,-700.85"/>
</g>
<!-- Node67&#45;&gt;Node54 -->
<g id="edge37" class="edge">
<title>Node67&#45;&gt;Node54</title>
<path fill="none" stroke="midnightblue" d="M434.43,-695.21C403.84,-663.26 338.18,-594.67 314.1,-569.5"/>
<polygon fill="midnightblue" stroke="midnightblue" points="431.96,-697.69 441.4,-702.49 437.01,-692.85 431.96,-697.69"/>
</g>
<!-- Node53&#45;&gt;Node21 -->
<g id="edge36" class="edge">
<title>Node53&#45;&gt;Node21</title>
<path fill="none" stroke="midnightblue" d="M258.39,-630.41C233.67,-627.31 203.59,-623.53 181.64,-620.78"/>
<polygon fill="midnightblue" stroke="midnightblue" points="258.26,-633.92 268.62,-631.69 259.14,-626.97 258.26,-633.92"/>
</g>
<!-- Node54&#45;&gt;Node55 -->
<g id="edge38" class="edge">
<title>Node54&#45;&gt;Node55</title>
<path fill="none" stroke="midnightblue" d="M258.86,-548.93C236.86,-543.41 210.54,-536.81 189.46,-531.52"/>
<polygon fill="midnightblue" stroke="midnightblue" points="258.07,-552.34 268.62,-551.38 259.77,-545.55 258.07,-552.34"/>
</g>
<!-- Node55&#45;&gt;Node27 -->
<g id="edge39" class="edge">
<title>Node55&#45;&gt;Node27</title>
<path fill="none" stroke="midnightblue" d="M108.64,-509.39C101.75,-507.26 94.67,-505.07 88,-503 76.24,-499.35 63.21,-495.3 52.22,-491.87"/>
<polygon fill="midnightblue" stroke="midnightblue" points="107.94,-512.84 118.52,-512.45 110,-506.15 107.94,-512.84"/>
</g>
<!-- Node59&#45;&gt;Node18 -->
<g id="edge44" class="edge">
<title>Node59&#45;&gt;Node18</title>
<path fill="none" stroke="midnightblue" d="M403.4,-168.15C381.72,-170.98 356.54,-174.27 337.08,-176.81"/>
<polygon fill="midnightblue" stroke="midnightblue" points="403.95,-171.61 413.41,-166.84 403.04,-164.67 403.95,-171.61"/>
</g>
</g>
</svg>
