<?xml version="1.0" encoding="UTF-8" standalone="no"?>
<!DOCTYPE svg PUBLIC "-//W3C//DTD SVG 1.1//EN"
 "http://www.w3.org/Graphics/SVG/1.1/DTD/svg11.dtd">
<!-- Generated by graphviz version 2.43.0 (0)
 -->
<!-- Title: bf_asin_internal Pages: 1 -->
<svg width="193pt" height="66pt"
 viewBox="0.00 0.00 193.00 66.00" xmlns="http://www.w3.org/2000/svg" xmlns:xlink="http://www.w3.org/1999/xlink">
<g id="graph0" class="graph" transform="scale(1 1) rotate(0) translate(4 62)">
<title>bf_asin_internal</title>
<!-- Node1 -->
<g id="node1" class="node">
<title>Node1</title>
<g id="a_node1"><a xlink:title=" ">
<polygon fill="#bfbfbf" stroke="black" points="90,-19.5 90,-38.5 185,-38.5 185,-19.5 90,-19.5"/>
<text text-anchor="middle" x="137.5" y="-26.5" font-family="Helvetica,sans-Serif" font-size="10.00">bf_asin_internal</text>
</a>
</g>
</g>
<!-- Node2 -->
<g id="node2" class="node">
<title>Node2</title>
<g id="a_node2"><a xlink:href="libbf_8h.html#a45cd74dd3a694c26e716762b7fd36955" target="_top" xlink:title=" ">
<polygon fill="none" stroke="black" points="0,-38.5 0,-57.5 54,-57.5 54,-38.5 0,-38.5"/>
<text text-anchor="middle" x="27" y="-45.5" font-family="Helvetica,sans-Serif" font-size="10.00">bf_acos</text>
</a>
</g>
</g>
<!-- Node1&#45;&gt;Node2 -->
<g id="edge1" class="edge">
<title>Node1&#45;&gt;Node2</title>
<path fill="none" stroke="midnightblue" d="M79.8,-38.93C70.89,-40.49 62.06,-42.04 54.28,-43.4"/>
<polygon fill="midnightblue" stroke="midnightblue" points="80.61,-42.34 89.86,-37.17 79.4,-35.45 80.61,-42.34"/>
</g>
<!-- Node3 -->
<g id="node3" class="node">
<title>Node3</title>
<g id="a_node3"><a xlink:href="libbf_8h.html#a8ee86879e3da22442956f47356855edd" target="_top" xlink:title=" ">
<polygon fill="none" stroke="black" points="1,-0.5 1,-19.5 53,-19.5 53,-0.5 1,-0.5"/>
<text text-anchor="middle" x="27" y="-7.5" font-family="Helvetica,sans-Serif" font-size="10.00">bf_asin</text>
</a>
</g>
</g>
<!-- Node1&#45;&gt;Node3 -->
<g id="edge2" class="edge">
<title>Node1&#45;&gt;Node3</title>
<path fill="none" stroke="midnightblue" d="M79.72,-19.06C70.37,-17.42 61.12,-15.8 53.08,-14.39"/>
<polygon fill="midnightblue" stroke="midnightblue" points="79.4,-22.55 89.86,-20.83 80.61,-15.66 79.4,-22.55"/>
</g>
</g>
</svg>
