<?xml version="1.0" encoding="UTF-8" standalone="no"?>
<!DOCTYPE svg PUBLIC "-//W3C//DTD SVG 1.1//EN"
 "http://www.w3.org/Graphics/SVG/1.1/DTD/svg11.dtd">
<!-- Generated by graphviz version 2.43.0 (0)
 -->
<!-- Title: bfdec_init Pages: 1 -->
<svg width="541pt" height="180pt"
 viewBox="0.00 0.00 541.00 180.00" xmlns="http://www.w3.org/2000/svg" xmlns:xlink="http://www.w3.org/1999/xlink">
<g id="graph0" class="graph" transform="scale(1 1) rotate(0) translate(4 176)">
<title>bfdec_init</title>
<!-- Node1 -->
<g id="node1" class="node">
<title>Node1</title>
<g id="a_node1"><a xlink:title=" ">
<polygon fill="#bfbfbf" stroke="black" points="468,-38.5 468,-57.5 533,-57.5 533,-38.5 468,-38.5"/>
<text text-anchor="middle" x="500.5" y="-45.5" font-family="Helvetica,sans-Serif" font-size="10.00">bfdec_init</text>
</a>
</g>
</g>
<!-- Node2 -->
<g id="node2" class="node">
<title>Node2</title>
<g id="a_node2"><a xlink:href="libbf_8h.html#a7cb137686dce1e04af24aa61a1a177a6" target="_top" xlink:title=" ">
<polygon fill="none" stroke="black" points="352,-38.5 352,-57.5 432,-57.5 432,-38.5 352,-38.5"/>
<text text-anchor="middle" x="392" y="-45.5" font-family="Helvetica,sans-Serif" font-size="10.00">bfdec_add_si</text>
</a>
</g>
</g>
<!-- Node1&#45;&gt;Node2 -->
<g id="edge1" class="edge">
<title>Node1&#45;&gt;Node2</title>
<path fill="none" stroke="midnightblue" d="M457.56,-48C449.23,-48 440.52,-48 432.28,-48"/>
<polygon fill="midnightblue" stroke="midnightblue" points="457.83,-51.5 467.83,-48 457.83,-44.5 457.83,-51.5"/>
</g>
<!-- Node3 -->
<g id="node3" class="node">
<title>Node3</title>
<g id="a_node3"><a xlink:href="libbf_8h.html#a318508be097917ddd5d1ce187edea68b" target="_top" xlink:title=" ">
<polygon fill="none" stroke="black" points="104,-38.5 104,-57.5 187,-57.5 187,-38.5 104,-38.5"/>
<text text-anchor="middle" x="145.5" y="-45.5" font-family="Helvetica,sans-Serif" font-size="10.00">bfdec_divrem</text>
</a>
</g>
</g>
<!-- Node1&#45;&gt;Node3 -->
<g id="edge4" class="edge">
<title>Node1&#45;&gt;Node3</title>
<path fill="none" stroke="midnightblue" d="M462.44,-35.6C452.66,-32.87 442.02,-30.38 432,-29 345.39,-17.04 242.93,-30.51 187.34,-40.09"/>
<polygon fill="midnightblue" stroke="midnightblue" points="461.69,-39.03 472.28,-38.5 463.67,-32.32 461.69,-39.03"/>
</g>
<!-- Node4 -->
<g id="node4" class="node">
<title>Node4</title>
<g id="a_node4"><a xlink:href="libbf_8h.html#a9c0e8e44d597f47e07d562594ca455f2" target="_top" xlink:title=" ">
<polygon fill="none" stroke="black" points="0,-0.5 0,-19.5 68,-19.5 68,-0.5 0,-0.5"/>
<text text-anchor="middle" x="34" y="-7.5" font-family="Helvetica,sans-Serif" font-size="10.00">bfdec_rem</text>
</a>
</g>
</g>
<!-- Node1&#45;&gt;Node4 -->
<g id="edge12" class="edge">
<title>Node1&#45;&gt;Node4</title>
<path fill="none" stroke="midnightblue" d="M472.41,-34.08C460.36,-28.6 445.81,-22.93 432,-20 299.64,8.1 136.91,-1.01 68.15,-6.79"/>
<polygon fill="midnightblue" stroke="midnightblue" points="470.93,-37.25 481.47,-38.37 473.93,-30.93 470.93,-37.25"/>
</g>
<!-- Node5 -->
<g id="node5" class="node">
<title>Node5</title>
<g id="a_node5"><a xlink:href="libbf_8h.html#a2afc9f7c942c27cc609877c776dd9a69" target="_top" xlink:title=" ">
<polygon fill="none" stroke="black" points="358,-95.5 358,-114.5 426,-114.5 426,-95.5 358,-95.5"/>
<text text-anchor="middle" x="392" y="-102.5" font-family="Helvetica,sans-Serif" font-size="10.00">bfdec_mul</text>
</a>
</g>
</g>
<!-- Node1&#45;&gt;Node5 -->
<g id="edge5" class="edge">
<title>Node1&#45;&gt;Node5</title>
<path fill="none" stroke="midnightblue" d="M472.5,-62.45C453.15,-72.81 427.64,-86.46 410.8,-95.47"/>
<polygon fill="midnightblue" stroke="midnightblue" points="474.27,-65.47 481.43,-57.67 470.97,-59.3 474.27,-65.47"/>
</g>
<!-- Node6 -->
<g id="node6" class="node">
<title>Node6</title>
<g id="a_node6"><a xlink:href="libbf_8h.html#ae5aa2c2f63fe392a1ab15f1012c512e8" target="_top" xlink:title=" ">
<polygon fill="none" stroke="black" points="229,-152.5 229,-171.5 310,-171.5 310,-152.5 229,-152.5"/>
<text text-anchor="middle" x="269.5" y="-159.5" font-family="Helvetica,sans-Serif" font-size="10.00">bfdec_mul_si</text>
</a>
</g>
</g>
<!-- Node1&#45;&gt;Node6 -->
<g id="edge11" class="edge">
<title>Node1&#45;&gt;Node6</title>
<path fill="none" stroke="midnightblue" d="M488.07,-66.4C476.2,-83.91 456.04,-109.66 432,-124 394.4,-146.43 344.51,-155.62 310.19,-159.39"/>
<polygon fill="midnightblue" stroke="midnightblue" points="491.25,-67.93 493.77,-57.64 485.38,-64.11 491.25,-67.93"/>
</g>
<!-- Node2&#45;&gt;Node3 -->
<g id="edge2" class="edge">
<title>Node2&#45;&gt;Node3</title>
<path fill="none" stroke="midnightblue" d="M341.77,-48C296.27,-48 229.48,-48 187,-48"/>
<polygon fill="midnightblue" stroke="midnightblue" points="341.99,-51.5 351.99,-48 341.99,-44.5 341.99,-51.5"/>
</g>
<!-- Node3&#45;&gt;Node4 -->
<g id="edge3" class="edge">
<title>Node3&#45;&gt;Node4</title>
<path fill="none" stroke="midnightblue" d="M107.12,-35.03C92.53,-29.97 76.11,-24.27 62.62,-19.59"/>
<polygon fill="midnightblue" stroke="midnightblue" points="106.27,-38.44 116.87,-38.41 108.57,-31.83 106.27,-38.44"/>
</g>
<!-- Node5&#45;&gt;Node6 -->
<g id="edge6" class="edge">
<title>Node5&#45;&gt;Node6</title>
<path fill="none" stroke="midnightblue" d="M363.83,-119.37C349.69,-126.7 332.05,-135.6 316,-143 309,-146.23 301.3,-149.53 294.26,-152.47"/>
<polygon fill="midnightblue" stroke="midnightblue" points="365.75,-122.32 373,-114.59 362.51,-116.11 365.75,-122.32"/>
</g>
<!-- Node7 -->
<g id="node7" class="node">
<title>Node7</title>
<g id="a_node7"><a xlink:href="libbf_8h.html#a1baac52525d382cc854c2e484ce2c169" target="_top" xlink:title=" ">
<polygon fill="none" stroke="black" points="228,-76.5 228,-95.5 311,-95.5 311,-76.5 228,-76.5"/>
<text text-anchor="middle" x="269.5" y="-83.5" font-family="Helvetica,sans-Serif" font-size="10.00">bfdec_pow_ui</text>
</a>
</g>
</g>
<!-- Node5&#45;&gt;Node7 -->
<g id="edge8" class="edge">
<title>Node5&#45;&gt;Node7</title>
<path fill="none" stroke="midnightblue" d="M347.65,-98.17C335.83,-96.3 323.05,-94.29 311.37,-92.44"/>
<polygon fill="midnightblue" stroke="midnightblue" points="347.33,-101.66 357.75,-99.76 348.42,-94.74 347.33,-101.66"/>
</g>
<!-- Node8 -->
<g id="node8" class="node">
<title>Node8</title>
<g id="a_node8"><a xlink:href="libbf_8c.html#a4fe4f91a21701a55cffbc44f1eb141b6" target="_top" xlink:title=" ">
<polygon fill="none" stroke="black" points="223,-114.5 223,-133.5 316,-133.5 316,-114.5 223,-114.5"/>
<text text-anchor="middle" x="269.5" y="-121.5" font-family="Helvetica,sans-Serif" font-size="10.00">bfdec_tdivremu</text>
</a>
</g>
</g>
<!-- Node5&#45;&gt;Node8 -->
<g id="edge9" class="edge">
<title>Node5&#45;&gt;Node8</title>
<path fill="none" stroke="midnightblue" d="M347.8,-111.81C337.57,-113.43 326.61,-115.15 316.27,-116.78"/>
<polygon fill="midnightblue" stroke="midnightblue" points="348.42,-115.26 357.75,-110.24 347.33,-108.34 348.42,-115.26"/>
</g>
<!-- Node6&#45;&gt;Node3 -->
<g id="edge7" class="edge">
<title>Node6&#45;&gt;Node3</title>
<path fill="none" stroke="midnightblue" d="M230.39,-147.83C227.8,-146.34 225.31,-144.74 223,-143 190.15,-118.33 163.16,-76.49 152.01,-57.68"/>
<polygon fill="midnightblue" stroke="midnightblue" points="228.91,-151 239.41,-152.4 232.07,-144.76 228.91,-151"/>
</g>
<!-- Node8&#45;&gt;Node3 -->
<g id="edge10" class="edge">
<title>Node8&#45;&gt;Node3</title>
<path fill="none" stroke="midnightblue" d="M233.2,-110.28C229.69,-108.61 226.24,-106.85 223,-105 198.25,-90.9 172.22,-70.01 157.81,-57.83"/>
<polygon fill="midnightblue" stroke="midnightblue" points="231.91,-113.54 242.47,-114.42 234.76,-107.14 231.91,-113.54"/>
</g>
</g>
</svg>
