<?xml version="1.0" encoding="UTF-8" standalone="no"?>
<!DOCTYPE svg PUBLIC "-//W3C//DTD SVG 1.1//EN"
 "http://www.w3.org/Graphics/SVG/1.1/DTD/svg11.dtd">
<!-- Generated by graphviz version 2.43.0 (0)
 -->
<!-- Title: bfdec_set_nan Pages: 1 -->
<!--zoomable 300 -->
<svg id="main" version="1.1" xmlns="http://www.w3.org/2000/svg" xmlns:xlink="http://www.w3.org/1999/xlink" xml:space="preserve" onload="init(evt)">
<style type="text/css"><![CDATA[
.edge:hover path { stroke: red; }
.edge:hover polygon { stroke: red; fill: red; }
]]></style>
<script type="text/javascript"><![CDATA[
var edges = document.getElementsByTagName('g');
if (edges && edges.length) {
  for (var i=0;i<edges.length;i++) {
    if (edges[i].id.substr(0,4)=='edge') {
      edges[i].setAttribute('class','edge');
    }
  }
}
]]></script>
        <defs>
                <circle id="rim" cx="0" cy="0" r="7"/>
                <circle id="rim2" cx="0" cy="0" r="3.5"/>
                <g id="zoomPlus">
                        <use xlink:href="#rim" fill="#404040">
                                <set attributeName="fill" to="#808080" begin="zoomplus.mouseover" end="zoomplus.mouseout"/>
                        </use>
                        <path d="M-4,0h8M0,-4v8" fill="none" stroke="white" stroke-width="1.5" pointer-events="none"/>
                </g>
                <g id="zoomMin">
                        <use xlink:href="#rim" fill="#404040">
                                <set attributeName="fill" to="#808080" begin="zoomminus.mouseover" end="zoomminus.mouseout"/>
                        </use>
                        <path d="M-4,0h8" fill="none" stroke="white" stroke-width="1.5" pointer-events="none"/>
                </g>
                <g id="dirArrow">
                        <path fill="none" stroke="white" stroke-width="1.5" d="M0,-3.0v7 M-2.5,-0.5L0,-3.0L2.5,-0.5"/>
                </g>
               <g id="resetDef">
                       <use xlink:href="#rim2" fill="#404040">
                               <set attributeName="fill" to="#808080" begin="reset.mouseover" end="reset.mouseout"/>
                       </use>
               </g>
        </defs>

<script type="text/javascript">
var viewWidth = 722;
var viewHeight = 300;
var sectionId = 'dynsection-134';
</script>
<script xlink:href="svgpan.js"/>
<svg id="graph" class="graph">
<g id="viewport">
<title>bfdec_set_nan</title>
<!-- Node1 -->
<g id="node1" class="node">
<title>Node1</title>
<g id="a_node1"><a xlink:title=" ">
<polygon fill="#bfbfbf" stroke="black" points="627,-121.42 627,-140.42 714,-140.42 714,-121.42 627,-121.42"/>
<text text-anchor="middle" x="670.5" y="-128.42" font-family="Helvetica,sans-Serif" font-size="10.00">bfdec_set_nan</text>
</a>
</g>
</g>
<!-- Node2 -->
<g id="node2" class="node">
<title>Node2</title>
<g id="a_node2"><a xlink:href="libbf_8c.html#ab0fc8c7b5ee65f945fae1794494865f1" target="_top" xlink:title=" ">
<polygon fill="none" stroke="black" points="499,-197.42 499,-216.42 573,-216.42 573,-197.42 499,-197.42"/>
<text text-anchor="middle" x="536" y="-204.42" font-family="Helvetica,sans-Serif" font-size="10.00">__bfdec_div</text>
</a>
</g>
</g>
<!-- Node1&#45;&gt;Node2 -->
<g id="edge1" class="edge">
<title>Node1&#45;&gt;Node2</title>
<path fill="none" stroke="midnightblue" d="M643.95,-145.58C617.32,-160.85 576.37,-184.34 553.64,-197.38"/>
<polygon fill="midnightblue" stroke="midnightblue" points="645.79,-148.56 652.72,-140.55 642.3,-142.49 645.79,-148.56"/>
</g>
<!-- Node5 -->
<g id="node5" class="node">
<title>Node5</title>
<g id="a_node5"><a xlink:href="libbf_8h.html#a318508be097917ddd5d1ce187edea68b" target="_top" xlink:title=" ">
<polygon fill="none" stroke="red" points="0,-187.42 0,-206.42 83,-206.42 83,-187.42 0,-187.42"/>
<text text-anchor="middle" x="41.5" y="-194.42" font-family="Helvetica,sans-Serif" font-size="10.00">bfdec_divrem</text>
</a>
</g>
</g>
<!-- Node1&#45;&gt;Node5 -->
<g id="edge14" class="edge">
<title>Node1&#45;&gt;Node5</title>
<path fill="none" stroke="midnightblue" d="M658.74,-149.14C645.35,-170.35 620.61,-205.13 591,-225.92 519.9,-275.86 493.88,-291.92 407,-291.92 407,-291.92 407,-291.92 288.5,-291.92 194.42,-291.92 92.86,-230.71 56.46,-206.55"/>
<polygon fill="midnightblue" stroke="midnightblue" points="661.83,-150.8 664.07,-140.45 655.86,-147.15 661.83,-150.8"/>
</g>
<!-- Node7 -->
<g id="node6" class="node">
<title>Node7</title>
<g id="a_node6"><a xlink:href="libbf_8c.html#adab81046eaf5fc5a75e1bae96b75be66" target="_top" xlink:title=" ">
<polygon fill="none" stroke="black" points="481,-140.42 481,-159.42 591,-159.42 591,-140.42 481,-140.42"/>
<text text-anchor="middle" x="536" y="-147.42" font-family="Helvetica,sans-Serif" font-size="10.00">bfdec_add_internal</text>
</a>
</g>
</g>
<!-- Node1&#45;&gt;Node7 -->
<g id="edge5" class="edge">
<title>Node1&#45;&gt;Node7</title>
<path fill="none" stroke="midnightblue" d="M616.78,-138.48C608.37,-139.69 599.66,-140.94 591.21,-142.15"/>
<polygon fill="midnightblue" stroke="midnightblue" points="617.44,-141.92 626.85,-137.04 616.45,-134.99 617.44,-141.92"/>
</g>
<!-- Node13 -->
<g id="node12" class="node">
<title>Node13</title>
<g id="a_node12"><a xlink:href="libbf_8h.html#a2afc9f7c942c27cc609877c776dd9a69" target="_top" xlink:title=" ">
<polygon fill="none" stroke="black" points="372,-25.42 372,-44.42 440,-44.42 440,-25.42 372,-25.42"/>
<text text-anchor="middle" x="406" y="-32.42" font-family="Helvetica,sans-Serif" font-size="10.00">bfdec_mul</text>
</a>
</g>
</g>
<!-- Node1&#45;&gt;Node13 -->
<g id="edge15" class="edge">
<title>Node1&#45;&gt;Node13</title>
<path fill="none" stroke="midnightblue" d="M642.58,-116.69C627.62,-109.09 608.55,-99.89 591,-92.92 539.33,-72.4 477.3,-54.1 440.08,-43.78"/>
<polygon fill="midnightblue" stroke="midnightblue" points="641.26,-119.94 651.75,-121.41 644.46,-113.72 641.26,-119.94"/>
</g>
<!-- Node16 -->
<g id="node15" class="node">
<title>Node16</title>
<g id="a_node15"><a xlink:href="libbf_8h.html#a3a0734cc58dd4feba2c300d053f53e36" target="_top" xlink:title=" ">
<polygon fill="none" stroke="black" points="367,-73.42 367,-92.42 445,-92.42 445,-73.42 367,-73.42"/>
<text text-anchor="middle" x="406" y="-80.42" font-family="Helvetica,sans-Serif" font-size="10.00">bfdec_set_ui</text>
</a>
</g>
</g>
<!-- Node1&#45;&gt;Node16 -->
<g id="edge20" class="edge">
<title>Node1&#45;&gt;Node16</title>
<path fill="none" stroke="midnightblue" d="M616.6,-121.25C565.77,-111.96 490.21,-98.14 445.05,-89.88"/>
<polygon fill="midnightblue" stroke="midnightblue" points="616.27,-124.75 626.74,-123.1 617.53,-117.86 616.27,-124.75"/>
</g>
<!-- Node18 -->
<g id="node17" class="node">
<title>Node18</title>
<g id="a_node17"><a xlink:href="libbf_8h.html#aadf1781139c916e6ccb6ea473bf5a2d1" target="_top" xlink:title=" ">
<polygon fill="none" stroke="black" points="502,-26.42 502,-45.42 570,-45.42 570,-26.42 502,-26.42"/>
<text text-anchor="middle" x="536" y="-33.42" font-family="Helvetica,sans-Serif" font-size="10.00">bfdec_sqrt</text>
</a>
</g>
</g>
<!-- Node1&#45;&gt;Node18 -->
<g id="edge26" class="edge">
<title>Node1&#45;&gt;Node18</title>
<path fill="none" stroke="midnightblue" d="M653.63,-113.74C638.61,-98.2 614.87,-75.45 591,-59.92 582.31,-54.27 572.08,-49.34 562.86,-45.45"/>
<polygon fill="midnightblue" stroke="midnightblue" points="651.22,-116.28 660.64,-121.13 656.3,-111.46 651.22,-116.28"/>
</g>
<!-- Node3 -->
<g id="node3" class="node">
<title>Node3</title>
<g id="a_node3"><a xlink:href="libbf_8h.html#a10de87f3c9d3dc623ca131eaa468dd1b" target="_top" xlink:title=" ">
<polygon fill="none" stroke="black" points="257.5,-206.42 257.5,-225.42 321.5,-225.42 321.5,-206.42 257.5,-206.42"/>
<text text-anchor="middle" x="289.5" y="-213.42" font-family="Helvetica,sans-Serif" font-size="10.00">bfdec_div</text>
</a>
</g>
</g>
<!-- Node2&#45;&gt;Node3 -->
<g id="edge2" class="edge">
<title>Node2&#45;&gt;Node3</title>
<path fill="none" stroke="midnightblue" d="M488.92,-208.62C439.99,-210.42 364.01,-213.22 321.68,-214.77"/>
<polygon fill="midnightblue" stroke="midnightblue" points="489.06,-212.12 498.92,-208.25 488.8,-205.12 489.06,-212.12"/>
</g>
<!-- Node4 -->
<g id="node4" class="node">
<title>Node4</title>
<g id="a_node4"><a xlink:href="libbf_8c.html#a4fe4f91a21701a55cffbc44f1eb141b6" target="_top" xlink:title=" ">
<polygon fill="none" stroke="black" points="119,-187.42 119,-206.42 212,-206.42 212,-187.42 119,-187.42"/>
<text text-anchor="middle" x="165.5" y="-194.42" font-family="Helvetica,sans-Serif" font-size="10.00">bfdec_tdivremu</text>
</a>
</g>
</g>
<!-- Node3&#45;&gt;Node4 -->
<g id="edge3" class="edge">
<title>Node3&#45;&gt;Node4</title>
<path fill="none" stroke="midnightblue" d="M247.38,-209.52C236.1,-207.76 223.81,-205.85 212.29,-204.05"/>
<polygon fill="midnightblue" stroke="midnightblue" points="246.98,-213 257.4,-211.08 248.06,-206.08 246.98,-213"/>
</g>
<!-- Node4&#45;&gt;Node5 -->
<g id="edge4" class="edge">
<title>Node4&#45;&gt;Node5</title>
<path fill="none" stroke="midnightblue" d="M108.49,-196.92C100,-196.92 91.39,-196.92 83.31,-196.92"/>
<polygon fill="midnightblue" stroke="midnightblue" points="108.72,-200.42 118.72,-196.92 108.72,-193.42 108.72,-200.42"/>
</g>
<!-- Node8 -->
<g id="node7" class="node">
<title>Node8</title>
<g id="a_node7"><a xlink:href="libbf_8c.html#aa5c7e54724217d71eb29c55c98e2413f" target="_top" xlink:title=" ">
<polygon fill="none" stroke="black" points="367.5,-130.42 367.5,-149.42 444.5,-149.42 444.5,-130.42 367.5,-130.42"/>
<text text-anchor="middle" x="406" y="-137.42" font-family="Helvetica,sans-Serif" font-size="10.00">__bfdec_add</text>
</a>
</g>
</g>
<!-- Node7&#45;&gt;Node8 -->
<g id="edge6" class="edge">
<title>Node7&#45;&gt;Node8</title>
<path fill="none" stroke="midnightblue" d="M470.7,-144.9C461.79,-144.2 452.9,-143.51 444.7,-142.87"/>
<polygon fill="midnightblue" stroke="midnightblue" points="470.47,-148.39 480.72,-145.68 471.02,-141.41 470.47,-148.39"/>
</g>
<!-- Node11 -->
<g id="node10" class="node">
<title>Node11</title>
<g id="a_node10"><a xlink:href="libbf_8c.html#ac10038dd7f04c765ddc8fdb12e3257a2" target="_top" xlink:title=" ">
<polygon fill="none" stroke="black" points="367.5,-168.42 367.5,-187.42 444.5,-187.42 444.5,-168.42 367.5,-168.42"/>
<text text-anchor="middle" x="406" y="-175.42" font-family="Helvetica,sans-Serif" font-size="10.00">__bfdec_sub</text>
</a>
</g>
</g>
<!-- Node7&#45;&gt;Node11 -->
<g id="edge10" class="edge">
<title>Node7&#45;&gt;Node11</title>
<path fill="none" stroke="midnightblue" d="M481.49,-161.63C469.06,-164.35 456.09,-167.18 444.52,-169.72"/>
<polygon fill="midnightblue" stroke="midnightblue" points="482.29,-165.04 491.31,-159.48 480.79,-158.2 482.29,-165.04"/>
</g>
<!-- Node9 -->
<g id="node8" class="node">
<title>Node9</title>
<g id="a_node8"><a xlink:href="libbf_8h.html#a2ab5a868db6e2d3d41c9b95e561054d3" target="_top" xlink:title=" ">
<polygon fill="none" stroke="black" points="256,-130.42 256,-149.42 323,-149.42 323,-130.42 256,-130.42"/>
<text text-anchor="middle" x="289.5" y="-137.42" font-family="Helvetica,sans-Serif" font-size="10.00">bfdec_add</text>
</a>
</g>
</g>
<!-- Node8&#45;&gt;Node9 -->
<g id="edge7" class="edge">
<title>Node8&#45;&gt;Node9</title>
<path fill="none" stroke="midnightblue" d="M356.96,-139.92C345.61,-139.92 333.77,-139.92 323.27,-139.92"/>
<polygon fill="midnightblue" stroke="midnightblue" points="357.19,-143.42 367.19,-139.92 357.19,-136.42 357.19,-143.42"/>
</g>
<!-- Node10 -->
<g id="node9" class="node">
<title>Node10</title>
<g id="a_node9"><a xlink:href="libbf_8h.html#a7cb137686dce1e04af24aa61a1a177a6" target="_top" xlink:title=" ">
<polygon fill="none" stroke="black" points="125.5,-130.42 125.5,-149.42 205.5,-149.42 205.5,-130.42 125.5,-130.42"/>
<text text-anchor="middle" x="165.5" y="-137.42" font-family="Helvetica,sans-Serif" font-size="10.00">bfdec_add_si</text>
</a>
</g>
</g>
<!-- Node9&#45;&gt;Node10 -->
<g id="edge8" class="edge">
<title>Node9&#45;&gt;Node10</title>
<path fill="none" stroke="midnightblue" d="M245.71,-139.92C232.73,-139.92 218.54,-139.92 205.8,-139.92"/>
<polygon fill="midnightblue" stroke="midnightblue" points="245.81,-143.42 255.81,-139.92 245.81,-136.42 245.81,-143.42"/>
</g>
<!-- Node10&#45;&gt;Node5 -->
<g id="edge9" class="edge">
<title>Node10&#45;&gt;Node5</title>
<path fill="none" stroke="midnightblue" d="M134.76,-153.82C112.5,-164.22 82.63,-178.17 62.99,-187.35"/>
<polygon fill="midnightblue" stroke="midnightblue" points="136.5,-156.87 144.08,-149.46 133.54,-150.52 136.5,-156.87"/>
</g>
<!-- Node12 -->
<g id="node11" class="node">
<title>Node12</title>
<g id="a_node11"><a xlink:href="libbf_8h.html#ac3255e37957d4be7117b1d9bfc4fcf11" target="_top" xlink:title=" ">
<polygon fill="none" stroke="black" points="256.5,-244.42 256.5,-263.42 322.5,-263.42 322.5,-244.42 256.5,-244.42"/>
<text text-anchor="middle" x="289.5" y="-251.42" font-family="Helvetica,sans-Serif" font-size="10.00">bfdec_sub</text>
</a>
</g>
</g>
<!-- Node11&#45;&gt;Node12 -->
<g id="edge11" class="edge">
<title>Node11&#45;&gt;Node12</title>
<path fill="none" stroke="midnightblue" d="M386.28,-194.18C371.8,-206.3 350.91,-222.78 331,-234.92 325.43,-238.32 319.15,-241.53 313.24,-244.32"/>
<polygon fill="midnightblue" stroke="midnightblue" points="388.66,-196.76 394.02,-187.62 384.13,-191.42 388.66,-196.76"/>
</g>
<!-- Node12&#45;&gt;Node4 -->
<g id="edge13" class="edge">
<title>Node12&#45;&gt;Node4</title>
<path fill="none" stroke="midnightblue" d="M258.76,-240.03C236.5,-229.63 206.63,-215.67 186.99,-206.49"/>
<polygon fill="midnightblue" stroke="midnightblue" points="257.54,-243.32 268.08,-244.38 260.5,-236.98 257.54,-243.32"/>
</g>
<!-- Node12&#45;&gt;Node5 -->
<g id="edge12" class="edge">
<title>Node12&#45;&gt;Node5</title>
<path fill="none" stroke="midnightblue" d="M246.13,-244.71C211.81,-237.17 162.22,-226.13 119,-215.92 106.35,-212.93 92.55,-209.55 80.2,-206.47"/>
<polygon fill="midnightblue" stroke="midnightblue" points="245.75,-248.21 256.27,-246.93 247.25,-241.37 245.75,-248.21"/>
</g>
<!-- Node13&#45;&gt;Node4 -->
<g id="edge19" class="edge">
<title>Node13&#45;&gt;Node4</title>
<path fill="none" stroke="midnightblue" d="M383.17,-50.29C368.7,-60.17 349.12,-72.97 331,-82.92 295.44,-102.46 281,-97.32 248,-120.92 229.08,-134.46 228.96,-142.99 212,-158.92 201.2,-169.07 188.15,-179.82 178.8,-187.29"/>
<polygon fill="midnightblue" stroke="midnightblue" points="385.22,-53.13 391.46,-44.57 381.24,-47.37 385.22,-53.13"/>
</g>
<!-- Node14 -->
<g id="node13" class="node">
<title>Node14</title>
<g id="a_node13"><a xlink:href="libbf_8h.html#ae5aa2c2f63fe392a1ab15f1012c512e8" target="_top" xlink:title=" ">
<polygon fill="none" stroke="black" points="125,-54.42 125,-73.42 206,-73.42 206,-54.42 125,-54.42"/>
<text text-anchor="middle" x="165.5" y="-61.42" font-family="Helvetica,sans-Serif" font-size="10.00">bfdec_mul_si</text>
</a>
</g>
</g>
<!-- Node13&#45;&gt;Node14 -->
<g id="edge16" class="edge">
<title>Node13&#45;&gt;Node14</title>
<path fill="none" stroke="midnightblue" d="M376.27,-21.27C362.84,-15.63 346.44,-9.75 331,-6.92 294.71,-0.29 283.18,4.16 248,-6.92 218.36,-16.26 190.11,-40.65 175.95,-54.3"/>
<polygon fill="midnightblue" stroke="midnightblue" points="374.9,-24.5 385.46,-25.3 377.7,-18.08 374.9,-24.5"/>
</g>
<!-- Node15 -->
<g id="node14" class="node">
<title>Node15</title>
<g id="a_node14"><a xlink:href="libbf_8h.html#a1baac52525d382cc854c2e484ce2c169" target="_top" xlink:title=" ">
<polygon fill="none" stroke="black" points="248,-16.42 248,-35.42 331,-35.42 331,-16.42 248,-16.42"/>
<text text-anchor="middle" x="289.5" y="-23.42" font-family="Helvetica,sans-Serif" font-size="10.00">bfdec_pow_ui</text>
</a>
</g>
</g>
<!-- Node13&#45;&gt;Node15 -->
<g id="edge18" class="edge">
<title>Node13&#45;&gt;Node15</title>
<path fill="none" stroke="midnightblue" d="M361.74,-31.52C351.75,-30.74 341.15,-29.9 331.27,-29.13"/>
<polygon fill="midnightblue" stroke="midnightblue" points="361.64,-35.02 371.88,-32.32 362.19,-28.05 361.64,-35.02"/>
</g>
<!-- Node14&#45;&gt;Node5 -->
<g id="edge17" class="edge">
<title>Node14&#45;&gt;Node5</title>
<path fill="none" stroke="midnightblue" d="M148.85,-80.98C122.99,-109.17 72.16,-164.59 51.52,-187.09"/>
<polygon fill="midnightblue" stroke="midnightblue" points="151.55,-83.22 155.73,-73.49 146.39,-78.49 151.55,-83.22"/>
</g>
<!-- Node16&#45;&gt;Node4 -->
<g id="edge25" class="edge">
<title>Node16&#45;&gt;Node4</title>
<path fill="none" stroke="midnightblue" d="M388.05,-99.67C381.44,-106.26 373.83,-113.91 367,-120.92 350.77,-137.59 351.19,-147.37 331,-158.92 294.24,-179.96 246.57,-189.35 212.01,-193.55"/>
<polygon fill="midnightblue" stroke="midnightblue" points="390.61,-102.06 395.24,-92.53 385.68,-97.1 390.61,-102.06"/>
</g>
<!-- Node16&#45;&gt;Node15 -->
<g id="edge21" class="edge">
<title>Node16&#45;&gt;Node15</title>
<path fill="none" stroke="midnightblue" d="M377.79,-68.66C363.86,-61.43 346.59,-52.58 331,-44.92 324.59,-41.77 317.55,-38.43 311.17,-35.45"/>
<polygon fill="midnightblue" stroke="midnightblue" points="376.36,-71.86 386.85,-73.37 379.59,-65.65 376.36,-71.86"/>
</g>
<!-- Node17 -->
<g id="node16" class="node">
<title>Node17</title>
<g id="a_node16"><a xlink:href="libbf_8h.html#a4c3b1cee330551b12fd6ae2fe5421031" target="_top" xlink:title=" ">
<polygon fill="none" stroke="black" points="251,-54.42 251,-73.42 328,-73.42 328,-54.42 251,-54.42"/>
<text text-anchor="middle" x="289.5" y="-61.42" font-family="Helvetica,sans-Serif" font-size="10.00">bfdec_set_si</text>
</a>
</g>
</g>
<!-- Node16&#45;&gt;Node17 -->
<g id="edge22" class="edge">
<title>Node16&#45;&gt;Node17</title>
<path fill="none" stroke="midnightblue" d="M356.99,-74.96C347.33,-73.35 337.31,-71.69 328.07,-70.16"/>
<polygon fill="midnightblue" stroke="midnightblue" points="356.44,-78.41 366.87,-76.6 357.58,-71.51 356.44,-78.41"/>
</g>
<!-- Node17&#45;&gt;Node10 -->
<g id="edge23" class="edge">
<title>Node17&#45;&gt;Node10</title>
<path fill="none" stroke="midnightblue" d="M263.15,-78.77C258.11,-81.77 252.87,-84.93 248,-87.92 224.41,-102.43 197.37,-119.84 181.13,-130.38"/>
<polygon fill="midnightblue" stroke="midnightblue" points="265.05,-81.71 271.87,-73.61 261.49,-75.69 265.05,-81.71"/>
</g>
<!-- Node17&#45;&gt;Node14 -->
<g id="edge24" class="edge">
<title>Node17&#45;&gt;Node14</title>
<path fill="none" stroke="midnightblue" d="M240.68,-63.92C229.3,-63.92 217.28,-63.92 206.3,-63.92"/>
<polygon fill="midnightblue" stroke="midnightblue" points="240.9,-67.42 250.9,-63.92 240.9,-60.42 240.9,-67.42"/>
</g>
</g>
</svg>
        <g id="navigator" transform="translate(0 0)" fill="#404254">
                <rect fill="#f2f5e9" fill-opacity="0.5" stroke="#606060" stroke-width=".5" x="0" y="0" width="60" height="60"/>
                <use id="zoomplus" xlink:href="#zoomPlus" x="17" y="9" onmousedown="handleZoom(evt,'in')"/>
                <use id="zoomminus" xlink:href="#zoomMin" x="42" y="9" onmousedown="handleZoom(evt,'out')"/>
                <use id="reset" xlink:href="#resetDef" x="30" y="36" onmousedown="handleReset()"/>
                <g id="arrowUp" xlink:href="#dirArrow" transform="translate(30 24)" onmousedown="handlePan(0,-1)">
                  <use xlink:href="#rim" fill="#404040">
                        <set attributeName="fill" to="#808080" begin="arrowUp.mouseover" end="arrowUp.mouseout"/>
                  </use>
                  <path fill="none" stroke="white" stroke-width="1.5" d="M0,-3.0v7 M-2.5,-0.5L0,-3.0L2.5,-0.5"/>
                </g>
                <g id="arrowRight" xlink:href="#dirArrow" transform="rotate(90) translate(36 -43)" onmousedown="handlePan(1,0)">
                  <use xlink:href="#rim" fill="#404040">
                        <set attributeName="fill" to="#808080" begin="arrowRight.mouseover" end="arrowRight.mouseout"/>
                  </use>
                  <path fill="none" stroke="white" stroke-width="1.5" d="M0,-3.0v7 M-2.5,-0.5L0,-3.0L2.5,-0.5"/>
                </g>
                <g id="arrowDown" xlink:href="#dirArrow" transform="rotate(180) translate(-30 -48)" onmousedown="handlePan(0,1)">
                  <use xlink:href="#rim" fill="#404040">
                        <set attributeName="fill" to="#808080" begin="arrowDown.mouseover" end="arrowDown.mouseout"/>
                  </use>
                  <path fill="none" stroke="white" stroke-width="1.5" d="M0,-3.0v7 M-2.5,-0.5L0,-3.0L2.5,-0.5"/>
                </g>
                <g id="arrowLeft" xlink:href="#dirArrow" transform="rotate(270) translate(-36 17)" onmousedown="handlePan(-1,0)">
                  <use xlink:href="#rim" fill="#404040">
                        <set attributeName="fill" to="#808080" begin="arrowLeft.mouseover" end="arrowLeft.mouseout"/>
                  </use>
                  <path fill="none" stroke="white" stroke-width="1.5" d="M0,-3.0v7 M-2.5,-0.5L0,-3.0L2.5,-0.5"/>
                </g>
        </g>
        <svg viewBox="0 0 15 15" width="100%" height="30px" preserveAspectRatio="xMaxYMin meet">
         <g id="arrow_out" transform="scale(0.3 0.3)">
          <a xlink:href="libbf_8h_a432cfe0b33bf61782ef53b643aeb1e0f_icgraph_org.svg" target="_base">
           <rect id="button" ry="5" rx="5" y="6" x="6" height="38" width="38"
                fill="#f2f5e9" fill-opacity="0.5" stroke="#606060" stroke-width="1.0"/>
           <path id="arrow"
             d="M 11.500037,31.436501 C 11.940474,20.09759 22.043105,11.32322 32.158766,21.979434 L 37.068811,17.246167 C 37.068811,17.246167 37.088388,32 37.088388,32 L 22.160133,31.978069 C 22.160133,31.978069 26.997745,27.140456 26.997745,27.140456 C 18.528582,18.264221 13.291696,25.230495 11.500037,31.436501 z"
             style="fill:#404040;"/>
          </a>
         </g>
        </svg>
</svg>
