<?xml version="1.0" encoding="UTF-8" standalone="no"?>
<!DOCTYPE svg PUBLIC "-//W3C//DTD SVG 1.1//EN"
 "http://www.w3.org/Graphics/SVG/1.1/DTD/svg11.dtd">
<!-- Generated by graphviz version 2.43.0 (0)
 -->
<!-- Title: mp_sub_dec Pages: 1 -->
<!--zoomable 160 -->
<svg id="main" version="1.1" xmlns="http://www.w3.org/2000/svg" xmlns:xlink="http://www.w3.org/1999/xlink" xml:space="preserve" onload="init(evt)">
<style type="text/css"><![CDATA[
.edge:hover path { stroke: red; }
.edge:hover polygon { stroke: red; fill: red; }
]]></style>
<script type="text/javascript"><![CDATA[
var edges = document.getElementsByTagName('g');
if (edges && edges.length) {
  for (var i=0;i<edges.length;i++) {
    if (edges[i].id.substr(0,4)=='edge') {
      edges[i].setAttribute('class','edge');
    }
  }
}
]]></script>
        <defs>
                <circle id="rim" cx="0" cy="0" r="7"/>
                <circle id="rim2" cx="0" cy="0" r="3.5"/>
                <g id="zoomPlus">
                        <use xlink:href="#rim" fill="#404040">
                                <set attributeName="fill" to="#808080" begin="zoomplus.mouseover" end="zoomplus.mouseout"/>
                        </use>
                        <path d="M-4,0h8M0,-4v8" fill="none" stroke="white" stroke-width="1.5" pointer-events="none"/>
                </g>
                <g id="zoomMin">
                        <use xlink:href="#rim" fill="#404040">
                                <set attributeName="fill" to="#808080" begin="zoomminus.mouseover" end="zoomminus.mouseout"/>
                        </use>
                        <path d="M-4,0h8" fill="none" stroke="white" stroke-width="1.5" pointer-events="none"/>
                </g>
                <g id="dirArrow">
                        <path fill="none" stroke="white" stroke-width="1.5" d="M0,-3.0v7 M-2.5,-0.5L0,-3.0L2.5,-0.5"/>
                </g>
               <g id="resetDef">
                       <use xlink:href="#rim2" fill="#404040">
                               <set attributeName="fill" to="#808080" begin="reset.mouseover" end="reset.mouseout"/>
                       </use>
               </g>
        </defs>

<script type="text/javascript">
var viewWidth = 520;
var viewHeight = 160;
var sectionId = 'dynsection-253';
</script>
<script xlink:href="svgpan.js"/>
<svg id="graph" class="graph">
<g id="viewport">
<title>mp_sub_dec</title>
<!-- Node1 -->
<g id="node1" class="node">
<title>Node1</title>
<g id="a_node1"><a xlink:title=" ">
<polygon fill="#bfbfbf" stroke="black" points="435,-52.5 435,-71.5 512,-71.5 512,-52.5 435,-52.5"/>
<text text-anchor="middle" x="473.5" y="-59.5" font-family="Helvetica,sans-Serif" font-size="10.00">mp_sub_dec</text>
</a>
</g>
</g>
<!-- Node2 -->
<g id="node2" class="node">
<title>Node2</title>
<g id="a_node2"><a xlink:href="libbf_8c.html#adab81046eaf5fc5a75e1bae96b75be66" target="_top" xlink:title=" ">
<polygon fill="none" stroke="black" points="289,-94.5 289,-113.5 399,-113.5 399,-94.5 289,-94.5"/>
<text text-anchor="middle" x="344" y="-101.5" font-family="Helvetica,sans-Serif" font-size="10.00">bfdec_add_internal</text>
</a>
</g>
</g>
<!-- Node1&#45;&gt;Node2 -->
<g id="edge1" class="edge">
<title>Node1&#45;&gt;Node2</title>
<path fill="none" stroke="midnightblue" d="M433.92,-74.71C414.75,-81.02 391.97,-88.53 374.26,-94.36"/>
<polygon fill="midnightblue" stroke="midnightblue" points="435.17,-77.98 443.57,-71.53 432.98,-71.33 435.17,-77.98"/>
</g>
<!-- Node11 -->
<g id="node7" class="node">
<title>Node11</title>
<g id="a_node7"><a xlink:href="libbf_8c.html#a073a4541c0bf7be12ff100d2a0330294" target="_top" xlink:title=" ">
<polygon fill="none" stroke="black" points="306.5,-52.5 306.5,-71.5 381.5,-71.5 381.5,-52.5 306.5,-52.5"/>
<text text-anchor="middle" x="344" y="-59.5" font-family="Helvetica,sans-Serif" font-size="10.00">mp_div_dec</text>
</a>
</g>
</g>
<!-- Node1&#45;&gt;Node11 -->
<g id="edge6" class="edge">
<title>Node1&#45;&gt;Node11</title>
<path fill="none" stroke="midnightblue" d="M424.83,-62C410.62,-62 395.27,-62 381.86,-62"/>
<polygon fill="midnightblue" stroke="midnightblue" points="424.94,-65.5 434.94,-62 424.94,-58.5 424.94,-65.5"/>
</g>
<!-- Node14 -->
<g id="node10" class="node">
<title>Node14</title>
<g id="a_node10"><a xlink:href="libbf_8c.html#ae758f9e5665601c800cc431c03a696f5" target="_top" xlink:title=" ">
<polygon fill="none" stroke="black" points="134,-0.5 134,-19.5 253,-19.5 253,-0.5 134,-0.5"/>
<text text-anchor="middle" x="193.5" y="-7.5" font-family="Helvetica,sans-Serif" font-size="10.00">mp_sqrtrem_rec_dec</text>
</a>
</g>
</g>
<!-- Node1&#45;&gt;Node14 -->
<g id="edge12" class="edge">
<title>Node1&#45;&gt;Node14</title>
<path fill="none" stroke="midnightblue" d="M428.43,-49.9C418.77,-47.45 408.57,-45.01 399,-43 350.25,-32.79 294.39,-23.97 253.39,-18.02"/>
<polygon fill="midnightblue" stroke="midnightblue" points="427.7,-53.32 438.25,-52.44 429.45,-46.55 427.7,-53.32"/>
</g>
<!-- Node3 -->
<g id="node3" class="node">
<title>Node3</title>
<g id="a_node3"><a xlink:href="libbf_8c.html#aa5c7e54724217d71eb29c55c98e2413f" target="_top" xlink:title=" ">
<polygon fill="none" stroke="black" points="155,-132.5 155,-151.5 232,-151.5 232,-132.5 155,-132.5"/>
<text text-anchor="middle" x="193.5" y="-139.5" font-family="Helvetica,sans-Serif" font-size="10.00">__bfdec_add</text>
</a>
</g>
</g>
<!-- Node2&#45;&gt;Node3 -->
<g id="edge2" class="edge">
<title>Node2&#45;&gt;Node3</title>
<path fill="none" stroke="midnightblue" d="M295.67,-116.11C274.99,-121.4 251.08,-127.52 231.7,-132.48"/>
<polygon fill="midnightblue" stroke="midnightblue" points="296.71,-119.46 305.53,-113.59 294.97,-112.68 296.71,-119.46"/>
</g>
<!-- Node8 -->
<g id="node5" class="node">
<title>Node8</title>
<g id="a_node5"><a xlink:href="libbf_8c.html#ac10038dd7f04c765ddc8fdb12e3257a2" target="_top" xlink:title=" ">
<polygon fill="none" stroke="black" points="155,-94.5 155,-113.5 232,-113.5 232,-94.5 155,-94.5"/>
<text text-anchor="middle" x="193.5" y="-101.5" font-family="Helvetica,sans-Serif" font-size="10.00">__bfdec_sub</text>
</a>
</g>
</g>
<!-- Node2&#45;&gt;Node8 -->
<g id="edge4" class="edge">
<title>Node2&#45;&gt;Node8</title>
<path fill="none" stroke="midnightblue" d="M278.72,-104C262.93,-104 246.54,-104 232.45,-104"/>
<polygon fill="midnightblue" stroke="midnightblue" points="278.97,-107.5 288.97,-104 278.97,-100.5 278.97,-107.5"/>
</g>
<!-- Node4 -->
<g id="node4" class="node">
<title>Node4</title>
<g id="a_node4"><a xlink:href="libbf_8h.html#a2ab5a868db6e2d3d41c9b95e561054d3" target="_top" xlink:title=" ">
<polygon fill="none" stroke="red" points="15.5,-132.5 15.5,-151.5 82.5,-151.5 82.5,-132.5 15.5,-132.5"/>
<text text-anchor="middle" x="49" y="-139.5" font-family="Helvetica,sans-Serif" font-size="10.00">bfdec_add</text>
</a>
</g>
</g>
<!-- Node3&#45;&gt;Node4 -->
<g id="edge3" class="edge">
<title>Node3&#45;&gt;Node4</title>
<path fill="none" stroke="midnightblue" d="M144.64,-142C124.26,-142 101.01,-142 82.66,-142"/>
<polygon fill="midnightblue" stroke="midnightblue" points="144.69,-145.5 154.69,-142 144.69,-138.5 144.69,-145.5"/>
</g>
<!-- Node9 -->
<g id="node6" class="node">
<title>Node9</title>
<g id="a_node6"><a xlink:href="libbf_8h.html#ac3255e37957d4be7117b1d9bfc4fcf11" target="_top" xlink:title=" ">
<polygon fill="none" stroke="red" points="16,-94.5 16,-113.5 82,-113.5 82,-94.5 16,-94.5"/>
<text text-anchor="middle" x="49" y="-101.5" font-family="Helvetica,sans-Serif" font-size="10.00">bfdec_sub</text>
</a>
</g>
</g>
<!-- Node8&#45;&gt;Node9 -->
<g id="edge5" class="edge">
<title>Node8&#45;&gt;Node9</title>
<path fill="none" stroke="midnightblue" d="M144.57,-104C124.03,-104 100.59,-104 82.19,-104"/>
<polygon fill="midnightblue" stroke="midnightblue" points="144.69,-107.5 154.69,-104 144.69,-100.5 144.69,-107.5"/>
</g>
<!-- Node12 -->
<g id="node8" class="node">
<title>Node12</title>
<g id="a_node8"><a xlink:href="libbf_8c.html#ab0fc8c7b5ee65f945fae1794494865f1" target="_top" xlink:title=" ">
<polygon fill="none" stroke="black" points="156.5,-56.5 156.5,-75.5 230.5,-75.5 230.5,-56.5 156.5,-56.5"/>
<text text-anchor="middle" x="193.5" y="-63.5" font-family="Helvetica,sans-Serif" font-size="10.00">__bfdec_div</text>
</a>
</g>
</g>
<!-- Node11&#45;&gt;Node12 -->
<g id="edge7" class="edge">
<title>Node11&#45;&gt;Node12</title>
<path fill="none" stroke="midnightblue" d="M296.19,-63.26C274.97,-63.83 250.27,-64.5 230.53,-65.03"/>
<polygon fill="midnightblue" stroke="midnightblue" points="296.39,-66.76 306.29,-62.99 296.2,-59.76 296.39,-66.76"/>
</g>
<!-- Node11&#45;&gt;Node14 -->
<g id="edge9" class="edge">
<title>Node11&#45;&gt;Node14</title>
<path fill="none" stroke="midnightblue" d="M306.19,-49.11C280.05,-39.96 245.52,-27.87 221.82,-19.57"/>
<polygon fill="midnightblue" stroke="midnightblue" points="305.17,-52.46 315.76,-52.46 307.48,-45.85 305.17,-52.46"/>
</g>
<!-- Node13 -->
<g id="node9" class="node">
<title>Node13</title>
<g id="a_node9"><a xlink:href="libbf_8h.html#a10de87f3c9d3dc623ca131eaa468dd1b" target="_top" xlink:title=" ">
<polygon fill="none" stroke="red" points="17,-56.5 17,-75.5 81,-75.5 81,-56.5 17,-56.5"/>
<text text-anchor="middle" x="49" y="-63.5" font-family="Helvetica,sans-Serif" font-size="10.00">bfdec_div</text>
</a>
</g>
</g>
<!-- Node12&#45;&gt;Node13 -->
<g id="edge8" class="edge">
<title>Node12&#45;&gt;Node13</title>
<path fill="none" stroke="midnightblue" d="M146.09,-66C124.91,-66 100.39,-66 81.42,-66"/>
<polygon fill="midnightblue" stroke="midnightblue" points="146.17,-69.5 156.17,-66 146.17,-62.5 146.17,-69.5"/>
</g>
<!-- Node14&#45;&gt;Node14 -->
<g id="edge11" class="edge">
<title>Node14&#45;&gt;Node14</title>
<path fill="none" stroke="midnightblue" d="M220.38,-28.65C219.26,-33.94 210.3,-38 193.5,-38 167.91,-38 160.51,-28.57 171.31,-19.76"/>
<polygon fill="midnightblue" stroke="midnightblue" points="223.45,-26.97 215.69,-19.76 217.26,-30.24 223.45,-26.97"/>
</g>
<!-- Node15 -->
<g id="node11" class="node">
<title>Node15</title>
<g id="a_node11"><a xlink:href="libbf_8c.html#a4cb0365d02fe07e3b81ef1fbc5a0eacd" target="_top" xlink:title=" ">
<polygon fill="none" stroke="red" points="0,-0.5 0,-19.5 98,-19.5 98,-0.5 0,-0.5"/>
<text text-anchor="middle" x="49" y="-7.5" font-family="Helvetica,sans-Serif" font-size="10.00">mp_sqrtrem_dec</text>
</a>
</g>
</g>
<!-- Node14&#45;&gt;Node15 -->
<g id="edge10" class="edge">
<title>Node14&#45;&gt;Node15</title>
<path fill="none" stroke="midnightblue" d="M123.67,-10C115.07,-10 106.43,-10 98.23,-10"/>
<polygon fill="midnightblue" stroke="midnightblue" points="123.72,-13.5 133.72,-10 123.72,-6.5 123.72,-13.5"/>
</g>
</g>
</svg>
        <g id="navigator" transform="translate(0 0)" fill="#404254">
                <rect fill="#f2f5e9" fill-opacity="0.5" stroke="#606060" stroke-width=".5" x="0" y="0" width="60" height="60"/>
                <use id="zoomplus" xlink:href="#zoomPlus" x="17" y="9" onmousedown="handleZoom(evt,'in')"/>
                <use id="zoomminus" xlink:href="#zoomMin" x="42" y="9" onmousedown="handleZoom(evt,'out')"/>
                <use id="reset" xlink:href="#resetDef" x="30" y="36" onmousedown="handleReset()"/>
                <g id="arrowUp" xlink:href="#dirArrow" transform="translate(30 24)" onmousedown="handlePan(0,-1)">
                  <use xlink:href="#rim" fill="#404040">
                        <set attributeName="fill" to="#808080" begin="arrowUp.mouseover" end="arrowUp.mouseout"/>
                  </use>
                  <path fill="none" stroke="white" stroke-width="1.5" d="M0,-3.0v7 M-2.5,-0.5L0,-3.0L2.5,-0.5"/>
                </g>
                <g id="arrowRight" xlink:href="#dirArrow" transform="rotate(90) translate(36 -43)" onmousedown="handlePan(1,0)">
                  <use xlink:href="#rim" fill="#404040">
                        <set attributeName="fill" to="#808080" begin="arrowRight.mouseover" end="arrowRight.mouseout"/>
                  </use>
                  <path fill="none" stroke="white" stroke-width="1.5" d="M0,-3.0v7 M-2.5,-0.5L0,-3.0L2.5,-0.5"/>
                </g>
                <g id="arrowDown" xlink:href="#dirArrow" transform="rotate(180) translate(-30 -48)" onmousedown="handlePan(0,1)">
                  <use xlink:href="#rim" fill="#404040">
                        <set attributeName="fill" to="#808080" begin="arrowDown.mouseover" end="arrowDown.mouseout"/>
                  </use>
                  <path fill="none" stroke="white" stroke-width="1.5" d="M0,-3.0v7 M-2.5,-0.5L0,-3.0L2.5,-0.5"/>
                </g>
                <g id="arrowLeft" xlink:href="#dirArrow" transform="rotate(270) translate(-36 17)" onmousedown="handlePan(-1,0)">
                  <use xlink:href="#rim" fill="#404040">
                        <set attributeName="fill" to="#808080" begin="arrowLeft.mouseover" end="arrowLeft.mouseout"/>
                  </use>
                  <path fill="none" stroke="white" stroke-width="1.5" d="M0,-3.0v7 M-2.5,-0.5L0,-3.0L2.5,-0.5"/>
                </g>
        </g>
        <svg viewBox="0 0 15 15" width="100%" height="30px" preserveAspectRatio="xMaxYMin meet">
         <g id="arrow_out" transform="scale(0.3 0.3)">
          <a xlink:href="libbf_8c_a83ad0dceb145acc8418d948d1d4b6175_icgraph_org.svg" target="_base">
           <rect id="button" ry="5" rx="5" y="6" x="6" height="38" width="38"
                fill="#f2f5e9" fill-opacity="0.5" stroke="#606060" stroke-width="1.0"/>
           <path id="arrow"
             d="M 11.500037,31.436501 C 11.940474,20.09759 22.043105,11.32322 32.158766,21.979434 L 37.068811,17.246167 C 37.068811,17.246167 37.088388,32 37.088388,32 L 22.160133,31.978069 C 22.160133,31.978069 26.997745,27.140456 26.997745,27.140456 C 18.528582,18.264221 13.291696,25.230495 11.500037,31.436501 z"
             style="fill:#404040;"/>
          </a>
         </g>
        </svg>
</svg>
