<?xml version="1.0" encoding="UTF-8" standalone="no"?>
<!DOCTYPE svg PUBLIC "-//W3C//DTD SVG 1.1//EN"
 "http://www.w3.org/Graphics/SVG/1.1/DTD/svg11.dtd">
<!-- Generated by graphviz version 2.43.0 (0)
 -->
<!-- Title: clz_dec Pages: 1 -->
<svg width="205pt" height="28pt"
 viewBox="0.00 0.00 205.00 28.00" xmlns="http://www.w3.org/2000/svg" xmlns:xlink="http://www.w3.org/1999/xlink">
<g id="graph0" class="graph" transform="scale(1 1) rotate(0) translate(4 24)">
<title>clz_dec</title>
<!-- Node1 -->
<g id="node1" class="node">
<title>Node1</title>
<g id="a_node1"><a xlink:title=" ">
<polygon fill="#bfbfbf" stroke="black" points="0,-0.5 0,-19.5 53,-19.5 53,-0.5 0,-0.5"/>
<text text-anchor="middle" x="26.5" y="-7.5" font-family="Helvetica,sans-Serif" font-size="10.00">clz_dec</text>
</a>
</g>
</g>
<!-- Node2 -->
<g id="node2" class="node">
<title>Node2</title>
<g id="a_node2"><a xlink:href="libbf_8c.html#a3ac3b86cc31b99a551947240e979c5d7" target="_top" xlink:title=" ">
<polygon fill="none" stroke="black" points="89,-0.5 89,-19.5 119,-19.5 119,-0.5 89,-0.5"/>
<text text-anchor="middle" x="104" y="-7.5" font-family="Helvetica,sans-Serif" font-size="10.00">clz</text>
</a>
</g>
</g>
<!-- Node1&#45;&gt;Node2 -->
<g id="edge1" class="edge">
<title>Node1&#45;&gt;Node2</title>
<path fill="none" stroke="midnightblue" d="M53.06,-10C61.39,-10 70.6,-10 78.83,-10"/>
<polygon fill="midnightblue" stroke="midnightblue" points="78.91,-13.5 88.91,-10 78.91,-6.5 78.91,-13.5"/>
</g>
<!-- Node3 -->
<g id="node3" class="node">
<title>Node3</title>
<g id="a_node3"><a xlink:href="cutils_8h.html#a28eb00e6774a2dd724b86fb6f83c1bf6" target="_top" xlink:title=" ">
<polygon fill="none" stroke="black" points="155,-0.5 155,-19.5 197,-19.5 197,-0.5 155,-0.5"/>
<text text-anchor="middle" x="176" y="-7.5" font-family="Helvetica,sans-Serif" font-size="10.00">clz64</text>
</a>
</g>
</g>
<!-- Node2&#45;&gt;Node3 -->
<g id="edge2" class="edge">
<title>Node2&#45;&gt;Node3</title>
<path fill="none" stroke="midnightblue" d="M119.17,-10C126.52,-10 135.79,-10 144.67,-10"/>
<polygon fill="midnightblue" stroke="midnightblue" points="144.75,-13.5 154.75,-10 144.75,-6.5 144.75,-13.5"/>
</g>
</g>
</svg>
