<?xml version="1.0" encoding="UTF-8" standalone="no"?>
<!DOCTYPE svg PUBLIC "-//W3C//DTD SVG 1.1//EN"
 "http://www.w3.org/Graphics/SVG/1.1/DTD/svg11.dtd">
<!-- Generated by graphviz version 2.43.0 (0)
 -->
<!-- Title: bf_tdivremu Pages: 1 -->
<!--zoomable 1056 -->
<svg id="main" version="1.1" xmlns="http://www.w3.org/2000/svg" xmlns:xlink="http://www.w3.org/1999/xlink" xml:space="preserve" onload="init(evt)">
<style type="text/css"><![CDATA[
.edge:hover path { stroke: red; }
.edge:hover polygon { stroke: red; fill: red; }
]]></style>
<script type="text/javascript"><![CDATA[
var edges = document.getElementsByTagName('g');
if (edges && edges.length) {
  for (var i=0;i<edges.length;i++) {
    if (edges[i].id.substr(0,4)=='edge') {
      edges[i].setAttribute('class','edge');
    }
  }
}
]]></script>
        <defs>
                <circle id="rim" cx="0" cy="0" r="7"/>
                <circle id="rim2" cx="0" cy="0" r="3.5"/>
                <g id="zoomPlus">
                        <use xlink:href="#rim" fill="#404040">
                                <set attributeName="fill" to="#808080" begin="zoomplus.mouseover" end="zoomplus.mouseout"/>
                        </use>
                        <path d="M-4,0h8M0,-4v8" fill="none" stroke="white" stroke-width="1.5" pointer-events="none"/>
                </g>
                <g id="zoomMin">
                        <use xlink:href="#rim" fill="#404040">
                                <set attributeName="fill" to="#808080" begin="zoomminus.mouseover" end="zoomminus.mouseout"/>
                        </use>
                        <path d="M-4,0h8" fill="none" stroke="white" stroke-width="1.5" pointer-events="none"/>
                </g>
                <g id="dirArrow">
                        <path fill="none" stroke="white" stroke-width="1.5" d="M0,-3.0v7 M-2.5,-0.5L0,-3.0L2.5,-0.5"/>
                </g>
               <g id="resetDef">
                       <use xlink:href="#rim2" fill="#404040">
                               <set attributeName="fill" to="#808080" begin="reset.mouseover" end="reset.mouseout"/>
                       </use>
               </g>
        </defs>

<script type="text/javascript">
var viewWidth = 877;
var viewHeight = 1056;
var sectionId = 'dynsection-96';
</script>
<script xlink:href="svgpan.js"/>
<svg id="graph" class="graph">
<g id="viewport">
<title>bf_tdivremu</title>
<!-- Node1 -->
<g id="node1" class="node">
<title>Node1</title>
<g id="a_node1"><a xlink:title=" ">
<polygon fill="#bfbfbf" stroke="black" points="0,-496.31 0,-515.31 76,-515.31 76,-496.31 0,-496.31"/>
<text text-anchor="middle" x="38" y="-503.31" font-family="Helvetica,sans-Serif" font-size="10.00">bf_tdivremu</text>
</a>
</g>
</g>
<!-- Node2 -->
<g id="node2" class="node">
<title>Node2</title>
<g id="a_node2"><a xlink:href="libbf_8h.html#a165ae2c6d3fee618014b7c9ea4f944dc" target="_top" xlink:title=" ">
<polygon fill="none" stroke="black" points="459,-999.31 459,-1018.31 518,-1018.31 518,-999.31 459,-999.31"/>
<text text-anchor="middle" x="488.5" y="-1006.31" font-family="Helvetica,sans-Serif" font-size="10.00">bf_cmpu</text>
</a>
</g>
</g>
<!-- Node1&#45;&gt;Node2 -->
<g id="edge1" class="edge">
<title>Node1&#45;&gt;Node2</title>
<path fill="none" stroke="midnightblue" d="M41.5,-515.47C49.22,-544.44 74.49,-632.58 112,-697.81 204.08,-857.92 262.79,-879.85 420,-976.81 430.95,-983.56 443.55,-989.89 454.88,-995.1"/>
<polygon fill="midnightblue" stroke="midnightblue" points="453.48,-998.31 464.03,-999.21 456.34,-991.92 453.48,-998.31"/>
</g>
<!-- Node3 -->
<g id="node3" class="node">
<title>Node3</title>
<g id="a_node3"><a xlink:href="libbf_8h.html#a4954f3435332238433d15977d55ae566" target="_top" xlink:title=" ">
<polygon fill="none" stroke="black" points="601.5,-989.31 601.5,-1008.31 654.5,-1008.31 654.5,-989.31 601.5,-989.31"/>
<text text-anchor="middle" x="628" y="-996.31" font-family="Helvetica,sans-Serif" font-size="10.00">bf_max</text>
</a>
</g>
</g>
<!-- Node1&#45;&gt;Node3 -->
<g id="edge28" class="edge">
<title>Node1&#45;&gt;Node3</title>
<path fill="none" stroke="midnightblue" d="M40.15,-515.66C48.94,-588.98 108.52,-1046.81 225.5,-1046.81 225.5,-1046.81 225.5,-1046.81 339,-1046.81 436.26,-1046.81 462.53,-1050.91 557,-1027.81 571.22,-1024.33 586.3,-1018.4 598.81,-1012.8"/>
<polygon fill="midnightblue" stroke="midnightblue" points="600.62,-1015.82 608.22,-1008.44 597.68,-1009.47 600.62,-1015.82"/>
</g>
<!-- Node5 -->
<g id="node5" class="node">
<title>Node5</title>
<g id="a_node5"><a xlink:href="libbf_8h.html#a030665e68e114717678fb0d0453bb3c6" target="_top" xlink:title=" ">
<polygon fill="none" stroke="black" points="203,-477.31 203,-496.31 250,-496.31 250,-477.31 203,-477.31"/>
<text text-anchor="middle" x="226.5" y="-484.31" font-family="Helvetica,sans-Serif" font-size="10.00">bf_div</text>
</a>
</g>
</g>
<!-- Node1&#45;&gt;Node5 -->
<g id="edge4" class="edge">
<title>Node1&#45;&gt;Node5</title>
<path fill="none" stroke="midnightblue" d="M76.29,-502.01C110.29,-498.55 160.04,-493.48 192.59,-490.16"/>
<polygon fill="midnightblue" stroke="midnightblue" points="193.33,-493.6 202.93,-489.11 192.62,-486.64 193.33,-493.6"/>
</g>
<!-- Node70 -->
<g id="node21" class="node">
<title>Node70</title>
<g id="a_node21"><a xlink:href="libbf_8h.html#ac290278d0c37a0e7786873f98aadba47" target="_top" xlink:title=" ">
<polygon fill="none" stroke="black" points="313,-277.31 313,-296.31 363,-296.31 363,-277.31 313,-277.31"/>
<text text-anchor="middle" x="338" y="-284.31" font-family="Helvetica,sans-Serif" font-size="10.00">bf_mul</text>
</a>
</g>
</g>
<!-- Node1&#45;&gt;Node70 -->
<g id="edge29" class="edge">
<title>Node1&#45;&gt;Node70</title>
<path fill="none" stroke="midnightblue" d="M52.19,-496.12C99.02,-461.7 257.6,-345.16 315.56,-302.57"/>
<polygon fill="midnightblue" stroke="midnightblue" points="317.98,-305.13 323.96,-296.39 313.83,-299.49 317.98,-305.13"/>
</g>
<!-- Node71 -->
<g id="node24" class="node">
<title>Node71</title>
<g id="a_node24"><a xlink:href="libbf_8h.html#aaf7d6961c71cf6614ec51fd78755a031" target="_top" xlink:title=" ">
<polygon fill="none" stroke="black" points="112.5,-163.31 112.5,-182.31 160.5,-182.31 160.5,-163.31 112.5,-163.31"/>
<text text-anchor="middle" x="136.5" y="-170.31" font-family="Helvetica,sans-Serif" font-size="10.00">bf_rint</text>
</a>
</g>
</g>
<!-- Node1&#45;&gt;Node71 -->
<g id="edge41" class="edge">
<title>Node1&#45;&gt;Node71</title>
<path fill="none" stroke="midnightblue" d="M41.78,-496.2C55.02,-450.53 111.69,-254.98 129.86,-192.26"/>
<polygon fill="midnightblue" stroke="midnightblue" points="133.28,-193.03 132.7,-182.45 126.56,-191.09 133.28,-193.03"/>
</g>
<!-- Node73 -->
<g id="node26" class="node">
<title>Node73</title>
<g id="a_node26"><a xlink:href="libbf_8h.html#ae019ee8073f4359da157d3b1e5fdba7e" target="_top" xlink:title=" ">
<polygon fill="none" stroke="black" points="465,-847.31 465,-866.31 512,-866.31 512,-847.31 465,-847.31"/>
<text text-anchor="middle" x="488.5" y="-854.31" font-family="Helvetica,sans-Serif" font-size="10.00">bf_set</text>
</a>
</g>
</g>
<!-- Node1&#45;&gt;Node73 -->
<g id="edge44" class="edge">
<title>Node1&#45;&gt;Node73</title>
<path fill="none" stroke="midnightblue" d="M42.84,-515.44C61.68,-561.26 149.24,-758.28 292,-837.81 343.27,-866.37 413.98,-865.12 454.8,-861.23"/>
<polygon fill="midnightblue" stroke="midnightblue" points="455.42,-864.68 465,-860.14 454.68,-857.72 455.42,-864.68"/>
</g>
<!-- Node74 -->
<g id="node27" class="node">
<title>Node74</title>
<g id="a_node27"><a xlink:href="libbf_8h.html#a2378f025beace5741c19bf995c2971d3" target="_top" xlink:title=" ">
<polygon fill="none" stroke="black" points="458,-49.31 458,-68.31 519,-68.31 519,-49.31 458,-49.31"/>
<text text-anchor="middle" x="488.5" y="-56.31" font-family="Helvetica,sans-Serif" font-size="10.00">bf_set_ui</text>
</a>
</g>
</g>
<!-- Node1&#45;&gt;Node74 -->
<g id="edge47" class="edge">
<title>Node1&#45;&gt;Node74</title>
<path fill="none" stroke="midnightblue" d="M39.83,-496.09C44.34,-445.15 67.4,-209.25 112,-153.81 194.29,-51.51 369.46,-49.99 447.98,-55.03"/>
<polygon fill="midnightblue" stroke="midnightblue" points="447.73,-58.53 457.96,-55.75 448.23,-51.54 447.73,-58.53"/>
</g>
<!-- Node75 -->
<g id="node28" class="node">
<title>Node75</title>
<g id="a_node28"><a xlink:href="libbf_8h.html#abf69a9bc02b7c299bb75d172fa102d84" target="_top" xlink:title=" ">
<polygon fill="none" stroke="black" points="112,-515.31 112,-534.31 161,-534.31 161,-515.31 112,-515.31"/>
<text text-anchor="middle" x="136.5" y="-522.31" font-family="Helvetica,sans-Serif" font-size="10.00">bf_sub</text>
</a>
</g>
</g>
<!-- Node1&#45;&gt;Node75 -->
<g id="edge51" class="edge">
<title>Node1&#45;&gt;Node75</title>
<path fill="none" stroke="midnightblue" d="M76.03,-513.1C84.57,-514.78 93.61,-516.56 101.99,-518.21"/>
<polygon fill="midnightblue" stroke="midnightblue" points="101.32,-521.65 111.81,-520.14 102.67,-514.78 101.32,-521.65"/>
</g>
<!-- Node2&#45;&gt;Node3 -->
<g id="edge2" class="edge">
<title>Node2&#45;&gt;Node3</title>
<path fill="none" stroke="midnightblue" d="M518.32,-1006.71C539.54,-1005.17 568.5,-1003.06 591.2,-1001.41"/>
<polygon fill="midnightblue" stroke="midnightblue" points="591.73,-1004.88 601.45,-1000.67 591.23,-997.9 591.73,-1004.88"/>
</g>
<!-- Node4 -->
<g id="node4" class="node">
<title>Node4</title>
<g id="a_node4"><a xlink:href="libbf_8c.html#a42c793dff09c27760634ad51e7184413" target="_top" xlink:title=" ">
<polygon fill="none" stroke="black" points="595.5,-942.31 595.5,-961.31 660.5,-961.31 660.5,-942.31 595.5,-942.31"/>
<text text-anchor="middle" x="628" y="-949.31" font-family="Helvetica,sans-Serif" font-size="10.00">get_limbz</text>
</a>
</g>
</g>
<!-- Node2&#45;&gt;Node4 -->
<g id="edge3" class="edge">
<title>Node2&#45;&gt;Node4</title>
<path fill="none" stroke="midnightblue" d="M512.51,-999.27C534.92,-989.98 569.19,-975.77 594.4,-965.32"/>
<polygon fill="midnightblue" stroke="midnightblue" points="596.01,-968.44 603.91,-961.38 593.33,-961.98 596.01,-968.44"/>
</g>
<!-- Node6 -->
<g id="node6" class="node">
<title>Node6</title>
<g id="a_node6"><a xlink:href="libbf_8c.html#ad7a540de8355f07757e52b48d35dd708" target="_top" xlink:title=" ">
<polygon fill="none" stroke="black" points="309.5,-524.31 309.5,-543.31 366.5,-543.31 366.5,-524.31 309.5,-524.31"/>
<text text-anchor="middle" x="338" y="-531.31" font-family="Helvetica,sans-Serif" font-size="10.00">__bf_div</text>
</a>
</g>
</g>
<!-- Node5&#45;&gt;Node6 -->
<g id="edge5" class="edge">
<title>Node5&#45;&gt;Node6</title>
<path fill="none" stroke="midnightblue" d="M249.66,-496.32C265.58,-503.15 287.29,-512.47 305.08,-520.11"/>
<polygon fill="midnightblue" stroke="midnightblue" points="303.93,-523.42 314.5,-524.15 306.69,-516.99 303.93,-523.42"/>
</g>
<!-- Node67 -->
<g id="node18" class="node">
<title>Node67</title>
<g id="a_node18"><a xlink:href="libbf_8c.html#a3ebbc1c7473b2ad84ced2b263bf38bae" target="_top" xlink:title=" ">
<polygon fill="none" stroke="black" points="313,-429.31 313,-448.31 363,-448.31 363,-429.31 313,-429.31"/>
<text text-anchor="middle" x="338" y="-436.31" font-family="Helvetica,sans-Serif" font-size="10.00">bf_op2</text>
</a>
</g>
</g>
<!-- Node5&#45;&gt;Node67 -->
<g id="edge24" class="edge">
<title>Node5&#45;&gt;Node67</title>
<path fill="none" stroke="midnightblue" d="M249.4,-477.21C265.51,-470.15 287.65,-460.44 305.64,-452.56"/>
<polygon fill="midnightblue" stroke="midnightblue" points="307.39,-455.61 315.14,-448.39 304.58,-449.2 307.39,-455.61"/>
</g>
<!-- Node6&#45;&gt;Node3 -->
<g id="edge7" class="edge">
<title>Node6&#45;&gt;Node3</title>
<path fill="none" stroke="midnightblue" d="M343.17,-543.53C354.04,-568.34 384.8,-635.62 420,-685.81 472.22,-760.27 513.48,-757.95 557,-837.81 586.3,-891.58 559.79,-919.36 593,-970.81 595.88,-975.27 599.7,-979.38 603.74,-982.98"/>
<polygon fill="midnightblue" stroke="midnightblue" points="601.6,-985.75 611.59,-989.28 605.98,-980.29 601.6,-985.75"/>
</g>
<!-- Node7 -->
<g id="node7" class="node">
<title>Node7</title>
<g id="a_node7"><a xlink:href="libbf_8h.html#ab8c991bf0d1ab72d676d3c9c3d63c2a7" target="_top" xlink:title=" ">
<polygon fill="none" stroke="red" points="602.5,-372.31 602.5,-391.31 653.5,-391.31 653.5,-372.31 602.5,-372.31"/>
<text text-anchor="middle" x="628" y="-379.31" font-family="Helvetica,sans-Serif" font-size="10.00">bf_free</text>
</a>
</g>
</g>
<!-- Node6&#45;&gt;Node7 -->
<g id="edge6" class="edge">
<title>Node6&#45;&gt;Node7</title>
<path fill="none" stroke="midnightblue" d="M348.1,-523.87C362.25,-508.92 390.92,-480.49 420,-462.81 476.51,-428.45 550.12,-403.79 592.62,-391.25"/>
<polygon fill="midnightblue" stroke="midnightblue" points="593.84,-394.54 602.47,-388.39 591.89,-387.81 593.84,-394.54"/>
</g>
<!-- Node9 -->
<g id="node8" class="node">
<title>Node9</title>
<g id="a_node8"><a xlink:href="libbf_8h.html#ae822c0888d26739bb681dfef282b9150" target="_top" xlink:title=" ">
<polygon fill="none" stroke="black" points="420,-201.31 420,-220.31 557,-220.31 557,-201.31 420,-201.31"/>
<text text-anchor="middle" x="488.5" y="-208.31" font-family="Helvetica,sans-Serif" font-size="10.00">bf_normalize_and_round</text>
</a>
</g>
</g>
<!-- Node6&#45;&gt;Node9 -->
<g id="edge8" class="edge">
<title>Node6&#45;&gt;Node9</title>
<path fill="none" stroke="midnightblue" d="M346.14,-523.99C356.02,-509.98 373.79,-483.12 384,-457.81 409.98,-393.43 391.36,-369.05 420,-305.81 433.34,-276.35 456.34,-246.64 471.73,-228.48"/>
<polygon fill="midnightblue" stroke="midnightblue" points="474.7,-230.39 478.6,-220.54 469.41,-225.81 474.7,-230.39"/>
</g>
<!-- Node16 -->
<g id="node10" class="node">
<title>Node16</title>
<g id="a_node10"><a xlink:href="libbf_8h.html#ab51c43b22c1a81c789ee0e3d53c0e585" target="_top" xlink:title=" ">
<polygon fill="none" stroke="black" points="808,-372.31 808,-391.31 869,-391.31 869,-372.31 808,-372.31"/>
<text text-anchor="middle" x="838.5" y="-379.31" font-family="Helvetica,sans-Serif" font-size="10.00">bf_resize</text>
</a>
</g>
</g>
<!-- Node6&#45;&gt;Node16 -->
<g id="edge15" class="edge">
<title>Node6&#45;&gt;Node16</title>
<path fill="none" stroke="midnightblue" d="M348.89,-543.69C363.15,-557.16 390.98,-580.66 420,-589.81 523.01,-622.28 562.65,-630.72 663,-590.81 751.83,-555.48 809.22,-445.53 829.4,-400.91"/>
<polygon fill="midnightblue" stroke="midnightblue" points="832.61,-402.3 833.44,-391.74 826.2,-399.48 832.61,-402.3"/>
</g>
<!-- Node20 -->
<g id="node11" class="node">
<title>Node20</title>
<g id="a_node11"><a xlink:href="libbf_8h.html#a66631c65c00e92a5840a5085a009602d" target="_top" xlink:title=" ">
<polygon fill="none" stroke="black" points="699,-372.31 699,-391.31 772,-391.31 772,-372.31 699,-372.31"/>
<text text-anchor="middle" x="735.5" y="-379.31" font-family="Helvetica,sans-Serif" font-size="10.00">bf_set_zero</text>
</a>
</g>
</g>
<!-- Node6&#45;&gt;Node20 -->
<g id="edge20" class="edge">
<title>Node6&#45;&gt;Node20</title>
<path fill="none" stroke="midnightblue" d="M358.08,-524.23C374.35,-516.21 398.46,-504.69 420,-495.81 479.78,-471.16 496.19,-468.82 557,-446.81 606.36,-428.94 663.34,-408.03 699.14,-394.85"/>
<polygon fill="midnightblue" stroke="midnightblue" points="700.48,-398.08 708.65,-391.34 698.06,-391.51 700.48,-398.08"/>
</g>
<!-- Node18 -->
<g id="node13" class="node">
<title>Node18</title>
<g id="a_node13"><a xlink:href="libbf_8h.html#a88d3dcee173f1e4fd4e55000edb04595" target="_top" xlink:title=" ">
<polygon fill="none" stroke="black" points="456,-657.31 456,-676.31 521,-676.31 521,-657.31 456,-657.31"/>
<text text-anchor="middle" x="488.5" y="-664.31" font-family="Helvetica,sans-Serif" font-size="10.00">bf_set_inf</text>
</a>
</g>
</g>
<!-- Node6&#45;&gt;Node18 -->
<g id="edge16" class="edge">
<title>Node6&#45;&gt;Node18</title>
<path fill="none" stroke="midnightblue" d="M343.65,-543.47C354.26,-564.52 382.27,-614.92 420,-642.81 427.71,-648.51 436.9,-652.95 445.98,-656.38"/>
<polygon fill="midnightblue" stroke="midnightblue" points="445.12,-659.79 455.71,-659.71 447.38,-653.16 445.12,-659.79"/>
</g>
<!-- Node19 -->
<g id="node14" class="node">
<title>Node19</title>
<g id="a_node14"><a xlink:href="libbf_8h.html#aa6282c789c16c8cf2fe6a8ebd671c6fc" target="_top" xlink:title=" ">
<polygon fill="none" stroke="black" points="593,-562.31 593,-581.31 663,-581.31 663,-562.31 593,-562.31"/>
<text text-anchor="middle" x="628" y="-569.31" font-family="Helvetica,sans-Serif" font-size="10.00">bf_set_nan</text>
</a>
</g>
</g>
<!-- Node6&#45;&gt;Node19 -->
<g id="edge18" class="edge">
<title>Node6&#45;&gt;Node19</title>
<path fill="none" stroke="midnightblue" d="M354.1,-543.38C369.85,-552.74 395.59,-566.37 420,-571.81 475.09,-584.09 540.49,-581.3 582.82,-577.31"/>
<polygon fill="midnightblue" stroke="midnightblue" points="583.2,-580.79 592.8,-576.31 582.5,-573.83 583.2,-580.79"/>
</g>
<!-- Node23 -->
<g id="node15" class="node">
<title>Node23</title>
<g id="a_node15"><a xlink:href="libbf_8c.html#a0b14a84ecf8baf4930b1bcb8621b8e18" target="_top" xlink:title=" ">
<polygon fill="none" stroke="red" points="449.5,-505.31 449.5,-524.31 527.5,-524.31 527.5,-505.31 449.5,-505.31"/>
<text text-anchor="middle" x="488.5" y="-512.31" font-family="Helvetica,sans-Serif" font-size="10.00">mp_divnorm</text>
</a>
</g>
</g>
<!-- Node6&#45;&gt;Node23 -->
<g id="edge21" class="edge">
<title>Node6&#45;&gt;Node23</title>
<path fill="none" stroke="midnightblue" d="M366.58,-530.28C386.99,-527.67 415.3,-524.05 439.39,-520.96"/>
<polygon fill="midnightblue" stroke="midnightblue" points="439.95,-524.42 449.43,-519.68 439.06,-517.48 439.95,-524.42"/>
</g>
<!-- Node63 -->
<g id="node17" class="node">
<title>Node63</title>
<g id="a_node17"><a xlink:href="libbf_8c.html#a46c382a2c0fdce3d6a7169762670d7b9" target="_top" xlink:title=" ">
<polygon fill="none" stroke="black" points="450,-543.31 450,-562.31 527,-562.31 527,-543.31 450,-543.31"/>
<text text-anchor="middle" x="488.5" y="-550.31" font-family="Helvetica,sans-Serif" font-size="10.00">mp_scan_nz</text>
</a>
</g>
</g>
<!-- Node6&#45;&gt;Node63 -->
<g id="edge23" class="edge">
<title>Node6&#45;&gt;Node63</title>
<path fill="none" stroke="midnightblue" d="M366.58,-537.34C387.13,-539.97 415.7,-543.62 439.91,-546.72"/>
<polygon fill="midnightblue" stroke="midnightblue" points="439.62,-550.21 449.99,-548.01 440.51,-543.27 439.62,-550.21"/>
</g>
<!-- Node10 -->
<g id="node9" class="node">
<title>Node10</title>
<g id="a_node9"><a xlink:href="libbf_8c.html#a5a13527071b5331585beae41a51ed3c2" target="_top" xlink:title=" ">
<polygon fill="none" stroke="red" points="593,-201.31 593,-220.31 663,-220.31 663,-201.31 593,-201.31"/>
<text text-anchor="middle" x="628" y="-208.31" font-family="Helvetica,sans-Serif" font-size="10.00">__bf_round</text>
</a>
</g>
</g>
<!-- Node9&#45;&gt;Node10 -->
<g id="edge9" class="edge">
<title>Node9&#45;&gt;Node10</title>
<path fill="none" stroke="midnightblue" d="M557.04,-210.81C565.73,-210.81 574.45,-210.81 582.64,-210.81"/>
<polygon fill="midnightblue" stroke="midnightblue" points="582.68,-214.31 592.68,-210.81 582.68,-207.31 582.68,-214.31"/>
</g>
<!-- Node9&#45;&gt;Node16 -->
<g id="edge13" class="edge">
<title>Node9&#45;&gt;Node16</title>
<path fill="none" stroke="midnightblue" d="M516.46,-220.34C551.02,-232.86 612.5,-256.16 663,-280.81 718.78,-308.04 781.01,-346 813.99,-366.77"/>
<polygon fill="midnightblue" stroke="midnightblue" points="812.17,-369.76 822.49,-372.15 815.91,-363.84 812.17,-369.76"/>
</g>
<!-- Node21 -->
<g id="node12" class="node">
<title>Node21</title>
<g id="a_node12"><a xlink:href="libbf_8c.html#a3ac3b86cc31b99a551947240e979c5d7" target="_top" xlink:title=" ">
<polygon fill="none" stroke="red" points="613,-163.31 613,-182.31 643,-182.31 643,-163.31 613,-163.31"/>
<text text-anchor="middle" x="628" y="-170.31" font-family="Helvetica,sans-Serif" font-size="10.00">clz</text>
</a>
</g>
</g>
<!-- Node9&#45;&gt;Node21 -->
<g id="edge14" class="edge">
<title>Node9&#45;&gt;Node21</title>
<path fill="none" stroke="midnightblue" d="M524.2,-201.22C548.81,-194.42 581.21,-185.46 603.01,-179.44"/>
<polygon fill="midnightblue" stroke="midnightblue" points="604.06,-182.78 612.77,-176.74 602.2,-176.03 604.06,-182.78"/>
</g>
<!-- Node10&#45;&gt;Node16 -->
<g id="edge10" class="edge">
<title>Node10&#45;&gt;Node16</title>
<path fill="none" stroke="midnightblue" d="M663.2,-207.93C694.64,-207.11 740.95,-210.76 772,-234.81 813.1,-266.64 829.06,-329.85 834.71,-362.02"/>
<polygon fill="midnightblue" stroke="midnightblue" points="831.27,-362.67 836.3,-372 838.18,-361.57 831.27,-362.67"/>
</g>
<!-- Node10&#45;&gt;Node20 -->
<g id="edge11" class="edge">
<title>Node10&#45;&gt;Node20</title>
<path fill="none" stroke="midnightblue" d="M634.97,-220.49C652.02,-248.12 701.09,-327.65 723.32,-363.68"/>
<polygon fill="midnightblue" stroke="midnightblue" points="720.36,-365.56 728.59,-372.23 726.32,-361.88 720.36,-365.56"/>
</g>
<!-- Node20&#45;&gt;Node16 -->
<g id="edge12" class="edge">
<title>Node20&#45;&gt;Node16</title>
<path fill="none" stroke="midnightblue" d="M772.11,-381.81C780.43,-381.81 789.34,-381.81 797.82,-381.81"/>
<polygon fill="midnightblue" stroke="midnightblue" points="797.88,-385.31 807.88,-381.81 797.88,-378.31 797.88,-385.31"/>
</g>
<!-- Node18&#45;&gt;Node16 -->
<g id="edge17" class="edge">
<title>Node18&#45;&gt;Node16</title>
<path fill="none" stroke="midnightblue" d="M521.04,-674.73C578.38,-687.1 700.39,-703.72 772,-642.81 809.21,-611.16 829.34,-457.05 835.46,-401.67"/>
<polygon fill="midnightblue" stroke="midnightblue" points="838.97,-401.75 836.55,-391.43 832.01,-401.01 838.97,-401.75"/>
</g>
<!-- Node19&#45;&gt;Node16 -->
<g id="edge19" class="edge">
<title>Node19&#45;&gt;Node16</title>
<path fill="none" stroke="midnightblue" d="M639.63,-562.13C673.16,-531.57 777,-436.94 819.3,-398.4"/>
<polygon fill="midnightblue" stroke="midnightblue" points="821.86,-400.8 826.9,-391.47 817.15,-395.62 821.86,-400.8"/>
</g>
<!-- Node24 -->
<g id="node16" class="node">
<title>Node24</title>
<g id="a_node16"><a xlink:href="libbf_8h.html#a970a1725f8bc59eda655058c5ff6bc52" target="_top" xlink:title=" ">
<polygon fill="none" stroke="black" points="603,-505.31 603,-524.31 653,-524.31 653,-505.31 603,-505.31"/>
<text text-anchor="middle" x="628" y="-512.31" font-family="Helvetica,sans-Serif" font-size="10.00">bf_min</text>
</a>
</g>
</g>
<!-- Node23&#45;&gt;Node24 -->
<g id="edge22" class="edge">
<title>Node23&#45;&gt;Node24</title>
<path fill="none" stroke="midnightblue" d="M527.8,-514.81C548.14,-514.81 572.94,-514.81 592.66,-514.81"/>
<polygon fill="midnightblue" stroke="midnightblue" points="592.74,-518.31 602.74,-514.81 592.74,-511.31 592.74,-518.31"/>
</g>
<!-- Node68 -->
<g id="node19" class="node">
<title>Node68</title>
<g id="a_node19"><a xlink:href="libbf_8h.html#abacc1410890af049e02ebd788364ac48" target="_top" xlink:title=" ">
<polygon fill="none" stroke="black" points="465,-315.31 465,-334.31 512,-334.31 512,-315.31 465,-315.31"/>
<text text-anchor="middle" x="488.5" y="-322.31" font-family="Helvetica,sans-Serif" font-size="10.00">bf_init</text>
</a>
</g>
</g>
<!-- Node67&#45;&gt;Node68 -->
<g id="edge25" class="edge">
<title>Node67&#45;&gt;Node68</title>
<path fill="none" stroke="midnightblue" d="M344.54,-429.08C356.04,-409.79 384.41,-366.6 420,-343.81 430.47,-337.11 443.32,-332.73 454.99,-329.89"/>
<polygon fill="midnightblue" stroke="midnightblue" points="455.82,-333.29 464.86,-327.76 454.34,-326.45 455.82,-333.29"/>
</g>
<!-- Node69 -->
<g id="node20" class="node">
<title>Node69</title>
<g id="a_node20"><a xlink:href="libbf_8h.html#ad7ab5aff92f4e7e10b2a30e0e6b9226d" target="_top" xlink:title=" ">
<polygon fill="none" stroke="black" points="459,-353.31 459,-372.31 518,-372.31 518,-353.31 459,-353.31"/>
<text text-anchor="middle" x="488.5" y="-360.31" font-family="Helvetica,sans-Serif" font-size="10.00">bf_move</text>
</a>
</g>
</g>
<!-- Node67&#45;&gt;Node69 -->
<g id="edge26" class="edge">
<title>Node67&#45;&gt;Node69</title>
<path fill="none" stroke="midnightblue" d="M351.92,-429.18C367.47,-417.93 394.65,-399.25 420,-386.81 429.3,-382.25 439.68,-378.12 449.47,-374.61"/>
<polygon fill="midnightblue" stroke="midnightblue" points="450.68,-377.9 458.99,-371.33 448.4,-371.28 450.68,-377.9"/>
</g>
<!-- Node69&#45;&gt;Node7 -->
<g id="edge27" class="edge">
<title>Node69&#45;&gt;Node7</title>
<path fill="none" stroke="midnightblue" d="M518.32,-366.79C539.9,-369.77 569.52,-373.87 592.38,-377.02"/>
<polygon fill="midnightblue" stroke="midnightblue" points="591.97,-380.5 602.36,-378.4 592.93,-373.57 591.97,-380.5"/>
</g>
<!-- Node70&#45;&gt;Node9 -->
<g id="edge33" class="edge">
<title>Node70&#45;&gt;Node9</title>
<path fill="none" stroke="midnightblue" d="M351.92,-277.18C367.47,-265.93 394.65,-247.25 420,-234.81 428.36,-230.7 437.61,-226.95 446.51,-223.69"/>
<polygon fill="midnightblue" stroke="midnightblue" points="447.71,-226.98 455.97,-220.35 445.38,-220.37 447.71,-226.98"/>
</g>
<!-- Node70&#45;&gt;Node16 -->
<g id="edge34" class="edge">
<title>Node70&#45;&gt;Node16</title>
<path fill="none" stroke="midnightblue" d="M341.4,-277.07C348.36,-251.26 371.21,-181.22 420,-153.81 514.16,-100.91 557.66,-129.97 663,-153.81 715.35,-165.66 735.77,-166.21 772,-205.81 813.9,-251.61 829.71,-326.63 835.06,-362.08"/>
<polygon fill="midnightblue" stroke="midnightblue" points="831.61,-362.69 836.44,-372.11 838.54,-361.73 831.61,-362.69"/>
</g>
<!-- Node70&#45;&gt;Node20 -->
<g id="edge37" class="edge">
<title>Node70&#45;&gt;Node20</title>
<path fill="none" stroke="midnightblue" d="M363.11,-279.47C403.92,-268.25 488.8,-250.09 557,-269.81 621.95,-288.59 686,-338.99 716.33,-365.3"/>
<polygon fill="midnightblue" stroke="midnightblue" points="714.15,-368.04 723.96,-372.04 718.78,-362.8 714.15,-368.04"/>
</g>
<!-- Node70&#45;&gt;Node18 -->
<g id="edge35" class="edge">
<title>Node70&#45;&gt;Node18</title>
<path fill="none" stroke="midnightblue" d="M342.59,-296.39C350.65,-318.13 370.55,-372.95 384,-419.81 403.15,-486.54 391.36,-508.57 420,-571.81 433.34,-601.27 456.34,-630.98 471.73,-649.14"/>
<polygon fill="midnightblue" stroke="midnightblue" points="469.41,-651.8 478.6,-657.07 474.7,-647.22 469.41,-651.8"/>
</g>
<!-- Node70&#45;&gt;Node19 -->
<g id="edge36" class="edge">
<title>Node70&#45;&gt;Node19</title>
<path fill="none" stroke="midnightblue" d="M346.32,-296.44C359.96,-314.15 390.55,-352.71 420,-381.81 476.35,-437.48 499.6,-441.22 557,-495.81 567.87,-506.15 594.42,-535.42 611.51,-554.47"/>
<polygon fill="midnightblue" stroke="midnightblue" points="609.12,-557.04 618.4,-562.16 614.34,-552.37 609.12,-557.04"/>
</g>
<!-- Node70&#45;&gt;Node24 -->
<g id="edge31" class="edge">
<title>Node70&#45;&gt;Node24</title>
<path fill="none" stroke="midnightblue" d="M363,-281.18C406.7,-272.43 500,-260.9 557,-305.81 564.77,-311.93 605.68,-444.58 621.1,-495.31"/>
<polygon fill="midnightblue" stroke="midnightblue" points="617.81,-496.52 624.07,-505.08 624.51,-494.49 617.81,-496.52"/>
</g>
<!-- Node70&#45;&gt;Node68 -->
<g id="edge30" class="edge">
<title>Node70&#45;&gt;Node68</title>
<path fill="none" stroke="midnightblue" d="M363.19,-293C388.11,-299.38 427.12,-309.36 454.79,-316.44"/>
<polygon fill="midnightblue" stroke="midnightblue" points="454.23,-319.91 464.78,-319 455.96,-313.13 454.23,-319.91"/>
</g>
<!-- Node70&#45;&gt;Node69 -->
<g id="edge32" class="edge">
<title>Node70&#45;&gt;Node69</title>
<path fill="none" stroke="midnightblue" d="M350.03,-296.44C364.95,-309 392.82,-330.89 420,-343.81 429.06,-348.12 439.28,-351.62 448.97,-354.39"/>
<polygon fill="midnightblue" stroke="midnightblue" points="448.25,-357.82 458.81,-357.01 450.05,-351.05 448.25,-357.82"/>
</g>
<!-- Node33 -->
<g id="node22" class="node">
<title>Node33</title>
<g id="a_node22"><a xlink:href="libbf_8c.html#aced93436f1e8ca41feb00d8070cfcbde" target="_top" xlink:title=" ">
<polygon fill="none" stroke="red" points="710,-21.31 710,-40.31 761,-40.31 761,-21.31 710,-21.31"/>
<text text-anchor="middle" x="735.5" y="-28.31" font-family="Helvetica,sans-Serif" font-size="10.00">fft_mul</text>
</a>
</g>
</g>
<!-- Node70&#45;&gt;Node33 -->
<g id="edge38" class="edge">
<title>Node70&#45;&gt;Node33</title>
<path fill="none" stroke="midnightblue" d="M338.63,-277.05C337.8,-238.93 340.44,-99.2 420,-39.81 503.55,22.56 637.35,-3.07 700.02,-20.15"/>
<polygon fill="midnightblue" stroke="midnightblue" points="699.23,-23.56 709.8,-22.91 701.12,-16.83 699.23,-23.56"/>
</g>
<!-- Node58 -->
<g id="node23" class="node">
<title>Node58</title>
<g id="a_node23"><a xlink:href="libbf_8c.html#a76a4161d6e245f8cb27f556b6b76a29b" target="_top" xlink:title=" ">
<polygon fill="none" stroke="red" points="435,-163.31 435,-182.31 542,-182.31 542,-163.31 435,-163.31"/>
<text text-anchor="middle" x="488.5" y="-170.31" font-family="Helvetica,sans-Serif" font-size="10.00">mp_mul_basecase</text>
</a>
</g>
</g>
<!-- Node70&#45;&gt;Node58 -->
<g id="edge40" class="edge">
<title>Node70&#45;&gt;Node58</title>
<path fill="none" stroke="midnightblue" d="M344.54,-277.08C356.04,-257.79 384.41,-214.6 420,-191.81 423.31,-189.69 426.85,-187.8 430.53,-186.13"/>
<polygon fill="midnightblue" stroke="midnightblue" points="431.88,-189.35 439.85,-182.37 429.27,-182.86 431.88,-189.35"/>
</g>
<!-- Node33&#45;&gt;Node16 -->
<g id="edge39" class="edge">
<title>Node33&#45;&gt;Node16</title>
<path fill="none" stroke="midnightblue" d="M746.8,-40.42C754.88,-48.55 765.77,-60.91 772,-73.81 820.74,-174.74 833.42,-311.56 836.54,-362.05"/>
<polygon fill="midnightblue" stroke="midnightblue" points="833.06,-362.42 837.11,-372.21 840.05,-362.03 833.06,-362.42"/>
</g>
<!-- Node72 -->
<g id="node25" class="node">
<title>Node72</title>
<g id="a_node25"><a xlink:href="libbf_8h.html#abd4ca8358212228a53981a32a10286b5" target="_top" xlink:title=" ">
<polygon fill="none" stroke="black" points="197,-125.31 197,-144.31 256,-144.31 256,-125.31 197,-125.31"/>
<text text-anchor="middle" x="226.5" y="-132.31" font-family="Helvetica,sans-Serif" font-size="10.00">bf_round</text>
</a>
</g>
</g>
<!-- Node71&#45;&gt;Node72 -->
<g id="edge42" class="edge">
<title>Node71&#45;&gt;Node72</title>
<path fill="none" stroke="midnightblue" d="M159.71,-163.22C170.13,-158.72 182.73,-153.28 194.11,-148.36"/>
<polygon fill="midnightblue" stroke="midnightblue" points="195.51,-151.57 203.3,-144.39 192.73,-145.15 195.51,-151.57"/>
</g>
<!-- Node72&#45;&gt;Node10 -->
<g id="edge43" class="edge">
<title>Node72&#45;&gt;Node10</title>
<path fill="none" stroke="midnightblue" d="M256.08,-129.72C315.4,-120.56 454.89,-106.36 557,-153.81 578.1,-163.61 574.64,-177.53 593,-191.81 594.78,-193.19 596.67,-194.54 598.61,-195.83"/>
<polygon fill="midnightblue" stroke="midnightblue" points="596.94,-198.91 607.3,-201.13 600.58,-192.93 596.94,-198.91"/>
</g>
<!-- Node73&#45;&gt;Node16 -->
<g id="edge45" class="edge">
<title>Node73&#45;&gt;Node16</title>
<path fill="none" stroke="midnightblue" d="M512.09,-849.04C566.29,-829.19 704.21,-771.15 772,-673.81 832.88,-586.4 838.26,-451.7 837.98,-401.53"/>
<polygon fill="midnightblue" stroke="midnightblue" points="841.48,-401.36 837.84,-391.41 834.48,-401.46 841.48,-401.36"/>
</g>
<!-- Node73&#45;&gt;Node19 -->
<g id="edge46" class="edge">
<title>Node73&#45;&gt;Node19</title>
<path fill="none" stroke="midnightblue" d="M497.21,-847.07C510.68,-829.72 538.8,-791.96 557,-756.81 586.92,-699.02 610.9,-625.42 621.34,-591.08"/>
<polygon fill="midnightblue" stroke="midnightblue" points="624.73,-591.96 624.24,-581.38 618.02,-589.95 624.73,-591.96"/>
</g>
<!-- Node74&#45;&gt;Node16 -->
<g id="edge48" class="edge">
<title>Node74&#45;&gt;Node16</title>
<path fill="none" stroke="midnightblue" d="M519.33,-55.99C576.56,-52.34 702.28,-53.14 772,-120.81 807.05,-154.83 828.55,-307.44 835.24,-362.18"/>
<polygon fill="midnightblue" stroke="midnightblue" points="831.79,-362.79 836.45,-372.3 838.74,-361.96 831.79,-362.79"/>
</g>
<!-- Node74&#45;&gt;Node21 -->
<g id="edge50" class="edge">
<title>Node74&#45;&gt;Node21</title>
<path fill="none" stroke="midnightblue" d="M519.16,-65.4C531.63,-69.14 545.81,-74.72 557,-82.81 583.61,-102.04 605.12,-134.13 616.97,-154.34"/>
<polygon fill="midnightblue" stroke="midnightblue" points="614.02,-156.23 621.99,-163.2 620.11,-152.78 614.02,-156.23"/>
</g>
<!-- Node74&#45;&gt;Node19 -->
<g id="edge49" class="edge">
<title>Node74&#45;&gt;Node19</title>
<path fill="none" stroke="midnightblue" d="M498.94,-68.32C514.19,-84.37 543.88,-118.54 557,-153.81 616.14,-312.81 525.04,-378.37 593,-533.81 596.44,-541.68 602.16,-549.04 607.93,-555.15"/>
<polygon fill="midnightblue" stroke="midnightblue" points="605.51,-557.68 615.11,-562.17 610.4,-552.67 605.51,-557.68"/>
</g>
<!-- Node75&#45;&gt;Node67 -->
<g id="edge64" class="edge">
<title>Node75&#45;&gt;Node67</title>
<path fill="none" stroke="midnightblue" d="M161.26,-524.63C185.96,-523.64 225.25,-519.73 256,-505.81 282.05,-494.02 306.56,-471.56 321.65,-455.91"/>
<polygon fill="midnightblue" stroke="midnightblue" points="324.36,-458.13 328.64,-448.44 319.25,-453.35 324.36,-458.13"/>
</g>
<!-- Node76 -->
<g id="node29" class="node">
<title>Node76</title>
<g id="a_node29"><a xlink:href="libbf_8c.html#aa3b3bc85aee9c531439d5fbc92986dfe" target="_top" xlink:title=" ">
<polygon fill="none" stroke="black" points="197,-672.31 197,-691.31 256,-691.31 256,-672.31 197,-672.31"/>
<text text-anchor="middle" x="226.5" y="-679.31" font-family="Helvetica,sans-Serif" font-size="10.00">__bf_sub</text>
</a>
</g>
</g>
<!-- Node75&#45;&gt;Node76 -->
<g id="edge52" class="edge">
<title>Node75&#45;&gt;Node76</title>
<path fill="none" stroke="midnightblue" d="M143,-534.63C157.39,-560.29 196.28,-629.68 215.06,-663.19"/>
<polygon fill="midnightblue" stroke="midnightblue" points="212.05,-664.98 220,-671.99 218.16,-661.56 212.05,-664.98"/>
</g>
<!-- Node77 -->
<g id="node30" class="node">
<title>Node77</title>
<g id="a_node30"><a xlink:href="libbf_8c.html#aaebd1df91497246cd81f23918af58d33" target="_top" xlink:title=" ">
<polygon fill="none" stroke="red" points="292,-809.31 292,-828.31 384,-828.31 384,-809.31 292,-809.31"/>
<text text-anchor="middle" x="338" y="-816.31" font-family="Helvetica,sans-Serif" font-size="10.00">bf_add_internal</text>
</a>
</g>
</g>
<!-- Node76&#45;&gt;Node77 -->
<g id="edge53" class="edge">
<title>Node76&#45;&gt;Node77</title>
<path fill="none" stroke="midnightblue" d="M235.37,-691.66C253.68,-714.57 299.33,-771.68 322.71,-800.93"/>
<polygon fill="midnightblue" stroke="midnightblue" points="320.22,-803.42 329.2,-809.05 325.69,-799.05 320.22,-803.42"/>
</g>
<!-- Node77&#45;&gt;Node2 -->
<g id="edge54" class="edge">
<title>Node77&#45;&gt;Node2</title>
<path fill="none" stroke="midnightblue" d="M342.59,-828.45C354.63,-860.37 394.29,-961.84 420,-984.81 428.15,-992.09 438.67,-997.21 448.96,-1000.78"/>
<polygon fill="midnightblue" stroke="midnightblue" points="448.08,-1004.17 458.67,-1003.75 450.13,-997.48 448.08,-1004.17"/>
</g>
<!-- Node77&#45;&gt;Node3 -->
<g id="edge55" class="edge">
<title>Node77&#45;&gt;Node3</title>
<path fill="none" stroke="midnightblue" d="M342.58,-828.52C351.68,-851.83 378.02,-911.29 420,-941.81 447.29,-961.65 539.49,-981.93 591.16,-992.11"/>
<polygon fill="midnightblue" stroke="midnightblue" points="590.74,-995.59 601.23,-994.07 592.08,-988.72 590.74,-995.59"/>
</g>
<!-- Node77&#45;&gt;Node4 -->
<g id="edge63" class="edge">
<title>Node77&#45;&gt;Node4</title>
<path fill="none" stroke="midnightblue" d="M344.73,-828.51C356.35,-847.28 384.64,-888.5 420,-908.81 471.86,-938.6 541.56,-947.89 585.38,-950.7"/>
<polygon fill="midnightblue" stroke="midnightblue" points="585.22,-954.2 595.4,-951.26 585.61,-947.21 585.22,-954.2"/>
</g>
<!-- Node77&#45;&gt;Node9 -->
<g id="edge57" class="edge">
<title>Node77&#45;&gt;Node9</title>
<path fill="none" stroke="midnightblue" d="M340.71,-809.16C346.85,-774.53 368.19,-653.21 384,-552.81 401.25,-443.22 378.72,-408.78 420,-305.81 432.03,-275.79 455.36,-246.22 471.18,-228.24"/>
<polygon fill="midnightblue" stroke="midnightblue" points="474.16,-230.17 478.26,-220.4 468.96,-225.48 474.16,-230.17"/>
</g>
<!-- Node77&#45;&gt;Node16 -->
<g id="edge58" class="edge">
<title>Node77&#45;&gt;Node16</title>
<path fill="none" stroke="midnightblue" d="M348.38,-828.43C362.43,-842.08 390.49,-866.47 420,-875.81 478.05,-894.19 498.57,-892.94 557,-875.81 669.05,-842.96 710.54,-824.09 772,-724.81 806.24,-669.5 829.11,-465.86 835.6,-401.47"/>
<polygon fill="midnightblue" stroke="midnightblue" points="839.09,-401.73 836.6,-391.44 832.13,-401.04 839.09,-401.73"/>
</g>
<!-- Node77&#45;&gt;Node20 -->
<g id="edge62" class="edge">
<title>Node77&#45;&gt;Node20</title>
<path fill="none" stroke="midnightblue" d="M384.16,-819.09C431.47,-817.22 505.87,-807.9 557,-770.81 685.95,-677.25 723.44,-467.17 732.19,-401.69"/>
<polygon fill="midnightblue" stroke="midnightblue" points="735.7,-401.87 733.47,-391.51 728.75,-401 735.7,-401.87"/>
</g>
<!-- Node77&#45;&gt;Node18 -->
<g id="edge60" class="edge">
<title>Node77&#45;&gt;Node18</title>
<path fill="none" stroke="midnightblue" d="M342.48,-809.26C351.54,-785.69 378.09,-724.3 420,-690.81 427.64,-684.7 436.97,-680.08 446.21,-676.61"/>
<polygon fill="midnightblue" stroke="midnightblue" points="447.39,-679.91 455.74,-673.4 445.15,-673.27 447.39,-679.91"/>
</g>
<!-- Node77&#45;&gt;Node19 -->
<g id="edge61" class="edge">
<title>Node77&#45;&gt;Node19</title>
<path fill="none" stroke="midnightblue" d="M379.63,-809.24C427.46,-796.13 506.74,-768.36 557,-718.81 594.11,-682.23 614.07,-622.1 622.34,-591.31"/>
<polygon fill="midnightblue" stroke="midnightblue" points="625.79,-591.94 624.87,-581.39 619.01,-590.22 625.79,-591.94"/>
</g>
<!-- Node77&#45;&gt;Node24 -->
<g id="edge56" class="edge">
<title>Node77&#45;&gt;Node24</title>
<path fill="none" stroke="midnightblue" d="M343.99,-809.07C354.88,-788.86 382.78,-742.31 420,-718.81 472.96,-685.37 512.1,-729.47 557,-685.81 600.9,-643.12 563.8,-606.63 593,-552.81 597.16,-545.15 603.14,-537.76 608.94,-531.57"/>
<polygon fill="midnightblue" stroke="midnightblue" points="611.46,-534 616.02,-524.43 606.49,-529.06 611.46,-534"/>
</g>
<!-- Node77&#45;&gt;Node73 -->
<g id="edge59" class="edge">
<title>Node77&#45;&gt;Node73</title>
<path fill="none" stroke="midnightblue" d="M376.47,-828.4C400.72,-834.6 431.97,-842.6 455.14,-848.53"/>
<polygon fill="midnightblue" stroke="midnightblue" points="454.29,-851.92 464.85,-851.01 456.02,-845.14 454.29,-851.92"/>
</g>
</g>
</svg>
        <g id="navigator" transform="translate(0 0)" fill="#404254">
                <rect fill="#f2f5e9" fill-opacity="0.5" stroke="#606060" stroke-width=".5" x="0" y="0" width="60" height="60"/>
                <use id="zoomplus" xlink:href="#zoomPlus" x="17" y="9" onmousedown="handleZoom(evt,'in')"/>
                <use id="zoomminus" xlink:href="#zoomMin" x="42" y="9" onmousedown="handleZoom(evt,'out')"/>
                <use id="reset" xlink:href="#resetDef" x="30" y="36" onmousedown="handleReset()"/>
                <g id="arrowUp" xlink:href="#dirArrow" transform="translate(30 24)" onmousedown="handlePan(0,-1)">
                  <use xlink:href="#rim" fill="#404040">
                        <set attributeName="fill" to="#808080" begin="arrowUp.mouseover" end="arrowUp.mouseout"/>
                  </use>
                  <path fill="none" stroke="white" stroke-width="1.5" d="M0,-3.0v7 M-2.5,-0.5L0,-3.0L2.5,-0.5"/>
                </g>
                <g id="arrowRight" xlink:href="#dirArrow" transform="rotate(90) translate(36 -43)" onmousedown="handlePan(1,0)">
                  <use xlink:href="#rim" fill="#404040">
                        <set attributeName="fill" to="#808080" begin="arrowRight.mouseover" end="arrowRight.mouseout"/>
                  </use>
                  <path fill="none" stroke="white" stroke-width="1.5" d="M0,-3.0v7 M-2.5,-0.5L0,-3.0L2.5,-0.5"/>
                </g>
                <g id="arrowDown" xlink:href="#dirArrow" transform="rotate(180) translate(-30 -48)" onmousedown="handlePan(0,1)">
                  <use xlink:href="#rim" fill="#404040">
                        <set attributeName="fill" to="#808080" begin="arrowDown.mouseover" end="arrowDown.mouseout"/>
                  </use>
                  <path fill="none" stroke="white" stroke-width="1.5" d="M0,-3.0v7 M-2.5,-0.5L0,-3.0L2.5,-0.5"/>
                </g>
                <g id="arrowLeft" xlink:href="#dirArrow" transform="rotate(270) translate(-36 17)" onmousedown="handlePan(-1,0)">
                  <use xlink:href="#rim" fill="#404040">
                        <set attributeName="fill" to="#808080" begin="arrowLeft.mouseover" end="arrowLeft.mouseout"/>
                  </use>
                  <path fill="none" stroke="white" stroke-width="1.5" d="M0,-3.0v7 M-2.5,-0.5L0,-3.0L2.5,-0.5"/>
                </g>
        </g>
        <svg viewBox="0 0 15 15" width="100%" height="30px" preserveAspectRatio="xMaxYMin meet">
         <g id="arrow_out" transform="scale(0.3 0.3)">
          <a xlink:href="libbf_8c_a4f1865c8160fb851cce8015c3edb4d4f_cgraph_org.svg" target="_base">
           <rect id="button" ry="5" rx="5" y="6" x="6" height="38" width="38"
                fill="#f2f5e9" fill-opacity="0.5" stroke="#606060" stroke-width="1.0"/>
           <path id="arrow"
             d="M 11.500037,31.436501 C 11.940474,20.09759 22.043105,11.32322 32.158766,21.979434 L 37.068811,17.246167 C 37.068811,17.246167 37.088388,32 37.088388,32 L 22.160133,31.978069 C 22.160133,31.978069 26.997745,27.140456 26.997745,27.140456 C 18.528582,18.264221 13.291696,25.230495 11.500037,31.436501 z"
             style="fill:#404040;"/>
          </a>
         </g>
        </svg>
</svg>
