<?xml version="1.0" encoding="UTF-8" standalone="no"?>
<!DOCTYPE svg PUBLIC "-//W3C//DTD SVG 1.1//EN"
 "http://www.w3.org/Graphics/SVG/1.1/DTD/svg11.dtd">
<!-- Generated by graphviz version 2.43.0 (0)
 -->
<!-- Title: bf_pow_generic Pages: 1 -->
<!--zoomable 1072 -->
<svg id="main" version="1.1" xmlns="http://www.w3.org/2000/svg" xmlns:xlink="http://www.w3.org/1999/xlink" xml:space="preserve" onload="init(evt)">
<style type="text/css"><![CDATA[
.edge:hover path { stroke: red; }
.edge:hover polygon { stroke: red; fill: red; }
]]></style>
<script type="text/javascript"><![CDATA[
var edges = document.getElementsByTagName('g');
if (edges && edges.length) {
  for (var i=0;i<edges.length;i++) {
    if (edges[i].id.substr(0,4)=='edge') {
      edges[i].setAttribute('class','edge');
    }
  }
}
]]></script>
        <defs>
                <circle id="rim" cx="0" cy="0" r="7"/>
                <circle id="rim2" cx="0" cy="0" r="3.5"/>
                <g id="zoomPlus">
                        <use xlink:href="#rim" fill="#404040">
                                <set attributeName="fill" to="#808080" begin="zoomplus.mouseover" end="zoomplus.mouseout"/>
                        </use>
                        <path d="M-4,0h8M0,-4v8" fill="none" stroke="white" stroke-width="1.5" pointer-events="none"/>
                </g>
                <g id="zoomMin">
                        <use xlink:href="#rim" fill="#404040">
                                <set attributeName="fill" to="#808080" begin="zoomminus.mouseover" end="zoomminus.mouseout"/>
                        </use>
                        <path d="M-4,0h8" fill="none" stroke="white" stroke-width="1.5" pointer-events="none"/>
                </g>
                <g id="dirArrow">
                        <path fill="none" stroke="white" stroke-width="1.5" d="M0,-3.0v7 M-2.5,-0.5L0,-3.0L2.5,-0.5"/>
                </g>
               <g id="resetDef">
                       <use xlink:href="#rim2" fill="#404040">
                               <set attributeName="fill" to="#808080" begin="reset.mouseover" end="reset.mouseout"/>
                       </use>
               </g>
        </defs>

<script type="text/javascript">
var viewWidth = 920;
var viewHeight = 1072;
var sectionId = 'dynsection-216';
</script>
<script xlink:href="svgpan.js"/>
<svg id="graph" class="graph">
<g id="viewport">
<title>bf_pow_generic</title>
<!-- Node1 -->
<g id="node1" class="node">
<title>Node1</title>
<g id="a_node1"><a xlink:title=" ">
<polygon fill="#bfbfbf" stroke="black" points="0,-332.5 0,-351.5 93,-351.5 93,-332.5 0,-332.5"/>
<text text-anchor="middle" x="46.5" y="-339.5" font-family="Helvetica,sans-Serif" font-size="10.00">bf_pow_generic</text>
</a>
</g>
</g>
<!-- Node2 -->
<g id="node2" class="node">
<title>Node2</title>
<g id="a_node2"><a xlink:href="libbf_8h.html#a2b9d906b21e903f2f7f1c9044674ab7d" target="_top" xlink:title=" ">
<polygon fill="none" stroke="black" points="646.5,-712.5 646.5,-731.5 708.5,-731.5 708.5,-712.5 646.5,-712.5"/>
<text text-anchor="middle" x="677.5" y="-719.5" font-family="Helvetica,sans-Serif" font-size="10.00">bf_delete</text>
</a>
</g>
</g>
<!-- Node1&#45;&gt;Node2 -->
<g id="edge1" class="edge">
<title>Node1&#45;&gt;Node2</title>
<path fill="none" stroke="midnightblue" d="M48.49,-351.67C57.3,-434.81 125.14,-1026 274,-1026 274,-1026 274,-1026 401,-1026 501.59,-1026 538.03,-1003.05 605,-928 654.2,-872.86 669.94,-782.05 674.64,-742.01"/>
<polygon fill="midnightblue" stroke="midnightblue" points="678.14,-742.25 675.71,-731.93 671.18,-741.51 678.14,-742.25"/>
</g>
<!-- Node4 -->
<g id="node4" class="node">
<title>Node4</title>
<g id="a_node4"><a xlink:href="libbf_8c.html#a157194b3c7faaa17e39ae78cd98c4385" target="_top" xlink:title=" ">
<polygon fill="none" stroke="black" points="229,-636.5 229,-655.5 321,-655.5 321,-636.5 229,-636.5"/>
<text text-anchor="middle" x="275" y="-643.5" font-family="Helvetica,sans-Serif" font-size="10.00">bf_exp_internal</text>
</a>
</g>
</g>
<!-- Node1&#45;&gt;Node4 -->
<g id="edge3" class="edge">
<title>Node1&#45;&gt;Node4</title>
<path fill="none" stroke="midnightblue" d="M54.78,-351.77C87.2,-395.28 218.66,-571.73 260.88,-628.39"/>
<polygon fill="midnightblue" stroke="midnightblue" points="258.08,-630.49 266.86,-636.42 263.69,-626.31 258.08,-630.49"/>
</g>
<!-- Node31 -->
<g id="node8" class="node">
<title>Node31</title>
<g id="a_node8"><a xlink:href="libbf_8h.html#abacc1410890af049e02ebd788364ac48" target="_top" xlink:title=" ">
<polygon fill="none" stroke="black" points="865,-712.5 865,-731.5 912,-731.5 912,-712.5 865,-712.5"/>
<text text-anchor="middle" x="888.5" y="-719.5" font-family="Helvetica,sans-Serif" font-size="10.00">bf_init</text>
</a>
</g>
</g>
<!-- Node1&#45;&gt;Node31 -->
<g id="edge43" class="edge">
<title>Node1&#45;&gt;Node31</title>
<path fill="none" stroke="midnightblue" d="M47.26,-351.52C46.19,-406.39 45.2,-686.98 129,-893 166.54,-985.3 174.36,-1064 274,-1064 274,-1064 274,-1064 678.5,-1064 762.14,-1064 782.57,-1020.58 829,-951 874.06,-883.47 884.41,-783.53 886.79,-741.62"/>
<polygon fill="midnightblue" stroke="midnightblue" points="890.29,-741.78 887.26,-731.63 883.3,-741.45 890.29,-741.78"/>
</g>
<!-- Node23 -->
<g id="node11" class="node">
<title>Node23</title>
<g id="a_node11"><a xlink:href="libbf_8h.html#aa6282c789c16c8cf2fe6a8ebd671c6fc" target="_top" xlink:title=" ">
<polygon fill="none" stroke="red" points="754.5,-104.5 754.5,-123.5 824.5,-123.5 824.5,-104.5 754.5,-104.5"/>
<text text-anchor="middle" x="789.5" y="-111.5" font-family="Helvetica,sans-Serif" font-size="10.00">bf_set_nan</text>
</a>
</g>
</g>
<!-- Node1&#45;&gt;Node23 -->
<g id="edge66" class="edge">
<title>Node1&#45;&gt;Node23</title>
<path fill="none" stroke="midnightblue" d="M48.91,-332.5C57.67,-277.26 109.85,0 274,0 274,0 274,0 542.5,0 621.53,0 644.64,-9.11 714,-47 737.44,-59.81 759.57,-81.36 773.52,-96.55"/>
<polygon fill="midnightblue" stroke="midnightblue" points="771.12,-99.12 780.39,-104.25 776.34,-94.46 771.12,-99.12"/>
</g>
<!-- Node94 -->
<g id="node26" class="node">
<title>Node94</title>
<g id="a_node26"><a xlink:href="libbf_8h.html#a3d010062b7a451656d79e48df9c0639e" target="_top" xlink:title=" ">
<polygon fill="none" stroke="black" points="129,-180.5 129,-199.5 192,-199.5 192,-180.5 129,-180.5"/>
<text text-anchor="middle" x="160.5" y="-187.5" font-family="Helvetica,sans-Serif" font-size="10.00">bf_is_nan</text>
</a>
</g>
</g>
<!-- Node1&#45;&gt;Node94 -->
<g id="edge44" class="edge">
<title>Node1&#45;&gt;Node94</title>
<path fill="none" stroke="midnightblue" d="M51.55,-332.28C61.72,-308.79 90.27,-248.02 129,-209 130.21,-207.78 131.51,-206.61 132.87,-205.48"/>
<polygon fill="midnightblue" stroke="midnightblue" points="135,-208.26 141.06,-199.57 130.9,-202.58 135,-208.26"/>
</g>
<!-- Node95 -->
<g id="node27" class="node">
<title>Node95</title>
<g id="a_node27"><a xlink:href="libbf_8h.html#a4137b2308536cbc92addaeb3f0c79d35" target="_top" xlink:title=" ">
<polygon fill="none" stroke="black" points="137,-218.5 137,-237.5 184,-237.5 184,-218.5 137,-218.5"/>
<text text-anchor="middle" x="160.5" y="-225.5" font-family="Helvetica,sans-Serif" font-size="10.00">bf_log</text>
</a>
</g>
</g>
<!-- Node1&#45;&gt;Node95 -->
<g id="edge45" class="edge">
<title>Node1&#45;&gt;Node95</title>
<path fill="none" stroke="midnightblue" d="M57.05,-332.28C76.06,-312.93 118.86,-269.37 142.68,-245.12"/>
<polygon fill="midnightblue" stroke="midnightblue" points="145.46,-247.28 149.98,-237.69 140.47,-242.38 145.46,-247.28"/>
</g>
<!-- Node3 -->
<g id="node3" class="node">
<title>Node3</title>
<g id="a_node3"><a xlink:href="libbf_8h.html#a524c9e60866c08c75061626a4b5e2f29" target="_top" xlink:title=" ">
<polygon fill="none" stroke="black" points="757,-712.5 757,-731.5 822,-731.5 822,-712.5 757,-712.5"/>
<text text-anchor="middle" x="789.5" y="-719.5" font-family="Helvetica,sans-Serif" font-size="10.00">bf_realloc</text>
</a>
</g>
</g>
<!-- Node2&#45;&gt;Node3 -->
<g id="edge2" class="edge">
<title>Node2&#45;&gt;Node3</title>
<path fill="none" stroke="midnightblue" d="M708.56,-722C720.29,-722 733.93,-722 746.6,-722"/>
<polygon fill="midnightblue" stroke="midnightblue" points="746.94,-725.5 756.94,-722 746.94,-718.5 746.94,-725.5"/>
</g>
<!-- Node4&#45;&gt;Node2 -->
<g id="edge22" class="edge">
<title>Node4&#45;&gt;Node2</title>
<path fill="none" stroke="midnightblue" d="M278.47,-655.74C285.62,-681.56 308.97,-751.63 358,-779 453.85,-832.51 501.38,-815.25 605,-779 627.55,-771.11 648.29,-752.81 661.56,-739.05"/>
<polygon fill="midnightblue" stroke="midnightblue" points="664.24,-741.31 668.47,-731.59 659.11,-736.55 664.24,-741.31"/>
</g>
<!-- Node5 -->
<g id="node5" class="node">
<title>Node5</title>
<g id="a_node5"><a xlink:href="libbf_8h.html#a50a5aa2767f2389a32daf115aaef07af" target="_top" xlink:title=" ">
<polygon fill="none" stroke="black" points="368.5,-522.5 368.5,-541.5 431.5,-541.5 431.5,-522.5 368.5,-522.5"/>
<text text-anchor="middle" x="400" y="-529.5" font-family="Helvetica,sans-Serif" font-size="10.00">bf_add_si</text>
</a>
</g>
</g>
<!-- Node4&#45;&gt;Node5 -->
<g id="edge4" class="edge">
<title>Node4&#45;&gt;Node5</title>
<path fill="none" stroke="midnightblue" d="M286.49,-636.28C307.46,-616.85 354.78,-572.99 380.87,-548.8"/>
<polygon fill="midnightblue" stroke="midnightblue" points="383.58,-551.06 388.54,-541.69 378.83,-545.93 383.58,-551.06"/>
</g>
<!-- Node4&#45;&gt;Node31 -->
<g id="edge26" class="edge">
<title>Node4&#45;&gt;Node31</title>
<path fill="none" stroke="midnightblue" d="M276.22,-655.64C277.59,-692.19 287.41,-823.66 358,-893 418.62,-952.55 455.52,-950 540.5,-950 540.5,-950 540.5,-950 678.5,-950 791.52,-950 859.97,-795.89 880.74,-741.07"/>
<polygon fill="midnightblue" stroke="midnightblue" points="884.09,-742.1 884.26,-731.51 877.52,-739.68 884.09,-742.1"/>
</g>
<!-- Node35 -->
<g id="node10" class="node">
<title>Node35</title>
<g id="a_node10"><a xlink:href="libbf_8h.html#a2378f025beace5741c19bf995c2971d3" target="_top" xlink:title=" ">
<polygon fill="none" stroke="red" points="647,-285.5 647,-304.5 708,-304.5 708,-285.5 647,-285.5"/>
<text text-anchor="middle" x="677.5" y="-292.5" font-family="Helvetica,sans-Serif" font-size="10.00">bf_set_ui</text>
</a>
</g>
</g>
<!-- Node4&#45;&gt;Node35 -->
<g id="edge40" class="edge">
<title>Node4&#45;&gt;Node35</title>
<path fill="none" stroke="midnightblue" d="M278.97,-636.45C292.73,-592.2 350.04,-408.9 358,-399 385.22,-365.14 405.47,-372.52 442,-349 458.38,-338.46 459.88,-331.15 478,-324 530.3,-303.35 595.58,-297.21 636.67,-295.5"/>
<polygon fill="midnightblue" stroke="midnightblue" points="636.95,-298.99 646.83,-295.14 636.71,-291.99 636.95,-298.99"/>
</g>
<!-- Node36 -->
<g id="node13" class="node">
<title>Node36</title>
<g id="a_node13"><a xlink:href="libbf_8h.html#a9660e7199a5e3dd436970b5e2e481516" target="_top" xlink:title=" ">
<polygon fill="none" stroke="black" points="358,-750.5 358,-769.5 442,-769.5 442,-750.5 358,-750.5"/>
<text text-anchor="middle" x="400" y="-757.5" font-family="Helvetica,sans-Serif" font-size="10.00">bf_const_log2</text>
</a>
</g>
</g>
<!-- Node4&#45;&gt;Node36 -->
<g id="edge14" class="edge">
<title>Node4&#45;&gt;Node36</title>
<path fill="none" stroke="midnightblue" d="M283.11,-655.55C296.42,-673 326.63,-710.59 358,-736 362.06,-739.29 366.63,-742.42 371.19,-745.27"/>
<polygon fill="midnightblue" stroke="midnightblue" points="369.46,-748.31 379.85,-750.37 373.01,-742.28 369.46,-748.31"/>
</g>
<!-- Node69 -->
<g id="node16" class="node">
<title>Node69</title>
<g id="a_node16"><a xlink:href="libbf_8h.html#a030665e68e114717678fb0d0453bb3c6" target="_top" xlink:title=" ">
<polygon fill="none" stroke="red" points="654,-636.5 654,-655.5 701,-655.5 701,-636.5 654,-636.5"/>
<text text-anchor="middle" x="677.5" y="-643.5" font-family="Helvetica,sans-Serif" font-size="10.00">bf_div</text>
</a>
</g>
</g>
<!-- Node4&#45;&gt;Node69 -->
<g id="edge23" class="edge">
<title>Node4&#45;&gt;Node69</title>
<path fill="none" stroke="midnightblue" d="M309.21,-655.51C324.01,-659.27 341.74,-663.14 358,-665 461.88,-676.88 585.72,-660.91 643.62,-651.7"/>
<polygon fill="midnightblue" stroke="midnightblue" points="644.33,-655.13 653.64,-650.07 643.21,-648.22 644.33,-655.13"/>
</g>
<!-- Node86 -->
<g id="node17" class="node">
<title>Node86</title>
<g id="a_node17"><a xlink:href="libbf_8c.html#a84f2988a2124a8168b5933335c4215c2" target="_top" xlink:title=" ">
<polygon fill="none" stroke="black" points="363,-864.5 363,-883.5 437,-883.5 437,-864.5 363,-864.5"/>
<text text-anchor="middle" x="400" y="-871.5" font-family="Helvetica,sans-Serif" font-size="10.00">bf_get_limb</text>
</a>
</g>
</g>
<!-- Node4&#45;&gt;Node86 -->
<g id="edge24" class="edge">
<title>Node4&#45;&gt;Node86</title>
<path fill="none" stroke="midnightblue" d="M277.59,-655.68C283.19,-687.15 304.65,-788.14 358,-850 360.85,-853.3 364.27,-856.26 367.9,-858.89"/>
<polygon fill="midnightblue" stroke="midnightblue" points="366.28,-862 376.61,-864.38 370.02,-856.08 366.28,-862"/>
</g>
<!-- Node88 -->
<g id="node19" class="node">
<title>Node88</title>
<g id="a_node19"><a xlink:href="libbf_8h.html#adeb14e044b992b09438bbd872831103b" target="_top" xlink:title=" ">
<polygon fill="none" stroke="red" points="373.5,-408.5 373.5,-427.5 426.5,-427.5 426.5,-408.5 373.5,-408.5"/>
<text text-anchor="middle" x="400" y="-415.5" font-family="Helvetica,sans-Serif" font-size="10.00">bf_isqrt</text>
</a>
</g>
</g>
<!-- Node4&#45;&gt;Node88 -->
<g id="edge27" class="edge">
<title>Node4&#45;&gt;Node88</title>
<path fill="none" stroke="midnightblue" d="M278.74,-636.36C289.35,-599.53 328.67,-468.14 358,-437 359.84,-435.05 361.91,-433.28 364.13,-431.68"/>
<polygon fill="midnightblue" stroke="midnightblue" points="366.36,-434.43 373.18,-426.32 362.8,-428.41 366.36,-434.43"/>
</g>
<!-- Node41 -->
<g id="node20" class="node">
<title>Node41</title>
<g id="a_node20"><a xlink:href="libbf_8h.html#ac290278d0c37a0e7786873f98aadba47" target="_top" xlink:title=" ">
<polygon fill="none" stroke="red" points="516.5,-180.5 516.5,-199.5 566.5,-199.5 566.5,-180.5 516.5,-180.5"/>
<text text-anchor="middle" x="541.5" y="-187.5" font-family="Helvetica,sans-Serif" font-size="10.00">bf_mul</text>
</a>
</g>
</g>
<!-- Node4&#45;&gt;Node41 -->
<g id="edge29" class="edge">
<title>Node4&#45;&gt;Node41</title>
<path fill="none" stroke="midnightblue" d="M278.97,-636.42C286.39,-612.46 306.24,-547.99 322,-494 338.56,-437.27 327.68,-416.72 358,-366 363.81,-356.29 478.11,-248.55 522.8,-206.59"/>
<polygon fill="midnightblue" stroke="midnightblue" points="525.4,-208.95 530.3,-199.56 520.61,-203.85 525.4,-208.95"/>
</g>
<!-- Node90 -->
<g id="node23" class="node">
<title>Node90</title>
<g id="a_node23"><a xlink:href="libbf_8h.html#ae1d5fe9356228cc3a566786637f26680" target="_top" xlink:title=" ">
<polygon fill="none" stroke="red" points="360,-636.5 360,-655.5 440,-655.5 440,-636.5 360,-636.5"/>
<text text-anchor="middle" x="400" y="-643.5" font-family="Helvetica,sans-Serif" font-size="10.00">bf_mul_2exp</text>
</a>
</g>
</g>
<!-- Node4&#45;&gt;Node90 -->
<g id="edge34" class="edge">
<title>Node4&#45;&gt;Node90</title>
<path fill="none" stroke="midnightblue" d="M321.1,-646C330.47,-646 340.38,-646 349.88,-646"/>
<polygon fill="midnightblue" stroke="midnightblue" points="349.98,-649.5 359.98,-646 349.98,-642.5 349.98,-649.5"/>
</g>
<!-- Node91 -->
<g id="node24" class="node">
<title>Node91</title>
<g id="a_node24"><a xlink:href="libbf_8h.html#a6fbb1ec8880c203fc01baf940a54cc62" target="_top" xlink:title=" ">
<polygon fill="none" stroke="black" points="368,-446.5 368,-465.5 432,-465.5 432,-446.5 368,-446.5"/>
<text text-anchor="middle" x="400" y="-453.5" font-family="Helvetica,sans-Serif" font-size="10.00">bf_mul_si</text>
</a>
</g>
</g>
<!-- Node4&#45;&gt;Node91 -->
<g id="edge35" class="edge">
<title>Node4&#45;&gt;Node91</title>
<path fill="none" stroke="midnightblue" d="M281.73,-636.17C294.78,-613.93 327.91,-558.14 358,-513 366.96,-499.55 377.64,-484.75 385.85,-473.6"/>
<polygon fill="midnightblue" stroke="midnightblue" points="388.68,-475.65 391.82,-465.54 383.06,-471.49 388.68,-475.65"/>
</g>
<!-- Node92 -->
<g id="node25" class="node">
<title>Node92</title>
<g id="a_node25"><a xlink:href="libbf_8h.html#abf69a9bc02b7c299bb75d172fa102d84" target="_top" xlink:title=" ">
<polygon fill="none" stroke="red" points="653,-674.5 653,-693.5 702,-693.5 702,-674.5 653,-674.5"/>
<text text-anchor="middle" x="677.5" y="-681.5" font-family="Helvetica,sans-Serif" font-size="10.00">bf_sub</text>
</a>
</g>
</g>
<!-- Node4&#45;&gt;Node92 -->
<g id="edge41" class="edge">
<title>Node4&#45;&gt;Node92</title>
<path fill="none" stroke="midnightblue" d="M292.94,-655.58C309.09,-664.14 334.37,-676.05 358,-681 459.9,-702.34 584.2,-693.91 642.82,-687.96"/>
<polygon fill="midnightblue" stroke="midnightblue" points="643.41,-691.42 652.99,-686.89 642.67,-684.46 643.41,-691.42"/>
</g>
<!-- Node5&#45;&gt;Node2 -->
<g id="edge8" class="edge">
<title>Node5&#45;&gt;Node2</title>
<path fill="none" stroke="midnightblue" d="M416.9,-541.64C451.99,-563.13 538.22,-617.27 605,-670 622.04,-683.45 623.29,-690.45 641,-703 643.1,-704.49 645.32,-705.94 647.6,-707.33"/>
<polygon fill="midnightblue" stroke="midnightblue" points="646.03,-710.47 656.45,-712.39 649.5,-704.39 646.03,-710.47"/>
</g>
<!-- Node6 -->
<g id="node6" class="node">
<title>Node6</title>
<g id="a_node6"><a xlink:href="libbf_8h.html#a17dc09166f82ffa408f54a2edc4d7855" target="_top" xlink:title=" ">
<polygon fill="none" stroke="red" points="516.5,-446.5 516.5,-465.5 566.5,-465.5 566.5,-446.5 516.5,-446.5"/>
<text text-anchor="middle" x="541.5" y="-453.5" font-family="Helvetica,sans-Serif" font-size="10.00">bf_add</text>
</a>
</g>
</g>
<!-- Node5&#45;&gt;Node6 -->
<g id="edge5" class="edge">
<title>Node5&#45;&gt;Node6</title>
<path fill="none" stroke="midnightblue" d="M418.47,-522.45C425.86,-518.23 434.49,-513.09 442,-508 458.78,-496.63 460.35,-489.96 478,-480 486.94,-474.95 497.15,-470.53 506.69,-466.91"/>
<polygon fill="midnightblue" stroke="midnightblue" points="508.1,-470.12 516.31,-463.42 505.71,-463.54 508.1,-470.12"/>
</g>
<!-- Node5&#45;&gt;Node31 -->
<g id="edge9" class="edge">
<title>Node5&#45;&gt;Node31</title>
<path fill="none" stroke="midnightblue" d="M431.67,-533.17C506.3,-537.41 700.61,-556.88 829,-646 850.38,-660.84 867.46,-685.9 877.52,-703.16"/>
<polygon fill="midnightblue" stroke="midnightblue" points="874.69,-705.25 882.62,-712.28 880.8,-701.84 874.69,-705.25"/>
</g>
<!-- Node34 -->
<g id="node9" class="node">
<title>Node34</title>
<g id="a_node9"><a xlink:href="libbf_8h.html#a60ee3eaad83309aaf8a8b8fb81d8b44d" target="_top" xlink:title=" ">
<polygon fill="none" stroke="black" points="511.5,-370.5 511.5,-389.5 571.5,-389.5 571.5,-370.5 511.5,-370.5"/>
<text text-anchor="middle" x="541.5" y="-377.5" font-family="Helvetica,sans-Serif" font-size="10.00">bf_set_si</text>
</a>
</g>
</g>
<!-- Node5&#45;&gt;Node34 -->
<g id="edge10" class="edge">
<title>Node5&#45;&gt;Node34</title>
<path fill="none" stroke="midnightblue" d="M407.99,-522.44C421.01,-504.86 450.17,-466.5 478,-437 491.72,-422.45 508.53,-407.25 521.26,-396.21"/>
<polygon fill="midnightblue" stroke="midnightblue" points="523.65,-398.77 528.96,-389.61 519.09,-393.46 523.65,-398.77"/>
</g>
<!-- Node30 -->
<g id="node7" class="node">
<title>Node30</title>
<g id="a_node7"><a xlink:href="libbf_8c.html#a3ebbc1c7473b2ad84ced2b263bf38bae" target="_top" xlink:title=" ">
<polygon fill="none" stroke="red" points="764.5,-655.5 764.5,-674.5 814.5,-674.5 814.5,-655.5 764.5,-655.5"/>
<text text-anchor="middle" x="789.5" y="-662.5" font-family="Helvetica,sans-Serif" font-size="10.00">bf_op2</text>
</a>
</g>
</g>
<!-- Node6&#45;&gt;Node30 -->
<g id="edge6" class="edge">
<title>Node6&#45;&gt;Node30</title>
<path fill="none" stroke="midnightblue" d="M553.71,-465.52C592.37,-498.37 720.44,-607.17 769.31,-648.7"/>
<polygon fill="midnightblue" stroke="midnightblue" points="767.34,-651.61 777.22,-655.42 771.87,-646.28 767.34,-651.61"/>
</g>
<!-- Node30&#45;&gt;Node31 -->
<g id="edge7" class="edge">
<title>Node30&#45;&gt;Node31</title>
<path fill="none" stroke="midnightblue" d="M806.95,-674.67C822.1,-683.57 844.78,-696.9 862.22,-707.14"/>
<polygon fill="midnightblue" stroke="midnightblue" points="860.89,-710.42 871.29,-712.47 864.44,-704.39 860.89,-710.42"/>
</g>
<!-- Node34&#45;&gt;Node35 -->
<g id="edge11" class="edge">
<title>Node34&#45;&gt;Node35</title>
<path fill="none" stroke="midnightblue" d="M557.61,-370.41C580.73,-355.75 625.1,-327.61 652.61,-310.15"/>
<polygon fill="midnightblue" stroke="midnightblue" points="654.67,-312.99 661.24,-304.68 650.92,-307.08 654.67,-312.99"/>
</g>
<!-- Node35&#45;&gt;Node23 -->
<g id="edge12" class="edge">
<title>Node35&#45;&gt;Node23</title>
<path fill="none" stroke="midnightblue" d="M684.41,-285.27C702.02,-256.3 754.3,-170.27 777.36,-132.33"/>
<polygon fill="midnightblue" stroke="midnightblue" points="780.35,-134.14 782.56,-123.78 774.37,-130.51 780.35,-134.14"/>
</g>
<!-- Node25 -->
<g id="node12" class="node">
<title>Node25</title>
<g id="a_node12"><a xlink:href="libbf_8c.html#a3ac3b86cc31b99a551947240e979c5d7" target="_top" xlink:title=" ">
<polygon fill="none" stroke="red" points="774.5,-313.5 774.5,-332.5 804.5,-332.5 804.5,-313.5 774.5,-313.5"/>
<text text-anchor="middle" x="789.5" y="-320.5" font-family="Helvetica,sans-Serif" font-size="10.00">clz</text>
</a>
</g>
</g>
<!-- Node35&#45;&gt;Node25 -->
<g id="edge13" class="edge">
<title>Node35&#45;&gt;Node25</title>
<path fill="none" stroke="midnightblue" d="M708.27,-302.58C725.91,-307.07 747.97,-312.68 764.5,-316.89"/>
<polygon fill="midnightblue" stroke="midnightblue" points="763.9,-320.35 774.45,-319.42 765.62,-313.57 763.9,-320.35"/>
</g>
<!-- Node37 -->
<g id="node14" class="node">
<title>Node37</title>
<g id="a_node14"><a xlink:href="libbf_8c.html#afad3b4ae5f29e7af0b533bb452a4f36a" target="_top" xlink:title=" ">
<polygon fill="none" stroke="red" points="750,-788.5 750,-807.5 829,-807.5 829,-788.5 750,-788.5"/>
<text text-anchor="middle" x="789.5" y="-795.5" font-family="Helvetica,sans-Serif" font-size="10.00">bf_const_get</text>
</a>
</g>
</g>
<!-- Node36&#45;&gt;Node37 -->
<g id="edge15" class="edge">
<title>Node36&#45;&gt;Node37</title>
<path fill="none" stroke="midnightblue" d="M434.09,-769.56C447.59,-773.09 463.44,-776.78 478,-779 569.6,-792.99 677.89,-796.76 739.35,-797.73"/>
<polygon fill="midnightblue" stroke="midnightblue" points="739.49,-801.23 749.54,-797.87 739.59,-794.23 739.49,-801.23"/>
</g>
<!-- Node39 -->
<g id="node15" class="node">
<title>Node39</title>
<g id="a_node15"><a xlink:href="libbf_8c.html#ae2d577a0090338aba89d1bfa786d6a7a" target="_top" xlink:title=" ">
<polygon fill="none" stroke="red" points="478,-750.5 478,-769.5 605,-769.5 605,-750.5 478,-750.5"/>
<text text-anchor="middle" x="541.5" y="-757.5" font-family="Helvetica,sans-Serif" font-size="10.00">bf_const_log2_internal</text>
</a>
</g>
</g>
<!-- Node36&#45;&gt;Node39 -->
<g id="edge17" class="edge">
<title>Node36&#45;&gt;Node39</title>
<path fill="none" stroke="midnightblue" d="M442.1,-760C450.28,-760 459.09,-760 467.96,-760"/>
<polygon fill="midnightblue" stroke="midnightblue" points="467.97,-763.5 477.97,-760 467.97,-756.5 467.97,-763.5"/>
</g>
<!-- Node37&#45;&gt;Node31 -->
<g id="edge16" class="edge">
<title>Node37&#45;&gt;Node31</title>
<path fill="none" stroke="midnightblue" d="M807.39,-788.32C814.27,-784.16 822.19,-779.09 829,-774 843.54,-763.13 858.83,-749.45 870.13,-738.84"/>
<polygon fill="midnightblue" stroke="midnightblue" points="872.76,-741.18 877.59,-731.75 867.93,-736.11 872.76,-741.18"/>
</g>
<!-- Node39&#45;&gt;Node2 -->
<g id="edge18" class="edge">
<title>Node39&#45;&gt;Node2</title>
<path fill="none" stroke="midnightblue" d="M576.31,-750.41C594.67,-745.21 617.47,-738.74 636.68,-733.29"/>
<polygon fill="midnightblue" stroke="midnightblue" points="637.69,-736.64 646.35,-730.55 635.78,-729.91 637.69,-736.64"/>
</g>
<!-- Node39&#45;&gt;Node31 -->
<g id="edge21" class="edge">
<title>Node39&#45;&gt;Node31</title>
<path fill="none" stroke="midnightblue" d="M605.1,-760.29C663.53,-759.51 752.88,-755.65 829,-741 837.67,-739.33 846.84,-736.76 855.28,-734.04"/>
<polygon fill="midnightblue" stroke="midnightblue" points="856.43,-737.35 864.78,-730.83 854.19,-730.72 856.43,-737.35"/>
</g>
<!-- Node39&#45;&gt;Node69 -->
<g id="edge19" class="edge">
<title>Node39&#45;&gt;Node69</title>
<path fill="none" stroke="midnightblue" d="M550.73,-750.48C566.77,-732.28 603.93,-691.99 641,-665 643.08,-663.49 645.29,-662.02 647.55,-660.61"/>
<polygon fill="midnightblue" stroke="midnightblue" points="649.47,-663.55 656.39,-655.52 645.97,-657.48 649.47,-663.55"/>
</g>
<!-- Node69&#45;&gt;Node30 -->
<g id="edge20" class="edge">
<title>Node69&#45;&gt;Node30</title>
<path fill="none" stroke="midnightblue" d="M701.03,-649.89C716.33,-652.53 736.86,-656.08 754.18,-659.07"/>
<polygon fill="midnightblue" stroke="midnightblue" points="754.03,-662.6 764.48,-660.85 755.22,-655.7 754.03,-662.6"/>
</g>
<!-- Node87 -->
<g id="node18" class="node">
<title>Node87</title>
<g id="a_node18"><a xlink:href="libbf_8h.html#af13de179dd890536edc12e703add2c64" target="_top" xlink:title=" ">
<polygon fill="none" stroke="red" points="503,-864.5 503,-883.5 580,-883.5 580,-864.5 503,-864.5"/>
<text text-anchor="middle" x="541.5" y="-871.5" font-family="Helvetica,sans-Serif" font-size="10.00">bf_get_int64</text>
</a>
</g>
</g>
<!-- Node86&#45;&gt;Node87 -->
<g id="edge25" class="edge">
<title>Node86&#45;&gt;Node87</title>
<path fill="none" stroke="midnightblue" d="M437.29,-874C454.24,-874 474.64,-874 492.82,-874"/>
<polygon fill="midnightblue" stroke="midnightblue" points="492.93,-877.5 502.93,-874 492.93,-870.5 492.93,-877.5"/>
</g>
<!-- Node88&#45;&gt;Node25 -->
<g id="edge28" class="edge">
<title>Node88&#45;&gt;Node25</title>
<path fill="none" stroke="midnightblue" d="M419.49,-408.28C426.73,-404.2 434.97,-399.19 442,-394 459.46,-381.11 458.29,-370.08 478,-361 576.52,-315.6 710.32,-317.91 764.38,-321.12"/>
<polygon fill="midnightblue" stroke="midnightblue" points="764.17,-324.61 774.38,-321.78 764.63,-317.63 764.17,-324.61"/>
</g>
<!-- Node41&#45;&gt;Node31 -->
<g id="edge30" class="edge">
<title>Node41&#45;&gt;Node31</title>
<path fill="none" stroke="midnightblue" d="M566.89,-191.75C623.2,-197.2 762.53,-219.04 829,-304 878.4,-367.14 886.09,-627.68 887.28,-702.08"/>
<polygon fill="midnightblue" stroke="midnightblue" points="883.79,-702.41 887.42,-712.36 890.79,-702.32 883.79,-702.41"/>
</g>
<!-- Node41&#45;&gt;Node23 -->
<g id="edge32" class="edge">
<title>Node41&#45;&gt;Node23</title>
<path fill="none" stroke="midnightblue" d="M566.78,-191.32C600.93,-192.29 664.52,-190.86 714,-171 736.49,-161.97 758,-144.18 772.08,-130.87"/>
<polygon fill="midnightblue" stroke="midnightblue" points="774.76,-133.14 779.46,-123.64 769.86,-128.14 774.76,-133.14"/>
</g>
<!-- Node22 -->
<g id="node21" class="node">
<title>Node22</title>
<g id="a_node21"><a xlink:href="libbf_8h.html#a88d3dcee173f1e4fd4e55000edb04595" target="_top" xlink:title=" ">
<polygon fill="none" stroke="red" points="645,-85.5 645,-104.5 710,-104.5 710,-85.5 645,-85.5"/>
<text text-anchor="middle" x="677.5" y="-92.5" font-family="Helvetica,sans-Serif" font-size="10.00">bf_set_inf</text>
</a>
</g>
</g>
<!-- Node41&#45;&gt;Node22 -->
<g id="edge31" class="edge">
<title>Node41&#45;&gt;Node22</title>
<path fill="none" stroke="midnightblue" d="M556.34,-180.19C579.63,-163.68 626.84,-130.21 654.65,-110.49"/>
<polygon fill="midnightblue" stroke="midnightblue" points="656.81,-113.25 662.94,-104.61 652.76,-107.54 656.81,-113.25"/>
</g>
<!-- Node24 -->
<g id="node22" class="node">
<title>Node24</title>
<g id="a_node22"><a xlink:href="libbf_8h.html#a66631c65c00e92a5840a5085a009602d" target="_top" xlink:title=" ">
<polygon fill="none" stroke="red" points="641,-142.5 641,-161.5 714,-161.5 714,-142.5 641,-142.5"/>
<text text-anchor="middle" x="677.5" y="-149.5" font-family="Helvetica,sans-Serif" font-size="10.00">bf_set_zero</text>
</a>
</g>
</g>
<!-- Node41&#45;&gt;Node24 -->
<g id="edge33" class="edge">
<title>Node41&#45;&gt;Node24</title>
<path fill="none" stroke="midnightblue" d="M566.77,-183.12C585.21,-177.89 611.07,-170.56 633.05,-164.32"/>
<polygon fill="midnightblue" stroke="midnightblue" points="634.17,-167.64 642.84,-161.55 632.26,-160.91 634.17,-167.64"/>
</g>
<!-- Node91&#45;&gt;Node2 -->
<g id="edge36" class="edge">
<title>Node91&#45;&gt;Node2</title>
<path fill="none" stroke="midnightblue" d="M430.81,-465.61C475.43,-481.53 559.24,-517.65 605,-577 640.56,-623.12 604.43,-657.67 641,-703 641.84,-704.04 642.75,-705.03 643.72,-705.97"/>
<polygon fill="midnightblue" stroke="midnightblue" points="641.94,-709.02 652.01,-712.3 646.18,-703.45 641.94,-709.02"/>
</g>
<!-- Node91&#45;&gt;Node31 -->
<g id="edge37" class="edge">
<title>Node91&#45;&gt;Node31</title>
<path fill="none" stroke="midnightblue" d="M429.16,-446.45C469.25,-434.4 544.59,-417.45 605,-437 721.89,-474.84 750.39,-504.58 829,-599 855.61,-630.96 873.27,-677.06 881.72,-702.79"/>
<polygon fill="midnightblue" stroke="midnightblue" points="878.42,-703.98 884.77,-712.47 885.1,-701.88 878.42,-703.98"/>
</g>
<!-- Node91&#45;&gt;Node34 -->
<g id="edge39" class="edge">
<title>Node91&#45;&gt;Node34</title>
<path fill="none" stroke="midnightblue" d="M425.09,-446.34C430.82,-443.64 436.78,-440.48 442,-437 460.06,-424.96 459.54,-415.42 478,-404 485.39,-399.43 493.79,-395.48 501.98,-392.18"/>
<polygon fill="midnightblue" stroke="midnightblue" points="503.32,-395.42 511.43,-388.61 500.84,-388.87 503.32,-395.42"/>
</g>
<!-- Node91&#45;&gt;Node41 -->
<g id="edge38" class="edge">
<title>Node91&#45;&gt;Node41</title>
<path fill="none" stroke="midnightblue" d="M429.35,-446.35C433.99,-443.84 438.44,-440.76 442,-437 458.66,-419.4 514.27,-264.47 533.72,-209.35"/>
<polygon fill="midnightblue" stroke="midnightblue" points="537.08,-210.33 537.1,-199.73 530.48,-208.01 537.08,-210.33"/>
</g>
<!-- Node92&#45;&gt;Node30 -->
<g id="edge42" class="edge">
<title>Node92&#45;&gt;Node30</title>
<path fill="none" stroke="midnightblue" d="M702.1,-679.92C717.26,-677.31 737.21,-673.86 754.11,-670.94"/>
<polygon fill="midnightblue" stroke="midnightblue" points="754.92,-674.35 764.18,-669.2 753.73,-667.45 754.92,-674.35"/>
</g>
<!-- Node95&#45;&gt;Node2 -->
<g id="edge47" class="edge">
<title>Node95&#45;&gt;Node2</title>
<path fill="none" stroke="midnightblue" d="M161.67,-237.53C162.79,-285.07 170.92,-500.82 228,-665 266.31,-775.18 257.14,-834.4 358,-893 452.92,-948.15 513.62,-953.84 605,-893 656.7,-858.58 671.09,-778.84 675.03,-741.7"/>
<polygon fill="midnightblue" stroke="midnightblue" points="678.53,-741.92 675.95,-731.64 671.56,-741.28 678.53,-741.92"/>
</g>
<!-- Node95&#45;&gt;Node31 -->
<g id="edge48" class="edge">
<title>Node95&#45;&gt;Node31</title>
<path fill="none" stroke="midnightblue" d="M161.92,-237.64C164.89,-302.55 183.7,-676.38 228,-780 275.04,-890.04 279.33,-988 399,-988 399,-988 399,-988 678.5,-988 755.76,-988 780.34,-961.01 829,-901 868.2,-852.65 881.45,-777.21 885.67,-741.72"/>
<polygon fill="midnightblue" stroke="midnightblue" points="889.16,-742 886.74,-731.68 882.2,-741.25 889.16,-742"/>
</g>
<!-- Node95&#45;&gt;Node35 -->
<g id="edge63" class="edge">
<title>Node95&#45;&gt;Node35</title>
<path fill="none" stroke="midnightblue" d="M184.27,-229.41C249.96,-233.73 445.28,-248.21 605,-277 615.39,-278.87 626.51,-281.41 636.81,-283.98"/>
<polygon fill="midnightblue" stroke="midnightblue" points="636.22,-287.45 646.78,-286.55 637.97,-280.67 636.22,-287.45"/>
</g>
<!-- Node95&#45;&gt;Node23 -->
<g id="edge62" class="edge">
<title>Node95&#45;&gt;Node23</title>
<path fill="none" stroke="midnightblue" d="M182.06,-218.32C185.82,-215.75 189.38,-212.65 192,-209 232.51,-152.62 176.01,-103.01 228,-57 285.26,-6.32 322.53,-38 399,-38 399,-38 399,-38 542.5,-38 620.57,-38 640.53,-49.61 714,-76 731.21,-82.18 749.52,-91.48 763.68,-99.33"/>
<polygon fill="midnightblue" stroke="midnightblue" points="762.33,-102.59 772.75,-104.48 765.78,-96.5 762.33,-102.59"/>
</g>
<!-- Node95&#45;&gt;Node22 -->
<g id="edge61" class="edge">
<title>Node95&#45;&gt;Node22</title>
<path fill="none" stroke="midnightblue" d="M176.81,-218.42C189.94,-210.57 209.62,-199.71 228,-193 372.57,-140.26 554.19,-111.33 634.74,-100.29"/>
<polygon fill="midnightblue" stroke="midnightblue" points="635.52,-103.72 644.96,-98.91 634.59,-96.78 635.52,-103.72"/>
</g>
<!-- Node95&#45;&gt;Node24 -->
<g id="edge64" class="edge">
<title>Node95&#45;&gt;Node24</title>
<path fill="none" stroke="midnightblue" d="M184.04,-223.28C235.77,-212.58 367.1,-186.27 478,-171 530.21,-163.81 590.53,-158.45 630.84,-155.29"/>
<polygon fill="midnightblue" stroke="midnightblue" points="631.2,-158.77 640.9,-154.52 630.66,-151.79 631.2,-158.77"/>
</g>
<!-- Node96 -->
<g id="node28" class="node">
<title>Node96</title>
<g id="a_node28"><a xlink:href="libbf_8h.html#a78ee01fc94a63c4dc6cf252275f21a77" target="_top" xlink:title=" ">
<polygon fill="none" stroke="red" points="240,-104.5 240,-123.5 310,-123.5 310,-104.5 240,-104.5"/>
<text text-anchor="middle" x="275" y="-111.5" font-family="Helvetica,sans-Serif" font-size="10.00">bf_cmp_eq</text>
</a>
</g>
</g>
<!-- Node95&#45;&gt;Node96 -->
<g id="edge46" class="edge">
<title>Node95&#45;&gt;Node96</title>
<path fill="none" stroke="midnightblue" d="M180.46,-218.42C184.6,-215.75 188.71,-212.59 192,-209 215.89,-182.91 203.13,-163.16 228,-138 231.46,-134.5 235.54,-131.4 239.81,-128.69"/>
<polygon fill="midnightblue" stroke="midnightblue" points="241.73,-131.63 248.73,-123.67 238.29,-125.53 241.73,-131.63"/>
</g>
<!-- Node98 -->
<g id="node29" class="node">
<title>Node98</title>
<g id="a_node29"><a xlink:href="libbf_8c.html#aab7bc918fdd8dbef25c31c6881c73fdd" target="_top" xlink:title=" ">
<polygon fill="none" stroke="red" points="230.5,-465.5 230.5,-484.5 319.5,-484.5 319.5,-465.5 230.5,-465.5"/>
<text text-anchor="middle" x="275" y="-472.5" font-family="Helvetica,sans-Serif" font-size="10.00">bf_log_internal</text>
</a>
</g>
</g>
<!-- Node95&#45;&gt;Node98 -->
<g id="edge49" class="edge">
<title>Node95&#45;&gt;Node98</title>
<path fill="none" stroke="midnightblue" d="M165.91,-237.68C182.71,-274.57 242.9,-406.71 265.42,-456.15"/>
<polygon fill="midnightblue" stroke="midnightblue" points="262.29,-457.73 269.62,-465.38 268.66,-454.83 262.29,-457.73"/>
</g>
<!-- Node105 -->
<g id="node30" class="node">
<title>Node105</title>
<g id="a_node30"><a xlink:href="libbf_8c.html#a39e7dd6286a6f0541a12366ebd93dbfd" target="_top" xlink:title=" ">
<polygon fill="none" stroke="red" points="228,-66.5 228,-85.5 322,-85.5 322,-66.5 228,-66.5"/>
<text text-anchor="middle" x="275" y="-73.5" font-family="Helvetica,sans-Serif" font-size="10.00">bf_ziv_rounding</text>
</a>
</g>
</g>
<!-- Node95&#45;&gt;Node105 -->
<g id="edge65" class="edge">
<title>Node95&#45;&gt;Node105</title>
<path fill="none" stroke="midnightblue" d="M181.54,-218.38C185.43,-215.77 189.17,-212.65 192,-209 224.57,-167.02 192.08,-134.15 228,-95 229.2,-93.69 230.51,-92.46 231.9,-91.32"/>
<polygon fill="midnightblue" stroke="midnightblue" points="234.12,-94.05 240.56,-85.64 230.28,-88.2 234.12,-94.05"/>
</g>
<!-- Node98&#45;&gt;Node2 -->
<g id="edge53" class="edge">
<title>Node98&#45;&gt;Node2</title>
<path fill="none" stroke="midnightblue" d="M281.08,-484.68C292.35,-505.34 321.36,-554.18 358,-583 381.94,-601.83 566.29,-677.44 643.08,-708.54"/>
<polygon fill="midnightblue" stroke="midnightblue" points="642.17,-711.94 652.75,-712.45 644.8,-705.46 642.17,-711.94"/>
</g>
<!-- Node98&#45;&gt;Node5 -->
<g id="edge51" class="edge">
<title>Node98&#45;&gt;Node5</title>
<path fill="none" stroke="midnightblue" d="M296.59,-484.54C316.45,-493.75 346.75,-507.78 369.24,-518.21"/>
<polygon fill="midnightblue" stroke="midnightblue" points="367.8,-521.4 378.35,-522.43 370.74,-515.05 367.8,-521.4"/>
</g>
<!-- Node98&#45;&gt;Node6 -->
<g id="edge50" class="edge">
<title>Node98&#45;&gt;Node6</title>
<path fill="none" stroke="midnightblue" d="M319.8,-477.27C353.33,-478.45 400.69,-478.95 442,-475 463.65,-472.93 487.62,-468.36 506.49,-464.22"/>
<polygon fill="midnightblue" stroke="midnightblue" points="507.41,-467.6 516.4,-461.98 505.87,-460.77 507.41,-467.6"/>
</g>
<!-- Node98&#45;&gt;Node31 -->
<g id="edge55" class="edge">
<title>Node98&#45;&gt;Node31</title>
<path fill="none" stroke="midnightblue" d="M277.02,-465.43C281.09,-431.33 298.95,-313.92 358,-242 497.16,-72.52 679.51,65.45 829,-95 871.43,-140.54 884.66,-601.2 887.07,-702.41"/>
<polygon fill="midnightblue" stroke="midnightblue" points="883.57,-702.55 887.3,-712.46 890.57,-702.39 883.57,-702.55"/>
</g>
<!-- Node98&#45;&gt;Node35 -->
<g id="edge60" class="edge">
<title>Node98&#45;&gt;Node35</title>
<path fill="none" stroke="midnightblue" d="M281.6,-465.34C293.64,-445.13 323.71,-397.63 358,-366 404.4,-323.19 417.37,-307.58 478,-290 531.3,-274.54 596.06,-280.5 636.79,-287.06"/>
<polygon fill="midnightblue" stroke="midnightblue" points="636.41,-290.54 646.86,-288.77 637.59,-283.64 636.41,-290.54"/>
</g>
<!-- Node98&#45;&gt;Node36 -->
<g id="edge52" class="edge">
<title>Node98&#45;&gt;Node36</title>
<path fill="none" stroke="midnightblue" d="M280.23,-484.81C298.01,-526.01 366.82,-685.43 390.74,-740.87"/>
<polygon fill="midnightblue" stroke="midnightblue" points="387.61,-742.44 394.78,-750.23 394.03,-739.66 387.61,-742.44"/>
</g>
<!-- Node98&#45;&gt;Node69 -->
<g id="edge54" class="edge">
<title>Node98&#45;&gt;Node69</title>
<path fill="none" stroke="midnightblue" d="M283.79,-484.67C297.25,-500.75 326.48,-533.01 358,-551 453.73,-605.64 583.94,-631.63 643.87,-641.31"/>
<polygon fill="midnightblue" stroke="midnightblue" points="643.46,-644.79 653.88,-642.88 644.54,-637.87 643.46,-644.79"/>
</g>
<!-- Node98&#45;&gt;Node88 -->
<g id="edge56" class="edge">
<title>Node98&#45;&gt;Node88</title>
<path fill="none" stroke="midnightblue" d="M296.59,-465.46C316.45,-456.25 346.75,-442.22 369.24,-431.79"/>
<polygon fill="midnightblue" stroke="midnightblue" points="370.74,-434.95 378.35,-427.57 367.8,-428.6 370.74,-434.95"/>
</g>
<!-- Node98&#45;&gt;Node41 -->
<g id="edge57" class="edge">
<title>Node98&#45;&gt;Node41</title>
<path fill="none" stroke="midnightblue" d="M277.97,-465.34C284.44,-435.72 307.59,-344.83 358,-290 363.89,-283.6 464.2,-230.23 513.54,-204.19"/>
<polygon fill="midnightblue" stroke="midnightblue" points="515.19,-207.27 522.4,-199.51 511.92,-201.08 515.19,-207.27"/>
</g>
<!-- Node98&#45;&gt;Node90 -->
<g id="edge58" class="edge">
<title>Node98&#45;&gt;Node90</title>
<path fill="none" stroke="midnightblue" d="M279.34,-484.71C288.45,-510.01 315.88,-578.99 358,-622 361.27,-625.34 365.1,-628.37 369.08,-631.08"/>
<polygon fill="midnightblue" stroke="midnightblue" points="367.53,-634.23 377.89,-636.46 371.18,-628.26 367.53,-634.23"/>
</g>
<!-- Node98&#45;&gt;Node91 -->
<g id="edge59" class="edge">
<title>Node98&#45;&gt;Node91</title>
<path fill="none" stroke="midnightblue" d="M319.71,-468.25C332.12,-466.33 345.58,-464.25 357.83,-462.36"/>
<polygon fill="midnightblue" stroke="midnightblue" points="358.44,-465.81 367.79,-460.82 357.37,-458.89 358.44,-465.81"/>
</g>
</g>
</svg>
        <g id="navigator" transform="translate(0 0)" fill="#404254">
                <rect fill="#f2f5e9" fill-opacity="0.5" stroke="#606060" stroke-width=".5" x="0" y="0" width="60" height="60"/>
                <use id="zoomplus" xlink:href="#zoomPlus" x="17" y="9" onmousedown="handleZoom(evt,'in')"/>
                <use id="zoomminus" xlink:href="#zoomMin" x="42" y="9" onmousedown="handleZoom(evt,'out')"/>
                <use id="reset" xlink:href="#resetDef" x="30" y="36" onmousedown="handleReset()"/>
                <g id="arrowUp" xlink:href="#dirArrow" transform="translate(30 24)" onmousedown="handlePan(0,-1)">
                  <use xlink:href="#rim" fill="#404040">
                        <set attributeName="fill" to="#808080" begin="arrowUp.mouseover" end="arrowUp.mouseout"/>
                  </use>
                  <path fill="none" stroke="white" stroke-width="1.5" d="M0,-3.0v7 M-2.5,-0.5L0,-3.0L2.5,-0.5"/>
                </g>
                <g id="arrowRight" xlink:href="#dirArrow" transform="rotate(90) translate(36 -43)" onmousedown="handlePan(1,0)">
                  <use xlink:href="#rim" fill="#404040">
                        <set attributeName="fill" to="#808080" begin="arrowRight.mouseover" end="arrowRight.mouseout"/>
                  </use>
                  <path fill="none" stroke="white" stroke-width="1.5" d="M0,-3.0v7 M-2.5,-0.5L0,-3.0L2.5,-0.5"/>
                </g>
                <g id="arrowDown" xlink:href="#dirArrow" transform="rotate(180) translate(-30 -48)" onmousedown="handlePan(0,1)">
                  <use xlink:href="#rim" fill="#404040">
                        <set attributeName="fill" to="#808080" begin="arrowDown.mouseover" end="arrowDown.mouseout"/>
                  </use>
                  <path fill="none" stroke="white" stroke-width="1.5" d="M0,-3.0v7 M-2.5,-0.5L0,-3.0L2.5,-0.5"/>
                </g>
                <g id="arrowLeft" xlink:href="#dirArrow" transform="rotate(270) translate(-36 17)" onmousedown="handlePan(-1,0)">
                  <use xlink:href="#rim" fill="#404040">
                        <set attributeName="fill" to="#808080" begin="arrowLeft.mouseover" end="arrowLeft.mouseout"/>
                  </use>
                  <path fill="none" stroke="white" stroke-width="1.5" d="M0,-3.0v7 M-2.5,-0.5L0,-3.0L2.5,-0.5"/>
                </g>
        </g>
        <svg viewBox="0 0 15 15" width="100%" height="30px" preserveAspectRatio="xMaxYMin meet">
         <g id="arrow_out" transform="scale(0.3 0.3)">
          <a xlink:href="libbf_8c_aa28c1603087e2aec25b9bb0dae387875_cgraph_org.svg" target="_base">
           <rect id="button" ry="5" rx="5" y="6" x="6" height="38" width="38"
                fill="#f2f5e9" fill-opacity="0.5" stroke="#606060" stroke-width="1.0"/>
           <path id="arrow"
             d="M 11.500037,31.436501 C 11.940474,20.09759 22.043105,11.32322 32.158766,21.979434 L 37.068811,17.246167 C 37.068811,17.246167 37.088388,32 37.088388,32 L 22.160133,31.978069 C 22.160133,31.978069 26.997745,27.140456 26.997745,27.140456 C 18.528582,18.264221 13.291696,25.230495 11.500037,31.436501 z"
             style="fill:#404040;"/>
          </a>
         </g>
        </svg>
</svg>
