<?xml version="1.0" encoding="UTF-8" standalone="no"?>
<!DOCTYPE svg PUBLIC "-//W3C//DTD SVG 1.1//EN"
 "http://www.w3.org/Graphics/SVG/1.1/DTD/svg11.dtd">
<!-- Generated by graphviz version 2.43.0 (0)
 -->
<!-- Title: bf_rint Pages: 1 -->
<svg width="517pt" height="203pt"
 viewBox="0.00 0.00 517.00 203.12" xmlns="http://www.w3.org/2000/svg" xmlns:xlink="http://www.w3.org/1999/xlink">
<g id="graph0" class="graph" transform="scale(1 1) rotate(0) translate(4 199.12)">
<title>bf_rint</title>
<!-- Node1 -->
<g id="node1" class="node">
<title>Node1</title>
<g id="a_node1"><a xlink:title=" ">
<polygon fill="#bfbfbf" stroke="black" points="0,-95.5 0,-114.5 48,-114.5 48,-95.5 0,-95.5"/>
<text text-anchor="middle" x="24" y="-102.5" font-family="Helvetica,sans-Serif" font-size="10.00">bf_rint</text>
</a>
</g>
</g>
<!-- Node2 -->
<g id="node2" class="node">
<title>Node2</title>
<g id="a_node2"><a xlink:href="libbf_8h.html#abd4ca8358212228a53981a32a10286b5" target="_top" xlink:title=" ">
<polygon fill="none" stroke="black" points="84,-95.5 84,-114.5 143,-114.5 143,-95.5 84,-95.5"/>
<text text-anchor="middle" x="113.5" y="-102.5" font-family="Helvetica,sans-Serif" font-size="10.00">bf_round</text>
</a>
</g>
</g>
<!-- Node1&#45;&gt;Node2 -->
<g id="edge1" class="edge">
<title>Node1&#45;&gt;Node2</title>
<path fill="none" stroke="midnightblue" d="M48.45,-105C56.31,-105 65.29,-105 73.99,-105"/>
<polygon fill="midnightblue" stroke="midnightblue" points="73.99,-108.5 83.99,-105 73.99,-101.5 73.99,-108.5"/>
</g>
<!-- Node3 -->
<g id="node3" class="node">
<title>Node3</title>
<g id="a_node3"><a xlink:href="libbf_8c.html#a5a13527071b5331585beae41a51ed3c2" target="_top" xlink:title=" ">
<polygon fill="none" stroke="black" points="179,-95.5 179,-114.5 249,-114.5 249,-95.5 179,-95.5"/>
<text text-anchor="middle" x="214" y="-102.5" font-family="Helvetica,sans-Serif" font-size="10.00">__bf_round</text>
</a>
</g>
</g>
<!-- Node2&#45;&gt;Node3 -->
<g id="edge2" class="edge">
<title>Node2&#45;&gt;Node3</title>
<path fill="none" stroke="midnightblue" d="M143.26,-105C151.25,-105 160.13,-105 168.8,-105"/>
<polygon fill="midnightblue" stroke="midnightblue" points="168.81,-108.5 178.81,-105 168.81,-101.5 168.81,-108.5"/>
</g>
<!-- Node4 -->
<g id="node4" class="node">
<title>Node4</title>
<g id="a_node4"><a xlink:href="libbf_8h.html#a933c9dd8c3450f560876d02e3b36b1a5" target="_top" xlink:title=" ">
<polygon fill="none" stroke="black" points="415,-171.5 415,-190.5 509,-190.5 509,-171.5 415,-171.5"/>
<text text-anchor="middle" x="462" y="-178.5" font-family="Helvetica,sans-Serif" font-size="10.00">bf_get_exp_bits</text>
</a>
</g>
</g>
<!-- Node3&#45;&gt;Node4 -->
<g id="edge3" class="edge">
<title>Node3&#45;&gt;Node4</title>
<path fill="none" stroke="midnightblue" d="M220.18,-114.55C230.1,-131.71 253.62,-167.24 285,-181 323.08,-197.7 370.4,-196.64 406.38,-191.99"/>
<polygon fill="midnightblue" stroke="midnightblue" points="407.28,-195.4 416.68,-190.52 406.29,-188.47 407.28,-195.4"/>
</g>
<!-- Node5 -->
<g id="node5" class="node">
<title>Node5</title>
<g id="a_node5"><a xlink:href="libbf_8c.html#a3d7fdccc1995b3a88b68c5e7a57dce16" target="_top" xlink:title=" ">
<polygon fill="none" stroke="red" points="286,-0.5 286,-19.5 378,-19.5 378,-0.5 286,-0.5"/>
<text text-anchor="middle" x="332" y="-7.5" font-family="Helvetica,sans-Serif" font-size="10.00">bf_get_rnd_add</text>
</a>
</g>
</g>
<!-- Node3&#45;&gt;Node5 -->
<g id="edge4" class="edge">
<title>Node3&#45;&gt;Node5</title>
<path fill="none" stroke="midnightblue" d="M222.82,-95.33C234.98,-80.71 259.67,-52.73 285,-34 289.62,-30.59 294.79,-27.38 299.95,-24.5"/>
<polygon fill="midnightblue" stroke="midnightblue" points="301.89,-27.43 309.11,-19.68 298.63,-21.24 301.89,-27.43"/>
</g>
<!-- Node10 -->
<g id="node6" class="node">
<title>Node10</title>
<g id="a_node6"><a xlink:href="libbf_8h.html#ab51c43b22c1a81c789ee0e3d53c0e585" target="_top" xlink:title=" ">
<polygon fill="none" stroke="black" points="431.5,-114.5 431.5,-133.5 492.5,-133.5 492.5,-114.5 431.5,-114.5"/>
<text text-anchor="middle" x="462" y="-121.5" font-family="Helvetica,sans-Serif" font-size="10.00">bf_resize</text>
</a>
</g>
</g>
<!-- Node3&#45;&gt;Node10 -->
<g id="edge5" class="edge">
<title>Node3&#45;&gt;Node10</title>
<path fill="none" stroke="midnightblue" d="M249.21,-107.64C294.25,-111.12 373.31,-117.23 421.05,-120.91"/>
<polygon fill="midnightblue" stroke="midnightblue" points="421.08,-124.43 431.32,-121.71 421.62,-117.45 421.08,-124.43"/>
</g>
<!-- Node11 -->
<g id="node7" class="node">
<title>Node11</title>
<g id="a_node7"><a xlink:href="libbf_8c.html#af464f3c1421a7305372819f949667273" target="_top" xlink:title=" ">
<polygon fill="none" stroke="red" points="285,-152.5 285,-171.5 379,-171.5 379,-152.5 285,-152.5"/>
<text text-anchor="middle" x="332" y="-159.5" font-family="Helvetica,sans-Serif" font-size="10.00">bf_set_overflow</text>
</a>
</g>
</g>
<!-- Node3&#45;&gt;Node11 -->
<g id="edge6" class="edge">
<title>Node3&#45;&gt;Node11</title>
<path fill="none" stroke="midnightblue" d="M234.42,-114.54C252.98,-123.66 281.21,-137.53 302.36,-147.93"/>
<polygon fill="midnightblue" stroke="midnightblue" points="301,-151.16 311.52,-152.43 304.09,-144.88 301,-151.16"/>
</g>
<!-- Node9 -->
<g id="node8" class="node">
<title>Node9</title>
<g id="a_node8"><a xlink:href="libbf_8c.html#a450dfcc66e1b45403f642a8499219f94" target="_top" xlink:title=" ">
<polygon fill="none" stroke="black" points="426.5,-57.5 426.5,-76.5 497.5,-76.5 497.5,-57.5 426.5,-57.5"/>
<text text-anchor="middle" x="462" y="-64.5" font-family="Helvetica,sans-Serif" font-size="10.00">limb_mask</text>
</a>
</g>
</g>
<!-- Node3&#45;&gt;Node9 -->
<g id="edge12" class="edge">
<title>Node3&#45;&gt;Node9</title>
<path fill="none" stroke="midnightblue" d="M228.1,-95.27C241.57,-85.93 263.56,-72.45 285,-67 328.53,-55.95 380.1,-57.59 416.12,-60.99"/>
<polygon fill="midnightblue" stroke="midnightblue" points="416,-64.49 426.31,-62.04 416.72,-57.53 416,-64.49"/>
</g>
<!-- Node14 -->
<g id="node9" class="node">
<title>Node14</title>
<g id="a_node9"><a xlink:href="libbf_8h.html#a66631c65c00e92a5840a5085a009602d" target="_top" xlink:title=" ">
<polygon fill="none" stroke="black" points="295.5,-76.5 295.5,-95.5 368.5,-95.5 368.5,-76.5 295.5,-76.5"/>
<text text-anchor="middle" x="332" y="-83.5" font-family="Helvetica,sans-Serif" font-size="10.00">bf_set_zero</text>
</a>
</g>
</g>
<!-- Node3&#45;&gt;Node14 -->
<g id="edge10" class="edge">
<title>Node3&#45;&gt;Node14</title>
<path fill="none" stroke="midnightblue" d="M249.18,-99.4C260.56,-97.54 273.42,-95.43 285.52,-93.45"/>
<polygon fill="midnightblue" stroke="midnightblue" points="286.15,-96.89 295.46,-91.82 285.02,-89.98 286.15,-96.89"/>
</g>
<!-- Node11&#45;&gt;Node4 -->
<g id="edge7" class="edge">
<title>Node11&#45;&gt;Node4</title>
<path fill="none" stroke="midnightblue" d="M379.21,-168.86C387.55,-170.1 396.32,-171.4 404.91,-172.67"/>
<polygon fill="midnightblue" stroke="midnightblue" points="404.45,-176.14 414.86,-174.15 405.48,-169.22 404.45,-176.14"/>
</g>
<!-- Node11&#45;&gt;Node10 -->
<g id="edge8" class="edge">
<title>Node11&#45;&gt;Node10</title>
<path fill="none" stroke="midnightblue" d="M365.3,-152.41C382.42,-147.33 403.59,-141.04 421.67,-135.68"/>
<polygon fill="midnightblue" stroke="midnightblue" points="422.75,-139.01 431.34,-132.8 420.76,-132.3 422.75,-139.01"/>
</g>
<!-- Node11&#45;&gt;Node9 -->
<g id="edge9" class="edge">
<title>Node11&#45;&gt;Node9</title>
<path fill="none" stroke="midnightblue" d="M346.22,-152.19C368.37,-135.75 413.17,-102.5 439.78,-82.75"/>
<polygon fill="midnightblue" stroke="midnightblue" points="442.1,-85.38 448.05,-76.61 437.93,-79.76 442.1,-85.38"/>
</g>
<!-- Node14&#45;&gt;Node10 -->
<g id="edge11" class="edge">
<title>Node14&#45;&gt;Node10</title>
<path fill="none" stroke="midnightblue" d="M365.3,-95.59C382.42,-100.67 403.59,-106.96 421.67,-112.32"/>
<polygon fill="midnightblue" stroke="midnightblue" points="420.76,-115.7 431.34,-115.2 422.75,-108.99 420.76,-115.7"/>
</g>
</g>
</svg>
