<?xml version="1.0" encoding="UTF-8" standalone="no"?>
<!DOCTYPE svg PUBLIC "-//W3C//DTD SVG 1.1//EN"
 "http://www.w3.org/Graphics/SVG/1.1/DTD/svg11.dtd">
<!-- Generated by graphviz version 2.43.0 (0)
 -->
<!-- Title: bf_const_pi Pages: 1 -->
<!--zoomable 452 -->
<svg id="main" version="1.1" xmlns="http://www.w3.org/2000/svg" xmlns:xlink="http://www.w3.org/1999/xlink" xml:space="preserve" onload="init(evt)">
<style type="text/css"><![CDATA[
.edge:hover path { stroke: red; }
.edge:hover polygon { stroke: red; fill: red; }
]]></style>
<script type="text/javascript"><![CDATA[
var edges = document.getElementsByTagName('g');
if (edges && edges.length) {
  for (var i=0;i<edges.length;i++) {
    if (edges[i].id.substr(0,4)=='edge') {
      edges[i].setAttribute('class','edge');
    }
  }
}
]]></script>
        <defs>
                <circle id="rim" cx="0" cy="0" r="7"/>
                <circle id="rim2" cx="0" cy="0" r="3.5"/>
                <g id="zoomPlus">
                        <use xlink:href="#rim" fill="#404040">
                                <set attributeName="fill" to="#808080" begin="zoomplus.mouseover" end="zoomplus.mouseout"/>
                        </use>
                        <path d="M-4,0h8M0,-4v8" fill="none" stroke="white" stroke-width="1.5" pointer-events="none"/>
                </g>
                <g id="zoomMin">
                        <use xlink:href="#rim" fill="#404040">
                                <set attributeName="fill" to="#808080" begin="zoomminus.mouseover" end="zoomminus.mouseout"/>
                        </use>
                        <path d="M-4,0h8" fill="none" stroke="white" stroke-width="1.5" pointer-events="none"/>
                </g>
                <g id="dirArrow">
                        <path fill="none" stroke="white" stroke-width="1.5" d="M0,-3.0v7 M-2.5,-0.5L0,-3.0L2.5,-0.5"/>
                </g>
               <g id="resetDef">
                       <use xlink:href="#rim2" fill="#404040">
                               <set attributeName="fill" to="#808080" begin="reset.mouseover" end="reset.mouseout"/>
                       </use>
               </g>
        </defs>

<script type="text/javascript">
var viewWidth = 774;
var viewHeight = 452;
var sectionId = 'dynsection-199';
</script>
<script xlink:href="svgpan.js"/>
<svg id="graph" class="graph">
<g id="viewport">
<title>bf_const_pi</title>
<!-- Node1 -->
<g id="node1" class="node">
<title>Node1</title>
<g id="a_node1"><a xlink:title=" ">
<polygon fill="#bfbfbf" stroke="black" points="0,-261.69 0,-280.69 72,-280.69 72,-261.69 0,-261.69"/>
<text text-anchor="middle" x="36" y="-268.69" font-family="Helvetica,sans-Serif" font-size="10.00">bf_const_pi</text>
</a>
</g>
</g>
<!-- Node2 -->
<g id="node2" class="node">
<title>Node2</title>
<g id="a_node2"><a xlink:href="libbf_8c.html#a25b9653cbfca557499e786f8d2a7eb2e" target="_top" xlink:title=" ">
<polygon fill="none" stroke="black" points="108,-261.69 108,-280.69 218,-280.69 218,-261.69 108,-261.69"/>
<text text-anchor="middle" x="163" y="-268.69" font-family="Helvetica,sans-Serif" font-size="10.00">bf_const_pi_signed</text>
</a>
</g>
</g>
<!-- Node1&#45;&gt;Node2 -->
<g id="edge1" class="edge">
<title>Node1&#45;&gt;Node2</title>
<path fill="none" stroke="midnightblue" d="M72.15,-271.19C80.23,-271.19 89.07,-271.19 97.95,-271.19"/>
<polygon fill="midnightblue" stroke="midnightblue" points="97.96,-274.69 107.96,-271.19 97.96,-267.69 97.96,-274.69"/>
</g>
<!-- Node3 -->
<g id="node3" class="node">
<title>Node3</title>
<g id="a_node3"><a xlink:href="libbf_8c.html#afad3b4ae5f29e7af0b533bb452a4f36a" target="_top" xlink:title=" ">
<polygon fill="none" stroke="black" points="405,-423.69 405,-442.69 484,-442.69 484,-423.69 405,-423.69"/>
<text text-anchor="middle" x="444.5" y="-430.69" font-family="Helvetica,sans-Serif" font-size="10.00">bf_const_get</text>
</a>
</g>
</g>
<!-- Node2&#45;&gt;Node3 -->
<g id="edge2" class="edge">
<title>Node2&#45;&gt;Node3</title>
<path fill="none" stroke="midnightblue" d="M179.27,-280.81C217.02,-304.47 317.97,-366.99 405,-414.19 407.95,-415.79 411.05,-417.42 414.16,-419.01"/>
<polygon fill="midnightblue" stroke="midnightblue" points="412.86,-422.27 423.37,-423.62 416,-416.01 412.86,-422.27"/>
</g>
<!-- Node19 -->
<g id="node7" class="node">
<title>Node19</title>
<g id="a_node7"><a xlink:href="libbf_8c.html#a11d2dea6becda91c288fd883eefc8e5c" target="_top" xlink:title=" ">
<polygon fill="none" stroke="black" points="254,-242.69 254,-261.69 369,-261.69 369,-242.69 254,-242.69"/>
<text text-anchor="middle" x="311.5" y="-249.69" font-family="Helvetica,sans-Serif" font-size="10.00">bf_const_pi_internal</text>
</a>
</g>
</g>
<!-- Node2&#45;&gt;Node19 -->
<g id="edge6" class="edge">
<title>Node2&#45;&gt;Node19</title>
<path fill="none" stroke="midnightblue" d="M218.13,-264.17C226.45,-263.09 235.13,-261.97 243.68,-260.86"/>
<polygon fill="midnightblue" stroke="midnightblue" points="244.17,-264.32 253.64,-259.57 243.27,-257.38 244.17,-264.32"/>
</g>
<!-- Node4 -->
<g id="node4" class="node">
<title>Node4</title>
<g id="a_node4"><a xlink:href="libbf_8h.html#abacc1410890af049e02ebd788364ac48" target="_top" xlink:title=" ">
<polygon fill="none" stroke="black" points="719,-195.69 719,-214.69 766,-214.69 766,-195.69 719,-195.69"/>
<text text-anchor="middle" x="742.5" y="-202.69" font-family="Helvetica,sans-Serif" font-size="10.00">bf_init</text>
</a>
</g>
</g>
<!-- Node3&#45;&gt;Node4 -->
<g id="edge3" class="edge">
<title>Node3&#45;&gt;Node4</title>
<path fill="none" stroke="midnightblue" d="M484.08,-440.99C513.01,-445.02 552.96,-446.65 585,-433.19 675.55,-395.15 721.32,-272.32 736.05,-224.5"/>
<polygon fill="midnightblue" stroke="midnightblue" points="739.45,-225.35 738.94,-214.76 732.74,-223.36 739.45,-225.35"/>
</g>
<!-- Node5 -->
<g id="node5" class="node">
<title>Node5</title>
<g id="a_node5"><a xlink:href="libbf_8h.html#abd4ca8358212228a53981a32a10286b5" target="_top" xlink:title=" ">
<polygon fill="none" stroke="red" points="523,-366.69 523,-385.69 582,-385.69 582,-366.69 523,-366.69"/>
<text text-anchor="middle" x="552.5" y="-373.69" font-family="Helvetica,sans-Serif" font-size="10.00">bf_round</text>
</a>
</g>
</g>
<!-- Node3&#45;&gt;Node5 -->
<g id="edge4" class="edge">
<title>Node3&#45;&gt;Node5</title>
<path fill="none" stroke="midnightblue" d="M465.59,-423.54C471.55,-420.6 478.07,-417.32 484,-414.19 498.03,-406.79 513.46,-398.14 526.02,-390.97"/>
<polygon fill="midnightblue" stroke="midnightblue" points="528.06,-393.83 534.99,-385.82 524.58,-387.76 528.06,-393.83"/>
</g>
<!-- Node18 -->
<g id="node6" class="node">
<title>Node18</title>
<g id="a_node6"><a xlink:href="libbf_8h.html#ae019ee8073f4359da157d3b1e5fdba7e" target="_top" xlink:title=" ">
<polygon fill="none" stroke="red" points="529,-404.69 529,-423.69 576,-423.69 576,-404.69 529,-404.69"/>
<text text-anchor="middle" x="552.5" y="-411.69" font-family="Helvetica,sans-Serif" font-size="10.00">bf_set</text>
</a>
</g>
</g>
<!-- Node3&#45;&gt;Node18 -->
<g id="edge5" class="edge">
<title>Node3&#45;&gt;Node18</title>
<path fill="none" stroke="midnightblue" d="M484.07,-426.28C495.46,-424.24 507.82,-422.02 518.81,-420.05"/>
<polygon fill="midnightblue" stroke="midnightblue" points="519.62,-423.46 528.84,-418.25 518.38,-416.57 519.62,-423.46"/>
</g>
<!-- Node19&#45;&gt;Node4 -->
<g id="edge10" class="edge">
<title>Node19&#45;&gt;Node4</title>
<path fill="none" stroke="midnightblue" d="M346.04,-261.74C413.03,-278.99 566.92,-309.4 683,-262.19 702.4,-254.31 718.88,-236.55 729.36,-222.94"/>
<polygon fill="midnightblue" stroke="midnightblue" points="732.28,-224.88 735.35,-214.74 726.62,-220.75 732.28,-224.88"/>
</g>
<!-- Node20 -->
<g id="node8" class="node">
<title>Node20</title>
<g id="a_node8"><a xlink:href="libbf_8h.html#a17dc09166f82ffa408f54a2edc4d7855" target="_top" xlink:title=" ">
<polygon fill="none" stroke="red" points="527.5,-43.69 527.5,-62.69 577.5,-62.69 577.5,-43.69 527.5,-43.69"/>
<text text-anchor="middle" x="552.5" y="-50.69" font-family="Helvetica,sans-Serif" font-size="10.00">bf_add</text>
</a>
</g>
</g>
<!-- Node19&#45;&gt;Node20 -->
<g id="edge7" class="edge">
<title>Node19&#45;&gt;Node20</title>
<path fill="none" stroke="midnightblue" d="M319.66,-242.52C334.29,-223.16 369.25,-178.89 405,-148.19 443.35,-115.26 493.9,-84.92 524.48,-67.77"/>
<polygon fill="midnightblue" stroke="midnightblue" points="526.25,-70.8 533.29,-62.89 522.85,-64.67 526.25,-70.8"/>
</g>
<!-- Node35 -->
<g id="node9" class="node">
<title>Node35</title>
<g id="a_node9"><a xlink:href="libbf_8h.html#a2b9d906b21e903f2f7f1c9044674ab7d" target="_top" xlink:title=" ">
<polygon fill="none" stroke="red" points="621,-233.69 621,-252.69 683,-252.69 683,-233.69 621,-233.69"/>
<text text-anchor="middle" x="652" y="-240.69" font-family="Helvetica,sans-Serif" font-size="10.00">bf_delete</text>
</a>
</g>
</g>
<!-- Node19&#45;&gt;Node35 -->
<g id="edge8" class="edge">
<title>Node19&#45;&gt;Node35</title>
<path fill="none" stroke="midnightblue" d="M369.13,-250.81C424.25,-249.45 510.37,-247.28 585,-245.19 593.31,-244.96 602.21,-244.7 610.69,-244.44"/>
<polygon fill="midnightblue" stroke="midnightblue" points="610.88,-247.94 620.77,-244.14 610.67,-240.94 610.88,-247.94"/>
</g>
<!-- Node36 -->
<g id="node10" class="node">
<title>Node36</title>
<g id="a_node10"><a xlink:href="libbf_8h.html#a030665e68e114717678fb0d0453bb3c6" target="_top" xlink:title=" ">
<polygon fill="none" stroke="red" points="421,-347.69 421,-366.69 468,-366.69 468,-347.69 421,-347.69"/>
<text text-anchor="middle" x="444.5" y="-354.69" font-family="Helvetica,sans-Serif" font-size="10.00">bf_div</text>
</a>
</g>
</g>
<!-- Node19&#45;&gt;Node36 -->
<g id="edge9" class="edge">
<title>Node19&#45;&gt;Node36</title>
<path fill="none" stroke="midnightblue" d="M322.31,-261.74C338.73,-277.5 373.11,-309.54 405,-333.19 409.06,-336.2 413.5,-339.21 417.87,-342.03"/>
<polygon fill="midnightblue" stroke="midnightblue" points="416.29,-345.16 426.62,-347.48 419.99,-339.22 416.29,-345.16"/>
</g>
<!-- Node80 -->
<g id="node11" class="node">
<title>Node80</title>
<g id="a_node11"><a xlink:href="libbf_8h.html#ac290278d0c37a0e7786873f98aadba47" target="_top" xlink:title=" ">
<polygon fill="none" stroke="red" points="627,-119.69 627,-138.69 677,-138.69 677,-119.69 627,-119.69"/>
<text text-anchor="middle" x="652" y="-126.69" font-family="Helvetica,sans-Serif" font-size="10.00">bf_mul</text>
</a>
</g>
</g>
<!-- Node19&#45;&gt;Node80 -->
<g id="edge11" class="edge">
<title>Node19&#45;&gt;Node80</title>
<path fill="none" stroke="midnightblue" d="M315.68,-242.42C325.08,-214.86 355.26,-135.56 405,-89.19 446.44,-50.56 464.75,-46.73 520,-34.19 548.17,-27.8 560.59,-18.74 585,-34.19 616.58,-54.18 596.23,-82.2 621,-110.19 622,-111.32 623.07,-112.4 624.21,-113.44"/>
<polygon fill="midnightblue" stroke="midnightblue" points="622.22,-116.32 632.28,-119.63 626.48,-110.77 622.22,-116.32"/>
</g>
<!-- Node81 -->
<g id="node12" class="node">
<title>Node81</title>
<g id="a_node12"><a xlink:href="libbf_8h.html#acee0d550162528b5ca5513d4479549c2" target="_top" xlink:title=" ">
<polygon fill="none" stroke="black" points="520,-195.69 520,-214.69 585,-214.69 585,-195.69 520,-195.69"/>
<text text-anchor="middle" x="552.5" y="-202.69" font-family="Helvetica,sans-Serif" font-size="10.00">bf_mul_ui</text>
</a>
</g>
</g>
<!-- Node19&#45;&gt;Node81 -->
<g id="edge13" class="edge">
<title>Node19&#45;&gt;Node81</title>
<path fill="none" stroke="midnightblue" d="M360.87,-242.68C404.62,-234.08 468.39,-221.54 509.91,-213.37"/>
<polygon fill="midnightblue" stroke="midnightblue" points="510.83,-216.76 519.96,-211.39 509.48,-209.89 510.83,-216.76"/>
</g>
<!-- Node82 -->
<g id="node13" class="node">
<title>Node82</title>
<g id="a_node13"><a xlink:href="libbf_8h.html#a2378f025beace5741c19bf995c2971d3" target="_top" xlink:title=" ">
<polygon fill="none" stroke="red" points="621.5,-81.69 621.5,-100.69 682.5,-100.69 682.5,-81.69 621.5,-81.69"/>
<text text-anchor="middle" x="652" y="-88.69" font-family="Helvetica,sans-Serif" font-size="10.00">bf_set_ui</text>
</a>
</g>
</g>
<!-- Node19&#45;&gt;Node82 -->
<g id="edge18" class="edge">
<title>Node19&#45;&gt;Node82</title>
<path fill="none" stroke="midnightblue" d="M313.45,-242.57C317.38,-208.45 335.56,-92.41 405,-39.19 468.78,9.69 511.11,9.38 585,-22.19 609.05,-32.47 628.53,-56.29 639.93,-73.05"/>
<polygon fill="midnightblue" stroke="midnightblue" points="637.04,-75.02 645.41,-81.51 642.91,-71.22 637.04,-75.02"/>
</g>
<!-- Node83 -->
<g id="node14" class="node">
<title>Node83</title>
<g id="a_node14"><a xlink:href="libbf_8h.html#a1a8b9ac1fea38b97fc6be8663ce9e867" target="_top" xlink:title=" ">
<polygon fill="none" stroke="red" points="419.5,-385.69 419.5,-404.69 469.5,-404.69 469.5,-385.69 419.5,-385.69"/>
<text text-anchor="middle" x="444.5" y="-392.69" font-family="Helvetica,sans-Serif" font-size="10.00">bf_sqrt</text>
</a>
</g>
</g>
<!-- Node19&#45;&gt;Node83 -->
<g id="edge19" class="edge">
<title>Node19&#45;&gt;Node83</title>
<path fill="none" stroke="midnightblue" d="M317.54,-261.78C329.82,-284.35 363.3,-341.48 405,-376.19 406.77,-377.66 408.67,-379.06 410.65,-380.37"/>
<polygon fill="midnightblue" stroke="midnightblue" points="409.22,-383.59 419.62,-385.6 412.74,-377.54 409.22,-383.59"/>
</g>
<!-- Node89 -->
<g id="node15" class="node">
<title>Node89</title>
<g id="a_node15"><a xlink:href="libbf_8c.html#a81e50b3d7e7a931a93d6ea7e1d630631" target="_top" xlink:title=" ">
<polygon fill="none" stroke="black" points="416.5,-157.69 416.5,-176.69 472.5,-176.69 472.5,-157.69 416.5,-157.69"/>
<text text-anchor="middle" x="444.5" y="-164.69" font-family="Helvetica,sans-Serif" font-size="10.00">chud_bs</text>
</a>
</g>
</g>
<!-- Node19&#45;&gt;Node89 -->
<g id="edge22" class="edge">
<title>Node19&#45;&gt;Node89</title>
<path fill="none" stroke="midnightblue" d="M327.27,-242.61C349.88,-227.94 393.25,-199.8 420.14,-182.35"/>
<polygon fill="midnightblue" stroke="midnightblue" points="422.1,-185.25 428.58,-176.87 418.29,-179.38 422.1,-185.25"/>
</g>
<!-- Node80&#45;&gt;Node4 -->
<g id="edge12" class="edge">
<title>Node80&#45;&gt;Node4</title>
<path fill="none" stroke="midnightblue" d="M665.38,-138.86C670.83,-143.18 677.29,-148.38 683,-153.19 696.71,-164.75 711.83,-178.21 723.26,-188.54"/>
<polygon fill="midnightblue" stroke="midnightblue" points="721.11,-191.31 730.86,-195.44 725.81,-186.13 721.11,-191.31"/>
</g>
<!-- Node81&#45;&gt;Node4 -->
<g id="edge15" class="edge">
<title>Node81&#45;&gt;Node4</title>
<path fill="none" stroke="midnightblue" d="M585.39,-205.19C619.76,-205.19 674.18,-205.19 708.84,-205.19"/>
<polygon fill="midnightblue" stroke="midnightblue" points="708.92,-208.69 718.92,-205.19 708.92,-201.69 708.92,-208.69"/>
</g>
<!-- Node81&#45;&gt;Node35 -->
<g id="edge14" class="edge">
<title>Node81&#45;&gt;Node35</title>
<path fill="none" stroke="midnightblue" d="M578.1,-214.78C589.88,-219.37 604.18,-224.94 616.97,-229.93"/>
<polygon fill="midnightblue" stroke="midnightblue" points="615.82,-233.24 626.4,-233.61 618.36,-226.71 615.82,-233.24"/>
</g>
<!-- Node81&#45;&gt;Node80 -->
<g id="edge16" class="edge">
<title>Node81&#45;&gt;Node80</title>
<path fill="none" stroke="midnightblue" d="M565.85,-195.57C582.19,-182.83 611.19,-160.22 630.76,-144.97"/>
<polygon fill="midnightblue" stroke="midnightblue" points="633.02,-147.65 638.75,-138.74 628.71,-142.13 633.02,-147.65"/>
</g>
<!-- Node81&#45;&gt;Node82 -->
<g id="edge17" class="edge">
<title>Node81&#45;&gt;Node82</title>
<path fill="none" stroke="midnightblue" d="M558.6,-195.65C568.69,-177.41 592.66,-137.06 621,-110.19 622.26,-109 623.61,-107.83 625.01,-106.71"/>
<polygon fill="midnightblue" stroke="midnightblue" points="627.23,-109.42 633.35,-100.77 623.17,-103.72 627.23,-109.42"/>
</g>
<!-- Node83&#45;&gt;Node5 -->
<g id="edge20" class="edge">
<title>Node83&#45;&gt;Node5</title>
<path fill="none" stroke="midnightblue" d="M469.55,-390.88C482.23,-388.61 498.11,-385.76 512.49,-383.18"/>
<polygon fill="midnightblue" stroke="midnightblue" points="513.42,-386.57 522.64,-381.36 512.18,-379.68 513.42,-386.57"/>
</g>
<!-- Node83&#45;&gt;Node18 -->
<g id="edge21" class="edge">
<title>Node83&#45;&gt;Node18</title>
<path fill="none" stroke="midnightblue" d="M469.55,-399.5C484.18,-402.13 503.06,-405.51 519.01,-408.37"/>
<polygon fill="midnightblue" stroke="midnightblue" points="518.53,-411.84 528.99,-410.16 519.77,-404.95 518.53,-411.84"/>
</g>
<!-- Node89&#45;&gt;Node4 -->
<g id="edge25" class="edge">
<title>Node89&#45;&gt;Node4</title>
<path fill="none" stroke="midnightblue" d="M472.55,-170.67C526.97,-177.65 649.48,-193.38 708.49,-200.96"/>
<polygon fill="midnightblue" stroke="midnightblue" points="708.38,-204.47 718.74,-202.27 709.27,-197.53 708.38,-204.47"/>
</g>
<!-- Node89&#45;&gt;Node20 -->
<g id="edge23" class="edge">
<title>Node89&#45;&gt;Node20</title>
<path fill="none" stroke="midnightblue" d="M452.26,-157.65C464.63,-140.53 492.2,-103.89 520,-77.19 522.93,-74.38 526.18,-71.59 529.46,-68.96"/>
<polygon fill="midnightblue" stroke="midnightblue" points="531.65,-71.68 537.46,-62.82 527.39,-66.13 531.65,-71.68"/>
</g>
<!-- Node89&#45;&gt;Node35 -->
<g id="edge24" class="edge">
<title>Node89&#45;&gt;Node35</title>
<path fill="none" stroke="midnightblue" d="M454.59,-176.71C467.7,-189.78 493.28,-212.94 520,-224.19 548.89,-236.36 584.18,-240.95 610.85,-242.59"/>
<polygon fill="midnightblue" stroke="midnightblue" points="610.82,-246.09 620.98,-243.1 611.17,-239.1 610.82,-246.09"/>
</g>
<!-- Node89&#45;&gt;Node80 -->
<g id="edge26" class="edge">
<title>Node89&#45;&gt;Node80</title>
<path fill="none" stroke="midnightblue" d="M472.74,-162.04C486.84,-159.38 504.34,-156.1 520,-153.19 552.91,-147.08 590.5,-140.21 616.94,-135.39"/>
<polygon fill="midnightblue" stroke="midnightblue" points="617.64,-138.82 626.85,-133.58 616.38,-131.93 617.64,-138.82"/>
</g>
<!-- Node89&#45;&gt;Node81 -->
<g id="edge27" class="edge">
<title>Node89&#45;&gt;Node81</title>
<path fill="none" stroke="midnightblue" d="M472.25,-176.78C485.3,-181.46 501.2,-187.16 515.32,-192.22"/>
<polygon fill="midnightblue" stroke="midnightblue" points="514.17,-195.53 524.76,-195.61 516.53,-188.94 514.17,-195.53"/>
</g>
<!-- Node89&#45;&gt;Node82 -->
<g id="edge28" class="edge">
<title>Node89&#45;&gt;Node82</title>
<path fill="none" stroke="midnightblue" d="M468.55,-157.6C483.22,-151.57 502.65,-143.73 520,-137.19 551.2,-125.44 586.93,-112.96 613.19,-103.96"/>
<polygon fill="midnightblue" stroke="midnightblue" points="614.42,-107.24 622.76,-100.7 612.16,-100.62 614.42,-107.24"/>
</g>
<!-- Node89&#45;&gt;Node89 -->
<g id="edge29" class="edge">
<title>Node89&#45;&gt;Node89</title>
<path fill="none" stroke="midnightblue" d="M427.85,-176.95C419.76,-185.76 425.3,-195.19 444.5,-195.19 456.5,-195.19 463.16,-191.51 464.5,-186.59"/>
<polygon fill="midnightblue" stroke="midnightblue" points="467.74,-185.25 461.15,-176.95 461.12,-187.54 467.74,-185.25"/>
</g>
</g>
</svg>
        <g id="navigator" transform="translate(0 0)" fill="#404254">
                <rect fill="#f2f5e9" fill-opacity="0.5" stroke="#606060" stroke-width=".5" x="0" y="0" width="60" height="60"/>
                <use id="zoomplus" xlink:href="#zoomPlus" x="17" y="9" onmousedown="handleZoom(evt,'in')"/>
                <use id="zoomminus" xlink:href="#zoomMin" x="42" y="9" onmousedown="handleZoom(evt,'out')"/>
                <use id="reset" xlink:href="#resetDef" x="30" y="36" onmousedown="handleReset()"/>
                <g id="arrowUp" xlink:href="#dirArrow" transform="translate(30 24)" onmousedown="handlePan(0,-1)">
                  <use xlink:href="#rim" fill="#404040">
                        <set attributeName="fill" to="#808080" begin="arrowUp.mouseover" end="arrowUp.mouseout"/>
                  </use>
                  <path fill="none" stroke="white" stroke-width="1.5" d="M0,-3.0v7 M-2.5,-0.5L0,-3.0L2.5,-0.5"/>
                </g>
                <g id="arrowRight" xlink:href="#dirArrow" transform="rotate(90) translate(36 -43)" onmousedown="handlePan(1,0)">
                  <use xlink:href="#rim" fill="#404040">
                        <set attributeName="fill" to="#808080" begin="arrowRight.mouseover" end="arrowRight.mouseout"/>
                  </use>
                  <path fill="none" stroke="white" stroke-width="1.5" d="M0,-3.0v7 M-2.5,-0.5L0,-3.0L2.5,-0.5"/>
                </g>
                <g id="arrowDown" xlink:href="#dirArrow" transform="rotate(180) translate(-30 -48)" onmousedown="handlePan(0,1)">
                  <use xlink:href="#rim" fill="#404040">
                        <set attributeName="fill" to="#808080" begin="arrowDown.mouseover" end="arrowDown.mouseout"/>
                  </use>
                  <path fill="none" stroke="white" stroke-width="1.5" d="M0,-3.0v7 M-2.5,-0.5L0,-3.0L2.5,-0.5"/>
                </g>
                <g id="arrowLeft" xlink:href="#dirArrow" transform="rotate(270) translate(-36 17)" onmousedown="handlePan(-1,0)">
                  <use xlink:href="#rim" fill="#404040">
                        <set attributeName="fill" to="#808080" begin="arrowLeft.mouseover" end="arrowLeft.mouseout"/>
                  </use>
                  <path fill="none" stroke="white" stroke-width="1.5" d="M0,-3.0v7 M-2.5,-0.5L0,-3.0L2.5,-0.5"/>
                </g>
        </g>
        <svg viewBox="0 0 15 15" width="100%" height="30px" preserveAspectRatio="xMaxYMin meet">
         <g id="arrow_out" transform="scale(0.3 0.3)">
          <a xlink:href="libbf_8c_aff86bca731f3c8ffe45f0f1129175961_cgraph_org.svg" target="_base">
           <rect id="button" ry="5" rx="5" y="6" x="6" height="38" width="38"
                fill="#f2f5e9" fill-opacity="0.5" stroke="#606060" stroke-width="1.0"/>
           <path id="arrow"
             d="M 11.500037,31.436501 C 11.940474,20.09759 22.043105,11.32322 32.158766,21.979434 L 37.068811,17.246167 C 37.068811,17.246167 37.088388,32 37.088388,32 L 22.160133,31.978069 C 22.160133,31.978069 26.997745,27.140456 26.997745,27.140456 C 18.528582,18.264221 13.291696,25.230495 11.500037,31.436501 z"
             style="fill:#404040;"/>
          </a>
         </g>
        </svg>
</svg>
