<?xml version="1.0" encoding="UTF-8" standalone="no"?>
<!DOCTYPE svg PUBLIC "-//W3C//DTD SVG 1.1//EN"
 "http://www.w3.org/Graphics/SVG/1.1/DTD/svg11.dtd">
<!-- Generated by graphviz version 2.43.0 (0)
 -->
<!-- Title: bfdec_add Pages: 1 -->
<svg width="605pt" height="534pt"
 viewBox="0.00 0.00 605.00 534.00" xmlns="http://www.w3.org/2000/svg" xmlns:xlink="http://www.w3.org/1999/xlink">
<g id="graph0" class="graph" transform="scale(1 1) rotate(0) translate(4 530)">
<title>bfdec_add</title>
<!-- Node1 -->
<g id="node1" class="node">
<title>Node1</title>
<g id="a_node1"><a xlink:title=" ">
<polygon fill="#bfbfbf" stroke="black" points="0,-95.5 0,-114.5 67,-114.5 67,-95.5 0,-95.5"/>
<text text-anchor="middle" x="33.5" y="-102.5" font-family="Helvetica,sans-Serif" font-size="10.00">bfdec_add</text>
</a>
</g>
</g>
<!-- Node2 -->
<g id="node2" class="node">
<title>Node2</title>
<g id="a_node2"><a xlink:href="libbf_8c.html#aa5c7e54724217d71eb29c55c98e2413f" target="_top" xlink:title=" ">
<polygon fill="none" stroke="black" points="103,-152.5 103,-171.5 180,-171.5 180,-152.5 103,-152.5"/>
<text text-anchor="middle" x="141.5" y="-159.5" font-family="Helvetica,sans-Serif" font-size="10.00">__bfdec_add</text>
</a>
</g>
</g>
<!-- Node1&#45;&gt;Node2 -->
<g id="edge1" class="edge">
<title>Node1&#45;&gt;Node2</title>
<path fill="none" stroke="midnightblue" d="M52.48,-114.67C69.33,-123.73 94.74,-137.39 113.93,-147.71"/>
<polygon fill="midnightblue" stroke="midnightblue" points="112.32,-150.82 122.78,-152.47 115.63,-144.65 112.32,-150.82"/>
</g>
<!-- Node39 -->
<g id="node18" class="node">
<title>Node39</title>
<g id="a_node18"><a xlink:href="libbf_8c.html#a3ebbc1c7473b2ad84ced2b263bf38bae" target="_top" xlink:title=" ">
<polygon fill="none" stroke="black" points="116.5,-76.5 116.5,-95.5 166.5,-95.5 166.5,-76.5 116.5,-76.5"/>
<text text-anchor="middle" x="141.5" y="-83.5" font-family="Helvetica,sans-Serif" font-size="10.00">bf_op2</text>
</a>
</g>
</g>
<!-- Node1&#45;&gt;Node39 -->
<g id="edge18" class="edge">
<title>Node1&#45;&gt;Node39</title>
<path fill="none" stroke="midnightblue" d="M67.17,-99.14C79.52,-96.93 93.62,-94.4 106.13,-92.16"/>
<polygon fill="midnightblue" stroke="midnightblue" points="106.96,-95.57 116.19,-90.36 105.73,-88.68 106.96,-95.57"/>
</g>
<!-- Node3 -->
<g id="node3" class="node">
<title>Node3</title>
<g id="a_node3"><a xlink:href="libbf_8c.html#adab81046eaf5fc5a75e1bae96b75be66" target="_top" xlink:title=" ">
<polygon fill="none" stroke="black" points="216,-228.5 216,-247.5 326,-247.5 326,-228.5 216,-228.5"/>
<text text-anchor="middle" x="271" y="-235.5" font-family="Helvetica,sans-Serif" font-size="10.00">bfdec_add_internal</text>
</a>
</g>
</g>
<!-- Node2&#45;&gt;Node3 -->
<g id="edge2" class="edge">
<title>Node2&#45;&gt;Node3</title>
<path fill="none" stroke="midnightblue" d="M158.65,-171.63C180.49,-184.65 219.66,-207.99 245.23,-223.24"/>
<polygon fill="midnightblue" stroke="midnightblue" points="243.6,-226.34 253.98,-228.45 247.19,-220.33 243.6,-226.34"/>
</g>
<!-- Node4 -->
<g id="node4" class="node">
<title>Node4</title>
<g id="a_node4"><a xlink:href="libbf_8h.html#ab8c991bf0d1ab72d676d3c9c3d63c2a7" target="_top" xlink:title=" ">
<polygon fill="none" stroke="red" points="397,-0.5 397,-19.5 448,-19.5 448,-0.5 397,-0.5"/>
<text text-anchor="middle" x="422.5" y="-7.5" font-family="Helvetica,sans-Serif" font-size="10.00">bf_free</text>
</a>
</g>
</g>
<!-- Node3&#45;&gt;Node4 -->
<g id="edge3" class="edge">
<title>Node3&#45;&gt;Node4</title>
<path fill="none" stroke="midnightblue" d="M275.91,-228.31C292.16,-188.13 353.88,-36.36 362,-29 368.94,-22.7 377.99,-18.49 386.91,-15.67"/>
<polygon fill="midnightblue" stroke="midnightblue" points="388.06,-18.99 396.83,-13.05 386.27,-12.23 388.06,-18.99"/>
</g>
<!-- Node6 -->
<g id="node5" class="node">
<title>Node6</title>
<g id="a_node5"><a xlink:href="libbf_8h.html#a4954f3435332238433d15977d55ae566" target="_top" xlink:title=" ">
<polygon fill="none" stroke="black" points="396,-506.5 396,-525.5 449,-525.5 449,-506.5 396,-506.5"/>
<text text-anchor="middle" x="422.5" y="-513.5" font-family="Helvetica,sans-Serif" font-size="10.00">bf_max</text>
</a>
</g>
</g>
<!-- Node3&#45;&gt;Node6 -->
<g id="edge4" class="edge">
<title>Node3&#45;&gt;Node6</title>
<path fill="none" stroke="midnightblue" d="M272.39,-247.59C274.44,-285.16 287.02,-423.89 362,-497 368.6,-503.44 377.38,-507.69 386.16,-510.51"/>
<polygon fill="midnightblue" stroke="midnightblue" points="385.4,-513.93 395.96,-513.11 387.19,-507.16 385.4,-513.93"/>
</g>
<!-- Node7 -->
<g id="node6" class="node">
<title>Node7</title>
<g id="a_node6"><a xlink:href="libbf_8h.html#ab76f65059ac29df0d8ed9f719db8ba06" target="_top" xlink:title=" ">
<polygon fill="none" stroke="red" points="384.5,-468.5 384.5,-487.5 460.5,-487.5 460.5,-468.5 384.5,-468.5"/>
<text text-anchor="middle" x="422.5" y="-475.5" font-family="Helvetica,sans-Serif" font-size="10.00">bfdec_cmpu</text>
</a>
</g>
</g>
<!-- Node3&#45;&gt;Node7 -->
<g id="edge5" class="edge">
<title>Node3&#45;&gt;Node7</title>
<path fill="none" stroke="midnightblue" d="M273.04,-247.57C277.23,-281.6 296.01,-397.95 362,-459 365.78,-462.5 370.21,-465.36 374.92,-467.69"/>
<polygon fill="midnightblue" stroke="midnightblue" points="373.63,-470.94 384.21,-471.55 376.32,-464.48 373.63,-470.94"/>
</g>
<!-- Node10 -->
<g id="node7" class="node">
<title>Node10</title>
<g id="a_node7"><a xlink:href="libbf_8h.html#acd3459551d5c61344889ba07a276b0a0" target="_top" xlink:title=" ">
<polygon fill="none" stroke="red" points="362,-419 362,-449 483,-449 483,-419 362,-419"/>
<text text-anchor="start" x="370" y="-437" font-family="Helvetica,sans-Serif" font-size="10.00">bfdec_normalize_and</text>
<text text-anchor="middle" x="422.5" y="-426" font-family="Helvetica,sans-Serif" font-size="10.00">_round</text>
</a>
</g>
</g>
<!-- Node3&#45;&gt;Node10 -->
<g id="edge6" class="edge">
<title>Node3&#45;&gt;Node10</title>
<path fill="none" stroke="midnightblue" d="M274.89,-247.51C283.68,-275.06 312.6,-356.05 362,-404 365.69,-407.58 369.9,-410.83 374.33,-413.74"/>
<polygon fill="midnightblue" stroke="midnightblue" points="372.66,-416.83 383.05,-418.94 376.25,-410.81 372.66,-416.83"/>
</g>
<!-- Node19 -->
<g id="node8" class="node">
<title>Node19</title>
<g id="a_node8"><a xlink:href="libbf_8h.html#aa84c22d9104847e3aa0ab161a8c2af22" target="_top" xlink:title=" ">
<polygon fill="none" stroke="red" points="519,-402.5 519,-421.5 597,-421.5 597,-402.5 519,-402.5"/>
<text text-anchor="middle" x="558" y="-409.5" font-family="Helvetica,sans-Serif" font-size="10.00">bfdec_resize</text>
</a>
</g>
</g>
<!-- Node3&#45;&gt;Node19 -->
<g id="edge8" class="edge">
<title>Node3&#45;&gt;Node19</title>
<path fill="none" stroke="midnightblue" d="M275.5,-247.57C285.1,-272.37 314.33,-338.97 362,-371 405.81,-400.43 466.66,-409.35 508.68,-411.74"/>
<polygon fill="midnightblue" stroke="midnightblue" points="508.79,-415.25 518.94,-412.22 509.11,-408.26 508.79,-415.25"/>
</g>
<!-- Node32 -->
<g id="node9" class="node">
<title>Node32</title>
<g id="a_node9"><a xlink:href="libbf_8h.html#ae69271a2b54f2ce850db0c96c3b20a82" target="_top" xlink:title=" ">
<polygon fill="none" stroke="red" points="390.5,-342.5 390.5,-361.5 454.5,-361.5 454.5,-342.5 390.5,-342.5"/>
<text text-anchor="middle" x="422.5" y="-349.5" font-family="Helvetica,sans-Serif" font-size="10.00">bfdec_set</text>
</a>
</g>
</g>
<!-- Node3&#45;&gt;Node32 -->
<g id="edge9" class="edge">
<title>Node3&#45;&gt;Node32</title>
<path fill="none" stroke="midnightblue" d="M278.5,-247.6C291.9,-266.65 324.48,-309.44 362,-333 367.74,-336.6 374.22,-339.58 380.74,-342.02"/>
<polygon fill="midnightblue" stroke="midnightblue" points="379.64,-345.34 390.24,-345.22 381.88,-338.71 379.64,-345.34"/>
</g>
<!-- Node21 -->
<g id="node10" class="node">
<title>Node21</title>
<g id="a_node10"><a xlink:href="libbf_8h.html#a51327c40664840e14a608d3694536840" target="_top" xlink:title=" ">
<polygon fill="none" stroke="red" points="381.5,-304.5 381.5,-323.5 463.5,-323.5 463.5,-304.5 381.5,-304.5"/>
<text text-anchor="middle" x="422.5" y="-311.5" font-family="Helvetica,sans-Serif" font-size="10.00">bfdec_set_inf</text>
</a>
</g>
</g>
<!-- Node3&#45;&gt;Node21 -->
<g id="edge10" class="edge">
<title>Node3&#45;&gt;Node21</title>
<path fill="none" stroke="midnightblue" d="M284.81,-247.61C301.74,-259.95 332.84,-281.38 362,-295 366.67,-297.18 371.66,-299.21 376.68,-301.06"/>
<polygon fill="midnightblue" stroke="midnightblue" points="375.73,-304.43 386.32,-304.41 378.02,-297.82 375.73,-304.43"/>
</g>
<!-- Node35 -->
<g id="node11" class="node">
<title>Node35</title>
<g id="a_node11"><a xlink:href="libbf_8h.html#a432cfe0b33bf61782ef53b643aeb1e0f" target="_top" xlink:title=" ">
<polygon fill="none" stroke="red" points="379,-266.5 379,-285.5 466,-285.5 466,-266.5 379,-266.5"/>
<text text-anchor="middle" x="422.5" y="-273.5" font-family="Helvetica,sans-Serif" font-size="10.00">bfdec_set_nan</text>
</a>
</g>
</g>
<!-- Node3&#45;&gt;Node35 -->
<g id="edge11" class="edge">
<title>Node3&#45;&gt;Node35</title>
<path fill="none" stroke="midnightblue" d="M309.73,-247.59C329.28,-252.56 353.35,-258.68 374.14,-263.96"/>
<polygon fill="midnightblue" stroke="midnightblue" points="373.49,-267.41 384.05,-266.48 375.22,-260.62 373.49,-267.41"/>
</g>
<!-- Node23 -->
<g id="node12" class="node">
<title>Node23</title>
<g id="a_node12"><a xlink:href="libbf_8h.html#ab992311e37e462dff2a8c330320a06c4" target="_top" xlink:title=" ">
<polygon fill="none" stroke="red" points="377.5,-228.5 377.5,-247.5 467.5,-247.5 467.5,-228.5 377.5,-228.5"/>
<text text-anchor="middle" x="422.5" y="-235.5" font-family="Helvetica,sans-Serif" font-size="10.00">bfdec_set_zero</text>
</a>
</g>
</g>
<!-- Node3&#45;&gt;Node23 -->
<g id="edge12" class="edge">
<title>Node3&#45;&gt;Node23</title>
<path fill="none" stroke="midnightblue" d="M326.4,-238C339.57,-238 353.66,-238 366.85,-238"/>
<polygon fill="midnightblue" stroke="midnightblue" points="367.2,-241.5 377.2,-238 367.2,-234.5 367.2,-241.5"/>
</g>
<!-- Node36 -->
<g id="node13" class="node">
<title>Node36</title>
<g id="a_node13"><a xlink:href="libbf_8c.html#ad2a486c6dbbf514b13491630b508dea4" target="_top" xlink:title=" ">
<polygon fill="none" stroke="black" points="383.5,-190.5 383.5,-209.5 461.5,-209.5 461.5,-190.5 383.5,-190.5"/>
<text text-anchor="middle" x="422.5" y="-197.5" font-family="Helvetica,sans-Serif" font-size="10.00">mp_add_dec</text>
</a>
</g>
</g>
<!-- Node3&#45;&gt;Node36 -->
<g id="edge13" class="edge">
<title>Node3&#45;&gt;Node36</title>
<path fill="none" stroke="midnightblue" d="M309.73,-228.41C329.28,-223.44 353.35,-217.32 374.14,-212.04"/>
<polygon fill="midnightblue" stroke="midnightblue" points="375.22,-215.38 384.05,-209.52 373.49,-208.59 375.22,-215.38"/>
</g>
<!-- Node25 -->
<g id="node14" class="node">
<title>Node25</title>
<g id="a_node14"><a xlink:href="libbf_8c.html#a96547cfade47875f19556d435153ec47" target="_top" xlink:title=" ">
<polygon fill="none" stroke="black" points="376.5,-152.5 376.5,-171.5 468.5,-171.5 468.5,-152.5 376.5,-152.5"/>
<text text-anchor="middle" x="422.5" y="-159.5" font-family="Helvetica,sans-Serif" font-size="10.00">mp_add_ui_dec</text>
</a>
</g>
</g>
<!-- Node3&#45;&gt;Node25 -->
<g id="edge14" class="edge">
<title>Node3&#45;&gt;Node25</title>
<path fill="none" stroke="midnightblue" d="M284.81,-228.39C301.74,-216.05 332.84,-194.62 362,-181 366.67,-178.82 371.66,-176.79 376.68,-174.94"/>
<polygon fill="midnightblue" stroke="midnightblue" points="378.02,-178.18 386.32,-171.59 375.73,-171.57 378.02,-178.18"/>
</g>
<!-- Node26 -->
<g id="node15" class="node">
<title>Node26</title>
<g id="a_node15"><a xlink:href="libbf_8c.html#a9935a3a4ed68de1174a72bd753c023d8" target="_top" xlink:title=" ">
<polygon fill="none" stroke="black" points="385,-114.5 385,-133.5 460,-133.5 460,-114.5 385,-114.5"/>
<text text-anchor="middle" x="422.5" y="-121.5" font-family="Helvetica,sans-Serif" font-size="10.00">mp_shr_dec</text>
</a>
</g>
</g>
<!-- Node3&#45;&gt;Node26 -->
<g id="edge15" class="edge">
<title>Node3&#45;&gt;Node26</title>
<path fill="none" stroke="midnightblue" d="M278.5,-228.4C291.9,-209.35 324.48,-166.56 362,-143 366.14,-140.4 370.68,-138.12 375.33,-136.14"/>
<polygon fill="midnightblue" stroke="midnightblue" points="376.87,-139.3 384.97,-132.47 374.38,-132.76 376.87,-139.3"/>
</g>
<!-- Node37 -->
<g id="node16" class="node">
<title>Node37</title>
<g id="a_node16"><a xlink:href="libbf_8c.html#a83ad0dceb145acc8418d948d1d4b6175" target="_top" xlink:title=" ">
<polygon fill="none" stroke="black" points="384,-76.5 384,-95.5 461,-95.5 461,-76.5 384,-76.5"/>
<text text-anchor="middle" x="422.5" y="-83.5" font-family="Helvetica,sans-Serif" font-size="10.00">mp_sub_dec</text>
</a>
</g>
</g>
<!-- Node3&#45;&gt;Node37 -->
<g id="edge16" class="edge">
<title>Node3&#45;&gt;Node37</title>
<path fill="none" stroke="midnightblue" d="M275.84,-228.35C286.06,-203.93 316.24,-139.25 362,-105 365.81,-102.15 370.07,-99.71 374.51,-97.64"/>
<polygon fill="midnightblue" stroke="midnightblue" points="375.84,-100.87 383.78,-93.86 373.2,-94.39 375.84,-100.87"/>
</g>
<!-- Node38 -->
<g id="node17" class="node">
<title>Node38</title>
<g id="a_node17"><a xlink:href="libbf_8c.html#aa41a0b11461dfed960067174218725ab" target="_top" xlink:title=" ">
<polygon fill="none" stroke="black" points="376.5,-38.5 376.5,-57.5 468.5,-57.5 468.5,-38.5 376.5,-38.5"/>
<text text-anchor="middle" x="422.5" y="-45.5" font-family="Helvetica,sans-Serif" font-size="10.00">mp_sub_ui_dec</text>
</a>
</g>
</g>
<!-- Node3&#45;&gt;Node38 -->
<g id="edge17" class="edge">
<title>Node3&#45;&gt;Node38</title>
<path fill="none" stroke="midnightblue" d="M274.34,-228.22C281.79,-199.15 307.75,-112.48 362,-67 364.04,-65.29 366.23,-63.74 368.53,-62.32"/>
<polygon fill="midnightblue" stroke="midnightblue" points="370.54,-65.22 377.82,-57.53 367.33,-59 370.54,-65.22"/>
</g>
<!-- Node10&#45;&gt;Node19 -->
<g id="edge7" class="edge">
<title>Node10&#45;&gt;Node19</title>
<path fill="none" stroke="midnightblue" d="M483.22,-424.16C491.81,-422.74 500.55,-421.3 508.88,-419.93"/>
<polygon fill="midnightblue" stroke="midnightblue" points="509.49,-423.38 518.79,-418.3 508.35,-416.47 509.49,-423.38"/>
</g>
<!-- Node40 -->
<g id="node19" class="node">
<title>Node40</title>
<g id="a_node19"><a xlink:href="libbf_8h.html#abacc1410890af049e02ebd788364ac48" target="_top" xlink:title=" ">
<polygon fill="none" stroke="black" points="247.5,-76.5 247.5,-95.5 294.5,-95.5 294.5,-76.5 247.5,-76.5"/>
<text text-anchor="middle" x="271" y="-83.5" font-family="Helvetica,sans-Serif" font-size="10.00">bf_init</text>
</a>
</g>
</g>
<!-- Node39&#45;&gt;Node40 -->
<g id="edge19" class="edge">
<title>Node39&#45;&gt;Node40</title>
<path fill="none" stroke="midnightblue" d="M166.78,-86C186.65,-86 214.95,-86 236.9,-86"/>
<polygon fill="midnightblue" stroke="midnightblue" points="237.1,-89.5 247.1,-86 237.1,-82.5 237.1,-89.5"/>
</g>
<!-- Node41 -->
<g id="node20" class="node">
<title>Node41</title>
<g id="a_node20"><a xlink:href="libbf_8h.html#ad7ab5aff92f4e7e10b2a30e0e6b9226d" target="_top" xlink:title=" ">
<polygon fill="none" stroke="black" points="241.5,-19.5 241.5,-38.5 300.5,-38.5 300.5,-19.5 241.5,-19.5"/>
<text text-anchor="middle" x="271" y="-26.5" font-family="Helvetica,sans-Serif" font-size="10.00">bf_move</text>
</a>
</g>
</g>
<!-- Node39&#45;&gt;Node41 -->
<g id="edge20" class="edge">
<title>Node39&#45;&gt;Node41</title>
<path fill="none" stroke="midnightblue" d="M163.84,-76.46C184.53,-67.21 216.11,-53.09 239.46,-42.65"/>
<polygon fill="midnightblue" stroke="midnightblue" points="240.89,-45.85 248.59,-38.57 238.03,-39.46 240.89,-45.85"/>
</g>
<!-- Node41&#45;&gt;Node4 -->
<g id="edge21" class="edge">
<title>Node41&#45;&gt;Node4</title>
<path fill="none" stroke="midnightblue" d="M300.83,-25.34C325.29,-22.23 360.46,-17.76 386.53,-14.44"/>
<polygon fill="midnightblue" stroke="midnightblue" points="387.25,-17.88 396.73,-13.15 386.37,-10.94 387.25,-17.88"/>
</g>
</g>
</svg>
