<?xml version="1.0" encoding="UTF-8" standalone="no"?>
<!DOCTYPE svg PUBLIC "-//W3C//DTD SVG 1.1//EN"
 "http://www.w3.org/Graphics/SVG/1.1/DTD/svg11.dtd">
<!-- Generated by graphviz version 2.43.0 (0)
 -->
<!-- Title: bfdec_divrem Pages: 1 -->
<!--zoomable 719 -->
<svg id="main" version="1.1" xmlns="http://www.w3.org/2000/svg" xmlns:xlink="http://www.w3.org/1999/xlink" xml:space="preserve" onload="init(evt)">
<style type="text/css"><![CDATA[
.edge:hover path { stroke: red; }
.edge:hover polygon { stroke: red; fill: red; }
]]></style>
<script type="text/javascript"><![CDATA[
var edges = document.getElementsByTagName('g');
if (edges && edges.length) {
  for (var i=0;i<edges.length;i++) {
    if (edges[i].id.substr(0,4)=='edge') {
      edges[i].setAttribute('class','edge');
    }
  }
}
]]></script>
        <defs>
                <circle id="rim" cx="0" cy="0" r="7"/>
                <circle id="rim2" cx="0" cy="0" r="3.5"/>
                <g id="zoomPlus">
                        <use xlink:href="#rim" fill="#404040">
                                <set attributeName="fill" to="#808080" begin="zoomplus.mouseover" end="zoomplus.mouseout"/>
                        </use>
                        <path d="M-4,0h8M0,-4v8" fill="none" stroke="white" stroke-width="1.5" pointer-events="none"/>
                </g>
                <g id="zoomMin">
                        <use xlink:href="#rim" fill="#404040">
                                <set attributeName="fill" to="#808080" begin="zoomminus.mouseover" end="zoomminus.mouseout"/>
                        </use>
                        <path d="M-4,0h8" fill="none" stroke="white" stroke-width="1.5" pointer-events="none"/>
                </g>
                <g id="dirArrow">
                        <path fill="none" stroke="white" stroke-width="1.5" d="M0,-3.0v7 M-2.5,-0.5L0,-3.0L2.5,-0.5"/>
                </g>
               <g id="resetDef">
                       <use xlink:href="#rim2" fill="#404040">
                               <set attributeName="fill" to="#808080" begin="reset.mouseover" end="reset.mouseout"/>
                       </use>
               </g>
        </defs>

<script type="text/javascript">
var viewWidth = 908;
var viewHeight = 719;
var sectionId = 'dynsection-163';
</script>
<script xlink:href="svgpan.js"/>
<svg id="graph" class="graph">
<g id="viewport">
<title>bfdec_divrem</title>
<!-- Node1 -->
<g id="node1" class="node">
<title>Node1</title>
<g id="a_node1"><a xlink:title=" ">
<polygon fill="#bfbfbf" stroke="black" points="0,-228.5 0,-247.5 83,-247.5 83,-228.5 0,-228.5"/>
<text text-anchor="middle" x="41.5" y="-235.5" font-family="Helvetica,sans-Serif" font-size="10.00">bfdec_divrem</text>
</a>
</g>
</g>
<!-- Node2 -->
<g id="node2" class="node">
<title>Node2</title>
<g id="a_node2"><a xlink:href="libbf_8h.html#a7cb137686dce1e04af24aa61a1a177a6" target="_top" xlink:title=" ">
<polygon fill="none" stroke="black" points="125.5,-494.5 125.5,-513.5 205.5,-513.5 205.5,-494.5 125.5,-494.5"/>
<text text-anchor="middle" x="165.5" y="-501.5" font-family="Helvetica,sans-Serif" font-size="10.00">bfdec_add_si</text>
</a>
</g>
</g>
<!-- Node1&#45;&gt;Node2 -->
<g id="edge1" class="edge">
<title>Node1&#45;&gt;Node2</title>
<path fill="none" stroke="midnightblue" d="M44.84,-247.64C52.49,-278.22 78.66,-375.26 119,-447 127.11,-461.42 138.8,-475.98 148.3,-486.77"/>
<polygon fill="midnightblue" stroke="midnightblue" points="145.73,-489.15 155.04,-494.22 150.93,-484.45 145.73,-489.15"/>
</g>
<!-- Node44 -->
<g id="node7" class="node">
<title>Node44</title>
<g id="a_node7"><a xlink:href="libbf_8h.html#a96772409266732dd1e61dc3727571d61" target="_top" xlink:title=" ">
<polygon fill="none" stroke="black" points="248,-570.5 248,-589.5 328,-589.5 328,-570.5 248,-570.5"/>
<text text-anchor="middle" x="288" y="-577.5" font-family="Helvetica,sans-Serif" font-size="10.00">bfdec_delete</text>
</a>
</g>
</g>
<!-- Node1&#45;&gt;Node44 -->
<g id="edge21" class="edge">
<title>Node1&#45;&gt;Node44</title>
<path fill="none" stroke="midnightblue" d="M42.07,-247.62C40.82,-287.32 41.4,-440.2 119,-523 149.71,-555.76 199.93,-569.7 237.47,-575.62"/>
<polygon fill="midnightblue" stroke="midnightblue" points="237.31,-579.13 247.7,-577.09 238.3,-572.2 237.31,-579.13"/>
</g>
<!-- Node46 -->
<g id="node9" class="node">
<title>Node46</title>
<g id="a_node9"><a xlink:href="libbf_8h.html#ac9371a99b2946966d278072ee4c1e779" target="_top" xlink:title=" ">
<polygon fill="none" stroke="black" points="396.5,-266.5 396.5,-285.5 461.5,-285.5 461.5,-266.5 396.5,-266.5"/>
<text text-anchor="middle" x="429" y="-273.5" font-family="Helvetica,sans-Serif" font-size="10.00">bfdec_init</text>
</a>
</g>
</g>
<!-- Node1&#45;&gt;Node46 -->
<g id="edge22" class="edge">
<title>Node1&#45;&gt;Node46</title>
<path fill="none" stroke="midnightblue" d="M51.24,-247.61C64.38,-261.25 90.7,-285.62 119,-295 210.63,-325.38 325.79,-303.78 386.35,-288.18"/>
<polygon fill="midnightblue" stroke="midnightblue" points="387.53,-291.49 396.3,-285.55 385.74,-284.72 387.53,-291.49"/>
</g>
<!-- Node25 -->
<g id="node16" class="node">
<title>Node25</title>
<g id="a_node16"><a xlink:href="libbf_8h.html#ab992311e37e462dff2a8c330320a06c4" target="_top" xlink:title=" ">
<polygon fill="none" stroke="red" points="810,-304.5 810,-323.5 900,-323.5 900,-304.5 810,-304.5"/>
<text text-anchor="middle" x="855" y="-311.5" font-family="Helvetica,sans-Serif" font-size="10.00">bfdec_set_zero</text>
</a>
</g>
</g>
<!-- Node1&#45;&gt;Node25 -->
<g id="edge41" class="edge">
<title>Node1&#45;&gt;Node25</title>
<path fill="none" stroke="midnightblue" d="M47.7,-228.42C58.48,-209.39 85.15,-166.65 119,-143 183.63,-97.83 208.15,-86 287,-86 287,-86 287,-86 591.5,-86 719.08,-86 814.92,-241.4 844.47,-295.61"/>
<polygon fill="midnightblue" stroke="midnightblue" points="841.42,-297.32 849.21,-304.49 847.59,-294.02 841.42,-297.32"/>
</g>
<!-- Node37 -->
<g id="node17" class="node">
<title>Node37</title>
<g id="a_node17"><a xlink:href="libbf_8h.html#a432cfe0b33bf61782ef53b643aeb1e0f" target="_top" xlink:title=" ">
<polygon fill="none" stroke="red" points="547,-532.5 547,-551.5 634,-551.5 634,-532.5 547,-532.5"/>
<text text-anchor="middle" x="590.5" y="-539.5" font-family="Helvetica,sans-Serif" font-size="10.00">bfdec_set_nan</text>
</a>
</g>
</g>
<!-- Node1&#45;&gt;Node37 -->
<g id="edge40" class="edge">
<title>Node1&#45;&gt;Node37</title>
<path fill="none" stroke="midnightblue" d="M43.64,-247.51C49.53,-295.36 77.86,-509.4 119,-560 228.97,-695.27 338.89,-754.58 494,-675 540.83,-650.97 569.88,-592.12 582.37,-561.39"/>
<polygon fill="midnightblue" stroke="midnightblue" points="585.74,-562.39 586.1,-551.8 579.21,-559.85 585.74,-562.39"/>
</g>
<!-- Node9 -->
<g id="node18" class="node">
<title>Node9</title>
<g id="a_node18"><a xlink:href="libbf_8h.html#ab76f65059ac29df0d8ed9f719db8ba06" target="_top" xlink:title=" ">
<polygon fill="none" stroke="red" points="250,-190.5 250,-209.5 326,-209.5 326,-190.5 250,-190.5"/>
<text text-anchor="middle" x="288" y="-197.5" font-family="Helvetica,sans-Serif" font-size="10.00">bfdec_cmpu</text>
</a>
</g>
</g>
<!-- Node1&#45;&gt;Node9 -->
<g id="edge20" class="edge">
<title>Node1&#45;&gt;Node9</title>
<path fill="none" stroke="midnightblue" d="M83.15,-231.68C126.32,-224.97 194.49,-214.38 239.96,-207.31"/>
<polygon fill="midnightblue" stroke="midnightblue" points="240.52,-210.77 249.86,-205.77 239.44,-203.85 240.52,-210.77"/>
</g>
<!-- Node49 -->
<g id="node19" class="node">
<title>Node49</title>
<g id="a_node19"><a xlink:href="libbf_8h.html#a97b9ac0bfa60e46f0348def0decccbc8" target="_top" xlink:title=" ">
<polygon fill="none" stroke="black" points="125.5,-38.5 125.5,-57.5 205.5,-57.5 205.5,-38.5 125.5,-38.5"/>
<text text-anchor="middle" x="165.5" y="-45.5" font-family="Helvetica,sans-Serif" font-size="10.00">bfdec_is_nan</text>
</a>
</g>
</g>
<!-- Node1&#45;&gt;Node49 -->
<g id="edge23" class="edge">
<title>Node1&#45;&gt;Node49</title>
<path fill="none" stroke="midnightblue" d="M44.68,-228.14C51.26,-200.32 73.38,-120.13 119,-72 122.36,-68.46 126.35,-65.34 130.56,-62.62"/>
<polygon fill="midnightblue" stroke="midnightblue" points="132.42,-65.59 139.36,-57.59 128.95,-59.51 132.42,-65.59"/>
</g>
<!-- Node50 -->
<g id="node20" class="node">
<title>Node50</title>
<g id="a_node20"><a xlink:href="libbf_8h.html#ae5aa2c2f63fe392a1ab15f1012c512e8" target="_top" xlink:title=" ">
<polygon fill="none" stroke="black" points="125,-418.5 125,-437.5 206,-437.5 206,-418.5 125,-418.5"/>
<text text-anchor="middle" x="165.5" y="-425.5" font-family="Helvetica,sans-Serif" font-size="10.00">bfdec_mul_si</text>
</a>
</g>
</g>
<!-- Node1&#45;&gt;Node50 -->
<g id="edge24" class="edge">
<title>Node1&#45;&gt;Node50</title>
<path fill="none" stroke="midnightblue" d="M48.72,-247.68C68.05,-277.79 127.31,-370.08 152.73,-409.66"/>
<polygon fill="midnightblue" stroke="midnightblue" points="149.8,-411.58 158.15,-418.11 155.69,-407.8 149.8,-411.58"/>
</g>
<!-- Node56 -->
<g id="node24" class="node">
<title>Node56</title>
<g id="a_node24"><a xlink:href="libbf_8h.html#a807d4e601bf73a30844a7c84f34961f1" target="_top" xlink:title=" ">
<polygon fill="none" stroke="black" points="552,-171.5 552,-190.5 629,-190.5 629,-171.5 552,-171.5"/>
<text text-anchor="middle" x="590.5" y="-178.5" font-family="Helvetica,sans-Serif" font-size="10.00">bfdec_round</text>
</a>
</g>
</g>
<!-- Node1&#45;&gt;Node56 -->
<g id="edge37" class="edge">
<title>Node1&#45;&gt;Node56</title>
<path fill="none" stroke="midnightblue" d="M51.95,-228.24C65.55,-214.76 91.98,-190.57 119,-177 171.98,-150.39 189.2,-150.62 248,-143 353.85,-129.28 478.56,-153.31 544.06,-169.01"/>
<polygon fill="midnightblue" stroke="midnightblue" points="543.51,-172.48 554.05,-171.45 545.17,-165.68 543.51,-172.48"/>
</g>
<!-- Node34 -->
<g id="node25" class="node">
<title>Node34</title>
<g id="a_node25"><a xlink:href="libbf_8h.html#ae69271a2b54f2ce850db0c96c3b20a82" target="_top" xlink:title=" ">
<polygon fill="none" stroke="red" points="256,-152.5 256,-171.5 320,-171.5 320,-152.5 256,-152.5"/>
<text text-anchor="middle" x="288" y="-159.5" font-family="Helvetica,sans-Serif" font-size="10.00">bfdec_set</text>
</a>
</g>
</g>
<!-- Node1&#45;&gt;Node34 -->
<g id="edge39" class="edge">
<title>Node1&#45;&gt;Node34</title>
<path fill="none" stroke="midnightblue" d="M65.03,-228.43C80.15,-222.2 100.59,-214.11 119,-208 161.66,-193.84 211.41,-180.62 245.64,-172.02"/>
<polygon fill="midnightblue" stroke="midnightblue" points="246.88,-175.31 255.74,-169.5 245.19,-168.52 246.88,-175.31"/>
</g>
<!-- Node57 -->
<g id="node26" class="node">
<title>Node57</title>
<g id="a_node26"><a xlink:href="libbf_8h.html#ac3255e37957d4be7117b1d9bfc4fcf11" target="_top" xlink:title=" ">
<polygon fill="none" stroke="black" points="255,-228.5 255,-247.5 321,-247.5 321,-228.5 255,-228.5"/>
<text text-anchor="middle" x="288" y="-235.5" font-family="Helvetica,sans-Serif" font-size="10.00">bfdec_sub</text>
</a>
</g>
</g>
<!-- Node1&#45;&gt;Node57 -->
<g id="edge42" class="edge">
<title>Node1&#45;&gt;Node57</title>
<path fill="none" stroke="midnightblue" d="M83.15,-238C127.87,-238 199.41,-238 244.75,-238"/>
<polygon fill="midnightblue" stroke="midnightblue" points="244.85,-241.5 254.85,-238 244.85,-234.5 244.85,-241.5"/>
</g>
<!-- Node59 -->
<g id="node28" class="node">
<title>Node59</title>
<g id="a_node28"><a xlink:href="libbf_8c.html#a4fe4f91a21701a55cffbc44f1eb141b6" target="_top" xlink:title=" ">
<polygon fill="none" stroke="black" points="119,-266.5 119,-285.5 212,-285.5 212,-266.5 119,-266.5"/>
<text text-anchor="middle" x="165.5" y="-273.5" font-family="Helvetica,sans-Serif" font-size="10.00">bfdec_tdivremu</text>
</a>
</g>
</g>
<!-- Node1&#45;&gt;Node59 -->
<g id="edge45" class="edge">
<title>Node1&#45;&gt;Node59</title>
<path fill="none" stroke="midnightblue" d="M73.29,-247.59C88.6,-252.36 107.32,-258.19 123.8,-263.32"/>
<polygon fill="midnightblue" stroke="midnightblue" points="123.14,-266.78 133.72,-266.41 125.22,-260.1 123.14,-266.78"/>
</g>
<!-- Node16 -->
<g id="node30" class="node">
<title>Node16</title>
<g id="a_node30"><a xlink:href="libbf_8c.html#a4ae6bd03b3af1b742666f50df5a52cb9" target="_top" xlink:title=" ">
<polygon fill="none" stroke="red" points="136,-0.5 136,-19.5 195,-19.5 195,-0.5 136,-0.5"/>
<text text-anchor="middle" x="165.5" y="-7.5" font-family="Helvetica,sans-Serif" font-size="10.00">get_digit</text>
</a>
</g>
</g>
<!-- Node1&#45;&gt;Node16 -->
<g id="edge53" class="edge">
<title>Node1&#45;&gt;Node16</title>
<path fill="none" stroke="midnightblue" d="M43.34,-228.25C46.65,-195.65 61.59,-89.04 119,-29 121.31,-26.59 123.97,-24.47 126.82,-22.61"/>
<polygon fill="midnightblue" stroke="midnightblue" points="128.64,-25.6 135.79,-17.78 125.33,-19.44 128.64,-25.6"/>
</g>
<!-- Node3 -->
<g id="node3" class="node">
<title>Node3</title>
<g id="a_node3"><a xlink:href="libbf_8h.html#a2ab5a868db6e2d3d41c9b95e561054d3" target="_top" xlink:title=" ">
<polygon fill="none" stroke="black" points="254.5,-532.5 254.5,-551.5 321.5,-551.5 321.5,-532.5 254.5,-532.5"/>
<text text-anchor="middle" x="288" y="-539.5" font-family="Helvetica,sans-Serif" font-size="10.00">bfdec_add</text>
</a>
</g>
</g>
<!-- Node2&#45;&gt;Node3 -->
<g id="edge2" class="edge">
<title>Node2&#45;&gt;Node3</title>
<path fill="none" stroke="midnightblue" d="M196.91,-513.59C212.03,-518.36 230.52,-524.19 246.8,-529.32"/>
<polygon fill="midnightblue" stroke="midnightblue" points="246.01,-532.74 256.6,-532.41 248.12,-526.07 246.01,-532.74"/>
</g>
<!-- Node2&#45;&gt;Node44 -->
<g id="edge6" class="edge">
<title>Node2&#45;&gt;Node44</title>
<path fill="none" stroke="midnightblue" d="M178.8,-513.52C194.41,-525.39 222.4,-545.94 248,-561 250.7,-562.59 253.56,-564.17 256.45,-565.69"/>
<polygon fill="midnightblue" stroke="midnightblue" points="255.13,-568.95 265.63,-570.34 258.29,-562.7 255.13,-568.95"/>
</g>
<!-- Node2&#45;&gt;Node46 -->
<g id="edge8" class="edge">
<title>Node2&#45;&gt;Node46</title>
<path fill="none" stroke="midnightblue" d="M174.06,-494.31C190.85,-472.94 231.07,-422.62 248,-409 279.45,-383.7 299.37,-394.46 328,-366 351.7,-342.45 338.77,-321.91 364,-300 370.57,-294.3 378.62,-289.89 386.78,-286.51"/>
<polygon fill="midnightblue" stroke="midnightblue" points="388.14,-289.74 396.31,-282.99 385.71,-283.17 388.14,-289.74"/>
</g>
<!-- Node47 -->
<g id="node10" class="node">
<title>Node47</title>
<g id="a_node10"><a xlink:href="libbf_8h.html#a4c3b1cee330551b12fd6ae2fe5421031" target="_top" xlink:title=" ">
<polygon fill="none" stroke="black" points="249.5,-494.5 249.5,-513.5 326.5,-513.5 326.5,-494.5 249.5,-494.5"/>
<text text-anchor="middle" x="288" y="-501.5" font-family="Helvetica,sans-Serif" font-size="10.00">bfdec_set_si</text>
</a>
</g>
</g>
<!-- Node2&#45;&gt;Node47 -->
<g id="edge10" class="edge">
<title>Node2&#45;&gt;Node47</title>
<path fill="none" stroke="midnightblue" d="M205.62,-504C216.36,-504 228.11,-504 239.27,-504"/>
<polygon fill="midnightblue" stroke="midnightblue" points="239.3,-507.5 249.3,-504 239.3,-500.5 239.3,-507.5"/>
</g>
<!-- Node4 -->
<g id="node4" class="node">
<title>Node4</title>
<g id="a_node4"><a xlink:href="libbf_8c.html#aa5c7e54724217d71eb29c55c98e2413f" target="_top" xlink:title=" ">
<polygon fill="none" stroke="red" points="390.5,-608.5 390.5,-627.5 467.5,-627.5 467.5,-608.5 390.5,-608.5"/>
<text text-anchor="middle" x="429" y="-615.5" font-family="Helvetica,sans-Serif" font-size="10.00">__bfdec_add</text>
</a>
</g>
</g>
<!-- Node3&#45;&gt;Node4 -->
<g id="edge3" class="edge">
<title>Node3&#45;&gt;Node4</title>
<path fill="none" stroke="midnightblue" d="M311.48,-551.58C317.06,-554.33 322.89,-557.52 328,-561 345.94,-573.21 345.5,-582.65 364,-594 370.76,-598.15 378.34,-601.76 385.87,-604.84"/>
<polygon fill="midnightblue" stroke="midnightblue" points="384.71,-608.15 395.3,-608.46 387.22,-601.61 384.71,-608.15"/>
</g>
<!-- Node41 -->
<g id="node5" class="node">
<title>Node41</title>
<g id="a_node5"><a xlink:href="libbf_8c.html#a3ebbc1c7473b2ad84ced2b263bf38bae" target="_top" xlink:title=" ">
<polygon fill="none" stroke="red" points="404,-228.5 404,-247.5 454,-247.5 454,-228.5 404,-228.5"/>
<text text-anchor="middle" x="429" y="-235.5" font-family="Helvetica,sans-Serif" font-size="10.00">bf_op2</text>
</a>
</g>
</g>
<!-- Node3&#45;&gt;Node41 -->
<g id="edge4" class="edge">
<title>Node3&#45;&gt;Node41</title>
<path fill="none" stroke="midnightblue" d="M317.53,-532.32C321.57,-529.85 325.26,-526.78 328,-523 397.9,-426.32 286.38,-347.6 364,-257 371.51,-248.24 382.85,-243.42 393.91,-240.8"/>
<polygon fill="midnightblue" stroke="midnightblue" points="394.67,-244.22 403.87,-238.96 393.41,-237.33 394.67,-244.22"/>
</g>
<!-- Node42 -->
<g id="node6" class="node">
<title>Node42</title>
<g id="a_node6"><a xlink:href="libbf_8h.html#abacc1410890af049e02ebd788364ac48" target="_top" xlink:title=" ">
<polygon fill="none" stroke="black" points="567,-247.5 567,-266.5 614,-266.5 614,-247.5 567,-247.5"/>
<text text-anchor="middle" x="590.5" y="-254.5" font-family="Helvetica,sans-Serif" font-size="10.00">bf_init</text>
</a>
</g>
</g>
<!-- Node41&#45;&gt;Node42 -->
<g id="edge5" class="edge">
<title>Node41&#45;&gt;Node42</title>
<path fill="none" stroke="midnightblue" d="M454.22,-240.89C481.59,-244.15 526.26,-249.47 556.73,-253.1"/>
<polygon fill="midnightblue" stroke="midnightblue" points="556.51,-256.6 566.86,-254.3 557.34,-249.64 556.51,-256.6"/>
</g>
<!-- Node45 -->
<g id="node8" class="node">
<title>Node45</title>
<g id="a_node8"><a xlink:href="libbf_8h.html#a2b9d906b21e903f2f7f1c9044674ab7d" target="_top" xlink:title=" ">
<polygon fill="none" stroke="red" points="398,-646.5 398,-665.5 460,-665.5 460,-646.5 398,-646.5"/>
<text text-anchor="middle" x="429" y="-653.5" font-family="Helvetica,sans-Serif" font-size="10.00">bf_delete</text>
</a>
</g>
</g>
<!-- Node44&#45;&gt;Node45 -->
<g id="edge7" class="edge">
<title>Node44&#45;&gt;Node45</title>
<path fill="none" stroke="midnightblue" d="M299.34,-589.84C313.09,-602.42 338.62,-624.13 364,-637 371.5,-640.8 379.88,-643.97 388.05,-646.57"/>
<polygon fill="midnightblue" stroke="midnightblue" points="387.25,-649.98 397.83,-649.45 389.23,-643.27 387.25,-649.98"/>
</g>
<!-- Node46&#45;&gt;Node42 -->
<g id="edge9" class="edge">
<title>Node46&#45;&gt;Node42</title>
<path fill="none" stroke="midnightblue" d="M461.51,-272.25C489.04,-268.97 528.86,-264.22 556.75,-260.9"/>
<polygon fill="midnightblue" stroke="midnightblue" points="557.29,-264.36 566.81,-259.7 556.47,-257.41 557.29,-264.36"/>
</g>
<!-- Node48 -->
<g id="node11" class="node">
<title>Node48</title>
<g id="a_node11"><a xlink:href="libbf_8h.html#a3a0734cc58dd4feba2c300d053f53e36" target="_top" xlink:title=" ">
<polygon fill="none" stroke="black" points="390,-494.5 390,-513.5 468,-513.5 468,-494.5 390,-494.5"/>
<text text-anchor="middle" x="429" y="-501.5" font-family="Helvetica,sans-Serif" font-size="10.00">bfdec_set_ui</text>
</a>
</g>
</g>
<!-- Node47&#45;&gt;Node48 -->
<g id="edge11" class="edge">
<title>Node47&#45;&gt;Node48</title>
<path fill="none" stroke="midnightblue" d="M326.62,-504C342.86,-504 362.08,-504 379.38,-504"/>
<polygon fill="midnightblue" stroke="midnightblue" points="379.87,-507.5 389.87,-504 379.87,-500.5 379.87,-507.5"/>
</g>
<!-- Node12 -->
<g id="node12" class="node">
<title>Node12</title>
<g id="a_node12"><a xlink:href="libbf_8h.html#acd3459551d5c61344889ba07a276b0a0" target="_top" xlink:title=" ">
<polygon fill="none" stroke="red" points="530,-445 530,-475 651,-475 651,-445 530,-445"/>
<text text-anchor="start" x="538" y="-463" font-family="Helvetica,sans-Serif" font-size="10.00">bfdec_normalize_and</text>
<text text-anchor="middle" x="590.5" y="-452" font-family="Helvetica,sans-Serif" font-size="10.00">_round</text>
</a>
</g>
</g>
<!-- Node48&#45;&gt;Node12 -->
<g id="edge12" class="edge">
<title>Node48&#45;&gt;Node12</title>
<path fill="none" stroke="midnightblue" d="M464.61,-494.45C482.33,-489.57 504.48,-483.45 525.18,-477.74"/>
<polygon fill="midnightblue" stroke="midnightblue" points="526.18,-481.1 534.89,-475.07 524.32,-474.35 526.18,-481.1"/>
</g>
<!-- Node21 -->
<g id="node14" class="node">
<title>Node21</title>
<g id="a_node14"><a xlink:href="libbf_8h.html#aa84c22d9104847e3aa0ab161a8c2af22" target="_top" xlink:title=" ">
<polygon fill="none" stroke="red" points="816,-475.5 816,-494.5 894,-494.5 894,-475.5 816,-475.5"/>
<text text-anchor="middle" x="855" y="-482.5" font-family="Helvetica,sans-Serif" font-size="10.00">bfdec_resize</text>
</a>
</g>
</g>
<!-- Node48&#45;&gt;Node21 -->
<g id="edge18" class="edge">
<title>Node48&#45;&gt;Node21</title>
<path fill="none" stroke="midnightblue" d="M468,-502.3C545.27,-498.83 720.59,-490.98 805.76,-487.16"/>
<polygon fill="midnightblue" stroke="midnightblue" points="806.1,-490.65 815.93,-486.71 805.79,-483.66 806.1,-490.65"/>
</g>
<!-- Node48&#45;&gt;Node37 -->
<g id="edge19" class="edge">
<title>Node48&#45;&gt;Node37</title>
<path fill="none" stroke="midnightblue" d="M468.2,-513.1C489.56,-518.19 516.43,-524.59 539.45,-530.07"/>
<polygon fill="midnightblue" stroke="midnightblue" points="538.84,-533.53 549.38,-532.44 540.47,-526.72 538.84,-533.53"/>
</g>
<!-- Node13 -->
<g id="node13" class="node">
<title>Node13</title>
<g id="a_node13"><a xlink:href="libbf_8c.html#aec64568757dfbfcb93d12168d4a9306a" target="_top" xlink:title=" ">
<polygon fill="none" stroke="red" points="687,-418.5 687,-437.5 774,-437.5 774,-418.5 687,-418.5"/>
<text text-anchor="middle" x="730.5" y="-425.5" font-family="Helvetica,sans-Serif" font-size="10.00">__bfdec_round</text>
</a>
</g>
</g>
<!-- Node12&#45;&gt;Node13 -->
<g id="edge13" class="edge">
<title>Node12&#45;&gt;Node13</title>
<path fill="none" stroke="midnightblue" d="M651.23,-446.15C660.33,-444.04 669.65,-441.88 678.54,-439.82"/>
<polygon fill="midnightblue" stroke="midnightblue" points="679.42,-443.21 688.37,-437.54 677.83,-436.39 679.42,-443.21"/>
</g>
<!-- Node12&#45;&gt;Node21 -->
<g id="edge17" class="edge">
<title>Node12&#45;&gt;Node21</title>
<path fill="none" stroke="midnightblue" d="M651.07,-465.67C697.84,-470.13 762.13,-476.25 805.73,-480.4"/>
<polygon fill="midnightblue" stroke="midnightblue" points="805.5,-483.9 815.79,-481.36 806.17,-476.93 805.5,-483.9"/>
</g>
<!-- Node13&#45;&gt;Node21 -->
<g id="edge14" class="edge">
<title>Node13&#45;&gt;Node21</title>
<path fill="none" stroke="midnightblue" d="M752,-437.54C771.79,-446.75 801.96,-460.78 824.36,-471.21"/>
<polygon fill="midnightblue" stroke="midnightblue" points="822.89,-474.38 833.43,-475.43 825.84,-468.04 822.89,-474.38"/>
</g>
<!-- Node23 -->
<g id="node15" class="node">
<title>Node23</title>
<g id="a_node15"><a xlink:href="libbf_8h.html#a51327c40664840e14a608d3694536840" target="_top" xlink:title=" ">
<polygon fill="none" stroke="red" points="814,-399.5 814,-418.5 896,-418.5 896,-399.5 814,-399.5"/>
<text text-anchor="middle" x="855" y="-406.5" font-family="Helvetica,sans-Serif" font-size="10.00">bfdec_set_inf</text>
</a>
</g>
</g>
<!-- Node13&#45;&gt;Node23 -->
<g id="edge15" class="edge">
<title>Node13&#45;&gt;Node23</title>
<path fill="none" stroke="midnightblue" d="M774,-421.41C783.54,-419.93 793.75,-418.34 803.58,-416.82"/>
<polygon fill="midnightblue" stroke="midnightblue" points="804.29,-420.25 813.64,-415.26 803.22,-413.33 804.29,-420.25"/>
</g>
<!-- Node13&#45;&gt;Node25 -->
<g id="edge16" class="edge">
<title>Node13&#45;&gt;Node25</title>
<path fill="none" stroke="midnightblue" d="M741.94,-418.28C762.83,-398.85 809.95,-354.99 835.95,-330.8"/>
<polygon fill="midnightblue" stroke="midnightblue" points="838.65,-333.07 843.58,-323.69 833.88,-327.95 838.65,-333.07"/>
</g>
<!-- Node50&#45;&gt;Node44 -->
<g id="edge25" class="edge">
<title>Node50&#45;&gt;Node44</title>
<path fill="none" stroke="midnightblue" d="M175.29,-437.57C185.04,-448.5 200.87,-467.17 212,-485 231.79,-516.71 221.72,-534.43 248,-561 249.39,-562.41 250.91,-563.72 252.51,-564.95"/>
<polygon fill="midnightblue" stroke="midnightblue" points="250.72,-567.97 261.02,-570.42 254.5,-562.07 250.72,-567.97"/>
</g>
<!-- Node50&#45;&gt;Node46 -->
<g id="edge26" class="edge">
<title>Node50&#45;&gt;Node46</title>
<path fill="none" stroke="midnightblue" d="M181.15,-418.48C197.4,-407.96 224.45,-390.57 248,-376 283.26,-354.18 293.79,-351.44 328,-328 344.72,-316.54 346.31,-309.89 364,-300 371.29,-295.92 379.41,-292.27 387.35,-289.13"/>
<polygon fill="midnightblue" stroke="midnightblue" points="388.75,-292.34 396.88,-285.54 386.29,-285.79 388.75,-292.34"/>
</g>
<!-- Node50&#45;&gt;Node47 -->
<g id="edge36" class="edge">
<title>Node50&#45;&gt;Node47</title>
<path fill="none" stroke="midnightblue" d="M181.47,-437.66C197.79,-448.15 224.68,-465.38 248,-480 252.8,-483.01 257.95,-486.2 262.88,-489.24"/>
<polygon fill="midnightblue" stroke="midnightblue" points="261.05,-492.23 271.4,-494.48 264.72,-486.26 261.05,-492.23"/>
</g>
<!-- Node51 -->
<g id="node21" class="node">
<title>Node51</title>
<g id="a_node21"><a xlink:href="libbf_8h.html#a2afc9f7c942c27cc609877c776dd9a69" target="_top" xlink:title=" ">
<polygon fill="none" stroke="black" points="254,-418.5 254,-437.5 322,-437.5 322,-418.5 254,-418.5"/>
<text text-anchor="middle" x="288" y="-425.5" font-family="Helvetica,sans-Serif" font-size="10.00">bfdec_mul</text>
</a>
</g>
</g>
<!-- Node50&#45;&gt;Node51 -->
<g id="edge27" class="edge">
<title>Node50&#45;&gt;Node51</title>
<path fill="none" stroke="midnightblue" d="M206.29,-428C218.17,-428 231.25,-428 243.36,-428"/>
<polygon fill="midnightblue" stroke="midnightblue" points="243.69,-431.5 253.69,-428 243.69,-424.5 243.69,-431.5"/>
</g>
<!-- Node51&#45;&gt;Node46 -->
<g id="edge28" class="edge">
<title>Node51&#45;&gt;Node46</title>
<path fill="none" stroke="midnightblue" d="M310.47,-418.33C316.82,-414.61 323.32,-409.83 328,-404 358.61,-365.85 329.86,-335.03 364,-300 370.26,-293.58 378.4,-288.86 386.76,-285.39"/>
<polygon fill="midnightblue" stroke="midnightblue" points="387.99,-288.67 396.22,-281.99 385.62,-282.08 387.99,-288.67"/>
</g>
<!-- Node51&#45;&gt;Node12 -->
<g id="edge30" class="edge">
<title>Node51&#45;&gt;Node12</title>
<path fill="none" stroke="midnightblue" d="M322.11,-434.95C335.12,-437.48 350.21,-440.17 364,-442 416.01,-448.91 475.15,-453.51 519.81,-456.33"/>
<polygon fill="midnightblue" stroke="midnightblue" points="519.78,-459.83 529.97,-456.96 520.21,-452.85 519.78,-459.83"/>
</g>
<!-- Node51&#45;&gt;Node21 -->
<g id="edge31" class="edge">
<title>Node51&#45;&gt;Node21</title>
<path fill="none" stroke="midnightblue" d="M296.2,-437.9C304.25,-449.12 317.55,-468.06 328,-485 345.34,-513.1 336.12,-532.3 364,-550 516.51,-646.81 749.51,-540.47 827.52,-499.61"/>
<polygon fill="midnightblue" stroke="midnightblue" points="829.47,-502.53 836.66,-494.74 826.18,-496.35 829.47,-502.53"/>
</g>
<!-- Node51&#45;&gt;Node23 -->
<g id="edge32" class="edge">
<title>Node51&#45;&gt;Node23</title>
<path fill="none" stroke="midnightblue" d="M322,-425.89C390.16,-421.65 551.45,-412.23 687,-409 726.1,-408.07 770.37,-408.12 803.49,-408.37"/>
<polygon fill="midnightblue" stroke="midnightblue" points="803.81,-411.88 813.84,-408.46 803.87,-404.88 803.81,-411.88"/>
</g>
<!-- Node51&#45;&gt;Node25 -->
<g id="edge34" class="edge">
<title>Node51&#45;&gt;Node25</title>
<path fill="none" stroke="midnightblue" d="M306.72,-418.28C313.94,-413.71 321.99,-407.77 328,-401 350.7,-375.43 335.05,-351.2 364,-333 435.11,-288.29 687.76,-301.22 799.81,-309.49"/>
<polygon fill="midnightblue" stroke="midnightblue" points="799.65,-312.99 809.88,-310.25 800.17,-306.01 799.65,-312.99"/>
</g>
<!-- Node51&#45;&gt;Node37 -->
<g id="edge33" class="edge">
<title>Node51&#45;&gt;Node37</title>
<path fill="none" stroke="midnightblue" d="M295.11,-437.56C309.42,-459.61 345.31,-512.95 364,-523 417.52,-551.77 488.67,-552.71 536.62,-548.95"/>
<polygon fill="midnightblue" stroke="midnightblue" points="537.13,-552.42 546.78,-548.06 536.51,-545.45 537.13,-552.42"/>
</g>
<!-- Node52 -->
<g id="node22" class="node">
<title>Node52</title>
<g id="a_node22"><a xlink:href="libbf_8h.html#a61eaacce56ae40e8efdf0db48f86b28b" target="_top" xlink:title=" ">
<polygon fill="none" stroke="red" points="390.5,-380.5 390.5,-399.5 467.5,-399.5 467.5,-380.5 390.5,-380.5"/>
<text text-anchor="middle" x="429" y="-387.5" font-family="Helvetica,sans-Serif" font-size="10.00">bfdec_move</text>
</a>
</g>
</g>
<!-- Node51&#45;&gt;Node52 -->
<g id="edge29" class="edge">
<title>Node51&#45;&gt;Node52</title>
<path fill="none" stroke="midnightblue" d="M322.29,-418.9C340.57,-413.9 363.48,-407.64 383.3,-402.22"/>
<polygon fill="midnightblue" stroke="midnightblue" points="384.31,-405.57 393.04,-399.56 382.47,-398.82 384.31,-405.57"/>
</g>
<!-- Node53 -->
<g id="node23" class="node">
<title>Node53</title>
<g id="a_node23"><a xlink:href="libbf_8c.html#a6706f2e3c674b947985821ba58c687cb" target="_top" xlink:title=" ">
<polygon fill="none" stroke="red" points="364,-342.5 364,-361.5 494,-361.5 494,-342.5 364,-342.5"/>
<text text-anchor="middle" x="429" y="-349.5" font-family="Helvetica,sans-Serif" font-size="10.00">mp_mul_basecase_dec</text>
</a>
</g>
</g>
<!-- Node51&#45;&gt;Node53 -->
<g id="edge35" class="edge">
<title>Node51&#45;&gt;Node53</title>
<path fill="none" stroke="midnightblue" d="M306.16,-418.4C313.14,-414.25 321.15,-409.17 328,-404 345.32,-390.92 345.11,-381.7 364,-371 367.91,-368.79 372.1,-366.81 376.39,-365.05"/>
<polygon fill="midnightblue" stroke="midnightblue" points="377.75,-368.28 385.91,-361.52 375.31,-361.71 377.75,-368.28"/>
</g>
<!-- Node56&#45;&gt;Node13 -->
<g id="edge38" class="edge">
<title>Node56&#45;&gt;Node13</title>
<path fill="none" stroke="midnightblue" d="M604.39,-190.67C617.57,-201.12 637.93,-218.86 651,-238 689.5,-294.35 714.28,-372.53 724.36,-408.48"/>
<polygon fill="midnightblue" stroke="midnightblue" points="721.01,-409.49 727.01,-418.22 727.76,-407.65 721.01,-409.49"/>
</g>
<!-- Node57&#45;&gt;Node41 -->
<g id="edge44" class="edge">
<title>Node57&#45;&gt;Node41</title>
<path fill="none" stroke="midnightblue" d="M321.24,-238C342.88,-238 371.36,-238 393.47,-238"/>
<polygon fill="midnightblue" stroke="midnightblue" points="393.75,-241.5 403.75,-238 393.75,-234.5 393.75,-241.5"/>
</g>
<!-- Node58 -->
<g id="node27" class="node">
<title>Node58</title>
<g id="a_node27"><a xlink:href="libbf_8c.html#ac10038dd7f04c765ddc8fdb12e3257a2" target="_top" xlink:title=" ">
<polygon fill="none" stroke="red" points="390.5,-190.5 390.5,-209.5 467.5,-209.5 467.5,-190.5 390.5,-190.5"/>
<text text-anchor="middle" x="429" y="-197.5" font-family="Helvetica,sans-Serif" font-size="10.00">__bfdec_sub</text>
</a>
</g>
</g>
<!-- Node57&#45;&gt;Node58 -->
<g id="edge43" class="edge">
<title>Node57&#45;&gt;Node58</title>
<path fill="none" stroke="midnightblue" d="M321.24,-229.19C339.63,-224.16 362.95,-217.78 383.11,-212.27"/>
<polygon fill="midnightblue" stroke="midnightblue" points="384.29,-215.58 393.01,-209.56 382.45,-208.83 384.29,-215.58"/>
</g>
<!-- Node59&#45;&gt;Node48 -->
<g id="edge51" class="edge">
<title>Node59&#45;&gt;Node48</title>
<path fill="none" stroke="midnightblue" d="M168.32,-285.77C174.23,-314.81 195.66,-401.43 248,-447 267.87,-464.3 333.73,-482.34 380,-493.38"/>
<polygon fill="midnightblue" stroke="midnightblue" points="379.31,-496.81 389.85,-495.69 380.91,-489.99 379.31,-496.81"/>
</g>
<!-- Node59&#45;&gt;Node9 -->
<g id="edge46" class="edge">
<title>Node59&#45;&gt;Node9</title>
<path fill="none" stroke="midnightblue" d="M178.8,-266.48C194.41,-254.61 222.4,-234.06 248,-219 250.7,-217.41 253.56,-215.83 256.45,-214.31"/>
<polygon fill="midnightblue" stroke="midnightblue" points="258.29,-217.3 265.63,-209.66 255.13,-211.05 258.29,-217.3"/>
</g>
<!-- Node59&#45;&gt;Node51 -->
<g id="edge49" class="edge">
<title>Node59&#45;&gt;Node51</title>
<path fill="none" stroke="midnightblue" d="M174.04,-285.51C193.82,-310.46 247.45,-378.11 273.04,-410.39"/>
<polygon fill="midnightblue" stroke="midnightblue" points="270.51,-412.83 279.47,-418.5 276,-408.48 270.51,-412.83"/>
</g>
<!-- Node59&#45;&gt;Node34 -->
<g id="edge50" class="edge">
<title>Node59&#45;&gt;Node34</title>
<path fill="none" stroke="midnightblue" d="M172.85,-266.23C185.34,-247.61 214.8,-206.63 248,-181 250.03,-179.43 252.22,-177.94 254.48,-176.54"/>
<polygon fill="midnightblue" stroke="midnightblue" points="256.36,-179.5 263.4,-171.58 252.96,-173.38 256.36,-179.5"/>
</g>
<!-- Node59&#45;&gt;Node57 -->
<g id="edge52" class="edge">
<title>Node59&#45;&gt;Node57</title>
<path fill="none" stroke="midnightblue" d="M196.91,-266.41C212.03,-261.64 230.52,-255.81 246.8,-250.68"/>
<polygon fill="midnightblue" stroke="midnightblue" points="248.12,-253.93 256.6,-247.59 246.01,-247.26 248.12,-253.93"/>
</g>
<!-- Node60 -->
<g id="node29" class="node">
<title>Node60</title>
<g id="a_node29"><a xlink:href="libbf_8h.html#a10de87f3c9d3dc623ca131eaa468dd1b" target="_top" xlink:title=" ">
<polygon fill="none" stroke="red" points="256,-266.5 256,-285.5 320,-285.5 320,-266.5 256,-266.5"/>
<text text-anchor="middle" x="288" y="-273.5" font-family="Helvetica,sans-Serif" font-size="10.00">bfdec_div</text>
</a>
</g>
</g>
<!-- Node59&#45;&gt;Node60 -->
<g id="edge47" class="edge">
<title>Node59&#45;&gt;Node60</title>
<path fill="none" stroke="midnightblue" d="M212.06,-276C223.17,-276 234.99,-276 245.88,-276"/>
<polygon fill="midnightblue" stroke="midnightblue" points="245.98,-279.5 255.98,-276 245.98,-272.5 245.98,-279.5"/>
</g>
<!-- Node60&#45;&gt;Node41 -->
<g id="edge48" class="edge">
<title>Node60&#45;&gt;Node41</title>
<path fill="none" stroke="midnightblue" d="M320.19,-267.47C342.13,-261.48 371.47,-253.46 394,-247.3"/>
<polygon fill="midnightblue" stroke="midnightblue" points="395.1,-250.62 403.82,-244.61 393.25,-243.87 395.1,-250.62"/>
</g>
</g>
</svg>
        <g id="navigator" transform="translate(0 0)" fill="#404254">
                <rect fill="#f2f5e9" fill-opacity="0.5" stroke="#606060" stroke-width=".5" x="0" y="0" width="60" height="60"/>
                <use id="zoomplus" xlink:href="#zoomPlus" x="17" y="9" onmousedown="handleZoom(evt,'in')"/>
                <use id="zoomminus" xlink:href="#zoomMin" x="42" y="9" onmousedown="handleZoom(evt,'out')"/>
                <use id="reset" xlink:href="#resetDef" x="30" y="36" onmousedown="handleReset()"/>
                <g id="arrowUp" xlink:href="#dirArrow" transform="translate(30 24)" onmousedown="handlePan(0,-1)">
                  <use xlink:href="#rim" fill="#404040">
                        <set attributeName="fill" to="#808080" begin="arrowUp.mouseover" end="arrowUp.mouseout"/>
                  </use>
                  <path fill="none" stroke="white" stroke-width="1.5" d="M0,-3.0v7 M-2.5,-0.5L0,-3.0L2.5,-0.5"/>
                </g>
                <g id="arrowRight" xlink:href="#dirArrow" transform="rotate(90) translate(36 -43)" onmousedown="handlePan(1,0)">
                  <use xlink:href="#rim" fill="#404040">
                        <set attributeName="fill" to="#808080" begin="arrowRight.mouseover" end="arrowRight.mouseout"/>
                  </use>
                  <path fill="none" stroke="white" stroke-width="1.5" d="M0,-3.0v7 M-2.5,-0.5L0,-3.0L2.5,-0.5"/>
                </g>
                <g id="arrowDown" xlink:href="#dirArrow" transform="rotate(180) translate(-30 -48)" onmousedown="handlePan(0,1)">
                  <use xlink:href="#rim" fill="#404040">
                        <set attributeName="fill" to="#808080" begin="arrowDown.mouseover" end="arrowDown.mouseout"/>
                  </use>
                  <path fill="none" stroke="white" stroke-width="1.5" d="M0,-3.0v7 M-2.5,-0.5L0,-3.0L2.5,-0.5"/>
                </g>
                <g id="arrowLeft" xlink:href="#dirArrow" transform="rotate(270) translate(-36 17)" onmousedown="handlePan(-1,0)">
                  <use xlink:href="#rim" fill="#404040">
                        <set attributeName="fill" to="#808080" begin="arrowLeft.mouseover" end="arrowLeft.mouseout"/>
                  </use>
                  <path fill="none" stroke="white" stroke-width="1.5" d="M0,-3.0v7 M-2.5,-0.5L0,-3.0L2.5,-0.5"/>
                </g>
        </g>
        <svg viewBox="0 0 15 15" width="100%" height="30px" preserveAspectRatio="xMaxYMin meet">
         <g id="arrow_out" transform="scale(0.3 0.3)">
          <a xlink:href="libbf_8h_a318508be097917ddd5d1ce187edea68b_cgraph_org.svg" target="_base">
           <rect id="button" ry="5" rx="5" y="6" x="6" height="38" width="38"
                fill="#f2f5e9" fill-opacity="0.5" stroke="#606060" stroke-width="1.0"/>
           <path id="arrow"
             d="M 11.500037,31.436501 C 11.940474,20.09759 22.043105,11.32322 32.158766,21.979434 L 37.068811,17.246167 C 37.068811,17.246167 37.088388,32 37.088388,32 L 22.160133,31.978069 C 22.160133,31.978069 26.997745,27.140456 26.997745,27.140456 C 18.528582,18.264221 13.291696,25.230495 11.500037,31.436501 z"
             style="fill:#404040;"/>
          </a>
         </g>
        </svg>
</svg>
