<?xml version="1.0" encoding="UTF-8" standalone="no"?>
<!DOCTYPE svg PUBLIC "-//W3C//DTD SVG 1.1//EN"
 "http://www.w3.org/Graphics/SVG/1.1/DTD/svg11.dtd">
<!-- Generated by graphviz version 2.43.0 (0)
 -->
<!-- Title: bf_tolower Pages: 1 -->
<svg width="420pt" height="104pt"
 viewBox="0.00 0.00 420.00 104.00" xmlns="http://www.w3.org/2000/svg" xmlns:xlink="http://www.w3.org/1999/xlink">
<g id="graph0" class="graph" transform="scale(1 1) rotate(0) translate(4 100)">
<title>bf_tolower</title>
<!-- Node1 -->
<g id="node1" class="node">
<title>Node1</title>
<g id="a_node1"><a xlink:title=" ">
<polygon fill="#bfbfbf" stroke="black" points="344,-38.5 344,-57.5 412,-57.5 412,-38.5 344,-38.5"/>
<text text-anchor="middle" x="378" y="-45.5" font-family="Helvetica,sans-Serif" font-size="10.00">bf_tolower</text>
</a>
</g>
</g>
<!-- Node2 -->
<g id="node2" class="node">
<title>Node2</title>
<g id="a_node2"><a xlink:href="libbf_8c.html#aa75d6561ab16b8ebce73805e4deafacd" target="_top" xlink:title=" ">
<polygon fill="none" stroke="black" points="234,-38.5 234,-57.5 308,-57.5 308,-38.5 234,-38.5"/>
<text text-anchor="middle" x="271" y="-45.5" font-family="Helvetica,sans-Serif" font-size="10.00">strcasestart</text>
</a>
</g>
</g>
<!-- Node1&#45;&gt;Node2 -->
<g id="edge1" class="edge">
<title>Node1&#45;&gt;Node2</title>
<path fill="none" stroke="midnightblue" d="M333.7,-48C325.25,-48 316.47,-48 308.28,-48"/>
<polygon fill="midnightblue" stroke="midnightblue" points="333.78,-51.5 343.78,-48 333.78,-44.5 333.78,-51.5"/>
</g>
<!-- Node3 -->
<g id="node3" class="node">
<title>Node3</title>
<g id="a_node3"><a xlink:href="libbf_8c.html#aaaeb6c790a8b174f3c5631ee33c81910" target="_top" xlink:title=" ">
<polygon fill="none" stroke="black" points="104,-38.5 104,-57.5 198,-57.5 198,-38.5 104,-38.5"/>
<text text-anchor="middle" x="151" y="-45.5" font-family="Helvetica,sans-Serif" font-size="10.00">bf_atof_internal</text>
</a>
</g>
</g>
<!-- Node2&#45;&gt;Node3 -->
<g id="edge2" class="edge">
<title>Node2&#45;&gt;Node3</title>
<path fill="none" stroke="midnightblue" d="M223.92,-48C215.5,-48 206.71,-48 198.28,-48"/>
<polygon fill="midnightblue" stroke="midnightblue" points="223.95,-51.5 233.95,-48 223.95,-44.5 223.95,-51.5"/>
</g>
<!-- Node4 -->
<g id="node4" class="node">
<title>Node4</title>
<g id="a_node4"><a xlink:href="libbf_8h.html#a85c6215e124f35f5dcadac77990a61c9" target="_top" xlink:title=" ">
<polygon fill="none" stroke="black" points="8.5,-76.5 8.5,-95.5 59.5,-95.5 59.5,-76.5 8.5,-76.5"/>
<text text-anchor="middle" x="34" y="-83.5" font-family="Helvetica,sans-Serif" font-size="10.00">bf_atof</text>
</a>
</g>
</g>
<!-- Node3&#45;&gt;Node4 -->
<g id="edge3" class="edge">
<title>Node3&#45;&gt;Node4</title>
<path fill="none" stroke="midnightblue" d="M111.29,-60.79C94.25,-66.42 74.75,-72.87 59.72,-77.83"/>
<polygon fill="midnightblue" stroke="midnightblue" points="112.58,-64.05 120.98,-57.59 110.39,-57.4 112.58,-64.05"/>
</g>
<!-- Node5 -->
<g id="node5" class="node">
<title>Node5</title>
<g id="a_node5"><a xlink:href="libbf_8h.html#ac6017f5cde57dab006383297ea94ef40" target="_top" xlink:title=" ">
<polygon fill="none" stroke="black" points="5.5,-38.5 5.5,-57.5 62.5,-57.5 62.5,-38.5 5.5,-38.5"/>
<text text-anchor="middle" x="34" y="-45.5" font-family="Helvetica,sans-Serif" font-size="10.00">bf_atof2</text>
</a>
</g>
</g>
<!-- Node3&#45;&gt;Node5 -->
<g id="edge4" class="edge">
<title>Node3&#45;&gt;Node5</title>
<path fill="none" stroke="midnightblue" d="M93.6,-48C82.81,-48 71.96,-48 62.58,-48"/>
<polygon fill="midnightblue" stroke="midnightblue" points="93.89,-51.5 103.89,-48 93.89,-44.5 93.89,-51.5"/>
</g>
<!-- Node6 -->
<g id="node6" class="node">
<title>Node6</title>
<g id="a_node6"><a xlink:href="libbf_8h.html#a221eaf9914ba5bcb299c897b62939a2e" target="_top" xlink:title=" ">
<polygon fill="none" stroke="black" points="0,-0.5 0,-19.5 68,-19.5 68,-0.5 0,-0.5"/>
<text text-anchor="middle" x="34" y="-7.5" font-family="Helvetica,sans-Serif" font-size="10.00">bfdec_atof</text>
</a>
</g>
</g>
<!-- Node3&#45;&gt;Node6 -->
<g id="edge5" class="edge">
<title>Node3&#45;&gt;Node6</title>
<path fill="none" stroke="midnightblue" d="M111.18,-35.17C95.75,-30.08 78.31,-24.31 64.01,-19.59"/>
<polygon fill="midnightblue" stroke="midnightblue" points="110.39,-38.6 120.98,-38.41 112.58,-31.95 110.39,-38.6"/>
</g>
</g>
</svg>
