<?xml version="1.0" encoding="UTF-8" standalone="no"?>
<!DOCTYPE svg PUBLIC "-//W3C//DTD SVG 1.1//EN"
 "http://www.w3.org/Graphics/SVG/1.1/DTD/svg11.dtd">
<!-- Generated by graphviz version 2.43.0 (0)
 -->
<!-- Title: bf_set_ui Pages: 1 -->
<svg width="272pt" height="85pt"
 viewBox="0.00 0.00 272.00 85.00" xmlns="http://www.w3.org/2000/svg" xmlns:xlink="http://www.w3.org/1999/xlink">
<g id="graph0" class="graph" transform="scale(1 1) rotate(0) translate(4 81)">
<title>bf_set_ui</title>
<!-- Node1 -->
<g id="node1" class="node">
<title>Node1</title>
<g id="a_node1"><a xlink:title=" ">
<polygon fill="#bfbfbf" stroke="black" points="0,-38.5 0,-57.5 61,-57.5 61,-38.5 0,-38.5"/>
<text text-anchor="middle" x="30.5" y="-45.5" font-family="Helvetica,sans-Serif" font-size="10.00">bf_set_ui</text>
</a>
</g>
</g>
<!-- Node2 -->
<g id="node2" class="node">
<title>Node2</title>
<g id="a_node2"><a xlink:href="libbf_8h.html#ab51c43b22c1a81c789ee0e3d53c0e585" target="_top" xlink:title=" ">
<polygon fill="none" stroke="black" points="203,-57.5 203,-76.5 264,-76.5 264,-57.5 203,-57.5"/>
<text text-anchor="middle" x="233.5" y="-64.5" font-family="Helvetica,sans-Serif" font-size="10.00">bf_resize</text>
</a>
</g>
</g>
<!-- Node1&#45;&gt;Node2 -->
<g id="edge1" class="edge">
<title>Node1&#45;&gt;Node2</title>
<path fill="none" stroke="midnightblue" d="M57.9,-57.5C69.69,-61.26 83.87,-65.13 97,-67 128.97,-71.54 165.62,-71.21 192.73,-69.93"/>
<polygon fill="midnightblue" stroke="midnightblue" points="193.19,-73.41 202.99,-69.38 192.82,-66.42 193.19,-73.41"/>
</g>
<!-- Node3 -->
<g id="node3" class="node">
<title>Node3</title>
<g id="a_node3"><a xlink:href="libbf_8h.html#aa6282c789c16c8cf2fe6a8ebd671c6fc" target="_top" xlink:title=" ">
<polygon fill="none" stroke="black" points="97,-38.5 97,-57.5 167,-57.5 167,-38.5 97,-38.5"/>
<text text-anchor="middle" x="132" y="-45.5" font-family="Helvetica,sans-Serif" font-size="10.00">bf_set_nan</text>
</a>
</g>
</g>
<!-- Node1&#45;&gt;Node3 -->
<g id="edge2" class="edge">
<title>Node1&#45;&gt;Node3</title>
<path fill="none" stroke="midnightblue" d="M61.08,-48C69.15,-48 78.08,-48 86.77,-48"/>
<polygon fill="midnightblue" stroke="midnightblue" points="86.81,-51.5 96.81,-48 86.81,-44.5 86.81,-51.5"/>
</g>
<!-- Node4 -->
<g id="node4" class="node">
<title>Node4</title>
<g id="a_node4"><a xlink:href="libbf_8c.html#a3ac3b86cc31b99a551947240e979c5d7" target="_top" xlink:title=" ">
<polygon fill="none" stroke="black" points="117,-0.5 117,-19.5 147,-19.5 147,-0.5 117,-0.5"/>
<text text-anchor="middle" x="132" y="-7.5" font-family="Helvetica,sans-Serif" font-size="10.00">clz</text>
</a>
</g>
</g>
<!-- Node1&#45;&gt;Node4 -->
<g id="edge4" class="edge">
<title>Node1&#45;&gt;Node4</title>
<path fill="none" stroke="midnightblue" d="M56.61,-38.41C72.14,-32.48 91.95,-24.91 107.23,-19.08"/>
<polygon fill="midnightblue" stroke="midnightblue" points="108.88,-22.2 116.97,-15.36 106.38,-15.66 108.88,-22.2"/>
</g>
<!-- Node3&#45;&gt;Node2 -->
<g id="edge3" class="edge">
<title>Node3&#45;&gt;Node2</title>
<path fill="none" stroke="midnightblue" d="M167.24,-54.54C175.48,-56.11 184.34,-57.8 192.8,-59.42"/>
<polygon fill="midnightblue" stroke="midnightblue" points="192.36,-62.9 202.84,-61.34 193.68,-56.02 192.36,-62.9"/>
</g>
<!-- Node5 -->
<g id="node5" class="node">
<title>Node5</title>
<g id="a_node5"><a xlink:href="cutils_8h.html#a28eb00e6774a2dd724b86fb6f83c1bf6" target="_top" xlink:title=" ">
<polygon fill="none" stroke="black" points="212.5,-0.5 212.5,-19.5 254.5,-19.5 254.5,-0.5 212.5,-0.5"/>
<text text-anchor="middle" x="233.5" y="-7.5" font-family="Helvetica,sans-Serif" font-size="10.00">clz64</text>
</a>
</g>
</g>
<!-- Node4&#45;&gt;Node5 -->
<g id="edge5" class="edge">
<title>Node4&#45;&gt;Node5</title>
<path fill="none" stroke="midnightblue" d="M147.26,-10C161.54,-10 183.97,-10 202.24,-10"/>
<polygon fill="midnightblue" stroke="midnightblue" points="202.42,-13.5 212.42,-10 202.42,-6.5 202.42,-13.5"/>
</g>
</g>
</svg>
