<?xml version="1.0" encoding="UTF-8" standalone="no"?>
<!DOCTYPE svg PUBLIC "-//W3C//DTD SVG 1.1//EN"
 "http://www.w3.org/Graphics/SVG/1.1/DTD/svg11.dtd">
<!-- Generated by graphviz version 2.43.0 (0)
 -->
<!-- Title: bf_mul_si Pages: 1 -->
<!--zoomable 138 -->
<svg id="main" version="1.1" xmlns="http://www.w3.org/2000/svg" xmlns:xlink="http://www.w3.org/1999/xlink" xml:space="preserve" onload="init(evt)">
<style type="text/css"><![CDATA[
.edge:hover path { stroke: red; }
.edge:hover polygon { stroke: red; fill: red; }
]]></style>
<script type="text/javascript"><![CDATA[
var edges = document.getElementsByTagName('g');
if (edges && edges.length) {
  for (var i=0;i<edges.length;i++) {
    if (edges[i].id.substr(0,4)=='edge') {
      edges[i].setAttribute('class','edge');
    }
  }
}
]]></script>
        <defs>
                <circle id="rim" cx="0" cy="0" r="7"/>
                <circle id="rim2" cx="0" cy="0" r="3.5"/>
                <g id="zoomPlus">
                        <use xlink:href="#rim" fill="#404040">
                                <set attributeName="fill" to="#808080" begin="zoomplus.mouseover" end="zoomplus.mouseout"/>
                        </use>
                        <path d="M-4,0h8M0,-4v8" fill="none" stroke="white" stroke-width="1.5" pointer-events="none"/>
                </g>
                <g id="zoomMin">
                        <use xlink:href="#rim" fill="#404040">
                                <set attributeName="fill" to="#808080" begin="zoomminus.mouseover" end="zoomminus.mouseout"/>
                        </use>
                        <path d="M-4,0h8" fill="none" stroke="white" stroke-width="1.5" pointer-events="none"/>
                </g>
                <g id="dirArrow">
                        <path fill="none" stroke="white" stroke-width="1.5" d="M0,-3.0v7 M-2.5,-0.5L0,-3.0L2.5,-0.5"/>
                </g>
               <g id="resetDef">
                       <use xlink:href="#rim2" fill="#404040">
                               <set attributeName="fill" to="#808080" begin="reset.mouseover" end="reset.mouseout"/>
                       </use>
               </g>
        </defs>

<script type="text/javascript">
var viewWidth = 533;
var viewHeight = 138;
var sectionId = 'dynsection-57';
</script>
<script xlink:href="svgpan.js"/>
<svg id="graph" class="graph">
<g id="viewport">
<title>bf_mul_si</title>
<!-- Node1 -->
<g id="node1" class="node">
<title>Node1</title>
<g id="a_node1"><a xlink:title=" ">
<polygon fill="#bfbfbf" stroke="black" points="461,-42.19 461,-61.19 525,-61.19 525,-42.19 461,-42.19"/>
<text text-anchor="middle" x="493" y="-49.19" font-family="Helvetica,sans-Serif" font-size="10.00">bf_mul_si</text>
</a>
</g>
</g>
<!-- Node2 -->
<g id="node2" class="node">
<title>Node2</title>
<g id="a_node2"><a xlink:href="libbf_8c.html#a157194b3c7faaa17e39ae78cd98c4385" target="_top" xlink:title=" ">
<polygon fill="none" stroke="black" points="318,-61.19 318,-80.19 410,-80.19 410,-61.19 318,-61.19"/>
<text text-anchor="middle" x="364" y="-68.19" font-family="Helvetica,sans-Serif" font-size="10.00">bf_exp_internal</text>
</a>
</g>
</g>
<!-- Node1&#45;&gt;Node2 -->
<g id="edge1" class="edge">
<title>Node1&#45;&gt;Node2</title>
<path fill="none" stroke="midnightblue" d="M450.86,-57.85C437.85,-59.79 423.41,-61.95 410.14,-63.94"/>
<polygon fill="midnightblue" stroke="midnightblue" points="451.56,-61.28 460.93,-56.34 450.52,-54.36 451.56,-61.28"/>
</g>
<!-- Node5 -->
<g id="node5" class="node">
<title>Node5</title>
<g id="a_node5"><a xlink:href="libbf_8h.html#a93fe073491f8c5f086a75e7bf8865b34" target="_top" xlink:title=" ">
<polygon fill="none" stroke="black" points="0,-42.19 0,-61.19 52,-61.19 52,-42.19 0,-42.19"/>
<text text-anchor="middle" x="26" y="-49.19" font-family="Helvetica,sans-Serif" font-size="10.00">bf_pow</text>
</a>
</g>
</g>
<!-- Node1&#45;&gt;Node5 -->
<g id="edge9" class="edge">
<title>Node1&#45;&gt;Node5</title>
<path fill="none" stroke="midnightblue" d="M471.13,-36.12C458.5,-27.67 441.65,-18.08 425,-13.69 287.75,22.52 115.8,-23.37 52.18,-43.3"/>
<polygon fill="midnightblue" stroke="midnightblue" points="469.32,-39.12 479.53,-41.97 473.33,-33.38 469.32,-39.12"/>
</g>
<!-- Node6 -->
<g id="node6" class="node">
<title>Node6</title>
<g id="a_node6"><a xlink:href="libbf_8c.html#aab7bc918fdd8dbef25c31c6881c73fdd" target="_top" xlink:title=" ">
<polygon fill="none" stroke="black" points="319.5,-23.19 319.5,-42.19 408.5,-42.19 408.5,-23.19 319.5,-23.19"/>
<text text-anchor="middle" x="364" y="-30.19" font-family="Helvetica,sans-Serif" font-size="10.00">bf_log_internal</text>
</a>
</g>
</g>
<!-- Node1&#45;&gt;Node6 -->
<g id="edge5" class="edge">
<title>Node1&#45;&gt;Node6</title>
<path fill="none" stroke="midnightblue" d="M450.96,-45.55C437.45,-43.53 422.39,-41.28 408.69,-39.23"/>
<polygon fill="midnightblue" stroke="midnightblue" points="450.52,-49.03 460.93,-47.04 451.56,-42.1 450.52,-49.03"/>
</g>
<!-- Node8 -->
<g id="node8" class="node">
<title>Node8</title>
<g id="a_node8"><a xlink:href="libbf_8c.html#aa6e77d8d722e3fd0540ede79a63e352e" target="_top" xlink:title=" ">
<polygon fill="none" stroke="black" points="303,-99.69 303,-129.69 425,-129.69 425,-99.69 303,-99.69"/>
<text text-anchor="start" x="311" y="-117.69" font-family="Helvetica,sans-Serif" font-size="10.00">check_exp_underflow</text>
<text text-anchor="middle" x="364" y="-106.69" font-family="Helvetica,sans-Serif" font-size="10.00">_overflow</text>
</a>
</g>
</g>
<!-- Node1&#45;&gt;Node8 -->
<g id="edge10" class="edge">
<title>Node1&#45;&gt;Node8</title>
<path fill="none" stroke="midnightblue" d="M467.42,-66.58C454.91,-73.91 439.36,-82.66 425,-89.69 418.01,-93.12 410.42,-96.51 403.08,-99.64"/>
<polygon fill="midnightblue" stroke="midnightblue" points="469.5,-69.42 476.32,-61.31 465.93,-63.4 469.5,-69.42"/>
</g>
<!-- Node3 -->
<g id="node3" class="node">
<title>Node3</title>
<g id="a_node3"><a xlink:href="libbf_8h.html#a36f22f93ba4258209be035a63b80b87f" target="_top" xlink:title=" ">
<polygon fill="none" stroke="black" points="217,-99.19 217,-118.19 267,-118.19 267,-99.19 217,-99.19"/>
<text text-anchor="middle" x="242" y="-106.19" font-family="Helvetica,sans-Serif" font-size="10.00">bf_exp</text>
</a>
</g>
</g>
<!-- Node2&#45;&gt;Node3 -->
<g id="edge2" class="edge">
<title>Node2&#45;&gt;Node3</title>
<path fill="none" stroke="midnightblue" d="M323.08,-83.33C304.6,-89.19 283.24,-95.95 267.23,-101.02"/>
<polygon fill="midnightblue" stroke="midnightblue" points="324.24,-86.64 332.72,-80.28 322.13,-79.96 324.24,-86.64"/>
</g>
<!-- Node4 -->
<g id="node4" class="node">
<title>Node4</title>
<g id="a_node4"><a xlink:href="libbf_8c.html#aa28c1603087e2aec25b9bb0dae387875" target="_top" xlink:title=" ">
<polygon fill="none" stroke="black" points="88,-61.19 88,-80.19 181,-80.19 181,-61.19 88,-61.19"/>
<text text-anchor="middle" x="134.5" y="-68.19" font-family="Helvetica,sans-Serif" font-size="10.00">bf_pow_generic</text>
</a>
</g>
</g>
<!-- Node2&#45;&gt;Node4 -->
<g id="edge3" class="edge">
<title>Node2&#45;&gt;Node4</title>
<path fill="none" stroke="midnightblue" d="M307.69,-70.69C268.84,-70.69 217.5,-70.69 181.02,-70.69"/>
<polygon fill="midnightblue" stroke="midnightblue" points="307.78,-74.19 317.78,-70.69 307.78,-67.19 307.78,-74.19"/>
</g>
<!-- Node4&#45;&gt;Node5 -->
<g id="edge4" class="edge">
<title>Node4&#45;&gt;Node5</title>
<path fill="none" stroke="midnightblue" d="M77.66,-60.73C68.74,-59.14 59.92,-57.57 52.21,-56.19"/>
<polygon fill="midnightblue" stroke="midnightblue" points="77.26,-64.21 87.72,-62.52 78.49,-57.32 77.26,-64.21"/>
</g>
<!-- Node7 -->
<g id="node7" class="node">
<title>Node7</title>
<g id="a_node7"><a xlink:href="libbf_8h.html#a4137b2308536cbc92addaeb3f0c79d35" target="_top" xlink:title=" ">
<polygon fill="none" stroke="black" points="218.5,-23.19 218.5,-42.19 265.5,-42.19 265.5,-23.19 218.5,-23.19"/>
<text text-anchor="middle" x="242" y="-30.19" font-family="Helvetica,sans-Serif" font-size="10.00">bf_log</text>
</a>
</g>
</g>
<!-- Node6&#45;&gt;Node7 -->
<g id="edge6" class="edge">
<title>Node6&#45;&gt;Node7</title>
<path fill="none" stroke="midnightblue" d="M308.9,-32.69C293.64,-32.69 277.87,-32.69 265.58,-32.69"/>
<polygon fill="midnightblue" stroke="midnightblue" points="309.34,-36.19 319.34,-32.69 309.34,-29.19 309.34,-36.19"/>
</g>
<!-- Node7&#45;&gt;Node4 -->
<g id="edge8" class="edge">
<title>Node7&#45;&gt;Node4</title>
<path fill="none" stroke="midnightblue" d="M208.55,-44.38C193.69,-49.73 176.29,-56 162.2,-61.08"/>
<polygon fill="midnightblue" stroke="midnightblue" points="210.15,-47.53 218.37,-40.84 207.77,-40.94 210.15,-47.53"/>
</g>
<!-- Node7&#45;&gt;Node5 -->
<g id="edge7" class="edge">
<title>Node7&#45;&gt;Node5</title>
<path fill="none" stroke="midnightblue" d="M207.87,-35.63C164.84,-39.45 90.67,-46.04 52.04,-49.47"/>
<polygon fill="midnightblue" stroke="midnightblue" points="208.45,-39.1 218.1,-34.73 207.83,-32.12 208.45,-39.1"/>
</g>
<!-- Node8&#45;&gt;Node3 -->
<g id="edge11" class="edge">
<title>Node8&#45;&gt;Node3</title>
<path fill="none" stroke="midnightblue" d="M292.65,-111.17C283.51,-110.72 274.71,-110.28 267.12,-109.9"/>
<polygon fill="midnightblue" stroke="midnightblue" points="292.49,-114.67 302.65,-111.67 292.84,-107.68 292.49,-114.67"/>
</g>
<!-- Node8&#45;&gt;Node5 -->
<g id="edge12" class="edge">
<title>Node8&#45;&gt;Node5</title>
<path fill="none" stroke="midnightblue" d="M292.83,-125.3C284.15,-126.29 275.38,-127.13 267,-127.69 185.86,-133.16 162.2,-122.99 88,-89.69 70.47,-81.83 51.96,-69.67 39.99,-61.24"/>
<polygon fill="midnightblue" stroke="midnightblue" points="293.44,-128.75 302.95,-124.09 292.61,-121.8 293.44,-128.75"/>
</g>
</g>
</svg>
        <g id="navigator" transform="translate(0 0)" fill="#404254">
                <rect fill="#f2f5e9" fill-opacity="0.5" stroke="#606060" stroke-width=".5" x="0" y="0" width="60" height="60"/>
                <use id="zoomplus" xlink:href="#zoomPlus" x="17" y="9" onmousedown="handleZoom(evt,'in')"/>
                <use id="zoomminus" xlink:href="#zoomMin" x="42" y="9" onmousedown="handleZoom(evt,'out')"/>
                <use id="reset" xlink:href="#resetDef" x="30" y="36" onmousedown="handleReset()"/>
                <g id="arrowUp" xlink:href="#dirArrow" transform="translate(30 24)" onmousedown="handlePan(0,-1)">
                  <use xlink:href="#rim" fill="#404040">
                        <set attributeName="fill" to="#808080" begin="arrowUp.mouseover" end="arrowUp.mouseout"/>
                  </use>
                  <path fill="none" stroke="white" stroke-width="1.5" d="M0,-3.0v7 M-2.5,-0.5L0,-3.0L2.5,-0.5"/>
                </g>
                <g id="arrowRight" xlink:href="#dirArrow" transform="rotate(90) translate(36 -43)" onmousedown="handlePan(1,0)">
                  <use xlink:href="#rim" fill="#404040">
                        <set attributeName="fill" to="#808080" begin="arrowRight.mouseover" end="arrowRight.mouseout"/>
                  </use>
                  <path fill="none" stroke="white" stroke-width="1.5" d="M0,-3.0v7 M-2.5,-0.5L0,-3.0L2.5,-0.5"/>
                </g>
                <g id="arrowDown" xlink:href="#dirArrow" transform="rotate(180) translate(-30 -48)" onmousedown="handlePan(0,1)">
                  <use xlink:href="#rim" fill="#404040">
                        <set attributeName="fill" to="#808080" begin="arrowDown.mouseover" end="arrowDown.mouseout"/>
                  </use>
                  <path fill="none" stroke="white" stroke-width="1.5" d="M0,-3.0v7 M-2.5,-0.5L0,-3.0L2.5,-0.5"/>
                </g>
                <g id="arrowLeft" xlink:href="#dirArrow" transform="rotate(270) translate(-36 17)" onmousedown="handlePan(-1,0)">
                  <use xlink:href="#rim" fill="#404040">
                        <set attributeName="fill" to="#808080" begin="arrowLeft.mouseover" end="arrowLeft.mouseout"/>
                  </use>
                  <path fill="none" stroke="white" stroke-width="1.5" d="M0,-3.0v7 M-2.5,-0.5L0,-3.0L2.5,-0.5"/>
                </g>
        </g>
        <svg viewBox="0 0 15 15" width="100%" height="30px" preserveAspectRatio="xMaxYMin meet">
         <g id="arrow_out" transform="scale(0.3 0.3)">
          <a xlink:href="libbf_8h_a6fbb1ec8880c203fc01baf940a54cc62_icgraph_org.svg" target="_base">
           <rect id="button" ry="5" rx="5" y="6" x="6" height="38" width="38"
                fill="#f2f5e9" fill-opacity="0.5" stroke="#606060" stroke-width="1.0"/>
           <path id="arrow"
             d="M 11.500037,31.436501 C 11.940474,20.09759 22.043105,11.32322 32.158766,21.979434 L 37.068811,17.246167 C 37.068811,17.246167 37.088388,32 37.088388,32 L 22.160133,31.978069 C 22.160133,31.978069 26.997745,27.140456 26.997745,27.140456 C 18.528582,18.264221 13.291696,25.230495 11.500037,31.436501 z"
             style="fill:#404040;"/>
          </a>
         </g>
        </svg>
</svg>
