<?xml version="1.0" encoding="UTF-8" standalone="no"?>
<!DOCTYPE svg PUBLIC "-//W3C//DTD SVG 1.1//EN"
 "http://www.w3.org/Graphics/SVG/1.1/DTD/svg11.dtd">
<!-- Generated by graphviz version 2.43.0 (0)
 -->
<!-- Title: bfdec_delete Pages: 1 -->
<svg width="287pt" height="28pt"
 viewBox="0.00 0.00 287.00 28.00" xmlns="http://www.w3.org/2000/svg" xmlns:xlink="http://www.w3.org/1999/xlink">
<g id="graph0" class="graph" transform="scale(1 1) rotate(0) translate(4 24)">
<title>bfdec_delete</title>
<!-- Node1 -->
<g id="node1" class="node">
<title>Node1</title>
<g id="a_node1"><a xlink:title=" ">
<polygon fill="#bfbfbf" stroke="black" points="0,-0.5 0,-19.5 80,-19.5 80,-0.5 0,-0.5"/>
<text text-anchor="middle" x="40" y="-7.5" font-family="Helvetica,sans-Serif" font-size="10.00">bfdec_delete</text>
</a>
</g>
</g>
<!-- Node2 -->
<g id="node2" class="node">
<title>Node2</title>
<g id="a_node2"><a xlink:href="libbf_8h.html#a2b9d906b21e903f2f7f1c9044674ab7d" target="_top" xlink:title=" ">
<polygon fill="none" stroke="black" points="116,-0.5 116,-19.5 178,-19.5 178,-0.5 116,-0.5"/>
<text text-anchor="middle" x="147" y="-7.5" font-family="Helvetica,sans-Serif" font-size="10.00">bf_delete</text>
</a>
</g>
</g>
<!-- Node1&#45;&gt;Node2 -->
<g id="edge1" class="edge">
<title>Node1&#45;&gt;Node2</title>
<path fill="none" stroke="midnightblue" d="M80.1,-10C88.38,-10 97.14,-10 105.47,-10"/>
<polygon fill="midnightblue" stroke="midnightblue" points="105.73,-13.5 115.73,-10 105.73,-6.5 105.73,-13.5"/>
</g>
<!-- Node3 -->
<g id="node3" class="node">
<title>Node3</title>
<g id="a_node3"><a xlink:href="libbf_8h.html#a524c9e60866c08c75061626a4b5e2f29" target="_top" xlink:title=" ">
<polygon fill="none" stroke="black" points="214,-0.5 214,-19.5 279,-19.5 279,-0.5 214,-0.5"/>
<text text-anchor="middle" x="246.5" y="-7.5" font-family="Helvetica,sans-Serif" font-size="10.00">bf_realloc</text>
</a>
</g>
</g>
<!-- Node2&#45;&gt;Node3 -->
<g id="edge2" class="edge">
<title>Node2&#45;&gt;Node3</title>
<path fill="none" stroke="midnightblue" d="M178.05,-10C186.08,-10 194.92,-10 203.47,-10"/>
<polygon fill="midnightblue" stroke="midnightblue" points="203.69,-13.5 213.69,-10 203.69,-6.5 203.69,-13.5"/>
</g>
</g>
</svg>
