<?xml version="1.0" encoding="UTF-8" standalone="no"?>
<!DOCTYPE svg PUBLIC "-//W3C//DTD SVG 1.1//EN"
 "http://www.w3.org/Graphics/SVG/1.1/DTD/svg11.dtd">
<!-- Generated by graphviz version 2.43.0 (0)
 -->
<!-- Title: bfdec_pow_ui Pages: 1 -->
<!--zoomable 534 -->
<svg id="main" version="1.1" xmlns="http://www.w3.org/2000/svg" xmlns:xlink="http://www.w3.org/1999/xlink" xml:space="preserve" onload="init(evt)">
<style type="text/css"><![CDATA[
.edge:hover path { stroke: red; }
.edge:hover polygon { stroke: red; fill: red; }
]]></style>
<script type="text/javascript"><![CDATA[
var edges = document.getElementsByTagName('g');
if (edges && edges.length) {
  for (var i=0;i<edges.length;i++) {
    if (edges[i].id.substr(0,4)=='edge') {
      edges[i].setAttribute('class','edge');
    }
  }
}
]]></script>
        <defs>
                <circle id="rim" cx="0" cy="0" r="7"/>
                <circle id="rim2" cx="0" cy="0" r="3.5"/>
                <g id="zoomPlus">
                        <use xlink:href="#rim" fill="#404040">
                                <set attributeName="fill" to="#808080" begin="zoomplus.mouseover" end="zoomplus.mouseout"/>
                        </use>
                        <path d="M-4,0h8M0,-4v8" fill="none" stroke="white" stroke-width="1.5" pointer-events="none"/>
                </g>
                <g id="zoomMin">
                        <use xlink:href="#rim" fill="#404040">
                                <set attributeName="fill" to="#808080" begin="zoomminus.mouseover" end="zoomminus.mouseout"/>
                        </use>
                        <path d="M-4,0h8" fill="none" stroke="white" stroke-width="1.5" pointer-events="none"/>
                </g>
                <g id="dirArrow">
                        <path fill="none" stroke="white" stroke-width="1.5" d="M0,-3.0v7 M-2.5,-0.5L0,-3.0L2.5,-0.5"/>
                </g>
               <g id="resetDef">
                       <use xlink:href="#rim2" fill="#404040">
                               <set attributeName="fill" to="#808080" begin="reset.mouseover" end="reset.mouseout"/>
                       </use>
               </g>
        </defs>

<script type="text/javascript">
var viewWidth = 738;
var viewHeight = 534;
var sectionId = 'dynsection-171';
</script>
<script xlink:href="svgpan.js"/>
<svg id="graph" class="graph">
<g id="viewport">
<title>bfdec_pow_ui</title>
<!-- Node1 -->
<g id="node1" class="node">
<title>Node1</title>
<g id="a_node1"><a xlink:title=" ">
<polygon fill="#bfbfbf" stroke="black" points="0,-88.53 0,-107.53 83,-107.53 83,-88.53 0,-88.53"/>
<text text-anchor="middle" x="41.5" y="-95.53" font-family="Helvetica,sans-Serif" font-size="10.00">bfdec_pow_ui</text>
</a>
</g>
</g>
<!-- Node2 -->
<g id="node2" class="node">
<title>Node2</title>
<g id="a_node2"><a xlink:href="libbf_8h.html#a2afc9f7c942c27cc609877c776dd9a69" target="_top" xlink:title=" ">
<polygon fill="none" stroke="black" points="124,-316.53 124,-335.53 192,-335.53 192,-316.53 124,-316.53"/>
<text text-anchor="middle" x="158" y="-323.53" font-family="Helvetica,sans-Serif" font-size="10.00">bfdec_mul</text>
</a>
</g>
</g>
<!-- Node1&#45;&gt;Node2 -->
<g id="edge1" class="edge">
<title>Node1&#45;&gt;Node2</title>
<path fill="none" stroke="midnightblue" d="M47.27,-107.53C64.59,-142.01 124.28,-260.86 147.58,-307.26"/>
<polygon fill="midnightblue" stroke="midnightblue" points="144.59,-309.11 152.21,-316.48 150.85,-305.97 144.59,-309.11"/>
</g>
<!-- Node29 -->
<g id="node14" class="node">
<title>Node29</title>
<g id="a_node14"><a xlink:href="libbf_8c.html#a3ac3b86cc31b99a551947240e979c5d7" target="_top" xlink:title=" ">
<polygon fill="none" stroke="red" points="573,-69.53 573,-88.53 603,-88.53 603,-69.53 573,-69.53"/>
<text text-anchor="middle" x="588" y="-76.53" font-family="Helvetica,sans-Serif" font-size="10.00">clz</text>
</a>
</g>
</g>
<!-- Node1&#45;&gt;Node29 -->
<g id="edge33" class="edge">
<title>Node1&#45;&gt;Node29</title>
<path fill="none" stroke="midnightblue" d="M83.29,-92.77C121.8,-88.09 181.21,-81.6 233,-79.03 356.72,-72.87 505.07,-76.41 562.57,-78.19"/>
<polygon fill="midnightblue" stroke="midnightblue" points="562.72,-81.7 572.82,-78.52 562.94,-74.7 562.72,-81.7"/>
</g>
<!-- Node37 -->
<g id="node21" class="node">
<title>Node37</title>
<g id="a_node21"><a xlink:href="libbf_8h.html#ae69271a2b54f2ce850db0c96c3b20a82" target="_top" xlink:title=" ">
<polygon fill="none" stroke="black" points="126,-12.53 126,-31.53 190,-31.53 190,-12.53 126,-12.53"/>
<text text-anchor="middle" x="158" y="-19.53" font-family="Helvetica,sans-Serif" font-size="10.00">bfdec_set</text>
</a>
</g>
</g>
<!-- Node1&#45;&gt;Node37 -->
<g id="edge25" class="edge">
<title>Node1&#45;&gt;Node37</title>
<path fill="none" stroke="midnightblue" d="M56.23,-88.49C71.46,-77.95 96.84,-60.55 119,-46.03 123.45,-43.11 128.23,-40.04 132.85,-37.11"/>
<polygon fill="midnightblue" stroke="midnightblue" points="134.8,-40.01 141.39,-31.72 131.07,-34.09 134.8,-40.01"/>
</g>
<!-- Node39 -->
<g id="node23" class="node">
<title>Node39</title>
<g id="a_node23"><a xlink:href="libbf_8h.html#a3a0734cc58dd4feba2c300d053f53e36" target="_top" xlink:title=" ">
<polygon fill="none" stroke="black" points="119,-107.53 119,-126.53 197,-126.53 197,-107.53 119,-107.53"/>
<text text-anchor="middle" x="158" y="-114.53" font-family="Helvetica,sans-Serif" font-size="10.00">bfdec_set_ui</text>
</a>
</g>
</g>
<!-- Node1&#45;&gt;Node39 -->
<g id="edge29" class="edge">
<title>Node1&#45;&gt;Node39</title>
<path fill="none" stroke="midnightblue" d="M83.19,-104.78C91.42,-106.14 100.14,-107.59 108.6,-108.99"/>
<polygon fill="midnightblue" stroke="midnightblue" points="108.3,-112.49 118.74,-110.68 109.45,-105.59 108.3,-112.49"/>
</g>
<!-- Node3 -->
<g id="node3" class="node">
<title>Node3</title>
<g id="a_node3"><a xlink:href="libbf_8h.html#ac9371a99b2946966d278072ee4c1e779" target="_top" xlink:title=" ">
<polygon fill="none" stroke="black" points="265.5,-430.53 265.5,-449.53 330.5,-449.53 330.5,-430.53 265.5,-430.53"/>
<text text-anchor="middle" x="298" y="-437.53" font-family="Helvetica,sans-Serif" font-size="10.00">bfdec_init</text>
</a>
</g>
</g>
<!-- Node2&#45;&gt;Node3 -->
<g id="edge2" class="edge">
<title>Node2&#45;&gt;Node3</title>
<path fill="none" stroke="midnightblue" d="M164.47,-335.57C175.31,-353.7 201.24,-393.32 233,-416.03 239.86,-420.93 247.85,-424.96 255.81,-428.23"/>
<polygon fill="midnightblue" stroke="midnightblue" points="254.83,-431.6 265.42,-431.84 257.29,-425.05 254.83,-431.6"/>
</g>
<!-- Node5 -->
<g id="node5" class="node">
<title>Node5</title>
<g id="a_node5"><a xlink:href="libbf_8h.html#a61eaacce56ae40e8efdf0db48f86b28b" target="_top" xlink:title=" ">
<polygon fill="none" stroke="black" points="259.5,-354.53 259.5,-373.53 336.5,-373.53 336.5,-354.53 259.5,-354.53"/>
<text text-anchor="middle" x="298" y="-361.53" font-family="Helvetica,sans-Serif" font-size="10.00">bfdec_move</text>
</a>
</g>
</g>
<!-- Node2&#45;&gt;Node5 -->
<g id="edge4" class="edge">
<title>Node2&#45;&gt;Node5</title>
<path fill="none" stroke="midnightblue" d="M192.05,-335.13C210.2,-340.12 232.95,-346.39 252.62,-351.8"/>
<polygon fill="midnightblue" stroke="midnightblue" points="251.72,-355.19 262.29,-354.47 253.58,-348.44 251.72,-355.19"/>
</g>
<!-- Node9 -->
<g id="node7" class="node">
<title>Node9</title>
<g id="a_node7"><a xlink:href="libbf_8h.html#acd3459551d5c61344889ba07a276b0a0" target="_top" xlink:title=" ">
<polygon fill="none" stroke="black" points="237.5,-178.03 237.5,-208.03 358.5,-208.03 358.5,-178.03 237.5,-178.03"/>
<text text-anchor="start" x="245.5" y="-196.03" font-family="Helvetica,sans-Serif" font-size="10.00">bfdec_normalize_and</text>
<text text-anchor="middle" x="298" y="-185.03" font-family="Helvetica,sans-Serif" font-size="10.00">_round</text>
</a>
</g>
</g>
<!-- Node2&#45;&gt;Node9 -->
<g id="edge6" class="edge">
<title>Node2&#45;&gt;Node9</title>
<path fill="none" stroke="midnightblue" d="M165.55,-316.32C177.56,-298.92 204.54,-261.86 233,-236.03 241.89,-227.95 252.41,-220.26 262.33,-213.67"/>
<polygon fill="midnightblue" stroke="midnightblue" points="264.33,-216.54 270.83,-208.18 260.53,-210.66 264.33,-216.54"/>
</g>
<!-- Node19 -->
<g id="node9" class="node">
<title>Node19</title>
<g id="a_node9"><a xlink:href="libbf_8h.html#aa84c22d9104847e3aa0ab161a8c2af22" target="_top" xlink:title=" ">
<polygon fill="none" stroke="black" points="549,-164.53 549,-183.53 627,-183.53 627,-164.53 549,-164.53"/>
<text text-anchor="middle" x="588" y="-171.53" font-family="Helvetica,sans-Serif" font-size="10.00">bfdec_resize</text>
</a>
</g>
</g>
<!-- Node2&#45;&gt;Node19 -->
<g id="edge16" class="edge">
<title>Node2&#45;&gt;Node19</title>
<path fill="none" stroke="midnightblue" d="M192.13,-318.55C267.58,-301.28 450.06,-258.03 507,-231.03 529.75,-220.24 552.87,-202.93 568.37,-190.21"/>
<polygon fill="midnightblue" stroke="midnightblue" points="570.73,-192.8 576.14,-183.69 566.23,-187.44 570.73,-192.8"/>
</g>
<!-- Node21 -->
<g id="node11" class="node">
<title>Node21</title>
<g id="a_node11"><a xlink:href="libbf_8h.html#a51327c40664840e14a608d3694536840" target="_top" xlink:title=" ">
<polygon fill="none" stroke="red" points="547,-297.53 547,-316.53 629,-316.53 629,-297.53 547,-297.53"/>
<text text-anchor="middle" x="588" y="-304.53" font-family="Helvetica,sans-Serif" font-size="10.00">bfdec_set_inf</text>
</a>
</g>
</g>
<!-- Node2&#45;&gt;Node21 -->
<g id="edge17" class="edge">
<title>Node2&#45;&gt;Node21</title>
<path fill="none" stroke="midnightblue" d="M192.23,-324.55C266.85,-321.24 448.13,-313.19 536.66,-309.26"/>
<polygon fill="midnightblue" stroke="midnightblue" points="536.9,-312.75 546.73,-308.81 536.59,-305.76 536.9,-312.75"/>
</g>
<!-- Node23 -->
<g id="node12" class="node">
<title>Node23</title>
<g id="a_node12"><a xlink:href="libbf_8h.html#ab992311e37e462dff2a8c330320a06c4" target="_top" xlink:title=" ">
<polygon fill="none" stroke="red" points="543,-373.53 543,-392.53 633,-392.53 633,-373.53 543,-373.53"/>
<text text-anchor="middle" x="588" y="-380.53" font-family="Helvetica,sans-Serif" font-size="10.00">bfdec_set_zero</text>
</a>
</g>
</g>
<!-- Node2&#45;&gt;Node23 -->
<g id="edge21" class="edge">
<title>Node2&#45;&gt;Node23</title>
<path fill="none" stroke="midnightblue" d="M167.39,-335.63C180.01,-349.26 205.37,-373.62 233,-383.03 334.34,-417.53 461.66,-405.08 532.69,-393.6"/>
<polygon fill="midnightblue" stroke="midnightblue" points="533.47,-397.02 542.75,-391.92 532.31,-390.11 533.47,-397.02"/>
</g>
<!-- Node32 -->
<g id="node16" class="node">
<title>Node32</title>
<g id="a_node16"><a xlink:href="libbf_8h.html#a432cfe0b33bf61782ef53b643aeb1e0f" target="_top" xlink:title=" ">
<polygon fill="none" stroke="black" points="254.5,-88.53 254.5,-107.53 341.5,-107.53 341.5,-88.53 254.5,-88.53"/>
<text text-anchor="middle" x="298" y="-95.53" font-family="Helvetica,sans-Serif" font-size="10.00">bfdec_set_nan</text>
</a>
</g>
</g>
<!-- Node2&#45;&gt;Node32 -->
<g id="edge18" class="edge">
<title>Node2&#45;&gt;Node32</title>
<path fill="none" stroke="midnightblue" d="M162.4,-316.23C171.54,-290.6 198.32,-219.9 233,-168.03 246.31,-148.11 265.16,-128.23 278.95,-114.77"/>
<polygon fill="midnightblue" stroke="midnightblue" points="281.6,-117.08 286.41,-107.64 276.76,-112.02 281.6,-117.08"/>
</g>
<!-- Node34 -->
<g id="node18" class="node">
<title>Node34</title>
<g id="a_node18"><a xlink:href="libbf_8c.html#a6706f2e3c674b947985821ba58c687cb" target="_top" xlink:title=" ">
<polygon fill="none" stroke="black" points="233,-468.53 233,-487.53 363,-487.53 363,-468.53 233,-468.53"/>
<text text-anchor="middle" x="298" y="-475.53" font-family="Helvetica,sans-Serif" font-size="10.00">mp_mul_basecase_dec</text>
</a>
</g>
</g>
<!-- Node2&#45;&gt;Node34 -->
<g id="edge22" class="edge">
<title>Node2&#45;&gt;Node34</title>
<path fill="none" stroke="midnightblue" d="M161.61,-335.72C168.71,-360.24 190.74,-425.14 233,-459.03 235.29,-460.86 237.75,-462.52 240.33,-464.02"/>
<polygon fill="midnightblue" stroke="midnightblue" points="238.95,-467.24 249.46,-468.52 242.04,-460.96 238.95,-467.24"/>
</g>
<!-- Node4 -->
<g id="node4" class="node">
<title>Node4</title>
<g id="a_node4"><a xlink:href="libbf_8h.html#abacc1410890af049e02ebd788364ac48" target="_top" xlink:title=" ">
<polygon fill="none" stroke="black" points="429.5,-430.53 429.5,-449.53 476.5,-449.53 476.5,-430.53 429.5,-430.53"/>
<text text-anchor="middle" x="453" y="-437.53" font-family="Helvetica,sans-Serif" font-size="10.00">bf_init</text>
</a>
</g>
</g>
<!-- Node3&#45;&gt;Node4 -->
<g id="edge3" class="edge">
<title>Node3&#45;&gt;Node4</title>
<path fill="none" stroke="midnightblue" d="M330.7,-440.03C356.55,-440.03 392.93,-440.03 419.1,-440.03"/>
<polygon fill="midnightblue" stroke="midnightblue" points="419.28,-443.53 429.28,-440.03 419.28,-436.53 419.28,-443.53"/>
</g>
<!-- Node6 -->
<g id="node6" class="node">
<title>Node6</title>
<g id="a_node6"><a xlink:href="libbf_8h.html#ad7ab5aff92f4e7e10b2a30e0e6b9226d" target="_top" xlink:title=" ">
<polygon fill="none" stroke="red" points="423.5,-354.53 423.5,-373.53 482.5,-373.53 482.5,-354.53 423.5,-354.53"/>
<text text-anchor="middle" x="453" y="-361.53" font-family="Helvetica,sans-Serif" font-size="10.00">bf_move</text>
</a>
</g>
</g>
<!-- Node5&#45;&gt;Node6 -->
<g id="edge5" class="edge">
<title>Node5&#45;&gt;Node6</title>
<path fill="none" stroke="midnightblue" d="M336.82,-364.03C360,-364.03 389.6,-364.03 412.99,-364.03"/>
<polygon fill="midnightblue" stroke="midnightblue" points="413.25,-367.53 423.25,-364.03 413.25,-360.53 413.25,-367.53"/>
</g>
<!-- Node10 -->
<g id="node8" class="node">
<title>Node10</title>
<g id="a_node8"><a xlink:href="libbf_8c.html#aec64568757dfbfcb93d12168d4a9306a" target="_top" xlink:title=" ">
<polygon fill="none" stroke="red" points="409.5,-278.53 409.5,-297.53 496.5,-297.53 496.5,-278.53 409.5,-278.53"/>
<text text-anchor="middle" x="453" y="-285.53" font-family="Helvetica,sans-Serif" font-size="10.00">__bfdec_round</text>
</a>
</g>
</g>
<!-- Node9&#45;&gt;Node10 -->
<g id="edge7" class="edge">
<title>Node9&#45;&gt;Node10</title>
<path fill="none" stroke="midnightblue" d="M323.24,-208.08C351.83,-225.83 399.07,-255.16 427.69,-272.93"/>
<polygon fill="midnightblue" stroke="midnightblue" points="425.94,-275.96 436.28,-278.26 429.63,-270.02 425.94,-275.96"/>
</g>
<!-- Node9&#45;&gt;Node19 -->
<g id="edge12" class="edge">
<title>Node9&#45;&gt;Node19</title>
<path fill="none" stroke="midnightblue" d="M358.67,-189.09C412.05,-185.57 489.29,-180.47 538.83,-177.2"/>
<polygon fill="midnightblue" stroke="midnightblue" points="539.21,-180.69 548.96,-176.54 538.75,-173.7 539.21,-180.69"/>
</g>
<!-- Node28 -->
<g id="node13" class="node">
<title>Node28</title>
<g id="a_node13"><a xlink:href="libbf_8c.html#ae4e2654233077bd7073bfb8135db9d85" target="_top" xlink:title=" ">
<polygon fill="none" stroke="black" points="426.5,-88.53 426.5,-107.53 479.5,-107.53 479.5,-88.53 426.5,-88.53"/>
<text text-anchor="middle" x="453" y="-95.53" font-family="Helvetica,sans-Serif" font-size="10.00">clz_dec</text>
</a>
</g>
</g>
<!-- Node9&#45;&gt;Node28 -->
<g id="edge13" class="edge">
<title>Node9&#45;&gt;Node28</title>
<path fill="none" stroke="midnightblue" d="M323.24,-177.97C351.83,-160.22 399.07,-130.89 427.69,-113.12"/>
<polygon fill="midnightblue" stroke="midnightblue" points="429.63,-116.04 436.28,-107.79 425.94,-110.09 429.63,-116.04"/>
</g>
<!-- Node31 -->
<g id="node15" class="node">
<title>Node31</title>
<g id="a_node15"><a xlink:href="libbf_8c.html#a2db7e367914c68f1ac3e36c0ecc05979" target="_top" xlink:title=" ">
<polygon fill="none" stroke="black" points="416,-202.53 416,-221.53 490,-221.53 490,-202.53 416,-202.53"/>
<text text-anchor="middle" x="453" y="-209.53" font-family="Helvetica,sans-Serif" font-size="10.00">mp_shl_dec</text>
</a>
</g>
</g>
<!-- Node9&#45;&gt;Node31 -->
<g id="edge15" class="edge">
<title>Node9&#45;&gt;Node31</title>
<path fill="none" stroke="midnightblue" d="M358.59,-200.43C374.27,-202.37 390.95,-204.44 405.81,-206.29"/>
<polygon fill="midnightblue" stroke="midnightblue" points="405.41,-209.77 415.77,-207.53 406.28,-202.82 405.41,-209.77"/>
</g>
<!-- Node10&#45;&gt;Node19 -->
<g id="edge8" class="edge">
<title>Node10&#45;&gt;Node19</title>
<path fill="none" stroke="midnightblue" d="M480.81,-278.47C489.59,-274.69 499.11,-269.83 507,-264.03 534.9,-243.48 560.21,-211.81 574.59,-192.03"/>
<polygon fill="midnightblue" stroke="midnightblue" points="577.62,-193.8 580.56,-183.63 571.92,-189.75 577.62,-193.8"/>
</g>
<!-- Node10&#45;&gt;Node21 -->
<g id="edge10" class="edge">
<title>Node10&#45;&gt;Node21</title>
<path fill="none" stroke="midnightblue" d="M496.81,-294.14C509.64,-295.97 523.82,-298 537.07,-299.89"/>
<polygon fill="midnightblue" stroke="midnightblue" points="536.58,-303.36 546.98,-301.31 537.57,-296.43 536.58,-303.36"/>
</g>
<!-- Node10&#45;&gt;Node23 -->
<g id="edge11" class="edge">
<title>Node10&#45;&gt;Node23</title>
<path fill="none" stroke="midnightblue" d="M467.73,-297.83C490.85,-314.35 537.71,-347.82 565.31,-367.53"/>
<polygon fill="midnightblue" stroke="midnightblue" points="563.37,-370.45 573.54,-373.41 567.44,-364.75 563.37,-370.45"/>
</g>
<!-- Node20 -->
<g id="node10" class="node">
<title>Node20</title>
<g id="a_node10"><a xlink:href="libbf_8h.html#ab51c43b22c1a81c789ee0e3d53c0e585" target="_top" xlink:title=" ">
<polygon fill="none" stroke="black" points="669,-12.53 669,-31.53 730,-31.53 730,-12.53 669,-12.53"/>
<text text-anchor="middle" x="699.5" y="-19.53" font-family="Helvetica,sans-Serif" font-size="10.00">bf_resize</text>
</a>
</g>
</g>
<!-- Node19&#45;&gt;Node20 -->
<g id="edge9" class="edge">
<title>Node19&#45;&gt;Node20</title>
<path fill="none" stroke="midnightblue" d="M595.85,-164.52C613.75,-139.67 662.14,-72.5 685.52,-40.05"/>
<polygon fill="midnightblue" stroke="midnightblue" points="688.65,-41.69 691.65,-31.53 682.97,-37.6 688.65,-41.69"/>
</g>
<!-- Node28&#45;&gt;Node29 -->
<g id="edge14" class="edge">
<title>Node28&#45;&gt;Node29</title>
<path fill="none" stroke="midnightblue" d="M479.64,-94.36C503.62,-90.94 539.18,-85.86 562.71,-82.5"/>
<polygon fill="midnightblue" stroke="midnightblue" points="563.49,-85.92 572.89,-81.04 562.5,-78.99 563.49,-85.92"/>
</g>
<!-- Node33 -->
<g id="node17" class="node">
<title>Node33</title>
<g id="a_node17"><a xlink:href="libbf_8h.html#aa6282c789c16c8cf2fe6a8ebd671c6fc" target="_top" xlink:title=" ">
<polygon fill="none" stroke="black" points="418,-12.53 418,-31.53 488,-31.53 488,-12.53 418,-12.53"/>
<text text-anchor="middle" x="453" y="-19.53" font-family="Helvetica,sans-Serif" font-size="10.00">bf_set_nan</text>
</a>
</g>
</g>
<!-- Node32&#45;&gt;Node33 -->
<g id="edge19" class="edge">
<title>Node32&#45;&gt;Node33</title>
<path fill="none" stroke="midnightblue" d="M318.38,-88.4C344.93,-75.21 392.83,-51.42 423.48,-36.19"/>
<polygon fill="midnightblue" stroke="midnightblue" points="425.38,-39.16 432.78,-31.57 422.27,-32.89 425.38,-39.16"/>
</g>
<!-- Node33&#45;&gt;Node20 -->
<g id="edge20" class="edge">
<title>Node33&#45;&gt;Node20</title>
<path fill="none" stroke="midnightblue" d="M488.25,-22.03C532.97,-22.03 611.11,-22.03 658.5,-22.03"/>
<polygon fill="midnightblue" stroke="midnightblue" points="658.7,-25.53 668.7,-22.03 658.7,-18.53 658.7,-25.53"/>
</g>
<!-- Node35 -->
<g id="node19" class="node">
<title>Node35</title>
<g id="a_node19"><a xlink:href="libbf_8c.html#a11abee3cab9665083efd8dffe4e0ec59" target="_top" xlink:title=" ">
<polygon fill="none" stroke="black" points="399,-468.53 399,-487.53 507,-487.53 507,-468.53 399,-468.53"/>
<text text-anchor="middle" x="453" y="-475.53" font-family="Helvetica,sans-Serif" font-size="10.00">mp_add_mul1_dec</text>
</a>
</g>
</g>
<!-- Node34&#45;&gt;Node35 -->
<g id="edge23" class="edge">
<title>Node34&#45;&gt;Node35</title>
<path fill="none" stroke="midnightblue" d="M363.44,-478.03C371.8,-478.03 380.36,-478.03 388.7,-478.03"/>
<polygon fill="midnightblue" stroke="midnightblue" points="388.74,-481.53 398.74,-478.03 388.74,-474.53 388.74,-481.53"/>
</g>
<!-- Node36 -->
<g id="node20" class="node">
<title>Node36</title>
<g id="a_node20"><a xlink:href="libbf_8c.html#ad7f9554096b23d3234e32e4586d21f5d" target="_top" xlink:title=" ">
<polygon fill="none" stroke="black" points="410.5,-506.53 410.5,-525.53 495.5,-525.53 495.5,-506.53 410.5,-506.53"/>
<text text-anchor="middle" x="453" y="-513.53" font-family="Helvetica,sans-Serif" font-size="10.00">mp_mul1_dec</text>
</a>
</g>
</g>
<!-- Node34&#45;&gt;Node36 -->
<g id="edge24" class="edge">
<title>Node34&#45;&gt;Node36</title>
<path fill="none" stroke="midnightblue" d="M337.61,-487.61C357.71,-492.61 382.48,-498.76 403.82,-504.06"/>
<polygon fill="midnightblue" stroke="midnightblue" points="403.12,-507.49 413.67,-506.51 404.81,-500.7 403.12,-507.49"/>
</g>
<!-- Node38 -->
<g id="node22" class="node">
<title>Node38</title>
<g id="a_node22"><a xlink:href="libbf_8h.html#ae019ee8073f4359da157d3b1e5fdba7e" target="_top" xlink:title=" ">
<polygon fill="none" stroke="black" points="274.5,-12.53 274.5,-31.53 321.5,-31.53 321.5,-12.53 274.5,-12.53"/>
<text text-anchor="middle" x="298" y="-19.53" font-family="Helvetica,sans-Serif" font-size="10.00">bf_set</text>
</a>
</g>
</g>
<!-- Node37&#45;&gt;Node38 -->
<g id="edge26" class="edge">
<title>Node37&#45;&gt;Node38</title>
<path fill="none" stroke="midnightblue" d="M190.31,-22.03C212.42,-22.03 241.97,-22.03 264.36,-22.03"/>
<polygon fill="midnightblue" stroke="midnightblue" points="264.41,-25.53 274.41,-22.03 264.41,-18.53 264.41,-25.53"/>
</g>
<!-- Node38&#45;&gt;Node20 -->
<g id="edge27" class="edge">
<title>Node38&#45;&gt;Node20</title>
<path fill="none" stroke="midnightblue" d="M321.86,-16.41C342.02,-11.77 372.26,-5.54 399,-3.03 491.78,5.71 601.12,-7.04 658.59,-15.51"/>
<polygon fill="midnightblue" stroke="midnightblue" points="658.29,-19.01 668.7,-17.04 659.33,-12.08 658.29,-19.01"/>
</g>
<!-- Node38&#45;&gt;Node33 -->
<g id="edge28" class="edge">
<title>Node38&#45;&gt;Node33</title>
<path fill="none" stroke="midnightblue" d="M321.58,-22.03C344.16,-22.03 379.49,-22.03 407.69,-22.03"/>
<polygon fill="midnightblue" stroke="midnightblue" points="407.71,-25.53 417.71,-22.03 407.71,-18.53 407.71,-25.53"/>
</g>
<!-- Node39&#45;&gt;Node9 -->
<g id="edge30" class="edge">
<title>Node39&#45;&gt;Node9</title>
<path fill="none" stroke="midnightblue" d="M176.48,-126.65C197.59,-138.28 233.65,-158.14 260.84,-173.11"/>
<polygon fill="midnightblue" stroke="midnightblue" points="259.24,-176.23 269.69,-177.98 262.62,-170.09 259.24,-176.23"/>
</g>
<!-- Node39&#45;&gt;Node19 -->
<g id="edge31" class="edge">
<title>Node39&#45;&gt;Node19</title>
<path fill="none" stroke="midnightblue" d="M197.36,-122.13C275.54,-132.55 453.13,-156.2 538.89,-167.62"/>
<polygon fill="midnightblue" stroke="midnightblue" points="538.51,-171.1 548.88,-168.95 539.43,-164.16 538.51,-171.1"/>
</g>
<!-- Node39&#45;&gt;Node32 -->
<g id="edge32" class="edge">
<title>Node39&#45;&gt;Node32</title>
<path fill="none" stroke="midnightblue" d="M197.07,-111.78C211.6,-109.78 228.44,-107.47 244.1,-105.31"/>
<polygon fill="midnightblue" stroke="midnightblue" points="244.76,-108.75 254.19,-103.92 243.8,-101.82 244.76,-108.75"/>
</g>
</g>
</svg>
        <g id="navigator" transform="translate(0 0)" fill="#404254">
                <rect fill="#f2f5e9" fill-opacity="0.5" stroke="#606060" stroke-width=".5" x="0" y="0" width="60" height="60"/>
                <use id="zoomplus" xlink:href="#zoomPlus" x="17" y="9" onmousedown="handleZoom(evt,'in')"/>
                <use id="zoomminus" xlink:href="#zoomMin" x="42" y="9" onmousedown="handleZoom(evt,'out')"/>
                <use id="reset" xlink:href="#resetDef" x="30" y="36" onmousedown="handleReset()"/>
                <g id="arrowUp" xlink:href="#dirArrow" transform="translate(30 24)" onmousedown="handlePan(0,-1)">
                  <use xlink:href="#rim" fill="#404040">
                        <set attributeName="fill" to="#808080" begin="arrowUp.mouseover" end="arrowUp.mouseout"/>
                  </use>
                  <path fill="none" stroke="white" stroke-width="1.5" d="M0,-3.0v7 M-2.5,-0.5L0,-3.0L2.5,-0.5"/>
                </g>
                <g id="arrowRight" xlink:href="#dirArrow" transform="rotate(90) translate(36 -43)" onmousedown="handlePan(1,0)">
                  <use xlink:href="#rim" fill="#404040">
                        <set attributeName="fill" to="#808080" begin="arrowRight.mouseover" end="arrowRight.mouseout"/>
                  </use>
                  <path fill="none" stroke="white" stroke-width="1.5" d="M0,-3.0v7 M-2.5,-0.5L0,-3.0L2.5,-0.5"/>
                </g>
                <g id="arrowDown" xlink:href="#dirArrow" transform="rotate(180) translate(-30 -48)" onmousedown="handlePan(0,1)">
                  <use xlink:href="#rim" fill="#404040">
                        <set attributeName="fill" to="#808080" begin="arrowDown.mouseover" end="arrowDown.mouseout"/>
                  </use>
                  <path fill="none" stroke="white" stroke-width="1.5" d="M0,-3.0v7 M-2.5,-0.5L0,-3.0L2.5,-0.5"/>
                </g>
                <g id="arrowLeft" xlink:href="#dirArrow" transform="rotate(270) translate(-36 17)" onmousedown="handlePan(-1,0)">
                  <use xlink:href="#rim" fill="#404040">
                        <set attributeName="fill" to="#808080" begin="arrowLeft.mouseover" end="arrowLeft.mouseout"/>
                  </use>
                  <path fill="none" stroke="white" stroke-width="1.5" d="M0,-3.0v7 M-2.5,-0.5L0,-3.0L2.5,-0.5"/>
                </g>
        </g>
        <svg viewBox="0 0 15 15" width="100%" height="30px" preserveAspectRatio="xMaxYMin meet">
         <g id="arrow_out" transform="scale(0.3 0.3)">
          <a xlink:href="libbf_8h_a1baac52525d382cc854c2e484ce2c169_cgraph_org.svg" target="_base">
           <rect id="button" ry="5" rx="5" y="6" x="6" height="38" width="38"
                fill="#f2f5e9" fill-opacity="0.5" stroke="#606060" stroke-width="1.0"/>
           <path id="arrow"
             d="M 11.500037,31.436501 C 11.940474,20.09759 22.043105,11.32322 32.158766,21.979434 L 37.068811,17.246167 C 37.068811,17.246167 37.088388,32 37.088388,32 L 22.160133,31.978069 C 22.160133,31.978069 26.997745,27.140456 26.997745,27.140456 C 18.528582,18.264221 13.291696,25.230495 11.500037,31.436501 z"
             style="fill:#404040;"/>
          </a>
         </g>
        </svg>
</svg>
