<?xml version="1.0" encoding="UTF-8" standalone="no"?>
<!DOCTYPE svg PUBLIC "-//W3C//DTD SVG 1.1//EN"
 "http://www.w3.org/Graphics/SVG/1.1/DTD/svg11.dtd">
<!-- Generated by graphviz version 2.43.0 (0)
 -->
<!-- Title: fast_udiv Pages: 1 -->
<!--zoomable 211 -->
<svg id="main" version="1.1" xmlns="http://www.w3.org/2000/svg" xmlns:xlink="http://www.w3.org/1999/xlink" xml:space="preserve" onload="init(evt)">
<style type="text/css"><![CDATA[
.edge:hover path { stroke: red; }
.edge:hover polygon { stroke: red; fill: red; }
]]></style>
<script type="text/javascript"><![CDATA[
var edges = document.getElementsByTagName('g');
if (edges && edges.length) {
  for (var i=0;i<edges.length;i++) {
    if (edges[i].id.substr(0,4)=='edge') {
      edges[i].setAttribute('class','edge');
    }
  }
}
]]></script>
        <defs>
                <circle id="rim" cx="0" cy="0" r="7"/>
                <circle id="rim2" cx="0" cy="0" r="3.5"/>
                <g id="zoomPlus">
                        <use xlink:href="#rim" fill="#404040">
                                <set attributeName="fill" to="#808080" begin="zoomplus.mouseover" end="zoomplus.mouseout"/>
                        </use>
                        <path d="M-4,0h8M0,-4v8" fill="none" stroke="white" stroke-width="1.5" pointer-events="none"/>
                </g>
                <g id="zoomMin">
                        <use xlink:href="#rim" fill="#404040">
                                <set attributeName="fill" to="#808080" begin="zoomminus.mouseover" end="zoomminus.mouseout"/>
                        </use>
                        <path d="M-4,0h8" fill="none" stroke="white" stroke-width="1.5" pointer-events="none"/>
                </g>
                <g id="dirArrow">
                        <path fill="none" stroke="white" stroke-width="1.5" d="M0,-3.0v7 M-2.5,-0.5L0,-3.0L2.5,-0.5"/>
                </g>
               <g id="resetDef">
                       <use xlink:href="#rim2" fill="#404040">
                               <set attributeName="fill" to="#808080" begin="reset.mouseover" end="reset.mouseout"/>
                       </use>
               </g>
        </defs>

<script type="text/javascript">
var viewWidth = 869;
var viewHeight = 211;
var sectionId = 'dynsection-248';
</script>
<script xlink:href="svgpan.js"/>
<svg id="graph" class="graph">
<g id="viewport">
<title>fast_udiv</title>
<!-- Node1 -->
<g id="node1" class="node">
<title>Node1</title>
<g id="a_node1"><a xlink:title=" ">
<polygon fill="#bfbfbf" stroke="black" points="799,-38.5 799,-57.5 861,-57.5 861,-38.5 799,-38.5"/>
<text text-anchor="middle" x="830" y="-45.5" font-family="Helvetica,sans-Serif" font-size="10.00">fast_udiv</text>
</a>
</g>
</g>
<!-- Node2 -->
<g id="node2" class="node">
<title>Node2</title>
<g id="a_node2"><a xlink:href="libbf_8c.html#aea07e4f7e665f38255c0d83fafc7d38d" target="_top" xlink:title=" ">
<polygon fill="none" stroke="black" points="685,-38.5 685,-57.5 763,-57.5 763,-38.5 685,-38.5"/>
<text text-anchor="middle" x="724" y="-45.5" font-family="Helvetica,sans-Serif" font-size="10.00">fast_shr_dec</text>
</a>
</g>
</g>
<!-- Node1&#45;&gt;Node2 -->
<g id="edge1" class="edge">
<title>Node1&#45;&gt;Node2</title>
<path fill="none" stroke="midnightblue" d="M788.89,-48C780.44,-48 771.55,-48 763.17,-48"/>
<polygon fill="midnightblue" stroke="midnightblue" points="788.92,-51.5 798.92,-48 788.92,-44.5 788.92,-51.5"/>
</g>
<!-- Node3 -->
<g id="node3" class="node">
<title>Node3</title>
<g id="a_node3"><a xlink:href="libbf_8c.html#aec64568757dfbfcb93d12168d4a9306a" target="_top" xlink:title=" ">
<polygon fill="none" stroke="black" points="286,-117.5 286,-136.5 373,-136.5 373,-117.5 286,-117.5"/>
<text text-anchor="middle" x="329.5" y="-124.5" font-family="Helvetica,sans-Serif" font-size="10.00">__bfdec_round</text>
</a>
</g>
</g>
<!-- Node2&#45;&gt;Node3 -->
<g id="edge2" class="edge">
<title>Node2&#45;&gt;Node3</title>
<path fill="none" stroke="midnightblue" d="M674.8,-56.07C613,-66.65 502.63,-86.3 409,-107 394.86,-110.13 379.39,-113.98 365.95,-117.46"/>
<polygon fill="midnightblue" stroke="midnightblue" points="675.39,-59.52 684.66,-54.39 674.21,-52.62 675.39,-59.52"/>
</g>
<!-- Node31 -->
<g id="node8" class="node">
<title>Node31</title>
<g id="a_node8"><a xlink:href="libbf_8h.html#ab3ae660142e76ac134eddd281450d969" target="_top" xlink:title=" ">
<polygon fill="none" stroke="black" points="554,-0.5 554,-19.5 649,-19.5 649,-0.5 554,-0.5"/>
<text text-anchor="middle" x="601.5" y="-7.5" font-family="Helvetica,sans-Serif" font-size="10.00">bfdec_get_int32</text>
</a>
</g>
</g>
<!-- Node2&#45;&gt;Node31 -->
<g id="edge7" class="edge">
<title>Node2&#45;&gt;Node31</title>
<path fill="none" stroke="midnightblue" d="M682.79,-35.32C666.51,-30.19 648.02,-24.36 632.9,-19.59"/>
<polygon fill="midnightblue" stroke="midnightblue" points="682,-38.74 692.59,-38.41 684.11,-32.07 682,-38.74"/>
</g>
<!-- Node32 -->
<g id="node9" class="node">
<title>Node32</title>
<g id="a_node9"><a xlink:href="libbf_8c.html#a4ae6bd03b3af1b742666f50df5a52cb9" target="_top" xlink:title=" ">
<polygon fill="none" stroke="black" points="572,-96.5 572,-115.5 631,-115.5 631,-96.5 572,-96.5"/>
<text text-anchor="middle" x="601.5" y="-103.5" font-family="Helvetica,sans-Serif" font-size="10.00">get_digit</text>
</a>
</g>
</g>
<!-- Node2&#45;&gt;Node32 -->
<g id="edge8" class="edge">
<title>Node2&#45;&gt;Node32</title>
<path fill="none" stroke="midnightblue" d="M693.84,-62.03C671.72,-72.68 641.89,-87.04 622.43,-96.41"/>
<polygon fill="midnightblue" stroke="midnightblue" points="695.61,-65.07 703.1,-57.58 692.57,-58.76 695.61,-65.07"/>
</g>
<!-- Node4 -->
<g id="node4" class="node">
<title>Node4</title>
<g id="a_node4"><a xlink:href="libbf_8h.html#acd3459551d5c61344889ba07a276b0a0" target="_top" xlink:title=" ">
<polygon fill="none" stroke="red" points="129,-115 129,-145 250,-145 250,-115 129,-115"/>
<text text-anchor="start" x="137" y="-133" font-family="Helvetica,sans-Serif" font-size="10.00">bfdec_normalize_and</text>
<text text-anchor="middle" x="189.5" y="-122" font-family="Helvetica,sans-Serif" font-size="10.00">_round</text>
</a>
</g>
</g>
<!-- Node3&#45;&gt;Node4 -->
<g id="edge3" class="edge">
<title>Node3&#45;&gt;Node4</title>
<path fill="none" stroke="midnightblue" d="M275.9,-128.14C267.48,-128.33 258.71,-128.52 250.14,-128.7"/>
<polygon fill="midnightblue" stroke="midnightblue" points="276.05,-131.64 285.97,-127.92 275.9,-124.64 276.05,-131.64"/>
</g>
<!-- Node25 -->
<g id="node5" class="node">
<title>Node25</title>
<g id="a_node5"><a xlink:href="libbf_8h.html#a807d4e601bf73a30844a7c84f34961f1" target="_top" xlink:title=" ">
<polygon fill="none" stroke="red" points="151,-164.5 151,-183.5 228,-183.5 228,-164.5 151,-164.5"/>
<text text-anchor="middle" x="189.5" y="-171.5" font-family="Helvetica,sans-Serif" font-size="10.00">bfdec_round</text>
</a>
</g>
</g>
<!-- Node3&#45;&gt;Node25 -->
<g id="edge4" class="edge">
<title>Node3&#45;&gt;Node25</title>
<path fill="none" stroke="midnightblue" d="M292.64,-140.08C279.28,-144.87 263.98,-150.28 250,-155 240.65,-158.16 230.43,-161.47 221.14,-164.43"/>
<polygon fill="midnightblue" stroke="midnightblue" points="294.19,-143.24 302.41,-136.55 291.82,-136.65 294.19,-143.24"/>
</g>
<!-- Node26 -->
<g id="node6" class="node">
<title>Node26</title>
<g id="a_node6"><a xlink:href="libbf_8c.html#ad79aefc435021a0743c89cb4aec7fa56" target="_top" xlink:title=" ">
<polygon fill="none" stroke="red" points="0,-120.5 0,-139.5 93,-139.5 93,-120.5 0,-120.5"/>
<text text-anchor="middle" x="46.5" y="-127.5" font-family="Helvetica,sans-Serif" font-size="10.00">bf_ftoa_internal</text>
</a>
</g>
</g>
<!-- Node25&#45;&gt;Node26 -->
<g id="edge5" class="edge">
<title>Node25&#45;&gt;Node26</title>
<path fill="none" stroke="midnightblue" d="M148.35,-161.47C126,-154.5 98.62,-145.95 78.04,-139.53"/>
<polygon fill="midnightblue" stroke="midnightblue" points="147.32,-164.81 157.91,-164.45 149.4,-158.13 147.32,-164.81"/>
</g>
<!-- Node8 -->
<g id="node7" class="node">
<title>Node8</title>
<g id="a_node7"><a xlink:href="libbf_8h.html#a318508be097917ddd5d1ce187edea68b" target="_top" xlink:title=" ">
<polygon fill="none" stroke="red" points="5,-183.5 5,-202.5 88,-202.5 88,-183.5 5,-183.5"/>
<text text-anchor="middle" x="46.5" y="-190.5" font-family="Helvetica,sans-Serif" font-size="10.00">bfdec_divrem</text>
</a>
</g>
</g>
<!-- Node25&#45;&gt;Node8 -->
<g id="edge6" class="edge">
<title>Node25&#45;&gt;Node8</title>
<path fill="none" stroke="midnightblue" d="M140.46,-180.47C123.52,-182.76 104.65,-185.3 88.36,-187.49"/>
<polygon fill="midnightblue" stroke="midnightblue" points="141.27,-183.9 150.71,-179.09 140.34,-176.96 141.27,-183.9"/>
</g>
<!-- Node32&#45;&gt;Node26 -->
<g id="edge9" class="edge">
<title>Node32&#45;&gt;Node26</title>
<path fill="none" stroke="midnightblue" d="M561.62,-101.99C480.6,-94.49 288.02,-81.16 129,-105 109.39,-107.94 87.98,-114.65 72.02,-120.38"/>
<polygon fill="midnightblue" stroke="midnightblue" points="561.56,-105.5 571.85,-102.96 562.22,-98.53 561.56,-105.5"/>
</g>
<!-- Node32&#45;&gt;Node8 -->
<g id="edge10" class="edge">
<title>Node32&#45;&gt;Node8</title>
<path fill="none" stroke="midnightblue" d="M574.48,-120.48C558.59,-128.77 537.62,-138.73 518,-145 402.74,-181.85 370.53,-182.29 250,-193 194.15,-197.96 129.28,-196.74 88.32,-195.12"/>
<polygon fill="midnightblue" stroke="midnightblue" points="576.48,-123.38 583.66,-115.59 573.19,-117.2 576.48,-123.38"/>
</g>
<!-- Node33 -->
<g id="node10" class="node">
<title>Node33</title>
<g id="a_node10"><a xlink:href="libbf_8c.html#a17bf08f4c7268d0f16f31fbe1951bf77" target="_top" xlink:title=" ">
<polygon fill="none" stroke="black" points="409,-116.5 409,-135.5 518,-135.5 518,-116.5 409,-116.5"/>
<text text-anchor="middle" x="463.5" y="-123.5" font-family="Helvetica,sans-Serif" font-size="10.00">bfdec_get_rnd_add</text>
</a>
</g>
</g>
<!-- Node32&#45;&gt;Node33 -->
<g id="edge11" class="edge">
<title>Node32&#45;&gt;Node33</title>
<path fill="none" stroke="midnightblue" d="M562.02,-111.66C548.42,-113.66 532.87,-115.95 518.24,-118.1"/>
<polygon fill="midnightblue" stroke="midnightblue" points="562.61,-115.11 571.99,-110.19 561.59,-108.18 562.61,-115.11"/>
</g>
<!-- Node33&#45;&gt;Node3 -->
<g id="edge12" class="edge">
<title>Node33&#45;&gt;Node3</title>
<path fill="none" stroke="midnightblue" d="M398.72,-126.48C390.07,-126.55 381.37,-126.61 373.22,-126.68"/>
<polygon fill="midnightblue" stroke="midnightblue" points="398.84,-129.98 408.81,-126.41 398.78,-122.98 398.84,-129.98"/>
</g>
</g>
</svg>
        <g id="navigator" transform="translate(0 0)" fill="#404254">
                <rect fill="#f2f5e9" fill-opacity="0.5" stroke="#606060" stroke-width=".5" x="0" y="0" width="60" height="60"/>
                <use id="zoomplus" xlink:href="#zoomPlus" x="17" y="9" onmousedown="handleZoom(evt,'in')"/>
                <use id="zoomminus" xlink:href="#zoomMin" x="42" y="9" onmousedown="handleZoom(evt,'out')"/>
                <use id="reset" xlink:href="#resetDef" x="30" y="36" onmousedown="handleReset()"/>
                <g id="arrowUp" xlink:href="#dirArrow" transform="translate(30 24)" onmousedown="handlePan(0,-1)">
                  <use xlink:href="#rim" fill="#404040">
                        <set attributeName="fill" to="#808080" begin="arrowUp.mouseover" end="arrowUp.mouseout"/>
                  </use>
                  <path fill="none" stroke="white" stroke-width="1.5" d="M0,-3.0v7 M-2.5,-0.5L0,-3.0L2.5,-0.5"/>
                </g>
                <g id="arrowRight" xlink:href="#dirArrow" transform="rotate(90) translate(36 -43)" onmousedown="handlePan(1,0)">
                  <use xlink:href="#rim" fill="#404040">
                        <set attributeName="fill" to="#808080" begin="arrowRight.mouseover" end="arrowRight.mouseout"/>
                  </use>
                  <path fill="none" stroke="white" stroke-width="1.5" d="M0,-3.0v7 M-2.5,-0.5L0,-3.0L2.5,-0.5"/>
                </g>
                <g id="arrowDown" xlink:href="#dirArrow" transform="rotate(180) translate(-30 -48)" onmousedown="handlePan(0,1)">
                  <use xlink:href="#rim" fill="#404040">
                        <set attributeName="fill" to="#808080" begin="arrowDown.mouseover" end="arrowDown.mouseout"/>
                  </use>
                  <path fill="none" stroke="white" stroke-width="1.5" d="M0,-3.0v7 M-2.5,-0.5L0,-3.0L2.5,-0.5"/>
                </g>
                <g id="arrowLeft" xlink:href="#dirArrow" transform="rotate(270) translate(-36 17)" onmousedown="handlePan(-1,0)">
                  <use xlink:href="#rim" fill="#404040">
                        <set attributeName="fill" to="#808080" begin="arrowLeft.mouseover" end="arrowLeft.mouseout"/>
                  </use>
                  <path fill="none" stroke="white" stroke-width="1.5" d="M0,-3.0v7 M-2.5,-0.5L0,-3.0L2.5,-0.5"/>
                </g>
        </g>
        <svg viewBox="0 0 15 15" width="100%" height="30px" preserveAspectRatio="xMaxYMin meet">
         <g id="arrow_out" transform="scale(0.3 0.3)">
          <a xlink:href="libbf_8c_a18ed5ff631711bfffa3ab5c94dcaa953_icgraph_org.svg" target="_base">
           <rect id="button" ry="5" rx="5" y="6" x="6" height="38" width="38"
                fill="#f2f5e9" fill-opacity="0.5" stroke="#606060" stroke-width="1.0"/>
           <path id="arrow"
             d="M 11.500037,31.436501 C 11.940474,20.09759 22.043105,11.32322 32.158766,21.979434 L 37.068811,17.246167 C 37.068811,17.246167 37.088388,32 37.088388,32 L 22.160133,31.978069 C 22.160133,31.978069 26.997745,27.140456 26.997745,27.140456 C 18.528582,18.264221 13.291696,25.230495 11.500037,31.436501 z"
             style="fill:#404040;"/>
          </a>
         </g>
        </svg>
</svg>
