<?xml version="1.0" encoding="UTF-8" standalone="no"?>
<!DOCTYPE svg PUBLIC "-//W3C//DTD SVG 1.1//EN"
 "http://www.w3.org/Graphics/SVG/1.1/DTD/svg11.dtd">
<!-- Generated by graphviz version 2.43.0 (0)
 -->
<!-- Title: get_limbz Pages: 1 -->
<!--zoomable 598 -->
<svg id="main" version="1.1" xmlns="http://www.w3.org/2000/svg" xmlns:xlink="http://www.w3.org/1999/xlink" xml:space="preserve" onload="init(evt)">
<style type="text/css"><![CDATA[
.edge:hover path { stroke: red; }
.edge:hover polygon { stroke: red; fill: red; }
]]></style>
<script type="text/javascript"><![CDATA[
var edges = document.getElementsByTagName('g');
if (edges && edges.length) {
  for (var i=0;i<edges.length;i++) {
    if (edges[i].id.substr(0,4)=='edge') {
      edges[i].setAttribute('class','edge');
    }
  }
}
]]></script>
        <defs>
                <circle id="rim" cx="0" cy="0" r="7"/>
                <circle id="rim2" cx="0" cy="0" r="3.5"/>
                <g id="zoomPlus">
                        <use xlink:href="#rim" fill="#404040">
                                <set attributeName="fill" to="#808080" begin="zoomplus.mouseover" end="zoomplus.mouseout"/>
                        </use>
                        <path d="M-4,0h8M0,-4v8" fill="none" stroke="white" stroke-width="1.5" pointer-events="none"/>
                </g>
                <g id="zoomMin">
                        <use xlink:href="#rim" fill="#404040">
                                <set attributeName="fill" to="#808080" begin="zoomminus.mouseover" end="zoomminus.mouseout"/>
                        </use>
                        <path d="M-4,0h8" fill="none" stroke="white" stroke-width="1.5" pointer-events="none"/>
                </g>
                <g id="dirArrow">
                        <path fill="none" stroke="white" stroke-width="1.5" d="M0,-3.0v7 M-2.5,-0.5L0,-3.0L2.5,-0.5"/>
                </g>
               <g id="resetDef">
                       <use xlink:href="#rim2" fill="#404040">
                               <set attributeName="fill" to="#808080" begin="reset.mouseover" end="reset.mouseout"/>
                       </use>
               </g>
        </defs>

<script type="text/javascript">
var viewWidth = 911;
var viewHeight = 598;
var sectionId = 'dynsection-33';
</script>
<script xlink:href="svgpan.js"/>
<svg id="graph" class="graph">
<g id="viewport">
<title>get_limbz</title>
<!-- Node1 -->
<g id="node1" class="node">
<title>Node1</title>
<g id="a_node1"><a xlink:title=" ">
<polygon fill="#bfbfbf" stroke="black" points="838,-332.5 838,-351.5 903,-351.5 903,-332.5 838,-332.5"/>
<text text-anchor="middle" x="870.5" y="-339.5" font-family="Helvetica,sans-Serif" font-size="10.00">get_limbz</text>
</a>
</g>
</g>
<!-- Node2 -->
<g id="node2" class="node">
<title>Node2</title>
<g id="a_node2"><a xlink:href="libbf_8c.html#aaebd1df91497246cd81f23918af58d33" target="_top" xlink:title=" ">
<polygon fill="none" stroke="black" points="544.5,-532.5 544.5,-551.5 636.5,-551.5 636.5,-532.5 544.5,-532.5"/>
<text text-anchor="middle" x="590.5" y="-539.5" font-family="Helvetica,sans-Serif" font-size="10.00">bf_add_internal</text>
</a>
</g>
</g>
<!-- Node1&#45;&gt;Node2 -->
<g id="edge1" class="edge">
<title>Node1&#45;&gt;Node2</title>
<path fill="none" stroke="midnightblue" d="M858.19,-360.22C845.99,-378.86 825.16,-407.86 802,-428 743.67,-478.72 658.98,-515.92 617.02,-532.47"/>
<polygon fill="midnightblue" stroke="midnightblue" points="861.17,-362.06 863.61,-351.75 855.27,-358.29 861.17,-362.06"/>
</g>
<!-- Node60 -->
<g id="node10" class="node">
<title>Node60</title>
<g id="a_node10"><a xlink:href="libbf_8h.html#a165ae2c6d3fee618014b7c9ea4f944dc" target="_top" xlink:title=" ">
<polygon fill="none" stroke="black" points="713,-266.5 713,-285.5 772,-285.5 772,-266.5 713,-266.5"/>
<text text-anchor="middle" x="742.5" y="-273.5" font-family="Helvetica,sans-Serif" font-size="10.00">bf_cmpu</text>
</a>
</g>
</g>
<!-- Node1&#45;&gt;Node60 -->
<g id="edge12" class="edge">
<title>Node1&#45;&gt;Node60</title>
<path fill="none" stroke="midnightblue" d="M842.11,-327.65C817.79,-314.92 782.94,-296.66 761.84,-285.61"/>
<polygon fill="midnightblue" stroke="midnightblue" points="840.7,-330.86 851.18,-332.4 843.94,-324.66 840.7,-330.86"/>
</g>
<!-- Node82 -->
<g id="node28" class="node">
<title>Node82</title>
<g id="a_node28"><a xlink:href="libbf_8c.html#ad6bddd5fff6d7452fe82c4a9e3a49cfa" target="_top" xlink:title=" ">
<polygon fill="none" stroke="black" points="683,-399.5 683,-418.5 802,-418.5 802,-399.5 683,-399.5"/>
<text text-anchor="middle" x="742.5" y="-406.5" font-family="Helvetica,sans-Serif" font-size="10.00">count_cancelled_bits</text>
</a>
</g>
</g>
<!-- Node1&#45;&gt;Node82 -->
<g id="edge36" class="edge">
<title>Node1&#45;&gt;Node82</title>
<path fill="none" stroke="midnightblue" d="M842.34,-356.44C817.89,-369.44 782.65,-388.18 761.52,-399.42"/>
<polygon fill="midnightblue" stroke="midnightblue" points="844.26,-359.38 851.45,-351.6 840.97,-353.2 844.26,-359.38"/>
</g>
<!-- Node30 -->
<g id="node29" class="node">
<title>Node30</title>
<g id="a_node29"><a xlink:href="libbf_8c.html#ae598665f1f567f67350a972a972ef86a" target="_top" xlink:title=" ">
<polygon fill="none" stroke="black" points="702.5,-114.5 702.5,-133.5 782.5,-133.5 782.5,-114.5 702.5,-114.5"/>
<text text-anchor="middle" x="742.5" y="-121.5" font-family="Helvetica,sans-Serif" font-size="10.00">output_digits</text>
</a>
</g>
</g>
<!-- Node1&#45;&gt;Node30 -->
<g id="edge38" class="edge">
<title>Node1&#45;&gt;Node30</title>
<path fill="none" stroke="midnightblue" d="M858.78,-323.46C833.02,-278.88 768.31,-166.92 749.01,-133.54"/>
<polygon fill="midnightblue" stroke="midnightblue" points="855.89,-325.45 863.92,-332.35 861.95,-321.94 855.89,-325.45"/>
</g>
<!-- Node3 -->
<g id="node3" class="node">
<title>Node3</title>
<g id="a_node3"><a xlink:href="libbf_8c.html#a951a1d3ebb338129d86e00f51b47f2ee" target="_top" xlink:title=" ">
<polygon fill="none" stroke="black" points="413,-570.5 413,-589.5 473,-589.5 473,-570.5 413,-570.5"/>
<text text-anchor="middle" x="443" y="-577.5" font-family="Helvetica,sans-Serif" font-size="10.00">__bf_add</text>
</a>
</g>
</g>
<!-- Node2&#45;&gt;Node3 -->
<g id="edge2" class="edge">
<title>Node2&#45;&gt;Node3</title>
<path fill="none" stroke="midnightblue" d="M542.95,-554.16C520.12,-560.12 493.32,-567.12 473.38,-572.33"/>
<polygon fill="midnightblue" stroke="midnightblue" points="543.99,-557.5 552.78,-551.59 542.22,-550.73 543.99,-557.5"/>
</g>
<!-- Node57 -->
<g id="node6" class="node">
<title>Node57</title>
<g id="a_node6"><a xlink:href="libbf_8c.html#aa3b3bc85aee9c531439d5fbc92986dfe" target="_top" xlink:title=" ">
<polygon fill="none" stroke="black" points="413.5,-532.5 413.5,-551.5 472.5,-551.5 472.5,-532.5 413.5,-532.5"/>
<text text-anchor="middle" x="443" y="-539.5" font-family="Helvetica,sans-Serif" font-size="10.00">__bf_sub</text>
</a>
</g>
</g>
<!-- Node2&#45;&gt;Node57 -->
<g id="edge6" class="edge">
<title>Node2&#45;&gt;Node57</title>
<path fill="none" stroke="midnightblue" d="M534.18,-542C513.23,-542 490.24,-542 472.71,-542"/>
<polygon fill="midnightblue" stroke="midnightblue" points="534.26,-545.5 544.26,-542 534.26,-538.5 534.26,-545.5"/>
</g>
<!-- Node4 -->
<g id="node4" class="node">
<title>Node4</title>
<g id="a_node4"><a xlink:href="libbf_8h.html#a17dc09166f82ffa408f54a2edc4d7855" target="_top" xlink:title=" ">
<polygon fill="none" stroke="red" points="285.5,-551.5 285.5,-570.5 335.5,-570.5 335.5,-551.5 285.5,-551.5"/>
<text text-anchor="middle" x="310.5" y="-558.5" font-family="Helvetica,sans-Serif" font-size="10.00">bf_add</text>
</a>
</g>
</g>
<!-- Node3&#45;&gt;Node4 -->
<g id="edge3" class="edge">
<title>Node3&#45;&gt;Node4</title>
<path fill="none" stroke="midnightblue" d="M402.78,-574.29C381.03,-571.12 354.67,-567.28 335.88,-564.55"/>
<polygon fill="midnightblue" stroke="midnightblue" points="402.31,-577.76 412.71,-575.74 403.32,-570.83 402.31,-577.76"/>
</g>
<!-- Node28 -->
<g id="node5" class="node">
<title>Node28</title>
<g id="a_node5"><a xlink:href="libbf_8c.html#aa94726eca10adb51bd141319fdfdb20c" target="_top" xlink:title=" ">
<polygon fill="none" stroke="red" points="102,-494.5 102,-513.5 233,-513.5 233,-494.5 102,-494.5"/>
<text text-anchor="middle" x="167.5" y="-501.5" font-family="Helvetica,sans-Serif" font-size="10.00">bf_integer_to_radix_rec</text>
</a>
</g>
</g>
<!-- Node4&#45;&gt;Node28 -->
<g id="edge4" class="edge">
<title>Node4&#45;&gt;Node28</title>
<path fill="none" stroke="midnightblue" d="M276.5,-547.66C250.64,-537.2 215.28,-522.91 192.18,-513.57"/>
<polygon fill="midnightblue" stroke="midnightblue" points="275.32,-550.96 285.9,-551.46 277.94,-544.47 275.32,-550.96"/>
</g>
<!-- Node28&#45;&gt;Node28 -->
<g id="edge5" class="edge">
<title>Node28&#45;&gt;Node28</title>
<path fill="none" stroke="midnightblue" d="M192.43,-523.03C191.07,-528.13 182.76,-532 167.5,-532 143.68,-532 136.8,-522.57 146.85,-513.76"/>
<polygon fill="midnightblue" stroke="midnightblue" points="195.52,-521.37 188.15,-513.76 189.16,-524.3 195.52,-521.37"/>
</g>
<!-- Node58 -->
<g id="node7" class="node">
<title>Node58</title>
<g id="a_node7"><a xlink:href="libbf_8h.html#abf69a9bc02b7c299bb75d172fa102d84" target="_top" xlink:title=" ">
<polygon fill="none" stroke="red" points="286,-456.5 286,-475.5 335,-475.5 335,-456.5 286,-456.5"/>
<text text-anchor="middle" x="310.5" y="-463.5" font-family="Helvetica,sans-Serif" font-size="10.00">bf_sub</text>
</a>
</g>
</g>
<!-- Node57&#45;&gt;Node58 -->
<g id="edge7" class="edge">
<title>Node57&#45;&gt;Node58</title>
<path fill="none" stroke="midnightblue" d="M416.49,-527.14C390.26,-511.87 350.18,-488.53 327.89,-475.55"/>
<polygon fill="midnightblue" stroke="midnightblue" points="415.07,-530.37 425.47,-532.37 418.59,-524.32 415.07,-530.37"/>
</g>
<!-- Node58&#45;&gt;Node28 -->
<g id="edge9" class="edge">
<title>Node58&#45;&gt;Node28</title>
<path fill="none" stroke="midnightblue" d="M276.1,-475C254.34,-480.87 225.97,-488.51 203.82,-494.48"/>
<polygon fill="midnightblue" stroke="midnightblue" points="277.16,-478.34 285.9,-472.36 275.33,-471.58 277.16,-478.34"/>
</g>
<!-- Node18 -->
<g id="node8" class="node">
<title>Node18</title>
<g id="a_node8"><a xlink:href="libbf_8h.html#a951ec20cd7fa3bf021d165b213e15ce4" target="_top" xlink:title=" ">
<polygon fill="none" stroke="red" points="0,-418.5 0,-437.5 66,-437.5 66,-418.5 0,-418.5"/>
<text text-anchor="middle" x="33" y="-425.5" font-family="Helvetica,sans-Serif" font-size="10.00">bf_divrem</text>
</a>
</g>
</g>
<!-- Node58&#45;&gt;Node18 -->
<g id="edge8" class="edge">
<title>Node58&#45;&gt;Node18</title>
<path fill="none" stroke="midnightblue" d="M275.93,-464.8C234.68,-462.89 162.71,-458.17 102,-447 89.22,-444.65 75.37,-440.99 63.52,-437.5"/>
<polygon fill="midnightblue" stroke="midnightblue" points="275.83,-468.29 285.97,-465.23 276.13,-461.3 275.83,-468.29"/>
</g>
<!-- Node59 -->
<g id="node9" class="node">
<title>Node59</title>
<g id="a_node9"><a xlink:href="libbf_8c.html#a4f1865c8160fb851cce8015c3edb4d4f" target="_top" xlink:title=" ">
<polygon fill="none" stroke="black" points="129.5,-418.5 129.5,-437.5 205.5,-437.5 205.5,-418.5 129.5,-418.5"/>
<text text-anchor="middle" x="167.5" y="-425.5" font-family="Helvetica,sans-Serif" font-size="10.00">bf_tdivremu</text>
</a>
</g>
</g>
<!-- Node58&#45;&gt;Node59 -->
<g id="edge10" class="edge">
<title>Node58&#45;&gt;Node59</title>
<path fill="none" stroke="midnightblue" d="M276.1,-457C254.34,-451.13 225.97,-443.49 203.82,-437.52"/>
<polygon fill="midnightblue" stroke="midnightblue" points="275.33,-460.42 285.9,-459.64 277.16,-453.66 275.33,-460.42"/>
</g>
<!-- Node59&#45;&gt;Node18 -->
<g id="edge11" class="edge">
<title>Node59&#45;&gt;Node18</title>
<path fill="none" stroke="midnightblue" d="M119.13,-428C101.52,-428 81.96,-428 66.04,-428"/>
<polygon fill="midnightblue" stroke="midnightblue" points="119.24,-431.5 129.24,-428 119.24,-424.5 119.24,-431.5"/>
</g>
<!-- Node60&#45;&gt;Node2 -->
<g id="edge14" class="edge">
<title>Node60&#45;&gt;Node2</title>
<path fill="none" stroke="midnightblue" d="M730.58,-294.43C717.83,-316.54 696.74,-355.01 683,-390 661.4,-445.01 685.9,-473.51 647,-518 641.54,-524.24 634.17,-528.92 626.58,-532.4"/>
<polygon fill="midnightblue" stroke="midnightblue" points="733.63,-296.15 735.64,-285.75 727.58,-292.63 733.63,-296.15"/>
</g>
<!-- Node60&#45;&gt;Node28 -->
<g id="edge28" class="edge">
<title>Node60&#45;&gt;Node28</title>
<path fill="none" stroke="midnightblue" d="M731.13,-294.61C718.9,-316.92 698.28,-355.62 683,-390 664.66,-431.26 683.64,-458.61 647,-485 582.66,-531.34 348.54,-519.17 233.37,-509.96"/>
<polygon fill="midnightblue" stroke="midnightblue" points="734.35,-296.03 736.12,-285.58 728.22,-292.64 734.35,-296.03"/>
</g>
<!-- Node60&#45;&gt;Node18 -->
<g id="edge26" class="edge">
<title>Node60&#45;&gt;Node18</title>
<path fill="none" stroke="midnightblue" d="M719.29,-291.02C671.3,-321.97 553.38,-390 444,-390 444,-390 444,-390 309.5,-390 216.89,-390 193.08,-392.25 102,-409 89.22,-411.35 75.37,-415.01 63.52,-418.5"/>
<polygon fill="midnightblue" stroke="midnightblue" points="721.23,-293.93 727.68,-285.52 717.4,-288.08 721.23,-293.93"/>
</g>
<!-- Node60&#45;&gt;Node59 -->
<g id="edge30" class="edge">
<title>Node60&#45;&gt;Node59</title>
<path fill="none" stroke="midnightblue" d="M733.8,-295.23C720.84,-324.68 691.66,-380.04 647,-404 571.05,-444.75 304.46,-435.25 205.68,-430.15"/>
<polygon fill="midnightblue" stroke="midnightblue" points="737.17,-296.24 737.83,-285.66 730.72,-293.52 737.17,-296.24"/>
</g>
<!-- Node16 -->
<g id="node11" class="node">
<title>Node16</title>
<g id="a_node11"><a xlink:href="libbf_8h.html#a45cd74dd3a694c26e716762b7fd36955" target="_top" xlink:title=" ">
<polygon fill="none" stroke="black" points="563.5,-76.5 563.5,-95.5 617.5,-95.5 617.5,-76.5 563.5,-76.5"/>
<text text-anchor="middle" x="590.5" y="-83.5" font-family="Helvetica,sans-Serif" font-size="10.00">bf_acos</text>
</a>
</g>
</g>
<!-- Node60&#45;&gt;Node16 -->
<g id="edge13" class="edge">
<title>Node60&#45;&gt;Node16</title>
<path fill="none" stroke="midnightblue" d="M735.81,-256.24C724.63,-220.86 696.48,-146.5 647,-105 638.65,-98 627.58,-93.53 617.53,-90.7"/>
<polygon fill="midnightblue" stroke="midnightblue" points="732.6,-257.71 738.85,-266.27 739.3,-255.68 732.6,-257.71"/>
</g>
<!-- Node6 -->
<g id="node12" class="node">
<title>Node6</title>
<g id="a_node12"><a xlink:href="libbf_8h.html#a8ee86879e3da22442956f47356855edd" target="_top" xlink:title=" ">
<polygon fill="none" stroke="black" points="564.5,-38.5 564.5,-57.5 616.5,-57.5 616.5,-38.5 564.5,-38.5"/>
<text text-anchor="middle" x="590.5" y="-45.5" font-family="Helvetica,sans-Serif" font-size="10.00">bf_asin</text>
</a>
</g>
</g>
<!-- Node60&#45;&gt;Node6 -->
<g id="edge15" class="edge">
<title>Node60&#45;&gt;Node6</title>
<path fill="none" stroke="midnightblue" d="M733.23,-257.2C710.91,-206.49 650.83,-70.49 647,-67 638.64,-59.39 627.09,-54.81 616.7,-52.06"/>
<polygon fill="midnightblue" stroke="midnightblue" points="730.05,-258.65 737.28,-266.39 736.46,-255.83 730.05,-258.65"/>
</g>
<!-- Node7 -->
<g id="node13" class="node">
<title>Node7</title>
<g id="a_node13"><a xlink:href="libbf_8h.html#a0bb2c5b98e3f978b84df9849c7ec50d6" target="_top" xlink:title=" ">
<polygon fill="none" stroke="red" points="564,-456.5 564,-475.5 617,-475.5 617,-456.5 564,-456.5"/>
<text text-anchor="middle" x="590.5" y="-463.5" font-family="Helvetica,sans-Serif" font-size="10.00">bf_atan</text>
</a>
</g>
</g>
<!-- Node60&#45;&gt;Node7 -->
<g id="edge16" class="edge">
<title>Node60&#45;&gt;Node7</title>
<path fill="none" stroke="midnightblue" d="M731.84,-294.48C710.32,-335.39 659.38,-430.91 647,-442 638.56,-449.57 627.36,-455.02 617.24,-458.8"/>
<polygon fill="midnightblue" stroke="midnightblue" points="734.98,-296.03 736.52,-285.55 728.78,-292.78 734.98,-296.03"/>
</g>
<!-- Node61 -->
<g id="node14" class="node">
<title>Node61</title>
<g id="a_node14"><a xlink:href="libbf_8h.html#a9508b6f4e9f4be88f4b5b0352217e9c5" target="_top" xlink:title=" ">
<polygon fill="none" stroke="black" points="564,-285.5 564,-304.5 617,-304.5 617,-285.5 564,-285.5"/>
<text text-anchor="middle" x="590.5" y="-292.5" font-family="Helvetica,sans-Serif" font-size="10.00">bf_cmp</text>
</a>
</g>
</g>
<!-- Node60&#45;&gt;Node61 -->
<g id="edge17" class="edge">
<title>Node60&#45;&gt;Node61</title>
<path fill="none" stroke="midnightblue" d="M702.73,-280.91C675.91,-284.31 640.96,-288.74 617.45,-291.71"/>
<polygon fill="midnightblue" stroke="midnightblue" points="703.45,-284.35 712.93,-279.62 702.57,-277.4 703.45,-284.35"/>
</g>
<!-- Node27 -->
<g id="node16" class="node">
<title>Node27</title>
<g id="a_node16"><a xlink:href="libbf_8h.html#a93fe073491f8c5f086a75e7bf8865b34" target="_top" xlink:title=" ">
<polygon fill="none" stroke="black" points="284.5,-247.5 284.5,-266.5 336.5,-266.5 336.5,-247.5 284.5,-247.5"/>
<text text-anchor="middle" x="310.5" y="-254.5" font-family="Helvetica,sans-Serif" font-size="10.00">bf_pow</text>
</a>
</g>
</g>
<!-- Node60&#45;&gt;Node27 -->
<g id="edge29" class="edge">
<title>Node60&#45;&gt;Node27</title>
<path fill="none" stroke="midnightblue" d="M725.94,-258.81C708.58,-240.87 678.75,-213.5 647,-200 585.57,-173.88 564.62,-185.23 498,-181 449.21,-177.9 433.2,-162.37 388,-181 354.94,-194.63 328.63,-230.23 317.4,-247.43"/>
<polygon fill="midnightblue" stroke="midnightblue" points="723.59,-261.42 732.99,-266.31 728.69,-256.63 723.59,-261.42"/>
</g>
<!-- Node69 -->
<g id="node20" class="node">
<title>Node69</title>
<g id="a_node20"><a xlink:href="libbf_8h.html#a8e4b224e136c1b2f7785a8cdf6fe9d06" target="_top" xlink:title=" ">
<polygon fill="none" stroke="black" points="553.5,-247.5 553.5,-266.5 627.5,-266.5 627.5,-247.5 553.5,-247.5"/>
<text text-anchor="middle" x="590.5" y="-254.5" font-family="Helvetica,sans-Serif" font-size="10.00">bf_cmp_full</text>
</a>
</g>
</g>
<!-- Node60&#45;&gt;Node69 -->
<g id="edge23" class="edge">
<title>Node60&#45;&gt;Node69</title>
<path fill="none" stroke="midnightblue" d="M702.76,-271.09C679.6,-268.16 650.35,-264.45 627.66,-261.58"/>
<polygon fill="midnightblue" stroke="midnightblue" points="702.57,-274.6 712.93,-272.38 703.45,-267.65 702.57,-274.6"/>
</g>
<!-- Node71 -->
<g id="node22" class="node">
<title>Node71</title>
<g id="a_node22"><a xlink:href="libbf_8c.html#a13930fbd670b65bf9f8c07a0fbcfc63b" target="_top" xlink:title=" ">
<polygon fill="none" stroke="black" points="534,-209.5 534,-228.5 647,-228.5 647,-209.5 534,-209.5"/>
<text text-anchor="middle" x="590.5" y="-216.5" font-family="Helvetica,sans-Serif" font-size="10.00">bf_convert_to_radix</text>
</a>
</g>
</g>
<!-- Node60&#45;&gt;Node71 -->
<g id="edge25" class="edge">
<title>Node60&#45;&gt;Node71</title>
<path fill="none" stroke="midnightblue" d="M709.43,-262.62C691.21,-255.14 667.93,-245.79 647,-238 638.41,-234.8 629,-231.51 620.41,-228.58"/>
<polygon fill="midnightblue" stroke="midnightblue" points="708.14,-265.87 718.72,-266.45 710.81,-259.4 708.14,-265.87"/>
</g>
<!-- Node31 -->
<g id="node23" class="node">
<title>Node31</title>
<g id="a_node23"><a xlink:href="libbf_8c.html#ad79aefc435021a0743c89cb4aec7fa56" target="_top" xlink:title=" ">
<polygon fill="none" stroke="red" points="544,-0.5 544,-19.5 637,-19.5 637,-0.5 544,-0.5"/>
<text text-anchor="middle" x="590.5" y="-7.5" font-family="Helvetica,sans-Serif" font-size="10.00">bf_ftoa_internal</text>
</a>
</g>
</g>
<!-- Node60&#45;&gt;Node31 -->
<g id="edge27" class="edge">
<title>Node60&#45;&gt;Node31</title>
<path fill="none" stroke="midnightblue" d="M732.47,-257.23C720.37,-231.71 698.63,-184.5 683,-143 664.28,-93.28 684.12,-67.02 647,-29 643.23,-25.14 638.64,-22.06 633.74,-19.61"/>
<polygon fill="midnightblue" stroke="midnightblue" points="729.41,-258.95 736.88,-266.47 735.73,-255.94 729.41,-258.95"/>
</g>
<!-- Node72 -->
<g id="node24" class="node">
<title>Node72</title>
<g id="a_node24"><a xlink:href="libbf_8h.html#ab76f65059ac29df0d8ed9f719db8ba06" target="_top" xlink:title=" ">
<polygon fill="none" stroke="black" points="552.5,-114.5 552.5,-133.5 628.5,-133.5 628.5,-114.5 552.5,-114.5"/>
<text text-anchor="middle" x="590.5" y="-121.5" font-family="Helvetica,sans-Serif" font-size="10.00">bfdec_cmpu</text>
</a>
</g>
</g>
<!-- Node60&#45;&gt;Node72 -->
<g id="edge31" class="edge">
<title>Node60&#45;&gt;Node72</title>
<path fill="none" stroke="midnightblue" d="M731.95,-257.4C717.1,-230.1 686.1,-179.07 647,-148 639.44,-141.99 630.14,-137.2 621.34,-133.53"/>
<polygon fill="midnightblue" stroke="midnightblue" points="728.89,-259.1 736.67,-266.3 735.08,-255.82 728.89,-259.1"/>
</g>
<!-- Node62 -->
<g id="node15" class="node">
<title>Node62</title>
<g id="a_node15"><a xlink:href="libbf_8h.html#a78ee01fc94a63c4dc6cf252275f21a77" target="_top" xlink:title=" ">
<polygon fill="none" stroke="red" points="408,-342.5 408,-361.5 478,-361.5 478,-342.5 408,-342.5"/>
<text text-anchor="middle" x="443" y="-349.5" font-family="Helvetica,sans-Serif" font-size="10.00">bf_cmp_eq</text>
</a>
</g>
</g>
<!-- Node61&#45;&gt;Node62 -->
<g id="edge18" class="edge">
<title>Node61&#45;&gt;Node62</title>
<path fill="none" stroke="midnightblue" d="M558.22,-308.5C540.62,-315.96 518.19,-325.26 498,-333 489.65,-336.2 480.49,-339.5 472.13,-342.43"/>
<polygon fill="midnightblue" stroke="midnightblue" points="559.62,-311.7 567.45,-304.56 556.88,-305.26 559.62,-311.7"/>
</g>
<!-- Node63 -->
<g id="node17" class="node">
<title>Node63</title>
<g id="a_node17"><a xlink:href="libbf_8h.html#adfeab40ffdf60f75a5ed33aab5e4a2fd" target="_top" xlink:title=" ">
<polygon fill="none" stroke="black" points="409.5,-266.5 409.5,-285.5 476.5,-285.5 476.5,-266.5 409.5,-266.5"/>
<text text-anchor="middle" x="443" y="-273.5" font-family="Helvetica,sans-Serif" font-size="10.00">bf_cmp_le</text>
</a>
</g>
</g>
<!-- Node61&#45;&gt;Node63 -->
<g id="edge20" class="edge">
<title>Node61&#45;&gt;Node63</title>
<path fill="none" stroke="midnightblue" d="M553.86,-290.35C530.24,-287.26 499.51,-283.25 476.56,-280.25"/>
<polygon fill="midnightblue" stroke="midnightblue" points="553.45,-293.82 563.82,-291.65 554.36,-286.88 553.45,-293.82"/>
</g>
<!-- Node64 -->
<g id="node18" class="node">
<title>Node64</title>
<g id="a_node18"><a xlink:href="libbf_8h.html#a1605a1fe6f0294e38b4da16867bf162f" target="_top" xlink:title=" ">
<polygon fill="none" stroke="red" points="410.5,-228.5 410.5,-247.5 475.5,-247.5 475.5,-228.5 410.5,-228.5"/>
<text text-anchor="middle" x="443" y="-235.5" font-family="Helvetica,sans-Serif" font-size="10.00">bf_cmp_lt</text>
</a>
</g>
</g>
<!-- Node61&#45;&gt;Node64 -->
<g id="edge21" class="edge">
<title>Node61&#45;&gt;Node64</title>
<path fill="none" stroke="midnightblue" d="M554.11,-283.81C547.36,-281.41 540.41,-278.77 534,-276 517.39,-268.83 514.58,-264.24 498,-257 490.26,-253.62 481.71,-250.39 473.73,-247.58"/>
<polygon fill="midnightblue" stroke="midnightblue" points="553.17,-287.19 563.76,-287.12 555.44,-280.56 553.17,-287.19"/>
</g>
<!-- Node65 -->
<g id="node19" class="node">
<title>Node65</title>
<g id="a_node19"><a xlink:href="libbf_8h.html#af89ce1e4918c3773780556b2b2e1c24f" target="_top" xlink:title=" ">
<polygon fill="none" stroke="red" points="408,-304.5 408,-323.5 478,-323.5 478,-304.5 408,-304.5"/>
<text text-anchor="middle" x="443" y="-311.5" font-family="Helvetica,sans-Serif" font-size="10.00">bfdec_cmp</text>
</a>
</g>
</g>
<!-- Node61&#45;&gt;Node65 -->
<g id="edge22" class="edge">
<title>Node61&#45;&gt;Node65</title>
<path fill="none" stroke="midnightblue" d="M553.76,-299.67C530.7,-302.68 500.9,-306.57 478.16,-309.54"/>
<polygon fill="midnightblue" stroke="midnightblue" points="554.36,-303.12 563.82,-298.35 553.45,-296.18 554.36,-303.12"/>
</g>
<!-- Node62&#45;&gt;Node27 -->
<g id="edge19" class="edge">
<title>Node62&#45;&gt;Node27</title>
<path fill="none" stroke="midnightblue" d="M398.56,-338.68C394.89,-336.97 391.32,-335.08 388,-333 358.34,-314.4 331.19,-282.42 318.71,-266.53"/>
<polygon fill="midnightblue" stroke="midnightblue" points="397.23,-341.91 407.81,-342.56 399.94,-335.46 397.23,-341.91"/>
</g>
<!-- Node70 -->
<g id="node21" class="node">
<title>Node70</title>
<g id="a_node21"><a xlink:href="libbf_8h.html#a8718d978bcf4aad8ca92abd7e897257e" target="_top" xlink:title=" ">
<polygon fill="none" stroke="black" points="397.5,-190.5 397.5,-209.5 488.5,-209.5 488.5,-190.5 397.5,-190.5"/>
<text text-anchor="middle" x="443" y="-197.5" font-family="Helvetica,sans-Serif" font-size="10.00">bfdec_cmp_full</text>
</a>
</g>
</g>
<!-- Node69&#45;&gt;Node70 -->
<g id="edge24" class="edge">
<title>Node69&#45;&gt;Node70</title>
<path fill="none" stroke="midnightblue" d="M549.14,-244.01C544,-242.11 538.84,-240.09 534,-238 517.39,-230.83 514.58,-226.24 498,-219 490.26,-215.62 481.71,-212.39 473.73,-209.58"/>
<polygon fill="midnightblue" stroke="midnightblue" points="548.34,-247.44 558.93,-247.49 550.68,-240.84 548.34,-247.44"/>
</g>
<!-- Node73 -->
<g id="node25" class="node">
<title>Node73</title>
<g id="a_node25"><a xlink:href="libbf_8c.html#adab81046eaf5fc5a75e1bae96b75be66" target="_top" xlink:title=" ">
<polygon fill="none" stroke="red" points="388,-38.5 388,-57.5 498,-57.5 498,-38.5 388,-38.5"/>
<text text-anchor="middle" x="443" y="-45.5" font-family="Helvetica,sans-Serif" font-size="10.00">bfdec_add_internal</text>
</a>
</g>
</g>
<!-- Node72&#45;&gt;Node73 -->
<g id="edge32" class="edge">
<title>Node72&#45;&gt;Node73</title>
<path fill="none" stroke="midnightblue" d="M544,-110.5C540.52,-108.85 537.14,-107.02 534,-105 514.43,-92.42 517.52,-79.66 498,-67 492.16,-63.21 485.48,-60.08 478.85,-57.52"/>
<polygon fill="midnightblue" stroke="midnightblue" points="542.81,-113.8 553.39,-114.48 545.54,-107.35 542.81,-113.8"/>
</g>
<!-- Node77 -->
<g id="node26" class="node">
<title>Node77</title>
<g id="a_node26"><a xlink:href="libbf_8h.html#a318508be097917ddd5d1ce187edea68b" target="_top" xlink:title=" ">
<polygon fill="none" stroke="red" points="269,-95.5 269,-114.5 352,-114.5 352,-95.5 269,-95.5"/>
<text text-anchor="middle" x="310.5" y="-102.5" font-family="Helvetica,sans-Serif" font-size="10.00">bfdec_divrem</text>
</a>
</g>
</g>
<!-- Node72&#45;&gt;Node77 -->
<g id="edge33" class="edge">
<title>Node72&#45;&gt;Node77</title>
<path fill="none" stroke="midnightblue" d="M542.06,-120.76C488.59,-117.1 402.57,-111.22 352.09,-107.77"/>
<polygon fill="midnightblue" stroke="midnightblue" points="542.08,-124.27 552.3,-121.46 542.56,-117.28 542.08,-124.27"/>
</g>
<!-- Node81 -->
<g id="node27" class="node">
<title>Node81</title>
<g id="a_node27"><a xlink:href="libbf_8c.html#a4fe4f91a21701a55cffbc44f1eb141b6" target="_top" xlink:title=" ">
<polygon fill="none" stroke="black" points="396.5,-76.5 396.5,-95.5 489.5,-95.5 489.5,-76.5 396.5,-76.5"/>
<text text-anchor="middle" x="443" y="-83.5" font-family="Helvetica,sans-Serif" font-size="10.00">bfdec_tdivremu</text>
</a>
</g>
</g>
<!-- Node72&#45;&gt;Node81 -->
<g id="edge34" class="edge">
<title>Node72&#45;&gt;Node81</title>
<path fill="none" stroke="midnightblue" d="M542.85,-111.82C522.65,-106.54 499.35,-100.46 480.45,-95.52"/>
<polygon fill="midnightblue" stroke="midnightblue" points="542.22,-115.27 552.78,-114.41 543.99,-108.5 542.22,-115.27"/>
</g>
<!-- Node81&#45;&gt;Node77 -->
<g id="edge35" class="edge">
<title>Node81&#45;&gt;Node77</title>
<path fill="none" stroke="midnightblue" d="M386.39,-94.1C374.88,-95.77 362.96,-97.51 352.11,-99.09"/>
<polygon fill="midnightblue" stroke="midnightblue" points="386.97,-97.55 396.36,-92.65 385.96,-90.62 386.97,-97.55"/>
</g>
<!-- Node82&#45;&gt;Node2 -->
<g id="edge37" class="edge">
<title>Node82&#45;&gt;Node2</title>
<path fill="none" stroke="midnightblue" d="M727.2,-426.33C703.21,-455.28 656.52,-511.03 647,-518 638.96,-523.89 629.24,-528.72 620.2,-532.46"/>
<polygon fill="midnightblue" stroke="midnightblue" points="729.91,-428.55 733.59,-418.61 724.52,-424.08 729.91,-428.55"/>
</g>
<!-- Node30&#45;&gt;Node31 -->
<g id="edge39" class="edge">
<title>Node30&#45;&gt;Node31</title>
<path fill="none" stroke="midnightblue" d="M728.21,-106.37C711.43,-85.24 680.65,-50.05 647,-29 640.96,-25.22 634.07,-22.09 627.25,-19.53"/>
<polygon fill="midnightblue" stroke="midnightblue" points="725.61,-108.74 734.51,-114.49 731.14,-104.44 725.61,-108.74"/>
</g>
</g>
</svg>
        <g id="navigator" transform="translate(0 0)" fill="#404254">
                <rect fill="#f2f5e9" fill-opacity="0.5" stroke="#606060" stroke-width=".5" x="0" y="0" width="60" height="60"/>
                <use id="zoomplus" xlink:href="#zoomPlus" x="17" y="9" onmousedown="handleZoom(evt,'in')"/>
                <use id="zoomminus" xlink:href="#zoomMin" x="42" y="9" onmousedown="handleZoom(evt,'out')"/>
                <use id="reset" xlink:href="#resetDef" x="30" y="36" onmousedown="handleReset()"/>
                <g id="arrowUp" xlink:href="#dirArrow" transform="translate(30 24)" onmousedown="handlePan(0,-1)">
                  <use xlink:href="#rim" fill="#404040">
                        <set attributeName="fill" to="#808080" begin="arrowUp.mouseover" end="arrowUp.mouseout"/>
                  </use>
                  <path fill="none" stroke="white" stroke-width="1.5" d="M0,-3.0v7 M-2.5,-0.5L0,-3.0L2.5,-0.5"/>
                </g>
                <g id="arrowRight" xlink:href="#dirArrow" transform="rotate(90) translate(36 -43)" onmousedown="handlePan(1,0)">
                  <use xlink:href="#rim" fill="#404040">
                        <set attributeName="fill" to="#808080" begin="arrowRight.mouseover" end="arrowRight.mouseout"/>
                  </use>
                  <path fill="none" stroke="white" stroke-width="1.5" d="M0,-3.0v7 M-2.5,-0.5L0,-3.0L2.5,-0.5"/>
                </g>
                <g id="arrowDown" xlink:href="#dirArrow" transform="rotate(180) translate(-30 -48)" onmousedown="handlePan(0,1)">
                  <use xlink:href="#rim" fill="#404040">
                        <set attributeName="fill" to="#808080" begin="arrowDown.mouseover" end="arrowDown.mouseout"/>
                  </use>
                  <path fill="none" stroke="white" stroke-width="1.5" d="M0,-3.0v7 M-2.5,-0.5L0,-3.0L2.5,-0.5"/>
                </g>
                <g id="arrowLeft" xlink:href="#dirArrow" transform="rotate(270) translate(-36 17)" onmousedown="handlePan(-1,0)">
                  <use xlink:href="#rim" fill="#404040">
                        <set attributeName="fill" to="#808080" begin="arrowLeft.mouseover" end="arrowLeft.mouseout"/>
                  </use>
                  <path fill="none" stroke="white" stroke-width="1.5" d="M0,-3.0v7 M-2.5,-0.5L0,-3.0L2.5,-0.5"/>
                </g>
        </g>
        <svg viewBox="0 0 15 15" width="100%" height="30px" preserveAspectRatio="xMaxYMin meet">
         <g id="arrow_out" transform="scale(0.3 0.3)">
          <a xlink:href="libbf_8c_a42c793dff09c27760634ad51e7184413_icgraph_org.svg" target="_base">
           <rect id="button" ry="5" rx="5" y="6" x="6" height="38" width="38"
                fill="#f2f5e9" fill-opacity="0.5" stroke="#606060" stroke-width="1.0"/>
           <path id="arrow"
             d="M 11.500037,31.436501 C 11.940474,20.09759 22.043105,11.32322 32.158766,21.979434 L 37.068811,17.246167 C 37.068811,17.246167 37.088388,32 37.088388,32 L 22.160133,31.978069 C 22.160133,31.978069 26.997745,27.140456 26.997745,27.140456 C 18.528582,18.264221 13.291696,25.230495 11.500037,31.436501 z"
             style="fill:#404040;"/>
          </a>
         </g>
        </svg>
</svg>
