<?xml version="1.0" encoding="UTF-8" standalone="no"?>
<!DOCTYPE svg PUBLIC "-//W3C//DTD SVG 1.1//EN"
 "http://www.w3.org/Graphics/SVG/1.1/DTD/svg11.dtd">
<!-- Generated by graphviz version 2.43.0 (0)
 -->
<!-- Title: bf_const_pi Pages: 1 -->
<!--zoomable 237 -->
<svg id="main" version="1.1" xmlns="http://www.w3.org/2000/svg" xmlns:xlink="http://www.w3.org/1999/xlink" xml:space="preserve" onload="init(evt)">
<style type="text/css"><![CDATA[
.edge:hover path { stroke: red; }
.edge:hover polygon { stroke: red; fill: red; }
]]></style>
<script type="text/javascript"><![CDATA[
var edges = document.getElementsByTagName('g');
if (edges && edges.length) {
  for (var i=0;i<edges.length;i++) {
    if (edges[i].id.substr(0,4)=='edge') {
      edges[i].setAttribute('class','edge');
    }
  }
}
]]></script>
        <defs>
                <circle id="rim" cx="0" cy="0" r="7"/>
                <circle id="rim2" cx="0" cy="0" r="3.5"/>
                <g id="zoomPlus">
                        <use xlink:href="#rim" fill="#404040">
                                <set attributeName="fill" to="#808080" begin="zoomplus.mouseover" end="zoomplus.mouseout"/>
                        </use>
                        <path d="M-4,0h8M0,-4v8" fill="none" stroke="white" stroke-width="1.5" pointer-events="none"/>
                </g>
                <g id="zoomMin">
                        <use xlink:href="#rim" fill="#404040">
                                <set attributeName="fill" to="#808080" begin="zoomminus.mouseover" end="zoomminus.mouseout"/>
                        </use>
                        <path d="M-4,0h8" fill="none" stroke="white" stroke-width="1.5" pointer-events="none"/>
                </g>
                <g id="dirArrow">
                        <path fill="none" stroke="white" stroke-width="1.5" d="M0,-3.0v7 M-2.5,-0.5L0,-3.0L2.5,-0.5"/>
                </g>
               <g id="resetDef">
                       <use xlink:href="#rim2" fill="#404040">
                               <set attributeName="fill" to="#808080" begin="reset.mouseover" end="reset.mouseout"/>
                       </use>
               </g>
        </defs>

<script type="text/javascript">
var viewWidth = 576;
var viewHeight = 237;
var sectionId = 'dynsection-200';
</script>
<script xlink:href="svgpan.js"/>
<svg id="graph" class="graph">
<g id="viewport">
<title>bf_const_pi</title>
<!-- Node1 -->
<g id="node1" class="node">
<title>Node1</title>
<g id="a_node1"><a xlink:title=" ">
<polygon fill="#bfbfbf" stroke="black" points="496,-133.5 496,-152.5 568,-152.5 568,-133.5 496,-133.5"/>
<text text-anchor="middle" x="532" y="-140.5" font-family="Helvetica,sans-Serif" font-size="10.00">bf_const_pi</text>
</a>
</g>
</g>
<!-- Node2 -->
<g id="node2" class="node">
<title>Node2</title>
<g id="a_node2"><a xlink:href="libbf_8h.html#a45cd74dd3a694c26e716762b7fd36955" target="_top" xlink:title=" ">
<polygon fill="none" stroke="black" points="119,-114.5 119,-133.5 173,-133.5 173,-114.5 119,-114.5"/>
<text text-anchor="middle" x="146" y="-121.5" font-family="Helvetica,sans-Serif" font-size="10.00">bf_acos</text>
</a>
</g>
</g>
<!-- Node1&#45;&gt;Node2 -->
<g id="edge1" class="edge">
<title>Node1&#45;&gt;Node2</title>
<path fill="none" stroke="midnightblue" d="M485.52,-140.75C404.41,-136.74 237.3,-128.47 173,-125.29"/>
<polygon fill="midnightblue" stroke="midnightblue" points="485.74,-144.26 495.9,-141.26 486.09,-137.27 485.74,-144.26"/>
</g>
<!-- Node3 -->
<g id="node3" class="node">
<title>Node3</title>
<g id="a_node3"><a xlink:href="libbf_8c.html#af760cf2a93bf130e8e44a62c7e7d0adf" target="_top" xlink:title=" ">
<polygon fill="none" stroke="black" points="95,-209.5 95,-228.5 197,-228.5 197,-209.5 95,-209.5"/>
<text text-anchor="middle" x="146" y="-216.5" font-family="Helvetica,sans-Serif" font-size="10.00">bf_atan2_internal</text>
</a>
</g>
</g>
<!-- Node1&#45;&gt;Node3 -->
<g id="edge2" class="edge">
<title>Node1&#45;&gt;Node3</title>
<path fill="none" stroke="midnightblue" d="M506.75,-157.63C493.31,-165.31 476.1,-174.46 460,-181 403.44,-203.98 388.45,-210.47 328,-219 284.13,-225.19 233.67,-224.56 197.2,-222.75"/>
<polygon fill="midnightblue" stroke="midnightblue" points="508.51,-160.65 515.39,-152.59 504.99,-154.6 508.51,-160.65"/>
</g>
<!-- Node5 -->
<g id="node5" class="node">
<title>Node5</title>
<g id="a_node5"><a xlink:href="libbf_8c.html#aa4b535a5b33344704c576607ab4f0463" target="_top" xlink:title=" ">
<polygon fill="none" stroke="black" points="364,-152.5 364,-171.5 460,-171.5 460,-152.5 364,-152.5"/>
<text text-anchor="middle" x="412" y="-159.5" font-family="Helvetica,sans-Serif" font-size="10.00">bf_atan_internal</text>
</a>
</g>
</g>
<!-- Node1&#45;&gt;Node5 -->
<g id="edge4" class="edge">
<title>Node1&#45;&gt;Node5</title>
<path fill="none" stroke="midnightblue" d="M485.96,-150.25C477.6,-151.6 468.83,-153.01 460.4,-154.37"/>
<polygon fill="midnightblue" stroke="midnightblue" points="486.6,-153.69 495.92,-148.65 485.49,-146.78 486.6,-153.69"/>
</g>
<!-- Node9 -->
<g id="node9" class="node">
<title>Node9</title>
<g id="a_node9"><a xlink:href="libbf_8c.html#a2b19e3958f6cf3fa0cc534681a5ff259" target="_top" xlink:title=" ">
<polygon fill="none" stroke="black" points="381,-57.5 381,-76.5 443,-76.5 443,-57.5 381,-57.5"/>
<text text-anchor="middle" x="412" y="-64.5" font-family="Helvetica,sans-Serif" font-size="10.00">bf_sincos</text>
</a>
</g>
</g>
<!-- Node1&#45;&gt;Node9 -->
<g id="edge10" class="edge">
<title>Node1&#45;&gt;Node9</title>
<path fill="none" stroke="midnightblue" d="M507.62,-127.94C483.9,-112.66 447.89,-89.47 427.82,-76.55"/>
<polygon fill="midnightblue" stroke="midnightblue" points="505.75,-130.9 516.06,-133.37 509.54,-125.02 505.75,-130.9"/>
</g>
<!-- Node4 -->
<g id="node4" class="node">
<title>Node4</title>
<g id="a_node4"><a xlink:href="libbf_8h.html#a78e29a7f1f858b99cbf3a0f97382c233" target="_top" xlink:title=" ">
<polygon fill="none" stroke="black" points="0,-209.5 0,-228.5 59,-228.5 59,-209.5 0,-209.5"/>
<text text-anchor="middle" x="29.5" y="-216.5" font-family="Helvetica,sans-Serif" font-size="10.00">bf_atan2</text>
</a>
</g>
</g>
<!-- Node3&#45;&gt;Node4 -->
<g id="edge3" class="edge">
<title>Node3&#45;&gt;Node4</title>
<path fill="none" stroke="midnightblue" d="M84.77,-219C75.9,-219 67.13,-219 59.31,-219"/>
<polygon fill="midnightblue" stroke="midnightblue" points="84.78,-222.5 94.78,-219 84.78,-215.5 84.78,-222.5"/>
</g>
<!-- Node6 -->
<g id="node6" class="node">
<title>Node6</title>
<g id="a_node6"><a xlink:href="libbf_8c.html#a4a0919b7e170befaf75d114d48d350cc" target="_top" xlink:title=" ">
<polygon fill="none" stroke="black" points="233,-152.5 233,-171.5 328,-171.5 328,-152.5 233,-152.5"/>
<text text-anchor="middle" x="280.5" y="-159.5" font-family="Helvetica,sans-Serif" font-size="10.00">bf_asin_internal</text>
</a>
</g>
</g>
<!-- Node5&#45;&gt;Node6 -->
<g id="edge5" class="edge">
<title>Node5&#45;&gt;Node6</title>
<path fill="none" stroke="midnightblue" d="M353.68,-162C345.22,-162 336.58,-162 328.37,-162"/>
<polygon fill="midnightblue" stroke="midnightblue" points="353.88,-165.5 363.88,-162 353.88,-158.5 353.88,-165.5"/>
</g>
<!-- Node8 -->
<g id="node8" class="node">
<title>Node8</title>
<g id="a_node8"><a xlink:href="libbf_8h.html#a0bb2c5b98e3f978b84df9849c7ec50d6" target="_top" xlink:title=" ">
<polygon fill="none" stroke="black" points="254,-190.5 254,-209.5 307,-209.5 307,-190.5 254,-190.5"/>
<text text-anchor="middle" x="280.5" y="-197.5" font-family="Helvetica,sans-Serif" font-size="10.00">bf_atan</text>
</a>
</g>
</g>
<!-- Node5&#45;&gt;Node8 -->
<g id="edge8" class="edge">
<title>Node5&#45;&gt;Node8</title>
<path fill="none" stroke="midnightblue" d="M368.68,-174.42C348.4,-180.37 324.77,-187.3 307.23,-192.45"/>
<polygon fill="midnightblue" stroke="midnightblue" points="369.71,-177.76 378.32,-171.59 367.74,-171.05 369.71,-177.76"/>
</g>
<!-- Node6&#45;&gt;Node2 -->
<g id="edge6" class="edge">
<title>Node6&#45;&gt;Node2</title>
<path fill="none" stroke="midnightblue" d="M236.2,-149.58C215.45,-143.63 191.27,-136.7 173.33,-131.55"/>
<polygon fill="midnightblue" stroke="midnightblue" points="235.49,-153.02 246.06,-152.41 237.42,-146.29 235.49,-153.02"/>
</g>
<!-- Node7 -->
<g id="node7" class="node">
<title>Node7</title>
<g id="a_node7"><a xlink:href="libbf_8h.html#a8ee86879e3da22442956f47356855edd" target="_top" xlink:title=" ">
<polygon fill="none" stroke="black" points="120,-152.5 120,-171.5 172,-171.5 172,-152.5 120,-152.5"/>
<text text-anchor="middle" x="146" y="-159.5" font-family="Helvetica,sans-Serif" font-size="10.00">bf_asin</text>
</a>
</g>
</g>
<!-- Node6&#45;&gt;Node7 -->
<g id="edge7" class="edge">
<title>Node6&#45;&gt;Node7</title>
<path fill="none" stroke="midnightblue" d="M222.56,-162C204.94,-162 186.43,-162 172.14,-162"/>
<polygon fill="midnightblue" stroke="midnightblue" points="222.79,-165.5 232.79,-162 222.79,-158.5 222.79,-165.5"/>
</g>
<!-- Node8&#45;&gt;Node3 -->
<g id="edge9" class="edge">
<title>Node8&#45;&gt;Node3</title>
<path fill="none" stroke="midnightblue" d="M243.98,-205.09C229.6,-207.15 212.75,-209.57 197.16,-211.81"/>
<polygon fill="midnightblue" stroke="midnightblue" points="244.55,-208.55 253.95,-203.66 243.56,-201.62 244.55,-208.55"/>
</g>
<!-- Node10 -->
<g id="node10" class="node">
<title>Node10</title>
<g id="a_node10"><a xlink:href="libbf_8c.html#a525aef36dca12b641b625b99bb853dc4" target="_top" xlink:title=" ">
<polygon fill="none" stroke="black" points="235,-38.5 235,-57.5 326,-57.5 326,-38.5 235,-38.5"/>
<text text-anchor="middle" x="280.5" y="-45.5" font-family="Helvetica,sans-Serif" font-size="10.00">bf_cos_internal</text>
</a>
</g>
</g>
<!-- Node9&#45;&gt;Node10 -->
<g id="edge11" class="edge">
<title>Node9&#45;&gt;Node10</title>
<path fill="none" stroke="midnightblue" d="M370.99,-61.13C356.78,-59.04 340.69,-56.68 326.11,-54.55"/>
<polygon fill="midnightblue" stroke="midnightblue" points="370.56,-64.6 380.96,-62.59 371.58,-57.68 370.56,-64.6"/>
</g>
<!-- Node12 -->
<g id="node12" class="node">
<title>Node12</title>
<g id="a_node12"><a xlink:href="libbf_8c.html#a988e995c3b0dbcc6a26b8eea2891b2e2" target="_top" xlink:title=" ">
<polygon fill="none" stroke="black" points="236,-0.5 236,-19.5 325,-19.5 325,-0.5 236,-0.5"/>
<text text-anchor="middle" x="280.5" y="-7.5" font-family="Helvetica,sans-Serif" font-size="10.00">bf_sin_internal</text>
</a>
</g>
</g>
<!-- Node9&#45;&gt;Node12 -->
<g id="edge13" class="edge">
<title>Node9&#45;&gt;Node12</title>
<path fill="none" stroke="midnightblue" d="M381.39,-53.08C365.61,-45.76 345.82,-36.72 328,-29 320.8,-25.88 312.91,-22.61 305.71,-19.67"/>
<polygon fill="midnightblue" stroke="midnightblue" points="380.1,-56.34 390.64,-57.39 383.05,-50 380.1,-56.34"/>
</g>
<!-- Node14 -->
<g id="node14" class="node">
<title>Node14</title>
<g id="a_node14"><a xlink:href="libbf_8c.html#a524a1cfe269d6d10ba833368695f8699" target="_top" xlink:title=" ">
<polygon fill="none" stroke="black" points="235.5,-76.5 235.5,-95.5 325.5,-95.5 325.5,-76.5 235.5,-76.5"/>
<text text-anchor="middle" x="280.5" y="-83.5" font-family="Helvetica,sans-Serif" font-size="10.00">bf_tan_internal</text>
</a>
</g>
</g>
<!-- Node9&#45;&gt;Node14 -->
<g id="edge15" class="edge">
<title>Node9&#45;&gt;Node14</title>
<path fill="none" stroke="midnightblue" d="M370.9,-72.88C356.54,-74.99 340.29,-77.37 325.61,-79.53"/>
<polygon fill="midnightblue" stroke="midnightblue" points="371.58,-76.32 380.96,-71.41 370.56,-69.4 371.58,-76.32"/>
</g>
<!-- Node11 -->
<g id="node11" class="node">
<title>Node11</title>
<g id="a_node11"><a xlink:href="libbf_8h.html#a69ea68a6b21d496bd89afeaa9c067ebe" target="_top" xlink:title=" ">
<polygon fill="none" stroke="black" points="122,-38.5 122,-57.5 170,-57.5 170,-38.5 122,-38.5"/>
<text text-anchor="middle" x="146" y="-45.5" font-family="Helvetica,sans-Serif" font-size="10.00">bf_cos</text>
</a>
</g>
</g>
<!-- Node10&#45;&gt;Node11 -->
<g id="edge12" class="edge">
<title>Node10&#45;&gt;Node11</title>
<path fill="none" stroke="midnightblue" d="M224.56,-48C205.56,-48 185.29,-48 170.23,-48"/>
<polygon fill="midnightblue" stroke="midnightblue" points="224.64,-51.5 234.64,-48 224.64,-44.5 224.64,-51.5"/>
</g>
<!-- Node13 -->
<g id="node13" class="node">
<title>Node13</title>
<g id="a_node13"><a xlink:href="libbf_8h.html#a9a518cd74072443dc50e179d2a9ea610" target="_top" xlink:title=" ">
<polygon fill="none" stroke="black" points="123,-0.5 123,-19.5 169,-19.5 169,-0.5 123,-0.5"/>
<text text-anchor="middle" x="146" y="-7.5" font-family="Helvetica,sans-Serif" font-size="10.00">bf_sin</text>
</a>
</g>
</g>
<!-- Node12&#45;&gt;Node13 -->
<g id="edge14" class="edge">
<title>Node12&#45;&gt;Node13</title>
<path fill="none" stroke="midnightblue" d="M225.6,-10C205.84,-10 184.57,-10 169.14,-10"/>
<polygon fill="midnightblue" stroke="midnightblue" points="225.75,-13.5 235.75,-10 225.75,-6.5 225.75,-13.5"/>
</g>
<!-- Node15 -->
<g id="node15" class="node">
<title>Node15</title>
<g id="a_node15"><a xlink:href="libbf_8h.html#a3291f57ed40cdf116203afa57f73e91e" target="_top" xlink:title=" ">
<polygon fill="none" stroke="black" points="122.5,-76.5 122.5,-95.5 169.5,-95.5 169.5,-76.5 122.5,-76.5"/>
<text text-anchor="middle" x="146" y="-83.5" font-family="Helvetica,sans-Serif" font-size="10.00">bf_tan</text>
</a>
</g>
</g>
<!-- Node14&#45;&gt;Node15 -->
<g id="edge16" class="edge">
<title>Node14&#45;&gt;Node15</title>
<path fill="none" stroke="midnightblue" d="M225.12,-86C205.76,-86 185,-86 169.75,-86"/>
<polygon fill="midnightblue" stroke="midnightblue" points="225.38,-89.5 235.38,-86 225.38,-82.5 225.38,-89.5"/>
</g>
</g>
</svg>
        <g id="navigator" transform="translate(0 0)" fill="#404254">
                <rect fill="#f2f5e9" fill-opacity="0.5" stroke="#606060" stroke-width=".5" x="0" y="0" width="60" height="60"/>
                <use id="zoomplus" xlink:href="#zoomPlus" x="17" y="9" onmousedown="handleZoom(evt,'in')"/>
                <use id="zoomminus" xlink:href="#zoomMin" x="42" y="9" onmousedown="handleZoom(evt,'out')"/>
                <use id="reset" xlink:href="#resetDef" x="30" y="36" onmousedown="handleReset()"/>
                <g id="arrowUp" xlink:href="#dirArrow" transform="translate(30 24)" onmousedown="handlePan(0,-1)">
                  <use xlink:href="#rim" fill="#404040">
                        <set attributeName="fill" to="#808080" begin="arrowUp.mouseover" end="arrowUp.mouseout"/>
                  </use>
                  <path fill="none" stroke="white" stroke-width="1.5" d="M0,-3.0v7 M-2.5,-0.5L0,-3.0L2.5,-0.5"/>
                </g>
                <g id="arrowRight" xlink:href="#dirArrow" transform="rotate(90) translate(36 -43)" onmousedown="handlePan(1,0)">
                  <use xlink:href="#rim" fill="#404040">
                        <set attributeName="fill" to="#808080" begin="arrowRight.mouseover" end="arrowRight.mouseout"/>
                  </use>
                  <path fill="none" stroke="white" stroke-width="1.5" d="M0,-3.0v7 M-2.5,-0.5L0,-3.0L2.5,-0.5"/>
                </g>
                <g id="arrowDown" xlink:href="#dirArrow" transform="rotate(180) translate(-30 -48)" onmousedown="handlePan(0,1)">
                  <use xlink:href="#rim" fill="#404040">
                        <set attributeName="fill" to="#808080" begin="arrowDown.mouseover" end="arrowDown.mouseout"/>
                  </use>
                  <path fill="none" stroke="white" stroke-width="1.5" d="M0,-3.0v7 M-2.5,-0.5L0,-3.0L2.5,-0.5"/>
                </g>
                <g id="arrowLeft" xlink:href="#dirArrow" transform="rotate(270) translate(-36 17)" onmousedown="handlePan(-1,0)">
                  <use xlink:href="#rim" fill="#404040">
                        <set attributeName="fill" to="#808080" begin="arrowLeft.mouseover" end="arrowLeft.mouseout"/>
                  </use>
                  <path fill="none" stroke="white" stroke-width="1.5" d="M0,-3.0v7 M-2.5,-0.5L0,-3.0L2.5,-0.5"/>
                </g>
        </g>
        <svg viewBox="0 0 15 15" width="100%" height="30px" preserveAspectRatio="xMaxYMin meet">
         <g id="arrow_out" transform="scale(0.3 0.3)">
          <a xlink:href="libbf_8c_aff86bca731f3c8ffe45f0f1129175961_icgraph_org.svg" target="_base">
           <rect id="button" ry="5" rx="5" y="6" x="6" height="38" width="38"
                fill="#f2f5e9" fill-opacity="0.5" stroke="#606060" stroke-width="1.0"/>
           <path id="arrow"
             d="M 11.500037,31.436501 C 11.940474,20.09759 22.043105,11.32322 32.158766,21.979434 L 37.068811,17.246167 C 37.068811,17.246167 37.088388,32 37.088388,32 L 22.160133,31.978069 C 22.160133,31.978069 26.997745,27.140456 26.997745,27.140456 C 18.528582,18.264221 13.291696,25.230495 11.500037,31.436501 z"
             style="fill:#404040;"/>
          </a>
         </g>
        </svg>
</svg>
