<?xml version="1.0" encoding="UTF-8" standalone="no"?>
<!DOCTYPE svg PUBLIC "-//W3C//DTD SVG 1.1//EN"
 "http://www.w3.org/Graphics/SVG/1.1/DTD/svg11.dtd">
<!-- Generated by graphviz version 2.43.0 (0)
 -->
<!-- Title: get_trig Pages: 1 -->
<svg width="211pt" height="104pt"
 viewBox="0.00 0.00 211.00 104.00" xmlns="http://www.w3.org/2000/svg" xmlns:xlink="http://www.w3.org/1999/xlink">
<g id="graph0" class="graph" transform="scale(1 1) rotate(0) translate(4 100)">
<title>get_trig</title>
<!-- Node1 -->
<g id="node1" class="node">
<title>Node1</title>
<g id="a_node1"><a xlink:title=" ">
<polygon fill="#bfbfbf" stroke="black" points="0,-38.5 0,-57.5 54,-57.5 54,-38.5 0,-38.5"/>
<text text-anchor="middle" x="27" y="-45.5" font-family="Helvetica,sans-Serif" font-size="10.00">get_trig</text>
</a>
</g>
</g>
<!-- Node2 -->
<g id="node2" class="node">
<title>Node2</title>
<g id="a_node2"><a xlink:href="libbf_8c.html#a363aaee4b8a887e8b802c4ab5285c53f" target="_top" xlink:title=" ">
<polygon fill="none" stroke="black" points="90,-76.5 90,-95.5 203,-95.5 203,-76.5 90,-76.5"/>
<text text-anchor="middle" x="146.5" y="-83.5" font-family="Helvetica,sans-Serif" font-size="10.00">init_mul_mod_fast2</text>
</a>
</g>
</g>
<!-- Node1&#45;&gt;Node2 -->
<g id="edge1" class="edge">
<title>Node1&#45;&gt;Node2</title>
<path fill="none" stroke="midnightblue" d="M54.08,-56.43C69.34,-61.37 88.91,-67.7 106.03,-73.23"/>
<polygon fill="midnightblue" stroke="midnightblue" points="105.18,-76.64 115.77,-76.38 107.33,-69.98 105.18,-76.64"/>
</g>
<!-- Node3 -->
<g id="node3" class="node">
<title>Node3</title>
<g id="a_node3"><a xlink:href="libbf_8c.html#a6c30084a16801134189895607bf3f0b2" target="_top" xlink:title=" ">
<polygon fill="none" stroke="black" points="101.5,-38.5 101.5,-57.5 191.5,-57.5 191.5,-38.5 101.5,-38.5"/>
<text text-anchor="middle" x="146.5" y="-45.5" font-family="Helvetica,sans-Serif" font-size="10.00">int_to_ntt_limb</text>
</a>
</g>
</g>
<!-- Node1&#45;&gt;Node3 -->
<g id="edge2" class="edge">
<title>Node1&#45;&gt;Node3</title>
<path fill="none" stroke="midnightblue" d="M54.08,-48C65.07,-48 78.29,-48 91.23,-48"/>
<polygon fill="midnightblue" stroke="midnightblue" points="91.49,-51.5 101.49,-48 91.49,-44.5 91.49,-51.5"/>
</g>
<!-- Node4 -->
<g id="node4" class="node">
<title>Node4</title>
<g id="a_node4"><a xlink:href="libbf_8c.html#ae0144c1b3a669be1c22c067f93896b33" target="_top" xlink:title=" ">
<polygon fill="none" stroke="black" points="100.5,-0.5 100.5,-19.5 192.5,-19.5 192.5,-0.5 100.5,-0.5"/>
<text text-anchor="middle" x="146.5" y="-7.5" font-family="Helvetica,sans-Serif" font-size="10.00">mul_mod_fast2</text>
</a>
</g>
</g>
<!-- Node1&#45;&gt;Node4 -->
<g id="edge3" class="edge">
<title>Node1&#45;&gt;Node4</title>
<path fill="none" stroke="midnightblue" d="M54.08,-39.57C69.34,-34.63 88.91,-28.3 106.03,-22.77"/>
<polygon fill="midnightblue" stroke="midnightblue" points="107.33,-26.02 115.77,-19.62 105.18,-19.36 107.33,-26.02"/>
</g>
</g>
</svg>
