<?xml version="1.0" encoding="UTF-8" standalone="no"?>
<!DOCTYPE svg PUBLIC "-//W3C//DTD SVG 1.1//EN"
 "http://www.w3.org/Graphics/SVG/1.1/DTD/svg11.dtd">
<!-- Generated by graphviz version 2.43.0 (0)
 -->
<!-- Title: bfdec_add_internal Pages: 1 -->
<svg width="582pt" height="104pt"
 viewBox="0.00 0.00 582.00 104.00" xmlns="http://www.w3.org/2000/svg" xmlns:xlink="http://www.w3.org/1999/xlink">
<g id="graph0" class="graph" transform="scale(1 1) rotate(0) translate(4 100)">
<title>bfdec_add_internal</title>
<!-- Node1 -->
<g id="node1" class="node">
<title>Node1</title>
<g id="a_node1"><a xlink:title=" ">
<polygon fill="#bfbfbf" stroke="black" points="464,-57.5 464,-76.5 574,-76.5 574,-57.5 464,-57.5"/>
<text text-anchor="middle" x="519" y="-64.5" font-family="Helvetica,sans-Serif" font-size="10.00">bfdec_add_internal</text>
</a>
</g>
</g>
<!-- Node2 -->
<g id="node2" class="node">
<title>Node2</title>
<g id="a_node2"><a xlink:href="libbf_8c.html#aa5c7e54724217d71eb29c55c98e2413f" target="_top" xlink:title=" ">
<polygon fill="none" stroke="black" points="351,-76.5 351,-95.5 428,-95.5 428,-76.5 351,-76.5"/>
<text text-anchor="middle" x="389.5" y="-83.5" font-family="Helvetica,sans-Serif" font-size="10.00">__bfdec_add</text>
</a>
</g>
</g>
<!-- Node1&#45;&gt;Node2 -->
<g id="edge1" class="edge">
<title>Node1&#45;&gt;Node2</title>
<path fill="none" stroke="midnightblue" d="M453.95,-76.54C445.08,-77.87 436.22,-79.19 428.05,-80.4"/>
<polygon fill="midnightblue" stroke="midnightblue" points="454.55,-79.99 463.93,-75.06 453.52,-73.07 454.55,-79.99"/>
</g>
<!-- Node7 -->
<g id="node6" class="node">
<title>Node7</title>
<g id="a_node6"><a xlink:href="libbf_8c.html#ac10038dd7f04c765ddc8fdb12e3257a2" target="_top" xlink:title=" ">
<polygon fill="none" stroke="black" points="351,-38.5 351,-57.5 428,-57.5 428,-38.5 351,-38.5"/>
<text text-anchor="middle" x="389.5" y="-45.5" font-family="Helvetica,sans-Serif" font-size="10.00">__bfdec_sub</text>
</a>
</g>
</g>
<!-- Node1&#45;&gt;Node7 -->
<g id="edge5" class="edge">
<title>Node1&#45;&gt;Node7</title>
<path fill="none" stroke="midnightblue" d="M453.95,-57.46C445.08,-56.13 436.22,-54.81 428.05,-53.6"/>
<polygon fill="midnightblue" stroke="midnightblue" points="453.52,-60.93 463.93,-58.94 454.55,-54.01 453.52,-60.93"/>
</g>
<!-- Node3 -->
<g id="node3" class="node">
<title>Node3</title>
<g id="a_node3"><a xlink:href="libbf_8h.html#a2ab5a868db6e2d3d41c9b95e561054d3" target="_top" xlink:title=" ">
<polygon fill="none" stroke="black" points="248,-76.5 248,-95.5 315,-95.5 315,-76.5 248,-76.5"/>
<text text-anchor="middle" x="281.5" y="-83.5" font-family="Helvetica,sans-Serif" font-size="10.00">bfdec_add</text>
</a>
</g>
</g>
<!-- Node2&#45;&gt;Node3 -->
<g id="edge2" class="edge">
<title>Node2&#45;&gt;Node3</title>
<path fill="none" stroke="midnightblue" d="M340.79,-86C332.11,-86 323.24,-86 315.13,-86"/>
<polygon fill="midnightblue" stroke="midnightblue" points="340.83,-89.5 350.83,-86 340.83,-82.5 340.83,-89.5"/>
</g>
<!-- Node4 -->
<g id="node4" class="node">
<title>Node4</title>
<g id="a_node4"><a xlink:href="libbf_8h.html#a7cb137686dce1e04af24aa61a1a177a6" target="_top" xlink:title=" ">
<polygon fill="none" stroke="black" points="125.5,-76.5 125.5,-95.5 205.5,-95.5 205.5,-76.5 125.5,-76.5"/>
<text text-anchor="middle" x="165.5" y="-83.5" font-family="Helvetica,sans-Serif" font-size="10.00">bfdec_add_si</text>
</a>
</g>
</g>
<!-- Node3&#45;&gt;Node4 -->
<g id="edge3" class="edge">
<title>Node3&#45;&gt;Node4</title>
<path fill="none" stroke="midnightblue" d="M237.62,-86C227.13,-86 215.95,-86 205.64,-86"/>
<polygon fill="midnightblue" stroke="midnightblue" points="237.83,-89.5 247.83,-86 237.83,-82.5 237.83,-89.5"/>
</g>
<!-- Node5 -->
<g id="node5" class="node">
<title>Node5</title>
<g id="a_node5"><a xlink:href="libbf_8h.html#a318508be097917ddd5d1ce187edea68b" target="_top" xlink:title=" ">
<polygon fill="none" stroke="red" points="0,-38.5 0,-57.5 83,-57.5 83,-38.5 0,-38.5"/>
<text text-anchor="middle" x="41.5" y="-45.5" font-family="Helvetica,sans-Serif" font-size="10.00">bfdec_divrem</text>
</a>
</g>
</g>
<!-- Node4&#45;&gt;Node5 -->
<g id="edge4" class="edge">
<title>Node4&#45;&gt;Node5</title>
<path fill="none" stroke="midnightblue" d="M123.79,-73.32C107.3,-68.19 88.59,-62.36 73.28,-57.59"/>
<polygon fill="midnightblue" stroke="midnightblue" points="123.13,-76.78 133.71,-76.41 125.21,-70.1 123.13,-76.78"/>
</g>
<!-- Node8 -->
<g id="node7" class="node">
<title>Node8</title>
<g id="a_node7"><a xlink:href="libbf_8h.html#ac3255e37957d4be7117b1d9bfc4fcf11" target="_top" xlink:title=" ">
<polygon fill="none" stroke="black" points="248.5,-38.5 248.5,-57.5 314.5,-57.5 314.5,-38.5 248.5,-38.5"/>
<text text-anchor="middle" x="281.5" y="-45.5" font-family="Helvetica,sans-Serif" font-size="10.00">bfdec_sub</text>
</a>
</g>
</g>
<!-- Node7&#45;&gt;Node8 -->
<g id="edge6" class="edge">
<title>Node7&#45;&gt;Node8</title>
<path fill="none" stroke="midnightblue" d="M340.68,-48C331.92,-48 322.96,-48 314.78,-48"/>
<polygon fill="midnightblue" stroke="midnightblue" points="340.83,-51.5 350.83,-48 340.83,-44.5 340.83,-51.5"/>
</g>
<!-- Node8&#45;&gt;Node5 -->
<g id="edge7" class="edge">
<title>Node8&#45;&gt;Node5</title>
<path fill="none" stroke="midnightblue" d="M238.36,-48C194.57,-48 126.5,-48 83.23,-48"/>
<polygon fill="midnightblue" stroke="midnightblue" points="238.4,-51.5 248.4,-48 238.4,-44.5 238.4,-51.5"/>
</g>
<!-- Node9 -->
<g id="node8" class="node">
<title>Node9</title>
<g id="a_node8"><a xlink:href="libbf_8c.html#a4fe4f91a21701a55cffbc44f1eb141b6" target="_top" xlink:title=" ">
<polygon fill="none" stroke="black" points="119,-0.5 119,-19.5 212,-19.5 212,-0.5 119,-0.5"/>
<text text-anchor="middle" x="165.5" y="-7.5" font-family="Helvetica,sans-Serif" font-size="10.00">bfdec_tdivremu</text>
</a>
</g>
</g>
<!-- Node8&#45;&gt;Node9 -->
<g id="edge8" class="edge">
<title>Node8&#45;&gt;Node9</title>
<path fill="none" stroke="midnightblue" d="M242.02,-35.17C226.73,-30.08 209.43,-24.31 195.26,-19.59"/>
<polygon fill="midnightblue" stroke="midnightblue" points="241.14,-38.57 251.73,-38.41 243.35,-31.93 241.14,-38.57"/>
</g>
<!-- Node9&#45;&gt;Node5 -->
<g id="edge9" class="edge">
<title>Node9&#45;&gt;Node5</title>
<path fill="none" stroke="midnightblue" d="M123.79,-22.68C107.3,-27.81 88.59,-33.64 73.28,-38.41"/>
<polygon fill="midnightblue" stroke="midnightblue" points="125.21,-25.9 133.71,-19.59 123.13,-19.22 125.21,-25.9"/>
</g>
</g>
</svg>
