<?xml version="1.0" encoding="UTF-8" standalone="no"?>
<!DOCTYPE svg PUBLIC "-//W3C//DTD SVG 1.1//EN"
 "http://www.w3.org/Graphics/SVG/1.1/DTD/svg11.dtd">
<!-- Generated by graphviz version 2.43.0 (0)
 -->
<!-- Title: bf_round Pages: 1 -->
<!--zoomable 345 -->
<svg id="main" version="1.1" xmlns="http://www.w3.org/2000/svg" xmlns:xlink="http://www.w3.org/1999/xlink" xml:space="preserve" onload="init(evt)">
<style type="text/css"><![CDATA[
.edge:hover path { stroke: red; }
.edge:hover polygon { stroke: red; fill: red; }
]]></style>
<script type="text/javascript"><![CDATA[
var edges = document.getElementsByTagName('g');
if (edges && edges.length) {
  for (var i=0;i<edges.length;i++) {
    if (edges[i].id.substr(0,4)=='edge') {
      edges[i].setAttribute('class','edge');
    }
  }
}
]]></script>
        <defs>
                <circle id="rim" cx="0" cy="0" r="7"/>
                <circle id="rim2" cx="0" cy="0" r="3.5"/>
                <g id="zoomPlus">
                        <use xlink:href="#rim" fill="#404040">
                                <set attributeName="fill" to="#808080" begin="zoomplus.mouseover" end="zoomplus.mouseout"/>
                        </use>
                        <path d="M-4,0h8M0,-4v8" fill="none" stroke="white" stroke-width="1.5" pointer-events="none"/>
                </g>
                <g id="zoomMin">
                        <use xlink:href="#rim" fill="#404040">
                                <set attributeName="fill" to="#808080" begin="zoomminus.mouseover" end="zoomminus.mouseout"/>
                        </use>
                        <path d="M-4,0h8" fill="none" stroke="white" stroke-width="1.5" pointer-events="none"/>
                </g>
                <g id="dirArrow">
                        <path fill="none" stroke="white" stroke-width="1.5" d="M0,-3.0v7 M-2.5,-0.5L0,-3.0L2.5,-0.5"/>
                </g>
               <g id="resetDef">
                       <use xlink:href="#rim2" fill="#404040">
                               <set attributeName="fill" to="#808080" begin="reset.mouseover" end="reset.mouseout"/>
                       </use>
               </g>
        </defs>

<script type="text/javascript">
var viewWidth = 540;
var viewHeight = 345;
var sectionId = 'dynsection-69';
</script>
<script xlink:href="svgpan.js"/>
<svg id="graph" class="graph">
<g id="viewport">
<title>bf_round</title>
<!-- Node1 -->
<g id="node1" class="node">
<title>Node1</title>
<g id="a_node1"><a xlink:title=" ">
<polygon fill="#bfbfbf" stroke="black" points="0,-185.99 0,-204.99 59,-204.99 59,-185.99 0,-185.99"/>
<text text-anchor="middle" x="29.5" y="-192.99" font-family="Helvetica,sans-Serif" font-size="10.00">bf_round</text>
</a>
</g>
</g>
<!-- Node2 -->
<g id="node2" class="node">
<title>Node2</title>
<g id="a_node2"><a xlink:href="libbf_8c.html#a5a13527071b5331585beae41a51ed3c2" target="_top" xlink:title=" ">
<polygon fill="none" stroke="black" points="95,-185.99 95,-204.99 165,-204.99 165,-185.99 95,-185.99"/>
<text text-anchor="middle" x="130" y="-192.99" font-family="Helvetica,sans-Serif" font-size="10.00">__bf_round</text>
</a>
</g>
</g>
<!-- Node1&#45;&gt;Node2 -->
<g id="edge1" class="edge">
<title>Node1&#45;&gt;Node2</title>
<path fill="none" stroke="midnightblue" d="M59.26,-195.49C67.25,-195.49 76.13,-195.49 84.8,-195.49"/>
<polygon fill="midnightblue" stroke="midnightblue" points="84.81,-198.99 94.81,-195.49 84.81,-191.99 84.81,-198.99"/>
</g>
<!-- Node3 -->
<g id="node3" class="node">
<title>Node3</title>
<g id="a_node3"><a xlink:href="libbf_8h.html#a933c9dd8c3450f560876d02e3b36b1a5" target="_top" xlink:title=" ">
<polygon fill="none" stroke="black" points="331,-299.99 331,-318.99 425,-318.99 425,-299.99 331,-299.99"/>
<text text-anchor="middle" x="378" y="-306.99" font-family="Helvetica,sans-Serif" font-size="10.00">bf_get_exp_bits</text>
</a>
</g>
</g>
<!-- Node2&#45;&gt;Node3 -->
<g id="edge2" class="edge">
<title>Node2&#45;&gt;Node3</title>
<path fill="none" stroke="midnightblue" d="M147.75,-205.14C161.8,-213.09 182.47,-224.49 201,-233.49 249.84,-257.24 307.92,-281.59 343.62,-296.12"/>
<polygon fill="midnightblue" stroke="midnightblue" points="342.48,-299.44 353.07,-299.96 345.11,-292.95 342.48,-299.44"/>
</g>
<!-- Node4 -->
<g id="node4" class="node">
<title>Node4</title>
<g id="a_node4"><a xlink:href="libbf_8c.html#a3d7fdccc1995b3a88b68c5e7a57dce16" target="_top" xlink:title=" ">
<polygon fill="none" stroke="black" points="202,-109.99 202,-128.99 294,-128.99 294,-109.99 202,-109.99"/>
<text text-anchor="middle" x="248" y="-116.99" font-family="Helvetica,sans-Serif" font-size="10.00">bf_get_rnd_add</text>
</a>
</g>
</g>
<!-- Node2&#45;&gt;Node4 -->
<g id="edge3" class="edge">
<title>Node2&#45;&gt;Node4</title>
<path fill="none" stroke="midnightblue" d="M145.69,-185.87C165.39,-172.96 200.57,-149.91 223.85,-134.66"/>
<polygon fill="midnightblue" stroke="midnightblue" points="225.98,-137.45 232.43,-129.04 222.15,-131.59 225.98,-137.45"/>
</g>
<!-- Node8 -->
<g id="node8" class="node">
<title>Node8</title>
<g id="a_node8"><a xlink:href="libbf_8c.html#a450dfcc66e1b45403f642a8499219f94" target="_top" xlink:title=" ">
<polygon fill="none" stroke="black" points="461,-261.99 461,-280.99 532,-280.99 532,-261.99 461,-261.99"/>
<text text-anchor="middle" x="496.5" y="-268.99" font-family="Helvetica,sans-Serif" font-size="10.00">limb_mask</text>
</a>
</g>
</g>
<!-- Node2&#45;&gt;Node8 -->
<g id="edge19" class="edge">
<title>Node2&#45;&gt;Node8</title>
<path fill="none" stroke="midnightblue" d="M138.69,-205.45C150.68,-220.46 175.16,-249.08 201,-267.49 252.98,-304.53 268.71,-314.6 331,-328.49 371.78,-337.58 385.61,-342.42 425,-328.49 447.33,-320.6 467.76,-302.29 480.82,-288.54"/>
<polygon fill="midnightblue" stroke="midnightblue" points="483.46,-290.83 487.61,-281.08 478.29,-286.12 483.46,-290.83"/>
</g>
<!-- Node9 -->
<g id="node9" class="node">
<title>Node9</title>
<g id="a_node9"><a xlink:href="libbf_8h.html#ab51c43b22c1a81c789ee0e3d53c0e585" target="_top" xlink:title=" ">
<polygon fill="none" stroke="black" points="466,-109.99 466,-128.99 527,-128.99 527,-109.99 466,-109.99"/>
<text text-anchor="middle" x="496.5" y="-116.99" font-family="Helvetica,sans-Serif" font-size="10.00">bf_resize</text>
</a>
</g>
</g>
<!-- Node2&#45;&gt;Node9 -->
<g id="edge8" class="edge">
<title>Node2&#45;&gt;Node9</title>
<path fill="none" stroke="midnightblue" d="M132.49,-185.93C137.2,-159.06 154.32,-82.33 201,-43.49 246.83,-5.37 271.85,-17.88 331,-10.49 372.46,-5.31 388.3,9.48 425,-10.49 459.99,-29.53 480.27,-74.24 489.47,-100.1"/>
<polygon fill="midnightblue" stroke="midnightblue" points="486.26,-101.52 492.75,-109.89 492.9,-99.3 486.26,-101.52"/>
</g>
<!-- Node10 -->
<g id="node10" class="node">
<title>Node10</title>
<g id="a_node10"><a xlink:href="libbf_8c.html#af464f3c1421a7305372819f949667273" target="_top" xlink:title=" ">
<polygon fill="none" stroke="black" points="201,-204.99 201,-223.99 295,-223.99 295,-204.99 201,-204.99"/>
<text text-anchor="middle" x="248" y="-211.99" font-family="Helvetica,sans-Serif" font-size="10.00">bf_set_overflow</text>
</a>
</g>
</g>
<!-- Node2&#45;&gt;Node10 -->
<g id="edge9" class="edge">
<title>Node2&#45;&gt;Node10</title>
<path fill="none" stroke="midnightblue" d="M165.18,-201.09C173.15,-202.4 181.85,-203.82 190.51,-205.24"/>
<polygon fill="midnightblue" stroke="midnightblue" points="190.17,-208.73 200.6,-206.89 191.3,-201.82 190.17,-208.73"/>
</g>
<!-- Node13 -->
<g id="node13" class="node">
<title>Node13</title>
<g id="a_node13"><a xlink:href="libbf_8h.html#a66631c65c00e92a5840a5085a009602d" target="_top" xlink:title=" ">
<polygon fill="none" stroke="black" points="211.5,-52.99 211.5,-71.99 284.5,-71.99 284.5,-52.99 211.5,-52.99"/>
<text text-anchor="middle" x="248" y="-59.99" font-family="Helvetica,sans-Serif" font-size="10.00">bf_set_zero</text>
</a>
</g>
</g>
<!-- Node2&#45;&gt;Node13 -->
<g id="edge17" class="edge">
<title>Node2&#45;&gt;Node13</title>
<path fill="none" stroke="midnightblue" d="M137.05,-185.73C148.38,-167.81 174.11,-128.92 201,-100.49 208.5,-92.56 217.62,-84.72 225.76,-78.24"/>
<polygon fill="midnightblue" stroke="midnightblue" points="228.01,-80.92 233.77,-72.03 223.72,-75.39 228.01,-80.92"/>
</g>
<!-- Node5 -->
<g id="node5" class="node">
<title>Node5</title>
<g id="a_node5"><a xlink:href="libbf_8h.html#a4954f3435332238433d15977d55ae566" target="_top" xlink:title=" ">
<polygon fill="none" stroke="black" points="351.5,-33.99 351.5,-52.99 404.5,-52.99 404.5,-33.99 351.5,-33.99"/>
<text text-anchor="middle" x="378" y="-40.99" font-family="Helvetica,sans-Serif" font-size="10.00">bf_max</text>
</a>
</g>
</g>
<!-- Node4&#45;&gt;Node5 -->
<g id="edge4" class="edge">
<title>Node4&#45;&gt;Node5</title>
<path fill="none" stroke="midnightblue" d="M260.97,-109.93C276.48,-97.84 304.67,-76.86 331,-62.49 334.48,-60.59 338.2,-58.76 341.95,-57.04"/>
<polygon fill="midnightblue" stroke="midnightblue" points="343.47,-60.19 351.24,-52.99 340.67,-53.78 343.47,-60.19"/>
</g>
<!-- Node6 -->
<g id="node6" class="node">
<title>Node6</title>
<g id="a_node6"><a xlink:href="libbf_8c.html#a7e1a60c84d638cde1ac9aabd01d266e1" target="_top" xlink:title=" ">
<polygon fill="none" stroke="black" points="353,-71.99 353,-90.99 403,-90.99 403,-71.99 353,-71.99"/>
<text text-anchor="middle" x="378" y="-78.99" font-family="Helvetica,sans-Serif" font-size="10.00">get_bit</text>
</a>
</g>
</g>
<!-- Node4&#45;&gt;Node6 -->
<g id="edge5" class="edge">
<title>Node4&#45;&gt;Node6</title>
<path fill="none" stroke="midnightblue" d="M281.3,-109.9C300.13,-104.31 323.87,-97.27 342.99,-91.59"/>
<polygon fill="midnightblue" stroke="midnightblue" points="344.2,-94.88 352.79,-88.68 342.21,-88.17 344.2,-94.88"/>
</g>
<!-- Node7 -->
<g id="node7" class="node">
<title>Node7</title>
<g id="a_node7"><a xlink:href="libbf_8c.html#ad3d895c95a9ac95ae5fe9ea75ce7291f" target="_top" xlink:title=" ">
<polygon fill="none" stroke="black" points="341,-185.99 341,-204.99 415,-204.99 415,-185.99 341,-185.99"/>
<text text-anchor="middle" x="378" y="-192.99" font-family="Helvetica,sans-Serif" font-size="10.00">scan_bit_nz</text>
</a>
</g>
</g>
<!-- Node4&#45;&gt;Node7 -->
<g id="edge6" class="edge">
<title>Node4&#45;&gt;Node7</title>
<path fill="none" stroke="midnightblue" d="M260.97,-129.05C276.48,-141.15 304.67,-162.12 331,-176.49 334.3,-178.3 337.82,-180.04 341.37,-181.68"/>
<polygon fill="midnightblue" stroke="midnightblue" points="340.19,-184.99 350.75,-185.8 343,-178.58 340.19,-184.99"/>
</g>
<!-- Node7&#45;&gt;Node8 -->
<g id="edge7" class="edge">
<title>Node7&#45;&gt;Node8</title>
<path fill="none" stroke="midnightblue" d="M393.75,-205.12C413.54,-218.02 448.87,-241.08 472.25,-256.33"/>
<polygon fill="midnightblue" stroke="midnightblue" points="470.58,-259.41 480.86,-261.95 474.4,-253.55 470.58,-259.41"/>
</g>
<!-- Node10&#45;&gt;Node3 -->
<g id="edge10" class="edge">
<title>Node10&#45;&gt;Node3</title>
<path fill="none" stroke="midnightblue" d="M258.49,-224.03C273.17,-238.46 302.66,-266.22 331,-285.49 336.06,-288.93 341.67,-292.24 347.18,-295.23"/>
<polygon fill="midnightblue" stroke="midnightblue" points="345.77,-298.45 356.26,-299.96 349.01,-292.24 345.77,-298.45"/>
</g>
<!-- Node10&#45;&gt;Node8 -->
<g id="edge16" class="edge">
<title>Node10&#45;&gt;Node8</title>
<path fill="none" stroke="midnightblue" d="M268.76,-224C285.09,-231.47 309.07,-241.57 331,-247.49 370.72,-258.22 417.22,-264.44 450.63,-267.85"/>
<polygon fill="midnightblue" stroke="midnightblue" points="450.7,-271.37 460.99,-268.86 451.38,-264.41 450.7,-271.37"/>
</g>
<!-- Node10&#45;&gt;Node9 -->
<g id="edge11" class="edge">
<title>Node10&#45;&gt;Node9</title>
<path fill="none" stroke="midnightblue" d="M287.67,-224.03C324.94,-231.11 381.87,-236.19 425,-214.49 456.5,-198.64 477.46,-161.32 487.85,-138.46"/>
<polygon fill="midnightblue" stroke="midnightblue" points="491.14,-139.67 491.88,-129.1 484.71,-136.9 491.14,-139.67"/>
</g>
<!-- Node11 -->
<g id="node11" class="node">
<title>Node11</title>
<g id="a_node11"><a xlink:href="libbf_8h.html#a88d3dcee173f1e4fd4e55000edb04595" target="_top" xlink:title=" ">
<polygon fill="none" stroke="black" points="345.5,-147.99 345.5,-166.99 410.5,-166.99 410.5,-147.99 345.5,-147.99"/>
<text text-anchor="middle" x="378" y="-154.99" font-family="Helvetica,sans-Serif" font-size="10.00">bf_set_inf</text>
</a>
</g>
</g>
<!-- Node10&#45;&gt;Node11 -->
<g id="edge12" class="edge">
<title>Node10&#45;&gt;Node11</title>
<path fill="none" stroke="midnightblue" d="M269.11,-204.88C285.65,-197.05 309.73,-185.81 331,-176.49 335.12,-174.69 339.46,-172.83 343.77,-171.02"/>
<polygon fill="midnightblue" stroke="midnightblue" points="345.16,-174.24 353.04,-167.16 342.47,-167.77 345.16,-174.24"/>
</g>
<!-- Node12 -->
<g id="node12" class="node">
<title>Node12</title>
<g id="a_node12"><a xlink:href="libbf_8h.html#aa6282c789c16c8cf2fe6a8ebd671c6fc" target="_top" xlink:title=" ">
<polygon fill="none" stroke="black" points="343,-109.99 343,-128.99 413,-128.99 413,-109.99 343,-109.99"/>
<text text-anchor="middle" x="378" y="-116.99" font-family="Helvetica,sans-Serif" font-size="10.00">bf_set_nan</text>
</a>
</g>
</g>
<!-- Node10&#45;&gt;Node12 -->
<g id="edge14" class="edge">
<title>Node10&#45;&gt;Node12</title>
<path fill="none" stroke="midnightblue" d="M257.22,-204.92C271.09,-189.26 300.6,-157.96 331,-138.49 333.93,-136.62 337.07,-134.87 340.29,-133.24"/>
<polygon fill="midnightblue" stroke="midnightblue" points="341.83,-136.38 349.44,-129.01 338.9,-130.03 341.83,-136.38"/>
</g>
<!-- Node11&#45;&gt;Node9 -->
<g id="edge13" class="edge">
<title>Node11&#45;&gt;Node9</title>
<path fill="none" stroke="midnightblue" d="M408.4,-147.9C422.89,-143.18 440.56,-137.41 456.19,-132.32"/>
<polygon fill="midnightblue" stroke="midnightblue" points="457.69,-135.51 466.11,-129.08 455.52,-128.85 457.69,-135.51"/>
</g>
<!-- Node12&#45;&gt;Node9 -->
<g id="edge15" class="edge">
<title>Node12&#45;&gt;Node9</title>
<path fill="none" stroke="midnightblue" d="M413.01,-119.49C426.39,-119.49 441.85,-119.49 455.74,-119.49"/>
<polygon fill="midnightblue" stroke="midnightblue" points="456,-122.99 466,-119.49 456,-115.99 456,-122.99"/>
</g>
<!-- Node13&#45;&gt;Node9 -->
<g id="edge18" class="edge">
<title>Node13&#45;&gt;Node9</title>
<path fill="none" stroke="midnightblue" d="M263.97,-52.96C295.42,-34.24 369.99,3.19 425,-24.49 456.5,-40.34 477.46,-77.67 487.85,-100.53"/>
<polygon fill="midnightblue" stroke="midnightblue" points="484.71,-102.09 491.88,-109.89 491.14,-99.32 484.71,-102.09"/>
</g>
</g>
</svg>
        <g id="navigator" transform="translate(0 0)" fill="#404254">
                <rect fill="#f2f5e9" fill-opacity="0.5" stroke="#606060" stroke-width=".5" x="0" y="0" width="60" height="60"/>
                <use id="zoomplus" xlink:href="#zoomPlus" x="17" y="9" onmousedown="handleZoom(evt,'in')"/>
                <use id="zoomminus" xlink:href="#zoomMin" x="42" y="9" onmousedown="handleZoom(evt,'out')"/>
                <use id="reset" xlink:href="#resetDef" x="30" y="36" onmousedown="handleReset()"/>
                <g id="arrowUp" xlink:href="#dirArrow" transform="translate(30 24)" onmousedown="handlePan(0,-1)">
                  <use xlink:href="#rim" fill="#404040">
                        <set attributeName="fill" to="#808080" begin="arrowUp.mouseover" end="arrowUp.mouseout"/>
                  </use>
                  <path fill="none" stroke="white" stroke-width="1.5" d="M0,-3.0v7 M-2.5,-0.5L0,-3.0L2.5,-0.5"/>
                </g>
                <g id="arrowRight" xlink:href="#dirArrow" transform="rotate(90) translate(36 -43)" onmousedown="handlePan(1,0)">
                  <use xlink:href="#rim" fill="#404040">
                        <set attributeName="fill" to="#808080" begin="arrowRight.mouseover" end="arrowRight.mouseout"/>
                  </use>
                  <path fill="none" stroke="white" stroke-width="1.5" d="M0,-3.0v7 M-2.5,-0.5L0,-3.0L2.5,-0.5"/>
                </g>
                <g id="arrowDown" xlink:href="#dirArrow" transform="rotate(180) translate(-30 -48)" onmousedown="handlePan(0,1)">
                  <use xlink:href="#rim" fill="#404040">
                        <set attributeName="fill" to="#808080" begin="arrowDown.mouseover" end="arrowDown.mouseout"/>
                  </use>
                  <path fill="none" stroke="white" stroke-width="1.5" d="M0,-3.0v7 M-2.5,-0.5L0,-3.0L2.5,-0.5"/>
                </g>
                <g id="arrowLeft" xlink:href="#dirArrow" transform="rotate(270) translate(-36 17)" onmousedown="handlePan(-1,0)">
                  <use xlink:href="#rim" fill="#404040">
                        <set attributeName="fill" to="#808080" begin="arrowLeft.mouseover" end="arrowLeft.mouseout"/>
                  </use>
                  <path fill="none" stroke="white" stroke-width="1.5" d="M0,-3.0v7 M-2.5,-0.5L0,-3.0L2.5,-0.5"/>
                </g>
        </g>
        <svg viewBox="0 0 15 15" width="100%" height="30px" preserveAspectRatio="xMaxYMin meet">
         <g id="arrow_out" transform="scale(0.3 0.3)">
          <a xlink:href="libbf_8h_abd4ca8358212228a53981a32a10286b5_cgraph_org.svg" target="_base">
           <rect id="button" ry="5" rx="5" y="6" x="6" height="38" width="38"
                fill="#f2f5e9" fill-opacity="0.5" stroke="#606060" stroke-width="1.0"/>
           <path id="arrow"
             d="M 11.500037,31.436501 C 11.940474,20.09759 22.043105,11.32322 32.158766,21.979434 L 37.068811,17.246167 C 37.068811,17.246167 37.088388,32 37.088388,32 L 22.160133,31.978069 C 22.160133,31.978069 26.997745,27.140456 26.997745,27.140456 C 18.528582,18.264221 13.291696,25.230495 11.500037,31.436501 z"
             style="fill:#404040;"/>
          </a>
         </g>
        </svg>
</svg>
