<?xml version="1.0" encoding="UTF-8" standalone="no"?>
<!DOCTYPE svg PUBLIC "-//W3C//DTD SVG 1.1//EN"
 "http://www.w3.org/Graphics/SVG/1.1/DTD/svg11.dtd">
<!-- Generated by graphviz version 2.43.0 (0)
 -->
<!-- Title: bf_cmpu Pages: 1 -->
<svg width="894pt" height="560pt"
 viewBox="0.00 0.00 894.00 560.00" xmlns="http://www.w3.org/2000/svg" xmlns:xlink="http://www.w3.org/1999/xlink">
<g id="graph0" class="graph" transform="scale(1 1) rotate(0) translate(4 556)">
<title>bf_cmpu</title>
<!-- Node1 -->
<g id="node1" class="node">
<title>Node1</title>
<g id="a_node1"><a xlink:title=" ">
<polygon fill="#bfbfbf" stroke="black" points="827,-266.5 827,-285.5 886,-285.5 886,-266.5 827,-266.5"/>
<text text-anchor="middle" x="856.5" y="-273.5" font-family="Helvetica,sans-Serif" font-size="10.00">bf_cmpu</text>
</a>
</g>
</g>
<!-- Node2 -->
<g id="node2" class="node">
<title>Node2</title>
<g id="a_node2"><a xlink:href="libbf_8h.html#a45cd74dd3a694c26e716762b7fd36955" target="_top" xlink:title=" ">
<polygon fill="none" stroke="black" points="707.5,-532.5 707.5,-551.5 761.5,-551.5 761.5,-532.5 707.5,-532.5"/>
<text text-anchor="middle" x="734.5" y="-539.5" font-family="Helvetica,sans-Serif" font-size="10.00">bf_acos</text>
</a>
</g>
</g>
<!-- Node1&#45;&gt;Node2 -->
<g id="edge1" class="edge">
<title>Node1&#45;&gt;Node2</title>
<path fill="none" stroke="midnightblue" d="M855.75,-295.85C855.25,-340.88 847.94,-451.96 791,-518 783.46,-526.75 772.15,-532.41 761.71,-536.02"/>
<polygon fill="midnightblue" stroke="midnightblue" points="859.25,-295.67 855.75,-285.67 852.25,-295.67 859.25,-295.67"/>
</g>
<!-- Node3 -->
<g id="node3" class="node">
<title>Node3</title>
<g id="a_node3"><a xlink:href="libbf_8c.html#aaebd1df91497246cd81f23918af58d33" target="_top" xlink:title=" ">
<polygon fill="none" stroke="black" points="688.5,-342.5 688.5,-361.5 780.5,-361.5 780.5,-342.5 688.5,-342.5"/>
<text text-anchor="middle" x="734.5" y="-349.5" font-family="Helvetica,sans-Serif" font-size="10.00">bf_add_internal</text>
</a>
</g>
</g>
<!-- Node1&#45;&gt;Node3 -->
<g id="edge2" class="edge">
<title>Node1&#45;&gt;Node3</title>
<path fill="none" stroke="midnightblue" d="M837.44,-292.78C825.03,-303.74 807.81,-317.85 791,-328 781.83,-333.54 771.16,-338.47 761.64,-342.4"/>
<polygon fill="midnightblue" stroke="midnightblue" points="840.12,-295.08 845.21,-285.78 835.44,-289.88 840.12,-295.08"/>
</g>
<!-- Node28 -->
<g id="node6" class="node">
<title>Node28</title>
<g id="a_node6"><a xlink:href="libbf_8c.html#aa94726eca10adb51bd141319fdfdb20c" target="_top" xlink:title=" ">
<polygon fill="none" stroke="red" points="246,-362.5 246,-381.5 377,-381.5 377,-362.5 246,-362.5"/>
<text text-anchor="middle" x="311.5" y="-369.5" font-family="Helvetica,sans-Serif" font-size="10.00">bf_integer_to_radix_rec</text>
</a>
</g>
</g>
<!-- Node1&#45;&gt;Node28 -->
<g id="edge34" class="edge">
<title>Node1&#45;&gt;Node28</title>
<path fill="none" stroke="midnightblue" d="M848.84,-295.2C839.76,-318.03 821.09,-355.02 791,-371 721.21,-408.07 490.88,-390.59 377.17,-379.17"/>
<polygon fill="midnightblue" stroke="midnightblue" points="852.21,-296.16 852.44,-285.57 845.66,-293.71 852.21,-296.16"/>
</g>
<!-- Node27 -->
<g id="node9" class="node">
<title>Node27</title>
<g id="a_node9"><a xlink:href="libbf_8h.html#a93fe073491f8c5f086a75e7bf8865b34" target="_top" xlink:title=" ">
<polygon fill="none" stroke="black" points="0,-244.5 0,-263.5 52,-263.5 52,-244.5 0,-244.5"/>
<text text-anchor="middle" x="26" y="-251.5" font-family="Helvetica,sans-Serif" font-size="10.00">bf_pow</text>
</a>
</g>
</g>
<!-- Node1&#45;&gt;Node27 -->
<g id="edge35" class="edge">
<title>Node1&#45;&gt;Node27</title>
<path fill="none" stroke="midnightblue" d="M817.95,-288.39C809.18,-290.91 799.83,-293.3 791,-295 702.01,-312.1 678.62,-314 588,-314 588,-314 588,-314 310.5,-314 211.25,-314 181.62,-327.96 88,-295 68.5,-288.14 49.25,-273.54 37.75,-263.75"/>
<polygon fill="midnightblue" stroke="midnightblue" points="818.96,-291.74 827.53,-285.52 816.95,-285.03 818.96,-291.74"/>
</g>
<!-- Node18 -->
<g id="node12" class="node">
<title>Node18</title>
<g id="a_node12"><a xlink:href="libbf_8h.html#a951ec20cd7fa3bf021d165b213e15ce4" target="_top" xlink:title=" ">
<polygon fill="none" stroke="red" points="116,-456.5 116,-475.5 182,-475.5 182,-456.5 116,-456.5"/>
<text text-anchor="middle" x="149" y="-463.5" font-family="Helvetica,sans-Serif" font-size="10.00">bf_divrem</text>
</a>
</g>
</g>
<!-- Node1&#45;&gt;Node18 -->
<g id="edge32" class="edge">
<title>Node1&#45;&gt;Node18</title>
<path fill="none" stroke="midnightblue" d="M853.13,-295.72C848.01,-329.75 832.78,-399.62 791,-439 722.06,-503.98 682.73,-504 588,-504 588,-504 588,-504 453.5,-504 360.89,-504 337.66,-498.23 246,-485 224.64,-481.92 200.85,-477.22 182.29,-473.26"/>
<polygon fill="midnightblue" stroke="midnightblue" points="856.62,-296.03 854.51,-285.65 849.69,-295.09 856.62,-296.03"/>
</g>
<!-- Node59 -->
<g id="node13" class="node">
<title>Node59</title>
<g id="a_node13"><a xlink:href="libbf_8c.html#a4f1865c8160fb851cce8015c3edb4d4f" target="_top" xlink:title=" ">
<polygon fill="none" stroke="black" points="273.5,-456.5 273.5,-475.5 349.5,-475.5 349.5,-456.5 273.5,-456.5"/>
<text text-anchor="middle" x="311.5" y="-463.5" font-family="Helvetica,sans-Serif" font-size="10.00">bf_tdivremu</text>
</a>
</g>
</g>
<!-- Node1&#45;&gt;Node59 -->
<g id="edge36" class="edge">
<title>Node1&#45;&gt;Node59</title>
<path fill="none" stroke="midnightblue" d="M849.88,-295.41C841.33,-321.61 822.64,-368.09 791,-395 661.63,-505.06 438.01,-485.53 349.81,-472.48"/>
<polygon fill="midnightblue" stroke="midnightblue" points="853.32,-296.13 852.93,-285.54 846.63,-294.07 853.32,-296.13"/>
</g>
<!-- Node7 -->
<g id="node14" class="node">
<title>Node7</title>
<g id="a_node14"><a xlink:href="libbf_8h.html#a8ee86879e3da22442956f47356855edd" target="_top" xlink:title=" ">
<polygon fill="none" stroke="black" points="708.5,-266.5 708.5,-285.5 760.5,-285.5 760.5,-266.5 708.5,-266.5"/>
<text text-anchor="middle" x="734.5" y="-273.5" font-family="Helvetica,sans-Serif" font-size="10.00">bf_asin</text>
</a>
</g>
</g>
<!-- Node1&#45;&gt;Node7 -->
<g id="edge16" class="edge">
<title>Node1&#45;&gt;Node7</title>
<path fill="none" stroke="midnightblue" d="M816.65,-276C798.31,-276 776.95,-276 760.75,-276"/>
<polygon fill="midnightblue" stroke="midnightblue" points="816.76,-279.5 826.76,-276 816.76,-272.5 816.76,-279.5"/>
</g>
<!-- Node8 -->
<g id="node15" class="node">
<title>Node8</title>
<g id="a_node15"><a xlink:href="libbf_8h.html#a0bb2c5b98e3f978b84df9849c7ec50d6" target="_top" xlink:title=" ">
<polygon fill="none" stroke="red" points="708,-228.5 708,-247.5 761,-247.5 761,-228.5 708,-228.5"/>
<text text-anchor="middle" x="734.5" y="-235.5" font-family="Helvetica,sans-Serif" font-size="10.00">bf_atan</text>
</a>
</g>
</g>
<!-- Node1&#45;&gt;Node8 -->
<g id="edge17" class="edge">
<title>Node1&#45;&gt;Node8</title>
<path fill="none" stroke="midnightblue" d="M816.98,-263.8C798.72,-258.02 777.4,-251.27 761.15,-246.12"/>
<polygon fill="midnightblue" stroke="midnightblue" points="816.17,-267.22 826.76,-266.9 818.28,-260.54 816.17,-267.22"/>
</g>
<!-- Node60 -->
<g id="node16" class="node">
<title>Node60</title>
<g id="a_node16"><a xlink:href="libbf_8h.html#a9508b6f4e9f4be88f4b5b0352217e9c5" target="_top" xlink:title=" ">
<polygon fill="none" stroke="black" points="560.5,-190.5 560.5,-209.5 613.5,-209.5 613.5,-190.5 560.5,-190.5"/>
<text text-anchor="middle" x="587" y="-197.5" font-family="Helvetica,sans-Serif" font-size="10.00">bf_cmp</text>
</a>
</g>
</g>
<!-- Node1&#45;&gt;Node60 -->
<g id="edge18" class="edge">
<title>Node1&#45;&gt;Node60</title>
<path fill="none" stroke="midnightblue" d="M841.44,-258.66C829.54,-245.32 811.22,-227.75 791,-219 731.55,-193.27 653.36,-194.61 613.6,-197.48"/>
<polygon fill="midnightblue" stroke="midnightblue" points="838.82,-260.98 847.98,-266.29 844.14,-256.42 838.82,-260.98"/>
</g>
<!-- Node68 -->
<g id="node23" class="node">
<title>Node68</title>
<g id="a_node23"><a xlink:href="libbf_8h.html#a8e4b224e136c1b2f7785a8cdf6fe9d06" target="_top" xlink:title=" ">
<polygon fill="none" stroke="black" points="697.5,-152.5 697.5,-171.5 771.5,-171.5 771.5,-152.5 697.5,-152.5"/>
<text text-anchor="middle" x="734.5" y="-159.5" font-family="Helvetica,sans-Serif" font-size="10.00">bf_cmp_full</text>
</a>
</g>
</g>
<!-- Node1&#45;&gt;Node68 -->
<g id="edge29" class="edge">
<title>Node1&#45;&gt;Node68</title>
<path fill="none" stroke="midnightblue" d="M846.06,-257.24C835.17,-237.25 815.58,-205.82 791,-186 783.56,-180 774.4,-175.24 765.68,-171.59"/>
<polygon fill="midnightblue" stroke="midnightblue" points="843.06,-259.06 850.81,-266.28 849.25,-255.8 843.06,-259.06"/>
</g>
<!-- Node70 -->
<g id="node25" class="node">
<title>Node70</title>
<g id="a_node25"><a xlink:href="libbf_8c.html#a13930fbd670b65bf9f8c07a0fbcfc63b" target="_top" xlink:title=" ">
<polygon fill="none" stroke="black" points="678,-114.5 678,-133.5 791,-133.5 791,-114.5 678,-114.5"/>
<text text-anchor="middle" x="734.5" y="-121.5" font-family="Helvetica,sans-Serif" font-size="10.00">bf_convert_to_radix</text>
</a>
</g>
</g>
<!-- Node1&#45;&gt;Node70 -->
<g id="edge31" class="edge">
<title>Node1&#45;&gt;Node70</title>
<path fill="none" stroke="midnightblue" d="M851.09,-256.36C843.62,-227.51 825.78,-173.78 791,-143 786.65,-139.15 781.49,-136.08 776.09,-133.62"/>
<polygon fill="midnightblue" stroke="midnightblue" points="847.77,-257.53 853.53,-266.42 854.57,-255.88 847.77,-257.53"/>
</g>
<!-- Node31 -->
<g id="node26" class="node">
<title>Node31</title>
<g id="a_node26"><a xlink:href="libbf_8c.html#ad79aefc435021a0743c89cb4aec7fa56" target="_top" xlink:title=" ">
<polygon fill="none" stroke="red" points="688,-76.5 688,-95.5 781,-95.5 781,-76.5 688,-76.5"/>
<text text-anchor="middle" x="734.5" y="-83.5" font-family="Helvetica,sans-Serif" font-size="10.00">bf_ftoa_internal</text>
</a>
</g>
</g>
<!-- Node1&#45;&gt;Node31 -->
<g id="edge33" class="edge">
<title>Node1&#45;&gt;Node31</title>
<path fill="none" stroke="midnightblue" d="M853.51,-256.35C848.91,-221.14 834.37,-147.05 791,-105 786.98,-101.1 782.12,-98 776.98,-95.53"/>
<polygon fill="midnightblue" stroke="midnightblue" points="850.04,-256.8 854.68,-266.33 856.99,-255.99 850.04,-256.8"/>
</g>
<!-- Node71 -->
<g id="node27" class="node">
<title>Node71</title>
<g id="a_node27"><a xlink:href="libbf_8h.html#ab76f65059ac29df0d8ed9f719db8ba06" target="_top" xlink:title=" ">
<polygon fill="none" stroke="black" points="696.5,-38.5 696.5,-57.5 772.5,-57.5 772.5,-38.5 696.5,-38.5"/>
<text text-anchor="middle" x="734.5" y="-45.5" font-family="Helvetica,sans-Serif" font-size="10.00">bfdec_cmpu</text>
</a>
</g>
</g>
<!-- Node1&#45;&gt;Node71 -->
<g id="edge37" class="edge">
<title>Node1&#45;&gt;Node71</title>
<path fill="none" stroke="midnightblue" d="M855.09,-256.07C853.15,-215.06 842.96,-120.57 791,-67 785.97,-61.81 779.45,-58.04 772.67,-55.29"/>
<polygon fill="midnightblue" stroke="midnightblue" points="851.59,-256.27 855.44,-266.14 858.59,-256.03 851.59,-256.27"/>
</g>
<!-- Node4 -->
<g id="node4" class="node">
<title>Node4</title>
<g id="a_node4"><a xlink:href="libbf_8c.html#a951a1d3ebb338129d86e00f51b47f2ee" target="_top" xlink:title=" ">
<polygon fill="none" stroke="black" points="557,-342.5 557,-361.5 617,-361.5 617,-342.5 557,-342.5"/>
<text text-anchor="middle" x="587" y="-349.5" font-family="Helvetica,sans-Serif" font-size="10.00">__bf_add</text>
</a>
</g>
</g>
<!-- Node3&#45;&gt;Node4 -->
<g id="edge3" class="edge">
<title>Node3&#45;&gt;Node4</title>
<path fill="none" stroke="midnightblue" d="M678.25,-352C657.46,-352 634.64,-352 617.15,-352"/>
<polygon fill="midnightblue" stroke="midnightblue" points="678.26,-355.5 688.26,-352 678.26,-348.5 678.26,-355.5"/>
</g>
<!-- Node57 -->
<g id="node10" class="node">
<title>Node57</title>
<g id="a_node10"><a xlink:href="libbf_8c.html#aa3b3bc85aee9c531439d5fbc92986dfe" target="_top" xlink:title=" ">
<polygon fill="none" stroke="black" points="557.5,-418.5 557.5,-437.5 616.5,-437.5 616.5,-418.5 557.5,-418.5"/>
<text text-anchor="middle" x="587" y="-425.5" font-family="Helvetica,sans-Serif" font-size="10.00">__bf_sub</text>
</a>
</g>
</g>
<!-- Node3&#45;&gt;Node57 -->
<g id="edge10" class="edge">
<title>Node3&#45;&gt;Node57</title>
<path fill="none" stroke="midnightblue" d="M706.21,-366.26C676.99,-381.52 631.45,-405.3 606.28,-418.45"/>
<polygon fill="midnightblue" stroke="midnightblue" points="707.83,-369.36 715.07,-361.63 704.59,-363.15 707.83,-369.36"/>
</g>
<!-- Node5 -->
<g id="node5" class="node">
<title>Node5</title>
<g id="a_node5"><a xlink:href="libbf_8h.html#a17dc09166f82ffa408f54a2edc4d7855" target="_top" xlink:title=" ">
<polygon fill="none" stroke="red" points="429.5,-342.5 429.5,-361.5 479.5,-361.5 479.5,-342.5 429.5,-342.5"/>
<text text-anchor="middle" x="454.5" y="-349.5" font-family="Helvetica,sans-Serif" font-size="10.00">bf_add</text>
</a>
</g>
</g>
<!-- Node4&#45;&gt;Node5 -->
<g id="edge4" class="edge">
<title>Node4&#45;&gt;Node5</title>
<path fill="none" stroke="midnightblue" d="M546.48,-352C524.79,-352 498.58,-352 479.88,-352"/>
<polygon fill="midnightblue" stroke="midnightblue" points="546.71,-355.5 556.71,-352 546.71,-348.5 546.71,-355.5"/>
</g>
<!-- Node5&#45;&gt;Node28 -->
<g id="edge5" class="edge">
<title>Node5&#45;&gt;Node28</title>
<path fill="none" stroke="midnightblue" d="M419.14,-356.87C406.42,-358.68 391.55,-360.79 377.02,-362.85"/>
<polygon fill="midnightblue" stroke="midnightblue" points="419.85,-360.31 429.26,-355.44 418.87,-353.38 419.85,-360.31"/>
</g>
<!-- Node34 -->
<g id="node7" class="node">
<title>Node34</title>
<g id="a_node7"><a xlink:href="libbf_8c.html#aab7bc918fdd8dbef25c31c6881c73fdd" target="_top" xlink:title=" ">
<polygon fill="none" stroke="black" points="267,-266.5 267,-285.5 356,-285.5 356,-266.5 267,-266.5"/>
<text text-anchor="middle" x="311.5" y="-273.5" font-family="Helvetica,sans-Serif" font-size="10.00">bf_log_internal</text>
</a>
</g>
</g>
<!-- Node5&#45;&gt;Node34 -->
<g id="edge7" class="edge">
<title>Node5&#45;&gt;Node34</title>
<path fill="none" stroke="midnightblue" d="M426.68,-337.54C398.36,-322.28 354.5,-298.64 330.21,-285.55"/>
<polygon fill="midnightblue" stroke="midnightblue" points="425.18,-340.71 435.64,-342.37 428.5,-334.55 425.18,-340.71"/>
</g>
<!-- Node28&#45;&gt;Node28 -->
<g id="edge6" class="edge">
<title>Node28&#45;&gt;Node28</title>
<path fill="none" stroke="midnightblue" d="M338.01,-390.65C336.9,-395.94 328.06,-400 311.5,-400 286.26,-400 278.97,-390.57 289.61,-381.76"/>
<polygon fill="midnightblue" stroke="midnightblue" points="341.1,-389.02 333.39,-381.76 334.89,-392.24 341.1,-389.02"/>
</g>
<!-- Node35 -->
<g id="node8" class="node">
<title>Node35</title>
<g id="a_node8"><a xlink:href="libbf_8h.html#a4137b2308536cbc92addaeb3f0c79d35" target="_top" xlink:title=" ">
<polygon fill="none" stroke="red" points="125.5,-266.5 125.5,-285.5 172.5,-285.5 172.5,-266.5 125.5,-266.5"/>
<text text-anchor="middle" x="149" y="-273.5" font-family="Helvetica,sans-Serif" font-size="10.00">bf_log</text>
</a>
</g>
</g>
<!-- Node34&#45;&gt;Node35 -->
<g id="edge8" class="edge">
<title>Node34&#45;&gt;Node35</title>
<path fill="none" stroke="midnightblue" d="M256.37,-276C227.78,-276 194.23,-276 172.57,-276"/>
<polygon fill="midnightblue" stroke="midnightblue" points="256.64,-279.5 266.64,-276 256.64,-272.5 256.64,-279.5"/>
</g>
<!-- Node35&#45;&gt;Node27 -->
<g id="edge9" class="edge">
<title>Node35&#45;&gt;Node27</title>
<path fill="none" stroke="midnightblue" d="M115.38,-270.07C95.51,-266.46 70.5,-261.91 52.16,-258.58"/>
<polygon fill="midnightblue" stroke="midnightblue" points="114.78,-273.52 125.24,-271.86 116.03,-266.63 114.78,-273.52"/>
</g>
<!-- Node58 -->
<g id="node11" class="node">
<title>Node58</title>
<g id="a_node11"><a xlink:href="libbf_8h.html#abf69a9bc02b7c299bb75d172fa102d84" target="_top" xlink:title=" ">
<polygon fill="none" stroke="red" points="430,-418.5 430,-437.5 479,-437.5 479,-418.5 430,-418.5"/>
<text text-anchor="middle" x="454.5" y="-425.5" font-family="Helvetica,sans-Serif" font-size="10.00">bf_sub</text>
</a>
</g>
</g>
<!-- Node57&#45;&gt;Node58 -->
<g id="edge11" class="edge">
<title>Node57&#45;&gt;Node58</title>
<path fill="none" stroke="midnightblue" d="M547.29,-428C525.21,-428 498.24,-428 479.27,-428"/>
<polygon fill="midnightblue" stroke="midnightblue" points="547.36,-431.5 557.36,-428 547.36,-424.5 547.36,-431.5"/>
</g>
<!-- Node58&#45;&gt;Node28 -->
<g id="edge13" class="edge">
<title>Node58&#45;&gt;Node28</title>
<path fill="none" stroke="midnightblue" d="M420.56,-414.92C394.87,-404.71 359.78,-390.78 336.65,-381.59"/>
<polygon fill="midnightblue" stroke="midnightblue" points="419.31,-418.19 429.9,-418.63 421.9,-411.68 419.31,-418.19"/>
</g>
<!-- Node58&#45;&gt;Node18 -->
<g id="edge12" class="edge">
<title>Node58&#45;&gt;Node18</title>
<path fill="none" stroke="midnightblue" d="M419.72,-430.01C378.55,-432.71 306.93,-438.2 246,-447 224.64,-450.08 200.85,-454.78 182.29,-458.74"/>
<polygon fill="midnightblue" stroke="midnightblue" points="420,-433.5 429.76,-429.37 419.55,-426.51 420,-433.5"/>
</g>
<!-- Node58&#45;&gt;Node59 -->
<g id="edge14" class="edge">
<title>Node58&#45;&gt;Node59</title>
<path fill="none" stroke="midnightblue" d="M420.1,-437C398.34,-442.87 369.97,-450.51 347.82,-456.48"/>
<polygon fill="midnightblue" stroke="midnightblue" points="421.16,-440.34 429.9,-434.36 419.33,-433.58 421.16,-440.34"/>
</g>
<!-- Node59&#45;&gt;Node18 -->
<g id="edge15" class="edge">
<title>Node59&#45;&gt;Node18</title>
<path fill="none" stroke="midnightblue" d="M263.21,-466C237.1,-466 205.36,-466 182.14,-466"/>
<polygon fill="midnightblue" stroke="midnightblue" points="263.27,-469.5 273.27,-466 263.27,-462.5 263.27,-469.5"/>
</g>
<!-- Node61 -->
<g id="node17" class="node">
<title>Node61</title>
<g id="a_node17"><a xlink:href="libbf_8h.html#a78ee01fc94a63c4dc6cf252275f21a77" target="_top" xlink:title=" ">
<polygon fill="none" stroke="black" points="276.5,-152.5 276.5,-171.5 346.5,-171.5 346.5,-152.5 276.5,-152.5"/>
<text text-anchor="middle" x="311.5" y="-159.5" font-family="Helvetica,sans-Serif" font-size="10.00">bf_cmp_eq</text>
</a>
</g>
</g>
<!-- Node60&#45;&gt;Node61 -->
<g id="edge19" class="edge">
<title>Node60&#45;&gt;Node61</title>
<path fill="none" stroke="midnightblue" d="M550.37,-191.58C533.9,-187.92 514.03,-183.83 496,-181 444.27,-172.88 383.76,-167.38 346.8,-164.47"/>
<polygon fill="midnightblue" stroke="midnightblue" points="549.61,-195 560.14,-193.79 551.16,-188.17 549.61,-195"/>
</g>
<!-- Node62 -->
<g id="node18" class="node">
<title>Node62</title>
<g id="a_node18"><a xlink:href="libbf_8h.html#adfeab40ffdf60f75a5ed33aab5e4a2fd" target="_top" xlink:title=" ">
<polygon fill="none" stroke="black" points="421,-228.5 421,-247.5 488,-247.5 488,-228.5 421,-228.5"/>
<text text-anchor="middle" x="454.5" y="-235.5" font-family="Helvetica,sans-Serif" font-size="10.00">bf_cmp_le</text>
</a>
</g>
</g>
<!-- Node60&#45;&gt;Node62 -->
<g id="edge22" class="edge">
<title>Node60&#45;&gt;Node62</title>
<path fill="none" stroke="midnightblue" d="M550.51,-210.33C531.08,-215.99 507.16,-222.96 488.19,-228.48"/>
<polygon fill="midnightblue" stroke="midnightblue" points="551.59,-213.66 560.22,-207.51 549.64,-206.94 551.59,-213.66"/>
</g>
<!-- Node63 -->
<g id="node19" class="node">
<title>Node63</title>
<g id="a_node19"><a xlink:href="libbf_8h.html#a1605a1fe6f0294e38b4da16867bf162f" target="_top" xlink:title=" ">
<polygon fill="none" stroke="black" points="422,-266.5 422,-285.5 487,-285.5 487,-266.5 422,-266.5"/>
<text text-anchor="middle" x="454.5" y="-273.5" font-family="Helvetica,sans-Serif" font-size="10.00">bf_cmp_lt</text>
</a>
</g>
</g>
<!-- Node60&#45;&gt;Node63 -->
<g id="edge23" class="edge">
<title>Node60&#45;&gt;Node63</title>
<path fill="none" stroke="midnightblue" d="M563.4,-215.43C545.48,-227.39 519.61,-244.05 496,-257 490.01,-260.29 483.35,-263.56 477.19,-266.44"/>
<polygon fill="midnightblue" stroke="midnightblue" points="565.65,-218.14 571.99,-209.65 561.74,-212.33 565.65,-218.14"/>
</g>
<!-- Node64 -->
<g id="node21" class="node">
<title>Node64</title>
<g id="a_node21"><a xlink:href="libbf_8h.html#af89ce1e4918c3773780556b2b2e1c24f" target="_top" xlink:title=" ">
<polygon fill="none" stroke="red" points="419.5,-190.5 419.5,-209.5 489.5,-209.5 489.5,-190.5 419.5,-190.5"/>
<text text-anchor="middle" x="454.5" y="-197.5" font-family="Helvetica,sans-Serif" font-size="10.00">bfdec_cmp</text>
</a>
</g>
</g>
<!-- Node60&#45;&gt;Node64 -->
<g id="edge27" class="edge">
<title>Node60&#45;&gt;Node64</title>
<path fill="none" stroke="midnightblue" d="M550.21,-200C531.32,-200 508.27,-200 489.64,-200"/>
<polygon fill="midnightblue" stroke="midnightblue" points="550.22,-203.5 560.22,-200 550.22,-196.5 550.22,-203.5"/>
</g>
<!-- Node61&#45;&gt;Node35 -->
<g id="edge20" class="edge">
<title>Node61&#45;&gt;Node35</title>
<path fill="none" stroke="midnightblue" d="M266.83,-169.4C259.3,-172.14 251.99,-175.88 246,-181 217.59,-205.29 238.16,-232.42 210,-257 199.63,-266.05 184.93,-270.8 172.68,-273.28"/>
<polygon fill="midnightblue" stroke="midnightblue" points="267.87,-172.75 276.39,-166.45 265.8,-166.06 267.87,-172.75"/>
</g>
<!-- Node61&#45;&gt;Node27 -->
<g id="edge21" class="edge">
<title>Node61&#45;&gt;Node27</title>
<path fill="none" stroke="midnightblue" d="M266.28,-165.37C220.06,-170.2 146.3,-181.61 88,-208 67.94,-217.08 48.25,-233.72 36.88,-244.31"/>
<polygon fill="midnightblue" stroke="midnightblue" points="266.66,-168.85 276.27,-164.39 265.98,-161.89 266.66,-168.85"/>
</g>
<!-- Node63&#45;&gt;Node34 -->
<g id="edge24" class="edge">
<title>Node63&#45;&gt;Node34</title>
<path fill="none" stroke="midnightblue" d="M411.39,-276C393.93,-276 373.68,-276 356.07,-276"/>
<polygon fill="midnightblue" stroke="midnightblue" points="411.86,-279.5 421.86,-276 411.86,-272.5 411.86,-279.5"/>
</g>
<!-- Node43 -->
<g id="node20" class="node">
<title>Node43</title>
<g id="a_node20"><a xlink:href="libbf_8c.html#aa6e77d8d722e3fd0540ede79a63e352e" target="_top" xlink:title=" ">
<polygon fill="none" stroke="red" points="88,-217 88,-247 210,-247 210,-217 88,-217"/>
<text text-anchor="start" x="96" y="-235" font-family="Helvetica,sans-Serif" font-size="10.00">check_exp_underflow</text>
<text text-anchor="middle" x="149" y="-224" font-family="Helvetica,sans-Serif" font-size="10.00">_overflow</text>
</a>
</g>
</g>
<!-- Node63&#45;&gt;Node43 -->
<g id="edge25" class="edge">
<title>Node63&#45;&gt;Node43</title>
<path fill="none" stroke="midnightblue" d="M411.72,-264.55C400.51,-261.77 388.35,-259.02 377,-257 320.79,-246.97 256,-240.32 210.06,-236.41"/>
<polygon fill="midnightblue" stroke="midnightblue" points="411.14,-268.02 421.69,-267.09 412.87,-261.23 411.14,-268.02"/>
</g>
<!-- Node43&#45;&gt;Node27 -->
<g id="edge26" class="edge">
<title>Node43&#45;&gt;Node27</title>
<path fill="none" stroke="midnightblue" d="M77.87,-244.75C68.74,-246.41 59.91,-248.02 52.24,-249.41"/>
<polygon fill="midnightblue" stroke="midnightblue" points="78.64,-248.17 87.85,-242.94 77.39,-241.28 78.64,-248.17"/>
</g>
<!-- Node65 -->
<g id="node22" class="node">
<title>Node65</title>
<g id="a_node22"><a xlink:href="libbf_8h.html#a79d38aeb3ad23b5f22209373e2a8eab1" target="_top" xlink:title=" ">
<polygon fill="none" stroke="black" points="268,-190.5 268,-209.5 355,-209.5 355,-190.5 268,-190.5"/>
<text text-anchor="middle" x="311.5" y="-197.5" font-family="Helvetica,sans-Serif" font-size="10.00">bfdec_cmp_eq</text>
</a>
</g>
</g>
<!-- Node64&#45;&gt;Node65 -->
<g id="edge28" class="edge">
<title>Node64&#45;&gt;Node65</title>
<path fill="none" stroke="midnightblue" d="M409.01,-200C391.8,-200 372.19,-200 355.15,-200"/>
<polygon fill="midnightblue" stroke="midnightblue" points="409.37,-203.5 419.37,-200 409.37,-196.5 409.37,-203.5"/>
</g>
<!-- Node69 -->
<g id="node24" class="node">
<title>Node69</title>
<g id="a_node24"><a xlink:href="libbf_8h.html#a8718d978bcf4aad8ca92abd7e897257e" target="_top" xlink:title=" ">
<polygon fill="none" stroke="black" points="541.5,-152.5 541.5,-171.5 632.5,-171.5 632.5,-152.5 541.5,-152.5"/>
<text text-anchor="middle" x="587" y="-159.5" font-family="Helvetica,sans-Serif" font-size="10.00">bfdec_cmp_full</text>
</a>
</g>
</g>
<!-- Node68&#45;&gt;Node69 -->
<g id="edge30" class="edge">
<title>Node68&#45;&gt;Node69</title>
<path fill="none" stroke="midnightblue" d="M686.71,-162C669.4,-162 649.83,-162 632.71,-162"/>
<polygon fill="midnightblue" stroke="midnightblue" points="687.16,-165.5 697.16,-162 687.16,-158.5 687.16,-165.5"/>
</g>
<!-- Node72 -->
<g id="node28" class="node">
<title>Node72</title>
<g id="a_node28"><a xlink:href="libbf_8c.html#adab81046eaf5fc5a75e1bae96b75be66" target="_top" xlink:title=" ">
<polygon fill="none" stroke="red" points="532,-0.5 532,-19.5 642,-19.5 642,-0.5 532,-0.5"/>
<text text-anchor="middle" x="587" y="-7.5" font-family="Helvetica,sans-Serif" font-size="10.00">bfdec_add_internal</text>
</a>
</g>
</g>
<!-- Node71&#45;&gt;Node72 -->
<g id="edge38" class="edge">
<title>Node71&#45;&gt;Node72</title>
<path fill="none" stroke="midnightblue" d="M686.85,-35.82C666.65,-30.54 643.35,-24.46 624.45,-19.52"/>
<polygon fill="midnightblue" stroke="midnightblue" points="686.22,-39.27 696.78,-38.41 687.99,-32.5 686.22,-39.27"/>
</g>
<!-- Node76 -->
<g id="node29" class="node">
<title>Node76</title>
<g id="a_node29"><a xlink:href="libbf_8h.html#a318508be097917ddd5d1ce187edea68b" target="_top" xlink:title=" ">
<polygon fill="none" stroke="red" points="413,-57.5 413,-76.5 496,-76.5 496,-57.5 413,-57.5"/>
<text text-anchor="middle" x="454.5" y="-64.5" font-family="Helvetica,sans-Serif" font-size="10.00">bfdec_divrem</text>
</a>
</g>
</g>
<!-- Node71&#45;&gt;Node76 -->
<g id="edge39" class="edge">
<title>Node71&#45;&gt;Node76</title>
<path fill="none" stroke="midnightblue" d="M686.36,-59.71C672.19,-62.71 656.55,-65.51 642,-67 591.92,-72.15 533.86,-71.04 496,-69.38"/>
<polygon fill="midnightblue" stroke="midnightblue" points="687.36,-63.07 696.37,-57.51 685.86,-56.24 687.36,-63.07"/>
</g>
<!-- Node80 -->
<g id="node30" class="node">
<title>Node80</title>
<g id="a_node30"><a xlink:href="libbf_8c.html#a4fe4f91a21701a55cffbc44f1eb141b6" target="_top" xlink:title=" ">
<polygon fill="none" stroke="black" points="540.5,-38.5 540.5,-57.5 633.5,-57.5 633.5,-38.5 540.5,-38.5"/>
<text text-anchor="middle" x="587" y="-45.5" font-family="Helvetica,sans-Serif" font-size="10.00">bfdec_tdivremu</text>
</a>
</g>
</g>
<!-- Node71&#45;&gt;Node80 -->
<g id="edge40" class="edge">
<title>Node71&#45;&gt;Node80</title>
<path fill="none" stroke="midnightblue" d="M686.21,-48C669.32,-48 650.35,-48 633.61,-48"/>
<polygon fill="midnightblue" stroke="midnightblue" points="686.41,-51.5 696.41,-48 686.41,-44.5 686.41,-51.5"/>
</g>
<!-- Node80&#45;&gt;Node76 -->
<g id="edge41" class="edge">
<title>Node80&#45;&gt;Node76</title>
<path fill="none" stroke="midnightblue" d="M530.39,-56.1C518.88,-57.77 506.96,-59.51 496.11,-61.09"/>
<polygon fill="midnightblue" stroke="midnightblue" points="530.97,-59.55 540.36,-54.65 529.96,-52.62 530.97,-59.55"/>
</g>
</g>
</svg>
