<?xml version="1.0" encoding="UTF-8" standalone="no"?>
<!DOCTYPE svg PUBLIC "-//W3C//DTD SVG 1.1//EN"
 "http://www.w3.org/Graphics/SVG/1.1/DTD/svg11.dtd">
<!-- Generated by graphviz version 2.43.0 (0)
 -->
<!-- Title: bf_tan_internal Pages: 1 -->
<svg width="878pt" height="816pt"
 viewBox="0.00 0.00 878.00 816.00" xmlns="http://www.w3.org/2000/svg" xmlns:xlink="http://www.w3.org/1999/xlink">
<g id="graph0" class="graph" transform="scale(1 1) rotate(0) translate(4 812)">
<title>bf_tan_internal</title>
<!-- Node1 -->
<g id="node1" class="node">
<title>Node1</title>
<g id="a_node1"><a xlink:title=" ">
<polygon fill="#bfbfbf" stroke="black" points="0,-589.5 0,-608.5 90,-608.5 90,-589.5 0,-589.5"/>
<text text-anchor="middle" x="45" y="-596.5" font-family="Helvetica,sans-Serif" font-size="10.00">bf_tan_internal</text>
</a>
</g>
</g>
<!-- Node2 -->
<g id="node2" class="node">
<title>Node2</title>
<g id="a_node2"><a xlink:href="libbf_8h.html#a2b9d906b21e903f2f7f1c9044674ab7d" target="_top" xlink:title=" ">
<polygon fill="none" stroke="black" points="341,-722.5 341,-741.5 403,-741.5 403,-722.5 341,-722.5"/>
<text text-anchor="middle" x="372" y="-729.5" font-family="Helvetica,sans-Serif" font-size="10.00">bf_delete</text>
</a>
</g>
</g>
<!-- Node1&#45;&gt;Node2 -->
<g id="edge1" class="edge">
<title>Node1&#45;&gt;Node2</title>
<path fill="none" stroke="midnightblue" d="M58.58,-608.68C86.6,-629.74 157,-679.83 224,-705 258.77,-718.06 300.61,-724.96 330.74,-728.5"/>
<polygon fill="midnightblue" stroke="midnightblue" points="330.56,-732 340.88,-729.62 331.33,-725.04 330.56,-732"/>
</g>
<!-- Node4 -->
<g id="node4" class="node">
<title>Node4</title>
<g id="a_node4"><a xlink:href="libbf_8h.html#a030665e68e114717678fb0d0453bb3c6" target="_top" xlink:title=" ">
<polygon fill="none" stroke="black" points="236.5,-228.5 236.5,-247.5 283.5,-247.5 283.5,-228.5 236.5,-228.5"/>
<text text-anchor="middle" x="260" y="-235.5" font-family="Helvetica,sans-Serif" font-size="10.00">bf_div</text>
</a>
</g>
</g>
<!-- Node1&#45;&gt;Node4 -->
<g id="edge3" class="edge">
<title>Node1&#45;&gt;Node4</title>
<path fill="none" stroke="midnightblue" d="M49.7,-589.34C65.86,-547.89 133.54,-382.11 224,-269 228.19,-263.76 233.33,-258.67 238.36,-254.18"/>
<polygon fill="midnightblue" stroke="midnightblue" points="240.66,-256.82 246.03,-247.68 236.14,-251.47 240.66,-256.82"/>
</g>
<!-- Node67 -->
<g id="node16" class="node">
<title>Node67</title>
<g id="a_node16"><a xlink:href="libbf_8h.html#abacc1410890af049e02ebd788364ac48" target="_top" xlink:title=" ">
<polygon fill="none" stroke="black" points="628,-627.5 628,-646.5 675,-646.5 675,-627.5 628,-627.5"/>
<text text-anchor="middle" x="651.5" y="-634.5" font-family="Helvetica,sans-Serif" font-size="10.00">bf_init</text>
</a>
</g>
</g>
<!-- Node1&#45;&gt;Node67 -->
<g id="edge23" class="edge">
<title>Node1&#45;&gt;Node67</title>
<path fill="none" stroke="midnightblue" d="M49.95,-608.52C67.59,-649.41 143.47,-808 259,-808 259,-808 259,-808 373,-808 471.29,-808 507.18,-805.05 585,-745 615.09,-721.78 634.47,-680.48 643.84,-656.24"/>
<polygon fill="midnightblue" stroke="midnightblue" points="647.17,-657.31 647.34,-646.71 640.6,-654.89 647.17,-657.31"/>
</g>
<!-- Node69 -->
<g id="node18" class="node">
<title>Node69</title>
<g id="a_node18"><a xlink:href="libbf_8c.html#a2b19e3958f6cf3fa0cc534681a5ff259" target="_top" xlink:title=" ">
<polygon fill="none" stroke="black" points="126,-456.5 126,-475.5 188,-475.5 188,-456.5 126,-456.5"/>
<text text-anchor="middle" x="157" y="-463.5" font-family="Helvetica,sans-Serif" font-size="10.00">bf_sincos</text>
</a>
</g>
</g>
<!-- Node1&#45;&gt;Node69 -->
<g id="edge24" class="edge">
<title>Node1&#45;&gt;Node69</title>
<path fill="none" stroke="midnightblue" d="M53.91,-589.43C72.21,-567.3 117.72,-512.29 141.3,-483.77"/>
<polygon fill="midnightblue" stroke="midnightblue" points="144.19,-485.77 147.86,-475.84 138.79,-481.31 144.19,-485.77"/>
</g>
<!-- Node3 -->
<g id="node3" class="node">
<title>Node3</title>
<g id="a_node3"><a xlink:href="libbf_8h.html#a524c9e60866c08c75061626a4b5e2f29" target="_top" xlink:title=" ">
<polygon fill="none" stroke="black" points="805,-627.5 805,-646.5 870,-646.5 870,-627.5 805,-627.5"/>
<text text-anchor="middle" x="837.5" y="-634.5" font-family="Helvetica,sans-Serif" font-size="10.00">bf_realloc</text>
</a>
</g>
</g>
<!-- Node2&#45;&gt;Node3 -->
<g id="edge2" class="edge">
<title>Node2&#45;&gt;Node3</title>
<path fill="none" stroke="midnightblue" d="M403.08,-730.14C444.38,-727.23 520.85,-720.6 585,-708 662.05,-692.87 749.87,-665.74 798.68,-649.76"/>
<polygon fill="midnightblue" stroke="midnightblue" points="799.8,-653.08 808.2,-646.62 797.61,-646.43 799.8,-653.08"/>
</g>
<!-- Node5 -->
<g id="node5" class="node">
<title>Node5</title>
<g id="a_node5"><a xlink:href="libbf_8c.html#ad7a540de8355f07757e52b48d35dd708" target="_top" xlink:title=" ">
<polygon fill="none" stroke="black" points="343.5,-190.5 343.5,-209.5 400.5,-209.5 400.5,-190.5 343.5,-190.5"/>
<text text-anchor="middle" x="372" y="-197.5" font-family="Helvetica,sans-Serif" font-size="10.00">__bf_div</text>
</a>
</g>
</g>
<!-- Node4&#45;&gt;Node5 -->
<g id="edge4" class="edge">
<title>Node4&#45;&gt;Node5</title>
<path fill="none" stroke="midnightblue" d="M283.53,-230.22C298.03,-225.21 317.22,-218.58 333.94,-212.8"/>
<polygon fill="midnightblue" stroke="midnightblue" points="335.13,-216.1 343.44,-209.52 332.84,-209.48 335.13,-216.1"/>
</g>
<!-- Node66 -->
<g id="node15" class="node">
<title>Node66</title>
<g id="a_node15"><a xlink:href="libbf_8c.html#a3ebbc1c7473b2ad84ced2b263bf38bae" target="_top" xlink:title=" ">
<polygon fill="none" stroke="black" points="491.5,-532.5 491.5,-551.5 541.5,-551.5 541.5,-532.5 491.5,-532.5"/>
<text text-anchor="middle" x="516.5" y="-539.5" font-family="Helvetica,sans-Serif" font-size="10.00">bf_op2</text>
</a>
</g>
</g>
<!-- Node4&#45;&gt;Node66 -->
<g id="edge19" class="edge">
<title>Node4&#45;&gt;Node66</title>
<path fill="none" stroke="midnightblue" d="M268.31,-247.53C276.3,-258.43 288.92,-277.07 296,-295 325.33,-369.26 280.46,-410.02 332,-471 369.91,-515.86 439.67,-532.49 481.39,-538.57"/>
<polygon fill="midnightblue" stroke="midnightblue" points="480.99,-542.05 491.36,-539.9 481.91,-535.11 480.99,-542.05"/>
</g>
<!-- Node6 -->
<g id="node6" class="node">
<title>Node6</title>
<g id="a_node6"><a xlink:href="libbf_8h.html#ab8c991bf0d1ab72d676d3c9c3d63c2a7" target="_top" xlink:title=" ">
<polygon fill="none" stroke="black" points="718,-494.5 718,-513.5 769,-513.5 769,-494.5 718,-494.5"/>
<text text-anchor="middle" x="743.5" y="-501.5" font-family="Helvetica,sans-Serif" font-size="10.00">bf_free</text>
</a>
</g>
</g>
<!-- Node5&#45;&gt;Node6 -->
<g id="edge5" class="edge">
<title>Node5&#45;&gt;Node6</title>
<path fill="none" stroke="midnightblue" d="M393.39,-190.42C399.43,-187.49 406.02,-184.19 412,-181 428.34,-172.27 430.12,-164.83 448,-160 506.78,-144.11 529.84,-134.22 585,-160 712.43,-219.55 736.88,-420.18 741.47,-484.19"/>
<polygon fill="midnightblue" stroke="midnightblue" points="737.97,-484.43 742.09,-494.19 744.96,-483.99 737.97,-484.43"/>
</g>
<!-- Node7 -->
<g id="node7" class="node">
<title>Node7</title>
<g id="a_node7"><a xlink:href="libbf_8h.html#a4954f3435332238433d15977d55ae566" target="_top" xlink:title=" ">
<polygon fill="none" stroke="black" points="490,-0.5 490,-19.5 543,-19.5 543,-0.5 490,-0.5"/>
<text text-anchor="middle" x="516.5" y="-7.5" font-family="Helvetica,sans-Serif" font-size="10.00">bf_max</text>
</a>
</g>
</g>
<!-- Node5&#45;&gt;Node7 -->
<g id="edge7" class="edge">
<title>Node5&#45;&gt;Node7</title>
<path fill="none" stroke="midnightblue" d="M400.82,-190.32C405.04,-187.83 408.99,-184.76 412,-181 455.38,-126.8 399.95,-79.11 448,-29 456.34,-20.3 468.33,-15.49 479.89,-12.86"/>
<polygon fill="midnightblue" stroke="midnightblue" points="480.62,-16.28 489.84,-11.06 479.38,-9.39 480.62,-16.28"/>
</g>
<!-- Node8 -->
<g id="node8" class="node">
<title>Node8</title>
<g id="a_node8"><a xlink:href="libbf_8h.html#ae822c0888d26739bb681dfef282b9150" target="_top" xlink:title=" ">
<polygon fill="none" stroke="red" points="448,-190.5 448,-209.5 585,-209.5 585,-190.5 448,-190.5"/>
<text text-anchor="middle" x="516.5" y="-197.5" font-family="Helvetica,sans-Serif" font-size="10.00">bf_normalize_and_round</text>
</a>
</g>
</g>
<!-- Node5&#45;&gt;Node8 -->
<g id="edge8" class="edge">
<title>Node5&#45;&gt;Node8</title>
<path fill="none" stroke="midnightblue" d="M400.81,-200C411.59,-200 424.52,-200 437.74,-200"/>
<polygon fill="midnightblue" stroke="midnightblue" points="437.88,-203.5 447.88,-200 437.88,-196.5 437.88,-203.5"/>
</g>
<!-- Node15 -->
<g id="node9" class="node">
<title>Node15</title>
<g id="a_node9"><a xlink:href="libbf_8h.html#ab51c43b22c1a81c789ee0e3d53c0e585" target="_top" xlink:title=" ">
<polygon fill="none" stroke="black" points="621,-285.5 621,-304.5 682,-304.5 682,-285.5 621,-285.5"/>
<text text-anchor="middle" x="651.5" y="-292.5" font-family="Helvetica,sans-Serif" font-size="10.00">bf_resize</text>
</a>
</g>
</g>
<!-- Node5&#45;&gt;Node15 -->
<g id="edge10" class="edge">
<title>Node5&#45;&gt;Node15</title>
<path fill="none" stroke="midnightblue" d="M394.3,-190.5C434.59,-174.07 523.43,-145.37 585,-181 620.25,-201.4 638.18,-248.74 645.81,-275.56"/>
<polygon fill="midnightblue" stroke="midnightblue" points="642.46,-276.57 648.4,-285.35 649.23,-274.79 642.46,-276.57"/>
</g>
<!-- Node17 -->
<g id="node10" class="node">
<title>Node17</title>
<g id="a_node10"><a xlink:href="libbf_8h.html#a88d3dcee173f1e4fd4e55000edb04595" target="_top" xlink:title=" ">
<polygon fill="none" stroke="black" points="484,-266.5 484,-285.5 549,-285.5 549,-266.5 484,-266.5"/>
<text text-anchor="middle" x="516.5" y="-273.5" font-family="Helvetica,sans-Serif" font-size="10.00">bf_set_inf</text>
</a>
</g>
</g>
<!-- Node5&#45;&gt;Node17 -->
<g id="edge11" class="edge">
<title>Node5&#45;&gt;Node17</title>
<path fill="none" stroke="midnightblue" d="M383.32,-209.89C397.03,-222.54 422.53,-244.31 448,-257 456.08,-261.02 465.13,-264.31 473.93,-266.95"/>
<polygon fill="midnightblue" stroke="midnightblue" points="473.1,-270.35 483.68,-269.66 474.98,-263.61 473.1,-270.35"/>
</g>
<!-- Node18 -->
<g id="node11" class="node">
<title>Node18</title>
<g id="a_node11"><a xlink:href="libbf_8h.html#aa6282c789c16c8cf2fe6a8ebd671c6fc" target="_top" xlink:title=" ">
<polygon fill="none" stroke="black" points="481.5,-342.5 481.5,-361.5 551.5,-361.5 551.5,-342.5 481.5,-342.5"/>
<text text-anchor="middle" x="516.5" y="-349.5" font-family="Helvetica,sans-Serif" font-size="10.00">bf_set_nan</text>
</a>
</g>
</g>
<!-- Node5&#45;&gt;Node18 -->
<g id="edge13" class="edge">
<title>Node5&#45;&gt;Node18</title>
<path fill="none" stroke="midnightblue" d="M379.65,-209.68C392.08,-227.47 420.09,-266.16 448,-295 462.57,-310.06 480.82,-325.28 494.67,-336.2"/>
<polygon fill="midnightblue" stroke="midnightblue" points="492.6,-339.03 502.65,-342.41 496.9,-333.51 492.6,-339.03"/>
</g>
<!-- Node19 -->
<g id="node12" class="node">
<title>Node19</title>
<g id="a_node12"><a xlink:href="libbf_8h.html#a66631c65c00e92a5840a5085a009602d" target="_top" xlink:title=" ">
<polygon fill="none" stroke="black" points="480,-228.5 480,-247.5 553,-247.5 553,-228.5 480,-228.5"/>
<text text-anchor="middle" x="516.5" y="-235.5" font-family="Helvetica,sans-Serif" font-size="10.00">bf_set_zero</text>
</a>
</g>
</g>
<!-- Node5&#45;&gt;Node19 -->
<g id="edge15" class="edge">
<title>Node5&#45;&gt;Node19</title>
<path fill="none" stroke="midnightblue" d="M400.81,-207.42C420.5,-212.67 447.34,-219.82 470.1,-225.89"/>
<polygon fill="midnightblue" stroke="midnightblue" points="469.34,-229.31 479.9,-228.51 471.14,-222.55 469.34,-229.31"/>
</g>
<!-- Node22 -->
<g id="node13" class="node">
<title>Node22</title>
<g id="a_node13"><a xlink:href="libbf_8c.html#a0b14a84ecf8baf4930b1bcb8621b8e18" target="_top" xlink:title=" ">
<polygon fill="none" stroke="red" points="477.5,-76.5 477.5,-95.5 555.5,-95.5 555.5,-76.5 477.5,-76.5"/>
<text text-anchor="middle" x="516.5" y="-83.5" font-family="Helvetica,sans-Serif" font-size="10.00">mp_divnorm</text>
</a>
</g>
</g>
<!-- Node5&#45;&gt;Node22 -->
<g id="edge17" class="edge">
<title>Node5&#45;&gt;Node22</title>
<path fill="none" stroke="midnightblue" d="M398.9,-190.34C403.62,-187.79 408.24,-184.7 412,-181 437.22,-156.18 421.44,-133.37 448,-110 453.71,-104.97 460.55,-100.98 467.65,-97.81"/>
<polygon fill="midnightblue" stroke="midnightblue" points="469.38,-100.89 477.41,-93.98 466.82,-94.37 469.38,-100.89"/>
</g>
<!-- Node62 -->
<g id="node14" class="node">
<title>Node62</title>
<g id="a_node14"><a xlink:href="libbf_8c.html#a46c382a2c0fdce3d6a7169762670d7b9" target="_top" xlink:title=" ">
<polygon fill="none" stroke="black" points="478,-38.5 478,-57.5 555,-57.5 555,-38.5 478,-38.5"/>
<text text-anchor="middle" x="516.5" y="-45.5" font-family="Helvetica,sans-Serif" font-size="10.00">mp_scan_nz</text>
</a>
</g>
</g>
<!-- Node5&#45;&gt;Node62 -->
<g id="edge18" class="edge">
<title>Node5&#45;&gt;Node62</title>
<path fill="none" stroke="midnightblue" d="M400.2,-190.36C404.59,-187.85 408.75,-184.76 412,-181 446.7,-140.76 409.84,-103.97 448,-67 453.66,-61.52 460.76,-57.6 468.23,-54.79"/>
<polygon fill="midnightblue" stroke="midnightblue" points="469.29,-58.13 477.79,-51.81 467.2,-51.45 469.29,-58.13"/>
</g>
<!-- Node6&#45;&gt;Node3 -->
<g id="edge6" class="edge">
<title>Node6&#45;&gt;Node3</title>
<path fill="none" stroke="midnightblue" d="M751.12,-513.57C766.36,-535.6 804.15,-590.24 823.95,-618.86"/>
<polygon fill="midnightblue" stroke="midnightblue" points="821.13,-620.93 829.7,-627.16 826.88,-616.95 821.13,-620.93"/>
</g>
<!-- Node8&#45;&gt;Node15 -->
<g id="edge9" class="edge">
<title>Node8&#45;&gt;Node15</title>
<path fill="none" stroke="midnightblue" d="M565.13,-209.58C572.09,-212.05 578.94,-215.14 585,-219 608.31,-233.84 627.88,-259.47 639.4,-276.82"/>
<polygon fill="midnightblue" stroke="midnightblue" points="636.6,-278.95 644.94,-285.48 642.5,-275.17 636.6,-278.95"/>
</g>
<!-- Node17&#45;&gt;Node15 -->
<g id="edge12" class="edge">
<title>Node17&#45;&gt;Node15</title>
<path fill="none" stroke="midnightblue" d="M549.02,-280.5C567.47,-283.14 590.93,-286.49 610.65,-289.31"/>
<polygon fill="midnightblue" stroke="midnightblue" points="610.18,-292.78 620.58,-290.73 611.17,-285.85 610.18,-292.78"/>
</g>
<!-- Node18&#45;&gt;Node15 -->
<g id="edge14" class="edge">
<title>Node18&#45;&gt;Node15</title>
<path fill="none" stroke="midnightblue" d="M547.05,-342.39C558.96,-338.28 572.76,-333.23 585,-328 598.12,-322.39 612.3,-315.37 624.1,-309.25"/>
<polygon fill="midnightblue" stroke="midnightblue" points="625.77,-312.32 632.99,-304.57 622.51,-306.13 625.77,-312.32"/>
</g>
<!-- Node19&#45;&gt;Node15 -->
<g id="edge16" class="edge">
<title>Node19&#45;&gt;Node15</title>
<path fill="none" stroke="midnightblue" d="M553.11,-246.22C563.57,-249.12 574.91,-252.73 585,-257 599.86,-263.28 615.52,-272.27 627.81,-279.93"/>
<polygon fill="midnightblue" stroke="midnightblue" points="626.16,-283.03 636.47,-285.46 629.93,-277.13 626.16,-283.03"/>
</g>
<!-- Node66&#45;&gt;Node67 -->
<g id="edge20" class="edge">
<title>Node66&#45;&gt;Node67</title>
<path fill="none" stroke="midnightblue" d="M541.6,-547.51C555.1,-551.32 571.82,-557.3 585,-566 606.53,-580.21 625.83,-602.98 637.81,-618.89"/>
<polygon fill="midnightblue" stroke="midnightblue" points="635.26,-621.33 643.98,-627.35 640.92,-617.2 635.26,-621.33"/>
</g>
<!-- Node68 -->
<g id="node17" class="node">
<title>Node68</title>
<g id="a_node17"><a xlink:href="libbf_8h.html#ad7ab5aff92f4e7e10b2a30e0e6b9226d" target="_top" xlink:title=" ">
<polygon fill="none" stroke="black" points="622,-494.5 622,-513.5 681,-513.5 681,-494.5 622,-494.5"/>
<text text-anchor="middle" x="651.5" y="-501.5" font-family="Helvetica,sans-Serif" font-size="10.00">bf_move</text>
</a>
</g>
</g>
<!-- Node66&#45;&gt;Node68 -->
<g id="edge21" class="edge">
<title>Node66&#45;&gt;Node68</title>
<path fill="none" stroke="midnightblue" d="M541.59,-535.12C561.28,-529.49 589.49,-521.43 612.26,-514.92"/>
<polygon fill="midnightblue" stroke="midnightblue" points="613.32,-518.26 621.97,-512.15 611.4,-511.53 613.32,-518.26"/>
</g>
<!-- Node68&#45;&gt;Node6 -->
<g id="edge22" class="edge">
<title>Node68&#45;&gt;Node6</title>
<path fill="none" stroke="midnightblue" d="M681.47,-504C689.8,-504 698.97,-504 707.62,-504"/>
<polygon fill="midnightblue" stroke="midnightblue" points="707.81,-507.5 717.81,-504 707.81,-500.5 707.81,-507.5"/>
</g>
<!-- Node69&#45;&gt;Node2 -->
<g id="edge32" class="edge">
<title>Node69&#45;&gt;Node2</title>
<path fill="none" stroke="midnightblue" d="M158.4,-475.93C160.21,-508.18 170.15,-611.3 224,-670 252.17,-700.71 297.99,-716.73 331,-724.73"/>
<polygon fill="midnightblue" stroke="midnightblue" points="330.27,-728.15 340.79,-726.96 331.82,-721.33 330.27,-728.15"/>
</g>
<!-- Node69&#45;&gt;Node4 -->
<g id="edge33" class="edge">
<title>Node69&#45;&gt;Node4</title>
<path fill="none" stroke="midnightblue" d="M160.21,-456.49C168.65,-420.73 199.62,-294.66 224,-262 226.29,-258.93 229.1,-256.11 232.12,-253.57"/>
<polygon fill="midnightblue" stroke="midnightblue" points="234.39,-256.25 240.4,-247.53 230.26,-250.6 234.39,-256.25"/>
</g>
<!-- Node69&#45;&gt;Node7 -->
<g id="edge36" class="edge">
<title>Node69&#45;&gt;Node7</title>
<path fill="none" stroke="midnightblue" d="M157.66,-456.36C156.75,-417.18 157.94,-267.42 224,-173 287.13,-82.77 417.04,-36.71 479.89,-18.94"/>
<polygon fill="midnightblue" stroke="midnightblue" points="481.02,-22.26 489.74,-16.23 479.17,-15.51 481.02,-22.26"/>
</g>
<!-- Node69&#45;&gt;Node67 -->
<g id="edge34" class="edge">
<title>Node69&#45;&gt;Node67</title>
<path fill="none" stroke="midnightblue" d="M158.53,-475.66C160.7,-505.16 171.51,-594.62 224,-637 286.51,-687.48 505.54,-668.86 585,-657 596.05,-655.35 607.81,-652.22 618.28,-648.91"/>
<polygon fill="midnightblue" stroke="midnightblue" points="619.46,-652.21 627.85,-645.73 617.25,-645.56 619.46,-652.21"/>
</g>
<!-- Node70 -->
<g id="node19" class="node">
<title>Node70</title>
<g id="a_node19"><a xlink:href="libbf_8h.html#a17dc09166f82ffa408f54a2edc4d7855" target="_top" xlink:title=" ">
<polygon fill="none" stroke="red" points="347,-608.5 347,-627.5 397,-627.5 397,-608.5 347,-608.5"/>
<text text-anchor="middle" x="372" y="-615.5" font-family="Helvetica,sans-Serif" font-size="10.00">bf_add</text>
</a>
</g>
</g>
<!-- Node69&#45;&gt;Node70 -->
<g id="edge25" class="edge">
<title>Node69&#45;&gt;Node70</title>
<path fill="none" stroke="midnightblue" d="M162.35,-475.78C171.27,-494.77 193.38,-536.91 224,-561 257.77,-587.58 305.41,-603 337.21,-610.94"/>
<polygon fill="midnightblue" stroke="midnightblue" points="336.4,-614.35 346.94,-613.27 338.02,-607.54 336.4,-614.35"/>
</g>
<!-- Node77 -->
<g id="node20" class="node">
<title>Node77</title>
<g id="a_node20"><a xlink:href="libbf_8h.html#a50a5aa2767f2389a32daf115aaef07af" target="_top" xlink:title=" ">
<polygon fill="none" stroke="red" points="228.5,-608.5 228.5,-627.5 291.5,-627.5 291.5,-608.5 228.5,-608.5"/>
<text text-anchor="middle" x="260" y="-615.5" font-family="Helvetica,sans-Serif" font-size="10.00">bf_add_si</text>
</a>
</g>
</g>
<!-- Node69&#45;&gt;Node77 -->
<g id="edge27" class="edge">
<title>Node69&#45;&gt;Node77</title>
<path fill="none" stroke="midnightblue" d="M161.11,-475.63C168.81,-498.33 190.59,-556.13 224,-594 226.67,-597.02 229.79,-599.85 233.05,-602.42"/>
<polygon fill="midnightblue" stroke="midnightblue" points="231.1,-605.33 241.28,-608.28 235.16,-599.63 231.1,-605.33"/>
</g>
<!-- Node80 -->
<g id="node21" class="node">
<title>Node80</title>
<g id="a_node21"><a xlink:href="libbf_8h.html#aff86bca731f3c8ffe45f0f1129175961" target="_top" xlink:title=" ">
<polygon fill="none" stroke="red" points="224,-342.5 224,-361.5 296,-361.5 296,-342.5 224,-342.5"/>
<text text-anchor="middle" x="260" y="-349.5" font-family="Helvetica,sans-Serif" font-size="10.00">bf_const_pi</text>
</a>
</g>
</g>
<!-- Node69&#45;&gt;Node80 -->
<g id="edge31" class="edge">
<title>Node69&#45;&gt;Node80</title>
<path fill="none" stroke="midnightblue" d="M163.63,-456.25C174.01,-438.78 197.56,-401.62 224,-376 227.1,-373 230.6,-370.12 234.18,-367.46"/>
<polygon fill="midnightblue" stroke="midnightblue" points="236.25,-370.28 242.46,-361.7 232.25,-364.53 236.25,-370.28"/>
</g>
<!-- Node94 -->
<g id="node22" class="node">
<title>Node94</title>
<g id="a_node22"><a xlink:href="libbf_8h.html#adeb14e044b992b09438bbd872831103b" target="_top" xlink:title=" ">
<polygon fill="none" stroke="red" points="233.5,-304.5 233.5,-323.5 286.5,-323.5 286.5,-304.5 233.5,-304.5"/>
<text text-anchor="middle" x="260" y="-311.5" font-family="Helvetica,sans-Serif" font-size="10.00">bf_isqrt</text>
</a>
</g>
</g>
<!-- Node69&#45;&gt;Node94 -->
<g id="edge35" class="edge">
<title>Node69&#45;&gt;Node94</title>
<path fill="none" stroke="midnightblue" d="M160.55,-456.45C167.26,-432.84 187.51,-370.86 224,-333 225.22,-331.73 226.54,-330.53 227.94,-329.39"/>
<polygon fill="midnightblue" stroke="midnightblue" points="230.18,-332.1 236.47,-323.57 226.23,-326.32 230.18,-332.1"/>
</g>
<!-- Node85 -->
<g id="node23" class="node">
<title>Node85</title>
<g id="a_node23"><a xlink:href="libbf_8h.html#ac290278d0c37a0e7786873f98aadba47" target="_top" xlink:title=" ">
<polygon fill="none" stroke="red" points="347,-385.5 347,-404.5 397,-404.5 397,-385.5 347,-385.5"/>
<text text-anchor="middle" x="372" y="-392.5" font-family="Helvetica,sans-Serif" font-size="10.00">bf_mul</text>
</a>
</g>
</g>
<!-- Node69&#45;&gt;Node85 -->
<g id="edge37" class="edge">
<title>Node69&#45;&gt;Node85</title>
<path fill="none" stroke="midnightblue" d="M188.08,-465.86C216.73,-464.81 260.62,-460.78 296,-447 317.47,-438.63 338.76,-422.99 353.14,-411.03"/>
<polygon fill="midnightblue" stroke="midnightblue" points="355.44,-413.67 360.75,-404.51 350.88,-408.36 355.44,-413.67"/>
</g>
<!-- Node95 -->
<g id="node24" class="node">
<title>Node95</title>
<g id="a_node24"><a xlink:href="libbf_8h.html#ae1d5fe9356228cc3a566786637f26680" target="_top" xlink:title=" ">
<polygon fill="none" stroke="red" points="332,-152.5 332,-171.5 412,-171.5 412,-152.5 332,-152.5"/>
<text text-anchor="middle" x="372" y="-159.5" font-family="Helvetica,sans-Serif" font-size="10.00">bf_mul_2exp</text>
</a>
</g>
</g>
<!-- Node69&#45;&gt;Node95 -->
<g id="edge45" class="edge">
<title>Node69&#45;&gt;Node95</title>
<path fill="none" stroke="midnightblue" d="M157.66,-456.05C156.96,-419.5 159.4,-291.04 224,-219 249.06,-191.05 289.47,-176.69 321.58,-169.38"/>
<polygon fill="midnightblue" stroke="midnightblue" points="322.62,-172.73 331.68,-167.24 321.17,-165.88 322.62,-172.73"/>
</g>
<!-- Node86 -->
<g id="node25" class="node">
<title>Node86</title>
<g id="a_node25"><a xlink:href="libbf_8h.html#acee0d550162528b5ca5513d4479549c2" target="_top" xlink:title=" ">
<polygon fill="none" stroke="black" points="227.5,-532.5 227.5,-551.5 292.5,-551.5 292.5,-532.5 227.5,-532.5"/>
<text text-anchor="middle" x="260" y="-539.5" font-family="Helvetica,sans-Serif" font-size="10.00">bf_mul_ui</text>
</a>
</g>
</g>
<!-- Node69&#45;&gt;Node86 -->
<g id="edge47" class="edge">
<title>Node69&#45;&gt;Node86</title>
<path fill="none" stroke="midnightblue" d="M169.98,-475.83C183.06,-486.47 204.73,-503.82 224,-518 227.84,-520.83 231.98,-523.76 236.02,-526.56"/>
<polygon fill="midnightblue" stroke="midnightblue" points="234.32,-529.64 244.55,-532.4 238.27,-523.86 234.32,-529.64"/>
</g>
<!-- Node79 -->
<g id="node26" class="node">
<title>Node79</title>
<g id="a_node26"><a xlink:href="libbf_8h.html#a2378f025beace5741c19bf995c2971d3" target="_top" xlink:title=" ">
<polygon fill="none" stroke="red" points="341.5,-442.5 341.5,-461.5 402.5,-461.5 402.5,-442.5 341.5,-442.5"/>
<text text-anchor="middle" x="372" y="-449.5" font-family="Helvetica,sans-Serif" font-size="10.00">bf_set_ui</text>
</a>
</g>
</g>
<!-- Node69&#45;&gt;Node79 -->
<g id="edge61" class="edge">
<title>Node69&#45;&gt;Node79</title>
<path fill="none" stroke="midnightblue" d="M188.07,-473.86C216.15,-480.06 259.15,-486.65 296,-480 311.63,-477.18 328.25,-471.3 341.86,-465.65"/>
<polygon fill="midnightblue" stroke="midnightblue" points="343.39,-468.8 351.18,-461.63 340.61,-462.37 343.39,-468.8"/>
</g>
<!-- Node96 -->
<g id="node27" class="node">
<title>Node96</title>
<g id="a_node27"><a xlink:href="libbf_8h.html#aa561bc5220ec0489f4d3e59789d43d26" target="_top" xlink:title=" ">
<polygon fill="none" stroke="black" points="347,-269.5 347,-288.5 397,-288.5 397,-269.5 347,-269.5"/>
<text text-anchor="middle" x="372" y="-276.5" font-family="Helvetica,sans-Serif" font-size="10.00">bf_neg</text>
</a>
</g>
</g>
<!-- Node69&#45;&gt;Node96 -->
<g id="edge54" class="edge">
<title>Node69&#45;&gt;Node96</title>
<path fill="none" stroke="midnightblue" d="M160.33,-456.31C168.5,-423.28 196.75,-315.95 224,-295 256,-270.4 304.14,-269.98 336.53,-273.32"/>
<polygon fill="midnightblue" stroke="midnightblue" points="336.51,-276.84 346.86,-274.57 337.35,-269.89 336.51,-276.84"/>
</g>
<!-- Node97 -->
<g id="node28" class="node">
<title>Node97</title>
<g id="a_node28"><a xlink:href="libbf_8h.html#a7ded681bd52308690336efcfde537a54" target="_top" xlink:title=" ">
<polygon fill="none" stroke="red" points="225.5,-760.5 225.5,-779.5 294.5,-779.5 294.5,-760.5 225.5,-760.5"/>
<text text-anchor="middle" x="260" y="-767.5" font-family="Helvetica,sans-Serif" font-size="10.00">bf_remquo</text>
</a>
</g>
</g>
<!-- Node69&#45;&gt;Node97 -->
<g id="edge55" class="edge">
<title>Node69&#45;&gt;Node97</title>
<path fill="none" stroke="midnightblue" d="M159.71,-475.51C165.84,-508.53 188.23,-621 224,-708 230.31,-723.33 239.61,-739.62 247.04,-751.65"/>
<polygon fill="midnightblue" stroke="midnightblue" points="244.2,-753.71 252.51,-760.29 250.12,-749.97 244.2,-753.71"/>
</g>
<!-- Node75 -->
<g id="node29" class="node">
<title>Node75</title>
<g id="a_node29"><a xlink:href="libbf_8h.html#ae019ee8073f4359da157d3b1e5fdba7e" target="_top" xlink:title=" ">
<polygon fill="none" stroke="black" points="348.5,-345.5 348.5,-364.5 395.5,-364.5 395.5,-345.5 348.5,-345.5"/>
<text text-anchor="middle" x="372" y="-352.5" font-family="Helvetica,sans-Serif" font-size="10.00">bf_set</text>
</a>
</g>
</g>
<!-- Node69&#45;&gt;Node75 -->
<g id="edge58" class="edge">
<title>Node69&#45;&gt;Node75</title>
<path fill="none" stroke="midnightblue" d="M166.99,-456.32C178.97,-443.9 201.3,-422.37 224,-409 260.83,-387.31 307.87,-371.89 338.69,-363.23"/>
<polygon fill="midnightblue" stroke="midnightblue" points="339.76,-366.56 348.48,-360.55 337.91,-359.81 339.76,-366.56"/>
</g>
<!-- Node106 -->
<g id="node30" class="node">
<title>Node106</title>
<g id="a_node30"><a xlink:href="libbf_8c.html#a15b40c4ae7e9b401fd0c6dc398eacef7" target="_top" xlink:title=" ">
<polygon fill="none" stroke="red" points="225,-418.5 225,-437.5 295,-437.5 295,-418.5 225,-418.5"/>
<text text-anchor="middle" x="260" y="-425.5" font-family="Helvetica,sans-Serif" font-size="10.00">bf_sqrt_sin</text>
</a>
</g>
</g>
<!-- Node69&#45;&gt;Node106 -->
<g id="edge62" class="edge">
<title>Node69&#45;&gt;Node106</title>
<path fill="none" stroke="midnightblue" d="M183.49,-456.41C195.81,-451.78 210.78,-446.14 224.14,-441.11"/>
<polygon fill="midnightblue" stroke="midnightblue" points="225.39,-444.38 233.52,-437.59 222.93,-437.83 225.39,-444.38"/>
</g>
<!-- Node70&#45;&gt;Node66 -->
<g id="edge26" class="edge">
<title>Node70&#45;&gt;Node66</title>
<path fill="none" stroke="midnightblue" d="M391.05,-608.37C415.67,-595.24 460,-571.6 488.57,-556.36"/>
<polygon fill="midnightblue" stroke="midnightblue" points="490.42,-559.34 497.6,-551.55 487.13,-553.16 490.42,-559.34"/>
</g>
<!-- Node77&#45;&gt;Node2 -->
<g id="edge29" class="edge">
<title>Node77&#45;&gt;Node2</title>
<path fill="none" stroke="midnightblue" d="M270.38,-627.72C289.05,-647.07 331.08,-690.63 354.48,-714.88"/>
<polygon fill="midnightblue" stroke="midnightblue" points="352.18,-717.54 361.65,-722.31 357.22,-712.68 352.18,-717.54"/>
</g>
<!-- Node77&#45;&gt;Node67 -->
<g id="edge30" class="edge">
<title>Node77&#45;&gt;Node67</title>
<path fill="none" stroke="midnightblue" d="M289.67,-627.5C302.47,-631.27 317.83,-635.14 332,-637 435.74,-650.64 560.13,-644.12 617.97,-639.78"/>
<polygon fill="midnightblue" stroke="midnightblue" points="618.27,-643.27 627.97,-639.01 617.73,-636.29 618.27,-643.27"/>
</g>
<!-- Node77&#45;&gt;Node70 -->
<g id="edge28" class="edge">
<title>Node77&#45;&gt;Node70</title>
<path fill="none" stroke="midnightblue" d="M291.64,-618C305.66,-618 322.32,-618 336.75,-618"/>
<polygon fill="midnightblue" stroke="midnightblue" points="336.79,-621.5 346.79,-618 336.79,-614.5 336.79,-621.5"/>
</g>
<!-- Node85&#45;&gt;Node8 -->
<g id="edge40" class="edge">
<title>Node85&#45;&gt;Node8</title>
<path fill="none" stroke="midnightblue" d="M397.25,-386.03C402.79,-382.97 408.17,-379.01 412,-374 454.94,-317.81 399.16,-270.15 448,-219 449.39,-217.55 450.88,-216.2 452.45,-214.96"/>
<polygon fill="midnightblue" stroke="midnightblue" points="454.38,-217.88 460.91,-209.54 450.6,-211.99 454.38,-217.88"/>
</g>
<!-- Node85&#45;&gt;Node15 -->
<g id="edge41" class="edge">
<title>Node85&#45;&gt;Node15</title>
<path fill="none" stroke="midnightblue" d="M397.22,-397.73C438.41,-401.24 523.59,-403.45 585,-371 609.56,-358.02 628.94,-331.72 640.06,-313.73"/>
<polygon fill="midnightblue" stroke="midnightblue" points="643.3,-315.12 645.37,-304.73 637.27,-311.57 643.3,-315.12"/>
</g>
<!-- Node85&#45;&gt;Node17 -->
<g id="edge42" class="edge">
<title>Node85&#45;&gt;Node17</title>
<path fill="none" stroke="midnightblue" d="M394.1,-385.4C400.16,-382.18 406.58,-378.31 412,-374 430.98,-358.9 430.69,-349.98 448,-333 463.05,-318.24 481.4,-302.89 495.17,-291.85"/>
<polygon fill="midnightblue" stroke="midnightblue" points="497.42,-294.53 503.08,-285.57 493.07,-289.05 497.42,-294.53"/>
</g>
<!-- Node85&#45;&gt;Node18 -->
<g id="edge43" class="edge">
<title>Node85&#45;&gt;Node18</title>
<path fill="none" stroke="midnightblue" d="M397.17,-387.71C418.27,-381.34 449.34,-371.96 474.35,-364.42"/>
<polygon fill="midnightblue" stroke="midnightblue" points="475.39,-367.76 483.95,-361.52 473.37,-361.06 475.39,-367.76"/>
</g>
<!-- Node85&#45;&gt;Node19 -->
<g id="edge44" class="edge">
<title>Node85&#45;&gt;Node19</title>
<path fill="none" stroke="midnightblue" d="M397.01,-385.84C402.56,-382.78 408,-378.87 412,-374 446.53,-331.96 409.07,-295 448,-257 454.14,-251.01 462.01,-246.88 470.19,-244.03"/>
<polygon fill="midnightblue" stroke="midnightblue" points="471.21,-247.38 479.86,-241.26 469.28,-240.65 471.21,-247.38"/>
</g>
<!-- Node85&#45;&gt;Node67 -->
<g id="edge38" class="edge">
<title>Node85&#45;&gt;Node67</title>
<path fill="none" stroke="midnightblue" d="M383.12,-404.77C402.74,-423.67 444.34,-463.62 448,-466 503.3,-501.93 535.5,-479.43 585,-523 614.98,-549.39 634.58,-592.97 643.98,-617.91"/>
<polygon fill="midnightblue" stroke="midnightblue" points="640.7,-619.13 647.39,-627.35 647.29,-616.76 640.7,-619.13"/>
</g>
<!-- Node85&#45;&gt;Node68 -->
<g id="edge39" class="edge">
<title>Node85&#45;&gt;Node68</title>
<path fill="none" stroke="midnightblue" d="M397.14,-404.48C446.65,-423.93 559.79,-468.37 616.62,-490.69"/>
<polygon fill="midnightblue" stroke="midnightblue" points="615.63,-494.06 626.22,-494.46 618.19,-487.55 615.63,-494.06"/>
</g>
<!-- Node95&#45;&gt;Node7 -->
<g id="edge46" class="edge">
<title>Node95&#45;&gt;Node7</title>
<path fill="none" stroke="midnightblue" d="M377.27,-152.33C389.67,-124.68 426.11,-46.19 448,-29 457.16,-21.8 468.91,-17.33 480.02,-14.55"/>
<polygon fill="midnightblue" stroke="midnightblue" points="480.91,-17.94 489.96,-12.45 479.46,-11.1 480.91,-17.94"/>
</g>
<!-- Node86&#45;&gt;Node2 -->
<g id="edge48" class="edge">
<title>Node86&#45;&gt;Node2</title>
<path fill="none" stroke="midnightblue" d="M267.06,-551.62C274.12,-562.89 286.1,-582.19 296,-599 319.74,-639.33 346.41,-687.3 360.68,-713.18"/>
<polygon fill="midnightblue" stroke="midnightblue" points="357.78,-715.17 365.66,-722.25 363.91,-711.8 357.78,-715.17"/>
</g>
<!-- Node86&#45;&gt;Node67 -->
<g id="edge49" class="edge">
<title>Node86&#45;&gt;Node67</title>
<path fill="none" stroke="midnightblue" d="M292.61,-551.43C329.66,-562.35 393.01,-580.53 448,-594 507.6,-608.6 577.78,-622.85 617.91,-630.73"/>
<polygon fill="midnightblue" stroke="midnightblue" points="617.44,-634.2 627.92,-632.68 618.78,-627.33 617.44,-634.2"/>
</g>
<!-- Node86&#45;&gt;Node85 -->
<g id="edge50" class="edge">
<title>Node86&#45;&gt;Node85</title>
<path fill="none" stroke="midnightblue" d="M266.24,-532.48C277.21,-512.92 303.9,-467.2 332,-433 338.13,-425.55 345.57,-418 352.3,-411.61"/>
<polygon fill="midnightblue" stroke="midnightblue" points="354.78,-414.08 359.76,-404.73 350.03,-408.94 354.78,-414.08"/>
</g>
<!-- Node86&#45;&gt;Node79 -->
<g id="edge51" class="edge">
<title>Node86&#45;&gt;Node79</title>
<path fill="none" stroke="midnightblue" d="M275.93,-532.34C282.24,-528.11 289.6,-522.98 296,-518 316.33,-502.18 338.31,-482.51 353.18,-468.77"/>
<polygon fill="midnightblue" stroke="midnightblue" points="355.72,-471.19 360.66,-461.81 350.96,-466.06 355.72,-471.19"/>
</g>
<!-- Node79&#45;&gt;Node15 -->
<g id="edge52" class="edge">
<title>Node79&#45;&gt;Node15</title>
<path fill="none" stroke="midnightblue" d="M402.61,-451.39C446.44,-449.1 529.39,-439.28 585,-399 614.67,-377.51 634.01,-338.06 643.52,-314.41"/>
<polygon fill="midnightblue" stroke="midnightblue" points="646.9,-315.37 647.21,-304.78 640.37,-312.87 646.9,-315.37"/>
</g>
<!-- Node79&#45;&gt;Node18 -->
<g id="edge53" class="edge">
<title>Node79&#45;&gt;Node18</title>
<path fill="none" stroke="midnightblue" d="M386.66,-442.41C411.28,-425.13 463.31,-388.63 493.17,-367.67"/>
<polygon fill="midnightblue" stroke="midnightblue" points="495.49,-370.32 501.67,-361.71 491.47,-364.59 495.49,-370.32"/>
</g>
<!-- Node97&#45;&gt;Node2 -->
<g id="edge56" class="edge">
<title>Node97&#45;&gt;Node2</title>
<path fill="none" stroke="midnightblue" d="M288.76,-760.41C302.31,-755.73 318.81,-750.03 333.46,-744.97"/>
<polygon fill="midnightblue" stroke="midnightblue" points="334.94,-748.16 343.25,-741.59 332.66,-741.54 334.94,-748.16"/>
</g>
<!-- Node97&#45;&gt;Node67 -->
<g id="edge57" class="edge">
<title>Node97&#45;&gt;Node67</title>
<path fill="none" stroke="midnightblue" d="M294.85,-770.82C356.85,-770.82 490.88,-763.74 585,-708 607.4,-694.73 626.72,-671.45 638.46,-655.17"/>
<polygon fill="midnightblue" stroke="midnightblue" points="641.34,-657.17 644.17,-646.96 635.59,-653.17 641.34,-657.17"/>
</g>
<!-- Node75&#45;&gt;Node15 -->
<g id="edge59" class="edge">
<title>Node75&#45;&gt;Node15</title>
<path fill="none" stroke="midnightblue" d="M395.82,-347.66C410.6,-343.07 430.32,-337.24 448,-333 504,-319.57 569.65,-308 610.66,-301.27"/>
<polygon fill="midnightblue" stroke="midnightblue" points="611.48,-304.68 620.79,-299.62 610.36,-297.77 611.48,-304.68"/>
</g>
<!-- Node75&#45;&gt;Node18 -->
<g id="edge60" class="edge">
<title>Node75&#45;&gt;Node18</title>
<path fill="none" stroke="midnightblue" d="M395.58,-354.52C415.86,-354.1 446.21,-353.46 471.31,-352.93"/>
<polygon fill="midnightblue" stroke="midnightblue" points="471.42,-356.43 481.34,-352.72 471.27,-349.43 471.42,-356.43"/>
</g>
<!-- Node106&#45;&gt;Node2 -->
<g id="edge64" class="edge">
<title>Node106&#45;&gt;Node2</title>
<path fill="none" stroke="midnightblue" d="M264.73,-437.66C271.3,-454.77 285.25,-491.57 296,-523 313.19,-573.28 313.9,-587.05 332,-637 341.69,-663.73 354.44,-694.02 362.68,-713.07"/>
<polygon fill="midnightblue" stroke="midnightblue" points="359.54,-714.63 366.74,-722.39 365.96,-711.83 359.54,-714.63"/>
</g>
<!-- Node106&#45;&gt;Node67 -->
<g id="edge65" class="edge">
<title>Node106&#45;&gt;Node67</title>
<path fill="none" stroke="midnightblue" d="M267.16,-437.57C278.31,-454.24 303.36,-488.87 332,-510 377.32,-543.44 394.64,-543 448,-561 507.35,-581.02 527.53,-569.11 585,-594 601.27,-601.05 617.96,-612.07 630.41,-621.19"/>
<polygon fill="midnightblue" stroke="midnightblue" points="628.58,-624.19 638.67,-627.41 632.79,-618.59 628.58,-624.19"/>
</g>
<!-- Node106&#45;&gt;Node70 -->
<g id="edge63" class="edge">
<title>Node106&#45;&gt;Node70</title>
<path fill="none" stroke="midnightblue" d="M266.16,-437.74C277.64,-459.27 306.26,-512.47 332,-556 340.87,-571 351.42,-587.71 359.31,-600"/>
<polygon fill="midnightblue" stroke="midnightblue" points="356.39,-601.93 364.75,-608.44 362.27,-598.14 356.39,-601.93"/>
</g>
<!-- Node106&#45;&gt;Node85 -->
<g id="edge66" class="edge">
<title>Node106&#45;&gt;Node85</title>
<path fill="none" stroke="midnightblue" d="M292.82,-418.46C306.7,-414.29 323.01,-409.4 337.12,-405.16"/>
<polygon fill="midnightblue" stroke="midnightblue" points="338.37,-408.44 346.95,-402.22 336.36,-401.74 338.37,-408.44"/>
</g>
<!-- Node106&#45;&gt;Node95 -->
<g id="edge67" class="edge">
<title>Node106&#45;&gt;Node95</title>
<path fill="none" stroke="midnightblue" d="M268.36,-418.49C276.4,-407.61 289.05,-388.98 296,-371 327,-290.84 279.83,-249.3 332,-181 332.91,-179.8 333.92,-178.68 335.01,-177.62"/>
<polygon fill="midnightblue" stroke="midnightblue" points="337.16,-180.38 343.03,-171.57 332.94,-174.79 337.16,-180.38"/>
</g>
<!-- Node106&#45;&gt;Node96 -->
<g id="edge68" class="edge">
<title>Node106&#45;&gt;Node96</title>
<path fill="none" stroke="midnightblue" d="M268.22,-418.22C286.4,-393.59 334.31,-328.7 357.73,-296.97"/>
<polygon fill="midnightblue" stroke="midnightblue" points="360.78,-298.74 363.9,-288.62 355.14,-294.58 360.78,-298.74"/>
</g>
<!-- Node106&#45;&gt;Node75 -->
<g id="edge69" class="edge">
<title>Node106&#45;&gt;Node75</title>
<path fill="none" stroke="midnightblue" d="M275.44,-418.38C281.81,-414.07 289.34,-408.87 296,-404 312.37,-392.04 315.02,-387.07 332,-376 335.38,-373.8 339.02,-371.61 342.66,-369.53"/>
<polygon fill="midnightblue" stroke="midnightblue" points="344.51,-372.51 351.59,-364.63 341.14,-366.38 344.51,-372.51"/>
</g>
</g>
</svg>
