<?xml version="1.0" encoding="UTF-8" standalone="no"?>
<!DOCTYPE svg PUBLIC "-//W3C//DTD SVG 1.1//EN"
 "http://www.w3.org/Graphics/SVG/1.1/DTD/svg11.dtd">
<!-- Generated by graphviz version 2.43.0 (0)
 -->
<!-- Title: bf_sin_internal Pages: 1 -->
<!--zoomable 968 -->
<svg id="main" version="1.1" xmlns="http://www.w3.org/2000/svg" xmlns:xlink="http://www.w3.org/1999/xlink" xml:space="preserve" onload="init(evt)">
<style type="text/css"><![CDATA[
.edge:hover path { stroke: red; }
.edge:hover polygon { stroke: red; fill: red; }
]]></style>
<script type="text/javascript"><![CDATA[
var edges = document.getElementsByTagName('g');
if (edges && edges.length) {
  for (var i=0;i<edges.length;i++) {
    if (edges[i].id.substr(0,4)=='edge') {
      edges[i].setAttribute('class','edge');
    }
  }
}
]]></script>
        <defs>
                <circle id="rim" cx="0" cy="0" r="7"/>
                <circle id="rim2" cx="0" cy="0" r="3.5"/>
                <g id="zoomPlus">
                        <use xlink:href="#rim" fill="#404040">
                                <set attributeName="fill" to="#808080" begin="zoomplus.mouseover" end="zoomplus.mouseout"/>
                        </use>
                        <path d="M-4,0h8M0,-4v8" fill="none" stroke="white" stroke-width="1.5" pointer-events="none"/>
                </g>
                <g id="zoomMin">
                        <use xlink:href="#rim" fill="#404040">
                                <set attributeName="fill" to="#808080" begin="zoomminus.mouseover" end="zoomminus.mouseout"/>
                        </use>
                        <path d="M-4,0h8" fill="none" stroke="white" stroke-width="1.5" pointer-events="none"/>
                </g>
                <g id="dirArrow">
                        <path fill="none" stroke="white" stroke-width="1.5" d="M0,-3.0v7 M-2.5,-0.5L0,-3.0L2.5,-0.5"/>
                </g>
               <g id="resetDef">
                       <use xlink:href="#rim2" fill="#404040">
                               <set attributeName="fill" to="#808080" begin="reset.mouseover" end="reset.mouseout"/>
                       </use>
               </g>
        </defs>

<script type="text/javascript">
var viewWidth = 833;
var viewHeight = 968;
var sectionId = 'dynsection-230';
</script>
<script xlink:href="svgpan.js"/>
<svg id="graph" class="graph">
<g id="viewport">
<title>bf_sin_internal</title>
<!-- Node1 -->
<g id="node1" class="node">
<title>Node1</title>
<g id="a_node1"><a xlink:title=" ">
<polygon fill="#bfbfbf" stroke="black" points="0,-399.5 0,-418.5 89,-418.5 89,-399.5 0,-399.5"/>
<text text-anchor="middle" x="44.5" y="-406.5" font-family="Helvetica,sans-Serif" font-size="10.00">bf_sin_internal</text>
</a>
</g>
</g>
<!-- Node2 -->
<g id="node2" class="node">
<title>Node2</title>
<g id="a_node2"><a xlink:href="libbf_8c.html#a2b19e3958f6cf3fa0cc534681a5ff259" target="_top" xlink:title=" ">
<polygon fill="none" stroke="black" points="125,-399.5 125,-418.5 187,-418.5 187,-399.5 125,-399.5"/>
<text text-anchor="middle" x="156" y="-406.5" font-family="Helvetica,sans-Serif" font-size="10.00">bf_sincos</text>
</a>
</g>
</g>
<!-- Node1&#45;&gt;Node2 -->
<g id="edge1" class="edge">
<title>Node1&#45;&gt;Node2</title>
<path fill="none" stroke="midnightblue" d="M89.09,-409C97.48,-409 106.23,-409 114.51,-409"/>
<polygon fill="midnightblue" stroke="midnightblue" points="114.69,-412.5 124.69,-409 114.69,-405.5 114.69,-412.5"/>
</g>
<!-- Node3 -->
<g id="node3" class="node">
<title>Node3</title>
<g id="a_node3"><a xlink:href="libbf_8h.html#a17dc09166f82ffa408f54a2edc4d7855" target="_top" xlink:title=" ">
<polygon fill="none" stroke="black" points="589,-798.5 589,-817.5 639,-817.5 639,-798.5 589,-798.5"/>
<text text-anchor="middle" x="614" y="-805.5" font-family="Helvetica,sans-Serif" font-size="10.00">bf_add</text>
</a>
</g>
</g>
<!-- Node2&#45;&gt;Node3 -->
<g id="edge2" class="edge">
<title>Node2&#45;&gt;Node3</title>
<path fill="none" stroke="midnightblue" d="M157.61,-418.74C161.01,-469.8 178.94,-706.23 223,-762 308.15,-869.77 500.8,-836.41 579.03,-817.3"/>
<polygon fill="midnightblue" stroke="midnightblue" points="580.01,-820.66 588.85,-814.83 578.3,-813.88 580.01,-820.66"/>
</g>
<!-- Node28 -->
<g id="node6" class="node">
<title>Node28</title>
<g id="a_node6"><a xlink:href="libbf_8h.html#abacc1410890af049e02ebd788364ac48" target="_top" xlink:title=" ">
<polygon fill="none" stroke="black" points="778,-722.5 778,-741.5 825,-741.5 825,-722.5 778,-722.5"/>
<text text-anchor="middle" x="801.5" y="-729.5" font-family="Helvetica,sans-Serif" font-size="10.00">bf_init</text>
</a>
</g>
</g>
<!-- Node2&#45;&gt;Node28 -->
<g id="edge18" class="edge">
<title>Node2&#45;&gt;Node28</title>
<path fill="none" stroke="midnightblue" d="M157.47,-418.83C160.38,-476.22 177.23,-768.03 223,-843 269.28,-918.8 296.19,-960 385,-960 385,-960 385,-960 615,-960 722.18,-960 778.35,-806.53 795.07,-751.42"/>
<polygon fill="midnightblue" stroke="midnightblue" points="798.52,-752.09 797.97,-741.51 791.8,-750.12 798.52,-752.09"/>
</g>
<!-- Node32 -->
<g id="node7" class="node">
<title>Node32</title>
<g id="a_node7"><a xlink:href="libbf_8h.html#a50a5aa2767f2389a32daf115aaef07af" target="_top" xlink:title=" ">
<polygon fill="none" stroke="black" points="480.5,-722.5 480.5,-741.5 543.5,-741.5 543.5,-722.5 480.5,-722.5"/>
<text text-anchor="middle" x="512" y="-729.5" font-family="Helvetica,sans-Serif" font-size="10.00">bf_add_si</text>
</a>
</g>
</g>
<!-- Node2&#45;&gt;Node32 -->
<g id="edge6" class="edge">
<title>Node2&#45;&gt;Node32</title>
<path fill="none" stroke="midnightblue" d="M156.67,-418.64C155.77,-458.55 156.87,-613.31 223,-713 279.72,-798.51 344.32,-823.38 441,-789 463.22,-781.1 483.5,-762.79 496.45,-749.04"/>
<polygon fill="midnightblue" stroke="midnightblue" points="499.08,-751.36 503.18,-741.59 493.88,-746.66 499.08,-751.36"/>
</g>
<!-- Node33 -->
<g id="node8" class="node">
<title>Node33</title>
<g id="a_node8"><a xlink:href="libbf_8h.html#a2b9d906b21e903f2f7f1c9044674ab7d" target="_top" xlink:title=" ">
<polygon fill="none" stroke="red" points="583,-608.5 583,-627.5 645,-627.5 645,-608.5 583,-608.5"/>
<text text-anchor="middle" x="614" y="-615.5" font-family="Helvetica,sans-Serif" font-size="10.00">bf_delete</text>
</a>
</g>
</g>
<!-- Node2&#45;&gt;Node33 -->
<g id="edge15" class="edge">
<title>Node2&#45;&gt;Node33</title>
<path fill="none" stroke="midnightblue" d="M160.51,-418.71C168.61,-439.96 190.42,-491.22 223,-523 262.15,-561.19 279.16,-564.55 331,-582 413.83,-609.89 517.01,-616.42 572.74,-617.8"/>
<polygon fill="midnightblue" stroke="midnightblue" points="572.84,-621.3 582.91,-618 572.99,-614.3 572.84,-621.3"/>
</g>
<!-- Node35 -->
<g id="node10" class="node">
<title>Node35</title>
<g id="a_node10"><a xlink:href="libbf_8h.html#a2378f025beace5741c19bf995c2971d3" target="_top" xlink:title=" ">
<polygon fill="none" stroke="red" points="681,-427.5 681,-446.5 742,-446.5 742,-427.5 681,-427.5"/>
<text text-anchor="middle" x="711.5" y="-434.5" font-family="Helvetica,sans-Serif" font-size="10.00">bf_set_ui</text>
</a>
</g>
</g>
<!-- Node2&#45;&gt;Node35 -->
<g id="edge44" class="edge">
<title>Node2&#45;&gt;Node35</title>
<path fill="none" stroke="midnightblue" d="M158.21,-399.38C163.65,-357.85 187.03,-194.54 223,-160 276.2,-108.91 311.24,-124 385,-124 385,-124 385,-124 513,-124 652.38,-124 697.36,-348.74 707.84,-417.35"/>
<polygon fill="midnightblue" stroke="midnightblue" points="704.38,-417.89 709.28,-427.29 711.31,-416.89 704.38,-417.89"/>
</g>
<!-- Node36 -->
<g id="node12" class="node">
<title>Node36</title>
<g id="a_node12"><a xlink:href="libbf_8h.html#aff86bca731f3c8ffe45f0f1129175961" target="_top" xlink:title=" ">
<polygon fill="none" stroke="black" points="223,-19.5 223,-38.5 295,-38.5 295,-19.5 223,-19.5"/>
<text text-anchor="middle" x="259" y="-26.5" font-family="Helvetica,sans-Serif" font-size="10.00">bf_const_pi</text>
</a>
</g>
</g>
<!-- Node2&#45;&gt;Node36 -->
<g id="edge13" class="edge">
<title>Node2&#45;&gt;Node36</title>
<path fill="none" stroke="midnightblue" d="M156.98,-399.42C157.25,-357.55 162.23,-187.38 223,-67 226.92,-59.23 232.9,-51.89 238.81,-45.77"/>
<polygon fill="midnightblue" stroke="midnightblue" points="241.34,-48.2 246.1,-38.74 236.48,-43.16 241.34,-48.2"/>
</g>
<!-- Node41 -->
<g id="node14" class="node">
<title>Node41</title>
<g id="a_node14"><a xlink:href="libbf_8h.html#a030665e68e114717678fb0d0453bb3c6" target="_top" xlink:title=" ">
<polygon fill="none" stroke="red" points="590.5,-874.5 590.5,-893.5 637.5,-893.5 637.5,-874.5 590.5,-874.5"/>
<text text-anchor="middle" x="614" y="-881.5" font-family="Helvetica,sans-Serif" font-size="10.00">bf_div</text>
</a>
</g>
</g>
<!-- Node2&#45;&gt;Node41 -->
<g id="edge16" class="edge">
<title>Node2&#45;&gt;Node41</title>
<path fill="none" stroke="midnightblue" d="M157.38,-418.77C159.68,-473.32 173.38,-740.03 223,-802 310.35,-911.1 502.67,-899.08 579.92,-889.16"/>
<polygon fill="midnightblue" stroke="midnightblue" points="580.6,-892.6 590.03,-887.78 579.65,-885.66 580.6,-892.6"/>
</g>
<!-- Node94 -->
<g id="node15" class="node">
<title>Node94</title>
<g id="a_node15"><a xlink:href="libbf_8h.html#adeb14e044b992b09438bbd872831103b" target="_top" xlink:title=" ">
<polygon fill="none" stroke="black" points="232.5,-76.5 232.5,-95.5 285.5,-95.5 285.5,-76.5 232.5,-76.5"/>
<text text-anchor="middle" x="259" y="-83.5" font-family="Helvetica,sans-Serif" font-size="10.00">bf_isqrt</text>
</a>
</g>
</g>
<!-- Node2&#45;&gt;Node94 -->
<g id="edge19" class="edge">
<title>Node2&#45;&gt;Node94</title>
<path fill="none" stroke="midnightblue" d="M156.69,-399.49C155.84,-360.15 157.15,-207.61 223,-110 225.1,-106.89 227.75,-104.06 230.66,-101.53"/>
<polygon fill="midnightblue" stroke="midnightblue" points="232.78,-104.31 238.71,-95.53 228.6,-98.7 232.78,-104.31"/>
</g>
<!-- Node7 -->
<g id="node17" class="node">
<title>Node7</title>
<g id="a_node17"><a xlink:href="libbf_8h.html#a4954f3435332238433d15977d55ae566" target="_top" xlink:title=" ">
<polygon fill="none" stroke="black" points="485.5,-171.5 485.5,-190.5 538.5,-190.5 538.5,-171.5 485.5,-171.5"/>
<text text-anchor="middle" x="512" y="-178.5" font-family="Helvetica,sans-Serif" font-size="10.00">bf_max</text>
</a>
</g>
</g>
<!-- Node2&#45;&gt;Node7 -->
<g id="edge22" class="edge">
<title>Node2&#45;&gt;Node7</title>
<path fill="none" stroke="midnightblue" d="M156.73,-399.12C156.4,-365.14 160.23,-252.16 223,-198 294.16,-136.6 415.73,-156.08 475.59,-170.86"/>
<polygon fill="midnightblue" stroke="midnightblue" points="474.78,-174.26 485.33,-173.36 476.52,-167.48 474.78,-174.26"/>
</g>
<!-- Node85 -->
<g id="node18" class="node">
<title>Node85</title>
<g id="a_node18"><a xlink:href="libbf_8h.html#ac290278d0c37a0e7786873f98aadba47" target="_top" xlink:title=" ">
<polygon fill="none" stroke="red" points="361,-418.5 361,-437.5 411,-437.5 411,-418.5 361,-418.5"/>
<text text-anchor="middle" x="386" y="-425.5" font-family="Helvetica,sans-Serif" font-size="10.00">bf_mul</text>
</a>
</g>
</g>
<!-- Node2&#45;&gt;Node85 -->
<g id="edge23" class="edge">
<title>Node2&#45;&gt;Node85</title>
<path fill="none" stroke="midnightblue" d="M187.28,-411.52C229.67,-415.06 306.48,-421.46 350.85,-425.15"/>
<polygon fill="midnightblue" stroke="midnightblue" points="350.61,-428.65 360.87,-425.99 351.19,-421.67 350.61,-428.65"/>
</g>
<!-- Node95 -->
<g id="node20" class="node">
<title>Node95</title>
<g id="a_node20"><a xlink:href="libbf_8h.html#ae1d5fe9356228cc3a566786637f26680" target="_top" xlink:title=" ">
<polygon fill="none" stroke="black" points="346,-228.5 346,-247.5 426,-247.5 426,-228.5 346,-228.5"/>
<text text-anchor="middle" x="386" y="-235.5" font-family="Helvetica,sans-Serif" font-size="10.00">bf_mul_2exp</text>
</a>
</g>
</g>
<!-- Node2&#45;&gt;Node95 -->
<g id="edge26" class="edge">
<title>Node2&#45;&gt;Node95</title>
<path fill="none" stroke="midnightblue" d="M158.2,-399.14C162.03,-372.21 176.6,-297.12 223,-262 254.84,-237.9 300.52,-233.02 335.25,-233.52"/>
<polygon fill="midnightblue" stroke="midnightblue" points="335.56,-237.04 345.66,-233.84 335.77,-230.04 335.56,-237.04"/>
</g>
<!-- Node86 -->
<g id="node22" class="node">
<title>Node86</title>
<g id="a_node22"><a xlink:href="libbf_8h.html#acee0d550162528b5ca5513d4479549c2" target="_top" xlink:title=" ">
<polygon fill="none" stroke="black" points="226.5,-494.5 226.5,-513.5 291.5,-513.5 291.5,-494.5 226.5,-494.5"/>
<text text-anchor="middle" x="259" y="-501.5" font-family="Helvetica,sans-Serif" font-size="10.00">bf_mul_ui</text>
</a>
</g>
</g>
<!-- Node2&#45;&gt;Node86 -->
<g id="edge30" class="edge">
<title>Node2&#45;&gt;Node86</title>
<path fill="none" stroke="midnightblue" d="M167.43,-418.81C184.68,-435.03 219.34,-467.64 240.43,-487.47"/>
<polygon fill="midnightblue" stroke="midnightblue" points="238.1,-490.08 247.78,-494.39 242.89,-484.99 238.1,-490.08"/>
</g>
<!-- Node96 -->
<g id="node23" class="node">
<title>Node96</title>
<g id="a_node23"><a xlink:href="libbf_8h.html#aa561bc5220ec0489f4d3e59789d43d26" target="_top" xlink:title=" ">
<polygon fill="none" stroke="black" points="361,-190.5 361,-209.5 411,-209.5 411,-190.5 361,-190.5"/>
<text text-anchor="middle" x="386" y="-197.5" font-family="Helvetica,sans-Serif" font-size="10.00">bf_neg</text>
</a>
</g>
</g>
<!-- Node2&#45;&gt;Node96 -->
<g id="edge35" class="edge">
<title>Node2&#45;&gt;Node96</title>
<path fill="none" stroke="midnightblue" d="M157.48,-399.1C159.53,-368.86 170.02,-277.03 223,-232 258.69,-201.67 314.8,-197.02 350.74,-197.62"/>
<polygon fill="midnightblue" stroke="midnightblue" points="350.65,-201.12 360.75,-197.94 350.87,-194.13 350.65,-201.12"/>
</g>
<!-- Node97 -->
<g id="node24" class="node">
<title>Node97</title>
<g id="a_node24"><a xlink:href="libbf_8h.html#a7ded681bd52308690336efcfde537a54" target="_top" xlink:title=" ">
<polygon fill="none" stroke="black" points="224.5,-684.5 224.5,-703.5 293.5,-703.5 293.5,-684.5 224.5,-684.5"/>
<text text-anchor="middle" x="259" y="-691.5" font-family="Helvetica,sans-Serif" font-size="10.00">bf_remquo</text>
</a>
</g>
</g>
<!-- Node2&#45;&gt;Node97 -->
<g id="edge36" class="edge">
<title>Node2&#45;&gt;Node97</title>
<path fill="none" stroke="midnightblue" d="M159.02,-418.61C165.82,-450.07 189.29,-552.45 223,-632 229.47,-647.27 238.77,-663.56 246.16,-675.61"/>
<polygon fill="midnightblue" stroke="midnightblue" points="243.3,-677.65 251.58,-684.26 249.23,-673.93 243.3,-677.65"/>
</g>
<!-- Node24 -->
<g id="node26" class="node">
<title>Node24</title>
<g id="a_node26"><a xlink:href="libbf_8h.html#ae019ee8073f4359da157d3b1e5fdba7e" target="_top" xlink:title=" ">
<polygon fill="none" stroke="red" points="488.5,-342.5 488.5,-361.5 535.5,-361.5 535.5,-342.5 488.5,-342.5"/>
<text text-anchor="middle" x="512" y="-349.5" font-family="Helvetica,sans-Serif" font-size="10.00">bf_set</text>
</a>
</g>
</g>
<!-- Node2&#45;&gt;Node24 -->
<g id="edge43" class="edge">
<title>Node2&#45;&gt;Node24</title>
<path fill="none" stroke="midnightblue" d="M166.88,-399.41C191.83,-375.95 260.4,-316.07 331,-295 377.85,-281.02 396.09,-275.68 441,-295 462.37,-304.19 458.64,-318.72 477,-333 478.78,-334.38 480.67,-335.73 482.61,-337.02"/>
<polygon fill="midnightblue" stroke="midnightblue" points="480.94,-340.1 491.3,-342.32 484.58,-334.12 480.94,-340.1"/>
</g>
<!-- Node106 -->
<g id="node28" class="node">
<title>Node106</title>
<g id="a_node28"><a xlink:href="libbf_8c.html#a15b40c4ae7e9b401fd0c6dc398eacef7" target="_top" xlink:title=" ">
<polygon fill="none" stroke="black" points="224,-380.5 224,-399.5 294,-399.5 294,-380.5 224,-380.5"/>
<text text-anchor="middle" x="259" y="-387.5" font-family="Helvetica,sans-Serif" font-size="10.00">bf_sqrt_sin</text>
</a>
</g>
</g>
<!-- Node2&#45;&gt;Node106 -->
<g id="edge45" class="edge">
<title>Node2&#45;&gt;Node106</title>
<path fill="none" stroke="midnightblue" d="M187.03,-403.35C195.4,-401.78 204.66,-400.03 213.66,-398.34"/>
<polygon fill="midnightblue" stroke="midnightblue" points="214.47,-401.75 223.65,-396.46 213.18,-394.87 214.47,-401.75"/>
</g>
<!-- Node4 -->
<g id="node4" class="node">
<title>Node4</title>
<g id="a_node4"><a xlink:href="libbf_8c.html#a951a1d3ebb338129d86e00f51b47f2ee" target="_top" xlink:title=" ">
<polygon fill="none" stroke="red" points="681.5,-798.5 681.5,-817.5 741.5,-817.5 741.5,-798.5 681.5,-798.5"/>
<text text-anchor="middle" x="711.5" y="-805.5" font-family="Helvetica,sans-Serif" font-size="10.00">__bf_add</text>
</a>
</g>
</g>
<!-- Node3&#45;&gt;Node4 -->
<g id="edge3" class="edge">
<title>Node3&#45;&gt;Node4</title>
<path fill="none" stroke="midnightblue" d="M639.1,-808C648.81,-808 660.28,-808 671.14,-808"/>
<polygon fill="midnightblue" stroke="midnightblue" points="671.3,-811.5 681.3,-808 671.3,-804.5 671.3,-811.5"/>
</g>
<!-- Node27 -->
<g id="node5" class="node">
<title>Node27</title>
<g id="a_node5"><a xlink:href="libbf_8c.html#a3ebbc1c7473b2ad84ced2b263bf38bae" target="_top" xlink:title=" ">
<polygon fill="none" stroke="red" points="686.5,-836.5 686.5,-855.5 736.5,-855.5 736.5,-836.5 686.5,-836.5"/>
<text text-anchor="middle" x="711.5" y="-843.5" font-family="Helvetica,sans-Serif" font-size="10.00">bf_op2</text>
</a>
</g>
</g>
<!-- Node3&#45;&gt;Node27 -->
<g id="edge4" class="edge">
<title>Node3&#45;&gt;Node27</title>
<path fill="none" stroke="midnightblue" d="M639.1,-817.59C650.52,-822.13 664.36,-827.64 676.8,-832.59"/>
<polygon fill="midnightblue" stroke="midnightblue" points="675.82,-835.97 686.41,-836.41 678.41,-829.46 675.82,-835.97"/>
</g>
<!-- Node27&#45;&gt;Node28 -->
<g id="edge5" class="edge">
<title>Node27&#45;&gt;Node28</title>
<path fill="none" stroke="midnightblue" d="M730.32,-836.34C734.43,-833.64 738.59,-830.48 742,-827 764.38,-804.16 782.23,-771.26 792.08,-750.79"/>
<polygon fill="midnightblue" stroke="midnightblue" points="795.32,-752.12 796.37,-741.58 788.97,-749.16 795.32,-752.12"/>
</g>
<!-- Node32&#45;&gt;Node3 -->
<g id="edge7" class="edge">
<title>Node32&#45;&gt;Node3</title>
<path fill="none" stroke="midnightblue" d="M525.67,-741.63C542.42,-754.36 572.17,-776.97 592.24,-792.22"/>
<polygon fill="midnightblue" stroke="midnightblue" points="590.36,-795.19 600.44,-798.45 594.59,-789.62 590.36,-795.19"/>
</g>
<!-- Node32&#45;&gt;Node28 -->
<g id="edge9" class="edge">
<title>Node32&#45;&gt;Node28</title>
<path fill="none" stroke="midnightblue" d="M543.77,-732C598.34,-732 711.59,-732 767.63,-732"/>
<polygon fill="midnightblue" stroke="midnightblue" points="767.72,-735.5 777.72,-732 767.72,-728.5 767.72,-735.5"/>
</g>
<!-- Node32&#45;&gt;Node33 -->
<g id="edge8" class="edge">
<title>Node32&#45;&gt;Node33</title>
<path fill="none" stroke="midnightblue" d="M529.13,-722.31C535.11,-718.3 541.71,-713.34 547,-708 566.79,-688.03 566.28,-678.6 583,-656 588.02,-649.22 593.71,-641.91 598.78,-635.54"/>
<polygon fill="midnightblue" stroke="midnightblue" points="601.66,-637.54 605.19,-627.55 596.2,-633.16 601.66,-637.54"/>
</g>
<!-- Node34 -->
<g id="node9" class="node">
<title>Node34</title>
<g id="a_node9"><a xlink:href="libbf_8h.html#a60ee3eaad83309aaf8a8b8fb81d8b44d" target="_top" xlink:title=" ">
<polygon fill="none" stroke="black" points="584,-665.5 584,-684.5 644,-684.5 644,-665.5 584,-665.5"/>
<text text-anchor="middle" x="614" y="-672.5" font-family="Helvetica,sans-Serif" font-size="10.00">bf_set_si</text>
</a>
</g>
</g>
<!-- Node32&#45;&gt;Node34 -->
<g id="edge10" class="edge">
<title>Node32&#45;&gt;Node34</title>
<path fill="none" stroke="midnightblue" d="M529.96,-722.33C545.72,-713.35 569.39,-699.86 587.44,-689.57"/>
<polygon fill="midnightblue" stroke="midnightblue" points="589.33,-692.52 596.29,-684.53 585.87,-686.44 589.33,-692.52"/>
</g>
<!-- Node34&#45;&gt;Node35 -->
<g id="edge11" class="edge">
<title>Node34&#45;&gt;Node35</title>
<path fill="none" stroke="midnightblue" d="M624.19,-665.36C630.74,-658.06 639.36,-647.52 645,-637 678.18,-575.14 698.45,-493.49 706.5,-456.59"/>
<polygon fill="midnightblue" stroke="midnightblue" points="709.96,-457.15 708.61,-446.64 703.11,-455.7 709.96,-457.15"/>
</g>
<!-- Node22 -->
<g id="node11" class="node">
<title>Node22</title>
<g id="a_node11"><a xlink:href="libbf_8c.html#a3ac3b86cc31b99a551947240e979c5d7" target="_top" xlink:title=" ">
<polygon fill="none" stroke="red" points="786.5,-237.5 786.5,-256.5 816.5,-256.5 816.5,-237.5 786.5,-237.5"/>
<text text-anchor="middle" x="801.5" y="-244.5" font-family="Helvetica,sans-Serif" font-size="10.00">clz</text>
</a>
</g>
</g>
<!-- Node35&#45;&gt;Node22 -->
<g id="edge12" class="edge">
<title>Node35&#45;&gt;Node22</title>
<path fill="none" stroke="midnightblue" d="M716.98,-427.32C730.84,-397.4 773.14,-306.08 791.66,-266.09"/>
<polygon fill="midnightblue" stroke="midnightblue" points="794.89,-267.44 795.92,-256.89 788.54,-264.49 794.89,-267.44"/>
</g>
<!-- Node37 -->
<g id="node13" class="node">
<title>Node37</title>
<g id="a_node13"><a xlink:href="libbf_8c.html#a25b9653cbfca557499e786f8d2a7eb2e" target="_top" xlink:title=" ">
<polygon fill="none" stroke="red" points="331,-0.5 331,-19.5 441,-19.5 441,-0.5 331,-0.5"/>
<text text-anchor="middle" x="386" y="-7.5" font-family="Helvetica,sans-Serif" font-size="10.00">bf_const_pi_signed</text>
</a>
</g>
</g>
<!-- Node36&#45;&gt;Node37 -->
<g id="edge14" class="edge">
<title>Node36&#45;&gt;Node37</title>
<path fill="none" stroke="midnightblue" d="M295.15,-23.66C303.23,-22.43 312.07,-21.09 320.95,-19.74"/>
<polygon fill="midnightblue" stroke="midnightblue" points="321.6,-23.18 330.96,-18.21 320.55,-16.26 321.6,-23.18"/>
</g>
<!-- Node41&#45;&gt;Node27 -->
<g id="edge17" class="edge">
<title>Node41&#45;&gt;Node27</title>
<path fill="none" stroke="midnightblue" d="M637.63,-874.99C649.32,-870.34 663.82,-864.57 676.8,-859.41"/>
<polygon fill="midnightblue" stroke="midnightblue" points="678.36,-862.55 686.36,-855.61 675.78,-856.05 678.36,-862.55"/>
</g>
<!-- Node94&#45;&gt;Node22 -->
<g id="edge20" class="edge">
<title>Node94&#45;&gt;Node22</title>
<path fill="none" stroke="midnightblue" d="M285.74,-78.07C299.13,-74.21 315.82,-69.81 331,-67 410.1,-52.34 430.56,-48 511,-48 511,-48 511,-48 615,-48 712.68,-48 773.61,-177.89 793.41,-227.79"/>
<polygon fill="midnightblue" stroke="midnightblue" points="790.25,-229.32 797.1,-237.4 796.78,-226.81 790.25,-229.32"/>
</g>
<!-- Node92 -->
<g id="node16" class="node">
<title>Node92</title>
<g id="a_node16"><a xlink:href="libbf_8c.html#a330a55c024556edc2d372f8b49c18499" target="_top" xlink:title=" ">
<polygon fill="none" stroke="black" points="345,-76.5 345,-95.5 427,-95.5 427,-76.5 345,-76.5"/>
<text text-anchor="middle" x="386" y="-83.5" font-family="Helvetica,sans-Serif" font-size="10.00">mp_sqrtrem1</text>
</a>
</g>
</g>
<!-- Node94&#45;&gt;Node92 -->
<g id="edge21" class="edge">
<title>Node94&#45;&gt;Node92</title>
<path fill="none" stroke="midnightblue" d="M285.6,-86C299.67,-86 317.64,-86 334.42,-86"/>
<polygon fill="midnightblue" stroke="midnightblue" points="334.67,-89.5 344.67,-86 334.67,-82.5 334.67,-89.5"/>
</g>
<!-- Node85&#45;&gt;Node28 -->
<g id="edge24" class="edge">
<title>Node85&#45;&gt;Node28</title>
<path fill="none" stroke="midnightblue" d="M411.18,-427.3C474.78,-426.85 648.32,-434.69 742,-528 793.19,-578.99 800.28,-671.57 800.8,-712.1"/>
<polygon fill="midnightblue" stroke="midnightblue" points="797.3,-712.28 800.8,-722.28 804.3,-712.28 797.3,-712.28"/>
</g>
<!-- Node9 -->
<g id="node19" class="node">
<title>Node9</title>
<g id="a_node19"><a xlink:href="libbf_8h.html#a970a1725f8bc59eda655058c5ff6bc52" target="_top" xlink:title=" ">
<polygon fill="none" stroke="black" points="487,-304.5 487,-323.5 537,-323.5 537,-304.5 487,-304.5"/>
<text text-anchor="middle" x="512" y="-311.5" font-family="Helvetica,sans-Serif" font-size="10.00">bf_min</text>
</a>
</g>
</g>
<!-- Node85&#45;&gt;Node9 -->
<g id="edge25" class="edge">
<title>Node85&#45;&gt;Node9</title>
<path fill="none" stroke="midnightblue" d="M394.38,-418.46C408.81,-400.24 442.39,-359.92 477,-333 478.78,-331.62 480.67,-330.27 482.61,-328.98"/>
<polygon fill="midnightblue" stroke="midnightblue" points="484.58,-331.88 491.3,-323.68 480.94,-325.9 484.58,-331.88"/>
</g>
<!-- Node95&#45;&gt;Node7 -->
<g id="edge28" class="edge">
<title>Node95&#45;&gt;Node7</title>
<path fill="none" stroke="midnightblue" d="M416.76,-228.48C424.73,-225.67 433.28,-222.43 441,-219 456.36,-212.18 472.91,-203.28 486.05,-195.8"/>
<polygon fill="midnightblue" stroke="midnightblue" points="488.05,-198.69 494.96,-190.66 484.55,-192.62 488.05,-198.69"/>
</g>
<!-- Node95&#45;&gt;Node9 -->
<g id="edge29" class="edge">
<title>Node95&#45;&gt;Node9</title>
<path fill="none" stroke="midnightblue" d="M411.49,-247.53C420.94,-251.55 431.7,-256.57 441,-262 459.02,-272.52 477.92,-286.78 491.54,-297.71"/>
<polygon fill="midnightblue" stroke="midnightblue" points="489.7,-300.73 499.66,-304.34 494.12,-295.3 489.7,-300.73"/>
</g>
<!-- Node11 -->
<g id="node21" class="node">
<title>Node11</title>
<g id="a_node21"><a xlink:href="libbf_8c.html#a5a13527071b5331585beae41a51ed3c2" target="_top" xlink:title=" ">
<polygon fill="none" stroke="red" points="477,-228.5 477,-247.5 547,-247.5 547,-228.5 477,-228.5"/>
<text text-anchor="middle" x="512" y="-235.5" font-family="Helvetica,sans-Serif" font-size="10.00">__bf_round</text>
</a>
</g>
</g>
<!-- Node95&#45;&gt;Node11 -->
<g id="edge27" class="edge">
<title>Node95&#45;&gt;Node11</title>
<path fill="none" stroke="midnightblue" d="M426.23,-238C439,-238 453.26,-238 466.39,-238"/>
<polygon fill="midnightblue" stroke="midnightblue" points="466.62,-241.5 476.62,-238 466.62,-234.5 466.62,-241.5"/>
</g>
<!-- Node86&#45;&gt;Node28 -->
<g id="edge32" class="edge">
<title>Node86&#45;&gt;Node28</title>
<path fill="none" stroke="midnightblue" d="M291.86,-511.97C339.3,-523.11 431.45,-542 511,-542 511,-542 511,-542 615,-542 709.92,-542 772.15,-664.9 792.87,-713.01"/>
<polygon fill="midnightblue" stroke="midnightblue" points="789.67,-714.44 796.76,-722.32 796.13,-711.74 789.67,-714.44"/>
</g>
<!-- Node86&#45;&gt;Node33 -->
<g id="edge31" class="edge">
<title>Node86&#45;&gt;Node33</title>
<path fill="none" stroke="midnightblue" d="M270.18,-513.63C283.23,-525.43 307.05,-545.18 331,-556 336.55,-558.51 496.48,-593 572.98,-609.42"/>
<polygon fill="midnightblue" stroke="midnightblue" points="572.24,-612.85 582.75,-611.52 573.71,-606 572.24,-612.85"/>
</g>
<!-- Node86&#45;&gt;Node35 -->
<g id="edge34" class="edge">
<title>Node86&#45;&gt;Node35</title>
<path fill="none" stroke="midnightblue" d="M291.68,-499.29C371.84,-487.37 582.6,-456.02 670.8,-442.9"/>
<polygon fill="midnightblue" stroke="midnightblue" points="671.55,-446.33 680.93,-441.4 670.52,-439.41 671.55,-446.33"/>
</g>
<!-- Node86&#45;&gt;Node85 -->
<g id="edge33" class="edge">
<title>Node86&#45;&gt;Node85</title>
<path fill="none" stroke="midnightblue" d="M275.83,-494.37C297.25,-481.35 335.64,-458.01 360.72,-442.76"/>
<polygon fill="midnightblue" stroke="midnightblue" points="362.57,-445.73 369.3,-437.55 358.93,-439.75 362.57,-445.73"/>
</g>
<!-- Node97&#45;&gt;Node28 -->
<g id="edge42" class="edge">
<title>Node97&#45;&gt;Node28</title>
<path fill="none" stroke="midnightblue" d="M265.66,-703.65C278.95,-725.92 312.41,-779.68 331,-789 408.13,-827.64 674.95,-764.45 768.1,-740.56"/>
<polygon fill="midnightblue" stroke="midnightblue" points="769.02,-743.94 777.83,-738.05 767.27,-737.16 769.02,-743.94"/>
</g>
<!-- Node97&#45;&gt;Node33 -->
<g id="edge37" class="edge">
<title>Node97&#45;&gt;Node33</title>
<path fill="none" stroke="midnightblue" d="M293.7,-692.63C330.31,-690.65 390.35,-685.92 441,-675 490.54,-664.32 545.84,-644.51 580.04,-631.29"/>
<polygon fill="midnightblue" stroke="midnightblue" points="581.48,-634.48 589.52,-627.58 578.93,-627.96 581.48,-634.48"/>
</g>
<!-- Node98 -->
<g id="node25" class="node">
<title>Node98</title>
<g id="a_node25"><a xlink:href="libbf_8h.html#a951ec20cd7fa3bf021d165b213e15ce4" target="_top" xlink:title=" ">
<polygon fill="none" stroke="red" points="353,-646.5 353,-665.5 419,-665.5 419,-646.5 353,-646.5"/>
<text text-anchor="middle" x="386" y="-653.5" font-family="Helvetica,sans-Serif" font-size="10.00">bf_divrem</text>
</a>
</g>
</g>
<!-- Node97&#45;&gt;Node98 -->
<g id="edge38" class="edge">
<title>Node97&#45;&gt;Node98</title>
<path fill="none" stroke="midnightblue" d="M291.54,-684.41C307.38,-679.6 326.77,-673.7 343.78,-668.53"/>
<polygon fill="midnightblue" stroke="midnightblue" points="344.92,-671.84 353.47,-665.59 342.88,-665.15 344.92,-671.84"/>
</g>
<!-- Node104 -->
<g id="node27" class="node">
<title>Node104</title>
<g id="a_node27"><a xlink:href="libbf_8c.html#a84f2988a2124a8168b5933335c4215c2" target="_top" xlink:title=" ">
<polygon fill="none" stroke="red" points="349,-760.5 349,-779.5 423,-779.5 423,-760.5 349,-760.5"/>
<text text-anchor="middle" x="386" y="-767.5" font-family="Helvetica,sans-Serif" font-size="10.00">bf_get_limb</text>
</a>
</g>
</g>
<!-- Node97&#45;&gt;Node104 -->
<g id="edge41" class="edge">
<title>Node97&#45;&gt;Node104</title>
<path fill="none" stroke="midnightblue" d="M271.53,-703.65C285.15,-714.76 308.79,-733.13 331,-746 337.41,-749.71 344.5,-753.24 351.37,-756.39"/>
<polygon fill="midnightblue" stroke="midnightblue" points="349.97,-759.6 360.53,-760.44 352.8,-753.2 349.97,-759.6"/>
</g>
<!-- Node98&#45;&gt;Node32 -->
<g id="edge39" class="edge">
<title>Node98&#45;&gt;Node32</title>
<path fill="none" stroke="midnightblue" d="M402.7,-665.63C423.85,-678.59 461.7,-701.79 486.58,-717.04"/>
<polygon fill="midnightblue" stroke="midnightblue" points="485.07,-720.21 495.42,-722.45 488.73,-714.24 485.07,-720.21"/>
</g>
<!-- Node98&#45;&gt;Node24 -->
<g id="edge40" class="edge">
<title>Node98&#45;&gt;Node24</title>
<path fill="none" stroke="midnightblue" d="M390.99,-646.23C408.59,-603.08 479.52,-429.17 503.24,-371.03"/>
<polygon fill="midnightblue" stroke="midnightblue" points="506.56,-372.16 507.09,-361.58 500.07,-369.52 506.56,-372.16"/>
</g>
<!-- Node106&#45;&gt;Node3 -->
<g id="edge46" class="edge">
<title>Node106&#45;&gt;Node3</title>
<path fill="none" stroke="midnightblue" d="M264.12,-399.54C271.28,-416.46 286.14,-452.98 295,-485 317.93,-567.83 279.74,-606.01 331,-675 362.63,-717.57 511.05,-772.89 578.94,-796.5"/>
<polygon fill="midnightblue" stroke="midnightblue" points="578.14,-799.93 588.74,-799.88 580.42,-793.31 578.14,-799.93"/>
</g>
<!-- Node106&#45;&gt;Node28 -->
<g id="edge48" class="edge">
<title>Node106&#45;&gt;Node28</title>
<path fill="none" stroke="midnightblue" d="M294.1,-390C342.38,-390 433.43,-390 511,-390 511,-390 511,-390 615,-390 672.8,-390 701.81,-376.46 742,-418 783.11,-460.48 796.32,-650.04 799.59,-712.19"/>
<polygon fill="midnightblue" stroke="midnightblue" points="796.1,-712.44 800.09,-722.25 803.09,-712.09 796.1,-712.44"/>
</g>
<!-- Node106&#45;&gt;Node33 -->
<g id="edge47" class="edge">
<title>Node106&#45;&gt;Node33</title>
<path fill="none" stroke="midnightblue" d="M271.2,-399.76C284.9,-411.51 308.99,-431.59 331,-447 421.33,-510.24 535.35,-575.11 586.29,-603.36"/>
<polygon fill="midnightblue" stroke="midnightblue" points="584.89,-606.58 595.33,-608.36 588.27,-600.46 584.89,-606.58"/>
</g>
<!-- Node106&#45;&gt;Node85 -->
<g id="edge49" class="edge">
<title>Node106&#45;&gt;Node85</title>
<path fill="none" stroke="midnightblue" d="M291.54,-399.59C309.73,-405.12 332.59,-412.07 351.15,-417.71"/>
<polygon fill="midnightblue" stroke="midnightblue" points="350.38,-421.13 360.96,-420.69 352.41,-414.44 350.38,-421.13"/>
</g>
<!-- Node106&#45;&gt;Node95 -->
<g id="edge50" class="edge">
<title>Node106&#45;&gt;Node95</title>
<path fill="none" stroke="midnightblue" d="M266.7,-380.28C278.89,-362.76 305.79,-324.92 331,-295 342.73,-281.07 356.92,-266.16 367.81,-255.08"/>
<polygon fill="midnightblue" stroke="midnightblue" points="370.52,-257.33 375.08,-247.76 365.55,-252.4 370.52,-257.33"/>
</g>
<!-- Node106&#45;&gt;Node96 -->
<g id="edge51" class="edge">
<title>Node106&#45;&gt;Node96</title>
<path fill="none" stroke="midnightblue" d="M261.24,-380.33C265.45,-351.56 281.73,-265.62 331,-219 336.61,-213.69 343.79,-209.86 351.06,-207.09"/>
<polygon fill="midnightblue" stroke="midnightblue" points="352.45,-210.32 360.91,-203.94 350.32,-203.65 352.45,-210.32"/>
</g>
<!-- Node106&#45;&gt;Node24 -->
<g id="edge52" class="edge">
<title>Node106&#45;&gt;Node24</title>
<path fill="none" stroke="midnightblue" d="M294.23,-382.8C305.87,-380.48 318.98,-377.99 331,-376 382.38,-367.52 442.4,-359.99 478.52,-355.71"/>
<polygon fill="midnightblue" stroke="midnightblue" points="478.96,-359.19 488.48,-354.55 478.14,-352.23 478.96,-359.19"/>
</g>
<!-- Node87 -->
<g id="node29" class="node">
<title>Node87</title>
<g id="a_node29"><a xlink:href="libbf_8h.html#a1a8b9ac1fea38b97fc6be8663ce9e867" target="_top" xlink:title=" ">
<polygon fill="none" stroke="red" points="361,-304.5 361,-323.5 411,-323.5 411,-304.5 361,-304.5"/>
<text text-anchor="middle" x="386" y="-311.5" font-family="Helvetica,sans-Serif" font-size="10.00">bf_sqrt</text>
</a>
</g>
</g>
<!-- Node106&#45;&gt;Node87 -->
<g id="edge53" class="edge">
<title>Node106&#45;&gt;Node87</title>
<path fill="none" stroke="midnightblue" d="M271.53,-380.35C285.15,-369.24 308.79,-350.87 331,-338 337.47,-334.25 344.63,-330.69 351.57,-327.52"/>
<polygon fill="midnightblue" stroke="midnightblue" points="353.06,-330.68 360.8,-323.45 350.24,-324.28 353.06,-330.68"/>
</g>
<!-- Node87&#45;&gt;Node9 -->
<g id="edge54" class="edge">
<title>Node87&#45;&gt;Node9</title>
<path fill="none" stroke="midnightblue" d="M411.2,-314C429.89,-314 456,-314 476.82,-314"/>
<polygon fill="midnightblue" stroke="midnightblue" points="476.86,-317.5 486.86,-314 476.86,-310.5 476.86,-317.5"/>
</g>
<!-- Node87&#45;&gt;Node24 -->
<g id="edge55" class="edge">
<title>Node87&#45;&gt;Node24</title>
<path fill="none" stroke="midnightblue" d="M411.2,-321.42C430.34,-327.28 457.25,-335.53 478.31,-341.98"/>
<polygon fill="midnightblue" stroke="midnightblue" points="477.53,-345.4 488.11,-344.99 479.58,-338.71 477.53,-345.4"/>
</g>
</g>
</svg>
        <g id="navigator" transform="translate(0 0)" fill="#404254">
                <rect fill="#f2f5e9" fill-opacity="0.5" stroke="#606060" stroke-width=".5" x="0" y="0" width="60" height="60"/>
                <use id="zoomplus" xlink:href="#zoomPlus" x="17" y="9" onmousedown="handleZoom(evt,'in')"/>
                <use id="zoomminus" xlink:href="#zoomMin" x="42" y="9" onmousedown="handleZoom(evt,'out')"/>
                <use id="reset" xlink:href="#resetDef" x="30" y="36" onmousedown="handleReset()"/>
                <g id="arrowUp" xlink:href="#dirArrow" transform="translate(30 24)" onmousedown="handlePan(0,-1)">
                  <use xlink:href="#rim" fill="#404040">
                        <set attributeName="fill" to="#808080" begin="arrowUp.mouseover" end="arrowUp.mouseout"/>
                  </use>
                  <path fill="none" stroke="white" stroke-width="1.5" d="M0,-3.0v7 M-2.5,-0.5L0,-3.0L2.5,-0.5"/>
                </g>
                <g id="arrowRight" xlink:href="#dirArrow" transform="rotate(90) translate(36 -43)" onmousedown="handlePan(1,0)">
                  <use xlink:href="#rim" fill="#404040">
                        <set attributeName="fill" to="#808080" begin="arrowRight.mouseover" end="arrowRight.mouseout"/>
                  </use>
                  <path fill="none" stroke="white" stroke-width="1.5" d="M0,-3.0v7 M-2.5,-0.5L0,-3.0L2.5,-0.5"/>
                </g>
                <g id="arrowDown" xlink:href="#dirArrow" transform="rotate(180) translate(-30 -48)" onmousedown="handlePan(0,1)">
                  <use xlink:href="#rim" fill="#404040">
                        <set attributeName="fill" to="#808080" begin="arrowDown.mouseover" end="arrowDown.mouseout"/>
                  </use>
                  <path fill="none" stroke="white" stroke-width="1.5" d="M0,-3.0v7 M-2.5,-0.5L0,-3.0L2.5,-0.5"/>
                </g>
                <g id="arrowLeft" xlink:href="#dirArrow" transform="rotate(270) translate(-36 17)" onmousedown="handlePan(-1,0)">
                  <use xlink:href="#rim" fill="#404040">
                        <set attributeName="fill" to="#808080" begin="arrowLeft.mouseover" end="arrowLeft.mouseout"/>
                  </use>
                  <path fill="none" stroke="white" stroke-width="1.5" d="M0,-3.0v7 M-2.5,-0.5L0,-3.0L2.5,-0.5"/>
                </g>
        </g>
        <svg viewBox="0 0 15 15" width="100%" height="30px" preserveAspectRatio="xMaxYMin meet">
         <g id="arrow_out" transform="scale(0.3 0.3)">
          <a xlink:href="libbf_8c_a988e995c3b0dbcc6a26b8eea2891b2e2_cgraph_org.svg" target="_base">
           <rect id="button" ry="5" rx="5" y="6" x="6" height="38" width="38"
                fill="#f2f5e9" fill-opacity="0.5" stroke="#606060" stroke-width="1.0"/>
           <path id="arrow"
             d="M 11.500037,31.436501 C 11.940474,20.09759 22.043105,11.32322 32.158766,21.979434 L 37.068811,17.246167 C 37.068811,17.246167 37.088388,32 37.088388,32 L 22.160133,31.978069 C 22.160133,31.978069 26.997745,27.140456 26.997745,27.140456 C 18.528582,18.264221 13.291696,25.230495 11.500037,31.436501 z"
             style="fill:#404040;"/>
          </a>
         </g>
        </svg>
</svg>
