<?xml version="1.0" encoding="UTF-8" standalone="no"?>
<!DOCTYPE svg PUBLIC "-//W3C//DTD SVG 1.1//EN"
 "http://www.w3.org/Graphics/SVG/1.1/DTD/svg11.dtd">
<!-- Generated by graphviz version 2.43.0 (0)
 -->
<!-- Title: mp_div1norm Pages: 1 -->
<svg width="218pt" height="66pt"
 viewBox="0.00 0.00 218.00 66.00" xmlns="http://www.w3.org/2000/svg" xmlns:xlink="http://www.w3.org/1999/xlink">
<g id="graph0" class="graph" transform="scale(1 1) rotate(0) translate(4 62)">
<title>mp_div1norm</title>
<!-- Node1 -->
<g id="node1" class="node">
<title>Node1</title>
<g id="a_node1"><a xlink:title=" ">
<polygon fill="#bfbfbf" stroke="black" points="0,-19.5 0,-38.5 84,-38.5 84,-19.5 0,-19.5"/>
<text text-anchor="middle" x="42" y="-26.5" font-family="Helvetica,sans-Serif" font-size="10.00">mp_div1norm</text>
</a>
</g>
</g>
<!-- Node2 -->
<g id="node2" class="node">
<title>Node2</title>
<g id="a_node2"><a xlink:href="libbf_8c.html#a6a9d2c1c8274c181a1fc9df04945ab8a" target="_top" xlink:title=" ">
<polygon fill="none" stroke="black" points="130.5,-38.5 130.5,-57.5 199.5,-57.5 199.5,-38.5 130.5,-38.5"/>
<text text-anchor="middle" x="165" y="-45.5" font-family="Helvetica,sans-Serif" font-size="10.00">udiv1norm</text>
</a>
</g>
</g>
<!-- Node1&#45;&gt;Node2 -->
<g id="edge1" class="edge">
<title>Node1&#45;&gt;Node2</title>
<path fill="none" stroke="midnightblue" d="M84.3,-35.49C95.95,-37.31 108.66,-39.31 120.44,-41.16"/>
<polygon fill="midnightblue" stroke="midnightblue" points="120.08,-44.65 130.5,-42.74 121.16,-37.73 120.08,-44.65"/>
</g>
<!-- Node3 -->
<g id="node3" class="node">
<title>Node3</title>
<g id="a_node3"><a xlink:href="libbf_8c.html#a2ac8ca76c2d20f74b94372386d6fcd57" target="_top" xlink:title=" ">
<polygon fill="none" stroke="black" points="120,-0.5 120,-19.5 210,-19.5 210,-0.5 120,-0.5"/>
<text text-anchor="middle" x="165" y="-7.5" font-family="Helvetica,sans-Serif" font-size="10.00">udiv1norm_init</text>
</a>
</g>
</g>
<!-- Node1&#45;&gt;Node3 -->
<g id="edge2" class="edge">
<title>Node1&#45;&gt;Node3</title>
<path fill="none" stroke="midnightblue" d="M84.3,-22.51C92.57,-21.22 101.37,-19.83 109.99,-18.48"/>
<polygon fill="midnightblue" stroke="midnightblue" points="110.65,-21.92 119.99,-16.91 109.57,-15 110.65,-21.92"/>
</g>
</g>
</svg>
