<?xml version="1.0" encoding="UTF-8" standalone="no"?>
<!DOCTYPE svg PUBLIC "-//W3C//DTD SVG 1.1//EN"
 "http://www.w3.org/Graphics/SVG/1.1/DTD/svg11.dtd">
<!-- Generated by graphviz version 2.43.0 (0)
 -->
<!-- Title: bfdec_cmpu Pages: 1 -->
<!--zoomable 132 -->
<svg id="main" version="1.1" xmlns="http://www.w3.org/2000/svg" xmlns:xlink="http://www.w3.org/1999/xlink" xml:space="preserve" onload="init(evt)">
<style type="text/css"><![CDATA[
.edge:hover path { stroke: red; }
.edge:hover polygon { stroke: red; fill: red; }
]]></style>
<script type="text/javascript"><![CDATA[
var edges = document.getElementsByTagName('g');
if (edges && edges.length) {
  for (var i=0;i<edges.length;i++) {
    if (edges[i].id.substr(0,4)=='edge') {
      edges[i].setAttribute('class','edge');
    }
  }
}
]]></script>
        <defs>
                <circle id="rim" cx="0" cy="0" r="7"/>
                <circle id="rim2" cx="0" cy="0" r="3.5"/>
                <g id="zoomPlus">
                        <use xlink:href="#rim" fill="#404040">
                                <set attributeName="fill" to="#808080" begin="zoomplus.mouseover" end="zoomplus.mouseout"/>
                        </use>
                        <path d="M-4,0h8M0,-4v8" fill="none" stroke="white" stroke-width="1.5" pointer-events="none"/>
                </g>
                <g id="zoomMin">
                        <use xlink:href="#rim" fill="#404040">
                                <set attributeName="fill" to="#808080" begin="zoomminus.mouseover" end="zoomminus.mouseout"/>
                        </use>
                        <path d="M-4,0h8" fill="none" stroke="white" stroke-width="1.5" pointer-events="none"/>
                </g>
                <g id="dirArrow">
                        <path fill="none" stroke="white" stroke-width="1.5" d="M0,-3.0v7 M-2.5,-0.5L0,-3.0L2.5,-0.5"/>
                </g>
               <g id="resetDef">
                       <use xlink:href="#rim2" fill="#404040">
                               <set attributeName="fill" to="#808080" begin="reset.mouseover" end="reset.mouseout"/>
                       </use>
               </g>
        </defs>

<script type="text/javascript">
var viewWidth = 694;
var viewHeight = 132;
var sectionId = 'dynsection-144';
</script>
<script xlink:href="svgpan.js"/>
<svg id="graph" class="graph">
<g id="viewport">
<title>bfdec_cmpu</title>
<!-- Node1 -->
<g id="node1" class="node">
<title>Node1</title>
<g id="a_node1"><a xlink:title=" ">
<polygon fill="#bfbfbf" stroke="black" points="610,-28.5 610,-47.5 686,-47.5 686,-28.5 610,-28.5"/>
<text text-anchor="middle" x="648" y="-35.5" font-family="Helvetica,sans-Serif" font-size="10.00">bfdec_cmpu</text>
</a>
</g>
</g>
<!-- Node2 -->
<g id="node2" class="node">
<title>Node2</title>
<g id="a_node2"><a xlink:href="libbf_8c.html#adab81046eaf5fc5a75e1bae96b75be66" target="_top" xlink:title=" ">
<polygon fill="none" stroke="black" points="464,-66.5 464,-85.5 574,-85.5 574,-66.5 464,-66.5"/>
<text text-anchor="middle" x="519" y="-73.5" font-family="Helvetica,sans-Serif" font-size="10.00">bfdec_add_internal</text>
</a>
</g>
</g>
<!-- Node1&#45;&gt;Node2 -->
<g id="edge1" class="edge">
<title>Node1&#45;&gt;Node2</title>
<path fill="none" stroke="midnightblue" d="M605.11,-50.54C587.83,-55.7 568.13,-61.6 552.04,-66.41"/>
<polygon fill="midnightblue" stroke="midnightblue" points="606.38,-53.81 614.95,-47.59 604.37,-47.1 606.38,-53.81"/>
</g>
<!-- Node6 -->
<g id="node7" class="node">
<title>Node6</title>
<g id="a_node7"><a xlink:href="libbf_8h.html#a318508be097917ddd5d1ce187edea68b" target="_top" xlink:title=" ">
<polygon fill="none" stroke="red" points="0,-28.5 0,-47.5 83,-47.5 83,-28.5 0,-28.5"/>
<text text-anchor="middle" x="41.5" y="-35.5" font-family="Helvetica,sans-Serif" font-size="10.00">bfdec_divrem</text>
</a>
</g>
</g>
<!-- Node1&#45;&gt;Node6 -->
<g id="edge9" class="edge">
<title>Node1&#45;&gt;Node6</title>
<path fill="none" stroke="midnightblue" d="M600.09,-26.82C548.9,-15.61 464.36,0 390.5,0 390.5,0 390.5,0 280.5,0 208.23,0 190.1,-6.04 119,-19 105.13,-21.53 90.04,-25.1 76.95,-28.46"/>
<polygon fill="midnightblue" stroke="midnightblue" points="599.35,-30.24 609.87,-28.99 600.87,-23.41 599.35,-30.24"/>
</g>
<!-- Node10 -->
<g id="node8" class="node">
<title>Node10</title>
<g id="a_node8"><a xlink:href="libbf_8c.html#a4fe4f91a21701a55cffbc44f1eb141b6" target="_top" xlink:title=" ">
<polygon fill="none" stroke="black" points="119,-28.5 119,-47.5 212,-47.5 212,-28.5 119,-28.5"/>
<text text-anchor="middle" x="165.5" y="-35.5" font-family="Helvetica,sans-Serif" font-size="10.00">bfdec_tdivremu</text>
</a>
</g>
</g>
<!-- Node1&#45;&gt;Node10 -->
<g id="edge10" class="edge">
<title>Node1&#45;&gt;Node10</title>
<path fill="none" stroke="midnightblue" d="M599.49,-38C506.84,-38 303.14,-38 212.07,-38"/>
<polygon fill="midnightblue" stroke="midnightblue" points="599.7,-41.5 609.7,-38 599.7,-34.5 599.7,-41.5"/>
</g>
<!-- Node3 -->
<g id="node3" class="node">
<title>Node3</title>
<g id="a_node3"><a xlink:href="libbf_8c.html#aa5c7e54724217d71eb29c55c98e2413f" target="_top" xlink:title=" ">
<polygon fill="none" stroke="black" points="351,-104.5 351,-123.5 428,-123.5 428,-104.5 351,-104.5"/>
<text text-anchor="middle" x="389.5" y="-111.5" font-family="Helvetica,sans-Serif" font-size="10.00">__bfdec_add</text>
</a>
</g>
</g>
<!-- Node2&#45;&gt;Node3 -->
<g id="edge2" class="edge">
<title>Node2&#45;&gt;Node3</title>
<path fill="none" stroke="midnightblue" d="M475.94,-88.54C458.6,-93.7 438.82,-99.6 422.66,-104.41"/>
<polygon fill="midnightblue" stroke="midnightblue" points="477.24,-91.8 485.83,-85.59 475.24,-85.09 477.24,-91.8"/>
</g>
<!-- Node8 -->
<g id="node5" class="node">
<title>Node8</title>
<g id="a_node5"><a xlink:href="libbf_8c.html#ac10038dd7f04c765ddc8fdb12e3257a2" target="_top" xlink:title=" ">
<polygon fill="none" stroke="black" points="351,-66.5 351,-85.5 428,-85.5 428,-66.5 351,-66.5"/>
<text text-anchor="middle" x="389.5" y="-73.5" font-family="Helvetica,sans-Serif" font-size="10.00">__bfdec_sub</text>
</a>
</g>
</g>
<!-- Node2&#45;&gt;Node8 -->
<g id="edge4" class="edge">
<title>Node2&#45;&gt;Node8</title>
<path fill="none" stroke="midnightblue" d="M453.66,-76C444.89,-76 436.13,-76 428.05,-76"/>
<polygon fill="midnightblue" stroke="midnightblue" points="453.93,-79.5 463.93,-76 453.93,-72.5 453.93,-79.5"/>
</g>
<!-- Node4 -->
<g id="node4" class="node">
<title>Node4</title>
<g id="a_node4"><a xlink:href="libbf_8h.html#a2ab5a868db6e2d3d41c9b95e561054d3" target="_top" xlink:title=" ">
<polygon fill="none" stroke="red" points="248,-104.5 248,-123.5 315,-123.5 315,-104.5 248,-104.5"/>
<text text-anchor="middle" x="281.5" y="-111.5" font-family="Helvetica,sans-Serif" font-size="10.00">bfdec_add</text>
</a>
</g>
</g>
<!-- Node3&#45;&gt;Node4 -->
<g id="edge3" class="edge">
<title>Node3&#45;&gt;Node4</title>
<path fill="none" stroke="midnightblue" d="M340.79,-114C332.11,-114 323.24,-114 315.13,-114"/>
<polygon fill="midnightblue" stroke="midnightblue" points="340.83,-117.5 350.83,-114 340.83,-110.5 340.83,-117.5"/>
</g>
<!-- Node9 -->
<g id="node6" class="node">
<title>Node9</title>
<g id="a_node6"><a xlink:href="libbf_8h.html#ac3255e37957d4be7117b1d9bfc4fcf11" target="_top" xlink:title=" ">
<polygon fill="none" stroke="black" points="248.5,-66.5 248.5,-85.5 314.5,-85.5 314.5,-66.5 248.5,-66.5"/>
<text text-anchor="middle" x="281.5" y="-73.5" font-family="Helvetica,sans-Serif" font-size="10.00">bfdec_sub</text>
</a>
</g>
</g>
<!-- Node8&#45;&gt;Node9 -->
<g id="edge5" class="edge">
<title>Node8&#45;&gt;Node9</title>
<path fill="none" stroke="midnightblue" d="M340.68,-76C331.92,-76 322.96,-76 314.78,-76"/>
<polygon fill="midnightblue" stroke="midnightblue" points="340.83,-79.5 350.83,-76 340.83,-72.5 340.83,-79.5"/>
</g>
<!-- Node9&#45;&gt;Node6 -->
<g id="edge6" class="edge">
<title>Node9&#45;&gt;Node6</title>
<path fill="none" stroke="midnightblue" d="M238.34,-72.51C205.62,-69.45 159.22,-64.33 119,-57 105.13,-54.47 90.04,-50.9 76.95,-47.54"/>
<polygon fill="midnightblue" stroke="midnightblue" points="238.18,-76.01 248.45,-73.43 238.81,-69.04 238.18,-76.01"/>
</g>
<!-- Node9&#45;&gt;Node10 -->
<g id="edge7" class="edge">
<title>Node9&#45;&gt;Node10</title>
<path fill="none" stroke="midnightblue" d="M242.02,-63.17C226.73,-58.08 209.43,-52.31 195.26,-47.59"/>
<polygon fill="midnightblue" stroke="midnightblue" points="241.14,-66.57 251.73,-66.41 243.35,-59.93 241.14,-66.57"/>
</g>
<!-- Node10&#45;&gt;Node6 -->
<g id="edge8" class="edge">
<title>Node10&#45;&gt;Node6</title>
<path fill="none" stroke="midnightblue" d="M108.49,-38C100,-38 91.39,-38 83.31,-38"/>
<polygon fill="midnightblue" stroke="midnightblue" points="108.72,-41.5 118.72,-38 108.72,-34.5 108.72,-41.5"/>
</g>
</g>
</svg>
        <g id="navigator" transform="translate(0 0)" fill="#404254">
                <rect fill="#f2f5e9" fill-opacity="0.5" stroke="#606060" stroke-width=".5" x="0" y="0" width="60" height="60"/>
                <use id="zoomplus" xlink:href="#zoomPlus" x="17" y="9" onmousedown="handleZoom(evt,'in')"/>
                <use id="zoomminus" xlink:href="#zoomMin" x="42" y="9" onmousedown="handleZoom(evt,'out')"/>
                <use id="reset" xlink:href="#resetDef" x="30" y="36" onmousedown="handleReset()"/>
                <g id="arrowUp" xlink:href="#dirArrow" transform="translate(30 24)" onmousedown="handlePan(0,-1)">
                  <use xlink:href="#rim" fill="#404040">
                        <set attributeName="fill" to="#808080" begin="arrowUp.mouseover" end="arrowUp.mouseout"/>
                  </use>
                  <path fill="none" stroke="white" stroke-width="1.5" d="M0,-3.0v7 M-2.5,-0.5L0,-3.0L2.5,-0.5"/>
                </g>
                <g id="arrowRight" xlink:href="#dirArrow" transform="rotate(90) translate(36 -43)" onmousedown="handlePan(1,0)">
                  <use xlink:href="#rim" fill="#404040">
                        <set attributeName="fill" to="#808080" begin="arrowRight.mouseover" end="arrowRight.mouseout"/>
                  </use>
                  <path fill="none" stroke="white" stroke-width="1.5" d="M0,-3.0v7 M-2.5,-0.5L0,-3.0L2.5,-0.5"/>
                </g>
                <g id="arrowDown" xlink:href="#dirArrow" transform="rotate(180) translate(-30 -48)" onmousedown="handlePan(0,1)">
                  <use xlink:href="#rim" fill="#404040">
                        <set attributeName="fill" to="#808080" begin="arrowDown.mouseover" end="arrowDown.mouseout"/>
                  </use>
                  <path fill="none" stroke="white" stroke-width="1.5" d="M0,-3.0v7 M-2.5,-0.5L0,-3.0L2.5,-0.5"/>
                </g>
                <g id="arrowLeft" xlink:href="#dirArrow" transform="rotate(270) translate(-36 17)" onmousedown="handlePan(-1,0)">
                  <use xlink:href="#rim" fill="#404040">
                        <set attributeName="fill" to="#808080" begin="arrowLeft.mouseover" end="arrowLeft.mouseout"/>
                  </use>
                  <path fill="none" stroke="white" stroke-width="1.5" d="M0,-3.0v7 M-2.5,-0.5L0,-3.0L2.5,-0.5"/>
                </g>
        </g>
        <svg viewBox="0 0 15 15" width="100%" height="30px" preserveAspectRatio="xMaxYMin meet">
         <g id="arrow_out" transform="scale(0.3 0.3)">
          <a xlink:href="libbf_8h_ab76f65059ac29df0d8ed9f719db8ba06_icgraph_org.svg" target="_base">
           <rect id="button" ry="5" rx="5" y="6" x="6" height="38" width="38"
                fill="#f2f5e9" fill-opacity="0.5" stroke="#606060" stroke-width="1.0"/>
           <path id="arrow"
             d="M 11.500037,31.436501 C 11.940474,20.09759 22.043105,11.32322 32.158766,21.979434 L 37.068811,17.246167 C 37.068811,17.246167 37.088388,32 37.088388,32 L 22.160133,31.978069 C 22.160133,31.978069 26.997745,27.140456 26.997745,27.140456 C 18.528582,18.264221 13.291696,25.230495 11.500037,31.436501 z"
             style="fill:#404040;"/>
          </a>
         </g>
        </svg>
</svg>
