<?xml version="1.0" encoding="UTF-8" standalone="no"?>
<!DOCTYPE svg PUBLIC "-//W3C//DTD SVG 1.1//EN"
 "http://www.w3.org/Graphics/SVG/1.1/DTD/svg11.dtd">
<!-- Generated by graphviz version 2.43.0 (0)
 -->
<!-- Title: bf_atan Pages: 1 -->
<!--zoomable 956 -->
<svg id="main" version="1.1" xmlns="http://www.w3.org/2000/svg" xmlns:xlink="http://www.w3.org/1999/xlink" xml:space="preserve" onload="init(evt)">
<style type="text/css"><![CDATA[
.edge:hover path { stroke: red; }
.edge:hover polygon { stroke: red; fill: red; }
]]></style>
<script type="text/javascript"><![CDATA[
var edges = document.getElementsByTagName('g');
if (edges && edges.length) {
  for (var i=0;i<edges.length;i++) {
    if (edges[i].id.substr(0,4)=='edge') {
      edges[i].setAttribute('class','edge');
    }
  }
}
]]></script>
        <defs>
                <circle id="rim" cx="0" cy="0" r="7"/>
                <circle id="rim2" cx="0" cy="0" r="3.5"/>
                <g id="zoomPlus">
                        <use xlink:href="#rim" fill="#404040">
                                <set attributeName="fill" to="#808080" begin="zoomplus.mouseover" end="zoomplus.mouseout"/>
                        </use>
                        <path d="M-4,0h8M0,-4v8" fill="none" stroke="white" stroke-width="1.5" pointer-events="none"/>
                </g>
                <g id="zoomMin">
                        <use xlink:href="#rim" fill="#404040">
                                <set attributeName="fill" to="#808080" begin="zoomminus.mouseover" end="zoomminus.mouseout"/>
                        </use>
                        <path d="M-4,0h8" fill="none" stroke="white" stroke-width="1.5" pointer-events="none"/>
                </g>
                <g id="dirArrow">
                        <path fill="none" stroke="white" stroke-width="1.5" d="M0,-3.0v7 M-2.5,-0.5L0,-3.0L2.5,-0.5"/>
                </g>
               <g id="resetDef">
                       <use xlink:href="#rim2" fill="#404040">
                               <set attributeName="fill" to="#808080" begin="reset.mouseover" end="reset.mouseout"/>
                       </use>
               </g>
        </defs>

<script type="text/javascript">
var viewWidth = 777;
var viewHeight = 956;
var sectionId = 'dynsection-238';
</script>
<script xlink:href="svgpan.js"/>
<svg id="graph" class="graph">
<g id="viewport">
<title>bf_atan</title>
<!-- Node1 -->
<g id="node1" class="node">
<title>Node1</title>
<g id="a_node1"><a xlink:title=" ">
<polygon fill="#bfbfbf" stroke="black" points="0,-247.5 0,-266.5 53,-266.5 53,-247.5 0,-247.5"/>
<text text-anchor="middle" x="26.5" y="-254.5" font-family="Helvetica,sans-Serif" font-size="10.00">bf_atan</text>
</a>
</g>
</g>
<!-- Node2 -->
<g id="node2" class="node">
<title>Node2</title>
<g id="a_node2"><a xlink:href="libbf_8c.html#a740cb7dc32453bf521083b7616b7f120" target="_top" xlink:title=" ">
<polygon fill="none" stroke="black" points="221,-874.5 221,-893.5 311,-893.5 311,-874.5 221,-874.5"/>
<text text-anchor="middle" x="266" y="-881.5" font-family="Helvetica,sans-Serif" font-size="10.00">bf_add_epsilon</text>
</a>
</g>
</g>
<!-- Node1&#45;&gt;Node2 -->
<g id="edge1" class="edge">
<title>Node1&#45;&gt;Node2</title>
<path fill="none" stroke="midnightblue" d="M27.78,-266.65C29.99,-340.56 45.85,-815.36 89,-860 119.76,-891.82 171.34,-895.51 210.73,-892.6"/>
<polygon fill="midnightblue" stroke="midnightblue" points="211.07,-896.09 220.72,-891.71 210.45,-889.11 211.07,-896.09"/>
</g>
<!-- Node32 -->
<g id="node5" class="node">
<title>Node32</title>
<g id="a_node5"><a xlink:href="libbf_8h.html#a2b9d906b21e903f2f7f1c9044674ab7d" target="_top" xlink:title=" ">
<polygon fill="none" stroke="black" points="371,-912.5 371,-931.5 433,-931.5 433,-912.5 371,-912.5"/>
<text text-anchor="middle" x="402" y="-919.5" font-family="Helvetica,sans-Serif" font-size="10.00">bf_delete</text>
</a>
</g>
</g>
<!-- Node1&#45;&gt;Node32 -->
<g id="edge54" class="edge">
<title>Node1&#45;&gt;Node32</title>
<path fill="none" stroke="midnightblue" d="M27.8,-266.58C30.23,-342.05 47.79,-839.37 89,-890 153.74,-969.53 292.08,-949.36 360.7,-933.14"/>
<polygon fill="midnightblue" stroke="midnightblue" points="361.81,-936.47 370.69,-930.69 360.15,-929.68 361.81,-936.47"/>
</g>
<!-- Node28 -->
<g id="node7" class="node">
<title>Node28</title>
<g id="a_node7"><a xlink:href="libbf_8h.html#abacc1410890af049e02ebd788364ac48" target="_top" xlink:title=" ">
<polygon fill="none" stroke="black" points="378.5,-722.5 378.5,-741.5 425.5,-741.5 425.5,-722.5 378.5,-722.5"/>
<text text-anchor="middle" x="402" y="-729.5" font-family="Helvetica,sans-Serif" font-size="10.00">bf_init</text>
</a>
</g>
</g>
<!-- Node1&#45;&gt;Node28 -->
<g id="edge55" class="edge">
<title>Node1&#45;&gt;Node28</title>
<path fill="none" stroke="midnightblue" d="M27.69,-266.51C28.8,-305.25 36.45,-454.23 89,-561 128.51,-641.28 141.66,-671.65 221,-713 267.67,-737.32 330.31,-737.95 368.05,-735.48"/>
<polygon fill="midnightblue" stroke="midnightblue" points="368.76,-738.94 378.46,-734.68 368.22,-731.96 368.76,-738.94"/>
</g>
<!-- Node33 -->
<g id="node8" class="node">
<title>Node33</title>
<g id="a_node8"><a xlink:href="libbf_8h.html#a2378f025beace5741c19bf995c2971d3" target="_top" xlink:title=" ">
<polygon fill="none" stroke="black" points="499,-608.5 499,-627.5 560,-627.5 560,-608.5 499,-608.5"/>
<text text-anchor="middle" x="529.5" y="-615.5" font-family="Helvetica,sans-Serif" font-size="10.00">bf_set_ui</text>
</a>
</g>
</g>
<!-- Node1&#45;&gt;Node33 -->
<g id="edge60" class="edge">
<title>Node1&#45;&gt;Node33</title>
<path fill="none" stroke="midnightblue" d="M27.4,-266.62C27.29,-311.03 30.43,-500.03 89,-639 127.25,-729.76 134.85,-769.27 221,-817 266.91,-842.44 414.3,-857.52 457,-827 519.15,-782.58 527.87,-680.74 528.68,-637.74"/>
<polygon fill="midnightblue" stroke="midnightblue" points="532.18,-637.73 528.74,-627.7 525.18,-637.68 532.18,-637.73"/>
</g>
<!-- Node20 -->
<g id="node10" class="node">
<title>Node20</title>
<g id="a_node10"><a xlink:href="libbf_8h.html#aa6282c789c16c8cf2fe6a8ebd671c6fc" target="_top" xlink:title=" ">
<polygon fill="none" stroke="black" points="602,-399.5 602,-418.5 672,-418.5 672,-399.5 602,-399.5"/>
<text text-anchor="middle" x="637" y="-406.5" font-family="Helvetica,sans-Serif" font-size="10.00">bf_set_nan</text>
</a>
</g>
</g>
<!-- Node1&#45;&gt;Node20 -->
<g id="edge59" class="edge">
<title>Node1&#45;&gt;Node20</title>
<path fill="none" stroke="midnightblue" d="M33.98,-266.68C59.03,-302.86 153.73,-428 265,-428 265,-428 265,-428 403,-428 468.84,-428 544.81,-420.37 591.62,-414.78"/>
<polygon fill="midnightblue" stroke="midnightblue" points="592.22,-418.23 601.72,-413.55 591.38,-411.28 592.22,-418.23"/>
</g>
<!-- Node34 -->
<g id="node12" class="node">
<title>Node34</title>
<g id="a_node12"><a xlink:href="libbf_8c.html#aa4b535a5b33344704c576607ab4f0463" target="_top" xlink:title=" ">
<polygon fill="none" stroke="black" points="89,-532.5 89,-551.5 185,-551.5 185,-532.5 89,-532.5"/>
<text text-anchor="middle" x="137" y="-539.5" font-family="Helvetica,sans-Serif" font-size="10.00">bf_atan_internal</text>
</a>
</g>
</g>
<!-- Node1&#45;&gt;Node34 -->
<g id="edge12" class="edge">
<title>Node1&#45;&gt;Node34</title>
<path fill="none" stroke="midnightblue" d="M30.3,-266.78C38.37,-294.57 62.75,-376.31 89,-442 100.52,-470.82 116.25,-503.16 126.27,-523.05"/>
<polygon fill="midnightblue" stroke="midnightblue" points="123.29,-524.91 130.94,-532.24 129.53,-521.74 123.29,-524.91"/>
</g>
<!-- Node38 -->
<g id="node16" class="node">
<title>Node38</title>
<g id="a_node16"><a xlink:href="libbf_8c.html#a25b9653cbfca557499e786f8d2a7eb2e" target="_top" xlink:title=" ">
<polygon fill="none" stroke="red" points="347,-228.5 347,-247.5 457,-247.5 457,-228.5 347,-228.5"/>
<text text-anchor="middle" x="402" y="-235.5" font-family="Helvetica,sans-Serif" font-size="10.00">bf_const_pi_signed</text>
</a>
</g>
</g>
<!-- Node1&#45;&gt;Node38 -->
<g id="edge53" class="edge">
<title>Node1&#45;&gt;Node38</title>
<path fill="none" stroke="midnightblue" d="M53.17,-255.69C111.08,-252.75 253.3,-245.51 336.86,-241.26"/>
<polygon fill="midnightblue" stroke="midnightblue" points="337.19,-244.75 347,-240.75 336.83,-237.76 337.19,-244.75"/>
</g>
<!-- Node21 -->
<g id="node21" class="node">
<title>Node21</title>
<g id="a_node21"><a xlink:href="libbf_8h.html#a66631c65c00e92a5840a5085a009602d" target="_top" xlink:title=" ">
<polygon fill="none" stroke="black" points="493,-190.5 493,-209.5 566,-209.5 566,-190.5 493,-190.5"/>
<text text-anchor="middle" x="529.5" y="-197.5" font-family="Helvetica,sans-Serif" font-size="10.00">bf_set_zero</text>
</a>
</g>
</g>
<!-- Node1&#45;&gt;Node21 -->
<g id="edge61" class="edge">
<title>Node1&#45;&gt;Node21</title>
<path fill="none" stroke="midnightblue" d="M29.28,-247.37C34.1,-224.37 49.8,-166.39 89,-143 225.93,-61.28 429.21,-149.24 501.66,-185.7"/>
<polygon fill="midnightblue" stroke="midnightblue" points="500.49,-189.03 510.99,-190.48 503.68,-182.8 500.49,-189.03"/>
</g>
<!-- Node96 -->
<g id="node22" class="node">
<title>Node96</title>
<g id="a_node22"><a xlink:href="libbf_8h.html#ae1d5fe9356228cc3a566786637f26680" target="_top" xlink:title=" ">
<polygon fill="none" stroke="black" points="226,-190.5 226,-209.5 306,-209.5 306,-190.5 226,-190.5"/>
<text text-anchor="middle" x="266" y="-197.5" font-family="Helvetica,sans-Serif" font-size="10.00">bf_mul_2exp</text>
</a>
</g>
</g>
<!-- Node1&#45;&gt;Node96 -->
<g id="edge57" class="edge">
<title>Node1&#45;&gt;Node96</title>
<path fill="none" stroke="midnightblue" d="M41.99,-247.29C54.05,-239.7 71.94,-229.54 89,-224 130.38,-210.56 179.6,-204.65 215.45,-202.04"/>
<polygon fill="midnightblue" stroke="midnightblue" points="215.91,-205.52 225.66,-201.37 215.45,-198.54 215.91,-205.52"/>
</g>
<!-- Node7 -->
<g id="node24" class="node">
<title>Node7</title>
<g id="a_node24"><a xlink:href="libbf_8h.html#a4954f3435332238433d15977d55ae566" target="_top" xlink:title=" ">
<polygon fill="none" stroke="black" points="375.5,-76.5 375.5,-95.5 428.5,-95.5 428.5,-76.5 375.5,-76.5"/>
<text text-anchor="middle" x="402" y="-83.5" font-family="Helvetica,sans-Serif" font-size="10.00">bf_max</text>
</a>
</g>
</g>
<!-- Node1&#45;&gt;Node7 -->
<g id="edge56" class="edge">
<title>Node1&#45;&gt;Node7</title>
<path fill="none" stroke="midnightblue" d="M27.09,-247.31C26.31,-215.06 28.72,-110.85 89,-67 174.43,-4.86 310.34,-48.21 370.56,-72.55"/>
<polygon fill="midnightblue" stroke="midnightblue" points="369.32,-75.82 379.89,-76.42 372,-69.35 369.32,-75.82"/>
</g>
<!-- Node24 -->
<g id="node26" class="node">
<title>Node24</title>
<g id="a_node26"><a xlink:href="libbf_8h.html#ae019ee8073f4359da157d3b1e5fdba7e" target="_top" xlink:title=" ">
<polygon fill="none" stroke="black" points="378.5,-266.5 378.5,-285.5 425.5,-285.5 425.5,-266.5 378.5,-266.5"/>
<text text-anchor="middle" x="402" y="-273.5" font-family="Helvetica,sans-Serif" font-size="10.00">bf_set</text>
</a>
</g>
</g>
<!-- Node1&#45;&gt;Node24 -->
<g id="edge58" class="edge">
<title>Node1&#45;&gt;Node24</title>
<path fill="none" stroke="midnightblue" d="M53.22,-259.3C64.23,-260.23 77.24,-261.26 89,-262 190.67,-268.41 311.17,-272.95 368.09,-274.92"/>
<polygon fill="midnightblue" stroke="midnightblue" points="368.17,-278.42 378.28,-275.26 368.4,-271.42 368.17,-278.42"/>
</g>
<!-- Node6 -->
<g id="node28" class="node">
<title>Node6</title>
<g id="a_node28"><a xlink:href="libbf_8h.html#a165ae2c6d3fee618014b7c9ea4f944dc" target="_top" xlink:title=" ">
<polygon fill="none" stroke="red" points="107.5,-76.5 107.5,-95.5 166.5,-95.5 166.5,-76.5 107.5,-76.5"/>
<text text-anchor="middle" x="137" y="-83.5" font-family="Helvetica,sans-Serif" font-size="10.00">bf_cmpu</text>
</a>
</g>
</g>
<!-- Node1&#45;&gt;Node6 -->
<g id="edge51" class="edge">
<title>Node1&#45;&gt;Node6</title>
<path fill="none" stroke="midnightblue" d="M29.19,-247.15C34.04,-221.51 50.26,-151.8 89,-110 92.33,-106.41 96.31,-103.27 100.54,-100.55"/>
<polygon fill="midnightblue" stroke="midnightblue" points="102.42,-103.51 109.41,-95.56 98.98,-97.42 102.42,-103.51"/>
</g>
<!-- Node98 -->
<g id="node29" class="node">
<title>Node98</title>
<g id="a_node29"><a xlink:href="libbf_8c.html#a39e7dd6286a6f0541a12366ebd93dbfd" target="_top" xlink:title=" ">
<polygon fill="none" stroke="black" points="90,-152.5 90,-171.5 184,-171.5 184,-152.5 90,-152.5"/>
<text text-anchor="middle" x="137" y="-159.5" font-family="Helvetica,sans-Serif" font-size="10.00">bf_ziv_rounding</text>
</a>
</g>
</g>
<!-- Node1&#45;&gt;Node98 -->
<g id="edge62" class="edge">
<title>Node1&#45;&gt;Node98</title>
<path fill="none" stroke="midnightblue" d="M34.09,-247.22C44.41,-232.47 65.64,-204.3 89,-186 93.51,-182.47 98.62,-179.23 103.76,-176.35"/>
<polygon fill="midnightblue" stroke="midnightblue" points="105.69,-179.3 112.95,-171.58 102.46,-173.09 105.69,-179.3"/>
</g>
<!-- Node99 -->
<g id="node30" class="node">
<title>Node99</title>
<g id="a_node30"><a xlink:href="libbf_8c.html#ac88879c9a9c52b85c282df01636226c8" target="_top" xlink:title=" ">
<polygon fill="none" stroke="black" points="109.5,-0.5 109.5,-19.5 164.5,-19.5 164.5,-0.5 109.5,-0.5"/>
<text text-anchor="middle" x="137" y="-7.5" font-family="Helvetica,sans-Serif" font-size="10.00">sat_add</text>
</a>
</g>
</g>
<!-- Node1&#45;&gt;Node99 -->
<g id="edge64" class="edge">
<title>Node1&#45;&gt;Node99</title>
<path fill="none" stroke="midnightblue" d="M27.52,-247.29C28.09,-213.77 34.19,-101.24 89,-34 92.16,-30.12 96.11,-26.8 100.38,-23.99"/>
<polygon fill="midnightblue" stroke="midnightblue" points="102.42,-26.85 109.4,-18.88 98.98,-20.76 102.42,-26.85"/>
</g>
<!-- Node3 -->
<g id="node3" class="node">
<title>Node3</title>
<g id="a_node3"><a xlink:href="libbf_8h.html#a17dc09166f82ffa408f54a2edc4d7855" target="_top" xlink:title=" ">
<polygon fill="none" stroke="red" points="377,-798.5 377,-817.5 427,-817.5 427,-798.5 377,-798.5"/>
<text text-anchor="middle" x="402" y="-805.5" font-family="Helvetica,sans-Serif" font-size="10.00">bf_add</text>
</a>
</g>
</g>
<!-- Node2&#45;&gt;Node3 -->
<g id="edge2" class="edge">
<title>Node2&#45;&gt;Node3</title>
<path fill="none" stroke="midnightblue" d="M283.97,-874.37C307.03,-861.3 348.45,-837.8 375.32,-822.56"/>
<polygon fill="midnightblue" stroke="midnightblue" points="377.19,-825.53 384.17,-817.55 373.74,-819.44 377.19,-825.53"/>
</g>
<!-- Node2&#45;&gt;Node32 -->
<g id="edge4" class="edge">
<title>Node2&#45;&gt;Node32</title>
<path fill="none" stroke="midnightblue" d="M300.81,-893.59C319.17,-898.79 341.97,-905.26 361.18,-910.71"/>
<polygon fill="midnightblue" stroke="midnightblue" points="360.28,-914.09 370.85,-913.45 362.19,-907.36 360.28,-914.09"/>
</g>
<!-- Node2&#45;&gt;Node28 -->
<g id="edge6" class="edge">
<title>Node2&#45;&gt;Node28</title>
<path fill="none" stroke="midnightblue" d="M274.77,-874.4C288.86,-857.08 319.71,-819.55 347,-789 359.28,-775.26 373.65,-760.13 384.47,-748.92"/>
<polygon fill="midnightblue" stroke="midnightblue" points="387.2,-751.14 391.65,-741.52 382.18,-746.26 387.2,-751.14"/>
</g>
<!-- Node2&#45;&gt;Node33 -->
<g id="edge7" class="edge">
<title>Node2&#45;&gt;Node33</title>
<path fill="none" stroke="midnightblue" d="M311.22,-891.06C353.58,-895.2 416.85,-894.13 457,-860 491.59,-830.59 517.04,-690.14 525.48,-637.76"/>
<polygon fill="midnightblue" stroke="midnightblue" points="528.96,-638.15 527.05,-627.73 522.04,-637.06 528.96,-638.15"/>
</g>
<!-- Node4 -->
<g id="node4" class="node">
<title>Node4</title>
<g id="a_node4"><a xlink:href="libbf_8c.html#a951a1d3ebb338129d86e00f51b47f2ee" target="_top" xlink:title=" ">
<polygon fill="none" stroke="red" points="499.5,-798.5 499.5,-817.5 559.5,-817.5 559.5,-798.5 499.5,-798.5"/>
<text text-anchor="middle" x="529.5" y="-805.5" font-family="Helvetica,sans-Serif" font-size="10.00">__bf_add</text>
</a>
</g>
</g>
<!-- Node3&#45;&gt;Node4 -->
<g id="edge3" class="edge">
<title>Node3&#45;&gt;Node4</title>
<path fill="none" stroke="midnightblue" d="M427.2,-808C444.67,-808 468.64,-808 488.89,-808"/>
<polygon fill="midnightblue" stroke="midnightblue" points="489.08,-811.5 499.08,-808 489.08,-804.5 489.08,-811.5"/>
</g>
<!-- Node31 -->
<g id="node6" class="node">
<title>Node31</title>
<g id="a_node6"><a xlink:href="libbf_8h.html#a524c9e60866c08c75061626a4b5e2f29" target="_top" xlink:title=" ">
<polygon fill="none" stroke="black" points="497,-912.5 497,-931.5 562,-931.5 562,-912.5 497,-912.5"/>
<text text-anchor="middle" x="529.5" y="-919.5" font-family="Helvetica,sans-Serif" font-size="10.00">bf_realloc</text>
</a>
</g>
</g>
<!-- Node32&#45;&gt;Node31 -->
<g id="edge5" class="edge">
<title>Node32&#45;&gt;Node31</title>
<path fill="none" stroke="midnightblue" d="M433.06,-922C449.18,-922 469.3,-922 486.91,-922"/>
<polygon fill="midnightblue" stroke="midnightblue" points="486.93,-925.5 496.93,-922 486.93,-918.5 486.93,-925.5"/>
</g>
<!-- Node17 -->
<g id="node9" class="node">
<title>Node17</title>
<g id="a_node9"><a xlink:href="libbf_8h.html#ab51c43b22c1a81c789ee0e3d53c0e585" target="_top" xlink:title=" ">
<polygon fill="none" stroke="black" points="708,-304.5 708,-323.5 769,-323.5 769,-304.5 708,-304.5"/>
<text text-anchor="middle" x="738.5" y="-311.5" font-family="Helvetica,sans-Serif" font-size="10.00">bf_resize</text>
</a>
</g>
</g>
<!-- Node33&#45;&gt;Node17 -->
<g id="edge8" class="edge">
<title>Node33&#45;&gt;Node17</title>
<path fill="none" stroke="midnightblue" d="M560.26,-622.98C592.03,-626.48 641.87,-626.47 672,-599 711.66,-562.85 730.48,-392.05 735.84,-333.64"/>
<polygon fill="midnightblue" stroke="midnightblue" points="739.34,-333.8 736.73,-323.53 732.37,-333.18 739.34,-333.8"/>
</g>
<!-- Node33&#45;&gt;Node20 -->
<g id="edge9" class="edge">
<title>Node33&#45;&gt;Node20</title>
<path fill="none" stroke="midnightblue" d="M554.4,-608.33C558.68,-605.78 562.79,-602.69 566,-599 610.55,-547.81 627.71,-465.79 633.46,-428.54"/>
<polygon fill="midnightblue" stroke="midnightblue" points="636.95,-428.9 634.9,-418.5 630.02,-427.9 636.95,-428.9"/>
</g>
<!-- Node22 -->
<g id="node11" class="node">
<title>Node22</title>
<g id="a_node11"><a xlink:href="libbf_8c.html#a3ac3b86cc31b99a551947240e979c5d7" target="_top" xlink:title=" ">
<polygon fill="none" stroke="red" points="622,-570.5 622,-589.5 652,-589.5 652,-570.5 622,-570.5"/>
<text text-anchor="middle" x="637" y="-577.5" font-family="Helvetica,sans-Serif" font-size="10.00">clz</text>
</a>
</g>
</g>
<!-- Node33&#45;&gt;Node22 -->
<g id="edge11" class="edge">
<title>Node33&#45;&gt;Node22</title>
<path fill="none" stroke="midnightblue" d="M557.12,-608.41C573.95,-602.35 595.52,-594.58 611.85,-588.7"/>
<polygon fill="midnightblue" stroke="midnightblue" points="613.49,-591.83 621.72,-585.14 611.12,-585.24 613.49,-591.83"/>
</g>
<!-- Node20&#45;&gt;Node17 -->
<g id="edge10" class="edge">
<title>Node20&#45;&gt;Node17</title>
<path fill="none" stroke="midnightblue" d="M648.27,-399.19C665.27,-382.97 699.42,-350.36 720.19,-330.53"/>
<polygon fill="midnightblue" stroke="midnightblue" points="722.61,-333.05 727.43,-323.61 717.78,-327.99 722.61,-333.05"/>
</g>
<!-- Node34&#45;&gt;Node3 -->
<g id="edge13" class="edge">
<title>Node34&#45;&gt;Node3</title>
<path fill="none" stroke="midnightblue" d="M137.86,-551.59C137.87,-589.07 143.36,-726.74 221,-789 262.41,-822.2 327.53,-819.86 367.05,-814.43"/>
<polygon fill="midnightblue" stroke="midnightblue" points="367.64,-817.88 377,-812.92 366.59,-810.96 367.64,-817.88"/>
</g>
<!-- Node34&#45;&gt;Node32 -->
<g id="edge22" class="edge">
<title>Node34&#45;&gt;Node32</title>
<path fill="none" stroke="midnightblue" d="M138.74,-551.57C142.96,-603.83 165.88,-854.17 221,-903 258.87,-936.55 320.29,-935.41 360.67,-929.95"/>
<polygon fill="midnightblue" stroke="midnightblue" points="361.33,-933.39 370.7,-928.45 360.3,-926.47 361.33,-933.39"/>
</g>
<!-- Node34&#45;&gt;Node28 -->
<g id="edge24" class="edge">
<title>Node34&#45;&gt;Node28</title>
<path fill="none" stroke="midnightblue" d="M144.19,-551.64C156.66,-570.38 186.57,-612.1 221,-637 256.18,-662.44 272.53,-654.87 311,-675 335,-687.56 361,-704.41 378.85,-716.52"/>
<polygon fill="midnightblue" stroke="midnightblue" points="377.17,-719.61 387.39,-722.38 381.13,-713.84 377.17,-719.61"/>
</g>
<!-- Node34&#45;&gt;Node33 -->
<g id="edge45" class="edge">
<title>Node34&#45;&gt;Node33</title>
<path fill="none" stroke="midnightblue" d="M185.14,-540.42C220.66,-540.63 270.06,-543.96 311,-558 328.96,-564.16 329.4,-573.87 347,-581 393.73,-599.92 451.28,-609.55 488.89,-614.16"/>
<polygon fill="midnightblue" stroke="midnightblue" points="488.6,-617.65 498.94,-615.33 489.41,-610.7 488.6,-617.65"/>
</g>
<!-- Node35 -->
<g id="node13" class="node">
<title>Node35</title>
<g id="a_node13"><a xlink:href="libbf_8h.html#a50a5aa2767f2389a32daf115aaef07af" target="_top" xlink:title=" ">
<polygon fill="none" stroke="black" points="234.5,-760.5 234.5,-779.5 297.5,-779.5 297.5,-760.5 234.5,-760.5"/>
<text text-anchor="middle" x="266" y="-767.5" font-family="Helvetica,sans-Serif" font-size="10.00">bf_add_si</text>
</a>
</g>
</g>
<!-- Node34&#45;&gt;Node35 -->
<g id="edge14" class="edge">
<title>Node34&#45;&gt;Node35</title>
<path fill="none" stroke="midnightblue" d="M141.85,-551.63C152.65,-578.23 184.85,-654.65 221,-713 229.62,-726.92 240.94,-741.52 249.94,-752.46"/>
<polygon fill="midnightblue" stroke="midnightblue" points="247.46,-754.94 256.56,-760.36 252.82,-750.45 247.46,-754.94"/>
</g>
<!-- Node36 -->
<g id="node14" class="node">
<title>Node36</title>
<g id="a_node14"><a xlink:href="libbf_8h.html#a60ee3eaad83309aaf8a8b8fb81d8b44d" target="_top" xlink:title=" ">
<polygon fill="none" stroke="black" points="372,-646.5 372,-665.5 432,-665.5 432,-646.5 372,-646.5"/>
<text text-anchor="middle" x="402" y="-653.5" font-family="Helvetica,sans-Serif" font-size="10.00">bf_set_si</text>
</a>
</g>
</g>
<!-- Node34&#45;&gt;Node36 -->
<g id="edge44" class="edge">
<title>Node34&#45;&gt;Node36</title>
<path fill="none" stroke="midnightblue" d="M183.94,-551.51C220.15,-560.29 271.03,-575.58 311,-599 329.73,-609.97 328.85,-620.1 347,-632 352.77,-635.78 359.22,-639.23 365.61,-642.26"/>
<polygon fill="midnightblue" stroke="midnightblue" points="364.28,-645.5 374.84,-646.39 367.15,-639.11 364.28,-645.5"/>
</g>
<!-- Node37 -->
<g id="node15" class="node">
<title>Node37</title>
<g id="a_node15"><a xlink:href="libbf_8h.html#aff86bca731f3c8ffe45f0f1129175961" target="_top" xlink:title=" ">
<polygon fill="none" stroke="black" points="230,-304.5 230,-323.5 302,-323.5 302,-304.5 230,-304.5"/>
<text text-anchor="middle" x="266" y="-311.5" font-family="Helvetica,sans-Serif" font-size="10.00">bf_const_pi</text>
</a>
</g>
</g>
<!-- Node34&#45;&gt;Node37 -->
<g id="edge20" class="edge">
<title>Node34&#45;&gt;Node37</title>
<path fill="none" stroke="midnightblue" d="M139.57,-532.26C145.12,-500.58 166.5,-399.03 221,-338 224.08,-334.55 227.78,-331.49 231.71,-328.82"/>
<polygon fill="midnightblue" stroke="midnightblue" points="233.72,-331.7 240.53,-323.58 230.14,-325.68 233.72,-331.7"/>
</g>
<!-- Node42 -->
<g id="node17" class="node">
<title>Node42</title>
<g id="a_node17"><a xlink:href="libbf_8h.html#a030665e68e114717678fb0d0453bb3c6" target="_top" xlink:title=" ">
<polygon fill="none" stroke="red" points="242.5,-684.5 242.5,-703.5 289.5,-703.5 289.5,-684.5 242.5,-684.5"/>
<text text-anchor="middle" x="266" y="-691.5" font-family="Helvetica,sans-Serif" font-size="10.00">bf_div</text>
</a>
</g>
</g>
<!-- Node34&#45;&gt;Node42 -->
<g id="edge23" class="edge">
<title>Node34&#45;&gt;Node42</title>
<path fill="none" stroke="midnightblue" d="M142.28,-551.83C152.77,-574.96 181.76,-633.63 221,-670 224.81,-673.53 229.24,-676.72 233.79,-679.54"/>
<polygon fill="midnightblue" stroke="midnightblue" points="232.12,-682.62 242.55,-684.48 235.56,-676.52 232.12,-682.62"/>
</g>
<!-- Node95 -->
<g id="node18" class="node">
<title>Node95</title>
<g id="a_node18"><a xlink:href="libbf_8h.html#adeb14e044b992b09438bbd872831103b" target="_top" xlink:title=" ">
<polygon fill="none" stroke="red" points="503,-570.5 503,-589.5 556,-589.5 556,-570.5 503,-570.5"/>
<text text-anchor="middle" x="529.5" y="-577.5" font-family="Helvetica,sans-Serif" font-size="10.00">bf_isqrt</text>
</a>
</g>
</g>
<!-- Node34&#45;&gt;Node95 -->
<g id="edge25" class="edge">
<title>Node34&#45;&gt;Node95</title>
<path fill="none" stroke="midnightblue" d="M185.23,-532.63C196.88,-530.71 209.35,-528.98 221,-528 260.86,-524.66 273.17,-515.02 311,-528 330.17,-534.58 328.3,-548.18 347,-556 394.5,-575.87 454.57,-580.21 492.28,-580.71"/>
<polygon fill="midnightblue" stroke="midnightblue" points="492.74,-584.21 502.76,-580.76 492.77,-577.21 492.74,-584.21"/>
</g>
<!-- Node86 -->
<g id="node19" class="node">
<title>Node86</title>
<g id="a_node19"><a xlink:href="libbf_8h.html#ac290278d0c37a0e7786873f98aadba47" target="_top" xlink:title=" ">
<polygon fill="none" stroke="red" points="241,-456.5 241,-475.5 291,-475.5 291,-456.5 241,-456.5"/>
<text text-anchor="middle" x="266" y="-463.5" font-family="Helvetica,sans-Serif" font-size="10.00">bf_mul</text>
</a>
</g>
</g>
<!-- Node34&#45;&gt;Node86 -->
<g id="edge27" class="edge">
<title>Node34&#45;&gt;Node86</title>
<path fill="none" stroke="midnightblue" d="M152.83,-532.33C169.31,-521.68 196.79,-504.17 221,-490 226.39,-486.85 232.21,-483.58 237.81,-480.5"/>
<polygon fill="midnightblue" stroke="midnightblue" points="239.77,-483.42 246.88,-475.57 236.42,-477.27 239.77,-483.42"/>
</g>
<!-- Node34&#45;&gt;Node96 -->
<g id="edge34" class="edge">
<title>Node34&#45;&gt;Node96</title>
<path fill="none" stroke="midnightblue" d="M140.8,-532.44C150.61,-499.21 184.85,-385.78 221,-295 231.77,-267.95 246.29,-237.55 255.65,-218.59"/>
<polygon fill="midnightblue" stroke="midnightblue" points="258.83,-220.07 260.15,-209.56 252.56,-216.95 258.83,-220.07"/>
</g>
<!-- Node97 -->
<g id="node25" class="node">
<title>Node97</title>
<g id="a_node25"><a xlink:href="libbf_8h.html#aa561bc5220ec0489f4d3e59789d43d26" target="_top" xlink:title=" ">
<polygon fill="none" stroke="black" points="241,-608.5 241,-627.5 291,-627.5 291,-608.5 241,-608.5"/>
<text text-anchor="middle" x="266" y="-615.5" font-family="Helvetica,sans-Serif" font-size="10.00">bf_neg</text>
</a>
</g>
</g>
<!-- Node34&#45;&gt;Node97 -->
<g id="edge40" class="edge">
<title>Node34&#45;&gt;Node97</title>
<path fill="none" stroke="midnightblue" d="M152.83,-551.67C169.31,-562.32 196.79,-579.83 221,-594 226.39,-597.15 232.21,-600.42 237.81,-603.5"/>
<polygon fill="midnightblue" stroke="midnightblue" points="236.42,-606.73 246.88,-608.43 239.77,-600.58 236.42,-606.73"/>
</g>
<!-- Node34&#45;&gt;Node24 -->
<g id="edge41" class="edge">
<title>Node34&#45;&gt;Node24</title>
<path fill="none" stroke="midnightblue" d="M140.11,-532.45C146.86,-504.02 170.49,-418.93 221,-371 252.5,-341.11 274.46,-356.46 311,-333 329.26,-321.27 328.85,-311.9 347,-300 353.82,-295.53 361.61,-291.53 369.1,-288.13"/>
<polygon fill="midnightblue" stroke="midnightblue" points="370.55,-291.31 378.35,-284.15 367.78,-284.88 370.55,-291.31"/>
</g>
<!-- Node88 -->
<g id="node27" class="node">
<title>Node88</title>
<g id="a_node27"><a xlink:href="libbf_8h.html#a1a8b9ac1fea38b97fc6be8663ce9e867" target="_top" xlink:title=" ">
<polygon fill="none" stroke="red" points="241,-380.5 241,-399.5 291,-399.5 291,-380.5 241,-380.5"/>
<text text-anchor="middle" x="266" y="-387.5" font-family="Helvetica,sans-Serif" font-size="10.00">bf_sqrt</text>
</a>
</g>
</g>
<!-- Node34&#45;&gt;Node88 -->
<g id="edge46" class="edge">
<title>Node34&#45;&gt;Node88</title>
<path fill="none" stroke="midnightblue" d="M145.94,-532.49C166.88,-507.43 223.8,-439.32 250.63,-407.2"/>
<polygon fill="midnightblue" stroke="midnightblue" points="253.33,-409.42 257.06,-399.5 247.96,-404.93 253.33,-409.42"/>
</g>
<!-- Node35&#45;&gt;Node3 -->
<g id="edge15" class="edge">
<title>Node35&#45;&gt;Node3</title>
<path fill="none" stroke="midnightblue" d="M297.74,-778.72C318.42,-784.58 345.69,-792.32 367.02,-798.36"/>
<polygon fill="midnightblue" stroke="midnightblue" points="366.07,-801.73 376.65,-801.09 367.98,-795 366.07,-801.73"/>
</g>
<!-- Node35&#45;&gt;Node32 -->
<g id="edge16" class="edge">
<title>Node35&#45;&gt;Node32</title>
<path fill="none" stroke="midnightblue" d="M275.38,-779.51C297.47,-804.57 357.52,-872.68 385.84,-904.8"/>
<polygon fill="midnightblue" stroke="midnightblue" points="383.38,-907.31 392.62,-912.5 388.63,-902.68 383.38,-907.31"/>
</g>
<!-- Node35&#45;&gt;Node28 -->
<g id="edge17" class="edge">
<title>Node35&#45;&gt;Node28</title>
<path fill="none" stroke="midnightblue" d="M297.74,-761.28C318.95,-755.27 347.1,-747.28 368.65,-741.17"/>
<polygon fill="midnightblue" stroke="midnightblue" points="369.68,-744.52 378.34,-738.43 367.77,-737.79 369.68,-744.52"/>
</g>
<!-- Node35&#45;&gt;Node36 -->
<g id="edge18" class="edge">
<title>Node35&#45;&gt;Node36</title>
<path fill="none" stroke="midnightblue" d="M278.42,-760.28C301.47,-740.68 353.71,-696.23 381.98,-672.18"/>
<polygon fill="midnightblue" stroke="midnightblue" points="384.26,-674.84 389.6,-665.69 379.72,-669.51 384.26,-674.84"/>
</g>
<!-- Node36&#45;&gt;Node33 -->
<g id="edge19" class="edge">
<title>Node36&#45;&gt;Node33</title>
<path fill="none" stroke="midnightblue" d="M432.11,-647.19C449.05,-642.06 470.63,-635.52 489.08,-629.94"/>
<polygon fill="midnightblue" stroke="midnightblue" points="490.12,-633.28 498.68,-627.03 488.09,-626.58 490.12,-633.28"/>
</g>
<!-- Node37&#45;&gt;Node38 -->
<g id="edge21" class="edge">
<title>Node37&#45;&gt;Node38</title>
<path fill="none" stroke="midnightblue" d="M278.26,-304.41C293.17,-292.09 320.66,-270.67 347,-257 351.03,-254.91 355.34,-252.96 359.7,-251.17"/>
<polygon fill="midnightblue" stroke="midnightblue" points="361.17,-254.35 369.25,-247.5 358.66,-247.82 361.17,-254.35"/>
</g>
<!-- Node95&#45;&gt;Node22 -->
<g id="edge26" class="edge">
<title>Node95&#45;&gt;Node22</title>
<path fill="none" stroke="midnightblue" d="M556.04,-580C572.95,-580 594.99,-580 611.65,-580"/>
<polygon fill="midnightblue" stroke="midnightblue" points="611.71,-583.5 621.71,-580 611.71,-576.5 611.71,-583.5"/>
</g>
<!-- Node86&#45;&gt;Node28 -->
<g id="edge28" class="edge">
<title>Node86&#45;&gt;Node28</title>
<path fill="none" stroke="midnightblue" d="M270.11,-475.58C281.9,-511.64 324.33,-639 347,-675 356.47,-690.04 370.3,-704.54 381.59,-715.15"/>
<polygon fill="midnightblue" stroke="midnightblue" points="379.52,-718 389.26,-722.15 384.23,-712.82 379.52,-718"/>
</g>
<!-- Node86&#45;&gt;Node17 -->
<g id="edge30" class="edge">
<title>Node86&#45;&gt;Node17</title>
<path fill="none" stroke="midnightblue" d="M291.33,-472.01C359.91,-487.4 557.22,-520.79 672,-428 703.22,-402.76 722.46,-358.4 731.44,-333.1"/>
<polygon fill="midnightblue" stroke="midnightblue" points="734.79,-334.13 734.67,-323.53 728.16,-331.89 734.79,-334.13"/>
</g>
<!-- Node86&#45;&gt;Node20 -->
<g id="edge31" class="edge">
<title>Node86&#45;&gt;Node20</title>
<path fill="none" stroke="midnightblue" d="M291.14,-466.96C342.62,-468.38 466.61,-468.47 566,-442 581.67,-437.83 598.13,-430.25 611.14,-423.41"/>
<polygon fill="midnightblue" stroke="midnightblue" points="612.84,-426.47 619.95,-418.62 609.49,-420.32 612.84,-426.47"/>
</g>
<!-- Node9 -->
<g id="node20" class="node">
<title>Node9</title>
<g id="a_node20"><a xlink:href="libbf_8h.html#a970a1725f8bc59eda655058c5ff6bc52" target="_top" xlink:title=" ">
<polygon fill="none" stroke="black" points="377,-380.5 377,-399.5 427,-399.5 427,-380.5 377,-380.5"/>
<text text-anchor="middle" x="402" y="-387.5" font-family="Helvetica,sans-Serif" font-size="10.00">bf_min</text>
</a>
</g>
</g>
<!-- Node86&#45;&gt;Node9 -->
<g id="edge29" class="edge">
<title>Node86&#45;&gt;Node9</title>
<path fill="none" stroke="midnightblue" d="M283.97,-456.37C307.03,-443.3 348.45,-419.8 375.32,-404.56"/>
<polygon fill="midnightblue" stroke="midnightblue" points="377.19,-407.53 384.17,-399.55 373.74,-401.44 377.19,-407.53"/>
</g>
<!-- Node86&#45;&gt;Node21 -->
<g id="edge32" class="edge">
<title>Node86&#45;&gt;Node21</title>
<path fill="none" stroke="midnightblue" d="M291.18,-465.53C331.03,-463.44 410.73,-453.54 457,-409 511.55,-356.49 524.49,-260.66 527.55,-219.56"/>
<polygon fill="midnightblue" stroke="midnightblue" points="531.05,-219.7 528.18,-209.51 524.06,-219.27 531.05,-219.7"/>
</g>
<!-- Node21&#45;&gt;Node17 -->
<g id="edge33" class="edge">
<title>Node21&#45;&gt;Node17</title>
<path fill="none" stroke="midnightblue" d="M566.25,-198.8C596.54,-199.39 640.02,-204.18 672,-224 699.53,-241.06 719.08,-274.35 729.31,-295.31"/>
<polygon fill="midnightblue" stroke="midnightblue" points="726.18,-296.89 733.57,-304.49 732.53,-293.94 726.18,-296.89"/>
</g>
<!-- Node96&#45;&gt;Node9 -->
<g id="edge39" class="edge">
<title>Node96&#45;&gt;Node9</title>
<path fill="none" stroke="midnightblue" d="M273.83,-209.68C295.06,-239.79 360.15,-332.08 388.07,-371.66"/>
<polygon fill="midnightblue" stroke="midnightblue" points="385.4,-373.95 394.02,-380.11 391.12,-369.92 385.4,-373.95"/>
</g>
<!-- Node11 -->
<g id="node23" class="node">
<title>Node11</title>
<g id="a_node23"><a xlink:href="libbf_8c.html#a5a13527071b5331585beae41a51ed3c2" target="_top" xlink:title=" ">
<polygon fill="none" stroke="red" points="367,-190.5 367,-209.5 437,-209.5 437,-190.5 367,-190.5"/>
<text text-anchor="middle" x="402" y="-197.5" font-family="Helvetica,sans-Serif" font-size="10.00">__bf_round</text>
</a>
</g>
</g>
<!-- Node96&#45;&gt;Node11 -->
<g id="edge35" class="edge">
<title>Node96&#45;&gt;Node11</title>
<path fill="none" stroke="midnightblue" d="M306.12,-200C321.83,-200 340.04,-200 356.28,-200"/>
<polygon fill="midnightblue" stroke="midnightblue" points="356.62,-203.5 366.62,-200 356.62,-196.5 356.62,-203.5"/>
</g>
<!-- Node96&#45;&gt;Node7 -->
<g id="edge38" class="edge">
<title>Node96&#45;&gt;Node7</title>
<path fill="none" stroke="midnightblue" d="M278.42,-190.28C301.47,-170.68 353.71,-126.23 381.98,-102.18"/>
<polygon fill="midnightblue" stroke="midnightblue" points="384.26,-104.84 389.6,-95.69 379.72,-99.51 384.26,-104.84"/>
</g>
<!-- Node11&#45;&gt;Node17 -->
<g id="edge36" class="edge">
<title>Node11&#45;&gt;Node17</title>
<path fill="none" stroke="midnightblue" d="M435.16,-209.51C485.9,-224.72 587.45,-255.96 672,-287 683.23,-291.12 695.37,-296.01 706.12,-300.48"/>
<polygon fill="midnightblue" stroke="midnightblue" points="704.96,-303.79 715.54,-304.44 707.68,-297.34 704.96,-303.79"/>
</g>
<!-- Node11&#45;&gt;Node21 -->
<g id="edge37" class="edge">
<title>Node11&#45;&gt;Node21</title>
<path fill="none" stroke="midnightblue" d="M437.29,-200C451.33,-200 467.77,-200 482.8,-200"/>
<polygon fill="midnightblue" stroke="midnightblue" points="482.94,-203.5 492.94,-200 482.94,-196.5 482.94,-203.5"/>
</g>
<!-- Node24&#45;&gt;Node17 -->
<g id="edge42" class="edge">
<title>Node24&#45;&gt;Node17</title>
<path fill="none" stroke="midnightblue" d="M425.78,-277.1C472.28,-279.54 581.36,-286.32 672,-300 680.51,-301.28 689.58,-303 698.17,-304.78"/>
<polygon fill="midnightblue" stroke="midnightblue" points="697.46,-308.21 707.97,-306.89 698.93,-301.37 697.46,-308.21"/>
</g>
<!-- Node24&#45;&gt;Node20 -->
<g id="edge43" class="edge">
<title>Node24&#45;&gt;Node20</title>
<path fill="none" stroke="midnightblue" d="M419.76,-285.57C459.96,-308.51 562.12,-366.83 610.22,-394.28"/>
<polygon fill="midnightblue" stroke="midnightblue" points="608.66,-397.43 619.08,-399.34 612.13,-391.35 608.66,-397.43"/>
</g>
<!-- Node88&#45;&gt;Node17 -->
<g id="edge48" class="edge">
<title>Node88&#45;&gt;Node17</title>
<path fill="none" stroke="midnightblue" d="M290.06,-380.45C305.84,-374.28 327.37,-366.59 347,-362 472.9,-332.59 626.11,-320.43 697.41,-316.09"/>
<polygon fill="midnightblue" stroke="midnightblue" points="697.95,-319.56 707.73,-315.48 697.54,-312.57 697.95,-319.56"/>
</g>
<!-- Node88&#45;&gt;Node20 -->
<g id="edge50" class="edge">
<title>Node88&#45;&gt;Node20</title>
<path fill="none" stroke="midnightblue" d="M291.24,-382.68C306.97,-378.33 328,-373.23 347,-371 395.56,-365.31 408.38,-365.9 457,-371 503.64,-375.9 556.01,-387.78 592,-396.97"/>
<polygon fill="midnightblue" stroke="midnightblue" points="591.13,-400.36 601.69,-399.48 592.89,-393.58 591.13,-400.36"/>
</g>
<!-- Node88&#45;&gt;Node9 -->
<g id="edge47" class="edge">
<title>Node88&#45;&gt;Node9</title>
<path fill="none" stroke="midnightblue" d="M291.27,-390C312.33,-390 343.05,-390 366.64,-390"/>
<polygon fill="midnightblue" stroke="midnightblue" points="366.91,-393.5 376.91,-390 366.91,-386.5 366.91,-393.5"/>
</g>
<!-- Node88&#45;&gt;Node24 -->
<g id="edge49" class="edge">
<title>Node88&#45;&gt;Node24</title>
<path fill="none" stroke="midnightblue" d="M290.61,-380.28C297.75,-376.56 305.22,-371.78 311,-366 334.63,-342.37 322.43,-322.65 347,-300 353.27,-294.22 361.17,-289.66 368.98,-286.14"/>
<polygon fill="midnightblue" stroke="midnightblue" points="370.38,-289.34 378.33,-282.35 367.75,-282.86 370.38,-289.34"/>
</g>
<!-- Node6&#45;&gt;Node7 -->
<g id="edge52" class="edge">
<title>Node6&#45;&gt;Node7</title>
<path fill="none" stroke="midnightblue" d="M166.65,-86C214.85,-86 312.07,-86 364.88,-86"/>
<polygon fill="midnightblue" stroke="midnightblue" points="365.13,-89.5 375.13,-86 365.13,-82.5 365.13,-89.5"/>
</g>
<!-- Node98&#45;&gt;Node11 -->
<g id="edge63" class="edge">
<title>Node98&#45;&gt;Node11</title>
<path fill="none" stroke="midnightblue" d="M184.06,-165.81C219.01,-169.01 268.19,-174.15 311,-181 326.12,-183.42 342.54,-186.69 357.16,-189.84"/>
<polygon fill="midnightblue" stroke="midnightblue" points="356.44,-193.26 366.96,-191.99 357.94,-186.43 356.44,-193.26"/>
</g>
</g>
</svg>
        <g id="navigator" transform="translate(0 0)" fill="#404254">
                <rect fill="#f2f5e9" fill-opacity="0.5" stroke="#606060" stroke-width=".5" x="0" y="0" width="60" height="60"/>
                <use id="zoomplus" xlink:href="#zoomPlus" x="17" y="9" onmousedown="handleZoom(evt,'in')"/>
                <use id="zoomminus" xlink:href="#zoomMin" x="42" y="9" onmousedown="handleZoom(evt,'out')"/>
                <use id="reset" xlink:href="#resetDef" x="30" y="36" onmousedown="handleReset()"/>
                <g id="arrowUp" xlink:href="#dirArrow" transform="translate(30 24)" onmousedown="handlePan(0,-1)">
                  <use xlink:href="#rim" fill="#404040">
                        <set attributeName="fill" to="#808080" begin="arrowUp.mouseover" end="arrowUp.mouseout"/>
                  </use>
                  <path fill="none" stroke="white" stroke-width="1.5" d="M0,-3.0v7 M-2.5,-0.5L0,-3.0L2.5,-0.5"/>
                </g>
                <g id="arrowRight" xlink:href="#dirArrow" transform="rotate(90) translate(36 -43)" onmousedown="handlePan(1,0)">
                  <use xlink:href="#rim" fill="#404040">
                        <set attributeName="fill" to="#808080" begin="arrowRight.mouseover" end="arrowRight.mouseout"/>
                  </use>
                  <path fill="none" stroke="white" stroke-width="1.5" d="M0,-3.0v7 M-2.5,-0.5L0,-3.0L2.5,-0.5"/>
                </g>
                <g id="arrowDown" xlink:href="#dirArrow" transform="rotate(180) translate(-30 -48)" onmousedown="handlePan(0,1)">
                  <use xlink:href="#rim" fill="#404040">
                        <set attributeName="fill" to="#808080" begin="arrowDown.mouseover" end="arrowDown.mouseout"/>
                  </use>
                  <path fill="none" stroke="white" stroke-width="1.5" d="M0,-3.0v7 M-2.5,-0.5L0,-3.0L2.5,-0.5"/>
                </g>
                <g id="arrowLeft" xlink:href="#dirArrow" transform="rotate(270) translate(-36 17)" onmousedown="handlePan(-1,0)">
                  <use xlink:href="#rim" fill="#404040">
                        <set attributeName="fill" to="#808080" begin="arrowLeft.mouseover" end="arrowLeft.mouseout"/>
                  </use>
                  <path fill="none" stroke="white" stroke-width="1.5" d="M0,-3.0v7 M-2.5,-0.5L0,-3.0L2.5,-0.5"/>
                </g>
        </g>
        <svg viewBox="0 0 15 15" width="100%" height="30px" preserveAspectRatio="xMaxYMin meet">
         <g id="arrow_out" transform="scale(0.3 0.3)">
          <a xlink:href="libbf_8c_a0bb2c5b98e3f978b84df9849c7ec50d6_cgraph_org.svg" target="_base">
           <rect id="button" ry="5" rx="5" y="6" x="6" height="38" width="38"
                fill="#f2f5e9" fill-opacity="0.5" stroke="#606060" stroke-width="1.0"/>
           <path id="arrow"
             d="M 11.500037,31.436501 C 11.940474,20.09759 22.043105,11.32322 32.158766,21.979434 L 37.068811,17.246167 C 37.068811,17.246167 37.088388,32 37.088388,32 L 22.160133,31.978069 C 22.160133,31.978069 26.997745,27.140456 26.997745,27.140456 C 18.528582,18.264221 13.291696,25.230495 11.500037,31.436501 z"
             style="fill:#404040;"/>
          </a>
         </g>
        </svg>
</svg>
