<?xml version="1.0" encoding="UTF-8" standalone="no"?>
<!DOCTYPE svg PUBLIC "-//W3C//DTD SVG 1.1//EN"
 "http://www.w3.org/Graphics/SVG/1.1/DTD/svg11.dtd">
<!-- Generated by graphviz version 2.43.0 (0)
 -->
<!-- Title: bf_const_pi_signed Pages: 1 -->
<svg width="722pt" height="269pt"
 viewBox="0.00 0.00 722.00 268.96" xmlns="http://www.w3.org/2000/svg" xmlns:xlink="http://www.w3.org/1999/xlink">
<g id="graph0" class="graph" transform="scale(1 1) rotate(0) translate(4 264.96)">
<title>bf_const_pi_signed</title>
<!-- Node1 -->
<g id="node1" class="node">
<title>Node1</title>
<g id="a_node1"><a xlink:title=" ">
<polygon fill="#bfbfbf" stroke="black" points="604,-228.5 604,-247.5 714,-247.5 714,-228.5 604,-228.5"/>
<text text-anchor="middle" x="659" y="-235.5" font-family="Helvetica,sans-Serif" font-size="10.00">bf_const_pi_signed</text>
</a>
</g>
</g>
<!-- Node2 -->
<g id="node2" class="node">
<title>Node2</title>
<g id="a_node2"><a xlink:href="libbf_8h.html#a0bb2c5b98e3f978b84df9849c7ec50d6" target="_top" xlink:title=" ">
<polygon fill="none" stroke="black" points="254,-228.5 254,-247.5 307,-247.5 307,-228.5 254,-228.5"/>
<text text-anchor="middle" x="280.5" y="-235.5" font-family="Helvetica,sans-Serif" font-size="10.00">bf_atan</text>
</a>
</g>
</g>
<!-- Node1&#45;&gt;Node2 -->
<g id="edge1" class="edge">
<title>Node1&#45;&gt;Node2</title>
<path fill="none" stroke="midnightblue" d="M593.91,-248.68C534.25,-257.07 442.91,-265.97 364,-257 344.72,-254.81 323.39,-249.83 307.25,-245.51"/>
<polygon fill="midnightblue" stroke="midnightblue" points="594.55,-252.12 603.94,-247.23 593.55,-245.19 594.55,-252.12"/>
</g>
<!-- Node5 -->
<g id="node5" class="node">
<title>Node5</title>
<g id="a_node5"><a xlink:href="libbf_8h.html#aff86bca731f3c8ffe45f0f1129175961" target="_top" xlink:title=" ">
<polygon fill="none" stroke="black" points="496,-190.5 496,-209.5 568,-209.5 568,-190.5 496,-190.5"/>
<text text-anchor="middle" x="532" y="-197.5" font-family="Helvetica,sans-Serif" font-size="10.00">bf_const_pi</text>
</a>
</g>
</g>
<!-- Node1&#45;&gt;Node5 -->
<g id="edge4" class="edge">
<title>Node1&#45;&gt;Node5</title>
<path fill="none" stroke="midnightblue" d="M616.77,-225.46C599.76,-220.3 580.37,-214.4 564.53,-209.59"/>
<polygon fill="midnightblue" stroke="midnightblue" points="615.87,-228.85 626.46,-228.41 617.91,-222.15 615.87,-228.85"/>
</g>
<!-- Node3 -->
<g id="node3" class="node">
<title>Node3</title>
<g id="a_node3"><a xlink:href="libbf_8c.html#af760cf2a93bf130e8e44a62c7e7d0adf" target="_top" xlink:title=" ">
<polygon fill="none" stroke="black" points="95,-199.5 95,-218.5 197,-218.5 197,-199.5 95,-199.5"/>
<text text-anchor="middle" x="146" y="-206.5" font-family="Helvetica,sans-Serif" font-size="10.00">bf_atan2_internal</text>
</a>
</g>
</g>
<!-- Node2&#45;&gt;Node3 -->
<g id="edge2" class="edge">
<title>Node2&#45;&gt;Node3</title>
<path fill="none" stroke="midnightblue" d="M244.16,-230.26C227.66,-226.65 207.87,-222.32 190.47,-218.51"/>
<polygon fill="midnightblue" stroke="midnightblue" points="243.44,-233.69 253.95,-232.41 244.93,-226.85 243.44,-233.69"/>
</g>
<!-- Node4 -->
<g id="node4" class="node">
<title>Node4</title>
<g id="a_node4"><a xlink:href="libbf_8h.html#a78e29a7f1f858b99cbf3a0f97382c233" target="_top" xlink:title=" ">
<polygon fill="none" stroke="black" points="0,-199.5 0,-218.5 59,-218.5 59,-199.5 0,-199.5"/>
<text text-anchor="middle" x="29.5" y="-206.5" font-family="Helvetica,sans-Serif" font-size="10.00">bf_atan2</text>
</a>
</g>
</g>
<!-- Node3&#45;&gt;Node4 -->
<g id="edge3" class="edge">
<title>Node3&#45;&gt;Node4</title>
<path fill="none" stroke="midnightblue" d="M84.77,-209C75.9,-209 67.13,-209 59.31,-209"/>
<polygon fill="midnightblue" stroke="midnightblue" points="84.78,-212.5 94.78,-209 84.78,-205.5 84.78,-212.5"/>
</g>
<!-- Node5&#45;&gt;Node3 -->
<g id="edge6" class="edge">
<title>Node5&#45;&gt;Node3</title>
<path fill="none" stroke="midnightblue" d="M485.75,-201.06C413.46,-202.75 272.41,-206.06 197.14,-207.82"/>
<polygon fill="midnightblue" stroke="midnightblue" points="485.99,-204.56 495.9,-200.82 485.83,-197.56 485.99,-204.56"/>
</g>
<!-- Node6 -->
<g id="node6" class="node">
<title>Node6</title>
<g id="a_node6"><a xlink:href="libbf_8h.html#a45cd74dd3a694c26e716762b7fd36955" target="_top" xlink:title=" ">
<polygon fill="none" stroke="black" points="119,-142.5 119,-161.5 173,-161.5 173,-142.5 119,-142.5"/>
<text text-anchor="middle" x="146" y="-149.5" font-family="Helvetica,sans-Serif" font-size="10.00">bf_acos</text>
</a>
</g>
</g>
<!-- Node5&#45;&gt;Node6 -->
<g id="edge5" class="edge">
<title>Node5&#45;&gt;Node6</title>
<path fill="none" stroke="midnightblue" d="M495.98,-186.99C456.01,-172.9 388.34,-151.31 328,-143 286.17,-137.24 275.16,-140.8 233,-143 212.91,-144.05 190.29,-146.47 173.29,-148.53"/>
<polygon fill="midnightblue" stroke="midnightblue" points="494.93,-190.34 505.52,-190.4 497.28,-183.74 494.93,-190.34"/>
</g>
<!-- Node7 -->
<g id="node7" class="node">
<title>Node7</title>
<g id="a_node7"><a xlink:href="libbf_8c.html#aa4b535a5b33344704c576607ab4f0463" target="_top" xlink:title=" ">
<polygon fill="none" stroke="black" points="364,-228.5 364,-247.5 460,-247.5 460,-228.5 364,-228.5"/>
<text text-anchor="middle" x="412" y="-235.5" font-family="Helvetica,sans-Serif" font-size="10.00">bf_atan_internal</text>
</a>
</g>
</g>
<!-- Node5&#45;&gt;Node7 -->
<g id="edge7" class="edge">
<title>Node5&#45;&gt;Node7</title>
<path fill="none" stroke="midnightblue" d="M491.62,-212.68C475.68,-217.81 457.58,-223.64 442.77,-228.41"/>
<polygon fill="midnightblue" stroke="midnightblue" points="492.78,-215.99 501.22,-209.59 490.63,-209.32 492.78,-215.99"/>
</g>
<!-- Node10 -->
<g id="node9" class="node">
<title>Node10</title>
<g id="a_node9"><a xlink:href="libbf_8c.html#a2b19e3958f6cf3fa0cc534681a5ff259" target="_top" xlink:title=" ">
<polygon fill="none" stroke="black" points="381,-57.5 381,-76.5 443,-76.5 443,-57.5 381,-57.5"/>
<text text-anchor="middle" x="412" y="-64.5" font-family="Helvetica,sans-Serif" font-size="10.00">bf_sincos</text>
</a>
</g>
</g>
<!-- Node5&#45;&gt;Node10 -->
<g id="edge11" class="edge">
<title>Node5&#45;&gt;Node10</title>
<path fill="none" stroke="midnightblue" d="M518.3,-182.21C504.67,-163.54 482.01,-133.68 460,-110 448.71,-97.85 434.51,-85.17 424.69,-76.76"/>
<polygon fill="midnightblue" stroke="midnightblue" points="515.52,-184.34 524.22,-190.39 521.19,-180.24 515.52,-184.34"/>
</g>
<!-- Node7&#45;&gt;Node2 -->
<g id="edge10" class="edge">
<title>Node7&#45;&gt;Node2</title>
<path fill="none" stroke="midnightblue" d="M353.88,-238C337.62,-238 320.71,-238 307.32,-238"/>
<polygon fill="midnightblue" stroke="midnightblue" points="353.88,-241.5 363.88,-238 353.88,-234.5 353.88,-241.5"/>
</g>
<!-- Node8 -->
<g id="node8" class="node">
<title>Node8</title>
<g id="a_node8"><a xlink:href="libbf_8c.html#a4a0919b7e170befaf75d114d48d350cc" target="_top" xlink:title=" ">
<polygon fill="none" stroke="red" points="233,-152.5 233,-171.5 328,-171.5 328,-152.5 233,-152.5"/>
<text text-anchor="middle" x="280.5" y="-159.5" font-family="Helvetica,sans-Serif" font-size="10.00">bf_asin_internal</text>
</a>
</g>
</g>
<!-- Node7&#45;&gt;Node8 -->
<g id="edge8" class="edge">
<title>Node7&#45;&gt;Node8</title>
<path fill="none" stroke="midnightblue" d="M385.69,-223.14C359.65,-207.87 319.88,-184.53 297.77,-171.55"/>
<polygon fill="midnightblue" stroke="midnightblue" points="384.2,-226.33 394.6,-228.37 387.75,-220.29 384.2,-226.33"/>
</g>
<!-- Node8&#45;&gt;Node6 -->
<g id="edge9" class="edge">
<title>Node8&#45;&gt;Node6</title>
<path fill="none" stroke="midnightblue" d="M222.78,-157.72C205.56,-156.42 187.46,-155.05 173.27,-153.98"/>
<polygon fill="midnightblue" stroke="midnightblue" points="222.55,-161.21 232.79,-158.47 223.08,-154.23 222.55,-161.21"/>
</g>
<!-- Node11 -->
<g id="node10" class="node">
<title>Node11</title>
<g id="a_node10"><a xlink:href="libbf_8c.html#a525aef36dca12b641b625b99bb853dc4" target="_top" xlink:title=" ">
<polygon fill="none" stroke="red" points="235,-76.5 235,-95.5 326,-95.5 326,-76.5 235,-76.5"/>
<text text-anchor="middle" x="280.5" y="-83.5" font-family="Helvetica,sans-Serif" font-size="10.00">bf_cos_internal</text>
</a>
</g>
</g>
<!-- Node10&#45;&gt;Node11 -->
<g id="edge12" class="edge">
<title>Node10&#45;&gt;Node11</title>
<path fill="none" stroke="midnightblue" d="M370.99,-72.87C356.78,-74.96 340.69,-77.32 326.11,-79.45"/>
<polygon fill="midnightblue" stroke="midnightblue" points="371.58,-76.32 380.96,-71.41 370.56,-69.4 371.58,-76.32"/>
</g>
<!-- Node13 -->
<g id="node11" class="node">
<title>Node13</title>
<g id="a_node11"><a xlink:href="libbf_8c.html#a988e995c3b0dbcc6a26b8eea2891b2e2" target="_top" xlink:title=" ">
<polygon fill="none" stroke="red" points="236,-38.5 236,-57.5 325,-57.5 325,-38.5 236,-38.5"/>
<text text-anchor="middle" x="280.5" y="-45.5" font-family="Helvetica,sans-Serif" font-size="10.00">bf_sin_internal</text>
</a>
</g>
</g>
<!-- Node10&#45;&gt;Node13 -->
<g id="edge13" class="edge">
<title>Node10&#45;&gt;Node13</title>
<path fill="none" stroke="midnightblue" d="M370.8,-61.1C356.31,-58.98 339.89,-56.57 325.12,-54.4"/>
<polygon fill="midnightblue" stroke="midnightblue" points="370.56,-64.6 380.96,-62.59 371.58,-57.68 370.56,-64.6"/>
</g>
<!-- Node15 -->
<g id="node12" class="node">
<title>Node15</title>
<g id="a_node12"><a xlink:href="libbf_8c.html#a524a1cfe269d6d10ba833368695f8699" target="_top" xlink:title=" ">
<polygon fill="none" stroke="red" points="235.5,-0.5 235.5,-19.5 325.5,-19.5 325.5,-0.5 235.5,-0.5"/>
<text text-anchor="middle" x="280.5" y="-7.5" font-family="Helvetica,sans-Serif" font-size="10.00">bf_tan_internal</text>
</a>
</g>
</g>
<!-- Node10&#45;&gt;Node15 -->
<g id="edge14" class="edge">
<title>Node10&#45;&gt;Node15</title>
<path fill="none" stroke="midnightblue" d="M381.39,-53.08C365.61,-45.76 345.82,-36.72 328,-29 320.8,-25.88 312.91,-22.61 305.71,-19.67"/>
<polygon fill="midnightblue" stroke="midnightblue" points="380.1,-56.34 390.64,-57.39 383.05,-50 380.1,-56.34"/>
</g>
</g>
</svg>
