<?xml version="1.0" encoding="UTF-8" standalone="no"?>
<!DOCTYPE svg PUBLIC "-//W3C//DTD SVG 1.1//EN"
 "http://www.w3.org/Graphics/SVG/1.1/DTD/svg11.dtd">
<!-- Generated by graphviz version 2.43.0 (0)
 -->
<!-- Title: scan_bit_nz Pages: 1 -->
<svg width="489pt" height="142pt"
 viewBox="0.00 0.00 489.00 142.00" xmlns="http://www.w3.org/2000/svg" xmlns:xlink="http://www.w3.org/1999/xlink">
<g id="graph0" class="graph" transform="scale(1 1) rotate(0) translate(4 138)">
<title>scan_bit_nz</title>
<!-- Node1 -->
<g id="node1" class="node">
<title>Node1</title>
<g id="a_node1"><a xlink:title=" ">
<polygon fill="#bfbfbf" stroke="black" points="407,-57.5 407,-76.5 481,-76.5 481,-57.5 407,-57.5"/>
<text text-anchor="middle" x="444" y="-64.5" font-family="Helvetica,sans-Serif" font-size="10.00">scan_bit_nz</text>
</a>
</g>
</g>
<!-- Node2 -->
<g id="node2" class="node">
<title>Node2</title>
<g id="a_node2"><a xlink:href="libbf_8c.html#a3d7fdccc1995b3a88b68c5e7a57dce16" target="_top" xlink:title=" ">
<polygon fill="none" stroke="black" points="279,-57.5 279,-76.5 371,-76.5 371,-57.5 279,-57.5"/>
<text text-anchor="middle" x="325" y="-64.5" font-family="Helvetica,sans-Serif" font-size="10.00">bf_get_rnd_add</text>
</a>
</g>
</g>
<!-- Node1&#45;&gt;Node2 -->
<g id="edge1" class="edge">
<title>Node1&#45;&gt;Node2</title>
<path fill="none" stroke="midnightblue" d="M396.88,-67C388.45,-67 379.65,-67 371.24,-67"/>
<polygon fill="midnightblue" stroke="midnightblue" points="396.94,-70.5 406.94,-67 396.94,-63.5 396.94,-70.5"/>
</g>
<!-- Node3 -->
<g id="node3" class="node">
<title>Node3</title>
<g id="a_node3"><a xlink:href="libbf_8c.html#a5a13527071b5331585beae41a51ed3c2" target="_top" xlink:title=" ">
<polygon fill="none" stroke="black" points="173,-57.5 173,-76.5 243,-76.5 243,-57.5 173,-57.5"/>
<text text-anchor="middle" x="208" y="-64.5" font-family="Helvetica,sans-Serif" font-size="10.00">__bf_round</text>
</a>
</g>
</g>
<!-- Node2&#45;&gt;Node3 -->
<g id="edge2" class="edge">
<title>Node2&#45;&gt;Node3</title>
<path fill="none" stroke="midnightblue" d="M268.77,-67C260.09,-67 251.35,-67 243.32,-67"/>
<polygon fill="midnightblue" stroke="midnightblue" points="268.88,-70.5 278.88,-67 268.88,-63.5 268.88,-70.5"/>
</g>
<!-- Node4 -->
<g id="node4" class="node">
<title>Node4</title>
<g id="a_node4"><a xlink:href="libbf_8h.html#ae1d5fe9356228cc3a566786637f26680" target="_top" xlink:title=" ">
<polygon fill="none" stroke="red" points="28.5,-114.5 28.5,-133.5 108.5,-133.5 108.5,-114.5 28.5,-114.5"/>
<text text-anchor="middle" x="68.5" y="-121.5" font-family="Helvetica,sans-Serif" font-size="10.00">bf_mul_2exp</text>
</a>
</g>
</g>
<!-- Node3&#45;&gt;Node4 -->
<g id="edge3" class="edge">
<title>Node3&#45;&gt;Node4</title>
<path fill="none" stroke="midnightblue" d="M182.75,-81.91C169.56,-89.56 152.77,-98.59 137,-105 127.98,-108.67 118,-111.9 108.55,-114.6"/>
<polygon fill="midnightblue" stroke="midnightblue" points="184.82,-84.75 191.64,-76.64 181.26,-78.72 184.82,-84.75"/>
</g>
<!-- Node26 -->
<g id="node5" class="node">
<title>Node26</title>
<g id="a_node5"><a xlink:href="libbf_8h.html#ae822c0888d26739bb681dfef282b9150" target="_top" xlink:title=" ">
<polygon fill="none" stroke="red" points="0,-76.5 0,-95.5 137,-95.5 137,-76.5 0,-76.5"/>
<text text-anchor="middle" x="68.5" y="-83.5" font-family="Helvetica,sans-Serif" font-size="10.00">bf_normalize_and_round</text>
</a>
</g>
</g>
<!-- Node3&#45;&gt;Node26 -->
<g id="edge4" class="edge">
<title>Node3&#45;&gt;Node26</title>
<path fill="none" stroke="midnightblue" d="M162.66,-73.13C154.51,-74.25 145.84,-75.45 137.19,-76.65"/>
<polygon fill="midnightblue" stroke="midnightblue" points="163.23,-76.58 172.66,-71.75 162.27,-69.65 163.23,-76.58"/>
</g>
<!-- Node74 -->
<g id="node6" class="node">
<title>Node74</title>
<g id="a_node6"><a xlink:href="libbf_8h.html#abd4ca8358212228a53981a32a10286b5" target="_top" xlink:title=" ">
<polygon fill="none" stroke="red" points="39,-38.5 39,-57.5 98,-57.5 98,-38.5 39,-38.5"/>
<text text-anchor="middle" x="68.5" y="-45.5" font-family="Helvetica,sans-Serif" font-size="10.00">bf_round</text>
</a>
</g>
</g>
<!-- Node3&#45;&gt;Node74 -->
<g id="edge5" class="edge">
<title>Node3&#45;&gt;Node74</title>
<path fill="none" stroke="midnightblue" d="M162.63,-60.87C141.53,-57.95 116.93,-54.55 98.3,-51.98"/>
<polygon fill="midnightblue" stroke="midnightblue" points="162.27,-64.35 172.66,-62.25 163.23,-57.42 162.27,-64.35"/>
</g>
<!-- Node79 -->
<g id="node7" class="node">
<title>Node79</title>
<g id="a_node7"><a xlink:href="libbf_8c.html#a39e7dd6286a6f0541a12366ebd93dbfd" target="_top" xlink:title=" ">
<polygon fill="none" stroke="red" points="21.5,-0.5 21.5,-19.5 115.5,-19.5 115.5,-0.5 21.5,-0.5"/>
<text text-anchor="middle" x="68.5" y="-7.5" font-family="Helvetica,sans-Serif" font-size="10.00">bf_ziv_rounding</text>
</a>
</g>
</g>
<!-- Node3&#45;&gt;Node79 -->
<g id="edge6" class="edge">
<title>Node3&#45;&gt;Node79</title>
<path fill="none" stroke="midnightblue" d="M182.75,-52.09C169.56,-44.44 152.77,-35.41 137,-29 128.2,-25.43 118.5,-22.27 109.26,-19.6"/>
<polygon fill="midnightblue" stroke="midnightblue" points="181.26,-55.28 191.64,-57.36 184.82,-49.25 181.26,-55.28"/>
</g>
</g>
</svg>
