<?xml version="1.0" encoding="UTF-8" standalone="no"?>
<!DOCTYPE svg PUBLIC "-//W3C//DTD SVG 1.1//EN"
 "http://www.w3.org/Graphics/SVG/1.1/DTD/svg11.dtd">
<!-- Generated by graphviz version 2.43.0 (0)
 -->
<!-- Title: bf_atan_internal Pages: 1 -->
<svg width="956pt" height="702pt"
 viewBox="0.00 0.00 956.00 702.00" xmlns="http://www.w3.org/2000/svg" xmlns:xlink="http://www.w3.org/1999/xlink">
<g id="graph0" class="graph" transform="scale(1 1) rotate(0) translate(4 698)">
<title>bf_atan_internal</title>
<!-- Node1 -->
<g id="node1" class="node">
<title>Node1</title>
<g id="a_node1"><a xlink:title=" ">
<polygon fill="#bfbfbf" stroke="black" points="0,-323.5 0,-342.5 96,-342.5 96,-323.5 0,-323.5"/>
<text text-anchor="middle" x="48" y="-330.5" font-family="Helvetica,sans-Serif" font-size="10.00">bf_atan_internal</text>
</a>
</g>
</g>
<!-- Node2 -->
<g id="node2" class="node">
<title>Node2</title>
<g id="a_node2"><a xlink:href="libbf_8h.html#a17dc09166f82ffa408f54a2edc4d7855" target="_top" xlink:title=" ">
<polygon fill="none" stroke="black" points="543,-266.5 543,-285.5 593,-285.5 593,-266.5 543,-266.5"/>
<text text-anchor="middle" x="568" y="-273.5" font-family="Helvetica,sans-Serif" font-size="10.00">bf_add</text>
</a>
</g>
</g>
<!-- Node1&#45;&gt;Node2 -->
<g id="edge1" class="edge">
<title>Node1&#45;&gt;Node2</title>
<path fill="none" stroke="midnightblue" d="M90.91,-323.48C129.47,-315.01 188.35,-302.77 240,-295 304.5,-285.29 320.9,-284.06 386,-280 437.11,-276.82 496.47,-276.06 532.88,-275.94"/>
<polygon fill="midnightblue" stroke="midnightblue" points="532.97,-279.44 542.97,-275.92 532.96,-272.44 532.97,-279.44"/>
</g>
<!-- Node23 -->
<g id="node7" class="node">
<title>Node23</title>
<g id="a_node7"><a xlink:href="libbf_8h.html#ae019ee8073f4359da157d3b1e5fdba7e" target="_top" xlink:title=" ">
<polygon fill="none" stroke="red" points="889.5,-560.5 889.5,-579.5 936.5,-579.5 936.5,-560.5 889.5,-560.5"/>
<text text-anchor="middle" x="913" y="-567.5" font-family="Helvetica,sans-Serif" font-size="10.00">bf_set</text>
</a>
</g>
</g>
<!-- Node1&#45;&gt;Node23 -->
<g id="edge49" class="edge">
<title>Node1&#45;&gt;Node23</title>
<path fill="none" stroke="midnightblue" d="M49.23,-342.67C50.65,-381.27 60.69,-526.38 132,-612 183.64,-674.01 213.3,-694 294,-694 294,-694 294,-694 675.5,-694 766.87,-694 857.73,-620.5 894.71,-586.67"/>
<polygon fill="midnightblue" stroke="midnightblue" points="897.23,-589.11 902.15,-579.73 892.45,-583.99 897.23,-589.11"/>
</g>
<!-- Node27 -->
<g id="node9" class="node">
<title>Node27</title>
<g id="a_node9"><a xlink:href="libbf_8h.html#abacc1410890af049e02ebd788364ac48" target="_top" xlink:title=" ">
<polygon fill="none" stroke="black" points="772.5,-456.5 772.5,-475.5 819.5,-475.5 819.5,-456.5 772.5,-456.5"/>
<text text-anchor="middle" x="796" y="-463.5" font-family="Helvetica,sans-Serif" font-size="10.00">bf_init</text>
</a>
</g>
</g>
<!-- Node1&#45;&gt;Node27 -->
<g id="edge39" class="edge">
<title>Node1&#45;&gt;Node27</title>
<path fill="none" stroke="midnightblue" d="M51.91,-342.81C67.46,-392.92 145.56,-618 294,-618 294,-618 294,-618 444.5,-618 505.71,-618 661.39,-592.29 714,-561 722.49,-555.95 760,-509.88 780.86,-483.8"/>
<polygon fill="midnightblue" stroke="midnightblue" points="783.74,-485.81 787.24,-475.81 778.27,-481.44 783.74,-485.81"/>
</g>
<!-- Node31 -->
<g id="node11" class="node">
<title>Node31</title>
<g id="a_node11"><a xlink:href="libbf_8h.html#a50a5aa2767f2389a32daf115aaef07af" target="_top" xlink:title=" ">
<polygon fill="none" stroke="black" points="263.5,-304.5 263.5,-323.5 326.5,-323.5 326.5,-304.5 263.5,-304.5"/>
<text text-anchor="middle" x="295" y="-311.5" font-family="Helvetica,sans-Serif" font-size="10.00">bf_add_si</text>
</a>
</g>
</g>
<!-- Node1&#45;&gt;Node31 -->
<g id="edge10" class="edge">
<title>Node1&#45;&gt;Node31</title>
<path fill="none" stroke="midnightblue" d="M96.24,-329.34C141.71,-325.81 209.78,-320.53 253.02,-317.18"/>
<polygon fill="midnightblue" stroke="midnightblue" points="253.49,-320.65 263.19,-316.39 252.95,-313.67 253.49,-320.65"/>
</g>
<!-- Node32 -->
<g id="node12" class="node">
<title>Node32</title>
<g id="a_node12"><a xlink:href="libbf_8h.html#a2b9d906b21e903f2f7f1c9044674ab7d" target="_top" xlink:title=" ">
<polygon fill="none" stroke="black" points="537,-532.5 537,-551.5 599,-551.5 599,-532.5 537,-532.5"/>
<text text-anchor="middle" x="568" y="-539.5" font-family="Helvetica,sans-Serif" font-size="10.00">bf_delete</text>
</a>
</g>
</g>
<!-- Node1&#45;&gt;Node32 -->
<g id="edge37" class="edge">
<title>Node1&#45;&gt;Node32</title>
<path fill="none" stroke="midnightblue" d="M53.14,-342.8C63.13,-365.17 90.79,-420.11 132,-447 258.38,-529.49 445,-541.41 526.47,-542.43"/>
<polygon fill="midnightblue" stroke="midnightblue" points="526.77,-545.93 536.79,-542.5 526.82,-538.93 526.77,-545.93"/>
</g>
<!-- Node33 -->
<g id="node14" class="node">
<title>Node33</title>
<g id="a_node14"><a xlink:href="libbf_8h.html#a60ee3eaad83309aaf8a8b8fb81d8b44d" target="_top" xlink:title=" ">
<polygon fill="none" stroke="black" points="413.5,-190.5 413.5,-209.5 473.5,-209.5 473.5,-190.5 413.5,-190.5"/>
<text text-anchor="middle" x="443.5" y="-197.5" font-family="Helvetica,sans-Serif" font-size="10.00">bf_set_si</text>
</a>
</g>
</g>
<!-- Node1&#45;&gt;Node33 -->
<g id="edge50" class="edge">
<title>Node1&#45;&gt;Node33</title>
<path fill="none" stroke="midnightblue" d="M53.03,-323.23C62.79,-301.02 90.01,-246.86 132,-224 219.31,-176.47 341.37,-184.83 403.23,-193.32"/>
<polygon fill="midnightblue" stroke="midnightblue" points="402.94,-196.82 413.34,-194.78 403.95,-189.89 402.94,-196.82"/>
</g>
<!-- Node34 -->
<g id="node15" class="node">
<title>Node34</title>
<g id="a_node15"><a xlink:href="libbf_8h.html#a2378f025beace5741c19bf995c2971d3" target="_top" xlink:title=" ">
<polygon fill="none" stroke="red" points="537.5,-171.5 537.5,-190.5 598.5,-190.5 598.5,-171.5 537.5,-171.5"/>
<text text-anchor="middle" x="568" y="-178.5" font-family="Helvetica,sans-Serif" font-size="10.00">bf_set_ui</text>
</a>
</g>
</g>
<!-- Node1&#45;&gt;Node34 -->
<g id="edge51" class="edge">
<title>Node1&#45;&gt;Node34</title>
<path fill="none" stroke="midnightblue" d="M51.58,-323.13C59,-296.93 83.07,-225.47 132,-194 256.77,-113.75 446.05,-148.95 527.48,-169.72"/>
<polygon fill="midnightblue" stroke="midnightblue" points="526.76,-173.15 537.32,-172.29 528.53,-166.38 526.76,-173.15"/>
</g>
<!-- Node35 -->
<g id="node17" class="node">
<title>Node35</title>
<g id="a_node17"><a xlink:href="libbf_8h.html#aff86bca731f3c8ffe45f0f1129175961" target="_top" xlink:title=" ">
<polygon fill="none" stroke="black" points="132,-418.5 132,-437.5 204,-437.5 204,-418.5 132,-418.5"/>
<text text-anchor="middle" x="168" y="-425.5" font-family="Helvetica,sans-Serif" font-size="10.00">bf_const_pi</text>
</a>
</g>
</g>
<!-- Node1&#45;&gt;Node35 -->
<g id="edge18" class="edge">
<title>Node1&#45;&gt;Node35</title>
<path fill="none" stroke="midnightblue" d="M59.44,-342.56C74.89,-356.56 104.92,-383.23 132,-404 135.72,-406.85 139.75,-409.77 143.71,-412.54"/>
<polygon fill="midnightblue" stroke="midnightblue" points="141.88,-415.53 152.11,-418.3 145.84,-409.76 141.88,-415.53"/>
</g>
<!-- Node40 -->
<g id="node21" class="node">
<title>Node40</title>
<g id="a_node21"><a xlink:href="libbf_8h.html#a030665e68e114717678fb0d0453bb3c6" target="_top" xlink:title=" ">
<polygon fill="none" stroke="red" points="544.5,-342.5 544.5,-361.5 591.5,-361.5 591.5,-342.5 544.5,-342.5"/>
<text text-anchor="middle" x="568" y="-349.5" font-family="Helvetica,sans-Serif" font-size="10.00">bf_div</text>
</a>
</g>
</g>
<!-- Node1&#45;&gt;Node40 -->
<g id="edge38" class="edge">
<title>Node1&#45;&gt;Node40</title>
<path fill="none" stroke="midnightblue" d="M96.4,-335.4C108.04,-335.95 120.47,-336.52 132,-337 282.09,-343.2 461.39,-348.82 534.03,-351.02"/>
<polygon fill="midnightblue" stroke="midnightblue" points="534.25,-354.53 544.35,-351.33 534.46,-347.53 534.25,-354.53"/>
</g>
<!-- Node84 -->
<g id="node22" class="node">
<title>Node84</title>
<g id="a_node22"><a xlink:href="libbf_8h.html#ac290278d0c37a0e7786873f98aadba47" target="_top" xlink:title=" ">
<polygon fill="none" stroke="red" points="649.5,-418.5 649.5,-437.5 699.5,-437.5 699.5,-418.5 649.5,-418.5"/>
<text text-anchor="middle" x="674.5" y="-425.5" font-family="Helvetica,sans-Serif" font-size="10.00">bf_mul</text>
</a>
</g>
</g>
<!-- Node1&#45;&gt;Node84 -->
<g id="edge43" class="edge">
<title>Node1&#45;&gt;Node84</title>
<path fill="none" stroke="midnightblue" d="M73.25,-342.54C116.76,-358.77 211.24,-390 294,-390 294,-390 294,-390 444.5,-390 514.6,-390 595.17,-407.55 639.61,-418.79"/>
<polygon fill="midnightblue" stroke="midnightblue" points="638.76,-422.19 649.32,-421.29 640.51,-415.41 638.76,-422.19"/>
</g>
<!-- Node86 -->
<g id="node23" class="node">
<title>Node86</title>
<g id="a_node23"><a xlink:href="libbf_8h.html#a1a8b9ac1fea38b97fc6be8663ce9e867" target="_top" xlink:title=" ">
<polygon fill="none" stroke="red" points="771,-532.5 771,-551.5 821,-551.5 821,-532.5 771,-532.5"/>
<text text-anchor="middle" x="796" y="-539.5" font-family="Helvetica,sans-Serif" font-size="10.00">bf_sqrt</text>
</a>
</g>
</g>
<!-- Node1&#45;&gt;Node86 -->
<g id="edge52" class="edge">
<title>Node1&#45;&gt;Node86</title>
<path fill="none" stroke="midnightblue" d="M50.15,-342.96C54.59,-377.37 73.38,-493.03 132,-564 184.73,-627.84 211.2,-656 294,-656 294,-656 294,-656 569,-656 634,-656 656.88,-668.02 714,-637 746.68,-619.25 771.95,-582.61 785.05,-560.38"/>
<polygon fill="midnightblue" stroke="midnightblue" points="788.16,-561.99 790.05,-551.56 782.07,-558.53 788.16,-561.99"/>
</g>
<!-- Node93 -->
<g id="node24" class="node">
<title>Node93</title>
<g id="a_node24"><a xlink:href="libbf_8h.html#adeb14e044b992b09438bbd872831103b" target="_top" xlink:title=" ">
<polygon fill="none" stroke="black" points="141.5,-114.5 141.5,-133.5 194.5,-133.5 194.5,-114.5 141.5,-114.5"/>
<text text-anchor="middle" x="168" y="-121.5" font-family="Helvetica,sans-Serif" font-size="10.00">bf_isqrt</text>
</a>
</g>
</g>
<!-- Node1&#45;&gt;Node93 -->
<g id="edge40" class="edge">
<title>Node1&#45;&gt;Node93</title>
<path fill="none" stroke="midnightblue" d="M51.38,-323.15C58.88,-293.72 84.39,-205.01 132,-148 134.58,-144.91 137.66,-142.04 140.9,-139.44"/>
<polygon fill="midnightblue" stroke="midnightblue" points="143.01,-142.24 149.11,-133.57 138.94,-136.54 143.01,-142.24"/>
</g>
<!-- Node94 -->
<g id="node26" class="node">
<title>Node94</title>
<g id="a_node26"><a xlink:href="libbf_8h.html#ae1d5fe9356228cc3a566786637f26680" target="_top" xlink:title=" ">
<polygon fill="none" stroke="black" points="756,-304.5 756,-323.5 836,-323.5 836,-304.5 756,-304.5"/>
<text text-anchor="middle" x="796" y="-311.5" font-family="Helvetica,sans-Serif" font-size="10.00">bf_mul_2exp</text>
</a>
</g>
</g>
<!-- Node1&#45;&gt;Node94 -->
<g id="edge44" class="edge">
<title>Node1&#45;&gt;Node94</title>
<path fill="none" stroke="midnightblue" d="M49.67,-323.21C52.56,-288.41 67.02,-169.29 132,-105 186.26,-51.32 217.67,-48 294,-48 294,-48 294,-48 569,-48 638.24,-48 665.15,-55.92 714,-105 767.95,-159.21 786.8,-253.35 792.65,-294.18"/>
<polygon fill="midnightblue" stroke="midnightblue" points="789.2,-294.74 793.97,-304.2 796.13,-293.83 789.2,-294.74"/>
</g>
<!-- Node95 -->
<g id="node28" class="node">
<title>Node95</title>
<g id="a_node28"><a xlink:href="libbf_8h.html#aa561bc5220ec0489f4d3e59789d43d26" target="_top" xlink:title=" ">
<polygon fill="none" stroke="black" points="143,-0.5 143,-19.5 193,-19.5 193,-0.5 143,-0.5"/>
<text text-anchor="middle" x="168" y="-7.5" font-family="Helvetica,sans-Serif" font-size="10.00">bf_neg</text>
</a>
</g>
</g>
<!-- Node1&#45;&gt;Node95 -->
<g id="edge48" class="edge">
<title>Node1&#45;&gt;Node95</title>
<path fill="none" stroke="midnightblue" d="M49.34,-323.46C51.17,-284.01 62.64,-131.1 132,-34 134.18,-30.94 136.89,-28.15 139.82,-25.64"/>
<polygon fill="midnightblue" stroke="midnightblue" points="141.94,-28.42 147.89,-19.66 137.77,-22.8 141.94,-28.42"/>
</g>
<!-- Node3 -->
<g id="node3" class="node">
<title>Node3</title>
<g id="a_node3"><a xlink:href="libbf_8c.html#a951a1d3ebb338129d86e00f51b47f2ee" target="_top" xlink:title=" ">
<polygon fill="none" stroke="black" points="644.5,-266.5 644.5,-285.5 704.5,-285.5 704.5,-266.5 644.5,-266.5"/>
<text text-anchor="middle" x="674.5" y="-273.5" font-family="Helvetica,sans-Serif" font-size="10.00">__bf_add</text>
</a>
</g>
</g>
<!-- Node2&#45;&gt;Node3 -->
<g id="edge2" class="edge">
<title>Node2&#45;&gt;Node3</title>
<path fill="none" stroke="midnightblue" d="M593.24,-276C605.34,-276 620.3,-276 634.01,-276"/>
<polygon fill="midnightblue" stroke="midnightblue" points="634.18,-279.5 644.18,-276 634.18,-272.5 634.18,-279.5"/>
</g>
<!-- Node26 -->
<g id="node8" class="node">
<title>Node26</title>
<g id="a_node8"><a xlink:href="libbf_8c.html#a3ebbc1c7473b2ad84ced2b263bf38bae" target="_top" xlink:title=" ">
<polygon fill="none" stroke="black" points="649.5,-304.5 649.5,-323.5 699.5,-323.5 699.5,-304.5 649.5,-304.5"/>
<text text-anchor="middle" x="674.5" y="-311.5" font-family="Helvetica,sans-Serif" font-size="10.00">bf_op2</text>
</a>
</g>
</g>
<!-- Node2&#45;&gt;Node26 -->
<g id="edge7" class="edge">
<title>Node2&#45;&gt;Node26</title>
<path fill="none" stroke="midnightblue" d="M593.24,-284.81C607.09,-289.85 624.66,-296.24 639.83,-301.76"/>
<polygon fill="midnightblue" stroke="midnightblue" points="638.8,-305.11 649.39,-305.23 641.19,-298.53 638.8,-305.11"/>
</g>
<!-- Node4 -->
<g id="node4" class="node">
<title>Node4</title>
<g id="a_node4"><a xlink:href="libbf_8c.html#aaebd1df91497246cd81f23918af58d33" target="_top" xlink:title=" ">
<polygon fill="none" stroke="red" points="750,-342.5 750,-361.5 842,-361.5 842,-342.5 750,-342.5"/>
<text text-anchor="middle" x="796" y="-349.5" font-family="Helvetica,sans-Serif" font-size="10.00">bf_add_internal</text>
</a>
</g>
</g>
<!-- Node3&#45;&gt;Node4 -->
<g id="edge3" class="edge">
<title>Node3&#45;&gt;Node4</title>
<path fill="none" stroke="midnightblue" d="M698.27,-285.57C703.64,-288.28 709.2,-291.46 714,-295 732.72,-308.81 730.88,-319.75 750,-333 752.57,-334.78 755.32,-336.44 758.17,-337.98"/>
<polygon fill="midnightblue" stroke="midnightblue" points="756.88,-341.24 767.4,-342.47 759.94,-334.95 756.88,-341.24"/>
</g>
<!-- Node6 -->
<g id="node5" class="node">
<title>Node6</title>
<g id="a_node5"><a xlink:href="libbf_8h.html#a4954f3435332238433d15977d55ae566" target="_top" xlink:title=" ">
<polygon fill="none" stroke="black" points="886.5,-342.5 886.5,-361.5 939.5,-361.5 939.5,-342.5 886.5,-342.5"/>
<text text-anchor="middle" x="913" y="-349.5" font-family="Helvetica,sans-Serif" font-size="10.00">bf_max</text>
</a>
</g>
</g>
<!-- Node4&#45;&gt;Node6 -->
<g id="edge4" class="edge">
<title>Node4&#45;&gt;Node6</title>
<path fill="none" stroke="midnightblue" d="M842.12,-352C853.35,-352 865.25,-352 875.98,-352"/>
<polygon fill="midnightblue" stroke="midnightblue" points="876.25,-355.5 886.25,-352 876.25,-348.5 876.25,-355.5"/>
</g>
<!-- Node8 -->
<g id="node6" class="node">
<title>Node8</title>
<g id="a_node6"><a xlink:href="libbf_8h.html#a970a1725f8bc59eda655058c5ff6bc52" target="_top" xlink:title=" ">
<polygon fill="none" stroke="black" points="888,-399.5 888,-418.5 938,-418.5 938,-399.5 888,-399.5"/>
<text text-anchor="middle" x="913" y="-406.5" font-family="Helvetica,sans-Serif" font-size="10.00">bf_min</text>
</a>
</g>
</g>
<!-- Node4&#45;&gt;Node8 -->
<g id="edge5" class="edge">
<title>Node4&#45;&gt;Node8</title>
<path fill="none" stroke="midnightblue" d="M821.02,-361.63C827.86,-364.51 835.28,-367.76 842,-371 857.04,-378.24 873.46,-387.1 886.61,-394.44"/>
<polygon fill="midnightblue" stroke="midnightblue" points="885.12,-397.62 895.55,-399.48 888.55,-391.52 885.12,-397.62"/>
</g>
<!-- Node4&#45;&gt;Node23 -->
<g id="edge6" class="edge">
<title>Node4&#45;&gt;Node23</title>
<path fill="none" stroke="midnightblue" d="M829.15,-361.6C833.9,-364.08 838.4,-367.17 842,-371 867.21,-397.81 895.98,-505.16 907.18,-550.08"/>
<polygon fill="midnightblue" stroke="midnightblue" points="903.85,-551.2 909.64,-560.07 910.65,-549.52 903.85,-551.2"/>
</g>
<!-- Node26&#45;&gt;Node27 -->
<g id="edge8" class="edge">
<title>Node26&#45;&gt;Node27</title>
<path fill="none" stroke="midnightblue" d="M695.44,-323.64C701.92,-327.46 708.79,-332.31 714,-338 737.89,-364.1 730.94,-379.19 750,-409 758.89,-422.91 770.47,-437.51 779.65,-448.45"/>
<polygon fill="midnightblue" stroke="midnightblue" points="777.25,-451.03 786.4,-456.36 782.57,-446.48 777.25,-451.03"/>
</g>
<!-- Node28 -->
<g id="node10" class="node">
<title>Node28</title>
<g id="a_node10"><a xlink:href="libbf_8h.html#ad7ab5aff92f4e7e10b2a30e0e6b9226d" target="_top" xlink:title=" ">
<polygon fill="none" stroke="red" points="766.5,-380.5 766.5,-399.5 825.5,-399.5 825.5,-380.5 766.5,-380.5"/>
<text text-anchor="middle" x="796" y="-387.5" font-family="Helvetica,sans-Serif" font-size="10.00">bf_move</text>
</a>
</g>
</g>
<!-- Node26&#45;&gt;Node28 -->
<g id="edge9" class="edge">
<title>Node26&#45;&gt;Node28</title>
<path fill="none" stroke="midnightblue" d="M692.43,-323.63C699.32,-327.78 707.23,-332.85 714,-338 731.28,-351.13 731.74,-359.27 750,-371 752.78,-372.79 755.76,-374.47 758.81,-376.04"/>
<polygon fill="midnightblue" stroke="midnightblue" points="757.52,-379.3 768.06,-380.4 760.51,-372.97 757.52,-379.3"/>
</g>
<!-- Node31&#45;&gt;Node2 -->
<g id="edge11" class="edge">
<title>Node31&#45;&gt;Node2</title>
<path fill="none" stroke="midnightblue" d="M326.8,-309.03C344.17,-306.28 366.28,-302.84 386,-300 437.12,-292.64 496.48,-284.93 532.89,-280.29"/>
<polygon fill="midnightblue" stroke="midnightblue" points="533.49,-283.74 542.97,-279.01 532.61,-276.8 533.49,-283.74"/>
</g>
<!-- Node31&#45;&gt;Node27 -->
<g id="edge14" class="edge">
<title>Node31&#45;&gt;Node27</title>
<path fill="none" stroke="midnightblue" d="M326.66,-310.83C382.5,-306.16 503.79,-301.1 599,-333 673.09,-357.83 745.18,-419.07 777.42,-449"/>
<polygon fill="midnightblue" stroke="midnightblue" points="775.4,-451.91 785.08,-456.22 780.2,-446.81 775.4,-451.91"/>
</g>
<!-- Node31&#45;&gt;Node32 -->
<g id="edge12" class="edge">
<title>Node31&#45;&gt;Node32</title>
<path fill="none" stroke="midnightblue" d="M300.38,-323.54C311.63,-347.14 343.6,-409.09 386,-447 429.17,-485.6 490.84,-513.59 529.89,-528.81"/>
<polygon fill="midnightblue" stroke="midnightblue" points="528.71,-532.11 539.31,-532.41 531.21,-525.57 528.71,-532.11"/>
</g>
<!-- Node31&#45;&gt;Node33 -->
<g id="edge15" class="edge">
<title>Node31&#45;&gt;Node33</title>
<path fill="none" stroke="midnightblue" d="M308.24,-304.48C333.38,-284.91 391.08,-240.01 422.02,-215.94"/>
<polygon fill="midnightblue" stroke="midnightblue" points="424.24,-218.64 429.99,-209.74 419.94,-213.12 424.24,-218.64"/>
</g>
<!-- Node30 -->
<g id="node13" class="node">
<title>Node30</title>
<g id="a_node13"><a xlink:href="libbf_8h.html#a524c9e60866c08c75061626a4b5e2f29" target="_top" xlink:title=" ">
<polygon fill="none" stroke="black" points="642,-532.5 642,-551.5 707,-551.5 707,-532.5 642,-532.5"/>
<text text-anchor="middle" x="674.5" y="-539.5" font-family="Helvetica,sans-Serif" font-size="10.00">bf_realloc</text>
</a>
</g>
</g>
<!-- Node32&#45;&gt;Node30 -->
<g id="edge13" class="edge">
<title>Node32&#45;&gt;Node30</title>
<path fill="none" stroke="midnightblue" d="M599.23,-542C609.37,-542 620.86,-542 631.73,-542"/>
<polygon fill="midnightblue" stroke="midnightblue" points="631.89,-545.5 641.89,-542 631.89,-538.5 631.89,-545.5"/>
</g>
<!-- Node33&#45;&gt;Node34 -->
<g id="edge16" class="edge">
<title>Node33&#45;&gt;Node34</title>
<path fill="none" stroke="midnightblue" d="M473.53,-195.5C489.62,-193 509.85,-189.86 527.37,-187.15"/>
<polygon fill="midnightblue" stroke="midnightblue" points="527.98,-190.59 537.33,-185.6 526.91,-183.68 527.98,-190.59"/>
</g>
<!-- Node21 -->
<g id="node16" class="node">
<title>Node21</title>
<g id="a_node16"><a xlink:href="libbf_8c.html#a3ac3b86cc31b99a551947240e979c5d7" target="_top" xlink:title=" ">
<polygon fill="none" stroke="red" points="659.5,-114.5 659.5,-133.5 689.5,-133.5 689.5,-114.5 659.5,-114.5"/>
<text text-anchor="middle" x="674.5" y="-121.5" font-family="Helvetica,sans-Serif" font-size="10.00">clz</text>
</a>
</g>
</g>
<!-- Node34&#45;&gt;Node21 -->
<g id="edge17" class="edge">
<title>Node34&#45;&gt;Node21</title>
<path fill="none" stroke="midnightblue" d="M586.73,-171.33C604.26,-161.77 631.19,-147.08 650.39,-136.61"/>
<polygon fill="midnightblue" stroke="midnightblue" points="652.28,-139.56 659.38,-131.7 648.92,-133.42 652.28,-139.56"/>
</g>
<!-- Node36 -->
<g id="node18" class="node">
<title>Node36</title>
<g id="a_node18"><a xlink:href="libbf_8c.html#a25b9653cbfca557499e786f8d2a7eb2e" target="_top" xlink:title=" ">
<polygon fill="none" stroke="black" points="240,-418.5 240,-437.5 350,-437.5 350,-418.5 240,-418.5"/>
<text text-anchor="middle" x="295" y="-425.5" font-family="Helvetica,sans-Serif" font-size="10.00">bf_const_pi_signed</text>
</a>
</g>
</g>
<!-- Node35&#45;&gt;Node36 -->
<g id="edge19" class="edge">
<title>Node35&#45;&gt;Node36</title>
<path fill="none" stroke="midnightblue" d="M204.15,-428C212.23,-428 221.07,-428 229.95,-428"/>
<polygon fill="midnightblue" stroke="midnightblue" points="229.96,-431.5 239.96,-428 229.96,-424.5 229.96,-431.5"/>
</g>
<!-- Node37 -->
<g id="node19" class="node">
<title>Node37</title>
<g id="a_node19"><a xlink:href="libbf_8c.html#afad3b4ae5f29e7af0b533bb452a4f36a" target="_top" xlink:title=" ">
<polygon fill="none" stroke="red" points="635,-608.5 635,-627.5 714,-627.5 714,-608.5 635,-608.5"/>
<text text-anchor="middle" x="674.5" y="-615.5" font-family="Helvetica,sans-Serif" font-size="10.00">bf_const_get</text>
</a>
</g>
</g>
<!-- Node36&#45;&gt;Node37 -->
<g id="edge20" class="edge">
<title>Node36&#45;&gt;Node37</title>
<path fill="none" stroke="midnightblue" d="M307.07,-437.55C323.5,-451.42 355.68,-477.4 386,-495 470.82,-544.24 579.1,-585.24 635.49,-605.1"/>
<polygon fill="midnightblue" stroke="midnightblue" points="634.47,-608.46 645.07,-608.45 636.78,-601.85 634.47,-608.46"/>
</g>
<!-- Node39 -->
<g id="node20" class="node">
<title>Node39</title>
<g id="a_node20"><a xlink:href="libbf_8c.html#a11d2dea6becda91c288fd883eefc8e5c" target="_top" xlink:title=" ">
<polygon fill="none" stroke="red" points="386,-418.5 386,-437.5 501,-437.5 501,-418.5 386,-418.5"/>
<text text-anchor="middle" x="443.5" y="-425.5" font-family="Helvetica,sans-Serif" font-size="10.00">bf_const_pi_internal</text>
</a>
</g>
</g>
<!-- Node36&#45;&gt;Node39 -->
<g id="edge23" class="edge">
<title>Node36&#45;&gt;Node39</title>
<path fill="none" stroke="midnightblue" d="M350.13,-428C358.36,-428 366.94,-428 375.4,-428"/>
<polygon fill="midnightblue" stroke="midnightblue" points="375.64,-431.5 385.64,-428 375.64,-424.5 375.64,-431.5"/>
</g>
<!-- Node37&#45;&gt;Node23 -->
<g id="edge22" class="edge">
<title>Node37&#45;&gt;Node23</title>
<path fill="none" stroke="midnightblue" d="M714.02,-610.18C759.97,-600.86 835.98,-585.43 879.23,-576.65"/>
<polygon fill="midnightblue" stroke="midnightblue" points="880.12,-580.04 889.23,-574.62 878.73,-573.18 880.12,-580.04"/>
</g>
<!-- Node37&#45;&gt;Node27 -->
<g id="edge21" class="edge">
<title>Node37&#45;&gt;Node27</title>
<path fill="none" stroke="midnightblue" d="M695.44,-608.36C701.92,-604.54 708.79,-599.69 714,-594 737.89,-567.9 730.94,-552.81 750,-523 758.89,-509.09 770.47,-494.49 779.65,-483.55"/>
<polygon fill="midnightblue" stroke="midnightblue" points="782.57,-485.52 786.4,-475.64 777.25,-480.97 782.57,-485.52"/>
</g>
<!-- Node39&#45;&gt;Node2 -->
<g id="edge24" class="edge">
<title>Node39&#45;&gt;Node2</title>
<path fill="none" stroke="midnightblue" d="M452.16,-418.49C472.27,-393.54 526.79,-325.89 552.81,-293.61"/>
<polygon fill="midnightblue" stroke="midnightblue" points="555.79,-295.49 559.34,-285.5 550.34,-291.09 555.79,-295.49"/>
</g>
<!-- Node39&#45;&gt;Node27 -->
<g id="edge28" class="edge">
<title>Node39&#45;&gt;Node27</title>
<path fill="none" stroke="midnightblue" d="M501.17,-437.1C513,-438.86 525.39,-440.58 537,-442 617.71,-451.85 713.05,-459.76 762.14,-463.55"/>
<polygon fill="midnightblue" stroke="midnightblue" points="761.94,-467.05 772.17,-464.32 762.47,-460.07 761.94,-467.05"/>
</g>
<!-- Node39&#45;&gt;Node32 -->
<g id="edge25" class="edge">
<title>Node39&#45;&gt;Node32</title>
<path fill="none" stroke="midnightblue" d="M465.41,-437.63C476.8,-443.56 490.65,-451.95 501,-462 522.23,-482.61 517.19,-496.02 537,-518 539.44,-520.71 542.21,-523.35 545.05,-525.84"/>
<polygon fill="midnightblue" stroke="midnightblue" points="543.08,-528.75 553.05,-532.35 547.5,-523.32 543.08,-528.75"/>
</g>
<!-- Node39&#45;&gt;Node34 -->
<g id="edge33" class="edge">
<title>Node39&#45;&gt;Node34</title>
<path fill="none" stroke="midnightblue" d="M449.3,-418.32C467.6,-381.43 533.13,-249.29 557.65,-199.85"/>
<polygon fill="midnightblue" stroke="midnightblue" points="560.92,-201.13 562.23,-190.62 554.65,-198.02 560.92,-201.13"/>
</g>
<!-- Node39&#45;&gt;Node40 -->
<g id="edge26" class="edge">
<title>Node39&#45;&gt;Node40</title>
<path fill="none" stroke="midnightblue" d="M460.01,-418.37C480.91,-405.41 518.3,-382.21 542.88,-366.96"/>
<polygon fill="midnightblue" stroke="midnightblue" points="544.96,-369.79 551.61,-361.55 541.27,-363.85 544.96,-369.79"/>
</g>
<!-- Node39&#45;&gt;Node84 -->
<g id="edge29" class="edge">
<title>Node39&#45;&gt;Node84</title>
<path fill="none" stroke="midnightblue" d="M501.11,-428C544.38,-428 602.63,-428 639.12,-428"/>
<polygon fill="midnightblue" stroke="midnightblue" points="639.26,-431.5 649.26,-428 639.26,-424.5 639.26,-431.5"/>
</g>
<!-- Node39&#45;&gt;Node86 -->
<g id="edge34" class="edge">
<title>Node39&#45;&gt;Node86</title>
<path fill="none" stroke="midnightblue" d="M483.65,-437.53C489.51,-439.2 495.45,-441.04 501,-443 517.51,-448.82 520.64,-452.75 537,-459 616,-489.16 711.23,-517.88 760.97,-532.32"/>
<polygon fill="midnightblue" stroke="midnightblue" points="760.29,-535.76 770.87,-535.18 762.24,-529.04 760.29,-535.76"/>
</g>
<!-- Node40&#45;&gt;Node26 -->
<g id="edge27" class="edge">
<title>Node40&#45;&gt;Node26</title>
<path fill="none" stroke="midnightblue" d="M591.67,-343.75C605.79,-338.62 624.21,-331.93 639.99,-326.19"/>
<polygon fill="midnightblue" stroke="midnightblue" points="641.21,-329.46 649.41,-322.76 638.82,-322.89 641.21,-329.46"/>
</g>
<!-- Node84&#45;&gt;Node8 -->
<g id="edge31" class="edge">
<title>Node84&#45;&gt;Node8</title>
<path fill="none" stroke="midnightblue" d="M699.92,-426.04C742.25,-422.64 829.35,-415.64 877.72,-411.75"/>
<polygon fill="midnightblue" stroke="midnightblue" points="878.03,-415.24 887.71,-410.95 877.47,-408.26 878.03,-415.24"/>
</g>
<!-- Node84&#45;&gt;Node27 -->
<g id="edge30" class="edge">
<title>Node84&#45;&gt;Node27</title>
<path fill="none" stroke="midnightblue" d="M699.68,-435.69C717.89,-441.48 743.01,-449.47 762.9,-455.79"/>
<polygon fill="midnightblue" stroke="midnightblue" points="761.88,-459.14 772.47,-458.84 764,-452.47 761.88,-459.14"/>
</g>
<!-- Node84&#45;&gt;Node28 -->
<g id="edge32" class="edge">
<title>Node84&#45;&gt;Node28</title>
<path fill="none" stroke="midnightblue" d="M699.68,-420.31C715.99,-415.13 737.84,-408.18 756.51,-402.24"/>
<polygon fill="midnightblue" stroke="midnightblue" points="757.75,-405.52 766.22,-399.15 755.63,-398.85 757.75,-405.52"/>
</g>
<!-- Node86&#45;&gt;Node8 -->
<g id="edge35" class="edge">
<title>Node86&#45;&gt;Node8</title>
<path fill="none" stroke="midnightblue" d="M805.27,-532.43C824.49,-510.21 872.39,-454.81 896.95,-426.4"/>
<polygon fill="midnightblue" stroke="midnightblue" points="899.6,-428.69 903.49,-418.84 894.31,-424.11 899.6,-428.69"/>
</g>
<!-- Node86&#45;&gt;Node23 -->
<g id="edge36" class="edge">
<title>Node86&#45;&gt;Node23</title>
<path fill="none" stroke="midnightblue" d="M821.11,-547.87C838.11,-552.01 861.08,-557.6 879.67,-562.13"/>
<polygon fill="midnightblue" stroke="midnightblue" points="878.94,-565.55 889.49,-564.52 880.6,-558.75 878.94,-565.55"/>
</g>
<!-- Node93&#45;&gt;Node21 -->
<g id="edge41" class="edge">
<title>Node93&#45;&gt;Node21</title>
<path fill="none" stroke="midnightblue" d="M194.64,-115.4C207.99,-111.37 224.69,-107.01 240,-105 394.63,-84.67 582.66,-109.65 648.95,-119.95"/>
<polygon fill="midnightblue" stroke="midnightblue" points="648.78,-123.46 659.2,-121.58 649.87,-116.55 648.78,-123.46"/>
</g>
<!-- Node91 -->
<g id="node25" class="node">
<title>Node91</title>
<g id="a_node25"><a xlink:href="libbf_8c.html#a330a55c024556edc2d372f8b49c18499" target="_top" xlink:title=" ">
<polygon fill="none" stroke="black" points="254,-114.5 254,-133.5 336,-133.5 336,-114.5 254,-114.5"/>
<text text-anchor="middle" x="295" y="-121.5" font-family="Helvetica,sans-Serif" font-size="10.00">mp_sqrtrem1</text>
</a>
</g>
</g>
<!-- Node93&#45;&gt;Node91 -->
<g id="edge42" class="edge">
<title>Node93&#45;&gt;Node91</title>
<path fill="none" stroke="midnightblue" d="M194.6,-124C208.67,-124 226.64,-124 243.42,-124"/>
<polygon fill="midnightblue" stroke="midnightblue" points="243.67,-127.5 253.67,-124 243.67,-120.5 243.67,-127.5"/>
</g>
<!-- Node94&#45;&gt;Node6 -->
<g id="edge46" class="edge">
<title>Node94&#45;&gt;Node6</title>
<path fill="none" stroke="midnightblue" d="M826.02,-323.59C841.34,-328.65 860.26,-334.9 876.46,-340.26"/>
<polygon fill="midnightblue" stroke="midnightblue" points="875.54,-343.64 886.13,-343.45 877.73,-336.99 875.54,-343.64"/>
</g>
<!-- Node94&#45;&gt;Node8 -->
<g id="edge47" class="edge">
<title>Node94&#45;&gt;Node8</title>
<path fill="none" stroke="midnightblue" d="M825.11,-323.68C830.94,-326.28 836.87,-329.39 842,-333 845.22,-335.26 876.95,-370.17 896.57,-391.88"/>
<polygon fill="midnightblue" stroke="midnightblue" points="894.11,-394.38 903.41,-399.46 899.31,-389.69 894.11,-394.38"/>
</g>
<!-- Node10 -->
<g id="node27" class="node">
<title>Node10</title>
<g id="a_node27"><a xlink:href="libbf_8c.html#a5a13527071b5331585beae41a51ed3c2" target="_top" xlink:title=" ">
<polygon fill="none" stroke="red" points="878,-304.5 878,-323.5 948,-323.5 948,-304.5 878,-304.5"/>
<text text-anchor="middle" x="913" y="-311.5" font-family="Helvetica,sans-Serif" font-size="10.00">__bf_round</text>
</a>
</g>
</g>
<!-- Node94&#45;&gt;Node10 -->
<g id="edge45" class="edge">
<title>Node94&#45;&gt;Node10</title>
<path fill="none" stroke="midnightblue" d="M836.25,-314C846.41,-314 857.4,-314 867.79,-314"/>
<polygon fill="midnightblue" stroke="midnightblue" points="867.91,-317.5 877.91,-314 867.91,-310.5 867.91,-317.5"/>
</g>
</g>
</svg>
