<?xml version="1.0" encoding="UTF-8" standalone="no"?>
<!DOCTYPE svg PUBLIC "-//W3C//DTD SVG 1.1//EN"
 "http://www.w3.org/Graphics/SVG/1.1/DTD/svg11.dtd">
<!-- Generated by graphviz version 2.43.0 (0)
 -->
<!-- Title: bf_pow_ui Pages: 1 -->
<svg width="663pt" height="749pt"
 viewBox="0.00 0.00 663.00 749.00" xmlns="http://www.w3.org/2000/svg" xmlns:xlink="http://www.w3.org/1999/xlink">
<g id="graph0" class="graph" transform="scale(1 1) rotate(0) translate(4 745)">
<title>bf_pow_ui</title>
<!-- Node1 -->
<g id="node1" class="node">
<title>Node1</title>
<g id="a_node1"><a xlink:title=" ">
<polygon fill="#bfbfbf" stroke="black" points="0,-57.5 0,-76.5 66,-76.5 66,-57.5 0,-57.5"/>
<text text-anchor="middle" x="33" y="-64.5" font-family="Helvetica,sans-Serif" font-size="10.00">bf_pow_ui</text>
</a>
</g>
</g>
<!-- Node2 -->
<g id="node2" class="node">
<title>Node2</title>
<g id="a_node2"><a xlink:href="libbf_8h.html#ac290278d0c37a0e7786873f98aadba47" target="_top" xlink:title=" ">
<polygon fill="none" stroke="black" points="102,-304.5 102,-323.5 152,-323.5 152,-304.5 102,-304.5"/>
<text text-anchor="middle" x="127" y="-311.5" font-family="Helvetica,sans-Serif" font-size="10.00">bf_mul</text>
</a>
</g>
</g>
<!-- Node1&#45;&gt;Node2 -->
<g id="edge1" class="edge">
<title>Node1&#45;&gt;Node2</title>
<path fill="none" stroke="midnightblue" d="M37.61,-76.68C51.32,-113.49 100.36,-245.16 118.86,-294.84"/>
<polygon fill="midnightblue" stroke="midnightblue" points="115.65,-296.23 122.42,-304.38 122.21,-293.79 115.65,-296.23"/>
</g>
<!-- Node21 -->
<g id="node11" class="node">
<title>Node21</title>
<g id="a_node11"><a xlink:href="libbf_8c.html#a3ac3b86cc31b99a551947240e979c5d7" target="_top" xlink:title=" ">
<polygon fill="none" stroke="red" points="390,-38.5 390,-57.5 420,-57.5 420,-38.5 390,-38.5"/>
<text text-anchor="middle" x="405" y="-45.5" font-family="Helvetica,sans-Serif" font-size="10.00">clz</text>
</a>
</g>
</g>
<!-- Node1&#45;&gt;Node21 -->
<g id="edge43" class="edge">
<title>Node1&#45;&gt;Node21</title>
<path fill="none" stroke="midnightblue" d="M66.19,-65.35C138.98,-61.61 314.96,-52.57 379.63,-49.25"/>
<polygon fill="midnightblue" stroke="midnightblue" points="379.89,-52.74 389.7,-48.73 379.53,-45.75 379.89,-52.74"/>
</g>
<!-- Node51 -->
<g id="node24" class="node">
<title>Node51</title>
<g id="a_node24"><a xlink:href="libbf_8h.html#ae019ee8073f4359da157d3b1e5fdba7e" target="_top" xlink:title=" ">
<polygon fill="none" stroke="black" points="233,-0.5 233,-19.5 280,-19.5 280,-0.5 233,-0.5"/>
<text text-anchor="middle" x="256.5" y="-7.5" font-family="Helvetica,sans-Serif" font-size="10.00">bf_set</text>
</a>
</g>
</g>
<!-- Node1&#45;&gt;Node51 -->
<g id="edge36" class="edge">
<title>Node1&#45;&gt;Node51</title>
<path fill="none" stroke="midnightblue" d="M50.2,-57.43C63.63,-49.93 83.47,-39.8 102,-34 142.59,-21.29 191.41,-15.13 222.92,-12.28"/>
<polygon fill="midnightblue" stroke="midnightblue" points="223.24,-15.76 232.91,-11.43 222.65,-8.79 223.24,-15.76"/>
</g>
<!-- Node52 -->
<g id="node25" class="node">
<title>Node52</title>
<g id="a_node25"><a xlink:href="libbf_8h.html#a2378f025beace5741c19bf995c2971d3" target="_top" xlink:title=" ">
<polygon fill="none" stroke="black" points="226,-76.5 226,-95.5 287,-95.5 287,-76.5 226,-76.5"/>
<text text-anchor="middle" x="256.5" y="-83.5" font-family="Helvetica,sans-Serif" font-size="10.00">bf_set_ui</text>
</a>
</g>
</g>
<!-- Node1&#45;&gt;Node52 -->
<g id="edge39" class="edge">
<title>Node1&#45;&gt;Node52</title>
<path fill="none" stroke="midnightblue" d="M66.21,-69.76C105.78,-73.16 172.91,-78.92 215.68,-82.58"/>
<polygon fill="midnightblue" stroke="midnightblue" points="215.47,-86.08 225.74,-83.45 216.07,-79.1 215.47,-86.08"/>
</g>
<!-- Node3 -->
<g id="node3" class="node">
<title>Node3</title>
<g id="a_node3"><a xlink:href="libbf_8h.html#abacc1410890af049e02ebd788364ac48" target="_top" xlink:title=" ">
<polygon fill="none" stroke="black" points="233,-380.5 233,-399.5 280,-399.5 280,-380.5 233,-380.5"/>
<text text-anchor="middle" x="256.5" y="-387.5" font-family="Helvetica,sans-Serif" font-size="10.00">bf_init</text>
</a>
</g>
</g>
<!-- Node2&#45;&gt;Node3 -->
<g id="edge2" class="edge">
<title>Node2&#45;&gt;Node3</title>
<path fill="none" stroke="midnightblue" d="M136.91,-323.67C147.94,-335.14 167.76,-354.2 188,-366 198.8,-372.3 211.53,-377.35 223.01,-381.17"/>
<polygon fill="midnightblue" stroke="midnightblue" points="222.1,-384.55 232.69,-384.2 224.2,-377.87 222.1,-384.55"/>
</g>
<!-- Node4 -->
<g id="node4" class="node">
<title>Node4</title>
<g id="a_node4"><a xlink:href="libbf_8h.html#a970a1725f8bc59eda655058c5ff6bc52" target="_top" xlink:title=" ">
<polygon fill="none" stroke="black" points="496.5,-456.5 496.5,-475.5 546.5,-475.5 546.5,-456.5 496.5,-456.5"/>
<text text-anchor="middle" x="521.5" y="-463.5" font-family="Helvetica,sans-Serif" font-size="10.00">bf_min</text>
</a>
</g>
</g>
<!-- Node2&#45;&gt;Node4 -->
<g id="edge3" class="edge">
<title>Node2&#45;&gt;Node4</title>
<path fill="none" stroke="midnightblue" d="M152.46,-319.91C217.9,-335.93 395.66,-380.88 449,-409 469.23,-419.67 489.34,-436.39 503.06,-448.96"/>
<polygon fill="midnightblue" stroke="midnightblue" points="501.03,-451.86 510.71,-456.17 505.83,-446.77 501.03,-451.86"/>
</g>
<!-- Node5 -->
<g id="node5" class="node">
<title>Node5</title>
<g id="a_node5"><a xlink:href="libbf_8h.html#ad7ab5aff92f4e7e10b2a30e0e6b9226d" target="_top" xlink:title=" ">
<polygon fill="none" stroke="black" points="227,-721.5 227,-740.5 286,-740.5 286,-721.5 227,-721.5"/>
<text text-anchor="middle" x="256.5" y="-728.5" font-family="Helvetica,sans-Serif" font-size="10.00">bf_move</text>
</a>
</g>
</g>
<!-- Node2&#45;&gt;Node5 -->
<g id="edge4" class="edge">
<title>Node2&#45;&gt;Node5</title>
<path fill="none" stroke="midnightblue" d="M128.41,-323.67C130.8,-376.52 144.46,-630.37 188,-693 195.26,-703.44 206.36,-711.35 217.48,-717.18"/>
<polygon fill="midnightblue" stroke="midnightblue" points="216.2,-720.44 226.73,-721.59 219.21,-714.13 216.2,-720.44"/>
</g>
<!-- Node8 -->
<g id="node7" class="node">
<title>Node8</title>
<g id="a_node7"><a xlink:href="libbf_8h.html#ae822c0888d26739bb681dfef282b9150" target="_top" xlink:title=" ">
<polygon fill="none" stroke="black" points="188,-247.5 188,-266.5 325,-266.5 325,-247.5 188,-247.5"/>
<text text-anchor="middle" x="256.5" y="-254.5" font-family="Helvetica,sans-Serif" font-size="10.00">bf_normalize_and_round</text>
</a>
</g>
</g>
<!-- Node2&#45;&gt;Node8 -->
<g id="edge6" class="edge">
<title>Node2&#45;&gt;Node8</title>
<path fill="none" stroke="midnightblue" d="M149.34,-304.46C170.03,-295.21 201.61,-281.09 224.96,-270.65"/>
<polygon fill="midnightblue" stroke="midnightblue" points="226.39,-273.85 234.09,-266.57 223.53,-267.46 226.39,-273.85"/>
</g>
<!-- Node16 -->
<g id="node9" class="node">
<title>Node16</title>
<g id="a_node9"><a xlink:href="libbf_8h.html#ab51c43b22c1a81c789ee0e3d53c0e585" target="_top" xlink:title=" ">
<polygon fill="none" stroke="black" points="594,-190.5 594,-209.5 655,-209.5 655,-190.5 594,-190.5"/>
<text text-anchor="middle" x="624.5" y="-197.5" font-family="Helvetica,sans-Serif" font-size="10.00">bf_resize</text>
</a>
</g>
</g>
<!-- Node2&#45;&gt;Node16 -->
<g id="edge13" class="edge">
<title>Node2&#45;&gt;Node16</title>
<path fill="none" stroke="midnightblue" d="M152.35,-316.36C220.42,-321.9 416.95,-330.46 558,-262 579,-251.81 597.75,-232.47 609.75,-218.08"/>
<polygon fill="midnightblue" stroke="midnightblue" points="612.79,-219.89 616.31,-209.89 607.33,-215.51 612.79,-219.89"/>
</g>
<!-- Node20 -->
<g id="node10" class="node">
<title>Node20</title>
<g id="a_node10"><a xlink:href="libbf_8h.html#a66631c65c00e92a5840a5085a009602d" target="_top" xlink:title=" ">
<polygon fill="none" stroke="black" points="485,-190.5 485,-209.5 558,-209.5 558,-190.5 485,-190.5"/>
<text text-anchor="middle" x="521.5" y="-197.5" font-family="Helvetica,sans-Serif" font-size="10.00">bf_set_zero</text>
</a>
</g>
</g>
<!-- Node2&#45;&gt;Node20 -->
<g id="edge18" class="edge">
<title>Node2&#45;&gt;Node20</title>
<path fill="none" stroke="midnightblue" d="M132.47,-304.28C140.77,-287.52 160.24,-253.46 188,-238 279.55,-187.01 407.13,-189.01 474.54,-194.64"/>
<polygon fill="midnightblue" stroke="midnightblue" points="474.55,-198.15 484.83,-195.56 475.18,-191.18 474.55,-198.15"/>
</g>
<!-- Node18 -->
<g id="node12" class="node">
<title>Node18</title>
<g id="a_node12"><a xlink:href="libbf_8h.html#a88d3dcee173f1e4fd4e55000edb04595" target="_top" xlink:title=" ">
<polygon fill="none" stroke="black" points="489,-152.5 489,-171.5 554,-171.5 554,-152.5 489,-152.5"/>
<text text-anchor="middle" x="521.5" y="-159.5" font-family="Helvetica,sans-Serif" font-size="10.00">bf_set_inf</text>
</a>
</g>
</g>
<!-- Node2&#45;&gt;Node18 -->
<g id="edge14" class="edge">
<title>Node2&#45;&gt;Node18</title>
<path fill="none" stroke="midnightblue" d="M129.57,-304.49C133.98,-281.13 148.82,-220.89 188,-194 276.5,-133.25 410.85,-143.62 478.48,-154.02"/>
<polygon fill="midnightblue" stroke="midnightblue" points="478.31,-157.54 488.74,-155.68 479.43,-150.63 478.31,-157.54"/>
</g>
<!-- Node19 -->
<g id="node13" class="node">
<title>Node19</title>
<g id="a_node13"><a xlink:href="libbf_8h.html#aa6282c789c16c8cf2fe6a8ebd671c6fc" target="_top" xlink:title=" ">
<polygon fill="none" stroke="black" points="370,-114.5 370,-133.5 440,-133.5 440,-114.5 370,-114.5"/>
<text text-anchor="middle" x="405" y="-121.5" font-family="Helvetica,sans-Serif" font-size="10.00">bf_set_nan</text>
</a>
</g>
</g>
<!-- Node2&#45;&gt;Node19 -->
<g id="edge16" class="edge">
<title>Node2&#45;&gt;Node19</title>
<path fill="none" stroke="midnightblue" d="M128.2,-304.12C129.38,-274.84 137.21,-188.02 188,-148 236.87,-109.49 312.41,-110.64 359.97,-116.33"/>
<polygon fill="midnightblue" stroke="midnightblue" points="359.6,-119.81 369.97,-117.64 360.51,-112.87 359.6,-119.81"/>
</g>
<!-- Node23 -->
<g id="node14" class="node">
<title>Node23</title>
<g id="a_node14"><a xlink:href="libbf_8c.html#aced93436f1e8ca41feb00d8070cfcbde" target="_top" xlink:title=" ">
<polygon fill="none" stroke="black" points="231,-484.5 231,-503.5 282,-503.5 282,-484.5 231,-484.5"/>
<text text-anchor="middle" x="256.5" y="-491.5" font-family="Helvetica,sans-Serif" font-size="10.00">fft_mul</text>
</a>
</g>
</g>
<!-- Node2&#45;&gt;Node23 -->
<g id="edge19" class="edge">
<title>Node2&#45;&gt;Node23</title>
<path fill="none" stroke="midnightblue" d="M133.63,-323.66C143.89,-341.09 166.55,-378.78 188,-409 205.09,-433.08 226.55,-459.52 240.62,-476.42"/>
<polygon fill="midnightblue" stroke="midnightblue" points="238.14,-478.91 247.25,-484.32 243.5,-474.41 238.14,-478.91"/>
</g>
<!-- Node48 -->
<g id="node21" class="node">
<title>Node48</title>
<g id="a_node21"><a xlink:href="libbf_8c.html#a76a4161d6e245f8cb27f556b6b76a29b" target="_top" xlink:title=" ">
<polygon fill="none" stroke="black" points="203,-664.5 203,-683.5 310,-683.5 310,-664.5 203,-664.5"/>
<text text-anchor="middle" x="256.5" y="-671.5" font-family="Helvetica,sans-Serif" font-size="10.00">mp_mul_basecase</text>
</a>
</g>
</g>
<!-- Node2&#45;&gt;Node48 -->
<g id="edge33" class="edge">
<title>Node2&#45;&gt;Node48</title>
<path fill="none" stroke="midnightblue" d="M130.52,-323.64C138.19,-352.62 162.26,-441.35 188,-513 206.79,-565.31 233.3,-625.29 246.82,-655.11"/>
<polygon fill="midnightblue" stroke="midnightblue" points="243.7,-656.69 251.03,-664.34 250.07,-653.79 243.7,-656.69"/>
</g>
<!-- Node6 -->
<g id="node6" class="node">
<title>Node6</title>
<g id="a_node6"><a xlink:href="libbf_8h.html#ab8c991bf0d1ab72d676d3c9c3d63c2a7" target="_top" xlink:title=" ">
<polygon fill="none" stroke="red" points="496,-683.5 496,-702.5 547,-702.5 547,-683.5 496,-683.5"/>
<text text-anchor="middle" x="521.5" y="-690.5" font-family="Helvetica,sans-Serif" font-size="10.00">bf_free</text>
</a>
</g>
</g>
<!-- Node5&#45;&gt;Node6 -->
<g id="edge5" class="edge">
<title>Node5&#45;&gt;Node6</title>
<path fill="none" stroke="midnightblue" d="M286.25,-735.27C324.18,-739.93 392.71,-745.03 449,-731 466.84,-726.55 485.12,-716.73 498.73,-708.18"/>
<polygon fill="midnightblue" stroke="midnightblue" points="500.89,-710.95 507.34,-702.55 497.06,-705.1 500.89,-710.95"/>
</g>
<!-- Node9 -->
<g id="node8" class="node">
<title>Node9</title>
<g id="a_node8"><a xlink:href="libbf_8c.html#a5a13527071b5331585beae41a51ed3c2" target="_top" xlink:title=" ">
<polygon fill="none" stroke="red" points="370,-228.5 370,-247.5 440,-247.5 440,-228.5 370,-228.5"/>
<text text-anchor="middle" x="405" y="-235.5" font-family="Helvetica,sans-Serif" font-size="10.00">__bf_round</text>
</a>
</g>
</g>
<!-- Node8&#45;&gt;Node9 -->
<g id="edge7" class="edge">
<title>Node8&#45;&gt;Node9</title>
<path fill="none" stroke="midnightblue" d="M325.18,-248.22C336.88,-246.71 348.77,-245.16 359.65,-243.75"/>
<polygon fill="midnightblue" stroke="midnightblue" points="360.27,-247.2 369.74,-242.44 359.37,-240.26 360.27,-247.2"/>
</g>
<!-- Node8&#45;&gt;Node16 -->
<g id="edge11" class="edge">
<title>Node8&#45;&gt;Node16</title>
<path fill="none" stroke="midnightblue" d="M325.08,-263.77C387.5,-267.54 481.79,-266.85 558,-239 573.8,-233.22 590.07,-223.57 602.43,-215.31"/>
<polygon fill="midnightblue" stroke="midnightblue" points="604.44,-218.17 610.69,-209.61 600.47,-212.41 604.44,-218.17"/>
</g>
<!-- Node8&#45;&gt;Node21 -->
<g id="edge12" class="edge">
<title>Node8&#45;&gt;Node21</title>
<path fill="none" stroke="midnightblue" d="M263.88,-247.28C279.86,-223.02 323.05,-157.93 361,-105 370.58,-91.65 381.76,-76.84 390.33,-65.66"/>
<polygon fill="midnightblue" stroke="midnightblue" points="393.23,-67.64 396.55,-57.58 387.68,-63.37 393.23,-67.64"/>
</g>
<!-- Node9&#45;&gt;Node16 -->
<g id="edge8" class="edge">
<title>Node9&#45;&gt;Node16</title>
<path fill="none" stroke="midnightblue" d="M440.06,-235.29C471.03,-232.47 517.89,-227.27 558,-219 566.67,-217.21 575.86,-214.85 584.53,-212.4"/>
<polygon fill="midnightblue" stroke="midnightblue" points="585.79,-215.68 594.4,-209.51 583.82,-208.96 585.79,-215.68"/>
</g>
<!-- Node9&#45;&gt;Node20 -->
<g id="edge9" class="edge">
<title>Node9&#45;&gt;Node20</title>
<path fill="none" stroke="midnightblue" d="M434.89,-228.41C449.13,-223.69 466.5,-217.92 481.86,-212.82"/>
<polygon fill="midnightblue" stroke="midnightblue" points="483.23,-216.06 491.62,-209.59 481.02,-209.41 483.23,-216.06"/>
</g>
<!-- Node20&#45;&gt;Node16 -->
<g id="edge10" class="edge">
<title>Node20&#45;&gt;Node16</title>
<path fill="none" stroke="midnightblue" d="M558.11,-200C566.43,-200 575.34,-200 583.82,-200"/>
<polygon fill="midnightblue" stroke="midnightblue" points="583.88,-203.5 593.88,-200 583.88,-196.5 583.88,-203.5"/>
</g>
<!-- Node18&#45;&gt;Node16 -->
<g id="edge15" class="edge">
<title>Node18&#45;&gt;Node16</title>
<path fill="none" stroke="midnightblue" d="M547.99,-171.59C560.31,-176.22 575.28,-181.86 588.64,-186.89"/>
<polygon fill="midnightblue" stroke="midnightblue" points="587.43,-190.17 598.02,-190.41 589.89,-183.62 587.43,-190.17"/>
</g>
<!-- Node19&#45;&gt;Node16 -->
<g id="edge17" class="edge">
<title>Node19&#45;&gt;Node16</title>
<path fill="none" stroke="midnightblue" d="M440.12,-122.68C471.96,-122.72 520.12,-126.07 558,-143 578.29,-152.07 596.93,-169.59 609.09,-182.83"/>
<polygon fill="midnightblue" stroke="midnightblue" points="606.54,-185.22 615.79,-190.4 611.79,-180.59 606.54,-185.22"/>
</g>
<!-- Node23&#45;&gt;Node16 -->
<g id="edge22" class="edge">
<title>Node23&#45;&gt;Node16</title>
<path fill="none" stroke="midnightblue" d="M267.03,-484.48C284.44,-467.51 323.08,-431.67 361,-409 442.25,-360.42 488.34,-392.11 558,-328 590.92,-297.7 609.85,-247.1 618.24,-219.46"/>
<polygon fill="midnightblue" stroke="midnightblue" points="621.63,-220.35 621.03,-209.77 614.9,-218.41 621.63,-220.35"/>
</g>
<!-- Node24 -->
<g id="node15" class="node">
<title>Node24</title>
<g id="a_node15"><a xlink:href="libbf_8h.html#a45f0d9e009bdecc62435c9cb87454c3c" target="_top" xlink:title=" ">
<polygon fill="none" stroke="red" points="361,-588.5 361,-607.5 449,-607.5 449,-588.5 361,-588.5"/>
<text text-anchor="middle" x="405" y="-595.5" font-family="Helvetica,sans-Serif" font-size="10.00">bf_get_fft_size</text>
</a>
</g>
</g>
<!-- Node23&#45;&gt;Node24 -->
<g id="edge20" class="edge">
<title>Node23&#45;&gt;Node24</title>
<path fill="none" stroke="midnightblue" d="M267.37,-503.69C285,-520.61 323.58,-555.96 361,-579 363.94,-580.81 367.08,-582.54 370.28,-584.17"/>
<polygon fill="midnightblue" stroke="midnightblue" points="368.77,-587.33 379.31,-588.46 371.78,-581.01 368.77,-587.33"/>
</g>
<!-- Node26 -->
<g id="node16" class="node">
<title>Node26</title>
<g id="a_node16"><a xlink:href="libbf_8c.html#a8b5077cc45bb1f766ed2790be04fbfd9" target="_top" xlink:title=" ">
<polygon fill="none" stroke="red" points="369,-512.5 369,-531.5 441,-531.5 441,-512.5 369,-512.5"/>
<text text-anchor="middle" x="405" y="-519.5" font-family="Helvetica,sans-Serif" font-size="10.00">limb_to_ntt</text>
</a>
</g>
</g>
<!-- Node23&#45;&gt;Node26 -->
<g id="edge23" class="edge">
<title>Node23&#45;&gt;Node26</title>
<path fill="none" stroke="midnightblue" d="M282.02,-498.69C302.93,-502.68 333.52,-508.53 358.84,-513.37"/>
<polygon fill="midnightblue" stroke="midnightblue" points="358.49,-516.86 368.96,-515.3 359.8,-509.99 358.49,-516.86"/>
</g>
<!-- Node30 -->
<g id="node17" class="node">
<title>Node30</title>
<g id="a_node17"><a xlink:href="libbf_8c.html#a6ae58e818e85536ef032aeac42aaa3e0" target="_top" xlink:title=" ">
<polygon fill="none" stroke="red" points="375.5,-456.5 375.5,-475.5 434.5,-475.5 434.5,-456.5 375.5,-456.5"/>
<text text-anchor="middle" x="405" y="-463.5" font-family="Helvetica,sans-Serif" font-size="10.00">ntt_conv</text>
</a>
</g>
</g>
<!-- Node23&#45;&gt;Node30 -->
<g id="edge25" class="edge">
<title>Node23&#45;&gt;Node30</title>
<path fill="none" stroke="midnightblue" d="M282.02,-489.31C304.74,-484.97 338.92,-478.44 365.32,-473.39"/>
<polygon fill="midnightblue" stroke="midnightblue" points="366.21,-476.79 375.38,-471.47 364.9,-469.91 366.21,-476.79"/>
</g>
<!-- Node41 -->
<g id="node18" class="node">
<title>Node41</title>
<g id="a_node18"><a xlink:href="libbf_8c.html#a2606c1668b90ca572fe599c352d3ed83" target="_top" xlink:title=" ">
<polygon fill="none" stroke="black" points="377.5,-626.5 377.5,-645.5 432.5,-645.5 432.5,-626.5 377.5,-626.5"/>
<text text-anchor="middle" x="405" y="-633.5" font-family="Helvetica,sans-Serif" font-size="10.00">ntt_free</text>
</a>
</g>
</g>
<!-- Node23&#45;&gt;Node41 -->
<g id="edge28" class="edge">
<title>Node23&#45;&gt;Node41</title>
<path fill="none" stroke="midnightblue" d="M263.35,-503.59C277.53,-526.14 315.91,-583.17 361,-617 363.33,-618.74 365.84,-620.37 368.44,-621.88"/>
<polygon fill="midnightblue" stroke="midnightblue" points="366.99,-625.07 377.48,-626.55 370.2,-618.85 366.99,-625.07"/>
</g>
<!-- Node43 -->
<g id="node19" class="node">
<title>Node43</title>
<g id="a_node19"><a xlink:href="libbf_8c.html#a268123299eb28c41ec2ead834aa13ae6" target="_top" xlink:title=" ">
<polygon fill="none" stroke="red" points="363.5,-550.5 363.5,-569.5 446.5,-569.5 446.5,-550.5 363.5,-550.5"/>
<text text-anchor="middle" x="405" y="-557.5" font-family="Helvetica,sans-Serif" font-size="10.00">ntt_static_init</text>
</a>
</g>
</g>
<!-- Node23&#45;&gt;Node43 -->
<g id="edge30" class="edge">
<title>Node23&#45;&gt;Node43</title>
<path fill="none" stroke="midnightblue" d="M278.48,-503.6C299.37,-513.15 332.36,-528.17 361,-541 364.85,-542.73 368.91,-544.53 372.92,-546.31"/>
<polygon fill="midnightblue" stroke="midnightblue" points="371.54,-549.53 382.11,-550.38 374.38,-543.13 371.54,-549.53"/>
</g>
<!-- Node45 -->
<g id="node20" class="node">
<title>Node45</title>
<g id="a_node20"><a xlink:href="libbf_8c.html#a4807fe371a7663e3e75a1cf8e07b69eb" target="_top" xlink:title=" ">
<polygon fill="none" stroke="red" points="369,-418.5 369,-437.5 441,-437.5 441,-418.5 369,-418.5"/>
<text text-anchor="middle" x="405" y="-425.5" font-family="Helvetica,sans-Serif" font-size="10.00">ntt_to_limb</text>
</a>
</g>
</g>
<!-- Node23&#45;&gt;Node45 -->
<g id="edge31" class="edge">
<title>Node23&#45;&gt;Node45</title>
<path fill="none" stroke="midnightblue" d="M278.48,-484.4C299.37,-474.85 332.36,-459.83 361,-447 364.85,-445.27 368.91,-443.47 372.92,-441.69"/>
<polygon fill="midnightblue" stroke="midnightblue" points="374.38,-444.87 382.11,-437.62 371.54,-438.47 374.38,-444.87"/>
</g>
<!-- Node24&#45;&gt;Node4 -->
<g id="edge21" class="edge">
<title>Node24&#45;&gt;Node4</title>
<path fill="none" stroke="midnightblue" d="M434.26,-588.39C439.5,-585.84 444.67,-582.73 449,-579 479.77,-552.48 501.89,-509.41 512.8,-484.81"/>
<polygon fill="midnightblue" stroke="midnightblue" points="516.07,-486.08 516.78,-475.5 509.63,-483.32 516.07,-486.08"/>
</g>
<!-- Node26&#45;&gt;Node4 -->
<g id="edge24" class="edge">
<title>Node26&#45;&gt;Node4</title>
<path fill="none" stroke="midnightblue" d="M428.44,-512.4C435.09,-509.46 442.38,-506.17 449,-503 463.91,-495.86 480.31,-487.41 493.63,-480.4"/>
<polygon fill="midnightblue" stroke="midnightblue" points="495.53,-483.36 502.73,-475.58 492.25,-477.17 495.53,-483.36"/>
</g>
<!-- Node30&#45;&gt;Node4 -->
<g id="edge26" class="edge">
<title>Node30&#45;&gt;Node4</title>
<path fill="none" stroke="midnightblue" d="M434.6,-466C450.14,-466 469.47,-466 485.86,-466"/>
<polygon fill="midnightblue" stroke="midnightblue" points="486.14,-469.5 496.14,-466 486.14,-462.5 486.14,-469.5"/>
</g>
<!-- Node30&#45;&gt;Node30 -->
<g id="edge27" class="edge">
<title>Node30&#45;&gt;Node30</title>
<path fill="none" stroke="midnightblue" d="M387.12,-475.76C378.42,-484.57 384.38,-494 405,-494 417.89,-494 425.05,-490.31 426.48,-485.4"/>
<polygon fill="midnightblue" stroke="midnightblue" points="429.66,-483.9 422.88,-475.76 423.1,-486.35 429.66,-483.9"/>
</g>
<!-- Node41&#45;&gt;Node6 -->
<g id="edge29" class="edge">
<title>Node41&#45;&gt;Node6</title>
<path fill="none" stroke="midnightblue" d="M428.46,-645.56C435.12,-648.49 442.39,-651.79 449,-655 464.16,-662.37 480.8,-671.17 494.22,-678.44"/>
<polygon fill="midnightblue" stroke="midnightblue" points="492.89,-681.71 503.34,-683.43 496.25,-675.57 492.89,-681.71"/>
</g>
<!-- Node45&#45;&gt;Node4 -->
<g id="edge32" class="edge">
<title>Node45&#45;&gt;Node4</title>
<path fill="none" stroke="midnightblue" d="M434.89,-437.59C450.58,-442.8 470.08,-449.27 486.5,-454.71"/>
<polygon fill="midnightblue" stroke="midnightblue" points="485.67,-458.13 496.26,-457.96 487.87,-451.48 485.67,-458.13"/>
</g>
<!-- Node49 -->
<g id="node22" class="node">
<title>Node49</title>
<g id="a_node22"><a xlink:href="libbf_8c.html#a62a872522840725ae7ec25e32e170bf5" target="_top" xlink:title=" ">
<polygon fill="none" stroke="black" points="362,-702.5 362,-721.5 448,-721.5 448,-702.5 362,-702.5"/>
<text text-anchor="middle" x="405" y="-709.5" font-family="Helvetica,sans-Serif" font-size="10.00">mp_add_mul1</text>
</a>
</g>
</g>
<!-- Node48&#45;&gt;Node49 -->
<g id="edge34" class="edge">
<title>Node48&#45;&gt;Node49</title>
<path fill="none" stroke="midnightblue" d="M294.47,-683.59C313.63,-688.56 337.21,-694.68 357.59,-699.96"/>
<polygon fill="midnightblue" stroke="midnightblue" points="356.74,-703.36 367.3,-702.48 358.5,-696.58 356.74,-703.36"/>
</g>
<!-- Node50 -->
<g id="node23" class="node">
<title>Node50</title>
<g id="a_node23"><a xlink:href="libbf_8c.html#ab7031190c15de09e33fd25edb433b79a" target="_top" xlink:title=" ">
<polygon fill="none" stroke="black" points="374,-664.5 374,-683.5 436,-683.5 436,-664.5 374,-664.5"/>
<text text-anchor="middle" x="405" y="-671.5" font-family="Helvetica,sans-Serif" font-size="10.00">mp_mul1</text>
</a>
</g>
</g>
<!-- Node48&#45;&gt;Node50 -->
<g id="edge35" class="edge">
<title>Node48&#45;&gt;Node50</title>
<path fill="none" stroke="midnightblue" d="M310.39,-674C327.87,-674 347.03,-674 363.44,-674"/>
<polygon fill="midnightblue" stroke="midnightblue" points="363.78,-677.5 373.78,-674 363.78,-670.5 363.78,-677.5"/>
</g>
<!-- Node51&#45;&gt;Node16 -->
<g id="edge37" class="edge">
<title>Node51&#45;&gt;Node16</title>
<path fill="none" stroke="midnightblue" d="M280.22,-9.24C316.72,-8.69 390.26,-10.31 449,-29 502.11,-45.9 518.12,-52.07 558,-91 585.12,-117.48 605.33,-157.48 615.69,-180.94"/>
<polygon fill="midnightblue" stroke="midnightblue" points="612.61,-182.63 619.75,-190.45 619.05,-179.88 612.61,-182.63"/>
</g>
<!-- Node51&#45;&gt;Node19 -->
<g id="edge38" class="edge">
<title>Node51&#45;&gt;Node19</title>
<path fill="none" stroke="midnightblue" d="M269.74,-19.52C294.88,-39.09 352.58,-83.99 383.52,-108.06"/>
<polygon fill="midnightblue" stroke="midnightblue" points="381.44,-110.88 391.49,-114.26 385.74,-105.36 381.44,-110.88"/>
</g>
<!-- Node52&#45;&gt;Node16 -->
<g id="edge40" class="edge">
<title>Node52&#45;&gt;Node16</title>
<path fill="none" stroke="midnightblue" d="M287.09,-82.42C343.73,-77.02 469.67,-72.19 558,-122 582.81,-135.99 602.32,-163.25 613.39,-181.54"/>
<polygon fill="midnightblue" stroke="midnightblue" points="610.48,-183.51 618.52,-190.41 616.54,-180 610.48,-183.51"/>
</g>
<!-- Node52&#45;&gt;Node21 -->
<g id="edge42" class="edge">
<title>Node52&#45;&gt;Node21</title>
<path fill="none" stroke="midnightblue" d="M287.15,-78.31C314.51,-71.21 354.63,-60.81 380.02,-54.22"/>
<polygon fill="midnightblue" stroke="midnightblue" points="381.12,-57.55 389.92,-51.65 379.37,-50.77 381.12,-57.55"/>
</g>
<!-- Node52&#45;&gt;Node19 -->
<g id="edge41" class="edge">
<title>Node52&#45;&gt;Node19</title>
<path fill="none" stroke="midnightblue" d="M287.15,-93.69C308.07,-99.12 336.46,-106.48 360.01,-112.59"/>
<polygon fill="midnightblue" stroke="midnightblue" points="359.22,-116 369.77,-115.12 360.97,-109.22 359.22,-116"/>
</g>
</g>
</svg>
