<?xml version="1.0" encoding="UTF-8" standalone="no"?>
<!DOCTYPE svg PUBLIC "-//W3C//DTD SVG 1.1//EN"
 "http://www.w3.org/Graphics/SVG/1.1/DTD/svg11.dtd">
<!-- Generated by graphviz version 2.43.0 (0)
 -->
<!-- Title: bf_cmp Pages: 1 -->
<!--zoomable 246 -->
<svg id="main" version="1.1" xmlns="http://www.w3.org/2000/svg" xmlns:xlink="http://www.w3.org/1999/xlink" xml:space="preserve" onload="init(evt)">
<style type="text/css"><![CDATA[
.edge:hover path { stroke: red; }
.edge:hover polygon { stroke: red; fill: red; }
]]></style>
<script type="text/javascript"><![CDATA[
var edges = document.getElementsByTagName('g');
if (edges && edges.length) {
  for (var i=0;i<edges.length;i++) {
    if (edges[i].id.substr(0,4)=='edge') {
      edges[i].setAttribute('class','edge');
    }
  }
}
]]></script>
        <defs>
                <circle id="rim" cx="0" cy="0" r="7"/>
                <circle id="rim2" cx="0" cy="0" r="3.5"/>
                <g id="zoomPlus">
                        <use xlink:href="#rim" fill="#404040">
                                <set attributeName="fill" to="#808080" begin="zoomplus.mouseover" end="zoomplus.mouseout"/>
                        </use>
                        <path d="M-4,0h8M0,-4v8" fill="none" stroke="white" stroke-width="1.5" pointer-events="none"/>
                </g>
                <g id="zoomMin">
                        <use xlink:href="#rim" fill="#404040">
                                <set attributeName="fill" to="#808080" begin="zoomminus.mouseover" end="zoomminus.mouseout"/>
                        </use>
                        <path d="M-4,0h8" fill="none" stroke="white" stroke-width="1.5" pointer-events="none"/>
                </g>
                <g id="dirArrow">
                        <path fill="none" stroke="white" stroke-width="1.5" d="M0,-3.0v7 M-2.5,-0.5L0,-3.0L2.5,-0.5"/>
                </g>
               <g id="resetDef">
                       <use xlink:href="#rim2" fill="#404040">
                               <set attributeName="fill" to="#808080" begin="reset.mouseover" end="reset.mouseout"/>
                       </use>
               </g>
        </defs>

<script type="text/javascript">
var viewWidth = 628;
var viewHeight = 246;
var sectionId = 'dynsection-57';
</script>
<script xlink:href="svgpan.js"/>
<svg id="graph" class="graph">
<g id="viewport">
<title>bf_cmp</title>
<!-- Node1 -->
<g id="node1" class="node">
<title>Node1</title>
<g id="a_node1"><a xlink:title=" ">
<polygon fill="#bfbfbf" stroke="black" points="567,-140.5 567,-159.5 620,-159.5 620,-140.5 567,-140.5"/>
<text text-anchor="middle" x="593.5" y="-147.5" font-family="Helvetica,sans-Serif" font-size="10.00">bf_cmp</text>
</a>
</g>
</g>
<!-- Node2 -->
<g id="node2" class="node">
<title>Node2</title>
<g id="a_node2"><a xlink:href="libbf_8h.html#a78ee01fc94a63c4dc6cf252275f21a77" target="_top" xlink:title=" ">
<polygon fill="none" stroke="black" points="329,-202.5 329,-221.5 399,-221.5 399,-202.5 329,-202.5"/>
<text text-anchor="middle" x="364" y="-209.5" font-family="Helvetica,sans-Serif" font-size="10.00">bf_cmp_eq</text>
</a>
</g>
</g>
<!-- Node1&#45;&gt;Node2 -->
<g id="edge1" class="edge">
<title>Node1&#45;&gt;Node2</title>
<path fill="none" stroke="midnightblue" d="M571.72,-165.83C560.3,-173.74 545.52,-182.72 531,-188 487.21,-203.91 433.31,-209.31 399.05,-211.12"/>
<polygon fill="midnightblue" stroke="midnightblue" points="574.02,-168.48 580.1,-159.8 569.94,-162.8 574.02,-168.48"/>
</g>
<!-- Node6 -->
<g id="node6" class="node">
<title>Node6</title>
<g id="a_node6"><a xlink:href="libbf_8h.html#adfeab40ffdf60f75a5ed33aab5e4a2fd" target="_top" xlink:title=" ">
<polygon fill="none" stroke="black" points="462.5,-159.5 462.5,-178.5 529.5,-178.5 529.5,-159.5 462.5,-159.5"/>
<text text-anchor="middle" x="496" y="-166.5" font-family="Helvetica,sans-Serif" font-size="10.00">bf_cmp_le</text>
</a>
</g>
</g>
<!-- Node1&#45;&gt;Node6 -->
<g id="edge7" class="edge">
<title>Node1&#45;&gt;Node6</title>
<path fill="none" stroke="midnightblue" d="M557.06,-157.05C548.04,-158.85 538.39,-160.77 529.52,-162.53"/>
<polygon fill="midnightblue" stroke="midnightblue" points="557.78,-160.48 566.91,-155.09 556.42,-153.61 557.78,-160.48"/>
</g>
<!-- Node7 -->
<g id="node7" class="node">
<title>Node7</title>
<g id="a_node7"><a xlink:href="libbf_8h.html#a1605a1fe6f0294e38b4da16867bf162f" target="_top" xlink:title=" ">
<polygon fill="none" stroke="black" points="463.5,-121.5 463.5,-140.5 528.5,-140.5 528.5,-121.5 463.5,-121.5"/>
<text text-anchor="middle" x="496" y="-128.5" font-family="Helvetica,sans-Serif" font-size="10.00">bf_cmp_lt</text>
</a>
</g>
</g>
<!-- Node1&#45;&gt;Node7 -->
<g id="edge8" class="edge">
<title>Node1&#45;&gt;Node7</title>
<path fill="none" stroke="midnightblue" d="M556.87,-142.91C547.66,-141.08 537.81,-139.12 528.81,-137.33"/>
<polygon fill="midnightblue" stroke="midnightblue" points="556.42,-146.39 566.91,-144.91 557.78,-139.52 556.42,-146.39"/>
</g>
<!-- Node11 -->
<g id="node11" class="node">
<title>Node11</title>
<g id="a_node11"><a xlink:href="libbf_8h.html#af89ce1e4918c3773780556b2b2e1c24f" target="_top" xlink:title=" ">
<polygon fill="none" stroke="black" points="461,-57.5 461,-76.5 531,-76.5 531,-57.5 461,-57.5"/>
<text text-anchor="middle" x="496" y="-64.5" font-family="Helvetica,sans-Serif" font-size="10.00">bfdec_cmp</text>
</a>
</g>
</g>
<!-- Node1&#45;&gt;Node11 -->
<g id="edge14" class="edge">
<title>Node1&#45;&gt;Node11</title>
<path fill="none" stroke="midnightblue" d="M573.89,-133.82C554.34,-116.83 524.25,-90.68 508.12,-76.67"/>
<polygon fill="midnightblue" stroke="midnightblue" points="571.7,-136.56 581.54,-140.48 576.29,-131.28 571.7,-136.56"/>
</g>
<!-- Node3 -->
<g id="node3" class="node">
<title>Node3</title>
<g id="a_node3"><a xlink:href="libbf_8h.html#a4137b2308536cbc92addaeb3f0c79d35" target="_top" xlink:title=" ">
<polygon fill="none" stroke="black" points="218.5,-180.5 218.5,-199.5 265.5,-199.5 265.5,-180.5 218.5,-180.5"/>
<text text-anchor="middle" x="242" y="-187.5" font-family="Helvetica,sans-Serif" font-size="10.00">bf_log</text>
</a>
</g>
</g>
<!-- Node2&#45;&gt;Node3 -->
<g id="edge2" class="edge">
<title>Node2&#45;&gt;Node3</title>
<path fill="none" stroke="midnightblue" d="M318.89,-203.91C300.85,-200.61 280.74,-196.92 265.76,-194.17"/>
<polygon fill="midnightblue" stroke="midnightblue" points="318.47,-207.39 328.93,-205.75 319.73,-200.51 318.47,-207.39"/>
</g>
<!-- Node4 -->
<g id="node4" class="node">
<title>Node4</title>
<g id="a_node4"><a xlink:href="libbf_8h.html#a93fe073491f8c5f086a75e7bf8865b34" target="_top" xlink:title=" ">
<polygon fill="none" stroke="black" points="0,-177.5 0,-196.5 52,-196.5 52,-177.5 0,-177.5"/>
<text text-anchor="middle" x="26" y="-184.5" font-family="Helvetica,sans-Serif" font-size="10.00">bf_pow</text>
</a>
</g>
</g>
<!-- Node2&#45;&gt;Node4 -->
<g id="edge6" class="edge">
<title>Node2&#45;&gt;Node4</title>
<path fill="none" stroke="midnightblue" d="M318.95,-222.62C263.79,-234 166.95,-247.58 88,-225 68.81,-219.51 49.78,-206.04 38.2,-196.71"/>
<polygon fill="midnightblue" stroke="midnightblue" points="319.7,-226.04 328.75,-220.53 318.24,-219.19 319.7,-226.04"/>
</g>
<!-- Node3&#45;&gt;Node4 -->
<g id="edge3" class="edge">
<title>Node3&#45;&gt;Node4</title>
<path fill="none" stroke="midnightblue" d="M207.97,-188.05C199.2,-187.62 189.75,-187.22 181,-187 135.56,-185.86 82.56,-186.24 52.08,-186.62"/>
<polygon fill="midnightblue" stroke="midnightblue" points="208.05,-191.56 218.22,-188.59 208.42,-184.57 208.05,-191.56"/>
</g>
<!-- Node5 -->
<g id="node5" class="node">
<title>Node5</title>
<g id="a_node5"><a xlink:href="libbf_8c.html#aa28c1603087e2aec25b9bb0dae387875" target="_top" xlink:title=" ">
<polygon fill="none" stroke="black" points="88,-196.5 88,-215.5 181,-215.5 181,-196.5 88,-196.5"/>
<text text-anchor="middle" x="134.5" y="-203.5" font-family="Helvetica,sans-Serif" font-size="10.00">bf_pow_generic</text>
</a>
</g>
</g>
<!-- Node3&#45;&gt;Node5 -->
<g id="edge4" class="edge">
<title>Node3&#45;&gt;Node5</title>
<path fill="none" stroke="midnightblue" d="M208.35,-194.95C199.73,-196.26 190.26,-197.69 181.1,-199.09"/>
<polygon fill="midnightblue" stroke="midnightblue" points="209.01,-198.39 218.37,-193.43 207.96,-191.47 209.01,-198.39"/>
</g>
<!-- Node5&#45;&gt;Node4 -->
<g id="edge5" class="edge">
<title>Node5&#45;&gt;Node4</title>
<path fill="none" stroke="midnightblue" d="M77.66,-196.04C68.74,-194.45 59.92,-192.87 52.21,-191.5"/>
<polygon fill="midnightblue" stroke="midnightblue" points="77.26,-199.52 87.72,-197.83 78.49,-192.63 77.26,-199.52"/>
</g>
<!-- Node8 -->
<g id="node8" class="node">
<title>Node8</title>
<g id="a_node8"><a xlink:href="libbf_8c.html#aab7bc918fdd8dbef25c31c6881c73fdd" target="_top" xlink:title=" ">
<polygon fill="none" stroke="black" points="319.5,-164.5 319.5,-183.5 408.5,-183.5 408.5,-164.5 319.5,-164.5"/>
<text text-anchor="middle" x="364" y="-171.5" font-family="Helvetica,sans-Serif" font-size="10.00">bf_log_internal</text>
</a>
</g>
</g>
<!-- Node7&#45;&gt;Node8 -->
<g id="edge9" class="edge">
<title>Node7&#45;&gt;Node8</title>
<path fill="none" stroke="midnightblue" d="M456.64,-143.69C436.52,-150.34 412.27,-158.37 393.77,-164.48"/>
<polygon fill="midnightblue" stroke="midnightblue" points="457.75,-147.01 466.15,-140.54 455.56,-140.36 457.75,-147.01"/>
</g>
<!-- Node9 -->
<g id="node9" class="node">
<title>Node9</title>
<g id="a_node9"><a xlink:href="libbf_8c.html#aa6e77d8d722e3fd0540ede79a63e352e" target="_top" xlink:title=" ">
<polygon fill="none" stroke="black" points="303,-115 303,-145 425,-145 425,-115 303,-115"/>
<text text-anchor="start" x="311" y="-133" font-family="Helvetica,sans-Serif" font-size="10.00">check_exp_underflow</text>
<text text-anchor="middle" x="364" y="-122" font-family="Helvetica,sans-Serif" font-size="10.00">_overflow</text>
</a>
</g>
</g>
<!-- Node7&#45;&gt;Node9 -->
<g id="edge11" class="edge">
<title>Node7&#45;&gt;Node9</title>
<path fill="none" stroke="midnightblue" d="M453.09,-130.68C444.18,-130.61 434.61,-130.54 425.17,-130.46"/>
<polygon fill="midnightblue" stroke="midnightblue" points="453.17,-134.18 463.2,-130.76 453.23,-127.18 453.17,-134.18"/>
</g>
<!-- Node8&#45;&gt;Node3 -->
<g id="edge10" class="edge">
<title>Node8&#45;&gt;Node3</title>
<path fill="none" stroke="midnightblue" d="M309.34,-181.15C293.95,-183.21 277.99,-185.34 265.58,-186.99"/>
<polygon fill="midnightblue" stroke="midnightblue" points="309.89,-184.61 319.34,-179.82 308.96,-177.67 309.89,-184.61"/>
</g>
<!-- Node9&#45;&gt;Node4 -->
<g id="edge13" class="edge">
<title>Node9&#45;&gt;Node4</title>
<path fill="none" stroke="midnightblue" d="M292.62,-141.94C217.62,-154.66 102.87,-174.13 52.36,-182.7"/>
<polygon fill="midnightblue" stroke="midnightblue" points="293.66,-145.31 302.93,-140.19 292.49,-138.41 293.66,-145.31"/>
</g>
<!-- Node10 -->
<g id="node10" class="node">
<title>Node10</title>
<g id="a_node10"><a xlink:href="libbf_8h.html#a36f22f93ba4258209be035a63b80b87f" target="_top" xlink:title=" ">
<polygon fill="none" stroke="black" points="217,-82.5 217,-101.5 267,-101.5 267,-82.5 217,-82.5"/>
<text text-anchor="middle" x="242" y="-89.5" font-family="Helvetica,sans-Serif" font-size="10.00">bf_exp</text>
</a>
</g>
</g>
<!-- Node9&#45;&gt;Node10 -->
<g id="edge12" class="edge">
<title>Node9&#45;&gt;Node10</title>
<path fill="none" stroke="midnightblue" d="M305.71,-111.86C292.06,-107.54 278.23,-103.15 267.04,-99.61"/>
<polygon fill="midnightblue" stroke="midnightblue" points="304.98,-115.3 315.57,-114.98 307.1,-108.63 304.98,-115.3"/>
</g>
<!-- Node12 -->
<g id="node12" class="node">
<title>Node12</title>
<g id="a_node12"><a xlink:href="libbf_8h.html#a79d38aeb3ad23b5f22209373e2a8eab1" target="_top" xlink:title=" ">
<polygon fill="none" stroke="black" points="320.5,-76.5 320.5,-95.5 407.5,-95.5 407.5,-76.5 320.5,-76.5"/>
<text text-anchor="middle" x="364" y="-83.5" font-family="Helvetica,sans-Serif" font-size="10.00">bfdec_cmp_eq</text>
</a>
</g>
</g>
<!-- Node11&#45;&gt;Node12 -->
<g id="edge15" class="edge">
<title>Node11&#45;&gt;Node12</title>
<path fill="none" stroke="midnightblue" d="M450.58,-73.49C436.73,-75.52 421.5,-77.74 407.77,-79.75"/>
<polygon fill="midnightblue" stroke="midnightblue" points="451.46,-76.9 460.84,-71.99 450.44,-69.98 451.46,-76.9"/>
</g>
<!-- Node13 -->
<g id="node13" class="node">
<title>Node13</title>
<g id="a_node13"><a xlink:href="libbf_8h.html#abf85d0616aad19a1c0dff80906809bc7" target="_top" xlink:title=" ">
<polygon fill="none" stroke="black" points="322,-38.5 322,-57.5 406,-57.5 406,-38.5 322,-38.5"/>
<text text-anchor="middle" x="364" y="-45.5" font-family="Helvetica,sans-Serif" font-size="10.00">bfdec_cmp_le</text>
</a>
</g>
</g>
<!-- Node11&#45;&gt;Node13 -->
<g id="edge16" class="edge">
<title>Node11&#45;&gt;Node13</title>
<path fill="none" stroke="midnightblue" d="M450.7,-60.53C436.34,-58.43 420.48,-56.11 406.34,-54.04"/>
<polygon fill="midnightblue" stroke="midnightblue" points="450.44,-64.02 460.84,-62.01 451.46,-57.1 450.44,-64.02"/>
</g>
<!-- Node14 -->
<g id="node14" class="node">
<title>Node14</title>
<g id="a_node14"><a xlink:href="libbf_8h.html#afe1f289284684f0e0b912dc0a05ebf28" target="_top" xlink:title=" ">
<polygon fill="none" stroke="black" points="323,-0.5 323,-19.5 405,-19.5 405,-0.5 323,-0.5"/>
<text text-anchor="middle" x="364" y="-7.5" font-family="Helvetica,sans-Serif" font-size="10.00">bfdec_cmp_lt</text>
</a>
</g>
</g>
<!-- Node11&#45;&gt;Node14 -->
<g id="edge17" class="edge">
<title>Node11&#45;&gt;Node14</title>
<path fill="none" stroke="midnightblue" d="M470.4,-52.15C457.24,-44.59 440.56,-35.62 425,-29 416.75,-25.49 407.64,-22.29 399.05,-19.54"/>
<polygon fill="midnightblue" stroke="midnightblue" points="468.91,-55.33 479.31,-57.35 472.44,-49.28 468.91,-55.33"/>
</g>
</g>
</svg>
        <g id="navigator" transform="translate(0 0)" fill="#404254">
                <rect fill="#f2f5e9" fill-opacity="0.5" stroke="#606060" stroke-width=".5" x="0" y="0" width="60" height="60"/>
                <use id="zoomplus" xlink:href="#zoomPlus" x="17" y="9" onmousedown="handleZoom(evt,'in')"/>
                <use id="zoomminus" xlink:href="#zoomMin" x="42" y="9" onmousedown="handleZoom(evt,'out')"/>
                <use id="reset" xlink:href="#resetDef" x="30" y="36" onmousedown="handleReset()"/>
                <g id="arrowUp" xlink:href="#dirArrow" transform="translate(30 24)" onmousedown="handlePan(0,-1)">
                  <use xlink:href="#rim" fill="#404040">
                        <set attributeName="fill" to="#808080" begin="arrowUp.mouseover" end="arrowUp.mouseout"/>
                  </use>
                  <path fill="none" stroke="white" stroke-width="1.5" d="M0,-3.0v7 M-2.5,-0.5L0,-3.0L2.5,-0.5"/>
                </g>
                <g id="arrowRight" xlink:href="#dirArrow" transform="rotate(90) translate(36 -43)" onmousedown="handlePan(1,0)">
                  <use xlink:href="#rim" fill="#404040">
                        <set attributeName="fill" to="#808080" begin="arrowRight.mouseover" end="arrowRight.mouseout"/>
                  </use>
                  <path fill="none" stroke="white" stroke-width="1.5" d="M0,-3.0v7 M-2.5,-0.5L0,-3.0L2.5,-0.5"/>
                </g>
                <g id="arrowDown" xlink:href="#dirArrow" transform="rotate(180) translate(-30 -48)" onmousedown="handlePan(0,1)">
                  <use xlink:href="#rim" fill="#404040">
                        <set attributeName="fill" to="#808080" begin="arrowDown.mouseover" end="arrowDown.mouseout"/>
                  </use>
                  <path fill="none" stroke="white" stroke-width="1.5" d="M0,-3.0v7 M-2.5,-0.5L0,-3.0L2.5,-0.5"/>
                </g>
                <g id="arrowLeft" xlink:href="#dirArrow" transform="rotate(270) translate(-36 17)" onmousedown="handlePan(-1,0)">
                  <use xlink:href="#rim" fill="#404040">
                        <set attributeName="fill" to="#808080" begin="arrowLeft.mouseover" end="arrowLeft.mouseout"/>
                  </use>
                  <path fill="none" stroke="white" stroke-width="1.5" d="M0,-3.0v7 M-2.5,-0.5L0,-3.0L2.5,-0.5"/>
                </g>
        </g>
        <svg viewBox="0 0 15 15" width="100%" height="30px" preserveAspectRatio="xMaxYMin meet">
         <g id="arrow_out" transform="scale(0.3 0.3)">
          <a xlink:href="libbf_8c_a9508b6f4e9f4be88f4b5b0352217e9c5_icgraph_org.svg" target="_base">
           <rect id="button" ry="5" rx="5" y="6" x="6" height="38" width="38"
                fill="#f2f5e9" fill-opacity="0.5" stroke="#606060" stroke-width="1.0"/>
           <path id="arrow"
             d="M 11.500037,31.436501 C 11.940474,20.09759 22.043105,11.32322 32.158766,21.979434 L 37.068811,17.246167 C 37.068811,17.246167 37.088388,32 37.088388,32 L 22.160133,31.978069 C 22.160133,31.978069 26.997745,27.140456 26.997745,27.140456 C 18.528582,18.264221 13.291696,25.230495 11.500037,31.436501 z"
             style="fill:#404040;"/>
          </a>
         </g>
        </svg>
</svg>
