<?xml version="1.0" encoding="UTF-8" standalone="no"?>
<!DOCTYPE svg PUBLIC "-//W3C//DTD SVG 1.1//EN"
 "http://www.w3.org/Graphics/SVG/1.1/DTD/svg11.dtd">
<!-- Generated by graphviz version 2.43.0 (0)
 -->
<!-- Title: re_emit_goto Pages: 1 -->
<svg width="416pt" height="66pt"
 viewBox="0.00 0.00 416.00 66.00" xmlns="http://www.w3.org/2000/svg" xmlns:xlink="http://www.w3.org/1999/xlink">
<g id="graph0" class="graph" transform="scale(1 1) rotate(0) translate(4 62)">
<title>re_emit_goto</title>
<!-- Node1 -->
<g id="node1" class="node">
<title>Node1</title>
<g id="a_node1"><a xlink:title=" ">
<polygon fill="#bfbfbf" stroke="black" points="0,-19.5 0,-38.5 81,-38.5 81,-19.5 0,-19.5"/>
<text text-anchor="middle" x="40.5" y="-26.5" font-family="Helvetica,sans-Serif" font-size="10.00">re_emit_goto</text>
</a>
</g>
</g>
<!-- Node2 -->
<g id="node2" class="node">
<title>Node2</title>
<g id="a_node2"><a xlink:href="cutils_8h.html#a8ba08f82c43549fcb3c939229498354d" target="_top" xlink:title=" ">
<polygon fill="none" stroke="black" points="117,-38.5 117,-57.5 200,-57.5 200,-38.5 117,-38.5"/>
<text text-anchor="middle" x="158.5" y="-45.5" font-family="Helvetica,sans-Serif" font-size="10.00">dbuf_put_u32</text>
</a>
</g>
</g>
<!-- Node1&#45;&gt;Node2 -->
<g id="edge1" class="edge">
<title>Node1&#45;&gt;Node2</title>
<path fill="none" stroke="midnightblue" d="M81.1,-35.49C89.4,-36.85 98.26,-38.3 106.9,-39.71"/>
<polygon fill="midnightblue" stroke="midnightblue" points="106.46,-43.19 116.9,-41.35 107.6,-36.28 106.46,-43.19"/>
</g>
<!-- Node5 -->
<g id="node5" class="node">
<title>Node5</title>
<g id="a_node5"><a xlink:href="cutils_8h.html#aeed81d4787ccdbd55baa9b5fd6717e88" target="_top" xlink:title=" ">
<polygon fill="none" stroke="black" points="126,-0.5 126,-19.5 191,-19.5 191,-0.5 126,-0.5"/>
<text text-anchor="middle" x="158.5" y="-7.5" font-family="Helvetica,sans-Serif" font-size="10.00">dbuf_putc</text>
</a>
</g>
</g>
<!-- Node1&#45;&gt;Node5 -->
<g id="edge4" class="edge">
<title>Node1&#45;&gt;Node5</title>
<path fill="none" stroke="midnightblue" d="M81.1,-22.51C92.25,-20.69 104.42,-18.69 115.7,-16.85"/>
<polygon fill="midnightblue" stroke="midnightblue" points="116.45,-20.27 125.76,-15.2 115.32,-13.36 116.45,-20.27"/>
</g>
<!-- Node3 -->
<g id="node3" class="node">
<title>Node3</title>
<g id="a_node3"><a xlink:href="cutils_8h.html#ad1cfaae47347ae771136b5a9bbda49aa" target="_top" xlink:title=" ">
<polygon fill="none" stroke="black" points="236,-19.5 236,-38.5 295,-38.5 295,-19.5 236,-19.5"/>
<text text-anchor="middle" x="265.5" y="-26.5" font-family="Helvetica,sans-Serif" font-size="10.00">dbuf_put</text>
</a>
</g>
</g>
<!-- Node2&#45;&gt;Node3 -->
<g id="edge2" class="edge">
<title>Node2&#45;&gt;Node3</title>
<path fill="none" stroke="midnightblue" d="M200.1,-40.65C208.55,-39.12 217.43,-37.52 225.81,-36"/>
<polygon fill="midnightblue" stroke="midnightblue" points="226.51,-39.43 235.72,-34.21 225.26,-32.54 226.51,-39.43"/>
</g>
<!-- Node4 -->
<g id="node4" class="node">
<title>Node4</title>
<g id="a_node4"><a xlink:href="cutils_8h.html#ac0b9ce26415947e972d6781d9f2fb11b" target="_top" xlink:title=" ">
<polygon fill="none" stroke="black" points="331,-19.5 331,-38.5 408,-38.5 408,-19.5 331,-19.5"/>
<text text-anchor="middle" x="369.5" y="-26.5" font-family="Helvetica,sans-Serif" font-size="10.00">dbuf_realloc</text>
</a>
</g>
</g>
<!-- Node3&#45;&gt;Node4 -->
<g id="edge3" class="edge">
<title>Node3&#45;&gt;Node4</title>
<path fill="none" stroke="midnightblue" d="M295.18,-29C303.15,-29 312.01,-29 320.75,-29"/>
<polygon fill="midnightblue" stroke="midnightblue" points="320.89,-32.5 330.89,-29 320.89,-25.5 320.89,-32.5"/>
</g>
<!-- Node5&#45;&gt;Node3 -->
<g id="edge5" class="edge">
<title>Node5&#45;&gt;Node3</title>
<path fill="none" stroke="midnightblue" d="M191,-15.7C201.92,-17.68 214.28,-19.91 225.71,-21.98"/>
<polygon fill="midnightblue" stroke="midnightblue" points="225.42,-25.48 235.88,-23.82 226.67,-18.6 225.42,-25.48"/>
</g>
</g>
</svg>
