<?xml version="1.0" encoding="UTF-8" standalone="no"?>
<!DOCTYPE svg PUBLIC "-//W3C//DTD SVG 1.1//EN"
 "http://www.w3.org/Graphics/SVG/1.1/DTD/svg11.dtd">
<!-- Generated by graphviz version 2.43.0 (0)
 -->
<!-- Title: lre_canonicalize Pages: 1 -->
<svg width="555pt" height="113pt"
 viewBox="0.00 0.00 555.00 113.00" xmlns="http://www.w3.org/2000/svg" xmlns:xlink="http://www.w3.org/1999/xlink">
<g id="graph0" class="graph" transform="scale(1 1) rotate(0) translate(4 109)">
<title>lre_canonicalize</title>
<!-- Node1 -->
<g id="node1" class="node">
<title>Node1</title>
<g id="a_node1"><a xlink:title=" ">
<polygon fill="#bfbfbf" stroke="black" points="452,-47.5 452,-66.5 547,-66.5 547,-47.5 452,-47.5"/>
<text text-anchor="middle" x="499.5" y="-54.5" font-family="Helvetica,sans-Serif" font-size="10.00">lre_canonicalize</text>
</a>
</g>
</g>
<!-- Node2 -->
<g id="node2" class="node">
<title>Node2</title>
<g id="a_node2"><a xlink:href="libregexp_8c.html#a2c44185f26ab7513cb353d16212acb83" target="_top" xlink:title=" ">
<polygon fill="none" stroke="black" points="306,-66.5 306,-85.5 416,-85.5 416,-66.5 306,-66.5"/>
<text text-anchor="middle" x="361" y="-73.5" font-family="Helvetica,sans-Serif" font-size="10.00">lre_exec_backtrack</text>
</a>
</g>
</g>
<!-- Node1&#45;&gt;Node2 -->
<g id="edge1" class="edge">
<title>Node1&#45;&gt;Node2</title>
<path fill="none" stroke="midnightblue" d="M441.8,-64.89C433.39,-66.06 424.74,-67.27 416.38,-68.43"/>
<polygon fill="midnightblue" stroke="midnightblue" points="442.48,-68.33 451.91,-63.49 441.52,-61.4 442.48,-68.33"/>
</g>
<!-- Node14 -->
<g id="node6" class="node">
<title>Node14</title>
<g id="a_node6"><a xlink:href="libregexp_8c.html#acca34590a18d70f866ad56d67ce309e8" target="_top" xlink:title=" ">
<polygon fill="none" stroke="black" points="317.5,-28.5 317.5,-47.5 404.5,-47.5 404.5,-28.5 317.5,-28.5"/>
<text text-anchor="middle" x="361" y="-35.5" font-family="Helvetica,sans-Serif" font-size="10.00">re_parse_term</text>
</a>
</g>
</g>
<!-- Node1&#45;&gt;Node14 -->
<g id="edge6" class="edge">
<title>Node1&#45;&gt;Node14</title>
<path fill="none" stroke="midnightblue" d="M441.68,-49.09C429.31,-47.37 416.42,-45.58 404.71,-43.95"/>
<polygon fill="midnightblue" stroke="midnightblue" points="441.52,-52.6 451.91,-50.51 442.48,-45.67 441.52,-52.6"/>
</g>
<!-- Node2&#45;&gt;Node2 -->
<g id="edge5" class="edge">
<title>Node2&#45;&gt;Node2</title>
<path fill="none" stroke="midnightblue" d="M386.67,-95.03C385.27,-100.13 376.71,-104 361,-104 336.47,-104 329.38,-94.57 339.73,-85.76"/>
<polygon fill="midnightblue" stroke="midnightblue" points="389.72,-93.29 382.27,-85.76 383.39,-96.29 389.72,-93.29"/>
</g>
<!-- Node3 -->
<g id="node3" class="node">
<title>Node3</title>
<g id="a_node3"><a xlink:href="libregexp_8h.html#a55d8c60c9c812ae3e3e23e608b830ce3" target="_top" xlink:title=" ">
<polygon fill="none" stroke="black" points="183,-66.5 183,-85.5 240,-85.5 240,-66.5 183,-66.5"/>
<text text-anchor="middle" x="211.5" y="-73.5" font-family="Helvetica,sans-Serif" font-size="10.00">lre_exec</text>
</a>
</g>
</g>
<!-- Node2&#45;&gt;Node3 -->
<g id="edge2" class="edge">
<title>Node2&#45;&gt;Node3</title>
<path fill="none" stroke="midnightblue" d="M295.81,-76C276.28,-76 255.84,-76 240.09,-76"/>
<polygon fill="midnightblue" stroke="midnightblue" points="295.91,-79.5 305.91,-76 295.91,-72.5 295.91,-79.5"/>
</g>
<!-- Node4 -->
<g id="node4" class="node">
<title>Node4</title>
<g id="a_node4"><a xlink:href="quickjs_8c.html#a9eb2d90f27f684820f9de13189502b7c" target="_top" xlink:title=" ">
<polygon fill="none" stroke="red" points="12.5,-85.5 12.5,-104.5 104.5,-104.5 104.5,-85.5 12.5,-85.5"/>
<text text-anchor="middle" x="58.5" y="-92.5" font-family="Helvetica,sans-Serif" font-size="10.00">js_regexp_exec</text>
</a>
</g>
</g>
<!-- Node3&#45;&gt;Node4 -->
<g id="edge3" class="edge">
<title>Node3&#45;&gt;Node4</title>
<path fill="none" stroke="midnightblue" d="M172.79,-80.74C152.08,-83.35 126.27,-86.6 104.51,-89.34"/>
<polygon fill="midnightblue" stroke="midnightblue" points="173.32,-84.21 182.8,-79.48 172.45,-77.26 173.32,-84.21"/>
</g>
<!-- Node13 -->
<g id="node5" class="node">
<title>Node13</title>
<g id="a_node5"><a xlink:href="quickjs_8c.html#a14fa3c10f581e1cd38b349913f47fb43" target="_top" xlink:title=" ">
<polygon fill="none" stroke="red" points="8.5,-47.5 8.5,-66.5 108.5,-66.5 108.5,-47.5 8.5,-47.5"/>
<text text-anchor="middle" x="58.5" y="-54.5" font-family="Helvetica,sans-Serif" font-size="10.00">JS_RegExpDelete</text>
</a>
</g>
</g>
<!-- Node3&#45;&gt;Node13 -->
<g id="edge4" class="edge">
<title>Node3&#45;&gt;Node13</title>
<path fill="none" stroke="midnightblue" d="M172.83,-71.26C153.43,-68.82 129.55,-65.81 108.71,-63.19"/>
<polygon fill="midnightblue" stroke="midnightblue" points="172.45,-74.74 182.8,-72.52 173.32,-67.79 172.45,-74.74"/>
</g>
<!-- Node15 -->
<g id="node7" class="node">
<title>Node15</title>
<g id="a_node7"><a xlink:href="libregexp_8c.html#a87dce3150c68b8a079854274dd39243c" target="_top" xlink:title=" ">
<polygon fill="none" stroke="black" points="153,-28.5 153,-47.5 270,-47.5 270,-28.5 153,-28.5"/>
<text text-anchor="middle" x="211.5" y="-35.5" font-family="Helvetica,sans-Serif" font-size="10.00">re_parse_alternative</text>
</a>
</g>
</g>
<!-- Node14&#45;&gt;Node15 -->
<g id="edge7" class="edge">
<title>Node14&#45;&gt;Node15</title>
<path fill="none" stroke="midnightblue" d="M307.06,-38C295.08,-38 282.32,-38 270.16,-38"/>
<polygon fill="midnightblue" stroke="midnightblue" points="307.34,-41.5 317.34,-38 307.34,-34.5 307.34,-41.5"/>
</g>
<!-- Node16 -->
<g id="node8" class="node">
<title>Node16</title>
<g id="a_node8"><a xlink:href="libregexp_8c.html#af445f369f2ccbbc81596e0fbed929b7e" target="_top" xlink:title=" ">
<polygon fill="none" stroke="red" points="0,-0.5 0,-19.5 117,-19.5 117,-0.5 0,-0.5"/>
<text text-anchor="middle" x="58.5" y="-7.5" font-family="Helvetica,sans-Serif" font-size="10.00">re_parse_disjunction</text>
</a>
</g>
</g>
<!-- Node15&#45;&gt;Node16 -->
<g id="edge8" class="edge">
<title>Node15&#45;&gt;Node16</title>
<path fill="none" stroke="midnightblue" d="M148.94,-26.59C136.28,-24.24 123.07,-21.79 110.81,-19.51"/>
<polygon fill="midnightblue" stroke="midnightblue" points="148.49,-30.06 158.96,-28.44 149.76,-23.18 148.49,-30.06"/>
</g>
<!-- Node16&#45;&gt;Node14 -->
<g id="edge9" class="edge">
<title>Node16&#45;&gt;Node14</title>
<path fill="none" stroke="midnightblue" d="M127.57,-10.06C168.91,-10.81 222.66,-13.03 270,-19 287.11,-21.16 305.8,-24.88 321.7,-28.45"/>
<polygon fill="midnightblue" stroke="midnightblue" points="127.4,-6.56 117.34,-9.91 127.29,-13.56 127.4,-6.56"/>
</g>
</g>
</svg>
