<?xml version="1.0" encoding="UTF-8" standalone="no"?>
<!DOCTYPE svg PUBLIC "-//W3C//DTD SVG 1.1//EN"
 "http://www.w3.org/Graphics/SVG/1.1/DTD/svg11.dtd">
<!-- Generated by graphviz version 2.43.0 (0)
 -->
<!-- Title: re_count_captures Pages: 1 -->
<svg width="561pt" height="47pt"
 viewBox="0.00 0.00 561.00 47.00" xmlns="http://www.w3.org/2000/svg" xmlns:xlink="http://www.w3.org/1999/xlink">
<g id="graph0" class="graph" transform="scale(1 1) rotate(0) translate(4 43)">
<title>re_count_captures</title>
<!-- Node1 -->
<g id="node1" class="node">
<title>Node1</title>
<g id="a_node1"><a xlink:title=" ">
<polygon fill="#bfbfbf" stroke="black" points="447,-0.5 447,-19.5 553,-19.5 553,-0.5 447,-0.5"/>
<text text-anchor="middle" x="500" y="-7.5" font-family="Helvetica,sans-Serif" font-size="10.00">re_count_captures</text>
</a>
</g>
</g>
<!-- Node2 -->
<g id="node2" class="node">
<title>Node2</title>
<g id="a_node2"><a xlink:href="libregexp_8c.html#adc25d27f1e668598f417fb0f07f3281f" target="_top" xlink:title=" ">
<polygon fill="none" stroke="black" points="276,-19.5 276,-38.5 411,-38.5 411,-19.5 276,-19.5"/>
<text text-anchor="middle" x="343.5" y="-26.5" font-family="Helvetica,sans-Serif" font-size="10.00">re_has_named_captures</text>
</a>
</g>
</g>
<!-- Node1&#45;&gt;Node2 -->
<g id="edge1" class="edge">
<title>Node1&#45;&gt;Node2</title>
<path fill="none" stroke="midnightblue" d="M436.65,-17.67C428.29,-18.7 419.7,-19.75 411.27,-20.79"/>
<polygon fill="midnightblue" stroke="midnightblue" points="437.2,-21.13 446.69,-16.43 436.34,-14.18 437.2,-21.13"/>
</g>
<!-- Node3 -->
<g id="node3" class="node">
<title>Node3</title>
<g id="a_node3"><a xlink:href="libregexp_8c.html#acca34590a18d70f866ad56d67ce309e8" target="_top" xlink:title=" ">
<polygon fill="none" stroke="black" points="153,-0.5 153,-19.5 240,-19.5 240,-0.5 153,-0.5"/>
<text text-anchor="middle" x="196.5" y="-7.5" font-family="Helvetica,sans-Serif" font-size="10.00">re_parse_term</text>
</a>
</g>
</g>
<!-- Node1&#45;&gt;Node3 -->
<g id="edge4" class="edge">
<title>Node1&#45;&gt;Node3</title>
<path fill="none" stroke="midnightblue" d="M436.56,-10C377.85,-10 291.53,-10 240.27,-10"/>
<polygon fill="midnightblue" stroke="midnightblue" points="436.83,-13.5 446.83,-10 436.83,-6.5 436.83,-13.5"/>
</g>
<!-- Node2&#45;&gt;Node3 -->
<g id="edge2" class="edge">
<title>Node2&#45;&gt;Node3</title>
<path fill="none" stroke="midnightblue" d="M265.9,-18.96C257.02,-17.8 248.22,-16.65 240.03,-15.57"/>
<polygon fill="midnightblue" stroke="midnightblue" points="265.57,-22.45 275.94,-20.28 266.48,-15.51 265.57,-22.45"/>
</g>
<!-- Node4 -->
<g id="node4" class="node">
<title>Node4</title>
<g id="a_node4"><a xlink:href="libregexp_8c.html#a87dce3150c68b8a079854274dd39243c" target="_top" xlink:title=" ">
<polygon fill="none" stroke="red" points="0,-0.5 0,-19.5 117,-19.5 117,-0.5 0,-0.5"/>
<text text-anchor="middle" x="58.5" y="-7.5" font-family="Helvetica,sans-Serif" font-size="10.00">re_parse_alternative</text>
</a>
</g>
</g>
<!-- Node3&#45;&gt;Node4 -->
<g id="edge3" class="edge">
<title>Node3&#45;&gt;Node4</title>
<path fill="none" stroke="midnightblue" d="M142.61,-10C134.36,-10 125.81,-10 117.46,-10"/>
<polygon fill="midnightblue" stroke="midnightblue" points="142.84,-13.5 152.84,-10 142.84,-6.5 142.84,-13.5"/>
</g>
</g>
</svg>
