<?xml version="1.0" encoding="UTF-8" standalone="no"?>
<!DOCTYPE svg PUBLIC "-//W3C//DTD SVG 1.1//EN"
 "http://www.w3.org/Graphics/SVG/1.1/DTD/svg11.dtd">
<!-- Generated by graphviz version 2.43.0 (0)
 -->
<!-- Title: re_emit_op_u32 Pages: 1 -->
<!--zoomable 199 -->
<svg id="main" version="1.1" xmlns="http://www.w3.org/2000/svg" xmlns:xlink="http://www.w3.org/1999/xlink" xml:space="preserve" onload="init(evt)">
<style type="text/css"><![CDATA[
.edge:hover path { stroke: red; }
.edge:hover polygon { stroke: red; fill: red; }
]]></style>
<script type="text/javascript"><![CDATA[
var edges = document.getElementsByTagName('g');
if (edges && edges.length) {
  for (var i=0;i<edges.length;i++) {
    if (edges[i].id.substr(0,4)=='edge') {
      edges[i].setAttribute('class','edge');
    }
  }
}
]]></script>
        <defs>
                <circle id="rim" cx="0" cy="0" r="7"/>
                <circle id="rim2" cx="0" cy="0" r="3.5"/>
                <g id="zoomPlus">
                        <use xlink:href="#rim" fill="#404040">
                                <set attributeName="fill" to="#808080" begin="zoomplus.mouseover" end="zoomplus.mouseout"/>
                        </use>
                        <path d="M-4,0h8M0,-4v8" fill="none" stroke="white" stroke-width="1.5" pointer-events="none"/>
                </g>
                <g id="zoomMin">
                        <use xlink:href="#rim" fill="#404040">
                                <set attributeName="fill" to="#808080" begin="zoomminus.mouseover" end="zoomminus.mouseout"/>
                        </use>
                        <path d="M-4,0h8" fill="none" stroke="white" stroke-width="1.5" pointer-events="none"/>
                </g>
                <g id="dirArrow">
                        <path fill="none" stroke="white" stroke-width="1.5" d="M0,-3.0v7 M-2.5,-0.5L0,-3.0L2.5,-0.5"/>
                </g>
               <g id="resetDef">
                       <use xlink:href="#rim2" fill="#404040">
                               <set attributeName="fill" to="#808080" begin="reset.mouseover" end="reset.mouseout"/>
                       </use>
               </g>
        </defs>

<script type="text/javascript">
var viewWidth = 757;
var viewHeight = 199;
var sectionId = 'dynsection-14';
</script>
<script xlink:href="svgpan.js"/>
<svg id="graph" class="graph">
<g id="viewport">
<title>re_emit_op_u32</title>
<!-- Node1 -->
<g id="node1" class="node">
<title>Node1</title>
<g id="a_node1"><a xlink:title=" ">
<polygon fill="#bfbfbf" stroke="black" points="654,-76.68 654,-95.68 749,-95.68 749,-76.68 654,-76.68"/>
<text text-anchor="middle" x="701.5" y="-83.68" font-family="Helvetica,sans-Serif" font-size="10.00">re_emit_op_u32</text>
</a>
</g>
</g>
<!-- Node2 -->
<g id="node2" class="node">
<title>Node2</title>
<g id="a_node2"><a xlink:href="libregexp_8h.html#a9f2d004d841acbf42a7cf0490258b5ab" target="_top" xlink:title=" ">
<polygon fill="none" stroke="black" points="370.5,-133.68 370.5,-152.68 444.5,-152.68 444.5,-133.68 370.5,-133.68"/>
<text text-anchor="middle" x="407.5" y="-140.68" font-family="Helvetica,sans-Serif" font-size="10.00">lre_compile</text>
</a>
</g>
</g>
<!-- Node1&#45;&gt;Node2 -->
<g id="edge1" class="edge">
<title>Node1&#45;&gt;Node2</title>
<path fill="none" stroke="midnightblue" d="M674.92,-100.72C659.04,-109.04 637.93,-118.85 618,-124.18 558.72,-140.01 487.02,-143.25 444.73,-143.6"/>
<polygon fill="midnightblue" stroke="midnightblue" points="676.93,-103.62 684.07,-95.79 673.61,-97.46 676.93,-103.62"/>
</g>
<!-- Node12 -->
<g id="node7" class="node">
<title>Node12</title>
<g id="a_node7"><a xlink:href="libregexp_8c.html#a889cced8db78de00f11774dc8210874d" target="_top" xlink:title=" ">
<polygon fill="none" stroke="black" points="516,-57.68 516,-76.68 603,-76.68 603,-57.68 516,-57.68"/>
<text text-anchor="middle" x="559.5" y="-64.68" font-family="Helvetica,sans-Serif" font-size="10.00">re_emit_range</text>
</a>
</g>
</g>
<!-- Node1&#45;&gt;Node12 -->
<g id="edge6" class="edge">
<title>Node1&#45;&gt;Node12</title>
<path fill="none" stroke="midnightblue" d="M643.69,-78.47C630.15,-76.63 615.92,-74.7 603.14,-72.96"/>
<polygon fill="midnightblue" stroke="midnightblue" points="643.5,-81.97 653.88,-79.85 644.44,-75.04 643.5,-81.97"/>
</g>
<!-- Node14 -->
<g id="node9" class="node">
<title>Node14</title>
<g id="a_node9"><a xlink:href="libregexp_8c.html#acca34590a18d70f866ad56d67ce309e8" target="_top" xlink:title=" ">
<polygon fill="none" stroke="red" points="216.5,-38.68 216.5,-57.68 303.5,-57.68 303.5,-38.68 216.5,-38.68"/>
<text text-anchor="middle" x="260" y="-45.68" font-family="Helvetica,sans-Serif" font-size="10.00">re_parse_term</text>
</a>
</g>
</g>
<!-- Node1&#45;&gt;Node14 -->
<g id="edge13" class="edge">
<title>Node1&#45;&gt;Node14</title>
<path fill="none" stroke="midnightblue" d="M673.05,-71.95C657.25,-64.17 636.85,-54.79 618,-48.18 504.49,-8.34 467.86,13.93 350,-10.18 323.5,-15.6 295.13,-29.23 277.72,-38.6"/>
<polygon fill="midnightblue" stroke="midnightblue" points="671.73,-75.2 682.24,-76.55 674.86,-68.94 671.73,-75.2"/>
</g>
<!-- Node16 -->
<g id="node10" class="node">
<title>Node16</title>
<g id="a_node10"><a xlink:href="libregexp_8c.html#af445f369f2ccbbc81596e0fbed929b7e" target="_top" xlink:title=" ">
<polygon fill="none" stroke="black" points="501,-95.68 501,-114.68 618,-114.68 618,-95.68 501,-95.68"/>
<text text-anchor="middle" x="559.5" y="-102.68" font-family="Helvetica,sans-Serif" font-size="10.00">re_parse_disjunction</text>
</a>
</g>
</g>
<!-- Node1&#45;&gt;Node16 -->
<g id="edge10" class="edge">
<title>Node1&#45;&gt;Node16</title>
<path fill="none" stroke="midnightblue" d="M643.75,-93.88C635.3,-95.02 626.59,-96.21 618.13,-97.36"/>
<polygon fill="midnightblue" stroke="midnightblue" points="644.44,-97.32 653.88,-92.5 643.5,-90.38 644.44,-97.32"/>
</g>
<!-- Node3 -->
<g id="node3" class="node">
<title>Node3</title>
<g id="a_node3"><a xlink:href="quickjs_8c.html#ab0bd3fbfe9b7f004c067b103a6d60d03" target="_top" xlink:title=" ">
<polygon fill="none" stroke="black" points="206,-133.68 206,-152.68 314,-152.68 314,-133.68 206,-133.68"/>
<text text-anchor="middle" x="260" y="-140.68" font-family="Helvetica,sans-Serif" font-size="10.00">js_compile_regexp</text>
</a>
</g>
</g>
<!-- Node2&#45;&gt;Node3 -->
<g id="edge2" class="edge">
<title>Node2&#45;&gt;Node3</title>
<path fill="none" stroke="midnightblue" d="M359.88,-143.18C345.32,-143.18 329.15,-143.18 314.17,-143.18"/>
<polygon fill="midnightblue" stroke="midnightblue" points="360.16,-146.68 370.16,-143.18 360.16,-139.68 360.16,-146.68"/>
</g>
<!-- Node4 -->
<g id="node4" class="node">
<title>Node4</title>
<g id="a_node4"><a xlink:href="quickjs_8c.html#aa24c64e9ce871601a39b40dbfee0deb4" target="_top" xlink:title=" ">
<polygon fill="none" stroke="red" points="0,-171.68 0,-190.68 170,-190.68 170,-171.68 0,-171.68"/>
<text text-anchor="middle" x="85" y="-178.68" font-family="Helvetica,sans-Serif" font-size="10.00">JS_AddIntrinsicRegExpCompiler</text>
</a>
</g>
</g>
<!-- Node3&#45;&gt;Node4 -->
<g id="edge3" class="edge">
<title>Node3&#45;&gt;Node4</title>
<path fill="none" stroke="midnightblue" d="M205.49,-154.93C181.03,-160.3 152.43,-166.58 129.34,-171.66"/>
<polygon fill="midnightblue" stroke="midnightblue" points="206.33,-158.33 215.34,-152.76 204.83,-151.49 206.33,-158.33"/>
</g>
<!-- Node10 -->
<g id="node5" class="node">
<title>Node10</title>
<g id="a_node5"><a xlink:href="quickjs_8c.html#af55de7fe1d3513a7230dfbfc1cbeec62" target="_top" xlink:title=" ">
<polygon fill="none" stroke="black" points="31,-133.68 31,-152.68 139,-152.68 139,-133.68 31,-133.68"/>
<text text-anchor="middle" x="85" y="-140.68" font-family="Helvetica,sans-Serif" font-size="10.00">js_regexp_compile</text>
</a>
</g>
</g>
<!-- Node3&#45;&gt;Node10 -->
<g id="edge4" class="edge">
<title>Node3&#45;&gt;Node10</title>
<path fill="none" stroke="midnightblue" d="M195.57,-143.18C177.03,-143.18 156.97,-143.18 139.14,-143.18"/>
<polygon fill="midnightblue" stroke="midnightblue" points="195.68,-146.68 205.68,-143.18 195.68,-139.68 195.68,-146.68"/>
</g>
<!-- Node11 -->
<g id="node6" class="node">
<title>Node11</title>
<g id="a_node6"><a xlink:href="quickjs_8c.html#a233052710c228313122c39c231a23ddf" target="_top" xlink:title=" ">
<polygon fill="none" stroke="red" points="23,-95.68 23,-114.68 147,-114.68 147,-95.68 23,-95.68"/>
<text text-anchor="middle" x="85" y="-102.68" font-family="Helvetica,sans-Serif" font-size="10.00">js_regexp_constructor</text>
</a>
</g>
</g>
<!-- Node3&#45;&gt;Node11 -->
<g id="edge5" class="edge">
<title>Node3&#45;&gt;Node11</title>
<path fill="none" stroke="midnightblue" d="M205.49,-131.42C181.03,-126.05 152.43,-119.77 129.34,-114.7"/>
<polygon fill="midnightblue" stroke="midnightblue" points="204.83,-134.86 215.34,-133.59 206.33,-128.02 204.83,-134.86"/>
</g>
<!-- Node13 -->
<g id="node8" class="node">
<title>Node13</title>
<g id="a_node8"><a xlink:href="libregexp_8c.html#ab2f98b8a2e66fd9197d2677f47ccffa8" target="_top" xlink:title=" ">
<polygon fill="none" stroke="black" points="350,-19.68 350,-38.68 465,-38.68 465,-19.68 350,-19.68"/>
<text text-anchor="middle" x="407.5" y="-26.68" font-family="Helvetica,sans-Serif" font-size="10.00">re_parse_char_class</text>
</a>
</g>
</g>
<!-- Node12&#45;&gt;Node13 -->
<g id="edge7" class="edge">
<title>Node12&#45;&gt;Node13</title>
<path fill="none" stroke="midnightblue" d="M510.69,-55.06C489.8,-49.77 465.65,-43.65 446.08,-38.7"/>
<polygon fill="midnightblue" stroke="midnightblue" points="510.1,-58.52 520.65,-57.59 511.81,-51.74 510.1,-58.52"/>
</g>
<!-- Node12&#45;&gt;Node14 -->
<g id="edge9" class="edge">
<title>Node12&#45;&gt;Node14</title>
<path fill="none" stroke="midnightblue" d="M505.87,-63.81C448.21,-60.13 356.86,-54.3 303.55,-50.89"/>
<polygon fill="midnightblue" stroke="midnightblue" points="505.67,-67.31 515.88,-64.45 506.12,-60.32 505.67,-67.31"/>
</g>
<!-- Node13&#45;&gt;Node14 -->
<g id="edge8" class="edge">
<title>Node13&#45;&gt;Node14</title>
<path fill="none" stroke="midnightblue" d="M339.66,-37.9C327.46,-39.5 315.03,-41.12 303.77,-42.59"/>
<polygon fill="midnightblue" stroke="midnightblue" points="340.37,-41.34 349.83,-36.58 339.46,-34.4 340.37,-41.34"/>
</g>
<!-- Node16&#45;&gt;Node2 -->
<g id="edge11" class="edge">
<title>Node16&#45;&gt;Node2</title>
<path fill="none" stroke="midnightblue" d="M510.75,-117.27C489.29,-122.71 464.39,-129.02 444.53,-134.05"/>
<polygon fill="midnightblue" stroke="midnightblue" points="511.81,-120.61 520.65,-114.76 510.1,-113.83 511.81,-120.61"/>
</g>
<!-- Node16&#45;&gt;Node14 -->
<g id="edge12" class="edge">
<title>Node16&#45;&gt;Node14</title>
<path fill="none" stroke="midnightblue" d="M490.59,-95.7C449.68,-89.6 396.65,-80.99 350,-71.18 331.73,-67.33 311.57,-62.2 295.06,-57.76"/>
<polygon fill="midnightblue" stroke="midnightblue" points="490.31,-99.2 500.71,-97.2 491.33,-92.28 490.31,-99.2"/>
</g>
</g>
</svg>
        <g id="navigator" transform="translate(0 0)" fill="#404254">
                <rect fill="#f2f5e9" fill-opacity="0.5" stroke="#606060" stroke-width=".5" x="0" y="0" width="60" height="60"/>
                <use id="zoomplus" xlink:href="#zoomPlus" x="17" y="9" onmousedown="handleZoom(evt,'in')"/>
                <use id="zoomminus" xlink:href="#zoomMin" x="42" y="9" onmousedown="handleZoom(evt,'out')"/>
                <use id="reset" xlink:href="#resetDef" x="30" y="36" onmousedown="handleReset()"/>
                <g id="arrowUp" xlink:href="#dirArrow" transform="translate(30 24)" onmousedown="handlePan(0,-1)">
                  <use xlink:href="#rim" fill="#404040">
                        <set attributeName="fill" to="#808080" begin="arrowUp.mouseover" end="arrowUp.mouseout"/>
                  </use>
                  <path fill="none" stroke="white" stroke-width="1.5" d="M0,-3.0v7 M-2.5,-0.5L0,-3.0L2.5,-0.5"/>
                </g>
                <g id="arrowRight" xlink:href="#dirArrow" transform="rotate(90) translate(36 -43)" onmousedown="handlePan(1,0)">
                  <use xlink:href="#rim" fill="#404040">
                        <set attributeName="fill" to="#808080" begin="arrowRight.mouseover" end="arrowRight.mouseout"/>
                  </use>
                  <path fill="none" stroke="white" stroke-width="1.5" d="M0,-3.0v7 M-2.5,-0.5L0,-3.0L2.5,-0.5"/>
                </g>
                <g id="arrowDown" xlink:href="#dirArrow" transform="rotate(180) translate(-30 -48)" onmousedown="handlePan(0,1)">
                  <use xlink:href="#rim" fill="#404040">
                        <set attributeName="fill" to="#808080" begin="arrowDown.mouseover" end="arrowDown.mouseout"/>
                  </use>
                  <path fill="none" stroke="white" stroke-width="1.5" d="M0,-3.0v7 M-2.5,-0.5L0,-3.0L2.5,-0.5"/>
                </g>
                <g id="arrowLeft" xlink:href="#dirArrow" transform="rotate(270) translate(-36 17)" onmousedown="handlePan(-1,0)">
                  <use xlink:href="#rim" fill="#404040">
                        <set attributeName="fill" to="#808080" begin="arrowLeft.mouseover" end="arrowLeft.mouseout"/>
                  </use>
                  <path fill="none" stroke="white" stroke-width="1.5" d="M0,-3.0v7 M-2.5,-0.5L0,-3.0L2.5,-0.5"/>
                </g>
        </g>
        <svg viewBox="0 0 15 15" width="100%" height="30px" preserveAspectRatio="xMaxYMin meet">
         <g id="arrow_out" transform="scale(0.3 0.3)">
          <a xlink:href="libregexp_8c_ac72424cc4c3614e12582bb5684d5971e_icgraph_org.svg" target="_base">
           <rect id="button" ry="5" rx="5" y="6" x="6" height="38" width="38"
                fill="#f2f5e9" fill-opacity="0.5" stroke="#606060" stroke-width="1.0"/>
           <path id="arrow"
             d="M 11.500037,31.436501 C 11.940474,20.09759 22.043105,11.32322 32.158766,21.979434 L 37.068811,17.246167 C 37.068811,17.246167 37.088388,32 37.088388,32 L 22.160133,31.978069 C 22.160133,31.978069 26.997745,27.140456 26.997745,27.140456 C 18.528582,18.264221 13.291696,25.230495 11.500037,31.436501 z"
             style="fill:#404040;"/>
          </a>
         </g>
        </svg>
</svg>
