<?xml version="1.0" encoding="UTF-8" standalone="no"?>
<!DOCTYPE svg PUBLIC "-//W3C//DTD SVG 1.1//EN"
 "http://www.w3.org/Graphics/SVG/1.1/DTD/svg11.dtd">
<!-- Generated by graphviz version 2.43.0 (0)
 -->
<!-- Title: lre_get_flags Pages: 1 -->
<svg width="737pt" height="218pt"
 viewBox="0.00 0.00 737.00 218.00" xmlns="http://www.w3.org/2000/svg" xmlns:xlink="http://www.w3.org/1999/xlink">
<g id="graph0" class="graph" transform="scale(1 1) rotate(0) translate(4 214)">
<title>lre_get_flags</title>
<!-- Node1 -->
<g id="node1" class="node">
<title>Node1</title>
<g id="a_node1"><a xlink:title=" ">
<polygon fill="#bfbfbf" stroke="black" points="650,-57.5 650,-76.5 729,-76.5 729,-57.5 650,-57.5"/>
<text text-anchor="middle" x="689.5" y="-64.5" font-family="Helvetica,sans-Serif" font-size="10.00">lre_get_flags</text>
</a>
</g>
</g>
<!-- Node2 -->
<g id="node2" class="node">
<title>Node2</title>
<g id="a_node2"><a xlink:href="quickjs_8c.html#a9eb2d90f27f684820f9de13189502b7c" target="_top" xlink:title=" ">
<polygon fill="none" stroke="black" points="366,-57.5 366,-76.5 458,-76.5 458,-57.5 366,-57.5"/>
<text text-anchor="middle" x="412" y="-64.5" font-family="Helvetica,sans-Serif" font-size="10.00">js_regexp_exec</text>
</a>
</g>
</g>
<!-- Node1&#45;&gt;Node2 -->
<g id="edge1" class="edge">
<title>Node1&#45;&gt;Node2</title>
<path fill="none" stroke="midnightblue" d="M666.13,-81.94C651.88,-90.55 632.65,-100.52 614,-105 563.87,-117.05 548.42,-115.76 498,-105 472.55,-99.57 445.49,-85.94 428.91,-76.57"/>
<polygon fill="midnightblue" stroke="midnightblue" points="668.11,-84.84 674.73,-76.56 664.39,-78.9 668.11,-84.84"/>
</g>
<!-- Node11 -->
<g id="node11" class="node">
<title>Node11</title>
<g id="a_node11"><a xlink:href="quickjs_8c.html#a84549917900dae51c15ad8f1bb92d8ea" target="_top" xlink:title=" ">
<polygon fill="none" stroke="black" points="502,-76.5 502,-95.5 610,-95.5 610,-76.5 502,-76.5"/>
<text text-anchor="middle" x="556" y="-83.5" font-family="Helvetica,sans-Serif" font-size="10.00">js_regexp_get_flag</text>
</a>
</g>
</g>
<!-- Node1&#45;&gt;Node11 -->
<g id="edge11" class="edge">
<title>Node1&#45;&gt;Node11</title>
<path fill="none" stroke="midnightblue" d="M639.57,-74.07C629.95,-75.46 619.83,-76.92 610.08,-78.33"/>
<polygon fill="midnightblue" stroke="midnightblue" points="640.36,-77.49 649.76,-72.6 639.36,-70.56 640.36,-77.49"/>
</g>
<!-- Node12 -->
<g id="node12" class="node">
<title>Node12</title>
<g id="a_node12"><a xlink:href="quickjs_8c.html#a14fa3c10f581e1cd38b349913f47fb43" target="_top" xlink:title=" ">
<polygon fill="none" stroke="black" points="362,-0.5 362,-19.5 462,-19.5 462,-0.5 362,-0.5"/>
<text text-anchor="middle" x="412" y="-7.5" font-family="Helvetica,sans-Serif" font-size="10.00">JS_RegExpDelete</text>
</a>
</g>
</g>
<!-- Node1&#45;&gt;Node12 -->
<g id="edge12" class="edge">
<title>Node1&#45;&gt;Node12</title>
<path fill="none" stroke="midnightblue" d="M665.17,-52.2C650.94,-43.93 632.07,-34.25 614,-29 563.68,-14.37 503.59,-10.35 462.29,-9.53"/>
<polygon fill="midnightblue" stroke="midnightblue" points="663.41,-55.23 673.79,-57.37 667.02,-49.23 663.41,-55.23"/>
</g>
<!-- Node13 -->
<g id="node13" class="node">
<title>Node13</title>
<g id="a_node13"><a xlink:href="libregexp_8h.html#a1f0e5c1ad159240b0751415adb4faf47" target="_top" xlink:title=" ">
<polygon fill="none" stroke="black" points="498,-38.5 498,-57.5 614,-57.5 614,-38.5 498,-38.5"/>
<text text-anchor="middle" x="556" y="-45.5" font-family="Helvetica,sans-Serif" font-size="10.00">lre_get_groupnames</text>
</a>
</g>
</g>
<!-- Node1&#45;&gt;Node13 -->
<g id="edge14" class="edge">
<title>Node1&#45;&gt;Node13</title>
<path fill="none" stroke="midnightblue" d="M639.62,-59.94C631.43,-58.75 622.86,-57.52 614.47,-56.3"/>
<polygon fill="midnightblue" stroke="midnightblue" points="639.36,-63.44 649.76,-61.4 640.36,-56.51 639.36,-63.44"/>
</g>
<!-- Node3 -->
<g id="node3" class="node">
<title>Node3</title>
<g id="a_node3"><a xlink:href="quickjs_8c.html#a55de0909f8b4c06625f67b2fdb670279" target="_top" xlink:title=" ">
<polygon fill="none" stroke="black" points="201,-38.5 201,-57.5 326,-57.5 326,-38.5 201,-38.5"/>
<text text-anchor="middle" x="263.5" y="-45.5" font-family="Helvetica,sans-Serif" font-size="10.00">js_is_standard_regexp</text>
</a>
</g>
</g>
<!-- Node2&#45;&gt;Node3 -->
<g id="edge2" class="edge">
<title>Node2&#45;&gt;Node3</title>
<path fill="none" stroke="midnightblue" d="M355.63,-59.82C346.02,-58.57 335.97,-57.27 326.21,-56"/>
<polygon fill="midnightblue" stroke="midnightblue" points="355.48,-63.33 365.85,-61.14 356.38,-56.39 355.48,-63.33"/>
</g>
<!-- Node5 -->
<g id="node5" class="node">
<title>Node5</title>
<g id="a_node5"><a xlink:href="quickjs_8c.html#ab737681b4f1a426c560df37c1304c9d6" target="_top" xlink:title=" ">
<polygon fill="none" stroke="black" points="218.5,-76.5 218.5,-95.5 308.5,-95.5 308.5,-76.5 218.5,-76.5"/>
<text text-anchor="middle" x="263.5" y="-83.5" font-family="Helvetica,sans-Serif" font-size="10.00">JS_RegExpExec</text>
</a>
</g>
</g>
<!-- Node2&#45;&gt;Node5 -->
<g id="edge4" class="edge">
<title>Node2&#45;&gt;Node5</title>
<path fill="none" stroke="midnightblue" d="M355.83,-74.16C340.28,-76.17 323.57,-78.34 308.75,-80.26"/>
<polygon fill="midnightblue" stroke="midnightblue" points="356.38,-77.61 365.85,-72.86 355.48,-70.67 356.38,-77.61"/>
</g>
<!-- Node4 -->
<g id="node4" class="node">
<title>Node4</title>
<g id="a_node4"><a xlink:href="quickjs_8c.html#a6a77bcdb9f7f18c13c108c99a198708b" target="_top" xlink:title=" ">
<polygon fill="none" stroke="black" points="9,-0.5 9,-19.5 156,-19.5 156,-0.5 9,-0.5"/>
<text text-anchor="middle" x="82.5" y="-7.5" font-family="Helvetica,sans-Serif" font-size="10.00">js_regexp_Symbol_replace</text>
</a>
</g>
</g>
<!-- Node3&#45;&gt;Node4 -->
<g id="edge3" class="edge">
<title>Node3&#45;&gt;Node4</title>
<path fill="none" stroke="midnightblue" d="M207.48,-36.32C182.09,-30.93 152.34,-24.61 128.34,-19.52"/>
<polygon fill="midnightblue" stroke="midnightblue" points="206.82,-39.76 217.33,-38.41 208.28,-32.91 206.82,-39.76"/>
</g>
<!-- Node5&#45;&gt;Node4 -->
<g id="edge7" class="edge">
<title>Node5&#45;&gt;Node4</title>
<path fill="none" stroke="midnightblue" d="M211.73,-72.66C208,-70.98 204.37,-69.1 201,-67 181.24,-54.72 185.18,-40.57 165,-29 158.19,-25.1 150.63,-21.99 142.94,-19.53"/>
<polygon fill="midnightblue" stroke="midnightblue" points="210.6,-75.98 221.18,-76.46 213.21,-69.48 210.6,-75.98"/>
</g>
<!-- Node6 -->
<g id="node6" class="node">
<title>Node6</title>
<g id="a_node6"><a xlink:href="quickjs_8c.html#aeb6df5fcffc6fecfac1e9b0d709e99c5" target="_top" xlink:title=" ">
<polygon fill="none" stroke="black" points="0,-152.5 0,-171.5 165,-171.5 165,-152.5 0,-152.5"/>
<text text-anchor="middle" x="82.5" y="-159.5" font-family="Helvetica,sans-Serif" font-size="10.00">js_regexp_string_iterator_next</text>
</a>
</g>
</g>
<!-- Node5&#45;&gt;Node6 -->
<g id="edge5" class="edge">
<title>Node5&#45;&gt;Node6</title>
<path fill="none" stroke="midnightblue" d="M240.66,-101.35C221.51,-114.16 192.52,-132.04 165,-143 155.55,-146.76 145.18,-149.89 135.09,-152.44"/>
<polygon fill="midnightblue" stroke="midnightblue" points="242.67,-104.22 248.97,-95.69 238.73,-98.43 242.67,-104.22"/>
</g>
<!-- Node7 -->
<g id="node7" class="node">
<title>Node7</title>
<g id="a_node7"><a xlink:href="quickjs_8c.html#a41fc4304b39616e7be3500fe6ec881c2" target="_top" xlink:title=" ">
<polygon fill="none" stroke="black" points="11.5,-114.5 11.5,-133.5 153.5,-133.5 153.5,-114.5 11.5,-114.5"/>
<text text-anchor="middle" x="82.5" y="-121.5" font-family="Helvetica,sans-Serif" font-size="10.00">js_regexp_Symbol_match</text>
</a>
</g>
</g>
<!-- Node5&#45;&gt;Node7 -->
<g id="edge6" class="edge">
<title>Node5&#45;&gt;Node7</title>
<path fill="none" stroke="midnightblue" d="M208.35,-97.49C182.83,-102.91 152.73,-109.3 128.48,-114.45"/>
<polygon fill="midnightblue" stroke="midnightblue" points="209.2,-100.89 218.25,-95.39 207.74,-94.05 209.2,-100.89"/>
</g>
<!-- Node8 -->
<g id="node8" class="node">
<title>Node8</title>
<g id="a_node8"><a xlink:href="quickjs_8c.html#af315d0f35b4b11e5957b904c98bf1c0d" target="_top" xlink:title=" ">
<polygon fill="none" stroke="black" points="11,-76.5 11,-95.5 154,-95.5 154,-76.5 11,-76.5"/>
<text text-anchor="middle" x="82.5" y="-83.5" font-family="Helvetica,sans-Serif" font-size="10.00">js_regexp_Symbol_search</text>
</a>
</g>
</g>
<!-- Node5&#45;&gt;Node8 -->
<g id="edge8" class="edge">
<title>Node5&#45;&gt;Node8</title>
<path fill="none" stroke="midnightblue" d="M207.96,-86C190.97,-86 171.98,-86 154.05,-86"/>
<polygon fill="midnightblue" stroke="midnightblue" points="208.25,-89.5 218.25,-86 208.25,-82.5 208.25,-89.5"/>
</g>
<!-- Node9 -->
<g id="node9" class="node">
<title>Node9</title>
<g id="a_node9"><a xlink:href="quickjs_8c.html#a79872a6d9d139e36d5d1894d16132024" target="_top" xlink:title=" ">
<polygon fill="none" stroke="black" points="16.5,-38.5 16.5,-57.5 148.5,-57.5 148.5,-38.5 16.5,-38.5"/>
<text text-anchor="middle" x="82.5" y="-45.5" font-family="Helvetica,sans-Serif" font-size="10.00">js_regexp_Symbol_split</text>
</a>
</g>
</g>
<!-- Node5&#45;&gt;Node9 -->
<g id="edge9" class="edge">
<title>Node5&#45;&gt;Node9</title>
<path fill="none" stroke="midnightblue" d="M208.35,-74.51C182.83,-69.09 152.73,-62.7 128.48,-57.55"/>
<polygon fill="midnightblue" stroke="midnightblue" points="207.74,-77.95 218.25,-76.61 209.2,-71.11 207.74,-77.95"/>
</g>
<!-- Node10 -->
<g id="node10" class="node">
<title>Node10</title>
<g id="a_node10"><a xlink:href="quickjs_8c.html#acda1b1a97bfde7e280456c5969b7a2a3" target="_top" xlink:title=" ">
<polygon fill="none" stroke="black" points="38.5,-190.5 38.5,-209.5 126.5,-209.5 126.5,-190.5 38.5,-190.5"/>
<text text-anchor="middle" x="82.5" y="-197.5" font-family="Helvetica,sans-Serif" font-size="10.00">js_regexp_test</text>
</a>
</g>
</g>
<!-- Node5&#45;&gt;Node10 -->
<g id="edge10" class="edge">
<title>Node5&#45;&gt;Node10</title>
<path fill="none" stroke="midnightblue" d="M249.49,-103.57C232.51,-125.2 200.71,-161.46 165,-181 153.27,-187.42 139.45,-191.68 126.55,-194.5"/>
<polygon fill="midnightblue" stroke="midnightblue" points="252.34,-105.61 255.64,-95.54 246.78,-101.36 252.34,-105.61"/>
</g>
<!-- Node12&#45;&gt;Node4 -->
<g id="edge13" class="edge">
<title>Node12&#45;&gt;Node4</title>
<path fill="none" stroke="midnightblue" d="M351.71,-10C296.82,-10 215.06,-10 156.25,-10"/>
<polygon fill="midnightblue" stroke="midnightblue" points="351.97,-13.5 361.97,-10 351.97,-6.5 351.97,-13.5"/>
</g>
<!-- Node13&#45;&gt;Node2 -->
<g id="edge15" class="edge">
<title>Node13&#45;&gt;Node2</title>
<path fill="none" stroke="midnightblue" d="M487.44,-57.04C477.57,-58.36 467.62,-59.69 458.34,-60.93"/>
<polygon fill="midnightblue" stroke="midnightblue" points="488.21,-60.47 497.65,-55.67 487.28,-53.53 488.21,-60.47"/>
</g>
</g>
</svg>
