<?xml version="1.0" encoding="UTF-8" standalone="no"?>
<!DOCTYPE svg PUBLIC "-//W3C//DTD SVG 1.1//EN"
 "http://www.w3.org/Graphics/SVG/1.1/DTD/svg11.dtd">
<!-- Generated by graphviz version 2.43.0 (0)
 -->
<!-- Title: re_parse_expect Pages: 1 -->
<svg width="534pt" height="47pt"
 viewBox="0.00 0.00 534.00 47.00" xmlns="http://www.w3.org/2000/svg" xmlns:xlink="http://www.w3.org/1999/xlink">
<g id="graph0" class="graph" transform="scale(1 1) rotate(0) translate(4 43)">
<title>re_parse_expect</title>
<!-- Node1 -->
<g id="node1" class="node">
<title>Node1</title>
<g id="a_node1"><a xlink:title=" ">
<polygon fill="#bfbfbf" stroke="black" points="429,-0.5 429,-19.5 526,-19.5 526,-0.5 429,-0.5"/>
<text text-anchor="middle" x="477.5" y="-7.5" font-family="Helvetica,sans-Serif" font-size="10.00">re_parse_expect</text>
</a>
</g>
</g>
<!-- Node2 -->
<g id="node2" class="node">
<title>Node2</title>
<g id="a_node2"><a xlink:href="libregexp_8c.html#acca34590a18d70f866ad56d67ce309e8" target="_top" xlink:title=" ">
<polygon fill="none" stroke="black" points="306,-0.5 306,-19.5 393,-19.5 393,-0.5 306,-0.5"/>
<text text-anchor="middle" x="349.5" y="-7.5" font-family="Helvetica,sans-Serif" font-size="10.00">re_parse_term</text>
</a>
</g>
</g>
<!-- Node1&#45;&gt;Node2 -->
<g id="edge1" class="edge">
<title>Node1&#45;&gt;Node2</title>
<path fill="none" stroke="midnightblue" d="M418.85,-10C410.23,-10 401.47,-10 393.23,-10"/>
<polygon fill="midnightblue" stroke="midnightblue" points="418.86,-13.5 428.86,-10 418.86,-6.5 418.86,-13.5"/>
</g>
<!-- Node3 -->
<g id="node3" class="node">
<title>Node3</title>
<g id="a_node3"><a xlink:href="libregexp_8c.html#a87dce3150c68b8a079854274dd39243c" target="_top" xlink:title=" ">
<polygon fill="none" stroke="black" points="153,-19.5 153,-38.5 270,-38.5 270,-19.5 153,-19.5"/>
<text text-anchor="middle" x="211.5" y="-26.5" font-family="Helvetica,sans-Serif" font-size="10.00">re_parse_alternative</text>
</a>
</g>
</g>
<!-- Node2&#45;&gt;Node3 -->
<g id="edge2" class="edge">
<title>Node2&#45;&gt;Node3</title>
<path fill="none" stroke="midnightblue" d="M295.88,-17.35C287.55,-18.51 278.9,-19.72 270.46,-20.9"/>
<polygon fill="midnightblue" stroke="midnightblue" points="296.42,-20.81 305.84,-15.96 295.45,-13.88 296.42,-20.81"/>
</g>
<!-- Node4 -->
<g id="node4" class="node">
<title>Node4</title>
<g id="a_node4"><a xlink:href="libregexp_8c.html#af445f369f2ccbbc81596e0fbed929b7e" target="_top" xlink:title=" ">
<polygon fill="none" stroke="red" points="0,-0.5 0,-19.5 117,-19.5 117,-0.5 0,-0.5"/>
<text text-anchor="middle" x="58.5" y="-7.5" font-family="Helvetica,sans-Serif" font-size="10.00">re_parse_disjunction</text>
</a>
</g>
</g>
<!-- Node3&#45;&gt;Node4 -->
<g id="edge3" class="edge">
<title>Node3&#45;&gt;Node4</title>
<path fill="none" stroke="midnightblue" d="M142.95,-20.5C134.32,-19.41 125.56,-18.31 117.11,-17.25"/>
<polygon fill="midnightblue" stroke="midnightblue" points="142.62,-23.99 152.98,-21.76 143.5,-17.04 142.62,-23.99"/>
</g>
<!-- Node4&#45;&gt;Node2 -->
<g id="edge4" class="edge">
<title>Node4&#45;&gt;Node2</title>
<path fill="none" stroke="midnightblue" d="M127.1,-10C182.35,-10 258.78,-10 305.86,-10"/>
<polygon fill="midnightblue" stroke="midnightblue" points="127.04,-6.5 117.04,-10 127.04,-13.5 127.04,-6.5"/>
</g>
</g>
</svg>
