<?xml version="1.0" encoding="UTF-8" standalone="no"?>
<!DOCTYPE svg PUBLIC "-//W3C//DTD SVG 1.1//EN"
 "http://www.w3.org/Graphics/SVG/1.1/DTD/svg11.dtd">
<!-- Generated by graphviz version 2.43.0 (0)
 -->
<!-- Title: unicode_decomp_char Pages: 1 -->
<svg width="530pt" height="46pt"
 viewBox="0.00 0.00 530.00 46.00" xmlns="http://www.w3.org/2000/svg" xmlns:xlink="http://www.w3.org/1999/xlink">
<g id="graph0" class="graph" transform="scale(1 1) rotate(0) translate(4 42)">
<title>unicode_decomp_char</title>
<!-- Node1 -->
<g id="node1" class="node">
<title>Node1</title>
<g id="a_node1"><a xlink:title=" ">
<polygon fill="#bfbfbf" stroke="black" points="397,-0.5 397,-19.5 522,-19.5 522,-0.5 397,-0.5"/>
<text text-anchor="middle" x="459.5" y="-7.5" font-family="Helvetica,sans-Serif" font-size="10.00">unicode_decomp_char</text>
</a>
</g>
</g>
<!-- Node2 -->
<g id="node2" class="node">
<title>Node2</title>
<g id="a_node2"><a xlink:href="libunicode_8c.html#ab30f4b72bed0cefc5b1ceeb8caef2afc" target="_top" xlink:title=" ">
<polygon fill="none" stroke="black" points="293,-0.5 293,-19.5 361,-19.5 361,-0.5 293,-0.5"/>
<text text-anchor="middle" x="327" y="-7.5" font-family="Helvetica,sans-Serif" font-size="10.00">to_nfd_rec</text>
</a>
</g>
</g>
<!-- Node1&#45;&gt;Node2 -->
<g id="edge1" class="edge">
<title>Node1&#45;&gt;Node2</title>
<path fill="none" stroke="midnightblue" d="M386.64,-10C377.76,-10 369.06,-10 361.18,-10"/>
<polygon fill="midnightblue" stroke="midnightblue" points="386.69,-13.5 396.69,-10 386.69,-6.5 386.69,-13.5"/>
</g>
<!-- Node2&#45;&gt;Node2 -->
<g id="edge2" class="edge">
<title>Node2&#45;&gt;Node2</title>
<path fill="none" stroke="midnightblue" d="M350.07,-29.03C348.81,-34.13 341.12,-38 327,-38 304.96,-38 298.59,-28.57 307.89,-19.76"/>
<polygon fill="midnightblue" stroke="midnightblue" points="353.25,-27.58 346.11,-19.76 346.81,-30.33 353.25,-27.58"/>
</g>
<!-- Node3 -->
<g id="node3" class="node">
<title>Node3</title>
<g id="a_node3"><a xlink:href="libunicode_8c.html#a6a79bc427bb64048b575fe5ac770160d" target="_top" xlink:title=" ">
<polygon fill="none" stroke="black" points="148,-0.5 148,-19.5 257,-19.5 257,-0.5 148,-0.5"/>
<text text-anchor="middle" x="202.5" y="-7.5" font-family="Helvetica,sans-Serif" font-size="10.00">unicode_normalize</text>
</a>
</g>
</g>
<!-- Node2&#45;&gt;Node3 -->
<g id="edge3" class="edge">
<title>Node2&#45;&gt;Node3</title>
<path fill="none" stroke="midnightblue" d="M282.78,-10C274.59,-10 265.93,-10 257.46,-10"/>
<polygon fill="midnightblue" stroke="midnightblue" points="282.85,-13.5 292.85,-10 282.85,-6.5 282.85,-13.5"/>
</g>
<!-- Node4 -->
<g id="node4" class="node">
<title>Node4</title>
<g id="a_node4"><a xlink:href="quickjs_8c.html#ac6b88454ffc4d639197c1e95e515e04a" target="_top" xlink:title=" ">
<polygon fill="none" stroke="black" points="0,-0.5 0,-19.5 112,-19.5 112,-0.5 0,-0.5"/>
<text text-anchor="middle" x="56" y="-7.5" font-family="Helvetica,sans-Serif" font-size="10.00">js_string_normalize</text>
</a>
</g>
</g>
<!-- Node3&#45;&gt;Node4 -->
<g id="edge4" class="edge">
<title>Node3&#45;&gt;Node4</title>
<path fill="none" stroke="midnightblue" d="M137.54,-10C129.12,-10 120.55,-10 112.3,-10"/>
<polygon fill="midnightblue" stroke="midnightblue" points="137.69,-13.5 147.69,-10 137.69,-6.5 137.69,-13.5"/>
</g>
</g>
</svg>
