<?xml version="1.0" encoding="UTF-8" standalone="no"?>
<!DOCTYPE svg PUBLIC "-//W3C//DTD SVG 1.1//EN"
 "http://www.w3.org/Graphics/SVG/1.1/DTD/svg11.dtd">
<!-- Generated by graphviz version 2.43.0 (0)
 -->
<!-- Title: unicode_prop Pages: 1 -->
<svg width="756pt" height="330pt"
 viewBox="0.00 0.00 756.00 330.09" xmlns="http://www.w3.org/2000/svg" xmlns:xlink="http://www.w3.org/1999/xlink">
<g id="graph0" class="graph" transform="scale(1 1) rotate(0) translate(4 326.09)">
<title>unicode_prop</title>
<!-- Node1 -->
<g id="node1" class="node">
<title>Node1</title>
<g id="a_node1"><a xlink:title=" ">
<polygon fill="#bfbfbf" stroke="black" points="0,-236.06 0,-255.06 82,-255.06 82,-236.06 0,-236.06"/>
<text text-anchor="middle" x="41" y="-243.06" font-family="Helvetica,sans-Serif" font-size="10.00">unicode_prop</text>
</a>
</g>
</g>
<!-- Node2 -->
<g id="node2" class="node">
<title>Node2</title>
<g id="a_node2"><a xlink:href="libunicode_8h.html#aeade60962a424d84bc260a72311a0745" target="_top" xlink:title=" ">
<polygon fill="none" stroke="black" points="458,-236.06 458,-255.06 550,-255.06 550,-236.06 458,-236.06"/>
<text text-anchor="middle" x="504" y="-243.06" font-family="Helvetica,sans-Serif" font-size="10.00">cr_add_interval</text>
</a>
</g>
</g>
<!-- Node1&#45;&gt;Node2 -->
<g id="edge1" class="edge">
<title>Node1&#45;&gt;Node2</title>
<path fill="none" stroke="midnightblue" d="M59.91,-255.2C74.99,-262.93 97.35,-273.44 118,-279.56 245.37,-317.28 288.71,-340.54 416,-302.56 442.52,-294.64 468.47,-275.77 485.03,-261.9"/>
<polygon fill="midnightblue" stroke="midnightblue" points="487.51,-264.38 492.78,-255.19 482.93,-259.09 487.51,-264.38"/>
</g>
<!-- Node5 -->
<g id="node5" class="node">
<title>Node5</title>
<g id="a_node5"><a xlink:href="libunicode_8c.html#a35d09b5e2095fe4d202ea26c98871689" target="_top" xlink:title=" ">
<polygon fill="none" stroke="black" points="296,-274.06 296,-293.06 385,-293.06 385,-274.06 296,-274.06"/>
<text text-anchor="middle" x="340.5" y="-281.06" font-family="Helvetica,sans-Serif" font-size="10.00">unicode_case1</text>
</a>
</g>
</g>
<!-- Node1&#45;&gt;Node5 -->
<g id="edge4" class="edge">
<title>Node1&#45;&gt;Node5</title>
<path fill="none" stroke="midnightblue" d="M82.14,-253.53C93.69,-255.66 106.32,-257.85 118,-259.56 174.99,-267.88 240.62,-274.64 285.56,-278.84"/>
<polygon fill="midnightblue" stroke="midnightblue" points="285.39,-282.34 295.67,-279.77 286.03,-275.37 285.39,-282.34"/>
</g>
<!-- Node6 -->
<g id="node6" class="node">
<title>Node6</title>
<g id="a_node6"><a xlink:href="libunicode_8c.html#a2c7890f229a1126ae81362db9f770003" target="_top" xlink:title=" ">
<polygon fill="none" stroke="black" points="118,-141.06 118,-160.06 229,-160.06 229,-141.06 118,-141.06"/>
<text text-anchor="middle" x="173.5" y="-148.06" font-family="Helvetica,sans-Serif" font-size="10.00">unicode_find_name</text>
</a>
</g>
</g>
<!-- Node1&#45;&gt;Node6 -->
<g id="edge6" class="edge">
<title>Node1&#45;&gt;Node6</title>
<path fill="none" stroke="midnightblue" d="M49.15,-236.01C61.52,-220.11 88.44,-188.1 118,-169.56 121.2,-167.55 124.64,-165.72 128.18,-164.06"/>
<polygon fill="midnightblue" stroke="midnightblue" points="129.83,-167.16 137.69,-160.06 127.12,-160.71 129.83,-167.16"/>
</g>
<!-- Node7 -->
<g id="node7" class="node">
<title>Node7</title>
<g id="a_node7"><a xlink:href="libunicode_8c.html#a91155ef56a166c73950e8c0954813fa3" target="_top" xlink:title=" ">
<polygon fill="none" stroke="black" points="296.5,-236.06 296.5,-255.06 384.5,-255.06 384.5,-236.06 296.5,-236.06"/>
<text text-anchor="middle" x="340.5" y="-243.06" font-family="Helvetica,sans-Serif" font-size="10.00">unicode_prop1</text>
</a>
</g>
</g>
<!-- Node1&#45;&gt;Node7 -->
<g id="edge7" class="edge">
<title>Node1&#45;&gt;Node7</title>
<path fill="none" stroke="midnightblue" d="M82.12,-245.56C134.79,-245.56 227.4,-245.56 285.99,-245.56"/>
<polygon fill="midnightblue" stroke="midnightblue" points="286.16,-249.06 296.16,-245.56 286.16,-242.06 286.16,-249.06"/>
</g>
<!-- Node8 -->
<g id="node8" class="node">
<title>Node8</title>
<g id="a_node8"><a xlink:href="libunicode_8c.html#a58dbb07f758bbf3de6c87a0647ec72e3" target="_top" xlink:title=" ">
<polygon fill="none" stroke="black" points="121.5,-179.06 121.5,-198.06 225.5,-198.06 225.5,-179.06 121.5,-179.06"/>
<text text-anchor="middle" x="173.5" y="-186.06" font-family="Helvetica,sans-Serif" font-size="10.00">unicode_prop_ops</text>
</a>
</g>
</g>
<!-- Node1&#45;&gt;Node8 -->
<g id="edge9" class="edge">
<title>Node1&#45;&gt;Node8</title>
<path fill="none" stroke="midnightblue" d="M63.84,-236.02C85.02,-226.77 117.35,-212.65 141.24,-202.21"/>
<polygon fill="midnightblue" stroke="midnightblue" points="142.82,-205.34 150.59,-198.13 140.02,-198.92 142.82,-205.34"/>
</g>
<!-- Node3 -->
<g id="node3" class="node">
<title>Node3</title>
<g id="a_node3"><a xlink:href="libunicode_8c.html#a7b73e29a0e2b936a11426d602faac462" target="_top" xlink:title=" ">
<polygon fill="none" stroke="black" points="592,-122.06 592,-141.06 656,-141.06 656,-122.06 592,-122.06"/>
<text text-anchor="middle" x="624" y="-129.06" font-family="Helvetica,sans-Serif" font-size="10.00">cr_realloc</text>
</a>
</g>
</g>
<!-- Node2&#45;&gt;Node3 -->
<g id="edge2" class="edge">
<title>Node2&#45;&gt;Node3</title>
<path fill="none" stroke="midnightblue" d="M515.06,-235.84C535.18,-216.4 580.57,-172.55 605.61,-148.36"/>
<polygon fill="midnightblue" stroke="midnightblue" points="608.2,-150.72 612.96,-141.25 603.34,-145.68 608.2,-150.72"/>
</g>
<!-- Node4 -->
<g id="node4" class="node">
<title>Node4</title>
<g id="a_node4"><a xlink:href="cutils_8h.html#a94f155fcce337a2b9d4719ed8042cbbe" target="_top" xlink:title=" ">
<polygon fill="none" stroke="black" points="692,-122.06 692,-141.06 748,-141.06 748,-122.06 692,-122.06"/>
<text text-anchor="middle" x="720" y="-129.06" font-family="Helvetica,sans-Serif" font-size="10.00">max_int</text>
</a>
</g>
</g>
<!-- Node3&#45;&gt;Node4 -->
<g id="edge3" class="edge">
<title>Node3&#45;&gt;Node4</title>
<path fill="none" stroke="midnightblue" d="M656.04,-131.56C664.25,-131.56 673.2,-131.56 681.71,-131.56"/>
<polygon fill="midnightblue" stroke="midnightblue" points="681.78,-135.06 691.78,-131.56 681.78,-128.06 681.78,-135.06"/>
</g>
<!-- Node5&#45;&gt;Node2 -->
<g id="edge5" class="edge">
<title>Node5&#45;&gt;Node2</title>
<path fill="none" stroke="midnightblue" d="M382.25,-273.97C403.66,-268.93 430.09,-262.71 452.75,-257.38"/>
<polygon fill="midnightblue" stroke="midnightblue" points="453.61,-260.77 462.54,-255.08 452,-253.96 453.61,-260.77"/>
</g>
<!-- Node7&#45;&gt;Node2 -->
<g id="edge8" class="edge">
<title>Node7&#45;&gt;Node2</title>
<path fill="none" stroke="midnightblue" d="M384.78,-245.56C404.12,-245.56 427.15,-245.56 447.72,-245.56"/>
<polygon fill="midnightblue" stroke="midnightblue" points="447.91,-249.06 457.91,-245.56 447.91,-242.06 447.91,-249.06"/>
</g>
<!-- Node8&#45;&gt;Node5 -->
<g id="edge22" class="edge">
<title>Node8&#45;&gt;Node5</title>
<path fill="none" stroke="midnightblue" d="M183,-198.07C197.96,-214.21 230.68,-246.95 265,-264.56 271.53,-267.91 278.7,-270.7 285.92,-273.01"/>
<polygon fill="midnightblue" stroke="midnightblue" points="285.17,-276.44 295.75,-275.88 287.13,-269.72 285.17,-276.44"/>
</g>
<!-- Node8&#45;&gt;Node7 -->
<g id="edge25" class="edge">
<title>Node8&#45;&gt;Node7</title>
<path fill="none" stroke="midnightblue" d="M195.01,-198.2C213.14,-206.47 240.44,-218.32 265,-226.56 272.22,-228.98 279.91,-231.26 287.52,-233.35"/>
<polygon fill="midnightblue" stroke="midnightblue" points="286.85,-236.79 297.42,-235.98 288.65,-230.03 286.85,-236.79"/>
</g>
<!-- Node9 -->
<g id="node9" class="node">
<title>Node9</title>
<g id="a_node9"><a xlink:href="libunicode_8c.html#a9bd15878dff9b34a1cbd091f1559b8b5" target="_top" xlink:title=" ">
<polygon fill="none" stroke="black" points="477,-8.06 477,-27.06 531,-27.06 531,-8.06 477,-8.06"/>
<text text-anchor="middle" x="504" y="-15.06" font-family="Helvetica,sans-Serif" font-size="10.00">cr_copy</text>
</a>
</g>
</g>
<!-- Node8&#45;&gt;Node9 -->
<g id="edge10" class="edge">
<title>Node8&#45;&gt;Node9</title>
<path fill="none" stroke="midnightblue" d="M216.13,-178.99C220.92,-176.53 225.38,-173.44 229,-169.56 270.74,-124.74 217.89,-75.68 265,-36.56 322.13,10.89 415.86,1.23 466.98,-8.84"/>
<polygon fill="midnightblue" stroke="midnightblue" points="466.41,-12.3 476.92,-10.91 467.84,-5.44 466.41,-12.3"/>
</g>
<!-- Node10 -->
<g id="node10" class="node">
<title>Node10</title>
<g id="a_node10"><a xlink:href="libunicode_8c.html#a32dd1af21800853555eaa260ddffeff4" target="_top" xlink:title=" ">
<polygon fill="none" stroke="black" points="315.5,-160.06 315.5,-179.06 365.5,-179.06 365.5,-160.06 315.5,-160.06"/>
<text text-anchor="middle" x="340.5" y="-167.06" font-family="Helvetica,sans-Serif" font-size="10.00">cr_free</text>
</a>
</g>
</g>
<!-- Node8&#45;&gt;Node10 -->
<g id="edge12" class="edge">
<title>Node8&#45;&gt;Node10</title>
<path fill="none" stroke="midnightblue" d="M225.8,-182.65C251.73,-179.66 282.47,-176.12 305.45,-173.48"/>
<polygon fill="midnightblue" stroke="midnightblue" points="305.88,-176.95 315.41,-172.33 305.08,-170 305.88,-176.95"/>
</g>
<!-- Node11 -->
<g id="node11" class="node">
<title>Node11</title>
<g id="a_node11"><a xlink:href="libunicode_8c.html#a6fc0a36e3fd26d4b91b66cd5619be63b" target="_top" xlink:title=" ">
<polygon fill="none" stroke="black" points="317,-46.06 317,-65.06 364,-65.06 364,-46.06 317,-46.06"/>
<text text-anchor="middle" x="340.5" y="-53.06" font-family="Helvetica,sans-Serif" font-size="10.00">cr_init</text>
</a>
</g>
</g>
<!-- Node8&#45;&gt;Node11 -->
<g id="edge13" class="edge">
<title>Node8&#45;&gt;Node11</title>
<path fill="none" stroke="midnightblue" d="M214.96,-179.05C220.11,-176.58 224.98,-173.47 229,-169.56 261.35,-138.06 231.33,-104.64 265,-74.56 276.37,-64.39 292.44,-59.52 306.74,-57.24"/>
<polygon fill="midnightblue" stroke="midnightblue" points="307.25,-60.7 316.75,-55.99 306.39,-53.75 307.25,-60.7"/>
</g>
<!-- Node13 -->
<g id="node13" class="node">
<title>Node13</title>
<g id="a_node13"><a xlink:href="libunicode_8c.html#af1269fd74e0699bd0e12ac018a078c54" target="_top" xlink:title=" ">
<polygon fill="none" stroke="black" points="311,-122.06 311,-141.06 370,-141.06 370,-122.06 311,-122.06"/>
<text text-anchor="middle" x="340.5" y="-129.06" font-family="Helvetica,sans-Serif" font-size="10.00">cr_invert</text>
</a>
</g>
</g>
<!-- Node8&#45;&gt;Node13 -->
<g id="edge15" class="edge">
<title>Node8&#45;&gt;Node13</title>
<path fill="none" stroke="midnightblue" d="M204.51,-179C212.56,-176.19 221.19,-172.96 229,-169.56 245.59,-162.34 248.12,-157.06 265,-150.56 276.37,-146.18 289.1,-142.51 300.78,-139.59"/>
<polygon fill="midnightblue" stroke="midnightblue" points="301.79,-142.95 310.71,-137.23 300.17,-136.14 301.79,-142.95"/>
</g>
<!-- Node15 -->
<g id="node15" class="node">
<title>Node15</title>
<g id="a_node15"><a xlink:href="libunicode_8c.html#a34896d0331c7b2845f267f8f6dde6a55" target="_top" xlink:title=" ">
<polygon fill="none" stroke="black" points="319,-84.06 319,-103.06 362,-103.06 362,-84.06 319,-84.06"/>
<text text-anchor="middle" x="340.5" y="-91.06" font-family="Helvetica,sans-Serif" font-size="10.00">cr_op</text>
</a>
</g>
</g>
<!-- Node8&#45;&gt;Node15 -->
<g id="edge18" class="edge">
<title>Node8&#45;&gt;Node15</title>
<path fill="none" stroke="midnightblue" d="M212.58,-179.02C218.43,-176.53 224.14,-173.42 229,-169.56 252.46,-150.92 240.76,-130.17 265,-112.56 277.68,-103.34 294.42,-98.58 308.81,-96.13"/>
<polygon fill="midnightblue" stroke="midnightblue" points="309.37,-99.58 318.79,-94.72 308.4,-92.65 309.37,-99.58"/>
</g>
<!-- Node17 -->
<g id="node17" class="node">
<title>Node17</title>
<g id="a_node17"><a xlink:href="libunicode_8c.html#a5b19223b1de0eaf5d64806a1e3009a30" target="_top" xlink:title=" ">
<polygon fill="none" stroke="black" points="265,-198.06 265,-217.06 416,-217.06 416,-198.06 265,-198.06"/>
<text text-anchor="middle" x="340.5" y="-205.06" font-family="Helvetica,sans-Serif" font-size="10.00">unicode_general_category1</text>
</a>
</g>
</g>
<!-- Node8&#45;&gt;Node17 -->
<g id="edge23" class="edge">
<title>Node8&#45;&gt;Node17</title>
<path fill="none" stroke="midnightblue" d="M225.8,-194.46C235.1,-195.53 245.01,-196.68 254.97,-197.82"/>
<polygon fill="midnightblue" stroke="midnightblue" points="254.58,-201.3 264.91,-198.97 255.38,-194.35 254.58,-201.3"/>
</g>
<!-- Node9&#45;&gt;Node3 -->
<g id="edge11" class="edge">
<title>Node9&#45;&gt;Node3</title>
<path fill="none" stroke="midnightblue" d="M531.18,-23.97C539.66,-26.88 548.74,-30.96 556,-36.56 582.91,-57.29 603.4,-91.84 614.28,-113.06"/>
<polygon fill="midnightblue" stroke="midnightblue" points="611.14,-114.62 618.71,-122.04 617.42,-111.52 611.14,-114.62"/>
</g>
<!-- Node12 -->
<g id="node12" class="node">
<title>Node12</title>
<g id="a_node12"><a xlink:href="libunicode_8c.html#a20de05c0af47860fc64fcc54f998cddc" target="_top" xlink:title=" ">
<polygon fill="none" stroke="black" points="452,-46.06 452,-65.06 556,-65.06 556,-46.06 452,-46.06"/>
<text text-anchor="middle" x="504" y="-53.06" font-family="Helvetica,sans-Serif" font-size="10.00">cr_default_realloc</text>
</a>
</g>
</g>
<!-- Node11&#45;&gt;Node12 -->
<g id="edge14" class="edge">
<title>Node11&#45;&gt;Node12</title>
<path fill="none" stroke="midnightblue" d="M364.3,-55.56C384.34,-55.56 414.46,-55.56 441.51,-55.56"/>
<polygon fill="midnightblue" stroke="midnightblue" points="441.7,-59.06 451.7,-55.56 441.7,-52.06 441.7,-59.06"/>
</g>
<!-- Node13&#45;&gt;Node3 -->
<g id="edge17" class="edge">
<title>Node13&#45;&gt;Node3</title>
<path fill="none" stroke="midnightblue" d="M370.05,-138.18C411.26,-146.81 489.72,-159.77 556,-150.56 565.95,-149.17 576.51,-146.68 586.22,-143.95"/>
<polygon fill="midnightblue" stroke="midnightblue" points="587.39,-147.26 595.98,-141.06 585.4,-140.55 587.39,-147.26"/>
</g>
<!-- Node14 -->
<g id="node14" class="node">
<title>Node14</title>
<g id="a_node14"><a xlink:href="libunicode_8c.html#a16bf65ec6f33994ffa796da462b4a434" target="_top" xlink:title=" ">
<polygon fill="none" stroke="black" points="465,-122.06 465,-141.06 543,-141.06 543,-122.06 465,-122.06"/>
<text text-anchor="middle" x="504" y="-129.06" font-family="Helvetica,sans-Serif" font-size="10.00">cr_compress</text>
</a>
</g>
</g>
<!-- Node13&#45;&gt;Node14 -->
<g id="edge16" class="edge">
<title>Node13&#45;&gt;Node14</title>
<path fill="none" stroke="midnightblue" d="M370,-131.56C393.37,-131.56 426.96,-131.56 454.54,-131.56"/>
<polygon fill="midnightblue" stroke="midnightblue" points="454.78,-135.06 464.78,-131.56 454.78,-128.06 454.78,-135.06"/>
</g>
<!-- Node15&#45;&gt;Node14 -->
<g id="edge21" class="edge">
<title>Node15&#45;&gt;Node14</title>
<path fill="none" stroke="midnightblue" d="M362.28,-98.45C385.47,-103.9 423.78,-112.92 454.58,-120.16"/>
<polygon fill="midnightblue" stroke="midnightblue" points="454.17,-123.66 464.7,-122.55 455.77,-116.85 454.17,-123.66"/>
</g>
<!-- Node16 -->
<g id="node16" class="node">
<title>Node16</title>
<g id="a_node16"><a xlink:href="libunicode_8h.html#aaf2d50fc6added56ee3c3273e991321c" target="_top" xlink:title=" ">
<polygon fill="none" stroke="black" points="464.5,-84.06 464.5,-103.06 543.5,-103.06 543.5,-84.06 464.5,-84.06"/>
<text text-anchor="middle" x="504" y="-91.06" font-family="Helvetica,sans-Serif" font-size="10.00">cr_add_point</text>
</a>
</g>
</g>
<!-- Node15&#45;&gt;Node16 -->
<g id="edge19" class="edge">
<title>Node15&#45;&gt;Node16</title>
<path fill="none" stroke="midnightblue" d="M362.28,-93.56C385.4,-93.56 423.53,-93.56 454.28,-93.56"/>
<polygon fill="midnightblue" stroke="midnightblue" points="454.39,-97.06 464.39,-93.56 454.39,-90.06 454.39,-97.06"/>
</g>
<!-- Node16&#45;&gt;Node3 -->
<g id="edge20" class="edge">
<title>Node16&#45;&gt;Node3</title>
<path fill="none" stroke="midnightblue" d="M534.78,-103.15C549.59,-107.92 567.69,-113.74 583.63,-118.88"/>
<polygon fill="midnightblue" stroke="midnightblue" points="582.64,-122.24 593.23,-121.97 584.79,-115.57 582.64,-122.24"/>
</g>
<!-- Node17&#45;&gt;Node2 -->
<g id="edge24" class="edge">
<title>Node17&#45;&gt;Node2</title>
<path fill="none" stroke="midnightblue" d="M382.25,-217.15C403.66,-222.18 430.09,-228.4 452.75,-233.73"/>
<polygon fill="midnightblue" stroke="midnightblue" points="452,-237.15 462.54,-236.04 453.61,-230.34 452,-237.15"/>
</g>
</g>
</svg>
