<?xml version="1.0" encoding="UTF-8" standalone="no"?>
<!DOCTYPE svg PUBLIC "-//W3C//DTD SVG 1.1//EN"
 "http://www.w3.org/Graphics/SVG/1.1/DTD/svg11.dtd">
<!-- Generated by graphviz version 2.43.0 (0)
 -->
<!-- Title: JS_SetConstructor2 Pages: 1 -->
<svg width="1111pt" height="1112pt"
 viewBox="0.00 0.00 1111.00 1111.75" xmlns="http://www.w3.org/2000/svg" xmlns:xlink="http://www.w3.org/1999/xlink">
<g id="graph0" class="graph" transform="scale(1 1) rotate(0) translate(4 1107.75)">
<title>JS_SetConstructor2</title>
<!-- Node1 -->
<g id="node1" class="node">
<title>Node1</title>
<g id="a_node1"><a xlink:title=" ">
<polygon fill="#bfbfbf" stroke="black" points="0,-38.5 0,-57.5 109,-57.5 109,-38.5 0,-38.5"/>
<text text-anchor="middle" x="54.5" y="-45.5" font-family="Helvetica,sans-Serif" font-size="10.00">JS_SetConstructor2</text>
</a>
</g>
</g>
<!-- Node2 -->
<g id="node2" class="node">
<title>Node2</title>
<g id="a_node2"><a xlink:href="quickjs_8c.html#a0a8765bd4012467d9139bc24aabcb3ca" target="_top" xlink:title=" ">
<polygon fill="none" stroke="black" points="145,-551.5 145,-570.5 276,-570.5 276,-551.5 145,-551.5"/>
<text text-anchor="middle" x="210.5" y="-558.5" font-family="Helvetica,sans-Serif" font-size="10.00">JS_DefinePropertyValue</text>
</a>
</g>
</g>
<!-- Node1&#45;&gt;Node2 -->
<g id="edge1" class="edge">
<title>Node1&#45;&gt;Node2</title>
<path fill="none" stroke="midnightblue" d="M58.44,-57.79C77,-119.63 178.04,-456.21 203.62,-541.4"/>
<polygon fill="midnightblue" stroke="midnightblue" points="200.3,-542.54 206.53,-551.11 207.01,-540.52 200.3,-542.54"/>
</g>
<!-- Node30 -->
<g id="node20" class="node">
<title>Node30</title>
<g id="a_node20"><a xlink:href="quickjs_8h.html#a775522f2d084fc8fa0fcb33f390006b4" target="_top" xlink:title=" ">
<polygon fill="none" stroke="black" points="696,-168.5 696,-187.5 773,-187.5 773,-168.5 696,-168.5"/>
<text text-anchor="middle" x="734.5" y="-175.5" font-family="Helvetica,sans-Serif" font-size="10.00">JS_DupValue</text>
</a>
</g>
</g>
<!-- Node1&#45;&gt;Node30 -->
<g id="edge56" class="edge">
<title>Node1&#45;&gt;Node30</title>
<path fill="none" stroke="midnightblue" d="M109.44,-44.36C235.31,-36.72 544.76,-23.13 637,-67 678.3,-86.64 709.05,-133.14 723.79,-159.29"/>
<polygon fill="midnightblue" stroke="midnightblue" points="720.8,-161.11 728.65,-168.22 726.95,-157.77 720.8,-161.11"/>
</g>
<!-- Node406 -->
<g id="node30" class="node">
<title>Node406</title>
<g id="a_node30"><a xlink:href="quickjs_8c.html#a3eb2bd652569b26b83de08a76797afe9" target="_top" xlink:title=" ">
<polygon fill="none" stroke="black" points="167.5,-0.5 167.5,-19.5 253.5,-19.5 253.5,-0.5 167.5,-0.5"/>
<text text-anchor="middle" x="210.5" y="-7.5" font-family="Helvetica,sans-Serif" font-size="10.00">set_cycle_flag</text>
</a>
</g>
</g>
<!-- Node1&#45;&gt;Node406 -->
<g id="edge57" class="edge">
<title>Node1&#45;&gt;Node406</title>
<path fill="none" stroke="midnightblue" d="M94.36,-38.41C114.59,-33.42 139.52,-27.27 161,-21.97"/>
<polygon fill="midnightblue" stroke="midnightblue" points="162.05,-25.31 170.92,-19.52 160.37,-18.52 162.05,-25.31"/>
</g>
<!-- Node3 -->
<g id="node3" class="node">
<title>Node3</title>
<g id="a_node3"><a xlink:href="quickjs_8c.html#ab50618f1bf78e444caa6da0e3e2785d7" target="_top" xlink:title=" ">
<polygon fill="none" stroke="red" points="312,-551.5 312,-570.5 416,-570.5 416,-551.5 312,-551.5"/>
<text text-anchor="middle" x="364" y="-558.5" font-family="Helvetica,sans-Serif" font-size="10.00">JS_DefineProperty</text>
</a>
</g>
</g>
<!-- Node2&#45;&gt;Node3 -->
<g id="edge2" class="edge">
<title>Node2&#45;&gt;Node3</title>
<path fill="none" stroke="midnightblue" d="M276.19,-561C284.65,-561 293.3,-561 301.71,-561"/>
<polygon fill="midnightblue" stroke="midnightblue" points="301.8,-564.5 311.8,-561 301.8,-557.5 301.8,-564.5"/>
</g>
<!-- Node31 -->
<g id="node15" class="node">
<title>Node31</title>
<g id="a_node15"><a xlink:href="quickjs_8h.html#afaa20c47565bc704c6c85f3d77254e7d" target="_top" xlink:title=" ">
<polygon fill="none" stroke="red" points="695,-930.5 695,-949.5 774,-949.5 774,-930.5 695,-930.5"/>
<text text-anchor="middle" x="734.5" y="-937.5" font-family="Helvetica,sans-Serif" font-size="10.00">JS_FreeValue</text>
</a>
</g>
</g>
<!-- Node2&#45;&gt;Node31 -->
<g id="edge55" class="edge">
<title>Node2&#45;&gt;Node31</title>
<path fill="none" stroke="midnightblue" d="M212.41,-570.82C218.6,-630.98 260.08,-951.11 452,-1073 521.41,-1117.08 563.75,-1110.35 637,-1073 684.06,-1049 713.53,-990.14 726.23,-959.4"/>
<polygon fill="midnightblue" stroke="midnightblue" points="729.61,-960.39 730.03,-949.8 723.1,-957.82 729.61,-960.39"/>
</g>
<!-- Node4 -->
<g id="node4" class="node">
<title>Node4</title>
<g id="a_node4"><a xlink:href="quickjs_8c.html#a014abd680db53ab89cb133345742a59c" target="_top" xlink:title=" ">
<polygon fill="none" stroke="red" points="694.5,-839.5 694.5,-858.5 774.5,-858.5 774.5,-839.5 694.5,-839.5"/>
<text text-anchor="middle" x="734.5" y="-846.5" font-family="Helvetica,sans-Serif" font-size="10.00">__attribute__</text>
</a>
</g>
</g>
<!-- Node3&#45;&gt;Node4 -->
<g id="edge3" class="edge">
<title>Node3&#45;&gt;Node4</title>
<path fill="none" stroke="midnightblue" d="M364.8,-570.62C364.58,-609.51 369.41,-756.26 452,-822 486.78,-849.69 613.22,-851.71 684.23,-850.53"/>
<polygon fill="midnightblue" stroke="midnightblue" points="684.36,-854.03 694.29,-850.33 684.23,-847.03 684.36,-854.03"/>
</g>
<!-- Node72 -->
<g id="node5" class="node">
<title>Node72</title>
<g id="a_node5"><a xlink:href="quickjs_8c.html#a288254c06a39c9fca740a7abdad2834e" target="_top" xlink:title=" ">
<polygon fill="none" stroke="black" points="673,-611.5 673,-630.5 796,-630.5 796,-611.5 673,-611.5"/>
<text text-anchor="middle" x="734.5" y="-618.5" font-family="Helvetica,sans-Serif" font-size="10.00">__JS_AtomIsTaggedInt</text>
</a>
</g>
</g>
<!-- Node3&#45;&gt;Node72 -->
<g id="edge4" class="edge">
<title>Node3&#45;&gt;Node72</title>
<path fill="none" stroke="midnightblue" d="M385.61,-570.61C402.93,-578.25 428.56,-588.53 452,-594 522.59,-610.46 605.38,-616.91 662.83,-619.43"/>
<polygon fill="midnightblue" stroke="midnightblue" points="662.76,-622.93 672.89,-619.84 663.04,-615.94 662.76,-622.93"/>
</g>
<!-- Node73 -->
<g id="node6" class="node">
<title>Node73</title>
<g id="a_node6"><a xlink:href="quickjs_8c.html#a89f38938cee8077ce1fbba07946ed185" target="_top" xlink:title=" ">
<polygon fill="none" stroke="black" points="679.5,-649.5 679.5,-668.5 789.5,-668.5 789.5,-649.5 679.5,-649.5"/>
<text text-anchor="middle" x="734.5" y="-656.5" font-family="Helvetica,sans-Serif" font-size="10.00">__JS_AtomToUInt32</text>
</a>
</g>
</g>
<!-- Node3&#45;&gt;Node73 -->
<g id="edge5" class="edge">
<title>Node3&#45;&gt;Node73</title>
<path fill="none" stroke="midnightblue" d="M375.9,-570.66C391.54,-583.94 421.81,-607.48 452,-619 523.13,-646.15 610.74,-655.1 669.14,-657.93"/>
<polygon fill="midnightblue" stroke="midnightblue" points="669.19,-661.44 679.34,-658.38 669.5,-654.44 669.19,-661.44"/>
</g>
<!-- Node429 -->
<g id="node7" class="node">
<title>Node429</title>
<g id="a_node7"><a xlink:href="quickjs_8c.html#a68c7ae36cec3bf8bbf6cc0868a71cc4b" target="_top" xlink:title=" ">
<polygon fill="none" stroke="black" points="476.5,-228.5 476.5,-247.5 612.5,-247.5 612.5,-228.5 476.5,-228.5"/>
<text text-anchor="middle" x="544.5" y="-235.5" font-family="Helvetica,sans-Serif" font-size="10.00">check_define_prop_flags</text>
</a>
</g>
</g>
<!-- Node3&#45;&gt;Node429 -->
<g id="edge6" class="edge">
<title>Node3&#45;&gt;Node429</title>
<path fill="none" stroke="midnightblue" d="M364.65,-551.29C363.72,-509.83 365.82,-345.92 452,-262 456.37,-257.74 461.4,-254.22 466.81,-251.3"/>
<polygon fill="midnightblue" stroke="midnightblue" points="468.61,-254.32 476.21,-246.94 465.66,-247.97 468.61,-254.32"/>
</g>
<!-- Node294 -->
<g id="node8" class="node">
<title>Node294</title>
<g id="a_node8"><a xlink:href="quickjs_8c.html#ac93c982cb636a5430b191d104083af3e" target="_top" xlink:title=" ">
<polygon fill="none" stroke="red" points="680.5,-524 680.5,-554 788.5,-554 788.5,-524 680.5,-524"/>
<text text-anchor="start" x="688.5" y="-542" font-family="Helvetica,sans-Serif" font-size="10.00">convert_fast_array</text>
<text text-anchor="middle" x="734.5" y="-531" font-family="Helvetica,sans-Serif" font-size="10.00">_to_array</text>
</a>
</g>
</g>
<!-- Node3&#45;&gt;Node294 -->
<g id="edge7" class="edge">
<title>Node3&#45;&gt;Node294</title>
<path fill="none" stroke="midnightblue" d="M416.24,-557.94C482.59,-553.98 598.21,-547.08 670.04,-542.79"/>
<polygon fill="midnightblue" stroke="midnightblue" points="670.54,-546.27 680.31,-542.18 670.12,-539.28 670.54,-546.27"/>
</g>
<!-- Node149 -->
<g id="node9" class="node">
<title>Node149</title>
<g id="a_node9"><a xlink:href="quickjs_8c.html#a3dd8e78607dbc729614deacf55901b95" target="_top" xlink:title=" ">
<polygon fill="none" stroke="red" points="832,-551.5 832,-570.5 973,-570.5 973,-551.5 832,-551.5"/>
<text text-anchor="middle" x="902.5" y="-558.5" font-family="Helvetica,sans-Serif" font-size="10.00">js_shape_prepare_update</text>
</a>
</g>
</g>
<!-- Node3&#45;&gt;Node149 -->
<g id="edge49" class="edge">
<title>Node3&#45;&gt;Node149</title>
<path fill="none" stroke="midnightblue" d="M416.06,-563.05C427.86,-563.45 440.36,-563.8 452,-564 604.87,-566.63 643.13,-566.17 796,-564 804.36,-563.88 813.1,-563.71 821.8,-563.51"/>
<polygon fill="midnightblue" stroke="midnightblue" points="822.08,-567 831.99,-563.26 821.91,-560 822.08,-567"/>
</g>
<!-- Node22 -->
<g id="node10" class="node">
<title>Node22</title>
<g id="a_node10"><a xlink:href="quickjs_8c.html#a643df594b75933007bcdbb071b5ea8c5" target="_top" xlink:title=" ">
<polygon fill="none" stroke="black" points="1009,-507.5 1009,-526.5 1103,-526.5 1103,-507.5 1009,-507.5"/>
<text text-anchor="middle" x="1056" y="-514.5" font-family="Helvetica,sans-Serif" font-size="10.00">get_shape_prop</text>
</a>
</g>
</g>
<!-- Node3&#45;&gt;Node22 -->
<g id="edge14" class="edge">
<title>Node3&#45;&gt;Node22</title>
<path fill="none" stroke="midnightblue" d="M365.3,-570.81C366.98,-606.72 378.14,-731.55 452,-784 514.34,-828.27 725.8,-822.32 796,-792 922.14,-737.53 1015.28,-588.04 1044.95,-535.53"/>
<polygon fill="midnightblue" stroke="midnightblue" points="1048.1,-537.08 1049.89,-526.64 1041.98,-533.68 1048.1,-537.08"/>
</g>
<!-- Node21 -->
<g id="node11" class="node">
<title>Node21</title>
<g id="a_node11"><a xlink:href="quickjs_8c.html#a06b76f5124fd985e35f4c652fd018d6d" target="_top" xlink:title=" ">
<polygon fill="none" stroke="red" points="849,-352.5 849,-371.5 956,-371.5 956,-352.5 849,-352.5"/>
<text text-anchor="middle" x="902.5" y="-359.5" font-family="Helvetica,sans-Serif" font-size="10.00">find_own_property</text>
</a>
</g>
</g>
<!-- Node3&#45;&gt;Node21 -->
<g id="edge10" class="edge">
<title>Node3&#45;&gt;Node21</title>
<path fill="none" stroke="midnightblue" d="M365.14,-551.39C366.24,-515.07 375.59,-385.63 452,-333 514.96,-289.64 720.2,-326.07 796,-336 817.66,-338.84 841.32,-344.43 860.73,-349.7"/>
<polygon fill="midnightblue" stroke="midnightblue" points="859.88,-353.1 870.46,-352.41 861.76,-346.36 859.88,-353.1"/>
</g>
<!-- Node48 -->
<g id="node12" class="node">
<title>Node48</title>
<g id="a_node12"><a xlink:href="quickjs_8c.html#a9e7b4bccf927d811b0f99b40b08c0472" target="_top" xlink:title=" ">
<polygon fill="none" stroke="red" points="506.5,-190.5 506.5,-209.5 582.5,-209.5 582.5,-190.5 506.5,-190.5"/>
<text text-anchor="middle" x="544.5" y="-197.5" font-family="Helvetica,sans-Serif" font-size="10.00">free_var_ref</text>
</a>
</g>
</g>
<!-- Node3&#45;&gt;Node48 -->
<g id="edge12" class="edge">
<title>Node3&#45;&gt;Node48</title>
<path fill="none" stroke="midnightblue" d="M366.08,-551.35C371.95,-500.84 401.53,-267.28 452,-219 463.73,-207.78 480.28,-202.42 496.08,-200.07"/>
<polygon fill="midnightblue" stroke="midnightblue" points="496.75,-203.52 506.29,-198.92 495.96,-196.56 496.75,-203.52"/>
</g>
<!-- Node295 -->
<g id="node13" class="node">
<title>Node295</title>
<g id="a_node13"><a xlink:href="quickjs_8c.html#a6df3ef223d7e76a0db2c14d972dbfa77" target="_top" xlink:title=" ">
<polygon fill="none" stroke="black" points="690.5,-409.5 690.5,-428.5 778.5,-428.5 778.5,-409.5 690.5,-409.5"/>
<text text-anchor="middle" x="734.5" y="-416.5" font-family="Helvetica,sans-Serif" font-size="10.00">get_prop_flags</text>
</a>
</g>
</g>
<!-- Node3&#45;&gt;Node295 -->
<g id="edge13" class="edge">
<title>Node3&#45;&gt;Node295</title>
<path fill="none" stroke="midnightblue" d="M369.15,-551.29C379.4,-528.63 408.32,-472.36 452,-448 523.24,-408.27 620.48,-407.88 680.03,-412.51"/>
<polygon fill="midnightblue" stroke="midnightblue" points="680.07,-416.02 690.34,-413.39 680.67,-409.05 680.07,-416.02"/>
</g>
<!-- Node126 -->
<g id="node14" class="node">
<title>Node126</title>
<g id="a_node14"><a xlink:href="quickjs_8c.html#ab4e100a9cde5f7ec87c92f5e766dbbab" target="_top" xlink:title=" ">
<polygon fill="none" stroke="red" points="474.5,-684.5 474.5,-703.5 614.5,-703.5 614.5,-684.5 474.5,-684.5"/>
<text text-anchor="middle" x="544.5" y="-691.5" font-family="Helvetica,sans-Serif" font-size="10.00">JS_AtomIsNumericIndex1</text>
</a>
</g>
</g>
<!-- Node3&#45;&gt;Node126 -->
<g id="edge15" class="edge">
<title>Node3&#45;&gt;Node126</title>
<path fill="none" stroke="midnightblue" d="M369.84,-570.57C381.14,-591.92 411.41,-643.59 452,-670 459.02,-674.57 466.88,-678.27 474.97,-681.27"/>
<polygon fill="midnightblue" stroke="midnightblue" points="473.93,-684.61 484.52,-684.48 476.16,-677.98 473.93,-684.61"/>
</g>
<!-- Node3&#45;&gt;Node31 -->
<g id="edge36" class="edge">
<title>Node3&#45;&gt;Node31</title>
<path fill="none" stroke="midnightblue" d="M365.53,-570.54C368.82,-626.16 388.5,-907.88 452,-959 525.61,-1018.26 648.14,-977.41 704.05,-953.69"/>
<polygon fill="midnightblue" stroke="midnightblue" points="705.61,-956.83 713.38,-949.62 702.81,-950.41 705.61,-956.83"/>
</g>
<!-- Node67 -->
<g id="node16" class="node">
<title>Node67</title>
<g id="a_node16"><a xlink:href="quickjs_8h.html#ad80a83d73e9b7d872b88fbf2943aebe9" target="_top" xlink:title=" ">
<polygon fill="none" stroke="black" points="691,-763.5 691,-782.5 778,-782.5 778,-763.5 691,-763.5"/>
<text text-anchor="middle" x="734.5" y="-770.5" font-family="Helvetica,sans-Serif" font-size="10.00">JS_IsException</text>
</a>
</g>
</g>
<!-- Node3&#45;&gt;Node67 -->
<g id="edge37" class="edge">
<title>Node3&#45;&gt;Node67</title>
<path fill="none" stroke="midnightblue" d="M366.06,-570.62C370.15,-602.68 388.05,-706.33 452,-751 519.62,-798.23 619.97,-792.88 680.8,-783.66"/>
<polygon fill="midnightblue" stroke="midnightblue" points="681.63,-787.07 690.95,-782.03 680.52,-780.16 681.63,-787.07"/>
</g>
<!-- Node128 -->
<g id="node17" class="node">
<title>Node128</title>
<g id="a_node17"><a xlink:href="quickjs_8h.html#a2050bc428da1c65ac7eb87c3fa3b0392" target="_top" xlink:title=" ">
<polygon fill="none" stroke="black" points="864,-447.5 864,-466.5 941,-466.5 941,-447.5 864,-447.5"/>
<text text-anchor="middle" x="902.5" y="-454.5" font-family="Helvetica,sans-Serif" font-size="10.00">JS_NewInt32</text>
</a>
</g>
</g>
<!-- Node3&#45;&gt;Node128 -->
<g id="edge40" class="edge">
<title>Node3&#45;&gt;Node128</title>
<path fill="none" stroke="midnightblue" d="M365.82,-551.44C369.2,-518.63 385.23,-410.19 452,-366 515.75,-323.81 724.63,-334.6 796,-362 836.22,-377.44 870.7,-416.09 888.53,-439.05"/>
<polygon fill="midnightblue" stroke="midnightblue" points="885.91,-441.39 894.72,-447.27 891.5,-437.18 885.91,-441.39"/>
</g>
<!-- Node147 -->
<g id="node18" class="node">
<title>Node147</title>
<g id="a_node18"><a xlink:href="quickjs_8c.html#a8aac7988cf0c6f3c2b629a6662fd7ec8" target="_top" xlink:title=" ">
<polygon fill="none" stroke="red" points="489.5,-722.5 489.5,-741.5 599.5,-741.5 599.5,-722.5 489.5,-722.5"/>
<text text-anchor="middle" x="544.5" y="-729.5" font-family="Helvetica,sans-Serif" font-size="10.00">JS_AutoInitProperty</text>
</a>
</g>
</g>
<!-- Node3&#45;&gt;Node147 -->
<g id="edge21" class="edge">
<title>Node3&#45;&gt;Node147</title>
<path fill="none" stroke="midnightblue" d="M367.52,-570.71C375.13,-597.98 400.57,-675.67 452,-713 460.08,-718.86 469.55,-723 479.29,-725.91"/>
<polygon fill="midnightblue" stroke="midnightblue" points="478.51,-729.33 489.07,-728.43 480.26,-722.55 478.51,-729.33"/>
</g>
<!-- Node293 -->
<g id="node19" class="node">
<title>Node293</title>
<g id="a_node19"><a xlink:href="quickjs_8c.html#ad5565bb5cfd5321f181573257f3b0c91" target="_top" xlink:title=" ">
<polygon fill="none" stroke="red" points="492.5,-494.5 492.5,-513.5 596.5,-513.5 596.5,-494.5 492.5,-494.5"/>
<text text-anchor="middle" x="544.5" y="-501.5" font-family="Helvetica,sans-Serif" font-size="10.00">JS_CreateProperty</text>
</a>
</g>
</g>
<!-- Node3&#45;&gt;Node293 -->
<g id="edge24" class="edge">
<title>Node3&#45;&gt;Node293</title>
<path fill="none" stroke="midnightblue" d="M388.39,-551.35C405.77,-544.38 430.15,-534.99 452,-528 465.21,-523.77 479.67,-519.72 493.11,-516.19"/>
<polygon fill="midnightblue" stroke="midnightblue" points="494.34,-519.49 503.15,-513.6 492.59,-512.71 494.34,-519.49"/>
</g>
<!-- Node3&#45;&gt;Node30 -->
<g id="edge35" class="edge">
<title>Node3&#45;&gt;Node30</title>
<path fill="none" stroke="midnightblue" d="M365.06,-551.43C365.86,-513.3 374.13,-370.91 452,-300 514.41,-243.16 561.26,-294.26 637,-257 668.84,-241.34 699.47,-213.35 717.38,-195.24"/>
<polygon fill="midnightblue" stroke="midnightblue" points="720.24,-197.31 724.68,-187.69 715.21,-192.45 720.24,-197.31"/>
</g>
<!-- Node245 -->
<g id="node21" class="node">
<title>Node245</title>
<g id="a_node21"><a xlink:href="quickjs_8c.html#a1ca9cdb1fa2ffc3e6506e92b200e490f" target="_top" xlink:title=" ">
<polygon fill="none" stroke="black" points="694.5,-371.5 694.5,-390.5 774.5,-390.5 774.5,-371.5 694.5,-371.5"/>
<text text-anchor="middle" x="734.5" y="-378.5" font-family="Helvetica,sans-Serif" font-size="10.00">JS_IsFunction</text>
</a>
</g>
</g>
<!-- Node3&#45;&gt;Node245 -->
<g id="edge38" class="edge">
<title>Node3&#45;&gt;Node245</title>
<path fill="none" stroke="midnightblue" d="M367.15,-551.19C373.9,-522.95 397.58,-441.19 452,-406 522.5,-360.42 624.51,-364.6 684.42,-372.39"/>
<polygon fill="midnightblue" stroke="midnightblue" points="683.99,-375.86 694.38,-373.76 684.95,-368.93 683.99,-375.86"/>
</g>
<!-- Node152 -->
<g id="node22" class="node">
<title>Node152</title>
<g id="a_node22"><a xlink:href="quickjs_8h.html#a88259aa0da61ac754402c64ccecee116" target="_top" xlink:title=" ">
<polygon fill="none" stroke="red" points="692,-447.5 692,-466.5 777,-466.5 777,-447.5 692,-447.5"/>
<text text-anchor="middle" x="734.5" y="-454.5" font-family="Helvetica,sans-Serif" font-size="10.00">JS_NewUint32</text>
</a>
</g>
</g>
<!-- Node3&#45;&gt;Node152 -->
<g id="edge41" class="edge">
<title>Node3&#45;&gt;Node152</title>
<path fill="none" stroke="midnightblue" d="M372.39,-551.47C386.05,-534.67 417.03,-500.14 452,-485 527.04,-452.51 623.55,-450.44 681.86,-452.96"/>
<polygon fill="midnightblue" stroke="midnightblue" points="681.77,-456.46 691.93,-453.46 682.12,-449.47 681.77,-456.46"/>
</g>
<!-- Node146 -->
<g id="node23" class="node">
<title>Node146</title>
<g id="a_node23"><a xlink:href="quickjs_8h.html#a4e407128a9605afb77523e49e9a627fd" target="_top" xlink:title=" ">
<polygon fill="none" stroke="black" points="500,-152.5 500,-171.5 589,-171.5 589,-152.5 500,-152.5"/>
<text text-anchor="middle" x="544.5" y="-159.5" font-family="Helvetica,sans-Serif" font-size="10.00">JS_IsUndefined</text>
</a>
</g>
</g>
<!-- Node3&#45;&gt;Node146 -->
<g id="edge39" class="edge">
<title>Node3&#45;&gt;Node146</title>
<path fill="none" stroke="midnightblue" d="M365.82,-551.37C370.6,-497.65 396.53,-235.35 452,-181 462.07,-171.13 475.85,-165.77 489.66,-163"/>
<polygon fill="midnightblue" stroke="midnightblue" points="490.34,-166.44 499.66,-161.41 489.24,-159.52 490.34,-166.44"/>
</g>
<!-- Node430 -->
<g id="node24" class="node">
<title>Node430</title>
<g id="a_node24"><a xlink:href="quickjs_8c.html#af2333dd9d30e60437b73af383477188c" target="_top" xlink:title=" ">
<polygon fill="none" stroke="red" points="488,-114.5 488,-133.5 601,-133.5 601,-114.5 488,-114.5"/>
<text text-anchor="middle" x="544.5" y="-121.5" font-family="Helvetica,sans-Serif" font-size="10.00">JS_NumberIsInteger</text>
</a>
</g>
</g>
<!-- Node3&#45;&gt;Node430 -->
<g id="edge42" class="edge">
<title>Node3&#45;&gt;Node430</title>
<path fill="none" stroke="midnightblue" d="M365.62,-551.18C369.43,-493.91 391.58,-203.39 452,-143 459.14,-135.86 468.22,-131.07 477.87,-127.91"/>
<polygon fill="midnightblue" stroke="midnightblue" points="478.93,-131.25 487.67,-125.26 477.1,-124.49 478.93,-131.25"/>
</g>
<!-- Node433 -->
<g id="node25" class="node">
<title>Node433</title>
<g id="a_node25"><a xlink:href="quickjs_8c.html#aced4796120beed3ba63dc0b234b399ab" target="_top" xlink:title=" ">
<polygon fill="none" stroke="black" points="452,-1044.5 452,-1063.5 637,-1063.5 637,-1044.5 452,-1044.5"/>
<text text-anchor="middle" x="544.5" y="-1051.5" font-family="Helvetica,sans-Serif" font-size="10.00">JS_NumberIsNegativeOrMinusZero</text>
</a>
</g>
</g>
<!-- Node3&#45;&gt;Node433 -->
<g id="edge43" class="edge">
<title>Node3&#45;&gt;Node433</title>
<path fill="none" stroke="midnightblue" d="M365.36,-570.89C367.83,-632.69 384.17,-965.58 452,-1035 453.25,-1036.28 454.56,-1037.48 455.92,-1038.61"/>
<polygon fill="midnightblue" stroke="midnightblue" points="454.04,-1041.57 464.27,-1044.35 458.01,-1035.8 454.04,-1041.57"/>
</g>
<!-- Node415 -->
<g id="node26" class="node">
<title>Node415</title>
<g id="a_node26"><a xlink:href="quickjs_8c.html#a24be89a128d1cd7c0908604815b2b854" target="_top" xlink:title=" ">
<polygon fill="none" stroke="red" points="500,-76.5 500,-95.5 589,-95.5 589,-76.5 500,-76.5"/>
<text text-anchor="middle" x="544.5" y="-83.5" font-family="Helvetica,sans-Serif" font-size="10.00">js_same_value</text>
</a>
</g>
</g>
<!-- Node3&#45;&gt;Node415 -->
<g id="edge44" class="edge">
<title>Node3&#45;&gt;Node415</title>
<path fill="none" stroke="midnightblue" d="M365.42,-551.49C368.25,-492 386.43,-171.64 452,-105 461.98,-94.86 475.86,-89.43 489.8,-86.69"/>
<polygon fill="midnightblue" stroke="midnightblue" points="490.56,-90.11 499.91,-85.13 489.49,-83.19 490.56,-90.11"/>
</g>
<!-- Node303 -->
<g id="node27" class="node">
<title>Node303</title>
<g id="a_node27"><a xlink:href="quickjs_8c.html#aee75cc1546e19479e3ccda58f3b50a96" target="_top" xlink:title=" ">
<polygon fill="none" stroke="red" points="487,-930.5 487,-949.5 602,-949.5 602,-930.5 487,-930.5"/>
<text text-anchor="middle" x="544.5" y="-937.5" font-family="Helvetica,sans-Serif" font-size="10.00">JS_SetPropertyValue</text>
</a>
</g>
</g>
<!-- Node3&#45;&gt;Node303 -->
<g id="edge46" class="edge">
<title>Node3&#45;&gt;Node303</title>
<path fill="none" stroke="midnightblue" d="M365.97,-570.8C371.35,-623.21 399.22,-869.9 452,-921 459.01,-927.78 467.77,-932.43 477.08,-935.57"/>
<polygon fill="midnightblue" stroke="midnightblue" points="476.35,-939 486.92,-938.32 478.23,-932.26 476.35,-939"/>
</g>
<!-- Node200 -->
<g id="node28" class="node">
<title>Node200</title>
<g id="a_node28"><a xlink:href="quickjs_8c.html#a726b00d108e0a0f4d958c36c2e426a64" target="_top" xlink:title=" ">
<polygon fill="none" stroke="black" points="460.5,-1006.5 460.5,-1025.5 628.5,-1025.5 628.5,-1006.5 460.5,-1006.5"/>
<text text-anchor="middle" x="544.5" y="-1013.5" font-family="Helvetica,sans-Serif" font-size="10.00">JS_ThrowTypeErrorNotAnObject</text>
</a>
</g>
</g>
<!-- Node3&#45;&gt;Node200 -->
<g id="edge50" class="edge">
<title>Node3&#45;&gt;Node200</title>
<path fill="none" stroke="midnightblue" d="M365.6,-570.69C369.34,-628.55 391.47,-927.89 452,-992 455.57,-995.78 459.66,-999 464.09,-1001.73"/>
<polygon fill="midnightblue" stroke="midnightblue" points="462.48,-1004.84 472.96,-1006.4 465.74,-998.64 462.48,-1004.84"/>
</g>
<!-- Node309 -->
<g id="node29" class="node">
<title>Node309</title>
<g id="a_node29"><a xlink:href="quickjs_8c.html#a77d135018423229ffcdcde7a46eb3fd9" target="_top" xlink:title=" ">
<polygon fill="none" stroke="red" points="483.5,-874.5 483.5,-893.5 605.5,-893.5 605.5,-874.5 483.5,-874.5"/>
<text text-anchor="middle" x="544.5" y="-881.5" font-family="Helvetica,sans-Serif" font-size="10.00">JS_ToArrayLengthFree</text>
</a>
</g>
</g>
<!-- Node3&#45;&gt;Node309 -->
<g id="edge51" class="edge">
<title>Node3&#45;&gt;Node309</title>
<path fill="none" stroke="midnightblue" d="M364.65,-570.71C363.72,-612.17 365.82,-776.08 452,-860 458.17,-866.01 465.66,-870.57 473.66,-874.01"/>
<polygon fill="midnightblue" stroke="midnightblue" points="472.65,-877.37 483.25,-877.56 475.09,-870.81 472.65,-877.37"/>
</g>
<!-- Node294&#45;&gt;Node149 -->
<g id="edge8" class="edge">
<title>Node294&#45;&gt;Node149</title>
<path fill="none" stroke="midnightblue" d="M788.94,-546.08C799.39,-547.47 810.56,-548.95 821.65,-550.42"/>
<polygon fill="midnightblue" stroke="midnightblue" points="821.42,-553.92 831.79,-551.76 822.34,-546.98 821.42,-553.92"/>
</g>
<!-- Node149&#45;&gt;Node22 -->
<g id="edge9" class="edge">
<title>Node149&#45;&gt;Node22</title>
<path fill="none" stroke="midnightblue" d="M936.37,-551.45C958.71,-544.97 988.46,-536.33 1012.58,-529.32"/>
<polygon fill="midnightblue" stroke="midnightblue" points="1013.56,-532.68 1022.19,-526.53 1011.61,-525.96 1013.56,-532.68"/>
</g>
<!-- Node21&#45;&gt;Node22 -->
<g id="edge11" class="edge">
<title>Node21&#45;&gt;Node22</title>
<path fill="none" stroke="midnightblue" d="M912.98,-371.7C938.06,-397.36 1006.43,-467.3 1038.27,-499.88"/>
<polygon fill="midnightblue" stroke="midnightblue" points="1036.03,-502.6 1045.53,-507.31 1041.04,-497.71 1036.03,-502.6"/>
</g>
<!-- Node126&#45;&gt;Node72 -->
<g id="edge16" class="edge">
<title>Node126&#45;&gt;Node72</title>
<path fill="none" stroke="midnightblue" d="M566.46,-684.39C591.52,-673.07 634.87,-654.02 673,-640 678.9,-637.83 685.18,-635.68 691.37,-633.66"/>
<polygon fill="midnightblue" stroke="midnightblue" points="692.51,-636.97 700.97,-630.59 690.37,-630.3 692.51,-636.97"/>
</g>
<!-- Node126&#45;&gt;Node73 -->
<g id="edge17" class="edge">
<title>Node126&#45;&gt;Node73</title>
<path fill="none" stroke="midnightblue" d="M596.87,-684.44C620.19,-680.1 647.94,-674.93 672.32,-670.39"/>
<polygon fill="midnightblue" stroke="midnightblue" points="673,-673.82 682.19,-668.55 671.72,-666.94 673,-673.82"/>
</g>
<!-- Node126&#45;&gt;Node31 -->
<g id="edge18" class="edge">
<title>Node126&#45;&gt;Node31</title>
<path fill="none" stroke="midnightblue" d="M614.8,-699.39C623.04,-702.49 630.73,-706.88 637,-713 687.59,-762.42 641.38,-804.74 673,-868 683.62,-889.24 701.7,-909.59 715.34,-923.2"/>
<polygon fill="midnightblue" stroke="midnightblue" points="713.15,-925.95 722.76,-930.39 718.02,-920.92 713.15,-925.95"/>
</g>
<!-- Node126&#45;&gt;Node67 -->
<g id="edge19" class="edge">
<title>Node126&#45;&gt;Node67</title>
<path fill="none" stroke="midnightblue" d="M606.43,-703.52C616.82,-706.03 627.36,-709.14 637,-713 665.15,-724.26 694.27,-743.62 713.06,-757.3"/>
<polygon fill="midnightblue" stroke="midnightblue" points="711.05,-760.16 721.16,-763.32 715.22,-754.54 711.05,-760.16"/>
</g>
<!-- Node126&#45;&gt;Node128 -->
<g id="edge20" class="edge">
<title>Node126&#45;&gt;Node128</title>
<path fill="none" stroke="midnightblue" d="M614.61,-698.32C679.08,-700.84 769.23,-700 796,-678 844.31,-638.3 803.57,-597.69 832,-542 845.48,-515.59 868.24,-489.9 884.02,-473.79"/>
<polygon fill="midnightblue" stroke="midnightblue" points="886.53,-476.24 891.14,-466.7 881.59,-471.28 886.53,-476.24"/>
</g>
<!-- Node147&#45;&gt;Node149 -->
<g id="edge23" class="edge">
<title>Node147&#45;&gt;Node149</title>
<path fill="none" stroke="midnightblue" d="M599.71,-740.06C653.24,-745.26 735.62,-745.63 796,-711 848.33,-680.98 881,-613.22 894.43,-580.03"/>
<polygon fill="midnightblue" stroke="midnightblue" points="897.75,-581.16 898.12,-570.57 891.23,-578.61 897.75,-581.16"/>
</g>
<!-- Node147&#45;&gt;Node67 -->
<g id="edge22" class="edge">
<title>Node147&#45;&gt;Node67</title>
<path fill="none" stroke="midnightblue" d="M589.1,-741.51C616.47,-747.48 651.92,-755.21 680.85,-761.52"/>
<polygon fill="midnightblue" stroke="midnightblue" points="680.26,-764.97 690.78,-763.68 681.76,-758.13 680.26,-764.97"/>
</g>
<!-- Node293&#45;&gt;Node4 -->
<g id="edge25" class="edge">
<title>Node293&#45;&gt;Node4</title>
<path fill="none" stroke="midnightblue" d="M551.55,-513.69C567.33,-539.27 610.32,-610.98 637,-675 657.93,-725.22 644.25,-745.81 673,-792 683.07,-808.18 698.85,-822.84 711.77,-833.23"/>
<polygon fill="midnightblue" stroke="midnightblue" points="709.71,-836.07 719.76,-839.43 714,-830.53 709.71,-836.07"/>
</g>
<!-- Node293&#45;&gt;Node72 -->
<g id="edge26" class="edge">
<title>Node293&#45;&gt;Node72</title>
<path fill="none" stroke="midnightblue" d="M560.88,-513.57C593.6,-533.94 670.3,-581.67 709.5,-606.06"/>
<polygon fill="midnightblue" stroke="midnightblue" points="707.83,-609.14 718.17,-611.46 711.53,-603.2 707.83,-609.14"/>
</g>
<!-- Node293&#45;&gt;Node73 -->
<g id="edge27" class="edge">
<title>Node293&#45;&gt;Node73</title>
<path fill="none" stroke="midnightblue" d="M551.98,-513.84C568.86,-538.73 616.82,-604.7 673,-640 676.31,-642.08 679.87,-643.95 683.55,-645.63"/>
<polygon fill="midnightblue" stroke="midnightblue" points="682.26,-648.88 692.84,-649.41 684.9,-642.4 682.26,-648.88"/>
</g>
<!-- Node293&#45;&gt;Node294 -->
<g id="edge28" class="edge">
<title>Node293&#45;&gt;Node294</title>
<path fill="none" stroke="midnightblue" d="M596.87,-513.56C619.51,-517.78 646.34,-522.77 670.2,-527.22"/>
<polygon fill="midnightblue" stroke="midnightblue" points="669.75,-530.69 680.22,-529.08 671.03,-523.81 669.75,-530.69"/>
</g>
<!-- Node293&#45;&gt;Node22 -->
<g id="edge30" class="edge">
<title>Node293&#45;&gt;Node22</title>
<path fill="none" stroke="midnightblue" d="M596.69,-505.31C692.59,-507.75 898.64,-513.01 998.48,-515.56"/>
<polygon fill="midnightblue" stroke="midnightblue" points="998.58,-519.06 1008.67,-515.82 998.76,-512.06 998.58,-519.06"/>
</g>
<!-- Node293&#45;&gt;Node295 -->
<g id="edge29" class="edge">
<title>Node293&#45;&gt;Node295</title>
<path fill="none" stroke="midnightblue" d="M561.97,-494.29C585.85,-480.5 631.75,-455 673,-438 678.41,-435.77 684.19,-433.65 689.94,-431.68"/>
<polygon fill="midnightblue" stroke="midnightblue" points="691.12,-434.98 699.53,-428.53 688.94,-428.33 691.12,-434.98"/>
</g>
<!-- Node293&#45;&gt;Node30 -->
<g id="edge31" class="edge">
<title>Node293&#45;&gt;Node30</title>
<path fill="none" stroke="midnightblue" d="M551.13,-494.24C577.34,-448.78 687.72,-257.39 722.77,-196.61"/>
<polygon fill="midnightblue" stroke="midnightblue" points="725.93,-198.13 727.9,-187.72 719.87,-194.63 725.93,-198.13"/>
</g>
<!-- Node293&#45;&gt;Node245 -->
<g id="edge32" class="edge">
<title>Node293&#45;&gt;Node245</title>
<path fill="none" stroke="midnightblue" d="M554.8,-494.23C574.66,-473.89 623.46,-426.7 673,-400 677.03,-397.83 681.36,-395.86 685.77,-394.08"/>
<polygon fill="midnightblue" stroke="midnightblue" points="687.3,-397.25 695.48,-390.51 684.89,-390.68 687.3,-397.25"/>
</g>
<!-- Node293&#45;&gt;Node152 -->
<g id="edge33" class="edge">
<title>Node293&#45;&gt;Node152</title>
<path fill="none" stroke="midnightblue" d="M583.54,-494.49C612.88,-487.16 653.65,-476.96 685.27,-469.06"/>
<polygon fill="midnightblue" stroke="midnightblue" points="686.34,-472.4 695.19,-466.58 684.64,-465.61 686.34,-472.4"/>
</g>
<!-- Node152&#45;&gt;Node128 -->
<g id="edge34" class="edge">
<title>Node152&#45;&gt;Node128</title>
<path fill="none" stroke="midnightblue" d="M777.39,-457C800.67,-457 829.72,-457 853.86,-457"/>
<polygon fill="midnightblue" stroke="midnightblue" points="853.88,-460.5 863.88,-457 853.88,-453.5 853.88,-460.5"/>
</g>
<!-- Node415&#45;&gt;Node30 -->
<g id="edge45" class="edge">
<title>Node415&#45;&gt;Node30</title>
<path fill="none" stroke="midnightblue" d="M589.1,-91.01C604.69,-93.84 622.08,-98.23 637,-105 668.02,-119.08 698.46,-144.62 716.61,-161.44"/>
<polygon fill="midnightblue" stroke="midnightblue" points="714.38,-164.15 724.04,-168.49 719.19,-159.07 714.38,-164.15"/>
</g>
<!-- Node303&#45;&gt;Node4 -->
<g id="edge47" class="edge">
<title>Node303&#45;&gt;Node4</title>
<path fill="none" stroke="midnightblue" d="M602.37,-932.2C614.12,-929.49 626.2,-925.86 637,-921 667.75,-907.16 698.06,-882.18 716.28,-865.59"/>
<polygon fill="midnightblue" stroke="midnightblue" points="718.82,-868 723.75,-858.63 714.05,-862.88 718.82,-868"/>
</g>
<!-- Node303&#45;&gt;Node31 -->
<g id="edge48" class="edge">
<title>Node303&#45;&gt;Node31</title>
<path fill="none" stroke="midnightblue" d="M602.16,-940C628.48,-940 659.47,-940 684.73,-940"/>
<polygon fill="midnightblue" stroke="midnightblue" points="684.82,-943.5 694.82,-940 684.82,-936.5 684.82,-943.5"/>
</g>
<!-- Node309&#45;&gt;Node31 -->
<g id="edge52" class="edge">
<title>Node309&#45;&gt;Node31</title>
<path fill="none" stroke="midnightblue" d="M577.82,-893.63C609.35,-903.02 657.46,-917.35 691.85,-927.59"/>
<polygon fill="midnightblue" stroke="midnightblue" points="691.02,-931 701.6,-930.5 693.02,-924.29 691.02,-931"/>
</g>
<!-- Node309&#45;&gt;Node67 -->
<g id="edge53" class="edge">
<title>Node309&#45;&gt;Node67</title>
<path fill="none" stroke="midnightblue" d="M561.85,-874.34C594.85,-854.86 669.58,-810.74 708.65,-787.67"/>
<polygon fill="midnightblue" stroke="midnightblue" points="710.49,-790.65 717.32,-782.55 706.93,-784.63 710.49,-790.65"/>
</g>
<!-- Node309&#45;&gt;Node309 -->
<g id="edge54" class="edge">
<title>Node309&#45;&gt;Node309</title>
<path fill="none" stroke="midnightblue" d="M516.76,-893.76C503.26,-902.57 512.51,-912 544.5,-912 566.49,-912 577.74,-907.54 578.23,-901.89"/>
<polygon fill="midnightblue" stroke="midnightblue" points="580.99,-899.73 572.24,-893.76 575.35,-903.88 580.99,-899.73"/>
</g>
</g>
</svg>
