<?xml version="1.0" encoding="UTF-8" standalone="no"?>
<!DOCTYPE svg PUBLIC "-//W3C//DTD SVG 1.1//EN"
 "http://www.w3.org/Graphics/SVG/1.1/DTD/svg11.dtd">
<!-- Generated by graphviz version 2.43.0 (0)
 -->
<!-- Title: js_parse_left_hand_side_expr Pages: 1 -->
<svg width="761pt" height="180pt"
 viewBox="0.00 0.00 761.00 180.00" xmlns="http://www.w3.org/2000/svg" xmlns:xlink="http://www.w3.org/1999/xlink">
<g id="graph0" class="graph" transform="scale(1 1) rotate(0) translate(4 176)">
<title>js_parse_left_hand_side_expr</title>
<!-- Node1 -->
<g id="node1" class="node">
<title>Node1</title>
<g id="a_node1"><a xlink:title=" ">
<polygon fill="#bfbfbf" stroke="black" points="646,-61 646,-91 753,-91 753,-61 646,-61"/>
<text text-anchor="start" x="654" y="-79" font-family="Helvetica,sans-Serif" font-size="10.00">js_parse_left_hand</text>
<text text-anchor="middle" x="699.5" y="-68" font-family="Helvetica,sans-Serif" font-size="10.00">_side_expr</text>
</a>
</g>
</g>
<!-- Node2 -->
<g id="node2" class="node">
<title>Node2</title>
<g id="a_node2"><a xlink:href="quickjs_8c.html#a00eb789430243c24dab4a63ad6a79653" target="_top" xlink:title=" ">
<polygon fill="none" stroke="black" points="503,-135.5 503,-154.5 590,-154.5 590,-135.5 503,-135.5"/>
<text text-anchor="middle" x="546.5" y="-142.5" font-family="Helvetica,sans-Serif" font-size="10.00">js_parse_class</text>
</a>
</g>
</g>
<!-- Node1&#45;&gt;Node2 -->
<g id="edge1" class="edge">
<title>Node1&#45;&gt;Node2</title>
<path fill="none" stroke="midnightblue" d="M661.67,-95.81C645.93,-103.99 627.25,-113.33 610,-121 598.42,-126.15 585.38,-131.26 574.21,-135.44"/>
<polygon fill="midnightblue" stroke="midnightblue" points="663.33,-98.89 670.56,-91.15 660.08,-92.69 663.33,-98.89"/>
</g>
<!-- Node18 -->
<g id="node7" class="node">
<title>Node18</title>
<g id="a_node7"><a xlink:href="quickjs_8c.html#a26be546cf89c4580ba9020e8fc43a759" target="_top" xlink:title=" ">
<polygon fill="none" stroke="red" points="483,-30 483,-60 610,-60 610,-30 483,-30"/>
<text text-anchor="start" x="491" y="-48" font-family="Helvetica,sans-Serif" font-size="10.00">js_parse_destructuring</text>
<text text-anchor="middle" x="546.5" y="-37" font-family="Helvetica,sans-Serif" font-size="10.00">_element</text>
</a>
</g>
</g>
<!-- Node1&#45;&gt;Node18 -->
<g id="edge10" class="edge">
<title>Node1&#45;&gt;Node18</title>
<path fill="none" stroke="midnightblue" d="M635.84,-63.14C627.35,-61.39 618.63,-59.6 610.13,-57.86"/>
<polygon fill="midnightblue" stroke="midnightblue" points="635.19,-66.58 645.69,-65.16 636.6,-59.72 635.19,-66.58"/>
</g>
<!-- Node19 -->
<g id="node8" class="node">
<title>Node19</title>
<g id="a_node8"><a xlink:href="quickjs_8c.html#ac188b916dd086803591a67de7e7a85f6" target="_top" xlink:title=" ">
<polygon fill="none" stroke="black" points="333.5,-0.5 333.5,-19.5 438.5,-19.5 438.5,-0.5 333.5,-0.5"/>
<text text-anchor="middle" x="386" y="-7.5" font-family="Helvetica,sans-Serif" font-size="10.00">js_parse_for_in_of</text>
</a>
</g>
</g>
<!-- Node1&#45;&gt;Node19 -->
<g id="edge16" class="edge">
<title>Node1&#45;&gt;Node19</title>
<path fill="none" stroke="midnightblue" d="M672.76,-54.62C656,-42.05 633.04,-27.24 610,-20 553.43,-2.22 484.83,-2.12 438.78,-4.92"/>
<polygon fill="midnightblue" stroke="midnightblue" points="670.87,-57.58 680.92,-60.93 675.16,-52.05 670.87,-57.58"/>
</g>
<!-- Node3 -->
<g id="node3" class="node">
<title>Node3</title>
<g id="a_node3"><a xlink:href="quickjs_8c.html#a498e1d5c7de1b59c1630e9847cde1e41" target="_top" xlink:title=" ">
<polygon fill="none" stroke="black" points="185.5,-152.5 185.5,-171.5 279.5,-171.5 279.5,-152.5 185.5,-152.5"/>
<text text-anchor="middle" x="232.5" y="-159.5" font-family="Helvetica,sans-Serif" font-size="10.00">js_parse_export</text>
</a>
</g>
</g>
<!-- Node2&#45;&gt;Node3 -->
<g id="edge2" class="edge">
<title>Node2&#45;&gt;Node3</title>
<path fill="none" stroke="midnightblue" d="M492.89,-151.69C478.07,-153.36 461.92,-154.96 447,-156 389.48,-160.01 323.06,-161.36 279.78,-161.81"/>
<polygon fill="midnightblue" stroke="midnightblue" points="493.37,-155.16 502.9,-150.54 492.57,-148.21 493.37,-155.16"/>
</g>
<!-- Node9 -->
<g id="node5" class="node">
<title>Node9</title>
<g id="a_node5"><a xlink:href="quickjs_8c.html#a840642c87c5a82d4cc68333376a3b6de" target="_top" xlink:title=" ">
<polygon fill="none" stroke="red" points="325,-76.5 325,-95.5 447,-95.5 447,-76.5 325,-76.5"/>
<text text-anchor="middle" x="386" y="-83.5" font-family="Helvetica,sans-Serif" font-size="10.00">js_parse_postfix_expr</text>
</a>
</g>
</g>
<!-- Node2&#45;&gt;Node9 -->
<g id="edge4" class="edge">
<title>Node2&#45;&gt;Node9</title>
<path fill="none" stroke="midnightblue" d="M510.14,-131.84C480.54,-120.82 439,-105.36 412.54,-95.51"/>
<polygon fill="midnightblue" stroke="midnightblue" points="509.09,-135.18 519.68,-135.39 511.53,-128.62 509.09,-135.18"/>
</g>
<!-- Node20 -->
<g id="node6" class="node">
<title>Node20</title>
<g id="a_node6"><a xlink:href="quickjs_8c.html#a9d844c16dcc71701436848074337d32c" target="_top" xlink:title=" ">
<polygon fill="none" stroke="red" points="176,-68 176,-98 289,-98 289,-68 176,-68"/>
<text text-anchor="start" x="184" y="-86" font-family="Helvetica,sans-Serif" font-size="10.00">js_parse_statement</text>
<text text-anchor="middle" x="232.5" y="-75" font-family="Helvetica,sans-Serif" font-size="10.00">_or_decl</text>
</a>
</g>
</g>
<!-- Node2&#45;&gt;Node20 -->
<g id="edge7" class="edge">
<title>Node2&#45;&gt;Node20</title>
<path fill="none" stroke="midnightblue" d="M492.79,-144.34C447.6,-142.69 381.11,-137.67 325,-123 303.03,-117.25 279.58,-106.91 261.93,-98.19"/>
<polygon fill="midnightblue" stroke="midnightblue" points="492.84,-147.85 502.95,-144.67 493.07,-140.85 492.84,-147.85"/>
</g>
<!-- Node4 -->
<g id="node4" class="node">
<title>Node4</title>
<g id="a_node4"><a xlink:href="quickjs_8c.html#ab59a3267a100decc9d2d81eb3297794a" target="_top" xlink:title=" ">
<polygon fill="none" stroke="red" points="0,-104.5 0,-123.5 140,-123.5 140,-104.5 0,-104.5"/>
<text text-anchor="middle" x="70" y="-111.5" font-family="Helvetica,sans-Serif" font-size="10.00">js_parse_source_element</text>
</a>
</g>
</g>
<!-- Node3&#45;&gt;Node4 -->
<g id="edge3" class="edge">
<title>Node3&#45;&gt;Node4</title>
<path fill="none" stroke="midnightblue" d="M189.81,-149.53C162.72,-141.43 127.95,-131.03 103.04,-123.58"/>
<polygon fill="midnightblue" stroke="midnightblue" points="188.82,-152.89 199.41,-152.4 190.83,-146.18 188.82,-152.89"/>
</g>
<!-- Node9&#45;&gt;Node1 -->
<g id="edge5" class="edge">
<title>Node9&#45;&gt;Node1</title>
<path fill="none" stroke="midnightblue" d="M457.18,-89.37C501.14,-90.8 558.93,-91.45 610,-88 621.6,-87.22 634,-85.86 645.74,-84.34"/>
<polygon fill="midnightblue" stroke="midnightblue" points="457.29,-85.87 447.17,-89.02 457.05,-92.87 457.29,-85.87"/>
</g>
<!-- Node9&#45;&gt;Node9 -->
<g id="edge6" class="edge">
<title>Node9&#45;&gt;Node9</title>
<path fill="none" stroke="midnightblue" d="M414.37,-104.65C413.19,-109.94 403.73,-114 386,-114 358.98,-114 351.18,-104.57 362.57,-95.76"/>
<polygon fill="midnightblue" stroke="midnightblue" points="417.34,-102.8 409.43,-95.76 411.23,-106.2 417.34,-102.8"/>
</g>
<!-- Node20&#45;&gt;Node4 -->
<g id="edge8" class="edge">
<title>Node20&#45;&gt;Node4</title>
<path fill="none" stroke="midnightblue" d="M165.95,-95.66C150.74,-98.6 134.8,-101.68 120.42,-104.45"/>
<polygon fill="midnightblue" stroke="midnightblue" points="166.66,-99.09 175.82,-93.76 165.33,-92.22 166.66,-99.09"/>
</g>
<!-- Node20&#45;&gt;Node20 -->
<g id="edge9" class="edge">
<title>Node20&#45;&gt;Node20</title>
<path fill="none" stroke="midnightblue" d="M259.51,-108.46C256.16,-113.18 247.15,-116.5 232.5,-116.5 208.45,-116.5 199.62,-107.56 206.01,-98.16"/>
<polygon fill="midnightblue" stroke="midnightblue" points="262.99,-107.97 258.99,-98.16 256,-108.32 262.99,-107.97"/>
</g>
<!-- Node18&#45;&gt;Node9 -->
<g id="edge14" class="edge">
<title>Node18&#45;&gt;Node9</title>
<path fill="none" stroke="midnightblue" d="M477.56,-62.57C459.16,-67.33 439.92,-72.31 423.94,-76.45"/>
<polygon fill="midnightblue" stroke="midnightblue" points="478.58,-65.93 487.38,-60.03 476.82,-59.15 478.58,-65.93"/>
</g>
<!-- Node18&#45;&gt;Node20 -->
<g id="edge15" class="edge">
<title>Node18&#45;&gt;Node20</title>
<path fill="none" stroke="midnightblue" d="M472.53,-50.92C429.5,-54.75 374.05,-60.27 325,-67 313.34,-68.6 300.89,-70.59 289.04,-72.61"/>
<polygon fill="midnightblue" stroke="midnightblue" points="472.97,-54.4 482.63,-50.03 472.36,-47.42 472.97,-54.4"/>
</g>
<!-- Node18&#45;&gt;Node18 -->
<g id="edge11" class="edge">
<title>Node18&#45;&gt;Node18</title>
<path fill="none" stroke="midnightblue" d="M573.51,-70.46C570.16,-75.18 561.15,-78.5 546.5,-78.5 522.45,-78.5 513.62,-69.56 520.01,-60.16"/>
<polygon fill="midnightblue" stroke="midnightblue" points="576.99,-69.97 572.99,-60.16 570,-70.32 576.99,-69.97"/>
</g>
<!-- Node18&#45;&gt;Node19 -->
<g id="edge12" class="edge">
<title>Node18&#45;&gt;Node19</title>
<path fill="none" stroke="midnightblue" d="M472.83,-28.95C458.24,-25.73 443.36,-22.44 430.17,-19.53"/>
<polygon fill="midnightblue" stroke="midnightblue" points="472.34,-32.43 482.86,-31.17 473.85,-25.59 472.34,-32.43"/>
</g>
<!-- Node19&#45;&gt;Node20 -->
<g id="edge13" class="edge">
<title>Node19&#45;&gt;Node20</title>
<path fill="none" stroke="midnightblue" d="M349.93,-23.27C341.68,-26.6 332.97,-30.29 325,-34 302.62,-44.43 277.99,-57.73 259.93,-67.84"/>
<polygon fill="midnightblue" stroke="midnightblue" points="351.33,-26.48 359.33,-19.54 348.75,-19.97 351.33,-26.48"/>
</g>
</g>
</svg>
