<?xml version="1.0" encoding="UTF-8" standalone="no"?>
<!DOCTYPE svg PUBLIC "-//W3C//DTD SVG 1.1//EN"
 "http://www.w3.org/Graphics/SVG/1.1/DTD/svg11.dtd">
<!-- Generated by graphviz version 2.43.0 (0)
 -->
<!-- Title: js_string_pad Pages: 1 -->
<!--zoomable 555 -->
<svg id="main" version="1.1" xmlns="http://www.w3.org/2000/svg" xmlns:xlink="http://www.w3.org/1999/xlink" xml:space="preserve" onload="init(evt)">
<style type="text/css"><![CDATA[
.edge:hover path { stroke: red; }
.edge:hover polygon { stroke: red; fill: red; }
]]></style>
<script type="text/javascript"><![CDATA[
var edges = document.getElementsByTagName('g');
if (edges && edges.length) {
  for (var i=0;i<edges.length;i++) {
    if (edges[i].id.substr(0,4)=='edge') {
      edges[i].setAttribute('class','edge');
    }
  }
}
]]></script>
        <defs>
                <circle id="rim" cx="0" cy="0" r="7"/>
                <circle id="rim2" cx="0" cy="0" r="3.5"/>
                <g id="zoomPlus">
                        <use xlink:href="#rim" fill="#404040">
                                <set attributeName="fill" to="#808080" begin="zoomplus.mouseover" end="zoomplus.mouseout"/>
                        </use>
                        <path d="M-4,0h8M0,-4v8" fill="none" stroke="white" stroke-width="1.5" pointer-events="none"/>
                </g>
                <g id="zoomMin">
                        <use xlink:href="#rim" fill="#404040">
                                <set attributeName="fill" to="#808080" begin="zoomminus.mouseover" end="zoomminus.mouseout"/>
                        </use>
                        <path d="M-4,0h8" fill="none" stroke="white" stroke-width="1.5" pointer-events="none"/>
                </g>
                <g id="dirArrow">
                        <path fill="none" stroke="white" stroke-width="1.5" d="M0,-3.0v7 M-2.5,-0.5L0,-3.0L2.5,-0.5"/>
                </g>
               <g id="resetDef">
                       <use xlink:href="#rim2" fill="#404040">
                               <set attributeName="fill" to="#808080" begin="reset.mouseover" end="reset.mouseout"/>
                       </use>
               </g>
        </defs>

<script type="text/javascript">
var viewWidth = 545;
var viewHeight = 555;
var sectionId = 'dynsection-1566';
</script>
<script xlink:href="svgpan.js"/>
<svg id="graph" class="graph">
<g id="viewport">
<title>js_string_pad</title>
<!-- Node1 -->
<g id="node1" class="node">
<title>Node1</title>
<g id="a_node1"><a xlink:title=" ">
<polygon fill="#bfbfbf" stroke="black" points="0,-247.5 0,-266.5 81,-266.5 81,-247.5 0,-247.5"/>
<text text-anchor="middle" x="40.5" y="-254.5" font-family="Helvetica,sans-Serif" font-size="10.00">js_string_pad</text>
</a>
</g>
</g>
<!-- Node2 -->
<g id="node2" class="node">
<title>Node2</title>
<g id="a_node2"><a xlink:href="quickjs_8c.html#a853f0924d441ea4225488f37c8b69f9a" target="_top" xlink:title=" ">
<polygon fill="none" stroke="black" points="446.5,-513.5 446.5,-532.5 526.5,-532.5 526.5,-513.5 446.5,-513.5"/>
<text text-anchor="middle" x="486.5" y="-520.5" font-family="Helvetica,sans-Serif" font-size="10.00">__attribute__</text>
</a>
</g>
</g>
<!-- Node1&#45;&gt;Node2 -->
<g id="edge1" class="edge">
<title>Node1&#45;&gt;Node2</title>
<path fill="none" stroke="midnightblue" d="M41.55,-266.54C42.27,-301.52 49.71,-423.88 117,-485 204.94,-564.87 357.81,-549.27 436.14,-534.38"/>
<polygon fill="midnightblue" stroke="midnightblue" points="437.09,-537.76 446.23,-532.39 435.74,-530.9 437.09,-537.76"/>
</g>
<!-- Node3 -->
<g id="node3" class="node">
<title>Node3</title>
<g id="a_node3"><a xlink:href="quickjs_8h.html#afaa20c47565bc704c6c85f3d77254e7d" target="_top" xlink:title=" ">
<polygon fill="none" stroke="black" points="143,-380.5 143,-399.5 222,-399.5 222,-380.5 143,-380.5"/>
<text text-anchor="middle" x="182.5" y="-387.5" font-family="Helvetica,sans-Serif" font-size="10.00">JS_FreeValue</text>
</a>
</g>
</g>
<!-- Node1&#45;&gt;Node3 -->
<g id="edge2" class="edge">
<title>Node1&#45;&gt;Node3</title>
<path fill="none" stroke="midnightblue" d="M45.68,-266.62C55.27,-287.62 80.83,-337.89 117,-366 122.32,-370.14 128.44,-373.62 134.73,-376.53"/>
<polygon fill="midnightblue" stroke="midnightblue" points="133.43,-379.78 144.01,-380.4 136.12,-373.32 133.43,-379.78"/>
</g>
<!-- Node41 -->
<g id="node6" class="node">
<title>Node41</title>
<g id="a_node6"><a xlink:href="quickjs_8h.html#ad80a83d73e9b7d872b88fbf2943aebe9" target="_top" xlink:title=" ">
<polygon fill="none" stroke="black" points="443,-342.5 443,-361.5 530,-361.5 530,-342.5 443,-342.5"/>
<text text-anchor="middle" x="486.5" y="-349.5" font-family="Helvetica,sans-Serif" font-size="10.00">JS_IsException</text>
</a>
</g>
</g>
<!-- Node1&#45;&gt;Node41 -->
<g id="edge5" class="edge">
<title>Node1&#45;&gt;Node41</title>
<path fill="none" stroke="midnightblue" d="M47.53,-266.68C58.78,-283.7 84.74,-318.59 117,-333 221.18,-379.54 358.79,-370.51 432.87,-360.72"/>
<polygon fill="midnightblue" stroke="midnightblue" points="433.46,-364.17 442.89,-359.33 432.5,-357.23 433.46,-364.17"/>
</g>
<!-- Node42 -->
<g id="node7" class="node">
<title>Node42</title>
<g id="a_node7"><a xlink:href="quickjs_8h.html#a4e407128a9605afb77523e49e9a627fd" target="_top" xlink:title=" ">
<polygon fill="none" stroke="black" points="138,-266.5 138,-285.5 227,-285.5 227,-266.5 138,-266.5"/>
<text text-anchor="middle" x="182.5" y="-273.5" font-family="Helvetica,sans-Serif" font-size="10.00">JS_IsUndefined</text>
</a>
</g>
</g>
<!-- Node1&#45;&gt;Node42 -->
<g id="edge6" class="edge">
<title>Node1&#45;&gt;Node42</title>
<path fill="none" stroke="midnightblue" d="M81.24,-262.39C95.7,-264.36 112.29,-266.61 127.76,-268.71"/>
<polygon fill="midnightblue" stroke="midnightblue" points="127.35,-272.18 137.73,-270.06 128.29,-265.25 127.35,-272.18"/>
</g>
<!-- Node43 -->
<g id="node8" class="node">
<title>Node43</title>
<g id="a_node8"><a xlink:href="quickjs_8c.html#ad698ea01233894f912303776fe3c08c8" target="_top" xlink:title=" ">
<polygon fill="none" stroke="black" points="141.5,-304.5 141.5,-323.5 223.5,-323.5 223.5,-304.5 141.5,-304.5"/>
<text text-anchor="middle" x="182.5" y="-311.5" font-family="Helvetica,sans-Serif" font-size="10.00">JS_ToInt32Sat</text>
</a>
</g>
</g>
<!-- Node1&#45;&gt;Node43 -->
<g id="edge7" class="edge">
<title>Node1&#45;&gt;Node43</title>
<path fill="none" stroke="midnightblue" d="M58.49,-266.66C73.53,-274.94 96.26,-286.8 117,-295 122.84,-297.31 129.08,-299.49 135.28,-301.49"/>
<polygon fill="midnightblue" stroke="midnightblue" points="134.36,-304.87 144.95,-304.48 136.43,-298.18 134.36,-304.87"/>
</g>
<!-- Node62 -->
<g id="node12" class="node">
<title>Node62</title>
<g id="a_node12"><a xlink:href="quickjs_8c.html#a7bcb8e1a20cbc8374a5f9ba4a2088cec" target="_top" xlink:title=" ">
<polygon fill="none" stroke="red" points="307,-209.5 307,-228.5 377,-228.5 377,-209.5 307,-209.5"/>
<text text-anchor="middle" x="342" y="-216.5" font-family="Helvetica,sans-Serif" font-size="10.00">JS_ToString</text>
</a>
</g>
</g>
<!-- Node1&#45;&gt;Node62 -->
<g id="edge12" class="edge">
<title>Node1&#45;&gt;Node62</title>
<path fill="none" stroke="midnightblue" d="M81.27,-251.95C137.11,-244.87 238.42,-232.01 296.64,-224.63"/>
<polygon fill="midnightblue" stroke="midnightblue" points="297.16,-228.09 306.64,-223.36 296.28,-221.15 297.16,-228.09"/>
</g>
<!-- Node279 -->
<g id="node13" class="node">
<title>Node279</title>
<g id="a_node13"><a xlink:href="quickjs_8c.html#a4d1d0760c9f9efcb8c0a8db414e46c8a" target="_top" xlink:title=" ">
<polygon fill="none" stroke="black" points="117,-190.5 117,-209.5 248,-209.5 248,-190.5 117,-190.5"/>
<text text-anchor="middle" x="182.5" y="-197.5" font-family="Helvetica,sans-Serif" font-size="10.00">JS_ToStringCheckObject</text>
</a>
</g>
</g>
<!-- Node1&#45;&gt;Node279 -->
<g id="edge13" class="edge">
<title>Node1&#45;&gt;Node279</title>
<path fill="none" stroke="midnightblue" d="M62.52,-247.44C77.59,-240.67 98.43,-231.51 117,-224 126.03,-220.35 135.85,-216.59 145.04,-213.16"/>
<polygon fill="midnightblue" stroke="midnightblue" points="146.53,-216.34 154.7,-209.59 144.1,-209.78 146.53,-216.34"/>
</g>
<!-- Node79 -->
<g id="node14" class="node">
<title>Node79</title>
<g id="a_node14"><a xlink:href="cutils_8h.html#a29a7a26d9387c01c1b4e9fe4fff5704a" target="_top" xlink:title=" ">
<polygon fill="none" stroke="black" points="460,-456.5 460,-475.5 513,-475.5 513,-456.5 460,-456.5"/>
<text text-anchor="middle" x="486.5" y="-463.5" font-family="Helvetica,sans-Serif" font-size="10.00">min_int</text>
</a>
</g>
</g>
<!-- Node1&#45;&gt;Node79 -->
<g id="edge15" class="edge">
<title>Node1&#45;&gt;Node79</title>
<path fill="none" stroke="midnightblue" d="M43.14,-266.86C48.3,-294.52 66.94,-373.14 117,-409 168.58,-445.95 337.53,-435.89 400,-447 416.42,-449.92 434.47,-453.83 449.73,-457.34"/>
<polygon fill="midnightblue" stroke="midnightblue" points="449.26,-460.82 459.8,-459.69 450.86,-454.01 449.26,-460.82"/>
</g>
<!-- Node331 -->
<g id="node15" class="node">
<title>Node331</title>
<g id="a_node15"><a xlink:href="quickjs_8c.html#a6887ef15fd884e05ddf04ec291b5f3d2" target="_top" xlink:title=" ">
<polygon fill="none" stroke="red" points="124.5,-152.5 124.5,-171.5 240.5,-171.5 240.5,-152.5 124.5,-152.5"/>
<text text-anchor="middle" x="182.5" y="-159.5" font-family="Helvetica,sans-Serif" font-size="10.00">string_buffer_concat</text>
</a>
</g>
</g>
<!-- Node1&#45;&gt;Node331 -->
<g id="edge16" class="edge">
<title>Node1&#45;&gt;Node331</title>
<path fill="none" stroke="midnightblue" d="M48.49,-247.29C60.61,-231.15 87.13,-198.81 117,-181 120.61,-178.85 124.48,-176.93 128.47,-175.21"/>
<polygon fill="midnightblue" stroke="midnightblue" points="129.83,-178.43 137.91,-171.58 127.32,-171.9 129.83,-178.43"/>
</g>
<!-- Node71 -->
<g id="node16" class="node">
<title>Node71</title>
<g id="a_node16"><a xlink:href="quickjs_8c.html#accfc3d1dcaa88c88402cb245ccaf4fdb" target="_top" xlink:title=" ">
<polygon fill="none" stroke="red" points="132,-114.5 132,-133.5 233,-133.5 233,-114.5 132,-114.5"/>
<text text-anchor="middle" x="182.5" y="-121.5" font-family="Helvetica,sans-Serif" font-size="10.00">string_buffer_end</text>
</a>
</g>
</g>
<!-- Node1&#45;&gt;Node71 -->
<g id="edge17" class="edge">
<title>Node1&#45;&gt;Node71</title>
<path fill="none" stroke="midnightblue" d="M45.14,-247.4C53.96,-225.46 78.62,-171.35 117,-143 119.63,-141.06 122.45,-139.31 125.4,-137.75"/>
<polygon fill="midnightblue" stroke="midnightblue" points="126.91,-140.91 134.54,-133.56 123.99,-134.54 126.91,-140.91"/>
</g>
<!-- Node438 -->
<g id="node17" class="node">
<title>Node438</title>
<g id="a_node17"><a xlink:href="quickjs_8c.html#a8b6748281754a2c4690fc2ab20b2bad1" target="_top" xlink:title=" ">
<polygon fill="none" stroke="black" points="135,-456.5 135,-475.5 230,-475.5 230,-456.5 135,-456.5"/>
<text text-anchor="middle" x="182.5" y="-463.5" font-family="Helvetica,sans-Serif" font-size="10.00">string_buffer_fill</text>
</a>
</g>
</g>
<!-- Node1&#45;&gt;Node438 -->
<g id="edge18" class="edge">
<title>Node1&#45;&gt;Node438</title>
<path fill="none" stroke="midnightblue" d="M42.68,-266.55C46.91,-296.65 63.94,-390.58 117,-442 121.08,-445.95 125.86,-449.26 130.95,-452.03"/>
<polygon fill="midnightblue" stroke="midnightblue" points="129.81,-455.37 140.35,-456.46 132.8,-449.03 129.81,-455.37"/>
</g>
<!-- Node72 -->
<g id="node20" class="node">
<title>Node72</title>
<g id="a_node20"><a xlink:href="quickjs_8c.html#a266b4993a59d9e34537386e62b9f3d4f" target="_top" xlink:title=" ">
<polygon fill="none" stroke="red" points="131,-76.5 131,-95.5 234,-95.5 234,-76.5 131,-76.5"/>
<text text-anchor="middle" x="182.5" y="-83.5" font-family="Helvetica,sans-Serif" font-size="10.00">string_buffer_free</text>
</a>
</g>
</g>
<!-- Node1&#45;&gt;Node72 -->
<g id="edge23" class="edge">
<title>Node1&#45;&gt;Node72</title>
<path fill="none" stroke="midnightblue" d="M43.52,-247.13C49.55,-220.12 70.05,-144.39 117,-105 119.03,-103.29 121.22,-101.74 123.5,-100.33"/>
<polygon fill="midnightblue" stroke="midnightblue" points="125.49,-103.24 132.76,-95.53 122.27,-97.02 125.49,-103.24"/>
</g>
<!-- Node73 -->
<g id="node21" class="node">
<title>Node73</title>
<g id="a_node21"><a xlink:href="quickjs_8c.html#a9c11961b0adafedd064b294612d0c2f3" target="_top" xlink:title=" ">
<polygon fill="none" stroke="red" points="133,-38.5 133,-57.5 232,-57.5 232,-38.5 133,-38.5"/>
<text text-anchor="middle" x="182.5" y="-45.5" font-family="Helvetica,sans-Serif" font-size="10.00">string_buffer_init</text>
</a>
</g>
</g>
<!-- Node1&#45;&gt;Node73 -->
<g id="edge24" class="edge">
<title>Node1&#45;&gt;Node73</title>
<path fill="none" stroke="midnightblue" d="M42.4,-247.47C45.83,-216.57 60.88,-118.19 117,-67 119,-65.18 121.17,-63.53 123.45,-62.03"/>
<polygon fill="midnightblue" stroke="midnightblue" points="125.62,-64.84 132.77,-57.03 122.31,-58.68 125.62,-64.84"/>
</g>
<!-- Node439 -->
<g id="node22" class="node">
<title>Node439</title>
<g id="a_node22"><a xlink:href="quickjs_8c.html#a80398f847e2e83c2613b638719bf6fda" target="_top" xlink:title=" ">
<polygon fill="none" stroke="black" points="150,-0.5 150,-19.5 215,-19.5 215,-0.5 150,-0.5"/>
<text text-anchor="middle" x="182.5" y="-7.5" font-family="Helvetica,sans-Serif" font-size="10.00">string_get</text>
</a>
</g>
</g>
<!-- Node1&#45;&gt;Node439 -->
<g id="edge25" class="edge">
<title>Node1&#45;&gt;Node439</title>
<path fill="none" stroke="midnightblue" d="M41.69,-247.12C42.94,-211.99 51.96,-91.91 117,-29 123.33,-22.88 131.54,-18.71 139.96,-15.88"/>
<polygon fill="midnightblue" stroke="midnightblue" points="141.15,-19.18 149.85,-13.14 139.28,-12.44 141.15,-19.18"/>
</g>
<!-- Node4 -->
<g id="node4" class="node">
<title>Node4</title>
<g id="a_node4"><a xlink:href="quickjs_8c.html#aa059f309c30fd5166d16c82a97973146" target="_top" xlink:title=" ">
<polygon fill="none" stroke="black" points="297.5,-380.5 297.5,-399.5 386.5,-399.5 386.5,-380.5 297.5,-380.5"/>
<text text-anchor="middle" x="342" y="-387.5" font-family="Helvetica,sans-Serif" font-size="10.00">__JS_FreeValue</text>
</a>
</g>
</g>
<!-- Node3&#45;&gt;Node4 -->
<g id="edge3" class="edge">
<title>Node3&#45;&gt;Node4</title>
<path fill="none" stroke="midnightblue" d="M222.03,-390C241.59,-390 265.69,-390 287.06,-390"/>
<polygon fill="midnightblue" stroke="midnightblue" points="287.31,-393.5 297.31,-390 287.31,-386.5 287.31,-393.5"/>
</g>
<!-- Node5 -->
<g id="node5" class="node">
<title>Node5</title>
<g id="a_node5"><a xlink:href="quickjs_8c.html#ab1ea3fad7d138be12144a38be4d36423" target="_top" xlink:title=" ">
<polygon fill="none" stroke="red" points="436,-380.5 436,-399.5 537,-399.5 537,-380.5 436,-380.5"/>
<text text-anchor="middle" x="486.5" y="-387.5" font-family="Helvetica,sans-Serif" font-size="10.00">__JS_FreeValueRT</text>
</a>
</g>
</g>
<!-- Node4&#45;&gt;Node5 -->
<g id="edge4" class="edge">
<title>Node4&#45;&gt;Node5</title>
<path fill="none" stroke="midnightblue" d="M386.53,-390C398.8,-390 412.37,-390 425.43,-390"/>
<polygon fill="midnightblue" stroke="midnightblue" points="425.75,-393.5 435.75,-390 425.75,-386.5 425.75,-393.5"/>
</g>
<!-- Node44 -->
<g id="node9" class="node">
<title>Node44</title>
<g id="a_node9"><a xlink:href="quickjs_8h.html#a775522f2d084fc8fa0fcb33f390006b4" target="_top" xlink:title=" ">
<polygon fill="none" stroke="black" points="303.5,-266.5 303.5,-285.5 380.5,-285.5 380.5,-266.5 303.5,-266.5"/>
<text text-anchor="middle" x="342" y="-273.5" font-family="Helvetica,sans-Serif" font-size="10.00">JS_DupValue</text>
</a>
</g>
</g>
<!-- Node43&#45;&gt;Node44 -->
<g id="edge8" class="edge">
<title>Node43&#45;&gt;Node44</title>
<path fill="none" stroke="midnightblue" d="M223.24,-304.41C244.58,-299.26 271.03,-292.88 293.45,-287.47"/>
<polygon fill="midnightblue" stroke="midnightblue" points="294.54,-290.81 303.44,-285.06 292.9,-284.01 294.54,-290.81"/>
</g>
<!-- Node45 -->
<g id="node10" class="node">
<title>Node45</title>
<g id="a_node10"><a xlink:href="quickjs_8c.html#a419bec82cb80e98e08626a9a5212ec4c" target="_top" xlink:title=" ">
<polygon fill="none" stroke="black" points="290.5,-304.5 290.5,-323.5 393.5,-323.5 393.5,-304.5 290.5,-304.5"/>
<text text-anchor="middle" x="342" y="-311.5" font-family="Helvetica,sans-Serif" font-size="10.00">JS_ToInt32SatFree</text>
</a>
</g>
</g>
<!-- Node43&#45;&gt;Node45 -->
<g id="edge9" class="edge">
<title>Node43&#45;&gt;Node45</title>
<path fill="none" stroke="midnightblue" d="M223.65,-314C240.88,-314 261.38,-314 280.39,-314"/>
<polygon fill="midnightblue" stroke="midnightblue" points="280.47,-317.5 290.47,-314 280.47,-310.5 280.47,-317.5"/>
</g>
<!-- Node45&#45;&gt;Node41 -->
<g id="edge10" class="edge">
<title>Node45&#45;&gt;Node41</title>
<path fill="none" stroke="midnightblue" d="M378.96,-323.59C397.44,-328.52 420.16,-334.57 439.86,-339.83"/>
<polygon fill="midnightblue" stroke="midnightblue" points="438.99,-343.22 449.55,-342.41 440.79,-336.46 438.99,-343.22"/>
</g>
<!-- Node46 -->
<g id="node11" class="node">
<title>Node46</title>
<g id="a_node11"><a xlink:href="quickjs_8c.html#ae738291483438efefca5c9fa4d269504" target="_top" xlink:title=" ">
<polygon fill="none" stroke="red" points="436,-304.5 436,-323.5 537,-323.5 537,-304.5 436,-304.5"/>
<text text-anchor="middle" x="486.5" y="-311.5" font-family="Helvetica,sans-Serif" font-size="10.00">JS_ToNumberFree</text>
</a>
</g>
</g>
<!-- Node45&#45;&gt;Node46 -->
<g id="edge11" class="edge">
<title>Node45&#45;&gt;Node46</title>
<path fill="none" stroke="midnightblue" d="M393.64,-314C404.07,-314 415.14,-314 425.85,-314"/>
<polygon fill="midnightblue" stroke="midnightblue" points="425.98,-317.5 435.98,-314 425.98,-310.5 425.98,-317.5"/>
</g>
<!-- Node279&#45;&gt;Node62 -->
<g id="edge14" class="edge">
<title>Node279&#45;&gt;Node62</title>
<path fill="none" stroke="midnightblue" d="M248.02,-207.78C264.44,-209.76 281.73,-211.85 296.87,-213.68"/>
<polygon fill="midnightblue" stroke="midnightblue" points="296.64,-217.17 306.98,-214.9 297.48,-210.22 296.64,-217.17"/>
</g>
<!-- Node75 -->
<g id="node18" class="node">
<title>Node75</title>
<g id="a_node18"><a xlink:href="quickjs_8c.html#a9b8fb6b5ce638616691f7bf7881fa57d" target="_top" xlink:title=" ">
<polygon fill="none" stroke="red" points="284,-456.5 284,-475.5 400,-475.5 400,-456.5 284,-456.5"/>
<text text-anchor="middle" x="342" y="-463.5" font-family="Helvetica,sans-Serif" font-size="10.00">string_buffer_putc16</text>
</a>
</g>
</g>
<!-- Node438&#45;&gt;Node75 -->
<g id="edge19" class="edge">
<title>Node438&#45;&gt;Node75</title>
<path fill="none" stroke="midnightblue" d="M230.33,-466C243.96,-466 259.12,-466 273.75,-466"/>
<polygon fill="midnightblue" stroke="midnightblue" points="273.76,-469.5 283.76,-466 273.76,-462.5 273.76,-469.5"/>
</g>
<!-- Node77 -->
<g id="node19" class="node">
<title>Node77</title>
<g id="a_node19"><a xlink:href="quickjs_8c.html#a317ccdca83843c76330ace89fb055b56" target="_top" xlink:title=" ">
<polygon fill="none" stroke="red" points="284,-494.5 284,-513.5 400,-513.5 400,-494.5 284,-494.5"/>
<text text-anchor="middle" x="342" y="-501.5" font-family="Helvetica,sans-Serif" font-size="10.00">string_buffer_realloc</text>
</a>
</g>
</g>
<!-- Node438&#45;&gt;Node77 -->
<g id="edge20" class="edge">
<title>Node438&#45;&gt;Node77</title>
<path fill="none" stroke="midnightblue" d="M223.24,-475.59C244.03,-480.6 269.66,-486.79 291.7,-492.11"/>
<polygon fill="midnightblue" stroke="midnightblue" points="291,-495.54 301.54,-494.48 292.64,-488.73 291,-495.54"/>
</g>
<!-- Node77&#45;&gt;Node2 -->
<g id="edge21" class="edge">
<title>Node77&#45;&gt;Node2</title>
<path fill="none" stroke="midnightblue" d="M400.14,-511.62C412.12,-513.22 424.65,-514.89 436.31,-516.44"/>
<polygon fill="midnightblue" stroke="midnightblue" points="435.92,-519.92 446.29,-517.77 436.84,-512.98 435.92,-519.92"/>
</g>
<!-- Node77&#45;&gt;Node79 -->
<g id="edge22" class="edge">
<title>Node77&#45;&gt;Node79</title>
<path fill="none" stroke="midnightblue" d="M378.96,-494.41C400.74,-488.6 428.41,-481.23 450.09,-475.44"/>
<polygon fill="midnightblue" stroke="midnightblue" points="451.13,-478.79 459.89,-472.83 449.33,-472.02 451.13,-478.79"/>
</g>
</g>
</svg>
        <g id="navigator" transform="translate(0 0)" fill="#404254">
                <rect fill="#f2f5e9" fill-opacity="0.5" stroke="#606060" stroke-width=".5" x="0" y="0" width="60" height="60"/>
                <use id="zoomplus" xlink:href="#zoomPlus" x="17" y="9" onmousedown="handleZoom(evt,'in')"/>
                <use id="zoomminus" xlink:href="#zoomMin" x="42" y="9" onmousedown="handleZoom(evt,'out')"/>
                <use id="reset" xlink:href="#resetDef" x="30" y="36" onmousedown="handleReset()"/>
                <g id="arrowUp" xlink:href="#dirArrow" transform="translate(30 24)" onmousedown="handlePan(0,-1)">
                  <use xlink:href="#rim" fill="#404040">
                        <set attributeName="fill" to="#808080" begin="arrowUp.mouseover" end="arrowUp.mouseout"/>
                  </use>
                  <path fill="none" stroke="white" stroke-width="1.5" d="M0,-3.0v7 M-2.5,-0.5L0,-3.0L2.5,-0.5"/>
                </g>
                <g id="arrowRight" xlink:href="#dirArrow" transform="rotate(90) translate(36 -43)" onmousedown="handlePan(1,0)">
                  <use xlink:href="#rim" fill="#404040">
                        <set attributeName="fill" to="#808080" begin="arrowRight.mouseover" end="arrowRight.mouseout"/>
                  </use>
                  <path fill="none" stroke="white" stroke-width="1.5" d="M0,-3.0v7 M-2.5,-0.5L0,-3.0L2.5,-0.5"/>
                </g>
                <g id="arrowDown" xlink:href="#dirArrow" transform="rotate(180) translate(-30 -48)" onmousedown="handlePan(0,1)">
                  <use xlink:href="#rim" fill="#404040">
                        <set attributeName="fill" to="#808080" begin="arrowDown.mouseover" end="arrowDown.mouseout"/>
                  </use>
                  <path fill="none" stroke="white" stroke-width="1.5" d="M0,-3.0v7 M-2.5,-0.5L0,-3.0L2.5,-0.5"/>
                </g>
                <g id="arrowLeft" xlink:href="#dirArrow" transform="rotate(270) translate(-36 17)" onmousedown="handlePan(-1,0)">
                  <use xlink:href="#rim" fill="#404040">
                        <set attributeName="fill" to="#808080" begin="arrowLeft.mouseover" end="arrowLeft.mouseout"/>
                  </use>
                  <path fill="none" stroke="white" stroke-width="1.5" d="M0,-3.0v7 M-2.5,-0.5L0,-3.0L2.5,-0.5"/>
                </g>
        </g>
        <svg viewBox="0 0 15 15" width="100%" height="30px" preserveAspectRatio="xMaxYMin meet">
         <g id="arrow_out" transform="scale(0.3 0.3)">
          <a xlink:href="quickjs_8c_afe038ef522a8c7c8862cfe18a0c0a785_cgraph_org.svg" target="_base">
           <rect id="button" ry="5" rx="5" y="6" x="6" height="38" width="38"
                fill="#f2f5e9" fill-opacity="0.5" stroke="#606060" stroke-width="1.0"/>
           <path id="arrow"
             d="M 11.500037,31.436501 C 11.940474,20.09759 22.043105,11.32322 32.158766,21.979434 L 37.068811,17.246167 C 37.068811,17.246167 37.088388,32 37.088388,32 L 22.160133,31.978069 C 22.160133,31.978069 26.997745,27.140456 26.997745,27.140456 C 18.528582,18.264221 13.291696,25.230495 11.500037,31.436501 z"
             style="fill:#404040;"/>
          </a>
         </g>
        </svg>
</svg>
