<?xml version="1.0" encoding="UTF-8" standalone="no"?>
<!DOCTYPE svg PUBLIC "-//W3C//DTD SVG 1.1//EN"
 "http://www.w3.org/Graphics/SVG/1.1/DTD/svg11.dtd">
<!-- Generated by graphviz version 2.43.0 (0)
 -->
<!-- Title: js_async_from_sync_iterator_unwrap_func_create Pages: 1 -->
<svg width="726pt" height="294pt"
 viewBox="0.00 0.00 726.00 294.00" xmlns="http://www.w3.org/2000/svg" xmlns:xlink="http://www.w3.org/1999/xlink">
<g id="graph0" class="graph" transform="scale(1 1) rotate(0) translate(4 290)">
<title>js_async_from_sync_iterator_unwrap_func_create</title>
<!-- Node1 -->
<g id="node1" class="node">
<title>Node1</title>
<g id="a_node1"><a xlink:title=" ">
<polygon fill="#bfbfbf" stroke="black" points="0,-146.5 0,-187.5 125,-187.5 125,-146.5 0,-146.5"/>
<text text-anchor="start" x="8" y="-175.5" font-family="Helvetica,sans-Serif" font-size="10.00">js_async_from_sync</text>
<text text-anchor="start" x="8" y="-164.5" font-family="Helvetica,sans-Serif" font-size="10.00">_iterator_unwrap_func</text>
<text text-anchor="middle" x="62.5" y="-153.5" font-family="Helvetica,sans-Serif" font-size="10.00">_create</text>
</a>
</g>
</g>
<!-- Node2 -->
<g id="node2" class="node">
<title>Node2</title>
<g id="a_node2"><a xlink:href="quickjs_8c.html#a7669dd0ce9d8af7c46740d2f9c1e7af7" target="_top" xlink:title=" ">
<polygon fill="none" stroke="black" points="161,-196 161,-226 276,-226 276,-196 161,-196"/>
<text text-anchor="start" x="169" y="-214" font-family="Helvetica,sans-Serif" font-size="10.00">js_async_from_sync</text>
<text text-anchor="middle" x="218.5" y="-203" font-family="Helvetica,sans-Serif" font-size="10.00">_iterator_unwrap</text>
</a>
</g>
</g>
<!-- Node1&#45;&gt;Node2 -->
<g id="edge1" class="edge">
<title>Node1&#45;&gt;Node2</title>
<path fill="none" stroke="midnightblue" d="M125.25,-184.64C135.04,-187.44 145.17,-190.34 154.98,-193.14"/>
<polygon fill="midnightblue" stroke="midnightblue" points="154.08,-196.52 164.66,-195.9 156,-189.79 154.08,-196.52"/>
</g>
<!-- Node376 -->
<g id="node7" class="node">
<title>Node376</title>
<g id="a_node7"><a xlink:href="quickjs_8h.html#a93abffa925714e249a6aa2f4ae7900f6" target="_top" xlink:title=" ">
<polygon fill="none" stroke="black" points="500.5,-0.5 500.5,-19.5 574.5,-19.5 574.5,-0.5 500.5,-0.5"/>
<text text-anchor="middle" x="537.5" y="-7.5" font-family="Helvetica,sans-Serif" font-size="10.00">JS_NewBool</text>
</a>
</g>
</g>
<!-- Node1&#45;&gt;Node376 -->
<g id="edge14" class="edge">
<title>Node1&#45;&gt;Node376</title>
<path fill="none" stroke="midnightblue" d="M122.12,-146.39C201.23,-118.76 346.73,-68.59 472,-29 478.96,-26.8 486.38,-24.54 493.6,-22.38"/>
<polygon fill="midnightblue" stroke="midnightblue" points="494.68,-25.71 503.28,-19.51 492.7,-19 494.68,-25.71"/>
</g>
<!-- Node372 -->
<g id="node12" class="node">
<title>Node372</title>
<g id="a_node12"><a xlink:href="quickjs_8c.html#ac048b0ff95f3f0cb7c189e87f74df753" target="_top" xlink:title=" ">
<polygon fill="none" stroke="red" points="312,-163.5 312,-182.5 436,-182.5 436,-163.5 312,-163.5"/>
<text text-anchor="middle" x="374" y="-170.5" font-family="Helvetica,sans-Serif" font-size="10.00">JS_NewCFunctionData</text>
</a>
</g>
</g>
<!-- Node1&#45;&gt;Node372 -->
<g id="edge15" class="edge">
<title>Node1&#45;&gt;Node372</title>
<path fill="none" stroke="midnightblue" d="M125.02,-168.19C175.94,-169.18 248.35,-170.58 301.78,-171.62"/>
<polygon fill="midnightblue" stroke="midnightblue" points="301.8,-175.12 311.86,-171.81 301.93,-168.12 301.8,-175.12"/>
</g>
<!-- Node3 -->
<g id="node3" class="node">
<title>Node3</title>
<g id="a_node3"><a xlink:href="quickjs_8c.html#a7346b86113acd072c9cfc8d238c4ff7c" target="_top" xlink:title=" ">
<polygon fill="none" stroke="black" points="323,-98 323,-128 425,-128 425,-98 323,-98"/>
<text text-anchor="start" x="331" y="-116" font-family="Helvetica,sans-Serif" font-size="10.00">js_create_iterator</text>
<text text-anchor="middle" x="374" y="-105" font-family="Helvetica,sans-Serif" font-size="10.00">_result</text>
</a>
</g>
</g>
<!-- Node2&#45;&gt;Node3 -->
<g id="edge2" class="edge">
<title>Node2&#45;&gt;Node3</title>
<path fill="none" stroke="midnightblue" d="M243.15,-195.9C269.29,-179.21 311.55,-152.23 340.72,-133.61"/>
<polygon fill="midnightblue" stroke="midnightblue" points="342.78,-136.45 349.33,-128.11 339.01,-130.55 342.78,-136.45"/>
</g>
<!-- Node32 -->
<g id="node9" class="node">
<title>Node32</title>
<g id="a_node9"><a xlink:href="quickjs_8h.html#a775522f2d084fc8fa0fcb33f390006b4" target="_top" xlink:title=" ">
<polygon fill="none" stroke="black" points="499,-228.5 499,-247.5 576,-247.5 576,-228.5 499,-228.5"/>
<text text-anchor="middle" x="537.5" y="-235.5" font-family="Helvetica,sans-Serif" font-size="10.00">JS_DupValue</text>
</a>
</g>
</g>
<!-- Node2&#45;&gt;Node32 -->
<g id="edge9" class="edge">
<title>Node2&#45;&gt;Node32</title>
<path fill="none" stroke="midnightblue" d="M276.17,-215.83C336.7,-220.98 431.57,-229.06 488.53,-233.91"/>
<polygon fill="midnightblue" stroke="midnightblue" points="488.44,-237.42 498.7,-234.78 489.04,-230.44 488.44,-237.42"/>
</g>
<!-- Node438 -->
<g id="node10" class="node">
<title>Node438</title>
<g id="a_node10"><a xlink:href="quickjs_8c.html#a525bb5bdbab2566313d9bcd876838d9d" target="_top" xlink:title=" ">
<polygon fill="none" stroke="black" points="342.5,-239.5 342.5,-258.5 405.5,-258.5 405.5,-239.5 342.5,-239.5"/>
<text text-anchor="middle" x="374" y="-246.5" font-family="Helvetica,sans-Serif" font-size="10.00">JS_ToBool</text>
</a>
</g>
</g>
<!-- Node2&#45;&gt;Node438 -->
<g id="edge10" class="edge">
<title>Node2&#45;&gt;Node438</title>
<path fill="none" stroke="midnightblue" d="M276.22,-225.04C294.93,-229.67 315.34,-234.73 332.57,-238.99"/>
<polygon fill="midnightblue" stroke="midnightblue" points="331.77,-242.4 342.32,-241.4 333.45,-235.6 331.77,-242.4"/>
</g>
<!-- Node4 -->
<g id="node4" class="node">
<title>Node4</title>
<g id="a_node4"><a xlink:href="quickjs_8c.html#a0a8765bd4012467d9139bc24aabcb3ca" target="_top" xlink:title=" ">
<polygon fill="none" stroke="red" points="472,-38.5 472,-57.5 603,-57.5 603,-38.5 472,-38.5"/>
<text text-anchor="middle" x="537.5" y="-45.5" font-family="Helvetica,sans-Serif" font-size="10.00">JS_DefinePropertyValue</text>
</a>
</g>
</g>
<!-- Node3&#45;&gt;Node4 -->
<g id="edge3" class="edge">
<title>Node3&#45;&gt;Node4</title>
<path fill="none" stroke="midnightblue" d="M409.87,-97.83C428.27,-89.93 451.27,-80.23 472,-72 481.23,-68.33 491.27,-64.52 500.61,-61.04"/>
<polygon fill="midnightblue" stroke="midnightblue" points="501.88,-64.3 510.04,-57.55 499.45,-57.74 501.88,-64.3"/>
</g>
<!-- Node33 -->
<g id="node5" class="node">
<title>Node33</title>
<g id="a_node5"><a xlink:href="quickjs_8h.html#afaa20c47565bc704c6c85f3d77254e7d" target="_top" xlink:title=" ">
<polygon fill="none" stroke="red" points="639,-133.5 639,-152.5 718,-152.5 718,-133.5 639,-133.5"/>
<text text-anchor="middle" x="678.5" y="-140.5" font-family="Helvetica,sans-Serif" font-size="10.00">JS_FreeValue</text>
</a>
</g>
</g>
<!-- Node3&#45;&gt;Node33 -->
<g id="edge5" class="edge">
<title>Node3&#45;&gt;Node33</title>
<path fill="none" stroke="midnightblue" d="M425.14,-103.62C471.86,-96.65 543.11,-90.61 603,-105 621.65,-109.48 640.88,-119.45 655.13,-128.06"/>
<polygon fill="midnightblue" stroke="midnightblue" points="653.39,-131.1 663.73,-133.44 657.11,-125.16 653.39,-131.1"/>
</g>
<!-- Node69 -->
<g id="node6" class="node">
<title>Node69</title>
<g id="a_node6"><a xlink:href="quickjs_8h.html#ad80a83d73e9b7d872b88fbf2943aebe9" target="_top" xlink:title=" ">
<polygon fill="none" stroke="black" points="494,-152.5 494,-171.5 581,-171.5 581,-152.5 494,-152.5"/>
<text text-anchor="middle" x="537.5" y="-159.5" font-family="Helvetica,sans-Serif" font-size="10.00">JS_IsException</text>
</a>
</g>
</g>
<!-- Node3&#45;&gt;Node69 -->
<g id="edge6" class="edge">
<title>Node3&#45;&gt;Node69</title>
<path fill="none" stroke="midnightblue" d="M423.31,-128.08C438.85,-132.89 456.14,-138.21 472,-143 479.07,-145.13 486.58,-147.37 493.89,-149.54"/>
<polygon fill="midnightblue" stroke="midnightblue" points="493.08,-152.95 503.66,-152.42 495.06,-146.23 493.08,-152.95"/>
</g>
<!-- Node3&#45;&gt;Node376 -->
<g id="edge7" class="edge">
<title>Node3&#45;&gt;Node376</title>
<path fill="none" stroke="midnightblue" d="M388.62,-97.74C406.15,-78.98 438.38,-47.37 472,-29 477.71,-25.88 484,-23.21 490.34,-20.96"/>
<polygon fill="midnightblue" stroke="midnightblue" points="491.83,-24.15 500.27,-17.74 489.67,-17.49 491.83,-24.15"/>
</g>
<!-- Node404 -->
<g id="node8" class="node">
<title>Node404</title>
<g id="a_node8"><a xlink:href="quickjs_8c.html#afc0d8ea75588216ec132a6e1655524a7" target="_top" xlink:title=" ">
<polygon fill="none" stroke="red" points="495.5,-114.5 495.5,-133.5 579.5,-133.5 579.5,-114.5 495.5,-114.5"/>
<text text-anchor="middle" x="537.5" y="-121.5" font-family="Helvetica,sans-Serif" font-size="10.00">JS_NewObject</text>
</a>
</g>
</g>
<!-- Node3&#45;&gt;Node404 -->
<g id="edge8" class="edge">
<title>Node3&#45;&gt;Node404</title>
<path fill="none" stroke="midnightblue" d="M425.21,-116.42C444.29,-117.72 466.03,-119.2 485.2,-120.51"/>
<polygon fill="midnightblue" stroke="midnightblue" points="485.04,-124 495.26,-121.19 485.52,-117.02 485.04,-124"/>
</g>
<!-- Node4&#45;&gt;Node33 -->
<g id="edge4" class="edge">
<title>Node4&#45;&gt;Node33</title>
<path fill="none" stroke="midnightblue" d="M571.86,-57.52C582.25,-61.23 593.48,-66.05 603,-72 626.52,-86.71 648.91,-109.69 662.89,-125.5"/>
<polygon fill="midnightblue" stroke="midnightblue" points="660.57,-128.16 669.75,-133.45 665.87,-123.59 660.57,-128.16"/>
</g>
<!-- Node438&#45;&gt;Node32 -->
<g id="edge11" class="edge">
<title>Node438&#45;&gt;Node32</title>
<path fill="none" stroke="midnightblue" d="M405.76,-246.91C429.11,-245.31 461.65,-243.1 488.43,-241.27"/>
<polygon fill="midnightblue" stroke="midnightblue" points="489.01,-244.74 498.75,-240.57 488.54,-237.76 489.01,-244.74"/>
</g>
<!-- Node254 -->
<g id="node11" class="node">
<title>Node254</title>
<g id="a_node11"><a xlink:href="quickjs_8c.html#a2bf30c9cddfe98a32535843202495069" target="_top" xlink:title=" ">
<polygon fill="none" stroke="black" points="495.5,-266.5 495.5,-285.5 579.5,-285.5 579.5,-266.5 495.5,-266.5"/>
<text text-anchor="middle" x="537.5" y="-273.5" font-family="Helvetica,sans-Serif" font-size="10.00">JS_ToBoolFree</text>
</a>
</g>
</g>
<!-- Node438&#45;&gt;Node254 -->
<g id="edge12" class="edge">
<title>Node438&#45;&gt;Node254</title>
<path fill="none" stroke="midnightblue" d="M405.76,-254.14C428.22,-257.9 459.19,-263.07 485.35,-267.45"/>
<polygon fill="midnightblue" stroke="midnightblue" points="485.04,-270.94 495.48,-269.14 486.19,-264.04 485.04,-270.94"/>
</g>
<!-- Node254&#45;&gt;Node33 -->
<g id="edge13" class="edge">
<title>Node254&#45;&gt;Node33</title>
<path fill="none" stroke="midnightblue" d="M579.77,-268.55C587.98,-265.81 596.16,-262.08 603,-257 636.52,-232.08 659.26,-187.27 670.13,-161.88"/>
<polygon fill="midnightblue" stroke="midnightblue" points="673.38,-163.18 673.94,-152.6 666.9,-160.52 673.38,-163.18"/>
</g>
<!-- Node372&#45;&gt;Node33 -->
<g id="edge17" class="edge">
<title>Node372&#45;&gt;Node33</title>
<path fill="none" stroke="midnightblue" d="M426.04,-182.52C472.77,-189.42 543.5,-195.3 603,-181 621.65,-176.52 640.88,-166.55 655.13,-157.94"/>
<polygon fill="midnightblue" stroke="midnightblue" points="657.11,-160.84 663.73,-152.56 653.39,-154.9 657.11,-160.84"/>
</g>
<!-- Node372&#45;&gt;Node69 -->
<g id="edge18" class="edge">
<title>Node372&#45;&gt;Node69</title>
<path fill="none" stroke="midnightblue" d="M436.06,-168.84C451.73,-167.77 468.46,-166.63 483.68,-165.6"/>
<polygon fill="midnightblue" stroke="midnightblue" points="484.21,-169.07 493.95,-164.9 483.73,-162.09 484.21,-169.07"/>
</g>
<!-- Node372&#45;&gt;Node32 -->
<g id="edge16" class="edge">
<title>Node372&#45;&gt;Node32</title>
<path fill="none" stroke="midnightblue" d="M400.38,-182.55C411.4,-186.81 424.4,-191.99 436,-197 452.24,-204.02 455.69,-207.13 472,-214 480.89,-217.75 490.6,-221.52 499.71,-224.93"/>
<polygon fill="midnightblue" stroke="midnightblue" points="498.72,-228.29 509.31,-228.46 501.14,-221.72 498.72,-228.29"/>
</g>
</g>
</svg>
