<?xml version="1.0" encoding="UTF-8" standalone="no"?>
<!DOCTYPE svg PUBLIC "-//W3C//DTD SVG 1.1//EN"
 "http://www.w3.org/Graphics/SVG/1.1/DTD/svg11.dtd">
<!-- Generated by graphviz version 2.43.0 (0)
 -->
<!-- Title: JS_NumberIsNegativeOrMinusZero Pages: 1 -->
<svg width="871pt" height="1007pt"
 viewBox="0.00 0.00 871.00 1006.95" xmlns="http://www.w3.org/2000/svg" xmlns:xlink="http://www.w3.org/1999/xlink">
<g id="graph0" class="graph" transform="scale(1 1) rotate(0) translate(4 1002.95)">
<title>JS_NumberIsNegativeOrMinusZero</title>
<!-- Node1 -->
<g id="node1" class="node">
<title>Node1</title>
<g id="a_node1"><a xlink:title=" ">
<polygon fill="#bfbfbf" stroke="black" points="678,-271 678,-290 863,-290 863,-271 678,-271"/>
<text text-anchor="middle" x="770.5" y="-278" font-family="Helvetica,sans-Serif" font-size="10.00">JS_NumberIsNegativeOrMinusZero</text>
</a>
</g>
</g>
<!-- Node2 -->
<g id="node2" class="node">
<title>Node2</title>
<g id="a_node2"><a xlink:href="quickjs_8c.html#ab50618f1bf78e444caa6da0e3e2785d7" target="_top" xlink:title=" ">
<polygon fill="none" stroke="black" points="538,-271 538,-290 642,-290 642,-271 538,-271"/>
<text text-anchor="middle" x="590" y="-278" font-family="Helvetica,sans-Serif" font-size="10.00">JS_DefineProperty</text>
</a>
</g>
</g>
<!-- Node1&#45;&gt;Node2 -->
<g id="edge1" class="edge">
<title>Node1&#45;&gt;Node2</title>
<path fill="none" stroke="midnightblue" d="M667.82,-280.5C658.94,-280.5 650.22,-280.5 642.04,-280.5"/>
<polygon fill="midnightblue" stroke="midnightblue" points="667.9,-284 677.9,-280.5 667.9,-277 667.9,-284"/>
</g>
<!-- Node3 -->
<g id="node3" class="node">
<title>Node3</title>
<g id="a_node3"><a xlink:href="quickjs_8c.html#a4c9489297c684663f30e517204a9ec14" target="_top" xlink:title=" ">
<polygon fill="none" stroke="black" points="162.5,-940 162.5,-959 311.5,-959 311.5,-940 162.5,-940"/>
<text text-anchor="middle" x="237" y="-947" font-family="Helvetica,sans-Serif" font-size="10.00">JS_AddIntrinsicBaseObjects</text>
</a>
</g>
</g>
<!-- Node2&#45;&gt;Node3 -->
<g id="edge2" class="edge">
<title>Node2&#45;&gt;Node3</title>
<path fill="none" stroke="midnightblue" d="M588.04,-300.11C582.56,-407.68 553.74,-922.89 502,-968.5 431.51,-1030.64 305.17,-981.38 257.2,-959.04"/>
<polygon fill="midnightblue" stroke="midnightblue" points="591.54,-300.18 588.54,-290.02 584.55,-299.83 591.54,-300.18"/>
</g>
<!-- Node8 -->
<g id="node5" class="node">
<title>Node8</title>
<g id="a_node5"><a xlink:href="quickjs_8c.html#a9105ee38f5a557a7922fe6cfee0f9bb2" target="_top" xlink:title=" ">
<polygon fill="none" stroke="black" points="369.5,-126.5 369.5,-156.5 487.5,-156.5 487.5,-126.5 369.5,-126.5"/>
<text text-anchor="start" x="377.5" y="-144.5" font-family="Helvetica,sans-Serif" font-size="10.00">js_arguments_define</text>
<text text-anchor="middle" x="428.5" y="-133.5" font-family="Helvetica,sans-Serif" font-size="10.00">_own_property</text>
</a>
</g>
</g>
<!-- Node2&#45;&gt;Node8 -->
<g id="edge4" class="edge">
<title>Node2&#45;&gt;Node8</title>
<path fill="none" stroke="midnightblue" d="M578.31,-261.92C563.77,-238.09 535.68,-196.82 502,-171.5 494.16,-165.61 485,-160.65 475.87,-156.58"/>
<polygon fill="midnightblue" stroke="midnightblue" points="575.41,-263.88 583.53,-270.69 581.42,-260.3 575.41,-263.88"/>
</g>
<!-- Node9 -->
<g id="node6" class="node">
<title>Node9</title>
<g id="a_node6"><a xlink:href="quickjs_8c.html#a04d312757919ff6b4d79cd0c2c3e5bb2" target="_top" xlink:title=" ">
<polygon fill="none" stroke="black" points="181,-826 181,-845 293,-845 293,-826 181,-826"/>
<text text-anchor="middle" x="237" y="-833" font-family="Helvetica,sans-Serif" font-size="10.00">js_build_arguments</text>
</a>
</g>
</g>
<!-- Node2&#45;&gt;Node9 -->
<g id="edge5" class="edge">
<title>Node2&#45;&gt;Node9</title>
<path fill="none" stroke="midnightblue" d="M585.33,-300.11C575.98,-347.44 548.67,-470.94 502,-564.5 440.22,-688.36 434.28,-739.89 319,-816.5 311.3,-821.62 302.39,-825.36 293.35,-828.1"/>
<polygon fill="midnightblue" stroke="midnightblue" points="588.77,-300.73 587.23,-290.25 581.9,-299.41 588.77,-300.73"/>
</g>
<!-- Node10 -->
<g id="node7" class="node">
<title>Node10</title>
<g id="a_node7"><a xlink:href="quickjs_8c.html#ac2894ff4edcdb4e6841bcce9c76081e3" target="_top" xlink:title=" ">
<polygon fill="none" stroke="red" points="16,-555 16,-574 103,-574 103,-555 16,-555"/>
<text text-anchor="middle" x="59.5" y="-562" font-family="Helvetica,sans-Serif" font-size="10.00">JS_CallInternal</text>
</a>
</g>
</g>
<!-- Node2&#45;&gt;Node10 -->
<g id="edge8" class="edge">
<title>Node2&#45;&gt;Node10</title>
<path fill="none" stroke="midnightblue" d="M589.46,-300.09C591.26,-395.79 593.71,-812.91 502,-892.5 479.02,-912.45 179.51,-906.35 155,-887.5 141.74,-877.3 76.59,-626.89 62.99,-574.18"/>
<polygon fill="midnightblue" stroke="midnightblue" points="592.96,-299.98 589.25,-290.05 585.96,-300.12 592.96,-299.98"/>
</g>
<!-- Node578 -->
<g id="node8" class="node">
<title>Node578</title>
<g id="a_node8"><a xlink:href="quickjs_8c.html#afda32fadaf7f938b5d1a2458a596a4b9" target="_top" xlink:title=" ">
<polygon fill="none" stroke="black" points="361,-864 361,-883 496,-883 496,-864 361,-864"/>
<text text-anchor="middle" x="428.5" y="-871" font-family="Helvetica,sans-Serif" font-size="10.00">JS_DefineGlobalFunction</text>
</a>
</g>
</g>
<!-- Node2&#45;&gt;Node578 -->
<g id="edge9" class="edge">
<title>Node2&#45;&gt;Node578</title>
<path fill="none" stroke="midnightblue" d="M586.96,-300.19C580.03,-363.19 554.9,-564.97 502,-723.5 483.51,-778.92 449.06,-840.27 435.35,-863.69"/>
<polygon fill="midnightblue" stroke="midnightblue" points="590.45,-300.4 588.04,-290.08 583.49,-299.65 590.45,-300.4"/>
</g>
<!-- Node259 -->
<g id="node9" class="node">
<title>Node259</title>
<g id="a_node9"><a xlink:href="quickjs_8c.html#af40540b5f7e973f44e4e89d87938bfc6" target="_top" xlink:title=" ">
<polygon fill="none" stroke="red" points="364.5,-88 364.5,-107 492.5,-107 492.5,-88 364.5,-88"/>
<text text-anchor="middle" x="428.5" y="-95" font-family="Helvetica,sans-Serif" font-size="10.00">JS_DefinePropertyDesc</text>
</a>
</g>
</g>
<!-- Node2&#45;&gt;Node259 -->
<g id="edge11" class="edge">
<title>Node2&#45;&gt;Node259</title>
<path fill="none" stroke="midnightblue" d="M584.27,-261.21C574.78,-226.74 550.11,-154.59 502,-116.5 497.1,-112.62 491.49,-109.53 485.61,-107.07"/>
<polygon fill="midnightblue" stroke="midnightblue" points="580.91,-262.2 586.82,-270.99 587.68,-260.43 580.91,-262.2"/>
</g>
<!-- Node579 -->
<g id="node10" class="node">
<title>Node579</title>
<g id="a_node10"><a xlink:href="quickjs_8c.html#abfb24c507e9a341c0a98e61d86fd8663" target="_top" xlink:title=" ">
<polygon fill="none" stroke="black" points="360,-290 360,-309 497,-309 497,-290 360,-290"/>
<text text-anchor="middle" x="428.5" y="-297" font-family="Helvetica,sans-Serif" font-size="10.00">JS_DefinePropertyGetSet</text>
</a>
</g>
</g>
<!-- Node2&#45;&gt;Node579 -->
<g id="edge12" class="edge">
<title>Node2&#45;&gt;Node579</title>
<path fill="none" stroke="midnightblue" d="M527.45,-287.83C517.5,-289.02 507.14,-290.25 497.05,-291.45"/>
<polygon fill="midnightblue" stroke="midnightblue" points="528.14,-291.27 537.66,-286.62 527.31,-284.32 528.14,-291.27"/>
</g>
<!-- Node580 -->
<g id="node12" class="node">
<title>Node580</title>
<g id="a_node12"><a xlink:href="quickjs_8c.html#a0a8765bd4012467d9139bc24aabcb3ca" target="_top" xlink:title=" ">
<polygon fill="none" stroke="red" points="363,-536 363,-555 494,-555 494,-536 363,-536"/>
<text text-anchor="middle" x="428.5" y="-543" font-family="Helvetica,sans-Serif" font-size="10.00">JS_DefinePropertyValue</text>
</a>
</g>
</g>
<!-- Node2&#45;&gt;Node580 -->
<g id="edge14" class="edge">
<title>Node2&#45;&gt;Node580</title>
<path fill="none" stroke="midnightblue" d="M577.81,-299.09C546.47,-351.16 458.59,-497.17 435.25,-535.95"/>
<polygon fill="midnightblue" stroke="midnightblue" points="580.98,-300.62 583.13,-290.25 574.98,-297.01 580.98,-300.62"/>
</g>
<!-- Node270 -->
<g id="node24" class="node">
<title>Node270</title>
<g id="a_node24"><a xlink:href="quickjs_8c.html#a7e5b77a4851eee6f666581d051979392" target="_top" xlink:title=" ">
<polygon fill="none" stroke="black" points="0,-274.5 0,-304.5 119,-304.5 119,-274.5 0,-274.5"/>
<text text-anchor="start" x="8" y="-292.5" font-family="Helvetica,sans-Serif" font-size="10.00">js_proxy_define_own</text>
<text text-anchor="middle" x="59.5" y="-281.5" font-family="Helvetica,sans-Serif" font-size="10.00">_property</text>
</a>
</g>
</g>
<!-- Node2&#45;&gt;Node270 -->
<g id="edge41" class="edge">
<title>Node2&#45;&gt;Node270</title>
<path fill="none" stroke="midnightblue" d="M574.9,-262.83C559.24,-244.65 532.16,-217.25 502,-204.5 430.91,-174.45 225.88,-158.96 155,-189.5 114.64,-206.89 83.48,-250.94 69.14,-274.35"/>
<polygon fill="midnightblue" stroke="midnightblue" points="572.54,-265.47 581.63,-270.91 577.92,-260.99 572.54,-265.47"/>
</g>
<!-- Node486 -->
<g id="node26" class="node">
<title>Node486</title>
<g id="a_node26"><a xlink:href="quickjs_8c.html#ad47910027b4f50d5ff3239df19de556d" target="_top" xlink:title=" ">
<polygon fill="none" stroke="black" points="355,-50 355,-69 502,-69 502,-50 355,-50"/>
<text text-anchor="middle" x="428.5" y="-57" font-family="Helvetica,sans-Serif" font-size="10.00">js_object___defineGetter__</text>
</a>
</g>
</g>
<!-- Node2&#45;&gt;Node486 -->
<g id="edge38" class="edge">
<title>Node2&#45;&gt;Node486</title>
<path fill="none" stroke="midnightblue" d="M586.31,-260.78C579.71,-220.28 558.9,-127.43 502,-78.5 497.46,-74.6 492.21,-71.48 486.66,-69"/>
<polygon fill="midnightblue" stroke="midnightblue" points="582.86,-261.37 587.81,-270.73 589.78,-260.32 582.86,-261.37"/>
</g>
<!-- Node250 -->
<g id="node27" class="node">
<title>Node250</title>
<g id="a_node27"><a xlink:href="quickjs_8c.html#a3b1f61e0c2e39eb52d8b1c5c8713873e" target="_top" xlink:title=" ">
<polygon fill="none" stroke="black" points="385.5,-940 385.5,-959 471.5,-959 471.5,-940 385.5,-940"/>
<text text-anchor="middle" x="428.5" y="-947" font-family="Helvetica,sans-Serif" font-size="10.00">js_object_seal</text>
</a>
</g>
</g>
<!-- Node2&#45;&gt;Node250 -->
<g id="edge39" class="edge">
<title>Node2&#45;&gt;Node250</title>
<path fill="none" stroke="midnightblue" d="M589.06,-300.56C588.93,-398.65 583.64,-827.11 502,-925.5 494.38,-934.68 483.16,-940.38 471.81,-943.9"/>
<polygon fill="midnightblue" stroke="midnightblue" points="592.56,-300.27 589.05,-290.28 585.56,-300.28 592.56,-300.27"/>
</g>
<!-- Node127 -->
<g id="node28" class="node">
<title>Node127</title>
<g id="a_node28"><a xlink:href="quickjs_8c.html#a638e637d492ee889691691baba33c4bd" target="_top" xlink:title=" ">
<polygon fill="none" stroke="red" points="366,-214 366,-233 491,-233 491,-214 366,-214"/>
<text text-anchor="middle" x="428.5" y="-221" font-family="Helvetica,sans-Serif" font-size="10.00">JS_SetPropertyGeneric</text>
</a>
</g>
</g>
<!-- Node2&#45;&gt;Node127 -->
<g id="edge42" class="edge">
<title>Node2&#45;&gt;Node127</title>
<path fill="none" stroke="midnightblue" d="M560.08,-266.52C543.36,-258.78 521.78,-249.37 502,-242.5 491.92,-239 480.86,-235.8 470.48,-233.05"/>
<polygon fill="midnightblue" stroke="midnightblue" points="558.77,-269.77 569.31,-270.85 561.74,-263.43 558.77,-269.77"/>
</g>
<!-- Node130 -->
<g id="node29" class="node">
<title>Node130</title>
<g id="a_node29"><a xlink:href="quickjs_8c.html#ad7f03358a8088ca920ab308225c6b2e6" target="_top" xlink:title=" ">
<polygon fill="none" stroke="red" points="366,-252 366,-271 491,-271 491,-252 366,-252"/>
<text text-anchor="middle" x="428.5" y="-259" font-family="Helvetica,sans-Serif" font-size="10.00">JS_SetPropertyInternal</text>
</a>
</g>
</g>
<!-- Node2&#45;&gt;Node130 -->
<g id="edge44" class="edge">
<title>Node2&#45;&gt;Node130</title>
<path fill="none" stroke="midnightblue" d="M527.72,-273.2C515.7,-271.77 503.09,-270.27 491.06,-268.83"/>
<polygon fill="midnightblue" stroke="midnightblue" points="527.31,-276.68 537.66,-274.38 528.14,-269.73 527.31,-276.68"/>
</g>
<!-- Node510 -->
<g id="node30" class="node">
<title>Node510</title>
<g id="a_node30"><a xlink:href="quickjs_8c.html#a1fdb56277638da2aef63b9be0c12895f" target="_top" xlink:title=" ">
<polygon fill="none" stroke="black" points="369,-0.5 369,-30.5 488,-30.5 488,-0.5 369,-0.5"/>
<text text-anchor="start" x="377" y="-18.5" font-family="Helvetica,sans-Serif" font-size="10.00">js_string_define_own</text>
<text text-anchor="middle" x="428.5" y="-7.5" font-family="Helvetica,sans-Serif" font-size="10.00">_property</text>
</a>
</g>
</g>
<!-- Node2&#45;&gt;Node510 -->
<g id="edge47" class="edge">
<title>Node2&#45;&gt;Node510</title>
<path fill="none" stroke="midnightblue" d="M587.47,-260.66C582.91,-215.27 565.47,-102.98 502,-40.5 497.92,-36.48 493.17,-33.11 488.08,-30.28"/>
<polygon fill="midnightblue" stroke="midnightblue" points="583.99,-261.04 588.37,-270.69 590.96,-260.41 583.99,-261.04"/>
</g>
<!-- Node4 -->
<g id="node4" class="node">
<title>Node4</title>
<g id="a_node4"><a xlink:href="quickjs_8c.html#ad8aedb643b8753b7a15f6cb2df61945e" target="_top" xlink:title=" ">
<polygon fill="none" stroke="red" points="14,-795 14,-814 105,-814 105,-795 14,-795"/>
<text text-anchor="middle" x="59.5" y="-802" font-family="Helvetica,sans-Serif" font-size="10.00">JS_NewContext</text>
</a>
</g>
</g>
<!-- Node3&#45;&gt;Node4 -->
<g id="edge3" class="edge">
<title>Node3&#45;&gt;Node4</title>
<path fill="none" stroke="midnightblue" d="M176.28,-936.49C168.78,-933.53 161.48,-929.91 155,-925.5 110.5,-895.19 77.39,-837.38 65.4,-814.33"/>
<polygon fill="midnightblue" stroke="midnightblue" points="175.25,-939.83 185.84,-939.9 177.6,-933.24 175.25,-939.83"/>
</g>
<!-- Node9&#45;&gt;Node10 -->
<g id="edge6" class="edge">
<title>Node9&#45;&gt;Node10</title>
<path fill="none" stroke="midnightblue" d="M171.16,-826.62C165.29,-824.01 159.77,-820.69 155,-816.5 77.8,-748.62 63.5,-611.3 61,-574.02"/>
<polygon fill="midnightblue" stroke="midnightblue" points="170.03,-829.93 180.62,-830.17 172.49,-823.38 170.03,-829.93"/>
</g>
<!-- Node10&#45;&gt;Node10 -->
<g id="edge7" class="edge">
<title>Node10&#45;&gt;Node10</title>
<path fill="none" stroke="midnightblue" d="M92.48,-582.39C92,-588.04 81.01,-592.5 59.5,-592.5 28.22,-592.5 19.18,-583.07 32.37,-574.26"/>
<polygon fill="midnightblue" stroke="midnightblue" points="95.31,-580.33 86.63,-574.26 89.63,-584.42 95.31,-580.33"/>
</g>
<!-- Node578&#45;&gt;Node10 -->
<g id="edge10" class="edge">
<title>Node578&#45;&gt;Node10</title>
<path fill="none" stroke="midnightblue" d="M379.07,-885C319.71,-896.05 219.14,-904.56 155,-854.5 131.31,-836.01 75.33,-622.29 62.95,-574.11"/>
<polygon fill="midnightblue" stroke="midnightblue" points="379.8,-888.42 388.94,-883.06 378.45,-881.55 379.8,-888.42"/>
</g>
<!-- Node276 -->
<g id="node11" class="node">
<title>Node276</title>
<g id="a_node11"><a xlink:href="quickjs_8c.html#a6ee4e2edda1f223a5a40e2c48b41d618" target="_top" xlink:title=" ">
<polygon fill="none" stroke="red" points="155,-290 155,-309 319,-309 319,-290 155,-290"/>
<text text-anchor="middle" x="237" y="-297" font-family="Helvetica,sans-Serif" font-size="10.00">JS_InstantiateFunctionListItem</text>
</a>
</g>
</g>
<!-- Node579&#45;&gt;Node276 -->
<g id="edge13" class="edge">
<title>Node579&#45;&gt;Node276</title>
<path fill="none" stroke="midnightblue" d="M349.88,-299.5C339.76,-299.5 329.37,-299.5 319.2,-299.5"/>
<polygon fill="midnightblue" stroke="midnightblue" points="349.89,-303 359.89,-299.5 349.89,-296 349.89,-303"/>
</g>
<!-- Node580&#45;&gt;Node3 -->
<g id="edge20" class="edge">
<title>Node580&#45;&gt;Node3</title>
<path fill="none" stroke="midnightblue" d="M423.29,-565.03C411.88,-615.48 377.23,-753.23 319,-854.5 298.9,-889.45 265.25,-923.76 248.35,-939.91"/>
<polygon fill="midnightblue" stroke="midnightblue" points="426.74,-565.66 425.48,-555.14 419.9,-564.15 426.74,-565.66"/>
</g>
<!-- Node580&#45;&gt;Node9 -->
<g id="edge25" class="edge">
<title>Node580&#45;&gt;Node9</title>
<path fill="none" stroke="midnightblue" d="M417.3,-564.1C402.26,-592.04 373.9,-646.74 355,-695.5 334.73,-747.82 359.82,-778.01 319,-816.5 311.85,-823.24 302.79,-827.74 293.33,-830.71"/>
<polygon fill="midnightblue" stroke="midnightblue" points="420.5,-565.54 422.19,-555.09 414.35,-562.21 420.5,-565.54"/>
</g>
<!-- Node580&#45;&gt;Node10 -->
<g id="edge29" class="edge">
<title>Node580&#45;&gt;Node10</title>
<path fill="none" stroke="midnightblue" d="M373.45,-556.86C356.14,-559.99 336.84,-562.95 319,-564.5 243.22,-571.09 154.46,-568.95 103.14,-566.76"/>
<polygon fill="midnightblue" stroke="midnightblue" points="374.2,-560.29 383.39,-555.01 372.91,-553.4 374.2,-560.29"/>
</g>
<!-- Node580&#45;&gt;Node276 -->
<g id="edge37" class="edge">
<title>Node580&#45;&gt;Node276</title>
<path fill="none" stroke="midnightblue" d="M424.04,-525.89C415.15,-481.6 387.24,-373.42 319,-318.5 314.27,-314.7 308.92,-311.63 303.27,-309.16"/>
<polygon fill="midnightblue" stroke="midnightblue" points="420.64,-526.75 425.94,-535.93 427.52,-525.45 420.64,-526.75"/>
</g>
<!-- Node506 -->
<g id="node13" class="node">
<title>Node506</title>
<g id="a_node13"><a xlink:href="quickjs_8c.html#a61c8dfb5e807af1b6ff7d8ca61576dda" target="_top" xlink:title=" ">
<polygon fill="none" stroke="red" points="190,-536 190,-555 284,-555 284,-536 190,-536"/>
<text text-anchor="middle" x="237" y="-543" font-family="Helvetica,sans-Serif" font-size="10.00">build_backtrace</text>
</a>
</g>
</g>
<!-- Node580&#45;&gt;Node506 -->
<g id="edge15" class="edge">
<title>Node580&#45;&gt;Node506</title>
<path fill="none" stroke="midnightblue" d="M352.68,-545.5C329.55,-545.5 304.76,-545.5 284.17,-545.5"/>
<polygon fill="midnightblue" stroke="midnightblue" points="352.81,-549 362.81,-545.5 352.81,-542 352.81,-549"/>
</g>
<!-- Node131 -->
<g id="node14" class="node">
<title>Node131</title>
<g id="a_node14"><a xlink:href="quickjs_8c.html#aa40a5354bee3b56e05a71244910bcc78" target="_top" xlink:title=" ">
<polygon fill="none" stroke="red" points="179.5,-252 179.5,-271 294.5,-271 294.5,-252 179.5,-252"/>
<text text-anchor="middle" x="237" y="-259" font-family="Helvetica,sans-Serif" font-size="10.00">build_for_in_iterator</text>
</a>
</g>
</g>
<!-- Node580&#45;&gt;Node131 -->
<g id="edge17" class="edge">
<title>Node580&#45;&gt;Node131</title>
<path fill="none" stroke="midnightblue" d="M425.53,-526.03C419.47,-476.82 396.54,-346.65 319,-280.5 312.08,-274.59 303.66,-270.44 294.89,-267.54"/>
<polygon fill="midnightblue" stroke="midnightblue" points="422.06,-526.45 426.66,-535.99 429.01,-525.66 422.06,-526.45"/>
</g>
<!-- Node29 -->
<g id="node15" class="node">
<title>Node29</title>
<g id="a_node15"><a xlink:href="quickjs_8c.html#a624282391413d4c5a030adbd8b77aa80" target="_top" xlink:title=" ">
<polygon fill="none" stroke="red" points="167,-366 167,-385 307,-385 307,-366 167,-366"/>
<text text-anchor="middle" x="237" y="-373" font-family="Helvetica,sans-Serif" font-size="10.00">internalize_json_property</text>
</a>
</g>
</g>
<!-- Node580&#45;&gt;Node29 -->
<g id="edge18" class="edge">
<title>Node580&#45;&gt;Node29</title>
<path fill="none" stroke="midnightblue" d="M416.44,-527.12C398.85,-499.17 362.04,-445.73 319,-412.5 303.46,-400.5 283.4,-391.3 267.14,-385.08"/>
<polygon fill="midnightblue" stroke="midnightblue" points="413.61,-529.19 421.84,-535.87 419.57,-525.52 413.61,-529.19"/>
</g>
<!-- Node279 -->
<g id="node16" class="node">
<title>Node279</title>
<g id="a_node16"><a xlink:href="quickjs_8c.html#a7efb53c2f76fd5cc0e584449437ec09c" target="_top" xlink:title=" ">
<polygon fill="none" stroke="red" points="161,-328 161,-347 313,-347 313,-328 161,-328"/>
<text text-anchor="middle" x="237" y="-335" font-family="Helvetica,sans-Serif" font-size="10.00">JS_AddIntrinsicBasicObjects</text>
</a>
</g>
</g>
<!-- Node580&#45;&gt;Node279 -->
<g id="edge21" class="edge">
<title>Node580&#45;&gt;Node279</title>
<path fill="none" stroke="midnightblue" d="M421.99,-525.79C410.08,-486.96 378.11,-400.51 319,-356.5 313.79,-352.62 307.9,-349.51 301.75,-347.03"/>
<polygon fill="midnightblue" stroke="midnightblue" points="418.76,-527.21 424.94,-535.81 425.48,-525.23 418.76,-527.21"/>
</g>
<!-- Node53 -->
<g id="node17" class="node">
<title>Node53</title>
<g id="a_node17"><a xlink:href="quickjs_8c.html#a177d09828596bfe6df4bd90b2e93989d" target="_top" xlink:title=" ">
<polygon fill="none" stroke="black" points="162.5,-650 162.5,-669 311.5,-669 311.5,-650 162.5,-650"/>
<text text-anchor="middle" x="237" y="-657" font-family="Helvetica,sans-Serif" font-size="10.00">JS_AddIntrinsicTypedArrays</text>
</a>
</g>
</g>
<!-- Node580&#45;&gt;Node53 -->
<g id="edge22" class="edge">
<title>Node580&#45;&gt;Node53</title>
<path fill="none" stroke="midnightblue" d="M412.84,-562.73C393.54,-584.26 357.53,-620.7 319,-640.5 311.42,-644.4 303.03,-647.51 294.61,-649.98"/>
<polygon fill="midnightblue" stroke="midnightblue" points="415.64,-564.84 419.61,-555.01 410.38,-560.22 415.64,-564.84"/>
</g>
<!-- Node581 -->
<g id="node18" class="node">
<title>Node581</title>
<g id="a_node18"><a xlink:href="quickjs_8c.html#a57af8ddae60fbd0080e34d23ce2a04a6" target="_top" xlink:title=" ">
<polygon fill="none" stroke="red" points="183,-776.5 183,-806.5 291,-806.5 291,-776.5 183,-776.5"/>
<text text-anchor="start" x="191" y="-794.5" font-family="Helvetica,sans-Serif" font-size="10.00">js_aggregate_error</text>
<text text-anchor="middle" x="237" y="-783.5" font-family="Helvetica,sans-Serif" font-size="10.00">_constructor</text>
</a>
</g>
</g>
<!-- Node580&#45;&gt;Node581 -->
<g id="edge24" class="edge">
<title>Node580&#45;&gt;Node581</title>
<path fill="none" stroke="midnightblue" d="M418.44,-564.19C392.76,-617.18 321.13,-764.68 319,-766.5 311.05,-773.29 301.29,-778.23 291.32,-781.83"/>
<polygon fill="midnightblue" stroke="midnightblue" points="421.6,-565.71 422.81,-555.19 415.3,-562.66 421.6,-565.71"/>
</g>
<!-- Node441 -->
<g id="node19" class="node">
<title>Node441</title>
<g id="a_node19"><a xlink:href="quickjs_8c.html#a1c459034f2971c4abc3a8d6d4693ef5f" target="_top" xlink:title=" ">
<polygon fill="none" stroke="black" points="158.5,-498 158.5,-517 315.5,-517 315.5,-498 158.5,-498"/>
<text text-anchor="middle" x="237" y="-505" font-family="Helvetica,sans-Serif" font-size="10.00">js_build_mapped_arguments</text>
</a>
</g>
</g>
<!-- Node580&#45;&gt;Node441 -->
<g id="edge26" class="edge">
<title>Node580&#45;&gt;Node441</title>
<path fill="none" stroke="midnightblue" d="M369.61,-533.89C342.65,-528.49 310.99,-522.14 285.47,-517.02"/>
<polygon fill="midnightblue" stroke="midnightblue" points="369.19,-537.38 379.68,-535.91 370.56,-530.51 369.19,-537.38"/>
</g>
<!-- Node582 -->
<g id="node20" class="node">
<title>Node582</title>
<g id="a_node20"><a xlink:href="quickjs_8c.html#ad12b6863ca31850fc39d208bb865420e" target="_top" xlink:title=" ">
<polygon fill="none" stroke="red" points="180.5,-738 180.5,-757 293.5,-757 293.5,-738 180.5,-738"/>
<text text-anchor="middle" x="237" y="-745" font-family="Helvetica,sans-Serif" font-size="10.00">js_build_module_ns</text>
</a>
</g>
</g>
<!-- Node580&#45;&gt;Node582 -->
<g id="edge28" class="edge">
<title>Node580&#45;&gt;Node582</title>
<path fill="none" stroke="midnightblue" d="M421.63,-565.12C409.25,-602.99 376.73,-686.14 319,-728.5 311.55,-733.97 302.76,-737.89 293.77,-740.7"/>
<polygon fill="midnightblue" stroke="midnightblue" points="425.05,-565.9 424.71,-555.32 418.38,-563.81 425.05,-565.9"/>
</g>
<!-- Node584 -->
<g id="node21" class="node">
<title>Node584</title>
<g id="a_node21"><a xlink:href="quickjs_8c.html#aab4130a4c3108a127681be821818528a" target="_top" xlink:title=" ">
<polygon fill="none" stroke="red" points="204.5,-460 204.5,-479 269.5,-479 269.5,-460 204.5,-460"/>
<text text-anchor="middle" x="237" y="-467" font-family="Helvetica,sans-Serif" font-size="10.00">js_closure</text>
</a>
</g>
</g>
<!-- Node580&#45;&gt;Node584 -->
<g id="edge30" class="edge">
<title>Node580&#45;&gt;Node584</title>
<path fill="none" stroke="midnightblue" d="M403.52,-530.63C382.06,-517.88 349.39,-499.84 319,-488.5 303.17,-482.59 284.89,-478.12 269.7,-475"/>
<polygon fill="midnightblue" stroke="midnightblue" points="401.89,-533.74 412.27,-535.9 405.51,-527.74 401.89,-533.74"/>
</g>
<!-- Node138 -->
<g id="node22" class="node">
<title>Node138</title>
<g id="a_node22"><a xlink:href="quickjs_8c.html#a3b754d750c7f3123e85f4a2e748de023" target="_top" xlink:title=" ">
<polygon fill="none" stroke="red" points="173,-612 173,-631 301,-631 301,-612 173,-612"/>
<text text-anchor="middle" x="237" y="-619" font-family="Helvetica,sans-Serif" font-size="10.00">JS_CopyDataProperties</text>
</a>
</g>
</g>
<!-- Node580&#45;&gt;Node138 -->
<g id="edge32" class="edge">
<title>Node580&#45;&gt;Node138</title>
<path fill="none" stroke="midnightblue" d="M400.92,-559.7C379.27,-570.91 347.7,-586.45 319,-597.5 304.76,-602.98 288.73,-607.97 274.7,-611.96"/>
<polygon fill="midnightblue" stroke="midnightblue" points="402.6,-562.78 409.84,-555.04 399.36,-556.57 402.6,-562.78"/>
</g>
<!-- Node585 -->
<g id="node23" class="node">
<title>Node585</title>
<g id="a_node23"><a xlink:href="quickjs_8c.html#a8e59e32f9ef5272d7d0b1d884191321c" target="_top" xlink:title=" ">
<polygon fill="none" stroke="black" points="192.5,-422 192.5,-441 281.5,-441 281.5,-422 192.5,-422"/>
<text text-anchor="middle" x="237" y="-429" font-family="Helvetica,sans-Serif" font-size="10.00">js_create_desc</text>
</a>
</g>
</g>
<!-- Node580&#45;&gt;Node585 -->
<g id="edge34" class="edge">
<title>Node580&#45;&gt;Node585</title>
<path fill="none" stroke="midnightblue" d="M412.84,-528.27C393.54,-506.74 357.53,-470.3 319,-450.5 307.57,-444.62 294.29,-440.54 281.84,-437.7"/>
<polygon fill="midnightblue" stroke="midnightblue" points="410.38,-530.78 419.61,-535.99 415.64,-526.16 410.38,-530.78"/>
</g>
<!-- Node586 -->
<g id="node25" class="node">
<title>Node586</title>
<g id="a_node25"><a xlink:href="quickjs_8c.html#a7346b86113acd072c9cfc8d238c4ff7c" target="_top" xlink:title=" ">
<polygon fill="none" stroke="red" points="186,-688.5 186,-718.5 288,-718.5 288,-688.5 186,-688.5"/>
<text text-anchor="start" x="194" y="-706.5" font-family="Helvetica,sans-Serif" font-size="10.00">js_create_iterator</text>
<text text-anchor="middle" x="237" y="-695.5" font-family="Helvetica,sans-Serif" font-size="10.00">_result</text>
</a>
</g>
</g>
<!-- Node580&#45;&gt;Node586 -->
<g id="edge36" class="edge">
<title>Node580&#45;&gt;Node586</title>
<path fill="none" stroke="midnightblue" d="M417.2,-564.16C400.38,-592.93 364.32,-647.96 319,-678.5 309.72,-684.75 298.82,-689.49 288.06,-693.07"/>
<polygon fill="midnightblue" stroke="midnightblue" points="420.42,-565.59 422.33,-555.17 414.34,-562.12 420.42,-565.59"/>
</g>
<!-- Node506&#45;&gt;Node10 -->
<g id="edge16" class="edge">
<title>Node506&#45;&gt;Node10</title>
<path fill="none" stroke="midnightblue" d="M179.88,-551.58C155.06,-554.26 126.34,-557.37 103.29,-559.87"/>
<polygon fill="midnightblue" stroke="midnightblue" points="180.32,-555.05 189.89,-550.49 179.57,-548.09 180.32,-555.05"/>
</g>
<!-- Node29&#45;&gt;Node29 -->
<g id="edge19" class="edge">
<title>Node29&#45;&gt;Node29</title>
<path fill="none" stroke="midnightblue" d="M269.98,-393.39C269.5,-399.04 258.51,-403.5 237,-403.5 205.72,-403.5 196.68,-394.07 209.87,-385.26"/>
<polygon fill="midnightblue" stroke="midnightblue" points="272.81,-391.33 264.13,-385.26 267.13,-395.42 272.81,-391.33"/>
</g>
<!-- Node53&#45;&gt;Node4 -->
<g id="edge23" class="edge">
<title>Node53&#45;&gt;Node4</title>
<path fill="none" stroke="midnightblue" d="M167.29,-672.82C162.99,-674.75 158.85,-676.97 155,-679.5 108.66,-710.04 76.17,-771.28 64.88,-794.9"/>
<polygon fill="midnightblue" stroke="midnightblue" points="168.9,-675.95 176.91,-669.02 166.32,-669.44 168.9,-675.95"/>
</g>
<!-- Node441&#45;&gt;Node10 -->
<g id="edge27" class="edge">
<title>Node441&#45;&gt;Node10</title>
<path fill="none" stroke="midnightblue" d="M180.02,-519.46C171.58,-521.6 163.02,-523.96 155,-526.5 129.2,-534.66 100.49,-546.64 81.56,-554.96"/>
<polygon fill="midnightblue" stroke="midnightblue" points="180.96,-522.83 189.83,-517.05 179.29,-516.03 180.96,-522.83"/>
</g>
<!-- Node584&#45;&gt;Node10 -->
<g id="edge31" class="edge">
<title>Node584&#45;&gt;Node10</title>
<path fill="none" stroke="midnightblue" d="M194.03,-475.63C181.1,-478.48 167.09,-482.6 155,-488.5 119.43,-505.85 85.14,-538.71 69.43,-554.94"/>
<polygon fill="midnightblue" stroke="midnightblue" points="195,-479 204.12,-473.6 193.62,-472.14 195,-479"/>
</g>
<!-- Node138&#45;&gt;Node10 -->
<g id="edge33" class="edge">
<title>Node138&#45;&gt;Node10</title>
<path fill="none" stroke="midnightblue" d="M192.47,-609.02C180.3,-605.42 167.1,-601.4 155,-597.5 131.85,-590.03 105.75,-580.86 86.86,-574.09"/>
<polygon fill="midnightblue" stroke="midnightblue" points="191.81,-612.47 202.39,-611.93 193.78,-605.76 191.81,-612.47"/>
</g>
<!-- Node585&#45;&gt;Node270 -->
<g id="edge35" class="edge">
<title>Node585&#45;&gt;Node270</title>
<path fill="none" stroke="midnightblue" d="M182.27,-424.37C172.71,-421.61 163.2,-417.79 155,-412.5 112.23,-384.9 81.11,-331.01 67.74,-304.69"/>
<polygon fill="midnightblue" stroke="midnightblue" points="181.64,-427.82 192.19,-426.88 183.35,-421.03 181.64,-427.82"/>
</g>
<!-- Node250&#45;&gt;Node3 -->
<g id="edge40" class="edge">
<title>Node250&#45;&gt;Node3</title>
<path fill="none" stroke="midnightblue" d="M375.18,-949.5C355.53,-949.5 332.83,-949.5 311.61,-949.5"/>
<polygon fill="midnightblue" stroke="midnightblue" points="375.44,-953 385.44,-949.5 375.44,-946 375.44,-953"/>
</g>
<!-- Node127&#45;&gt;Node10 -->
<g id="edge43" class="edge">
<title>Node127&#45;&gt;Node10</title>
<path fill="none" stroke="midnightblue" d="M389.99,-211.11C332.87,-194.8 223.51,-173.92 155,-226.5 127.33,-247.74 73.55,-501.44 62.51,-554.72"/>
<polygon fill="midnightblue" stroke="midnightblue" points="389.11,-214.5 399.69,-213.98 391.09,-207.79 389.11,-214.5"/>
</g>
<!-- Node130&#45;&gt;Node10 -->
<g id="edge46" class="edge">
<title>Node130&#45;&gt;Node10</title>
<path fill="none" stroke="midnightblue" d="M375.03,-249.96C305.74,-236.02 188.56,-217.37 155,-242.5 128.36,-262.45 73.99,-503.32 62.61,-554.84"/>
<polygon fill="midnightblue" stroke="midnightblue" points="374.4,-253.4 384.89,-251.97 375.8,-246.54 374.4,-253.4"/>
</g>
<!-- Node130&#45;&gt;Node131 -->
<g id="edge45" class="edge">
<title>Node130&#45;&gt;Node131</title>
<path fill="none" stroke="midnightblue" d="M355.87,-261.5C335.65,-261.5 313.94,-261.5 294.72,-261.5"/>
<polygon fill="midnightblue" stroke="midnightblue" points="355.97,-265 365.97,-261.5 355.97,-258 355.97,-265"/>
</g>
</g>
</svg>
