<?xml version="1.0" encoding="UTF-8" standalone="no"?>
<!DOCTYPE svg PUBLIC "-//W3C//DTD SVG 1.1//EN"
 "http://www.w3.org/Graphics/SVG/1.1/DTD/svg11.dtd">
<!-- Generated by graphviz version 2.43.0 (0)
 -->
<!-- Title: JS_ThrowUnsupportedBigint Pages: 1 -->
<svg width="554pt" height="123pt"
 viewBox="0.00 0.00 554.00 123.00" xmlns="http://www.w3.org/2000/svg" xmlns:xlink="http://www.w3.org/1999/xlink">
<g id="graph0" class="graph" transform="scale(1 1) rotate(0) translate(4 119)">
<title>JS_ThrowUnsupportedBigint</title>
<!-- Node1 -->
<g id="node1" class="node">
<title>Node1</title>
<g id="a_node1"><a xlink:title=" ">
<polygon fill="#bfbfbf" stroke="black" points="394,-57.5 394,-76.5 546,-76.5 546,-57.5 394,-57.5"/>
<text text-anchor="middle" x="470" y="-64.5" font-family="Helvetica,sans-Serif" font-size="10.00">JS_ThrowUnsupportedBigint</text>
</a>
</g>
</g>
<!-- Node2 -->
<g id="node2" class="node">
<title>Node2</title>
<g id="a_node2"><a xlink:href="quickjs_8c.html#a213070e88270656c91c47f11bfb138e2" target="_top" xlink:title=" ">
<polygon fill="none" stroke="black" points="261,-95.5 261,-114.5 354,-114.5 354,-95.5 261,-95.5"/>
<text text-anchor="middle" x="307.5" y="-102.5" font-family="Helvetica,sans-Serif" font-size="10.00">JS_NewBigInt64</text>
</a>
</g>
</g>
<!-- Node1&#45;&gt;Node2 -->
<g id="edge1" class="edge">
<title>Node1&#45;&gt;Node2</title>
<path fill="none" stroke="midnightblue" d="M418.75,-78.9C396.19,-84.24 369.94,-90.45 348.71,-95.48"/>
<polygon fill="midnightblue" stroke="midnightblue" points="419.57,-82.3 428.5,-76.59 417.96,-75.49 419.57,-82.3"/>
</g>
<!-- Node5 -->
<g id="node5" class="node">
<title>Node5</title>
<g id="a_node5"><a xlink:href="quickjs_8c.html#a5d8e647c557f51abcfcdbf9f26b6ecc1" target="_top" xlink:title=" ">
<polygon fill="none" stroke="black" points="257,-57.5 257,-76.5 358,-76.5 358,-57.5 257,-57.5"/>
<text text-anchor="middle" x="307.5" y="-64.5" font-family="Helvetica,sans-Serif" font-size="10.00">JS_NewBigUint64</text>
</a>
</g>
</g>
<!-- Node1&#45;&gt;Node5 -->
<g id="edge4" class="edge">
<title>Node1&#45;&gt;Node5</title>
<path fill="none" stroke="midnightblue" d="M383.72,-67C375.04,-67 366.44,-67 358.32,-67"/>
<polygon fill="midnightblue" stroke="midnightblue" points="383.92,-70.5 393.92,-67 383.92,-63.5 383.92,-70.5"/>
</g>
<!-- Node6 -->
<g id="node6" class="node">
<title>Node6</title>
<g id="a_node6"><a xlink:href="quickjs_8c.html#a8c831ae1e9cb560b22da6bcd33c8e213" target="_top" xlink:title=" ">
<polygon fill="none" stroke="black" points="266.5,-19.5 266.5,-38.5 348.5,-38.5 348.5,-19.5 266.5,-19.5"/>
<text text-anchor="middle" x="307.5" y="-26.5" font-family="Helvetica,sans-Serif" font-size="10.00">JS_ToBigInt64</text>
</a>
</g>
</g>
<!-- Node1&#45;&gt;Node6 -->
<g id="edge5" class="edge">
<title>Node1&#45;&gt;Node6</title>
<path fill="none" stroke="midnightblue" d="M418.75,-55.1C396.19,-49.76 369.94,-43.55 348.71,-38.52"/>
<polygon fill="midnightblue" stroke="midnightblue" points="417.96,-58.51 428.5,-57.41 419.57,-51.7 417.96,-58.51"/>
</g>
<!-- Node3 -->
<g id="node3" class="node">
<title>Node3</title>
<g id="a_node3"><a xlink:href="quickjs-libc_8c.html#a06fb885216567f06919c7bbe0436234a" target="_top" xlink:title=" ">
<polygon fill="none" stroke="black" points="14.5,-85.5 14.5,-104.5 84.5,-104.5 84.5,-85.5 14.5,-85.5"/>
<text text-anchor="middle" x="49.5" y="-92.5" font-family="Helvetica,sans-Serif" font-size="10.00">js_os_seek</text>
</a>
</g>
</g>
<!-- Node2&#45;&gt;Node3 -->
<g id="edge2" class="edge">
<title>Node2&#45;&gt;Node3</title>
<path fill="none" stroke="midnightblue" d="M250.62,-102.82C200.07,-100.84 127.26,-98 84.82,-96.34"/>
<polygon fill="midnightblue" stroke="midnightblue" points="250.6,-106.32 260.73,-103.21 250.88,-99.32 250.6,-106.32"/>
</g>
<!-- Node4 -->
<g id="node4" class="node">
<title>Node4</title>
<g id="a_node4"><a xlink:href="quickjs-libc_8c.html#a10004032a1de5f5d310921346cbf211f" target="_top" xlink:title=" ">
<polygon fill="none" stroke="black" points="135,-57.5 135,-76.5 221,-76.5 221,-57.5 135,-57.5"/>
<text text-anchor="middle" x="178" y="-64.5" font-family="Helvetica,sans-Serif" font-size="10.00">js_std_file_tell</text>
</a>
</g>
</g>
<!-- Node2&#45;&gt;Node4 -->
<g id="edge3" class="edge">
<title>Node2&#45;&gt;Node4</title>
<path fill="none" stroke="midnightblue" d="M264.44,-92.46C247.1,-87.3 227.32,-81.4 211.16,-76.59"/>
<polygon fill="midnightblue" stroke="midnightblue" points="263.74,-95.91 274.33,-95.41 265.74,-89.2 263.74,-95.91"/>
</g>
<!-- Node7 -->
<g id="node7" class="node">
<title>Node7</title>
<g id="a_node7"><a xlink:href="quickjs_8c.html#acbddbd012155853a1d93ae7bb4055f0d" target="_top" xlink:title=" ">
<polygon fill="none" stroke="black" points="137,-19.5 137,-38.5 219,-38.5 219,-19.5 137,-19.5"/>
<text text-anchor="middle" x="178" y="-26.5" font-family="Helvetica,sans-Serif" font-size="10.00">JS_ToInt64Ext</text>
</a>
</g>
</g>
<!-- Node6&#45;&gt;Node7 -->
<g id="edge6" class="edge">
<title>Node6&#45;&gt;Node7</title>
<path fill="none" stroke="midnightblue" d="M256.05,-29C243.77,-29 230.8,-29 219.08,-29"/>
<polygon fill="midnightblue" stroke="midnightblue" points="256.16,-32.5 266.16,-29 256.16,-25.5 256.16,-32.5"/>
</g>
<!-- Node7&#45;&gt;Node3 -->
<g id="edge7" class="edge">
<title>Node7&#45;&gt;Node3</title>
<path fill="none" stroke="midnightblue" d="M145.95,-42.7C142.24,-44.44 138.52,-46.23 135,-48 110.86,-60.15 83.66,-75.61 66.8,-85.41"/>
<polygon fill="midnightblue" stroke="midnightblue" points="147.41,-45.88 155.04,-38.52 144.49,-39.51 147.41,-45.88"/>
</g>
<!-- Node8 -->
<g id="node8" class="node">
<title>Node8</title>
<g id="a_node8"><a xlink:href="quickjs-libc_8c.html#a2abec3aeee82a6dd3dd063725bbeecfe" target="_top" xlink:title=" ">
<polygon fill="none" stroke="red" points="0,-38.5 0,-57.5 99,-57.5 99,-38.5 0,-38.5"/>
<text text-anchor="middle" x="49.5" y="-45.5" font-family="Helvetica,sans-Serif" font-size="10.00">js_printf_internal</text>
</a>
</g>
</g>
<!-- Node7&#45;&gt;Node8 -->
<g id="edge8" class="edge">
<title>Node7&#45;&gt;Node8</title>
<path fill="none" stroke="midnightblue" d="M126.87,-36.53C117.74,-37.9 108.22,-39.33 99.14,-40.69"/>
<polygon fill="midnightblue" stroke="midnightblue" points="127.61,-39.96 136.97,-35.01 126.57,-33.04 127.61,-39.96"/>
</g>
<!-- Node12 -->
<g id="node9" class="node">
<title>Node12</title>
<g id="a_node9"><a xlink:href="quickjs-libc_8c.html#ab4e00836dd0e1609a2b081eb5e335df9" target="_top" xlink:title=" ">
<polygon fill="none" stroke="black" points="2.5,-0.5 2.5,-19.5 96.5,-19.5 96.5,-0.5 2.5,-0.5"/>
<text text-anchor="middle" x="49.5" y="-7.5" font-family="Helvetica,sans-Serif" font-size="10.00">js_std_file_seek</text>
</a>
</g>
</g>
<!-- Node7&#45;&gt;Node12 -->
<g id="edge9" class="edge">
<title>Node7&#45;&gt;Node12</title>
<path fill="none" stroke="midnightblue" d="M126.87,-21.47C116.98,-19.99 106.65,-18.43 96.89,-16.97"/>
<polygon fill="midnightblue" stroke="midnightblue" points="126.57,-24.96 136.97,-22.99 127.61,-18.04 126.57,-24.96"/>
</g>
</g>
</svg>
