<?xml version="1.0" encoding="UTF-8" standalone="no"?>
<!DOCTYPE svg PUBLIC "-//W3C//DTD SVG 1.1//EN"
 "http://www.w3.org/Graphics/SVG/1.1/DTD/svg11.dtd">
<!-- Generated by graphviz version 2.43.0 (0)
 -->
<!-- Title: js_strdup Pages: 1 -->
<svg width="655pt" height="78pt"
 viewBox="0.00 0.00 655.00 77.50" xmlns="http://www.w3.org/2000/svg" xmlns:xlink="http://www.w3.org/1999/xlink">
<g id="graph0" class="graph" transform="scale(1 1) rotate(0) translate(4 73.5)">
<title>js_strdup</title>
<!-- Node1 -->
<g id="node1" class="node">
<title>Node1</title>
<g id="a_node1"><a xlink:title=" ">
<polygon fill="#bfbfbf" stroke="black" points="586,-22.5 586,-41.5 647,-41.5 647,-22.5 586,-22.5"/>
<text text-anchor="middle" x="616.5" y="-29.5" font-family="Helvetica,sans-Serif" font-size="10.00">js_strdup</text>
</a>
</g>
</g>
<!-- Node2 -->
<g id="node2" class="node">
<title>Node2</title>
<g id="a_node2"><a xlink:href="quickjs_8c.html#a412ab329319b697a75481a981199fa73" target="_top" xlink:title=" ">
<polygon fill="none" stroke="black" points="356,-22.5 356,-41.5 550,-41.5 550,-22.5 356,-22.5"/>
<text text-anchor="middle" x="453" y="-29.5" font-family="Helvetica,sans-Serif" font-size="10.00">js_default_module_normalize_name</text>
</a>
</g>
</g>
<!-- Node1&#45;&gt;Node2 -->
<g id="edge1" class="edge">
<title>Node1&#45;&gt;Node2</title>
<path fill="none" stroke="midnightblue" d="M575.8,-32C567.79,-32 559.03,-32 550.02,-32"/>
<polygon fill="midnightblue" stroke="midnightblue" points="575.88,-35.5 585.88,-32 575.88,-28.5 575.88,-35.5"/>
</g>
<!-- Node3 -->
<g id="node3" class="node">
<title>Node3</title>
<g id="a_node3"><a xlink:href="quickjs_8c.html#a90dd988b99a5bc7b2a4aaffd2de405a9" target="_top" xlink:title=" ">
<polygon fill="none" stroke="black" points="178,-17 178,-47 320,-47 320,-17 178,-17"/>
<text text-anchor="start" x="186" y="-35" font-family="Helvetica,sans-Serif" font-size="10.00">js_host_resolve_imported</text>
<text text-anchor="middle" x="249" y="-24" font-family="Helvetica,sans-Serif" font-size="10.00">_module</text>
</a>
</g>
</g>
<!-- Node2&#45;&gt;Node3 -->
<g id="edge2" class="edge">
<title>Node2&#45;&gt;Node3</title>
<path fill="none" stroke="midnightblue" d="M345.61,-32C336.99,-32 328.43,-32 320.17,-32"/>
<polygon fill="midnightblue" stroke="midnightblue" points="345.73,-35.5 355.73,-32 345.73,-28.5 345.73,-35.5"/>
</g>
<!-- Node4 -->
<g id="node4" class="node">
<title>Node4</title>
<g id="a_node4"><a xlink:href="quickjs_8c.html#a5b9215d5347fb8696212caf3f8ebfad0" target="_top" xlink:title=" ">
<polygon fill="none" stroke="red" points="0,-39 0,-69 142,-69 142,-39 0,-39"/>
<text text-anchor="start" x="8" y="-57" font-family="Helvetica,sans-Serif" font-size="10.00">js_host_resolve_imported</text>
<text text-anchor="middle" x="71" y="-46" font-family="Helvetica,sans-Serif" font-size="10.00">_module_atom</text>
</a>
</g>
</g>
<!-- Node3&#45;&gt;Node4 -->
<g id="edge3" class="edge">
<title>Node3&#45;&gt;Node4</title>
<path fill="none" stroke="midnightblue" d="M167.9,-42.01C159.29,-43.09 150.59,-44.18 142.11,-45.24"/>
<polygon fill="midnightblue" stroke="midnightblue" points="168.45,-45.47 177.93,-40.76 167.58,-38.53 168.45,-45.47"/>
</g>
<!-- Node12 -->
<g id="node5" class="node">
<title>Node12</title>
<g id="a_node5"><a xlink:href="quickjs_8c.html#aa75a2b06808d8da661d4eb6698b17cab" target="_top" xlink:title=" ">
<polygon fill="none" stroke="red" points="28,-0.5 28,-19.5 114,-19.5 114,-0.5 28,-0.5"/>
<text text-anchor="middle" x="71" y="-7.5" font-family="Helvetica,sans-Serif" font-size="10.00">JS_RunModule</text>
</a>
</g>
</g>
<!-- Node3&#45;&gt;Node12 -->
<g id="edge4" class="edge">
<title>Node3&#45;&gt;Node12</title>
<path fill="none" stroke="midnightblue" d="M167.99,-22C149.43,-19.68 130.39,-17.3 114.21,-15.28"/>
<polygon fill="midnightblue" stroke="midnightblue" points="167.58,-25.47 177.93,-23.24 168.45,-18.53 167.58,-25.47"/>
</g>
</g>
</svg>
