<?xml version="1.0" encoding="UTF-8" standalone="no"?>
<!DOCTYPE svg PUBLIC "-//W3C//DTD SVG 1.1//EN"
 "http://www.w3.org/Graphics/SVG/1.1/DTD/svg11.dtd">
<!-- Generated by graphviz version 2.43.0 (0)
 -->
<!-- Title: build_arg_list Pages: 1 -->
<!--zoomable 214 -->
<svg id="main" version="1.1" xmlns="http://www.w3.org/2000/svg" xmlns:xlink="http://www.w3.org/1999/xlink" xml:space="preserve" onload="init(evt)">
<style type="text/css"><![CDATA[
.edge:hover path { stroke: red; }
.edge:hover polygon { stroke: red; fill: red; }
]]></style>
<script type="text/javascript"><![CDATA[
var edges = document.getElementsByTagName('g');
if (edges && edges.length) {
  for (var i=0;i<edges.length;i++) {
    if (edges[i].id.substr(0,4)=='edge') {
      edges[i].setAttribute('class','edge');
    }
  }
}
]]></script>
        <defs>
                <circle id="rim" cx="0" cy="0" r="7"/>
                <circle id="rim2" cx="0" cy="0" r="3.5"/>
                <g id="zoomPlus">
                        <use xlink:href="#rim" fill="#404040">
                                <set attributeName="fill" to="#808080" begin="zoomplus.mouseover" end="zoomplus.mouseout"/>
                        </use>
                        <path d="M-4,0h8M0,-4v8" fill="none" stroke="white" stroke-width="1.5" pointer-events="none"/>
                </g>
                <g id="zoomMin">
                        <use xlink:href="#rim" fill="#404040">
                                <set attributeName="fill" to="#808080" begin="zoomminus.mouseover" end="zoomminus.mouseout"/>
                        </use>
                        <path d="M-4,0h8" fill="none" stroke="white" stroke-width="1.5" pointer-events="none"/>
                </g>
                <g id="dirArrow">
                        <path fill="none" stroke="white" stroke-width="1.5" d="M0,-3.0v7 M-2.5,-0.5L0,-3.0L2.5,-0.5"/>
                </g>
               <g id="resetDef">
                       <use xlink:href="#rim2" fill="#404040">
                               <set attributeName="fill" to="#808080" begin="reset.mouseover" end="reset.mouseout"/>
                       </use>
               </g>
        </defs>

<script type="text/javascript">
var viewWidth = 797;
var viewHeight = 214;
var sectionId = 'dynsection-120';
</script>
<script xlink:href="svgpan.js"/>
<svg id="graph" class="graph">
<g id="viewport">
<title>build_arg_list</title>
<!-- Node1 -->
<g id="node1" class="node">
<title>Node1</title>
<g id="a_node1"><a xlink:title=" ">
<polygon fill="#bfbfbf" stroke="black" points="0,-54.6 0,-73.6 82,-73.6 82,-54.6 0,-54.6"/>
<text text-anchor="middle" x="41" y="-61.6" font-family="Helvetica,sans-Serif" font-size="10.00">build_arg_list</text>
</a>
</g>
</g>
<!-- Node2 -->
<g id="node2" class="node">
<title>Node2</title>
<g id="a_node2"><a xlink:href="quickjs_8c.html#ac864482356b3efc2d0b0a509fcfa4c7c" target="_top" xlink:title=" ">
<polygon fill="none" stroke="black" points="126.5,-168.6 126.5,-187.6 203.5,-187.6 203.5,-168.6 126.5,-168.6"/>
<text text-anchor="middle" x="165" y="-175.6" font-family="Helvetica,sans-Serif" font-size="10.00">free_arg_list</text>
</a>
</g>
</g>
<!-- Node1&#45;&gt;Node2 -->
<g id="edge1" class="edge">
<title>Node1&#45;&gt;Node2</title>
<path fill="none" stroke="midnightblue" d="M48.31,-73.83C60.21,-91.6 87.51,-129.68 118,-154.1 122.39,-157.61 127.39,-160.85 132.42,-163.72"/>
<polygon fill="midnightblue" stroke="midnightblue" points="130.93,-166.89 141.41,-168.49 134.22,-160.71 130.93,-166.89"/>
</g>
<!-- Node41 -->
<g id="node7" class="node">
<title>Node41</title>
<g id="a_node7"><a xlink:href="quickjs_8h.html#a775522f2d084fc8fa0fcb33f390006b4" target="_top" xlink:title=" ">
<polygon fill="none" stroke="black" points="564.5,-92.6 564.5,-111.6 641.5,-111.6 641.5,-92.6 564.5,-92.6"/>
<text text-anchor="middle" x="603" y="-99.6" font-family="Helvetica,sans-Serif" font-size="10.00">JS_DupValue</text>
</a>
</g>
</g>
<!-- Node1&#45;&gt;Node41 -->
<g id="edge6" class="edge">
<title>Node1&#45;&gt;Node41</title>
<path fill="none" stroke="midnightblue" d="M67.87,-73.69C106.44,-87.44 181.63,-112.08 248,-121.1 356.91,-135.89 486.14,-120.79 554.34,-110.31"/>
<polygon fill="midnightblue" stroke="midnightblue" points="555.01,-113.75 564.35,-108.74 553.93,-106.84 555.01,-113.75"/>
</g>
<!-- Node42 -->
<g id="node8" class="node">
<title>Node42</title>
<g id="a_node8"><a xlink:href="quickjs_8c.html#a718e904644ebc55548a5bdbd44f3adb9" target="_top" xlink:title=" ">
<polygon fill="none" stroke="black" points="118,-54.6 118,-73.6 212,-73.6 212,-54.6 118,-54.6"/>
<text text-anchor="middle" x="165" y="-61.6" font-family="Helvetica,sans-Serif" font-size="10.00">js_get_length32</text>
</a>
</g>
</g>
<!-- Node1&#45;&gt;Node42 -->
<g id="edge7" class="edge">
<title>Node1&#45;&gt;Node42</title>
<path fill="none" stroke="midnightblue" d="M82.29,-64.1C90.47,-64.1 99.21,-64.1 107.83,-64.1"/>
<polygon fill="midnightblue" stroke="midnightblue" points="107.84,-67.6 117.84,-64.1 107.84,-60.6 107.84,-67.6"/>
</g>
<!-- Node262 -->
<g id="node11" class="node">
<title>Node262</title>
<g id="a_node11"><a xlink:href="quickjs_8c.html#aeb97957655d979e9fe56c955da2b2d4b" target="_top" xlink:title=" ">
<polygon fill="none" stroke="red" points="542,-16.6 542,-35.6 664,-35.6 664,-16.6 542,-16.6"/>
<text text-anchor="middle" x="603" y="-23.6" font-family="Helvetica,sans-Serif" font-size="10.00">JS_GetPropertyUint32</text>
</a>
</g>
</g>
<!-- Node1&#45;&gt;Node262 -->
<g id="edge15" class="edge">
<title>Node1&#45;&gt;Node262</title>
<path fill="none" stroke="midnightblue" d="M59.29,-54.53C74.37,-46.58 97.04,-35.57 118,-29.1 263.05,15.71 444.43,-1.23 538.61,-15.08"/>
<polygon fill="midnightblue" stroke="midnightblue" points="538.15,-18.55 548.56,-16.58 539.19,-11.63 538.15,-18.55"/>
</g>
<!-- Node52 -->
<g id="node12" class="node">
<title>Node52</title>
<g id="a_node12"><a xlink:href="quickjs_8h.html#ad80a83d73e9b7d872b88fbf2943aebe9" target="_top" xlink:title=" ">
<polygon fill="none" stroke="black" points="252,-16.6 252,-35.6 339,-35.6 339,-16.6 252,-16.6"/>
<text text-anchor="middle" x="295.5" y="-23.6" font-family="Helvetica,sans-Serif" font-size="10.00">JS_IsException</text>
</a>
</g>
</g>
<!-- Node1&#45;&gt;Node52 -->
<g id="edge16" class="edge">
<title>Node1&#45;&gt;Node52</title>
<path fill="none" stroke="midnightblue" d="M75.83,-54.58C88.92,-51.17 104.07,-47.57 118,-45.1 159.29,-37.75 206.55,-32.84 241.77,-29.86"/>
<polygon fill="midnightblue" stroke="midnightblue" points="242.15,-33.34 251.83,-29.03 241.57,-26.36 242.15,-33.34"/>
</g>
<!-- Node3 -->
<g id="node3" class="node">
<title>Node3</title>
<g id="a_node3"><a xlink:href="quickjs_8c.html#a80e54dcf9ac687d4ccc2f90273565f30" target="_top" xlink:title=" ">
<polygon fill="none" stroke="black" points="270.5,-168.6 270.5,-187.6 320.5,-187.6 320.5,-168.6 270.5,-168.6"/>
<text text-anchor="middle" x="295.5" y="-175.6" font-family="Helvetica,sans-Serif" font-size="10.00">js_free</text>
</a>
</g>
</g>
<!-- Node2&#45;&gt;Node3 -->
<g id="edge2" class="edge">
<title>Node2&#45;&gt;Node3</title>
<path fill="none" stroke="midnightblue" d="M203.51,-178.1C221.3,-178.1 242.42,-178.1 259.83,-178.1"/>
<polygon fill="midnightblue" stroke="midnightblue" points="260.13,-181.6 270.13,-178.1 260.13,-174.6 260.13,-181.6"/>
</g>
<!-- Node5 -->
<g id="node5" class="node">
<title>Node5</title>
<g id="a_node5"><a xlink:href="quickjs_8h.html#afaa20c47565bc704c6c85f3d77254e7d" target="_top" xlink:title=" ">
<polygon fill="none" stroke="black" points="563.5,-168.6 563.5,-187.6 642.5,-187.6 642.5,-168.6 563.5,-168.6"/>
<text text-anchor="middle" x="603" y="-175.6" font-family="Helvetica,sans-Serif" font-size="10.00">JS_FreeValue</text>
</a>
</g>
</g>
<!-- Node2&#45;&gt;Node5 -->
<g id="edge4" class="edge">
<title>Node2&#45;&gt;Node5</title>
<path fill="none" stroke="midnightblue" d="M199.21,-187.6C214.01,-191.37 231.74,-195.24 248,-197.1 361.92,-210.12 391.88,-208.28 506,-197.1 521.52,-195.57 538.26,-192.7 553.34,-189.64"/>
<polygon fill="midnightblue" stroke="midnightblue" points="554.42,-192.99 563.49,-187.5 552.98,-186.14 554.42,-192.99"/>
</g>
<!-- Node4 -->
<g id="node4" class="node">
<title>Node4</title>
<g id="a_node4"><a xlink:href="quickjs_8c.html#a69e19dda8a93d613203e0baa06f0ed8d" target="_top" xlink:title=" ">
<polygon fill="none" stroke="black" points="411.5,-168.6 411.5,-187.6 473.5,-187.6 473.5,-168.6 411.5,-168.6"/>
<text text-anchor="middle" x="442.5" y="-175.6" font-family="Helvetica,sans-Serif" font-size="10.00">js_free_rt</text>
</a>
</g>
</g>
<!-- Node3&#45;&gt;Node4 -->
<g id="edge3" class="edge">
<title>Node3&#45;&gt;Node4</title>
<path fill="none" stroke="midnightblue" d="M320.77,-178.1C342.66,-178.1 375.3,-178.1 401.12,-178.1"/>
<polygon fill="midnightblue" stroke="midnightblue" points="401.36,-181.6 411.36,-178.1 401.36,-174.6 401.36,-181.6"/>
</g>
<!-- Node6 -->
<g id="node6" class="node">
<title>Node6</title>
<g id="a_node6"><a xlink:href="quickjs_8c.html#aa059f309c30fd5166d16c82a97973146" target="_top" xlink:title=" ">
<polygon fill="none" stroke="red" points="700,-168.6 700,-187.6 789,-187.6 789,-168.6 700,-168.6"/>
<text text-anchor="middle" x="744.5" y="-175.6" font-family="Helvetica,sans-Serif" font-size="10.00">__JS_FreeValue</text>
</a>
</g>
</g>
<!-- Node5&#45;&gt;Node6 -->
<g id="edge5" class="edge">
<title>Node5&#45;&gt;Node6</title>
<path fill="none" stroke="midnightblue" d="M642.86,-178.1C657.41,-178.1 674.2,-178.1 689.86,-178.1"/>
<polygon fill="midnightblue" stroke="midnightblue" points="689.94,-181.6 699.94,-178.1 689.94,-174.6 689.94,-181.6"/>
</g>
<!-- Node43 -->
<g id="node9" class="node">
<title>Node43</title>
<g id="a_node9"><a xlink:href="quickjs_8h.html#a89b7c8686c7eee70b86be722ee4730ad" target="_top" xlink:title=" ">
<polygon fill="none" stroke="black" points="251,-54.6 251,-73.6 340,-73.6 340,-54.6 251,-54.6"/>
<text text-anchor="middle" x="295.5" y="-61.6" font-family="Helvetica,sans-Serif" font-size="10.00">JS_GetProperty</text>
</a>
</g>
</g>
<!-- Node42&#45;&gt;Node43 -->
<g id="edge8" class="edge">
<title>Node42&#45;&gt;Node43</title>
<path fill="none" stroke="midnightblue" d="M212.03,-64.1C221.34,-64.1 231.2,-64.1 240.75,-64.1"/>
<polygon fill="midnightblue" stroke="midnightblue" points="240.94,-67.6 250.94,-64.1 240.94,-60.6 240.94,-67.6"/>
</g>
<!-- Node42&#45;&gt;Node52 -->
<g id="edge13" class="edge">
<title>Node42&#45;&gt;Node52</title>
<path fill="none" stroke="midnightblue" d="M198.43,-54.51C214.71,-49.69 234.64,-43.8 252.12,-38.63"/>
<polygon fill="midnightblue" stroke="midnightblue" points="253.49,-41.87 262.08,-35.68 251.5,-35.16 253.49,-41.87"/>
</g>
<!-- Node426 -->
<g id="node13" class="node">
<title>Node426</title>
<g id="a_node13"><a xlink:href="quickjs_8c.html#abb4af1ff2252e70ad0e5a9c25550f548" target="_top" xlink:title=" ">
<polygon fill="none" stroke="red" points="248,-92.6 248,-111.6 343,-111.6 343,-92.6 248,-92.6"/>
<text text-anchor="middle" x="295.5" y="-99.6" font-family="Helvetica,sans-Serif" font-size="10.00">JS_ToUint32Free</text>
</a>
</g>
</g>
<!-- Node42&#45;&gt;Node426 -->
<g id="edge14" class="edge">
<title>Node42&#45;&gt;Node426</title>
<path fill="none" stroke="midnightblue" d="M198.43,-73.68C214.71,-78.5 234.64,-84.39 252.12,-89.56"/>
<polygon fill="midnightblue" stroke="midnightblue" points="251.5,-93.03 262.08,-92.51 253.49,-86.32 251.5,-93.03"/>
</g>
<!-- Node44 -->
<g id="node10" class="node">
<title>Node44</title>
<g id="a_node10"><a xlink:href="quickjs_8c.html#a5762c57ae0c9937e986040c01222833a" target="_top" xlink:title=" ">
<polygon fill="none" stroke="red" points="379,-73.6 379,-92.6 506,-92.6 506,-73.6 379,-73.6"/>
<text text-anchor="middle" x="442.5" y="-80.6" font-family="Helvetica,sans-Serif" font-size="10.00">JS_GetPropertyInternal</text>
</a>
</g>
</g>
<!-- Node43&#45;&gt;Node44 -->
<g id="edge9" class="edge">
<title>Node43&#45;&gt;Node44</title>
<path fill="none" stroke="midnightblue" d="M340,-69.8C349.11,-70.99 358.94,-72.28 368.77,-73.57"/>
<polygon fill="midnightblue" stroke="midnightblue" points="368.63,-77.08 379,-74.91 369.54,-70.14 368.63,-77.08"/>
</g>
<!-- Node44&#45;&gt;Node5 -->
<g id="edge11" class="edge">
<title>Node44&#45;&gt;Node5</title>
<path fill="none" stroke="midnightblue" d="M459.57,-92.73C487.22,-109.3 543.99,-143.32 576.89,-163.05"/>
<polygon fill="midnightblue" stroke="midnightblue" points="575.51,-166.3 585.89,-168.44 579.11,-160.29 575.51,-166.3"/>
</g>
<!-- Node44&#45;&gt;Node41 -->
<g id="edge10" class="edge">
<title>Node44&#45;&gt;Node41</title>
<path fill="none" stroke="midnightblue" d="M506.14,-90.6C522.17,-92.53 539.15,-94.56 554.29,-96.38"/>
<polygon fill="midnightblue" stroke="midnightblue" points="554.1,-99.88 564.45,-97.59 554.94,-92.93 554.1,-99.88"/>
</g>
<!-- Node44&#45;&gt;Node262 -->
<g id="edge12" class="edge">
<title>Node44&#45;&gt;Node262</title>
<path fill="none" stroke="midnightblue" d="M470.03,-73.55C496.32,-64.1 536.77,-49.55 565.95,-39.06"/>
<polygon fill="midnightblue" stroke="midnightblue" points="567.16,-42.34 575.38,-35.67 564.79,-35.76 567.16,-42.34"/>
</g>
</g>
</svg>
        <g id="navigator" transform="translate(0 0)" fill="#404254">
                <rect fill="#f2f5e9" fill-opacity="0.5" stroke="#606060" stroke-width=".5" x="0" y="0" width="60" height="60"/>
                <use id="zoomplus" xlink:href="#zoomPlus" x="17" y="9" onmousedown="handleZoom(evt,'in')"/>
                <use id="zoomminus" xlink:href="#zoomMin" x="42" y="9" onmousedown="handleZoom(evt,'out')"/>
                <use id="reset" xlink:href="#resetDef" x="30" y="36" onmousedown="handleReset()"/>
                <g id="arrowUp" xlink:href="#dirArrow" transform="translate(30 24)" onmousedown="handlePan(0,-1)">
                  <use xlink:href="#rim" fill="#404040">
                        <set attributeName="fill" to="#808080" begin="arrowUp.mouseover" end="arrowUp.mouseout"/>
                  </use>
                  <path fill="none" stroke="white" stroke-width="1.5" d="M0,-3.0v7 M-2.5,-0.5L0,-3.0L2.5,-0.5"/>
                </g>
                <g id="arrowRight" xlink:href="#dirArrow" transform="rotate(90) translate(36 -43)" onmousedown="handlePan(1,0)">
                  <use xlink:href="#rim" fill="#404040">
                        <set attributeName="fill" to="#808080" begin="arrowRight.mouseover" end="arrowRight.mouseout"/>
                  </use>
                  <path fill="none" stroke="white" stroke-width="1.5" d="M0,-3.0v7 M-2.5,-0.5L0,-3.0L2.5,-0.5"/>
                </g>
                <g id="arrowDown" xlink:href="#dirArrow" transform="rotate(180) translate(-30 -48)" onmousedown="handlePan(0,1)">
                  <use xlink:href="#rim" fill="#404040">
                        <set attributeName="fill" to="#808080" begin="arrowDown.mouseover" end="arrowDown.mouseout"/>
                  </use>
                  <path fill="none" stroke="white" stroke-width="1.5" d="M0,-3.0v7 M-2.5,-0.5L0,-3.0L2.5,-0.5"/>
                </g>
                <g id="arrowLeft" xlink:href="#dirArrow" transform="rotate(270) translate(-36 17)" onmousedown="handlePan(-1,0)">
                  <use xlink:href="#rim" fill="#404040">
                        <set attributeName="fill" to="#808080" begin="arrowLeft.mouseover" end="arrowLeft.mouseout"/>
                  </use>
                  <path fill="none" stroke="white" stroke-width="1.5" d="M0,-3.0v7 M-2.5,-0.5L0,-3.0L2.5,-0.5"/>
                </g>
        </g>
        <svg viewBox="0 0 15 15" width="100%" height="30px" preserveAspectRatio="xMaxYMin meet">
         <g id="arrow_out" transform="scale(0.3 0.3)">
          <a xlink:href="quickjs_8c_a4956f45ffd2849b96dc051277264f87a_cgraph_org.svg" target="_base">
           <rect id="button" ry="5" rx="5" y="6" x="6" height="38" width="38"
                fill="#f2f5e9" fill-opacity="0.5" stroke="#606060" stroke-width="1.0"/>
           <path id="arrow"
             d="M 11.500037,31.436501 C 11.940474,20.09759 22.043105,11.32322 32.158766,21.979434 L 37.068811,17.246167 C 37.068811,17.246167 37.088388,32 37.088388,32 L 22.160133,31.978069 C 22.160133,31.978069 26.997745,27.140456 26.997745,27.140456 C 18.528582,18.264221 13.291696,25.230495 11.500037,31.436501 z"
             style="fill:#404040;"/>
          </a>
         </g>
        </svg>
</svg>
