<?xml version="1.0" encoding="UTF-8" standalone="no"?>
<!DOCTYPE svg PUBLIC "-//W3C//DTD SVG 1.1//EN"
 "http://www.w3.org/Graphics/SVG/1.1/DTD/svg11.dtd">
<!-- Generated by graphviz version 2.43.0 (0)
 -->
<!-- Title: js_parse_expr_paren Pages: 1 -->
<!--zoomable 256 -->
<svg id="main" version="1.1" xmlns="http://www.w3.org/2000/svg" xmlns:xlink="http://www.w3.org/1999/xlink" xml:space="preserve" onload="init(evt)">
<style type="text/css"><![CDATA[
.edge:hover path { stroke: red; }
.edge:hover polygon { stroke: red; fill: red; }
]]></style>
<script type="text/javascript"><![CDATA[
var edges = document.getElementsByTagName('g');
if (edges && edges.length) {
  for (var i=0;i<edges.length;i++) {
    if (edges[i].id.substr(0,4)=='edge') {
      edges[i].setAttribute('class','edge');
    }
  }
}
]]></script>
        <defs>
                <circle id="rim" cx="0" cy="0" r="7"/>
                <circle id="rim2" cx="0" cy="0" r="3.5"/>
                <g id="zoomPlus">
                        <use xlink:href="#rim" fill="#404040">
                                <set attributeName="fill" to="#808080" begin="zoomplus.mouseover" end="zoomplus.mouseout"/>
                        </use>
                        <path d="M-4,0h8M0,-4v8" fill="none" stroke="white" stroke-width="1.5" pointer-events="none"/>
                </g>
                <g id="zoomMin">
                        <use xlink:href="#rim" fill="#404040">
                                <set attributeName="fill" to="#808080" begin="zoomminus.mouseover" end="zoomminus.mouseout"/>
                        </use>
                        <path d="M-4,0h8" fill="none" stroke="white" stroke-width="1.5" pointer-events="none"/>
                </g>
                <g id="dirArrow">
                        <path fill="none" stroke="white" stroke-width="1.5" d="M0,-3.0v7 M-2.5,-0.5L0,-3.0L2.5,-0.5"/>
                </g>
               <g id="resetDef">
                       <use xlink:href="#rim2" fill="#404040">
                               <set attributeName="fill" to="#808080" begin="reset.mouseover" end="reset.mouseout"/>
                       </use>
               </g>
        </defs>

<script type="text/javascript">
var viewWidth = 879;
var viewHeight = 256;
var sectionId = 'dynsection-1052';
</script>
<script xlink:href="svgpan.js"/>
<svg id="graph" class="graph">
<g id="viewport">
<title>js_parse_expr_paren</title>
<!-- Node1 -->
<g id="node1" class="node">
<title>Node1</title>
<g id="a_node1"><a xlink:title=" ">
<polygon fill="#bfbfbf" stroke="black" points="754,-40.5 754,-59.5 871,-59.5 871,-40.5 754,-40.5"/>
<text text-anchor="middle" x="812.5" y="-47.5" font-family="Helvetica,sans-Serif" font-size="10.00">js_parse_expr_paren</text>
</a>
</g>
</g>
<!-- Node2 -->
<g id="node2" class="node">
<title>Node2</title>
<g id="a_node2"><a xlink:href="quickjs_8c.html#a840642c87c5a82d4cc68333376a3b6de" target="_top" xlink:title=" ">
<polygon fill="none" stroke="black" points="596,-90.5 596,-109.5 718,-109.5 718,-90.5 596,-90.5"/>
<text text-anchor="middle" x="657" y="-97.5" font-family="Helvetica,sans-Serif" font-size="10.00">js_parse_postfix_expr</text>
</a>
</g>
</g>
<!-- Node1&#45;&gt;Node2 -->
<g id="edge1" class="edge">
<title>Node1&#45;&gt;Node2</title>
<path fill="none" stroke="midnightblue" d="M772.55,-62.69C746.06,-71.32 711.57,-82.55 687.39,-90.43"/>
<polygon fill="midnightblue" stroke="midnightblue" points="773.84,-65.95 782.27,-59.52 771.67,-59.29 773.84,-65.95"/>
</g>
<!-- Node11 -->
<g id="node5" class="node">
<title>Node11</title>
<g id="a_node5"><a xlink:href="quickjs_8c.html#a9d844c16dcc71701436848074337d32c" target="_top" xlink:title=" ">
<polygon fill="none" stroke="red" points="0,-48 0,-78 113,-78 113,-48 0,-48"/>
<text text-anchor="start" x="8" y="-66" font-family="Helvetica,sans-Serif" font-size="10.00">js_parse_statement</text>
<text text-anchor="middle" x="56.5" y="-55" font-family="Helvetica,sans-Serif" font-size="10.00">_or_decl</text>
</a>
</g>
</g>
<!-- Node1&#45;&gt;Node11 -->
<g id="edge21" class="edge">
<title>Node1&#45;&gt;Node11</title>
<path fill="none" stroke="midnightblue" d="M766.97,-38C708.07,-23.21 600.79,0 507.5,0 507.5,0 507.5,0 352.5,0 261.11,0 157.25,-29.27 100.37,-47.91"/>
<polygon fill="midnightblue" stroke="midnightblue" points="766.14,-41.4 776.7,-40.48 767.87,-34.62 766.14,-41.4"/>
</g>
<!-- Node2&#45;&gt;Node2 -->
<g id="edge14" class="edge">
<title>Node2&#45;&gt;Node2</title>
<path fill="none" stroke="midnightblue" d="M685,-118.65C683.83,-123.94 674.5,-128 657,-128 630.34,-128 622.63,-118.57 633.88,-109.76"/>
<polygon fill="midnightblue" stroke="midnightblue" points="688,-116.84 680.12,-109.76 681.86,-120.21 688,-116.84"/>
</g>
<!-- Node3 -->
<g id="node3" class="node">
<title>Node3</title>
<g id="a_node3"><a xlink:href="quickjs_8c.html#a12b48ce2b1f247b494fdde07dbe7f232" target="_top" xlink:title=" ">
<polygon fill="none" stroke="black" points="453,-85 453,-115 560,-115 560,-85 453,-85"/>
<text text-anchor="start" x="461" y="-103" font-family="Helvetica,sans-Serif" font-size="10.00">js_parse_left_hand</text>
<text text-anchor="middle" x="506.5" y="-92" font-family="Helvetica,sans-Serif" font-size="10.00">_side_expr</text>
</a>
</g>
</g>
<!-- Node2&#45;&gt;Node3 -->
<g id="edge2" class="edge">
<title>Node2&#45;&gt;Node3</title>
<path fill="none" stroke="midnightblue" d="M585.34,-100C576.88,-100 568.36,-100 560.22,-100"/>
<polygon fill="midnightblue" stroke="midnightblue" points="585.6,-103.5 595.6,-100 585.6,-96.5 585.6,-103.5"/>
</g>
<!-- Node24 -->
<g id="node8" class="node">
<title>Node24</title>
<g id="a_node8"><a xlink:href="quickjs_8c.html#a9f26c765171d977db1796791f035f1f9" target="_top" xlink:title=" ">
<polygon fill="none" stroke="black" points="461.5,-200.5 461.5,-219.5 551.5,-219.5 551.5,-200.5 461.5,-200.5"/>
<text text-anchor="middle" x="506.5" y="-207.5" font-family="Helvetica,sans-Serif" font-size="10.00">js_parse_unary</text>
</a>
</g>
</g>
<!-- Node2&#45;&gt;Node24 -->
<g id="edge15" class="edge">
<title>Node2&#45;&gt;Node24</title>
<path fill="none" stroke="midnightblue" d="M635.04,-115.52C603.88,-138.61 546.23,-181.31 520.49,-200.37"/>
<polygon fill="midnightblue" stroke="midnightblue" points="637.13,-118.33 643.08,-109.57 632.96,-112.71 637.13,-118.33"/>
</g>
<!-- Node4 -->
<g id="node4" class="node">
<title>Node4</title>
<g id="a_node4"><a xlink:href="quickjs_8c.html#a00eb789430243c24dab4a63ad6a79653" target="_top" xlink:title=" ">
<polygon fill="none" stroke="red" points="310,-134.5 310,-153.5 397,-153.5 397,-134.5 310,-134.5"/>
<text text-anchor="middle" x="353.5" y="-141.5" font-family="Helvetica,sans-Serif" font-size="10.00">js_parse_class</text>
</a>
</g>
</g>
<!-- Node3&#45;&gt;Node4 -->
<g id="edge3" class="edge">
<title>Node3&#45;&gt;Node4</title>
<path fill="none" stroke="midnightblue" d="M444.23,-117.85C424.78,-123.52 404.02,-129.57 387.37,-134.42"/>
<polygon fill="midnightblue" stroke="midnightblue" points="445.34,-121.18 453.96,-115.02 443.38,-114.46 445.34,-121.18"/>
</g>
<!-- Node22 -->
<g id="node6" class="node">
<title>Node22</title>
<g id="a_node6"><a xlink:href="quickjs_8c.html#a26be546cf89c4580ba9020e8fc43a759" target="_top" xlink:title=" ">
<polygon fill="none" stroke="red" points="290,-29 290,-59 417,-59 417,-29 290,-29"/>
<text text-anchor="start" x="298" y="-47" font-family="Helvetica,sans-Serif" font-size="10.00">js_parse_destructuring</text>
<text text-anchor="middle" x="353.5" y="-36" font-family="Helvetica,sans-Serif" font-size="10.00">_element</text>
</a>
</g>
</g>
<!-- Node3&#45;&gt;Node22 -->
<g id="edge7" class="edge">
<title>Node3&#45;&gt;Node22</title>
<path fill="none" stroke="midnightblue" d="M455.63,-81.5C435.98,-74.22 413.71,-65.96 395.08,-59.05"/>
<polygon fill="midnightblue" stroke="midnightblue" points="454.44,-84.8 465.03,-84.99 456.88,-78.23 454.44,-84.8"/>
</g>
<!-- Node14 -->
<g id="node7" class="node">
<title>Node14</title>
<g id="a_node7"><a xlink:href="quickjs_8c.html#ac188b916dd086803591a67de7e7a85f6" target="_top" xlink:title=" ">
<polygon fill="none" stroke="black" points="149,-72.5 149,-91.5 254,-91.5 254,-72.5 149,-72.5"/>
<text text-anchor="middle" x="201.5" y="-79.5" font-family="Helvetica,sans-Serif" font-size="10.00">js_parse_for_in_of</text>
</a>
</g>
</g>
<!-- Node3&#45;&gt;Node14 -->
<g id="edge13" class="edge">
<title>Node3&#45;&gt;Node14</title>
<path fill="none" stroke="midnightblue" d="M442.6,-96.26C386.8,-92.95 306.28,-88.17 254.17,-85.07"/>
<polygon fill="midnightblue" stroke="midnightblue" points="442.53,-99.77 452.72,-96.86 442.95,-92.78 442.53,-99.77"/>
</g>
<!-- Node4&#45;&gt;Node2 -->
<g id="edge4" class="edge">
<title>Node4&#45;&gt;Node2</title>
<path fill="none" stroke="midnightblue" d="M407.45,-141.01C449.12,-138.13 508.55,-132.88 560,-124 581.16,-120.35 604.55,-114.54 622.94,-109.55"/>
<polygon fill="midnightblue" stroke="midnightblue" points="407,-137.53 397.25,-141.69 407.46,-144.51 407,-137.53"/>
</g>
<!-- Node4&#45;&gt;Node11 -->
<g id="edge5" class="edge">
<title>Node4&#45;&gt;Node11</title>
<path fill="none" stroke="midnightblue" d="M299.93,-135.66C258.43,-128.41 199.34,-116.62 149,-101 128.79,-94.73 106.88,-85.71 89.57,-78.03"/>
<polygon fill="midnightblue" stroke="midnightblue" points="299.37,-139.11 309.82,-137.36 300.56,-132.21 299.37,-139.11"/>
</g>
<!-- Node11&#45;&gt;Node11 -->
<g id="edge6" class="edge">
<title>Node11&#45;&gt;Node11</title>
<path fill="none" stroke="midnightblue" d="M82.09,-88.46C78.91,-93.18 70.38,-96.5 56.5,-96.5 33.72,-96.5 25.35,-87.56 31.41,-78.16"/>
<polygon fill="midnightblue" stroke="midnightblue" points="85.57,-87.98 81.59,-78.16 78.58,-88.31 85.57,-87.98"/>
</g>
<!-- Node22&#45;&gt;Node2 -->
<g id="edge11" class="edge">
<title>Node22&#45;&gt;Node2</title>
<path fill="none" stroke="midnightblue" d="M427.37,-53.09C466.8,-58.49 516.27,-66.03 560,-75 581.09,-79.32 604.47,-85.39 622.88,-90.46"/>
<polygon fill="midnightblue" stroke="midnightblue" points="427.68,-49.61 417.3,-51.73 426.75,-56.54 427.68,-49.61"/>
</g>
<!-- Node22&#45;&gt;Node11 -->
<g id="edge12" class="edge">
<title>Node22&#45;&gt;Node11</title>
<path fill="none" stroke="midnightblue" d="M279.86,-48.68C228.33,-52 160.21,-56.38 113.01,-59.42"/>
<polygon fill="midnightblue" stroke="midnightblue" points="280.18,-52.17 289.94,-48.03 279.73,-45.18 280.18,-52.17"/>
</g>
<!-- Node22&#45;&gt;Node22 -->
<g id="edge8" class="edge">
<title>Node22&#45;&gt;Node22</title>
<path fill="none" stroke="midnightblue" d="M380.51,-69.46C377.16,-74.18 368.15,-77.5 353.5,-77.5 329.45,-77.5 320.62,-68.56 327.01,-59.16"/>
<polygon fill="midnightblue" stroke="midnightblue" points="383.99,-68.97 379.99,-59.16 377,-69.32 383.99,-68.97"/>
</g>
<!-- Node22&#45;&gt;Node14 -->
<g id="edge9" class="edge">
<title>Node22&#45;&gt;Node14</title>
<path fill="none" stroke="midnightblue" d="M283.5,-61.48C268.6,-65.25 253.39,-69.11 240.22,-72.44"/>
<polygon fill="midnightblue" stroke="midnightblue" points="284.38,-64.87 293.22,-59.02 282.66,-58.08 284.38,-64.87"/>
</g>
<!-- Node14&#45;&gt;Node11 -->
<g id="edge10" class="edge">
<title>Node14&#45;&gt;Node11</title>
<path fill="none" stroke="midnightblue" d="M138.73,-73.79C130.31,-72.67 121.71,-71.53 113.4,-70.43"/>
<polygon fill="midnightblue" stroke="midnightblue" points="138.5,-77.29 148.87,-75.14 139.42,-70.35 138.5,-77.29"/>
</g>
<!-- Node24&#45;&gt;Node24 -->
<g id="edge20" class="edge">
<title>Node24&#45;&gt;Node24</title>
<path fill="none" stroke="midnightblue" d="M534.5,-228.65C533.33,-233.94 524,-238 506.5,-238 479.84,-238 472.13,-228.57 483.38,-219.76"/>
<polygon fill="midnightblue" stroke="midnightblue" points="537.5,-226.84 529.62,-219.76 531.36,-230.21 537.5,-226.84"/>
</g>
<!-- Node25 -->
<g id="node9" class="node">
<title>Node25</title>
<g id="a_node9"><a xlink:href="quickjs_8c.html#a2ecfb6abb190101748202a8aa5821fba" target="_top" xlink:title=" ">
<polygon fill="none" stroke="black" points="307,-228.5 307,-247.5 400,-247.5 400,-228.5 307,-228.5"/>
<text text-anchor="middle" x="353.5" y="-235.5" font-family="Helvetica,sans-Serif" font-size="10.00">js_parse_delete</text>
</a>
</g>
</g>
<!-- Node24&#45;&gt;Node25 -->
<g id="edge16" class="edge">
<title>Node24&#45;&gt;Node25</title>
<path fill="none" stroke="midnightblue" d="M451.36,-213.54C426.48,-217.56 398.24,-223.26 378.69,-228.4"/>
<polygon fill="midnightblue" stroke="midnightblue" points="452.07,-216.97 461.42,-211.97 451,-210.05 452.07,-216.97"/>
</g>
<!-- Node26 -->
<g id="node10" class="node">
<title>Node26</title>
<g id="a_node10"><a xlink:href="quickjs_8c.html#ad70b14684de2ed3babfd7c2264249437" target="_top" xlink:title=" ">
<polygon fill="none" stroke="red" points="293.5,-172.5 293.5,-191.5 413.5,-191.5 413.5,-172.5 293.5,-172.5"/>
<text text-anchor="middle" x="353.5" y="-179.5" font-family="Helvetica,sans-Serif" font-size="10.00">js_parse_expr_binary</text>
</a>
</g>
</g>
<!-- Node24&#45;&gt;Node26 -->
<g id="edge18" class="edge">
<title>Node24&#45;&gt;Node26</title>
<path fill="none" stroke="midnightblue" d="M451.37,-199.96C436.54,-197.21 420.5,-194.24 405.83,-191.52"/>
<polygon fill="midnightblue" stroke="midnightblue" points="450.95,-203.44 461.42,-201.83 452.22,-196.56 450.95,-203.44"/>
</g>
<!-- Node25&#45;&gt;Node24 -->
<g id="edge17" class="edge">
<title>Node25&#45;&gt;Node24</title>
<path fill="none" stroke="midnightblue" d="M410.19,-234.21C434.8,-230.19 462.42,-224.58 481.57,-219.53"/>
<polygon fill="midnightblue" stroke="midnightblue" points="409.55,-230.77 400.22,-235.78 410.64,-237.68 409.55,-230.77"/>
</g>
<!-- Node26&#45;&gt;Node26 -->
<g id="edge19" class="edge">
<title>Node26&#45;&gt;Node26</title>
<path fill="none" stroke="midnightblue" d="M381.87,-200.65C380.69,-205.94 371.23,-210 353.5,-210 326.48,-210 318.68,-200.57 330.07,-191.76"/>
<polygon fill="midnightblue" stroke="midnightblue" points="384.84,-198.8 376.93,-191.76 378.73,-202.2 384.84,-198.8"/>
</g>
</g>
</svg>
        <g id="navigator" transform="translate(0 0)" fill="#404254">
                <rect fill="#f2f5e9" fill-opacity="0.5" stroke="#606060" stroke-width=".5" x="0" y="0" width="60" height="60"/>
                <use id="zoomplus" xlink:href="#zoomPlus" x="17" y="9" onmousedown="handleZoom(evt,'in')"/>
                <use id="zoomminus" xlink:href="#zoomMin" x="42" y="9" onmousedown="handleZoom(evt,'out')"/>
                <use id="reset" xlink:href="#resetDef" x="30" y="36" onmousedown="handleReset()"/>
                <g id="arrowUp" xlink:href="#dirArrow" transform="translate(30 24)" onmousedown="handlePan(0,-1)">
                  <use xlink:href="#rim" fill="#404040">
                        <set attributeName="fill" to="#808080" begin="arrowUp.mouseover" end="arrowUp.mouseout"/>
                  </use>
                  <path fill="none" stroke="white" stroke-width="1.5" d="M0,-3.0v7 M-2.5,-0.5L0,-3.0L2.5,-0.5"/>
                </g>
                <g id="arrowRight" xlink:href="#dirArrow" transform="rotate(90) translate(36 -43)" onmousedown="handlePan(1,0)">
                  <use xlink:href="#rim" fill="#404040">
                        <set attributeName="fill" to="#808080" begin="arrowRight.mouseover" end="arrowRight.mouseout"/>
                  </use>
                  <path fill="none" stroke="white" stroke-width="1.5" d="M0,-3.0v7 M-2.5,-0.5L0,-3.0L2.5,-0.5"/>
                </g>
                <g id="arrowDown" xlink:href="#dirArrow" transform="rotate(180) translate(-30 -48)" onmousedown="handlePan(0,1)">
                  <use xlink:href="#rim" fill="#404040">
                        <set attributeName="fill" to="#808080" begin="arrowDown.mouseover" end="arrowDown.mouseout"/>
                  </use>
                  <path fill="none" stroke="white" stroke-width="1.5" d="M0,-3.0v7 M-2.5,-0.5L0,-3.0L2.5,-0.5"/>
                </g>
                <g id="arrowLeft" xlink:href="#dirArrow" transform="rotate(270) translate(-36 17)" onmousedown="handlePan(-1,0)">
                  <use xlink:href="#rim" fill="#404040">
                        <set attributeName="fill" to="#808080" begin="arrowLeft.mouseover" end="arrowLeft.mouseout"/>
                  </use>
                  <path fill="none" stroke="white" stroke-width="1.5" d="M0,-3.0v7 M-2.5,-0.5L0,-3.0L2.5,-0.5"/>
                </g>
        </g>
        <svg viewBox="0 0 15 15" width="100%" height="30px" preserveAspectRatio="xMaxYMin meet">
         <g id="arrow_out" transform="scale(0.3 0.3)">
          <a xlink:href="quickjs_8c_afb5f2af95f877adc2bb9b9ec60d23759_icgraph_org.svg" target="_base">
           <rect id="button" ry="5" rx="5" y="6" x="6" height="38" width="38"
                fill="#f2f5e9" fill-opacity="0.5" stroke="#606060" stroke-width="1.0"/>
           <path id="arrow"
             d="M 11.500037,31.436501 C 11.940474,20.09759 22.043105,11.32322 32.158766,21.979434 L 37.068811,17.246167 C 37.068811,17.246167 37.088388,32 37.088388,32 L 22.160133,31.978069 C 22.160133,31.978069 26.997745,27.140456 26.997745,27.140456 C 18.528582,18.264221 13.291696,25.230495 11.500037,31.436501 z"
             style="fill:#404040;"/>
          </a>
         </g>
        </svg>
</svg>
