<?xml version="1.0" encoding="UTF-8" standalone="no"?>
<!DOCTYPE svg PUBLIC "-//W3C//DTD SVG 1.1//EN"
 "http://www.w3.org/Graphics/SVG/1.1/DTD/svg11.dtd">
<!-- Generated by graphviz version 2.43.0 (0)
 -->
<!-- Title: JS_ToNumeric Pages: 1 -->
<!--zoomable 294 -->
<svg id="main" version="1.1" xmlns="http://www.w3.org/2000/svg" xmlns:xlink="http://www.w3.org/1999/xlink" xml:space="preserve" onload="init(evt)">
<style type="text/css"><![CDATA[
.edge:hover path { stroke: red; }
.edge:hover polygon { stroke: red; fill: red; }
]]></style>
<script type="text/javascript"><![CDATA[
var edges = document.getElementsByTagName('g');
if (edges && edges.length) {
  for (var i=0;i<edges.length;i++) {
    if (edges[i].id.substr(0,4)=='edge') {
      edges[i].setAttribute('class','edge');
    }
  }
}
]]></script>
        <defs>
                <circle id="rim" cx="0" cy="0" r="7"/>
                <circle id="rim2" cx="0" cy="0" r="3.5"/>
                <g id="zoomPlus">
                        <use xlink:href="#rim" fill="#404040">
                                <set attributeName="fill" to="#808080" begin="zoomplus.mouseover" end="zoomplus.mouseout"/>
                        </use>
                        <path d="M-4,0h8M0,-4v8" fill="none" stroke="white" stroke-width="1.5" pointer-events="none"/>
                </g>
                <g id="zoomMin">
                        <use xlink:href="#rim" fill="#404040">
                                <set attributeName="fill" to="#808080" begin="zoomminus.mouseover" end="zoomminus.mouseout"/>
                        </use>
                        <path d="M-4,0h8" fill="none" stroke="white" stroke-width="1.5" pointer-events="none"/>
                </g>
                <g id="dirArrow">
                        <path fill="none" stroke="white" stroke-width="1.5" d="M0,-3.0v7 M-2.5,-0.5L0,-3.0L2.5,-0.5"/>
                </g>
               <g id="resetDef">
                       <use xlink:href="#rim2" fill="#404040">
                               <set attributeName="fill" to="#808080" begin="reset.mouseover" end="reset.mouseout"/>
                       </use>
               </g>
        </defs>

<script type="text/javascript">
var viewWidth = 655;
var viewHeight = 294;
var sectionId = 'dynsection-682';
</script>
<script xlink:href="svgpan.js"/>
<svg id="graph" class="graph">
<g id="viewport">
<title>JS_ToNumeric</title>
<!-- Node1 -->
<g id="node1" class="node">
<title>Node1</title>
<g id="a_node1"><a xlink:title=" ">
<polygon fill="#bfbfbf" stroke="black" points="0,-152.5 0,-171.5 83,-171.5 83,-152.5 0,-152.5"/>
<text text-anchor="middle" x="41.5" y="-159.5" font-family="Helvetica,sans-Serif" font-size="10.00">JS_ToNumeric</text>
</a>
</g>
</g>
<!-- Node2 -->
<g id="node2" class="node">
<title>Node2</title>
<g id="a_node2"><a xlink:href="quickjs_8h.html#a775522f2d084fc8fa0fcb33f390006b4" target="_top" xlink:title=" ">
<polygon fill="none" stroke="black" points="132.5,-171.5 132.5,-190.5 209.5,-190.5 209.5,-171.5 132.5,-171.5"/>
<text text-anchor="middle" x="171" y="-178.5" font-family="Helvetica,sans-Serif" font-size="10.00">JS_DupValue</text>
</a>
</g>
</g>
<!-- Node1&#45;&gt;Node2 -->
<g id="edge1" class="edge">
<title>Node1&#45;&gt;Node2</title>
<path fill="none" stroke="midnightblue" d="M83.19,-168.06C95.61,-169.91 109.38,-171.97 122.23,-173.88"/>
<polygon fill="midnightblue" stroke="midnightblue" points="121.88,-177.37 132.29,-175.38 122.92,-170.44 121.88,-177.37"/>
</g>
<!-- Node3 -->
<g id="node3" class="node">
<title>Node3</title>
<g id="a_node3"><a xlink:href="quickjs_8c.html#a95c291df13743182541d687be697e59d" target="_top" xlink:title=" ">
<polygon fill="none" stroke="black" points="119,-133.5 119,-152.5 223,-152.5 223,-133.5 119,-133.5"/>
<text text-anchor="middle" x="171" y="-140.5" font-family="Helvetica,sans-Serif" font-size="10.00">JS_ToNumericFree</text>
</a>
</g>
</g>
<!-- Node1&#45;&gt;Node3 -->
<g id="edge2" class="edge">
<title>Node1&#45;&gt;Node3</title>
<path fill="none" stroke="midnightblue" d="M83.19,-155.94C91.36,-154.72 100.12,-153.41 108.81,-152.12"/>
<polygon fill="midnightblue" stroke="midnightblue" points="109.57,-155.54 118.95,-150.61 108.54,-148.62 109.57,-155.54"/>
</g>
<!-- Node4 -->
<g id="node4" class="node">
<title>Node4</title>
<g id="a_node4"><a xlink:href="quickjs_8c.html#a0315f23b9804563f376c47edef2967fd" target="_top" xlink:title=" ">
<polygon fill="none" stroke="black" points="259,-133.5 259,-152.5 381,-152.5 381,-133.5 259,-133.5"/>
<text text-anchor="middle" x="320" y="-140.5" font-family="Helvetica,sans-Serif" font-size="10.00">JS_ToNumberHintFree</text>
</a>
</g>
</g>
<!-- Node3&#45;&gt;Node4 -->
<g id="edge3" class="edge">
<title>Node3&#45;&gt;Node4</title>
<path fill="none" stroke="midnightblue" d="M223,-143C231.35,-143 240.12,-143 248.83,-143"/>
<polygon fill="midnightblue" stroke="midnightblue" points="248.99,-146.5 258.99,-143 248.99,-139.5 248.99,-146.5"/>
</g>
<!-- Node5 -->
<g id="node5" class="node">
<title>Node5</title>
<g id="a_node5"><a xlink:href="quickjs_8c.html#a40bcef4994dba57dfb34b6eed66daef0" target="_top" xlink:title=" ">
<polygon fill="none" stroke="red" points="445.5,-266.5 445.5,-285.5 495.5,-285.5 495.5,-266.5 445.5,-266.5"/>
<text text-anchor="middle" x="470.5" y="-273.5" font-family="Helvetica,sans-Serif" font-size="10.00">js_atof</text>
</a>
</g>
</g>
<!-- Node4&#45;&gt;Node5 -->
<g id="edge4" class="edge">
<title>Node4&#45;&gt;Node5</title>
<path fill="none" stroke="midnightblue" d="M326.68,-152.73C339.84,-174.47 374.56,-227.39 417,-257 422.72,-260.99 429.36,-264.23 435.96,-266.84"/>
<polygon fill="midnightblue" stroke="midnightblue" points="434.9,-270.18 445.49,-270.21 437.23,-263.58 434.9,-270.18"/>
</g>
<!-- Node15 -->
<g id="node6" class="node">
<title>Node15</title>
<g id="a_node6"><a xlink:href="quickjs_8c.html#ae0bc4f65da64810facb2cb9e476eda2e" target="_top" xlink:title=" ">
<polygon fill="none" stroke="black" points="427,-228.5 427,-247.5 514,-247.5 514,-228.5 427,-228.5"/>
<text text-anchor="middle" x="470.5" y="-235.5" font-family="Helvetica,sans-Serif" font-size="10.00">JS_FreeCString</text>
</a>
</g>
</g>
<!-- Node4&#45;&gt;Node15 -->
<g id="edge5" class="edge">
<title>Node4&#45;&gt;Node15</title>
<path fill="none" stroke="midnightblue" d="M332.28,-152.56C349.69,-167.04 384.5,-194.84 417,-214 423.15,-217.63 429.94,-221.09 436.54,-224.21"/>
<polygon fill="midnightblue" stroke="midnightblue" points="435.42,-227.54 445.97,-228.49 438.32,-221.17 435.42,-227.54"/>
</g>
<!-- Node16 -->
<g id="node7" class="node">
<title>Node16</title>
<g id="a_node7"><a xlink:href="quickjs_8h.html#afaa20c47565bc704c6c85f3d77254e7d" target="_top" xlink:title=" ">
<polygon fill="none" stroke="red" points="564,-190.5 564,-209.5 643,-209.5 643,-190.5 564,-190.5"/>
<text text-anchor="middle" x="603.5" y="-197.5" font-family="Helvetica,sans-Serif" font-size="10.00">JS_FreeValue</text>
</a>
</g>
</g>
<!-- Node4&#45;&gt;Node16 -->
<g id="edge7" class="edge">
<title>Node4&#45;&gt;Node16</title>
<path fill="none" stroke="midnightblue" d="M340.7,-152.66C359.75,-161.54 389.66,-174.32 417,-181 462.56,-192.13 515.97,-196.74 553.74,-198.66"/>
<polygon fill="midnightblue" stroke="midnightblue" points="553.81,-202.16 563.97,-199.13 554.14,-195.17 553.81,-202.16"/>
</g>
<!-- Node53 -->
<g id="node8" class="node">
<title>Node53</title>
<g id="a_node8"><a xlink:href="quickjs_8h.html#ad80a83d73e9b7d872b88fbf2943aebe9" target="_top" xlink:title=" ">
<polygon fill="none" stroke="black" points="560,-95.5 560,-114.5 647,-114.5 647,-95.5 560,-95.5"/>
<text text-anchor="middle" x="603.5" y="-102.5" font-family="Helvetica,sans-Serif" font-size="10.00">JS_IsException</text>
</a>
</g>
</g>
<!-- Node4&#45;&gt;Node53 -->
<g id="edge8" class="edge">
<title>Node4&#45;&gt;Node53</title>
<path fill="none" stroke="midnightblue" d="M329.01,-133.37C344.09,-116.08 378.65,-80.34 417,-67 461.91,-51.37 477.65,-56.37 524,-67 543.68,-71.51 564.15,-81.63 579.25,-90.29"/>
<polygon fill="midnightblue" stroke="midnightblue" points="577.52,-93.34 587.91,-95.44 581.1,-87.32 577.52,-93.34"/>
</g>
<!-- Node54 -->
<g id="node9" class="node">
<title>Node54</title>
<g id="a_node9"><a xlink:href="quickjs_8h.html#a2050bc428da1c65ac7eb87c3fa3b0392" target="_top" xlink:title=" ">
<polygon fill="none" stroke="black" points="432,-114.5 432,-133.5 509,-133.5 509,-114.5 432,-114.5"/>
<text text-anchor="middle" x="470.5" y="-121.5" font-family="Helvetica,sans-Serif" font-size="10.00">JS_NewInt32</text>
</a>
</g>
</g>
<!-- Node4&#45;&gt;Node54 -->
<g id="edge9" class="edge">
<title>Node4&#45;&gt;Node54</title>
<path fill="none" stroke="midnightblue" d="M381.4,-135.27C394.83,-133.55 408.89,-131.75 421.74,-130.11"/>
<polygon fill="midnightblue" stroke="midnightblue" points="422.26,-133.57 431.74,-128.83 421.38,-126.63 422.26,-133.57"/>
</g>
<!-- Node55 -->
<g id="node10" class="node">
<title>Node55</title>
<g id="a_node10"><a xlink:href="quickjs_8h.html#a1e7f56471f8608df9405987087a56070" target="_top" xlink:title=" ">
<polygon fill="none" stroke="red" points="423.5,-76.5 423.5,-95.5 517.5,-95.5 517.5,-76.5 423.5,-76.5"/>
<text text-anchor="middle" x="470.5" y="-83.5" font-family="Helvetica,sans-Serif" font-size="10.00">JS_ToCStringLen</text>
</a>
</g>
</g>
<!-- Node4&#45;&gt;Node55 -->
<g id="edge10" class="edge">
<title>Node4&#45;&gt;Node55</title>
<path fill="none" stroke="midnightblue" d="M344.6,-133.43C363.98,-125.63 392.19,-114.4 417,-105 422.21,-103.03 427.73,-100.98 433.16,-98.99"/>
<polygon fill="midnightblue" stroke="midnightblue" points="434.53,-102.22 442.74,-95.51 432.14,-95.64 434.53,-102.22"/>
</g>
<!-- Node90 -->
<g id="node11" class="node">
<title>Node90</title>
<g id="a_node11"><a xlink:href="quickjs_8c.html#abac33881bb91f8c31106f616d81b67e8" target="_top" xlink:title=" ">
<polygon fill="none" stroke="red" points="417,-152.5 417,-171.5 524,-171.5 524,-152.5 417,-152.5"/>
<text text-anchor="middle" x="470.5" y="-159.5" font-family="Helvetica,sans-Serif" font-size="10.00">JS_ToPrimitiveFree</text>
</a>
</g>
</g>
<!-- Node4&#45;&gt;Node90 -->
<g id="edge11" class="edge">
<title>Node4&#45;&gt;Node90</title>
<path fill="none" stroke="midnightblue" d="M381.4,-150.73C389.74,-151.79 398.31,-152.89 406.69,-153.96"/>
<polygon fill="midnightblue" stroke="midnightblue" points="406.42,-157.46 416.78,-155.25 407.3,-150.51 406.42,-157.46"/>
</g>
<!-- Node435 -->
<g id="node12" class="node">
<title>Node435</title>
<g id="a_node12"><a xlink:href="quickjs_8c.html#a55c008c257c5802e77f5fec646e3ebf1" target="_top" xlink:title=" ">
<polygon fill="none" stroke="red" points="432.5,-0.5 432.5,-19.5 508.5,-19.5 508.5,-0.5 432.5,-0.5"/>
<text text-anchor="middle" x="470.5" y="-7.5" font-family="Helvetica,sans-Serif" font-size="10.00">skip_spaces</text>
</a>
</g>
</g>
<!-- Node4&#45;&gt;Node435 -->
<g id="edge14" class="edge">
<title>Node4&#45;&gt;Node435</title>
<path fill="none" stroke="midnightblue" d="M327.38,-133.33C341.41,-112.69 376.91,-63.77 417,-34 422.12,-30.2 427.94,-26.8 433.8,-23.84"/>
<polygon fill="midnightblue" stroke="midnightblue" points="435.36,-26.98 442.93,-19.57 432.39,-20.64 435.36,-26.98"/>
</g>
<!-- Node15&#45;&gt;Node16 -->
<g id="edge6" class="edge">
<title>Node15&#45;&gt;Node16</title>
<path fill="none" stroke="midnightblue" d="M504.56,-228.41C521.31,-223.55 541.86,-217.59 559.8,-212.39"/>
<polygon fill="midnightblue" stroke="midnightblue" points="560.82,-215.73 569.45,-209.59 558.87,-209.01 560.82,-215.73"/>
</g>
<!-- Node90&#45;&gt;Node16 -->
<g id="edge12" class="edge">
<title>Node90&#45;&gt;Node16</title>
<path fill="none" stroke="midnightblue" d="M504.56,-171.59C521.31,-176.45 541.86,-182.41 559.8,-187.61"/>
<polygon fill="midnightblue" stroke="midnightblue" points="558.87,-190.99 569.45,-190.41 560.82,-184.27 558.87,-190.99"/>
</g>
<!-- Node90&#45;&gt;Node53 -->
<g id="edge13" class="edge">
<title>Node90&#45;&gt;Node53</title>
<path fill="none" stroke="midnightblue" d="M499.5,-152.47C507.48,-149.59 516.14,-146.31 524,-143 541.17,-135.76 559.97,-126.7 574.86,-119.25"/>
<polygon fill="midnightblue" stroke="midnightblue" points="576.69,-122.25 584.03,-114.61 573.53,-116 576.69,-122.25"/>
</g>
</g>
</svg>
        <g id="navigator" transform="translate(0 0)" fill="#404254">
                <rect fill="#f2f5e9" fill-opacity="0.5" stroke="#606060" stroke-width=".5" x="0" y="0" width="60" height="60"/>
                <use id="zoomplus" xlink:href="#zoomPlus" x="17" y="9" onmousedown="handleZoom(evt,'in')"/>
                <use id="zoomminus" xlink:href="#zoomMin" x="42" y="9" onmousedown="handleZoom(evt,'out')"/>
                <use id="reset" xlink:href="#resetDef" x="30" y="36" onmousedown="handleReset()"/>
                <g id="arrowUp" xlink:href="#dirArrow" transform="translate(30 24)" onmousedown="handlePan(0,-1)">
                  <use xlink:href="#rim" fill="#404040">
                        <set attributeName="fill" to="#808080" begin="arrowUp.mouseover" end="arrowUp.mouseout"/>
                  </use>
                  <path fill="none" stroke="white" stroke-width="1.5" d="M0,-3.0v7 M-2.5,-0.5L0,-3.0L2.5,-0.5"/>
                </g>
                <g id="arrowRight" xlink:href="#dirArrow" transform="rotate(90) translate(36 -43)" onmousedown="handlePan(1,0)">
                  <use xlink:href="#rim" fill="#404040">
                        <set attributeName="fill" to="#808080" begin="arrowRight.mouseover" end="arrowRight.mouseout"/>
                  </use>
                  <path fill="none" stroke="white" stroke-width="1.5" d="M0,-3.0v7 M-2.5,-0.5L0,-3.0L2.5,-0.5"/>
                </g>
                <g id="arrowDown" xlink:href="#dirArrow" transform="rotate(180) translate(-30 -48)" onmousedown="handlePan(0,1)">
                  <use xlink:href="#rim" fill="#404040">
                        <set attributeName="fill" to="#808080" begin="arrowDown.mouseover" end="arrowDown.mouseout"/>
                  </use>
                  <path fill="none" stroke="white" stroke-width="1.5" d="M0,-3.0v7 M-2.5,-0.5L0,-3.0L2.5,-0.5"/>
                </g>
                <g id="arrowLeft" xlink:href="#dirArrow" transform="rotate(270) translate(-36 17)" onmousedown="handlePan(-1,0)">
                  <use xlink:href="#rim" fill="#404040">
                        <set attributeName="fill" to="#808080" begin="arrowLeft.mouseover" end="arrowLeft.mouseout"/>
                  </use>
                  <path fill="none" stroke="white" stroke-width="1.5" d="M0,-3.0v7 M-2.5,-0.5L0,-3.0L2.5,-0.5"/>
                </g>
        </g>
        <svg viewBox="0 0 15 15" width="100%" height="30px" preserveAspectRatio="xMaxYMin meet">
         <g id="arrow_out" transform="scale(0.3 0.3)">
          <a xlink:href="quickjs_8c_a3db848576f8ea57675df6ba68de8ebfc_cgraph_org.svg" target="_base">
           <rect id="button" ry="5" rx="5" y="6" x="6" height="38" width="38"
                fill="#f2f5e9" fill-opacity="0.5" stroke="#606060" stroke-width="1.0"/>
           <path id="arrow"
             d="M 11.500037,31.436501 C 11.940474,20.09759 22.043105,11.32322 32.158766,21.979434 L 37.068811,17.246167 C 37.068811,17.246167 37.088388,32 37.088388,32 L 22.160133,31.978069 C 22.160133,31.978069 26.997745,27.140456 26.997745,27.140456 C 18.528582,18.264221 13.291696,25.230495 11.500037,31.436501 z"
             style="fill:#404040;"/>
          </a>
         </g>
        </svg>
</svg>
