<?xml version="1.0" encoding="UTF-8" standalone="no"?>
<!DOCTYPE svg PUBLIC "-//W3C//DTD SVG 1.1//EN"
 "http://www.w3.org/Graphics/SVG/1.1/DTD/svg11.dtd">
<!-- Generated by graphviz version 2.43.0 (0)
 -->
<!-- Title: js_object_list_add Pages: 1 -->
<svg width="555pt" height="104pt"
 viewBox="0.00 0.00 555.00 104.00" xmlns="http://www.w3.org/2000/svg" xmlns:xlink="http://www.w3.org/1999/xlink">
<g id="graph0" class="graph" transform="scale(1 1) rotate(0) translate(4 100)">
<title>js_object_list_add</title>
<!-- Node1 -->
<g id="node1" class="node">
<title>Node1</title>
<g id="a_node1"><a xlink:title=" ">
<polygon fill="#bfbfbf" stroke="black" points="0,-38.5 0,-57.5 104,-57.5 104,-38.5 0,-38.5"/>
<text text-anchor="middle" x="52" y="-45.5" font-family="Helvetica,sans-Serif" font-size="10.00">js_object_list_add</text>
</a>
</g>
</g>
<!-- Node2 -->
<g id="node2" class="node">
<title>Node2</title>
<g id="a_node2"><a xlink:href="quickjs_8c.html#a707a8e97485085ccb9b9822fa2307f54" target="_top" xlink:title=" ">
<polygon fill="none" stroke="black" points="319,-76.5 319,-95.5 449,-95.5 449,-76.5 319,-76.5"/>
<text text-anchor="middle" x="384" y="-83.5" font-family="Helvetica,sans-Serif" font-size="10.00">js_object_list_get_hash</text>
</a>
</g>
</g>
<!-- Node1&#45;&gt;Node2 -->
<g id="edge1" class="edge">
<title>Node1&#45;&gt;Node2</title>
<path fill="none" stroke="midnightblue" d="M91.34,-57.56C106.42,-61.01 123.94,-64.63 140,-67 196.28,-75.31 260.46,-80.13 308.73,-82.83"/>
<polygon fill="midnightblue" stroke="midnightblue" points="308.6,-86.33 318.78,-83.38 308.98,-79.34 308.6,-86.33"/>
</g>
<!-- Node3 -->
<g id="node3" class="node">
<title>Node3</title>
<g id="a_node3"><a xlink:href="quickjs_8c.html#afeeae981762510796811e51355d56544" target="_top" xlink:title=" ">
<polygon fill="none" stroke="black" points="140,-38.5 140,-57.5 283,-57.5 283,-38.5 140,-38.5"/>
<text text-anchor="middle" x="211.5" y="-45.5" font-family="Helvetica,sans-Serif" font-size="10.00">js_object_list_resize_hash</text>
</a>
</g>
</g>
<!-- Node1&#45;&gt;Node3 -->
<g id="edge2" class="edge">
<title>Node1&#45;&gt;Node3</title>
<path fill="none" stroke="midnightblue" d="M104.14,-48C112.33,-48 120.99,-48 129.68,-48"/>
<polygon fill="midnightblue" stroke="midnightblue" points="129.87,-51.5 139.87,-48 129.87,-44.5 129.87,-51.5"/>
</g>
<!-- Node6 -->
<g id="node6" class="node">
<title>Node6</title>
<g id="a_node6"><a xlink:href="cutils_8h.html#a5a2cb266a87252bf4a7baaaaf9f59fb1" target="_top" xlink:title=" ">
<polygon fill="none" stroke="black" points="174.5,-0.5 174.5,-19.5 248.5,-19.5 248.5,-0.5 174.5,-0.5"/>
<text text-anchor="middle" x="211.5" y="-7.5" font-family="Helvetica,sans-Serif" font-size="10.00">max_uint32</text>
</a>
</g>
</g>
<!-- Node1&#45;&gt;Node6 -->
<g id="edge6" class="edge">
<title>Node1&#45;&gt;Node6</title>
<path fill="none" stroke="midnightblue" d="M92.74,-38.41C114.57,-33.14 141.75,-26.59 164.5,-21.1"/>
<polygon fill="midnightblue" stroke="midnightblue" points="165.37,-24.49 174.27,-18.74 163.73,-17.68 165.37,-24.49"/>
</g>
<!-- Node3&#45;&gt;Node2 -->
<g id="edge5" class="edge">
<title>Node3&#45;&gt;Node2</title>
<path fill="none" stroke="midnightblue" d="M255.52,-57.59C278.23,-62.65 306.27,-68.9 330.27,-74.25"/>
<polygon fill="midnightblue" stroke="midnightblue" points="329.76,-77.72 340.29,-76.48 331.29,-70.89 329.76,-77.72"/>
</g>
<!-- Node4 -->
<g id="node4" class="node">
<title>Node4</title>
<g id="a_node4"><a xlink:href="quickjs_8c.html#a80e54dcf9ac687d4ccc2f90273565f30" target="_top" xlink:title=" ">
<polygon fill="none" stroke="black" points="359,-38.5 359,-57.5 409,-57.5 409,-38.5 359,-38.5"/>
<text text-anchor="middle" x="384" y="-45.5" font-family="Helvetica,sans-Serif" font-size="10.00">js_free</text>
</a>
</g>
</g>
<!-- Node3&#45;&gt;Node4 -->
<g id="edge3" class="edge">
<title>Node3&#45;&gt;Node4</title>
<path fill="none" stroke="midnightblue" d="M283.33,-48C305.92,-48 329.9,-48 348.68,-48"/>
<polygon fill="midnightblue" stroke="midnightblue" points="348.81,-51.5 358.81,-48 348.81,-44.5 348.81,-51.5"/>
</g>
<!-- Node5 -->
<g id="node5" class="node">
<title>Node5</title>
<g id="a_node5"><a xlink:href="quickjs_8c.html#a69e19dda8a93d613203e0baa06f0ed8d" target="_top" xlink:title=" ">
<polygon fill="none" stroke="black" points="485,-38.5 485,-57.5 547,-57.5 547,-38.5 485,-38.5"/>
<text text-anchor="middle" x="516" y="-45.5" font-family="Helvetica,sans-Serif" font-size="10.00">js_free_rt</text>
</a>
</g>
</g>
<!-- Node4&#45;&gt;Node5 -->
<g id="edge4" class="edge">
<title>Node4&#45;&gt;Node5</title>
<path fill="none" stroke="midnightblue" d="M409.15,-48C427.45,-48 453.01,-48 474.43,-48"/>
<polygon fill="midnightblue" stroke="midnightblue" points="474.57,-51.5 484.57,-48 474.57,-44.5 474.57,-51.5"/>
</g>
</g>
</svg>
