<?xml version="1.0" encoding="UTF-8" standalone="no"?>
<!DOCTYPE svg PUBLIC "-//W3C//DTD SVG 1.1//EN"
 "http://www.w3.org/Graphics/SVG/1.1/DTD/svg11.dtd">
<!-- Generated by graphviz version 2.43.0 (0)
 -->
<!-- Title: JS_ReadObjectRec Pages: 1 -->
<svg width="636pt" height="750pt"
 viewBox="0.00 0.00 636.00 750.00" xmlns="http://www.w3.org/2000/svg" xmlns:xlink="http://www.w3.org/1999/xlink">
<g id="graph0" class="graph" transform="scale(1 1) rotate(0) translate(4 746)">
<title>JS_ReadObjectRec</title>
<!-- Node1 -->
<g id="node1" class="node">
<title>Node1</title>
<g id="a_node1"><a xlink:title=" ">
<polygon fill="#bfbfbf" stroke="black" points="0,-342.5 0,-361.5 105,-361.5 105,-342.5 0,-342.5"/>
<text text-anchor="middle" x="52.5" y="-349.5" font-family="Helvetica,sans-Serif" font-size="10.00">JS_ReadObjectRec</text>
</a>
</g>
</g>
<!-- Node2 -->
<g id="node2" class="node">
<title>Node2</title>
<g id="a_node2"><a xlink:href="quickjs_8h.html#a9bf98b18de88b4199910a43e933eb97d" target="_top" xlink:title=" ">
<polygon fill="none" stroke="black" points="163.5,-722.5 163.5,-741.5 263.5,-741.5 263.5,-722.5 163.5,-722.5"/>
<text text-anchor="middle" x="213.5" y="-729.5" font-family="Helvetica,sans-Serif" font-size="10.00">__JS_NewFloat64</text>
</a>
</g>
</g>
<!-- Node1&#45;&gt;Node2 -->
<g id="edge1" class="edge">
<title>Node1&#45;&gt;Node2</title>
<path fill="none" stroke="midnightblue" d="M54.53,-361.78C60.22,-414.08 89.48,-660.33 141,-713 144.72,-716.8 149.11,-719.88 153.86,-722.35"/>
<polygon fill="midnightblue" stroke="midnightblue" points="152.77,-725.69 163.34,-726.41 155.52,-719.26 152.77,-725.69"/>
</g>
<!-- Node3 -->
<g id="node3" class="node">
<title>Node3</title>
<g id="a_node3"><a xlink:href="quickjs_8c.html#a79e9250c5e2b097c9655cbc8a75ba923" target="_top" xlink:title=" ">
<polygon fill="none" stroke="black" points="360,-456.5 360,-475.5 447,-475.5 447,-456.5 360,-456.5"/>
<text text-anchor="middle" x="403.5" y="-463.5" font-family="Helvetica,sans-Serif" font-size="10.00">bc_get_leb128</text>
</a>
</g>
</g>
<!-- Node1&#45;&gt;Node3 -->
<g id="edge2" class="edge">
<title>Node1&#45;&gt;Node3</title>
<path fill="none" stroke="midnightblue" d="M72.98,-361.63C90.51,-370.06 117.09,-382.29 141,-391 213.33,-417.35 299.57,-440.55 352.68,-453.93"/>
<polygon fill="midnightblue" stroke="midnightblue" points="351.97,-457.36 362.52,-456.39 353.67,-450.57 351.97,-457.36"/>
</g>
<!-- Node6 -->
<g id="node6" class="node">
<title>Node6</title>
<g id="a_node6"><a xlink:href="quickjs_8c.html#acd5d73f58a821266896a76426d7c110e" target="_top" xlink:title=" ">
<polygon fill="none" stroke="black" points="167.5,-684.5 167.5,-703.5 259.5,-703.5 259.5,-684.5 167.5,-684.5"/>
<text text-anchor="middle" x="213.5" y="-691.5" font-family="Helvetica,sans-Serif" font-size="10.00">bc_get_sleb128</text>
</a>
</g>
</g>
<!-- Node1&#45;&gt;Node6 -->
<g id="edge5" class="edge">
<title>Node1&#45;&gt;Node6</title>
<path fill="none" stroke="midnightblue" d="M53.12,-361.58C51.97,-404.01 53.04,-577.04 141,-670 145.78,-675.05 151.65,-679.04 157.95,-682.18"/>
<polygon fill="midnightblue" stroke="midnightblue" points="156.85,-685.52 167.42,-686.22 159.59,-679.08 156.85,-685.52"/>
</g>
<!-- Node8 -->
<g id="node8" class="node">
<title>Node8</title>
<g id="a_node8"><a xlink:href="quickjs_8c.html#acde90ec09be2051ca056c973ac9c2a38" target="_top" xlink:title=" ">
<polygon fill="none" stroke="black" points="367.5,-380.5 367.5,-399.5 439.5,-399.5 439.5,-380.5 367.5,-380.5"/>
<text text-anchor="middle" x="403.5" y="-387.5" font-family="Helvetica,sans-Serif" font-size="10.00">bc_get_u64</text>
</a>
</g>
</g>
<!-- Node1&#45;&gt;Node8 -->
<g id="edge9" class="edge">
<title>Node1&#45;&gt;Node8</title>
<path fill="none" stroke="midnightblue" d="M91.62,-361.5C106.89,-364.99 124.69,-368.65 141,-371 216.24,-381.85 304.59,-386.63 356.93,-388.64"/>
<polygon fill="midnightblue" stroke="midnightblue" points="357.1,-392.15 367.22,-389.02 357.36,-385.15 357.1,-392.15"/>
</g>
<!-- Node10 -->
<g id="node10" class="node">
<title>Node10</title>
<g id="a_node10"><a xlink:href="quickjs_8c.html#a8ea895574dd7a1e1dc16c6fe2e84e129" target="_top" xlink:title=" ">
<polygon fill="none" stroke="black" points="370.5,-608.5 370.5,-627.5 436.5,-627.5 436.5,-608.5 370.5,-608.5"/>
<text text-anchor="middle" x="403.5" y="-615.5" font-family="Helvetica,sans-Serif" font-size="10.00">bc_get_u8</text>
</a>
</g>
</g>
<!-- Node1&#45;&gt;Node10 -->
<g id="edge12" class="edge">
<title>Node1&#45;&gt;Node10</title>
<path fill="none" stroke="midnightblue" d="M54.46,-361.73C58.3,-395.22 75.71,-506.62 141,-561 157.75,-574.95 290.4,-599.07 360.08,-610.96"/>
<polygon fill="midnightblue" stroke="midnightblue" points="359.84,-614.47 370.29,-612.69 361.01,-607.57 359.84,-614.47"/>
</g>
<!-- Node11 -->
<g id="node11" class="node">
<title>Node11</title>
<g id="a_node11"><a xlink:href="quickjs_8c.html#af23ec7c9970ceb4671c59da7abd4b078" target="_top" xlink:title=" ">
<polygon fill="none" stroke="black" points="145,-114.5 145,-133.5 282,-133.5 282,-114.5 145,-114.5"/>
<text text-anchor="middle" x="213.5" y="-121.5" font-family="Helvetica,sans-Serif" font-size="10.00">js_check_stack_overflow</text>
</a>
</g>
</g>
<!-- Node1&#45;&gt;Node11 -->
<g id="edge14" class="edge">
<title>Node1&#45;&gt;Node11</title>
<path fill="none" stroke="midnightblue" d="M54.55,-342.38C58.69,-309.24 76.96,-198.83 141,-143 142.95,-141.3 145.03,-139.75 147.22,-138.34"/>
<polygon fill="midnightblue" stroke="midnightblue" points="148.96,-141.38 156.09,-133.54 145.63,-135.22 148.96,-141.38"/>
</g>
<!-- Node13 -->
<g id="node13" class="node">
<title>Node13</title>
<g id="a_node13"><a xlink:href="quickjs_8h.html#a775522f2d084fc8fa0fcb33f390006b4" target="_top" xlink:title=" ">
<polygon fill="none" stroke="black" points="365,-646.5 365,-665.5 442,-665.5 442,-646.5 365,-646.5"/>
<text text-anchor="middle" x="403.5" y="-653.5" font-family="Helvetica,sans-Serif" font-size="10.00">JS_DupValue</text>
</a>
</g>
</g>
<!-- Node1&#45;&gt;Node13 -->
<g id="edge16" class="edge">
<title>Node1&#45;&gt;Node13</title>
<path fill="none" stroke="midnightblue" d="M52.98,-361.68C51.33,-402.93 50.93,-565.24 141,-637 172.89,-662.41 288.23,-661.56 354.59,-658.76"/>
<polygon fill="midnightblue" stroke="midnightblue" points="354.97,-662.25 364.8,-658.3 354.65,-655.25 354.97,-662.25"/>
</g>
<!-- Node14 -->
<g id="node14" class="node">
<title>Node14</title>
<g id="a_node14"><a xlink:href="quickjs_8h.html#a93abffa925714e249a6aa2f4ae7900f6" target="_top" xlink:title=" ">
<polygon fill="none" stroke="black" points="176.5,-76.5 176.5,-95.5 250.5,-95.5 250.5,-76.5 176.5,-76.5"/>
<text text-anchor="middle" x="213.5" y="-83.5" font-family="Helvetica,sans-Serif" font-size="10.00">JS_NewBool</text>
</a>
</g>
</g>
<!-- Node1&#45;&gt;Node14 -->
<g id="edge17" class="edge">
<title>Node1&#45;&gt;Node14</title>
<path fill="none" stroke="midnightblue" d="M53.85,-342.5C55.74,-305.89 67.6,-172.7 141,-105 148.15,-98.41 157.32,-94.05 166.7,-91.19"/>
<polygon fill="midnightblue" stroke="midnightblue" points="167.63,-94.56 176.46,-88.71 165.91,-87.78 167.63,-94.56"/>
</g>
<!-- Node15 -->
<g id="node15" class="node">
<title>Node15</title>
<g id="a_node15"><a xlink:href="quickjs_8h.html#a2050bc428da1c65ac7eb87c3fa3b0392" target="_top" xlink:title=" ">
<polygon fill="none" stroke="black" points="175,-38.5 175,-57.5 252,-57.5 252,-38.5 175,-38.5"/>
<text text-anchor="middle" x="213.5" y="-45.5" font-family="Helvetica,sans-Serif" font-size="10.00">JS_NewInt32</text>
</a>
</g>
</g>
<!-- Node1&#45;&gt;Node15 -->
<g id="edge18" class="edge">
<title>Node1&#45;&gt;Node15</title>
<path fill="none" stroke="midnightblue" d="M53.34,-342.47C53.21,-302.49 58.22,-146.68 141,-67 147.66,-60.59 156.23,-56.28 165.1,-53.4"/>
<polygon fill="midnightblue" stroke="midnightblue" points="166.02,-56.78 174.78,-50.8 164.21,-50.02 166.02,-56.78"/>
</g>
<!-- Node16 -->
<g id="node16" class="node">
<title>Node16</title>
<g id="a_node16"><a xlink:href="quickjs_8c.html#a18da561cb430d36d47200cd3ab394984" target="_top" xlink:title=" ">
<polygon fill="none" stroke="red" points="172.5,-228.5 172.5,-247.5 254.5,-247.5 254.5,-228.5 172.5,-228.5"/>
<text text-anchor="middle" x="213.5" y="-235.5" font-family="Helvetica,sans-Serif" font-size="10.00">JS_ReadArray</text>
</a>
</g>
</g>
<!-- Node1&#45;&gt;Node16 -->
<g id="edge19" class="edge">
<title>Node1&#45;&gt;Node16</title>
<path fill="none" stroke="midnightblue" d="M57.06,-342.23C67.63,-320.67 100.69,-272.33 141,-248 147.58,-244.03 154.98,-240.88 162.47,-238.49"/>
<polygon fill="midnightblue" stroke="midnightblue" points="163.58,-241.82 172.3,-235.8 161.73,-235.07 163.58,-241.82"/>
</g>
<!-- Node447 -->
<g id="node21" class="node">
<title>Node447</title>
<g id="a_node21"><a xlink:href="quickjs_8c.html#a1cd7ba0345848b691e0f644694fdb55d" target="_top" xlink:title=" ">
<polygon fill="none" stroke="red" points="158,-342.5 158,-361.5 269,-361.5 269,-342.5 158,-342.5"/>
<text text-anchor="middle" x="213.5" y="-349.5" font-family="Helvetica,sans-Serif" font-size="10.00">JS_ReadArrayBuffer</text>
</a>
</g>
</g>
<!-- Node1&#45;&gt;Node447 -->
<g id="edge27" class="edge">
<title>Node1&#45;&gt;Node447</title>
<path fill="none" stroke="midnightblue" d="M105.12,-352C118.69,-352 133.51,-352 147.68,-352"/>
<polygon fill="midnightblue" stroke="midnightblue" points="147.85,-355.5 157.85,-352 147.85,-348.5 147.85,-355.5"/>
</g>
<!-- Node451 -->
<g id="node22" class="node">
<title>Node451</title>
<g id="a_node22"><a xlink:href="quickjs_8c.html#a8fce6f70a6fc880eabcdb9883e3753f2" target="_top" xlink:title=" ">
<polygon fill="none" stroke="red" points="174,-266.5 174,-285.5 253,-285.5 253,-266.5 174,-266.5"/>
<text text-anchor="middle" x="213.5" y="-273.5" font-family="Helvetica,sans-Serif" font-size="10.00">JS_ReadDate</text>
</a>
</g>
</g>
<!-- Node1&#45;&gt;Node451 -->
<g id="edge32" class="edge">
<title>Node1&#45;&gt;Node451</title>
<path fill="none" stroke="midnightblue" d="M59.47,-342.42C73.1,-327.24 107.87,-300.74 141,-286 148.26,-282.77 156.19,-279.99 164.04,-277.76"/>
<polygon fill="midnightblue" stroke="midnightblue" points="165.06,-281.11 173.88,-275.24 163.32,-274.33 165.06,-281.11"/>
</g>
<!-- Node452 -->
<g id="node23" class="node">
<title>Node452</title>
<g id="a_node23"><a xlink:href="quickjs_8c.html#a367627778ac537f4bb1f0fd07a2dee1b" target="_top" xlink:title=" ">
<polygon fill="none" stroke="red" points="157,-532.5 157,-551.5 270,-551.5 270,-532.5 157,-532.5"/>
<text text-anchor="middle" x="213.5" y="-539.5" font-family="Helvetica,sans-Serif" font-size="10.00">JS_ReadFunctionTag</text>
</a>
</g>
</g>
<!-- Node1&#45;&gt;Node452 -->
<g id="edge36" class="edge">
<title>Node1&#45;&gt;Node452</title>
<path fill="none" stroke="midnightblue" d="M56.66,-361.82C64.64,-390.5 88.83,-471.92 141,-514 151.08,-522.13 164.3,-526.8 176.63,-530.03"/>
<polygon fill="midnightblue" stroke="midnightblue" points="176.15,-533.51 186.69,-532.44 177.78,-526.71 176.15,-533.51"/>
</g>
<!-- Node462 -->
<g id="node24" class="node">
<title>Node462</title>
<g id="a_node24"><a xlink:href="quickjs_8c.html#a21c7b14be807f7ce7f71c19e2e80380c" target="_top" xlink:title=" ">
<polygon fill="none" stroke="red" points="167.5,-608.5 167.5,-627.5 259.5,-627.5 259.5,-608.5 167.5,-608.5"/>
<text text-anchor="middle" x="213.5" y="-615.5" font-family="Helvetica,sans-Serif" font-size="10.00">JS_ReadModule</text>
</a>
</g>
</g>
<!-- Node1&#45;&gt;Node462 -->
<g id="edge40" class="edge">
<title>Node1&#45;&gt;Node462</title>
<path fill="none" stroke="midnightblue" d="M54.41,-361.74C57.86,-397.44 73.58,-519.12 141,-585 151.93,-595.68 167.75,-601.61 181.73,-605.75"/>
<polygon fill="midnightblue" stroke="midnightblue" points="180.91,-609.16 191.49,-608.5 182.81,-602.42 180.91,-609.16"/>
</g>
<!-- Node464 -->
<g id="node25" class="node">
<title>Node464</title>
<g id="a_node25"><a xlink:href="quickjs_8c.html#ad0e3230c3896c2048283a9302f184fb4" target="_top" xlink:title=" ">
<polygon fill="none" stroke="red" points="161.5,-190.5 161.5,-209.5 265.5,-209.5 265.5,-190.5 161.5,-190.5"/>
<text text-anchor="middle" x="213.5" y="-197.5" font-family="Helvetica,sans-Serif" font-size="10.00">JS_ReadObjectTag</text>
</a>
</g>
</g>
<!-- Node1&#45;&gt;Node464 -->
<g id="edge44" class="edge">
<title>Node1&#45;&gt;Node464</title>
<path fill="none" stroke="midnightblue" d="M55.69,-342.24C63.57,-315.59 92.56,-244.9 141,-210 144.31,-207.62 147.89,-205.54 151.63,-203.73"/>
<polygon fill="midnightblue" stroke="midnightblue" points="153.27,-206.84 161.19,-199.81 150.61,-200.37 153.27,-206.84"/>
</g>
<!-- Node465 -->
<g id="node26" class="node">
<title>Node465</title>
<g id="a_node26"><a xlink:href="quickjs_8c.html#aa329df3dbab623ec017b77cb77bcce2f" target="_top" xlink:title=" ">
<polygon fill="none" stroke="red" points="156.5,-152.5 156.5,-171.5 270.5,-171.5 270.5,-152.5 156.5,-152.5"/>
<text text-anchor="middle" x="213.5" y="-159.5" font-family="Helvetica,sans-Serif" font-size="10.00">JS_ReadObjectValue</text>
</a>
</g>
</g>
<!-- Node1&#45;&gt;Node465 -->
<g id="edge50" class="edge">
<title>Node1&#45;&gt;Node465</title>
<path fill="none" stroke="midnightblue" d="M54.82,-342.25C60.32,-311.24 83.9,-218.06 141,-172 143.01,-170.38 145.15,-168.89 147.38,-167.54"/>
<polygon fill="midnightblue" stroke="midnightblue" points="149.06,-170.61 156.38,-162.94 145.88,-164.37 149.06,-170.61"/>
</g>
<!-- Node466 -->
<g id="node27" class="node">
<title>Node466</title>
<g id="a_node27"><a xlink:href="quickjs_8c.html#a808ad95bb98b44a5a4fd6ac9af1b6d53" target="_top" xlink:title=" ">
<polygon fill="none" stroke="red" points="141,-304.5 141,-323.5 286,-323.5 286,-304.5 141,-304.5"/>
<text text-anchor="middle" x="213.5" y="-311.5" font-family="Helvetica,sans-Serif" font-size="10.00">JS_ReadSharedArrayBuffer</text>
</a>
</g>
</g>
<!-- Node1&#45;&gt;Node466 -->
<g id="edge54" class="edge">
<title>Node1&#45;&gt;Node466</title>
<path fill="none" stroke="midnightblue" d="M93.62,-342.41C114.6,-337.4 140.48,-331.21 162.73,-325.89"/>
<polygon fill="midnightblue" stroke="midnightblue" points="163.75,-329.25 172.67,-323.52 162.13,-322.44 163.75,-329.25"/>
</g>
<!-- Node467 -->
<g id="node28" class="node">
<title>Node467</title>
<g id="a_node28"><a xlink:href="quickjs_8c.html#a73a002c998fe7508eae9aa069fac802b" target="_top" xlink:title=" ">
<polygon fill="none" stroke="red" points="171.5,-456.5 171.5,-475.5 255.5,-475.5 255.5,-456.5 171.5,-456.5"/>
<text text-anchor="middle" x="213.5" y="-463.5" font-family="Helvetica,sans-Serif" font-size="10.00">JS_ReadString</text>
</a>
</g>
</g>
<!-- Node1&#45;&gt;Node467 -->
<g id="edge59" class="edge">
<title>Node1&#45;&gt;Node467</title>
<path fill="none" stroke="midnightblue" d="M60.32,-361.6C73.75,-379.82 105.4,-419.6 141,-442 147.93,-446.36 155.75,-450.03 163.6,-453.07"/>
<polygon fill="midnightblue" stroke="midnightblue" points="162.54,-456.41 173.14,-456.49 164.9,-449.82 162.54,-456.41"/>
</g>
<!-- Node468 -->
<g id="node29" class="node">
<title>Node468</title>
<g id="a_node29"><a xlink:href="quickjs_8c.html#a00910faacc776e3c2c225aa117aab450" target="_top" xlink:title=" ">
<polygon fill="none" stroke="red" points="158.5,-494.5 158.5,-513.5 268.5,-513.5 268.5,-494.5 158.5,-494.5"/>
<text text-anchor="middle" x="213.5" y="-501.5" font-family="Helvetica,sans-Serif" font-size="10.00">JS_ReadTypedArray</text>
</a>
</g>
</g>
<!-- Node1&#45;&gt;Node468 -->
<g id="edge62" class="edge">
<title>Node1&#45;&gt;Node468</title>
<path fill="none" stroke="midnightblue" d="M59.1,-361.76C70.25,-385.68 97.94,-444.98 141,-476 152.18,-484.06 166.55,-488.7 179.48,-492.03"/>
<polygon fill="midnightblue" stroke="midnightblue" points="178.89,-495.49 189.44,-494.47 180.56,-488.69 178.89,-495.49"/>
</g>
<!-- Node309 -->
<g id="node30" class="node">
<title>Node309</title>
<g id="a_node30"><a xlink:href="quickjs_8c.html#a8353f635fb8a20553c08db8cf38c17e0" target="_top" xlink:title=" ">
<polygon fill="none" stroke="red" points="148,-0.5 148,-19.5 279,-19.5 279,-0.5 148,-0.5"/>
<text text-anchor="middle" x="213.5" y="-7.5" font-family="Helvetica,sans-Serif" font-size="10.00">JS_ThrowStackOverflow</text>
</a>
</g>
</g>
<!-- Node1&#45;&gt;Node309 -->
<g id="edge67" class="edge">
<title>Node1&#45;&gt;Node309</title>
<path fill="none" stroke="midnightblue" d="M54.81,-342.29C61.61,-293.5 94.26,-75.51 141,-29 142.43,-27.57 143.96,-26.25 145.57,-25.02"/>
<polygon fill="midnightblue" stroke="midnightblue" points="147.53,-27.92 154.16,-19.66 143.82,-21.99 147.53,-27.92"/>
</g>
<!-- Node4 -->
<g id="node4" class="node">
<title>Node4</title>
<g id="a_node4"><a xlink:href="quickjs_8c.html#aec90fdacca60889202841e53258d6363" target="_top" xlink:title=" ">
<polygon fill="none" stroke="black" points="521,-475.5 521,-494.5 628,-494.5 628,-475.5 521,-475.5"/>
<text text-anchor="middle" x="574.5" y="-482.5" font-family="Helvetica,sans-Serif" font-size="10.00">bc_read_error_end</text>
</a>
</g>
</g>
<!-- Node3&#45;&gt;Node4 -->
<g id="edge3" class="edge">
<title>Node3&#45;&gt;Node4</title>
<path fill="none" stroke="midnightblue" d="M447.15,-470.79C466.39,-472.96 489.51,-475.56 510.68,-477.94"/>
<polygon fill="midnightblue" stroke="midnightblue" points="510.56,-481.45 520.89,-479.09 511.34,-474.49 510.56,-481.45"/>
</g>
<!-- Node5 -->
<g id="node5" class="node">
<title>Node5</title>
<g id="a_node5"><a xlink:href="quickjs_8c.html#a930fdff715d46df68de392095deb7d79" target="_top" xlink:title=" ">
<polygon fill="none" stroke="black" points="539,-617.5 539,-636.5 610,-636.5 610,-617.5 539,-617.5"/>
<text text-anchor="middle" x="574.5" y="-624.5" font-family="Helvetica,sans-Serif" font-size="10.00">get_leb128</text>
</a>
</g>
</g>
<!-- Node3&#45;&gt;Node5 -->
<g id="edge4" class="edge">
<title>Node3&#45;&gt;Node5</title>
<path fill="none" stroke="midnightblue" d="M414.57,-475.59C442.33,-502.04 520.26,-576.28 555.63,-609.98"/>
<polygon fill="midnightblue" stroke="midnightblue" points="553.62,-612.89 563.27,-617.26 558.45,-607.83 553.62,-612.89"/>
</g>
<!-- Node6&#45;&gt;Node4 -->
<g id="edge6" class="edge">
<title>Node6&#45;&gt;Node4</title>
<path fill="none" stroke="midnightblue" d="M258.22,-703.52C315.64,-713.42 417.12,-721.69 485,-675 492.68,-669.72 544.81,-551.06 565.28,-503.99"/>
<polygon fill="midnightblue" stroke="midnightblue" points="568.57,-505.19 569.34,-494.62 562.15,-502.4 568.57,-505.19"/>
</g>
<!-- Node7 -->
<g id="node7" class="node">
<title>Node7</title>
<g id="a_node7"><a xlink:href="quickjs_8c.html#a408b3a08f717d04623662251b8953e37" target="_top" xlink:title=" ">
<polygon fill="none" stroke="black" points="365.5,-722.5 365.5,-741.5 441.5,-741.5 441.5,-722.5 365.5,-722.5"/>
<text text-anchor="middle" x="403.5" y="-729.5" font-family="Helvetica,sans-Serif" font-size="10.00">get_sleb128</text>
</a>
</g>
</g>
<!-- Node6&#45;&gt;Node7 -->
<g id="edge7" class="edge">
<title>Node6&#45;&gt;Node7</title>
<path fill="none" stroke="midnightblue" d="M259.53,-703.1C288.49,-708.96 326.05,-716.55 355.4,-722.48"/>
<polygon fill="midnightblue" stroke="midnightblue" points="354.92,-725.95 365.42,-724.5 356.31,-719.09 354.92,-725.95"/>
</g>
<!-- Node7&#45;&gt;Node5 -->
<g id="edge8" class="edge">
<title>Node7&#45;&gt;Node5</title>
<path fill="none" stroke="midnightblue" d="M441.58,-724.68C455.74,-720.94 471.68,-715.55 485,-708 514.7,-691.17 542.65,-662.69 558.91,-644.37"/>
<polygon fill="midnightblue" stroke="midnightblue" points="561.61,-646.6 565.53,-636.75 556.33,-642.01 561.61,-646.6"/>
</g>
<!-- Node8&#45;&gt;Node4 -->
<g id="edge10" class="edge">
<title>Node8&#45;&gt;Node4</title>
<path fill="none" stroke="midnightblue" d="M439.72,-397.35C454.24,-401.17 470.92,-406.62 485,-414 512.59,-428.46 539.86,-452.15 556.68,-468.14"/>
<polygon fill="midnightblue" stroke="midnightblue" points="554.44,-470.85 564.05,-475.3 559.32,-465.83 554.44,-470.85"/>
</g>
<!-- Node9 -->
<g id="node9" class="node">
<title>Node9</title>
<g id="a_node9"><a xlink:href="cutils_8h.html#abd459f86984783206f7317582511f8db" target="_top" xlink:title=" ">
<polygon fill="none" stroke="black" points="546.5,-380.5 546.5,-399.5 602.5,-399.5 602.5,-380.5 546.5,-380.5"/>
<text text-anchor="middle" x="574.5" y="-387.5" font-family="Helvetica,sans-Serif" font-size="10.00">get_u64</text>
</a>
</g>
</g>
<!-- Node8&#45;&gt;Node9 -->
<g id="edge11" class="edge">
<title>Node8&#45;&gt;Node9</title>
<path fill="none" stroke="midnightblue" d="M439.52,-390C467.76,-390 507.39,-390 536.22,-390"/>
<polygon fill="midnightblue" stroke="midnightblue" points="536.31,-393.5 546.31,-390 536.31,-386.5 536.31,-393.5"/>
</g>
<!-- Node10&#45;&gt;Node4 -->
<g id="edge13" class="edge">
<title>Node10&#45;&gt;Node4</title>
<path fill="none" stroke="midnightblue" d="M436.59,-613.02C452.16,-609.51 470.57,-603.65 485,-594 520.44,-570.31 548.77,-528.11 563.15,-503.75"/>
<polygon fill="midnightblue" stroke="midnightblue" points="566.35,-505.21 568.29,-494.8 560.28,-501.73 566.35,-505.21"/>
</g>
<!-- Node12 -->
<g id="node12" class="node">
<title>Node12</title>
<g id="a_node12"><a xlink:href="quickjs_8c.html#acad70023f36797496683e579a4d60461" target="_top" xlink:title=" ">
<polygon fill="none" stroke="black" points="345,-0.5 345,-19.5 462,-19.5 462,-0.5 345,-0.5"/>
<text text-anchor="middle" x="403.5" y="-7.5" font-family="Helvetica,sans-Serif" font-size="10.00">js_get_stack_pointer</text>
</a>
</g>
</g>
<!-- Node11&#45;&gt;Node12 -->
<g id="edge15" class="edge">
<title>Node11&#45;&gt;Node12</title>
<path fill="none" stroke="midnightblue" d="M269.91,-114.44C275.7,-111.97 281.21,-108.88 286,-105 313.5,-82.74 294.84,-56.67 322,-34 327,-29.83 332.7,-26.38 338.7,-23.54"/>
<polygon fill="midnightblue" stroke="midnightblue" points="340.44,-26.6 348.34,-19.54 337.76,-20.14 340.44,-26.6"/>
</g>
<!-- Node16&#45;&gt;Node1 -->
<g id="edge26" class="edge">
<title>Node16&#45;&gt;Node1</title>
<path fill="none" stroke="midnightblue" d="M192.82,-247.55C177.76,-251.56 156.94,-256.38 141,-266 111.4,-283.87 85.72,-314.67 69.97,-334.38"/>
<polygon fill="midnightblue" stroke="midnightblue" points="67.13,-332.32 63.65,-342.33 72.61,-336.68 67.13,-332.32"/>
</g>
<!-- Node16&#45;&gt;Node3 -->
<g id="edge21" class="edge">
<title>Node16&#45;&gt;Node3</title>
<path fill="none" stroke="midnightblue" d="M254.79,-240.98C266.21,-243.7 277.76,-248.53 286,-257 334.42,-306.75 283.17,-351.45 322,-409 334.45,-427.44 355,-441.85 372.22,-451.56"/>
<polygon fill="midnightblue" stroke="midnightblue" points="370.9,-454.83 381.37,-456.48 374.21,-448.66 370.9,-454.83"/>
</g>
<!-- Node17 -->
<g id="node17" class="node">
<title>Node17</title>
<g id="a_node17"><a xlink:href="quickjs_8c.html#a236b90efd249cb2775e66b12d53cab5e" target="_top" xlink:title=" ">
<polygon fill="none" stroke="red" points="350,-228.5 350,-247.5 457,-247.5 457,-228.5 350,-228.5"/>
<text text-anchor="middle" x="403.5" y="-235.5" font-family="Helvetica,sans-Serif" font-size="10.00">BC_add_object_ref</text>
</a>
</g>
</g>
<!-- Node16&#45;&gt;Node17 -->
<g id="edge20" class="edge">
<title>Node16&#45;&gt;Node17</title>
<path fill="none" stroke="midnightblue" d="M254.83,-238C279.53,-238 311.65,-238 339.63,-238"/>
<polygon fill="midnightblue" stroke="midnightblue" points="339.73,-241.5 349.73,-238 339.73,-234.5 339.73,-241.5"/>
</g>
<!-- Node19 -->
<g id="node18" class="node">
<title>Node19</title>
<g id="a_node18"><a xlink:href="quickjs_8c.html#a0a8765bd4012467d9139bc24aabcb3ca" target="_top" xlink:title=" ">
<polygon fill="none" stroke="red" points="338,-114.5 338,-133.5 469,-133.5 469,-114.5 338,-114.5"/>
<text text-anchor="middle" x="403.5" y="-121.5" font-family="Helvetica,sans-Serif" font-size="10.00">JS_DefinePropertyValue</text>
</a>
</g>
</g>
<!-- Node16&#45;&gt;Node19 -->
<g id="edge22" class="edge">
<title>Node16&#45;&gt;Node19</title>
<path fill="none" stroke="midnightblue" d="M254.74,-233.48C265.77,-230.68 277.12,-226.19 286,-219 313.5,-196.74 294.84,-170.67 322,-148 327,-143.83 332.7,-140.38 338.7,-137.54"/>
<polygon fill="midnightblue" stroke="midnightblue" points="340.44,-140.6 348.34,-133.54 337.76,-134.14 340.44,-140.6"/>
</g>
<!-- Node45 -->
<g id="node19" class="node">
<title>Node45</title>
<g id="a_node19"><a xlink:href="quickjs_8h.html#afaa20c47565bc704c6c85f3d77254e7d" target="_top" xlink:title=" ">
<polygon fill="none" stroke="red" points="535,-266.5 535,-285.5 614,-285.5 614,-266.5 535,-266.5"/>
<text text-anchor="middle" x="574.5" y="-273.5" font-family="Helvetica,sans-Serif" font-size="10.00">JS_FreeValue</text>
</a>
</g>
</g>
<!-- Node16&#45;&gt;Node45 -->
<g id="edge25" class="edge">
<title>Node16&#45;&gt;Node45</title>
<path fill="none" stroke="midnightblue" d="M254.65,-231.46C265.32,-228.64 276.5,-224.64 286,-219 306,-207.12 300.63,-190.19 322,-181 388.55,-152.38 418.57,-152.1 485,-181 520.81,-196.58 548.68,-234.58 562.96,-257.52"/>
<polygon fill="midnightblue" stroke="midnightblue" points="560.09,-259.54 568.23,-266.32 566.1,-255.95 560.09,-259.54"/>
</g>
<!-- Node250 -->
<g id="node20" class="node">
<title>Node250</title>
<g id="a_node20"><a xlink:href="quickjs_8c.html#a12aed667595f49667e0095f0a028e0d4" target="_top" xlink:title=" ">
<polygon fill="none" stroke="red" points="322,-190.5 322,-209.5 485,-209.5 485,-190.5 322,-190.5"/>
<text text-anchor="middle" x="403.5" y="-197.5" font-family="Helvetica,sans-Serif" font-size="10.00">JS_DefinePropertyValueUint32</text>
</a>
</g>
</g>
<!-- Node16&#45;&gt;Node250 -->
<g id="edge24" class="edge">
<title>Node16&#45;&gt;Node250</title>
<path fill="none" stroke="midnightblue" d="M254.83,-229.85C281.18,-224.52 315.99,-217.49 345.19,-211.58"/>
<polygon fill="midnightblue" stroke="midnightblue" points="346.16,-214.96 355.26,-209.55 344.77,-208.1 346.16,-214.96"/>
</g>
<!-- Node19&#45;&gt;Node45 -->
<g id="edge23" class="edge">
<title>Node19&#45;&gt;Node45</title>
<path fill="none" stroke="midnightblue" d="M455.47,-133.53C465.85,-136.98 476.27,-141.66 485,-148 524.55,-176.71 552.4,-228.75 565.33,-256.82"/>
<polygon fill="midnightblue" stroke="midnightblue" points="562.29,-258.6 569.55,-266.31 568.68,-255.75 562.29,-258.6"/>
</g>
<!-- Node447&#45;&gt;Node3 -->
<g id="edge29" class="edge">
<title>Node447&#45;&gt;Node3</title>
<path fill="none" stroke="midnightblue" d="M225.39,-361.55C250.5,-383.51 311.17,-436.18 322,-442 330.77,-446.71 340.58,-450.62 350.26,-453.81"/>
<polygon fill="midnightblue" stroke="midnightblue" points="349.26,-457.17 359.85,-456.77 351.33,-450.48 349.26,-457.17"/>
</g>
<!-- Node447&#45;&gt;Node4 -->
<g id="edge30" class="edge">
<title>Node447&#45;&gt;Node4</title>
<path fill="none" stroke="midnightblue" d="M235.41,-361.61C249.81,-368.37 269.28,-377.82 286,-387 302.44,-396.02 304.65,-401.89 322,-409 390.84,-437.2 414.33,-423.79 485,-447 505.32,-453.67 527.42,-463.16 544.46,-470.99"/>
<polygon fill="midnightblue" stroke="midnightblue" points="543.31,-474.32 553.85,-475.37 546.27,-467.97 543.31,-474.32"/>
</g>
<!-- Node447&#45;&gt;Node17 -->
<g id="edge28" class="edge">
<title>Node447&#45;&gt;Node17</title>
<path fill="none" stroke="midnightblue" d="M262.09,-342.39C270.29,-339.89 278.56,-336.8 286,-333 326.19,-312.49 365.24,-276.34 386.35,-255.04"/>
<polygon fill="midnightblue" stroke="midnightblue" points="389.06,-257.28 393.53,-247.67 384.05,-252.39 389.06,-257.28"/>
</g>
<!-- Node447&#45;&gt;Node45 -->
<g id="edge31" class="edge">
<title>Node447&#45;&gt;Node45</title>
<path fill="none" stroke="midnightblue" d="M269.13,-347.38C324.31,-341.86 411.63,-330.8 485,-311 505.14,-305.57 526.93,-296.98 543.85,-289.68"/>
<polygon fill="midnightblue" stroke="midnightblue" points="545.47,-292.79 553.21,-285.55 542.64,-286.38 545.47,-292.79"/>
</g>
<!-- Node451&#45;&gt;Node1 -->
<g id="edge35" class="edge">
<title>Node451&#45;&gt;Node1</title>
<path fill="none" stroke="midnightblue" d="M196.96,-285.57C182.14,-290.51 159.42,-295.8 141,-304 120.87,-312.95 100.14,-326.25 83.91,-336.78"/>
<polygon fill="midnightblue" stroke="midnightblue" points="81.88,-333.93 75.39,-342.31 85.69,-339.8 81.88,-333.93"/>
</g>
<!-- Node451&#45;&gt;Node17 -->
<g id="edge33" class="edge">
<title>Node451&#45;&gt;Node17</title>
<path fill="none" stroke="midnightblue" d="M253.45,-268.13C280.03,-262.76 315.66,-255.55 345.42,-249.54"/>
<polygon fill="midnightblue" stroke="midnightblue" points="346.16,-252.96 355.27,-247.55 344.77,-246.1 346.16,-252.96"/>
</g>
<!-- Node451&#45;&gt;Node45 -->
<g id="edge34" class="edge">
<title>Node451&#45;&gt;Node45</title>
<path fill="none" stroke="midnightblue" d="M253.26,-276C319.1,-276 452.64,-276 524.73,-276"/>
<polygon fill="midnightblue" stroke="midnightblue" points="524.9,-279.5 534.9,-276 524.9,-272.5 524.9,-279.5"/>
</g>
<!-- Node452&#45;&gt;Node1 -->
<g id="edge39" class="edge">
<title>Node452&#45;&gt;Node1</title>
<path fill="none" stroke="midnightblue" d="M156.74,-541.21C151.08,-538.83 145.7,-535.79 141,-532 89.25,-490.26 65.03,-409.81 56.85,-372.02"/>
<polygon fill="midnightblue" stroke="midnightblue" points="60.2,-370.88 54.82,-361.75 53.33,-372.24 60.2,-370.88"/>
</g>
<!-- Node452&#45;&gt;Node10 -->
<g id="edge37" class="edge">
<title>Node452&#45;&gt;Node10</title>
<path fill="none" stroke="midnightblue" d="M250.76,-551.56C262.37,-555.3 275.04,-560.12 286,-566 303.86,-575.58 303.98,-584.72 322,-594 333.97,-600.16 347.78,-605 360.54,-608.67"/>
<polygon fill="midnightblue" stroke="midnightblue" points="359.92,-612.13 370.49,-611.36 361.75,-605.37 359.92,-612.13"/>
</g>
<!-- Node452&#45;&gt;Node45 -->
<g id="edge38" class="edge">
<title>Node452&#45;&gt;Node45</title>
<path fill="none" stroke="midnightblue" d="M254.84,-551.53C313.04,-562.69 420.62,-573.29 485,-518 536.03,-474.18 496.52,-433.65 521,-371 531.98,-342.9 549.76,-312.79 561.54,-294.18"/>
<polygon fill="midnightblue" stroke="midnightblue" points="564.61,-295.87 567.08,-285.56 558.73,-292.08 564.61,-295.87"/>
</g>
<!-- Node462&#45;&gt;Node1 -->
<g id="edge43" class="edge">
<title>Node462&#45;&gt;Node1</title>
<path fill="none" stroke="midnightblue" d="M167.46,-618.42C157.8,-615.15 148.3,-610.14 141,-603 74.58,-538.1 58.33,-419.05 54.57,-371.75"/>
<polygon fill="midnightblue" stroke="midnightblue" points="58.05,-371.32 53.88,-361.59 51.07,-371.8 58.05,-371.32"/>
</g>
<!-- Node462&#45;&gt;Node10 -->
<g id="edge41" class="edge">
<title>Node462&#45;&gt;Node10</title>
<path fill="none" stroke="midnightblue" d="M259.53,-618C290.14,-618 330.36,-618 360.34,-618"/>
<polygon fill="midnightblue" stroke="midnightblue" points="360.49,-621.5 370.49,-618 360.49,-614.5 360.49,-621.5"/>
</g>
<!-- Node462&#45;&gt;Node13 -->
<g id="edge42" class="edge">
<title>Node462&#45;&gt;Node13</title>
<path fill="none" stroke="midnightblue" d="M259.53,-627.1C288.29,-632.92 325.54,-640.44 354.81,-646.36"/>
<polygon fill="midnightblue" stroke="midnightblue" points="354.31,-649.83 364.8,-648.38 355.69,-642.97 354.31,-649.83"/>
</g>
<!-- Node464&#45;&gt;Node1 -->
<g id="edge49" class="edge">
<title>Node464&#45;&gt;Node1</title>
<path fill="none" stroke="midnightblue" d="M189.44,-209.53C174.47,-213.07 155.17,-217.79 141,-228 102.82,-255.51 76.72,-305.25 63.52,-332.84"/>
<polygon fill="midnightblue" stroke="midnightblue" points="60.19,-331.7 59.1,-342.24 66.53,-334.68 60.19,-331.7"/>
</g>
<!-- Node464&#45;&gt;Node3 -->
<g id="edge46" class="edge">
<title>Node464&#45;&gt;Node3</title>
<path fill="none" stroke="midnightblue" d="M265.74,-206.01C273.36,-208.92 280.49,-213.07 286,-219 344.53,-281.94 275.55,-336.69 322,-409 333.95,-427.6 354.32,-441.94 371.57,-451.58"/>
<polygon fill="midnightblue" stroke="midnightblue" points="370.29,-454.86 380.77,-456.45 373.57,-448.67 370.29,-454.86"/>
</g>
<!-- Node464&#45;&gt;Node17 -->
<g id="edge45" class="edge">
<title>Node464&#45;&gt;Node17</title>
<path fill="none" stroke="midnightblue" d="M261.94,-209.59C287.31,-214.72 318.73,-221.07 345.42,-226.46"/>
<polygon fill="midnightblue" stroke="midnightblue" points="344.91,-229.93 355.4,-228.48 346.29,-223.07 344.91,-229.93"/>
</g>
<!-- Node464&#45;&gt;Node19 -->
<g id="edge47" class="edge">
<title>Node464&#45;&gt;Node19</title>
<path fill="none" stroke="midnightblue" d="M263.42,-190.39C271.22,-187.91 279.01,-184.82 286,-181 305.04,-170.58 303.12,-158.71 322,-148 330.01,-143.46 338.97,-139.69 347.92,-136.6"/>
<polygon fill="midnightblue" stroke="midnightblue" points="349.13,-139.89 357.58,-133.51 346.99,-133.23 349.13,-139.89"/>
</g>
<!-- Node464&#45;&gt;Node45 -->
<g id="edge48" class="edge">
<title>Node464&#45;&gt;Node45</title>
<path fill="none" stroke="midnightblue" d="M265.64,-192.31C273,-189.59 280.08,-185.93 286,-181 314.73,-157.09 290.42,-124.99 322,-105 383.22,-66.26 423.11,-67.34 485,-105 540.12,-138.54 562.44,-218.72 570.08,-256.14"/>
<polygon fill="midnightblue" stroke="midnightblue" points="566.7,-257.11 572,-266.28 573.57,-255.8 566.7,-257.11"/>
</g>
<!-- Node465&#45;&gt;Node1 -->
<g id="edge53" class="edge">
<title>Node465&#45;&gt;Node1</title>
<path fill="none" stroke="midnightblue" d="M186.69,-171.56C171.95,-174.85 153.9,-179.6 141,-190 93.92,-227.97 69.63,-297.97 59.47,-332.36"/>
<polygon fill="midnightblue" stroke="midnightblue" points="56.04,-331.61 56.66,-342.18 62.77,-333.53 56.04,-331.61"/>
</g>
<!-- Node465&#45;&gt;Node17 -->
<g id="edge51" class="edge">
<title>Node465&#45;&gt;Node17</title>
<path fill="none" stroke="midnightblue" d="M264.78,-171.56C272.18,-174.03 279.49,-177.13 286,-181 306,-192.88 301.83,-207.4 322,-219 327.55,-222.2 333.62,-224.85 339.85,-227.07"/>
<polygon fill="midnightblue" stroke="midnightblue" points="339.13,-230.51 349.72,-230.19 341.24,-223.84 339.13,-230.51"/>
</g>
<!-- Node465&#45;&gt;Node45 -->
<g id="edge52" class="edge">
<title>Node465&#45;&gt;Node45</title>
<path fill="none" stroke="midnightblue" d="M269.91,-152.44C275.7,-149.97 281.21,-146.88 286,-143 313.5,-120.74 291.85,-90.52 322,-72 383.73,-34.09 424.43,-32.25 485,-72 549.16,-114.1 567.04,-213.81 571.83,-256.29"/>
<polygon fill="midnightblue" stroke="midnightblue" points="568.37,-256.84 572.84,-266.44 575.33,-256.14 568.37,-256.84"/>
</g>
<!-- Node466&#45;&gt;Node3 -->
<g id="edge56" class="edge">
<title>Node466&#45;&gt;Node3</title>
<path fill="none" stroke="midnightblue" d="M270.38,-323.59C276.01,-326.05 281.36,-329.14 286,-333 314.73,-356.91 297.96,-380.38 322,-409 336.68,-426.48 357.9,-441.21 374.87,-451.32"/>
<polygon fill="midnightblue" stroke="midnightblue" points="373.38,-454.5 383.79,-456.45 376.86,-448.43 373.38,-454.5"/>
</g>
<!-- Node466&#45;&gt;Node8 -->
<g id="edge57" class="edge">
<title>Node466&#45;&gt;Node8</title>
<path fill="none" stroke="midnightblue" d="M256.14,-323.6C266.05,-326.28 276.49,-329.45 286,-333 318.26,-345.05 353.55,-363.04 376.74,-375.58"/>
<polygon fill="midnightblue" stroke="midnightblue" points="375.14,-378.69 385.6,-380.42 378.5,-372.55 375.14,-378.69"/>
</g>
<!-- Node466&#45;&gt;Node17 -->
<g id="edge55" class="edge">
<title>Node466&#45;&gt;Node17</title>
<path fill="none" stroke="midnightblue" d="M256.14,-304.4C266.05,-301.72 276.49,-298.55 286,-295 318.26,-282.95 353.55,-264.96 376.74,-252.42"/>
<polygon fill="midnightblue" stroke="midnightblue" points="378.5,-255.45 385.6,-247.58 375.14,-249.31 378.5,-255.45"/>
</g>
<!-- Node466&#45;&gt;Node45 -->
<g id="edge58" class="edge">
<title>Node466&#45;&gt;Node45</title>
<path fill="none" stroke="midnightblue" d="M286.12,-308.99C340.72,-304.84 417.74,-298.29 485,-290 497.91,-288.41 511.84,-286.36 524.73,-284.33"/>
<polygon fill="midnightblue" stroke="midnightblue" points="525.49,-287.75 534.81,-282.71 524.38,-280.84 525.49,-287.75"/>
</g>
<!-- Node467&#45;&gt;Node3 -->
<g id="edge60" class="edge">
<title>Node467&#45;&gt;Node3</title>
<path fill="none" stroke="midnightblue" d="M255.76,-466C283.31,-466 319.81,-466 349.51,-466"/>
<polygon fill="midnightblue" stroke="midnightblue" points="349.71,-469.5 359.71,-466 349.71,-462.5 349.71,-469.5"/>
</g>
<!-- Node467&#45;&gt;Node4 -->
<g id="edge61" class="edge">
<title>Node467&#45;&gt;Node4</title>
<path fill="none" stroke="midnightblue" d="M255.62,-475.01C275.56,-478.93 299.91,-483.06 322,-485 386.09,-490.62 459.72,-489.77 510.68,-488.04"/>
<polygon fill="midnightblue" stroke="midnightblue" points="511.01,-491.53 520.88,-487.67 510.76,-484.53 511.01,-491.53"/>
</g>
<!-- Node468&#45;&gt;Node1 -->
<g id="edge66" class="edge">
<title>Node468&#45;&gt;Node1</title>
<path fill="none" stroke="midnightblue" d="M158.24,-503.12C152.11,-500.77 146.21,-497.75 141,-494 97.67,-462.78 69.9,-402.92 58.89,-371.57"/>
<polygon fill="midnightblue" stroke="midnightblue" points="62.12,-370.19 55.69,-361.76 55.46,-372.36 62.12,-370.19"/>
</g>
<!-- Node468&#45;&gt;Node3 -->
<g id="edge63" class="edge">
<title>Node468&#45;&gt;Node3</title>
<path fill="none" stroke="midnightblue" d="M261.94,-494.41C288.78,-488.99 322.38,-482.19 350.01,-476.61"/>
<polygon fill="midnightblue" stroke="midnightblue" points="350.78,-480.02 359.89,-474.61 349.4,-473.16 350.78,-480.02"/>
</g>
<!-- Node468&#45;&gt;Node10 -->
<g id="edge64" class="edge">
<title>Node468&#45;&gt;Node10</title>
<path fill="none" stroke="midnightblue" d="M263.42,-513.61C271.22,-516.09 279.01,-519.18 286,-523 305.04,-533.42 305.39,-542.03 322,-556 341.48,-572.38 364.57,-589.99 381.02,-602.24"/>
<polygon fill="midnightblue" stroke="midnightblue" points="379.29,-605.31 389.41,-608.45 383.45,-599.69 379.29,-605.31"/>
</g>
<!-- Node468&#45;&gt;Node45 -->
<g id="edge65" class="edge">
<title>Node468&#45;&gt;Node45</title>
<path fill="none" stroke="midnightblue" d="M252.84,-513.55C309.97,-525.34 417.89,-537.89 485,-485 526.73,-452.11 500.05,-419.83 521,-371 532.9,-343.28 550.45,-313.08 561.92,-294.34"/>
<polygon fill="midnightblue" stroke="midnightblue" points="565.01,-296 567.31,-285.66 559.07,-292.31 565.01,-296"/>
</g>
</g>
</svg>
