<?xml version="1.0" encoding="UTF-8" standalone="no"?>
<!DOCTYPE svg PUBLIC "-//W3C//DTD SVG 1.1//EN"
 "http://www.w3.org/Graphics/SVG/1.1/DTD/svg11.dtd">
<!-- Generated by graphviz version 2.43.0 (0)
 -->
<!-- Title: js_for_in_next Pages: 1 -->
<!--zoomable 294 -->
<svg id="main" version="1.1" xmlns="http://www.w3.org/2000/svg" xmlns:xlink="http://www.w3.org/1999/xlink" xml:space="preserve" onload="init(evt)">
<style type="text/css"><![CDATA[
.edge:hover path { stroke: red; }
.edge:hover polygon { stroke: red; fill: red; }
]]></style>
<script type="text/javascript"><![CDATA[
var edges = document.getElementsByTagName('g');
if (edges && edges.length) {
  for (var i=0;i<edges.length;i++) {
    if (edges[i].id.substr(0,4)=='edge') {
      edges[i].setAttribute('class','edge');
    }
  }
}
]]></script>
        <defs>
                <circle id="rim" cx="0" cy="0" r="7"/>
                <circle id="rim2" cx="0" cy="0" r="3.5"/>
                <g id="zoomPlus">
                        <use xlink:href="#rim" fill="#404040">
                                <set attributeName="fill" to="#808080" begin="zoomplus.mouseover" end="zoomplus.mouseout"/>
                        </use>
                        <path d="M-4,0h8M0,-4v8" fill="none" stroke="white" stroke-width="1.5" pointer-events="none"/>
                </g>
                <g id="zoomMin">
                        <use xlink:href="#rim" fill="#404040">
                                <set attributeName="fill" to="#808080" begin="zoomminus.mouseover" end="zoomminus.mouseout"/>
                        </use>
                        <path d="M-4,0h8" fill="none" stroke="white" stroke-width="1.5" pointer-events="none"/>
                </g>
                <g id="dirArrow">
                        <path fill="none" stroke="white" stroke-width="1.5" d="M0,-3.0v7 M-2.5,-0.5L0,-3.0L2.5,-0.5"/>
                </g>
               <g id="resetDef">
                       <use xlink:href="#rim2" fill="#404040">
                               <set attributeName="fill" to="#808080" begin="reset.mouseover" end="reset.mouseout"/>
                       </use>
               </g>
        </defs>

<script type="text/javascript">
var viewWidth = 768;
var viewHeight = 294;
var sectionId = 'dynsection-805';
</script>
<script xlink:href="svgpan.js"/>
<svg id="graph" class="graph">
<g id="viewport">
<title>js_for_in_next</title>
<!-- Node1 -->
<g id="node1" class="node">
<title>Node1</title>
<g id="a_node1"><a xlink:title=" ">
<polygon fill="#bfbfbf" stroke="black" points="0,-209.42 0,-228.42 85,-228.42 85,-209.42 0,-209.42"/>
<text text-anchor="middle" x="42.5" y="-216.42" font-family="Helvetica,sans-Serif" font-size="10.00">js_for_in_next</text>
</a>
</g>
</g>
<!-- Node2 -->
<g id="node2" class="node">
<title>Node2</title>
<g id="a_node2"><a xlink:href="quickjs_8c.html#a877fcb7651d95b411ce70e62b7f4a1f0" target="_top" xlink:title=" ">
<polygon fill="none" stroke="black" points="121,-266.42 121,-285.42 246,-285.42 246,-266.42 121,-266.42"/>
<text text-anchor="middle" x="183.5" y="-273.42" font-family="Helvetica,sans-Serif" font-size="10.00">__JS_AtomFromUInt32</text>
</a>
</g>
</g>
<!-- Node1&#45;&gt;Node2 -->
<g id="edge1" class="edge">
<title>Node1&#45;&gt;Node2</title>
<path fill="none" stroke="midnightblue" d="M61,-228.48C76.48,-236.69 99.83,-248.52 121,-256.92 126.59,-259.13 132.55,-261.26 138.47,-263.23"/>
<polygon fill="midnightblue" stroke="midnightblue" points="137.74,-266.68 148.34,-266.4 139.88,-260.01 137.74,-266.68"/>
</g>
<!-- Node3 -->
<g id="node3" class="node">
<title>Node3</title>
<g id="a_node3"><a xlink:href="quickjs_8c.html#a643df594b75933007bcdbb071b5ea8c5" target="_top" xlink:title=" ">
<polygon fill="none" stroke="black" points="136.5,-228.42 136.5,-247.42 230.5,-247.42 230.5,-228.42 136.5,-228.42"/>
<text text-anchor="middle" x="183.5" y="-235.42" font-family="Helvetica,sans-Serif" font-size="10.00">get_shape_prop</text>
</a>
</g>
</g>
<!-- Node1&#45;&gt;Node3 -->
<g id="edge2" class="edge">
<title>Node1&#45;&gt;Node3</title>
<path fill="none" stroke="midnightblue" d="M85.2,-224.62C98.08,-226.38 112.47,-228.34 126.16,-230.22"/>
<polygon fill="midnightblue" stroke="midnightblue" points="126.07,-233.74 136.45,-231.62 127.02,-226.8 126.07,-233.74"/>
</g>
<!-- Node4 -->
<g id="node4" class="node">
<title>Node4</title>
<g id="a_node4"><a xlink:href="quickjs_8c.html#afa67965c1017685fc6783776d6d0d4d7" target="_top" xlink:title=" ">
<polygon fill="none" stroke="black" points="301.5,-190.42 301.5,-209.42 396.5,-209.42 396.5,-190.42 301.5,-190.42"/>
<text text-anchor="middle" x="349" y="-197.42" font-family="Helvetica,sans-Serif" font-size="10.00">JS_AtomToValue</text>
</a>
</g>
</g>
<!-- Node1&#45;&gt;Node4 -->
<g id="edge3" class="edge">
<title>Node1&#45;&gt;Node4</title>
<path fill="none" stroke="midnightblue" d="M85.2,-216.31C138.63,-212.98 231.47,-207.19 291.29,-203.46"/>
<polygon fill="midnightblue" stroke="midnightblue" points="291.56,-206.95 301.32,-202.83 291.12,-199.96 291.56,-206.95"/>
</g>
<!-- Node33 -->
<g id="node10" class="node">
<title>Node33</title>
<g id="a_node10"><a xlink:href="quickjs_8c.html#a9d6d0a9704951d01c128975e0d2213f8" target="_top" xlink:title=" ">
<polygon fill="none" stroke="black" points="138,-152.42 138,-171.42 229,-171.42 229,-152.42 138,-152.42"/>
<text text-anchor="middle" x="183.5" y="-159.42" font-family="Helvetica,sans-Serif" font-size="10.00">JS_HasProperty</text>
</a>
</g>
</g>
<!-- Node1&#45;&gt;Node33 -->
<g id="edge9" class="edge">
<title>Node1&#45;&gt;Node33</title>
<path fill="none" stroke="midnightblue" d="M65.47,-209.35C80.95,-202.66 102.18,-193.59 121,-185.92 129.81,-182.32 139.37,-178.54 148.26,-175.06"/>
<polygon fill="midnightblue" stroke="midnightblue" points="149.54,-178.32 157.59,-171.44 147.01,-171.8 149.54,-178.32"/>
</g>
<!-- Node5 -->
<g id="node5" class="node">
<title>Node5</title>
<g id="a_node5"><a xlink:href="quickjs_8c.html#a06ff303a11e6641cbf1f6634e6a61811" target="_top" xlink:title=" ">
<polygon fill="none" stroke="black" points="474,-190.42 474,-209.42 579,-209.42 579,-190.42 474,-190.42"/>
<text text-anchor="middle" x="526.5" y="-197.42" font-family="Helvetica,sans-Serif" font-size="10.00">__JS_AtomToValue</text>
</a>
</g>
</g>
<!-- Node4&#45;&gt;Node5 -->
<g id="edge4" class="edge">
<title>Node4&#45;&gt;Node5</title>
<path fill="none" stroke="midnightblue" d="M396.57,-199.92C417.08,-199.92 441.48,-199.92 463.5,-199.92"/>
<polygon fill="midnightblue" stroke="midnightblue" points="463.76,-203.42 473.76,-199.92 463.76,-196.42 463.76,-203.42"/>
</g>
<!-- Node6 -->
<g id="node6" class="node">
<title>Node6</title>
<g id="a_node6"><a xlink:href="quickjs_8c.html#a288254c06a39c9fca740a7abdad2834e" target="_top" xlink:title=" ">
<polygon fill="none" stroke="black" points="637,-152.42 637,-171.42 760,-171.42 760,-152.42 637,-152.42"/>
<text text-anchor="middle" x="698.5" y="-159.42" font-family="Helvetica,sans-Serif" font-size="10.00">__JS_AtomIsTaggedInt</text>
</a>
</g>
</g>
<!-- Node5&#45;&gt;Node6 -->
<g id="edge5" class="edge">
<title>Node5&#45;&gt;Node6</title>
<path fill="none" stroke="midnightblue" d="M570.4,-190.33C593.03,-185.27 621,-179.02 644.93,-173.67"/>
<polygon fill="midnightblue" stroke="midnightblue" points="645.91,-177.03 654.91,-171.44 644.39,-170.2 645.91,-177.03"/>
</g>
<!-- Node7 -->
<g id="node7" class="node">
<title>Node7</title>
<g id="a_node7"><a xlink:href="quickjs_8c.html#a89f38938cee8077ce1fbba07946ed185" target="_top" xlink:title=" ">
<polygon fill="none" stroke="black" points="643.5,-114.42 643.5,-133.42 753.5,-133.42 753.5,-114.42 643.5,-114.42"/>
<text text-anchor="middle" x="698.5" y="-121.42" font-family="Helvetica,sans-Serif" font-size="10.00">__JS_AtomToUInt32</text>
</a>
</g>
</g>
<!-- Node5&#45;&gt;Node7 -->
<g id="edge6" class="edge">
<title>Node5&#45;&gt;Node7</title>
<path fill="none" stroke="midnightblue" d="M579.19,-190.49C586.79,-188 594.3,-184.87 601,-180.92 621.04,-169.1 617.27,-155.24 637,-142.92 640.37,-140.81 643.99,-138.92 647.73,-137.23"/>
<polygon fill="midnightblue" stroke="midnightblue" points="649.21,-140.41 657.17,-133.42 646.59,-133.91 649.21,-140.41"/>
</g>
<!-- Node8 -->
<g id="node8" class="node">
<title>Node8</title>
<g id="a_node8"><a xlink:href="quickjs_8h.html#a775522f2d084fc8fa0fcb33f390006b4" target="_top" xlink:title=" ">
<polygon fill="none" stroke="black" points="660,-228.42 660,-247.42 737,-247.42 737,-228.42 660,-228.42"/>
<text text-anchor="middle" x="698.5" y="-235.42" font-family="Helvetica,sans-Serif" font-size="10.00">JS_DupValue</text>
</a>
</g>
</g>
<!-- Node5&#45;&gt;Node8 -->
<g id="edge7" class="edge">
<title>Node5&#45;&gt;Node8</title>
<path fill="none" stroke="midnightblue" d="M570.4,-209.51C594.6,-214.92 624.9,-221.69 649.85,-227.26"/>
<polygon fill="midnightblue" stroke="midnightblue" points="649.3,-230.73 659.82,-229.49 650.83,-223.9 649.3,-230.73"/>
</g>
<!-- Node9 -->
<g id="node9" class="node">
<title>Node9</title>
<g id="a_node9"><a xlink:href="quickjs_8c.html#a0ee6a3654a6016393fac5e1c108f403a" target="_top" xlink:title=" ">
<polygon fill="none" stroke="red" points="658,-190.42 658,-209.42 739,-209.42 739,-190.42 658,-190.42"/>
<text text-anchor="middle" x="698.5" y="-197.42" font-family="Helvetica,sans-Serif" font-size="10.00">JS_NewString</text>
</a>
</g>
</g>
<!-- Node5&#45;&gt;Node9 -->
<g id="edge8" class="edge">
<title>Node5&#45;&gt;Node9</title>
<path fill="none" stroke="midnightblue" d="M579.43,-199.92C601.08,-199.92 626.12,-199.92 647.55,-199.92"/>
<polygon fill="midnightblue" stroke="midnightblue" points="647.76,-203.42 657.76,-199.92 647.76,-196.42 647.76,-203.42"/>
</g>
<!-- Node33&#45;&gt;Node8 -->
<g id="edge19" class="edge">
<title>Node33&#45;&gt;Node8</title>
<path fill="none" stroke="midnightblue" d="M196.52,-171.58C214.08,-185.06 248.34,-208.97 282,-218.92 410.57,-256.92 571.2,-249.79 649.76,-243.01"/>
<polygon fill="midnightblue" stroke="midnightblue" points="650.19,-246.48 659.83,-242.1 649.56,-239.51 650.19,-246.48"/>
</g>
<!-- Node34 -->
<g id="node11" class="node">
<title>Node34</title>
<g id="a_node11"><a xlink:href="quickjs_8c.html#add3eea1f6d626963ade3c28a1fd563d1" target="_top" xlink:title=" ">
<polygon fill="none" stroke="black" points="282,-76.42 282,-95.42 416,-95.42 416,-76.42 282,-76.42"/>
<text text-anchor="middle" x="349" y="-83.42" font-family="Helvetica,sans-Serif" font-size="10.00">JS_AtomIsNumericIndex</text>
</a>
</g>
</g>
<!-- Node33&#45;&gt;Node34 -->
<g id="edge10" class="edge">
<title>Node33&#45;&gt;Node34</title>
<path fill="none" stroke="midnightblue" d="M205.21,-152.29C233.83,-138.99 285.65,-114.9 318.37,-99.69"/>
<polygon fill="midnightblue" stroke="midnightblue" points="319.87,-102.85 327.46,-95.46 316.92,-96.51 319.87,-102.85"/>
</g>
<!-- Node38 -->
<g id="node13" class="node">
<title>Node38</title>
<g id="a_node13"><a xlink:href="quickjs_8h.html#afaa20c47565bc704c6c85f3d77254e7d" target="_top" xlink:title=" ">
<polygon fill="none" stroke="red" points="659,-38.42 659,-57.42 738,-57.42 738,-38.42 659,-38.42"/>
<text text-anchor="middle" x="698.5" y="-45.42" font-family="Helvetica,sans-Serif" font-size="10.00">JS_FreeValue</text>
</a>
</g>
</g>
<!-- Node33&#45;&gt;Node38 -->
<g id="edge20" class="edge">
<title>Node33&#45;&gt;Node38</title>
<path fill="none" stroke="midnightblue" d="M191.78,-152.41C206.71,-133.53 242.73,-91.03 282,-66.92 350.03,-25.15 373.24,-21.98 452,-8.92 517.33,1.92 536,3.72 601,-8.92 625.47,-13.67 651.59,-24.63 670.48,-33.72"/>
<polygon fill="midnightblue" stroke="midnightblue" points="669.13,-36.96 679.65,-38.26 672.24,-30.69 669.13,-36.96"/>
</g>
<!-- Node313 -->
<g id="node16" class="node">
<title>Node313</title>
<g id="a_node16"><a xlink:href="quickjs_8c.html#ad13892c0a0f11781b566808876658099" target="_top" xlink:title=" ">
<polygon fill="none" stroke="red" points="452,-152.42 452,-171.42 601,-171.42 601,-152.42 452,-152.42"/>
<text text-anchor="middle" x="526.5" y="-159.42" font-family="Helvetica,sans-Serif" font-size="10.00">JS_GetOwnPropertyInternal</text>
</a>
</g>
</g>
<!-- Node33&#45;&gt;Node313 -->
<g id="edge21" class="edge">
<title>Node33&#45;&gt;Node313</title>
<path fill="none" stroke="midnightblue" d="M229.08,-161.92C282.91,-161.92 374.59,-161.92 441.76,-161.92"/>
<polygon fill="midnightblue" stroke="midnightblue" points="441.9,-165.42 451.9,-161.92 441.9,-158.42 441.9,-165.42"/>
</g>
<!-- Node35 -->
<g id="node12" class="node">
<title>Node35</title>
<g id="a_node12"><a xlink:href="quickjs_8c.html#ab4e100a9cde5f7ec87c92f5e766dbbab" target="_top" xlink:title=" ">
<polygon fill="none" stroke="red" points="456.5,-114.42 456.5,-133.42 596.5,-133.42 596.5,-114.42 456.5,-114.42"/>
<text text-anchor="middle" x="526.5" y="-121.42" font-family="Helvetica,sans-Serif" font-size="10.00">JS_AtomIsNumericIndex1</text>
</a>
</g>
</g>
<!-- Node34&#45;&gt;Node35 -->
<g id="edge11" class="edge">
<title>Node34&#45;&gt;Node35</title>
<path fill="none" stroke="midnightblue" d="M394.29,-95.51C417.76,-100.59 446.78,-106.87 471.56,-112.24"/>
<polygon fill="midnightblue" stroke="midnightblue" points="471.02,-115.7 481.53,-114.4 472.5,-108.86 471.02,-115.7"/>
</g>
<!-- Node34&#45;&gt;Node38 -->
<g id="edge16" class="edge">
<title>Node34&#45;&gt;Node38</title>
<path fill="none" stroke="midnightblue" d="M416.02,-83.07C466.77,-80.36 538.53,-75.4 601,-66.92 616.53,-64.81 633.34,-61.77 648.5,-58.73"/>
<polygon fill="midnightblue" stroke="midnightblue" points="649.61,-62.08 658.7,-56.65 648.21,-55.22 649.61,-62.08"/>
</g>
<!-- Node73 -->
<g id="node14" class="node">
<title>Node73</title>
<g id="a_node14"><a xlink:href="quickjs_8h.html#ad80a83d73e9b7d872b88fbf2943aebe9" target="_top" xlink:title=" ">
<polygon fill="none" stroke="black" points="655,-76.42 655,-95.42 742,-95.42 742,-76.42 655,-76.42"/>
<text text-anchor="middle" x="698.5" y="-83.42" font-family="Helvetica,sans-Serif" font-size="10.00">JS_IsException</text>
</a>
</g>
</g>
<!-- Node34&#45;&gt;Node73 -->
<g id="edge17" class="edge">
<title>Node34&#45;&gt;Node73</title>
<path fill="none" stroke="midnightblue" d="M362.29,-76.26C380.59,-62.56 416.66,-38.12 452,-28.92 516.08,-12.23 540.17,-2.75 601,-28.92 622.37,-38.11 617.27,-54.59 637,-66.92 640.37,-69.02 643.99,-70.91 647.73,-72.6"/>
<polygon fill="midnightblue" stroke="midnightblue" points="646.59,-75.92 657.17,-76.42 649.21,-69.43 646.59,-75.92"/>
</g>
<!-- Node220 -->
<g id="node15" class="node">
<title>Node220</title>
<g id="a_node15"><a xlink:href="quickjs_8h.html#a4e407128a9605afb77523e49e9a627fd" target="_top" xlink:title=" ">
<polygon fill="none" stroke="black" points="482,-38.42 482,-57.42 571,-57.42 571,-38.42 482,-38.42"/>
<text text-anchor="middle" x="526.5" y="-45.42" font-family="Helvetica,sans-Serif" font-size="10.00">JS_IsUndefined</text>
</a>
</g>
</g>
<!-- Node34&#45;&gt;Node220 -->
<g id="edge18" class="edge">
<title>Node34&#45;&gt;Node220</title>
<path fill="none" stroke="midnightblue" d="M394.29,-76.33C417.85,-71.23 447,-64.91 471.84,-59.53"/>
<polygon fill="midnightblue" stroke="midnightblue" points="472.8,-62.91 481.84,-57.37 471.32,-56.07 472.8,-62.91"/>
</g>
<!-- Node35&#45;&gt;Node6 -->
<g id="edge12" class="edge">
<title>Node35&#45;&gt;Node6</title>
<path fill="none" stroke="midnightblue" d="M570.4,-133.51C593.03,-138.57 621,-144.82 644.93,-150.17"/>
<polygon fill="midnightblue" stroke="midnightblue" points="644.39,-153.63 654.91,-152.4 645.91,-146.8 644.39,-153.63"/>
</g>
<!-- Node35&#45;&gt;Node7 -->
<g id="edge13" class="edge">
<title>Node35&#45;&gt;Node7</title>
<path fill="none" stroke="midnightblue" d="M596.65,-123.92C608.66,-123.92 621.11,-123.92 633,-123.92"/>
<polygon fill="midnightblue" stroke="midnightblue" points="633.27,-127.42 643.27,-123.92 633.27,-120.42 633.27,-127.42"/>
</g>
<!-- Node35&#45;&gt;Node38 -->
<g id="edge14" class="edge">
<title>Node35&#45;&gt;Node38</title>
<path fill="none" stroke="midnightblue" d="M567.36,-114.3C578.66,-110.68 590.68,-105.94 601,-99.92 619.74,-88.97 618.2,-77.76 637,-66.92 640.91,-64.66 645.13,-62.64 649.45,-60.83"/>
<polygon fill="midnightblue" stroke="midnightblue" points="650.87,-64.04 658.99,-57.22 648.4,-57.49 650.87,-64.04"/>
</g>
<!-- Node35&#45;&gt;Node73 -->
<g id="edge15" class="edge">
<title>Node35&#45;&gt;Node73</title>
<path fill="none" stroke="midnightblue" d="M570.4,-114.33C593.03,-109.27 621,-103.02 644.93,-97.67"/>
<polygon fill="midnightblue" stroke="midnightblue" points="645.91,-101.03 654.91,-95.44 644.39,-94.2 645.91,-101.03"/>
</g>
<!-- Node313&#45;&gt;Node6 -->
<g id="edge22" class="edge">
<title>Node313&#45;&gt;Node6</title>
<path fill="none" stroke="midnightblue" d="M601.08,-161.92C609.56,-161.92 618.2,-161.92 626.65,-161.92"/>
<polygon fill="midnightblue" stroke="midnightblue" points="626.83,-165.42 636.83,-161.92 626.83,-158.42 626.83,-165.42"/>
</g>
<!-- Node313&#45;&gt;Node7 -->
<g id="edge23" class="edge">
<title>Node313&#45;&gt;Node7</title>
<path fill="none" stroke="midnightblue" d="M570.4,-152.33C593.03,-147.27 621,-141.02 644.93,-135.67"/>
<polygon fill="midnightblue" stroke="midnightblue" points="645.91,-139.03 654.91,-133.44 644.39,-132.2 645.91,-139.03"/>
</g>
<!-- Node313&#45;&gt;Node8 -->
<g id="edge24" class="edge">
<title>Node313&#45;&gt;Node8</title>
<path fill="none" stroke="midnightblue" d="M579.57,-171.47C587.04,-173.94 594.41,-177.03 601,-180.92 621.04,-192.73 617.27,-206.59 637,-218.92 641.1,-221.48 645.58,-223.72 650.18,-225.68"/>
<polygon fill="midnightblue" stroke="midnightblue" points="649.13,-229.02 659.72,-229.31 651.62,-222.48 649.13,-229.02"/>
</g>
</g>
</svg>
        <g id="navigator" transform="translate(0 0)" fill="#404254">
                <rect fill="#f2f5e9" fill-opacity="0.5" stroke="#606060" stroke-width=".5" x="0" y="0" width="60" height="60"/>
                <use id="zoomplus" xlink:href="#zoomPlus" x="17" y="9" onmousedown="handleZoom(evt,'in')"/>
                <use id="zoomminus" xlink:href="#zoomMin" x="42" y="9" onmousedown="handleZoom(evt,'out')"/>
                <use id="reset" xlink:href="#resetDef" x="30" y="36" onmousedown="handleReset()"/>
                <g id="arrowUp" xlink:href="#dirArrow" transform="translate(30 24)" onmousedown="handlePan(0,-1)">
                  <use xlink:href="#rim" fill="#404040">
                        <set attributeName="fill" to="#808080" begin="arrowUp.mouseover" end="arrowUp.mouseout"/>
                  </use>
                  <path fill="none" stroke="white" stroke-width="1.5" d="M0,-3.0v7 M-2.5,-0.5L0,-3.0L2.5,-0.5"/>
                </g>
                <g id="arrowRight" xlink:href="#dirArrow" transform="rotate(90) translate(36 -43)" onmousedown="handlePan(1,0)">
                  <use xlink:href="#rim" fill="#404040">
                        <set attributeName="fill" to="#808080" begin="arrowRight.mouseover" end="arrowRight.mouseout"/>
                  </use>
                  <path fill="none" stroke="white" stroke-width="1.5" d="M0,-3.0v7 M-2.5,-0.5L0,-3.0L2.5,-0.5"/>
                </g>
                <g id="arrowDown" xlink:href="#dirArrow" transform="rotate(180) translate(-30 -48)" onmousedown="handlePan(0,1)">
                  <use xlink:href="#rim" fill="#404040">
                        <set attributeName="fill" to="#808080" begin="arrowDown.mouseover" end="arrowDown.mouseout"/>
                  </use>
                  <path fill="none" stroke="white" stroke-width="1.5" d="M0,-3.0v7 M-2.5,-0.5L0,-3.0L2.5,-0.5"/>
                </g>
                <g id="arrowLeft" xlink:href="#dirArrow" transform="rotate(270) translate(-36 17)" onmousedown="handlePan(-1,0)">
                  <use xlink:href="#rim" fill="#404040">
                        <set attributeName="fill" to="#808080" begin="arrowLeft.mouseover" end="arrowLeft.mouseout"/>
                  </use>
                  <path fill="none" stroke="white" stroke-width="1.5" d="M0,-3.0v7 M-2.5,-0.5L0,-3.0L2.5,-0.5"/>
                </g>
        </g>
        <svg viewBox="0 0 15 15" width="100%" height="30px" preserveAspectRatio="xMaxYMin meet">
         <g id="arrow_out" transform="scale(0.3 0.3)">
          <a xlink:href="quickjs_8c_ad4da6445b7b08b23f5464ae9b51705bc_cgraph_org.svg" target="_base">
           <rect id="button" ry="5" rx="5" y="6" x="6" height="38" width="38"
                fill="#f2f5e9" fill-opacity="0.5" stroke="#606060" stroke-width="1.0"/>
           <path id="arrow"
             d="M 11.500037,31.436501 C 11.940474,20.09759 22.043105,11.32322 32.158766,21.979434 L 37.068811,17.246167 C 37.068811,17.246167 37.088388,32 37.088388,32 L 22.160133,31.978069 C 22.160133,31.978069 26.997745,27.140456 26.997745,27.140456 C 18.528582,18.264221 13.291696,25.230495 11.500037,31.436501 z"
             style="fill:#404040;"/>
          </a>
         </g>
        </svg>
</svg>
