<?xml version="1.0" encoding="UTF-8" standalone="no"?>
<!DOCTYPE svg PUBLIC "-//W3C//DTD SVG 1.1//EN"
 "http://www.w3.org/Graphics/SVG/1.1/DTD/svg11.dtd">
<!-- Generated by graphviz version 2.43.0 (0)
 -->
<!-- Title: JS_IsRegisteredClass Pages: 1 -->
<svg width="644pt" height="176pt"
 viewBox="0.00 0.00 644.00 175.50" xmlns="http://www.w3.org/2000/svg" xmlns:xlink="http://www.w3.org/1999/xlink">
<g id="graph0" class="graph" transform="scale(1 1) rotate(0) translate(4 171.5)">
<title>JS_IsRegisteredClass</title>
<!-- Node1 -->
<g id="node1" class="node">
<title>Node1</title>
<g id="a_node1"><a xlink:title=" ">
<polygon fill="#bfbfbf" stroke="black" points="518,-85 518,-104 636,-104 636,-85 518,-85"/>
<text text-anchor="middle" x="577" y="-92" font-family="Helvetica,sans-Serif" font-size="10.00">JS_IsRegisteredClass</text>
</a>
</g>
</g>
<!-- Node2 -->
<g id="node2" class="node">
<title>Node2</title>
<g id="a_node2"><a xlink:href="quickjs_8c.html#a2e66fcf1bc1d19f346317f10ee590621" target="_top" xlink:title=" ">
<polygon fill="none" stroke="black" points="344.5,-148 344.5,-167 472.5,-167 472.5,-148 344.5,-148"/>
<text text-anchor="middle" x="408.5" y="-155" font-family="Helvetica,sans-Serif" font-size="10.00">JS_AddIntrinsicPromise</text>
</a>
</g>
</g>
<!-- Node1&#45;&gt;Node2 -->
<g id="edge1" class="edge">
<title>Node1&#45;&gt;Node2</title>
<path fill="none" stroke="midnightblue" d="M549.04,-108.72C530.54,-118.08 505.23,-130.1 482,-138.5 472.21,-142.04 461.46,-145.22 451.3,-147.93"/>
<polygon fill="midnightblue" stroke="midnightblue" points="550.74,-111.78 558.04,-104.1 547.55,-105.55 550.74,-111.78"/>
</g>
<!-- Node7 -->
<g id="node5" class="node">
<title>Node7</title>
<g id="a_node5"><a xlink:href="quickjs_8c.html#a3afdbdd7b58ef7e1dcc178c362071b3d" target="_top" xlink:title=" ">
<polygon fill="none" stroke="black" points="350.5,-110 350.5,-129 466.5,-129 466.5,-110 350.5,-110"/>
<text text-anchor="middle" x="408.5" y="-117" font-family="Helvetica,sans-Serif" font-size="10.00">JS_AddIntrinsicProxy</text>
</a>
</g>
</g>
<!-- Node1&#45;&gt;Node7 -->
<g id="edge4" class="edge">
<title>Node1&#45;&gt;Node7</title>
<path fill="none" stroke="midnightblue" d="M507.5,-104.79C493.89,-106.83 479.75,-108.95 466.58,-110.93"/>
<polygon fill="midnightblue" stroke="midnightblue" points="508.4,-108.19 517.77,-103.24 507.36,-101.27 508.4,-108.19"/>
</g>
<!-- Node8 -->
<g id="node6" class="node">
<title>Node8</title>
<g id="a_node6"><a xlink:href="structqjs_1_1js__traits_3_01std_1_1shared__ptr_3_01T_01_4_01_4.html#af3558afeef079826c58411353c8ccce0" target="_top" xlink:title="Register class in QuickJS context.">
<polygon fill="none" stroke="black" points="351.5,-50 351.5,-91 465.5,-91 465.5,-50 351.5,-50"/>
<text text-anchor="start" x="359.5" y="-79" font-family="Helvetica,sans-Serif" font-size="10.00">qjs::js_traits&lt; std</text>
<text text-anchor="start" x="359.5" y="-68" font-family="Helvetica,sans-Serif" font-size="10.00">::shared_ptr&lt; T &gt; &gt;</text>
<text text-anchor="middle" x="408.5" y="-57" font-family="Helvetica,sans-Serif" font-size="10.00">::register_class</text>
</a>
</g>
</g>
<!-- Node1&#45;&gt;Node8 -->
<g id="edge6" class="edge">
<title>Node1&#45;&gt;Node8</title>
<path fill="none" stroke="midnightblue" d="M507.73,-84.66C493.76,-82.65 479.22,-80.55 465.74,-78.61"/>
<polygon fill="midnightblue" stroke="midnightblue" points="507.37,-88.14 517.77,-86.11 508.37,-81.21 507.37,-88.14"/>
</g>
<!-- Node10 -->
<g id="node8" class="node">
<title>Node10</title>
<g id="a_node8"><a xlink:href="structqjs_1_1js__traits_3_01detail_1_1function_01_4.html#afe383c63f389edaf9f878cd30062d37f" target="_top" xlink:title=" ">
<polygon fill="none" stroke="black" points="335,-0.5 335,-30.5 482,-30.5 482,-0.5 335,-0.5"/>
<text text-anchor="start" x="343" y="-18.5" font-family="Helvetica,sans-Serif" font-size="10.00">qjs::js_traits&lt; detail</text>
<text text-anchor="middle" x="408.5" y="-7.5" font-family="Helvetica,sans-Serif" font-size="10.00">::function &gt;::register_class</text>
</a>
</g>
</g>
<!-- Node1&#45;&gt;Node10 -->
<g id="edge8" class="edge">
<title>Node1&#45;&gt;Node10</title>
<path fill="none" stroke="midnightblue" d="M552.81,-79.53C534.18,-67.9 507.06,-51.9 482,-40.5 474.12,-36.92 465.57,-33.54 457.2,-30.5"/>
<polygon fill="midnightblue" stroke="midnightblue" points="551.16,-82.62 561.48,-85 554.9,-76.7 551.16,-82.62"/>
</g>
<!-- Node3 -->
<g id="node3" class="node">
<title>Node3</title>
<g id="a_node3"><a xlink:href="quickjs_8c.html#ad8aedb643b8753b7a15f6cb2df61945e" target="_top" xlink:title=" ">
<polygon fill="none" stroke="black" points="181.5,-110 181.5,-129 272.5,-129 272.5,-110 181.5,-110"/>
<text text-anchor="middle" x="227" y="-117" font-family="Helvetica,sans-Serif" font-size="10.00">JS_NewContext</text>
</a>
</g>
</g>
<!-- Node2&#45;&gt;Node3 -->
<g id="edge2" class="edge">
<title>Node2&#45;&gt;Node3</title>
<path fill="none" stroke="midnightblue" d="M352.28,-145.81C326.73,-140.4 296.76,-134.06 272.66,-128.95"/>
<polygon fill="midnightblue" stroke="midnightblue" points="351.7,-149.26 362.2,-147.91 353.15,-142.42 351.7,-149.26"/>
</g>
<!-- Node4 -->
<g id="node4" class="node">
<title>Node4</title>
<g id="a_node4"><a xlink:href="classqjs_1_1Context.html#a4392a23648acfc4bf6b445336efb5007" target="_top" xlink:title=" ">
<polygon fill="none" stroke="red" points="0,-58 0,-77 119,-77 119,-58 0,-58"/>
<text text-anchor="middle" x="59.5" y="-65" font-family="Helvetica,sans-Serif" font-size="10.00">qjs::Context::Context</text>
</a>
</g>
</g>
<!-- Node3&#45;&gt;Node4 -->
<g id="edge3" class="edge">
<title>Node3&#45;&gt;Node4</title>
<path fill="none" stroke="midnightblue" d="M185.75,-106.85C156.53,-97.67 117.6,-85.44 90.94,-77.07"/>
<polygon fill="midnightblue" stroke="midnightblue" points="185.06,-110.3 195.64,-109.96 187.15,-103.63 185.06,-110.3"/>
</g>
<!-- Node7&#45;&gt;Node3 -->
<g id="edge5" class="edge">
<title>Node7&#45;&gt;Node3</title>
<path fill="none" stroke="midnightblue" d="M340.01,-119.5C317.45,-119.5 292.89,-119.5 272.53,-119.5"/>
<polygon fill="midnightblue" stroke="midnightblue" points="340.21,-123 350.21,-119.5 340.21,-116 340.21,-123"/>
</g>
<!-- Node9 -->
<g id="node7" class="node">
<title>Node9</title>
<g id="a_node7"><a xlink:href="structqjs_1_1js__traits_3_01std_1_1shared__ptr_3_01T_01_4_01_4.html#a046f811ae16e0cb24170a8425f3e8780" target="_top" xlink:title="Create a JSValue from std::shared_ptr&lt;T&gt;.">
<polygon fill="none" stroke="black" points="155,-55.5 155,-85.5 299,-85.5 299,-55.5 155,-55.5"/>
<text text-anchor="start" x="163" y="-73.5" font-family="Helvetica,sans-Serif" font-size="10.00">qjs::js_traits&lt; std</text>
<text text-anchor="middle" x="227" y="-62.5" font-family="Helvetica,sans-Serif" font-size="10.00">::shared_ptr&lt; T &gt; &gt;::wrap</text>
</a>
</g>
</g>
<!-- Node8&#45;&gt;Node9 -->
<g id="edge7" class="edge">
<title>Node8&#45;&gt;Node9</title>
<path fill="none" stroke="midnightblue" d="M340.98,-70.5C327.39,-70.5 313.04,-70.5 299.3,-70.5"/>
<polygon fill="midnightblue" stroke="midnightblue" points="341.2,-74 351.2,-70.5 341.2,-67 341.2,-74"/>
</g>
<!-- Node11 -->
<g id="node9" class="node">
<title>Node11</title>
<g id="a_node9"><a xlink:href="classqjs_1_1Context.html#aae629cc551168d549a405db5c762b61e" target="_top" xlink:title=" ">
<polygon fill="none" stroke="black" points="178.5,-12 178.5,-31 275.5,-31 275.5,-12 178.5,-12"/>
<text text-anchor="middle" x="227" y="-19" font-family="Helvetica,sans-Serif" font-size="10.00">qjs::Context::init</text>
</a>
</g>
</g>
<!-- Node10&#45;&gt;Node11 -->
<g id="edge9" class="edge">
<title>Node10&#45;&gt;Node11</title>
<path fill="none" stroke="midnightblue" d="M324.39,-18.28C307.67,-18.84 290.63,-19.41 275.63,-19.91"/>
<polygon fill="midnightblue" stroke="midnightblue" points="324.87,-21.76 334.75,-17.93 324.64,-14.77 324.87,-21.76"/>
</g>
<!-- Node11&#45;&gt;Node4 -->
<g id="edge10" class="edge">
<title>Node11&#45;&gt;Node4</title>
<path fill="none" stroke="midnightblue" d="M182,-33.73C154.66,-41.33 120.03,-50.95 94.75,-57.98"/>
<polygon fill="midnightblue" stroke="midnightblue" points="183.01,-37.08 191.71,-31.03 181.14,-30.34 183.01,-37.08"/>
</g>
</g>
</svg>
