<?xml version="1.0" encoding="UTF-8" standalone="no"?>
<!DOCTYPE svg PUBLIC "-//W3C//DTD SVG 1.1//EN"
 "http://www.w3.org/Graphics/SVG/1.1/DTD/svg11.dtd">
<!-- Generated by graphviz version 2.43.0 (0)
 -->
<!-- Title: JS_AddIntrinsicJSON Pages: 1 -->
<!--zoomable 400 -->
<svg id="main" version="1.1" xmlns="http://www.w3.org/2000/svg" xmlns:xlink="http://www.w3.org/1999/xlink" xml:space="preserve" onload="init(evt)">
<style type="text/css"><![CDATA[
.edge:hover path { stroke: red; }
.edge:hover polygon { stroke: red; fill: red; }
]]></style>
<script type="text/javascript"><![CDATA[
var edges = document.getElementsByTagName('g');
if (edges && edges.length) {
  for (var i=0;i<edges.length;i++) {
    if (edges[i].id.substr(0,4)=='edge') {
      edges[i].setAttribute('class','edge');
    }
  }
}
]]></script>
        <defs>
                <circle id="rim" cx="0" cy="0" r="7"/>
                <circle id="rim2" cx="0" cy="0" r="3.5"/>
                <g id="zoomPlus">
                        <use xlink:href="#rim" fill="#404040">
                                <set attributeName="fill" to="#808080" begin="zoomplus.mouseover" end="zoomplus.mouseout"/>
                        </use>
                        <path d="M-4,0h8M0,-4v8" fill="none" stroke="white" stroke-width="1.5" pointer-events="none"/>
                </g>
                <g id="zoomMin">
                        <use xlink:href="#rim" fill="#404040">
                                <set attributeName="fill" to="#808080" begin="zoomminus.mouseover" end="zoomminus.mouseout"/>
                        </use>
                        <path d="M-4,0h8" fill="none" stroke="white" stroke-width="1.5" pointer-events="none"/>
                </g>
                <g id="dirArrow">
                        <path fill="none" stroke="white" stroke-width="1.5" d="M0,-3.0v7 M-2.5,-0.5L0,-3.0L2.5,-0.5"/>
                </g>
               <g id="resetDef">
                       <use xlink:href="#rim2" fill="#404040">
                               <set attributeName="fill" to="#808080" begin="reset.mouseover" end="reset.mouseout"/>
                       </use>
               </g>
        </defs>

<script type="text/javascript">
var viewWidth = 957;
var viewHeight = 400;
var sectionId = 'dynsection-1657';
</script>
<script xlink:href="svgpan.js"/>
<svg id="graph" class="graph">
<g id="viewport">
<title>JS_AddIntrinsicJSON</title>
<!-- Node1 -->
<g id="node1" class="node">
<title>Node1</title>
<g id="a_node1"><a xlink:title=" ">
<polygon fill="#bfbfbf" stroke="black" points="0,-296.6 0,-315.6 113,-315.6 113,-296.6 0,-296.6"/>
<text text-anchor="middle" x="56.5" y="-303.6" font-family="Helvetica,sans-Serif" font-size="10.00">JS_AddIntrinsicJSON</text>
</a>
</g>
</g>
<!-- Node2 -->
<g id="node2" class="node">
<title>Node2</title>
<g id="a_node2"><a xlink:href="quickjs_8c.html#ac00854b7f1f0f8567af964a2f8f2adb0" target="_top" xlink:title=" ">
<polygon fill="none" stroke="black" points="149,-296.6 149,-315.6 295,-315.6 295,-296.6 149,-296.6"/>
<text text-anchor="middle" x="222" y="-303.6" font-family="Helvetica,sans-Serif" font-size="10.00">JS_SetPropertyFunctionList</text>
</a>
</g>
</g>
<!-- Node1&#45;&gt;Node2 -->
<g id="edge1" class="edge">
<title>Node1&#45;&gt;Node2</title>
<path fill="none" stroke="midnightblue" d="M113.31,-306.1C121.56,-306.1 130.19,-306.1 138.84,-306.1"/>
<polygon fill="midnightblue" stroke="midnightblue" points="138.96,-309.6 148.96,-306.1 138.96,-302.6 138.96,-309.6"/>
</g>
<!-- Node3 -->
<g id="node3" class="node">
<title>Node3</title>
<g id="a_node3"><a xlink:href="quickjs_8c.html#ae8e62d181b34d2e7bdda0b099c0880f5" target="_top" xlink:title=" ">
<polygon fill="none" stroke="black" points="569.5,-334.6 569.5,-353.6 634.5,-353.6 634.5,-334.6 569.5,-334.6"/>
<text text-anchor="middle" x="602" y="-341.6" font-family="Helvetica,sans-Serif" font-size="10.00">find_atom</text>
</a>
</g>
</g>
<!-- Node2&#45;&gt;Node3 -->
<g id="edge2" class="edge">
<title>Node2&#45;&gt;Node3</title>
<path fill="none" stroke="midnightblue" d="M293.25,-315.62C305.81,-317.21 318.78,-318.76 331,-320.1 411.7,-328.91 506.24,-336.75 559.32,-340.92"/>
<polygon fill="midnightblue" stroke="midnightblue" points="559.13,-344.41 569.37,-341.7 559.67,-337.43 559.13,-344.41"/>
</g>
<!-- Node56 -->
<g id="node7" class="node">
<title>Node56</title>
<g id="a_node7"><a xlink:href="quickjs_8c.html#ab7fc45a99935a1c0ba50b0216d9401a9" target="_top" xlink:title=" ">
<polygon fill="none" stroke="black" points="563,-296.6 563,-315.6 641,-315.6 641,-296.6 563,-296.6"/>
<text text-anchor="middle" x="602" y="-303.6" font-family="Helvetica,sans-Serif" font-size="10.00">JS_FreeAtom</text>
</a>
</g>
</g>
<!-- Node2&#45;&gt;Node56 -->
<g id="edge6" class="edge">
<title>Node2&#45;&gt;Node56</title>
<path fill="none" stroke="midnightblue" d="M295.43,-306.1C370.98,-306.1 487.28,-306.1 552.45,-306.1"/>
<polygon fill="midnightblue" stroke="midnightblue" points="552.84,-309.6 562.84,-306.1 552.84,-302.6 552.84,-309.6"/>
</g>
<!-- Node58 -->
<g id="node9" class="node">
<title>Node58</title>
<g id="a_node9"><a xlink:href="quickjs_8c.html#a6ee4e2edda1f223a5a40e2c48b41d618" target="_top" xlink:title=" ">
<polygon fill="none" stroke="black" points="331,-182.6 331,-201.6 495,-201.6 495,-182.6 331,-182.6"/>
<text text-anchor="middle" x="413" y="-189.6" font-family="Helvetica,sans-Serif" font-size="10.00">JS_InstantiateFunctionListItem</text>
</a>
</g>
</g>
<!-- Node2&#45;&gt;Node58 -->
<g id="edge9" class="edge">
<title>Node2&#45;&gt;Node58</title>
<path fill="none" stroke="midnightblue" d="M238.79,-296.58C271.72,-276.71 347.96,-230.72 387.39,-206.94"/>
<polygon fill="midnightblue" stroke="midnightblue" points="389.37,-209.84 396.12,-201.68 385.75,-203.84 389.37,-209.84"/>
</g>
<!-- Node4 -->
<g id="node4" class="node">
<title>Node4</title>
<g id="a_node4"><a xlink:href="quickjs_8c.html#abbf44eaeace1104a6bef718fbf5700fe" target="_top" xlink:title=" ">
<polygon fill="none" stroke="black" points="720.5,-372.6 720.5,-391.6 797.5,-391.6 797.5,-372.6 720.5,-372.6"/>
<text text-anchor="middle" x="759" y="-379.6" font-family="Helvetica,sans-Serif" font-size="10.00">JS_DupAtom</text>
</a>
</g>
</g>
<!-- Node3&#45;&gt;Node4 -->
<g id="edge3" class="edge">
<title>Node3&#45;&gt;Node4</title>
<path fill="none" stroke="midnightblue" d="M634.74,-351.88C656.54,-357.22 685.86,-364.41 710.43,-370.44"/>
<polygon fill="midnightblue" stroke="midnightblue" points="709.74,-373.87 720.29,-372.85 711.41,-367.07 709.74,-373.87"/>
</g>
<!-- Node6 -->
<g id="node6" class="node">
<title>Node6</title>
<g id="a_node6"><a xlink:href="quickjs_8c.html#aa2ef5af1544a3012f91a80c98c326b8f" target="_top" xlink:title=" ">
<polygon fill="none" stroke="red" points="719.5,-334.6 719.5,-353.6 798.5,-353.6 798.5,-334.6 719.5,-334.6"/>
<text text-anchor="middle" x="759" y="-341.6" font-family="Helvetica,sans-Serif" font-size="10.00">JS_NewAtom</text>
</a>
</g>
</g>
<!-- Node3&#45;&gt;Node6 -->
<g id="edge5" class="edge">
<title>Node3&#45;&gt;Node6</title>
<path fill="none" stroke="midnightblue" d="M634.74,-344.1C656.21,-344.1 684.97,-344.1 709.31,-344.1"/>
<polygon fill="midnightblue" stroke="midnightblue" points="709.44,-347.6 719.44,-344.1 709.44,-340.6 709.44,-347.6"/>
</g>
<!-- Node5 -->
<g id="node5" class="node">
<title>Node5</title>
<g id="a_node5"><a xlink:href="quickjs_8c.html#a7f6796ee7a195631366f57c713a33f65" target="_top" xlink:title=" ">
<polygon fill="none" stroke="black" points="845,-334.6 845,-353.6 949,-353.6 949,-334.6 845,-334.6"/>
<text text-anchor="middle" x="897" y="-341.6" font-family="Helvetica,sans-Serif" font-size="10.00">__JS_AtomIsConst</text>
</a>
</g>
</g>
<!-- Node4&#45;&gt;Node5 -->
<g id="edge4" class="edge">
<title>Node4&#45;&gt;Node5</title>
<path fill="none" stroke="midnightblue" d="M794.32,-372.51C811.79,-367.63 833.24,-361.63 851.93,-356.41"/>
<polygon fill="midnightblue" stroke="midnightblue" points="853,-359.75 861.69,-353.68 851.12,-353 853,-359.75"/>
</g>
<!-- Node56&#45;&gt;Node5 -->
<g id="edge7" class="edge">
<title>Node56&#45;&gt;Node5</title>
<path fill="none" stroke="midnightblue" d="M641.14,-308.21C682.62,-310.83 750.79,-316.09 809,-325.1 821.41,-327.02 834.71,-329.63 847.08,-332.31"/>
<polygon fill="midnightblue" stroke="midnightblue" points="846.69,-335.81 857.21,-334.56 848.21,-328.98 846.69,-335.81"/>
</g>
<!-- Node57 -->
<g id="node8" class="node">
<title>Node57</title>
<g id="a_node8"><a xlink:href="quickjs_8c.html#a0bbd9e3ecd55e3ea6c9d44bfda382095" target="_top" xlink:title=" ">
<polygon fill="none" stroke="red" points="714.5,-258.6 714.5,-277.6 803.5,-277.6 803.5,-258.6 714.5,-258.6"/>
<text text-anchor="middle" x="759" y="-265.6" font-family="Helvetica,sans-Serif" font-size="10.00">__JS_FreeAtom</text>
</a>
</g>
</g>
<!-- Node56&#45;&gt;Node57 -->
<g id="edge8" class="edge">
<title>Node56&#45;&gt;Node57</title>
<path fill="none" stroke="midnightblue" d="M641.31,-296.71C661.84,-291.67 687.34,-285.42 709.26,-280.05"/>
<polygon fill="midnightblue" stroke="midnightblue" points="710.17,-283.43 719.05,-277.65 708.5,-276.63 710.17,-283.43"/>
</g>
<!-- Node58&#45;&gt;Node3 -->
<g id="edge11" class="edge">
<title>Node58&#45;&gt;Node3</title>
<path fill="none" stroke="midnightblue" d="M419.71,-201.86C434.65,-226.53 477.49,-291.76 531,-325.1 539.66,-330.49 549.84,-334.37 559.73,-337.16"/>
<polygon fill="midnightblue" stroke="midnightblue" points="558.89,-340.56 569.44,-339.6 560.59,-333.77 558.89,-340.56"/>
</g>
<!-- Node58&#45;&gt;Node56 -->
<g id="edge15" class="edge">
<title>Node58&#45;&gt;Node56</title>
<path fill="none" stroke="midnightblue" d="M424.15,-201.79C443.52,-219.83 487.66,-258.81 531,-282.1 538.89,-286.34 547.68,-290.05 556.29,-293.21"/>
<polygon fill="midnightblue" stroke="midnightblue" points="555.29,-296.56 565.88,-296.53 557.58,-289.95 555.29,-296.56"/>
</g>
<!-- Node59 -->
<g id="node10" class="node">
<title>Node59</title>
<g id="a_node10"><a xlink:href="quickjs_8h.html#a9bf98b18de88b4199910a43e933eb97d" target="_top" xlink:title=" ">
<polygon fill="none" stroke="black" points="709,-11.6 709,-30.6 809,-30.6 809,-11.6 709,-11.6"/>
<text text-anchor="middle" x="759" y="-18.6" font-family="Helvetica,sans-Serif" font-size="10.00">__JS_NewFloat64</text>
</a>
</g>
</g>
<!-- Node58&#45;&gt;Node59 -->
<g id="edge10" class="edge">
<title>Node58&#45;&gt;Node59</title>
<path fill="none" stroke="midnightblue" d="M417.06,-182.27C427.24,-151.49 463.23,-56.84 531,-21.1 588.11,9.03 665.1,0.59 713.13,-9.39"/>
<polygon fill="midnightblue" stroke="midnightblue" points="712.41,-12.81 722.93,-11.53 713.9,-5.97 712.41,-12.81"/>
</g>
<!-- Node60 -->
<g id="node11" class="node">
<title>Node60</title>
<g id="a_node11"><a xlink:href="quickjs_8c.html#a7128998511654840928b9df9d4c55b3c" target="_top" xlink:title=" ">
<polygon fill="none" stroke="red" points="531,-220.6 531,-239.6 673,-239.6 673,-220.6 531,-220.6"/>
<text text-anchor="middle" x="602" y="-227.6" font-family="Helvetica,sans-Serif" font-size="10.00">JS_DefineAutoInitProperty</text>
</a>
</g>
</g>
<!-- Node58&#45;&gt;Node60 -->
<g id="edge12" class="edge">
<title>Node58&#45;&gt;Node60</title>
<path fill="none" stroke="midnightblue" d="M461.19,-201.69C486.42,-206.82 517.67,-213.17 544.23,-218.56"/>
<polygon fill="midnightblue" stroke="midnightblue" points="543.65,-222.02 554.15,-220.58 545.05,-215.16 543.65,-222.02"/>
</g>
<!-- Node109 -->
<g id="node12" class="node">
<title>Node109</title>
<g id="a_node12"><a xlink:href="quickjs_8c.html#abfb24c507e9a341c0a98e61d86fd8663" target="_top" xlink:title=" ">
<polygon fill="none" stroke="red" points="533.5,-182.6 533.5,-201.6 670.5,-201.6 670.5,-182.6 533.5,-182.6"/>
<text text-anchor="middle" x="602" y="-189.6" font-family="Helvetica,sans-Serif" font-size="10.00">JS_DefinePropertyGetSet</text>
</a>
</g>
</g>
<!-- Node58&#45;&gt;Node109 -->
<g id="edge13" class="edge">
<title>Node58&#45;&gt;Node109</title>
<path fill="none" stroke="midnightblue" d="M495.21,-192.1C504.44,-192.1 513.84,-192.1 523.04,-192.1"/>
<polygon fill="midnightblue" stroke="midnightblue" points="523.31,-195.6 533.31,-192.1 523.31,-188.6 523.31,-195.6"/>
</g>
<!-- Node214 -->
<g id="node13" class="node">
<title>Node214</title>
<g id="a_node13"><a xlink:href="quickjs_8c.html#a0a8765bd4012467d9139bc24aabcb3ca" target="_top" xlink:title=" ">
<polygon fill="none" stroke="red" points="536.5,-144.6 536.5,-163.6 667.5,-163.6 667.5,-144.6 536.5,-144.6"/>
<text text-anchor="middle" x="602" y="-151.6" font-family="Helvetica,sans-Serif" font-size="10.00">JS_DefinePropertyValue</text>
</a>
</g>
</g>
<!-- Node58&#45;&gt;Node214 -->
<g id="edge14" class="edge">
<title>Node58&#45;&gt;Node214</title>
<path fill="none" stroke="midnightblue" d="M461.19,-182.51C486.42,-177.38 517.67,-171.03 544.23,-165.64"/>
<polygon fill="midnightblue" stroke="midnightblue" points="545.05,-169.04 554.15,-163.62 543.65,-162.18 545.05,-169.04"/>
</g>
<!-- Node146 -->
<g id="node14" class="node">
<title>Node146</title>
<g id="a_node14"><a xlink:href="quickjs_8h.html#a89b7c8686c7eee70b86be722ee4730ad" target="_top" xlink:title=" ">
<polygon fill="none" stroke="red" points="557.5,-106.6 557.5,-125.6 646.5,-125.6 646.5,-106.6 557.5,-106.6"/>
<text text-anchor="middle" x="602" y="-113.6" font-family="Helvetica,sans-Serif" font-size="10.00">JS_GetProperty</text>
</a>
</g>
</g>
<!-- Node58&#45;&gt;Node146 -->
<g id="edge16" class="edge">
<title>Node58&#45;&gt;Node146</title>
<path fill="none" stroke="midnightblue" d="M430.99,-182.55C453.37,-170.28 494.19,-148.92 531,-135.1 537.34,-132.72 544.1,-130.5 550.83,-128.48"/>
<polygon fill="midnightblue" stroke="midnightblue" points="551.96,-131.8 560.61,-125.67 550.03,-125.07 551.96,-131.8"/>
</g>
<!-- Node440 -->
<g id="node15" class="node">
<title>Node440</title>
<g id="a_node15"><a xlink:href="quickjs_8c.html#a76d4772691a319f48dc636a0e7f6c1ed" target="_top" xlink:title=" ">
<polygon fill="none" stroke="red" points="548.5,-68.6 548.5,-87.6 655.5,-87.6 655.5,-68.6 548.5,-68.6"/>
<text text-anchor="middle" x="602" y="-75.6" font-family="Helvetica,sans-Serif" font-size="10.00">JS_NewCFunction2</text>
</a>
</g>
</g>
<!-- Node58&#45;&gt;Node440 -->
<g id="edge17" class="edge">
<title>Node58&#45;&gt;Node440</title>
<path fill="none" stroke="midnightblue" d="M423.03,-182.45C441.47,-163.31 485.59,-120.37 531,-97.1 535.51,-94.79 540.33,-92.74 545.25,-90.92"/>
<polygon fill="midnightblue" stroke="midnightblue" points="546.43,-94.21 554.78,-87.7 544.19,-87.58 546.43,-94.21"/>
</g>
<!-- Node150 -->
<g id="node16" class="node">
<title>Node150</title>
<g id="a_node16"><a xlink:href="quickjs_8h.html#a2050bc428da1c65ac7eb87c3fa3b0392" target="_top" xlink:title=" ">
<polygon fill="none" stroke="black" points="720.5,-135.6 720.5,-154.6 797.5,-154.6 797.5,-135.6 720.5,-135.6"/>
<text text-anchor="middle" x="759" y="-142.6" font-family="Helvetica,sans-Serif" font-size="10.00">JS_NewInt32</text>
</a>
</g>
</g>
<!-- Node58&#45;&gt;Node150 -->
<g id="edge18" class="edge">
<title>Node58&#45;&gt;Node150</title>
<path fill="none" stroke="midnightblue" d="M428.78,-201.69C469.57,-226.86 586.47,-290.13 673,-249.1 710.22,-231.45 736.55,-188.63 749.29,-163.79"/>
<polygon fill="midnightblue" stroke="midnightblue" points="752.51,-165.17 753.78,-154.66 746.23,-162.09 752.51,-165.17"/>
</g>
<!-- Node215 -->
<g id="node17" class="node">
<title>Node215</title>
<g id="a_node17"><a xlink:href="quickjs_8h.html#a6acbc709e59969eac6775f9b253b438f" target="_top" xlink:title=" ">
<polygon fill="none" stroke="black" points="563.5,-30.6 563.5,-49.6 640.5,-49.6 640.5,-30.6 563.5,-30.6"/>
<text text-anchor="middle" x="602" y="-37.6" font-family="Helvetica,sans-Serif" font-size="10.00">JS_NewInt64</text>
</a>
</g>
</g>
<!-- Node58&#45;&gt;Node215 -->
<g id="edge19" class="edge">
<title>Node58&#45;&gt;Node215</title>
<path fill="none" stroke="midnightblue" d="M419.71,-182.34C434.65,-157.67 477.49,-92.44 531,-59.1 537.91,-54.79 545.8,-51.45 553.74,-48.85"/>
<polygon fill="midnightblue" stroke="midnightblue" points="554.74,-52.21 563.37,-46.05 552.79,-45.49 554.74,-52.21"/>
</g>
<!-- Node215&#45;&gt;Node59 -->
<g id="edge20" class="edge">
<title>Node215&#45;&gt;Node59</title>
<path fill="none" stroke="midnightblue" d="M640.52,-35.5C657.99,-33.36 679.2,-30.76 698.76,-28.36"/>
<polygon fill="midnightblue" stroke="midnightblue" points="699.31,-31.82 708.81,-27.13 698.46,-24.87 699.31,-31.82"/>
</g>
<!-- Node215&#45;&gt;Node150 -->
<g id="edge21" class="edge">
<title>Node215&#45;&gt;Node150</title>
<path fill="none" stroke="midnightblue" d="M640.78,-46.5C651.65,-49.34 663.21,-53.39 673,-59.1 703.19,-76.71 730.07,-107.79 745.17,-127.37"/>
<polygon fill="midnightblue" stroke="midnightblue" points="742.44,-129.57 751.25,-135.47 748.04,-125.37 742.44,-129.57"/>
</g>
</g>
</svg>
        <g id="navigator" transform="translate(0 0)" fill="#404254">
                <rect fill="#f2f5e9" fill-opacity="0.5" stroke="#606060" stroke-width=".5" x="0" y="0" width="60" height="60"/>
                <use id="zoomplus" xlink:href="#zoomPlus" x="17" y="9" onmousedown="handleZoom(evt,'in')"/>
                <use id="zoomminus" xlink:href="#zoomMin" x="42" y="9" onmousedown="handleZoom(evt,'out')"/>
                <use id="reset" xlink:href="#resetDef" x="30" y="36" onmousedown="handleReset()"/>
                <g id="arrowUp" xlink:href="#dirArrow" transform="translate(30 24)" onmousedown="handlePan(0,-1)">
                  <use xlink:href="#rim" fill="#404040">
                        <set attributeName="fill" to="#808080" begin="arrowUp.mouseover" end="arrowUp.mouseout"/>
                  </use>
                  <path fill="none" stroke="white" stroke-width="1.5" d="M0,-3.0v7 M-2.5,-0.5L0,-3.0L2.5,-0.5"/>
                </g>
                <g id="arrowRight" xlink:href="#dirArrow" transform="rotate(90) translate(36 -43)" onmousedown="handlePan(1,0)">
                  <use xlink:href="#rim" fill="#404040">
                        <set attributeName="fill" to="#808080" begin="arrowRight.mouseover" end="arrowRight.mouseout"/>
                  </use>
                  <path fill="none" stroke="white" stroke-width="1.5" d="M0,-3.0v7 M-2.5,-0.5L0,-3.0L2.5,-0.5"/>
                </g>
                <g id="arrowDown" xlink:href="#dirArrow" transform="rotate(180) translate(-30 -48)" onmousedown="handlePan(0,1)">
                  <use xlink:href="#rim" fill="#404040">
                        <set attributeName="fill" to="#808080" begin="arrowDown.mouseover" end="arrowDown.mouseout"/>
                  </use>
                  <path fill="none" stroke="white" stroke-width="1.5" d="M0,-3.0v7 M-2.5,-0.5L0,-3.0L2.5,-0.5"/>
                </g>
                <g id="arrowLeft" xlink:href="#dirArrow" transform="rotate(270) translate(-36 17)" onmousedown="handlePan(-1,0)">
                  <use xlink:href="#rim" fill="#404040">
                        <set attributeName="fill" to="#808080" begin="arrowLeft.mouseover" end="arrowLeft.mouseout"/>
                  </use>
                  <path fill="none" stroke="white" stroke-width="1.5" d="M0,-3.0v7 M-2.5,-0.5L0,-3.0L2.5,-0.5"/>
                </g>
        </g>
        <svg viewBox="0 0 15 15" width="100%" height="30px" preserveAspectRatio="xMaxYMin meet">
         <g id="arrow_out" transform="scale(0.3 0.3)">
          <a xlink:href="quickjs_8c_ac43d15fc0b5d1b90ae3c92779ab12725_cgraph_org.svg" target="_base">
           <rect id="button" ry="5" rx="5" y="6" x="6" height="38" width="38"
                fill="#f2f5e9" fill-opacity="0.5" stroke="#606060" stroke-width="1.0"/>
           <path id="arrow"
             d="M 11.500037,31.436501 C 11.940474,20.09759 22.043105,11.32322 32.158766,21.979434 L 37.068811,17.246167 C 37.068811,17.246167 37.088388,32 37.088388,32 L 22.160133,31.978069 C 22.160133,31.978069 26.997745,27.140456 26.997745,27.140456 C 18.528582,18.264221 13.291696,25.230495 11.500037,31.436501 z"
             style="fill:#404040;"/>
          </a>
         </g>
        </svg>
</svg>
