<?xml version="1.0" encoding="UTF-8" standalone="no"?>
<!DOCTYPE svg PUBLIC "-//W3C//DTD SVG 1.1//EN"
 "http://www.w3.org/Graphics/SVG/1.1/DTD/svg11.dtd">
<!-- Generated by graphviz version 2.43.0 (0)
 -->
<!-- Title: JS_SetPropertyFunctionList Pages: 1 -->
<svg width="763pt" height="522pt"
 viewBox="0.00 0.00 763.00 522.37" xmlns="http://www.w3.org/2000/svg" xmlns:xlink="http://www.w3.org/1999/xlink">
<g id="graph0" class="graph" transform="scale(1 1) rotate(0) translate(4 518.37)">
<title>JS_SetPropertyFunctionList</title>
<!-- Node1 -->
<g id="node1" class="node">
<title>Node1</title>
<g id="a_node1"><a xlink:title=" ">
<polygon fill="#bfbfbf" stroke="black" points="609,-247.87 609,-266.87 755,-266.87 755,-247.87 609,-247.87"/>
<text text-anchor="middle" x="682" y="-254.87" font-family="Helvetica,sans-Serif" font-size="10.00">JS_SetPropertyFunctionList</text>
</a>
</g>
</g>
<!-- Node2 -->
<g id="node2" class="node">
<title>Node2</title>
<g id="a_node2"><a xlink:href="quickjs_8c.html#ae022a327d9fa7079ad2f1d179ba5bdf0" target="_top" xlink:title=" ">
<polygon fill="none" stroke="black" points="425.5,-494.87 425.5,-513.87 553.5,-513.87 553.5,-494.87 425.5,-494.87"/>
<text text-anchor="middle" x="489.5" y="-501.87" font-family="Helvetica,sans-Serif" font-size="10.00">JS_AddIntrinsicAtomics</text>
</a>
</g>
</g>
<!-- Node1&#45;&gt;Node2 -->
<g id="edge1" class="edge">
<title>Node1&#45;&gt;Node2</title>
<path fill="none" stroke="midnightblue" d="M677.14,-276.99C667.56,-320.37 638.6,-424.95 573,-480.37 565.48,-486.72 556.35,-491.39 546.95,-494.83"/>
<polygon fill="midnightblue" stroke="midnightblue" points="680.58,-277.63 679.21,-267.12 673.73,-276.19 680.58,-277.63"/>
</g>
<!-- Node3 -->
<g id="node3" class="node">
<title>Node3</title>
<g id="a_node3"><a xlink:href="quickjs_8c.html#a177d09828596bfe6df4bd90b2e93989d" target="_top" xlink:title=" ">
<polygon fill="none" stroke="black" points="221,-456.87 221,-475.87 370,-475.87 370,-456.87 221,-456.87"/>
<text text-anchor="middle" x="295.5" y="-463.87" font-family="Helvetica,sans-Serif" font-size="10.00">JS_AddIntrinsicTypedArrays</text>
</a>
</g>
</g>
<!-- Node1&#45;&gt;Node3 -->
<g id="edge23" class="edge">
<title>Node1&#45;&gt;Node3</title>
<path fill="none" stroke="midnightblue" d="M675.79,-277.03C664.41,-315.65 633.39,-400.97 573,-439.37 510.22,-479.28 422.71,-480.9 363.06,-475.88"/>
<polygon fill="midnightblue" stroke="midnightblue" points="679.25,-277.62 678.59,-267.05 672.52,-275.73 679.25,-277.62"/>
</g>
<!-- Node8 -->
<g id="node5" class="node">
<title>Node8</title>
<g id="a_node5"><a xlink:href="quickjs_8c.html#a4c9489297c684663f30e517204a9ec14" target="_top" xlink:title=" ">
<polygon fill="none" stroke="black" points="221,-418.87 221,-437.87 370,-437.87 370,-418.87 221,-418.87"/>
<text text-anchor="middle" x="295.5" y="-425.87" font-family="Helvetica,sans-Serif" font-size="10.00">JS_AddIntrinsicBaseObjects</text>
</a>
</g>
</g>
<!-- Node1&#45;&gt;Node8 -->
<g id="edge4" class="edge">
<title>Node1&#45;&gt;Node8</title>
<path fill="none" stroke="midnightblue" d="M673.75,-276.74C659.98,-310.5 626.51,-379.38 573,-409.37 504.69,-447.65 411.48,-444.94 352.64,-437.88"/>
<polygon fill="midnightblue" stroke="midnightblue" points="677.14,-277.7 677.54,-267.11 670.62,-275.14 677.14,-277.7"/>
</g>
<!-- Node9 -->
<g id="node6" class="node">
<title>Node9</title>
<g id="a_node6"><a xlink:href="quickjs_8c.html#a7efb53c2f76fd5cc0e584449437ec09c" target="_top" xlink:title=" ">
<polygon fill="none" stroke="black" points="413.5,-380.87 413.5,-399.87 565.5,-399.87 565.5,-380.87 413.5,-380.87"/>
<text text-anchor="middle" x="489.5" y="-387.87" font-family="Helvetica,sans-Serif" font-size="10.00">JS_AddIntrinsicBasicObjects</text>
</a>
</g>
</g>
<!-- Node1&#45;&gt;Node9 -->
<g id="edge6" class="edge">
<title>Node1&#45;&gt;Node9</title>
<path fill="none" stroke="midnightblue" d="M667.9,-275.44C649.42,-299.65 613.4,-342.34 573,-366.37 562.49,-372.62 550.24,-377.33 538.46,-380.84"/>
<polygon fill="midnightblue" stroke="midnightblue" points="670.92,-277.25 674.1,-267.14 665.31,-273.06 670.92,-277.25"/>
</g>
<!-- Node11 -->
<g id="node8" class="node">
<title>Node11</title>
<g id="a_node8"><a xlink:href="quickjs_8c.html#a8ecbf5799518b7bfc3fefd47c7a0dd4e" target="_top" xlink:title=" ">
<polygon fill="none" stroke="black" points="239.5,-342.87 239.5,-361.87 351.5,-361.87 351.5,-342.87 239.5,-342.87"/>
<text text-anchor="middle" x="295.5" y="-349.87" font-family="Helvetica,sans-Serif" font-size="10.00">JS_AddIntrinsicDate</text>
</a>
</g>
</g>
<!-- Node1&#45;&gt;Node11 -->
<g id="edge9" class="edge">
<title>Node1&#45;&gt;Node11</title>
<path fill="none" stroke="midnightblue" d="M654.06,-271.61C632.64,-282.37 601.62,-296.73 573,-305.37 498.07,-328 408.22,-340.74 351.73,-347.09"/>
<polygon fill="midnightblue" stroke="midnightblue" points="655.87,-274.62 663.19,-266.95 652.69,-268.38 655.87,-274.62"/>
</g>
<!-- Node12 -->
<g id="node9" class="node">
<title>Node12</title>
<g id="a_node9"><a xlink:href="quickjs_8c.html#ac43d15fc0b5d1b90ae3c92779ab12725" target="_top" xlink:title=" ">
<polygon fill="none" stroke="black" points="239,-304.87 239,-323.87 352,-323.87 352,-304.87 239,-304.87"/>
<text text-anchor="middle" x="295.5" y="-311.87" font-family="Helvetica,sans-Serif" font-size="10.00">JS_AddIntrinsicJSON</text>
</a>
</g>
</g>
<!-- Node1&#45;&gt;Node12 -->
<g id="edge11" class="edge">
<title>Node1&#45;&gt;Node12</title>
<path fill="none" stroke="midnightblue" d="M630.62,-269.05C612.52,-273 591.9,-277.2 573,-280.37 496.8,-293.14 408.03,-303.21 352.05,-308.98"/>
<polygon fill="midnightblue" stroke="midnightblue" points="631.38,-272.47 640.39,-266.9 629.87,-265.63 631.38,-272.47"/>
</g>
<!-- Node13 -->
<g id="node10" class="node">
<title>Node13</title>
<g id="a_node10"><a xlink:href="quickjs_8c.html#a4497f8c7cf2ec38da989910ae8b1f042" target="_top" xlink:title=" ">
<polygon fill="none" stroke="black" points="233,-266.87 233,-285.87 358,-285.87 358,-266.87 233,-266.87"/>
<text text-anchor="middle" x="295.5" y="-273.87" font-family="Helvetica,sans-Serif" font-size="10.00">JS_AddIntrinsicMapSet</text>
</a>
</g>
</g>
<!-- Node1&#45;&gt;Node13 -->
<g id="edge13" class="edge">
<title>Node1&#45;&gt;Node13</title>
<path fill="none" stroke="midnightblue" d="M598.27,-261.46C526.12,-265.02 423.1,-270.11 358.04,-273.33"/>
<polygon fill="midnightblue" stroke="midnightblue" points="598.86,-264.93 608.68,-260.94 598.52,-257.94 598.86,-264.93"/>
</g>
<!-- Node14 -->
<g id="node11" class="node">
<title>Node14</title>
<g id="a_node11"><a xlink:href="quickjs_8c.html#a2e66fcf1bc1d19f346317f10ee590621" target="_top" xlink:title=" ">
<polygon fill="none" stroke="black" points="425.5,-228.87 425.5,-247.87 553.5,-247.87 553.5,-228.87 425.5,-228.87"/>
<text text-anchor="middle" x="489.5" y="-235.87" font-family="Helvetica,sans-Serif" font-size="10.00">JS_AddIntrinsicPromise</text>
</a>
</g>
</g>
<!-- Node1&#45;&gt;Node14 -->
<g id="edge15" class="edge">
<title>Node1&#45;&gt;Node14</title>
<path fill="none" stroke="midnightblue" d="M598.62,-249.15C583.52,-247.65 567.99,-246.1 553.57,-244.66"/>
<polygon fill="midnightblue" stroke="midnightblue" points="598.68,-252.68 608.98,-250.19 599.38,-245.71 598.68,-252.68"/>
</g>
<!-- Node15 -->
<g id="node12" class="node">
<title>Node15</title>
<g id="a_node12"><a xlink:href="quickjs_8c.html#a3afdbdd7b58ef7e1dcc178c362071b3d" target="_top" xlink:title=" ">
<polygon fill="none" stroke="black" points="431.5,-190.87 431.5,-209.87 547.5,-209.87 547.5,-190.87 431.5,-190.87"/>
<text text-anchor="middle" x="489.5" y="-197.87" font-family="Helvetica,sans-Serif" font-size="10.00">JS_AddIntrinsicProxy</text>
</a>
</g>
</g>
<!-- Node1&#45;&gt;Node15 -->
<g id="edge17" class="edge">
<title>Node1&#45;&gt;Node15</title>
<path fill="none" stroke="midnightblue" d="M646.89,-244.26C625.79,-236.44 598.05,-226.63 573,-219.37 561.14,-215.93 548.18,-212.7 536.12,-209.92"/>
<polygon fill="midnightblue" stroke="midnightblue" points="645.78,-247.59 656.38,-247.82 648.24,-241.03 645.78,-247.59"/>
</g>
<!-- Node16 -->
<g id="node13" class="node">
<title>Node16</title>
<g id="a_node13"><a xlink:href="quickjs_8c.html#aafc8241682ce24b6d72e0f237ee85a51" target="_top" xlink:title=" ">
<polygon fill="none" stroke="black" points="427,-152.87 427,-171.87 552,-171.87 552,-152.87 427,-152.87"/>
<text text-anchor="middle" x="489.5" y="-159.87" font-family="Helvetica,sans-Serif" font-size="10.00">JS_AddIntrinsicRegExp</text>
</a>
</g>
</g>
<!-- Node1&#45;&gt;Node16 -->
<g id="edge19" class="edge">
<title>Node1&#45;&gt;Node16</title>
<path fill="none" stroke="midnightblue" d="M662.94,-241.3C642.52,-223.98 607.59,-196.81 573,-181.37 564.41,-177.53 554.96,-174.43 545.61,-171.93"/>
<polygon fill="midnightblue" stroke="midnightblue" points="660.66,-243.96 670.52,-247.85 665.24,-238.66 660.66,-243.96"/>
</g>
<!-- Node17 -->
<g id="node14" class="node">
<title>Node17</title>
<g id="a_node14"><a xlink:href="quickjs_8c.html#abd9525850b564b2c2d2cb6ddfd89b1c6" target="_top" xlink:title=" ">
<polygon fill="none" stroke="black" points="406,-114.87 406,-133.87 573,-133.87 573,-114.87 406,-114.87"/>
<text text-anchor="middle" x="489.5" y="-121.87" font-family="Helvetica,sans-Serif" font-size="10.00">JS_AddIntrinsicStringNormalize</text>
</a>
</g>
</g>
<!-- Node1&#45;&gt;Node17 -->
<g id="edge21" class="edge">
<title>Node1&#45;&gt;Node17</title>
<path fill="none" stroke="midnightblue" d="M669.07,-239.21C651.29,-213.68 615.37,-167.59 573,-143.37 566.24,-139.5 558.74,-136.42 551.1,-133.97"/>
<polygon fill="midnightblue" stroke="midnightblue" points="666.26,-241.31 674.77,-247.61 672.05,-237.37 666.26,-241.31"/>
</g>
<!-- Node18 -->
<g id="node15" class="node">
<title>Node18</title>
<g id="a_node15"><a xlink:href="quickjs-libc_8c.html#a066e7962ce24f22d5df20968a8baa346" target="_top" xlink:title=" ">
<polygon fill="none" stroke="black" points="264.5,-57.87 264.5,-76.87 326.5,-76.87 326.5,-57.87 264.5,-57.87"/>
<text text-anchor="middle" x="295.5" y="-64.87" font-family="Helvetica,sans-Serif" font-size="10.00">js_os_init</text>
</a>
</g>
</g>
<!-- Node1&#45;&gt;Node18 -->
<g id="edge24" class="edge">
<title>Node1&#45;&gt;Node18</title>
<path fill="none" stroke="midnightblue" d="M673.54,-238.36C659.43,-205.17 625.46,-137.16 573,-105.37 532.08,-80.57 389.73,-71.42 326.81,-68.53"/>
<polygon fill="midnightblue" stroke="midnightblue" points="670.39,-239.9 677.42,-247.82 676.87,-237.24 670.39,-239.9"/>
</g>
<!-- Node20 -->
<g id="node18" class="node">
<title>Node20</title>
<g id="a_node18"><a xlink:href="quickjs_8c.html#a04f1ec3f8d1f5c012280eb23e64a7b58" target="_top" xlink:title=" ">
<polygon fill="none" stroke="black" points="424,-38.87 424,-57.87 555,-57.87 555,-38.87 424,-38.87"/>
<text text-anchor="middle" x="489.5" y="-45.87" font-family="Helvetica,sans-Serif" font-size="10.00">JS_SetModuleExportList</text>
</a>
</g>
</g>
<!-- Node1&#45;&gt;Node20 -->
<g id="edge27" class="edge">
<title>Node1&#45;&gt;Node20</title>
<path fill="none" stroke="midnightblue" d="M675.05,-237.8C662.53,-199.99 629.84,-116.73 573,-72.37 564.89,-66.04 555.15,-61.37 545.26,-57.94"/>
<polygon fill="midnightblue" stroke="midnightblue" points="671.79,-239.13 678.17,-247.59 678.46,-237 671.79,-239.13"/>
</g>
<!-- Node21 -->
<g id="node19" class="node">
<title>Node21</title>
<g id="a_node19"><a xlink:href="quickjs-libc_8c.html#a08cea1a0226b7603e6969e2208d99d55" target="_top" xlink:title=" ">
<polygon fill="none" stroke="black" points="262.5,-19.87 262.5,-38.87 328.5,-38.87 328.5,-19.87 262.5,-19.87"/>
<text text-anchor="middle" x="295.5" y="-26.87" font-family="Helvetica,sans-Serif" font-size="10.00">js_std_init</text>
</a>
</g>
</g>
<!-- Node1&#45;&gt;Node21 -->
<g id="edge32" class="edge">
<title>Node1&#45;&gt;Node21</title>
<path fill="none" stroke="midnightblue" d="M678.62,-237.75C671.86,-191.65 647.88,-76.75 573,-29.37 495.73,19.53 380.35,-4.34 326.36,-19.76"/>
<polygon fill="midnightblue" stroke="midnightblue" points="675.16,-238.23 679.96,-247.67 682.09,-237.29 675.16,-238.23"/>
</g>
<!-- Node2&#45;&gt;Node3 -->
<g id="edge2" class="edge">
<title>Node2&#45;&gt;Node3</title>
<path fill="none" stroke="midnightblue" d="M430.2,-492.83C402.82,-487.41 370.57,-481.03 344.6,-475.89"/>
<polygon fill="midnightblue" stroke="midnightblue" points="429.56,-496.27 440.05,-494.78 430.92,-489.4 429.56,-496.27"/>
</g>
<!-- Node4 -->
<g id="node4" class="node">
<title>Node4</title>
<g id="a_node4"><a xlink:href="quickjs_8c.html#ad8aedb643b8753b7a15f6cb2df61945e" target="_top" xlink:title=" ">
<polygon fill="none" stroke="red" points="85.5,-285.87 85.5,-304.87 176.5,-304.87 176.5,-285.87 85.5,-285.87"/>
<text text-anchor="middle" x="131" y="-292.87" font-family="Helvetica,sans-Serif" font-size="10.00">JS_NewContext</text>
</a>
</g>
</g>
<!-- Node3&#45;&gt;Node4 -->
<g id="edge3" class="edge">
<title>Node3&#45;&gt;Node4</title>
<path fill="none" stroke="midnightblue" d="M228.94,-452.48C226.16,-450.95 223.5,-449.25 221,-447.37 170.01,-408.84 142.96,-331.91 134.74,-304.96"/>
<polygon fill="midnightblue" stroke="midnightblue" points="227.62,-455.73 238.15,-456.83 230.6,-449.4 227.62,-455.73"/>
</g>
<!-- Node8&#45;&gt;Node4 -->
<g id="edge5" class="edge">
<title>Node8&#45;&gt;Node4</title>
<path fill="none" stroke="midnightblue" d="M231.04,-414.93C227.54,-413.29 224.16,-411.44 221,-409.37 178.8,-381.69 148,-327.2 136.71,-305.06"/>
<polygon fill="midnightblue" stroke="midnightblue" points="229.97,-418.28 240.55,-418.84 232.63,-411.8 229.97,-418.28"/>
</g>
<!-- Node10 -->
<g id="node7" class="node">
<title>Node10</title>
<g id="a_node7"><a xlink:href="quickjs_8c.html#a442ff496ba00319ad39eb0a129b9eb8b" target="_top" xlink:title=" ">
<polygon fill="none" stroke="black" points="239.5,-380.87 239.5,-399.87 351.5,-399.87 351.5,-380.87 239.5,-380.87"/>
<text text-anchor="middle" x="295.5" y="-387.87" font-family="Helvetica,sans-Serif" font-size="10.00">JS_NewContextRaw</text>
</a>
</g>
</g>
<!-- Node9&#45;&gt;Node10 -->
<g id="edge7" class="edge">
<title>Node9&#45;&gt;Node10</title>
<path fill="none" stroke="midnightblue" d="M403.21,-390.37C385.69,-390.37 367.7,-390.37 351.59,-390.37"/>
<polygon fill="midnightblue" stroke="midnightblue" points="403.44,-393.87 413.44,-390.37 403.44,-386.87 403.44,-393.87"/>
</g>
<!-- Node10&#45;&gt;Node4 -->
<g id="edge8" class="edge">
<title>Node10&#45;&gt;Node4</title>
<path fill="none" stroke="midnightblue" d="M235.19,-377.59C230.28,-375.77 225.49,-373.7 221,-371.37 187.12,-353.73 155,-321.01 140.33,-304.87"/>
<polygon fill="midnightblue" stroke="midnightblue" points="234.13,-380.92 244.72,-380.79 236.36,-374.29 234.13,-380.92"/>
</g>
<!-- Node11&#45;&gt;Node4 -->
<g id="edge10" class="edge">
<title>Node11&#45;&gt;Node4</title>
<path fill="none" stroke="midnightblue" d="M243.21,-340.17C235.7,-338.08 228.11,-335.79 221,-333.37 196.83,-325.14 169.98,-313.28 152.16,-305.01"/>
<polygon fill="midnightblue" stroke="midnightblue" points="242.4,-343.58 252.97,-342.8 244.23,-336.82 242.4,-343.58"/>
</g>
<!-- Node12&#45;&gt;Node4 -->
<g id="edge12" class="edge">
<title>Node12&#45;&gt;Node4</title>
<path fill="none" stroke="midnightblue" d="M228.47,-306.65C211.08,-304.61 192.73,-302.47 176.75,-300.6"/>
<polygon fill="midnightblue" stroke="midnightblue" points="228.24,-310.14 238.58,-307.83 229.05,-303.19 228.24,-310.14"/>
</g>
<!-- Node13&#45;&gt;Node4 -->
<g id="edge14" class="edge">
<title>Node13&#45;&gt;Node4</title>
<path fill="none" stroke="midnightblue" d="M222.43,-284.79C206.81,-286.62 190.74,-288.5 176.55,-290.16"/>
<polygon fill="midnightblue" stroke="midnightblue" points="223.08,-288.24 232.6,-283.61 222.26,-281.29 223.08,-288.24"/>
</g>
<!-- Node14&#45;&gt;Node4 -->
<g id="edge16" class="edge">
<title>Node14&#45;&gt;Node4</title>
<path fill="none" stroke="midnightblue" d="M415.21,-237.07C360.88,-237.67 285.41,-241.8 221,-257.37 195.03,-263.65 166.99,-276.78 149.47,-285.84"/>
<polygon fill="midnightblue" stroke="midnightblue" points="415.47,-240.57 425.44,-237 415.42,-233.57 415.47,-240.57"/>
</g>
<!-- Node15&#45;&gt;Node4 -->
<g id="edge18" class="edge">
<title>Node15&#45;&gt;Node4</title>
<path fill="none" stroke="midnightblue" d="M421.25,-200.23C365.84,-202.14 286.08,-209.6 221,-234.37 189.31,-246.43 157.94,-271.93 142.28,-285.83"/>
<polygon fill="midnightblue" stroke="midnightblue" points="421.41,-203.73 431.3,-199.93 421.2,-196.73 421.41,-203.73"/>
</g>
<!-- Node16&#45;&gt;Node4 -->
<g id="edge20" class="edge">
<title>Node16&#45;&gt;Node4</title>
<path fill="none" stroke="midnightblue" d="M416.58,-159.47C360.34,-160.14 281.77,-167.71 221,-199.37 181.29,-220.06 149.99,-265.75 137.68,-285.72"/>
<polygon fill="midnightblue" stroke="midnightblue" points="416.83,-162.97 426.81,-159.42 416.79,-155.97 416.83,-162.97"/>
</g>
<!-- Node17&#45;&gt;Node4 -->
<g id="edge22" class="edge">
<title>Node17&#45;&gt;Node4</title>
<path fill="none" stroke="midnightblue" d="M395.82,-116.98C341.11,-116.98 272.68,-124.94 221,-157.37 171.01,-188.73 143.67,-259.6 135.04,-285.58"/>
<polygon fill="midnightblue" stroke="midnightblue" points="395.83,-120.48 405.87,-117.07 395.9,-113.48 395.83,-120.48"/>
</g>
<!-- Node19 -->
<g id="node16" class="node">
<title>Node19</title>
<g id="a_node16"><a xlink:href="quickjs-libc_8c.html#adcca2b4a661355e6ff87a0def2339894" target="_top" xlink:title=" ">
<polygon fill="none" stroke="black" points="79,-57.87 79,-76.87 183,-76.87 183,-57.87 79,-57.87"/>
<text text-anchor="middle" x="131" y="-64.87" font-family="Helvetica,sans-Serif" font-size="10.00">js_init_module_os</text>
</a>
</g>
</g>
<!-- Node18&#45;&gt;Node19 -->
<g id="edge25" class="edge">
<title>Node18&#45;&gt;Node19</title>
<path fill="none" stroke="midnightblue" d="M254.22,-67.37C232.72,-67.37 206.04,-67.37 183.1,-67.37"/>
<polygon fill="midnightblue" stroke="midnightblue" points="254.32,-70.87 264.32,-67.37 254.32,-63.87 254.32,-70.87"/>
</g>
<!-- Node7 -->
<g id="node17" class="node">
<title>Node7</title>
<g id="a_node17"><a xlink:href="qjs_8cpp.html#a3c04138a5bfe5d72780bb7e82a18e627" target="_top" xlink:title=" ">
<polygon fill="none" stroke="black" points="0,-38.87 0,-57.87 41,-57.87 41,-38.87 0,-38.87"/>
<text text-anchor="middle" x="20.5" y="-45.87" font-family="Helvetica,sans-Serif" font-size="10.00">main</text>
</a>
</g>
</g>
<!-- Node19&#45;&gt;Node7 -->
<g id="edge26" class="edge">
<title>Node19&#45;&gt;Node7</title>
<path fill="none" stroke="midnightblue" d="M68.87,-56.66C58.87,-54.91 49.19,-53.22 41.21,-51.82"/>
<polygon fill="midnightblue" stroke="midnightblue" points="68.47,-60.15 78.93,-58.42 69.68,-53.25 68.47,-60.15"/>
</g>
<!-- Node20&#45;&gt;Node18 -->
<g id="edge28" class="edge">
<title>Node20&#45;&gt;Node18</title>
<path fill="none" stroke="midnightblue" d="M413.6,-55.78C383.22,-58.79 349.88,-62.09 326.57,-64.39"/>
<polygon fill="midnightblue" stroke="midnightblue" points="414.16,-59.24 423.77,-54.77 413.47,-52.28 414.16,-59.24"/>
</g>
<!-- Node20&#45;&gt;Node21 -->
<g id="edge29" class="edge">
<title>Node20&#45;&gt;Node21</title>
<path fill="none" stroke="midnightblue" d="M413.48,-40.94C384.04,-38.03 351.82,-34.84 328.66,-32.55"/>
<polygon fill="midnightblue" stroke="midnightblue" points="413.47,-44.46 423.77,-41.96 414.16,-37.49 413.47,-44.46"/>
</g>
<!-- Node22 -->
<g id="node20" class="node">
<title>Node22</title>
<g id="a_node20"><a xlink:href="quickjs-libc_8c.html#a0e65c67dfff872a664f8d29e7eae5a61" target="_top" xlink:title=" ">
<polygon fill="none" stroke="black" points="77,-19.87 77,-38.87 185,-38.87 185,-19.87 77,-19.87"/>
<text text-anchor="middle" x="131" y="-26.87" font-family="Helvetica,sans-Serif" font-size="10.00">js_init_module_std</text>
</a>
</g>
</g>
<!-- Node21&#45;&gt;Node22 -->
<g id="edge30" class="edge">
<title>Node21&#45;&gt;Node22</title>
<path fill="none" stroke="midnightblue" d="M252.12,-29.37C231.65,-29.37 206.87,-29.37 185.15,-29.37"/>
<polygon fill="midnightblue" stroke="midnightblue" points="252.4,-32.87 262.4,-29.37 252.4,-25.87 252.4,-32.87"/>
</g>
<!-- Node22&#45;&gt;Node7 -->
<g id="edge31" class="edge">
<title>Node22&#45;&gt;Node7</title>
<path fill="none" stroke="midnightblue" d="M66.58,-40.47C57.33,-42.09 48.45,-43.65 41.05,-44.94"/>
<polygon fill="midnightblue" stroke="midnightblue" points="67.46,-43.87 76.7,-38.7 66.25,-36.98 67.46,-43.87"/>
</g>
</g>
</svg>
