<?xml version="1.0" encoding="UTF-8" standalone="no"?>
<!DOCTYPE svg PUBLIC "-//W3C//DTD SVG 1.1//EN"
 "http://www.w3.org/Graphics/SVG/1.1/DTD/svg11.dtd">
<!-- Generated by graphviz version 2.43.0 (0)
 -->
<!-- Title: js_number_toExponential Pages: 1 -->
<!--zoomable 332 -->
<svg id="main" version="1.1" xmlns="http://www.w3.org/2000/svg" xmlns:xlink="http://www.w3.org/1999/xlink" xml:space="preserve" onload="init(evt)">
<style type="text/css"><![CDATA[
.edge:hover path { stroke: red; }
.edge:hover polygon { stroke: red; fill: red; }
]]></style>
<script type="text/javascript"><![CDATA[
var edges = document.getElementsByTagName('g');
if (edges && edges.length) {
  for (var i=0;i<edges.length;i++) {
    if (edges[i].id.substr(0,4)=='edge') {
      edges[i].setAttribute('class','edge');
    }
  }
}
]]></script>
        <defs>
                <circle id="rim" cx="0" cy="0" r="7"/>
                <circle id="rim2" cx="0" cy="0" r="3.5"/>
                <g id="zoomPlus">
                        <use xlink:href="#rim" fill="#404040">
                                <set attributeName="fill" to="#808080" begin="zoomplus.mouseover" end="zoomplus.mouseout"/>
                        </use>
                        <path d="M-4,0h8M0,-4v8" fill="none" stroke="white" stroke-width="1.5" pointer-events="none"/>
                </g>
                <g id="zoomMin">
                        <use xlink:href="#rim" fill="#404040">
                                <set attributeName="fill" to="#808080" begin="zoomminus.mouseover" end="zoomminus.mouseout"/>
                        </use>
                        <path d="M-4,0h8" fill="none" stroke="white" stroke-width="1.5" pointer-events="none"/>
                </g>
                <g id="dirArrow">
                        <path fill="none" stroke="white" stroke-width="1.5" d="M0,-3.0v7 M-2.5,-0.5L0,-3.0L2.5,-0.5"/>
                </g>
               <g id="resetDef">
                       <use xlink:href="#rim2" fill="#404040">
                               <set attributeName="fill" to="#808080" begin="reset.mouseover" end="reset.mouseout"/>
                       </use>
               </g>
        </defs>

<script type="text/javascript">
var viewWidth = 581;
var viewHeight = 332;
var sectionId = 'dynsection-1524';
</script>
<script xlink:href="svgpan.js"/>
<svg id="graph" class="graph">
<g id="viewport">
<title>js_number_toExponential</title>
<!-- Node1 -->
<g id="node1" class="node">
<title>Node1</title>
<g id="a_node1"><a xlink:title=" ">
<polygon fill="#bfbfbf" stroke="black" points="0,-133.5 0,-152.5 140,-152.5 140,-133.5 0,-133.5"/>
<text text-anchor="middle" x="70" y="-140.5" font-family="Helvetica,sans-Serif" font-size="10.00">js_number_toExponential</text>
</a>
</g>
</g>
<!-- Node2 -->
<g id="node2" class="node">
<title>Node2</title>
<g id="a_node2"><a xlink:href="quickjs_8h.html#a9bf98b18de88b4199910a43e933eb97d" target="_top" xlink:title=" ">
<polygon fill="none" stroke="black" points="183,-266.5 183,-285.5 283,-285.5 283,-266.5 183,-266.5"/>
<text text-anchor="middle" x="233" y="-273.5" font-family="Helvetica,sans-Serif" font-size="10.00">__JS_NewFloat64</text>
</a>
</g>
</g>
<!-- Node1&#45;&gt;Node2 -->
<g id="edge1" class="edge">
<title>Node1&#45;&gt;Node2</title>
<path fill="none" stroke="midnightblue" d="M77.4,-152.77C92.18,-174.58 130.89,-227.65 176,-257 179.11,-259.02 182.46,-260.85 185.91,-262.5"/>
<polygon fill="midnightblue" stroke="midnightblue" points="184.65,-265.77 195.22,-266.47 187.39,-259.33 184.65,-265.77"/>
</g>
<!-- Node3 -->
<g id="node3" class="node">
<title>Node3</title>
<g id="a_node3"><a xlink:href="quickjs_8c.html#a6508a2922531adcb280bbff485a9a44a" target="_top" xlink:title=" ">
<polygon fill="none" stroke="black" points="207,-228.5 207,-247.5 259,-247.5 259,-228.5 207,-228.5"/>
<text text-anchor="middle" x="233" y="-235.5" font-family="Helvetica,sans-Serif" font-size="10.00">js_dtoa</text>
</a>
</g>
</g>
<!-- Node1&#45;&gt;Node3 -->
<g id="edge2" class="edge">
<title>Node1&#45;&gt;Node3</title>
<path fill="none" stroke="midnightblue" d="M83.44,-152.56C102.61,-167.02 140.85,-194.81 176,-214 182.77,-217.69 190.22,-221.23 197.42,-224.4"/>
<polygon fill="midnightblue" stroke="midnightblue" points="196.42,-227.78 206.99,-228.47 199.16,-221.33 196.42,-227.78"/>
</g>
<!-- Node38 -->
<g id="node10" class="node">
<title>Node38</title>
<g id="a_node10"><a xlink:href="quickjs_8h.html#ad80a83d73e9b7d872b88fbf2943aebe9" target="_top" xlink:title=" ">
<polygon fill="none" stroke="black" points="479,-152.5 479,-171.5 566,-171.5 566,-152.5 479,-152.5"/>
<text text-anchor="middle" x="522.5" y="-159.5" font-family="Helvetica,sans-Serif" font-size="10.00">JS_IsException</text>
</a>
</g>
</g>
<!-- Node1&#45;&gt;Node38 -->
<g id="edge9" class="edge">
<title>Node1&#45;&gt;Node38</title>
<path fill="none" stroke="midnightblue" d="M90.95,-152.59C111.65,-161.97 145.26,-175.61 176,-181 289.82,-200.96 321.13,-193.61 436,-181 449.49,-179.52 463.97,-176.76 477.1,-173.8"/>
<polygon fill="midnightblue" stroke="midnightblue" points="477.91,-177.2 486.85,-171.51 476.31,-170.39 477.91,-177.2"/>
</g>
<!-- Node39 -->
<g id="node11" class="node">
<title>Node39</title>
<g id="a_node11"><a xlink:href="quickjs_8h.html#a4e407128a9605afb77523e49e9a627fd" target="_top" xlink:title=" ">
<polygon fill="none" stroke="black" points="188.5,-38.5 188.5,-57.5 277.5,-57.5 277.5,-38.5 188.5,-38.5"/>
<text text-anchor="middle" x="233" y="-45.5" font-family="Helvetica,sans-Serif" font-size="10.00">JS_IsUndefined</text>
</a>
</g>
</g>
<!-- Node1&#45;&gt;Node39 -->
<g id="edge10" class="edge">
<title>Node1&#45;&gt;Node39</title>
<path fill="none" stroke="midnightblue" d="M81.92,-133.37C100.23,-117.63 138.81,-86.21 176,-67 180.06,-64.9 184.4,-62.96 188.8,-61.18"/>
<polygon fill="midnightblue" stroke="midnightblue" points="190.32,-64.35 198.45,-57.56 187.86,-57.8 190.32,-64.35"/>
</g>
<!-- Node40 -->
<g id="node12" class="node">
<title>Node40</title>
<g id="a_node12"><a xlink:href="quickjs_8c.html#a0d3fa47d2f86605d823f947020971a39" target="_top" xlink:title=" ">
<polygon fill="none" stroke="black" points="176,-76.5 176,-95.5 290,-95.5 290,-76.5 176,-76.5"/>
<text text-anchor="middle" x="233" y="-83.5" font-family="Helvetica,sans-Serif" font-size="10.00">js_thisNumberValue</text>
</a>
</g>
</g>
<!-- Node1&#45;&gt;Node40 -->
<g id="edge11" class="edge">
<title>Node1&#45;&gt;Node40</title>
<path fill="none" stroke="midnightblue" d="M96.84,-133.48C118.06,-125.71 148.92,-114.49 176,-105 181.71,-103 187.76,-100.91 193.69,-98.88"/>
<polygon fill="midnightblue" stroke="midnightblue" points="195.13,-102.09 203.47,-95.56 192.88,-95.46 195.13,-102.09"/>
</g>
<!-- Node42 -->
<g id="node15" class="node">
<title>Node42</title>
<g id="a_node15"><a xlink:href="quickjs_8c.html#ab1b614ef35f1cea05da0ad4927c53118" target="_top" xlink:title=" ">
<polygon fill="none" stroke="black" points="183.5,-152.5 183.5,-171.5 282.5,-171.5 282.5,-152.5 183.5,-152.5"/>
<text text-anchor="middle" x="233" y="-159.5" font-family="Helvetica,sans-Serif" font-size="10.00">JS_ToFloat64Free</text>
</a>
</g>
</g>
<!-- Node1&#45;&gt;Node42 -->
<g id="edge14" class="edge">
<title>Node1&#45;&gt;Node42</title>
<path fill="none" stroke="midnightblue" d="M140.21,-151.17C151.19,-152.46 162.46,-153.79 173.17,-155.06"/>
<polygon fill="midnightblue" stroke="midnightblue" points="172.9,-158.55 183.24,-156.25 173.72,-151.6 172.9,-158.55"/>
</g>
<!-- Node437 -->
<g id="node18" class="node">
<title>Node437</title>
<g id="a_node18"><a xlink:href="quickjs_8c.html#ad698ea01233894f912303776fe3c08c8" target="_top" xlink:title=" ">
<polygon fill="none" stroke="black" points="192,-114.5 192,-133.5 274,-133.5 274,-114.5 192,-114.5"/>
<text text-anchor="middle" x="233" y="-121.5" font-family="Helvetica,sans-Serif" font-size="10.00">JS_ToInt32Sat</text>
</a>
</g>
</g>
<!-- Node1&#45;&gt;Node437 -->
<g id="edge18" class="edge">
<title>Node1&#45;&gt;Node437</title>
<path fill="none" stroke="midnightblue" d="M140.21,-134.83C154.07,-133.2 168.37,-131.51 181.45,-129.97"/>
<polygon fill="midnightblue" stroke="midnightblue" points="182.12,-133.41 191.65,-128.76 181.3,-126.46 182.12,-133.41"/>
</g>
<!-- Node260 -->
<g id="node20" class="node">
<title>Node260</title>
<g id="a_node20"><a xlink:href="quickjs_8c.html#a38cad713b74c445668210ea8614bfb65" target="_top" xlink:title=" ">
<polygon fill="none" stroke="red" points="187.5,-0.5 187.5,-19.5 278.5,-19.5 278.5,-0.5 187.5,-0.5"/>
<text text-anchor="middle" x="233" y="-7.5" font-family="Helvetica,sans-Serif" font-size="10.00">JS_ToStringFree</text>
</a>
</g>
</g>
<!-- Node1&#45;&gt;Node260 -->
<g id="edge23" class="edge">
<title>Node1&#45;&gt;Node260</title>
<path fill="none" stroke="midnightblue" d="M77.4,-133.23C92.18,-111.42 130.89,-58.35 176,-29 179.11,-26.98 182.46,-25.15 185.91,-23.5"/>
<polygon fill="midnightblue" stroke="midnightblue" points="187.39,-26.67 195.22,-19.53 184.65,-20.23 187.39,-26.67"/>
</g>
<!-- Node4 -->
<g id="node4" class="node">
<title>Node4</title>
<g id="a_node4"><a xlink:href="quickjs_8c.html#a7ba39dd8c4124908e1c12e2d3267767c" target="_top" xlink:title=" ">
<polygon fill="none" stroke="black" points="352,-228.5 352,-247.5 410,-247.5 410,-228.5 352,-228.5"/>
<text text-anchor="middle" x="381" y="-235.5" font-family="Helvetica,sans-Serif" font-size="10.00">js_dtoa1</text>
</a>
</g>
</g>
<!-- Node3&#45;&gt;Node4 -->
<g id="edge3" class="edge">
<title>Node3&#45;&gt;Node4</title>
<path fill="none" stroke="midnightblue" d="M259.1,-238C281.81,-238 315.61,-238 341.7,-238"/>
<polygon fill="midnightblue" stroke="midnightblue" points="341.99,-241.5 351.99,-238 341.99,-234.5 341.99,-241.5"/>
</g>
<!-- Node10 -->
<g id="node8" class="node">
<title>Node10</title>
<g id="a_node8"><a xlink:href="quickjs_8c.html#a0ee6a3654a6016393fac5e1c108f403a" target="_top" xlink:title=" ">
<polygon fill="none" stroke="black" points="340.5,-285.5 340.5,-304.5 421.5,-304.5 421.5,-285.5 340.5,-285.5"/>
<text text-anchor="middle" x="381" y="-292.5" font-family="Helvetica,sans-Serif" font-size="10.00">JS_NewString</text>
</a>
</g>
</g>
<!-- Node3&#45;&gt;Node10 -->
<g id="edge7" class="edge">
<title>Node3&#45;&gt;Node10</title>
<path fill="none" stroke="midnightblue" d="M259.23,-246.13C268.91,-249.36 280.02,-253.21 290,-257 309.75,-264.51 331.58,-273.7 348.8,-281.17"/>
<polygon fill="midnightblue" stroke="midnightblue" points="347.79,-284.55 358.35,-285.34 350.59,-278.13 347.79,-284.55"/>
</g>
<!-- Node5 -->
<g id="node5" class="node">
<title>Node5</title>
<g id="a_node5"><a xlink:href="quickjs_8c.html#a8005e0fac8fb44a3516d0d75375af433" target="_top" xlink:title=" ">
<polygon fill="none" stroke="black" points="499,-228.5 499,-247.5 546,-247.5 546,-228.5 499,-228.5"/>
<text text-anchor="middle" x="522.5" y="-235.5" font-family="Helvetica,sans-Serif" font-size="10.00">i64toa</text>
</a>
</g>
</g>
<!-- Node4&#45;&gt;Node5 -->
<g id="edge4" class="edge">
<title>Node4&#45;&gt;Node5</title>
<path fill="none" stroke="midnightblue" d="M410.23,-238C432.88,-238 464.7,-238 488.52,-238"/>
<polygon fill="midnightblue" stroke="midnightblue" points="488.83,-241.5 498.83,-238 488.83,-234.5 488.83,-241.5"/>
</g>
<!-- Node6 -->
<g id="node6" class="node">
<title>Node6</title>
<g id="a_node6"><a xlink:href="quickjs_8c.html#a3361a59ceaddbd4c2081315f6f5f1978" target="_top" xlink:title=" ">
<polygon fill="none" stroke="red" points="497,-190.5 497,-209.5 548,-209.5 548,-190.5 497,-190.5"/>
<text text-anchor="middle" x="522.5" y="-197.5" font-family="Helvetica,sans-Serif" font-size="10.00">js_ecvt</text>
</a>
</g>
</g>
<!-- Node4&#45;&gt;Node6 -->
<g id="edge5" class="edge">
<title>Node4&#45;&gt;Node6</title>
<path fill="none" stroke="midnightblue" d="M410.23,-230.31C432.28,-224.3 463.04,-215.92 486.63,-209.5"/>
<polygon fill="midnightblue" stroke="midnightblue" points="487.86,-212.79 496.59,-206.79 486.02,-206.04 487.86,-212.79"/>
</g>
<!-- Node8 -->
<g id="node7" class="node">
<title>Node8</title>
<g id="a_node7"><a xlink:href="quickjs_8c.html#a982972948d4f4a4a0fe7306056c44a92" target="_top" xlink:title=" ">
<polygon fill="none" stroke="red" points="498,-266.5 498,-285.5 547,-285.5 547,-266.5 498,-266.5"/>
<text text-anchor="middle" x="522.5" y="-273.5" font-family="Helvetica,sans-Serif" font-size="10.00">js_fcvt</text>
</a>
</g>
</g>
<!-- Node4&#45;&gt;Node8 -->
<g id="edge6" class="edge">
<title>Node4&#45;&gt;Node8</title>
<path fill="none" stroke="midnightblue" d="M410.23,-245.69C432.8,-251.84 464.49,-260.47 488.28,-266.95"/>
<polygon fill="midnightblue" stroke="midnightblue" points="487.38,-270.33 497.94,-269.58 489.22,-263.58 487.38,-270.33"/>
</g>
<!-- Node11 -->
<g id="node9" class="node">
<title>Node11</title>
<g id="a_node9"><a xlink:href="quickjs_8c.html#ac34cc554aab1e98c45a7f845fff64385" target="_top" xlink:title=" ">
<polygon fill="none" stroke="red" points="473.5,-304.5 473.5,-323.5 571.5,-323.5 571.5,-304.5 473.5,-304.5"/>
<text text-anchor="middle" x="522.5" y="-311.5" font-family="Helvetica,sans-Serif" font-size="10.00">JS_NewStringLen</text>
</a>
</g>
</g>
<!-- Node10&#45;&gt;Node11 -->
<g id="edge8" class="edge">
<title>Node10&#45;&gt;Node11</title>
<path fill="none" stroke="midnightblue" d="M421.6,-300.39C434.57,-302.16 449.25,-304.16 463.29,-306.07"/>
<polygon fill="midnightblue" stroke="midnightblue" points="462.99,-309.56 473.37,-307.44 463.93,-302.63 462.99,-309.56"/>
</g>
<!-- Node21 -->
<g id="node13" class="node">
<title>Node21</title>
<g id="a_node13"><a xlink:href="quickjs_8h.html#a775522f2d084fc8fa0fcb33f390006b4" target="_top" xlink:title=" ">
<polygon fill="none" stroke="black" points="342.5,-76.5 342.5,-95.5 419.5,-95.5 419.5,-76.5 342.5,-76.5"/>
<text text-anchor="middle" x="381" y="-83.5" font-family="Helvetica,sans-Serif" font-size="10.00">JS_DupValue</text>
</a>
</g>
</g>
<!-- Node40&#45;&gt;Node21 -->
<g id="edge12" class="edge">
<title>Node40&#45;&gt;Node21</title>
<path fill="none" stroke="midnightblue" d="M290.03,-86C304,-86 318.85,-86 332.37,-86"/>
<polygon fill="midnightblue" stroke="midnightblue" points="332.41,-89.5 342.41,-86 332.41,-82.5 332.41,-89.5"/>
</g>
<!-- Node41 -->
<g id="node14" class="node">
<title>Node41</title>
<g id="a_node14"><a xlink:href="quickjs_8h.html#ab995df176086f2a2a06ab777d4c4ef28" target="_top" xlink:title=" ">
<polygon fill="none" stroke="black" points="342,-38.5 342,-57.5 420,-57.5 420,-38.5 342,-38.5"/>
<text text-anchor="middle" x="381" y="-45.5" font-family="Helvetica,sans-Serif" font-size="10.00">JS_IsNumber</text>
</a>
</g>
</g>
<!-- Node40&#45;&gt;Node41 -->
<g id="edge13" class="edge">
<title>Node40&#45;&gt;Node41</title>
<path fill="none" stroke="midnightblue" d="M270.84,-76.41C289.85,-71.46 313.23,-65.38 333.47,-60.11"/>
<polygon fill="midnightblue" stroke="midnightblue" points="334.63,-63.43 343.42,-57.52 332.86,-56.65 334.63,-63.43"/>
</g>
<!-- Node43 -->
<g id="node16" class="node">
<title>Node43</title>
<g id="a_node16"><a xlink:href="quickjs_8c.html#a9a2e141f21d9ea38a3a23c9b4eb6e356" target="_top" xlink:title=" ">
<polygon fill="none" stroke="black" points="326,-152.5 326,-171.5 436,-171.5 436,-152.5 326,-152.5"/>
<text text-anchor="middle" x="381" y="-159.5" font-family="Helvetica,sans-Serif" font-size="10.00">__JS_ToFloat64Free</text>
</a>
</g>
</g>
<!-- Node42&#45;&gt;Node43 -->
<g id="edge15" class="edge">
<title>Node42&#45;&gt;Node43</title>
<path fill="none" stroke="midnightblue" d="M282.62,-162C293.22,-162 304.6,-162 315.71,-162"/>
<polygon fill="midnightblue" stroke="midnightblue" points="315.81,-165.5 325.81,-162 315.81,-158.5 315.81,-165.5"/>
</g>
<!-- Node43&#45;&gt;Node38 -->
<g id="edge16" class="edge">
<title>Node43&#45;&gt;Node38</title>
<path fill="none" stroke="midnightblue" d="M436.33,-162C446.89,-162 457.94,-162 468.46,-162"/>
<polygon fill="midnightblue" stroke="midnightblue" points="468.76,-165.5 478.76,-162 468.76,-158.5 468.76,-165.5"/>
</g>
<!-- Node44 -->
<g id="node17" class="node">
<title>Node44</title>
<g id="a_node17"><a xlink:href="quickjs_8c.html#ae738291483438efefca5c9fa4d269504" target="_top" xlink:title=" ">
<polygon fill="none" stroke="red" points="472,-114.5 472,-133.5 573,-133.5 573,-114.5 472,-114.5"/>
<text text-anchor="middle" x="522.5" y="-121.5" font-family="Helvetica,sans-Serif" font-size="10.00">JS_ToNumberFree</text>
</a>
</g>
</g>
<!-- Node43&#45;&gt;Node44 -->
<g id="edge17" class="edge">
<title>Node43&#45;&gt;Node44</title>
<path fill="none" stroke="midnightblue" d="M417.2,-152.41C435.21,-147.51 457.33,-141.48 476.56,-136.24"/>
<polygon fill="midnightblue" stroke="midnightblue" points="477.58,-139.59 486.31,-133.59 475.74,-132.84 477.58,-139.59"/>
</g>
<!-- Node437&#45;&gt;Node21 -->
<g id="edge19" class="edge">
<title>Node437&#45;&gt;Node21</title>
<path fill="none" stroke="midnightblue" d="M270.84,-114.41C289.85,-109.46 313.23,-103.38 333.47,-98.11"/>
<polygon fill="midnightblue" stroke="midnightblue" points="334.63,-101.43 343.42,-95.52 332.86,-94.65 334.63,-101.43"/>
</g>
<!-- Node438 -->
<g id="node19" class="node">
<title>Node438</title>
<g id="a_node19"><a xlink:href="quickjs_8c.html#a419bec82cb80e98e08626a9a5212ec4c" target="_top" xlink:title=" ">
<polygon fill="none" stroke="black" points="329.5,-114.5 329.5,-133.5 432.5,-133.5 432.5,-114.5 329.5,-114.5"/>
<text text-anchor="middle" x="381" y="-121.5" font-family="Helvetica,sans-Serif" font-size="10.00">JS_ToInt32SatFree</text>
</a>
</g>
</g>
<!-- Node437&#45;&gt;Node438 -->
<g id="edge20" class="edge">
<title>Node437&#45;&gt;Node438</title>
<path fill="none" stroke="midnightblue" d="M274.28,-124C288.13,-124 303.97,-124 319.09,-124"/>
<polygon fill="midnightblue" stroke="midnightblue" points="319.41,-127.5 329.41,-124 319.41,-120.5 319.41,-127.5"/>
</g>
<!-- Node438&#45;&gt;Node38 -->
<g id="edge21" class="edge">
<title>Node438&#45;&gt;Node38</title>
<path fill="none" stroke="midnightblue" d="M417.2,-133.59C435.21,-138.49 457.33,-144.52 476.56,-149.76"/>
<polygon fill="midnightblue" stroke="midnightblue" points="475.74,-153.16 486.31,-152.41 477.58,-146.41 475.74,-153.16"/>
</g>
<!-- Node438&#45;&gt;Node44 -->
<g id="edge22" class="edge">
<title>Node438&#45;&gt;Node44</title>
<path fill="none" stroke="midnightblue" d="M432.76,-124C442.14,-124 452.02,-124 461.64,-124"/>
<polygon fill="midnightblue" stroke="midnightblue" points="461.95,-127.5 471.95,-124 461.95,-120.5 461.95,-127.5"/>
</g>
</g>
</svg>
        <g id="navigator" transform="translate(0 0)" fill="#404254">
                <rect fill="#f2f5e9" fill-opacity="0.5" stroke="#606060" stroke-width=".5" x="0" y="0" width="60" height="60"/>
                <use id="zoomplus" xlink:href="#zoomPlus" x="17" y="9" onmousedown="handleZoom(evt,'in')"/>
                <use id="zoomminus" xlink:href="#zoomMin" x="42" y="9" onmousedown="handleZoom(evt,'out')"/>
                <use id="reset" xlink:href="#resetDef" x="30" y="36" onmousedown="handleReset()"/>
                <g id="arrowUp" xlink:href="#dirArrow" transform="translate(30 24)" onmousedown="handlePan(0,-1)">
                  <use xlink:href="#rim" fill="#404040">
                        <set attributeName="fill" to="#808080" begin="arrowUp.mouseover" end="arrowUp.mouseout"/>
                  </use>
                  <path fill="none" stroke="white" stroke-width="1.5" d="M0,-3.0v7 M-2.5,-0.5L0,-3.0L2.5,-0.5"/>
                </g>
                <g id="arrowRight" xlink:href="#dirArrow" transform="rotate(90) translate(36 -43)" onmousedown="handlePan(1,0)">
                  <use xlink:href="#rim" fill="#404040">
                        <set attributeName="fill" to="#808080" begin="arrowRight.mouseover" end="arrowRight.mouseout"/>
                  </use>
                  <path fill="none" stroke="white" stroke-width="1.5" d="M0,-3.0v7 M-2.5,-0.5L0,-3.0L2.5,-0.5"/>
                </g>
                <g id="arrowDown" xlink:href="#dirArrow" transform="rotate(180) translate(-30 -48)" onmousedown="handlePan(0,1)">
                  <use xlink:href="#rim" fill="#404040">
                        <set attributeName="fill" to="#808080" begin="arrowDown.mouseover" end="arrowDown.mouseout"/>
                  </use>
                  <path fill="none" stroke="white" stroke-width="1.5" d="M0,-3.0v7 M-2.5,-0.5L0,-3.0L2.5,-0.5"/>
                </g>
                <g id="arrowLeft" xlink:href="#dirArrow" transform="rotate(270) translate(-36 17)" onmousedown="handlePan(-1,0)">
                  <use xlink:href="#rim" fill="#404040">
                        <set attributeName="fill" to="#808080" begin="arrowLeft.mouseover" end="arrowLeft.mouseout"/>
                  </use>
                  <path fill="none" stroke="white" stroke-width="1.5" d="M0,-3.0v7 M-2.5,-0.5L0,-3.0L2.5,-0.5"/>
                </g>
        </g>
        <svg viewBox="0 0 15 15" width="100%" height="30px" preserveAspectRatio="xMaxYMin meet">
         <g id="arrow_out" transform="scale(0.3 0.3)">
          <a xlink:href="quickjs_8c_afad8d7db437ba0647d2dbf77cd9769d6_cgraph_org.svg" target="_base">
           <rect id="button" ry="5" rx="5" y="6" x="6" height="38" width="38"
                fill="#f2f5e9" fill-opacity="0.5" stroke="#606060" stroke-width="1.0"/>
           <path id="arrow"
             d="M 11.500037,31.436501 C 11.940474,20.09759 22.043105,11.32322 32.158766,21.979434 L 37.068811,17.246167 C 37.068811,17.246167 37.088388,32 37.088388,32 L 22.160133,31.978069 C 22.160133,31.978069 26.997745,27.140456 26.997745,27.140456 C 18.528582,18.264221 13.291696,25.230495 11.500037,31.436501 z"
             style="fill:#404040;"/>
          </a>
         </g>
        </svg>
</svg>
