<?xml version="1.0" encoding="UTF-8" standalone="no"?>
<!DOCTYPE svg PUBLIC "-//W3C//DTD SVG 1.1//EN"
 "http://www.w3.org/Graphics/SVG/1.1/DTD/svg11.dtd">
<!-- Generated by graphviz version 2.43.0 (0)
 -->
<!-- Title: js_std_urlGet Pages: 1 -->
<!--zoomable 788 -->
<svg id="main" version="1.1" xmlns="http://www.w3.org/2000/svg" xmlns:xlink="http://www.w3.org/1999/xlink" xml:space="preserve" onload="init(evt)">
<style type="text/css"><![CDATA[
.edge:hover path { stroke: red; }
.edge:hover polygon { stroke: red; fill: red; }
]]></style>
<script type="text/javascript"><![CDATA[
var edges = document.getElementsByTagName('g');
if (edges && edges.length) {
  for (var i=0;i<edges.length;i++) {
    if (edges[i].id.substr(0,4)=='edge') {
      edges[i].setAttribute('class','edge');
    }
  }
}
]]></script>
        <defs>
                <circle id="rim" cx="0" cy="0" r="7"/>
                <circle id="rim2" cx="0" cy="0" r="3.5"/>
                <g id="zoomPlus">
                        <use xlink:href="#rim" fill="#404040">
                                <set attributeName="fill" to="#808080" begin="zoomplus.mouseover" end="zoomplus.mouseout"/>
                        </use>
                        <path d="M-4,0h8M0,-4v8" fill="none" stroke="white" stroke-width="1.5" pointer-events="none"/>
                </g>
                <g id="zoomMin">
                        <use xlink:href="#rim" fill="#404040">
                                <set attributeName="fill" to="#808080" begin="zoomminus.mouseover" end="zoomminus.mouseout"/>
                        </use>
                        <path d="M-4,0h8" fill="none" stroke="white" stroke-width="1.5" pointer-events="none"/>
                </g>
                <g id="dirArrow">
                        <path fill="none" stroke="white" stroke-width="1.5" d="M0,-3.0v7 M-2.5,-0.5L0,-3.0L2.5,-0.5"/>
                </g>
               <g id="resetDef">
                       <use xlink:href="#rim2" fill="#404040">
                               <set attributeName="fill" to="#808080" begin="reset.mouseover" end="reset.mouseout"/>
                       </use>
               </g>
        </defs>

<script type="text/javascript">
var viewWidth = 663;
var viewHeight = 788;
var sectionId = 'dynsection-59';
</script>
<script xlink:href="svgpan.js"/>
<svg id="graph" class="graph">
<g id="viewport">
<title>js_std_urlGet</title>
<!-- Node1 -->
<g id="node1" class="node">
<title>Node1</title>
<g id="a_node1"><a xlink:title=" ">
<polygon fill="#bfbfbf" stroke="black" points="0,-380.5 0,-399.5 80,-399.5 80,-380.5 0,-380.5"/>
<text text-anchor="middle" x="40" y="-387.5" font-family="Helvetica,sans-Serif" font-size="10.00">js_std_urlGet</text>
</a>
</g>
</g>
<!-- Node2 -->
<g id="node2" class="node">
<title>Node2</title>
<g id="a_node2"><a xlink:href="cutils_8h.html#a7e3df12bda422b64b14ec2fc2f487c5f" target="_top" xlink:title=" ">
<polygon fill="none" stroke="black" points="148,-760.5 148,-779.5 228,-779.5 228,-760.5 148,-760.5"/>
<text text-anchor="middle" x="188" y="-767.5" font-family="Helvetica,sans-Serif" font-size="10.00">__attribute__</text>
</a>
</g>
</g>
<!-- Node1&#45;&gt;Node2 -->
<g id="edge1" class="edge">
<title>Node1&#45;&gt;Node2</title>
<path fill="none" stroke="midnightblue" d="M41.67,-399.76C45.46,-451.97 65.77,-697.84 116,-751 121.98,-757.33 129.83,-761.64 138.11,-764.55"/>
<polygon fill="midnightblue" stroke="midnightblue" points="137.38,-767.98 147.95,-767.36 139.3,-761.25 137.38,-767.98"/>
</g>
<!-- Node3 -->
<g id="node3" class="node">
<title>Node3</title>
<g id="a_node3"><a xlink:href="cutils_8h.html#a1fed0a329cb7bb0e04283285037921a4" target="_top" xlink:title=" ">
<polygon fill="none" stroke="black" points="154.5,-722.5 154.5,-741.5 221.5,-741.5 221.5,-722.5 154.5,-722.5"/>
<text text-anchor="middle" x="188" y="-729.5" font-family="Helvetica,sans-Serif" font-size="10.00">dbuf_error</text>
</a>
</g>
</g>
<!-- Node1&#45;&gt;Node3 -->
<g id="edge2" class="edge">
<title>Node1&#45;&gt;Node3</title>
<path fill="none" stroke="midnightblue" d="M41.92,-399.69C46.74,-448.39 70.57,-666.03 116,-713 123.53,-720.78 133.87,-725.5 144.33,-728.32"/>
<polygon fill="midnightblue" stroke="midnightblue" points="143.8,-731.78 154.31,-730.48 145.28,-724.94 143.8,-731.78"/>
</g>
<!-- Node4 -->
<g id="node4" class="node">
<title>Node4</title>
<g id="a_node4"><a xlink:href="cutils_8h.html#a8a3b715fc2146312b777c4e3db546b55" target="_top" xlink:title=" ">
<polygon fill="none" stroke="black" points="156.5,-684.5 156.5,-703.5 219.5,-703.5 219.5,-684.5 156.5,-684.5"/>
<text text-anchor="middle" x="188" y="-691.5" font-family="Helvetica,sans-Serif" font-size="10.00">dbuf_free</text>
</a>
</g>
</g>
<!-- Node1&#45;&gt;Node4 -->
<g id="edge3" class="edge">
<title>Node1&#45;&gt;Node4</title>
<path fill="none" stroke="midnightblue" d="M40.56,-399.72C39.3,-439.15 39.92,-588.87 116,-670 124.05,-678.59 135.29,-684.1 146.44,-687.65"/>
<polygon fill="midnightblue" stroke="midnightblue" points="145.58,-691.04 156.15,-690.28 147.41,-684.28 145.58,-691.04"/>
</g>
<!-- Node5 -->
<g id="node5" class="node">
<title>Node5</title>
<g id="a_node5"><a xlink:href="cutils_8h.html#ad1cfaae47347ae771136b5a9bbda49aa" target="_top" xlink:title=" ">
<polygon fill="none" stroke="black" points="473,-608.5 473,-627.5 532,-627.5 532,-608.5 473,-608.5"/>
<text text-anchor="middle" x="502.5" y="-615.5" font-family="Helvetica,sans-Serif" font-size="10.00">dbuf_put</text>
</a>
</g>
</g>
<!-- Node1&#45;&gt;Node5 -->
<g id="edge4" class="edge">
<title>Node1&#45;&gt;Node5</title>
<path fill="none" stroke="midnightblue" d="M42.42,-399.77C48.74,-441.9 75.86,-607.24 116,-637 171.52,-678.16 358.43,-645.61 427,-637 438.88,-635.51 451.59,-632.73 463.08,-629.75"/>
<polygon fill="midnightblue" stroke="midnightblue" points="464.08,-633.1 472.81,-627.1 462.24,-626.35 464.08,-633.1"/>
</g>
<!-- Node7 -->
<g id="node7" class="node">
<title>Node7</title>
<g id="a_node7"><a xlink:href="cutils_8h.html#aeed81d4787ccdbd55baa9b5fd6717e88" target="_top" xlink:title=" ">
<polygon fill="none" stroke="black" points="329,-608.5 329,-627.5 394,-627.5 394,-608.5 329,-608.5"/>
<text text-anchor="middle" x="361.5" y="-615.5" font-family="Helvetica,sans-Serif" font-size="10.00">dbuf_putc</text>
</a>
</g>
</g>
<!-- Node1&#45;&gt;Node7 -->
<g id="edge6" class="edge">
<title>Node1&#45;&gt;Node7</title>
<path fill="none" stroke="midnightblue" d="M42.55,-399.82C47.55,-428.18 65.95,-510.87 116,-553 131.59,-566.12 253.05,-594.38 318.71,-608.93"/>
<polygon fill="midnightblue" stroke="midnightblue" points="318.22,-612.4 328.74,-611.14 319.73,-605.57 318.22,-612.4"/>
</g>
<!-- Node8 -->
<g id="node8" class="node">
<title>Node8</title>
<g id="a_node8"><a xlink:href="cutils_8h.html#a98c263f386a9b5533df32892c18febfc" target="_top" xlink:title=" ">
<polygon fill="none" stroke="black" points="325.5,-570.5 325.5,-589.5 397.5,-589.5 397.5,-570.5 325.5,-570.5"/>
<text text-anchor="middle" x="361.5" y="-577.5" font-family="Helvetica,sans-Serif" font-size="10.00">dbuf_putstr</text>
</a>
</g>
</g>
<!-- Node1&#45;&gt;Node8 -->
<g id="edge8" class="edge">
<title>Node1&#45;&gt;Node8</title>
<path fill="none" stroke="midnightblue" d="M43.83,-399.79C51.31,-423.89 74,-486.43 116,-518 147.19,-541.44 253.42,-562.29 315.11,-572.8"/>
<polygon fill="midnightblue" stroke="midnightblue" points="314.91,-576.31 325.35,-574.51 316.07,-569.41 314.91,-576.31"/>
</g>
<!-- Node9 -->
<g id="node9" class="node">
<title>Node9</title>
<g id="a_node9"><a xlink:href="quickjs-libc_8c.html#ad94572b16428965bd7780a285c188c77" target="_top" xlink:title=" ">
<polygon fill="none" stroke="black" points="140.5,-380.5 140.5,-399.5 235.5,-399.5 235.5,-380.5 140.5,-380.5"/>
<text text-anchor="middle" x="188" y="-387.5" font-family="Helvetica,sans-Serif" font-size="10.00">get_bool_option</text>
</a>
</g>
</g>
<!-- Node1&#45;&gt;Node9 -->
<g id="edge10" class="edge">
<title>Node1&#45;&gt;Node9</title>
<path fill="none" stroke="midnightblue" d="M80.13,-390C95.51,-390 113.48,-390 130.25,-390"/>
<polygon fill="midnightblue" stroke="midnightblue" points="130.5,-393.5 140.5,-390 130.5,-386.5 130.5,-393.5"/>
</g>
<!-- Node10 -->
<g id="node10" class="node">
<title>Node10</title>
<g id="a_node10"><a xlink:href="quickjs_8h.html#afaa20c47565bc704c6c85f3d77254e7d" target="_top" xlink:title=" ">
<polygon fill="none" stroke="red" points="463,-475.5 463,-494.5 542,-494.5 542,-475.5 463,-475.5"/>
<text text-anchor="middle" x="502.5" y="-482.5" font-family="Helvetica,sans-Serif" font-size="10.00">JS_FreeValue</text>
</a>
</g>
</g>
<!-- Node1&#45;&gt;Node10 -->
<g id="edge30" class="edge">
<title>Node1&#45;&gt;Node10</title>
<path fill="none" stroke="midnightblue" d="M46.37,-399.78C57.06,-418.3 82.86,-458.45 116,-479 150.99,-500.7 255.12,-518.08 296,-523 353.8,-529.96 370.39,-536.6 427,-523 445.65,-518.52 464.88,-508.55 479.13,-499.94"/>
<polygon fill="midnightblue" stroke="midnightblue" points="481.11,-502.84 487.73,-494.56 477.39,-496.9 481.11,-502.84"/>
</g>
<!-- Node58 -->
<g id="node14" class="node">
<title>Node58</title>
<g id="a_node14"><a xlink:href="quickjs_8h.html#ad80a83d73e9b7d872b88fbf2943aebe9" target="_top" xlink:title=" ">
<polygon fill="none" stroke="black" points="318,-190.5 318,-209.5 405,-209.5 405,-190.5 318,-190.5"/>
<text text-anchor="middle" x="361.5" y="-197.5" font-family="Helvetica,sans-Serif" font-size="10.00">JS_IsException</text>
</a>
</g>
</g>
<!-- Node1&#45;&gt;Node58 -->
<g id="edge31" class="edge">
<title>Node1&#45;&gt;Node58</title>
<path fill="none" stroke="midnightblue" d="M78.79,-380.41C141,-364.59 258.33,-334.59 260,-333 298.52,-296.4 258.07,-256.2 296,-219 299.56,-215.51 303.73,-212.65 308.21,-210.31"/>
<polygon fill="midnightblue" stroke="midnightblue" points="309.93,-213.38 317.74,-206.22 307.17,-206.95 309.93,-213.38"/>
</g>
<!-- Node440 -->
<g id="node17" class="node">
<title>Node440</title>
<g id="a_node17"><a xlink:href="quickjs-libc_8c.html#a05faf7ad5bf041ae72b75bf310302de2" target="_top" xlink:title=" ">
<polygon fill="none" stroke="black" points="128.5,-608.5 128.5,-627.5 247.5,-627.5 247.5,-608.5 128.5,-608.5"/>
<text text-anchor="middle" x="188" y="-615.5" font-family="Helvetica,sans-Serif" font-size="10.00">http_get_header_line</text>
</a>
</g>
</g>
<!-- Node1&#45;&gt;Node440 -->
<g id="edge18" class="edge">
<title>Node1&#45;&gt;Node440</title>
<path fill="none" stroke="midnightblue" d="M41.68,-399.67C44.48,-431.98 57.88,-537.39 116,-594 120.08,-597.97 124.84,-601.29 129.92,-604.05"/>
<polygon fill="midnightblue" stroke="midnightblue" points="128.81,-607.4 139.36,-608.47 131.78,-601.06 128.81,-607.4"/>
</g>
<!-- Node441 -->
<g id="node18" class="node">
<title>Node441</title>
<g id="a_node18"><a xlink:href="quickjs-libc_8c.html#aba868ba34ac6269e167db5369274cd89" target="_top" xlink:title=" ">
<polygon fill="none" stroke="black" points="142,-304.5 142,-323.5 234,-323.5 234,-304.5 142,-304.5"/>
<text text-anchor="middle" x="188" y="-311.5" font-family="Helvetica,sans-Serif" font-size="10.00">http_get_status</text>
</a>
</g>
</g>
<!-- Node1&#45;&gt;Node441 -->
<g id="edge20" class="edge">
<title>Node1&#45;&gt;Node441</title>
<path fill="none" stroke="midnightblue" d="M52.56,-380.44C66.76,-369.06 91.94,-350.1 116,-338 124.37,-333.79 133.64,-330.05 142.65,-326.85"/>
<polygon fill="midnightblue" stroke="midnightblue" points="143.92,-330.12 152.27,-323.59 141.67,-323.49 143.92,-330.12"/>
</g>
<!-- Node442 -->
<g id="node19" class="node">
<title>Node442</title>
<g id="a_node19"><a xlink:href="quickjs_8c.html#a841f4cb887e4d9e03e94a0697255e578" target="_top" xlink:title=" ">
<polygon fill="none" stroke="black" points="116,-418.5 116,-437.5 260,-437.5 260,-418.5 116,-418.5"/>
<text text-anchor="middle" x="188" y="-425.5" font-family="Helvetica,sans-Serif" font-size="10.00">JS_DefinePropertyValueStr</text>
</a>
</g>
</g>
<!-- Node1&#45;&gt;Node442 -->
<g id="edge21" class="edge">
<title>Node1&#45;&gt;Node442</title>
<path fill="none" stroke="midnightblue" d="M77.84,-399.59C96.85,-404.54 120.23,-410.62 140.47,-415.89"/>
<polygon fill="midnightblue" stroke="midnightblue" points="139.86,-419.35 150.42,-418.48 141.63,-412.57 139.86,-419.35"/>
</g>
<!-- Node31 -->
<g id="node21" class="node">
<title>Node31</title>
<g id="a_node21"><a xlink:href="quickjs_8c.html#a80e54dcf9ac687d4ccc2f90273565f30" target="_top" xlink:title=" ">
<polygon fill="none" stroke="black" points="163,-266.5 163,-285.5 213,-285.5 213,-266.5 163,-266.5"/>
<text text-anchor="middle" x="188" y="-273.5" font-family="Helvetica,sans-Serif" font-size="10.00">js_free</text>
</a>
</g>
</g>
<!-- Node1&#45;&gt;Node31 -->
<g id="edge26" class="edge">
<title>Node1&#45;&gt;Node31</title>
<path fill="none" stroke="midnightblue" d="M45.92,-380.23C56.17,-360.85 81.77,-317.52 116,-295 126.91,-287.82 140.44,-283.35 152.76,-280.56"/>
<polygon fill="midnightblue" stroke="midnightblue" points="153.6,-283.96 162.74,-278.59 152.25,-277.09 153.6,-283.96"/>
</g>
<!-- Node77 -->
<g id="node23" class="node">
<title>Node77</title>
<g id="a_node23"><a xlink:href="quickjs_8c.html#ae0bc4f65da64810facb2cb9e476eda2e" target="_top" xlink:title=" ">
<polygon fill="none" stroke="black" points="318,-494.5 318,-513.5 405,-513.5 405,-494.5 318,-494.5"/>
<text text-anchor="middle" x="361.5" y="-501.5" font-family="Helvetica,sans-Serif" font-size="10.00">JS_FreeCString</text>
</a>
</g>
</g>
<!-- Node1&#45;&gt;Node77 -->
<g id="edge28" class="edge">
<title>Node1&#45;&gt;Node77</title>
<path fill="none" stroke="midnightblue" d="M50.76,-399.63C64.27,-412.4 89.95,-434.75 116,-447 149.58,-462.79 246.65,-482.79 307.9,-494.42"/>
<polygon fill="midnightblue" stroke="midnightblue" points="307.31,-497.87 317.78,-496.28 308.6,-490.99 307.31,-497.87"/>
</g>
<!-- Node208 -->
<g id="node24" class="node">
<title>Node208</title>
<g id="a_node24"><a xlink:href="quickjs_8h.html#a149f24b67e745bad93573b3b4c80db4c" target="_top" xlink:title=" ">
<polygon fill="none" stroke="black" points="158.5,-228.5 158.5,-247.5 217.5,-247.5 217.5,-228.5 158.5,-228.5"/>
<text text-anchor="middle" x="188" y="-235.5" font-family="Helvetica,sans-Serif" font-size="10.00">JS_IsNull</text>
</a>
</g>
</g>
<!-- Node1&#45;&gt;Node208 -->
<g id="edge32" class="edge">
<title>Node1&#45;&gt;Node208</title>
<path fill="none" stroke="midnightblue" d="M43.63,-380.23C50.79,-355.55 73.05,-290.29 116,-257 125.27,-249.82 137.03,-245.34 148.3,-242.56"/>
<polygon fill="midnightblue" stroke="midnightblue" points="149.35,-245.91 158.42,-240.45 147.92,-239.06 149.35,-245.91"/>
</g>
<!-- Node443 -->
<g id="node25" class="node">
<title>Node443</title>
<g id="a_node25"><a xlink:href="quickjs_8c.html#afd4c101057712f68796803cf81501264" target="_top" xlink:title=" ">
<polygon fill="none" stroke="red" points="121.5,-190.5 121.5,-209.5 254.5,-209.5 254.5,-190.5 121.5,-190.5"/>
<text text-anchor="middle" x="188" y="-197.5" font-family="Helvetica,sans-Serif" font-size="10.00">JS_NewArrayBufferCopy</text>
</a>
</g>
</g>
<!-- Node1&#45;&gt;Node443 -->
<g id="edge33" class="edge">
<title>Node1&#45;&gt;Node443</title>
<path fill="none" stroke="midnightblue" d="M42.33,-380.14C46.81,-350.83 64.1,-263.56 116,-219 117.99,-217.29 120.12,-215.73 122.35,-214.31"/>
<polygon fill="midnightblue" stroke="midnightblue" points="124.21,-217.29 131.4,-209.5 120.93,-211.11 124.21,-217.29"/>
</g>
<!-- Node59 -->
<g id="node26" class="node">
<title>Node59</title>
<g id="a_node26"><a xlink:href="quickjs_8h.html#a2050bc428da1c65ac7eb87c3fa3b0392" target="_top" xlink:title=" ">
<polygon fill="none" stroke="black" points="149.5,-152.5 149.5,-171.5 226.5,-171.5 226.5,-152.5 149.5,-152.5"/>
<text text-anchor="middle" x="188" y="-159.5" font-family="Helvetica,sans-Serif" font-size="10.00">JS_NewInt32</text>
</a>
</g>
</g>
<!-- Node1&#45;&gt;Node59 -->
<g id="edge34" class="edge">
<title>Node1&#45;&gt;Node59</title>
<path fill="none" stroke="midnightblue" d="M41.43,-380.42C43.46,-347.41 54.73,-237.38 116,-181 122.62,-174.91 130.97,-170.73 139.61,-167.88"/>
<polygon fill="midnightblue" stroke="midnightblue" points="140.68,-171.21 149.4,-165.18 138.83,-164.46 140.68,-171.21"/>
</g>
<!-- Node412 -->
<g id="node27" class="node">
<title>Node412</title>
<g id="a_node27"><a xlink:href="quickjs_8c.html#afc0d8ea75588216ec132a6e1655524a7" target="_top" xlink:title=" ">
<polygon fill="none" stroke="red" points="146,-114.5 146,-133.5 230,-133.5 230,-114.5 146,-114.5"/>
<text text-anchor="middle" x="188" y="-121.5" font-family="Helvetica,sans-Serif" font-size="10.00">JS_NewObject</text>
</a>
</g>
</g>
<!-- Node1&#45;&gt;Node412 -->
<g id="edge35" class="edge">
<title>Node1&#45;&gt;Node412</title>
<path fill="none" stroke="midnightblue" d="M40.83,-380.29C40.72,-343.48 45.45,-211.23 116,-143 121.68,-137.51 128.75,-133.57 136.23,-130.74"/>
<polygon fill="midnightblue" stroke="midnightblue" points="137.34,-134.06 145.83,-127.72 135.24,-127.38 137.34,-134.06"/>
</g>
<!-- Node87 -->
<g id="node28" class="node">
<title>Node87</title>
<g id="a_node28"><a xlink:href="quickjs_8c.html#ac34cc554aab1e98c45a7f845fff64385" target="_top" xlink:title=" ">
<polygon fill="none" stroke="red" points="139,-76.5 139,-95.5 237,-95.5 237,-76.5 139,-76.5"/>
<text text-anchor="middle" x="188" y="-83.5" font-family="Helvetica,sans-Serif" font-size="10.00">JS_NewStringLen</text>
</a>
</g>
</g>
<!-- Node1&#45;&gt;Node87 -->
<g id="edge36" class="edge">
<title>Node1&#45;&gt;Node87</title>
<path fill="none" stroke="midnightblue" d="M42.25,-380.27C48.23,-335.03 75.38,-145.78 116,-105 119.79,-101.2 124.24,-98.13 129.05,-95.66"/>
<polygon fill="midnightblue" stroke="midnightblue" points="130.79,-98.73 138.64,-91.62 128.06,-92.28 130.79,-98.73"/>
</g>
<!-- Node446 -->
<g id="node29" class="node">
<title>Node446</title>
<g id="a_node29"><a xlink:href="quickjs-libc_8c.html#abc010e21334ba999f6ad18a681caf4fb" target="_top" xlink:title=" ">
<polygon fill="none" stroke="red" points="141.5,-38.5 141.5,-57.5 234.5,-57.5 234.5,-38.5 141.5,-38.5"/>
<text text-anchor="middle" x="188" y="-45.5" font-family="Helvetica,sans-Serif" font-size="10.00">js_std_dbuf_init</text>
</a>
</g>
</g>
<!-- Node1&#45;&gt;Node446 -->
<g id="edge37" class="edge">
<title>Node1&#45;&gt;Node446</title>
<path fill="none" stroke="midnightblue" d="M41.92,-380.31C46.74,-331.61 70.57,-113.97 116,-67 120.48,-62.37 125.96,-58.82 131.87,-56.11"/>
<polygon fill="midnightblue" stroke="midnightblue" points="133.3,-59.32 141.42,-52.52 130.83,-52.77 133.3,-59.32"/>
</g>
<!-- Node156 -->
<g id="node30" class="node">
<title>Node156</title>
<g id="a_node30"><a xlink:href="quickjs_8h.html#af931f06630ab719b5f82a16eb27effd1" target="_top" xlink:title=" ">
<polygon fill="none" stroke="red" points="149.5,-0.5 149.5,-19.5 226.5,-19.5 226.5,-0.5 149.5,-0.5"/>
<text text-anchor="middle" x="188" y="-7.5" font-family="Helvetica,sans-Serif" font-size="10.00">JS_ToCString</text>
</a>
</g>
</g>
<!-- Node1&#45;&gt;Node156 -->
<g id="edge38" class="edge">
<title>Node1&#45;&gt;Node156</title>
<path fill="none" stroke="midnightblue" d="M41.67,-380.24C45.46,-328.03 65.77,-82.16 116,-29 122.37,-22.26 130.85,-17.81 139.73,-14.9"/>
<polygon fill="midnightblue" stroke="midnightblue" points="140.67,-18.27 149.43,-12.31 138.87,-11.51 140.67,-18.27"/>
</g>
<!-- Node6 -->
<g id="node6" class="node">
<title>Node6</title>
<g id="a_node6"><a xlink:href="cutils_8h.html#ac0b9ce26415947e972d6781d9f2fb11b" target="_top" xlink:title=" ">
<polygon fill="none" stroke="black" points="578,-608.5 578,-627.5 655,-627.5 655,-608.5 578,-608.5"/>
<text text-anchor="middle" x="616.5" y="-615.5" font-family="Helvetica,sans-Serif" font-size="10.00">dbuf_realloc</text>
</a>
</g>
</g>
<!-- Node5&#45;&gt;Node6 -->
<g id="edge5" class="edge">
<title>Node5&#45;&gt;Node6</title>
<path fill="none" stroke="midnightblue" d="M532.05,-618C542.89,-618 555.54,-618 567.68,-618"/>
<polygon fill="midnightblue" stroke="midnightblue" points="567.7,-621.5 577.7,-618 567.7,-614.5 567.7,-621.5"/>
</g>
<!-- Node7&#45;&gt;Node5 -->
<g id="edge7" class="edge">
<title>Node7&#45;&gt;Node5</title>
<path fill="none" stroke="midnightblue" d="M394.04,-618C414.42,-618 441.07,-618 462.74,-618"/>
<polygon fill="midnightblue" stroke="midnightblue" points="462.92,-621.5 472.92,-618 462.92,-614.5 462.92,-621.5"/>
</g>
<!-- Node8&#45;&gt;Node5 -->
<g id="edge9" class="edge">
<title>Node8&#45;&gt;Node5</title>
<path fill="none" stroke="midnightblue" d="M397.58,-589.59C417.62,-595.07 442.77,-601.95 463.31,-607.56"/>
<polygon fill="midnightblue" stroke="midnightblue" points="462.41,-610.94 472.98,-610.2 464.26,-604.19 462.41,-610.94"/>
</g>
<!-- Node9&#45;&gt;Node10 -->
<g id="edge11" class="edge">
<title>Node9&#45;&gt;Node10</title>
<path fill="none" stroke="midnightblue" d="M235.58,-397.78C284.27,-406.68 362.42,-423.18 427,-447 444.04,-453.29 462.23,-462.51 476.36,-470.29"/>
<polygon fill="midnightblue" stroke="midnightblue" points="475,-473.54 485.43,-475.39 478.44,-467.44 475,-473.54"/>
</g>
<!-- Node48 -->
<g id="node11" class="node">
<title>Node48</title>
<g id="a_node11"><a xlink:href="quickjs_8c.html#a04f589361a4fbc30d997402e92a50de2" target="_top" xlink:title=" ">
<polygon fill="none" stroke="red" points="310,-304.5 310,-323.5 413,-323.5 413,-304.5 310,-304.5"/>
<text text-anchor="middle" x="361.5" y="-311.5" font-family="Helvetica,sans-Serif" font-size="10.00">JS_GetPropertyStr</text>
</a>
</g>
</g>
<!-- Node9&#45;&gt;Node48 -->
<g id="edge12" class="edge">
<title>Node9&#45;&gt;Node48</title>
<path fill="none" stroke="midnightblue" d="M225.01,-380.41C236.53,-376.67 249.11,-371.86 260,-366 277.85,-356.4 278.3,-347.87 296,-338 303.34,-333.9 311.53,-330.25 319.53,-327.1"/>
<polygon fill="midnightblue" stroke="midnightblue" points="320.99,-330.29 329.13,-323.51 318.54,-323.73 320.99,-330.29"/>
</g>
<!-- Node9&#45;&gt;Node58 -->
<g id="edge15" class="edge">
<title>Node9&#45;&gt;Node58</title>
<path fill="none" stroke="midnightblue" d="M235.76,-381.61C244.81,-378.09 253.49,-373.09 260,-366 305.48,-316.44 249.55,-267.65 296,-219 299.59,-215.24 303.87,-212.22 308.51,-209.79"/>
<polygon fill="midnightblue" stroke="midnightblue" points="309.97,-212.97 317.76,-205.8 307.2,-206.54 309.97,-212.97"/>
</g>
<!-- Node211 -->
<g id="node15" class="node">
<title>Node211</title>
<g id="a_node15"><a xlink:href="quickjs_8h.html#a4e407128a9605afb77523e49e9a627fd" target="_top" xlink:title=" ">
<polygon fill="none" stroke="black" points="317,-266.5 317,-285.5 406,-285.5 406,-266.5 317,-266.5"/>
<text text-anchor="middle" x="361.5" y="-273.5" font-family="Helvetica,sans-Serif" font-size="10.00">JS_IsUndefined</text>
</a>
</g>
</g>
<!-- Node9&#45;&gt;Node211 -->
<g id="edge16" class="edge">
<title>Node9&#45;&gt;Node211</title>
<path fill="none" stroke="midnightblue" d="M234.6,-380.41C243.72,-376.97 252.72,-372.3 260,-366 286.74,-342.84 268.8,-317.63 296,-295 299.48,-292.11 303.38,-289.66 307.49,-287.58"/>
<polygon fill="midnightblue" stroke="midnightblue" points="308.96,-290.76 316.77,-283.6 306.2,-284.32 308.96,-290.76"/>
</g>
<!-- Node439 -->
<g id="node16" class="node">
<title>Node439</title>
<g id="a_node16"><a xlink:href="quickjs_8c.html#a525bb5bdbab2566313d9bcd876838d9d" target="_top" xlink:title=" ">
<polygon fill="none" stroke="red" points="330,-228.5 330,-247.5 393,-247.5 393,-228.5 330,-228.5"/>
<text text-anchor="middle" x="361.5" y="-235.5" font-family="Helvetica,sans-Serif" font-size="10.00">JS_ToBool</text>
</a>
</g>
</g>
<!-- Node9&#45;&gt;Node439 -->
<g id="edge17" class="edge">
<title>Node9&#45;&gt;Node439</title>
<path fill="none" stroke="midnightblue" d="M235.71,-381.07C244.66,-377.59 253.31,-372.74 260,-366 295.95,-329.8 259.34,-292.48 296,-257 302.58,-250.63 311.19,-246.38 319.96,-243.55"/>
<polygon fill="midnightblue" stroke="midnightblue" points="321.07,-246.87 329.84,-240.92 319.27,-240.11 321.07,-246.87"/>
</g>
<!-- Node32 -->
<g id="node12" class="node">
<title>Node32</title>
<g id="a_node12"><a xlink:href="quickjs_8c.html#ab7fc45a99935a1c0ba50b0216d9401a9" target="_top" xlink:title=" ">
<polygon fill="none" stroke="red" points="463.5,-399.5 463.5,-418.5 541.5,-418.5 541.5,-399.5 463.5,-399.5"/>
<text text-anchor="middle" x="502.5" y="-406.5" font-family="Helvetica,sans-Serif" font-size="10.00">JS_FreeAtom</text>
</a>
</g>
</g>
<!-- Node48&#45;&gt;Node32 -->
<g id="edge13" class="edge">
<title>Node48&#45;&gt;Node32</title>
<path fill="none" stroke="midnightblue" d="M376.59,-323.63C400.74,-340.13 450.2,-373.94 479.11,-393.7"/>
<polygon fill="midnightblue" stroke="midnightblue" points="477.14,-396.59 487.37,-399.34 481.09,-390.81 477.14,-396.59"/>
</g>
<!-- Node366 -->
<g id="node13" class="node">
<title>Node366</title>
<g id="a_node13"><a xlink:href="quickjs_8c.html#aa2ef5af1544a3012f91a80c98c326b8f" target="_top" xlink:title=" ">
<polygon fill="none" stroke="red" points="463,-323.5 463,-342.5 542,-342.5 542,-323.5 463,-323.5"/>
<text text-anchor="middle" x="502.5" y="-330.5" font-family="Helvetica,sans-Serif" font-size="10.00">JS_NewAtom</text>
</a>
</g>
</g>
<!-- Node48&#45;&gt;Node366 -->
<g id="edge14" class="edge">
<title>Node48&#45;&gt;Node366</title>
<path fill="none" stroke="midnightblue" d="M413.08,-320.91C426.06,-322.69 440,-324.59 452.88,-326.35"/>
<polygon fill="midnightblue" stroke="midnightblue" points="452.57,-329.84 462.95,-327.73 453.52,-322.91 452.57,-329.84"/>
</g>
<!-- Node440&#45;&gt;Node7 -->
<g id="edge19" class="edge">
<title>Node440&#45;&gt;Node7</title>
<path fill="none" stroke="midnightblue" d="M247.54,-618C270.89,-618 297.24,-618 318.62,-618"/>
<polygon fill="midnightblue" stroke="midnightblue" points="318.68,-621.5 328.68,-618 318.68,-614.5 318.68,-621.5"/>
</g>
<!-- Node442&#45;&gt;Node32 -->
<g id="edge24" class="edge">
<title>Node442&#45;&gt;Node32</title>
<path fill="none" stroke="midnightblue" d="M260.3,-423.66C319.29,-420.08 401.48,-415.08 453.07,-411.94"/>
<polygon fill="midnightblue" stroke="midnightblue" points="453.51,-415.42 463.28,-411.32 453.08,-408.44 453.51,-415.42"/>
</g>
<!-- Node442&#45;&gt;Node366 -->
<g id="edge25" class="edge">
<title>Node442&#45;&gt;Node366</title>
<path fill="none" stroke="midnightblue" d="M225.93,-418.44C236.92,-415.51 248.97,-412.21 260,-409 332.1,-388.02 415.53,-361.19 463.05,-345.67"/>
<polygon fill="midnightblue" stroke="midnightblue" points="464.21,-348.97 472.63,-342.53 462.04,-342.32 464.21,-348.97"/>
</g>
<!-- Node162 -->
<g id="node20" class="node">
<title>Node162</title>
<g id="a_node20"><a xlink:href="quickjs_8c.html#a0a8765bd4012467d9139bc24aabcb3ca" target="_top" xlink:title=" ">
<polygon fill="none" stroke="red" points="296,-456.5 296,-475.5 427,-475.5 427,-456.5 296,-456.5"/>
<text text-anchor="middle" x="361.5" y="-463.5" font-family="Helvetica,sans-Serif" font-size="10.00">JS_DefinePropertyValue</text>
</a>
</g>
</g>
<!-- Node442&#45;&gt;Node162 -->
<g id="edge22" class="edge">
<title>Node442&#45;&gt;Node162</title>
<path fill="none" stroke="midnightblue" d="M232.28,-437.59C255.11,-442.65 283.32,-448.9 307.46,-454.25"/>
<polygon fill="midnightblue" stroke="midnightblue" points="307.01,-457.73 317.53,-456.48 308.53,-450.9 307.01,-457.73"/>
</g>
<!-- Node162&#45;&gt;Node10 -->
<g id="edge23" class="edge">
<title>Node162&#45;&gt;Node10</title>
<path fill="none" stroke="midnightblue" d="M427.12,-474.83C435.69,-476 444.36,-477.19 452.61,-478.32"/>
<polygon fill="midnightblue" stroke="midnightblue" points="452.41,-481.82 462.79,-479.71 453.36,-474.89 452.41,-481.82"/>
</g>
<!-- Node23 -->
<g id="node22" class="node">
<title>Node23</title>
<g id="a_node22"><a xlink:href="quickjs_8c.html#a69e19dda8a93d613203e0baa06f0ed8d" target="_top" xlink:title=" ">
<polygon fill="none" stroke="black" points="330.5,-152.5 330.5,-171.5 392.5,-171.5 392.5,-152.5 330.5,-152.5"/>
<text text-anchor="middle" x="361.5" y="-159.5" font-family="Helvetica,sans-Serif" font-size="10.00">js_free_rt</text>
</a>
</g>
</g>
<!-- Node31&#45;&gt;Node23 -->
<g id="edge27" class="edge">
<title>Node31&#45;&gt;Node23</title>
<path fill="none" stroke="midnightblue" d="M213.06,-274.63C228.03,-272.64 246.87,-267.95 260,-257 288.71,-233.07 267.59,-205.29 296,-181 302.96,-175.05 311.72,-170.96 320.51,-168.15"/>
<polygon fill="midnightblue" stroke="midnightblue" points="321.62,-171.48 330.36,-165.49 319.79,-164.72 321.62,-171.48"/>
</g>
<!-- Node77&#45;&gt;Node10 -->
<g id="edge29" class="edge">
<title>Node77&#45;&gt;Node10</title>
<path fill="none" stroke="midnightblue" d="M405.34,-498.14C420.39,-496.09 437.4,-493.76 452.89,-491.64"/>
<polygon fill="midnightblue" stroke="midnightblue" points="453.38,-495.11 462.82,-490.29 452.43,-488.17 453.38,-495.11"/>
</g>
</g>
</svg>
        <g id="navigator" transform="translate(0 0)" fill="#404254">
                <rect fill="#f2f5e9" fill-opacity="0.5" stroke="#606060" stroke-width=".5" x="0" y="0" width="60" height="60"/>
                <use id="zoomplus" xlink:href="#zoomPlus" x="17" y="9" onmousedown="handleZoom(evt,'in')"/>
                <use id="zoomminus" xlink:href="#zoomMin" x="42" y="9" onmousedown="handleZoom(evt,'out')"/>
                <use id="reset" xlink:href="#resetDef" x="30" y="36" onmousedown="handleReset()"/>
                <g id="arrowUp" xlink:href="#dirArrow" transform="translate(30 24)" onmousedown="handlePan(0,-1)">
                  <use xlink:href="#rim" fill="#404040">
                        <set attributeName="fill" to="#808080" begin="arrowUp.mouseover" end="arrowUp.mouseout"/>
                  </use>
                  <path fill="none" stroke="white" stroke-width="1.5" d="M0,-3.0v7 M-2.5,-0.5L0,-3.0L2.5,-0.5"/>
                </g>
                <g id="arrowRight" xlink:href="#dirArrow" transform="rotate(90) translate(36 -43)" onmousedown="handlePan(1,0)">
                  <use xlink:href="#rim" fill="#404040">
                        <set attributeName="fill" to="#808080" begin="arrowRight.mouseover" end="arrowRight.mouseout"/>
                  </use>
                  <path fill="none" stroke="white" stroke-width="1.5" d="M0,-3.0v7 M-2.5,-0.5L0,-3.0L2.5,-0.5"/>
                </g>
                <g id="arrowDown" xlink:href="#dirArrow" transform="rotate(180) translate(-30 -48)" onmousedown="handlePan(0,1)">
                  <use xlink:href="#rim" fill="#404040">
                        <set attributeName="fill" to="#808080" begin="arrowDown.mouseover" end="arrowDown.mouseout"/>
                  </use>
                  <path fill="none" stroke="white" stroke-width="1.5" d="M0,-3.0v7 M-2.5,-0.5L0,-3.0L2.5,-0.5"/>
                </g>
                <g id="arrowLeft" xlink:href="#dirArrow" transform="rotate(270) translate(-36 17)" onmousedown="handlePan(-1,0)">
                  <use xlink:href="#rim" fill="#404040">
                        <set attributeName="fill" to="#808080" begin="arrowLeft.mouseover" end="arrowLeft.mouseout"/>
                  </use>
                  <path fill="none" stroke="white" stroke-width="1.5" d="M0,-3.0v7 M-2.5,-0.5L0,-3.0L2.5,-0.5"/>
                </g>
        </g>
        <svg viewBox="0 0 15 15" width="100%" height="30px" preserveAspectRatio="xMaxYMin meet">
         <g id="arrow_out" transform="scale(0.3 0.3)">
          <a xlink:href="quickjs-libc_8c_a7aebce2172c6aa4a6645aef600a69e6b_cgraph_org.svg" target="_base">
           <rect id="button" ry="5" rx="5" y="6" x="6" height="38" width="38"
                fill="#f2f5e9" fill-opacity="0.5" stroke="#606060" stroke-width="1.0"/>
           <path id="arrow"
             d="M 11.500037,31.436501 C 11.940474,20.09759 22.043105,11.32322 32.158766,21.979434 L 37.068811,17.246167 C 37.068811,17.246167 37.088388,32 37.088388,32 L 22.160133,31.978069 C 22.160133,31.978069 26.997745,27.140456 26.997745,27.140456 C 18.528582,18.264221 13.291696,25.230495 11.500037,31.436501 z"
             style="fill:#404040;"/>
          </a>
         </g>
        </svg>
</svg>
