<?xml version="1.0" encoding="UTF-8" standalone="no"?>
<!DOCTYPE svg PUBLIC "-//W3C//DTD SVG 1.1//EN"
 "http://www.w3.org/Graphics/SVG/1.1/DTD/svg11.dtd">
<!-- Generated by graphviz version 2.43.0 (0)
 -->
<!-- Title: JS_SetObjectData Pages: 1 -->
<svg width="586pt" height="902pt"
 viewBox="0.00 0.00 586.00 902.00" xmlns="http://www.w3.org/2000/svg" xmlns:xlink="http://www.w3.org/1999/xlink">
<g id="graph0" class="graph" transform="scale(1 1) rotate(0) translate(4 898)">
<title>JS_SetObjectData</title>
<!-- Node1 -->
<g id="node1" class="node">
<title>Node1</title>
<g id="a_node1"><a xlink:title=" ">
<polygon fill="#bfbfbf" stroke="black" points="477,-760.5 477,-779.5 578,-779.5 578,-760.5 477,-760.5"/>
<text text-anchor="middle" x="527.5" y="-767.5" font-family="Helvetica,sans-Serif" font-size="10.00">JS_SetObjectData</text>
</a>
</g>
</g>
<!-- Node2 -->
<g id="node2" class="node">
<title>Node2</title>
<g id="a_node2"><a xlink:href="quickjs_8c.html#a4c9489297c684663f30e517204a9ec14" target="_top" xlink:title=" ">
<polygon fill="none" stroke="black" points="127,-798.5 127,-817.5 276,-817.5 276,-798.5 127,-798.5"/>
<text text-anchor="middle" x="201.5" y="-805.5" font-family="Helvetica,sans-Serif" font-size="10.00">JS_AddIntrinsicBaseObjects</text>
</a>
</g>
</g>
<!-- Node1&#45;&gt;Node2 -->
<g id="edge1" class="edge">
<title>Node1&#45;&gt;Node2</title>
<path fill="none" stroke="midnightblue" d="M508.89,-786.34C492.66,-800.21 467.17,-819.08 441,-827 369.04,-848.79 279.61,-830.27 233.39,-817.55"/>
<polygon fill="midnightblue" stroke="midnightblue" points="511.31,-788.87 516.49,-779.63 506.68,-783.62 511.31,-788.87"/>
</g>
<!-- Node7 -->
<g id="node4" class="node">
<title>Node7</title>
<g id="a_node4"><a xlink:href="quickjs_8c.html#afdf7195d04af324d0c20a7fd13a040ba" target="_top" xlink:title=" ">
<polygon fill="none" stroke="black" points="312,-798.5 312,-817.5 441,-817.5 441,-798.5 312,-798.5"/>
<text text-anchor="middle" x="376.5" y="-805.5" font-family="Helvetica,sans-Serif" font-size="10.00">js_boolean_constructor</text>
</a>
</g>
</g>
<!-- Node1&#45;&gt;Node7 -->
<g id="edge3" class="edge">
<title>Node1&#45;&gt;Node7</title>
<path fill="none" stroke="midnightblue" d="M479.01,-782.11C458.26,-787.4 434.27,-793.52 414.83,-798.48"/>
<polygon fill="midnightblue" stroke="midnightblue" points="480.08,-785.45 488.9,-779.59 478.35,-778.67 480.08,-785.45"/>
</g>
<!-- Node8 -->
<g id="node5" class="node">
<title>Node8</title>
<g id="a_node5"><a xlink:href="quickjs_8c.html#a7e4e02ec8849f3beaf28dc0613bb4016" target="_top" xlink:title=" ">
<polygon fill="none" stroke="black" points="320.5,-722.5 320.5,-741.5 432.5,-741.5 432.5,-722.5 320.5,-722.5"/>
<text text-anchor="middle" x="376.5" y="-729.5" font-family="Helvetica,sans-Serif" font-size="10.00">js_date_constructor</text>
</a>
</g>
</g>
<!-- Node1&#45;&gt;Node8 -->
<g id="edge5" class="edge">
<title>Node1&#45;&gt;Node8</title>
<path fill="none" stroke="midnightblue" d="M479.01,-757.89C458.26,-752.6 434.27,-746.48 414.83,-741.52"/>
<polygon fill="midnightblue" stroke="midnightblue" points="478.35,-761.33 488.9,-760.41 480.08,-754.55 478.35,-761.33"/>
</g>
<!-- Node10 -->
<g id="node7" class="node">
<title>Node10</title>
<g id="a_node7"><a xlink:href="quickjs_8c.html#a937b22e3f5b47302841957ae0639fd9b" target="_top" xlink:title=" ">
<polygon fill="none" stroke="black" points="312.5,-874.5 312.5,-893.5 440.5,-893.5 440.5,-874.5 312.5,-874.5"/>
<text text-anchor="middle" x="376.5" y="-881.5" font-family="Helvetica,sans-Serif" font-size="10.00">js_number_constructor</text>
</a>
</g>
</g>
<!-- Node1&#45;&gt;Node10 -->
<g id="edge8" class="edge">
<title>Node1&#45;&gt;Node10</title>
<path fill="none" stroke="midnightblue" d="M513.42,-788.03C498.07,-808.05 470.89,-840.15 441,-860 431.97,-866 421.23,-870.78 411.17,-874.46"/>
<polygon fill="midnightblue" stroke="midnightblue" points="516.41,-789.87 519.6,-779.77 510.81,-785.68 516.41,-789.87"/>
</g>
<!-- Node11 -->
<g id="node8" class="node">
<title>Node11</title>
<g id="a_node8"><a xlink:href="quickjs_8c.html#a8fce6f70a6fc880eabcdb9883e3753f2" target="_top" xlink:title=" ">
<polygon fill="none" stroke="black" points="337,-684.5 337,-703.5 416,-703.5 416,-684.5 337,-684.5"/>
<text text-anchor="middle" x="376.5" y="-691.5" font-family="Helvetica,sans-Serif" font-size="10.00">JS_ReadDate</text>
</a>
</g>
</g>
<!-- Node1&#45;&gt;Node11 -->
<g id="edge10" class="edge">
<title>Node1&#45;&gt;Node11</title>
<path fill="none" stroke="midnightblue" d="M506.79,-754.38C490.08,-741.77 465.06,-724.31 441,-713 433.19,-709.33 424.5,-706.18 416.13,-703.56"/>
<polygon fill="midnightblue" stroke="midnightblue" points="504.66,-757.16 514.72,-760.48 508.93,-751.61 504.66,-757.16"/>
</g>
<!-- Node22 -->
<g id="node10" class="node">
<title>Node22</title>
<g id="a_node10"><a xlink:href="quickjs_8c.html#ab834bcc157945cd4dd8873c0d9d70c6a" target="_top" xlink:title=" ">
<polygon fill="none" stroke="black" points="317.5,-760.5 317.5,-779.5 435.5,-779.5 435.5,-760.5 317.5,-760.5"/>
<text text-anchor="middle" x="376.5" y="-767.5" font-family="Helvetica,sans-Serif" font-size="10.00">js_string_constructor</text>
</a>
</g>
</g>
<!-- Node1&#45;&gt;Node22 -->
<g id="edge13" class="edge">
<title>Node1&#45;&gt;Node22</title>
<path fill="none" stroke="midnightblue" d="M466.79,-770C456.53,-770 445.89,-770 435.67,-770"/>
<polygon fill="midnightblue" stroke="midnightblue" points="466.89,-773.5 476.89,-770 466.89,-766.5 466.89,-773.5"/>
</g>
<!-- Node24 -->
<g id="node12" class="node">
<title>Node24</title>
<g id="a_node12"><a xlink:href="quickjs_8c.html#a710289a14c2810467e5b448d3c28bd55" target="_top" xlink:title=" ">
<polygon fill="none" stroke="red" points="340,-342.5 340,-361.5 413,-361.5 413,-342.5 340,-342.5"/>
<text text-anchor="middle" x="376.5" y="-349.5" font-family="Helvetica,sans-Serif" font-size="10.00">JS_ToObject</text>
</a>
</g>
</g>
<!-- Node1&#45;&gt;Node24 -->
<g id="edge16" class="edge">
<title>Node1&#45;&gt;Node24</title>
<path fill="none" stroke="midnightblue" d="M519.61,-750.68C493.37,-677.05 400.1,-415.41 380.95,-361.68"/>
<polygon fill="midnightblue" stroke="midnightblue" points="516.45,-752.24 523.11,-760.48 523.05,-749.89 516.45,-752.24"/>
</g>
<!-- Node3 -->
<g id="node3" class="node">
<title>Node3</title>
<g id="a_node3"><a xlink:href="quickjs_8c.html#ad8aedb643b8753b7a15f6cb2df61945e" target="_top" xlink:title=" ">
<polygon fill="none" stroke="red" points="0,-760.5 0,-779.5 91,-779.5 91,-760.5 0,-760.5"/>
<text text-anchor="middle" x="45.5" y="-767.5" font-family="Helvetica,sans-Serif" font-size="10.00">JS_NewContext</text>
</a>
</g>
</g>
<!-- Node2&#45;&gt;Node3 -->
<g id="edge2" class="edge">
<title>Node2&#45;&gt;Node3</title>
<path fill="none" stroke="midnightblue" d="M151.71,-795.96C130.19,-790.65 105.27,-784.5 85.08,-779.52"/>
<polygon fill="midnightblue" stroke="midnightblue" points="151.09,-799.41 161.64,-798.41 152.77,-792.62 151.09,-799.41"/>
</g>
<!-- Node7&#45;&gt;Node2 -->
<g id="edge4" class="edge">
<title>Node7&#45;&gt;Node2</title>
<path fill="none" stroke="midnightblue" d="M301.43,-808C293.04,-808 284.48,-808 276.09,-808"/>
<polygon fill="midnightblue" stroke="midnightblue" points="301.57,-811.5 311.57,-808 301.57,-804.5 301.57,-811.5"/>
</g>
<!-- Node9 -->
<g id="node6" class="node">
<title>Node9</title>
<g id="a_node6"><a xlink:href="quickjs_8c.html#a8ecbf5799518b7bfc3fefd47c7a0dd4e" target="_top" xlink:title=" ">
<polygon fill="none" stroke="black" points="145.5,-722.5 145.5,-741.5 257.5,-741.5 257.5,-722.5 145.5,-722.5"/>
<text text-anchor="middle" x="201.5" y="-729.5" font-family="Helvetica,sans-Serif" font-size="10.00">JS_AddIntrinsicDate</text>
</a>
</g>
</g>
<!-- Node8&#45;&gt;Node9 -->
<g id="edge6" class="edge">
<title>Node8&#45;&gt;Node9</title>
<path fill="none" stroke="midnightblue" d="M310.27,-732C292.98,-732 274.49,-732 257.78,-732"/>
<polygon fill="midnightblue" stroke="midnightblue" points="310.29,-735.5 320.29,-732 310.29,-728.5 310.29,-735.5"/>
</g>
<!-- Node9&#45;&gt;Node3 -->
<g id="edge7" class="edge">
<title>Node9&#45;&gt;Node3</title>
<path fill="none" stroke="midnightblue" d="M151.71,-744.04C130.19,-749.35 105.27,-755.5 85.08,-760.48"/>
<polygon fill="midnightblue" stroke="midnightblue" points="152.77,-747.38 161.64,-741.59 151.09,-740.59 152.77,-747.38"/>
</g>
<!-- Node10&#45;&gt;Node2 -->
<g id="edge9" class="edge">
<title>Node10&#45;&gt;Node2</title>
<path fill="none" stroke="midnightblue" d="M339.29,-870.9C330.31,-867.49 320.76,-863.73 312,-860 279.85,-846.32 243.36,-828.52 221.67,-817.69"/>
<polygon fill="midnightblue" stroke="midnightblue" points="338.14,-874.21 348.74,-874.44 340.6,-867.65 338.14,-874.21"/>
</g>
<!-- Node12 -->
<g id="node9" class="node">
<title>Node12</title>
<g id="a_node9"><a xlink:href="quickjs_8c.html#a4b8ef2bb3b35e4a5f6ed8bd837a50e7c" target="_top" xlink:title=" ">
<polygon fill="none" stroke="red" points="149,-684.5 149,-703.5 254,-703.5 254,-684.5 149,-684.5"/>
<text text-anchor="middle" x="201.5" y="-691.5" font-family="Helvetica,sans-Serif" font-size="10.00">JS_ReadObjectRec</text>
</a>
</g>
</g>
<!-- Node11&#45;&gt;Node12 -->
<g id="edge11" class="edge">
<title>Node11&#45;&gt;Node12</title>
<path fill="none" stroke="midnightblue" d="M326.63,-687.85C304.06,-687.08 277.24,-687.05 254.32,-687.76"/>
<polygon fill="midnightblue" stroke="midnightblue" points="326.54,-691.35 336.68,-688.26 326.83,-684.36 326.54,-691.35"/>
</g>
<!-- Node12&#45;&gt;Node11 -->
<g id="edge12" class="edge">
<title>Node12&#45;&gt;Node11</title>
<path fill="none" stroke="midnightblue" d="M264.45,-700.5C288.54,-701 315.41,-700.75 336.68,-699.74"/>
<polygon fill="midnightblue" stroke="midnightblue" points="264.41,-697 254.32,-700.24 264.23,-704 264.41,-697"/>
</g>
<!-- Node22&#45;&gt;Node2 -->
<g id="edge14" class="edge">
<title>Node22&#45;&gt;Node2</title>
<path fill="none" stroke="midnightblue" d="M321.99,-781.75C297.53,-787.13 268.93,-793.41 245.84,-798.48"/>
<polygon fill="midnightblue" stroke="midnightblue" points="322.83,-785.15 331.84,-779.59 321.33,-778.32 322.83,-785.15"/>
</g>
<!-- Node23 -->
<g id="node11" class="node">
<title>Node23</title>
<g id="a_node11"><a xlink:href="quickjs_8c.html#a11d88785d98bd7ff5d35128d7a59e630" target="_top" xlink:title=" ">
<polygon fill="none" stroke="black" points="146.5,-760.5 146.5,-779.5 256.5,-779.5 256.5,-760.5 146.5,-760.5"/>
<text text-anchor="middle" x="201.5" y="-767.5" font-family="Helvetica,sans-Serif" font-size="10.00">js_symbol_toString</text>
</a>
</g>
</g>
<!-- Node22&#45;&gt;Node23 -->
<g id="edge15" class="edge">
<title>Node22&#45;&gt;Node23</title>
<path fill="none" stroke="midnightblue" d="M307.12,-770C290.35,-770 272.63,-770 256.64,-770"/>
<polygon fill="midnightblue" stroke="midnightblue" points="307.41,-773.5 317.41,-770 307.41,-766.5 307.41,-773.5"/>
</g>
<!-- Node25 -->
<g id="node13" class="node">
<title>Node25</title>
<g id="a_node13"><a xlink:href="quickjs_8c.html#aaa85fa359f7aa8985f0299147272adef" target="_top" xlink:title=" ">
<polygon fill="none" stroke="black" points="155,-494.5 155,-513.5 248,-513.5 248,-494.5 155,-494.5"/>
<text text-anchor="middle" x="201.5" y="-501.5" font-family="Helvetica,sans-Serif" font-size="10.00">js_array_concat</text>
</a>
</g>
</g>
<!-- Node24&#45;&gt;Node25 -->
<g id="edge17" class="edge">
<title>Node24&#45;&gt;Node25</title>
<path fill="none" stroke="midnightblue" d="M366.62,-370.93C351.97,-400.04 319.92,-455.55 276,-485 267.68,-490.58 257.82,-494.52 248.07,-497.3"/>
<polygon fill="midnightblue" stroke="midnightblue" points="369.83,-372.33 371.07,-361.81 363.54,-369.26 369.83,-372.33"/>
</g>
<!-- Node26 -->
<g id="node14" class="node">
<title>Node26</title>
<g id="a_node14"><a xlink:href="quickjs_8c.html#a93380da0068e066053740a43c8d8f15a" target="_top" xlink:title=" ">
<polygon fill="none" stroke="black" points="143.5,-456.5 143.5,-475.5 259.5,-475.5 259.5,-456.5 143.5,-456.5"/>
<text text-anchor="middle" x="201.5" y="-463.5" font-family="Helvetica,sans-Serif" font-size="10.00">js_array_copyWithin</text>
</a>
</g>
</g>
<!-- Node24&#45;&gt;Node26 -->
<g id="edge18" class="edge">
<title>Node24&#45;&gt;Node26</title>
<path fill="none" stroke="midnightblue" d="M361.8,-369.75C344.24,-391.27 311.77,-427.1 276,-447 269.09,-450.84 261.38,-453.93 253.63,-456.4"/>
<polygon fill="midnightblue" stroke="midnightblue" points="364.68,-371.76 368.18,-361.76 359.21,-367.39 364.68,-371.76"/>
</g>
<!-- Node27 -->
<g id="node15" class="node">
<title>Node27</title>
<g id="a_node15"><a xlink:href="quickjs_8c.html#aa0bbf08a7e91459c68a312fba7016c6d" target="_top" xlink:title=" ">
<polygon fill="none" stroke="black" points="157,-418.5 157,-437.5 246,-437.5 246,-418.5 157,-418.5"/>
<text text-anchor="middle" x="201.5" y="-425.5" font-family="Helvetica,sans-Serif" font-size="10.00">js_array_every</text>
</a>
</g>
</g>
<!-- Node24&#45;&gt;Node27 -->
<g id="edge19" class="edge">
<title>Node24&#45;&gt;Node27</title>
<path fill="none" stroke="midnightblue" d="M353.1,-367.16C333.49,-379.85 303.86,-397.66 276,-409 266.6,-412.83 256.21,-416.07 246.27,-418.73"/>
<polygon fill="midnightblue" stroke="midnightblue" points="355.18,-369.98 361.61,-361.56 351.33,-364.13 355.18,-369.98"/>
</g>
<!-- Node28 -->
<g id="node16" class="node">
<title>Node28</title>
<g id="a_node16"><a xlink:href="quickjs_8c.html#ae2647134d809434118ae04182c0169cb" target="_top" xlink:title=" ">
<polygon fill="none" stroke="black" points="165,-380.5 165,-399.5 238,-399.5 238,-380.5 165,-380.5"/>
<text text-anchor="middle" x="201.5" y="-387.5" font-family="Helvetica,sans-Serif" font-size="10.00">js_array_fill</text>
</a>
</g>
</g>
<!-- Node24&#45;&gt;Node28 -->
<g id="edge20" class="edge">
<title>Node24&#45;&gt;Node28</title>
<path fill="none" stroke="midnightblue" d="M329.84,-362.03C301.11,-368.34 264.57,-376.37 238,-382.2"/>
<polygon fill="midnightblue" stroke="midnightblue" points="330.64,-365.44 339.65,-359.87 329.14,-358.6 330.64,-365.44"/>
</g>
<!-- Node29 -->
<g id="node17" class="node">
<title>Node29</title>
<g id="a_node17"><a xlink:href="quickjs_8c.html#a9dd41b086da4e13b3487cc9c6e2af2b8" target="_top" xlink:title=" ">
<polygon fill="none" stroke="black" points="162,-342.5 162,-361.5 241,-361.5 241,-342.5 162,-342.5"/>
<text text-anchor="middle" x="201.5" y="-349.5" font-family="Helvetica,sans-Serif" font-size="10.00">js_array_find</text>
</a>
</g>
</g>
<!-- Node24&#45;&gt;Node29 -->
<g id="edge21" class="edge">
<title>Node24&#45;&gt;Node29</title>
<path fill="none" stroke="midnightblue" d="M329.45,-352C301.85,-352 267.15,-352 241,-352"/>
<polygon fill="midnightblue" stroke="midnightblue" points="329.65,-355.5 339.65,-352 329.65,-348.5 329.65,-355.5"/>
</g>
<!-- Node30 -->
<g id="node18" class="node">
<title>Node30</title>
<g id="a_node18"><a xlink:href="quickjs_8c.html#a12e173fe76ae1141ef47318f9d0cbea7" target="_top" xlink:title=" ">
<polygon fill="none" stroke="black" points="155.5,-304.5 155.5,-323.5 247.5,-323.5 247.5,-304.5 155.5,-304.5"/>
<text text-anchor="middle" x="201.5" y="-311.5" font-family="Helvetica,sans-Serif" font-size="10.00">js_array_flatten</text>
</a>
</g>
</g>
<!-- Node24&#45;&gt;Node30 -->
<g id="edge22" class="edge">
<title>Node24&#45;&gt;Node30</title>
<path fill="none" stroke="midnightblue" d="M329.69,-341.94C303.76,-336.24 271.5,-329.16 245.96,-323.55"/>
<polygon fill="midnightblue" stroke="midnightblue" points="329.14,-345.4 339.65,-344.13 330.64,-338.56 329.14,-345.4"/>
</g>
<!-- Node31 -->
<g id="node19" class="node">
<title>Node31</title>
<g id="a_node19"><a xlink:href="quickjs_8c.html#a5e32da9a43002cb96dcbd62a1a340144" target="_top" xlink:title=" ">
<polygon fill="none" stroke="black" points="159.5,-266.5 159.5,-285.5 243.5,-285.5 243.5,-266.5 159.5,-266.5"/>
<text text-anchor="middle" x="201.5" y="-273.5" font-family="Helvetica,sans-Serif" font-size="10.00">js_array_from</text>
</a>
</g>
</g>
<!-- Node24&#45;&gt;Node31 -->
<g id="edge23" class="edge">
<title>Node24&#45;&gt;Node31</title>
<path fill="none" stroke="midnightblue" d="M353.1,-336.84C333.49,-324.15 303.86,-306.34 276,-295 265.75,-290.83 254.31,-287.35 243.57,-284.55"/>
<polygon fill="midnightblue" stroke="midnightblue" points="351.33,-339.87 361.61,-342.44 355.18,-334.02 351.33,-339.87"/>
</g>
<!-- Node32 -->
<g id="node20" class="node">
<title>Node32</title>
<g id="a_node20"><a xlink:href="quickjs_8c.html#a2ef89587b2e4287d4bd0417788c8e21e" target="_top" xlink:title=" ">
<polygon fill="none" stroke="red" points="151,-228.5 151,-247.5 252,-247.5 252,-228.5 151,-228.5"/>
<text text-anchor="middle" x="201.5" y="-235.5" font-family="Helvetica,sans-Serif" font-size="10.00">js_array_includes</text>
</a>
</g>
</g>
<!-- Node24&#45;&gt;Node32 -->
<g id="edge24" class="edge">
<title>Node24&#45;&gt;Node32</title>
<path fill="none" stroke="midnightblue" d="M361.8,-334.25C344.24,-312.73 311.77,-276.9 276,-257 268.63,-252.9 260.35,-249.66 252.08,-247.11"/>
<polygon fill="midnightblue" stroke="midnightblue" points="359.21,-336.61 368.18,-342.24 364.68,-332.24 359.21,-336.61"/>
</g>
<!-- Node36 -->
<g id="node21" class="node">
<title>Node36</title>
<g id="a_node21"><a xlink:href="quickjs_8c.html#af4bd013e63a5d5d55e4d4700d80de12e" target="_top" xlink:title=" ">
<polygon fill="none" stroke="black" points="152,-190.5 152,-209.5 251,-209.5 251,-190.5 152,-190.5"/>
<text text-anchor="middle" x="201.5" y="-197.5" font-family="Helvetica,sans-Serif" font-size="10.00">js_array_indexOf</text>
</a>
</g>
</g>
<!-- Node24&#45;&gt;Node36 -->
<g id="edge25" class="edge">
<title>Node24&#45;&gt;Node36</title>
<path fill="none" stroke="midnightblue" d="M366.62,-333.07C351.97,-303.96 319.92,-248.45 276,-219 268.56,-214.01 259.88,-210.33 251.15,-207.61"/>
<polygon fill="midnightblue" stroke="midnightblue" points="363.54,-334.74 371.07,-342.19 369.83,-331.67 363.54,-334.74"/>
</g>
<!-- Node37 -->
<g id="node22" class="node">
<title>Node37</title>
<g id="a_node22"><a xlink:href="quickjs_8c.html#a4f8035820871c730dd7e98d46e137bc1" target="_top" xlink:title=" ">
<polygon fill="none" stroke="black" points="162,-152.5 162,-171.5 241,-171.5 241,-152.5 162,-152.5"/>
<text text-anchor="middle" x="201.5" y="-159.5" font-family="Helvetica,sans-Serif" font-size="10.00">js_array_join</text>
</a>
</g>
</g>
<!-- Node24&#45;&gt;Node37 -->
<g id="edge26" class="edge">
<title>Node24&#45;&gt;Node37</title>
<path fill="none" stroke="midnightblue" d="M369.83,-332.82C358.29,-297.2 328.6,-220.85 276,-181 266.02,-173.44 253.33,-168.87 241.31,-166.12"/>
<polygon fill="midnightblue" stroke="midnightblue" points="366.52,-333.97 372.84,-342.48 373.21,-331.89 366.52,-333.97"/>
</g>
<!-- Node38 -->
<g id="node23" class="node">
<title>Node38</title>
<g id="a_node23"><a xlink:href="quickjs_8c.html#acb566d2d7d0ce8fed7bb7f73d3baa508" target="_top" xlink:title=" ">
<polygon fill="none" stroke="black" points="143,-114.5 143,-133.5 260,-133.5 260,-114.5 143,-114.5"/>
<text text-anchor="middle" x="201.5" y="-121.5" font-family="Helvetica,sans-Serif" font-size="10.00">js_array_lastIndexOf</text>
</a>
</g>
</g>
<!-- Node24&#45;&gt;Node38 -->
<g id="edge27" class="edge">
<title>Node24&#45;&gt;Node38</title>
<path fill="none" stroke="midnightblue" d="M371.93,-332.39C363.3,-290.83 337.34,-193.6 276,-143 271.32,-139.14 265.95,-136.06 260.29,-133.59"/>
<polygon fill="midnightblue" stroke="midnightblue" points="368.52,-333.19 373.88,-342.33 375.39,-331.85 368.52,-333.19"/>
</g>
<!-- Node39 -->
<g id="node24" class="node">
<title>Node39</title>
<g id="a_node24"><a xlink:href="quickjs_8c.html#a01281ea66186a034a0e9021ee8c9f945" target="_top" xlink:title=" ">
<polygon fill="none" stroke="red" points="162,-76.5 162,-95.5 241,-95.5 241,-76.5 162,-76.5"/>
<text text-anchor="middle" x="201.5" y="-83.5" font-family="Helvetica,sans-Serif" font-size="10.00">js_array_pop</text>
</a>
</g>
</g>
<!-- Node24&#45;&gt;Node39 -->
<g id="edge28" class="edge">
<title>Node24&#45;&gt;Node39</title>
<path fill="none" stroke="midnightblue" d="M373.52,-332.43C367.72,-285.69 346.45,-166.84 276,-105 266.39,-96.57 253.51,-91.8 241.22,-89.12"/>
<polygon fill="midnightblue" stroke="midnightblue" points="370.05,-332.91 374.66,-342.45 377.01,-332.12 370.05,-332.91"/>
</g>
<!-- Node40 -->
<g id="node25" class="node">
<title>Node40</title>
<g id="a_node25"><a xlink:href="quickjs_8c.html#a3d640b89712ebda808c0c3eca9849674" target="_top" xlink:title=" ">
<polygon fill="none" stroke="red" points="159.5,-38.5 159.5,-57.5 243.5,-57.5 243.5,-38.5 159.5,-38.5"/>
<text text-anchor="middle" x="201.5" y="-45.5" font-family="Helvetica,sans-Serif" font-size="10.00">js_array_push</text>
</a>
</g>
</g>
<!-- Node24&#45;&gt;Node40 -->
<g id="edge29" class="edge">
<title>Node24&#45;&gt;Node40</title>
<path fill="none" stroke="midnightblue" d="M374.71,-332.29C371.52,-280.63 355.59,-140.25 276,-67 267.17,-58.88 255.34,-54.13 243.74,-51.38"/>
<polygon fill="midnightblue" stroke="midnightblue" points="371.22,-332.62 375.23,-342.42 378.21,-332.26 371.22,-332.62"/>
</g>
<!-- Node41 -->
<g id="node26" class="node">
<title>Node41</title>
<g id="a_node26"><a xlink:href="quickjs_8c.html#a36c1692489542a86dd79a7d39ab8ff95" target="_top" xlink:title=" ">
<polygon fill="none" stroke="black" points="154.5,-0.5 154.5,-19.5 248.5,-19.5 248.5,-0.5 154.5,-0.5"/>
<text text-anchor="middle" x="201.5" y="-7.5" font-family="Helvetica,sans-Serif" font-size="10.00">js_array_reduce</text>
</a>
</g>
</g>
<!-- Node24&#45;&gt;Node41 -->
<g id="edge30" class="edge">
<title>Node24&#45;&gt;Node41</title>
<path fill="none" stroke="midnightblue" d="M375.64,-332.36C374.94,-276.26 364.92,-113.93 276,-29 268.47,-21.81 258.59,-17.25 248.52,-14.37"/>
<polygon fill="midnightblue" stroke="midnightblue" points="372.14,-332.39 375.68,-342.38 379.14,-332.36 372.14,-332.39"/>
</g>
<!-- Node42 -->
<g id="node27" class="node">
<title>Node42</title>
<g id="a_node27"><a xlink:href="quickjs_8c.html#a8235fb13f196d6ef5002daed858b7eeb" target="_top" xlink:title=" ">
<polygon fill="none" stroke="black" points="152.5,-646.5 152.5,-665.5 250.5,-665.5 250.5,-646.5 152.5,-646.5"/>
<text text-anchor="middle" x="201.5" y="-653.5" font-family="Helvetica,sans-Serif" font-size="10.00">js_array_reverse</text>
</a>
</g>
</g>
<!-- Node24&#45;&gt;Node42 -->
<g id="edge31" class="edge">
<title>Node24&#45;&gt;Node42</title>
<path fill="none" stroke="midnightblue" d="M374.71,-371.71C371.52,-423.37 355.59,-563.75 276,-637 268.92,-643.52 259.9,-647.86 250.63,-650.74"/>
<polygon fill="midnightblue" stroke="midnightblue" points="378.21,-371.74 375.23,-361.58 371.22,-371.38 378.21,-371.74"/>
</g>
<!-- Node43 -->
<g id="node28" class="node">
<title>Node43</title>
<g id="a_node28"><a xlink:href="quickjs_8c.html#a70b7ec8358ab99b905686d5bf80950cc" target="_top" xlink:title=" ">
<polygon fill="none" stroke="black" points="160,-608.5 160,-627.5 243,-627.5 243,-608.5 160,-608.5"/>
<text text-anchor="middle" x="201.5" y="-615.5" font-family="Helvetica,sans-Serif" font-size="10.00">js_array_slice</text>
</a>
</g>
</g>
<!-- Node24&#45;&gt;Node43 -->
<g id="edge32" class="edge">
<title>Node24&#45;&gt;Node43</title>
<path fill="none" stroke="midnightblue" d="M373.52,-371.57C367.72,-418.31 346.45,-537.16 276,-599 266.89,-607 254.83,-611.7 243.13,-614.45"/>
<polygon fill="midnightblue" stroke="midnightblue" points="377.01,-371.88 374.66,-361.55 370.05,-371.09 377.01,-371.88"/>
</g>
<!-- Node44 -->
<g id="node29" class="node">
<title>Node44</title>
<g id="a_node29"><a xlink:href="quickjs_8c.html#a874518d6b2fb6ff79531c4a9652202f3" target="_top" xlink:title=" ">
<polygon fill="none" stroke="black" points="161.5,-570.5 161.5,-589.5 241.5,-589.5 241.5,-570.5 161.5,-570.5"/>
<text text-anchor="middle" x="201.5" y="-577.5" font-family="Helvetica,sans-Serif" font-size="10.00">js_array_sort</text>
</a>
</g>
</g>
<!-- Node24&#45;&gt;Node44 -->
<g id="edge33" class="edge">
<title>Node24&#45;&gt;Node44</title>
<path fill="none" stroke="midnightblue" d="M371.93,-371.61C363.3,-413.17 337.34,-510.4 276,-561 266.34,-568.97 253.73,-573.64 241.69,-576.36"/>
<polygon fill="midnightblue" stroke="midnightblue" points="375.39,-372.15 373.88,-361.67 368.52,-370.81 375.39,-372.15"/>
</g>
<!-- Node45 -->
<g id="node30" class="node">
<title>Node45</title>
<g id="a_node30"><a xlink:href="quickjs_8c.html#a2b86c3fdfa95b86030c1cbbc5f0ba0f5" target="_top" xlink:title=" ">
<polygon fill="none" stroke="black" points="152,-532.5 152,-551.5 251,-551.5 251,-532.5 152,-532.5"/>
<text text-anchor="middle" x="201.5" y="-539.5" font-family="Helvetica,sans-Serif" font-size="10.00">js_array_toString</text>
</a>
</g>
</g>
<!-- Node24&#45;&gt;Node45 -->
<g id="edge34" class="edge">
<title>Node24&#45;&gt;Node45</title>
<path fill="none" stroke="midnightblue" d="M369.83,-371.18C358.29,-406.8 328.6,-483.15 276,-523 268.75,-528.49 260.07,-532.4 251.26,-535.19"/>
<polygon fill="midnightblue" stroke="midnightblue" points="373.21,-372.11 372.84,-361.52 366.52,-370.03 373.21,-372.11"/>
</g>
</g>
</svg>
