<?xml version="1.0" encoding="UTF-8" standalone="no"?>
<!DOCTYPE svg PUBLIC "-//W3C//DTD SVG 1.1//EN"
 "http://www.w3.org/Graphics/SVG/1.1/DTD/svg11.dtd">
<!-- Generated by graphviz version 2.43.0 (0)
 -->
<!-- Title: string_buffer_free Pages: 1 -->
<svg width="612pt" height="864pt"
 viewBox="0.00 0.00 612.00 864.00" xmlns="http://www.w3.org/2000/svg" xmlns:xlink="http://www.w3.org/1999/xlink">
<g id="graph0" class="graph" transform="scale(1 1) rotate(0) translate(4 860)">
<title>string_buffer_free</title>
<!-- Node1 -->
<g id="node1" class="node">
<title>Node1</title>
<g id="a_node1"><a xlink:title=" ">
<polygon fill="#bfbfbf" stroke="black" points="501,-418.5 501,-437.5 604,-437.5 604,-418.5 501,-418.5"/>
<text text-anchor="middle" x="552.5" y="-425.5" font-family="Helvetica,sans-Serif" font-size="10.00">string_buffer_free</text>
</a>
</g>
</g>
<!-- Node2 -->
<g id="node2" class="node">
<title>Node2</title>
<g id="a_node2"><a xlink:href="quickjs_8c.html#a4f8035820871c730dd7e98d46e137bc1" target="_top" xlink:title=" ">
<polygon fill="none" stroke="black" points="351,-836.5 351,-855.5 430,-855.5 430,-836.5 351,-836.5"/>
<text text-anchor="middle" x="390.5" y="-843.5" font-family="Helvetica,sans-Serif" font-size="10.00">js_array_join</text>
</a>
</g>
</g>
<!-- Node1&#45;&gt;Node2 -->
<g id="edge1" class="edge">
<title>Node1&#45;&gt;Node2</title>
<path fill="none" stroke="midnightblue" d="M549.91,-447.76C543.7,-520.39 518.62,-771.22 465,-827 455.96,-836.41 442.92,-841.38 430.32,-843.94"/>
<polygon fill="midnightblue" stroke="midnightblue" points="553.41,-447.95 550.75,-437.69 546.44,-447.37 553.41,-447.95"/>
</g>
<!-- Node3 -->
<g id="node3" class="node">
<title>Node3</title>
<g id="a_node3"><a xlink:href="quickjs_8c.html#a43064473b2e303ee40f4c1c7a87e85da" target="_top" xlink:title=" ">
<polygon fill="none" stroke="black" points="325.5,-798.5 325.5,-817.5 455.5,-817.5 455.5,-798.5 325.5,-798.5"/>
<text text-anchor="middle" x="390.5" y="-805.5" font-family="Helvetica,sans-Serif" font-size="10.00">js_function_constructor</text>
</a>
</g>
</g>
<!-- Node1&#45;&gt;Node3 -->
<g id="edge2" class="edge">
<title>Node1&#45;&gt;Node3</title>
<path fill="none" stroke="midnightblue" d="M549.4,-448.05C541.82,-516.47 513.78,-739.35 465,-789 461.21,-792.85 456.75,-795.96 451.93,-798.46"/>
<polygon fill="midnightblue" stroke="midnightblue" points="552.91,-448.1 550.51,-437.78 545.95,-447.35 552.91,-448.1"/>
</g>
<!-- Node10 -->
<g id="node6" class="node">
<title>Node10</title>
<g id="a_node6"><a xlink:href="quickjs_8c.html#a7357f73356c16b9df497ae29e866fe6e" target="_top" xlink:title=" ">
<polygon fill="none" stroke="black" points="331.5,-760.5 331.5,-779.5 449.5,-779.5 449.5,-760.5 331.5,-760.5"/>
<text text-anchor="middle" x="390.5" y="-767.5" font-family="Helvetica,sans-Serif" font-size="10.00">js_global_decodeURI</text>
</a>
</g>
</g>
<!-- Node1&#45;&gt;Node10 -->
<g id="edge5" class="edge">
<title>Node1&#45;&gt;Node10</title>
<path fill="none" stroke="midnightblue" d="M548.8,-447.97C539.83,-511.49 509.05,-707.33 465,-751 460.6,-755.36 455.34,-758.76 449.68,-761.41"/>
<polygon fill="midnightblue" stroke="midnightblue" points="552.32,-448.1 550.22,-437.71 545.38,-447.14 552.32,-448.1"/>
</g>
<!-- Node11 -->
<g id="node7" class="node">
<title>Node11</title>
<g id="a_node7"><a xlink:href="quickjs_8c.html#a975ad6644d33f58847309ee2127f6888" target="_top" xlink:title=" ">
<polygon fill="none" stroke="black" points="331.5,-722.5 331.5,-741.5 449.5,-741.5 449.5,-722.5 331.5,-722.5"/>
<text text-anchor="middle" x="390.5" y="-729.5" font-family="Helvetica,sans-Serif" font-size="10.00">js_global_encodeURI</text>
</a>
</g>
</g>
<!-- Node1&#45;&gt;Node11 -->
<g id="edge6" class="edge">
<title>Node1&#45;&gt;Node11</title>
<path fill="none" stroke="midnightblue" d="M551.29,-447.69C549.67,-498.18 538.34,-633.48 465,-708 458.79,-714.31 450.89,-718.97 442.59,-722.4"/>
<polygon fill="midnightblue" stroke="midnightblue" points="554.79,-447.58 551.52,-437.51 547.8,-447.43 554.79,-447.58"/>
</g>
<!-- Node12 -->
<g id="node8" class="node">
<title>Node12</title>
<g id="a_node8"><a xlink:href="quickjs_8c.html#a343a343b16bc3c9875050e99ee0d2884" target="_top" xlink:title=" ">
<polygon fill="none" stroke="black" points="158,-684.5 158,-703.5 253,-703.5 253,-684.5 158,-684.5"/>
<text text-anchor="middle" x="205.5" y="-691.5" font-family="Helvetica,sans-Serif" font-size="10.00">JS_JSONStringify</text>
</a>
</g>
</g>
<!-- Node1&#45;&gt;Node12 -->
<g id="edge7" class="edge">
<title>Node1&#45;&gt;Node12</title>
<path fill="none" stroke="midnightblue" d="M551.34,-447.69C549.78,-495.65 538.46,-618.73 465,-675 401.77,-723.43 302.4,-713.98 247.09,-703.53"/>
<polygon fill="midnightblue" stroke="midnightblue" points="554.84,-447.75 551.56,-437.67 547.84,-447.6 554.84,-447.75"/>
</g>
<!-- Node14 -->
<g id="node10" class="node">
<title>Node14</title>
<g id="a_node10"><a xlink:href="quickjs_8c.html#ac34cc554aab1e98c45a7f845fff64385" target="_top" xlink:title=" ">
<polygon fill="none" stroke="red" points="341.5,-646.5 341.5,-665.5 439.5,-665.5 439.5,-646.5 341.5,-646.5"/>
<text text-anchor="middle" x="390.5" y="-653.5" font-family="Helvetica,sans-Serif" font-size="10.00">JS_NewStringLen</text>
</a>
</g>
</g>
<!-- Node1&#45;&gt;Node14 -->
<g id="edge9" class="edge">
<title>Node1&#45;&gt;Node14</title>
<path fill="none" stroke="midnightblue" d="M549.21,-447.56C543.3,-489 523.64,-586.02 465,-637 457.84,-643.23 448.89,-647.45 439.73,-650.31"/>
<polygon fill="midnightblue" stroke="midnightblue" points="552.69,-448.01 550.51,-437.64 545.74,-447.1 552.69,-448.01"/>
</g>
<!-- Node658 -->
<g id="node14" class="node">
<title>Node658</title>
<g id="a_node14"><a xlink:href="quickjs_8c.html#ad8cc04ce826a1a1d078c18192a9fd784" target="_top" xlink:title=" ">
<polygon fill="none" stroke="red" points="334,-608.5 334,-627.5 447,-627.5 447,-608.5 334,-608.5"/>
<text text-anchor="middle" x="390.5" y="-615.5" font-family="Helvetica,sans-Serif" font-size="10.00">JS_NewUTF32String</text>
</a>
</g>
</g>
<!-- Node1&#45;&gt;Node658 -->
<g id="edge14" class="edge">
<title>Node1&#45;&gt;Node658</title>
<path fill="none" stroke="midnightblue" d="M547.09,-448.11C538.14,-484.06 514.34,-559.28 465,-599 459.76,-603.21 453.7,-606.5 447.34,-609.07"/>
<polygon fill="midnightblue" stroke="midnightblue" points="550.61,-448.45 549.49,-437.91 543.79,-446.85 550.61,-448.45"/>
</g>
<!-- Node659 -->
<g id="node15" class="node">
<title>Node659</title>
<g id="a_node15"><a xlink:href="quickjs_8c.html#acb789e8ccb230adfd9262642ff338177" target="_top" xlink:title=" ">
<polygon fill="none" stroke="red" points="342.5,-570.5 342.5,-589.5 438.5,-589.5 438.5,-570.5 342.5,-570.5"/>
<text text-anchor="middle" x="390.5" y="-577.5" font-family="Helvetica,sans-Serif" font-size="10.00">js_parse_regexp</text>
</a>
</g>
</g>
<!-- Node1&#45;&gt;Node659 -->
<g id="edge15" class="edge">
<title>Node1&#45;&gt;Node659</title>
<path fill="none" stroke="midnightblue" d="M544.31,-447.3C532.42,-476.51 505.83,-531.63 465,-561 457.19,-566.62 447.86,-570.58 438.51,-573.37"/>
<polygon fill="midnightblue" stroke="midnightblue" points="547.64,-448.39 548.03,-437.81 541.12,-445.84 547.64,-448.39"/>
</g>
<!-- Node660 -->
<g id="node16" class="node">
<title>Node660</title>
<g id="a_node16"><a xlink:href="quickjs_8c.html#ace438176f9f0e0fea6d6f5cdffb1577e" target="_top" xlink:title=" ">
<polygon fill="none" stroke="red" points="345.5,-532.5 345.5,-551.5 435.5,-551.5 435.5,-532.5 345.5,-532.5"/>
<text text-anchor="middle" x="390.5" y="-539.5" font-family="Helvetica,sans-Serif" font-size="10.00">js_parse_string</text>
</a>
</g>
</g>
<!-- Node1&#45;&gt;Node660 -->
<g id="edge16" class="edge">
<title>Node1&#45;&gt;Node660</title>
<path fill="none" stroke="midnightblue" d="M539.73,-446.38C524.92,-468.01 497.45,-503.44 465,-523 456.08,-528.38 445.67,-532.24 435.53,-535.02"/>
<polygon fill="midnightblue" stroke="midnightblue" points="542.83,-448.05 545.45,-437.79 537,-444.17 542.83,-448.05"/>
</g>
<!-- Node661 -->
<g id="node17" class="node">
<title>Node661</title>
<g id="a_node17"><a xlink:href="quickjs_8c.html#a4bd17ae26c9b4e0ab5f7fd320199eb2e" target="_top" xlink:title=" ">
<polygon fill="none" stroke="red" points="325,-494.5 325,-513.5 456,-513.5 456,-494.5 325,-494.5"/>
<text text-anchor="middle" x="390.5" y="-501.5" font-family="Helvetica,sans-Serif" font-size="10.00">js_parse_template_part</text>
</a>
</g>
</g>
<!-- Node1&#45;&gt;Node661 -->
<g id="edge17" class="edge">
<title>Node1&#45;&gt;Node661</title>
<path fill="none" stroke="midnightblue" d="M528.99,-443.46C511.97,-454.67 487.73,-469.62 465,-480 452.67,-485.63 438.63,-490.56 426.14,-494.45"/>
<polygon fill="midnightblue" stroke="midnightblue" points="531.28,-446.14 537.65,-437.67 527.39,-440.32 531.28,-446.14"/>
</g>
<!-- Node94 -->
<g id="node18" class="node">
<title>Node94</title>
<g id="a_node18"><a xlink:href="quickjs_8c.html#a6a77bcdb9f7f18c13c108c99a198708b" target="_top" xlink:title=" ">
<polygon fill="none" stroke="black" points="132,-380.5 132,-399.5 279,-399.5 279,-380.5 132,-380.5"/>
<text text-anchor="middle" x="205.5" y="-387.5" font-family="Helvetica,sans-Serif" font-size="10.00">js_regexp_Symbol_replace</text>
</a>
</g>
</g>
<!-- Node1&#45;&gt;Node94 -->
<g id="edge18" class="edge">
<title>Node1&#45;&gt;Node94</title>
<path fill="none" stroke="midnightblue" d="M507,-439.89C459.14,-450.77 381.14,-462.94 316,-447 278.53,-437.83 239.62,-413.38 219.81,-399.66"/>
<polygon fill="midnightblue" stroke="midnightblue" points="508.1,-443.23 517.03,-437.53 506.49,-436.42 508.1,-443.23"/>
</g>
<!-- Node433 -->
<g id="node19" class="node">
<title>Node433</title>
<g id="a_node19"><a xlink:href="quickjs_8c.html#a7b44b5cacbbb59aa0c12d52690baf412" target="_top" xlink:title=" ">
<polygon fill="none" stroke="black" points="337,-418.5 337,-437.5 444,-437.5 444,-418.5 337,-418.5"/>
<text text-anchor="middle" x="390.5" y="-425.5" font-family="Helvetica,sans-Serif" font-size="10.00">js_regexp_toString</text>
</a>
</g>
</g>
<!-- Node1&#45;&gt;Node433 -->
<g id="edge19" class="edge">
<title>Node1&#45;&gt;Node433</title>
<path fill="none" stroke="midnightblue" d="M490.46,-428C475.15,-428 458.86,-428 444,-428"/>
<polygon fill="midnightblue" stroke="midnightblue" points="490.88,-431.5 500.88,-428 490.87,-424.5 490.88,-431.5"/>
</g>
<!-- Node233 -->
<g id="node20" class="node">
<title>Node233</title>
<g id="a_node20"><a xlink:href="quickjs_8c.html#a14fa3c10f581e1cd38b349913f47fb43" target="_top" xlink:title=" ">
<polygon fill="none" stroke="black" points="340.5,-380.5 340.5,-399.5 440.5,-399.5 440.5,-380.5 340.5,-380.5"/>
<text text-anchor="middle" x="390.5" y="-387.5" font-family="Helvetica,sans-Serif" font-size="10.00">JS_RegExpDelete</text>
</a>
</g>
</g>
<!-- Node1&#45;&gt;Node233 -->
<g id="edge20" class="edge">
<title>Node1&#45;&gt;Node233</title>
<path fill="none" stroke="midnightblue" d="M501.11,-416.03C478.69,-410.71 452.65,-404.52 431.58,-399.52"/>
<polygon fill="midnightblue" stroke="midnightblue" points="500.59,-419.51 511.13,-418.41 502.2,-412.69 500.59,-419.51"/>
</g>
<!-- Node386 -->
<g id="node21" class="node">
<title>Node386</title>
<g id="a_node21"><a xlink:href="quickjs_8c.html#adb4d2990e6bf3f99633512ad2054b47a" target="_top" xlink:title=" ">
<polygon fill="none" stroke="black" points="316,-342.5 316,-361.5 465,-361.5 465,-342.5 316,-342.5"/>
<text text-anchor="middle" x="390.5" y="-349.5" font-family="Helvetica,sans-Serif" font-size="10.00">js_string___GetSubstitution</text>
</a>
</g>
</g>
<!-- Node1&#45;&gt;Node386 -->
<g id="edge22" class="edge">
<title>Node1&#45;&gt;Node386</title>
<path fill="none" stroke="midnightblue" d="M531.64,-412.16C514.78,-399.4 489.5,-381.87 465,-371 456.57,-367.26 447.25,-364.14 438.16,-361.59"/>
<polygon fill="midnightblue" stroke="midnightblue" points="529.59,-414.99 539.64,-418.33 533.86,-409.45 529.59,-414.99"/>
</g>
<!-- Node199 -->
<g id="node22" class="node">
<title>Node199</title>
<g id="a_node22"><a xlink:href="quickjs_8c.html#aed1bf9ce4b9e3a82388679dd6ec7635b" target="_top" xlink:title=" ">
<polygon fill="none" stroke="black" points="156,-323.5 156,-342.5 255,-342.5 255,-323.5 156,-323.5"/>
<text text-anchor="middle" x="205.5" y="-330.5" font-family="Helvetica,sans-Serif" font-size="10.00">js_string_replace</text>
</a>
</g>
</g>
<!-- Node1&#45;&gt;Node199 -->
<g id="edge30" class="edge">
<title>Node1&#45;&gt;Node199</title>
<path fill="none" stroke="midnightblue" d="M541.31,-409.53C527.47,-386.61 500.35,-348.62 465,-333 393.16,-301.26 298.74,-312.91 246.19,-323.47"/>
<polygon fill="midnightblue" stroke="midnightblue" points="538.37,-411.44 546.41,-418.33 544.42,-407.92 538.37,-411.44"/>
</g>
<!-- Node595 -->
<g id="node23" class="node">
<title>Node595</title>
<g id="a_node23"><a xlink:href="quickjs_8c.html#a82cb999c219dbe6148c7df47ad6bb262" target="_top" xlink:title=" ">
<polygon fill="none" stroke="black" points="329,-266.5 329,-285.5 452,-285.5 452,-266.5 329,-266.5"/>
<text text-anchor="middle" x="390.5" y="-273.5" font-family="Helvetica,sans-Serif" font-size="10.00">js_string_CreateHTML</text>
</a>
</g>
</g>
<!-- Node1&#45;&gt;Node595 -->
<g id="edge25" class="edge">
<title>Node1&#45;&gt;Node595</title>
<path fill="none" stroke="midnightblue" d="M543.54,-408.95C530.92,-381.05 503.74,-329.21 465,-300 456.64,-293.7 446.55,-289.01 436.56,-285.53"/>
<polygon fill="midnightblue" stroke="midnightblue" points="540.44,-410.62 547.65,-418.38 546.86,-407.81 540.44,-410.62"/>
</g>
<!-- Node506 -->
<g id="node24" class="node">
<title>Node506</title>
<g id="a_node24"><a xlink:href="quickjs_8c.html#a2fc0d38ffd9ec3320b5b0767e85ed5db" target="_top" xlink:title=" ">
<polygon fill="none" stroke="black" points="323.5,-228.5 323.5,-247.5 457.5,-247.5 457.5,-228.5 323.5,-228.5"/>
<text text-anchor="middle" x="390.5" y="-235.5" font-family="Helvetica,sans-Serif" font-size="10.00">js_string_fromCharCode</text>
</a>
</g>
</g>
<!-- Node1&#45;&gt;Node506 -->
<g id="edge26" class="edge">
<title>Node1&#45;&gt;Node506</title>
<path fill="none" stroke="midnightblue" d="M547.09,-407.89C538.14,-371.94 514.34,-296.72 465,-257 460.17,-253.12 454.64,-250.02 448.83,-247.55"/>
<polygon fill="midnightblue" stroke="midnightblue" points="543.79,-409.15 549.49,-418.09 550.61,-407.55 543.79,-409.15"/>
</g>
<!-- Node472 -->
<g id="node25" class="node">
<title>Node472</title>
<g id="a_node25"><a xlink:href="quickjs_8c.html#affbdac19b10671cfe3ac54f3d8f33b38" target="_top" xlink:title=" ">
<polygon fill="none" stroke="black" points="322.5,-190.5 322.5,-209.5 458.5,-209.5 458.5,-190.5 322.5,-190.5"/>
<text text-anchor="middle" x="390.5" y="-197.5" font-family="Helvetica,sans-Serif" font-size="10.00">js_string_fromCodePoint</text>
</a>
</g>
</g>
<!-- Node1&#45;&gt;Node472 -->
<g id="edge27" class="edge">
<title>Node1&#45;&gt;Node472</title>
<path fill="none" stroke="midnightblue" d="M549.21,-408.44C543.3,-367 523.64,-269.98 465,-219 460.52,-215.11 455.35,-212 449.86,-209.51"/>
<polygon fill="midnightblue" stroke="midnightblue" points="545.74,-408.9 550.51,-418.36 552.69,-407.99 545.74,-408.9"/>
</g>
<!-- Node528 -->
<g id="node26" class="node">
<title>Node528</title>
<g id="a_node26"><a xlink:href="quickjs_8c.html#afe038ef522a8c7c8862cfe18a0c0a785" target="_top" xlink:title=" ">
<polygon fill="none" stroke="black" points="350,-152.5 350,-171.5 431,-171.5 431,-152.5 350,-152.5"/>
<text text-anchor="middle" x="390.5" y="-159.5" font-family="Helvetica,sans-Serif" font-size="10.00">js_string_pad</text>
</a>
</g>
</g>
<!-- Node1&#45;&gt;Node528 -->
<g id="edge28" class="edge">
<title>Node1&#45;&gt;Node528</title>
<path fill="none" stroke="midnightblue" d="M550.63,-408.5C547.47,-361.91 532.82,-243.36 465,-181 455.78,-172.53 443.28,-167.72 431.21,-165.04"/>
<polygon fill="midnightblue" stroke="midnightblue" points="547.14,-408.7 551.2,-418.48 554.13,-408.3 547.14,-408.7"/>
</g>
<!-- Node353 -->
<g id="node27" class="node">
<title>Node353</title>
<g id="a_node27"><a xlink:href="quickjs_8c.html#a80bed67de3ceaf66888093b5fc84972a" target="_top" xlink:title=" ">
<polygon fill="none" stroke="black" points="350,-114.5 350,-133.5 431,-133.5 431,-114.5 350,-114.5"/>
<text text-anchor="middle" x="390.5" y="-121.5" font-family="Helvetica,sans-Serif" font-size="10.00">js_string_raw</text>
</a>
</g>
</g>
<!-- Node1&#45;&gt;Node353 -->
<g id="edge29" class="edge">
<title>Node1&#45;&gt;Node353</title>
<path fill="none" stroke="midnightblue" d="M551.69,-408.36C551.07,-356.88 542.02,-216.87 465,-143 455.87,-134.24 443.25,-129.38 431.04,-126.72"/>
<polygon fill="midnightblue" stroke="midnightblue" points="548.19,-408.47 551.71,-418.46 555.19,-408.45 548.19,-408.47"/>
</g>
<!-- Node596 -->
<g id="node28" class="node">
<title>Node596</title>
<g id="a_node28"><a xlink:href="quickjs_8c.html#a3e0cdeed1c6f41927e75164d350e25bf" target="_top" xlink:title=" ">
<polygon fill="none" stroke="black" points="327.5,-76.5 327.5,-95.5 453.5,-95.5 453.5,-76.5 327.5,-76.5"/>
<text text-anchor="middle" x="390.5" y="-83.5" font-family="Helvetica,sans-Serif" font-size="10.00">js_string_toLowerCase</text>
</a>
</g>
</g>
<!-- Node1&#45;&gt;Node596 -->
<g id="edge31" class="edge">
<title>Node1&#45;&gt;Node596</title>
<path fill="none" stroke="midnightblue" d="M548.8,-408.03C539.83,-344.51 509.05,-148.67 465,-105 461.16,-101.2 456.67,-98.12 451.83,-95.64"/>
<polygon fill="midnightblue" stroke="midnightblue" points="545.38,-408.86 550.22,-418.29 552.32,-407.9 545.38,-408.86"/>
</g>
<!-- Node598 -->
<g id="node29" class="node">
<title>Node598</title>
<g id="a_node29"><a xlink:href="quickjs_8c.html#ae5057ca2d025c62cc64ba12541f7925b" target="_top" xlink:title=" ">
<polygon fill="none" stroke="red" points="338,-38.5 338,-57.5 443,-57.5 443,-38.5 338,-38.5"/>
<text text-anchor="middle" x="390.5" y="-45.5" font-family="Helvetica,sans-Serif" font-size="10.00">JS_ToQuotedString</text>
</a>
</g>
</g>
<!-- Node1&#45;&gt;Node598 -->
<g id="edge32" class="edge">
<title>Node1&#45;&gt;Node598</title>
<path fill="none" stroke="midnightblue" d="M549.4,-407.95C541.82,-339.53 513.78,-116.65 465,-67 459,-60.89 451.3,-56.66 443.17,-53.74"/>
<polygon fill="midnightblue" stroke="midnightblue" points="545.95,-408.65 550.51,-418.22 552.91,-407.9 545.95,-408.65"/>
</g>
<!-- Node415 -->
<g id="node30" class="node">
<title>Node415</title>
<g id="a_node30"><a xlink:href="quickjs_8c.html#aa04ea5aa5c3614856e8cd9843f1ebaa1" target="_top" xlink:title=" ">
<polygon fill="none" stroke="black" points="334.5,-0.5 334.5,-19.5 446.5,-19.5 446.5,-0.5 334.5,-0.5"/>
<text text-anchor="middle" x="390.5" y="-7.5" font-family="Helvetica,sans-Serif" font-size="10.00">js_typed_array_join</text>
</a>
</g>
</g>
<!-- Node1&#45;&gt;Node415 -->
<g id="edge33" class="edge">
<title>Node1&#45;&gt;Node415</title>
<path fill="none" stroke="midnightblue" d="M549.91,-408.24C543.7,-335.61 518.62,-84.78 465,-29 459.89,-23.68 453.49,-19.78 446.62,-16.93"/>
<polygon fill="midnightblue" stroke="midnightblue" points="546.44,-408.63 550.75,-418.31 553.41,-408.05 546.44,-408.63"/>
</g>
<!-- Node4 -->
<g id="node4" class="node">
<title>Node4</title>
<g id="a_node4"><a xlink:href="quickjs_8c.html#a4c9489297c684663f30e517204a9ec14" target="_top" xlink:title=" ">
<polygon fill="none" stroke="red" points="131,-817.5 131,-836.5 280,-836.5 280,-817.5 131,-817.5"/>
<text text-anchor="middle" x="205.5" y="-824.5" font-family="Helvetica,sans-Serif" font-size="10.00">JS_AddIntrinsicBaseObjects</text>
</a>
</g>
</g>
<!-- Node3&#45;&gt;Node4 -->
<g id="edge3" class="edge">
<title>Node3&#45;&gt;Node4</title>
<path fill="none" stroke="midnightblue" d="M315.41,-815.69C303.79,-816.9 291.79,-818.14 280.18,-819.35"/>
<polygon fill="midnightblue" stroke="midnightblue" points="315.91,-819.16 325.5,-814.65 315.19,-812.2 315.91,-819.16"/>
</g>
<!-- Node9 -->
<g id="node5" class="node">
<title>Node9</title>
<g id="a_node5"><a xlink:href="quickjs_8c.html#a2e66fcf1bc1d19f346317f10ee590621" target="_top" xlink:title=" ">
<polygon fill="none" stroke="red" points="141.5,-779.5 141.5,-798.5 269.5,-798.5 269.5,-779.5 141.5,-779.5"/>
<text text-anchor="middle" x="205.5" y="-786.5" font-family="Helvetica,sans-Serif" font-size="10.00">JS_AddIntrinsicPromise</text>
</a>
</g>
</g>
<!-- Node3&#45;&gt;Node9 -->
<g id="edge4" class="edge">
<title>Node3&#45;&gt;Node9</title>
<path fill="none" stroke="midnightblue" d="M315.15,-800.28C300.01,-798.71 284.23,-797.07 269.54,-795.55"/>
<polygon fill="midnightblue" stroke="midnightblue" points="315.19,-803.8 325.5,-801.35 315.91,-796.84 315.19,-803.8"/>
</g>
<!-- Node13 -->
<g id="node9" class="node">
<title>Node13</title>
<g id="a_node9"><a xlink:href="quickjs_8c.html#ad2e4811daaaacb846df56bc88bd84e03" target="_top" xlink:title=" ">
<polygon fill="none" stroke="black" points="0,-684.5 0,-703.5 95,-703.5 95,-684.5 0,-684.5"/>
<text text-anchor="middle" x="47.5" y="-691.5" font-family="Helvetica,sans-Serif" font-size="10.00">js_json_stringify</text>
</a>
</g>
</g>
<!-- Node12&#45;&gt;Node13 -->
<g id="edge8" class="edge">
<title>Node12&#45;&gt;Node13</title>
<path fill="none" stroke="midnightblue" d="M147.22,-694C130.03,-694 111.4,-694 95,-694"/>
<polygon fill="midnightblue" stroke="midnightblue" points="147.69,-697.5 157.69,-694 147.69,-690.5 147.69,-697.5"/>
</g>
<!-- Node14&#45;&gt;Node12 -->
<g id="edge12" class="edge">
<title>Node14&#45;&gt;Node12</title>
<path fill="none" stroke="midnightblue" d="M333.25,-667.68C307.29,-673.07 276.88,-679.39 252.35,-684.48"/>
<polygon fill="midnightblue" stroke="midnightblue" points="334.24,-671.05 343.32,-665.59 332.82,-664.2 334.24,-671.05"/>
</g>
<!-- Node15 -->
<g id="node11" class="node">
<title>Node15</title>
<g id="a_node11"><a xlink:href="quickjs_8c.html#ab522181d975cc7949088c8ff67fedde0" target="_top" xlink:title=" ">
<polygon fill="none" stroke="red" points="159.5,-646.5 159.5,-665.5 251.5,-665.5 251.5,-646.5 159.5,-646.5"/>
<text text-anchor="middle" x="205.5" y="-653.5" font-family="Helvetica,sans-Serif" font-size="10.00">get_date_string</text>
</a>
</g>
</g>
<!-- Node14&#45;&gt;Node15 -->
<g id="edge10" class="edge">
<title>Node14&#45;&gt;Node15</title>
<path fill="none" stroke="midnightblue" d="M331.4,-656C305.65,-656 275.8,-656 251.74,-656"/>
<polygon fill="midnightblue" stroke="midnightblue" points="331.42,-659.5 341.42,-656 331.42,-652.5 331.42,-659.5"/>
</g>
<!-- Node18 -->
<g id="node12" class="node">
<title>Node18</title>
<g id="a_node12"><a xlink:href="quickjs_8c.html#a9876c37aa1b715e05e0e5fe1b46bcf3d" target="_top" xlink:title=" ">
<polygon fill="none" stroke="black" points="149,-608.5 149,-627.5 262,-627.5 262,-608.5 149,-608.5"/>
<text text-anchor="middle" x="205.5" y="-615.5" font-family="Helvetica,sans-Serif" font-size="10.00">js_function_toString</text>
</a>
</g>
</g>
<!-- Node14&#45;&gt;Node18 -->
<g id="edge11" class="edge">
<title>Node14&#45;&gt;Node18</title>
<path fill="none" stroke="midnightblue" d="M333.25,-644.32C307.29,-638.93 276.88,-632.61 252.35,-627.52"/>
<polygon fill="midnightblue" stroke="midnightblue" points="332.82,-647.8 343.32,-646.41 334.24,-640.95 332.82,-647.8"/>
</g>
<!-- Node19 -->
<g id="node13" class="node">
<title>Node19</title>
<g id="a_node13"><a xlink:href="quickjs_8c.html#a522741f41afb1d0da0aa55968cd8579e" target="_top" xlink:title=" ">
<polygon fill="none" stroke="red" points="157.5,-570.5 157.5,-589.5 253.5,-589.5 253.5,-570.5 157.5,-570.5"/>
<text text-anchor="middle" x="205.5" y="-577.5" font-family="Helvetica,sans-Serif" font-size="10.00">JS_NewAtomLen</text>
</a>
</g>
</g>
<!-- Node14&#45;&gt;Node19 -->
<g id="edge13" class="edge">
<title>Node14&#45;&gt;Node19</title>
<path fill="none" stroke="midnightblue" d="M331.47,-644.33C326.07,-642.27 320.83,-639.84 316,-637 295.96,-625.19 300.04,-610.81 280,-599 271.94,-594.25 262.7,-590.67 253.55,-587.98"/>
<polygon fill="midnightblue" stroke="midnightblue" points="330.7,-647.77 341.29,-647.67 332.95,-641.14 330.7,-647.77"/>
</g>
<!-- Node233&#45;&gt;Node94 -->
<g id="edge21" class="edge">
<title>Node233&#45;&gt;Node94</title>
<path fill="none" stroke="midnightblue" d="M330.03,-390C313.78,-390 295.98,-390 279.09,-390"/>
<polygon fill="midnightblue" stroke="midnightblue" points="330.46,-393.5 340.46,-390 330.46,-386.5 330.46,-393.5"/>
</g>
<!-- Node386&#45;&gt;Node94 -->
<g id="edge23" class="edge">
<title>Node386&#45;&gt;Node94</title>
<path fill="none" stroke="midnightblue" d="M333.25,-363.68C307.29,-369.07 276.88,-375.39 252.35,-380.48"/>
<polygon fill="midnightblue" stroke="midnightblue" points="334.24,-367.05 343.32,-361.59 332.82,-360.2 334.24,-367.05"/>
</g>
<!-- Node386&#45;&gt;Node199 -->
<g id="edge24" class="edge">
<title>Node386&#45;&gt;Node199</title>
<path fill="none" stroke="midnightblue" d="M305.71,-343.3C288.36,-341.5 270.64,-339.66 255.07,-338.04"/>
<polygon fill="midnightblue" stroke="midnightblue" points="305.55,-346.8 315.86,-344.35 306.27,-339.84 305.55,-346.8"/>
</g>
</g>
</svg>
