<?xml version="1.0" encoding="UTF-8" standalone="no"?>
<!DOCTYPE svg PUBLIC "-//W3C//DTD SVG 1.1//EN"
 "http://www.w3.org/Graphics/SVG/1.1/DTD/svg11.dtd">
<!-- Generated by graphviz version 2.43.0 (0)
 -->
<!-- Title: js_parse_import Pages: 1 -->
<!--zoomable 190 -->
<svg id="main" version="1.1" xmlns="http://www.w3.org/2000/svg" xmlns:xlink="http://www.w3.org/1999/xlink" xml:space="preserve" onload="init(evt)">
<style type="text/css"><![CDATA[
.edge:hover path { stroke: red; }
.edge:hover polygon { stroke: red; fill: red; }
]]></style>
<script type="text/javascript"><![CDATA[
var edges = document.getElementsByTagName('g');
if (edges && edges.length) {
  for (var i=0;i<edges.length;i++) {
    if (edges[i].id.substr(0,4)=='edge') {
      edges[i].setAttribute('class','edge');
    }
  }
}
]]></script>
        <defs>
                <circle id="rim" cx="0" cy="0" r="7"/>
                <circle id="rim2" cx="0" cy="0" r="3.5"/>
                <g id="zoomPlus">
                        <use xlink:href="#rim" fill="#404040">
                                <set attributeName="fill" to="#808080" begin="zoomplus.mouseover" end="zoomplus.mouseout"/>
                        </use>
                        <path d="M-4,0h8M0,-4v8" fill="none" stroke="white" stroke-width="1.5" pointer-events="none"/>
                </g>
                <g id="zoomMin">
                        <use xlink:href="#rim" fill="#404040">
                                <set attributeName="fill" to="#808080" begin="zoomminus.mouseover" end="zoomminus.mouseout"/>
                        </use>
                        <path d="M-4,0h8" fill="none" stroke="white" stroke-width="1.5" pointer-events="none"/>
                </g>
                <g id="dirArrow">
                        <path fill="none" stroke="white" stroke-width="1.5" d="M0,-3.0v7 M-2.5,-0.5L0,-3.0L2.5,-0.5"/>
                </g>
               <g id="resetDef">
                       <use xlink:href="#rim2" fill="#404040">
                               <set attributeName="fill" to="#808080" begin="reset.mouseover" end="reset.mouseout"/>
                       </use>
               </g>
        </defs>

<script type="text/javascript">
var viewWidth = 889;
var viewHeight = 190;
var sectionId = 'dynsection-1169';
</script>
<script xlink:href="svgpan.js"/>
<svg id="graph" class="graph">
<g id="viewport">
<title>js_parse_import</title>
<!-- Node1 -->
<g id="node1" class="node">
<title>Node1</title>
<g id="a_node1"><a xlink:title=" ">
<polygon fill="#bfbfbf" stroke="black" points="786,-49.64 786,-68.64 881,-68.64 881,-49.64 786,-49.64"/>
<text text-anchor="middle" x="833.5" y="-56.64" font-family="Helvetica,sans-Serif" font-size="10.00">js_parse_import</text>
</a>
</g>
</g>
<!-- Node2 -->
<g id="node2" class="node">
<title>Node2</title>
<g id="a_node2"><a xlink:href="quickjs_8c.html#ab59a3267a100decc9d2d81eb3297794a" target="_top" xlink:title=" ">
<polygon fill="none" stroke="black" points="610,-49.64 610,-68.64 750,-68.64 750,-49.64 610,-49.64"/>
<text text-anchor="middle" x="680" y="-56.64" font-family="Helvetica,sans-Serif" font-size="10.00">js_parse_source_element</text>
</a>
</g>
</g>
<!-- Node1&#45;&gt;Node2 -->
<g id="edge1" class="edge">
<title>Node1&#45;&gt;Node2</title>
<path fill="none" stroke="midnightblue" d="M775.78,-59.14C767.4,-59.14 758.69,-59.14 750.09,-59.14"/>
<polygon fill="midnightblue" stroke="midnightblue" points="775.81,-62.64 785.81,-59.14 775.81,-55.64 775.81,-62.64"/>
</g>
<!-- Node3 -->
<g id="node3" class="node">
<title>Node3</title>
<g id="a_node3"><a xlink:href="quickjs_8c.html#acc9eb677cab8dfcf45f59381f8a19601" target="_top" xlink:title=" ">
<polygon fill="none" stroke="black" points="440,-106.64 440,-125.64 574,-125.64 574,-106.64 440,-106.64"/>
<text text-anchor="middle" x="507" y="-113.64" font-family="Helvetica,sans-Serif" font-size="10.00">js_parse_function_decl2</text>
</a>
</g>
</g>
<!-- Node2&#45;&gt;Node3 -->
<g id="edge2" class="edge">
<title>Node2&#45;&gt;Node3</title>
<path fill="none" stroke="midnightblue" d="M640.62,-71.93C609.13,-82.43 565.23,-97.06 536.71,-106.57"/>
<polygon fill="midnightblue" stroke="midnightblue" points="642,-75.16 650.38,-68.68 639.78,-68.52 642,-75.16"/>
</g>
<!-- Node31 -->
<g id="node8" class="node">
<title>Node31</title>
<g id="a_node8"><a xlink:href="quickjs_8c.html#aec05caae64451720670d1a56040110b3" target="_top" xlink:title=" ">
<polygon fill="none" stroke="black" points="455,-30.64 455,-49.64 559,-49.64 559,-30.64 455,-30.64"/>
<text text-anchor="middle" x="507" y="-37.64" font-family="Helvetica,sans-Serif" font-size="10.00">js_parse_program</text>
</a>
</g>
</g>
<!-- Node2&#45;&gt;Node31 -->
<g id="edge11" class="edge">
<title>Node2&#45;&gt;Node31</title>
<path fill="none" stroke="midnightblue" d="M599.92,-50.35C586.07,-48.81 572,-47.25 559.17,-45.82"/>
<polygon fill="midnightblue" stroke="midnightblue" points="599.62,-53.84 609.94,-51.47 600.39,-46.88 599.62,-53.84"/>
</g>
<!-- Node4 -->
<g id="node4" class="node">
<title>Node4</title>
<g id="a_node4"><a xlink:href="quickjs_8c.html#a00eb789430243c24dab4a63ad6a79653" target="_top" xlink:title=" ">
<polygon fill="none" stroke="red" points="130,-144.64 130,-163.64 217,-163.64 217,-144.64 130,-144.64"/>
<text text-anchor="middle" x="173.5" y="-151.64" font-family="Helvetica,sans-Serif" font-size="10.00">js_parse_class</text>
</a>
</g>
</g>
<!-- Node3&#45;&gt;Node4 -->
<g id="edge3" class="edge">
<title>Node3&#45;&gt;Node4</title>
<path fill="none" stroke="midnightblue" d="M485.52,-131.76C465.84,-145.72 434.64,-165.16 404,-173.14 335.71,-190.92 252.5,-175.15 207.4,-163.64"/>
<polygon fill="midnightblue" stroke="midnightblue" points="487.69,-134.51 493.71,-125.79 483.57,-128.85 487.69,-134.51"/>
</g>
<!-- Node5 -->
<g id="node5" class="node">
<title>Node5</title>
<g id="a_node5"><a xlink:href="quickjs_8c.html#a498e1d5c7de1b59c1630e9847cde1e41" target="_top" xlink:title=" ">
<polygon fill="none" stroke="black" points="0,-106.64 0,-125.64 94,-125.64 94,-106.64 0,-106.64"/>
<text text-anchor="middle" x="47" y="-113.64" font-family="Helvetica,sans-Serif" font-size="10.00">js_parse_export</text>
</a>
</g>
</g>
<!-- Node3&#45;&gt;Node5 -->
<g id="edge8" class="edge">
<title>Node3&#45;&gt;Node5</title>
<path fill="none" stroke="midnightblue" d="M429.7,-116.14C334.04,-116.14 173.06,-116.14 94.26,-116.14"/>
<polygon fill="midnightblue" stroke="midnightblue" points="429.89,-119.64 439.89,-116.14 429.89,-112.64 429.89,-119.64"/>
</g>
<!-- Node29 -->
<g id="node6" class="node">
<title>Node29</title>
<g id="a_node6"><a xlink:href="quickjs_8c.html#adf95ddf430ef93fd9efea1cc2f8a2fbe" target="_top" xlink:title=" ">
<polygon fill="none" stroke="black" points="253,-144.64 253,-163.64 404,-163.64 404,-144.64 253,-144.64"/>
<text text-anchor="middle" x="328.5" y="-151.64" font-family="Helvetica,sans-Serif" font-size="10.00">js_parse_class_default_ctor</text>
</a>
</g>
</g>
<!-- Node3&#45;&gt;Node29 -->
<g id="edge6" class="edge">
<title>Node3&#45;&gt;Node29</title>
<path fill="none" stroke="midnightblue" d="M451.41,-127.89C426.46,-133.26 397.27,-139.55 373.72,-144.62"/>
<polygon fill="midnightblue" stroke="midnightblue" points="452.42,-131.25 461.46,-125.73 450.95,-124.41 452.42,-131.25"/>
</g>
<!-- Node30 -->
<g id="node7" class="node">
<title>Node30</title>
<g id="a_node7"><a xlink:href="quickjs_8c.html#a3cad0b329e5f016dce8d42b4196c3499" target="_top" xlink:title=" ">
<polygon fill="none" stroke="red" points="264.5,-68.64 264.5,-87.64 392.5,-87.64 392.5,-68.64 264.5,-68.64"/>
<text text-anchor="middle" x="328.5" y="-75.64" font-family="Helvetica,sans-Serif" font-size="10.00">js_parse_function_decl</text>
</a>
</g>
</g>
<!-- Node3&#45;&gt;Node30 -->
<g id="edge9" class="edge">
<title>Node3&#45;&gt;Node30</title>
<path fill="none" stroke="midnightblue" d="M451.41,-104.39C426.46,-99.01 397.27,-92.73 373.72,-87.66"/>
<polygon fill="midnightblue" stroke="midnightblue" points="450.95,-107.87 461.46,-106.55 452.42,-101.02 450.95,-107.87"/>
</g>
<!-- Node4&#45;&gt;Node5 -->
<g id="edge4" class="edge">
<title>Node4&#45;&gt;Node5</title>
<path fill="none" stroke="midnightblue" d="M131.43,-141.6C114.49,-136.43 95.18,-130.54 79.41,-125.72"/>
<polygon fill="midnightblue" stroke="midnightblue" points="130.5,-144.98 141.08,-144.55 132.54,-138.28 130.5,-144.98"/>
</g>
<!-- Node5&#45;&gt;Node2 -->
<g id="edge5" class="edge">
<title>Node5&#45;&gt;Node2</title>
<path fill="none" stroke="midnightblue" d="M71.13,-101.31C107.9,-78.7 182.73,-36.63 253,-21.14 392.32,9.57 433.48,3.51 574,-21.14 604.74,-26.53 638.35,-40.17 659.05,-49.55"/>
<polygon fill="midnightblue" stroke="midnightblue" points="69.26,-98.35 62.63,-106.61 72.96,-104.29 69.26,-98.35"/>
</g>
<!-- Node29&#45;&gt;Node4 -->
<g id="edge7" class="edge">
<title>Node29&#45;&gt;Node4</title>
<path fill="none" stroke="midnightblue" d="M242.72,-154.14C233.84,-154.14 225.11,-154.14 217.01,-154.14"/>
<polygon fill="midnightblue" stroke="midnightblue" points="242.79,-157.64 252.79,-154.14 242.79,-150.64 242.79,-157.64"/>
</g>
<!-- Node30&#45;&gt;Node2 -->
<g id="edge10" class="edge">
<title>Node30&#45;&gt;Node2</title>
<path fill="none" stroke="midnightblue" d="M402.86,-74.15C463.89,-70.83 550.15,-66.14 609.95,-62.89"/>
<polygon fill="midnightblue" stroke="midnightblue" points="402.33,-70.67 392.53,-74.71 402.71,-77.66 402.33,-70.67"/>
</g>
<!-- Node32 -->
<g id="node9" class="node">
<title>Node32</title>
<g id="a_node9"><a xlink:href="quickjs_8c.html#a46a8a7e155cfd0af984f6725f060f0d6" target="_top" xlink:title=" ">
<polygon fill="none" stroke="red" points="278.5,-30.64 278.5,-49.64 378.5,-49.64 378.5,-30.64 278.5,-30.64"/>
<text text-anchor="middle" x="328.5" y="-37.64" font-family="Helvetica,sans-Serif" font-size="10.00">__JS_EvalInternal</text>
</a>
</g>
</g>
<!-- Node31&#45;&gt;Node32 -->
<g id="edge12" class="edge">
<title>Node31&#45;&gt;Node32</title>
<path fill="none" stroke="midnightblue" d="M444.87,-40.14C423.21,-40.14 399.14,-40.14 378.61,-40.14"/>
<polygon fill="midnightblue" stroke="midnightblue" points="444.95,-43.64 454.95,-40.14 444.95,-36.64 444.95,-43.64"/>
</g>
</g>
</svg>
        <g id="navigator" transform="translate(0 0)" fill="#404254">
                <rect fill="#f2f5e9" fill-opacity="0.5" stroke="#606060" stroke-width=".5" x="0" y="0" width="60" height="60"/>
                <use id="zoomplus" xlink:href="#zoomPlus" x="17" y="9" onmousedown="handleZoom(evt,'in')"/>
                <use id="zoomminus" xlink:href="#zoomMin" x="42" y="9" onmousedown="handleZoom(evt,'out')"/>
                <use id="reset" xlink:href="#resetDef" x="30" y="36" onmousedown="handleReset()"/>
                <g id="arrowUp" xlink:href="#dirArrow" transform="translate(30 24)" onmousedown="handlePan(0,-1)">
                  <use xlink:href="#rim" fill="#404040">
                        <set attributeName="fill" to="#808080" begin="arrowUp.mouseover" end="arrowUp.mouseout"/>
                  </use>
                  <path fill="none" stroke="white" stroke-width="1.5" d="M0,-3.0v7 M-2.5,-0.5L0,-3.0L2.5,-0.5"/>
                </g>
                <g id="arrowRight" xlink:href="#dirArrow" transform="rotate(90) translate(36 -43)" onmousedown="handlePan(1,0)">
                  <use xlink:href="#rim" fill="#404040">
                        <set attributeName="fill" to="#808080" begin="arrowRight.mouseover" end="arrowRight.mouseout"/>
                  </use>
                  <path fill="none" stroke="white" stroke-width="1.5" d="M0,-3.0v7 M-2.5,-0.5L0,-3.0L2.5,-0.5"/>
                </g>
                <g id="arrowDown" xlink:href="#dirArrow" transform="rotate(180) translate(-30 -48)" onmousedown="handlePan(0,1)">
                  <use xlink:href="#rim" fill="#404040">
                        <set attributeName="fill" to="#808080" begin="arrowDown.mouseover" end="arrowDown.mouseout"/>
                  </use>
                  <path fill="none" stroke="white" stroke-width="1.5" d="M0,-3.0v7 M-2.5,-0.5L0,-3.0L2.5,-0.5"/>
                </g>
                <g id="arrowLeft" xlink:href="#dirArrow" transform="rotate(270) translate(-36 17)" onmousedown="handlePan(-1,0)">
                  <use xlink:href="#rim" fill="#404040">
                        <set attributeName="fill" to="#808080" begin="arrowLeft.mouseover" end="arrowLeft.mouseout"/>
                  </use>
                  <path fill="none" stroke="white" stroke-width="1.5" d="M0,-3.0v7 M-2.5,-0.5L0,-3.0L2.5,-0.5"/>
                </g>
        </g>
        <svg viewBox="0 0 15 15" width="100%" height="30px" preserveAspectRatio="xMaxYMin meet">
         <g id="arrow_out" transform="scale(0.3 0.3)">
          <a xlink:href="quickjs_8c_aa24f7964f6d938a05c3c3c03af5a01e9_icgraph_org.svg" target="_base">
           <rect id="button" ry="5" rx="5" y="6" x="6" height="38" width="38"
                fill="#f2f5e9" fill-opacity="0.5" stroke="#606060" stroke-width="1.0"/>
           <path id="arrow"
             d="M 11.500037,31.436501 C 11.940474,20.09759 22.043105,11.32322 32.158766,21.979434 L 37.068811,17.246167 C 37.068811,17.246167 37.088388,32 37.088388,32 L 22.160133,31.978069 C 22.160133,31.978069 26.997745,27.140456 26.997745,27.140456 C 18.528582,18.264221 13.291696,25.230495 11.500037,31.436501 z"
             style="fill:#404040;"/>
          </a>
         </g>
        </svg>
</svg>
