<?xml version="1.0" encoding="UTF-8" standalone="no"?>
<!DOCTYPE svg PUBLIC "-//W3C//DTD SVG 1.1//EN"
 "http://www.w3.org/Graphics/SVG/1.1/DTD/svg11.dtd">
<!-- Generated by graphviz version 2.43.0 (0)
 -->
<!-- Title: string_buffer_concat Pages: 1 -->
<svg width="670pt" height="692pt"
 viewBox="0.00 0.00 670.00 692.00" xmlns="http://www.w3.org/2000/svg" xmlns:xlink="http://www.w3.org/1999/xlink">
<g id="graph0" class="graph" transform="scale(1 1) rotate(0) translate(4 688)">
<title>string_buffer_concat</title>
<!-- Node1 -->
<g id="node1" class="node">
<title>Node1</title>
<g id="a_node1"><a xlink:title=" ">
<polygon fill="#bfbfbf" stroke="black" points="546,-196.5 546,-215.5 662,-215.5 662,-196.5 546,-196.5"/>
<text text-anchor="middle" x="604" y="-203.5" font-family="Helvetica,sans-Serif" font-size="10.00">string_buffer_concat</text>
</a>
</g>
</g>
<!-- Node2 -->
<g id="node2" class="node">
<title>Node2</title>
<g id="a_node2"><a xlink:href="quickjs_8c.html#a4f8035820871c730dd7e98d46e137bc1" target="_top" xlink:title=" ">
<polygon fill="none" stroke="black" points="244,-152.5 244,-171.5 323,-171.5 323,-152.5 244,-152.5"/>
<text text-anchor="middle" x="283.5" y="-159.5" font-family="Helvetica,sans-Serif" font-size="10.00">js_array_join</text>
</a>
</g>
</g>
<!-- Node1&#45;&gt;Node2 -->
<g id="edge1" class="edge">
<title>Node1&#45;&gt;Node2</title>
<path fill="none" stroke="midnightblue" d="M562.99,-193.56C546.7,-188.94 527.59,-184.08 510,-181 444.99,-169.62 368.19,-164.99 323.07,-163.16"/>
<polygon fill="midnightblue" stroke="midnightblue" points="562.15,-196.97 572.73,-196.39 564.1,-190.24 562.15,-196.97"/>
</g>
<!-- Node3 -->
<g id="node3" class="node">
<title>Node3</title>
<g id="a_node3"><a xlink:href="quickjs_8c.html#a964b0ba49f8823d8d8f21c6645a81542" target="_top" xlink:title=" ">
<polygon fill="none" stroke="black" points="402.5,-512.5 402.5,-531.5 501.5,-531.5 501.5,-512.5 402.5,-512.5"/>
<text text-anchor="middle" x="452" y="-519.5" font-family="Helvetica,sans-Serif" font-size="10.00">JS_ConcatString3</text>
</a>
</g>
</g>
<!-- Node1&#45;&gt;Node3 -->
<g id="edge2" class="edge">
<title>Node1&#45;&gt;Node3</title>
<path fill="none" stroke="midnightblue" d="M595.65,-224.99C580.77,-262.99 545.45,-350.85 510,-422 493.07,-455.98 469.87,-494.61 459.04,-512.26"/>
<polygon fill="midnightblue" stroke="midnightblue" points="598.92,-226.24 599.29,-215.65 592.4,-223.69 598.92,-226.24"/>
</g>
<!-- Node50 -->
<g id="node13" class="node">
<title>Node50</title>
<g id="a_node13"><a xlink:href="quickjs_8c.html#a6a77bcdb9f7f18c13c108c99a198708b" target="_top" xlink:title=" ">
<polygon fill="none" stroke="black" points="13,-313.5 13,-332.5 160,-332.5 160,-313.5 13,-313.5"/>
<text text-anchor="middle" x="86.5" y="-320.5" font-family="Helvetica,sans-Serif" font-size="10.00">js_regexp_Symbol_replace</text>
</a>
</g>
</g>
<!-- Node1&#45;&gt;Node50 -->
<g id="edge14" class="edge">
<title>Node1&#45;&gt;Node50</title>
<path fill="none" stroke="midnightblue" d="M598.91,-225.45C590.04,-262.08 565.23,-340.54 510,-373 373.09,-453.46 168.14,-363.51 106,-332.63"/>
<polygon fill="midnightblue" stroke="midnightblue" points="602.37,-226.05 601.17,-215.52 595.54,-224.5 602.37,-226.05"/>
</g>
<!-- Node152 -->
<g id="node14" class="node">
<title>Node152</title>
<g id="a_node14"><a xlink:href="quickjs_8c.html#a14fa3c10f581e1cd38b349913f47fb43" target="_top" xlink:title=" ">
<polygon fill="none" stroke="black" points="402,-344.5 402,-363.5 502,-363.5 502,-344.5 402,-344.5"/>
<text text-anchor="middle" x="452" y="-351.5" font-family="Helvetica,sans-Serif" font-size="10.00">JS_RegExpDelete</text>
</a>
</g>
</g>
<!-- Node1&#45;&gt;Node152 -->
<g id="edge15" class="edge">
<title>Node1&#45;&gt;Node152</title>
<path fill="none" stroke="midnightblue" d="M590.97,-224.09C574.61,-247.82 543.49,-289.83 510,-319 498.44,-329.07 483.65,-338.06 472.03,-344.41"/>
<polygon fill="midnightblue" stroke="midnightblue" points="593.96,-225.92 596.68,-215.69 588.17,-221.99 593.96,-225.92"/>
</g>
<!-- Node356 -->
<g id="node15" class="node">
<title>Node356</title>
<g id="a_node15"><a xlink:href="quickjs_8c.html#adb4d2990e6bf3f99633512ad2054b47a" target="_top" xlink:title=" ">
<polygon fill="none" stroke="black" points="209,-228.5 209,-247.5 358,-247.5 358,-228.5 209,-228.5"/>
<text text-anchor="middle" x="283.5" y="-235.5" font-family="Helvetica,sans-Serif" font-size="10.00">js_string___GetSubstitution</text>
</a>
</g>
</g>
<!-- Node1&#45;&gt;Node356 -->
<g id="edge17" class="edge">
<title>Node1&#45;&gt;Node356</title>
<path fill="none" stroke="midnightblue" d="M563.03,-218.35C546.74,-222.84 527.63,-227.44 510,-230 459.7,-237.29 402.46,-239.25 358.24,-239.4"/>
<polygon fill="midnightblue" stroke="midnightblue" points="564.1,-221.68 572.76,-215.58 562.19,-214.95 564.1,-221.68"/>
</g>
<!-- Node110 -->
<g id="node16" class="node">
<title>Node110</title>
<g id="a_node16"><a xlink:href="quickjs_8c.html#aed1bf9ce4b9e3a82388679dd6ec7635b" target="_top" xlink:title=" ">
<polygon fill="none" stroke="black" points="37,-190.5 37,-209.5 136,-209.5 136,-190.5 37,-190.5"/>
<text text-anchor="middle" x="86.5" y="-197.5" font-family="Helvetica,sans-Serif" font-size="10.00">js_string_replace</text>
</a>
</g>
</g>
<!-- Node1&#45;&gt;Node110 -->
<g id="edge22" class="edge">
<title>Node1&#45;&gt;Node110</title>
<path fill="none" stroke="midnightblue" d="M586.56,-189.29C569.13,-172.6 540.02,-147.54 510,-134 387.49,-78.75 336.07,-61.22 209,-105 158.87,-122.27 113.61,-169.66 95.67,-190.24"/>
<polygon fill="midnightblue" stroke="midnightblue" points="584.12,-191.79 593.71,-196.3 589.02,-186.8 584.12,-191.79"/>
</g>
<!-- Node510 -->
<g id="node17" class="node">
<title>Node510</title>
<g id="a_node17"><a xlink:href="quickjs_8c.html#afe038ef522a8c7c8862cfe18a0c0a785" target="_top" xlink:title=" ">
<polygon fill="none" stroke="black" points="411.5,-38.5 411.5,-57.5 492.5,-57.5 492.5,-38.5 411.5,-38.5"/>
<text text-anchor="middle" x="452" y="-45.5" font-family="Helvetica,sans-Serif" font-size="10.00">js_string_pad</text>
</a>
</g>
</g>
<!-- Node1&#45;&gt;Node510 -->
<g id="edge20" class="edge">
<title>Node1&#45;&gt;Node510</title>
<path fill="none" stroke="midnightblue" d="M594.14,-186.87C580.05,-158.31 549.96,-104.4 510,-72 502.49,-65.91 493.22,-61.14 484.35,-57.51"/>
<polygon fill="midnightblue" stroke="midnightblue" points="591.12,-188.66 598.6,-196.16 597.43,-185.63 591.12,-188.66"/>
</g>
<!-- Node521 -->
<g id="node18" class="node">
<title>Node521</title>
<g id="a_node18"><a xlink:href="quickjs_8c.html#a0f6f437eaf0cabf7d3e31f8306ed7e02" target="_top" xlink:title=" ">
<polygon fill="none" stroke="black" points="404.5,-0.5 404.5,-19.5 499.5,-19.5 499.5,-0.5 404.5,-0.5"/>
<text text-anchor="middle" x="452" y="-7.5" font-family="Helvetica,sans-Serif" font-size="10.00">js_string_repeat</text>
</a>
</g>
</g>
<!-- Node1&#45;&gt;Node521 -->
<g id="edge21" class="edge">
<title>Node1&#45;&gt;Node521</title>
<path fill="none" stroke="midnightblue" d="M598.01,-186.51C587.74,-150.24 560.82,-72.19 510,-29 505.47,-25.15 500.13,-22.07 494.57,-19.61"/>
<polygon fill="midnightblue" stroke="midnightblue" points="594.68,-187.6 600.67,-196.33 601.44,-185.77 594.68,-187.6"/>
</g>
<!-- Node396 -->
<g id="node19" class="node">
<title>Node396</title>
<g id="a_node19"><a xlink:href="quickjs_8c.html#aa04ea5aa5c3614856e8cd9843f1ebaa1" target="_top" xlink:title=" ">
<polygon fill="none" stroke="black" points="227.5,-114.5 227.5,-133.5 339.5,-133.5 339.5,-114.5 227.5,-114.5"/>
<text text-anchor="middle" x="283.5" y="-121.5" font-family="Helvetica,sans-Serif" font-size="10.00">js_typed_array_join</text>
</a>
</g>
</g>
<!-- Node1&#45;&gt;Node396 -->
<g id="edge23" class="edge">
<title>Node1&#45;&gt;Node396</title>
<path fill="none" stroke="midnightblue" d="M576.22,-191.75C558,-182.61 533.1,-171.14 510,-164 453.21,-146.44 385.85,-135.75 339.62,-129.89"/>
<polygon fill="midnightblue" stroke="midnightblue" points="574.85,-194.98 585.34,-196.42 578.03,-188.75 574.85,-194.98"/>
</g>
<!-- Node597 -->
<g id="node20" class="node">
<title>Node597</title>
<g id="a_node20"><a xlink:href="quickjs_8c.html#af3ad59b9801a4ec68f41a50ab5762ccb" target="_top" xlink:title=" ">
<polygon fill="none" stroke="red" points="394,-279 394,-309 510,-309 510,-279 394,-279"/>
<text text-anchor="start" x="402" y="-297" font-family="Helvetica,sans-Serif" font-size="10.00">string_buffer_concat</text>
<text text-anchor="middle" x="452" y="-286" font-family="Helvetica,sans-Serif" font-size="10.00">_value</text>
</a>
</g>
</g>
<!-- Node1&#45;&gt;Node597 -->
<g id="edge24" class="edge">
<title>Node1&#45;&gt;Node597</title>
<path fill="none" stroke="midnightblue" d="M579.95,-221.03C561.31,-233.03 534.25,-250.08 510,-264 501.17,-269.07 491.42,-274.32 482.51,-278.99"/>
<polygon fill="midnightblue" stroke="midnightblue" points="581.89,-223.95 588.38,-215.58 578.09,-218.07 581.89,-223.95"/>
</g>
<!-- Node595 -->
<g id="node21" class="node">
<title>Node595</title>
<g id="a_node21"><a xlink:href="quickjs_8c.html#ac91bb65d1f12eadbcc97cecf2860350b" target="_top" xlink:title=" ">
<polygon fill="none" stroke="red" points="394,-191 394,-221 510,-221 510,-191 394,-191"/>
<text text-anchor="start" x="402" y="-209" font-family="Helvetica,sans-Serif" font-size="10.00">string_buffer_concat</text>
<text text-anchor="middle" x="452" y="-198" font-family="Helvetica,sans-Serif" font-size="10.00">_value_free</text>
</a>
</g>
</g>
<!-- Node1&#45;&gt;Node595 -->
<g id="edge28" class="edge">
<title>Node1&#45;&gt;Node595</title>
<path fill="none" stroke="midnightblue" d="M535.69,-206C527.27,-206 518.72,-206 510.47,-206"/>
<polygon fill="midnightblue" stroke="midnightblue" points="535.86,-209.5 545.86,-206 535.86,-202.5 535.86,-209.5"/>
</g>
<!-- Node4 -->
<g id="node4" class="node">
<title>Node4</title>
<g id="a_node4"><a xlink:href="quickjs_8c.html#a367aedcd65b39452fb00ce58dac0c6f6" target="_top" xlink:title=" ">
<polygon fill="none" stroke="black" points="235,-436.5 235,-455.5 332,-455.5 332,-436.5 235,-436.5"/>
<text text-anchor="middle" x="283.5" y="-443.5" font-family="Helvetica,sans-Serif" font-size="10.00">js_error_toString</text>
</a>
</g>
</g>
<!-- Node3&#45;&gt;Node4 -->
<g id="edge3" class="edge">
<title>Node3&#45;&gt;Node4</title>
<path fill="none" stroke="midnightblue" d="M429.96,-506.58C411.73,-493.85 384.22,-476.13 358,-465 349.26,-461.29 339.63,-458.17 330.29,-455.59"/>
<polygon fill="midnightblue" stroke="midnightblue" points="427.94,-509.44 438.12,-512.38 432,-503.74 427.94,-509.44"/>
</g>
<!-- Node5 -->
<g id="node5" class="node">
<title>Node5</title>
<g id="a_node5"><a xlink:href="quickjs_8c.html#ac6d5606ba25525b3a03981eefbe98e13" target="_top" xlink:title=" ">
<polygon fill="none" stroke="black" points="235.5,-664.5 235.5,-683.5 331.5,-683.5 331.5,-664.5 235.5,-664.5"/>
<text text-anchor="middle" x="283.5" y="-671.5" font-family="Helvetica,sans-Serif" font-size="10.00">js_function_bind</text>
</a>
</g>
</g>
<!-- Node3&#45;&gt;Node5 -->
<g id="edge4" class="edge">
<title>Node3&#45;&gt;Node5</title>
<path fill="none" stroke="midnightblue" d="M442.87,-541.31C429.54,-570.52 400.26,-625.67 358,-655 350.2,-660.41 340.98,-664.28 331.75,-667.05"/>
<polygon fill="midnightblue" stroke="midnightblue" points="446.22,-542.37 447.05,-531.81 439.81,-539.55 446.22,-542.37"/>
</g>
<!-- Node6 -->
<g id="node6" class="node">
<title>Node6</title>
<g id="a_node6"><a xlink:href="quickjs_8c.html#a9876c37aa1b715e05e0e5fe1b46bcf3d" target="_top" xlink:title=" ">
<polygon fill="none" stroke="black" points="227,-626.5 227,-645.5 340,-645.5 340,-626.5 227,-626.5"/>
<text text-anchor="middle" x="283.5" y="-633.5" font-family="Helvetica,sans-Serif" font-size="10.00">js_function_toString</text>
</a>
</g>
</g>
<!-- Node3&#45;&gt;Node6 -->
<g id="edge5" class="edge">
<title>Node3&#45;&gt;Node6</title>
<path fill="none" stroke="midnightblue" d="M438.24,-540.07C422.05,-561.64 392.09,-597.28 358,-617 351.27,-620.89 343.74,-624 336.13,-626.48"/>
<polygon fill="midnightblue" stroke="midnightblue" points="441.23,-541.91 444.31,-531.77 435.58,-537.78 441.23,-541.91"/>
</g>
<!-- Node7 -->
<g id="node7" class="node">
<title>Node7</title>
<g id="a_node7"><a xlink:href="quickjs_8c.html#adadf01adc112b1f79ced7b2884a5738b" target="_top" xlink:title=" ">
<polygon fill="none" stroke="black" points="221.5,-588.5 221.5,-607.5 345.5,-607.5 345.5,-588.5 221.5,-588.5"/>
<text text-anchor="middle" x="283.5" y="-595.5" font-family="Helvetica,sans-Serif" font-size="10.00">js_get_function_name</text>
</a>
</g>
</g>
<!-- Node3&#45;&gt;Node7 -->
<g id="edge6" class="edge">
<title>Node3&#45;&gt;Node7</title>
<path fill="none" stroke="midnightblue" d="M427.4,-536.88C408.99,-548.08 382.5,-563.27 358,-574 345.33,-579.55 330.96,-584.51 318.31,-588.47"/>
<polygon fill="midnightblue" stroke="midnightblue" points="429.32,-539.81 436,-531.59 425.65,-533.85 429.32,-539.81"/>
</g>
<!-- Node288 -->
<g id="node9" class="node">
<title>Node288</title>
<g id="a_node9"><a xlink:href="quickjs_8c.html#a44d4e574b5bd12a89f8389ca79e587a0" target="_top" xlink:title=" ">
<polygon fill="none" stroke="red" points="15,-550.5 15,-569.5 158,-569.5 158,-550.5 15,-550.5"/>
<text text-anchor="middle" x="86.5" y="-557.5" font-family="Helvetica,sans-Serif" font-size="10.00">js_method_set_properties</text>
</a>
</g>
</g>
<!-- Node3&#45;&gt;Node288 -->
<g id="edge11" class="edge">
<title>Node3&#45;&gt;Node288</title>
<path fill="none" stroke="midnightblue" d="M399.88,-533.7C386.33,-536.46 371.66,-539.13 358,-541 290.48,-550.23 212.84,-555.09 158.1,-557.58"/>
<polygon fill="midnightblue" stroke="midnightblue" points="400.92,-537.06 410,-531.59 399.49,-530.21 400.92,-537.06"/>
</g>
<!-- Node86 -->
<g id="node10" class="node">
<title>Node86</title>
<g id="a_node10"><a xlink:href="quickjs_8c.html#a60d84dd116a9d7d912d08f298a4734dd" target="_top" xlink:title=" ">
<polygon fill="none" stroke="red" points="242,-304.5 242,-323.5 325,-323.5 325,-304.5 242,-304.5"/>
<text text-anchor="middle" x="283.5" y="-311.5" font-family="Helvetica,sans-Serif" font-size="10.00">js_json_to_str</text>
</a>
</g>
</g>
<!-- Node3&#45;&gt;Node86 -->
<g id="edge9" class="edge">
<title>Node3&#45;&gt;Node86</title>
<path fill="none" stroke="midnightblue" d="M436.79,-504.25C403.02,-462.06 318.8,-356.84 292.48,-323.97"/>
<polygon fill="midnightblue" stroke="midnightblue" points="434.21,-506.63 443.19,-512.25 439.68,-502.25 434.21,-506.63"/>
</g>
<!-- Node319 -->
<g id="node11" class="node">
<title>Node319</title>
<g id="a_node11"><a xlink:href="quickjs_8c.html#ae69c38078aefed427b6c0d7b6870bd9c" target="_top" xlink:title=" ">
<polygon fill="none" stroke="red" points="231.5,-512.5 231.5,-531.5 335.5,-531.5 335.5,-512.5 231.5,-512.5"/>
<text text-anchor="middle" x="283.5" y="-519.5" font-family="Helvetica,sans-Serif" font-size="10.00">js_object_toString</text>
</a>
</g>
</g>
<!-- Node3&#45;&gt;Node319 -->
<g id="edge12" class="edge">
<title>Node3&#45;&gt;Node319</title>
<path fill="none" stroke="midnightblue" d="M392.35,-522C373.9,-522 353.68,-522 335.78,-522"/>
<polygon fill="midnightblue" stroke="midnightblue" points="392.39,-525.5 402.39,-522 392.39,-518.5 392.39,-525.5"/>
</g>
<!-- Node123 -->
<g id="node12" class="node">
<title>Node123</title>
<g id="a_node12"><a xlink:href="quickjs_8c.html#a79872a6d9d139e36d5d1894d16132024" target="_top" xlink:title=" ">
<polygon fill="none" stroke="black" points="217.5,-474.5 217.5,-493.5 349.5,-493.5 349.5,-474.5 217.5,-474.5"/>
<text text-anchor="middle" x="283.5" y="-481.5" font-family="Helvetica,sans-Serif" font-size="10.00">js_regexp_Symbol_split</text>
</a>
</g>
</g>
<!-- Node3&#45;&gt;Node123 -->
<g id="edge13" class="edge">
<title>Node3&#45;&gt;Node123</title>
<path fill="none" stroke="midnightblue" d="M399.19,-510.18C375.72,-504.82 348.33,-498.57 326.21,-493.52"/>
<polygon fill="midnightblue" stroke="midnightblue" points="398.46,-513.6 408.99,-512.41 400.01,-506.77 398.46,-513.6"/>
</g>
<!-- Node8 -->
<g id="node8" class="node">
<title>Node8</title>
<g id="a_node8"><a xlink:href="quickjs_8c.html#a116b8bb41915b573650c477a55d8e46d" target="_top" xlink:title=" ">
<polygon fill="none" stroke="red" points="0,-588.5 0,-607.5 173,-607.5 173,-588.5 0,-588.5"/>
<text text-anchor="middle" x="86.5" y="-595.5" font-family="Helvetica,sans-Serif" font-size="10.00">JS_DefineObjectNameComputed</text>
</a>
</g>
</g>
<!-- Node7&#45;&gt;Node8 -->
<g id="edge7" class="edge">
<title>Node7&#45;&gt;Node8</title>
<path fill="none" stroke="midnightblue" d="M211.11,-598C198.75,-598 185.78,-598 173.09,-598"/>
<polygon fill="midnightblue" stroke="midnightblue" points="211.34,-601.5 221.34,-598 211.34,-594.5 211.34,-601.5"/>
</g>
<!-- Node7&#45;&gt;Node288 -->
<g id="edge8" class="edge">
<title>Node7&#45;&gt;Node288</title>
<path fill="none" stroke="midnightblue" d="M223.54,-586.51C195.72,-581.09 162.9,-574.69 136.48,-569.54"/>
<polygon fill="midnightblue" stroke="midnightblue" points="223.06,-589.98 233.54,-588.46 224.4,-583.11 223.06,-589.98"/>
</g>
<!-- Node86&#45;&gt;Node86 -->
<g id="edge10" class="edge">
<title>Node86&#45;&gt;Node86</title>
<path fill="none" stroke="midnightblue" d="M314.94,-332.27C314.04,-337.74 303.56,-342 283.5,-342 253.64,-342 245.01,-332.57 257.61,-323.76"/>
<polygon fill="midnightblue" stroke="midnightblue" points="317.78,-330.23 309.39,-323.76 311.92,-334.05 317.78,-330.23"/>
</g>
<!-- Node152&#45;&gt;Node50 -->
<g id="edge16" class="edge">
<title>Node152&#45;&gt;Node50</title>
<path fill="none" stroke="midnightblue" d="M391.53,-356.79C342.4,-358.25 270.93,-358.43 209,-351 178.48,-347.34 144.44,-339.12 120.17,-332.53"/>
<polygon fill="midnightblue" stroke="midnightblue" points="391.79,-360.29 401.67,-356.46 391.56,-353.29 391.79,-360.29"/>
</g>
<!-- Node356&#45;&gt;Node50 -->
<g id="edge18" class="edge">
<title>Node356&#45;&gt;Node50</title>
<path fill="none" stroke="midnightblue" d="M239.96,-250.69C229.72,-254.08 218.88,-257.93 209,-262 170.59,-277.81 127.56,-300.71 104.43,-313.48"/>
<polygon fill="midnightblue" stroke="midnightblue" points="241.11,-254 249.56,-247.6 238.96,-247.34 241.11,-254"/>
</g>
<!-- Node356&#45;&gt;Node110 -->
<g id="edge19" class="edge">
<title>Node356&#45;&gt;Node110</title>
<path fill="none" stroke="midnightblue" d="M223.5,-226.5C195.57,-221.06 162.61,-214.64 136.14,-209.48"/>
<polygon fill="midnightblue" stroke="midnightblue" points="223.06,-229.98 233.54,-228.46 224.4,-223.11 223.06,-229.98"/>
</g>
<!-- Node597&#45;&gt;Node86 -->
<g id="edge25" class="edge">
<title>Node597&#45;&gt;Node86</title>
<path fill="none" stroke="midnightblue" d="M383.76,-302.08C363.88,-304.46 342.74,-307 325.1,-309.12"/>
<polygon fill="midnightblue" stroke="midnightblue" points="384.19,-305.55 393.7,-300.88 383.35,-298.6 384.19,-305.55"/>
</g>
<!-- Node597&#45;&gt;Node50 -->
<g id="edge26" class="edge">
<title>Node597&#45;&gt;Node50</title>
<path fill="none" stroke="midnightblue" d="M383.48,-290.28C334.81,-288.57 267.64,-288.21 209,-295 178.36,-298.55 144.18,-306.82 119.9,-313.46"/>
<polygon fill="midnightblue" stroke="midnightblue" points="383.45,-293.78 393.58,-290.66 383.72,-286.79 383.45,-293.78"/>
</g>
<!-- Node597&#45;&gt;Node356 -->
<g id="edge27" class="edge">
<title>Node597&#45;&gt;Node356</title>
<path fill="none" stroke="midnightblue" d="M397.78,-275.53C384.78,-271.06 370.9,-266.33 358,-262 343.62,-257.18 327.61,-251.94 314.22,-247.59"/>
<polygon fill="midnightblue" stroke="midnightblue" points="396.93,-278.93 407.52,-278.88 399.21,-272.32 396.93,-278.93"/>
</g>
<!-- Node595&#45;&gt;Node2 -->
<g id="edge29" class="edge">
<title>Node595&#45;&gt;Node2</title>
<path fill="none" stroke="midnightblue" d="M384.33,-188.38C362.62,-182.65 339.35,-176.5 320.75,-171.58"/>
<polygon fill="midnightblue" stroke="midnightblue" points="383.6,-191.81 394.17,-190.98 385.39,-185.04 383.6,-191.81"/>
</g>
<!-- Node595&#45;&gt;Node86 -->
<g id="edge30" class="edge">
<title>Node595&#45;&gt;Node86</title>
<path fill="none" stroke="midnightblue" d="M419.21,-226.62C383.32,-249.9 326.45,-286.79 299.55,-304.24"/>
<polygon fill="midnightblue" stroke="midnightblue" points="421.36,-229.4 427.85,-221.02 417.55,-223.52 421.36,-229.4"/>
</g>
<!-- Node595&#45;&gt;Node356 -->
<g id="edge31" class="edge">
<title>Node595&#45;&gt;Node356</title>
<path fill="none" stroke="midnightblue" d="M383.55,-218.96C367.03,-222.14 349.64,-225.48 334.13,-228.46"/>
<polygon fill="midnightblue" stroke="midnightblue" points="384.54,-222.34 393.7,-217.01 383.22,-215.46 384.54,-222.34"/>
</g>
<!-- Node595&#45;&gt;Node110 -->
<g id="edge32" class="edge">
<title>Node595&#45;&gt;Node110</title>
<path fill="none" stroke="midnightblue" d="M383.51,-204.89C311.71,-203.7 199.89,-201.86 136.22,-200.8"/>
<polygon fill="midnightblue" stroke="midnightblue" points="383.75,-208.39 393.8,-205.06 383.86,-201.39 383.75,-208.39"/>
</g>
<!-- Node595&#45;&gt;Node396 -->
<g id="edge33" class="edge">
<title>Node595&#45;&gt;Node396</title>
<path fill="none" stroke="midnightblue" d="M424.7,-184.58C406.83,-170.96 382.13,-153.9 358,-143 349.59,-139.2 340.29,-136.06 331.2,-133.5"/>
<polygon fill="midnightblue" stroke="midnightblue" points="422.85,-187.57 432.89,-190.95 427.15,-182.05 422.85,-187.57"/>
</g>
</g>
</svg>
