<?xml version="1.0" encoding="UTF-8" standalone="no"?>
<!DOCTYPE svg PUBLIC "-//W3C//DTD SVG 1.1//EN"
 "http://www.w3.org/Graphics/SVG/1.1/DTD/svg11.dtd">
<!-- Generated by graphviz version 2.43.0 (0)
 -->
<!-- Title: JS_IsInstanceOf Pages: 1 -->
<!--zoomable 142 -->
<svg id="main" version="1.1" xmlns="http://www.w3.org/2000/svg" xmlns:xlink="http://www.w3.org/1999/xlink" xml:space="preserve" onload="init(evt)">
<style type="text/css"><![CDATA[
.edge:hover path { stroke: red; }
.edge:hover polygon { stroke: red; fill: red; }
]]></style>
<script type="text/javascript"><![CDATA[
var edges = document.getElementsByTagName('g');
if (edges && edges.length) {
  for (var i=0;i<edges.length;i++) {
    if (edges[i].id.substr(0,4)=='edge') {
      edges[i].setAttribute('class','edge');
    }
  }
}
]]></script>
        <defs>
                <circle id="rim" cx="0" cy="0" r="7"/>
                <circle id="rim2" cx="0" cy="0" r="3.5"/>
                <g id="zoomPlus">
                        <use xlink:href="#rim" fill="#404040">
                                <set attributeName="fill" to="#808080" begin="zoomplus.mouseover" end="zoomplus.mouseout"/>
                        </use>
                        <path d="M-4,0h8M0,-4v8" fill="none" stroke="white" stroke-width="1.5" pointer-events="none"/>
                </g>
                <g id="zoomMin">
                        <use xlink:href="#rim" fill="#404040">
                                <set attributeName="fill" to="#808080" begin="zoomminus.mouseover" end="zoomminus.mouseout"/>
                        </use>
                        <path d="M-4,0h8" fill="none" stroke="white" stroke-width="1.5" pointer-events="none"/>
                </g>
                <g id="dirArrow">
                        <path fill="none" stroke="white" stroke-width="1.5" d="M0,-3.0v7 M-2.5,-0.5L0,-3.0L2.5,-0.5"/>
                </g>
               <g id="resetDef">
                       <use xlink:href="#rim2" fill="#404040">
                               <set attributeName="fill" to="#808080" begin="reset.mouseover" end="reset.mouseout"/>
                       </use>
               </g>
        </defs>

<script type="text/javascript">
var viewWidth = 572;
var viewHeight = 142;
var sectionId = 'dynsection-541';
</script>
<script xlink:href="svgpan.js"/>
<svg id="graph" class="graph">
<g id="viewport">
<title>JS_IsInstanceOf</title>
<!-- Node1 -->
<g id="node1" class="node">
<title>Node1</title>
<g id="a_node1"><a xlink:title=" ">
<polygon fill="#bfbfbf" stroke="black" points="472,-19.5 472,-38.5 564,-38.5 564,-19.5 472,-19.5"/>
<text text-anchor="middle" x="518" y="-26.5" font-family="Helvetica,sans-Serif" font-size="10.00">JS_IsInstanceOf</text>
</a>
</g>
</g>
<!-- Node2 -->
<g id="node2" class="node">
<title>Node2</title>
<g id="a_node2"><a xlink:href="quickjs_8c.html#afa66b10f653bc03ae3a338509e26e906" target="_top" xlink:title=" ">
<polygon fill="none" stroke="black" points="305,-57.5 305,-76.5 433,-76.5 433,-57.5 305,-57.5"/>
<text text-anchor="middle" x="369" y="-64.5" font-family="Helvetica,sans-Serif" font-size="10.00">js_operator_instanceof</text>
</a>
</g>
</g>
<!-- Node1&#45;&gt;Node2 -->
<g id="edge1" class="edge">
<title>Node1&#45;&gt;Node2</title>
<path fill="none" stroke="midnightblue" d="M470.15,-41.11C449.67,-46.4 426.01,-52.52 406.83,-57.48"/>
<polygon fill="midnightblue" stroke="midnightblue" points="471.1,-44.48 479.91,-38.59 469.35,-37.7 471.1,-44.48"/>
</g>
<!-- Node409 -->
<g id="node8" class="node">
<title>Node409</title>
<g id="a_node8"><a xlink:href="quickjs_8c.html#aa0b5c1a59ff4832154e2a98d7c63a4b2" target="_top" xlink:title=" ">
<polygon fill="none" stroke="red" points="302,-19.5 302,-38.5 436,-38.5 436,-19.5 302,-19.5"/>
<text text-anchor="middle" x="369" y="-26.5" font-family="Helvetica,sans-Serif" font-size="10.00">JS_OrdinaryIsInstanceOf</text>
</a>
</g>
</g>
<!-- Node1&#45;&gt;Node409 -->
<g id="edge12" class="edge">
<title>Node1&#45;&gt;Node409</title>
<path fill="none" stroke="midnightblue" d="M461.46,-22.43C453.22,-22.26 444.66,-22.21 436.23,-22.28"/>
<polygon fill="midnightblue" stroke="midnightblue" points="461.6,-25.94 471.7,-22.71 461.8,-18.94 461.6,-25.94"/>
</g>
<!-- Node3 -->
<g id="node3" class="node">
<title>Node3</title>
<g id="a_node3"><a xlink:href="quickjs_8c.html#ac2894ff4edcdb4e6841bcce9c76081e3" target="_top" xlink:title=" ">
<polygon fill="none" stroke="black" points="179,-47.5 179,-66.5 266,-66.5 266,-47.5 179,-47.5"/>
<text text-anchor="middle" x="222.5" y="-54.5" font-family="Helvetica,sans-Serif" font-size="10.00">JS_CallInternal</text>
</a>
</g>
</g>
<!-- Node2&#45;&gt;Node3 -->
<g id="edge2" class="edge">
<title>Node2&#45;&gt;Node3</title>
<path fill="none" stroke="midnightblue" d="M294.48,-61.91C284.74,-61.24 275.03,-60.57 266.05,-59.94"/>
<polygon fill="midnightblue" stroke="midnightblue" points="294.4,-65.42 304.62,-62.61 294.89,-58.43 294.4,-65.42"/>
</g>
<!-- Node3&#45;&gt;Node3 -->
<g id="edge11" class="edge">
<title>Node3&#45;&gt;Node3</title>
<path fill="none" stroke="midnightblue" d="M249.75,-75.65C248.61,-80.94 239.53,-85 222.5,-85 196.55,-85 189.05,-75.57 200,-66.76"/>
<polygon fill="midnightblue" stroke="midnightblue" points="252.8,-73.93 245,-66.76 246.62,-77.23 252.8,-73.93"/>
</g>
<!-- Node4 -->
<g id="node4" class="node">
<title>Node4</title>
<g id="a_node4"><a xlink:href="quickjs_8c.html#ade71a22dc56e7371392393df663b28b3" target="_top" xlink:title=" ">
<polygon fill="none" stroke="red" points="15,-114.5 15,-133.5 128,-133.5 128,-114.5 15,-114.5"/>
<text text-anchor="middle" x="71.5" y="-121.5" font-family="Helvetica,sans-Serif" font-size="10.00">async_func_resume</text>
</a>
</g>
</g>
<!-- Node3&#45;&gt;Node4 -->
<g id="edge3" class="edge">
<title>Node3&#45;&gt;Node4</title>
<path fill="none" stroke="midnightblue" d="M200.28,-72.28C184.97,-82.72 163.49,-96.19 143,-105 134.38,-108.7 124.86,-111.86 115.67,-114.46"/>
<polygon fill="midnightblue" stroke="midnightblue" points="202.31,-75.13 208.52,-66.55 198.31,-69.39 202.31,-75.13"/>
</g>
<!-- Node23 -->
<g id="node5" class="node">
<title>Node23</title>
<g id="a_node5"><a xlink:href="quickjs_8c.html#a1a4c02a29525d5cb2085dd8bca3af350" target="_top" xlink:title=" ">
<polygon fill="none" stroke="red" points="46.5,-76.5 46.5,-95.5 96.5,-95.5 96.5,-76.5 46.5,-76.5"/>
<text text-anchor="middle" x="71.5" y="-83.5" font-family="Helvetica,sans-Serif" font-size="10.00">JS_Call</text>
</a>
</g>
</g>
<!-- Node3&#45;&gt;Node23 -->
<g id="edge4" class="edge">
<title>Node3&#45;&gt;Node23</title>
<path fill="none" stroke="midnightblue" d="M168.72,-60.78C143.77,-65.02 115.25,-71.05 95.78,-76.41"/>
<polygon fill="midnightblue" stroke="midnightblue" points="169.5,-64.2 178.8,-59.14 168.37,-57.3 169.5,-64.2"/>
</g>
<!-- Node109 -->
<g id="node6" class="node">
<title>Node109</title>
<g id="a_node6"><a xlink:href="quickjs_8c.html#ad35594576a14c10812efaf958c99af8a" target="_top" xlink:title=" ">
<polygon fill="none" stroke="red" points="0,-38.5 0,-57.5 143,-57.5 143,-38.5 0,-38.5"/>
<text text-anchor="middle" x="71.5" y="-45.5" font-family="Helvetica,sans-Serif" font-size="10.00">JS_CallConstructorInternal</text>
</a>
</g>
</g>
<!-- Node3&#45;&gt;Node109 -->
<g id="edge6" class="edge">
<title>Node3&#45;&gt;Node109</title>
<path fill="none" stroke="midnightblue" d="M168.57,-47.31C160.3,-46.61 151.64,-46 143.05,-45.52"/>
<polygon fill="midnightblue" stroke="midnightblue" points="168.52,-50.82 178.8,-48.25 169.16,-43.85 168.52,-50.82"/>
</g>
<!-- Node123 -->
<g id="node7" class="node">
<title>Node123</title>
<g id="a_node7"><a xlink:href="quickjs_8c.html#a75f6ee5e4235a7dc99889f3d2eb2c147" target="_top" xlink:title=" ">
<polygon fill="none" stroke="red" points="36,-0.5 36,-19.5 107,-19.5 107,-0.5 36,-0.5"/>
<text text-anchor="middle" x="71.5" y="-7.5" font-family="Helvetica,sans-Serif" font-size="10.00">JS_CallFree</text>
</a>
</g>
</g>
<!-- Node3&#45;&gt;Node123 -->
<g id="edge8" class="edge">
<title>Node3&#45;&gt;Node123</title>
<path fill="none" stroke="midnightblue" d="M202.18,-42.35C186.38,-34.71 163.39,-26.37 143,-20 131.38,-16.37 118.57,-12.79 107.08,-10.21"/>
<polygon fill="midnightblue" stroke="midnightblue" points="200.95,-45.66 211.43,-47.24 204.22,-39.47 200.95,-45.66"/>
</g>
<!-- Node23&#45;&gt;Node3 -->
<g id="edge5" class="edge">
<title>Node23&#45;&gt;Node3</title>
<path fill="none" stroke="midnightblue" d="M106.92,-85.09C135.07,-81.11 174.08,-73.26 198.55,-66.5"/>
<polygon fill="midnightblue" stroke="midnightblue" points="106.18,-81.66 96.72,-86.42 107.09,-88.6 106.18,-81.66"/>
</g>
<!-- Node109&#45;&gt;Node3 -->
<g id="edge7" class="edge">
<title>Node109&#45;&gt;Node3</title>
<path fill="none" stroke="midnightblue" d="M133.72,-58.35C148.86,-59.49 164.76,-60.29 178.8,-60.59"/>
<polygon fill="midnightblue" stroke="midnightblue" points="133.63,-54.83 123.38,-57.51 133.07,-61.81 133.63,-54.83"/>
</g>
<!-- Node123&#45;&gt;Node1 -->
<g id="edge10" class="edge">
<title>Node123&#45;&gt;Node1</title>
<path fill="none" stroke="midnightblue" d="M117.29,-6.7C186.09,-2.38 321.81,3.21 436,-10 452.07,-11.86 469.58,-15.73 484.2,-19.49"/>
<polygon fill="midnightblue" stroke="midnightblue" points="116.99,-3.21 107.24,-7.35 117.44,-10.2 116.99,-3.21"/>
</g>
<!-- Node123&#45;&gt;Node3 -->
<g id="edge9" class="edge">
<title>Node123&#45;&gt;Node3</title>
<path fill="none" stroke="midnightblue" d="M94.52,-23.19C108.49,-28.03 126.9,-32.97 143,-38 154.74,-41.67 167.34,-45.99 178.93,-49.79"/>
<polygon fill="midnightblue" stroke="midnightblue" points="95.4,-19.78 84.81,-19.5 92.92,-26.33 95.4,-19.78"/>
</g>
<!-- Node409&#45;&gt;Node1 -->
<g id="edge13" class="edge">
<title>Node409&#45;&gt;Node1</title>
<path fill="none" stroke="midnightblue" d="M446.38,-35.75C455.03,-35.72 463.63,-35.57 471.7,-35.29"/>
<polygon fill="midnightblue" stroke="midnightblue" points="446.24,-32.25 436.23,-35.72 446.22,-39.25 446.24,-32.25"/>
</g>
</g>
</svg>
        <g id="navigator" transform="translate(0 0)" fill="#404254">
                <rect fill="#f2f5e9" fill-opacity="0.5" stroke="#606060" stroke-width=".5" x="0" y="0" width="60" height="60"/>
                <use id="zoomplus" xlink:href="#zoomPlus" x="17" y="9" onmousedown="handleZoom(evt,'in')"/>
                <use id="zoomminus" xlink:href="#zoomMin" x="42" y="9" onmousedown="handleZoom(evt,'out')"/>
                <use id="reset" xlink:href="#resetDef" x="30" y="36" onmousedown="handleReset()"/>
                <g id="arrowUp" xlink:href="#dirArrow" transform="translate(30 24)" onmousedown="handlePan(0,-1)">
                  <use xlink:href="#rim" fill="#404040">
                        <set attributeName="fill" to="#808080" begin="arrowUp.mouseover" end="arrowUp.mouseout"/>
                  </use>
                  <path fill="none" stroke="white" stroke-width="1.5" d="M0,-3.0v7 M-2.5,-0.5L0,-3.0L2.5,-0.5"/>
                </g>
                <g id="arrowRight" xlink:href="#dirArrow" transform="rotate(90) translate(36 -43)" onmousedown="handlePan(1,0)">
                  <use xlink:href="#rim" fill="#404040">
                        <set attributeName="fill" to="#808080" begin="arrowRight.mouseover" end="arrowRight.mouseout"/>
                  </use>
                  <path fill="none" stroke="white" stroke-width="1.5" d="M0,-3.0v7 M-2.5,-0.5L0,-3.0L2.5,-0.5"/>
                </g>
                <g id="arrowDown" xlink:href="#dirArrow" transform="rotate(180) translate(-30 -48)" onmousedown="handlePan(0,1)">
                  <use xlink:href="#rim" fill="#404040">
                        <set attributeName="fill" to="#808080" begin="arrowDown.mouseover" end="arrowDown.mouseout"/>
                  </use>
                  <path fill="none" stroke="white" stroke-width="1.5" d="M0,-3.0v7 M-2.5,-0.5L0,-3.0L2.5,-0.5"/>
                </g>
                <g id="arrowLeft" xlink:href="#dirArrow" transform="rotate(270) translate(-36 17)" onmousedown="handlePan(-1,0)">
                  <use xlink:href="#rim" fill="#404040">
                        <set attributeName="fill" to="#808080" begin="arrowLeft.mouseover" end="arrowLeft.mouseout"/>
                  </use>
                  <path fill="none" stroke="white" stroke-width="1.5" d="M0,-3.0v7 M-2.5,-0.5L0,-3.0L2.5,-0.5"/>
                </g>
        </g>
        <svg viewBox="0 0 15 15" width="100%" height="30px" preserveAspectRatio="xMaxYMin meet">
         <g id="arrow_out" transform="scale(0.3 0.3)">
          <a xlink:href="quickjs_8c_af4cd70eee97bbcab2d0f2e46cf53ccd7_icgraph_org.svg" target="_base">
           <rect id="button" ry="5" rx="5" y="6" x="6" height="38" width="38"
                fill="#f2f5e9" fill-opacity="0.5" stroke="#606060" stroke-width="1.0"/>
           <path id="arrow"
             d="M 11.500037,31.436501 C 11.940474,20.09759 22.043105,11.32322 32.158766,21.979434 L 37.068811,17.246167 C 37.068811,17.246167 37.088388,32 37.088388,32 L 22.160133,31.978069 C 22.160133,31.978069 26.997745,27.140456 26.997745,27.140456 C 18.528582,18.264221 13.291696,25.230495 11.500037,31.436501 z"
             style="fill:#404040;"/>
          </a>
         </g>
        </svg>
</svg>
