<?xml version="1.0" encoding="UTF-8" standalone="no"?>
<!DOCTYPE svg PUBLIC "-//W3C//DTD SVG 1.1//EN"
 "http://www.w3.org/Graphics/SVG/1.1/DTD/svg11.dtd">
<!-- Generated by graphviz version 2.43.0 (0)
 -->
<!-- Title: JS_WriteSharedArrayBuffer Pages: 1 -->
<svg width="614pt" height="218pt"
 viewBox="0.00 0.00 614.00 218.00" xmlns="http://www.w3.org/2000/svg" xmlns:xlink="http://www.w3.org/1999/xlink">
<g id="graph0" class="graph" transform="scale(1 1) rotate(0) translate(4 214)">
<title>JS_WriteSharedArrayBuffer</title>
<!-- Node1 -->
<g id="node1" class="node">
<title>Node1</title>
<g id="a_node1"><a xlink:title=" ">
<polygon fill="#bfbfbf" stroke="black" points="0,-133.5 0,-152.5 146,-152.5 146,-133.5 0,-133.5"/>
<text text-anchor="middle" x="73" y="-140.5" font-family="Helvetica,sans-Serif" font-size="10.00">JS_WriteSharedArrayBuffer</text>
</a>
</g>
</g>
<!-- Node2 -->
<g id="node2" class="node">
<title>Node2</title>
<g id="a_node2"><a xlink:href="quickjs_8c.html#a5c417bcd8453a3ab8f4ced37e8f86bf2" target="_top" xlink:title=" ">
<polygon fill="none" stroke="black" points="183.5,-152.5 183.5,-171.5 270.5,-171.5 270.5,-152.5 183.5,-152.5"/>
<text text-anchor="middle" x="227" y="-159.5" font-family="Helvetica,sans-Serif" font-size="10.00">bc_put_leb128</text>
</a>
</g>
</g>
<!-- Node1&#45;&gt;Node2 -->
<g id="edge1" class="edge">
<title>Node1&#45;&gt;Node2</title>
<path fill="none" stroke="midnightblue" d="M146.44,-152.05C155.56,-153.2 164.75,-154.34 173.49,-155.44"/>
<polygon fill="midnightblue" stroke="midnightblue" points="173.14,-158.92 183.5,-156.69 174.01,-151.97 173.14,-158.92"/>
</g>
<!-- Node7 -->
<g id="node6" class="node">
<title>Node7</title>
<g id="a_node6"><a xlink:href="quickjs_8c.html#a62769be0f680a8dc54843456a730d84a" target="_top" xlink:title=" ">
<polygon fill="none" stroke="black" points="191,-114.5 191,-133.5 263,-133.5 263,-114.5 191,-114.5"/>
<text text-anchor="middle" x="227" y="-121.5" font-family="Helvetica,sans-Serif" font-size="10.00">bc_put_u64</text>
</a>
</g>
</g>
<!-- Node1&#45;&gt;Node7 -->
<g id="edge5" class="edge">
<title>Node1&#45;&gt;Node7</title>
<path fill="none" stroke="midnightblue" d="M146.44,-133.95C158.14,-132.48 169.96,-131 180.78,-129.65"/>
<polygon fill="midnightblue" stroke="midnightblue" points="181.32,-133.11 190.81,-128.4 180.45,-126.17 181.32,-133.11"/>
</g>
<!-- Node9 -->
<g id="node8" class="node">
<title>Node9</title>
<g id="a_node8"><a xlink:href="quickjs_8c.html#a1691ba44aef8ba12408b5a824d07600a" target="_top" xlink:title=" ">
<polygon fill="none" stroke="black" points="324,-190.5 324,-209.5 390,-209.5 390,-190.5 324,-190.5"/>
<text text-anchor="middle" x="357" y="-197.5" font-family="Helvetica,sans-Serif" font-size="10.00">bc_put_u8</text>
</a>
</g>
</g>
<!-- Node1&#45;&gt;Node9 -->
<g id="edge8" class="edge">
<title>Node1&#45;&gt;Node9</title>
<path fill="none" stroke="midnightblue" d="M96.31,-152.55C117.84,-161.36 151.57,-174.08 182,-181 226.36,-191.09 278.35,-195.87 313.87,-198.11"/>
<polygon fill="midnightblue" stroke="midnightblue" points="313.7,-201.61 323.89,-198.7 314.11,-194.62 313.7,-201.61"/>
</g>
<!-- Node10 -->
<g id="node9" class="node">
<title>Node10</title>
<g id="a_node9"><a xlink:href="quickjs_8c.html#afa610f3175e9cb11fdceac95071099b5" target="_top" xlink:title=" ">
<polygon fill="none" stroke="black" points="182,-57.5 182,-76.5 272,-76.5 272,-57.5 182,-57.5"/>
<text text-anchor="middle" x="227" y="-64.5" font-family="Helvetica,sans-Serif" font-size="10.00">js_resize_array</text>
</a>
</g>
</g>
<!-- Node1&#45;&gt;Node10 -->
<g id="edge10" class="edge">
<title>Node1&#45;&gt;Node10</title>
<path fill="none" stroke="midnightblue" d="M93.25,-133.37C119.63,-120.18 167.21,-96.39 197.67,-81.17"/>
<polygon fill="midnightblue" stroke="midnightblue" points="199.53,-84.15 206.91,-76.55 196.4,-77.89 199.53,-84.15"/>
</g>
<!-- Node3 -->
<g id="node3" class="node">
<title>Node3</title>
<g id="a_node3"><a xlink:href="quickjs_8c.html#af9b9e3f8ca5a82349d1925fca4683c38" target="_top" xlink:title=" ">
<polygon fill="none" stroke="black" points="308,-152.5 308,-171.5 406,-171.5 406,-152.5 308,-152.5"/>
<text text-anchor="middle" x="357" y="-159.5" font-family="Helvetica,sans-Serif" font-size="10.00">dbuf_put_leb128</text>
</a>
</g>
</g>
<!-- Node2&#45;&gt;Node3 -->
<g id="edge2" class="edge">
<title>Node2&#45;&gt;Node3</title>
<path fill="none" stroke="midnightblue" d="M270.62,-162C279.29,-162 288.54,-162 297.65,-162"/>
<polygon fill="midnightblue" stroke="midnightblue" points="297.82,-165.5 307.82,-162 297.82,-158.5 297.82,-165.5"/>
</g>
<!-- Node4 -->
<g id="node4" class="node">
<title>Node4</title>
<g id="a_node4"><a xlink:href="cutils_8h.html#aeed81d4787ccdbd55baa9b5fd6717e88" target="_top" xlink:title=" ">
<polygon fill="none" stroke="black" points="444,-152.5 444,-171.5 509,-171.5 509,-152.5 444,-152.5"/>
<text text-anchor="middle" x="476.5" y="-159.5" font-family="Helvetica,sans-Serif" font-size="10.00">dbuf_putc</text>
</a>
</g>
</g>
<!-- Node3&#45;&gt;Node4 -->
<g id="edge3" class="edge">
<title>Node3&#45;&gt;Node4</title>
<path fill="none" stroke="midnightblue" d="M406.13,-162C415.24,-162 424.7,-162 433.6,-162"/>
<polygon fill="midnightblue" stroke="midnightblue" points="433.74,-165.5 443.74,-162 433.74,-158.5 433.74,-165.5"/>
</g>
<!-- Node5 -->
<g id="node5" class="node">
<title>Node5</title>
<g id="a_node5"><a xlink:href="cutils_8h.html#ad1cfaae47347ae771136b5a9bbda49aa" target="_top" xlink:title=" ">
<polygon fill="none" stroke="red" points="547,-114.5 547,-133.5 606,-133.5 606,-114.5 547,-114.5"/>
<text text-anchor="middle" x="576.5" y="-121.5" font-family="Helvetica,sans-Serif" font-size="10.00">dbuf_put</text>
</a>
</g>
</g>
<!-- Node4&#45;&gt;Node5 -->
<g id="edge4" class="edge">
<title>Node4&#45;&gt;Node5</title>
<path fill="none" stroke="midnightblue" d="M502.23,-152.41C514.07,-147.82 528.44,-142.25 541.3,-137.26"/>
<polygon fill="midnightblue" stroke="midnightblue" points="542.72,-140.46 550.78,-133.59 540.19,-133.94 542.72,-140.46"/>
</g>
<!-- Node7&#45;&gt;Node5 -->
<g id="edge7" class="edge">
<title>Node7&#45;&gt;Node5</title>
<path fill="none" stroke="midnightblue" d="M260.39,-114.49C274.82,-110.73 292.12,-106.86 308,-105 389.12,-95.5 484.66,-107.94 536.78,-116.71"/>
<polygon fill="midnightblue" stroke="midnightblue" points="536.47,-120.21 546.92,-118.47 537.66,-113.31 536.47,-120.21"/>
</g>
<!-- Node8 -->
<g id="node7" class="node">
<title>Node8</title>
<g id="a_node7"><a xlink:href="cutils_8h.html#a099a2e37a35e9b2fe832c74cdeadfe2c" target="_top" xlink:title=" ">
<polygon fill="none" stroke="black" points="327,-114.5 327,-133.5 387,-133.5 387,-114.5 327,-114.5"/>
<text text-anchor="middle" x="357" y="-121.5" font-family="Helvetica,sans-Serif" font-size="10.00">bswap64</text>
</a>
</g>
</g>
<!-- Node7&#45;&gt;Node8 -->
<g id="edge6" class="edge">
<title>Node7&#45;&gt;Node8</title>
<path fill="none" stroke="midnightblue" d="M263.32,-124C279.86,-124 299.63,-124 316.65,-124"/>
<polygon fill="midnightblue" stroke="midnightblue" points="316.85,-127.5 326.85,-124 316.85,-120.5 316.85,-127.5"/>
</g>
<!-- Node9&#45;&gt;Node4 -->
<g id="edge9" class="edge">
<title>Node9&#45;&gt;Node4</title>
<path fill="none" stroke="midnightblue" d="M387.65,-190.41C402.4,-185.64 420.43,-179.81 436.3,-174.68"/>
<polygon fill="midnightblue" stroke="midnightblue" points="437.42,-177.99 445.86,-171.59 435.27,-171.33 437.42,-177.99"/>
</g>
<!-- Node11 -->
<g id="node10" class="node">
<title>Node11</title>
<g id="a_node10"><a xlink:href="quickjs_8c.html#a0eda61158c0a22ef337abc3a035bca33" target="_top" xlink:title=" ">
<polygon fill="none" stroke="black" points="310,-38.5 310,-57.5 404,-57.5 404,-38.5 310,-38.5"/>
<text text-anchor="middle" x="357" y="-45.5" font-family="Helvetica,sans-Serif" font-size="10.00">js_realloc_array</text>
</a>
</g>
</g>
<!-- Node10&#45;&gt;Node11 -->
<g id="edge11" class="edge">
<title>Node10&#45;&gt;Node11</title>
<path fill="none" stroke="midnightblue" d="M272.05,-60.46C280.97,-59.14 290.47,-57.73 299.75,-56.35"/>
<polygon fill="midnightblue" stroke="midnightblue" points="300.31,-59.8 309.69,-54.87 299.28,-52.88 300.31,-59.8"/>
</g>
<!-- Node12 -->
<g id="node11" class="node">
<title>Node12</title>
<g id="a_node11"><a xlink:href="quickjs_8c.html#a1c31248142879982abb1595f97817cd9" target="_top" xlink:title=" ">
<polygon fill="none" stroke="red" points="442,-38.5 442,-57.5 511,-57.5 511,-38.5 442,-38.5"/>
<text text-anchor="middle" x="476.5" y="-45.5" font-family="Helvetica,sans-Serif" font-size="10.00">js_realloc2</text>
</a>
</g>
</g>
<!-- Node11&#45;&gt;Node12 -->
<g id="edge12" class="edge">
<title>Node11&#45;&gt;Node12</title>
<path fill="none" stroke="midnightblue" d="M404.1,-48C413.16,-48 422.64,-48 431.62,-48"/>
<polygon fill="midnightblue" stroke="midnightblue" points="431.88,-51.5 441.88,-48 431.88,-44.5 431.88,-51.5"/>
</g>
<!-- Node17 -->
<g id="node12" class="node">
<title>Node17</title>
<g id="a_node12"><a xlink:href="cutils_8h.html#a94f155fcce337a2b9d4719ed8042cbbe" target="_top" xlink:title=" ">
<polygon fill="none" stroke="black" points="448.5,-0.5 448.5,-19.5 504.5,-19.5 504.5,-0.5 448.5,-0.5"/>
<text text-anchor="middle" x="476.5" y="-7.5" font-family="Helvetica,sans-Serif" font-size="10.00">max_int</text>
</a>
</g>
</g>
<!-- Node11&#45;&gt;Node17 -->
<g id="edge13" class="edge">
<title>Node11&#45;&gt;Node17</title>
<path fill="none" stroke="midnightblue" d="M387.65,-38.41C403.08,-33.42 422.08,-27.28 438.47,-21.98"/>
<polygon fill="midnightblue" stroke="midnightblue" points="439.84,-25.21 448.28,-18.8 437.68,-18.55 439.84,-25.21"/>
</g>
</g>
</svg>
