<?xml version="1.0" encoding="UTF-8" standalone="no"?>
<!DOCTYPE svg PUBLIC "-//W3C//DTD SVG 1.1//EN"
 "http://www.w3.org/Graphics/SVG/1.1/DTD/svg11.dtd">
<!-- Generated by graphviz version 2.43.0 (0)
 -->
<!-- Title: JS_DeleteProperty Pages: 1 -->
<svg width="872pt" height="911pt"
 viewBox="0.00 0.00 872.00 911.36" xmlns="http://www.w3.org/2000/svg" xmlns:xlink="http://www.w3.org/1999/xlink">
<g id="graph0" class="graph" transform="scale(1 1) rotate(0) translate(4 907.36)">
<title>JS_DeleteProperty</title>
<!-- Node1 -->
<g id="node1" class="node">
<title>Node1</title>
<g id="a_node1"><a xlink:title=" ">
<polygon fill="#bfbfbf" stroke="black" points="0,-171.5 0,-190.5 104,-190.5 104,-171.5 0,-171.5"/>
<text text-anchor="middle" x="52" y="-178.5" font-family="Helvetica,sans-Serif" font-size="10.00">JS_DeleteProperty</text>
</a>
</g>
</g>
<!-- Node2 -->
<g id="node2" class="node">
<title>Node2</title>
<g id="a_node2"><a xlink:href="quickjs_8c.html#a2b9a2014cb970af5b5b7dde00afbdffa" target="_top" xlink:title=" ">
<polygon fill="none" stroke="black" points="140,-475.5 140,-494.5 234,-494.5 234,-475.5 140,-475.5"/>
<text text-anchor="middle" x="187" y="-482.5" font-family="Helvetica,sans-Serif" font-size="10.00">delete_property</text>
</a>
</g>
</g>
<!-- Node1&#45;&gt;Node2 -->
<g id="edge1" class="edge">
<title>Node1&#45;&gt;Node2</title>
<path fill="none" stroke="midnightblue" d="M57.27,-190.77C76.15,-233.92 152.24,-407.83 177.67,-465.97"/>
<polygon fill="midnightblue" stroke="midnightblue" points="174.59,-467.66 181.81,-475.42 181.01,-464.85 174.59,-467.66"/>
</g>
<!-- Node57 -->
<g id="node22" class="node">
<title>Node57</title>
<g id="a_node22"><a xlink:href="quickjs_8h.html#afaa20c47565bc704c6c85f3d77254e7d" target="_top" xlink:title=" ">
<polygon fill="none" stroke="red" points="468,-285.5 468,-304.5 547,-304.5 547,-285.5 468,-285.5"/>
<text text-anchor="middle" x="507.5" y="-292.5" font-family="Helvetica,sans-Serif" font-size="10.00">JS_FreeValue</text>
</a>
</g>
</g>
<!-- Node1&#45;&gt;Node57 -->
<g id="edge37" class="edge">
<title>Node1&#45;&gt;Node57</title>
<path fill="none" stroke="midnightblue" d="M65.79,-190.63C97.96,-214.16 185.71,-274.21 270,-295 333.32,-310.62 409.12,-306.86 457.53,-301.75"/>
<polygon fill="midnightblue" stroke="midnightblue" points="458.17,-305.2 467.72,-300.61 457.4,-298.24 458.17,-305.2"/>
</g>
<!-- Node70 -->
<g id="node23" class="node">
<title>Node70</title>
<g id="a_node23"><a xlink:href="quickjs_8c.html#a686cf78f8b0361621ee2ba6182195c31" target="_top" xlink:title=" ">
<polygon fill="none" stroke="black" points="143,-0.5 143,-19.5 231,-19.5 231,-0.5 143,-0.5"/>
<text text-anchor="middle" x="187" y="-7.5" font-family="Helvetica,sans-Serif" font-size="10.00">is_strict_mode</text>
</a>
</g>
</g>
<!-- Node1&#45;&gt;Node70 -->
<g id="edge36" class="edge">
<title>Node1&#45;&gt;Node70</title>
<path fill="none" stroke="midnightblue" d="M56.59,-171.18C66.35,-145.6 95.66,-76.03 140,-34 143.74,-30.45 148.12,-27.29 152.65,-24.52"/>
<polygon fill="midnightblue" stroke="midnightblue" points="154.37,-27.57 161.43,-19.67 150.99,-21.44 154.37,-27.57"/>
</g>
<!-- Node71 -->
<g id="node24" class="node">
<title>Node71</title>
<g id="a_node24"><a xlink:href="quickjs_8h.html#ad80a83d73e9b7d872b88fbf2943aebe9" target="_top" xlink:title=" ">
<polygon fill="none" stroke="black" points="464,-76.5 464,-95.5 551,-95.5 551,-76.5 464,-76.5"/>
<text text-anchor="middle" x="507.5" y="-83.5" font-family="Helvetica,sans-Serif" font-size="10.00">JS_IsException</text>
</a>
</g>
</g>
<!-- Node1&#45;&gt;Node71 -->
<g id="edge38" class="edge">
<title>Node1&#45;&gt;Node71</title>
<path fill="none" stroke="midnightblue" d="M66.89,-171.48C100.13,-149.34 187.6,-94.89 270,-76 331.89,-61.81 405.23,-68.39 453.64,-75.84"/>
<polygon fill="midnightblue" stroke="midnightblue" points="453.16,-79.31 463.58,-77.44 454.26,-72.4 453.16,-79.31"/>
</g>
<!-- Node72 -->
<g id="node25" class="node">
<title>Node72</title>
<g id="a_node25"><a xlink:href="quickjs_8c.html#a710289a14c2810467e5b448d3c28bd55" target="_top" xlink:title=" ">
<polygon fill="none" stroke="black" points="150.5,-171.5 150.5,-190.5 223.5,-190.5 223.5,-171.5 150.5,-171.5"/>
<text text-anchor="middle" x="187" y="-178.5" font-family="Helvetica,sans-Serif" font-size="10.00">JS_ToObject</text>
</a>
</g>
</g>
<!-- Node1&#45;&gt;Node72 -->
<g id="edge39" class="edge">
<title>Node1&#45;&gt;Node72</title>
<path fill="none" stroke="midnightblue" d="M104.04,-181C115.82,-181 128.28,-181 139.84,-181"/>
<polygon fill="midnightblue" stroke="midnightblue" points="140.15,-184.5 150.15,-181 140.15,-177.5 140.15,-184.5"/>
</g>
<!-- Node3 -->
<g id="node3" class="node">
<title>Node3</title>
<g id="a_node3"><a xlink:href="quickjs_8c.html#ab638a184d14e8b02ab3ea38b393c7cad" target="_top" xlink:title=" ">
<polygon fill="none" stroke="black" points="451,-760.5 451,-779.5 564,-779.5 564,-760.5 451,-760.5"/>
<text text-anchor="middle" x="507.5" y="-767.5" font-family="Helvetica,sans-Serif" font-size="10.00">compact_properties</text>
</a>
</g>
</g>
<!-- Node2&#45;&gt;Node3 -->
<g id="edge2" class="edge">
<title>Node2&#45;&gt;Node3</title>
<path fill="none" stroke="midnightblue" d="M190.08,-494.87C196.72,-524.28 220.01,-612.55 270,-665 318.62,-716.02 396.48,-743.94 449.47,-757.91"/>
<polygon fill="midnightblue" stroke="midnightblue" points="448.83,-761.36 459.39,-760.44 450.56,-754.58 448.83,-761.36"/>
</g>
<!-- Node5 -->
<g id="node5" class="node">
<title>Node5</title>
<g id="a_node5"><a xlink:href="quickjs_8c.html#acab22c2945c4d609e57a2484feb68a96" target="_top" xlink:title=" ">
<polygon fill="none" stroke="black" points="774,-722.5 774,-741.5 864,-741.5 864,-722.5 774,-722.5"/>
<text text-anchor="middle" x="819" y="-729.5" font-family="Helvetica,sans-Serif" font-size="10.00">prop_hash_end</text>
</a>
</g>
</g>
<!-- Node2&#45;&gt;Node5 -->
<g id="edge35" class="edge">
<title>Node2&#45;&gt;Node5</title>
<path fill="none" stroke="midnightblue" d="M194.5,-475.41C206.83,-458.18 235.49,-422.53 270,-409 409.65,-354.24 733.84,-500.1 738,-504 799.04,-561.33 813.53,-667.89 816.95,-712.04"/>
<polygon fill="midnightblue" stroke="midnightblue" points="813.46,-712.33 817.62,-722.08 820.45,-711.87 813.46,-712.33"/>
</g>
<!-- Node18 -->
<g id="node13" class="node">
<title>Node18</title>
<g id="a_node13"><a xlink:href="quickjs_8c.html#ac93c982cb636a5430b191d104083af3e" target="_top" xlink:title=" ">
<polygon fill="none" stroke="black" points="281.5,-625 281.5,-655 389.5,-655 389.5,-625 281.5,-625"/>
<text text-anchor="start" x="289.5" y="-643" font-family="Helvetica,sans-Serif" font-size="10.00">convert_fast_array</text>
<text text-anchor="middle" x="335.5" y="-632" font-family="Helvetica,sans-Serif" font-size="10.00">_to_array</text>
</a>
</g>
</g>
<!-- Node2&#45;&gt;Node18 -->
<g id="edge13" class="edge">
<title>Node2&#45;&gt;Node18</title>
<path fill="none" stroke="midnightblue" d="M193.74,-494.51C206.04,-514.44 236.6,-561.44 270,-594 279.31,-603.08 290.54,-611.72 301,-619.02"/>
<polygon fill="midnightblue" stroke="midnightblue" points="299.31,-622.1 309.55,-624.81 303.23,-616.3 299.31,-622.1"/>
</g>
<!-- Node65 -->
<g id="node16" class="node">
<title>Node65</title>
<g id="a_node16"><a xlink:href="quickjs_8c.html#a3dd8e78607dbc729614deacf55901b95" target="_top" xlink:title=" ">
<polygon fill="none" stroke="red" points="437,-570.5 437,-589.5 578,-589.5 578,-570.5 437,-570.5"/>
<text text-anchor="middle" x="507.5" y="-577.5" font-family="Helvetica,sans-Serif" font-size="10.00">js_shape_prepare_update</text>
</a>
</g>
</g>
<!-- Node2&#45;&gt;Node65 -->
<g id="edge34" class="edge">
<title>Node2&#45;&gt;Node65</title>
<path fill="none" stroke="midnightblue" d="M195.61,-494.65C208.82,-510.59 237.67,-542.05 270,-556 319.25,-577.25 379.44,-583.11 426.78,-583.73"/>
<polygon fill="midnightblue" stroke="midnightblue" points="426.97,-587.23 436.98,-583.78 427,-580.23 426.97,-587.23"/>
</g>
<!-- Node23 -->
<g id="node17" class="node">
<title>Node23</title>
<g id="a_node17"><a xlink:href="quickjs_8c.html#a643df594b75933007bcdbb071b5ea8c5" target="_top" xlink:title=" ">
<polygon fill="none" stroke="black" points="629,-513.5 629,-532.5 723,-532.5 723,-513.5 629,-513.5"/>
<text text-anchor="middle" x="676" y="-520.5" font-family="Helvetica,sans-Serif" font-size="10.00">get_shape_prop</text>
</a>
</g>
</g>
<!-- Node2&#45;&gt;Node23 -->
<g id="edge30" class="edge">
<title>Node2&#45;&gt;Node23</title>
<path fill="none" stroke="midnightblue" d="M203.3,-494.57C219.26,-503.93 245.33,-517.56 270,-523 391.9,-549.87 539.5,-539.47 618.53,-530.57"/>
<polygon fill="midnightblue" stroke="midnightblue" points="619.22,-534.02 628.75,-529.39 618.41,-527.06 619.22,-534.02"/>
</g>
<!-- Node61 -->
<g id="node19" class="node">
<title>Node61</title>
<g id="a_node19"><a xlink:href="quickjs_8c.html#af4274494e2e45f9018154ffcbb7e89e4" target="_top" xlink:title=" ">
<polygon fill="none" stroke="red" points="294,-494.5 294,-513.5 377,-513.5 377,-494.5 294,-494.5"/>
<text text-anchor="middle" x="335.5" y="-501.5" font-family="Helvetica,sans-Serif" font-size="10.00">free_property</text>
</a>
</g>
</g>
<!-- Node2&#45;&gt;Node61 -->
<g id="edge29" class="edge">
<title>Node2&#45;&gt;Node61</title>
<path fill="none" stroke="midnightblue" d="M234.35,-491.01C250.03,-493.05 267.62,-495.33 283.63,-497.4"/>
<polygon fill="midnightblue" stroke="midnightblue" points="283.52,-500.92 293.89,-498.73 284.42,-493.98 283.52,-500.92"/>
</g>
<!-- Node66 -->
<g id="node20" class="node">
<title>Node66</title>
<g id="a_node20"><a xlink:href="quickjs_8c.html#aae16c5cdefab4e9dd9866993a7f0150e" target="_top" xlink:title=" ">
<polygon fill="none" stroke="red" points="276,-456.5 276,-475.5 395,-475.5 395,-456.5 276,-456.5"/>
<text text-anchor="middle" x="335.5" y="-463.5" font-family="Helvetica,sans-Serif" font-size="10.00">JS_AtomIsArrayIndex</text>
</a>
</g>
</g>
<!-- Node2&#45;&gt;Node66 -->
<g id="edge31" class="edge">
<title>Node2&#45;&gt;Node66</title>
<path fill="none" stroke="midnightblue" d="M234.35,-478.99C244.33,-477.69 255.07,-476.3 265.69,-474.92"/>
<polygon fill="midnightblue" stroke="midnightblue" points="266.34,-478.37 275.81,-473.61 265.44,-471.43 266.34,-478.37"/>
</g>
<!-- Node56 -->
<g id="node21" class="node">
<title>Node56</title>
<g id="a_node21"><a xlink:href="quickjs_8c.html#ab7fc45a99935a1c0ba50b0216d9401a9" target="_top" xlink:title=" ">
<polygon fill="none" stroke="red" points="296.5,-418.5 296.5,-437.5 374.5,-437.5 374.5,-418.5 296.5,-418.5"/>
<text text-anchor="middle" x="335.5" y="-425.5" font-family="Helvetica,sans-Serif" font-size="10.00">JS_FreeAtom</text>
</a>
</g>
</g>
<!-- Node2&#45;&gt;Node56 -->
<g id="edge32" class="edge">
<title>Node2&#45;&gt;Node56</title>
<path fill="none" stroke="midnightblue" d="M206.55,-475.44C222.96,-467.23 247.68,-455.41 270,-447 276.02,-444.73 282.44,-442.56 288.81,-440.55"/>
<polygon fill="midnightblue" stroke="midnightblue" points="290.16,-443.79 298.7,-437.52 288.12,-437.1 290.16,-443.79"/>
</g>
<!-- Node2&#45;&gt;Node57 -->
<g id="edge33" class="edge">
<title>Node2&#45;&gt;Node57</title>
<path fill="none" stroke="midnightblue" d="M192.71,-475.31C203.47,-454.19 231.86,-403.68 270,-376 278.27,-370 402.37,-328.99 467.4,-307.73"/>
<polygon fill="midnightblue" stroke="midnightblue" points="468.5,-311.05 476.92,-304.62 466.33,-304.4 468.5,-311.05"/>
</g>
<!-- Node4 -->
<g id="node4" class="node">
<title>Node4</title>
<g id="a_node4"><a xlink:href="quickjs_8c.html#a7da0cfa6f27af0e1b9599d7f359edbe2" target="_top" xlink:title=" ">
<polygon fill="none" stroke="black" points="614,-855.5 614,-874.5 738,-874.5 738,-855.5 614,-855.5"/>
<text text-anchor="middle" x="676" y="-862.5" font-family="Helvetica,sans-Serif" font-size="10.00">get_alloc_from_shape</text>
</a>
</g>
</g>
<!-- Node3&#45;&gt;Node4 -->
<g id="edge3" class="edge">
<title>Node3&#45;&gt;Node4</title>
<path fill="none" stroke="midnightblue" d="M519.42,-779.73C537.76,-795.62 576.44,-827.24 614,-846 618.36,-848.18 623.02,-850.17 627.75,-851.97"/>
<polygon fill="midnightblue" stroke="midnightblue" points="626.88,-855.38 637.48,-855.4 629.22,-848.77 626.88,-855.38"/>
</g>
<!-- Node3&#45;&gt;Node5 -->
<g id="edge12" class="edge">
<title>Node3&#45;&gt;Node5</title>
<path fill="none" stroke="midnightblue" d="M513.74,-779.82C526.89,-803.24 563.84,-862.08 614,-884 664.5,-906.07 690.82,-912.48 738,-884 786.17,-854.92 806.79,-786.14 814.3,-751.98"/>
<polygon fill="midnightblue" stroke="midnightblue" points="817.81,-752.32 816.37,-741.82 810.95,-750.92 817.81,-752.32"/>
</g>
<!-- Node6 -->
<g id="node6" class="node">
<title>Node6</title>
<g id="a_node6"><a xlink:href="quickjs_8c.html#a8b6c89e0f589df709eb31a92b7fac32a" target="_top" xlink:title=" ">
<polygon fill="none" stroke="black" points="614,-817.5 614,-836.5 738,-836.5 738,-817.5 614,-817.5"/>
<text text-anchor="middle" x="676" y="-824.5" font-family="Helvetica,sans-Serif" font-size="10.00">get_shape_from_alloc</text>
</a>
</g>
</g>
<!-- Node3&#45;&gt;Node6 -->
<g id="edge5" class="edge">
<title>Node3&#45;&gt;Node6</title>
<path fill="none" stroke="midnightblue" d="M533.97,-779.53C555.27,-787.41 586.5,-798.77 614,-808 620.43,-810.16 627.27,-812.37 633.95,-814.48"/>
<polygon fill="midnightblue" stroke="midnightblue" points="632.98,-817.85 643.57,-817.5 635.07,-811.17 632.98,-817.85"/>
</g>
<!-- Node7 -->
<g id="node7" class="node">
<title>Node7</title>
<g id="a_node7"><a xlink:href="quickjs_8c.html#ab54e821a9b1b55dc16c4494bd410b698" target="_top" xlink:title=" ">
<polygon fill="none" stroke="black" points="630,-779.5 630,-798.5 722,-798.5 722,-779.5 630,-779.5"/>
<text text-anchor="middle" x="676" y="-786.5" font-family="Helvetica,sans-Serif" font-size="10.00">get_shape_size</text>
</a>
</g>
</g>
<!-- Node3&#45;&gt;Node7 -->
<g id="edge6" class="edge">
<title>Node3&#45;&gt;Node7</title>
<path fill="none" stroke="midnightblue" d="M564.41,-776.38C582.17,-778.41 601.81,-780.65 619.55,-782.67"/>
<polygon fill="midnightblue" stroke="midnightblue" points="619.41,-786.18 629.74,-783.84 620.21,-779.22 619.41,-786.18"/>
</g>
<!-- Node8 -->
<g id="node8" class="node">
<title>Node8</title>
<g id="a_node8"><a xlink:href="quickjs_8c.html#a80e54dcf9ac687d4ccc2f90273565f30" target="_top" xlink:title=" ">
<polygon fill="none" stroke="red" points="651,-551.5 651,-570.5 701,-570.5 701,-551.5 651,-551.5"/>
<text text-anchor="middle" x="676" y="-558.5" font-family="Helvetica,sans-Serif" font-size="10.00">js_free</text>
</a>
</g>
</g>
<!-- Node3&#45;&gt;Node8 -->
<g id="edge7" class="edge">
<title>Node3&#45;&gt;Node8</title>
<path fill="none" stroke="midnightblue" d="M564.21,-760.68C569.3,-758.16 574.02,-754.99 578,-751 621.25,-707.64 582.42,-670.47 614,-618 623.81,-601.7 639.6,-587.13 652.65,-576.8"/>
<polygon fill="midnightblue" stroke="midnightblue" points="654.9,-579.49 660.74,-570.65 650.66,-573.92 654.9,-579.49"/>
</g>
<!-- Node10 -->
<g id="node9" class="node">
<title>Node10</title>
<g id="a_node9"><a xlink:href="quickjs_8c.html#a78b7f6b85f2739b551ff54f16156128b" target="_top" xlink:title=" ">
<polygon fill="none" stroke="red" points="644.5,-741.5 644.5,-760.5 707.5,-760.5 707.5,-741.5 644.5,-741.5"/>
<text text-anchor="middle" x="676" y="-748.5" font-family="Helvetica,sans-Serif" font-size="10.00">js_malloc</text>
</a>
</g>
</g>
<!-- Node3&#45;&gt;Node10 -->
<g id="edge8" class="edge">
<title>Node3&#45;&gt;Node10</title>
<path fill="none" stroke="midnightblue" d="M564.41,-763.62C587.2,-761.02 613.06,-758.07 634.05,-755.67"/>
<polygon fill="midnightblue" stroke="midnightblue" points="634.69,-759.12 644.23,-754.51 633.89,-752.17 634.69,-759.12"/>
</g>
<!-- Node14 -->
<g id="node10" class="node">
<title>Node14</title>
<g id="a_node10"><a xlink:href="list_8h.html#a3a5d0733570b2fafc18f4c71a2968ea5" target="_top" xlink:title=" ">
<polygon fill="none" stroke="red" points="638,-703.5 638,-722.5 714,-722.5 714,-703.5 638,-703.5"/>
<text text-anchor="middle" x="676" y="-710.5" font-family="Helvetica,sans-Serif" font-size="10.00">list_add_tail</text>
</a>
</g>
</g>
<!-- Node3&#45;&gt;Node14 -->
<g id="edge9" class="edge">
<title>Node3&#45;&gt;Node14</title>
<path fill="none" stroke="midnightblue" d="M549.41,-760.42C558.93,-757.75 568.93,-754.58 578,-751 594.83,-744.35 597.29,-738.94 614,-732 619.38,-729.76 625.12,-727.65 630.85,-725.69"/>
<polygon fill="midnightblue" stroke="midnightblue" points="631.99,-729 640.41,-722.56 629.81,-722.35 631.99,-729"/>
</g>
<!-- Node16 -->
<g id="node11" class="node">
<title>Node16</title>
<g id="a_node11"><a xlink:href="list_8h.html#ab60d5d18869ebeb5d6ab694289576fa7" target="_top" xlink:title=" ">
<polygon fill="none" stroke="black" points="650,-665.5 650,-684.5 702,-684.5 702,-665.5 650,-665.5"/>
<text text-anchor="middle" x="676" y="-672.5" font-family="Helvetica,sans-Serif" font-size="10.00">list_del</text>
</a>
</g>
</g>
<!-- Node3&#45;&gt;Node16 -->
<g id="edge10" class="edge">
<title>Node3&#45;&gt;Node16</title>
<path fill="none" stroke="midnightblue" d="M560.6,-760.41C566.8,-757.95 572.77,-754.87 578,-751 602.08,-733.17 590.23,-712.25 614,-694 621.62,-688.15 631.08,-684.08 640.25,-681.26"/>
<polygon fill="midnightblue" stroke="midnightblue" points="641.22,-684.62 649.98,-678.66 639.42,-677.86 641.22,-684.62"/>
</g>
<!-- Node17 -->
<g id="node12" class="node">
<title>Node17</title>
<g id="a_node12"><a xlink:href="cutils_8h.html#a94f155fcce337a2b9d4719ed8042cbbe" target="_top" xlink:title=" ">
<polygon fill="none" stroke="black" points="648,-627.5 648,-646.5 704,-646.5 704,-627.5 648,-627.5"/>
<text text-anchor="middle" x="676" y="-634.5" font-family="Helvetica,sans-Serif" font-size="10.00">max_int</text>
</a>
</g>
</g>
<!-- Node3&#45;&gt;Node17 -->
<g id="edge11" class="edge">
<title>Node3&#45;&gt;Node17</title>
<path fill="none" stroke="midnightblue" d="M563.48,-760.43C568.77,-757.96 573.74,-754.87 578,-751 611.41,-720.63 581.13,-686.95 614,-656 620.63,-649.76 629.28,-645.56 637.98,-642.75"/>
<polygon fill="midnightblue" stroke="midnightblue" points="638.97,-646.11 647.71,-640.12 637.14,-639.35 638.97,-646.11"/>
</g>
<!-- Node4&#45;&gt;Node5 -->
<g id="edge4" class="edge">
<title>Node4&#45;&gt;Node5</title>
<path fill="none" stroke="midnightblue" d="M720.38,-855.42C726.62,-852.95 732.71,-849.86 738,-846 772.5,-820.82 797.48,-776.1 809.65,-750.81"/>
<polygon fill="midnightblue" stroke="midnightblue" points="812.91,-752.1 813.94,-741.56 806.56,-749.16 812.91,-752.1"/>
</g>
<!-- Node18&#45;&gt;Node8 -->
<g id="edge16" class="edge">
<title>Node18&#45;&gt;Node8</title>
<path fill="none" stroke="midnightblue" d="M389.95,-634.12C439.35,-627.94 514.48,-616.63 578,-599 601,-592.61 626.07,-582.71 644.96,-574.62"/>
<polygon fill="midnightblue" stroke="midnightblue" points="646.46,-577.78 654.23,-570.58 643.67,-571.36 646.46,-577.78"/>
</g>
<!-- Node19 -->
<g id="node14" class="node">
<title>Node19</title>
<g id="a_node14"><a xlink:href="quickjs_8c.html#a877fcb7651d95b411ce70e62b7f4a1f0" target="_top" xlink:title=" ">
<polygon fill="none" stroke="black" points="445,-722.5 445,-741.5 570,-741.5 570,-722.5 445,-722.5"/>
<text text-anchor="middle" x="507.5" y="-729.5" font-family="Helvetica,sans-Serif" font-size="10.00">__JS_AtomFromUInt32</text>
</a>
</g>
</g>
<!-- Node18&#45;&gt;Node19 -->
<g id="edge14" class="edge">
<title>Node18&#45;&gt;Node19</title>
<path fill="none" stroke="midnightblue" d="M353.41,-655.28C372.44,-671.73 404.92,-697.6 437,-713 441.93,-715.37 447.21,-717.48 452.57,-719.36"/>
<polygon fill="midnightblue" stroke="midnightblue" points="451.66,-722.74 462.25,-722.49 453.81,-716.08 451.66,-722.74"/>
</g>
<!-- Node20 -->
<g id="node15" class="node">
<title>Node20</title>
<g id="a_node15"><a xlink:href="quickjs_8c.html#a74547db03bf739a52c83a326b32db997" target="_top" xlink:title=" ">
<polygon fill="none" stroke="red" points="467,-684.5 467,-703.5 548,-703.5 548,-684.5 467,-684.5"/>
<text text-anchor="middle" x="507.5" y="-691.5" font-family="Helvetica,sans-Serif" font-size="10.00">add_property</text>
</a>
</g>
</g>
<!-- Node18&#45;&gt;Node20 -->
<g id="edge15" class="edge">
<title>Node18&#45;&gt;Node20</title>
<path fill="none" stroke="midnightblue" d="M377.85,-655.11C395.92,-661.53 417.41,-668.92 437,-675 444.31,-677.27 452.1,-679.54 459.71,-681.68"/>
<polygon fill="midnightblue" stroke="midnightblue" points="459,-685.11 469.57,-684.41 460.87,-678.37 459,-685.11"/>
</g>
<!-- Node18&#45;&gt;Node65 -->
<g id="edge17" class="edge">
<title>Node18&#45;&gt;Node65</title>
<path fill="none" stroke="midnightblue" d="M378.51,-624.83C396.51,-618.36 417.77,-610.76 437,-604 447.4,-600.34 458.7,-596.42 469.1,-592.83"/>
<polygon fill="midnightblue" stroke="midnightblue" points="470.43,-596.07 478.74,-589.5 468.15,-589.45 470.43,-596.07"/>
</g>
<!-- Node29 -->
<g id="node18" class="node">
<title>Node29</title>
<g id="a_node18"><a xlink:href="quickjs_8c.html#aa80740ff93b724ea7e0c280826f4a25a" target="_top" xlink:title=" ">
<polygon fill="none" stroke="red" points="457,-646.5 457,-665.5 558,-665.5 558,-646.5 457,-646.5"/>
<text text-anchor="middle" x="507.5" y="-653.5" font-family="Helvetica,sans-Serif" font-size="10.00">resize_properties</text>
</a>
</g>
</g>
<!-- Node18&#45;&gt;Node29 -->
<g id="edge19" class="edge">
<title>Node18&#45;&gt;Node29</title>
<path fill="none" stroke="midnightblue" d="M389.82,-645.02C407.9,-646.72 428.2,-648.63 446.75,-650.38"/>
<polygon fill="midnightblue" stroke="midnightblue" points="446.56,-653.87 456.84,-651.33 447.21,-646.9 446.56,-653.87"/>
</g>
<!-- Node65&#45;&gt;Node23 -->
<g id="edge18" class="edge">
<title>Node65&#45;&gt;Node23</title>
<path fill="none" stroke="midnightblue" d="M536.99,-570.44C549.6,-566.13 564.58,-560.93 578,-556 594.12,-550.09 597.8,-547.67 614,-542 620.12,-539.86 626.62,-537.71 633.01,-535.66"/>
<polygon fill="midnightblue" stroke="midnightblue" points="634.4,-538.89 642.89,-532.55 632.3,-532.22 634.4,-538.89"/>
</g>
<!-- Node29&#45;&gt;Node4 -->
<g id="edge20" class="edge">
<title>Node29&#45;&gt;Node4</title>
<path fill="none" stroke="midnightblue" d="M558.23,-662.33C565.64,-665.2 572.6,-669.26 578,-675 631.26,-731.52 561.74,-788.55 614,-846 615.21,-847.33 616.5,-848.56 617.87,-849.71"/>
<polygon fill="midnightblue" stroke="midnightblue" points="616.16,-852.77 626.43,-855.4 620.04,-846.95 616.16,-852.77"/>
</g>
<!-- Node29&#45;&gt;Node5 -->
<g id="edge28" class="edge">
<title>Node29&#45;&gt;Node5</title>
<path fill="none" stroke="midnightblue" d="M536.99,-646.44C549.6,-642.13 564.58,-636.93 578,-632 594.12,-626.09 597.13,-621.17 614,-618 668.17,-607.84 689.1,-592.58 738,-618 776.45,-637.99 800.27,-685.86 811.1,-712.78"/>
<polygon fill="midnightblue" stroke="midnightblue" points="807.89,-714.18 814.73,-722.28 814.43,-711.69 807.89,-714.18"/>
</g>
<!-- Node29&#45;&gt;Node6 -->
<g id="edge21" class="edge">
<title>Node29&#45;&gt;Node6</title>
<path fill="none" stroke="midnightblue" d="M558.31,-662.74C565.62,-665.56 572.52,-669.51 578,-675 621.25,-718.36 571.52,-763.89 614,-808 615.38,-809.44 616.88,-810.77 618.45,-812"/>
<polygon fill="midnightblue" stroke="midnightblue" points="616.62,-814.98 626.94,-817.35 620.35,-809.06 616.62,-814.98"/>
</g>
<!-- Node29&#45;&gt;Node7 -->
<g id="edge22" class="edge">
<title>Node29&#45;&gt;Node7</title>
<path fill="none" stroke="midnightblue" d="M558.21,-663.34C565.45,-666.1 572.35,-669.87 578,-675 611.41,-705.37 581.13,-739.05 614,-770 616.12,-772 618.45,-773.78 620.92,-775.38"/>
<polygon fill="midnightblue" stroke="midnightblue" points="619.29,-778.48 629.76,-780.13 622.6,-772.31 619.29,-778.48"/>
</g>
<!-- Node29&#45;&gt;Node8 -->
<g id="edge23" class="edge">
<title>Node29&#45;&gt;Node8</title>
<path fill="none" stroke="midnightblue" d="M549.05,-646.42C559.08,-642.9 569.41,-638.2 578,-632 599.34,-616.61 592.99,-600.84 614,-585 622.09,-578.9 631.94,-574.14 641.34,-570.52"/>
<polygon fill="midnightblue" stroke="midnightblue" points="642.61,-573.79 650.88,-567.16 640.28,-567.18 642.61,-573.79"/>
</g>
<!-- Node29&#45;&gt;Node10 -->
<g id="edge24" class="edge">
<title>Node29&#45;&gt;Node10</title>
<path fill="none" stroke="midnightblue" d="M558.09,-664.64C565.18,-667.23 572.07,-670.61 578,-675 602.08,-692.83 590.23,-713.75 614,-732 620.05,-736.64 627.25,-740.16 634.54,-742.83"/>
<polygon fill="midnightblue" stroke="midnightblue" points="633.86,-746.28 644.45,-745.96 635.97,-739.61 633.86,-746.28"/>
</g>
<!-- Node29&#45;&gt;Node14 -->
<g id="edge25" class="edge">
<title>Node29&#45;&gt;Node14</title>
<path fill="none" stroke="midnightblue" d="M549.41,-665.58C558.93,-668.25 568.93,-671.42 578,-675 594.83,-681.65 597.29,-687.06 614,-694 619.38,-696.24 625.12,-698.35 630.85,-700.31"/>
<polygon fill="midnightblue" stroke="midnightblue" points="629.81,-703.65 640.41,-703.44 631.99,-697 629.81,-703.65"/>
</g>
<!-- Node29&#45;&gt;Node16 -->
<g id="edge26" class="edge">
<title>Node29&#45;&gt;Node16</title>
<path fill="none" stroke="midnightblue" d="M558,-661.65C584.22,-664.64 615.82,-668.25 639.56,-670.96"/>
<polygon fill="midnightblue" stroke="midnightblue" points="639.21,-674.44 649.55,-672.1 640.01,-667.48 639.21,-674.44"/>
</g>
<!-- Node29&#45;&gt;Node17 -->
<g id="edge27" class="edge">
<title>Node29&#45;&gt;Node17</title>
<path fill="none" stroke="midnightblue" d="M558,-650.35C583.44,-647.45 613.94,-643.97 637.42,-641.29"/>
<polygon fill="midnightblue" stroke="midnightblue" points="638.13,-644.73 647.67,-640.12 637.34,-637.78 638.13,-644.73"/>
</g>
<!-- Node72&#45;&gt;Node71 -->
<g id="edge43" class="edge">
<title>Node72&#45;&gt;Node71</title>
<path fill="none" stroke="midnightblue" d="M194.81,-171.41C207.42,-154.51 236.23,-119.83 270,-105 328.98,-79.1 404.15,-77.75 453.72,-80.63"/>
<polygon fill="midnightblue" stroke="midnightblue" points="453.69,-84.13 463.9,-81.3 454.15,-77.15 453.69,-84.13"/>
</g>
<!-- Node73 -->
<g id="node26" class="node">
<title>Node73</title>
<g id="a_node26"><a xlink:href="quickjs_8c.html#a0a8765bd4012467d9139bc24aabcb3ca" target="_top" xlink:title=" ">
<polygon fill="none" stroke="red" points="270,-266.5 270,-285.5 401,-285.5 401,-266.5 270,-266.5"/>
<text text-anchor="middle" x="335.5" y="-273.5" font-family="Helvetica,sans-Serif" font-size="10.00">JS_DefinePropertyValue</text>
</a>
</g>
</g>
<!-- Node72&#45;&gt;Node73 -->
<g id="edge40" class="edge">
<title>Node72&#45;&gt;Node73</title>
<path fill="none" stroke="midnightblue" d="M195.78,-190.68C209.24,-206.78 238.45,-239.06 270,-257 273.87,-259.2 278.02,-261.17 282.28,-262.92"/>
<polygon fill="midnightblue" stroke="midnightblue" points="281.13,-266.23 291.72,-266.43 283.57,-259.67 281.13,-266.23"/>
</g>
<!-- Node36 -->
<g id="node27" class="node">
<title>Node36</title>
<g id="a_node27"><a xlink:href="quickjs_8h.html#a775522f2d084fc8fa0fcb33f390006b4" target="_top" xlink:title=" ">
<polygon fill="none" stroke="black" points="297,-152.5 297,-171.5 374,-171.5 374,-152.5 297,-152.5"/>
<text text-anchor="middle" x="335.5" y="-159.5" font-family="Helvetica,sans-Serif" font-size="10.00">JS_DupValue</text>
</a>
</g>
</g>
<!-- Node72&#45;&gt;Node36 -->
<g id="edge42" class="edge">
<title>Node72&#45;&gt;Node36</title>
<path fill="none" stroke="midnightblue" d="M223.84,-176.35C242.82,-173.89 266.39,-170.83 286.9,-168.17"/>
<polygon fill="midnightblue" stroke="midnightblue" points="287.52,-171.62 296.99,-166.87 286.62,-164.68 287.52,-171.62"/>
</g>
<!-- Node135 -->
<g id="node28" class="node">
<title>Node135</title>
<g id="a_node28"><a xlink:href="quickjs_8h.html#a2050bc428da1c65ac7eb87c3fa3b0392" target="_top" xlink:title=" ">
<polygon fill="none" stroke="black" points="297,-114.5 297,-133.5 374,-133.5 374,-114.5 297,-114.5"/>
<text text-anchor="middle" x="335.5" y="-121.5" font-family="Helvetica,sans-Serif" font-size="10.00">JS_NewInt32</text>
</a>
</g>
</g>
<!-- Node72&#45;&gt;Node135 -->
<g id="edge44" class="edge">
<title>Node72&#45;&gt;Node135</title>
<path fill="none" stroke="midnightblue" d="M206.55,-171.44C222.96,-163.23 247.68,-151.41 270,-143 276.02,-140.73 282.44,-138.56 288.81,-136.55"/>
<polygon fill="midnightblue" stroke="midnightblue" points="290.16,-139.79 298.7,-133.52 288.12,-133.1 290.16,-139.79"/>
</g>
<!-- Node231 -->
<g id="node29" class="node">
<title>Node231</title>
<g id="a_node29"><a xlink:href="quickjs_8c.html#a659dc0db7e440fd6eb012d613627faa3" target="_top" xlink:title=" ">
<polygon fill="none" stroke="red" points="280.5,-228.5 280.5,-247.5 390.5,-247.5 390.5,-228.5 280.5,-228.5"/>
<text text-anchor="middle" x="335.5" y="-235.5" font-family="Helvetica,sans-Serif" font-size="10.00">JS_NewObjectClass</text>
</a>
</g>
</g>
<!-- Node72&#45;&gt;Node231 -->
<g id="edge45" class="edge">
<title>Node72&#45;&gt;Node231</title>
<path fill="none" stroke="midnightblue" d="M206.55,-190.56C222.96,-198.77 247.68,-210.59 270,-219 276.02,-221.27 282.44,-223.44 288.81,-225.45"/>
<polygon fill="midnightblue" stroke="midnightblue" points="288.12,-228.9 298.7,-228.48 290.16,-222.21 288.12,-228.9"/>
</g>
<!-- Node435 -->
<g id="node30" class="node">
<title>Node435</title>
<g id="a_node30"><a xlink:href="quickjs_8c.html#a5cfd8b63940fcb5151b4df41e32dc68c" target="_top" xlink:title=" ">
<polygon fill="none" stroke="black" points="285,-190.5 285,-209.5 386,-209.5 386,-190.5 285,-190.5"/>
<text text-anchor="middle" x="335.5" y="-197.5" font-family="Helvetica,sans-Serif" font-size="10.00">JS_SetObjectData</text>
</a>
</g>
</g>
<!-- Node72&#45;&gt;Node435 -->
<g id="edge46" class="edge">
<title>Node72&#45;&gt;Node435</title>
<path fill="none" stroke="midnightblue" d="M223.84,-185.65C239.2,-187.64 257.57,-190.02 274.89,-192.27"/>
<polygon fill="midnightblue" stroke="midnightblue" points="274.56,-195.76 284.93,-193.57 275.46,-188.81 274.56,-195.76"/>
</g>
<!-- Node73&#45;&gt;Node57 -->
<g id="edge41" class="edge">
<title>Node73&#45;&gt;Node57</title>
<path fill="none" stroke="midnightblue" d="M401.25,-283.24C419.92,-285.32 439.97,-287.56 457.52,-289.53"/>
<polygon fill="midnightblue" stroke="midnightblue" points="457.2,-293.01 467.52,-290.64 457.97,-286.05 457.2,-293.01"/>
</g>
<!-- Node435&#45;&gt;Node57 -->
<g id="edge47" class="edge">
<title>Node435&#45;&gt;Node57</title>
<path fill="none" stroke="midnightblue" d="M376.52,-209.5C384.81,-212.1 393.35,-215.25 401,-219 434.17,-235.24 468.04,-261.77 488.16,-278.8"/>
<polygon fill="midnightblue" stroke="midnightblue" points="486.04,-281.59 495.9,-285.46 490.6,-276.28 486.04,-281.59"/>
</g>
<!-- Node435&#45;&gt;Node71 -->
<g id="edge48" class="edge">
<title>Node435&#45;&gt;Node71</title>
<path fill="none" stroke="midnightblue" d="M378.9,-190.46C386.5,-187.94 394.17,-184.82 401,-181 438.04,-160.29 472.97,-124.48 491.88,-103.24"/>
<polygon fill="midnightblue" stroke="midnightblue" points="494.59,-105.45 498.53,-95.62 489.32,-100.85 494.59,-105.45"/>
</g>
</g>
</svg>
