<?xml version="1.0" encoding="UTF-8" standalone="no"?>
<!DOCTYPE svg PUBLIC "-//W3C//DTD SVG 1.1//EN"
 "http://www.w3.org/Graphics/SVG/1.1/DTD/svg11.dtd">
<!-- Generated by graphviz version 2.43.0 (0)
 -->
<!-- Title: JS_IteratorNext Pages: 1 -->
<!--zoomable 746 -->
<svg id="main" version="1.1" xmlns="http://www.w3.org/2000/svg" xmlns:xlink="http://www.w3.org/1999/xlink" xml:space="preserve" onload="init(evt)">
<style type="text/css"><![CDATA[
.edge:hover path { stroke: red; }
.edge:hover polygon { stroke: red; fill: red; }
]]></style>
<script type="text/javascript"><![CDATA[
var edges = document.getElementsByTagName('g');
if (edges && edges.length) {
  for (var i=0;i<edges.length;i++) {
    if (edges[i].id.substr(0,4)=='edge') {
      edges[i].setAttribute('class','edge');
    }
  }
}
]]></script>
        <defs>
                <circle id="rim" cx="0" cy="0" r="7"/>
                <circle id="rim2" cx="0" cy="0" r="3.5"/>
                <g id="zoomPlus">
                        <use xlink:href="#rim" fill="#404040">
                                <set attributeName="fill" to="#808080" begin="zoomplus.mouseover" end="zoomplus.mouseout"/>
                        </use>
                        <path d="M-4,0h8M0,-4v8" fill="none" stroke="white" stroke-width="1.5" pointer-events="none"/>
                </g>
                <g id="zoomMin">
                        <use xlink:href="#rim" fill="#404040">
                                <set attributeName="fill" to="#808080" begin="zoomminus.mouseover" end="zoomminus.mouseout"/>
                        </use>
                        <path d="M-4,0h8" fill="none" stroke="white" stroke-width="1.5" pointer-events="none"/>
                </g>
                <g id="dirArrow">
                        <path fill="none" stroke="white" stroke-width="1.5" d="M0,-3.0v7 M-2.5,-0.5L0,-3.0L2.5,-0.5"/>
                </g>
               <g id="resetDef">
                       <use xlink:href="#rim2" fill="#404040">
                               <set attributeName="fill" to="#808080" begin="reset.mouseover" end="reset.mouseout"/>
                       </use>
               </g>
        </defs>

<script type="text/javascript">
var viewWidth = 1002;
var viewHeight = 746;
var sectionId = 'dynsection-813';
</script>
<script xlink:href="svgpan.js"/>
<svg id="graph" class="graph">
<g id="viewport">
<title>JS_IteratorNext</title>
<!-- Node1 -->
<g id="node1" class="node">
<title>Node1</title>
<g id="a_node1"><a xlink:title=" ">
<polygon fill="#bfbfbf" stroke="black" points="0,-623.28 0,-642.28 90,-642.28 90,-623.28 0,-623.28"/>
<text text-anchor="middle" x="45" y="-630.28" font-family="Helvetica,sans-Serif" font-size="10.00">JS_IteratorNext</text>
</a>
</g>
</g>
<!-- Node2 -->
<g id="node2" class="node">
<title>Node2</title>
<g id="a_node2"><a xlink:href="quickjs_8h.html#afaa20c47565bc704c6c85f3d77254e7d" target="_top" xlink:title=" ">
<polygon fill="none" stroke="black" points="649,-604.28 649,-623.28 728,-623.28 728,-604.28 649,-604.28"/>
<text text-anchor="middle" x="688.5" y="-611.28" font-family="Helvetica,sans-Serif" font-size="10.00">JS_FreeValue</text>
</a>
</g>
</g>
<!-- Node1&#45;&gt;Node2 -->
<g id="edge1" class="edge">
<title>Node1&#45;&gt;Node2</title>
<path fill="none" stroke="midnightblue" d="M90.09,-631.47C205.89,-628.04 518.01,-618.8 638.82,-615.22"/>
<polygon fill="midnightblue" stroke="midnightblue" points="638.99,-618.72 648.89,-614.92 638.79,-611.72 638.99,-618.72"/>
</g>
<!-- Node40 -->
<g id="node5" class="node">
<title>Node40</title>
<g id="a_node5"><a xlink:href="quickjs_8h.html#a89b7c8686c7eee70b86be722ee4730ad" target="_top" xlink:title=" ">
<polygon fill="none" stroke="black" points="126,-471.28 126,-490.28 215,-490.28 215,-471.28 126,-471.28"/>
<text text-anchor="middle" x="170.5" y="-478.28" font-family="Helvetica,sans-Serif" font-size="10.00">JS_GetProperty</text>
</a>
</g>
</g>
<!-- Node1&#45;&gt;Node40 -->
<g id="edge4" class="edge">
<title>Node1&#45;&gt;Node40</title>
<path fill="none" stroke="midnightblue" d="M53.73,-623.27C74,-598.32 128.96,-530.67 155.19,-498.39"/>
<polygon fill="midnightblue" stroke="midnightblue" points="158.19,-500.25 161.78,-490.28 152.76,-495.84 158.19,-500.25"/>
</g>
<!-- Node49 -->
<g id="node11" class="node">
<title>Node49</title>
<g id="a_node11"><a xlink:href="quickjs_8h.html#ad80a83d73e9b7d872b88fbf2943aebe9" target="_top" xlink:title=" ">
<polygon fill="none" stroke="black" points="645,-161.28 645,-180.28 732,-180.28 732,-161.28 645,-161.28"/>
<text text-anchor="middle" x="688.5" y="-168.28" font-family="Helvetica,sans-Serif" font-size="10.00">JS_IsException</text>
</a>
</g>
</g>
<!-- Node1&#45;&gt;Node49 -->
<g id="edge25" class="edge">
<title>Node1&#45;&gt;Node49</title>
<path fill="none" stroke="midnightblue" d="M48.09,-623.21C63.12,-557.09 161.44,-166.6 414,-31.78 490.46,9.03 534.15,11.91 609,-31.78 653.53,-57.77 674.8,-119.41 683.1,-151.14"/>
<polygon fill="midnightblue" stroke="midnightblue" points="679.73,-152.13 685.51,-161.02 686.53,-150.47 679.73,-152.13"/>
</g>
<!-- Node434 -->
<g id="node22" class="node">
<title>Node434</title>
<g id="a_node22"><a xlink:href="quickjs_8c.html#ad6303fbd3add4afa0cb64b0aa6d431ce" target="_top" xlink:title=" ">
<polygon fill="none" stroke="black" points="463.5,-699.28 463.5,-718.28 559.5,-718.28 559.5,-699.28 463.5,-699.28"/>
<text text-anchor="middle" x="511.5" y="-706.28" font-family="Helvetica,sans-Serif" font-size="10.00">JS_IteratorNext2</text>
</a>
</g>
</g>
<!-- Node1&#45;&gt;Node434 -->
<g id="edge26" class="edge">
<title>Node1&#45;&gt;Node434</title>
<path fill="none" stroke="midnightblue" d="M64.59,-642.43C80.51,-650.32 104.23,-661.2 126,-667.78 238.32,-701.7 376.5,-708.42 452.87,-709.26"/>
<polygon fill="midnightblue" stroke="midnightblue" points="453.2,-712.76 463.22,-709.34 453.25,-705.76 453.2,-712.76"/>
</g>
<!-- Node209 -->
<g id="node25" class="node">
<title>Node209</title>
<g id="a_node25"><a xlink:href="quickjs_8c.html#a2bf30c9cddfe98a32535843202495069" target="_top" xlink:title=" ">
<polygon fill="none" stroke="black" points="272.5,-661.28 272.5,-680.28 356.5,-680.28 356.5,-661.28 272.5,-661.28"/>
<text text-anchor="middle" x="314.5" y="-668.28" font-family="Helvetica,sans-Serif" font-size="10.00">JS_ToBoolFree</text>
</a>
</g>
</g>
<!-- Node1&#45;&gt;Node209 -->
<g id="edge31" class="edge">
<title>Node1&#45;&gt;Node209</title>
<path fill="none" stroke="midnightblue" d="M90.37,-640.92C101.95,-642.94 114.43,-645.03 126,-646.78 171.97,-653.74 224.49,-660.35 262.22,-664.86"/>
<polygon fill="midnightblue" stroke="midnightblue" points="262.12,-668.37 272.46,-666.07 262.94,-661.42 262.12,-668.37"/>
</g>
<!-- Node3 -->
<g id="node3" class="node">
<title>Node3</title>
<g id="a_node3"><a xlink:href="quickjs_8c.html#aa059f309c30fd5166d16c82a97973146" target="_top" xlink:title=" ">
<polygon fill="none" stroke="black" points="768,-604.28 768,-623.28 857,-623.28 857,-604.28 768,-604.28"/>
<text text-anchor="middle" x="812.5" y="-611.28" font-family="Helvetica,sans-Serif" font-size="10.00">__JS_FreeValue</text>
</a>
</g>
</g>
<!-- Node2&#45;&gt;Node3 -->
<g id="edge2" class="edge">
<title>Node2&#45;&gt;Node3</title>
<path fill="none" stroke="midnightblue" d="M728.1,-613.78C737.43,-613.78 747.56,-613.78 757.45,-613.78"/>
<polygon fill="midnightblue" stroke="midnightblue" points="757.63,-617.28 767.63,-613.78 757.63,-610.28 757.63,-617.28"/>
</g>
<!-- Node4 -->
<g id="node4" class="node">
<title>Node4</title>
<g id="a_node4"><a xlink:href="quickjs_8c.html#ab1ea3fad7d138be12144a38be4d36423" target="_top" xlink:title=" ">
<polygon fill="none" stroke="red" points="893,-604.28 893,-623.28 994,-623.28 994,-604.28 893,-604.28"/>
<text text-anchor="middle" x="943.5" y="-611.28" font-family="Helvetica,sans-Serif" font-size="10.00">__JS_FreeValueRT</text>
</a>
</g>
</g>
<!-- Node3&#45;&gt;Node4 -->
<g id="edge3" class="edge">
<title>Node3&#45;&gt;Node4</title>
<path fill="none" stroke="midnightblue" d="M857.17,-613.78C865.28,-613.78 873.88,-613.78 882.37,-613.78"/>
<polygon fill="midnightblue" stroke="midnightblue" points="882.65,-617.28 892.65,-613.78 882.65,-610.28 882.65,-617.28"/>
</g>
<!-- Node41 -->
<g id="node6" class="node">
<title>Node41</title>
<g id="a_node6"><a xlink:href="quickjs_8c.html#a5762c57ae0c9937e986040c01222833a" target="_top" xlink:title=" ">
<polygon fill="none" stroke="black" points="251,-338.28 251,-357.28 378,-357.28 378,-338.28 251,-338.28"/>
<text text-anchor="middle" x="314.5" y="-345.28" font-family="Helvetica,sans-Serif" font-size="10.00">JS_GetPropertyInternal</text>
</a>
</g>
</g>
<!-- Node40&#45;&gt;Node41 -->
<g id="edge5" class="edge">
<title>Node40&#45;&gt;Node41</title>
<path fill="none" stroke="midnightblue" d="M181.71,-471.21C205.65,-448.8 265.61,-392.64 295.69,-364.46"/>
<polygon fill="midnightblue" stroke="midnightblue" points="298.09,-367.01 303,-357.62 293.31,-361.9 298.09,-367.01"/>
</g>
<!-- Node41&#45;&gt;Node2 -->
<g id="edge17" class="edge">
<title>Node41&#45;&gt;Node2</title>
<path fill="none" stroke="midnightblue" d="M316.42,-357.59C320.37,-393.54 339.2,-518.85 414,-575.78 448.33,-601.91 569.61,-610.08 638.59,-612.63"/>
<polygon fill="midnightblue" stroke="midnightblue" points="638.66,-616.13 648.78,-612.98 638.9,-609.14 638.66,-616.13"/>
</g>
<!-- Node42 -->
<g id="node7" class="node">
<title>Node42</title>
<g id="a_node7"><a xlink:href="quickjs_8c.html#a288254c06a39c9fca740a7abdad2834e" target="_top" xlink:title=" ">
<polygon fill="none" stroke="black" points="450,-79.28 450,-98.28 573,-98.28 573,-79.28 450,-79.28"/>
<text text-anchor="middle" x="511.5" y="-86.28" font-family="Helvetica,sans-Serif" font-size="10.00">__JS_AtomIsTaggedInt</text>
</a>
</g>
</g>
<!-- Node41&#45;&gt;Node42 -->
<g id="edge6" class="edge">
<title>Node41&#45;&gt;Node42</title>
<path fill="none" stroke="midnightblue" d="M316.3,-338.11C319.89,-301.52 337.79,-170.4 414,-107.78 421.54,-101.58 430.52,-97.21 439.93,-94.15"/>
<polygon fill="midnightblue" stroke="midnightblue" points="441.13,-97.45 449.84,-91.41 439.27,-90.7 441.13,-97.45"/>
</g>
<!-- Node43 -->
<g id="node8" class="node">
<title>Node43</title>
<g id="a_node8"><a xlink:href="quickjs_8c.html#a89f38938cee8077ce1fbba07946ed185" target="_top" xlink:title=" ">
<polygon fill="none" stroke="black" points="456.5,-547.28 456.5,-566.28 566.5,-566.28 566.5,-547.28 456.5,-547.28"/>
<text text-anchor="middle" x="511.5" y="-554.28" font-family="Helvetica,sans-Serif" font-size="10.00">__JS_AtomToUInt32</text>
</a>
</g>
</g>
<!-- Node41&#45;&gt;Node43 -->
<g id="edge7" class="edge">
<title>Node41&#45;&gt;Node43</title>
<path fill="none" stroke="midnightblue" d="M317.45,-357.59C324.3,-389.35 350.39,-490.07 414,-537.78 423.5,-544.9 434.96,-549.56 446.61,-552.56"/>
<polygon fill="midnightblue" stroke="midnightblue" points="445.88,-555.98 456.4,-554.71 447.39,-549.15 445.88,-555.98"/>
</g>
<!-- Node44 -->
<g id="node9" class="node">
<title>Node44</title>
<g id="a_node9"><a xlink:href="quickjs_8c.html#a06b76f5124fd985e35f4c652fd018d6d" target="_top" xlink:title=" ">
<polygon fill="none" stroke="red" points="458,-509.28 458,-528.28 565,-528.28 565,-509.28 458,-509.28"/>
<text text-anchor="middle" x="511.5" y="-516.28" font-family="Helvetica,sans-Serif" font-size="10.00">find_own_property</text>
</a>
</g>
</g>
<!-- Node41&#45;&gt;Node44 -->
<g id="edge8" class="edge">
<title>Node41&#45;&gt;Node44</title>
<path fill="none" stroke="midnightblue" d="M318.74,-357.54C328.36,-384.94 359.58,-462.94 414,-499.78 424.05,-506.58 435.96,-511.07 447.93,-514.01"/>
<polygon fill="midnightblue" stroke="midnightblue" points="447.44,-517.49 457.95,-516.13 448.89,-510.64 447.44,-517.49"/>
</g>
<!-- Node45 -->
<g id="node10" class="node">
<title>Node45</title>
<g id="a_node10"><a xlink:href="quickjs_8c.html#add3eea1f6d626963ade3c28a1fd563d1" target="_top" xlink:title=" ">
<polygon fill="none" stroke="red" points="444.5,-281.28 444.5,-300.28 578.5,-300.28 578.5,-281.28 444.5,-281.28"/>
<text text-anchor="middle" x="511.5" y="-288.28" font-family="Helvetica,sans-Serif" font-size="10.00">JS_AtomIsNumericIndex</text>
</a>
</g>
</g>
<!-- Node41&#45;&gt;Node45 -->
<g id="edge9" class="edge">
<title>Node41&#45;&gt;Node45</title>
<path fill="none" stroke="midnightblue" d="M337.04,-338.22C356.75,-329.77 386.88,-317.61 414,-309.78 423.47,-307.04 433.58,-304.57 443.56,-302.39"/>
<polygon fill="midnightblue" stroke="midnightblue" points="444.4,-305.79 453.47,-300.3 442.96,-298.94 444.4,-305.79"/>
</g>
<!-- Node194 -->
<g id="node12" class="node">
<title>Node194</title>
<g id="a_node12"><a xlink:href="quickjs_8c.html#a8aac7988cf0c6f3c2b629a6662fd7ec8" target="_top" xlink:title=" ">
<polygon fill="none" stroke="red" points="456.5,-41.28 456.5,-60.28 566.5,-60.28 566.5,-41.28 456.5,-41.28"/>
<text text-anchor="middle" x="511.5" y="-48.28" font-family="Helvetica,sans-Serif" font-size="10.00">JS_AutoInitProperty</text>
</a>
</g>
</g>
<!-- Node41&#45;&gt;Node194 -->
<g id="edge12" class="edge">
<title>Node41&#45;&gt;Node194</title>
<path fill="none" stroke="midnightblue" d="M315.71,-338.03C317.12,-297.88 328.16,-143.91 414,-69.78 423.14,-61.89 434.59,-56.91 446.38,-53.83"/>
<polygon fill="midnightblue" stroke="midnightblue" points="447.29,-57.21 456.32,-51.67 445.8,-50.37 447.29,-57.21"/>
</g>
<!-- Node102 -->
<g id="node13" class="node">
<title>Node102</title>
<g id="a_node13"><a xlink:href="quickjs_8c.html#a75f6ee5e4235a7dc99889f3d2eb2c147" target="_top" xlink:title=" ">
<polygon fill="none" stroke="red" points="476,-433.28 476,-452.28 547,-452.28 547,-433.28 476,-433.28"/>
<text text-anchor="middle" x="511.5" y="-440.28" font-family="Helvetica,sans-Serif" font-size="10.00">JS_CallFree</text>
</a>
</g>
</g>
<!-- Node41&#45;&gt;Node102 -->
<g id="edge14" class="edge">
<title>Node41&#45;&gt;Node102</title>
<path fill="none" stroke="midnightblue" d="M324.83,-357.47C341.23,-373.88 377.02,-407.01 414,-423.78 430.1,-431.08 448.95,-435.58 465.71,-438.36"/>
<polygon fill="midnightblue" stroke="midnightblue" points="465.42,-441.85 475.82,-439.87 466.45,-434.93 465.42,-441.85"/>
</g>
<!-- Node57 -->
<g id="node14" class="node">
<title>Node57</title>
<g id="a_node14"><a xlink:href="quickjs_8h.html#a775522f2d084fc8fa0fcb33f390006b4" target="_top" xlink:title=" ">
<polygon fill="none" stroke="black" points="473,-471.28 473,-490.28 550,-490.28 550,-471.28 473,-471.28"/>
<text text-anchor="middle" x="511.5" y="-478.28" font-family="Helvetica,sans-Serif" font-size="10.00">JS_DupValue</text>
</a>
</g>
</g>
<!-- Node41&#45;&gt;Node57 -->
<g id="edge16" class="edge">
<title>Node41&#45;&gt;Node57</title>
<path fill="none" stroke="midnightblue" d="M320.7,-357.31C333.4,-379.6 368.31,-435.24 414,-461.78 428.67,-470.3 446.49,-475.07 462.81,-477.72"/>
<polygon fill="midnightblue" stroke="midnightblue" points="462.34,-481.19 472.73,-479.1 463.31,-474.25 462.34,-481.19"/>
</g>
<!-- Node126 -->
<g id="node15" class="node">
<title>Node126</title>
<g id="a_node15"><a xlink:href="quickjs_8c.html#aeb97957655d979e9fe56c955da2b2d4b" target="_top" xlink:title=" ">
<polygon fill="none" stroke="red" points="450.5,-395.28 450.5,-414.28 572.5,-414.28 572.5,-395.28 450.5,-395.28"/>
<text text-anchor="middle" x="511.5" y="-402.28" font-family="Helvetica,sans-Serif" font-size="10.00">JS_GetPropertyUint32</text>
</a>
</g>
</g>
<!-- Node41&#45;&gt;Node126 -->
<g id="edge18" class="edge">
<title>Node41&#45;&gt;Node126</title>
<path fill="none" stroke="midnightblue" d="M337.04,-357.34C356.75,-365.78 386.88,-377.94 414,-385.78 423.47,-388.52 433.58,-390.98 443.56,-393.17"/>
<polygon fill="midnightblue" stroke="midnightblue" points="442.96,-396.62 453.47,-395.25 444.4,-389.77 442.96,-396.62"/>
</g>
<!-- Node225 -->
<g id="node16" class="node">
<title>Node225</title>
<g id="a_node16"><a xlink:href="quickjs_8c.html#a93550bf785e919d0881399712c54cb34" target="_top" xlink:title=" ">
<polygon fill="none" stroke="black" points="441.5,-357.28 441.5,-376.28 581.5,-376.28 581.5,-357.28 441.5,-357.28"/>
<text text-anchor="middle" x="511.5" y="-364.28" font-family="Helvetica,sans-Serif" font-size="10.00">JS_GetPrototypePrimitive</text>
</a>
</g>
</g>
<!-- Node41&#45;&gt;Node225 -->
<g id="edge19" class="edge">
<title>Node41&#45;&gt;Node225</title>
<path fill="none" stroke="midnightblue" d="M378,-353.87C394.86,-355.51 413.32,-357.31 430.97,-359.03"/>
<polygon fill="midnightblue" stroke="midnightblue" points="430.96,-362.54 441.25,-360.03 431.64,-355.58 430.96,-362.54"/>
</g>
<!-- Node299 -->
<g id="node17" class="node">
<title>Node299</title>
<g id="a_node17"><a xlink:href="quickjs_8h.html#aaab426b47c95d00479b7355b1cf7f56c" target="_top" xlink:title=" ">
<polygon fill="none" stroke="black" points="461,-319.28 461,-338.28 562,-338.28 562,-319.28 461,-319.28"/>
<text text-anchor="middle" x="511.5" y="-326.28" font-family="Helvetica,sans-Serif" font-size="10.00">JS_IsUninitialized</text>
</a>
</g>
</g>
<!-- Node41&#45;&gt;Node299 -->
<g id="edge20" class="edge">
<title>Node41&#45;&gt;Node299</title>
<path fill="none" stroke="midnightblue" d="M378,-341.69C401.29,-339.42 427.65,-336.85 450.7,-334.61"/>
<polygon fill="midnightblue" stroke="midnightblue" points="451.07,-338.09 460.69,-333.63 450.39,-331.12 451.07,-338.09"/>
</g>
<!-- Node432 -->
<g id="node18" class="node">
<title>Node432</title>
<g id="a_node18"><a xlink:href="quickjs_8c.html#a077ffa6455c0d7831bd4547542b5f2f7" target="_top" xlink:title=" ">
<polygon fill="none" stroke="red" points="456.5,-243.28 456.5,-262.28 566.5,-262.28 566.5,-243.28 456.5,-243.28"/>
<text text-anchor="middle" x="511.5" y="-250.28" font-family="Helvetica,sans-Serif" font-size="10.00">js_new_string_char</text>
</a>
</g>
</g>
<!-- Node41&#45;&gt;Node432 -->
<g id="edge21" class="edge">
<title>Node41&#45;&gt;Node432</title>
<path fill="none" stroke="midnightblue" d="M324.83,-338.09C341.23,-321.68 377.02,-288.55 414,-271.78 424.06,-267.22 435.2,-263.75 446.23,-261.11"/>
<polygon fill="midnightblue" stroke="midnightblue" points="447.27,-264.46 456.29,-258.91 445.78,-257.62 447.27,-264.46"/>
</g>
<!-- Node50 -->
<g id="node19" class="node">
<title>Node50</title>
<g id="a_node19"><a xlink:href="quickjs_8h.html#a2050bc428da1c65ac7eb87c3fa3b0392" target="_top" xlink:title=" ">
<polygon fill="none" stroke="black" points="473,-205.28 473,-224.28 550,-224.28 550,-205.28 473,-205.28"/>
<text text-anchor="middle" x="511.5" y="-212.28" font-family="Helvetica,sans-Serif" font-size="10.00">JS_NewInt32</text>
</a>
</g>
</g>
<!-- Node41&#45;&gt;Node50 -->
<g id="edge22" class="edge">
<title>Node41&#45;&gt;Node50</title>
<path fill="none" stroke="midnightblue" d="M320.7,-338.24C333.4,-315.95 368.31,-260.32 414,-233.78 428.67,-225.25 446.49,-220.48 462.81,-217.84"/>
<polygon fill="midnightblue" stroke="midnightblue" points="463.31,-221.3 472.73,-216.45 462.34,-214.37 463.31,-221.3"/>
</g>
<!-- Node226 -->
<g id="node20" class="node">
<title>Node226</title>
<g id="a_node20"><a xlink:href="quickjs_8c.html#ab8d0b87c9eed4eb6c054b6f4e1731554" target="_top" xlink:title=" ">
<polygon fill="none" stroke="red" points="436,-155.78 436,-185.78 587,-185.78 587,-155.78 436,-155.78"/>
<text text-anchor="start" x="444" y="-173.78" font-family="Helvetica,sans-Serif" font-size="10.00">JS_ThrowReferenceErrorNot</text>
<text text-anchor="middle" x="511.5" y="-162.78" font-family="Helvetica,sans-Serif" font-size="10.00">Defined</text>
</a>
</g>
</g>
<!-- Node41&#45;&gt;Node226 -->
<g id="edge23" class="edge">
<title>Node41&#45;&gt;Node226</title>
<path fill="none" stroke="midnightblue" d="M318.85,-338.18C328.77,-311.2 360.69,-234.21 414,-195.78 417.92,-192.95 422.13,-190.45 426.52,-188.23"/>
<polygon fill="midnightblue" stroke="midnightblue" points="428.09,-191.36 435.76,-184.05 425.2,-184.98 428.09,-191.36"/>
</g>
<!-- Node300 -->
<g id="node21" class="node">
<title>Node300</title>
<g id="a_node21"><a xlink:href="quickjs_8c.html#a75ac132a3af4de01e1fadeb0bede6ee7" target="_top" xlink:title=" ">
<polygon fill="none" stroke="red" points="414,-117.28 414,-136.28 609,-136.28 609,-117.28 414,-117.28"/>
<text text-anchor="middle" x="511.5" y="-124.28" font-family="Helvetica,sans-Serif" font-size="10.00">JS_ThrowReferenceErrorUninitialized</text>
</a>
</g>
</g>
<!-- Node41&#45;&gt;Node300 -->
<g id="edge24" class="edge">
<title>Node41&#45;&gt;Node300</title>
<path fill="none" stroke="midnightblue" d="M317.15,-337.83C323.23,-304.64 347.51,-196.93 414,-145.78 416.13,-144.14 418.37,-142.63 420.68,-141.24"/>
<polygon fill="midnightblue" stroke="midnightblue" points="422.69,-144.14 429.98,-136.45 419.49,-137.92 422.69,-144.14"/>
</g>
<!-- Node45&#45;&gt;Node2 -->
<g id="edge10" class="edge">
<title>Node45&#45;&gt;Node2</title>
<path fill="none" stroke="midnightblue" d="M578.53,-293.58C589.79,-296.74 600.55,-301.81 609,-309.78 651.09,-349.49 677.36,-532.43 685.1,-593.71"/>
<polygon fill="midnightblue" stroke="midnightblue" points="681.67,-594.48 686.36,-603.97 688.61,-593.62 681.67,-594.48"/>
</g>
<!-- Node45&#45;&gt;Node49 -->
<g id="edge11" class="edge">
<title>Node45&#45;&gt;Node49</title>
<path fill="none" stroke="midnightblue" d="M578.73,-284.29C589.35,-281.44 599.84,-277.42 609,-271.78 641.61,-251.68 665.91,-212.82 678.3,-189.6"/>
<polygon fill="midnightblue" stroke="midnightblue" points="681.55,-190.92 683,-180.43 675.32,-187.73 681.55,-190.92"/>
</g>
<!-- Node194&#45;&gt;Node49 -->
<g id="edge13" class="edge">
<title>Node194&#45;&gt;Node49</title>
<path fill="none" stroke="midnightblue" d="M566.6,-54.5C581.16,-57.29 596.35,-61.98 609,-69.78 641.61,-89.87 665.91,-128.74 678.3,-151.96"/>
<polygon fill="midnightblue" stroke="midnightblue" points="675.32,-153.83 683,-161.13 681.55,-150.63 675.32,-153.83"/>
</g>
<!-- Node102&#45;&gt;Node2 -->
<g id="edge15" class="edge">
<title>Node102&#45;&gt;Node2</title>
<path fill="none" stroke="midnightblue" d="M547.18,-442.4C567.02,-443.83 591.39,-448.55 609,-461.78 653.59,-495.27 675,-561.41 683.25,-594.28"/>
<polygon fill="midnightblue" stroke="midnightblue" points="679.85,-595.13 685.55,-604.06 686.66,-593.52 679.85,-595.13"/>
</g>
<!-- Node434&#45;&gt;Node2 -->
<g id="edge28" class="edge">
<title>Node434&#45;&gt;Node2</title>
<path fill="none" stroke="midnightblue" d="M559.85,-701.84C576.07,-698.22 593.92,-692.81 609,-684.78 634.41,-671.24 658.12,-647.68 672.7,-631.43"/>
<polygon fill="midnightblue" stroke="midnightblue" points="675.51,-633.53 679.45,-623.69 670.23,-628.93 675.51,-633.53"/>
</g>
<!-- Node434&#45;&gt;Node49 -->
<g id="edge29" class="edge">
<title>Node434&#45;&gt;Node49</title>
<path fill="none" stroke="midnightblue" d="M521.95,-699.06C541.54,-678.3 586.62,-627.33 609,-575.78 669.42,-436.6 683.6,-250.43 686.69,-190.34"/>
<polygon fill="midnightblue" stroke="midnightblue" points="690.19,-190.5 687.16,-180.35 683.2,-190.17 690.19,-190.5"/>
</g>
<!-- Node279 -->
<g id="node23" class="node">
<title>Node279</title>
<g id="a_node23"><a xlink:href="quickjs_8c.html#a1a4c02a29525d5cb2085dd8bca3af350" target="_top" xlink:title=" ">
<polygon fill="none" stroke="red" points="663.5,-718.28 663.5,-737.28 713.5,-737.28 713.5,-718.28 663.5,-718.28"/>
<text text-anchor="middle" x="688.5" y="-725.28" font-family="Helvetica,sans-Serif" font-size="10.00">JS_Call</text>
</a>
</g>
</g>
<!-- Node434&#45;&gt;Node279 -->
<g id="edge27" class="edge">
<title>Node434&#45;&gt;Node279</title>
<path fill="none" stroke="midnightblue" d="M559.86,-713.92C589.35,-717.12 626.6,-721.17 653.24,-724.06"/>
<polygon fill="midnightblue" stroke="midnightblue" points="652.92,-727.54 663.24,-725.14 653.68,-720.59 652.92,-727.54"/>
</g>
<!-- Node280 -->
<g id="node24" class="node">
<title>Node280</title>
<g id="a_node24"><a xlink:href="quickjs_8h.html#a3d68fe446df2d9c7d1900b16371bff5b" target="_top" xlink:title=" ">
<polygon fill="none" stroke="black" points="653,-680.28 653,-699.28 724,-699.28 724,-680.28 653,-680.28"/>
<text text-anchor="middle" x="688.5" y="-687.28" font-family="Helvetica,sans-Serif" font-size="10.00">JS_IsObject</text>
</a>
</g>
</g>
<!-- Node434&#45;&gt;Node280 -->
<g id="edge30" class="edge">
<title>Node434&#45;&gt;Node280</title>
<path fill="none" stroke="midnightblue" d="M559.86,-703.64C585.66,-700.84 617.4,-697.39 642.78,-694.63"/>
<polygon fill="midnightblue" stroke="midnightblue" points="643.31,-698.1 652.87,-693.54 642.56,-691.14 643.31,-698.1"/>
</g>
<!-- Node209&#45;&gt;Node2 -->
<g id="edge32" class="edge">
<title>Node209&#45;&gt;Node2</title>
<path fill="none" stroke="midnightblue" d="M356.5,-671.47C413.84,-671.53 520.85,-668.33 609,-646.78 626.67,-642.46 645.49,-634.67 660.27,-627.74"/>
<polygon fill="midnightblue" stroke="midnightblue" points="661.87,-630.86 669.35,-623.36 658.82,-624.55 661.87,-630.86"/>
</g>
</g>
</svg>
        <g id="navigator" transform="translate(0 0)" fill="#404254">
                <rect fill="#f2f5e9" fill-opacity="0.5" stroke="#606060" stroke-width=".5" x="0" y="0" width="60" height="60"/>
                <use id="zoomplus" xlink:href="#zoomPlus" x="17" y="9" onmousedown="handleZoom(evt,'in')"/>
                <use id="zoomminus" xlink:href="#zoomMin" x="42" y="9" onmousedown="handleZoom(evt,'out')"/>
                <use id="reset" xlink:href="#resetDef" x="30" y="36" onmousedown="handleReset()"/>
                <g id="arrowUp" xlink:href="#dirArrow" transform="translate(30 24)" onmousedown="handlePan(0,-1)">
                  <use xlink:href="#rim" fill="#404040">
                        <set attributeName="fill" to="#808080" begin="arrowUp.mouseover" end="arrowUp.mouseout"/>
                  </use>
                  <path fill="none" stroke="white" stroke-width="1.5" d="M0,-3.0v7 M-2.5,-0.5L0,-3.0L2.5,-0.5"/>
                </g>
                <g id="arrowRight" xlink:href="#dirArrow" transform="rotate(90) translate(36 -43)" onmousedown="handlePan(1,0)">
                  <use xlink:href="#rim" fill="#404040">
                        <set attributeName="fill" to="#808080" begin="arrowRight.mouseover" end="arrowRight.mouseout"/>
                  </use>
                  <path fill="none" stroke="white" stroke-width="1.5" d="M0,-3.0v7 M-2.5,-0.5L0,-3.0L2.5,-0.5"/>
                </g>
                <g id="arrowDown" xlink:href="#dirArrow" transform="rotate(180) translate(-30 -48)" onmousedown="handlePan(0,1)">
                  <use xlink:href="#rim" fill="#404040">
                        <set attributeName="fill" to="#808080" begin="arrowDown.mouseover" end="arrowDown.mouseout"/>
                  </use>
                  <path fill="none" stroke="white" stroke-width="1.5" d="M0,-3.0v7 M-2.5,-0.5L0,-3.0L2.5,-0.5"/>
                </g>
                <g id="arrowLeft" xlink:href="#dirArrow" transform="rotate(270) translate(-36 17)" onmousedown="handlePan(-1,0)">
                  <use xlink:href="#rim" fill="#404040">
                        <set attributeName="fill" to="#808080" begin="arrowLeft.mouseover" end="arrowLeft.mouseout"/>
                  </use>
                  <path fill="none" stroke="white" stroke-width="1.5" d="M0,-3.0v7 M-2.5,-0.5L0,-3.0L2.5,-0.5"/>
                </g>
        </g>
        <svg viewBox="0 0 15 15" width="100%" height="30px" preserveAspectRatio="xMaxYMin meet">
         <g id="arrow_out" transform="scale(0.3 0.3)">
          <a xlink:href="quickjs_8c_a44f6eee98516c994a594533cfa8618ed_cgraph_org.svg" target="_base">
           <rect id="button" ry="5" rx="5" y="6" x="6" height="38" width="38"
                fill="#f2f5e9" fill-opacity="0.5" stroke="#606060" stroke-width="1.0"/>
           <path id="arrow"
             d="M 11.500037,31.436501 C 11.940474,20.09759 22.043105,11.32322 32.158766,21.979434 L 37.068811,17.246167 C 37.068811,17.246167 37.088388,32 37.088388,32 L 22.160133,31.978069 C 22.160133,31.978069 26.997745,27.140456 26.997745,27.140456 C 18.528582,18.264221 13.291696,25.230495 11.500037,31.436501 z"
             style="fill:#404040;"/>
          </a>
         </g>
        </svg>
</svg>
