<?xml version="1.0" encoding="UTF-8" standalone="no"?>
<!DOCTYPE svg PUBLIC "-//W3C//DTD SVG 1.1//EN"
 "http://www.w3.org/Graphics/SVG/1.1/DTD/svg11.dtd">
<!-- Generated by graphviz version 2.43.0 (0)
 -->
<!-- Title: define_var Pages: 1 -->
<svg width="807pt" height="350pt"
 viewBox="0.00 0.00 807.00 350.00" xmlns="http://www.w3.org/2000/svg" xmlns:xlink="http://www.w3.org/1999/xlink">
<g id="graph0" class="graph" transform="scale(1 1) rotate(0) translate(4 346)">
<title>define_var</title>
<!-- Node1 -->
<g id="node1" class="node">
<title>Node1</title>
<g id="a_node1"><a xlink:title=" ">
<polygon fill="#bfbfbf" stroke="black" points="731,-66.5 731,-85.5 799,-85.5 799,-66.5 731,-66.5"/>
<text text-anchor="middle" x="765" y="-73.5" font-family="Helvetica,sans-Serif" font-size="10.00">define_var</text>
</a>
</g>
</g>
<!-- Node2 -->
<g id="node2" class="node">
<title>Node2</title>
<g id="a_node2"><a xlink:href="quickjs_8c.html#a53e971ab3c46da0b7d48481b0696e138" target="_top" xlink:title=" ">
<polygon fill="none" stroke="black" points="614,-180.5 614,-199.5 695,-199.5 695,-180.5 614,-180.5"/>
<text text-anchor="middle" x="654.5" y="-187.5" font-family="Helvetica,sans-Serif" font-size="10.00">js_define_var</text>
</a>
</g>
</g>
<!-- Node1&#45;&gt;Node2 -->
<g id="edge1" class="edge">
<title>Node1&#45;&gt;Node2</title>
<path fill="none" stroke="midnightblue" d="M747.68,-93.15C724.58,-117.42 683.12,-160.98 664.73,-180.31"/>
<polygon fill="midnightblue" stroke="midnightblue" points="750.39,-95.38 754.75,-85.72 745.32,-90.55 750.39,-95.38"/>
</g>
<!-- Node5 -->
<g id="node5" class="node">
<title>Node5</title>
<g id="a_node5"><a xlink:href="quickjs_8c.html#a9d844c16dcc71701436848074337d32c" target="_top" xlink:title=" ">
<polygon fill="none" stroke="red" points="4.5,-232 4.5,-262 117.5,-262 117.5,-232 4.5,-232"/>
<text text-anchor="start" x="12.5" y="-250" font-family="Helvetica,sans-Serif" font-size="10.00">js_parse_statement</text>
<text text-anchor="middle" x="61" y="-239" font-family="Helvetica,sans-Serif" font-size="10.00">_or_decl</text>
</a>
</g>
</g>
<!-- Node1&#45;&gt;Node5 -->
<g id="edge25" class="edge">
<title>Node1&#45;&gt;Node5</title>
<path fill="none" stroke="midnightblue" d="M756.94,-95.41C733.27,-156.69 650.53,-342 515.5,-342 515.5,-342 515.5,-342 347,-342 260.65,-342 238.91,-327.17 158,-297 132.82,-287.61 105.82,-273.11 86.88,-262.14"/>
<polygon fill="midnightblue" stroke="midnightblue" points="760.32,-96.37 760.56,-85.78 753.77,-93.91 760.32,-96.37"/>
</g>
<!-- Node8 -->
<g id="node6" class="node">
<title>Node8</title>
<g id="a_node6"><a xlink:href="quickjs_8c.html#acc9eb677cab8dfcf45f59381f8a19601" target="_top" xlink:title=" ">
<polygon fill="none" stroke="red" points="281,-28.5 281,-47.5 415,-47.5 415,-28.5 281,-28.5"/>
<text text-anchor="middle" x="348" y="-35.5" font-family="Helvetica,sans-Serif" font-size="10.00">js_parse_function_decl2</text>
</a>
</g>
</g>
<!-- Node1&#45;&gt;Node8 -->
<g id="edge24" class="edge">
<title>Node1&#45;&gt;Node8</title>
<path fill="none" stroke="midnightblue" d="M720.98,-66.37C712.41,-64.7 703.44,-63.14 695,-62 598.19,-48.88 485.11,-42.75 415.27,-40.02"/>
<polygon fill="midnightblue" stroke="midnightblue" points="720.31,-69.8 730.81,-68.35 721.7,-62.94 720.31,-69.8"/>
</g>
<!-- Node9 -->
<g id="node7" class="node">
<title>Node9</title>
<g id="a_node7"><a xlink:href="quickjs_8c.html#a00eb789430243c24dab4a63ad6a79653" target="_top" xlink:title=" ">
<polygon fill="none" stroke="black" points="158,-66.5 158,-85.5 245,-85.5 245,-66.5 158,-66.5"/>
<text text-anchor="middle" x="201.5" y="-73.5" font-family="Helvetica,sans-Serif" font-size="10.00">js_parse_class</text>
</a>
</g>
</g>
<!-- Node1&#45;&gt;Node9 -->
<g id="edge22" class="edge">
<title>Node1&#45;&gt;Node9</title>
<path fill="none" stroke="midnightblue" d="M720.76,-76C615.97,-76 349.42,-76 245.19,-76"/>
<polygon fill="midnightblue" stroke="midnightblue" points="720.97,-79.5 730.97,-76 720.97,-72.5 720.97,-79.5"/>
</g>
<!-- Node10 -->
<g id="node8" class="node">
<title>Node10</title>
<g id="a_node8"><a xlink:href="quickjs_8c.html#a498e1d5c7de1b59c1630e9847cde1e41" target="_top" xlink:title=" ">
<polygon fill="none" stroke="red" points="14,-47.5 14,-66.5 108,-66.5 108,-47.5 14,-47.5"/>
<text text-anchor="middle" x="61" y="-54.5" font-family="Helvetica,sans-Serif" font-size="10.00">js_parse_export</text>
</a>
</g>
</g>
<!-- Node1&#45;&gt;Node10 -->
<g id="edge23" class="edge">
<title>Node1&#45;&gt;Node10</title>
<path fill="none" stroke="midnightblue" d="M736.81,-61.85C691.97,-39.86 599.14,0 515.5,0 515.5,0 515.5,0 347,0 251.38,0 141.16,-31.23 90.35,-47.46"/>
<polygon fill="midnightblue" stroke="midnightblue" points="735.37,-65.04 745.88,-66.37 738.5,-58.78 735.37,-65.04"/>
</g>
<!-- Node3 -->
<g id="node3" class="node">
<title>Node3</title>
<g id="a_node3"><a xlink:href="quickjs_8c.html#a26be546cf89c4580ba9020e8fc43a759" target="_top" xlink:title=" ">
<polygon fill="none" stroke="black" points="451,-175 451,-205 578,-205 578,-175 451,-175"/>
<text text-anchor="start" x="459" y="-193" font-family="Helvetica,sans-Serif" font-size="10.00">js_parse_destructuring</text>
<text text-anchor="middle" x="514.5" y="-182" font-family="Helvetica,sans-Serif" font-size="10.00">_element</text>
</a>
</g>
</g>
<!-- Node2&#45;&gt;Node3 -->
<g id="edge2" class="edge">
<title>Node2&#45;&gt;Node3</title>
<path fill="none" stroke="midnightblue" d="M603.73,-190C595.46,-190 586.78,-190 578.24,-190"/>
<polygon fill="midnightblue" stroke="midnightblue" points="603.95,-193.5 613.95,-190 603.95,-186.5 603.95,-193.5"/>
</g>
<!-- Node4 -->
<g id="node4" class="node">
<title>Node4</title>
<g id="a_node4"><a xlink:href="quickjs_8c.html#ac188b916dd086803591a67de7e7a85f6" target="_top" xlink:title=" ">
<polygon fill="none" stroke="black" points="295.5,-256.5 295.5,-275.5 400.5,-275.5 400.5,-256.5 295.5,-256.5"/>
<text text-anchor="middle" x="348" y="-263.5" font-family="Helvetica,sans-Serif" font-size="10.00">js_parse_for_in_of</text>
</a>
</g>
</g>
<!-- Node2&#45;&gt;Node4 -->
<g id="edge19" class="edge">
<title>Node2&#45;&gt;Node4</title>
<path fill="none" stroke="midnightblue" d="M632.02,-205.14C617.45,-214.66 597.38,-226.35 578,-233 519.3,-253.13 448.04,-260.99 400.77,-264.05"/>
<polygon fill="midnightblue" stroke="midnightblue" points="633.97,-208.04 640.32,-199.56 630.07,-202.23 633.97,-208.04"/>
</g>
<!-- Node2&#45;&gt;Node5 -->
<g id="edge20" class="edge">
<title>Node2&#45;&gt;Node5</title>
<path fill="none" stroke="midnightblue" d="M640.06,-207.4C626.34,-223.81 603.49,-247.69 578,-260 421.05,-335.8 204.73,-288.91 109.86,-262.01"/>
<polygon fill="midnightblue" stroke="midnightblue" points="642.8,-209.57 646.37,-199.6 637.36,-205.17 642.8,-209.57"/>
</g>
<!-- Node27 -->
<g id="node10" class="node">
<title>Node27</title>
<g id="a_node10"><a xlink:href="quickjs_8c.html#a9660cf21845352b14655d423389d6620" target="_top" xlink:title=" ">
<polygon fill="none" stroke="black" points="162.5,-123.5 162.5,-142.5 240.5,-142.5 240.5,-123.5 162.5,-123.5"/>
<text text-anchor="middle" x="201.5" y="-130.5" font-family="Helvetica,sans-Serif" font-size="10.00">js_parse_var</text>
</a>
</g>
</g>
<!-- Node2&#45;&gt;Node27 -->
<g id="edge21" class="edge">
<title>Node2&#45;&gt;Node27</title>
<path fill="none" stroke="midnightblue" d="M617.69,-177.22C605.25,-173.15 591.13,-168.95 578,-166 456.84,-138.78 308.99,-133.78 240.59,-133.02"/>
<polygon fill="midnightblue" stroke="midnightblue" points="616.66,-180.56 627.25,-180.42 618.88,-173.92 616.66,-180.56"/>
</g>
<!-- Node3&#45;&gt;Node3 -->
<g id="edge3" class="edge">
<title>Node3&#45;&gt;Node3</title>
<path fill="none" stroke="midnightblue" d="M539.38,-215.46C536.29,-220.18 528,-223.5 514.5,-223.5 492.35,-223.5 484.22,-214.56 490.1,-205.16"/>
<polygon fill="midnightblue" stroke="midnightblue" points="542.86,-214.99 538.9,-205.16 535.87,-215.31 542.86,-214.99"/>
</g>
<!-- Node3&#45;&gt;Node4 -->
<g id="edge4" class="edge">
<title>Node3&#45;&gt;Node4</title>
<path fill="none" stroke="midnightblue" d="M478.28,-210.1C459.75,-220.29 436.48,-232.48 415,-242 403.07,-247.29 389.59,-252.35 377.93,-256.45"/>
<polygon fill="midnightblue" stroke="midnightblue" points="480.19,-213.04 487.23,-205.13 476.79,-206.92 480.19,-213.04"/>
</g>
<!-- Node3&#45;&gt;Node5 -->
<g id="edge15" class="edge">
<title>Node3&#45;&gt;Node5</title>
<path fill="none" stroke="midnightblue" d="M440.84,-200.5C432.13,-201.7 423.37,-202.9 415,-204 310.03,-217.85 187.28,-232.44 117.68,-240.57"/>
<polygon fill="midnightblue" stroke="midnightblue" points="441.58,-203.93 451,-199.08 440.61,-196.99 441.58,-203.93"/>
</g>
<!-- Node3&#45;&gt;Node8 -->
<g id="edge7" class="edge">
<title>Node3&#45;&gt;Node8</title>
<path fill="none" stroke="midnightblue" d="M489.43,-167.76C453.02,-134.12 385.44,-71.67 359.51,-47.71"/>
<polygon fill="midnightblue" stroke="midnightblue" points="487.41,-170.65 497.13,-174.87 492.16,-165.51 487.41,-170.65"/>
</g>
<!-- Node11 -->
<g id="node9" class="node">
<title>Node11</title>
<g id="a_node9"><a xlink:href="quickjs_8c.html#a840642c87c5a82d4cc68333376a3b6de" target="_top" xlink:title=" ">
<polygon fill="none" stroke="red" points="0,-85.5 0,-104.5 122,-104.5 122,-85.5 0,-85.5"/>
<text text-anchor="middle" x="61" y="-92.5" font-family="Helvetica,sans-Serif" font-size="10.00">js_parse_postfix_expr</text>
</a>
</g>
</g>
<!-- Node3&#45;&gt;Node11 -->
<g id="edge14" class="edge">
<title>Node3&#45;&gt;Node11</title>
<path fill="none" stroke="midnightblue" d="M440.63,-192.44C367.08,-192.57 251.33,-186.33 158,-152 125.8,-140.16 92.24,-117.44 74.58,-104.55"/>
<polygon fill="midnightblue" stroke="midnightblue" points="440.75,-195.94 450.73,-192.38 440.71,-188.94 440.75,-195.94"/>
</g>
<!-- Node3&#45;&gt;Node27 -->
<g id="edge16" class="edge">
<title>Node3&#45;&gt;Node27</title>
<path fill="none" stroke="midnightblue" d="M440.75,-176.67C378.27,-165.22 290.65,-149.16 240.94,-140.04"/>
<polygon fill="midnightblue" stroke="midnightblue" points="440.47,-180.17 450.94,-178.53 441.73,-173.29 440.47,-180.17"/>
</g>
<!-- Node4&#45;&gt;Node5 -->
<g id="edge5" class="edge">
<title>Node4&#45;&gt;Node5</title>
<path fill="none" stroke="midnightblue" d="M285.37,-261.89C235.48,-258.57 165.82,-253.92 117.61,-250.71"/>
<polygon fill="midnightblue" stroke="midnightblue" points="285.18,-265.39 295.39,-262.56 285.64,-258.4 285.18,-265.39"/>
</g>
<!-- Node5&#45;&gt;Node5 -->
<g id="edge6" class="edge">
<title>Node5&#45;&gt;Node5</title>
<path fill="none" stroke="midnightblue" d="M85.88,-272.46C82.79,-277.18 74.5,-280.5 61,-280.5 38.85,-280.5 30.72,-271.56 36.6,-262.16"/>
<polygon fill="midnightblue" stroke="midnightblue" points="89.36,-271.99 85.4,-262.16 82.37,-272.31 89.36,-271.99"/>
</g>
<!-- Node8&#45;&gt;Node9 -->
<g id="edge8" class="edge">
<title>Node8&#45;&gt;Node9</title>
<path fill="none" stroke="midnightblue" d="M300.67,-50.18C280.61,-55.46 257.47,-61.54 238.7,-66.48"/>
<polygon fill="midnightblue" stroke="midnightblue" points="301.76,-53.52 310.54,-47.59 299.98,-46.75 301.76,-53.52"/>
</g>
<!-- Node8&#45;&gt;Node10 -->
<g id="edge13" class="edge">
<title>Node8&#45;&gt;Node10</title>
<path fill="none" stroke="midnightblue" d="M270.75,-43.08C218.94,-46.54 152.09,-50.99 108.19,-53.92"/>
<polygon fill="midnightblue" stroke="midnightblue" points="271.15,-46.56 280.9,-42.41 270.69,-39.58 271.15,-46.56"/>
</g>
<!-- Node9&#45;&gt;Node5 -->
<g id="edge12" class="edge">
<title>Node9&#45;&gt;Node5</title>
<path fill="none" stroke="midnightblue" d="M180.21,-92.55C172.89,-98.93 164.76,-106.49 158,-114 122.36,-153.57 87.56,-206.3 71.4,-231.85"/>
<polygon fill="midnightblue" stroke="midnightblue" points="182.95,-94.82 188.32,-85.68 178.43,-89.48 182.95,-94.82"/>
</g>
<!-- Node9&#45;&gt;Node10 -->
<g id="edge9" class="edge">
<title>Node9&#45;&gt;Node10</title>
<path fill="none" stroke="midnightblue" d="M147.61,-68.74C134.61,-66.96 120.8,-65.07 108.15,-63.33"/>
<polygon fill="midnightblue" stroke="midnightblue" points="147.43,-72.25 157.82,-70.14 148.38,-65.32 147.43,-72.25"/>
</g>
<!-- Node9&#45;&gt;Node11 -->
<g id="edge10" class="edge">
<title>Node9&#45;&gt;Node11</title>
<path fill="none" stroke="midnightblue" d="M147.79,-83.23C139.39,-84.38 130.66,-85.58 122.11,-86.75"/>
<polygon fill="midnightblue" stroke="midnightblue" points="148.38,-86.68 157.82,-81.86 147.43,-79.75 148.38,-86.68"/>
</g>
<!-- Node11&#45;&gt;Node11 -->
<g id="edge11" class="edge">
<title>Node11&#45;&gt;Node11</title>
<path fill="none" stroke="midnightblue" d="M87.04,-114.03C85.62,-119.13 76.94,-123 61,-123 36.12,-123 28.92,-113.57 39.42,-104.76"/>
<polygon fill="midnightblue" stroke="midnightblue" points="90.07,-112.25 82.58,-104.76 83.76,-115.29 90.07,-112.25"/>
</g>
<!-- Node27&#45;&gt;Node5 -->
<g id="edge18" class="edge">
<title>Node27&#45;&gt;Node5</title>
<path fill="none" stroke="midnightblue" d="M180.76,-149.25C153.92,-171.34 106.29,-210.55 80.24,-231.98"/>
<polygon fill="midnightblue" stroke="midnightblue" points="183.19,-151.78 188.69,-142.72 178.75,-146.37 183.19,-151.78"/>
</g>
<!-- Node27&#45;&gt;Node10 -->
<g id="edge17" class="edge">
<title>Node27&#45;&gt;Node10</title>
<path fill="none" stroke="midnightblue" d="M182.15,-117.03C166.91,-104.45 144.2,-87.2 122,-76 114.68,-72.31 106.5,-69.15 98.6,-66.53"/>
<polygon fill="midnightblue" stroke="midnightblue" points="179.9,-119.71 189.8,-123.48 184.41,-114.36 179.9,-119.71"/>
</g>
</g>
</svg>
