<?xml version="1.0" encoding="UTF-8" standalone="no"?>
<!DOCTYPE svg PUBLIC "-//W3C//DTD SVG 1.1//EN"
 "http://www.w3.org/Graphics/SVG/1.1/DTD/svg11.dtd">
<!-- Generated by graphviz version 2.43.0 (0)
 -->
<!-- Title: remove_gc_object Pages: 1 -->
<svg width="719pt" height="218pt"
 viewBox="0.00 0.00 719.00 218.00" xmlns="http://www.w3.org/2000/svg" xmlns:xlink="http://www.w3.org/1999/xlink">
<g id="graph0" class="graph" transform="scale(1 1) rotate(0) translate(4 214)">
<title>remove_gc_object</title>
<!-- Node1 -->
<g id="node1" class="node">
<title>Node1</title>
<g id="a_node1"><a xlink:title=" ">
<polygon fill="#bfbfbf" stroke="black" points="605,-95.5 605,-114.5 711,-114.5 711,-95.5 605,-95.5"/>
<text text-anchor="middle" x="658" y="-102.5" font-family="Helvetica,sans-Serif" font-size="10.00">remove_gc_object</text>
</a>
</g>
</g>
<!-- Node2 -->
<g id="node2" class="node">
<title>Node2</title>
<g id="a_node2"><a xlink:href="quickjs_8c.html#adc4a49d7eb1cc1ec4b3a8c37ab8cb075" target="_top" xlink:title=" ">
<polygon fill="none" stroke="black" points="268,-152.5 268,-171.5 399,-171.5 399,-152.5 268,-152.5"/>
<text text-anchor="middle" x="333.5" y="-159.5" font-family="Helvetica,sans-Serif" font-size="10.00">free_function_bytecode</text>
</a>
</g>
</g>
<!-- Node1&#45;&gt;Node2 -->
<g id="edge1" class="edge">
<title>Node1&#45;&gt;Node2</title>
<path fill="none" stroke="midnightblue" d="M630.09,-119.36C613.07,-127.74 590.33,-137.68 569,-143 512.72,-157.03 446.73,-161.34 399.11,-162.4"/>
<polygon fill="midnightblue" stroke="midnightblue" points="632.06,-122.28 639.4,-114.65 628.9,-116.04 632.06,-122.28"/>
</g>
<!-- Node650 -->
<g id="node6" class="node">
<title>Node650</title>
<g id="a_node6"><a xlink:href="quickjs_8c.html#a41a4918c15192dc3489dc3ecb3fdc24d" target="_top" xlink:title=" ">
<polygon fill="none" stroke="black" points="298,-190.5 298,-209.5 369,-209.5 369,-190.5 298,-190.5"/>
<text text-anchor="middle" x="333.5" y="-197.5" font-family="Helvetica,sans-Serif" font-size="10.00">free_object</text>
</a>
</g>
</g>
<!-- Node1&#45;&gt;Node650 -->
<g id="edge5" class="edge">
<title>Node1&#45;&gt;Node650</title>
<path fill="none" stroke="midnightblue" d="M638.61,-121.24C621.73,-135.19 595.39,-154.66 569,-165 501.54,-191.42 416,-198.06 369.13,-199.62"/>
<polygon fill="midnightblue" stroke="midnightblue" points="641.17,-123.65 646.53,-114.52 636.64,-118.32 641.17,-123.65"/>
</g>
<!-- Node707 -->
<g id="node7" class="node">
<title>Node707</title>
<g id="a_node7"><a xlink:href="quickjs_8c.html#a9e7b4bccf927d811b0f99b40b08c0472" target="_top" xlink:title=" ">
<polygon fill="none" stroke="red" points="464,-114.5 464,-133.5 540,-133.5 540,-114.5 464,-114.5"/>
<text text-anchor="middle" x="502" y="-121.5" font-family="Helvetica,sans-Serif" font-size="10.00">free_var_ref</text>
</a>
</g>
</g>
<!-- Node1&#45;&gt;Node707 -->
<g id="edge7" class="edge">
<title>Node1&#45;&gt;Node707</title>
<path fill="none" stroke="midnightblue" d="M594.7,-112.69C576.14,-114.98 556.4,-117.41 540.01,-119.43"/>
<polygon fill="midnightblue" stroke="midnightblue" points="595.37,-116.13 604.86,-111.43 594.51,-109.18 595.37,-116.13"/>
</g>
<!-- Node699 -->
<g id="node8" class="node">
<title>Node699</title>
<g id="a_node8"><a xlink:href="quickjs_8c.html#a0272417de9a1be37e1fcc3fdccdb859a" target="_top" xlink:title=" ">
<polygon fill="none" stroke="red" points="435,-76.5 435,-95.5 569,-95.5 569,-76.5 435,-76.5"/>
<text text-anchor="middle" x="502" y="-83.5" font-family="Helvetica,sans-Serif" font-size="10.00">js_async_function_free0</text>
</a>
</g>
</g>
<!-- Node1&#45;&gt;Node699 -->
<g id="edge8" class="edge">
<title>Node1&#45;&gt;Node699</title>
<path fill="none" stroke="midnightblue" d="M594.69,-97.31C586.24,-96.27 577.53,-95.2 569.01,-94.14"/>
<polygon fill="midnightblue" stroke="midnightblue" points="594.51,-100.82 604.86,-98.57 595.37,-93.87 594.51,-100.82"/>
</g>
<!-- Node714 -->
<g id="node9" class="node">
<title>Node714</title>
<g id="a_node9"><a xlink:href="quickjs_8c.html#a6f921a6312ada5c7da7b485e24d37f54" target="_top" xlink:title=" ">
<polygon fill="none" stroke="red" points="457,-38.5 457,-57.5 547,-57.5 547,-38.5 457,-38.5"/>
<text text-anchor="middle" x="502" y="-45.5" font-family="Helvetica,sans-Serif" font-size="10.00">js_free_shape0</text>
</a>
</g>
</g>
<!-- Node1&#45;&gt;Node714 -->
<g id="edge9" class="edge">
<title>Node1&#45;&gt;Node714</title>
<path fill="none" stroke="midnightblue" d="M627.33,-91.07C610.44,-83.42 588.78,-74.08 569,-67 559.46,-63.58 548.98,-60.34 539.23,-57.53"/>
<polygon fill="midnightblue" stroke="midnightblue" points="626.12,-94.36 636.67,-95.34 629.04,-88 626.12,-94.36"/>
</g>
<!-- Node647 -->
<g id="node10" class="node">
<title>Node647</title>
<g id="a_node10"><a xlink:href="quickjs_8c.html#a1b4fe6eb1b7bcaec6713bd5ac2921f1b" target="_top" xlink:title=" ">
<polygon fill="none" stroke="red" points="457,-0.5 457,-19.5 547,-19.5 547,-0.5 457,-0.5"/>
<text text-anchor="middle" x="502" y="-7.5" font-family="Helvetica,sans-Serif" font-size="10.00">JS_FreeContext</text>
</a>
</g>
</g>
<!-- Node1&#45;&gt;Node647 -->
<g id="edge10" class="edge">
<title>Node1&#45;&gt;Node647</title>
<path fill="none" stroke="midnightblue" d="M641.35,-87.67C624.92,-70.45 597.53,-44.45 569,-29 561.98,-25.2 554.11,-22.08 546.32,-19.56"/>
<polygon fill="midnightblue" stroke="midnightblue" points="639.12,-90.41 648.5,-95.33 644.24,-85.63 639.12,-90.41"/>
</g>
<!-- Node3 -->
<g id="node3" class="node">
<title>Node3</title>
<g id="a_node3"><a xlink:href="quickjs_8c.html#a3d1c7a8d6aa5a9ba8ea8ef2828db188a" target="_top" xlink:title=" ">
<polygon fill="none" stroke="black" points="144,-171.5 144,-190.5 232,-190.5 232,-171.5 144,-171.5"/>
<text text-anchor="middle" x="188" y="-178.5" font-family="Helvetica,sans-Serif" font-size="10.00">free_gc_object</text>
</a>
</g>
</g>
<!-- Node2&#45;&gt;Node3 -->
<g id="edge2" class="edge">
<title>Node2&#45;&gt;Node3</title>
<path fill="none" stroke="midnightblue" d="M257.97,-171.87C249.18,-173.03 240.45,-174.19 232.3,-175.27"/>
<polygon fill="midnightblue" stroke="midnightblue" points="258.43,-175.34 267.89,-170.56 257.51,-168.4 258.43,-175.34"/>
</g>
<!-- Node4 -->
<g id="node4" class="node">
<title>Node4</title>
<g id="a_node4"><a xlink:href="quickjs_8c.html#a8defed3434f60d6b5d6a7ea202cc8f9d" target="_top" xlink:title=" ">
<polygon fill="none" stroke="red" points="0,-190.5 0,-209.5 108,-209.5 108,-190.5 0,-190.5"/>
<text text-anchor="middle" x="54" y="-197.5" font-family="Helvetica,sans-Serif" font-size="10.00">free_zero_refcount</text>
</a>
</g>
</g>
<!-- Node3&#45;&gt;Node4 -->
<g id="edge3" class="edge">
<title>Node3&#45;&gt;Node4</title>
<path fill="none" stroke="midnightblue" d="M133.65,-188.68C125.19,-189.9 116.45,-191.16 108,-192.37"/>
<polygon fill="midnightblue" stroke="midnightblue" points="134.38,-192.11 143.78,-187.22 133.38,-185.18 134.38,-192.11"/>
</g>
<!-- Node750 -->
<g id="node5" class="node">
<title>Node750</title>
<g id="a_node5"><a xlink:href="quickjs_8c.html#af7c53b26778d6b7e155fab5349a4585e" target="_top" xlink:title=" ">
<polygon fill="none" stroke="red" points="9.5,-152.5 9.5,-171.5 98.5,-171.5 98.5,-152.5 9.5,-152.5"/>
<text text-anchor="middle" x="54" y="-159.5" font-family="Helvetica,sans-Serif" font-size="10.00">gc_free_cycles</text>
</a>
</g>
</g>
<!-- Node3&#45;&gt;Node750 -->
<g id="edge4" class="edge">
<title>Node3&#45;&gt;Node750</title>
<path fill="none" stroke="midnightblue" d="M133.75,-173.34C122.13,-171.66 109.97,-169.91 98.77,-168.3"/>
<polygon fill="midnightblue" stroke="midnightblue" points="133.38,-176.82 143.78,-174.78 134.38,-169.89 133.38,-176.82"/>
</g>
<!-- Node650&#45;&gt;Node3 -->
<g id="edge6" class="edge">
<title>Node650&#45;&gt;Node3</title>
<path fill="none" stroke="midnightblue" d="M287.67,-194.06C269.96,-191.72 249.69,-189.04 232.15,-186.71"/>
<polygon fill="midnightblue" stroke="midnightblue" points="287.39,-197.56 297.76,-195.4 288.31,-190.62 287.39,-197.56"/>
</g>
<!-- Node647&#45;&gt;Node2 -->
<g id="edge11" class="edge">
<title>Node647&#45;&gt;Node2</title>
<path fill="none" stroke="midnightblue" d="M447.3,-22.18C442.97,-24.13 438.81,-26.38 435,-29 386.1,-62.6 351.07,-127.67 339.05,-152.27"/>
<polygon fill="midnightblue" stroke="midnightblue" points="448.94,-25.29 456.96,-18.38 446.38,-18.78 448.94,-25.29"/>
</g>
</g>
</svg>
