<?xml version="1.0" encoding="UTF-8" standalone="no"?>
<!DOCTYPE svg PUBLIC "-//W3C//DTD SVG 1.1//EN"
 "http://www.w3.org/Graphics/SVG/1.1/DTD/svg11.dtd">
<!-- Generated by graphviz version 2.43.0 (0)
 -->
<!-- Title: bc_get_leb128_int Pages: 1 -->
<!--zoomable 256 -->
<svg id="main" version="1.1" xmlns="http://www.w3.org/2000/svg" xmlns:xlink="http://www.w3.org/1999/xlink" xml:space="preserve" onload="init(evt)">
<style type="text/css"><![CDATA[
.edge:hover path { stroke: red; }
.edge:hover polygon { stroke: red; fill: red; }
]]></style>
<script type="text/javascript"><![CDATA[
var edges = document.getElementsByTagName('g');
if (edges && edges.length) {
  for (var i=0;i<edges.length;i++) {
    if (edges[i].id.substr(0,4)=='edge') {
      edges[i].setAttribute('class','edge');
    }
  }
}
]]></script>
        <defs>
                <circle id="rim" cx="0" cy="0" r="7"/>
                <circle id="rim2" cx="0" cy="0" r="3.5"/>
                <g id="zoomPlus">
                        <use xlink:href="#rim" fill="#404040">
                                <set attributeName="fill" to="#808080" begin="zoomplus.mouseover" end="zoomplus.mouseout"/>
                        </use>
                        <path d="M-4,0h8M0,-4v8" fill="none" stroke="white" stroke-width="1.5" pointer-events="none"/>
                </g>
                <g id="zoomMin">
                        <use xlink:href="#rim" fill="#404040">
                                <set attributeName="fill" to="#808080" begin="zoomminus.mouseover" end="zoomminus.mouseout"/>
                        </use>
                        <path d="M-4,0h8" fill="none" stroke="white" stroke-width="1.5" pointer-events="none"/>
                </g>
                <g id="dirArrow">
                        <path fill="none" stroke="white" stroke-width="1.5" d="M0,-3.0v7 M-2.5,-0.5L0,-3.0L2.5,-0.5"/>
                </g>
               <g id="resetDef">
                       <use xlink:href="#rim2" fill="#404040">
                               <set attributeName="fill" to="#808080" begin="reset.mouseover" end="reset.mouseout"/>
                       </use>
               </g>
        </defs>

<script type="text/javascript">
var viewWidth = 553;
var viewHeight = 256;
var sectionId = 'dynsection-1329';
</script>
<script xlink:href="svgpan.js"/>
<svg id="graph" class="graph">
<g id="viewport">
<title>bc_get_leb128_int</title>
<!-- Node1 -->
<g id="node1" class="node">
<title>Node1</title>
<g id="a_node1"><a xlink:title=" ">
<polygon fill="#bfbfbf" stroke="black" points="440,-152.5 440,-171.5 545,-171.5 545,-152.5 440,-152.5"/>
<text text-anchor="middle" x="492.5" y="-159.5" font-family="Helvetica,sans-Serif" font-size="10.00">bc_get_leb128_int</text>
</a>
</g>
</g>
<!-- Node2 -->
<g id="node2" class="node">
<title>Node2</title>
<g id="a_node2"><a xlink:href="quickjs_8c.html#a367627778ac537f4bb1f0fd07a2dee1b" target="_top" xlink:title=" ">
<polygon fill="none" stroke="black" points="291,-133.5 291,-152.5 404,-152.5 404,-133.5 291,-133.5"/>
<text text-anchor="middle" x="347.5" y="-140.5" font-family="Helvetica,sans-Serif" font-size="10.00">JS_ReadFunctionTag</text>
</a>
</g>
</g>
<!-- Node1&#45;&gt;Node2 -->
<g id="edge1" class="edge">
<title>Node1&#45;&gt;Node2</title>
<path fill="none" stroke="midnightblue" d="M429.73,-153.79C421.31,-152.67 412.71,-151.53 404.4,-150.43"/>
<polygon fill="midnightblue" stroke="midnightblue" points="429.5,-157.29 439.87,-155.14 430.42,-150.35 429.5,-157.29"/>
</g>
<!-- Node6 -->
<g id="node6" class="node">
<title>Node6</title>
<g id="a_node6"><a xlink:href="quickjs_8c.html#a21c7b14be807f7ce7f71c19e2e80380c" target="_top" xlink:title=" ">
<polygon fill="none" stroke="black" points="11,-228.5 11,-247.5 103,-247.5 103,-228.5 11,-228.5"/>
<text text-anchor="middle" x="57" y="-235.5" font-family="Helvetica,sans-Serif" font-size="10.00">JS_ReadModule</text>
</a>
</g>
</g>
<!-- Node1&#45;&gt;Node6 -->
<g id="edge17" class="edge">
<title>Node1&#45;&gt;Node6</title>
<path fill="none" stroke="midnightblue" d="M429.76,-172.82C341.42,-188.31 181.04,-216.43 103.03,-230.11"/>
<polygon fill="midnightblue" stroke="midnightblue" points="430.4,-176.27 439.64,-171.09 429.19,-169.37 430.4,-176.27"/>
</g>
<!-- Node3 -->
<g id="node3" class="node">
<title>Node3</title>
<g id="a_node3"><a xlink:href="quickjs_8c.html#a4b8ef2bb3b35e4a5f6ed8bd837a50e7c" target="_top" xlink:title=" ">
<polygon fill="none" stroke="black" points="150,-133.5 150,-152.5 255,-152.5 255,-133.5 150,-133.5"/>
<text text-anchor="middle" x="202.5" y="-140.5" font-family="Helvetica,sans-Serif" font-size="10.00">JS_ReadObjectRec</text>
</a>
</g>
</g>
<!-- Node2&#45;&gt;Node3 -->
<g id="edge2" class="edge">
<title>Node2&#45;&gt;Node3</title>
<path fill="none" stroke="midnightblue" d="M280.77,-136.27C272.15,-136.21 263.41,-136.28 255.07,-136.49"/>
<polygon fill="midnightblue" stroke="midnightblue" points="280.76,-139.77 290.8,-136.4 280.85,-132.77 280.76,-139.77"/>
</g>
<!-- Node3&#45;&gt;Node2 -->
<g id="edge7" class="edge">
<title>Node3&#45;&gt;Node2</title>
<path fill="none" stroke="midnightblue" d="M265.29,-149.69C273.77,-149.79 282.44,-149.76 290.8,-149.6"/>
<polygon fill="midnightblue" stroke="midnightblue" points="265.13,-146.19 255.07,-149.51 265.01,-153.19 265.13,-146.19"/>
</g>
<!-- Node4 -->
<g id="node4" class="node">
<title>Node4</title>
<g id="a_node4"><a xlink:href="quickjs_8c.html#a18da561cb430d36d47200cd3ab394984" target="_top" xlink:title=" ">
<polygon fill="none" stroke="black" points="16,-190.5 16,-209.5 98,-209.5 98,-190.5 16,-190.5"/>
<text text-anchor="middle" x="57" y="-197.5" font-family="Helvetica,sans-Serif" font-size="10.00">JS_ReadArray</text>
</a>
</g>
</g>
<!-- Node3&#45;&gt;Node4 -->
<g id="edge3" class="edge">
<title>Node3&#45;&gt;Node4</title>
<path fill="none" stroke="midnightblue" d="M152.41,-156.45C139.96,-161.55 126.56,-167.15 114,-172 98.1,-178.14 79.27,-184.3 68,-190.34"/>
<polygon fill="midnightblue" stroke="midnightblue" points="153.77,-159.68 161.71,-152.67 151.13,-153.2 153.77,-159.68"/>
</g>
<!-- Node5 -->
<g id="node5" class="node">
<title>Node5</title>
<g id="a_node5"><a xlink:href="quickjs_8c.html#a8fce6f70a6fc880eabcdb9883e3753f2" target="_top" xlink:title=" ">
<polygon fill="none" stroke="black" points="17.5,-152.5 17.5,-171.5 96.5,-171.5 96.5,-152.5 17.5,-152.5"/>
<text text-anchor="middle" x="57" y="-159.5" font-family="Helvetica,sans-Serif" font-size="10.00">JS_ReadDate</text>
</a>
</g>
</g>
<!-- Node3&#45;&gt;Node5 -->
<g id="edge5" class="edge">
<title>Node3&#45;&gt;Node5</title>
<path fill="none" stroke="midnightblue" d="M139.51,-144.51C121.49,-146.69 102.63,-149.56 87.6,-152.5"/>
<polygon fill="midnightblue" stroke="midnightblue" points="140.16,-147.96 149.69,-143.35 139.36,-141.01 140.16,-147.96"/>
</g>
<!-- Node3&#45;&gt;Node6 -->
<g id="edge8" class="edge">
<title>Node3&#45;&gt;Node6</title>
<path fill="none" stroke="midnightblue" d="M178.96,-159.48C162.34,-174.54 138.44,-195.97 114,-210 99.93,-218.08 81.9,-223.42 70.15,-228.45"/>
<polygon fill="midnightblue" stroke="midnightblue" points="181.43,-161.96 186.51,-152.66 176.74,-156.77 181.43,-161.96"/>
</g>
<!-- Node7 -->
<g id="node7" class="node">
<title>Node7</title>
<g id="a_node7"><a xlink:href="quickjs_8c.html#a12be2ea9c010752715072489497594e9" target="_top" xlink:title=" ">
<polygon fill="none" stroke="red" points="13.5,-114.5 13.5,-133.5 100.5,-133.5 100.5,-114.5 13.5,-114.5"/>
<text text-anchor="middle" x="57" y="-121.5" font-family="Helvetica,sans-Serif" font-size="10.00">JS_ReadObject</text>
</a>
</g>
</g>
<!-- Node3&#45;&gt;Node7 -->
<g id="edge10" class="edge">
<title>Node3&#45;&gt;Node7</title>
<path fill="none" stroke="midnightblue" d="M139.76,-134.83C126.61,-133.08 113.01,-131.28 100.76,-129.66"/>
<polygon fill="midnightblue" stroke="midnightblue" points="139.32,-138.3 149.69,-136.14 140.24,-131.36 139.32,-138.3"/>
</g>
<!-- Node10 -->
<g id="node8" class="node">
<title>Node10</title>
<g id="a_node8"><a xlink:href="quickjs_8c.html#ad0e3230c3896c2048283a9302f184fb4" target="_top" xlink:title=" ">
<polygon fill="none" stroke="black" points="5,-76.5 5,-95.5 109,-95.5 109,-76.5 5,-76.5"/>
<text text-anchor="middle" x="57" y="-83.5" font-family="Helvetica,sans-Serif" font-size="10.00">JS_ReadObjectTag</text>
</a>
</g>
</g>
<!-- Node3&#45;&gt;Node10 -->
<g id="edge11" class="edge">
<title>Node3&#45;&gt;Node10</title>
<path fill="none" stroke="midnightblue" d="M183.79,-127.94C166.24,-117.79 138.51,-105.46 114,-96 112.37,-95.37 110.71,-94.74 109.03,-94.12"/>
<polygon fill="midnightblue" stroke="midnightblue" points="182.07,-130.99 192.41,-133.32 185.78,-125.05 182.07,-130.99"/>
</g>
<!-- Node11 -->
<g id="node9" class="node">
<title>Node11</title>
<g id="a_node9"><a xlink:href="quickjs_8c.html#aa329df3dbab623ec017b77cb77bcce2f" target="_top" xlink:title=" ">
<polygon fill="none" stroke="black" points="0,-38.5 0,-57.5 114,-57.5 114,-38.5 0,-38.5"/>
<text text-anchor="middle" x="57" y="-45.5" font-family="Helvetica,sans-Serif" font-size="10.00">JS_ReadObjectValue</text>
</a>
</g>
</g>
<!-- Node3&#45;&gt;Node11 -->
<g id="edge13" class="edge">
<title>Node3&#45;&gt;Node11</title>
<path fill="none" stroke="midnightblue" d="M190.9,-125.33C175.45,-105.82 145.17,-75.9 114,-58 113.73,-57.85 113.46,-57.69 113.19,-57.54"/>
<polygon fill="midnightblue" stroke="midnightblue" points="188.15,-127.51 196.9,-133.49 193.79,-123.36 188.15,-127.51"/>
</g>
<!-- Node12 -->
<g id="node10" class="node">
<title>Node12</title>
<g id="a_node10"><a xlink:href="quickjs_8c.html#a00910faacc776e3c2c225aa117aab450" target="_top" xlink:title=" ">
<polygon fill="none" stroke="black" points="2,-0.5 2,-19.5 112,-19.5 112,-0.5 2,-0.5"/>
<text text-anchor="middle" x="57" y="-7.5" font-family="Helvetica,sans-Serif" font-size="10.00">JS_ReadTypedArray</text>
</a>
</g>
</g>
<!-- Node3&#45;&gt;Node12 -->
<g id="edge15" class="edge">
<title>Node3&#45;&gt;Node12</title>
<path fill="none" stroke="midnightblue" d="M194.51,-123.87C181.72,-96.44 152.31,-47.44 114,-20 113.42,-19.58 112.82,-19.17 112.22,-18.77"/>
<polygon fill="midnightblue" stroke="midnightblue" points="191.38,-125.46 198.58,-133.23 197.8,-122.67 191.38,-125.46"/>
</g>
<!-- Node4&#45;&gt;Node3 -->
<g id="edge4" class="edge">
<title>Node4&#45;&gt;Node3</title>
<path fill="none" stroke="midnightblue" d="M107.69,-192.38C109.83,-191.59 111.94,-190.8 114,-190 143.05,-178.79 176.62,-163.55 192.41,-152.68"/>
<polygon fill="midnightblue" stroke="midnightblue" points="106.48,-189.09 98.22,-195.72 108.81,-195.69 106.48,-189.09"/>
</g>
<!-- Node5&#45;&gt;Node3 -->
<g id="edge6" class="edge">
<title>Node5&#45;&gt;Node3</title>
<path fill="none" stroke="midnightblue" d="M106.68,-161.98C128.28,-159.74 152.99,-156.19 171.77,-152.53"/>
<polygon fill="midnightblue" stroke="midnightblue" points="106.31,-158.5 96.7,-162.94 106.98,-165.47 106.31,-158.5"/>
</g>
<!-- Node6&#45;&gt;Node3 -->
<g id="edge9" class="edge">
<title>Node6&#45;&gt;Node3</title>
<path fill="none" stroke="midnightblue" d="M112.02,-229.1C112.69,-228.74 113.35,-228.37 114,-228 149.95,-207.36 184.7,-170.73 196.9,-152.51"/>
<polygon fill="midnightblue" stroke="midnightblue" points="110.5,-225.95 103.01,-233.45 113.54,-232.26 110.5,-225.95"/>
</g>
<!-- Node10&#45;&gt;Node3 -->
<g id="edge12" class="edge">
<title>Node10&#45;&gt;Node3</title>
<path fill="none" stroke="midnightblue" d="M77.37,-100.07C88.22,-104.68 101.95,-109.35 114,-114 129.76,-120.08 146.85,-127.35 161.71,-133.33"/>
<polygon fill="midnightblue" stroke="midnightblue" points="78.54,-96.75 68,-95.66 75.56,-103.09 78.54,-96.75"/>
</g>
<!-- Node11&#45;&gt;Node3 -->
<g id="edge14" class="edge">
<title>Node11&#45;&gt;Node3</title>
<path fill="none" stroke="midnightblue" d="M79.65,-61.3C90.4,-65.33 103.34,-69.88 114,-76 142.44,-92.33 170.14,-118.68 186.51,-133.34"/>
<polygon fill="midnightblue" stroke="midnightblue" points="80.74,-57.96 70.15,-57.55 78.17,-64.48 80.74,-57.96"/>
</g>
<!-- Node12&#45;&gt;Node3 -->
<g id="edge16" class="edge">
<title>Node12&#45;&gt;Node3</title>
<path fill="none" stroke="midnightblue" d="M81.88,-23C92.41,-26.7 104.51,-31.2 114,-38 151.52,-64.88 180.51,-112.44 193.7,-133.36"/>
<polygon fill="midnightblue" stroke="midnightblue" points="83.01,-19.68 72.41,-19.65 80.68,-26.28 83.01,-19.68"/>
</g>
</g>
</svg>
        <g id="navigator" transform="translate(0 0)" fill="#404254">
                <rect fill="#f2f5e9" fill-opacity="0.5" stroke="#606060" stroke-width=".5" x="0" y="0" width="60" height="60"/>
                <use id="zoomplus" xlink:href="#zoomPlus" x="17" y="9" onmousedown="handleZoom(evt,'in')"/>
                <use id="zoomminus" xlink:href="#zoomMin" x="42" y="9" onmousedown="handleZoom(evt,'out')"/>
                <use id="reset" xlink:href="#resetDef" x="30" y="36" onmousedown="handleReset()"/>
                <g id="arrowUp" xlink:href="#dirArrow" transform="translate(30 24)" onmousedown="handlePan(0,-1)">
                  <use xlink:href="#rim" fill="#404040">
                        <set attributeName="fill" to="#808080" begin="arrowUp.mouseover" end="arrowUp.mouseout"/>
                  </use>
                  <path fill="none" stroke="white" stroke-width="1.5" d="M0,-3.0v7 M-2.5,-0.5L0,-3.0L2.5,-0.5"/>
                </g>
                <g id="arrowRight" xlink:href="#dirArrow" transform="rotate(90) translate(36 -43)" onmousedown="handlePan(1,0)">
                  <use xlink:href="#rim" fill="#404040">
                        <set attributeName="fill" to="#808080" begin="arrowRight.mouseover" end="arrowRight.mouseout"/>
                  </use>
                  <path fill="none" stroke="white" stroke-width="1.5" d="M0,-3.0v7 M-2.5,-0.5L0,-3.0L2.5,-0.5"/>
                </g>
                <g id="arrowDown" xlink:href="#dirArrow" transform="rotate(180) translate(-30 -48)" onmousedown="handlePan(0,1)">
                  <use xlink:href="#rim" fill="#404040">
                        <set attributeName="fill" to="#808080" begin="arrowDown.mouseover" end="arrowDown.mouseout"/>
                  </use>
                  <path fill="none" stroke="white" stroke-width="1.5" d="M0,-3.0v7 M-2.5,-0.5L0,-3.0L2.5,-0.5"/>
                </g>
                <g id="arrowLeft" xlink:href="#dirArrow" transform="rotate(270) translate(-36 17)" onmousedown="handlePan(-1,0)">
                  <use xlink:href="#rim" fill="#404040">
                        <set attributeName="fill" to="#808080" begin="arrowLeft.mouseover" end="arrowLeft.mouseout"/>
                  </use>
                  <path fill="none" stroke="white" stroke-width="1.5" d="M0,-3.0v7 M-2.5,-0.5L0,-3.0L2.5,-0.5"/>
                </g>
        </g>
        <svg viewBox="0 0 15 15" width="100%" height="30px" preserveAspectRatio="xMaxYMin meet">
         <g id="arrow_out" transform="scale(0.3 0.3)">
          <a xlink:href="quickjs_8c_aa592b98c1f5b7d41c8384c03b642b7ad_icgraph_org.svg" target="_base">
           <rect id="button" ry="5" rx="5" y="6" x="6" height="38" width="38"
                fill="#f2f5e9" fill-opacity="0.5" stroke="#606060" stroke-width="1.0"/>
           <path id="arrow"
             d="M 11.500037,31.436501 C 11.940474,20.09759 22.043105,11.32322 32.158766,21.979434 L 37.068811,17.246167 C 37.068811,17.246167 37.088388,32 37.088388,32 L 22.160133,31.978069 C 22.160133,31.978069 26.997745,27.140456 26.997745,27.140456 C 18.528582,18.264221 13.291696,25.230495 11.500037,31.436501 z"
             style="fill:#404040;"/>
          </a>
         </g>
        </svg>
</svg>
