<?xml version="1.0" encoding="UTF-8" standalone="no"?>
<!DOCTYPE svg PUBLIC "-//W3C//DTD SVG 1.1//EN"
 "http://www.w3.org/Graphics/SVG/1.1/DTD/svg11.dtd">
<!-- Generated by graphviz version 2.43.0 (0)
 -->
<!-- Title: JS_GetImportMeta Pages: 1 -->
<svg width="607pt" height="218pt"
 viewBox="0.00 0.00 607.00 218.00" xmlns="http://www.w3.org/2000/svg" xmlns:xlink="http://www.w3.org/1999/xlink">
<g id="graph0" class="graph" transform="scale(1 1) rotate(0) translate(4 214)">
<title>JS_GetImportMeta</title>
<!-- Node1 -->
<g id="node1" class="node">
<title>Node1</title>
<g id="a_node1"><a xlink:title=" ">
<polygon fill="#bfbfbf" stroke="black" points="0,-133.5 0,-152.5 105,-152.5 105,-133.5 0,-133.5"/>
<text text-anchor="middle" x="52.5" y="-140.5" font-family="Helvetica,sans-Serif" font-size="10.00">JS_GetImportMeta</text>
</a>
</g>
</g>
<!-- Node2 -->
<g id="node2" class="node">
<title>Node2</title>
<g id="a_node2"><a xlink:href="quickjs_8h.html#a775522f2d084fc8fa0fcb33f390006b4" target="_top" xlink:title=" ">
<polygon fill="none" stroke="black" points="157.5,-190.5 157.5,-209.5 234.5,-209.5 234.5,-190.5 157.5,-190.5"/>
<text text-anchor="middle" x="196" y="-197.5" font-family="Helvetica,sans-Serif" font-size="10.00">JS_DupValue</text>
</a>
</g>
</g>
<!-- Node1&#45;&gt;Node2 -->
<g id="edge1" class="edge">
<title>Node1&#45;&gt;Node2</title>
<path fill="none" stroke="midnightblue" d="M74.54,-152.64C92.16,-160.59 118.03,-171.98 141,-181 146.15,-183.02 151.61,-185.06 157,-187.01"/>
<polygon fill="midnightblue" stroke="midnightblue" points="155.96,-190.36 166.55,-190.42 158.31,-183.76 155.96,-190.36"/>
</g>
<!-- Node3 -->
<g id="node3" class="node">
<title>Node3</title>
<g id="a_node3"><a xlink:href="quickjs_8h.html#ad80a83d73e9b7d872b88fbf2943aebe9" target="_top" xlink:title=" ">
<polygon fill="none" stroke="black" points="152.5,-152.5 152.5,-171.5 239.5,-171.5 239.5,-152.5 152.5,-152.5"/>
<text text-anchor="middle" x="196" y="-159.5" font-family="Helvetica,sans-Serif" font-size="10.00">JS_IsException</text>
</a>
</g>
</g>
<!-- Node1&#45;&gt;Node3 -->
<g id="edge2" class="edge">
<title>Node1&#45;&gt;Node3</title>
<path fill="none" stroke="midnightblue" d="M105.39,-149.97C117.46,-151.59 130.33,-153.32 142.44,-154.94"/>
<polygon fill="midnightblue" stroke="midnightblue" points="142.02,-158.42 152.4,-156.28 142.95,-151.48 142.02,-158.42"/>
</g>
<!-- Node4 -->
<g id="node4" class="node">
<title>Node4</title>
<g id="a_node4"><a xlink:href="quickjs_8h.html#a4e407128a9605afb77523e49e9a627fd" target="_top" xlink:title=" ">
<polygon fill="none" stroke="black" points="151.5,-114.5 151.5,-133.5 240.5,-133.5 240.5,-114.5 151.5,-114.5"/>
<text text-anchor="middle" x="196" y="-121.5" font-family="Helvetica,sans-Serif" font-size="10.00">JS_IsUndefined</text>
</a>
</g>
</g>
<!-- Node1&#45;&gt;Node4 -->
<g id="edge3" class="edge">
<title>Node1&#45;&gt;Node4</title>
<path fill="none" stroke="midnightblue" d="M105.39,-136.03C117.1,-134.46 129.56,-132.79 141.34,-131.21"/>
<polygon fill="midnightblue" stroke="midnightblue" points="142.04,-134.64 151.49,-129.84 141.11,-127.7 142.04,-134.64"/>
</g>
<!-- Node5 -->
<g id="node5" class="node">
<title>Node5</title>
<g id="a_node5"><a xlink:href="quickjs_8c.html#a884d294acbf5be675ffc760e38bd0521" target="_top" xlink:title=" ">
<polygon fill="none" stroke="black" points="141,-76.5 141,-95.5 251,-95.5 251,-76.5 141,-76.5"/>
<text text-anchor="middle" x="196" y="-83.5" font-family="Helvetica,sans-Serif" font-size="10.00">JS_NewObjectProto</text>
</a>
</g>
</g>
<!-- Node1&#45;&gt;Node5 -->
<g id="edge4" class="edge">
<title>Node1&#45;&gt;Node5</title>
<path fill="none" stroke="midnightblue" d="M74.54,-133.36C92.16,-125.41 118.03,-114.02 141,-105 146.15,-102.98 151.61,-100.94 157,-98.99"/>
<polygon fill="midnightblue" stroke="midnightblue" points="158.31,-102.24 166.55,-95.58 155.96,-95.64 158.31,-102.24"/>
</g>
<!-- Node6 -->
<g id="node6" class="node">
<title>Node6</title>
<g id="a_node6"><a xlink:href="quickjs_8c.html#a73738c650f11459db0d7af3dcdf8316b" target="_top" xlink:title=" ">
<polygon fill="none" stroke="black" points="287,-76.5 287,-95.5 423,-95.5 423,-76.5 287,-76.5"/>
<text text-anchor="middle" x="355" y="-83.5" font-family="Helvetica,sans-Serif" font-size="10.00">JS_NewObjectProtoClass</text>
</a>
</g>
</g>
<!-- Node5&#45;&gt;Node6 -->
<g id="edge5" class="edge">
<title>Node5&#45;&gt;Node6</title>
<path fill="none" stroke="midnightblue" d="M251.03,-86C259.32,-86 268.01,-86 276.68,-86"/>
<polygon fill="midnightblue" stroke="midnightblue" points="276.83,-89.5 286.83,-86 276.83,-82.5 276.83,-89.5"/>
</g>
<!-- Node7 -->
<g id="node7" class="node">
<title>Node7</title>
<g id="a_node7"><a xlink:href="quickjs_8c.html#aad24bdf2bcbb0ce55462fe6074dac8a5" target="_top" xlink:title=" ">
<polygon fill="none" stroke="red" points="459,-152.5 459,-171.5 599,-171.5 599,-152.5 459,-152.5"/>
<text text-anchor="middle" x="529" y="-159.5" font-family="Helvetica,sans-Serif" font-size="10.00">find_hashed_shape_proto</text>
</a>
</g>
</g>
<!-- Node6&#45;&gt;Node7 -->
<g id="edge6" class="edge">
<title>Node6&#45;&gt;Node7</title>
<path fill="none" stroke="midnightblue" d="M370.8,-95.67C390.32,-108.07 426.07,-129.58 459,-143 464.81,-145.37 471.02,-147.54 477.24,-149.51"/>
<polygon fill="midnightblue" stroke="midnightblue" points="476.38,-152.91 486.97,-152.42 478.39,-146.2 476.38,-152.91"/>
</g>
<!-- Node11 -->
<g id="node8" class="node">
<title>Node11</title>
<g id="a_node8"><a xlink:href="quickjs_8c.html#aab0be018b8f7bdcff45226f502c3f820" target="_top" xlink:title=" ">
<polygon fill="none" stroke="black" points="487.5,-114.5 487.5,-133.5 570.5,-133.5 570.5,-114.5 487.5,-114.5"/>
<text text-anchor="middle" x="529" y="-121.5" font-family="Helvetica,sans-Serif" font-size="10.00">get_proto_obj</text>
</a>
</g>
</g>
<!-- Node6&#45;&gt;Node11 -->
<g id="edge7" class="edge">
<title>Node6&#45;&gt;Node11</title>
<path fill="none" stroke="midnightblue" d="M399.4,-95.59C423.11,-100.83 452.59,-107.34 477.34,-112.81"/>
<polygon fill="midnightblue" stroke="midnightblue" points="476.75,-116.26 487.27,-115 478.26,-109.43 476.75,-116.26"/>
</g>
<!-- Node12 -->
<g id="node9" class="node">
<title>Node12</title>
<g id="a_node9"><a xlink:href="quickjs_8c.html#aed229eb80b3b03a2275471dee93c69d6" target="_top" xlink:title=" ">
<polygon fill="none" stroke="black" points="487.5,-76.5 487.5,-95.5 570.5,-95.5 570.5,-76.5 487.5,-76.5"/>
<text text-anchor="middle" x="529" y="-83.5" font-family="Helvetica,sans-Serif" font-size="10.00">js_dup_shape</text>
</a>
</g>
</g>
<!-- Node6&#45;&gt;Node12 -->
<g id="edge8" class="edge">
<title>Node6&#45;&gt;Node12</title>
<path fill="none" stroke="midnightblue" d="M423.49,-86C441.26,-86 460.13,-86 476.88,-86"/>
<polygon fill="midnightblue" stroke="midnightblue" points="477.01,-89.5 487.01,-86 477.01,-82.5 477.01,-89.5"/>
</g>
<!-- Node13 -->
<g id="node10" class="node">
<title>Node13</title>
<g id="a_node10"><a xlink:href="quickjs_8c.html#ad6926e49955be5e10423f6df8d8cff3e" target="_top" xlink:title=" ">
<polygon fill="none" stroke="red" points="486.5,-38.5 486.5,-57.5 571.5,-57.5 571.5,-38.5 486.5,-38.5"/>
<text text-anchor="middle" x="529" y="-45.5" font-family="Helvetica,sans-Serif" font-size="10.00">js_new_shape</text>
</a>
</g>
</g>
<!-- Node6&#45;&gt;Node13 -->
<g id="edge9" class="edge">
<title>Node6&#45;&gt;Node13</title>
<path fill="none" stroke="midnightblue" d="M399.4,-76.41C422.84,-71.23 451.93,-64.81 476.51,-59.37"/>
<polygon fill="midnightblue" stroke="midnightblue" points="477.38,-62.77 486.39,-57.19 475.87,-55.93 477.38,-62.77"/>
</g>
<!-- Node28 -->
<g id="node11" class="node">
<title>Node28</title>
<g id="a_node11"><a xlink:href="quickjs_8c.html#a030c2e98b1775a7e3bdd13be1400b1fe" target="_top" xlink:title=" ">
<polygon fill="none" stroke="red" points="459.5,-0.5 459.5,-19.5 598.5,-19.5 598.5,-0.5 459.5,-0.5"/>
<text text-anchor="middle" x="529" y="-7.5" font-family="Helvetica,sans-Serif" font-size="10.00">JS_NewObjectFromShape</text>
</a>
</g>
</g>
<!-- Node6&#45;&gt;Node28 -->
<g id="edge10" class="edge">
<title>Node6&#45;&gt;Node28</title>
<path fill="none" stroke="midnightblue" d="M370.8,-76.33C390.32,-63.93 426.07,-42.42 459,-29 464.81,-26.63 471.02,-24.46 477.24,-22.49"/>
<polygon fill="midnightblue" stroke="midnightblue" points="478.39,-25.8 486.97,-19.58 476.38,-19.09 478.39,-25.8"/>
</g>
</g>
</svg>
