<?xml version="1.0" encoding="UTF-8" standalone="no"?>
<!DOCTYPE svg PUBLIC "-//W3C//DTD SVG 1.1//EN"
 "http://www.w3.org/Graphics/SVG/1.1/DTD/svg11.dtd">
<!-- Generated by graphviz version 2.43.0 (0)
 -->
<!-- Title: js_new_shape Pages: 1 -->
<svg width="546pt" height="332pt"
 viewBox="0.00 0.00 546.00 332.00" xmlns="http://www.w3.org/2000/svg" xmlns:xlink="http://www.w3.org/1999/xlink">
<g id="graph0" class="graph" transform="scale(1 1) rotate(0) translate(4 328)">
<title>js_new_shape</title>
<!-- Node1 -->
<g id="node1" class="node">
<title>Node1</title>
<g id="a_node1"><a xlink:title=" ">
<polygon fill="#bfbfbf" stroke="black" points="0,-152.5 0,-171.5 85,-171.5 85,-152.5 0,-152.5"/>
<text text-anchor="middle" x="42.5" y="-159.5" font-family="Helvetica,sans-Serif" font-size="10.00">js_new_shape</text>
</a>
</g>
</g>
<!-- Node2 -->
<g id="node2" class="node">
<title>Node2</title>
<g id="a_node2"><a xlink:href="quickjs_8c.html#a1030d2020be7d911eb62869f21cc3b70" target="_top" xlink:title=" ">
<polygon fill="none" stroke="black" points="121,-152.5 121,-171.5 212,-171.5 212,-152.5 121,-152.5"/>
<text text-anchor="middle" x="166.5" y="-159.5" font-family="Helvetica,sans-Serif" font-size="10.00">js_new_shape2</text>
</a>
</g>
</g>
<!-- Node1&#45;&gt;Node2 -->
<g id="edge1" class="edge">
<title>Node1&#45;&gt;Node2</title>
<path fill="none" stroke="midnightblue" d="M85.14,-162C93.29,-162 101.95,-162 110.46,-162"/>
<polygon fill="midnightblue" stroke="midnightblue" points="110.71,-165.5 120.71,-162 110.71,-158.5 110.71,-165.5"/>
</g>
<!-- Node3 -->
<g id="node3" class="node">
<title>Node3</title>
<g id="a_node3"><a xlink:href="quickjs_8c.html#a9780456a71703c53244b88831bc8fb7a" target="_top" xlink:title=" ">
<polygon fill="none" stroke="black" points="267,-304.5 267,-323.5 353,-323.5 353,-304.5 267,-304.5"/>
<text text-anchor="middle" x="310" y="-311.5" font-family="Helvetica,sans-Serif" font-size="10.00">add_gc_object</text>
</a>
</g>
</g>
<!-- Node2&#45;&gt;Node3 -->
<g id="edge2" class="edge">
<title>Node2&#45;&gt;Node3</title>
<path fill="none" stroke="midnightblue" d="M170.62,-171.67C179.02,-196.12 204.43,-260.89 248,-295 250.97,-297.32 254.23,-299.37 257.64,-301.16"/>
<polygon fill="midnightblue" stroke="midnightblue" points="256.41,-304.44 266.96,-305.35 259.28,-298.06 256.41,-304.44"/>
</g>
<!-- Node6 -->
<g id="node5" class="node">
<title>Node6</title>
<g id="a_node5"><a xlink:href="quickjs_8c.html#a8b6c89e0f589df709eb31a92b7fac32a" target="_top" xlink:title=" ">
<polygon fill="none" stroke="black" points="248,-266.5 248,-285.5 372,-285.5 372,-266.5 248,-266.5"/>
<text text-anchor="middle" x="310" y="-273.5" font-family="Helvetica,sans-Serif" font-size="10.00">get_shape_from_alloc</text>
</a>
</g>
</g>
<!-- Node2&#45;&gt;Node6 -->
<g id="edge4" class="edge">
<title>Node2&#45;&gt;Node6</title>
<path fill="none" stroke="midnightblue" d="M173.05,-171.65C184.54,-190.79 212.85,-233.73 248,-257 251.1,-259.05 254.42,-260.89 257.87,-262.54"/>
<polygon fill="midnightblue" stroke="midnightblue" points="256.62,-265.81 267.2,-266.46 259.34,-259.36 256.62,-265.81"/>
</g>
<!-- Node7 -->
<g id="node6" class="node">
<title>Node7</title>
<g id="a_node6"><a xlink:href="quickjs_8c.html#ab54e821a9b1b55dc16c4494bd410b698" target="_top" xlink:title=" ">
<polygon fill="none" stroke="black" points="264,-228.5 264,-247.5 356,-247.5 356,-228.5 264,-228.5"/>
<text text-anchor="middle" x="310" y="-235.5" font-family="Helvetica,sans-Serif" font-size="10.00">get_shape_size</text>
</a>
</g>
</g>
<!-- Node2&#45;&gt;Node7 -->
<g id="edge5" class="edge">
<title>Node2&#45;&gt;Node7</title>
<path fill="none" stroke="midnightblue" d="M178.51,-171.52C193.38,-183.96 221.13,-205.72 248,-219 252.54,-221.25 257.41,-223.3 262.34,-225.15"/>
<polygon fill="midnightblue" stroke="midnightblue" points="261.23,-228.47 271.82,-228.46 263.54,-221.86 261.23,-228.47"/>
</g>
<!-- Node8 -->
<g id="node7" class="node">
<title>Node8</title>
<g id="a_node7"><a xlink:href="quickjs_8h.html#a775522f2d084fc8fa0fcb33f390006b4" target="_top" xlink:title=" ">
<polygon fill="none" stroke="black" points="271.5,-190.5 271.5,-209.5 348.5,-209.5 348.5,-190.5 271.5,-190.5"/>
<text text-anchor="middle" x="310" y="-197.5" font-family="Helvetica,sans-Serif" font-size="10.00">JS_DupValue</text>
</a>
</g>
</g>
<!-- Node2&#45;&gt;Node8 -->
<g id="edge6" class="edge">
<title>Node2&#45;&gt;Node8</title>
<path fill="none" stroke="midnightblue" d="M203.21,-171.59C221.47,-176.49 243.91,-182.52 263.41,-187.76"/>
<polygon fill="midnightblue" stroke="midnightblue" points="262.74,-191.2 273.3,-190.41 264.55,-184.44 262.74,-191.2"/>
</g>
<!-- Node9 -->
<g id="node8" class="node">
<title>Node9</title>
<g id="a_node8"><a xlink:href="quickjs_8c.html#a78b7f6b85f2739b551ff54f16156128b" target="_top" xlink:title=" ">
<polygon fill="none" stroke="black" points="278.5,-152.5 278.5,-171.5 341.5,-171.5 341.5,-152.5 278.5,-152.5"/>
<text text-anchor="middle" x="310" y="-159.5" font-family="Helvetica,sans-Serif" font-size="10.00">js_malloc</text>
</a>
</g>
</g>
<!-- Node2&#45;&gt;Node9 -->
<g id="edge7" class="edge">
<title>Node2&#45;&gt;Node9</title>
<path fill="none" stroke="midnightblue" d="M212.27,-162C230.11,-162 250.5,-162 267.95,-162"/>
<polygon fill="midnightblue" stroke="midnightblue" points="268.38,-165.5 278.38,-162 268.38,-158.5 268.38,-165.5"/>
</g>
<!-- Node13 -->
<g id="node11" class="node">
<title>Node13</title>
<g id="a_node11"><a xlink:href="quickjs_8c.html#a82dbe63adeac7849406fd48d96f39f7b" target="_top" xlink:title=" ">
<polygon fill="none" stroke="black" points="254.5,-114.5 254.5,-133.5 365.5,-133.5 365.5,-114.5 254.5,-114.5"/>
<text text-anchor="middle" x="310" y="-121.5" font-family="Helvetica,sans-Serif" font-size="10.00">js_shape_hash_link</text>
</a>
</g>
</g>
<!-- Node2&#45;&gt;Node13 -->
<g id="edge10" class="edge">
<title>Node2&#45;&gt;Node13</title>
<path fill="none" stroke="midnightblue" d="M203.21,-152.41C221.47,-147.51 243.91,-141.48 263.41,-136.24"/>
<polygon fill="midnightblue" stroke="midnightblue" points="264.55,-139.56 273.3,-133.59 262.74,-132.8 264.55,-139.56"/>
</g>
<!-- Node15 -->
<g id="node13" class="node">
<title>Node15</title>
<g id="a_node13"><a xlink:href="quickjs_8c.html#acab22c2945c4d609e57a2484feb68a96" target="_top" xlink:title=" ">
<polygon fill="none" stroke="black" points="265,-76.5 265,-95.5 355,-95.5 355,-76.5 265,-76.5"/>
<text text-anchor="middle" x="310" y="-83.5" font-family="Helvetica,sans-Serif" font-size="10.00">prop_hash_end</text>
</a>
</g>
</g>
<!-- Node2&#45;&gt;Node15 -->
<g id="edge12" class="edge">
<title>Node2&#45;&gt;Node15</title>
<path fill="none" stroke="midnightblue" d="M178.51,-152.48C193.38,-140.04 221.13,-118.28 248,-105 252.54,-102.75 257.41,-100.7 262.34,-98.85"/>
<polygon fill="midnightblue" stroke="midnightblue" points="263.54,-102.14 271.82,-95.54 261.23,-95.53 263.54,-102.14"/>
</g>
<!-- Node16 -->
<g id="node14" class="node">
<title>Node16</title>
<g id="a_node14"><a xlink:href="quickjs_8c.html#ac05a95a74726df4e854747a64d7d0407" target="_top" xlink:title=" ">
<polygon fill="none" stroke="black" points="255.5,-38.5 255.5,-57.5 364.5,-57.5 364.5,-38.5 255.5,-38.5"/>
<text text-anchor="middle" x="310" y="-45.5" font-family="Helvetica,sans-Serif" font-size="10.00">resize_shape_hash</text>
</a>
</g>
</g>
<!-- Node2&#45;&gt;Node16 -->
<g id="edge13" class="edge">
<title>Node2&#45;&gt;Node16</title>
<path fill="none" stroke="midnightblue" d="M173.05,-152.35C184.54,-133.21 212.85,-90.27 248,-67 251.1,-64.95 254.42,-63.11 257.87,-61.46"/>
<polygon fill="midnightblue" stroke="midnightblue" points="259.34,-64.64 267.2,-57.54 256.62,-58.19 259.34,-64.64"/>
</g>
<!-- Node18 -->
<g id="node16" class="node">
<title>Node18</title>
<g id="a_node16"><a xlink:href="quickjs_8c.html#afeaafcef811076df11d1552bcc7f6a2a" target="_top" xlink:title=" ">
<polygon fill="none" stroke="black" points="256.5,-0.5 256.5,-19.5 363.5,-19.5 363.5,-0.5 256.5,-0.5"/>
<text text-anchor="middle" x="310" y="-7.5" font-family="Helvetica,sans-Serif" font-size="10.00">shape_initial_hash</text>
</a>
</g>
</g>
<!-- Node2&#45;&gt;Node18 -->
<g id="edge16" class="edge">
<title>Node2&#45;&gt;Node18</title>
<path fill="none" stroke="midnightblue" d="M170.62,-152.33C179.02,-127.88 204.43,-63.11 248,-29 250.41,-27.11 253.01,-25.41 255.73,-23.88"/>
<polygon fill="midnightblue" stroke="midnightblue" points="257.26,-27.02 264.75,-19.53 254.22,-20.72 257.26,-27.02"/>
</g>
<!-- Node4 -->
<g id="node4" class="node">
<title>Node4</title>
<g id="a_node4"><a xlink:href="list_8h.html#a3a5d0733570b2fafc18f4c71a2968ea5" target="_top" xlink:title=" ">
<polygon fill="none" stroke="red" points="435,-304.5 435,-323.5 511,-323.5 511,-304.5 435,-304.5"/>
<text text-anchor="middle" x="473" y="-311.5" font-family="Helvetica,sans-Serif" font-size="10.00">list_add_tail</text>
</a>
</g>
</g>
<!-- Node3&#45;&gt;Node4 -->
<g id="edge3" class="edge">
<title>Node3&#45;&gt;Node4</title>
<path fill="none" stroke="midnightblue" d="M353.3,-314C375.28,-314 402.2,-314 424.84,-314"/>
<polygon fill="midnightblue" stroke="midnightblue" points="424.91,-317.5 434.91,-314 424.91,-310.5 424.91,-317.5"/>
</g>
<!-- Node10 -->
<g id="node9" class="node">
<title>Node10</title>
<g id="a_node9"><a xlink:href="quickjs_8c.html#a4b710876403548c1ad3edc7a7719c559" target="_top" xlink:title=" ">
<polygon fill="none" stroke="black" points="435,-171.5 435,-190.5 511,-190.5 511,-171.5 435,-171.5"/>
<text text-anchor="middle" x="473" y="-178.5" font-family="Helvetica,sans-Serif" font-size="10.00">js_malloc_rt</text>
</a>
</g>
</g>
<!-- Node9&#45;&gt;Node10 -->
<g id="edge8" class="edge">
<title>Node9&#45;&gt;Node10</title>
<path fill="none" stroke="midnightblue" d="M341.66,-165.62C365.2,-168.4 398.12,-172.28 424.98,-175.45"/>
<polygon fill="midnightblue" stroke="midnightblue" points="424.61,-178.93 434.95,-176.63 425.43,-171.98 424.61,-178.93"/>
</g>
<!-- Node11 -->
<g id="node10" class="node">
<title>Node11</title>
<g id="a_node10"><a xlink:href="quickjs_8c.html#a344d6c0e45d9bf3861fd9269724045a2" target="_top" xlink:title=" ">
<polygon fill="none" stroke="red" points="408,-133.5 408,-152.5 538,-152.5 538,-133.5 408,-133.5"/>
<text text-anchor="middle" x="473" y="-140.5" font-family="Helvetica,sans-Serif" font-size="10.00">JS_ThrowOutOfMemory</text>
</a>
</g>
</g>
<!-- Node9&#45;&gt;Node11 -->
<g id="edge9" class="edge">
<title>Node9&#45;&gt;Node11</title>
<path fill="none" stroke="midnightblue" d="M341.66,-158.38C357.66,-156.49 377.99,-154.09 397.81,-151.76"/>
<polygon fill="midnightblue" stroke="midnightblue" points="398.27,-155.23 407.79,-150.58 397.45,-148.27 398.27,-155.23"/>
</g>
<!-- Node14 -->
<g id="node12" class="node">
<title>Node14</title>
<g id="a_node12"><a xlink:href="quickjs_8c.html#a8291bf195606b5d1b0faed795b6dc3ff" target="_top" xlink:title=" ">
<polygon fill="none" stroke="black" points="425.5,-86.5 425.5,-105.5 520.5,-105.5 520.5,-86.5 425.5,-86.5"/>
<text text-anchor="middle" x="473" y="-93.5" font-family="Helvetica,sans-Serif" font-size="10.00">get_shape_hash</text>
</a>
</g>
</g>
<!-- Node13&#45;&gt;Node14 -->
<g id="edge11" class="edge">
<title>Node13&#45;&gt;Node14</title>
<path fill="none" stroke="midnightblue" d="M365.51,-114.52C381.6,-111.72 399.24,-108.65 415.46,-105.83"/>
<polygon fill="midnightblue" stroke="midnightblue" points="416.09,-109.28 425.34,-104.11 414.89,-102.38 416.09,-109.28"/>
</g>
<!-- Node16&#45;&gt;Node14 -->
<g id="edge14" class="edge">
<title>Node16&#45;&gt;Node14</title>
<path fill="none" stroke="midnightblue" d="M343.19,-57.6C368.2,-65.05 403.08,-75.45 430.24,-83.55"/>
<polygon fill="midnightblue" stroke="midnightblue" points="429.28,-86.92 439.86,-86.42 431.28,-80.21 429.28,-86.92"/>
</g>
<!-- Node17 -->
<g id="node15" class="node">
<title>Node17</title>
<g id="a_node15"><a xlink:href="quickjs_8c.html#a69e19dda8a93d613203e0baa06f0ed8d" target="_top" xlink:title=" ">
<polygon fill="none" stroke="black" points="442,-38.5 442,-57.5 504,-57.5 504,-38.5 442,-38.5"/>
<text text-anchor="middle" x="473" y="-45.5" font-family="Helvetica,sans-Serif" font-size="10.00">js_free_rt</text>
</a>
</g>
</g>
<!-- Node16&#45;&gt;Node17 -->
<g id="edge15" class="edge">
<title>Node16&#45;&gt;Node17</title>
<path fill="none" stroke="midnightblue" d="M364.61,-48C386.42,-48 411.21,-48 431.47,-48"/>
<polygon fill="midnightblue" stroke="midnightblue" points="431.61,-51.5 441.61,-48 431.61,-44.5 431.61,-51.5"/>
</g>
<!-- Node19 -->
<g id="node17" class="node">
<title>Node19</title>
<g id="a_node17"><a xlink:href="quickjs_8c.html#a11f047846c1027dc6066a5f1b2ef292a" target="_top" xlink:title=" ">
<polygon fill="none" stroke="black" points="436,-0.5 436,-19.5 510,-19.5 510,-0.5 436,-0.5"/>
<text text-anchor="middle" x="473" y="-7.5" font-family="Helvetica,sans-Serif" font-size="10.00">shape_hash</text>
</a>
</g>
</g>
<!-- Node18&#45;&gt;Node19 -->
<g id="edge17" class="edge">
<title>Node18&#45;&gt;Node19</title>
<path fill="none" stroke="midnightblue" d="M363.72,-10C383.77,-10 406.45,-10 425.85,-10"/>
<polygon fill="midnightblue" stroke="midnightblue" points="425.96,-13.5 435.96,-10 425.96,-6.5 425.96,-13.5"/>
</g>
</g>
</svg>
