<?xml version="1.0" encoding="UTF-8" standalone="no"?>
<!DOCTYPE svg PUBLIC "-//W3C//DTD SVG 1.1//EN"
 "http://www.w3.org/Graphics/SVG/1.1/DTD/svg11.dtd">
<!-- Generated by graphviz version 2.43.0 (0)
 -->
<!-- Title: js_parse_delete Pages: 1 -->
<svg width="720pt" height="74pt"
 viewBox="0.00 0.00 720.00 74.00" xmlns="http://www.w3.org/2000/svg" xmlns:xlink="http://www.w3.org/1999/xlink">
<g id="graph0" class="graph" transform="scale(1 1) rotate(0) translate(4 70)">
<title>js_parse_delete</title>
<!-- Node1 -->
<g id="node1" class="node">
<title>Node1</title>
<g id="a_node1"><a xlink:title=" ">
<polygon fill="#bfbfbf" stroke="black" points="619,-28.5 619,-47.5 712,-47.5 712,-28.5 619,-28.5"/>
<text text-anchor="middle" x="665.5" y="-35.5" font-family="Helvetica,sans-Serif" font-size="10.00">js_parse_delete</text>
</a>
</g>
</g>
<!-- Node2 -->
<g id="node2" class="node">
<title>Node2</title>
<g id="a_node2"><a xlink:href="quickjs_8c.html#a9f26c765171d977db1796791f035f1f9" target="_top" xlink:title=" ">
<polygon fill="none" stroke="black" points="493,-28.5 493,-47.5 583,-47.5 583,-28.5 493,-28.5"/>
<text text-anchor="middle" x="538" y="-35.5" font-family="Helvetica,sans-Serif" font-size="10.00">js_parse_unary</text>
</a>
</g>
</g>
<!-- Node1&#45;&gt;Node2 -->
<g id="edge1" class="edge">
<title>Node1&#45;&gt;Node2</title>
<path fill="none" stroke="midnightblue" d="M608.58,-31.29C600.06,-31.2 591.38,-31.27 583.16,-31.52"/>
<polygon fill="midnightblue" stroke="midnightblue" points="608.77,-34.79 618.84,-31.48 608.9,-27.79 608.77,-34.79"/>
</g>
<!-- Node2&#45;&gt;Node1 -->
<g id="edge2" class="edge">
<title>Node2&#45;&gt;Node1</title>
<path fill="none" stroke="midnightblue" d="M593.37,-44.7C601.87,-44.81 610.57,-44.75 618.84,-44.52"/>
<polygon fill="midnightblue" stroke="midnightblue" points="593.23,-41.19 583.16,-44.48 593.09,-48.19 593.23,-41.19"/>
</g>
<!-- Node2&#45;&gt;Node2 -->
<g id="edge9" class="edge">
<title>Node2&#45;&gt;Node2</title>
<path fill="none" stroke="midnightblue" d="M561.44,-57.03C560.16,-62.13 552.35,-66 538,-66 515.61,-66 509.13,-56.57 518.58,-47.76"/>
<polygon fill="midnightblue" stroke="midnightblue" points="564.61,-55.54 557.42,-47.76 558.18,-58.32 564.61,-55.54"/>
</g>
<!-- Node3 -->
<g id="node3" class="node">
<title>Node3</title>
<g id="a_node3"><a xlink:href="quickjs_8c.html#ad70b14684de2ed3babfd7c2264249437" target="_top" xlink:title=" ">
<polygon fill="none" stroke="black" points="337,-28.5 337,-47.5 457,-47.5 457,-28.5 337,-28.5"/>
<text text-anchor="middle" x="397" y="-35.5" font-family="Helvetica,sans-Serif" font-size="10.00">js_parse_expr_binary</text>
</a>
</g>
</g>
<!-- Node2&#45;&gt;Node3 -->
<g id="edge3" class="edge">
<title>Node2&#45;&gt;Node3</title>
<path fill="none" stroke="midnightblue" d="M482.63,-38C474.28,-38 465.61,-38 457.16,-38"/>
<polygon fill="midnightblue" stroke="midnightblue" points="482.64,-41.5 492.64,-38 482.64,-34.5 482.64,-41.5"/>
</g>
<!-- Node3&#45;&gt;Node3 -->
<g id="edge5" class="edge">
<title>Node3&#45;&gt;Node3</title>
<path fill="none" stroke="midnightblue" d="M423.04,-57.03C421.62,-62.13 412.94,-66 397,-66 372.12,-66 364.92,-56.57 375.42,-47.76"/>
<polygon fill="midnightblue" stroke="midnightblue" points="426.07,-55.25 418.58,-47.76 419.76,-58.29 426.07,-55.25"/>
</g>
<!-- Node4 -->
<g id="node4" class="node">
<title>Node4</title>
<g id="a_node4"><a xlink:href="quickjs_8c.html#a93b69939f7af67646a177249bf2deb4d" target="_top" xlink:title=" ">
<polygon fill="none" stroke="red" points="0,-28.5 0,-47.5 132,-47.5 132,-28.5 0,-28.5"/>
<text text-anchor="middle" x="66" y="-35.5" font-family="Helvetica,sans-Serif" font-size="10.00">js_parse_coalesce_expr</text>
</a>
</g>
</g>
<!-- Node3&#45;&gt;Node4 -->
<g id="edge4" class="edge">
<title>Node3&#45;&gt;Node4</title>
<path fill="none" stroke="midnightblue" d="M326.69,-45.33C318.05,-46.02 309.33,-46.61 301,-47 241.95,-49.79 227.05,-49.63 168,-47 156.39,-46.48 144.06,-45.64 132.14,-44.66"/>
<polygon fill="midnightblue" stroke="midnightblue" points="327.1,-48.81 336.77,-44.48 326.51,-41.83 327.1,-48.81"/>
</g>
<!-- Node36 -->
<g id="node5" class="node">
<title>Node36</title>
<g id="a_node5"><a xlink:href="quickjs_8c.html#aae2d76e4aa080c7737119ef079a9b97d" target="_top" xlink:title=" ">
<polygon fill="none" stroke="black" points="168,-0.5 168,-19.5 301,-19.5 301,-0.5 168,-0.5"/>
<text text-anchor="middle" x="234.5" y="-7.5" font-family="Helvetica,sans-Serif" font-size="10.00">js_parse_logical_and_or</text>
</a>
</g>
</g>
<!-- Node3&#45;&gt;Node36 -->
<g id="edge6" class="edge">
<title>Node3&#45;&gt;Node36</title>
<path fill="none" stroke="midnightblue" d="M330.97,-26.66C317.39,-24.29 303.2,-21.81 290.04,-19.51"/>
<polygon fill="midnightblue" stroke="midnightblue" points="330.76,-30.17 341.21,-28.44 331.96,-23.28 330.76,-30.17"/>
</g>
<!-- Node36&#45;&gt;Node4 -->
<g id="edge7" class="edge">
<title>Node36&#45;&gt;Node4</title>
<path fill="none" stroke="midnightblue" d="M166.45,-21.28C152.24,-23.67 137.36,-26.17 123.58,-28.49"/>
<polygon fill="midnightblue" stroke="midnightblue" points="167.38,-24.67 176.67,-19.56 166.22,-17.76 167.38,-24.67"/>
</g>
<!-- Node36&#45;&gt;Node36 -->
<g id="edge8" class="edge">
<title>Node36&#45;&gt;Node36</title>
<path fill="none" stroke="midnightblue" d="M264.81,-28.27C263.95,-33.74 253.85,-38 234.5,-38 205.71,-38 197.38,-28.57 209.53,-19.76"/>
<polygon fill="midnightblue" stroke="midnightblue" points="267.75,-26.37 259.47,-19.76 261.82,-30.09 267.75,-26.37"/>
</g>
</g>
</svg>
