<?xml version="1.0" encoding="UTF-8" standalone="no"?>
<!DOCTYPE svg PUBLIC "-//W3C//DTD SVG 1.1//EN"
 "http://www.w3.org/Graphics/SVG/1.1/DTD/svg11.dtd">
<!-- Generated by graphviz version 2.43.0 (0)
 -->
<!-- Title: js_async_from_sync_iterator_unwrap Pages: 1 -->
<!--zoomable 274 -->
<svg id="main" version="1.1" xmlns="http://www.w3.org/2000/svg" xmlns:xlink="http://www.w3.org/1999/xlink" xml:space="preserve" onload="init(evt)">
<style type="text/css"><![CDATA[
.edge:hover path { stroke: red; }
.edge:hover polygon { stroke: red; fill: red; }
]]></style>
<script type="text/javascript"><![CDATA[
var edges = document.getElementsByTagName('g');
if (edges && edges.length) {
  for (var i=0;i<edges.length;i++) {
    if (edges[i].id.substr(0,4)=='edge') {
      edges[i].setAttribute('class','edge');
    }
  }
}
]]></script>
        <defs>
                <circle id="rim" cx="0" cy="0" r="7"/>
                <circle id="rim2" cx="0" cy="0" r="3.5"/>
                <g id="zoomPlus">
                        <use xlink:href="#rim" fill="#404040">
                                <set attributeName="fill" to="#808080" begin="zoomplus.mouseover" end="zoomplus.mouseout"/>
                        </use>
                        <path d="M-4,0h8M0,-4v8" fill="none" stroke="white" stroke-width="1.5" pointer-events="none"/>
                </g>
                <g id="zoomMin">
                        <use xlink:href="#rim" fill="#404040">
                                <set attributeName="fill" to="#808080" begin="zoomminus.mouseover" end="zoomminus.mouseout"/>
                        </use>
                        <path d="M-4,0h8" fill="none" stroke="white" stroke-width="1.5" pointer-events="none"/>
                </g>
                <g id="dirArrow">
                        <path fill="none" stroke="white" stroke-width="1.5" d="M0,-3.0v7 M-2.5,-0.5L0,-3.0L2.5,-0.5"/>
                </g>
               <g id="resetDef">
                       <use xlink:href="#rim2" fill="#404040">
                               <set attributeName="fill" to="#808080" begin="reset.mouseover" end="reset.mouseout"/>
                       </use>
               </g>
        </defs>

<script type="text/javascript">
var viewWidth = 691;
var viewHeight = 274;
var sectionId = 'dynsection-1768';
</script>
<script xlink:href="svgpan.js"/>
<svg id="graph" class="graph">
<g id="viewport">
<title>js_async_from_sync_iterator_unwrap</title>
<!-- Node1 -->
<g id="node1" class="node">
<title>Node1</title>
<g id="a_node1"><a xlink:title=" ">
<polygon fill="#bfbfbf" stroke="black" points="0,-223 0,-253 115,-253 115,-223 0,-223"/>
<text text-anchor="start" x="8" y="-241" font-family="Helvetica,sans-Serif" font-size="10.00">js_async_from_sync</text>
<text text-anchor="middle" x="57.5" y="-230" font-family="Helvetica,sans-Serif" font-size="10.00">_iterator_unwrap</text>
</a>
</g>
</g>
<!-- Node2 -->
<g id="node2" class="node">
<title>Node2</title>
<g id="a_node2"><a xlink:href="quickjs_8c.html#a7346b86113acd072c9cfc8d238c4ff7c" target="_top" xlink:title=" ">
<polygon fill="none" stroke="black" points="151,-109 151,-139 253,-139 253,-109 151,-109"/>
<text text-anchor="start" x="159" y="-127" font-family="Helvetica,sans-Serif" font-size="10.00">js_create_iterator</text>
<text text-anchor="middle" x="202" y="-116" font-family="Helvetica,sans-Serif" font-size="10.00">_result</text>
</a>
</g>
</g>
<!-- Node1&#45;&gt;Node2 -->
<g id="edge1" class="edge">
<title>Node1&#45;&gt;Node2</title>
<path fill="none" stroke="midnightblue" d="M77.42,-222.86C102.23,-203.02 145.9,-168.08 174.12,-145.5"/>
<polygon fill="midnightblue" stroke="midnightblue" points="176.38,-148.18 182,-139.2 172,-142.71 176.38,-148.18"/>
</g>
<!-- Node31 -->
<g id="node5" class="node">
<title>Node31</title>
<g id="a_node5"><a xlink:href="quickjs_8h.html#a775522f2d084fc8fa0fcb33f390006b4" target="_top" xlink:title=" ">
<polygon fill="none" stroke="black" points="601,-228.5 601,-247.5 678,-247.5 678,-228.5 601,-228.5"/>
<text text-anchor="middle" x="639.5" y="-235.5" font-family="Helvetica,sans-Serif" font-size="10.00">JS_DupValue</text>
</a>
</g>
</g>
<!-- Node1&#45;&gt;Node31 -->
<g id="edge12" class="edge">
<title>Node1&#45;&gt;Node31</title>
<path fill="none" stroke="midnightblue" d="M115.12,-247.61C126.95,-249.33 139.36,-250.91 151,-252 331.99,-268.92 379.24,-271.25 560,-252 570.01,-250.93 580.68,-249.34 590.81,-247.61"/>
<polygon fill="midnightblue" stroke="midnightblue" points="591.49,-251.05 600.72,-245.85 590.26,-244.15 591.49,-251.05"/>
</g>
<!-- Node437 -->
<g id="node10" class="node">
<title>Node437</title>
<g id="a_node10"><a xlink:href="quickjs_8c.html#a525bb5bdbab2566313d9bcd876838d9d" target="_top" xlink:title=" ">
<polygon fill="none" stroke="black" points="323,-228.5 323,-247.5 386,-247.5 386,-228.5 323,-228.5"/>
<text text-anchor="middle" x="354.5" y="-235.5" font-family="Helvetica,sans-Serif" font-size="10.00">JS_ToBool</text>
</a>
</g>
</g>
<!-- Node1&#45;&gt;Node437 -->
<g id="edge13" class="edge">
<title>Node1&#45;&gt;Node437</title>
<path fill="none" stroke="midnightblue" d="M115.03,-238C172.94,-238 261.55,-238 312.87,-238"/>
<polygon fill="midnightblue" stroke="midnightblue" points="312.93,-241.5 322.93,-238 312.93,-234.5 312.93,-241.5"/>
</g>
<!-- Node3 -->
<g id="node3" class="node">
<title>Node3</title>
<g id="a_node3"><a xlink:href="quickjs_8c.html#a0a8765bd4012467d9139bc24aabcb3ca" target="_top" xlink:title=" ">
<polygon fill="none" stroke="black" points="289,-95.5 289,-114.5 420,-114.5 420,-95.5 289,-95.5"/>
<text text-anchor="middle" x="354.5" y="-102.5" font-family="Helvetica,sans-Serif" font-size="10.00">JS_DefinePropertyValue</text>
</a>
</g>
</g>
<!-- Node2&#45;&gt;Node3 -->
<g id="edge2" class="edge">
<title>Node2&#45;&gt;Node3</title>
<path fill="none" stroke="midnightblue" d="M253.11,-117.67C261.35,-116.63 270.04,-115.54 278.72,-114.44"/>
<polygon fill="midnightblue" stroke="midnightblue" points="279.4,-117.88 288.88,-113.16 278.52,-110.94 279.4,-117.88"/>
</g>
<!-- Node32 -->
<g id="node6" class="node">
<title>Node32</title>
<g id="a_node6"><a xlink:href="quickjs_8h.html#afaa20c47565bc704c6c85f3d77254e7d" target="_top" xlink:title=" ">
<polygon fill="none" stroke="red" points="600,-104.5 600,-123.5 679,-123.5 679,-104.5 600,-104.5"/>
<text text-anchor="middle" x="639.5" y="-111.5" font-family="Helvetica,sans-Serif" font-size="10.00">JS_FreeValue</text>
</a>
</g>
</g>
<!-- Node2&#45;&gt;Node32 -->
<g id="edge8" class="edge">
<title>Node2&#45;&gt;Node32</title>
<path fill="none" stroke="midnightblue" d="M229.52,-108.83C246.05,-100.26 268.08,-90.42 289,-86 396.35,-63.34 525.8,-86.47 593,-102.14"/>
<polygon fill="midnightblue" stroke="midnightblue" points="592.31,-105.58 602.85,-104.49 593.93,-98.77 592.31,-105.58"/>
</g>
<!-- Node68 -->
<g id="node7" class="node">
<title>Node68</title>
<g id="a_node7"><a xlink:href="quickjs_8h.html#ad80a83d73e9b7d872b88fbf2943aebe9" target="_top" xlink:title=" ">
<polygon fill="none" stroke="black" points="596,-161.5 596,-180.5 683,-180.5 683,-161.5 596,-161.5"/>
<text text-anchor="middle" x="639.5" y="-168.5" font-family="Helvetica,sans-Serif" font-size="10.00">JS_IsException</text>
</a>
</g>
</g>
<!-- Node2&#45;&gt;Node68 -->
<g id="edge9" class="edge">
<title>Node2&#45;&gt;Node68</title>
<path fill="none" stroke="midnightblue" d="M231.26,-139.09C247.67,-147.18 268.99,-156.58 289,-162 405.54,-193.59 439.5,-188.64 560,-181 568.38,-180.47 577.23,-179.62 585.85,-178.64"/>
<polygon fill="midnightblue" stroke="midnightblue" points="586.31,-182.11 595.82,-177.44 585.47,-175.16 586.31,-182.11"/>
</g>
<!-- Node375 -->
<g id="node8" class="node">
<title>Node375</title>
<g id="a_node8"><a xlink:href="quickjs_8h.html#a93abffa925714e249a6aa2f4ae7900f6" target="_top" xlink:title=" ">
<polygon fill="none" stroke="black" points="317.5,-0.5 317.5,-19.5 391.5,-19.5 391.5,-0.5 317.5,-0.5"/>
<text text-anchor="middle" x="354.5" y="-7.5" font-family="Helvetica,sans-Serif" font-size="10.00">JS_NewBool</text>
</a>
</g>
</g>
<!-- Node2&#45;&gt;Node375 -->
<g id="edge10" class="edge">
<title>Node2&#45;&gt;Node375</title>
<path fill="none" stroke="midnightblue" d="M213.89,-108.92C228.82,-89.22 257.41,-54.8 289,-34 295.24,-29.89 302.29,-26.36 309.37,-23.36"/>
<polygon fill="midnightblue" stroke="midnightblue" points="310.93,-26.51 318.97,-19.61 308.39,-19.99 310.93,-26.51"/>
</g>
<!-- Node403 -->
<g id="node9" class="node">
<title>Node403</title>
<g id="a_node9"><a xlink:href="quickjs_8c.html#afc0d8ea75588216ec132a6e1655524a7" target="_top" xlink:title=" ">
<polygon fill="none" stroke="red" points="312.5,-133.5 312.5,-152.5 396.5,-152.5 396.5,-133.5 312.5,-133.5"/>
<text text-anchor="middle" x="354.5" y="-140.5" font-family="Helvetica,sans-Serif" font-size="10.00">JS_NewObject</text>
</a>
</g>
</g>
<!-- Node2&#45;&gt;Node403 -->
<g id="edge11" class="edge">
<title>Node2&#45;&gt;Node403</title>
<path fill="none" stroke="midnightblue" d="M253.11,-130.33C268.83,-132.31 286.19,-134.5 302,-136.5"/>
<polygon fill="midnightblue" stroke="midnightblue" points="301.77,-140 312.13,-137.78 302.64,-133.05 301.77,-140"/>
</g>
<!-- Node4 -->
<g id="node4" class="node">
<title>Node4</title>
<g id="a_node4"><a xlink:href="quickjs_8c.html#ab50618f1bf78e444caa6da0e3e2785d7" target="_top" xlink:title=" ">
<polygon fill="none" stroke="red" points="456,-152.5 456,-171.5 560,-171.5 560,-152.5 456,-152.5"/>
<text text-anchor="middle" x="508" y="-159.5" font-family="Helvetica,sans-Serif" font-size="10.00">JS_DefineProperty</text>
</a>
</g>
</g>
<!-- Node3&#45;&gt;Node4 -->
<g id="edge3" class="edge">
<title>Node3&#45;&gt;Node4</title>
<path fill="none" stroke="midnightblue" d="M392.43,-114.51C401.57,-117.23 411.24,-120.44 420,-124 436.76,-130.81 439.49,-135.6 456,-143 460.45,-145 465.19,-146.96 469.91,-148.82"/>
<polygon fill="midnightblue" stroke="midnightblue" points="468.89,-152.18 479.48,-152.49 471.39,-145.64 468.89,-152.18"/>
</g>
<!-- Node3&#45;&gt;Node32 -->
<g id="edge7" class="edge">
<title>Node3&#45;&gt;Node32</title>
<path fill="none" stroke="midnightblue" d="M420.03,-103.12C460.3,-102.41 513.21,-102.33 560,-105 569.66,-105.55 579.95,-106.48 589.79,-107.54"/>
<polygon fill="midnightblue" stroke="midnightblue" points="589.52,-111.03 599.85,-108.68 590.3,-104.08 589.52,-111.03"/>
</g>
<!-- Node4&#45;&gt;Node31 -->
<g id="edge4" class="edge">
<title>Node4&#45;&gt;Node31</title>
<path fill="none" stroke="midnightblue" d="M525.4,-171.63C547.59,-184.65 587.37,-207.99 613.34,-223.24"/>
<polygon fill="midnightblue" stroke="midnightblue" points="611.84,-226.41 622.23,-228.45 615.38,-220.37 611.84,-226.41"/>
</g>
<!-- Node4&#45;&gt;Node32 -->
<g id="edge5" class="edge">
<title>Node4&#45;&gt;Node32</title>
<path fill="none" stroke="midnightblue" d="M534.9,-152.4C554.48,-145.14 581.6,-135.09 603.17,-127.09"/>
<polygon fill="midnightblue" stroke="midnightblue" points="604.49,-130.34 612.65,-123.58 602.06,-123.78 604.49,-130.34"/>
</g>
<!-- Node4&#45;&gt;Node68 -->
<g id="edge6" class="edge">
<title>Node4&#45;&gt;Node68</title>
<path fill="none" stroke="midnightblue" d="M560.18,-165.56C568.53,-166.14 577.18,-166.74 585.57,-167.32"/>
<polygon fill="midnightblue" stroke="midnightblue" points="585.4,-170.82 595.62,-168.02 585.89,-163.83 585.4,-170.82"/>
</g>
<!-- Node437&#45;&gt;Node31 -->
<g id="edge14" class="edge">
<title>Node437&#45;&gt;Node31</title>
<path fill="none" stroke="midnightblue" d="M386.05,-238C435.27,-238 532.46,-238 590.84,-238"/>
<polygon fill="midnightblue" stroke="midnightblue" points="590.92,-241.5 600.92,-238 590.92,-234.5 590.92,-241.5"/>
</g>
<!-- Node253 -->
<g id="node11" class="node">
<title>Node253</title>
<g id="a_node11"><a xlink:href="quickjs_8c.html#a2bf30c9cddfe98a32535843202495069" target="_top" xlink:title=" ">
<polygon fill="none" stroke="black" points="466,-114.5 466,-133.5 550,-133.5 550,-114.5 466,-114.5"/>
<text text-anchor="middle" x="508" y="-121.5" font-family="Helvetica,sans-Serif" font-size="10.00">JS_ToBoolFree</text>
</a>
</g>
</g>
<!-- Node437&#45;&gt;Node253 -->
<g id="edge15" class="edge">
<title>Node437&#45;&gt;Node253</title>
<path fill="none" stroke="midnightblue" d="M363.37,-228.31C379.13,-209.48 416.46,-167.62 456,-143 459.15,-141.04 462.54,-139.23 466.02,-137.57"/>
<polygon fill="midnightblue" stroke="midnightblue" points="467.53,-140.73 475.32,-133.55 464.75,-134.31 467.53,-140.73"/>
</g>
<!-- Node253&#45;&gt;Node32 -->
<g id="edge16" class="edge">
<title>Node253&#45;&gt;Node32</title>
<path fill="none" stroke="midnightblue" d="M550.33,-120.81C562.83,-119.84 576.67,-118.77 589.62,-117.77"/>
<polygon fill="midnightblue" stroke="midnightblue" points="590.06,-121.25 599.76,-116.99 589.52,-114.27 590.06,-121.25"/>
</g>
</g>
</svg>
        <g id="navigator" transform="translate(0 0)" fill="#404254">
                <rect fill="#f2f5e9" fill-opacity="0.5" stroke="#606060" stroke-width=".5" x="0" y="0" width="60" height="60"/>
                <use id="zoomplus" xlink:href="#zoomPlus" x="17" y="9" onmousedown="handleZoom(evt,'in')"/>
                <use id="zoomminus" xlink:href="#zoomMin" x="42" y="9" onmousedown="handleZoom(evt,'out')"/>
                <use id="reset" xlink:href="#resetDef" x="30" y="36" onmousedown="handleReset()"/>
                <g id="arrowUp" xlink:href="#dirArrow" transform="translate(30 24)" onmousedown="handlePan(0,-1)">
                  <use xlink:href="#rim" fill="#404040">
                        <set attributeName="fill" to="#808080" begin="arrowUp.mouseover" end="arrowUp.mouseout"/>
                  </use>
                  <path fill="none" stroke="white" stroke-width="1.5" d="M0,-3.0v7 M-2.5,-0.5L0,-3.0L2.5,-0.5"/>
                </g>
                <g id="arrowRight" xlink:href="#dirArrow" transform="rotate(90) translate(36 -43)" onmousedown="handlePan(1,0)">
                  <use xlink:href="#rim" fill="#404040">
                        <set attributeName="fill" to="#808080" begin="arrowRight.mouseover" end="arrowRight.mouseout"/>
                  </use>
                  <path fill="none" stroke="white" stroke-width="1.5" d="M0,-3.0v7 M-2.5,-0.5L0,-3.0L2.5,-0.5"/>
                </g>
                <g id="arrowDown" xlink:href="#dirArrow" transform="rotate(180) translate(-30 -48)" onmousedown="handlePan(0,1)">
                  <use xlink:href="#rim" fill="#404040">
                        <set attributeName="fill" to="#808080" begin="arrowDown.mouseover" end="arrowDown.mouseout"/>
                  </use>
                  <path fill="none" stroke="white" stroke-width="1.5" d="M0,-3.0v7 M-2.5,-0.5L0,-3.0L2.5,-0.5"/>
                </g>
                <g id="arrowLeft" xlink:href="#dirArrow" transform="rotate(270) translate(-36 17)" onmousedown="handlePan(-1,0)">
                  <use xlink:href="#rim" fill="#404040">
                        <set attributeName="fill" to="#808080" begin="arrowLeft.mouseover" end="arrowLeft.mouseout"/>
                  </use>
                  <path fill="none" stroke="white" stroke-width="1.5" d="M0,-3.0v7 M-2.5,-0.5L0,-3.0L2.5,-0.5"/>
                </g>
        </g>
        <svg viewBox="0 0 15 15" width="100%" height="30px" preserveAspectRatio="xMaxYMin meet">
         <g id="arrow_out" transform="scale(0.3 0.3)">
          <a xlink:href="quickjs_8c_a7669dd0ce9d8af7c46740d2f9c1e7af7_cgraph_org.svg" target="_base">
           <rect id="button" ry="5" rx="5" y="6" x="6" height="38" width="38"
                fill="#f2f5e9" fill-opacity="0.5" stroke="#606060" stroke-width="1.0"/>
           <path id="arrow"
             d="M 11.500037,31.436501 C 11.940474,20.09759 22.043105,11.32322 32.158766,21.979434 L 37.068811,17.246167 C 37.068811,17.246167 37.088388,32 37.088388,32 L 22.160133,31.978069 C 22.160133,31.978069 26.997745,27.140456 26.997745,27.140456 C 18.528582,18.264221 13.291696,25.230495 11.500037,31.436501 z"
             style="fill:#404040;"/>
          </a>
         </g>
        </svg>
</svg>
