<?xml version="1.0" encoding="UTF-8" standalone="no"?>
<!DOCTYPE svg PUBLIC "-//W3C//DTD SVG 1.1//EN"
 "http://www.w3.org/Graphics/SVG/1.1/DTD/svg11.dtd">
<!-- Generated by graphviz version 2.43.0 (0)
 -->
<!-- Title: js_relational_slow Pages: 1 -->
<svg width="675pt" height="237pt"
 viewBox="0.00 0.00 675.00 237.00" xmlns="http://www.w3.org/2000/svg" xmlns:xlink="http://www.w3.org/1999/xlink">
<g id="graph0" class="graph" transform="scale(1 1) rotate(0) translate(4 233)">
<title>js_relational_slow</title>
<!-- Node1 -->
<g id="node1" class="node">
<title>Node1</title>
<g id="a_node1"><a xlink:title=" ">
<polygon fill="#bfbfbf" stroke="black" points="0,-114.5 0,-133.5 104,-133.5 104,-114.5 0,-114.5"/>
<text text-anchor="middle" x="52" y="-121.5" font-family="Helvetica,sans-Serif" font-size="10.00">js_relational_slow</text>
</a>
</g>
</g>
<!-- Node2 -->
<g id="node2" class="node">
<title>Node2</title>
<g id="a_node2"><a xlink:href="quickjs_8h.html#afaa20c47565bc704c6c85f3d77254e7d" target="_top" xlink:title=" ">
<polygon fill="none" stroke="black" points="298.5,-209.5 298.5,-228.5 377.5,-228.5 377.5,-209.5 298.5,-209.5"/>
<text text-anchor="middle" x="338" y="-216.5" font-family="Helvetica,sans-Serif" font-size="10.00">JS_FreeValue</text>
</a>
</g>
</g>
<!-- Node1&#45;&gt;Node2 -->
<g id="edge1" class="edge">
<title>Node1&#45;&gt;Node2</title>
<path fill="none" stroke="midnightblue" d="M60.39,-133.54C74.03,-150.36 105.01,-184.91 140,-200 187.41,-220.44 247.04,-223.43 288.21,-222.42"/>
<polygon fill="midnightblue" stroke="midnightblue" points="288.38,-225.91 298.26,-222.08 288.14,-218.92 288.38,-225.91"/>
</g>
<!-- Node40 -->
<g id="node5" class="node">
<title>Node40</title>
<g id="a_node5"><a xlink:href="quickjs_8h.html#ad80a83d73e9b7d872b88fbf2943aebe9" target="_top" xlink:title=" ">
<polygon fill="none" stroke="black" points="436,-133.5 436,-152.5 523,-152.5 523,-133.5 436,-133.5"/>
<text text-anchor="middle" x="479.5" y="-140.5" font-family="Helvetica,sans-Serif" font-size="10.00">JS_IsException</text>
</a>
</g>
</g>
<!-- Node1&#45;&gt;Node40 -->
<g id="edge4" class="edge">
<title>Node1&#45;&gt;Node40</title>
<path fill="none" stroke="midnightblue" d="M104.33,-126.29C185.72,-129.93 343.59,-136.98 425.83,-140.65"/>
<polygon fill="midnightblue" stroke="midnightblue" points="425.8,-144.15 435.95,-141.1 426.12,-137.16 425.8,-144.15"/>
</g>
<!-- Node41 -->
<g id="node6" class="node">
<title>Node41</title>
<g id="a_node6"><a xlink:href="quickjs_8h.html#a93abffa925714e249a6aa2f4ae7900f6" target="_top" xlink:title=" ">
<polygon fill="none" stroke="black" points="156.5,-57.5 156.5,-76.5 230.5,-76.5 230.5,-57.5 156.5,-57.5"/>
<text text-anchor="middle" x="193.5" y="-64.5" font-family="Helvetica,sans-Serif" font-size="10.00">JS_NewBool</text>
</a>
</g>
</g>
<!-- Node1&#45;&gt;Node41 -->
<g id="edge5" class="edge">
<title>Node1&#45;&gt;Node41</title>
<path fill="none" stroke="midnightblue" d="M73.94,-114.4C91.46,-106.48 117.19,-95.1 140,-86 144.94,-84.03 150.17,-82.03 155.34,-80.11"/>
<polygon fill="midnightblue" stroke="midnightblue" points="156.94,-83.25 165.13,-76.53 154.53,-76.68 156.94,-83.25"/>
</g>
<!-- Node42 -->
<g id="node7" class="node">
<title>Node42</title>
<g id="a_node7"><a xlink:href="quickjs_8c.html#a3d9b165d4274aa43e051caba9bcbbe9f" target="_top" xlink:title=" ">
<polygon fill="none" stroke="black" points="140.5,-19.5 140.5,-38.5 246.5,-38.5 246.5,-19.5 140.5,-19.5"/>
<text text-anchor="middle" x="193.5" y="-26.5" font-family="Helvetica,sans-Serif" font-size="10.00">js_string_compare</text>
</a>
</g>
</g>
<!-- Node1&#45;&gt;Node42 -->
<g id="edge6" class="edge">
<title>Node1&#45;&gt;Node42</title>
<path fill="none" stroke="midnightblue" d="M61.75,-114.31C76.5,-98.48 107.86,-66.94 140,-48 143.42,-45.98 147.1,-44.12 150.86,-42.42"/>
<polygon fill="midnightblue" stroke="midnightblue" points="152.37,-45.58 160.27,-38.53 149.69,-39.12 152.37,-45.58"/>
</g>
<!-- Node47 -->
<g id="node12" class="node">
<title>Node47</title>
<g id="a_node12"><a xlink:href="quickjs_8c.html#ab1b614ef35f1cea05da0ad4927c53118" target="_top" xlink:title=" ">
<polygon fill="none" stroke="black" points="144,-95.5 144,-114.5 243,-114.5 243,-95.5 144,-95.5"/>
<text text-anchor="middle" x="193.5" y="-102.5" font-family="Helvetica,sans-Serif" font-size="10.00">JS_ToFloat64Free</text>
</a>
</g>
</g>
<!-- Node1&#45;&gt;Node47 -->
<g id="edge11" class="edge">
<title>Node1&#45;&gt;Node47</title>
<path fill="none" stroke="midnightblue" d="M104.15,-117.03C113.73,-115.73 123.82,-114.35 133.61,-113.02"/>
<polygon fill="midnightblue" stroke="midnightblue" points="134.24,-116.47 143.68,-111.65 133.3,-109.53 134.24,-116.47"/>
</g>
<!-- Node97 -->
<g id="node15" class="node">
<title>Node97</title>
<g id="a_node15"><a xlink:href="quickjs_8c.html#abac33881bb91f8c31106f616d81b67e8" target="_top" xlink:title=" ">
<polygon fill="none" stroke="red" points="140,-171.5 140,-190.5 247,-190.5 247,-171.5 140,-171.5"/>
<text text-anchor="middle" x="193.5" y="-178.5" font-family="Helvetica,sans-Serif" font-size="10.00">JS_ToPrimitiveFree</text>
</a>
</g>
</g>
<!-- Node1&#45;&gt;Node97 -->
<g id="edge15" class="edge">
<title>Node1&#45;&gt;Node97</title>
<path fill="none" stroke="midnightblue" d="M76.35,-133.54C99.18,-142.87 134.16,-157.16 159.76,-167.62"/>
<polygon fill="midnightblue" stroke="midnightblue" points="158.49,-170.89 169.07,-171.43 161.14,-164.41 158.49,-170.89"/>
</g>
<!-- Node3 -->
<g id="node3" class="node">
<title>Node3</title>
<g id="a_node3"><a xlink:href="quickjs_8c.html#aa059f309c30fd5166d16c82a97973146" target="_top" xlink:title=" ">
<polygon fill="none" stroke="black" points="435,-209.5 435,-228.5 524,-228.5 524,-209.5 435,-209.5"/>
<text text-anchor="middle" x="479.5" y="-216.5" font-family="Helvetica,sans-Serif" font-size="10.00">__JS_FreeValue</text>
</a>
</g>
</g>
<!-- Node2&#45;&gt;Node3 -->
<g id="edge2" class="edge">
<title>Node2&#45;&gt;Node3</title>
<path fill="none" stroke="midnightblue" d="M377.86,-219C392.41,-219 409.2,-219 424.86,-219"/>
<polygon fill="midnightblue" stroke="midnightblue" points="424.94,-222.5 434.94,-219 424.94,-215.5 424.94,-222.5"/>
</g>
<!-- Node4 -->
<g id="node4" class="node">
<title>Node4</title>
<g id="a_node4"><a xlink:href="quickjs_8c.html#ab1ea3fad7d138be12144a38be4d36423" target="_top" xlink:title=" ">
<polygon fill="none" stroke="red" points="566,-209.5 566,-228.5 667,-228.5 667,-209.5 566,-209.5"/>
<text text-anchor="middle" x="616.5" y="-216.5" font-family="Helvetica,sans-Serif" font-size="10.00">__JS_FreeValueRT</text>
</a>
</g>
</g>
<!-- Node3&#45;&gt;Node4 -->
<g id="edge3" class="edge">
<title>Node3&#45;&gt;Node4</title>
<path fill="none" stroke="midnightblue" d="M524.33,-219C534.37,-219 545.2,-219 555.78,-219"/>
<polygon fill="midnightblue" stroke="midnightblue" points="555.8,-222.5 565.8,-219 555.8,-215.5 555.8,-222.5"/>
</g>
<!-- Node43 -->
<g id="node8" class="node">
<title>Node43</title>
<g id="a_node8"><a xlink:href="quickjs_8c.html#aa3b85ecf2f1fbd87cb38b78548286017" target="_top" xlink:title=" ">
<polygon fill="none" stroke="black" points="283,-38.5 283,-57.5 393,-57.5 393,-38.5 283,-38.5"/>
<text text-anchor="middle" x="338" y="-45.5" font-family="Helvetica,sans-Serif" font-size="10.00">js_string_memcmp</text>
</a>
</g>
</g>
<!-- Node42&#45;&gt;Node43 -->
<g id="edge7" class="edge">
<title>Node42&#45;&gt;Node43</title>
<path fill="none" stroke="midnightblue" d="M246.75,-35.97C255.2,-37.09 264.04,-38.27 272.73,-39.43"/>
<polygon fill="midnightblue" stroke="midnightblue" points="272.47,-42.93 282.84,-40.78 273.39,-35.99 272.47,-42.93"/>
</g>
<!-- Node46 -->
<g id="node11" class="node">
<title>Node46</title>
<g id="a_node11"><a xlink:href="cutils_8h.html#a29a7a26d9387c01c1b4e9fe4fff5704a" target="_top" xlink:title=" ">
<polygon fill="none" stroke="black" points="311.5,-0.5 311.5,-19.5 364.5,-19.5 364.5,-0.5 311.5,-0.5"/>
<text text-anchor="middle" x="338" y="-7.5" font-family="Helvetica,sans-Serif" font-size="10.00">min_int</text>
</a>
</g>
</g>
<!-- Node42&#45;&gt;Node46 -->
<g id="edge10" class="edge">
<title>Node42&#45;&gt;Node46</title>
<path fill="none" stroke="midnightblue" d="M246.75,-22.03C264.74,-19.64 284.46,-17 300.87,-14.82"/>
<polygon fill="midnightblue" stroke="midnightblue" points="301.68,-18.24 311.13,-13.45 300.75,-11.3 301.68,-18.24"/>
</g>
<!-- Node44 -->
<g id="node9" class="node">
<title>Node44</title>
<g id="a_node9"><a xlink:href="quickjs_8c.html#a98e9fec451d6851cae6d0d92ea860a26" target="_top" xlink:title=" ">
<polygon fill="none" stroke="black" points="442,-38.5 442,-57.5 517,-57.5 517,-38.5 442,-38.5"/>
<text text-anchor="middle" x="479.5" y="-45.5" font-family="Helvetica,sans-Serif" font-size="10.00">memcmp16</text>
</a>
</g>
</g>
<!-- Node43&#45;&gt;Node44 -->
<g id="edge8" class="edge">
<title>Node43&#45;&gt;Node44</title>
<path fill="none" stroke="midnightblue" d="M393.33,-48C406,-48 419.39,-48 431.7,-48"/>
<polygon fill="midnightblue" stroke="midnightblue" points="431.75,-51.5 441.75,-48 431.75,-44.5 431.75,-51.5"/>
</g>
<!-- Node45 -->
<g id="node10" class="node">
<title>Node45</title>
<g id="a_node10"><a xlink:href="quickjs_8c.html#add253cbbb280615066466e7fb8bef776" target="_top" xlink:title=" ">
<polygon fill="none" stroke="black" points="436.5,-0.5 436.5,-19.5 522.5,-19.5 522.5,-0.5 436.5,-0.5"/>
<text text-anchor="middle" x="479.5" y="-7.5" font-family="Helvetica,sans-Serif" font-size="10.00">memcmp16_8</text>
</a>
</g>
</g>
<!-- Node43&#45;&gt;Node45 -->
<g id="edge9" class="edge">
<title>Node43&#45;&gt;Node45</title>
<path fill="none" stroke="midnightblue" d="M374.2,-38.41C392.21,-33.51 414.33,-27.48 433.56,-22.24"/>
<polygon fill="midnightblue" stroke="midnightblue" points="434.58,-25.59 443.31,-19.59 432.74,-18.84 434.58,-25.59"/>
</g>
<!-- Node48 -->
<g id="node13" class="node">
<title>Node48</title>
<g id="a_node13"><a xlink:href="quickjs_8c.html#a9a2e141f21d9ea38a3a23c9b4eb6e356" target="_top" xlink:title=" ">
<polygon fill="none" stroke="black" points="283,-95.5 283,-114.5 393,-114.5 393,-95.5 283,-95.5"/>
<text text-anchor="middle" x="338" y="-102.5" font-family="Helvetica,sans-Serif" font-size="10.00">__JS_ToFloat64Free</text>
</a>
</g>
</g>
<!-- Node47&#45;&gt;Node48 -->
<g id="edge12" class="edge">
<title>Node47&#45;&gt;Node48</title>
<path fill="none" stroke="midnightblue" d="M243.14,-105C252.6,-105 262.64,-105 272.52,-105"/>
<polygon fill="midnightblue" stroke="midnightblue" points="272.71,-108.5 282.71,-105 272.71,-101.5 272.71,-108.5"/>
</g>
<!-- Node48&#45;&gt;Node40 -->
<g id="edge13" class="edge">
<title>Node48&#45;&gt;Node40</title>
<path fill="none" stroke="midnightblue" d="M374.2,-114.59C392.21,-119.49 414.33,-125.52 433.56,-130.76"/>
<polygon fill="midnightblue" stroke="midnightblue" points="432.74,-134.16 443.31,-133.41 434.58,-127.41 432.74,-134.16"/>
</g>
<!-- Node49 -->
<g id="node14" class="node">
<title>Node49</title>
<g id="a_node14"><a xlink:href="quickjs_8c.html#ae738291483438efefca5c9fa4d269504" target="_top" xlink:title=" ">
<polygon fill="none" stroke="red" points="429,-95.5 429,-114.5 530,-114.5 530,-95.5 429,-95.5"/>
<text text-anchor="middle" x="479.5" y="-102.5" font-family="Helvetica,sans-Serif" font-size="10.00">JS_ToNumberFree</text>
</a>
</g>
</g>
<!-- Node48&#45;&gt;Node49 -->
<g id="edge14" class="edge">
<title>Node48&#45;&gt;Node49</title>
<path fill="none" stroke="midnightblue" d="M393.33,-105C401.6,-105 410.17,-105 418.55,-105"/>
<polygon fill="midnightblue" stroke="midnightblue" points="418.64,-108.5 428.64,-105 418.64,-101.5 418.64,-108.5"/>
</g>
<!-- Node97&#45;&gt;Node2 -->
<g id="edge16" class="edge">
<title>Node97&#45;&gt;Node2</title>
<path fill="none" stroke="midnightblue" d="M230.46,-190.59C248.94,-195.52 271.66,-201.57 291.36,-206.83"/>
<polygon fill="midnightblue" stroke="midnightblue" points="290.49,-210.22 301.05,-209.41 292.29,-203.46 290.49,-210.22"/>
</g>
<!-- Node97&#45;&gt;Node40 -->
<g id="edge17" class="edge">
<title>Node97&#45;&gt;Node40</title>
<path fill="none" stroke="midnightblue" d="M247.24,-175.23C287.28,-170.71 343.68,-164.02 393,-157 403.61,-155.49 414.93,-153.74 425.75,-151.99"/>
<polygon fill="midnightblue" stroke="midnightblue" points="426.63,-155.4 435.93,-150.33 425.5,-148.49 426.63,-155.4"/>
</g>
</g>
</svg>
