<?xml version="1.0" encoding="UTF-8" standalone="no"?>
<!DOCTYPE svg PUBLIC "-//W3C//DTD SVG 1.1//EN"
 "http://www.w3.org/Graphics/SVG/1.1/DTD/svg11.dtd">
<!-- Generated by graphviz version 2.43.0 (0)
 -->
<!-- Title: js_string___quote Pages: 1 -->
<!--zoomable 370 -->
<svg id="main" version="1.1" xmlns="http://www.w3.org/2000/svg" xmlns:xlink="http://www.w3.org/1999/xlink" xml:space="preserve" onload="init(evt)">
<style type="text/css"><![CDATA[
.edge:hover path { stroke: red; }
.edge:hover polygon { stroke: red; fill: red; }
]]></style>
<script type="text/javascript"><![CDATA[
var edges = document.getElementsByTagName('g');
if (edges && edges.length) {
  for (var i=0;i<edges.length;i++) {
    if (edges[i].id.substr(0,4)=='edge') {
      edges[i].setAttribute('class','edge');
    }
  }
}
]]></script>
        <defs>
                <circle id="rim" cx="0" cy="0" r="7"/>
                <circle id="rim2" cx="0" cy="0" r="3.5"/>
                <g id="zoomPlus">
                        <use xlink:href="#rim" fill="#404040">
                                <set attributeName="fill" to="#808080" begin="zoomplus.mouseover" end="zoomplus.mouseout"/>
                        </use>
                        <path d="M-4,0h8M0,-4v8" fill="none" stroke="white" stroke-width="1.5" pointer-events="none"/>
                </g>
                <g id="zoomMin">
                        <use xlink:href="#rim" fill="#404040">
                                <set attributeName="fill" to="#808080" begin="zoomminus.mouseover" end="zoomminus.mouseout"/>
                        </use>
                        <path d="M-4,0h8" fill="none" stroke="white" stroke-width="1.5" pointer-events="none"/>
                </g>
                <g id="dirArrow">
                        <path fill="none" stroke="white" stroke-width="1.5" d="M0,-3.0v7 M-2.5,-0.5L0,-3.0L2.5,-0.5"/>
                </g>
               <g id="resetDef">
                       <use xlink:href="#rim2" fill="#404040">
                               <set attributeName="fill" to="#808080" begin="reset.mouseover" end="reset.mouseout"/>
                       </use>
               </g>
        </defs>

<script type="text/javascript">
var viewWidth = 569;
var viewHeight = 370;
var sectionId = 'dynsection-1569';
</script>
<script xlink:href="svgpan.js"/>
<svg id="graph" class="graph">
<g id="viewport">
<title>js_string___quote</title>
<!-- Node1 -->
<g id="node1" class="node">
<title>Node1</title>
<g id="a_node1"><a xlink:title=" ">
<polygon fill="#bfbfbf" stroke="black" points="0,-171.5 0,-190.5 101,-190.5 101,-171.5 0,-171.5"/>
<text text-anchor="middle" x="50.5" y="-178.5" font-family="Helvetica,sans-Serif" font-size="10.00">js_string___quote</text>
</a>
</g>
</g>
<!-- Node2 -->
<g id="node2" class="node">
<title>Node2</title>
<g id="a_node2"><a xlink:href="quickjs_8c.html#ae5057ca2d025c62cc64ba12541f7925b" target="_top" xlink:title=" ">
<polygon fill="none" stroke="black" points="137,-171.5 137,-190.5 242,-190.5 242,-171.5 137,-171.5"/>
<text text-anchor="middle" x="189.5" y="-178.5" font-family="Helvetica,sans-Serif" font-size="10.00">JS_ToQuotedString</text>
</a>
</g>
</g>
<!-- Node1&#45;&gt;Node2 -->
<g id="edge1" class="edge">
<title>Node1&#45;&gt;Node2</title>
<path fill="none" stroke="midnightblue" d="M101.35,-181C109.51,-181 118.05,-181 126.46,-181"/>
<polygon fill="midnightblue" stroke="midnightblue" points="126.62,-184.5 136.62,-181 126.62,-177.5 126.62,-184.5"/>
</g>
<!-- Node3 -->
<g id="node3" class="node">
<title>Node3</title>
<g id="a_node3"><a xlink:href="quickjs_8h.html#afaa20c47565bc704c6c85f3d77254e7d" target="_top" xlink:title=" ">
<polygon fill="none" stroke="black" points="304,-342.5 304,-361.5 383,-361.5 383,-342.5 304,-342.5"/>
<text text-anchor="middle" x="343.5" y="-349.5" font-family="Helvetica,sans-Serif" font-size="10.00">JS_FreeValue</text>
</a>
</g>
</g>
<!-- Node2&#45;&gt;Node3 -->
<g id="edge2" class="edge">
<title>Node2&#45;&gt;Node3</title>
<path fill="none" stroke="midnightblue" d="M193.21,-190.51C201.33,-217.22 228.02,-293.61 278,-333 282.76,-336.75 288.24,-339.76 293.95,-342.18"/>
<polygon fill="midnightblue" stroke="midnightblue" points="293.1,-345.59 303.7,-345.71 295.49,-339.01 293.1,-345.59"/>
</g>
<!-- Node41 -->
<g id="node5" class="node">
<title>Node41</title>
<g id="a_node5"><a xlink:href="quickjs_8h.html#ad80a83d73e9b7d872b88fbf2943aebe9" target="_top" xlink:title=" ">
<polygon fill="none" stroke="black" points="300,-304.5 300,-323.5 387,-323.5 387,-304.5 300,-304.5"/>
<text text-anchor="middle" x="343.5" y="-311.5" font-family="Helvetica,sans-Serif" font-size="10.00">JS_IsException</text>
</a>
</g>
</g>
<!-- Node2&#45;&gt;Node41 -->
<g id="edge4" class="edge">
<title>Node2&#45;&gt;Node41</title>
<path fill="none" stroke="midnightblue" d="M195.15,-190.6C206.29,-212.53 236.65,-266.63 278,-295 281.78,-297.6 285.93,-299.84 290.23,-301.79"/>
<polygon fill="midnightblue" stroke="midnightblue" points="289.24,-305.16 299.83,-305.58 291.81,-298.65 289.24,-305.16"/>
</g>
<!-- Node42 -->
<g id="node6" class="node">
<title>Node42</title>
<g id="a_node6"><a xlink:href="quickjs_8c.html#a4d1d0760c9f9efcb8c0a8db414e46c8a" target="_top" xlink:title=" ">
<polygon fill="none" stroke="black" points="278,-266.5 278,-285.5 409,-285.5 409,-266.5 278,-266.5"/>
<text text-anchor="middle" x="343.5" y="-273.5" font-family="Helvetica,sans-Serif" font-size="10.00">JS_ToStringCheckObject</text>
</a>
</g>
</g>
<!-- Node2&#45;&gt;Node42 -->
<g id="edge5" class="edge">
<title>Node2&#45;&gt;Node42</title>
<path fill="none" stroke="midnightblue" d="M198.95,-190.65C213.52,-206.71 244.99,-238.93 278,-257 282.03,-259.2 286.34,-261.18 290.75,-262.94"/>
<polygon fill="midnightblue" stroke="midnightblue" points="289.91,-266.36 300.5,-266.48 292.29,-259.78 289.91,-266.36"/>
</g>
<!-- Node57 -->
<g id="node8" class="node">
<title>Node57</title>
<g id="a_node8"><a xlink:href="quickjs_8c.html#accfc3d1dcaa88c88402cb245ccaf4fdb" target="_top" xlink:title=" ">
<polygon fill="none" stroke="red" points="293,-228.5 293,-247.5 394,-247.5 394,-228.5 293,-228.5"/>
<text text-anchor="middle" x="343.5" y="-235.5" font-family="Helvetica,sans-Serif" font-size="10.00">string_buffer_end</text>
</a>
</g>
</g>
<!-- Node2&#45;&gt;Node57 -->
<g id="edge7" class="edge">
<title>Node2&#45;&gt;Node57</title>
<path fill="none" stroke="midnightblue" d="M210.72,-190.63C228.27,-198.78 254.49,-210.47 278,-219 284.12,-221.22 290.64,-223.38 297.09,-225.39"/>
<polygon fill="midnightblue" stroke="midnightblue" points="296.51,-228.87 307.1,-228.42 298.54,-222.17 296.51,-228.87"/>
</g>
<!-- Node58 -->
<g id="node9" class="node">
<title>Node58</title>
<g id="a_node9"><a xlink:href="quickjs_8c.html#a266b4993a59d9e34537386e62b9f3d4f" target="_top" xlink:title=" ">
<polygon fill="none" stroke="red" points="292,-190.5 292,-209.5 395,-209.5 395,-190.5 292,-190.5"/>
<text text-anchor="middle" x="343.5" y="-197.5" font-family="Helvetica,sans-Serif" font-size="10.00">string_buffer_free</text>
</a>
</g>
</g>
<!-- Node2&#45;&gt;Node58 -->
<g id="edge8" class="edge">
<title>Node2&#45;&gt;Node58</title>
<path fill="none" stroke="midnightblue" d="M242.38,-187.49C255.01,-189.06 268.62,-190.76 281.62,-192.39"/>
<polygon fill="midnightblue" stroke="midnightblue" points="281.52,-195.9 291.88,-193.67 282.39,-188.96 281.52,-195.9"/>
</g>
<!-- Node59 -->
<g id="node10" class="node">
<title>Node59</title>
<g id="a_node10"><a xlink:href="quickjs_8c.html#a9c11961b0adafedd064b294612d0c2f3" target="_top" xlink:title=" ">
<polygon fill="none" stroke="red" points="294,-152.5 294,-171.5 393,-171.5 393,-152.5 294,-152.5"/>
<text text-anchor="middle" x="343.5" y="-159.5" font-family="Helvetica,sans-Serif" font-size="10.00">string_buffer_init</text>
</a>
</g>
</g>
<!-- Node2&#45;&gt;Node59 -->
<g id="edge9" class="edge">
<title>Node2&#45;&gt;Node59</title>
<path fill="none" stroke="midnightblue" d="M242.38,-174.51C255.68,-172.85 270.07,-171.05 283.69,-169.35"/>
<polygon fill="midnightblue" stroke="midnightblue" points="284.43,-172.79 293.92,-168.07 283.56,-165.84 284.43,-172.79"/>
</g>
<!-- Node437 -->
<g id="node11" class="node">
<title>Node437</title>
<g id="a_node11"><a xlink:href="quickjs_8c.html#a8d79794c85d33dd8409cdb39f2c2fc74" target="_top" xlink:title=" ">
<polygon fill="none" stroke="black" points="291.5,-114.5 291.5,-133.5 395.5,-133.5 395.5,-114.5 291.5,-114.5"/>
<text text-anchor="middle" x="343.5" y="-121.5" font-family="Helvetica,sans-Serif" font-size="10.00">string_buffer_putc</text>
</a>
</g>
</g>
<!-- Node2&#45;&gt;Node437 -->
<g id="edge10" class="edge">
<title>Node2&#45;&gt;Node437</title>
<path fill="none" stroke="midnightblue" d="M210.72,-171.37C228.27,-163.22 254.49,-151.53 278,-143 284.12,-140.78 290.64,-138.62 297.09,-136.61"/>
<polygon fill="midnightblue" stroke="midnightblue" points="298.54,-139.83 307.1,-133.58 296.51,-133.13 298.54,-139.83"/>
</g>
<!-- Node68 -->
<g id="node13" class="node">
<title>Node68</title>
<g id="a_node13"><a xlink:href="quickjs_8c.html#a874fcee73f61cc997ec1d10cc6711554" target="_top" xlink:title=" ">
<polygon fill="none" stroke="red" points="288.5,-76.5 288.5,-95.5 398.5,-95.5 398.5,-76.5 288.5,-76.5"/>
<text text-anchor="middle" x="343.5" y="-83.5" font-family="Helvetica,sans-Serif" font-size="10.00">string_buffer_putc8</text>
</a>
</g>
</g>
<!-- Node2&#45;&gt;Node68 -->
<g id="edge12" class="edge">
<title>Node2&#45;&gt;Node68</title>
<path fill="none" stroke="midnightblue" d="M198.95,-171.35C213.52,-155.29 244.99,-123.07 278,-105 282.03,-102.8 286.34,-100.82 290.75,-99.06"/>
<polygon fill="midnightblue" stroke="midnightblue" points="292.29,-102.22 300.5,-95.52 289.91,-95.64 292.29,-102.22"/>
</g>
<!-- Node438 -->
<g id="node14" class="node">
<title>Node438</title>
<g id="a_node14"><a xlink:href="quickjs_8c.html#a64bdafbabe72b0b23fa14ef7329690c9" target="_top" xlink:title=" ">
<polygon fill="none" stroke="black" points="288.5,-38.5 288.5,-57.5 398.5,-57.5 398.5,-38.5 288.5,-38.5"/>
<text text-anchor="middle" x="343.5" y="-45.5" font-family="Helvetica,sans-Serif" font-size="10.00">string_buffer_puts8</text>
</a>
</g>
</g>
<!-- Node2&#45;&gt;Node438 -->
<g id="edge13" class="edge">
<title>Node2&#45;&gt;Node438</title>
<path fill="none" stroke="midnightblue" d="M195.15,-171.4C206.29,-149.47 236.65,-95.37 278,-67 280.93,-64.99 284.07,-63.19 287.34,-61.58"/>
<polygon fill="midnightblue" stroke="midnightblue" points="288.98,-64.68 296.79,-57.52 286.22,-58.25 288.98,-64.68"/>
</g>
<!-- Node439 -->
<g id="node16" class="node">
<title>Node439</title>
<g id="a_node16"><a xlink:href="quickjs_8c.html#ae94a3705c1c334ae8719767ae53719c2" target="_top" xlink:title=" ">
<polygon fill="none" stroke="black" points="308,-0.5 308,-19.5 379,-19.5 379,-0.5 308,-0.5"/>
<text text-anchor="middle" x="343.5" y="-7.5" font-family="Helvetica,sans-Serif" font-size="10.00">string_getc</text>
</a>
</g>
</g>
<!-- Node2&#45;&gt;Node439 -->
<g id="edge15" class="edge">
<title>Node2&#45;&gt;Node439</title>
<path fill="none" stroke="midnightblue" d="M193.21,-171.49C201.33,-144.78 228.02,-68.39 278,-29 283.86,-24.38 290.82,-20.88 297.96,-18.23"/>
<polygon fill="midnightblue" stroke="midnightblue" points="299.26,-21.5 307.72,-15.13 297.13,-14.83 299.26,-21.5"/>
</g>
<!-- Node4 -->
<g id="node4" class="node">
<title>Node4</title>
<g id="a_node4"><a xlink:href="quickjs_8c.html#aa059f309c30fd5166d16c82a97973146" target="_top" xlink:title=" ">
<polygon fill="none" stroke="red" points="458.5,-342.5 458.5,-361.5 547.5,-361.5 547.5,-342.5 458.5,-342.5"/>
<text text-anchor="middle" x="503" y="-349.5" font-family="Helvetica,sans-Serif" font-size="10.00">__JS_FreeValue</text>
</a>
</g>
</g>
<!-- Node3&#45;&gt;Node4 -->
<g id="edge3" class="edge">
<title>Node3&#45;&gt;Node4</title>
<path fill="none" stroke="midnightblue" d="M383.03,-352C402.59,-352 426.69,-352 448.06,-352"/>
<polygon fill="midnightblue" stroke="midnightblue" points="448.31,-355.5 458.31,-352 448.31,-348.5 448.31,-355.5"/>
</g>
<!-- Node43 -->
<g id="node7" class="node">
<title>Node43</title>
<g id="a_node7"><a xlink:href="quickjs_8c.html#a7bcb8e1a20cbc8374a5f9ba4a2088cec" target="_top" xlink:title=" ">
<polygon fill="none" stroke="red" points="468,-266.5 468,-285.5 538,-285.5 538,-266.5 468,-266.5"/>
<text text-anchor="middle" x="503" y="-273.5" font-family="Helvetica,sans-Serif" font-size="10.00">JS_ToString</text>
</a>
</g>
</g>
<!-- Node42&#45;&gt;Node43 -->
<g id="edge6" class="edge">
<title>Node42&#45;&gt;Node43</title>
<path fill="none" stroke="midnightblue" d="M409.02,-276C425.44,-276 442.73,-276 457.87,-276"/>
<polygon fill="midnightblue" stroke="midnightblue" points="457.98,-279.5 467.98,-276 457.98,-272.5 457.98,-279.5"/>
</g>
<!-- Node61 -->
<g id="node12" class="node">
<title>Node61</title>
<g id="a_node12"><a xlink:href="quickjs_8c.html#a9b8fb6b5ce638616691f7bf7881fa57d" target="_top" xlink:title=" ">
<polygon fill="none" stroke="red" points="445,-114.5 445,-133.5 561,-133.5 561,-114.5 445,-114.5"/>
<text text-anchor="middle" x="503" y="-121.5" font-family="Helvetica,sans-Serif" font-size="10.00">string_buffer_putc16</text>
</a>
</g>
</g>
<!-- Node437&#45;&gt;Node61 -->
<g id="edge11" class="edge">
<title>Node437&#45;&gt;Node61</title>
<path fill="none" stroke="midnightblue" d="M395.64,-124C408.04,-124 421.49,-124 434.52,-124"/>
<polygon fill="midnightblue" stroke="midnightblue" points="434.85,-127.5 444.85,-124 434.85,-120.5 434.85,-127.5"/>
</g>
<!-- Node69 -->
<g id="node15" class="node">
<title>Node69</title>
<g id="a_node15"><a xlink:href="quickjs_8c.html#a0b130652cf11eb0eb9f7e3ee6c5d7c6a" target="_top" xlink:title=" ">
<polygon fill="none" stroke="red" points="446,-38.5 446,-57.5 560,-57.5 560,-38.5 446,-38.5"/>
<text text-anchor="middle" x="503" y="-45.5" font-family="Helvetica,sans-Serif" font-size="10.00">string_buffer_write8</text>
</a>
</g>
</g>
<!-- Node438&#45;&gt;Node69 -->
<g id="edge14" class="edge">
<title>Node438&#45;&gt;Node69</title>
<path fill="none" stroke="midnightblue" d="M398.7,-48C410.59,-48 423.31,-48 435.61,-48"/>
<polygon fill="midnightblue" stroke="midnightblue" points="435.82,-51.5 445.82,-48 435.82,-44.5 435.82,-51.5"/>
</g>
</g>
</svg>
        <g id="navigator" transform="translate(0 0)" fill="#404254">
                <rect fill="#f2f5e9" fill-opacity="0.5" stroke="#606060" stroke-width=".5" x="0" y="0" width="60" height="60"/>
                <use id="zoomplus" xlink:href="#zoomPlus" x="17" y="9" onmousedown="handleZoom(evt,'in')"/>
                <use id="zoomminus" xlink:href="#zoomMin" x="42" y="9" onmousedown="handleZoom(evt,'out')"/>
                <use id="reset" xlink:href="#resetDef" x="30" y="36" onmousedown="handleReset()"/>
                <g id="arrowUp" xlink:href="#dirArrow" transform="translate(30 24)" onmousedown="handlePan(0,-1)">
                  <use xlink:href="#rim" fill="#404040">
                        <set attributeName="fill" to="#808080" begin="arrowUp.mouseover" end="arrowUp.mouseout"/>
                  </use>
                  <path fill="none" stroke="white" stroke-width="1.5" d="M0,-3.0v7 M-2.5,-0.5L0,-3.0L2.5,-0.5"/>
                </g>
                <g id="arrowRight" xlink:href="#dirArrow" transform="rotate(90) translate(36 -43)" onmousedown="handlePan(1,0)">
                  <use xlink:href="#rim" fill="#404040">
                        <set attributeName="fill" to="#808080" begin="arrowRight.mouseover" end="arrowRight.mouseout"/>
                  </use>
                  <path fill="none" stroke="white" stroke-width="1.5" d="M0,-3.0v7 M-2.5,-0.5L0,-3.0L2.5,-0.5"/>
                </g>
                <g id="arrowDown" xlink:href="#dirArrow" transform="rotate(180) translate(-30 -48)" onmousedown="handlePan(0,1)">
                  <use xlink:href="#rim" fill="#404040">
                        <set attributeName="fill" to="#808080" begin="arrowDown.mouseover" end="arrowDown.mouseout"/>
                  </use>
                  <path fill="none" stroke="white" stroke-width="1.5" d="M0,-3.0v7 M-2.5,-0.5L0,-3.0L2.5,-0.5"/>
                </g>
                <g id="arrowLeft" xlink:href="#dirArrow" transform="rotate(270) translate(-36 17)" onmousedown="handlePan(-1,0)">
                  <use xlink:href="#rim" fill="#404040">
                        <set attributeName="fill" to="#808080" begin="arrowLeft.mouseover" end="arrowLeft.mouseout"/>
                  </use>
                  <path fill="none" stroke="white" stroke-width="1.5" d="M0,-3.0v7 M-2.5,-0.5L0,-3.0L2.5,-0.5"/>
                </g>
        </g>
        <svg viewBox="0 0 15 15" width="100%" height="30px" preserveAspectRatio="xMaxYMin meet">
         <g id="arrow_out" transform="scale(0.3 0.3)">
          <a xlink:href="quickjs_8c_ac35792540c2fe73eb3ca6c6a69593e26_cgraph_org.svg" target="_base">
           <rect id="button" ry="5" rx="5" y="6" x="6" height="38" width="38"
                fill="#f2f5e9" fill-opacity="0.5" stroke="#606060" stroke-width="1.0"/>
           <path id="arrow"
             d="M 11.500037,31.436501 C 11.940474,20.09759 22.043105,11.32322 32.158766,21.979434 L 37.068811,17.246167 C 37.068811,17.246167 37.088388,32 37.088388,32 L 22.160133,31.978069 C 22.160133,31.978069 26.997745,27.140456 26.997745,27.140456 C 18.528582,18.264221 13.291696,25.230495 11.500037,31.436501 z"
             style="fill:#404040;"/>
          </a>
         </g>
        </svg>
</svg>
