<?xml version="1.0" encoding="UTF-8" standalone="no"?>
<!DOCTYPE svg PUBLIC "-//W3C//DTD SVG 1.1//EN"
 "http://www.w3.org/Graphics/SVG/1.1/DTD/svg11.dtd">
<!-- Generated by graphviz version 2.43.0 (0)
 -->
<!-- Title: is_child_scope Pages: 1 -->
<svg width="1089pt" height="312pt"
 viewBox="0.00 0.00 1089.00 312.00" xmlns="http://www.w3.org/2000/svg" xmlns:xlink="http://www.w3.org/1999/xlink">
<g id="graph0" class="graph" transform="scale(1 1) rotate(0) translate(4 308)">
<title>is_child_scope</title>
<!-- Node1 -->
<g id="node1" class="node">
<title>Node1</title>
<g id="a_node1"><a xlink:title=" ">
<polygon fill="#bfbfbf" stroke="black" points="994,-66.5 994,-85.5 1081,-85.5 1081,-66.5 994,-66.5"/>
<text text-anchor="middle" x="1037.5" y="-73.5" font-family="Helvetica,sans-Serif" font-size="10.00">is_child_scope</text>
</a>
</g>
</g>
<!-- Node2 -->
<g id="node2" class="node">
<title>Node2</title>
<g id="a_node2"><a xlink:href="quickjs_8c.html#a99125693fff3fd8277f544b15109354b" target="_top" xlink:title=" ">
<polygon fill="none" stroke="black" points="722,-66.5 722,-85.5 790,-85.5 790,-66.5 722,-66.5"/>
<text text-anchor="middle" x="756" y="-73.5" font-family="Helvetica,sans-Serif" font-size="10.00">define_var</text>
</a>
</g>
</g>
<!-- Node1&#45;&gt;Node2 -->
<g id="edge1" class="edge">
<title>Node1&#45;&gt;Node2</title>
<path fill="none" stroke="midnightblue" d="M983.5,-76C926.58,-76 837.88,-76 790.12,-76"/>
<polygon fill="midnightblue" stroke="midnightblue" points="983.75,-79.5 993.75,-76 983.75,-72.5 983.75,-79.5"/>
</g>
<!-- Node40 -->
<g id="node11" class="node">
<title>Node40</title>
<g id="a_node11"><a xlink:href="quickjs_8c.html#ad48dbcc587663ec98a4283179c2b96e9" target="_top" xlink:title=" ">
<polygon fill="none" stroke="black" points="826,-47.5 826,-66.5 958,-66.5 958,-47.5 826,-47.5"/>
<text text-anchor="middle" x="892" y="-54.5" font-family="Helvetica,sans-Serif" font-size="10.00">find_var_in_child_scope</text>
</a>
</g>
</g>
<!-- Node1&#45;&gt;Node40 -->
<g id="edge24" class="edge">
<title>Node1&#45;&gt;Node40</title>
<path fill="none" stroke="midnightblue" d="M983.84,-69.03C975.46,-67.92 966.71,-66.76 958.09,-65.62"/>
<polygon fill="midnightblue" stroke="midnightblue" points="983.46,-72.51 993.83,-70.35 984.38,-65.57 983.46,-72.51"/>
</g>
<!-- Node3 -->
<g id="node3" class="node">
<title>Node3</title>
<g id="a_node3"><a xlink:href="quickjs_8c.html#a53e971ab3c46da0b7d48481b0696e138" target="_top" xlink:title=" ">
<polygon fill="none" stroke="black" points="605,-150.5 605,-169.5 686,-169.5 686,-150.5 605,-150.5"/>
<text text-anchor="middle" x="645.5" y="-157.5" font-family="Helvetica,sans-Serif" font-size="10.00">js_define_var</text>
</a>
</g>
</g>
<!-- Node2&#45;&gt;Node3 -->
<g id="edge2" class="edge">
<title>Node2&#45;&gt;Node3</title>
<path fill="none" stroke="midnightblue" d="M734.4,-91.95C712.07,-109.23 677.19,-136.24 658.8,-150.48"/>
<polygon fill="midnightblue" stroke="midnightblue" points="736.79,-94.53 742.55,-85.64 732.5,-88.99 736.79,-94.53"/>
</g>
<!-- Node6 -->
<g id="node6" class="node">
<title>Node6</title>
<g id="a_node6"><a xlink:href="quickjs_8c.html#a9d844c16dcc71701436848074337d32c" target="_top" xlink:title=" ">
<polygon fill="none" stroke="red" points="0,-194 0,-224 113,-224 113,-194 0,-194"/>
<text text-anchor="start" x="8" y="-212" font-family="Helvetica,sans-Serif" font-size="10.00">js_parse_statement</text>
<text text-anchor="middle" x="56.5" y="-201" font-family="Helvetica,sans-Serif" font-size="10.00">_or_decl</text>
</a>
</g>
</g>
<!-- Node2&#45;&gt;Node6 -->
<g id="edge23" class="edge">
<title>Node2&#45;&gt;Node6</title>
<path fill="none" stroke="midnightblue" d="M746.08,-94.73C718.67,-149.25 629.99,-304 506.5,-304 506.5,-304 506.5,-304 338,-304 251.65,-304 229.6,-289.98 149,-259 124.84,-249.71 99.12,-235.2 81.12,-224.2"/>
<polygon fill="midnightblue" stroke="midnightblue" points="749.34,-96.03 750.61,-85.51 743.06,-92.94 749.34,-96.03"/>
</g>
<!-- Node9 -->
<g id="node7" class="node">
<title>Node9</title>
<g id="a_node7"><a xlink:href="quickjs_8c.html#acc9eb677cab8dfcf45f59381f8a19601" target="_top" xlink:title=" ">
<polygon fill="none" stroke="red" points="272,-28.5 272,-47.5 406,-47.5 406,-28.5 272,-28.5"/>
<text text-anchor="middle" x="339" y="-35.5" font-family="Helvetica,sans-Serif" font-size="10.00">js_parse_function_decl2</text>
</a>
</g>
</g>
<!-- Node2&#45;&gt;Node9 -->
<g id="edge22" class="edge">
<title>Node2&#45;&gt;Node9</title>
<path fill="none" stroke="midnightblue" d="M711.98,-66.37C703.41,-64.7 694.44,-63.14 686,-62 589.19,-48.88 476.11,-42.75 406.27,-40.02"/>
<polygon fill="midnightblue" stroke="midnightblue" points="711.31,-69.8 721.81,-68.35 712.7,-62.94 711.31,-69.8"/>
</g>
<!-- Node10 -->
<g id="node8" class="node">
<title>Node10</title>
<g id="a_node8"><a xlink:href="quickjs_8c.html#a00eb789430243c24dab4a63ad6a79653" target="_top" xlink:title=" ">
<polygon fill="none" stroke="red" points="149,-66.5 149,-85.5 236,-85.5 236,-66.5 149,-66.5"/>
<text text-anchor="middle" x="192.5" y="-73.5" font-family="Helvetica,sans-Serif" font-size="10.00">js_parse_class</text>
</a>
</g>
</g>
<!-- Node2&#45;&gt;Node10 -->
<g id="edge20" class="edge">
<title>Node2&#45;&gt;Node10</title>
<path fill="none" stroke="midnightblue" d="M711.76,-76C606.97,-76 340.42,-76 236.19,-76"/>
<polygon fill="midnightblue" stroke="midnightblue" points="711.97,-79.5 721.97,-76 711.97,-72.5 711.97,-79.5"/>
</g>
<!-- Node11 -->
<g id="node9" class="node">
<title>Node11</title>
<g id="a_node9"><a xlink:href="quickjs_8c.html#a498e1d5c7de1b59c1630e9847cde1e41" target="_top" xlink:title=" ">
<polygon fill="none" stroke="red" points="9.5,-47.5 9.5,-66.5 103.5,-66.5 103.5,-47.5 9.5,-47.5"/>
<text text-anchor="middle" x="56.5" y="-54.5" font-family="Helvetica,sans-Serif" font-size="10.00">js_parse_export</text>
</a>
</g>
</g>
<!-- Node2&#45;&gt;Node11 -->
<g id="edge21" class="edge">
<title>Node2&#45;&gt;Node11</title>
<path fill="none" stroke="midnightblue" d="M727.81,-61.85C682.97,-39.86 590.14,0 506.5,0 506.5,0 506.5,0 338,0 243.83,0 135.38,-31.23 85.39,-47.46"/>
<polygon fill="midnightblue" stroke="midnightblue" points="726.37,-65.04 736.88,-66.37 729.5,-58.78 726.37,-65.04"/>
</g>
<!-- Node4 -->
<g id="node4" class="node">
<title>Node4</title>
<g id="a_node4"><a xlink:href="quickjs_8c.html#a26be546cf89c4580ba9020e8fc43a759" target="_top" xlink:title=" ">
<polygon fill="none" stroke="red" points="442,-145 442,-175 569,-175 569,-145 442,-145"/>
<text text-anchor="start" x="450" y="-163" font-family="Helvetica,sans-Serif" font-size="10.00">js_parse_destructuring</text>
<text text-anchor="middle" x="505.5" y="-152" font-family="Helvetica,sans-Serif" font-size="10.00">_element</text>
</a>
</g>
</g>
<!-- Node3&#45;&gt;Node4 -->
<g id="edge3" class="edge">
<title>Node3&#45;&gt;Node4</title>
<path fill="none" stroke="midnightblue" d="M594.73,-160C586.46,-160 577.78,-160 569.24,-160"/>
<polygon fill="midnightblue" stroke="midnightblue" points="594.95,-163.5 604.95,-160 594.95,-156.5 594.95,-163.5"/>
</g>
<!-- Node5 -->
<g id="node5" class="node">
<title>Node5</title>
<g id="a_node5"><a xlink:href="quickjs_8c.html#ac188b916dd086803591a67de7e7a85f6" target="_top" xlink:title=" ">
<polygon fill="none" stroke="black" points="286.5,-218.5 286.5,-237.5 391.5,-237.5 391.5,-218.5 286.5,-218.5"/>
<text text-anchor="middle" x="339" y="-225.5" font-family="Helvetica,sans-Serif" font-size="10.00">js_parse_for_in_of</text>
</a>
</g>
</g>
<!-- Node3&#45;&gt;Node5 -->
<g id="edge17" class="edge">
<title>Node3&#45;&gt;Node5</title>
<path fill="none" stroke="midnightblue" d="M622.35,-175.4C607.84,-184.69 588.1,-195.88 569,-202 510.13,-220.88 438.91,-226.44 391.69,-227.88"/>
<polygon fill="midnightblue" stroke="midnightblue" points="624.65,-178.08 631.06,-169.65 620.79,-172.24 624.65,-178.08"/>
</g>
<!-- Node3&#45;&gt;Node6 -->
<g id="edge18" class="edge">
<title>Node3&#45;&gt;Node6</title>
<path fill="none" stroke="midnightblue" d="M630.22,-178.06C616.41,-194.11 593.95,-216.72 569,-228 411.51,-299.2 198.07,-251.24 104.61,-224.09"/>
<polygon fill="midnightblue" stroke="midnightblue" points="633.27,-179.87 636.96,-169.94 627.88,-175.4 633.27,-179.87"/>
</g>
<!-- Node28 -->
<g id="node10" class="node">
<title>Node28</title>
<g id="a_node10"><a xlink:href="quickjs_8c.html#a9660cf21845352b14655d423389d6620" target="_top" xlink:title=" ">
<polygon fill="none" stroke="black" points="153.5,-123.5 153.5,-142.5 231.5,-142.5 231.5,-123.5 153.5,-123.5"/>
<text text-anchor="middle" x="192.5" y="-130.5" font-family="Helvetica,sans-Serif" font-size="10.00">js_parse_var</text>
</a>
</g>
</g>
<!-- Node3&#45;&gt;Node28 -->
<g id="edge19" class="edge">
<title>Node3&#45;&gt;Node28</title>
<path fill="none" stroke="midnightblue" d="M612.28,-146.85C599.1,-142.13 583.55,-137.39 569,-135 447.09,-115.01 299.91,-123.52 231.67,-129.29"/>
<polygon fill="midnightblue" stroke="midnightblue" points="611.25,-150.2 621.84,-150.42 613.7,-143.64 611.25,-150.2"/>
</g>
<!-- Node4&#45;&gt;Node4 -->
<g id="edge4" class="edge">
<title>Node4&#45;&gt;Node4</title>
<path fill="none" stroke="midnightblue" d="M530.38,-185.46C527.29,-190.18 519,-193.5 505.5,-193.5 483.35,-193.5 475.22,-184.56 481.1,-175.16"/>
<polygon fill="midnightblue" stroke="midnightblue" points="533.86,-184.99 529.9,-175.16 526.87,-185.31 533.86,-184.99"/>
</g>
<!-- Node4&#45;&gt;Node5 -->
<g id="edge5" class="edge">
<title>Node4&#45;&gt;Node5</title>
<path fill="none" stroke="midnightblue" d="M463.01,-179.32C445.53,-187.26 424.9,-196.35 406,-204 393.57,-209.03 379.63,-214.17 367.78,-218.39"/>
<polygon fill="midnightblue" stroke="midnightblue" points="464.72,-182.39 472.36,-175.05 461.81,-176.02 464.72,-182.39"/>
</g>
<!-- Node4&#45;&gt;Node6 -->
<g id="edge13" class="edge">
<title>Node4&#45;&gt;Node6</title>
<path fill="none" stroke="midnightblue" d="M431.84,-167.96C342.69,-177.74 193.5,-194.09 113.02,-202.91"/>
<polygon fill="midnightblue" stroke="midnightblue" points="432.32,-171.43 441.88,-166.86 431.55,-164.48 432.32,-171.43"/>
</g>
<!-- Node4&#45;&gt;Node9 -->
<g id="edge8" class="edge">
<title>Node4&#45;&gt;Node9</title>
<path fill="none" stroke="midnightblue" d="M475.84,-138.74C439.84,-112.05 379.6,-67.37 353.14,-47.74"/>
<polygon fill="midnightblue" stroke="midnightblue" points="473.88,-141.65 484,-144.8 478.05,-136.03 473.88,-141.65"/>
</g>
<!-- Node4&#45;&gt;Node28 -->
<g id="edge14" class="edge">
<title>Node4&#45;&gt;Node28</title>
<path fill="none" stroke="midnightblue" d="M431.75,-153.68C369.27,-148.26 281.65,-140.65 231.94,-136.34"/>
<polygon fill="midnightblue" stroke="midnightblue" points="431.67,-157.19 441.94,-154.57 432.28,-150.22 431.67,-157.19"/>
</g>
<!-- Node5&#45;&gt;Node6 -->
<g id="edge6" class="edge">
<title>Node5&#45;&gt;Node6</title>
<path fill="none" stroke="midnightblue" d="M276.14,-223.81C227.49,-220.51 160.31,-215.96 113.3,-212.78"/>
<polygon fill="midnightblue" stroke="midnightblue" points="276.01,-227.31 286.23,-224.49 276.48,-220.33 276.01,-227.31"/>
</g>
<!-- Node6&#45;&gt;Node6 -->
<g id="edge7" class="edge">
<title>Node6&#45;&gt;Node6</title>
<path fill="none" stroke="midnightblue" d="M80.67,-234.46C77.67,-239.18 69.61,-242.5 56.5,-242.5 34.98,-242.5 27.08,-233.56 32.8,-224.16"/>
<polygon fill="midnightblue" stroke="midnightblue" points="84.15,-233.99 80.2,-224.16 77.16,-234.31 84.15,-233.99"/>
</g>
<!-- Node9&#45;&gt;Node10 -->
<g id="edge9" class="edge">
<title>Node9&#45;&gt;Node10</title>
<path fill="none" stroke="midnightblue" d="M291.67,-50.18C271.61,-55.46 248.47,-61.54 229.7,-66.48"/>
<polygon fill="midnightblue" stroke="midnightblue" points="292.76,-53.52 301.54,-47.59 290.98,-46.75 292.76,-53.52"/>
</g>
<!-- Node9&#45;&gt;Node11 -->
<g id="edge12" class="edge">
<title>Node9&#45;&gt;Node11</title>
<path fill="none" stroke="midnightblue" d="M261.67,-43.17C211.23,-46.59 146.76,-50.95 103.9,-53.86"/>
<polygon fill="midnightblue" stroke="midnightblue" points="262.14,-46.65 271.88,-42.48 261.67,-39.66 262.14,-46.65"/>
</g>
<!-- Node10&#45;&gt;Node6 -->
<g id="edge11" class="edge">
<title>Node10&#45;&gt;Node6</title>
<path fill="none" stroke="midnightblue" d="M172.55,-92.4C165.1,-98.99 156.54,-106.74 149,-114 120.64,-141.33 89.08,-174.82 71.43,-193.85"/>
<polygon fill="midnightblue" stroke="midnightblue" points="174.89,-95 180.11,-85.78 170.28,-89.74 174.89,-95"/>
</g>
<!-- Node10&#45;&gt;Node11 -->
<g id="edge10" class="edge">
<title>Node10&#45;&gt;Node11</title>
<path fill="none" stroke="midnightblue" d="M138.72,-68.52C127.1,-66.87 114.89,-65.14 103.57,-63.53"/>
<polygon fill="midnightblue" stroke="midnightblue" points="138.34,-72 148.73,-69.94 139.32,-65.07 138.34,-72"/>
</g>
<!-- Node28&#45;&gt;Node6 -->
<g id="edge16" class="edge">
<title>Node28&#45;&gt;Node6</title>
<path fill="none" stroke="midnightblue" d="M165.82,-147.57C142.34,-160.88 107.76,-180.5 84.02,-193.96"/>
<polygon fill="midnightblue" stroke="midnightblue" points="167.56,-150.6 174.53,-142.63 164.1,-144.51 167.56,-150.6"/>
</g>
<!-- Node28&#45;&gt;Node11 -->
<g id="edge15" class="edge">
<title>Node28&#45;&gt;Node11</title>
<path fill="none" stroke="midnightblue" d="M165.66,-118.35C138.73,-103.07 97.32,-79.58 74.33,-66.55"/>
<polygon fill="midnightblue" stroke="midnightblue" points="164.1,-121.49 174.53,-123.37 167.56,-115.4 164.1,-121.49"/>
</g>
<!-- Node40&#45;&gt;Node2 -->
<g id="edge25" class="edge">
<title>Node40&#45;&gt;Node2</title>
<path fill="none" stroke="midnightblue" d="M815.8,-67.66C806.85,-68.93 798.09,-70.17 790.19,-71.29"/>
<polygon fill="midnightblue" stroke="midnightblue" points="816.55,-71.09 825.96,-66.22 815.57,-64.16 816.55,-71.09"/>
</g>
</g>
</svg>
