<?xml version="1.0" encoding="UTF-8" standalone="no"?>
<!DOCTYPE svg PUBLIC "-//W3C//DTD SVG 1.1//EN"
 "http://www.w3.org/Graphics/SVG/1.1/DTD/svg11.dtd">
<!-- Generated by graphviz version 2.43.0 (0)
 -->
<!-- Title: JS_ParseJSON2 Pages: 1 -->
<svg width="412pt" height="85pt"
 viewBox="0.00 0.00 412.00 85.00" xmlns="http://www.w3.org/2000/svg" xmlns:xlink="http://www.w3.org/1999/xlink">
<g id="graph0" class="graph" transform="scale(1 1) rotate(0) translate(4 81)">
<title>JS_ParseJSON2</title>
<!-- Node1 -->
<g id="node1" class="node">
<title>Node1</title>
<g id="a_node1"><a xlink:title=" ">
<polygon fill="#bfbfbf" stroke="black" points="317,-19.5 317,-38.5 404,-38.5 404,-19.5 317,-19.5"/>
<text text-anchor="middle" x="360.5" y="-26.5" font-family="Helvetica,sans-Serif" font-size="10.00">JS_ParseJSON2</text>
</a>
</g>
</g>
<!-- Node2 -->
<g id="node2" class="node">
<title>Node2</title>
<g id="a_node2"><a xlink:href="quickjs_8c.html#a85a2abf65c29c82c085c9b7430538096" target="_top" xlink:title=" ">
<polygon fill="none" stroke="black" points="182,-38.5 182,-57.5 263,-57.5 263,-38.5 182,-38.5"/>
<text text-anchor="middle" x="222.5" y="-45.5" font-family="Helvetica,sans-Serif" font-size="10.00">JS_ParseJSON</text>
</a>
</g>
</g>
<!-- Node1&#45;&gt;Node2 -->
<g id="edge1" class="edge">
<title>Node1&#45;&gt;Node2</title>
<path fill="none" stroke="midnightblue" d="M306.55,-36.4C292.14,-38.41 276.77,-40.56 263.23,-42.45"/>
<polygon fill="midnightblue" stroke="midnightblue" points="307.42,-39.81 316.84,-34.96 306.45,-32.88 307.42,-39.81"/>
</g>
<!-- Node5 -->
<g id="node5" class="node">
<title>Node5</title>
<g id="a_node5"><a xlink:href="quickjs-libc_8c.html#a3820b79ea873fc2066551d85f7bb2c4c" target="_top" xlink:title=" ">
<polygon fill="none" stroke="black" points="164,-0.5 164,-19.5 281,-19.5 281,-0.5 164,-0.5"/>
<text text-anchor="middle" x="222.5" y="-7.5" font-family="Helvetica,sans-Serif" font-size="10.00">js_std_parseExtJSON</text>
</a>
</g>
</g>
<!-- Node1&#45;&gt;Node5 -->
<g id="edge4" class="edge">
<title>Node1&#45;&gt;Node5</title>
<path fill="none" stroke="midnightblue" d="M306.88,-21.65C298.55,-20.49 289.9,-19.28 281.46,-18.1"/>
<polygon fill="midnightblue" stroke="midnightblue" points="306.45,-25.12 316.84,-23.04 307.42,-18.19 306.45,-25.12"/>
</g>
<!-- Node3 -->
<g id="node3" class="node">
<title>Node3</title>
<g id="a_node3"><a xlink:href="classqjs_1_1Context.html#ace3f753ae2ad418064ea2d2382579a9d" target="_top" xlink:title=" ">
<polygon fill="none" stroke="black" points="0,-57.5 0,-76.5 128,-76.5 128,-57.5 0,-57.5"/>
<text text-anchor="middle" x="64" y="-64.5" font-family="Helvetica,sans-Serif" font-size="10.00">qjs::Context::fromJSON</text>
</a>
</g>
</g>
<!-- Node2&#45;&gt;Node3 -->
<g id="edge2" class="edge">
<title>Node2&#45;&gt;Node3</title>
<path fill="none" stroke="midnightblue" d="M171.4,-54.08C157.67,-55.75 142.6,-57.58 128.24,-59.32"/>
<polygon fill="midnightblue" stroke="midnightblue" points="172.1,-57.52 181.6,-52.84 171.25,-50.57 172.1,-57.52"/>
</g>
<!-- Node4 -->
<g id="node4" class="node">
<title>Node4</title>
<g id="a_node4"><a xlink:href="quickjs_8c.html#a8d95b2b91f50339b621237ad13f9cc47" target="_top" xlink:title=" ">
<polygon fill="none" stroke="black" points="22.5,-19.5 22.5,-38.5 105.5,-38.5 105.5,-19.5 22.5,-19.5"/>
<text text-anchor="middle" x="64" y="-26.5" font-family="Helvetica,sans-Serif" font-size="10.00">js_json_parse</text>
</a>
</g>
</g>
<!-- Node2&#45;&gt;Node4 -->
<g id="edge3" class="edge">
<title>Node2&#45;&gt;Node4</title>
<path fill="none" stroke="midnightblue" d="M171.46,-41.92C150.21,-39.34 125.75,-36.38 105.64,-33.93"/>
<polygon fill="midnightblue" stroke="midnightblue" points="171.25,-45.43 181.6,-43.16 172.1,-38.48 171.25,-45.43"/>
</g>
</g>
</svg>
