<?xml version="1.0" encoding="UTF-8" standalone="no"?>
<!DOCTYPE svg PUBLIC "-//W3C//DTD SVG 1.1//EN"
 "http://www.w3.org/Graphics/SVG/1.1/DTD/svg11.dtd">
<!-- Generated by graphviz version 2.43.0 (0)
 -->
<!-- Title: __JS_AtomIsConst Pages: 1 -->
<svg width="578pt" height="884pt"
 viewBox="0.00 0.00 578.00 883.59" xmlns="http://www.w3.org/2000/svg" xmlns:xlink="http://www.w3.org/1999/xlink">
<g id="graph0" class="graph" transform="scale(1 1) rotate(0) translate(4 879.59)">
<title>__JS_AtomIsConst</title>
<!-- Node1 -->
<g id="node1" class="node">
<title>Node1</title>
<g id="a_node1"><a xlink:title=" ">
<polygon fill="#bfbfbf" stroke="black" points="466,-514.09 466,-533.09 570,-533.09 570,-514.09 466,-514.09"/>
<text text-anchor="middle" x="518" y="-521.09" font-family="Helvetica,sans-Serif" font-size="10.00">__JS_AtomIsConst</text>
</a>
</g>
</g>
<!-- Node2 -->
<g id="node2" class="node">
<title>Node2</title>
<g id="a_node2"><a xlink:href="quickjs_8c.html#ac8c91ebeea0cf07e3079c49a16de739f" target="_top" xlink:title=" ">
<polygon fill="none" stroke="black" points="196,-799.09 196,-818.09 284,-818.09 284,-799.09 196,-799.09"/>
<text text-anchor="middle" x="240" y="-806.09" font-family="Helvetica,sans-Serif" font-size="10.00">__JS_FindAtom</text>
</a>
</g>
</g>
<!-- Node1&#45;&gt;Node2 -->
<g id="edge1" class="edge">
<title>Node1&#45;&gt;Node2</title>
<path fill="none" stroke="midnightblue" d="M513.8,-543.21C506.26,-583.66 483.78,-677.15 430,-732.59 390.6,-773.21 326.62,-792.74 284.18,-801.68"/>
<polygon fill="midnightblue" stroke="midnightblue" points="517.26,-543.74 515.55,-533.29 510.37,-542.53 517.26,-543.74"/>
</g>
<!-- Node649 -->
<g id="node5" class="node">
<title>Node649</title>
<g id="a_node5"><a xlink:href="quickjs_8c.html#acd08798ec15cc37c60d2e7d70007c6a8" target="_top" xlink:title=" ">
<polygon fill="none" stroke="black" points="340.5,-704.09 340.5,-723.09 429.5,-723.09 429.5,-704.09 340.5,-704.09"/>
<text text-anchor="middle" x="385" y="-711.09" font-family="Helvetica,sans-Serif" font-size="10.00">__JS_NewAtom</text>
</a>
</g>
</g>
<!-- Node1&#45;&gt;Node649 -->
<g id="edge4" class="edge">
<title>Node1&#45;&gt;Node649</title>
<path fill="none" stroke="midnightblue" d="M504.55,-541.65C477.42,-580.99 413.77,-673.31 392.82,-703.7"/>
<polygon fill="midnightblue" stroke="midnightblue" points="507.53,-543.49 510.32,-533.27 501.77,-539.52 507.53,-543.49"/>
</g>
<!-- Node660 -->
<g id="node12" class="node">
<title>Node660</title>
<g id="a_node12"><a xlink:href="quickjs_8c.html#abbf44eaeace1104a6bef718fbf5700fe" target="_top" xlink:title=" ">
<polygon fill="none" stroke="red" points="346.5,-343.09 346.5,-362.09 423.5,-362.09 423.5,-343.09 346.5,-343.09"/>
<text text-anchor="middle" x="385" y="-350.09" font-family="Helvetica,sans-Serif" font-size="10.00">JS_DupAtom</text>
</a>
</g>
</g>
<!-- Node1&#45;&gt;Node660 -->
<g id="edge14" class="edge">
<title>Node1&#45;&gt;Node660</title>
<path fill="none" stroke="midnightblue" d="M503.36,-505.78C475.84,-469.86 414.49,-389.78 393.34,-362.17"/>
<polygon fill="midnightblue" stroke="midnightblue" points="500.72,-508.1 509.58,-513.91 506.28,-503.84 500.72,-508.1"/>
</g>
<!-- Node733 -->
<g id="node28" class="node">
<title>Node733</title>
<g id="a_node28"><a xlink:href="quickjs_8c.html#aa1e14f2e125d8bad48dd20650505f4fa" target="_top" xlink:title=" ">
<polygon fill="none" stroke="red" points="340.5,-131.09 340.5,-150.09 429.5,-150.09 429.5,-131.09 340.5,-131.09"/>
<text text-anchor="middle" x="385" y="-138.09" font-family="Helvetica,sans-Serif" font-size="10.00">JS_DupAtomRT</text>
</a>
</g>
</g>
<!-- Node1&#45;&gt;Node733 -->
<g id="edge32" class="edge">
<title>Node1&#45;&gt;Node733</title>
<path fill="none" stroke="midnightblue" d="M514.6,-503.65C506.05,-435.52 475.15,-213.31 430,-159.59 426.79,-155.77 422.66,-152.69 418.23,-150.23"/>
<polygon fill="midnightblue" stroke="midnightblue" points="511.16,-504.36 515.86,-513.86 518.11,-503.51 511.16,-504.36"/>
</g>
<!-- Node736 -->
<g id="node29" class="node">
<title>Node736</title>
<g id="a_node29"><a xlink:href="quickjs_8c.html#ab7fc45a99935a1c0ba50b0216d9401a9" target="_top" xlink:title=" ">
<polygon fill="none" stroke="red" points="346,-169.09 346,-188.09 424,-188.09 424,-169.09 346,-169.09"/>
<text text-anchor="middle" x="385" y="-176.09" font-family="Helvetica,sans-Serif" font-size="10.00">JS_FreeAtom</text>
</a>
</g>
</g>
<!-- Node1&#45;&gt;Node736 -->
<g id="edge33" class="edge">
<title>Node1&#45;&gt;Node736</title>
<path fill="none" stroke="midnightblue" d="M509.69,-504.35C485.36,-440.25 407.56,-235.37 389.68,-188.29"/>
<polygon fill="midnightblue" stroke="midnightblue" points="506.54,-505.9 513.36,-514 513.08,-503.41 506.54,-505.9"/>
</g>
<!-- Node838 -->
<g id="node30" class="node">
<title>Node838</title>
<g id="a_node30"><a xlink:href="quickjs_8c.html#a5a0aca30abbb4d4ae86746541bf4cbc7" target="_top" xlink:title=" ">
<polygon fill="none" stroke="red" points="340,-856.09 340,-875.09 430,-875.09 430,-856.09 340,-856.09"/>
<text text-anchor="middle" x="385" y="-863.09" font-family="Helvetica,sans-Serif" font-size="10.00">JS_FreeAtomRT</text>
</a>
</g>
</g>
<!-- Node1&#45;&gt;Node838 -->
<g id="edge36" class="edge">
<title>Node1&#45;&gt;Node838</title>
<path fill="none" stroke="midnightblue" d="M513.15,-543.18C503.48,-589.99 475.65,-711.27 430,-803.59 420.17,-823.47 404.29,-843.96 394.54,-855.69"/>
<polygon fill="midnightblue" stroke="midnightblue" points="516.62,-543.68 515.17,-533.18 509.76,-542.29 516.62,-543.68"/>
</g>
<!-- Node3 -->
<g id="node3" class="node">
<title>Node3</title>
<g id="a_node3"><a xlink:href="quickjs_8c.html#a522741f41afb1d0da0aa55968cd8579e" target="_top" xlink:title=" ">
<polygon fill="none" stroke="red" points="22,-761.09 22,-780.09 118,-780.09 118,-761.09 22,-761.09"/>
<text text-anchor="middle" x="70" y="-768.09" font-family="Helvetica,sans-Serif" font-size="10.00">JS_NewAtomLen</text>
</a>
</g>
</g>
<!-- Node2&#45;&gt;Node3 -->
<g id="edge2" class="edge">
<title>Node2&#45;&gt;Node3</title>
<path fill="none" stroke="midnightblue" d="M186.72,-796.77C163.04,-791.41 135.41,-785.16 113.09,-780.11"/>
<polygon fill="midnightblue" stroke="midnightblue" points="186.08,-800.21 196.61,-799 187.63,-793.38 186.08,-800.21"/>
</g>
<!-- Node644 -->
<g id="node4" class="node">
<title>Node644</title>
<g id="a_node4"><a xlink:href="quickjs_8c.html#a9f0339d81c06451de278073572cc194e" target="_top" xlink:title=" ">
<polygon fill="none" stroke="red" points="30.5,-837.09 30.5,-856.09 109.5,-856.09 109.5,-837.09 30.5,-837.09"/>
<text text-anchor="middle" x="70" y="-844.09" font-family="Helvetica,sans-Serif" font-size="10.00">JS_NewClass</text>
</a>
</g>
</g>
<!-- Node2&#45;&gt;Node644 -->
<g id="edge3" class="edge">
<title>Node2&#45;&gt;Node644</title>
<path fill="none" stroke="midnightblue" d="M186.59,-820.44C161.7,-826.07 132.48,-832.68 109.64,-837.85"/>
<polygon fill="midnightblue" stroke="midnightblue" points="187.63,-823.8 196.61,-818.18 186.08,-816.97 187.63,-823.8"/>
</g>
<!-- Node650 -->
<g id="node6" class="node">
<title>Node650</title>
<g id="a_node6"><a xlink:href="quickjs_8c.html#a128673f932e71b867730af75a44e3f97" target="_top" xlink:title=" ">
<polygon fill="none" stroke="red" points="187.5,-837.09 187.5,-856.09 292.5,-856.09 292.5,-837.09 187.5,-837.09"/>
<text text-anchor="middle" x="240" y="-844.09" font-family="Helvetica,sans-Serif" font-size="10.00">__JS_NewAtomInit</text>
</a>
</g>
</g>
<!-- Node649&#45;&gt;Node650 -->
<g id="edge5" class="edge">
<title>Node649&#45;&gt;Node650</title>
<path fill="none" stroke="midnightblue" d="M375.69,-732.44C363.55,-757.79 338.62,-802.57 304,-827.59 298.63,-831.47 292.46,-834.57 286.13,-837.04"/>
<polygon fill="midnightblue" stroke="midnightblue" points="378.95,-733.72 379.96,-723.17 372.59,-730.79 378.95,-733.72"/>
</g>
<!-- Node652 -->
<g id="node7" class="node">
<title>Node652</title>
<g id="a_node7"><a xlink:href="quickjs_8c.html#aa641af3a921335927dab07dc83285917" target="_top" xlink:title=" ">
<polygon fill="none" stroke="red" points="188,-761.09 188,-780.09 292,-780.09 292,-761.09 188,-761.09"/>
<text text-anchor="middle" x="240" y="-768.09" font-family="Helvetica,sans-Serif" font-size="10.00">JS_NewAtomInt64</text>
</a>
</g>
</g>
<!-- Node649&#45;&gt;Node652 -->
<g id="edge7" class="edge">
<title>Node649&#45;&gt;Node652</title>
<path fill="none" stroke="midnightblue" d="M356.57,-727.88C341.33,-735.5 321.89,-744.69 304,-751.59 295.05,-755.04 285.19,-758.28 275.98,-761.06"/>
<polygon fill="midnightblue" stroke="midnightblue" points="358.58,-730.79 365.91,-723.14 355.41,-724.54 358.58,-730.79"/>
</g>
<!-- Node653 -->
<g id="node8" class="node">
<title>Node653</title>
<g id="a_node8"><a xlink:href="quickjs_8c.html#a33fd643aff7f70e649d246385cd99b00" target="_top" xlink:title=" ">
<polygon fill="none" stroke="red" points="194,-723.09 194,-742.09 286,-742.09 286,-723.09 194,-723.09"/>
<text text-anchor="middle" x="240" y="-730.09" font-family="Helvetica,sans-Serif" font-size="10.00">JS_NewAtomStr</text>
</a>
</g>
</g>
<!-- Node649&#45;&gt;Node653 -->
<g id="edge8" class="edge">
<title>Node649&#45;&gt;Node653</title>
<path fill="none" stroke="midnightblue" d="M330.06,-720.76C315.67,-722.67 300.27,-724.72 286.39,-726.56"/>
<polygon fill="midnightblue" stroke="midnightblue" points="330.87,-724.18 340.32,-719.39 329.94,-717.24 330.87,-724.18"/>
</g>
<!-- Node656 -->
<g id="node9" class="node">
<title>Node656</title>
<g id="a_node9"><a xlink:href="quickjs_8c.html#a7445082229205ad47aec019d74536f8e" target="_top" xlink:title=" ">
<polygon fill="none" stroke="red" points="184.5,-609.09 184.5,-628.09 295.5,-628.09 295.5,-609.09 184.5,-609.09"/>
<text text-anchor="middle" x="240" y="-616.09" font-family="Helvetica,sans-Serif" font-size="10.00">JS_NewAtomUInt32</text>
</a>
</g>
</g>
<!-- Node649&#45;&gt;Node656 -->
<g id="edge10" class="edge">
<title>Node649&#45;&gt;Node656</title>
<path fill="none" stroke="midnightblue" d="M361.01,-698.32C331.29,-678.57 280.4,-644.77 255.54,-628.25"/>
<polygon fill="midnightblue" stroke="midnightblue" points="359.24,-701.34 369.5,-703.96 363.11,-695.51 359.24,-701.34"/>
</g>
<!-- Node657 -->
<g id="node11" class="node">
<title>Node657</title>
<g id="a_node11"><a xlink:href="quickjs_8c.html#a4709c57b3c941673dcc69e07eb45182c" target="_top" xlink:title=" ">
<polygon fill="none" stroke="red" points="195.5,-685.09 195.5,-704.09 284.5,-704.09 284.5,-685.09 195.5,-685.09"/>
<text text-anchor="middle" x="240" y="-692.09" font-family="Helvetica,sans-Serif" font-size="10.00">JS_NewSymbol</text>
</a>
</g>
</g>
<!-- Node649&#45;&gt;Node657 -->
<g id="edge13" class="edge">
<title>Node649&#45;&gt;Node657</title>
<path fill="none" stroke="midnightblue" d="M330.19,-706.44C315.25,-704.46 299.21,-702.32 284.91,-700.42"/>
<polygon fill="midnightblue" stroke="midnightblue" points="329.94,-709.94 340.32,-707.79 330.87,-703 329.94,-709.94"/>
</g>
<!-- Node650&#45;&gt;Node644 -->
<g id="edge6" class="edge">
<title>Node650&#45;&gt;Node644</title>
<path fill="none" stroke="midnightblue" d="M177.02,-846.59C154.42,-846.59 129.52,-846.59 109.53,-846.59"/>
<polygon fill="midnightblue" stroke="midnightblue" points="177.22,-850.09 187.22,-846.59 177.22,-843.09 177.22,-850.09"/>
</g>
<!-- Node653&#45;&gt;Node3 -->
<g id="edge9" class="edge">
<title>Node653&#45;&gt;Node3</title>
<path fill="none" stroke="midnightblue" d="M186.72,-744.41C163.04,-749.77 135.41,-756.02 113.09,-761.07"/>
<polygon fill="midnightblue" stroke="midnightblue" points="187.63,-747.8 196.61,-742.18 186.08,-740.97 187.63,-747.8"/>
</g>
<!-- Node125 -->
<g id="node10" class="node">
<title>Node125</title>
<g id="a_node10"><a xlink:href="quickjs_8c.html#a624282391413d4c5a030adbd8b77aa80" target="_top" xlink:title=" ">
<polygon fill="none" stroke="red" points="0,-77.09 0,-96.09 140,-96.09 140,-77.09 0,-77.09"/>
<text text-anchor="middle" x="70" y="-84.09" font-family="Helvetica,sans-Serif" font-size="10.00">internalize_json_property</text>
</a>
</g>
</g>
<!-- Node656&#45;&gt;Node125 -->
<g id="edge11" class="edge">
<title>Node656&#45;&gt;Node125</title>
<path fill="none" stroke="midnightblue" d="M179.91,-603.32C178.53,-602.17 177.22,-600.92 176,-599.59 104.6,-521.37 76.19,-160.57 71.66,-96.37"/>
<polygon fill="midnightblue" stroke="midnightblue" points="178.26,-606.43 188.52,-609.05 182.13,-600.6 178.26,-606.43"/>
</g>
<!-- Node125&#45;&gt;Node125 -->
<g id="edge12" class="edge">
<title>Node125&#45;&gt;Node125</title>
<path fill="none" stroke="midnightblue" d="M101.81,-104.86C100.9,-110.33 90.3,-114.59 70,-114.59 39.79,-114.59 31.05,-105.16 43.8,-96.35"/>
<polygon fill="midnightblue" stroke="midnightblue" points="104.63,-102.77 96.2,-96.35 98.78,-106.62 104.63,-102.77"/>
</g>
<!-- Node660&#45;&gt;Node125 -->
<g id="edge31" class="edge">
<title>Node660&#45;&gt;Node125</title>
<path fill="none" stroke="midnightblue" d="M378.3,-333.01C361.6,-275.88 313.32,-112.97 304,-105.59 249.9,-62.77 164.9,-68.44 113.9,-77.09"/>
<polygon fill="midnightblue" stroke="midnightblue" points="375.04,-334.33 381.2,-342.95 381.76,-332.37 375.04,-334.33"/>
</g>
<!-- Node36 -->
<g id="node13" class="node">
<title>Node36</title>
<g id="a_node13"><a xlink:href="quickjs_8c.html#a46a8a7e155cfd0af984f6725f060f0d6" target="_top" xlink:title=" ">
<polygon fill="none" stroke="red" points="20,-609.09 20,-628.09 120,-628.09 120,-609.09 20,-609.09"/>
<text text-anchor="middle" x="70" y="-616.09" font-family="Helvetica,sans-Serif" font-size="10.00">__JS_EvalInternal</text>
</a>
</g>
</g>
<!-- Node660&#45;&gt;Node36 -->
<g id="edge15" class="edge">
<title>Node660&#45;&gt;Node36</title>
<path fill="none" stroke="midnightblue" d="M381.5,-372.53C373.64,-431.8 347.29,-604.78 304,-637.59 239.47,-686.5 134.02,-647.64 90.61,-628.11"/>
<polygon fill="midnightblue" stroke="midnightblue" points="385.02,-372.64 382.83,-362.27 378.08,-371.74 385.02,-372.64"/>
</g>
<!-- Node661 -->
<g id="node14" class="node">
<title>Node661</title>
<g id="a_node14"><a xlink:href="quickjs_8c.html#aff573513d994f4e9ad7b0430c03ddc3d" target="_top" xlink:title=" ">
<polygon fill="none" stroke="red" points="212,-153.09 212,-172.09 268,-172.09 268,-153.09 212,-153.09"/>
<text text-anchor="middle" x="240" y="-160.09" font-family="Helvetica,sans-Serif" font-size="10.00">add_arg</text>
</a>
</g>
</g>
<!-- Node660&#45;&gt;Node661 -->
<g id="edge16" class="edge">
<title>Node660&#45;&gt;Node661</title>
<path fill="none" stroke="midnightblue" d="M380.23,-332.7C372.44,-297.1 351.2,-222.41 304,-181.59 294.06,-173 280.34,-168.29 268.24,-165.71"/>
<polygon fill="midnightblue" stroke="midnightblue" points="376.86,-333.7 382.3,-342.79 383.72,-332.29 376.86,-333.7"/>
</g>
<!-- Node662 -->
<g id="node15" class="node">
<title>Node662</title>
<g id="a_node15"><a xlink:href="quickjs_8c.html#a9f64fb61a20cee1cad0eb2680624e341" target="_top" xlink:title=" ">
<polygon fill="none" stroke="red" points="192,-115.09 192,-134.09 288,-134.09 288,-115.09 192,-115.09"/>
<text text-anchor="middle" x="240" y="-122.09" font-family="Helvetica,sans-Serif" font-size="10.00">add_closure_var</text>
</a>
</g>
</g>
<!-- Node660&#45;&gt;Node662 -->
<g id="edge17" class="edge">
<title>Node660&#45;&gt;Node662</title>
<path fill="none" stroke="midnightblue" d="M378.97,-333.34C366.48,-286.9 332.97,-170.53 304,-143.59 299.4,-139.31 293.87,-135.99 288.02,-133.42"/>
<polygon fill="midnightblue" stroke="midnightblue" points="375.61,-334.31 381.56,-343.08 382.37,-332.52 375.61,-334.31"/>
</g>
<!-- Node668 -->
<g id="node16" class="node">
<title>Node668</title>
<g id="a_node16"><a xlink:href="quickjs_8c.html#a7949e036beb1ce2a2ce1337539536166" target="_top" xlink:title=" ">
<polygon fill="none" stroke="black" points="177.5,-571.09 177.5,-590.09 302.5,-590.09 302.5,-571.09 177.5,-571.09"/>
<text text-anchor="middle" x="240" y="-578.09" font-family="Helvetica,sans-Serif" font-size="10.00">add_closure_variables</text>
</a>
</g>
</g>
<!-- Node660&#45;&gt;Node668 -->
<g id="edge18" class="edge">
<title>Node660&#45;&gt;Node668</title>
<path fill="none" stroke="midnightblue" d="M382.18,-372.2C377.29,-413.38 360.18,-509.36 304,-561.59 299.82,-565.48 294.86,-568.58 289.6,-571.04"/>
<polygon fill="midnightblue" stroke="midnightblue" points="385.67,-372.43 383.25,-362.12 378.71,-371.69 385.67,-372.43"/>
</g>
<!-- Node669 -->
<g id="node17" class="node">
<title>Node669</title>
<g id="a_node17"><a xlink:href="quickjs_8c.html#aaea4bacf94d0db93f4a13f6e88860ad0" target="_top" xlink:title=" ">
<polygon fill="none" stroke="red" points="186,-533.09 186,-552.09 294,-552.09 294,-533.09 186,-533.09"/>
<text text-anchor="middle" x="240" y="-540.09" font-family="Helvetica,sans-Serif" font-size="10.00">add_export_entry2</text>
</a>
</g>
</g>
<!-- Node660&#45;&gt;Node669 -->
<g id="edge20" class="edge">
<title>Node660&#45;&gt;Node669</title>
<path fill="none" stroke="midnightblue" d="M380.23,-372.48C372.44,-408.08 351.2,-482.77 304,-523.59 299.51,-527.48 294.24,-530.57 288.7,-533.03"/>
<polygon fill="midnightblue" stroke="midnightblue" points="383.72,-372.89 382.3,-362.39 376.86,-371.48 383.72,-372.89"/>
</g>
<!-- Node671 -->
<g id="node18" class="node">
<title>Node671</title>
<g id="a_node18"><a xlink:href="quickjs_8c.html#ae7344d4ed92b31de7c7ef8716b911cb8" target="_top" xlink:title=" ">
<polygon fill="none" stroke="red" points="194.5,-495.09 194.5,-514.09 285.5,-514.09 285.5,-495.09 194.5,-495.09"/>
<text text-anchor="middle" x="240" y="-502.09" font-family="Helvetica,sans-Serif" font-size="10.00">add_global_var</text>
</a>
</g>
</g>
<!-- Node660&#45;&gt;Node671 -->
<g id="edge21" class="edge">
<title>Node660&#45;&gt;Node671</title>
<path fill="none" stroke="midnightblue" d="M377.47,-372.06C366.75,-401.09 342.66,-455.52 304,-485.59 298.59,-489.8 292.25,-493.08 285.73,-495.63"/>
<polygon fill="midnightblue" stroke="midnightblue" points="380.9,-372.88 380.93,-362.28 374.3,-370.55 380.9,-372.88"/>
</g>
<!-- Node674 -->
<g id="node19" class="node">
<title>Node674</title>
<g id="a_node19"><a xlink:href="quickjs_8c.html#a3ff40fe185637ba5525078d1cbedbefa" target="_top" xlink:title=" ">
<polygon fill="none" stroke="red" points="204,-457.09 204,-476.09 276,-476.09 276,-457.09 204,-457.09"/>
<text text-anchor="middle" x="240" y="-464.09" font-family="Helvetica,sans-Serif" font-size="10.00">add_import</text>
</a>
</g>
</g>
<!-- Node660&#45;&gt;Node674 -->
<g id="edge22" class="edge">
<title>Node660&#45;&gt;Node674</title>
<path fill="none" stroke="midnightblue" d="M373.13,-371.07C359.59,-392.53 334.46,-427.55 304,-447.59 295.7,-453.05 285.76,-457 276.26,-459.82"/>
<polygon fill="midnightblue" stroke="midnightblue" points="376.29,-372.62 378.52,-362.27 370.32,-368.97 376.29,-372.62"/>
</g>
<!-- Node675 -->
<g id="node20" class="node">
<title>Node675</title>
<g id="a_node20"><a xlink:href="quickjs_8c.html#ad5cccb20d07c9e601482d5b2398c2f55" target="_top" xlink:title=" ">
<polygon fill="none" stroke="red" points="176,-419.09 176,-438.09 304,-438.09 304,-419.09 176,-419.09"/>
<text text-anchor="middle" x="240" y="-426.09" font-family="Helvetica,sans-Serif" font-size="10.00">add_req_module_entry</text>
</a>
</g>
</g>
<!-- Node660&#45;&gt;Node675 -->
<g id="edge23" class="edge">
<title>Node660&#45;&gt;Node675</title>
<path fill="none" stroke="midnightblue" d="M365.29,-368.62C349.75,-381.24 326.61,-398.5 304,-409.59 296.41,-413.31 287.94,-416.47 279.74,-419.08"/>
<polygon fill="midnightblue" stroke="midnightblue" points="367.63,-371.23 373.09,-362.15 363.16,-365.84 367.63,-371.23"/>
</g>
<!-- Node676 -->
<g id="node21" class="node">
<title>Node676</title>
<g id="a_node21"><a xlink:href="quickjs_8c.html#ade1e452957ebf589907635cc79718d16" target="_top" xlink:title=" ">
<polygon fill="none" stroke="red" points="186.5,-381.09 186.5,-400.09 293.5,-400.09 293.5,-381.09 186.5,-381.09"/>
<text text-anchor="middle" x="240" y="-388.09" font-family="Helvetica,sans-Serif" font-size="10.00">add_resolve_entry</text>
</a>
</g>
</g>
<!-- Node660&#45;&gt;Node676 -->
<g id="edge24" class="edge">
<title>Node660&#45;&gt;Node676</title>
<path fill="none" stroke="midnightblue" d="M338.19,-364.76C318.41,-370.02 295.62,-376.08 277.07,-381"/>
<polygon fill="midnightblue" stroke="midnightblue" points="339.15,-368.13 347.92,-362.18 337.35,-361.37 339.15,-368.13"/>
</g>
<!-- Node679 -->
<g id="node22" class="node">
<title>Node679</title>
<g id="a_node22"><a xlink:href="quickjs_8c.html#a3cadcaa2bd1e3f9359f1c006f396cfa0" target="_top" xlink:title=" ">
<polygon fill="none" stroke="red" points="182,-343.09 182,-362.09 298,-362.09 298,-343.09 182,-343.09"/>
<text text-anchor="middle" x="240" y="-350.09" font-family="Helvetica,sans-Serif" font-size="10.00">add_shape_property</text>
</a>
</g>
</g>
<!-- Node660&#45;&gt;Node679 -->
<g id="edge25" class="edge">
<title>Node660&#45;&gt;Node679</title>
<path fill="none" stroke="midnightblue" d="M336.07,-352.59C323.94,-352.59 310.8,-352.59 298.26,-352.59"/>
<polygon fill="midnightblue" stroke="midnightblue" points="336.43,-356.09 346.43,-352.59 336.43,-349.09 336.43,-356.09"/>
</g>
<!-- Node706 -->
<g id="node23" class="node">
<title>Node706</title>
<g id="a_node23"><a xlink:href="quickjs_8c.html#ab2e0855c4317f8e3b05c0a091bc43a29" target="_top" xlink:title=" ">
<polygon fill="none" stroke="red" points="212,-305.09 212,-324.09 268,-324.09 268,-305.09 212,-305.09"/>
<text text-anchor="middle" x="240" y="-312.09" font-family="Helvetica,sans-Serif" font-size="10.00">add_var</text>
</a>
</g>
</g>
<!-- Node660&#45;&gt;Node706 -->
<g id="edge26" class="edge">
<title>Node660&#45;&gt;Node706</title>
<path fill="none" stroke="midnightblue" d="M337.97,-340.36C314.89,-334.23 287.74,-327.01 268.04,-321.78"/>
<polygon fill="midnightblue" stroke="midnightblue" points="337.35,-343.82 347.92,-343 339.15,-337.05 337.35,-343.82"/>
</g>
<!-- Node714 -->
<g id="node24" class="node">
<title>Node714</title>
<g id="a_node24"><a xlink:href="quickjs_8c.html#af4fed3f85dbff3b99bb7d672b48cab0c" target="_top" xlink:title=" ">
<polygon fill="none" stroke="red" points="193,-267.09 193,-286.09 287,-286.09 287,-267.09 193,-267.09"/>
<text text-anchor="middle" x="240" y="-274.09" font-family="Helvetica,sans-Serif" font-size="10.00">bc_idx_to_atom</text>
</a>
</g>
</g>
<!-- Node660&#45;&gt;Node714 -->
<g id="edge27" class="edge">
<title>Node660&#45;&gt;Node714</title>
<path fill="none" stroke="midnightblue" d="M365.29,-336.56C349.75,-323.94 326.61,-306.68 304,-295.59 296.41,-291.87 287.94,-288.71 279.74,-286.1"/>
<polygon fill="midnightblue" stroke="midnightblue" points="363.16,-339.34 373.09,-343.03 367.63,-333.95 363.16,-339.34"/>
</g>
<!-- Node717 -->
<g id="node25" class="node">
<title>Node717</title>
<g id="a_node25"><a xlink:href="quickjs_8c.html#aa57b449a878287663249bb7ab23ed8e9" target="_top" xlink:title=" ">
<polygon fill="none" stroke="red" points="205,-229.09 205,-248.09 275,-248.09 275,-229.09 205,-229.09"/>
<text text-anchor="middle" x="240" y="-236.09" font-family="Helvetica,sans-Serif" font-size="10.00">emit_atom</text>
</a>
</g>
</g>
<!-- Node660&#45;&gt;Node717 -->
<g id="edge28" class="edge">
<title>Node660&#45;&gt;Node717</title>
<path fill="none" stroke="midnightblue" d="M373.13,-334.11C359.59,-312.65 334.46,-277.63 304,-257.59 295.41,-251.94 285.07,-247.91 275.28,-245.07"/>
<polygon fill="midnightblue" stroke="midnightblue" points="370.32,-336.21 378.52,-342.92 376.29,-332.56 370.32,-336.21"/>
</g>
<!-- Node49 -->
<g id="node26" class="node">
<title>Node49</title>
<g id="a_node26"><a xlink:href="quickjs_8c.html#ae8e62d181b34d2e7bdda0b099c0880f5" target="_top" xlink:title=" ">
<polygon fill="none" stroke="red" points="207.5,-191.09 207.5,-210.09 272.5,-210.09 272.5,-191.09 207.5,-191.09"/>
<text text-anchor="middle" x="240" y="-198.09" font-family="Helvetica,sans-Serif" font-size="10.00">find_atom</text>
</a>
</g>
</g>
<!-- Node660&#45;&gt;Node49 -->
<g id="edge29" class="edge">
<title>Node660&#45;&gt;Node49</title>
<path fill="none" stroke="midnightblue" d="M377.47,-333.12C366.75,-304.09 342.66,-249.66 304,-219.59 294.98,-212.58 283.4,-208.14 272.63,-205.34"/>
<polygon fill="midnightblue" stroke="midnightblue" points="374.3,-334.63 380.93,-342.9 380.9,-332.3 374.3,-334.63"/>
</g>
<!-- Node722 -->
<g id="node27" class="node">
<title>Node722</title>
<g id="a_node27"><a xlink:href="quickjs_8c.html#a942ca594c506978a0dfded4cb3cd20fa" target="_top" xlink:title=" ">
<polygon fill="none" stroke="red" points="185,-27.59 185,-57.59 295,-57.59 295,-27.59 185,-27.59"/>
<text text-anchor="start" x="193" y="-45.59" font-family="Helvetica,sans-Serif" font-size="10.00">instantiate_hoisted</text>
<text text-anchor="middle" x="240" y="-34.59" font-family="Helvetica,sans-Serif" font-size="10.00">_definitions</text>
</a>
</g>
</g>
<!-- Node660&#45;&gt;Node722 -->
<g id="edge30" class="edge">
<title>Node660&#45;&gt;Node722</title>
<path fill="none" stroke="midnightblue" d="M378.45,-333.05C360.4,-269.59 304.55,-73.24 304,-72.59 298.91,-66.58 292.35,-61.69 285.38,-57.73"/>
<polygon fill="midnightblue" stroke="midnightblue" points="375.17,-334.32 381.27,-342.98 381.9,-332.4 375.17,-334.32"/>
</g>
<!-- Node668&#45;&gt;Node36 -->
<g id="edge19" class="edge">
<title>Node668&#45;&gt;Node36</title>
<path fill="none" stroke="midnightblue" d="M186.72,-592.41C163.04,-597.77 135.41,-604.02 113.09,-609.07"/>
<polygon fill="midnightblue" stroke="midnightblue" points="187.63,-595.8 196.61,-590.18 186.08,-588.97 187.63,-595.8"/>
</g>
<!-- Node736&#45;&gt;Node125 -->
<g id="edge35" class="edge">
<title>Node736&#45;&gt;Node125</title>
<path fill="none" stroke="midnightblue" d="M343.28,-162.94C342.11,-161.89 341.01,-160.78 340,-159.59 298.01,-110.4 355.08,-58.27 304,-18.59 232.95,36.6 118.35,-47.56 82.26,-77.03"/>
<polygon fill="midnightblue" stroke="midnightblue" points="341.62,-166.04 351.82,-168.91 345.63,-160.31 341.62,-166.04"/>
</g>
<!-- Node736&#45;&gt;Node722 -->
<g id="edge34" class="edge">
<title>Node736&#45;&gt;Node722</title>
<path fill="none" stroke="midnightblue" d="M344.54,-163.57C342.93,-162.34 341.4,-161.01 340,-159.59 310.64,-129.78 332.81,-102.94 304,-72.59 298.33,-66.62 291.23,-61.7 283.85,-57.7"/>
<polygon fill="midnightblue" stroke="midnightblue" points="342.84,-166.63 353.18,-168.96 346.55,-160.7 342.84,-166.63"/>
</g>
<!-- Node838&#45;&gt;Node644 -->
<g id="edge37" class="edge">
<title>Node838&#45;&gt;Node644</title>
<path fill="none" stroke="midnightblue" d="M329.64,-868.24C287.61,-869.65 228,-870.26 176,-865.59 153.86,-863.6 129.4,-859.3 109.67,-855.3"/>
<polygon fill="midnightblue" stroke="midnightblue" points="329.8,-871.74 339.67,-867.88 329.55,-864.74 329.8,-871.74"/>
</g>
</g>
</svg>
