<?xml version="1.0" encoding="UTF-8" standalone="no"?>
<!DOCTYPE svg PUBLIC "-//W3C//DTD SVG 1.1//EN"
 "http://www.w3.org/Graphics/SVG/1.1/DTD/svg11.dtd">
<!-- Generated by graphviz version 2.43.0 (0)
 -->
<!-- Title: js_parse_skip_parens_token Pages: 1 -->
<svg width="878pt" height="655pt"
 viewBox="0.00 0.00 878.00 655.00" xmlns="http://www.w3.org/2000/svg" xmlns:xlink="http://www.w3.org/1999/xlink">
<g id="graph0" class="graph" transform="scale(1 1) rotate(0) translate(4 651)">
<title>js_parse_skip_parens_token</title>
<!-- Node1 -->
<g id="node1" class="node">
<title>Node1</title>
<g id="a_node1"><a xlink:title=" ">
<polygon fill="#bfbfbf" stroke="black" points="0,-299 0,-329 121,-329 121,-299 0,-299"/>
<text text-anchor="start" x="8" y="-317" font-family="Helvetica,sans-Serif" font-size="10.00">js_parse_skip_parens</text>
<text text-anchor="middle" x="60.5" y="-306" font-family="Helvetica,sans-Serif" font-size="10.00">_token</text>
</a>
</g>
</g>
<!-- Node2 -->
<g id="node2" class="node">
<title>Node2</title>
<g id="a_node2"><a xlink:href="quickjs_8c.html#a7cd95e5ed87d4b27630af7944855779f" target="_top" xlink:title=" ">
<polygon fill="none" stroke="black" points="478.5,-608.5 478.5,-627.5 546.5,-627.5 546.5,-608.5 478.5,-608.5"/>
<text text-anchor="middle" x="512.5" y="-615.5" font-family="Helvetica,sans-Serif" font-size="10.00">free_token</text>
</a>
</g>
</g>
<!-- Node1&#45;&gt;Node2 -->
<g id="edge1" class="edge">
<title>Node1&#45;&gt;Node2</title>
<path fill="none" stroke="midnightblue" d="M71.45,-329.22C87.34,-352.68 120.43,-398.08 157,-428 261.36,-513.37 409.96,-578.05 476.7,-604.68"/>
<polygon fill="midnightblue" stroke="midnightblue" points="475.73,-608.06 486.32,-608.48 478.3,-601.55 475.73,-608.06"/>
</g>
<!-- Node41 -->
<g id="node7" class="node">
<title>Node41</title>
<g id="a_node7"><a xlink:href="quickjs_8c.html#a5db4000dff99fc4c0223e2e1f196c56f" target="_top" xlink:title=" ">
<polygon fill="none" stroke="black" points="175.5,-399.5 175.5,-418.5 282.5,-418.5 282.5,-399.5 175.5,-399.5"/>
<text text-anchor="middle" x="229" y="-406.5" font-family="Helvetica,sans-Serif" font-size="10.00">is_regexp_allowed</text>
</a>
</g>
</g>
<!-- Node1&#45;&gt;Node41 -->
<g id="edge6" class="edge">
<title>Node1&#45;&gt;Node41</title>
<path fill="none" stroke="midnightblue" d="M76.33,-329.09C94.02,-346.25 125.21,-373.98 157,-390 161.58,-392.31 166.48,-394.36 171.47,-396.18"/>
<polygon fill="midnightblue" stroke="midnightblue" points="170.56,-399.57 181.15,-399.4 172.77,-392.92 170.56,-399.57"/>
</g>
<!-- Node42 -->
<g id="node8" class="node">
<title>Node42</title>
<g id="a_node8"><a xlink:href="quickjs_8c.html#adc9771417493518c8625fa604362d809" target="_top" xlink:title=" ">
<polygon fill="none" stroke="black" points="178.5,-361.5 178.5,-380.5 279.5,-380.5 279.5,-361.5 178.5,-361.5"/>
<text text-anchor="middle" x="229" y="-368.5" font-family="Helvetica,sans-Serif" font-size="10.00">js_parse_get_pos</text>
</a>
</g>
</g>
<!-- Node1&#45;&gt;Node42 -->
<g id="edge7" class="edge">
<title>Node1&#45;&gt;Node42</title>
<path fill="none" stroke="midnightblue" d="M96.51,-329.07C114.42,-336.49 136.67,-345.26 157,-352 164.16,-354.37 171.8,-356.66 179.31,-358.78"/>
<polygon fill="midnightblue" stroke="midnightblue" points="178.49,-362.19 189.06,-361.46 180.35,-355.44 178.49,-362.19"/>
</g>
<!-- Node43 -->
<g id="node9" class="node">
<title>Node43</title>
<g id="a_node9"><a xlink:href="quickjs_8c.html#acb789e8ccb230adfd9262642ff338177" target="_top" xlink:title=" ">
<polygon fill="none" stroke="black" points="464.5,-76.5 464.5,-95.5 560.5,-95.5 560.5,-76.5 464.5,-76.5"/>
<text text-anchor="middle" x="512.5" y="-83.5" font-family="Helvetica,sans-Serif" font-size="10.00">js_parse_regexp</text>
</a>
</g>
</g>
<!-- Node1&#45;&gt;Node43 -->
<g id="edge8" class="edge">
<title>Node1&#45;&gt;Node43</title>
<path fill="none" stroke="midnightblue" d="M121.07,-307.39C208.95,-296.47 367.32,-271.91 408,-233 450.71,-192.15 402.22,-146.79 444,-105 447.23,-101.76 450.97,-99.07 455,-96.83"/>
<polygon fill="midnightblue" stroke="midnightblue" points="456.56,-99.96 464.19,-92.6 453.64,-93.6 456.56,-99.96"/>
</g>
<!-- Node77 -->
<g id="node17" class="node">
<title>Node77</title>
<g id="a_node17"><a xlink:href="quickjs_8c.html#aba7eb7aae2eb61bfccb4565ee626cd18" target="_top" xlink:title=" ">
<polygon fill="none" stroke="black" points="170,-323.5 170,-342.5 288,-342.5 288,-323.5 170,-323.5"/>
<text text-anchor="middle" x="229" y="-330.5" font-family="Helvetica,sans-Serif" font-size="10.00">js_parse_seek_token</text>
</a>
</g>
</g>
<!-- Node1&#45;&gt;Node77 -->
<g id="edge16" class="edge">
<title>Node1&#45;&gt;Node77</title>
<path fill="none" stroke="midnightblue" d="M121.14,-320.81C133.66,-322.23 146.95,-323.75 159.75,-325.21"/>
<polygon fill="midnightblue" stroke="midnightblue" points="159.56,-328.71 169.89,-326.37 160.35,-321.76 159.56,-328.71"/>
</g>
<!-- Node78 -->
<g id="node18" class="node">
<title>Node78</title>
<g id="a_node18"><a xlink:href="quickjs_8c.html#a75a3798e2045f6e403c1ef467126d1fb" target="_top" xlink:title=" ">
<polygon fill="none" stroke="black" points="337,-323.5 337,-342.5 408,-342.5 408,-323.5 337,-323.5"/>
<text text-anchor="middle" x="372.5" y="-330.5" font-family="Helvetica,sans-Serif" font-size="10.00">next_token</text>
</a>
</g>
</g>
<!-- Node1&#45;&gt;Node78 -->
<g id="edge50" class="edge">
<title>Node1&#45;&gt;Node78</title>
<path fill="none" stroke="midnightblue" d="M121.33,-309.66C169.95,-307.18 240.2,-305.95 301,-314 311.67,-315.41 323.01,-317.98 333.41,-320.77"/>
<polygon fill="midnightblue" stroke="midnightblue" points="332.46,-324.14 343.03,-323.5 334.37,-317.41 332.46,-324.14"/>
</g>
<!-- Node93 -->
<g id="node25" class="node">
<title>Node93</title>
<g id="a_node25"><a xlink:href="quickjs_8c.html#a4bd17ae26c9b4e0ab5f7fd320199eb2e" target="_top" xlink:title=" ">
<polygon fill="none" stroke="black" points="447,-38.5 447,-57.5 578,-57.5 578,-38.5 447,-38.5"/>
<text text-anchor="middle" x="512.5" y="-45.5" font-family="Helvetica,sans-Serif" font-size="10.00">js_parse_template_part</text>
</a>
</g>
</g>
<!-- Node1&#45;&gt;Node93 -->
<g id="edge49" class="edge">
<title>Node1&#45;&gt;Node93</title>
<path fill="none" stroke="midnightblue" d="M96.56,-298.89C154.01,-273.87 265.38,-224.19 301,-200 372.8,-151.23 368.33,-109.51 444,-67 447.93,-64.79 452.13,-62.83 456.44,-61.08"/>
<polygon fill="midnightblue" stroke="midnightblue" points="457.81,-64.31 466.01,-57.59 455.42,-57.73 457.81,-64.31"/>
</g>
<!-- Node117 -->
<g id="node30" class="node">
<title>Node117</title>
<g id="a_node30"><a xlink:href="quickjs_8c.html#a76ed161458dbf48da341e43ab398efd4" target="_top" xlink:title=" ">
<polygon fill="none" stroke="black" points="157,-171.5 157,-190.5 301,-190.5 301,-171.5 157,-171.5"/>
<text text-anchor="middle" x="229" y="-178.5" font-family="Helvetica,sans-Serif" font-size="10.00">token_is_pseudo_keyword</text>
</a>
</g>
</g>
<!-- Node1&#45;&gt;Node117 -->
<g id="edge51" class="edge">
<title>Node1&#45;&gt;Node117</title>
<path fill="none" stroke="midnightblue" d="M71.03,-298.7C86.36,-275.28 118.71,-230.56 157,-205 163.47,-200.68 170.79,-197.07 178.2,-194.08"/>
<polygon fill="midnightblue" stroke="midnightblue" points="179.43,-197.35 187.6,-190.6 177,-190.79 179.43,-197.35"/>
</g>
<!-- Node3 -->
<g id="node3" class="node">
<title>Node3</title>
<g id="a_node3"><a xlink:href="quickjs_8c.html#ab7fc45a99935a1c0ba50b0216d9401a9" target="_top" xlink:title=" ">
<polygon fill="none" stroke="black" points="634.5,-608.5 634.5,-627.5 712.5,-627.5 712.5,-608.5 634.5,-608.5"/>
<text text-anchor="middle" x="673.5" y="-615.5" font-family="Helvetica,sans-Serif" font-size="10.00">JS_FreeAtom</text>
</a>
</g>
</g>
<!-- Node2&#45;&gt;Node3 -->
<g id="edge2" class="edge">
<title>Node2&#45;&gt;Node3</title>
<path fill="none" stroke="midnightblue" d="M546.83,-618C569.32,-618 599.36,-618 624.42,-618"/>
<polygon fill="midnightblue" stroke="midnightblue" points="624.47,-621.5 634.47,-618 624.47,-614.5 624.47,-621.5"/>
</g>
<!-- Node9 -->
<g id="node6" class="node">
<title>Node9</title>
<g id="a_node6"><a xlink:href="quickjs_8h.html#afaa20c47565bc704c6c85f3d77254e7d" target="_top" xlink:title=" ">
<polygon fill="none" stroke="red" points="634,-570.5 634,-589.5 713,-589.5 713,-570.5 634,-570.5"/>
<text text-anchor="middle" x="673.5" y="-577.5" font-family="Helvetica,sans-Serif" font-size="10.00">JS_FreeValue</text>
</a>
</g>
</g>
<!-- Node2&#45;&gt;Node9 -->
<g id="edge5" class="edge">
<title>Node2&#45;&gt;Node9</title>
<path fill="none" stroke="midnightblue" d="M546.83,-610.03C569.16,-604.7 598.93,-597.58 623.89,-591.62"/>
<polygon fill="midnightblue" stroke="midnightblue" points="624.98,-594.95 633.9,-589.23 623.36,-588.15 624.98,-594.95"/>
</g>
<!-- Node4 -->
<g id="node4" class="node">
<title>Node4</title>
<g id="a_node4"><a xlink:href="quickjs_8c.html#a7f6796ee7a195631366f57c713a33f65" target="_top" xlink:title=" ">
<polygon fill="none" stroke="black" points="766,-627.5 766,-646.5 870,-646.5 870,-627.5 766,-627.5"/>
<text text-anchor="middle" x="818" y="-634.5" font-family="Helvetica,sans-Serif" font-size="10.00">__JS_AtomIsConst</text>
</a>
</g>
</g>
<!-- Node3&#45;&gt;Node4 -->
<g id="edge3" class="edge">
<title>Node3&#45;&gt;Node4</title>
<path fill="none" stroke="midnightblue" d="M712.69,-623.09C725.95,-624.86 741.18,-626.89 755.82,-628.84"/>
<polygon fill="midnightblue" stroke="midnightblue" points="755.47,-632.33 765.84,-630.18 756.39,-625.39 755.47,-632.33"/>
</g>
<!-- Node5 -->
<g id="node5" class="node">
<title>Node5</title>
<g id="a_node5"><a xlink:href="quickjs_8c.html#a0bbd9e3ecd55e3ea6c9d44bfda382095" target="_top" xlink:title=" ">
<polygon fill="none" stroke="red" points="773.5,-589.5 773.5,-608.5 862.5,-608.5 862.5,-589.5 773.5,-589.5"/>
<text text-anchor="middle" x="818" y="-596.5" font-family="Helvetica,sans-Serif" font-size="10.00">__JS_FreeAtom</text>
</a>
</g>
</g>
<!-- Node3&#45;&gt;Node5 -->
<g id="edge4" class="edge">
<title>Node3&#45;&gt;Node5</title>
<path fill="none" stroke="midnightblue" d="M712.69,-612.91C728.19,-610.84 746.36,-608.42 763.17,-606.18"/>
<polygon fill="midnightblue" stroke="midnightblue" points="763.97,-609.6 773.41,-604.81 763.04,-602.66 763.97,-609.6"/>
</g>
<!-- Node44 -->
<g id="node10" class="node">
<title>Node44</title>
<g id="a_node10"><a xlink:href="libregexp_8h.html#a3dd6ac80b2cc9f7fc7f18a4cb0acdce3" target="_top" xlink:title=" ">
<polygon fill="none" stroke="red" points="617,-266.5 617,-285.5 730,-285.5 730,-266.5 617,-266.5"/>
<text text-anchor="middle" x="673.5" y="-273.5" font-family="Helvetica,sans-Serif" font-size="10.00">lre_js_is_ident_next</text>
</a>
</g>
</g>
<!-- Node43&#45;&gt;Node44 -->
<g id="edge9" class="edge">
<title>Node43&#45;&gt;Node44</title>
<path fill="none" stroke="midnightblue" d="M560.66,-92.75C568.17,-95.56 575.32,-99.49 581,-105 619.16,-141.97 589.73,-173.4 617,-219 626.33,-234.6 640.74,-249.23 652.54,-259.76"/>
<polygon fill="midnightblue" stroke="midnightblue" points="650.33,-262.48 660.19,-266.36 654.9,-257.18 650.33,-262.48"/>
</g>
<!-- Node50 -->
<g id="node11" class="node">
<title>Node50</title>
<g id="a_node11"><a xlink:href="quickjs_8c.html#accfc3d1dcaa88c88402cb245ccaf4fdb" target="_top" xlink:title=" ">
<polygon fill="none" stroke="red" points="623,-38.5 623,-57.5 724,-57.5 724,-38.5 623,-38.5"/>
<text text-anchor="middle" x="673.5" y="-45.5" font-family="Helvetica,sans-Serif" font-size="10.00">string_buffer_end</text>
</a>
</g>
</g>
<!-- Node43&#45;&gt;Node50 -->
<g id="edge10" class="edge">
<title>Node43&#45;&gt;Node50</title>
<path fill="none" stroke="midnightblue" d="M553.62,-76.41C574.6,-71.4 600.48,-65.21 622.73,-59.89"/>
<polygon fill="midnightblue" stroke="midnightblue" points="623.75,-63.25 632.67,-57.52 622.13,-56.44 623.75,-63.25"/>
</g>
<!-- Node63 -->
<g id="node12" class="node">
<title>Node63</title>
<g id="a_node12"><a xlink:href="quickjs_8c.html#a266b4993a59d9e34537386e62b9f3d4f" target="_top" xlink:title=" ">
<polygon fill="none" stroke="red" points="622,-152.5 622,-171.5 725,-171.5 725,-152.5 622,-152.5"/>
<text text-anchor="middle" x="673.5" y="-159.5" font-family="Helvetica,sans-Serif" font-size="10.00">string_buffer_free</text>
</a>
</g>
</g>
<!-- Node43&#45;&gt;Node63 -->
<g id="edge11" class="edge">
<title>Node43&#45;&gt;Node63</title>
<path fill="none" stroke="midnightblue" d="M560.26,-95.59C567.48,-98.07 574.64,-101.16 581,-105 600.91,-117.03 597.43,-130.42 617,-143 620.14,-145.02 623.52,-146.85 627,-148.5"/>
<polygon fill="midnightblue" stroke="midnightblue" points="625.81,-151.8 636.39,-152.48 628.54,-145.35 625.81,-151.8"/>
</g>
<!-- Node64 -->
<g id="node13" class="node">
<title>Node64</title>
<g id="a_node13"><a xlink:href="quickjs_8c.html#a9c11961b0adafedd064b294612d0c2f3" target="_top" xlink:title=" ">
<polygon fill="none" stroke="red" points="624,-114.5 624,-133.5 723,-133.5 723,-114.5 624,-114.5"/>
<text text-anchor="middle" x="673.5" y="-121.5" font-family="Helvetica,sans-Serif" font-size="10.00">string_buffer_init</text>
</a>
</g>
</g>
<!-- Node43&#45;&gt;Node64 -->
<g id="edge12" class="edge">
<title>Node43&#45;&gt;Node64</title>
<path fill="none" stroke="midnightblue" d="M553.62,-95.59C574.6,-100.6 600.48,-106.79 622.73,-112.11"/>
<polygon fill="midnightblue" stroke="midnightblue" points="622.13,-115.56 632.67,-114.48 623.75,-108.75 622.13,-115.56"/>
</g>
<!-- Node76 -->
<g id="node14" class="node">
<title>Node76</title>
<g id="a_node14"><a xlink:href="quickjs_8c.html#a8d79794c85d33dd8409cdb39f2c2fc74" target="_top" xlink:title=" ">
<polygon fill="none" stroke="red" points="621.5,-76.5 621.5,-95.5 725.5,-95.5 725.5,-76.5 621.5,-76.5"/>
<text text-anchor="middle" x="673.5" y="-83.5" font-family="Helvetica,sans-Serif" font-size="10.00">string_buffer_putc</text>
</a>
</g>
</g>
<!-- Node43&#45;&gt;Node76 -->
<g id="edge13" class="edge">
<title>Node43&#45;&gt;Node76</title>
<path fill="none" stroke="midnightblue" d="M560.77,-86C576.54,-86 594.35,-86 611.03,-86"/>
<polygon fill="midnightblue" stroke="midnightblue" points="611.25,-89.5 621.25,-86 611.25,-82.5 611.25,-89.5"/>
</g>
<!-- Node73 -->
<g id="node15" class="node">
<title>Node73</title>
<g id="a_node15"><a xlink:href="quickjs_8c.html#a874fcee73f61cc997ec1d10cc6711554" target="_top" xlink:title=" ">
<polygon fill="none" stroke="red" points="618.5,-0.5 618.5,-19.5 728.5,-19.5 728.5,-0.5 618.5,-0.5"/>
<text text-anchor="middle" x="673.5" y="-7.5" font-family="Helvetica,sans-Serif" font-size="10.00">string_buffer_putc8</text>
</a>
</g>
</g>
<!-- Node43&#45;&gt;Node73 -->
<g id="edge14" class="edge">
<title>Node43&#45;&gt;Node73</title>
<path fill="none" stroke="midnightblue" d="M560.26,-76.41C567.48,-73.93 574.64,-70.84 581,-67 600.91,-54.97 597.43,-41.58 617,-29 620.14,-26.98 623.52,-25.15 627,-23.5"/>
<polygon fill="midnightblue" stroke="midnightblue" points="628.54,-26.65 636.39,-19.52 625.81,-20.2 628.54,-26.65"/>
</g>
<!-- Node75 -->
<g id="node16" class="node">
<title>Node75</title>
<g id="a_node16"><a xlink:href="cutils_8h.html#a69529af6d6911dd0ead90eef221b2e10" target="_top" xlink:title=" ">
<polygon fill="none" stroke="black" points="619.5,-190.5 619.5,-209.5 727.5,-209.5 727.5,-190.5 619.5,-190.5"/>
<text text-anchor="middle" x="673.5" y="-197.5" font-family="Helvetica,sans-Serif" font-size="10.00">unicode_from_utf8</text>
</a>
</g>
</g>
<!-- Node43&#45;&gt;Node75 -->
<g id="edge15" class="edge">
<title>Node43&#45;&gt;Node75</title>
<path fill="none" stroke="midnightblue" d="M560.76,-93.68C568.08,-96.39 575.14,-100.05 581,-105 609.55,-129.12 589.13,-156.1 617,-181 618.76,-182.57 620.65,-184.01 622.65,-185.34"/>
<polygon fill="midnightblue" stroke="midnightblue" points="621.43,-188.66 631.88,-190.42 624.8,-182.53 621.43,-188.66"/>
</g>
<!-- Node77&#45;&gt;Node78 -->
<g id="edge17" class="edge">
<title>Node77&#45;&gt;Node78</title>
<path fill="none" stroke="midnightblue" d="M288.37,-333C301.09,-333 314.36,-333 326.46,-333"/>
<polygon fill="midnightblue" stroke="midnightblue" points="326.76,-336.5 336.76,-333 326.76,-329.5 326.76,-336.5"/>
</g>
<!-- Node78&#45;&gt;Node2 -->
<g id="edge18" class="edge">
<title>Node78&#45;&gt;Node2</title>
<path fill="none" stroke="midnightblue" d="M374.9,-342.69C381.22,-385.29 408.38,-555.5 444,-594 450.64,-601.18 459.58,-606.22 468.77,-609.75"/>
<polygon fill="midnightblue" stroke="midnightblue" points="467.76,-613.1 478.36,-612.9 469.95,-606.45 467.76,-613.1"/>
</g>
<!-- Node78&#45;&gt;Node9 -->
<g id="edge23" class="edge">
<title>Node78&#45;&gt;Node9</title>
<path fill="none" stroke="midnightblue" d="M373.31,-342.75C373.21,-377.34 377.9,-495.05 444,-550 494.08,-591.64 572.86,-592.45 623.6,-587.53"/>
<polygon fill="midnightblue" stroke="midnightblue" points="624.1,-590.99 633.66,-586.44 623.35,-584.03 624.1,-590.99"/>
</g>
<!-- Node78&#45;&gt;Node44 -->
<g id="edge42" class="edge">
<title>Node78&#45;&gt;Node44</title>
<path fill="none" stroke="midnightblue" d="M387.07,-323.48C400.74,-314.43 422.81,-301.29 444,-295 497.22,-279.2 560.26,-274.97 606.63,-274.4"/>
<polygon fill="midnightblue" stroke="midnightblue" points="606.88,-277.9 616.86,-274.33 606.83,-270.9 606.88,-277.9"/>
</g>
<!-- Node78&#45;&gt;Node75 -->
<g id="edge48" class="edge">
<title>Node78&#45;&gt;Node75</title>
<path fill="none" stroke="midnightblue" d="M382.14,-323.37C394.59,-310.05 418.85,-286.05 444,-272 497.4,-242.18 564.84,-222.86 612.57,-211.82"/>
<polygon fill="midnightblue" stroke="midnightblue" points="613.47,-215.21 622.45,-209.59 611.92,-208.38 613.47,-215.21"/>
</g>
<!-- Node79 -->
<g id="node19" class="node">
<title>Node79</title>
<g id="a_node19"><a xlink:href="quickjs_8c.html#ab3ca6381d29dea396b12acd7f755c51a" target="_top" xlink:title=" ">
<polygon fill="none" stroke="black" points="647.5,-513.5 647.5,-532.5 699.5,-532.5 699.5,-513.5 647.5,-513.5"/>
<text text-anchor="middle" x="673.5" y="-520.5" font-family="Helvetica,sans-Serif" font-size="10.00">is_digit</text>
</a>
</g>
</g>
<!-- Node78&#45;&gt;Node79 -->
<g id="edge19" class="edge">
<title>Node78&#45;&gt;Node79</title>
<path fill="none" stroke="midnightblue" d="M373.57,-342.74C374.38,-375.15 381.9,-479.81 444,-523 501.92,-563.29 589.65,-547.6 637.81,-534.26"/>
<polygon fill="midnightblue" stroke="midnightblue" points="638.83,-537.61 647.46,-531.47 636.88,-530.89 638.83,-537.61"/>
</g>
<!-- Node80 -->
<g id="node20" class="node">
<title>Node80</title>
<g id="a_node20"><a xlink:href="quickjs_8c.html#a40bcef4994dba57dfb34b6eed66daef0" target="_top" xlink:title=" ">
<polygon fill="none" stroke="red" points="487.5,-494.5 487.5,-513.5 537.5,-513.5 537.5,-494.5 487.5,-494.5"/>
<text text-anchor="middle" x="512.5" y="-501.5" font-family="Helvetica,sans-Serif" font-size="10.00">js_atof</text>
</a>
</g>
</g>
<!-- Node78&#45;&gt;Node80 -->
<g id="edge20" class="edge">
<title>Node78&#45;&gt;Node80</title>
<path fill="none" stroke="midnightblue" d="M375.47,-342.79C381.23,-368.89 400.44,-440.81 444,-480 453.3,-488.36 465.7,-493.86 477.34,-497.45"/>
<polygon fill="midnightblue" stroke="midnightblue" points="476.71,-500.91 487.28,-500.14 478.54,-494.15 476.71,-500.91"/>
</g>
<!-- Node86 -->
<g id="node21" class="node">
<title>Node86</title>
<g id="a_node21"><a xlink:href="quickjs_8c.html#af23ec7c9970ceb4671c59da7abd4b078" target="_top" xlink:title=" ">
<polygon fill="none" stroke="red" points="444,-418.5 444,-437.5 581,-437.5 581,-418.5 444,-418.5"/>
<text text-anchor="middle" x="512.5" y="-425.5" font-family="Helvetica,sans-Serif" font-size="10.00">js_check_stack_overflow</text>
</a>
</g>
</g>
<!-- Node78&#45;&gt;Node86 -->
<g id="edge22" class="edge">
<title>Node78&#45;&gt;Node86</title>
<path fill="none" stroke="midnightblue" d="M379.67,-342.5C390.64,-358.64 415.13,-391.35 444,-409 447.56,-411.18 451.39,-413.11 455.33,-414.83"/>
<polygon fill="midnightblue" stroke="midnightblue" points="454.11,-418.11 464.7,-418.46 456.64,-411.59 454.11,-418.11"/>
</g>
<!-- Node88 -->
<g id="node22" class="node">
<title>Node88</title>
<g id="a_node22"><a xlink:href="quickjs_8h.html#ad80a83d73e9b7d872b88fbf2943aebe9" target="_top" xlink:title=" ">
<polygon fill="none" stroke="black" points="469,-380.5 469,-399.5 556,-399.5 556,-380.5 469,-380.5"/>
<text text-anchor="middle" x="512.5" y="-387.5" font-family="Helvetica,sans-Serif" font-size="10.00">JS_IsException</text>
</a>
</g>
</g>
<!-- Node78&#45;&gt;Node88 -->
<g id="edge24" class="edge">
<title>Node78&#45;&gt;Node88</title>
<path fill="none" stroke="midnightblue" d="M388.98,-342.63C402.95,-351.01 424.28,-363.02 444,-371 449.85,-373.37 456.1,-375.55 462.35,-377.54"/>
<polygon fill="midnightblue" stroke="midnightblue" points="461.52,-380.94 472.1,-380.48 463.54,-374.24 461.52,-380.94"/>
</g>
<!-- Node89 -->
<g id="node23" class="node">
<title>Node89</title>
<g id="a_node23"><a xlink:href="quickjs_8c.html#ace438176f9f0e0fea6d6f5cdffb1577e" target="_top" xlink:title=" ">
<polygon fill="none" stroke="black" points="467.5,-114.5 467.5,-133.5 557.5,-133.5 557.5,-114.5 467.5,-114.5"/>
<text text-anchor="middle" x="512.5" y="-121.5" font-family="Helvetica,sans-Serif" font-size="10.00">js_parse_string</text>
</a>
</g>
</g>
<!-- Node78&#45;&gt;Node89 -->
<g id="edge25" class="edge">
<title>Node78&#45;&gt;Node89</title>
<path fill="none" stroke="midnightblue" d="M379.86,-323.26C387.42,-311.35 400.02,-290.36 408,-271 430.52,-216.36 402.22,-184.79 444,-143 447.98,-139.02 452.73,-135.85 457.83,-133.34"/>
<polygon fill="midnightblue" stroke="midnightblue" points="459.37,-136.5 467.32,-129.49 456.74,-130.01 459.37,-136.5"/>
</g>
<!-- Node90 -->
<g id="node24" class="node">
<title>Node90</title>
<g id="a_node24"><a xlink:href="libregexp_8h.html#adca92c15688d39a0e06cd92f870d25d2" target="_top" xlink:title=" ">
<polygon fill="none" stroke="red" points="623,-342.5 623,-361.5 724,-361.5 724,-342.5 623,-342.5"/>
<text text-anchor="middle" x="673.5" y="-349.5" font-family="Helvetica,sans-Serif" font-size="10.00">lre_parse_escape</text>
</a>
</g>
</g>
<!-- Node78&#45;&gt;Node90 -->
<g id="edge43" class="edge">
<title>Node78&#45;&gt;Node90</title>
<path fill="none" stroke="midnightblue" d="M376.01,-342.68C382.58,-365.79 402.74,-424 444,-447 497.19,-476.64 524.97,-470.83 581,-447 617.67,-431.41 646.77,-393.11 661.64,-370.19"/>
<polygon fill="midnightblue" stroke="midnightblue" points="664.62,-372.02 666.96,-361.69 658.69,-368.31 664.62,-372.02"/>
</g>
<!-- Node78&#45;&gt;Node93 -->
<g id="edge32" class="edge">
<title>Node78&#45;&gt;Node93</title>
<path fill="none" stroke="midnightblue" d="M377.21,-323.47C383.99,-305.82 398.55,-266.78 408,-233 428.35,-160.3 392.27,-121.98 444,-67 445.23,-65.69 446.55,-64.47 447.93,-63.33"/>
<polygon fill="midnightblue" stroke="midnightblue" points="450.11,-66.09 456.52,-57.65 446.25,-60.24 450.11,-66.09"/>
</g>
<!-- Node94 -->
<g id="node26" class="node">
<title>Node94</title>
<g id="a_node26"><a xlink:href="quickjs_8h.html#ad668ac56e2bd3498ec0f0eddb574d3ff" target="_top" xlink:title=" ">
<polygon fill="none" stroke="black" points="460.5,-304.5 460.5,-323.5 564.5,-323.5 564.5,-304.5 460.5,-304.5"/>
<text text-anchor="middle" x="512.5" y="-311.5" font-family="Helvetica,sans-Serif" font-size="10.00">JS_VALUE_IS_NAN</text>
</a>
</g>
</g>
<!-- Node78&#45;&gt;Node94 -->
<g id="edge39" class="edge">
<title>Node78&#45;&gt;Node94</title>
<path fill="none" stroke="midnightblue" d="M408.32,-328.21C420.98,-326.46 435.69,-324.44 449.97,-322.47"/>
<polygon fill="midnightblue" stroke="midnightblue" points="450.83,-325.89 460.25,-321.06 449.87,-318.95 450.83,-325.89"/>
</g>
<!-- Node95 -->
<g id="node27" class="node">
<title>Node95</title>
<g id="a_node27"><a xlink:href="libregexp_8h.html#a542d834d69607ea57c3ca53757c86c43" target="_top" xlink:title=" ">
<polygon fill="none" stroke="black" points="474,-190.5 474,-209.5 551,-209.5 551,-190.5 474,-190.5"/>
<text text-anchor="middle" x="512.5" y="-197.5" font-family="Helvetica,sans-Serif" font-size="10.00">lre_is_space</text>
</a>
</g>
</g>
<!-- Node78&#45;&gt;Node95 -->
<g id="edge40" class="edge">
<title>Node78&#45;&gt;Node95</title>
<path fill="none" stroke="midnightblue" d="M378.62,-323.45C391.57,-299.61 425.88,-238.33 444,-224 449.97,-219.28 456.94,-215.44 464.1,-212.34"/>
<polygon fill="midnightblue" stroke="midnightblue" points="465.83,-215.42 473.89,-208.55 463.3,-208.9 465.83,-215.42"/>
</g>
<!-- Node96 -->
<g id="node28" class="node">
<title>Node96</title>
<g id="a_node28"><a xlink:href="libregexp_8h.html#a4737debd233b96f1a317fdb40a3fbd69" target="_top" xlink:title=" ">
<polygon fill="none" stroke="red" points="457.5,-152.5 457.5,-171.5 567.5,-171.5 567.5,-152.5 457.5,-152.5"/>
<text text-anchor="middle" x="512.5" y="-159.5" font-family="Helvetica,sans-Serif" font-size="10.00">lre_js_is_ident_first</text>
</a>
</g>
</g>
<!-- Node78&#45;&gt;Node96 -->
<g id="edge41" class="edge">
<title>Node78&#45;&gt;Node96</title>
<path fill="none" stroke="midnightblue" d="M379.52,-323.11C386.74,-311.05 399,-289.91 408,-271 426.51,-232.1 411.96,-209.8 444,-181 445.77,-179.41 447.65,-177.96 449.64,-176.62"/>
<polygon fill="midnightblue" stroke="midnightblue" points="451.79,-179.43 458.84,-171.51 448.39,-173.31 451.79,-179.43"/>
</g>
<!-- Node97 -->
<g id="node29" class="node">
<title>Node97</title>
<g id="a_node29"><a xlink:href="quickjs_8c.html#ad91865d0889d1420e3e70d5d497a9bdb" target="_top" xlink:title=" ">
<polygon fill="none" stroke="red" points="475.5,-342.5 475.5,-361.5 549.5,-361.5 549.5,-342.5 475.5,-342.5"/>
<text text-anchor="middle" x="512.5" y="-349.5" font-family="Helvetica,sans-Serif" font-size="10.00">parse_ident</text>
</a>
</g>
</g>
<!-- Node78&#45;&gt;Node97 -->
<g id="edge44" class="edge">
<title>Node78&#45;&gt;Node97</title>
<path fill="none" stroke="midnightblue" d="M408.32,-337.79C425.57,-340.17 446.63,-343.07 465.21,-345.63"/>
<polygon fill="midnightblue" stroke="midnightblue" points="464.86,-349.11 475.24,-347.01 465.81,-342.18 464.86,-349.11"/>
</g>
<!-- Node80&#45;&gt;Node79 -->
<g id="edge21" class="edge">
<title>Node80&#45;&gt;Node79</title>
<path fill="none" stroke="midnightblue" d="M537.65,-506.89C564.15,-510.05 606.94,-515.17 637.2,-518.78"/>
<polygon fill="midnightblue" stroke="midnightblue" points="636.99,-522.28 647.33,-519.99 637.82,-515.33 636.99,-522.28"/>
</g>
<!-- Node89&#45;&gt;Node50 -->
<g id="edge27" class="edge">
<title>Node89&#45;&gt;Node50</title>
<path fill="none" stroke="midnightblue" d="M557.78,-115.23C565.83,-112.63 573.91,-109.28 581,-105 600.91,-92.97 597.43,-79.58 617,-67 620.14,-64.98 623.52,-63.15 627,-61.5"/>
<polygon fill="midnightblue" stroke="midnightblue" points="628.54,-64.65 636.39,-57.52 625.81,-58.2 628.54,-64.65"/>
</g>
<!-- Node89&#45;&gt;Node63 -->
<g id="edge28" class="edge">
<title>Node89&#45;&gt;Node63</title>
<path fill="none" stroke="midnightblue" d="M553.62,-133.59C574.6,-138.6 600.48,-144.79 622.73,-150.11"/>
<polygon fill="midnightblue" stroke="midnightblue" points="622.13,-153.56 632.67,-152.48 623.75,-146.75 622.13,-153.56"/>
</g>
<!-- Node89&#45;&gt;Node64 -->
<g id="edge29" class="edge">
<title>Node89&#45;&gt;Node64</title>
<path fill="none" stroke="midnightblue" d="M557.79,-124C575.16,-124 595.33,-124 613.88,-124"/>
<polygon fill="midnightblue" stroke="midnightblue" points="613.98,-127.5 623.98,-124 613.98,-120.5 613.98,-127.5"/>
</g>
<!-- Node89&#45;&gt;Node76 -->
<g id="edge30" class="edge">
<title>Node89&#45;&gt;Node76</title>
<path fill="none" stroke="midnightblue" d="M553.62,-114.41C574.6,-109.4 600.48,-103.21 622.73,-97.89"/>
<polygon fill="midnightblue" stroke="midnightblue" points="623.75,-101.25 632.67,-95.52 622.13,-94.44 623.75,-101.25"/>
</g>
<!-- Node89&#45;&gt;Node75 -->
<g id="edge31" class="edge">
<title>Node89&#45;&gt;Node75</title>
<path fill="none" stroke="midnightblue" d="M557.78,-132.77C565.83,-135.37 573.91,-138.72 581,-143 600.91,-155.03 597.43,-168.42 617,-181 620.14,-183.02 623.52,-184.85 627,-186.5"/>
<polygon fill="midnightblue" stroke="midnightblue" points="625.81,-189.8 636.39,-190.48 628.54,-183.35 625.81,-189.8"/>
</g>
<!-- Node89&#45;&gt;Node90 -->
<g id="edge26" class="edge">
<title>Node89&#45;&gt;Node90</title>
<path fill="none" stroke="midnightblue" d="M557.54,-129.18C566.27,-132.05 574.68,-136.41 581,-143 629.05,-193.11 583.58,-234.15 617,-295 625.64,-310.74 639.82,-325.19 651.68,-335.61"/>
<polygon fill="midnightblue" stroke="midnightblue" points="649.53,-338.37 659.43,-342.14 654.04,-333.01 649.53,-338.37"/>
</g>
<!-- Node93&#45;&gt;Node50 -->
<g id="edge33" class="edge">
<title>Node93&#45;&gt;Node50</title>
<path fill="none" stroke="midnightblue" d="M578.17,-48C589.49,-48 601.23,-48 612.42,-48"/>
<polygon fill="midnightblue" stroke="midnightblue" points="612.52,-51.5 622.52,-48 612.52,-44.5 612.52,-51.5"/>
</g>
<!-- Node93&#45;&gt;Node63 -->
<g id="edge34" class="edge">
<title>Node93&#45;&gt;Node63</title>
<path fill="none" stroke="midnightblue" d="M565.59,-57.63C571.16,-60.08 576.44,-63.15 581,-67 609.55,-91.12 589.13,-118.1 617,-143 618.76,-144.57 620.65,-146.01 622.65,-147.34"/>
<polygon fill="midnightblue" stroke="midnightblue" points="621.43,-150.66 631.88,-152.42 624.8,-144.53 621.43,-150.66"/>
</g>
<!-- Node93&#45;&gt;Node64 -->
<g id="edge35" class="edge">
<title>Node93&#45;&gt;Node64</title>
<path fill="none" stroke="midnightblue" d="M560.26,-57.59C567.48,-60.07 574.64,-63.16 581,-67 600.91,-79.03 597.43,-92.42 617,-105 620.14,-107.02 623.52,-108.85 627,-110.5"/>
<polygon fill="midnightblue" stroke="midnightblue" points="625.81,-113.8 636.39,-114.48 628.54,-107.35 625.81,-113.8"/>
</g>
<!-- Node93&#45;&gt;Node76 -->
<g id="edge36" class="edge">
<title>Node93&#45;&gt;Node76</title>
<path fill="none" stroke="midnightblue" d="M553.62,-57.59C574.6,-62.6 600.48,-68.79 622.73,-74.11"/>
<polygon fill="midnightblue" stroke="midnightblue" points="622.13,-77.56 632.67,-76.48 623.75,-70.75 622.13,-77.56"/>
</g>
<!-- Node93&#45;&gt;Node73 -->
<g id="edge37" class="edge">
<title>Node93&#45;&gt;Node73</title>
<path fill="none" stroke="midnightblue" d="M553.62,-38.41C574.6,-33.4 600.48,-27.21 622.73,-21.89"/>
<polygon fill="midnightblue" stroke="midnightblue" points="623.75,-25.25 632.67,-19.52 622.13,-18.44 623.75,-25.25"/>
</g>
<!-- Node93&#45;&gt;Node75 -->
<g id="edge38" class="edge">
<title>Node93&#45;&gt;Node75</title>
<path fill="none" stroke="midnightblue" d="M567.13,-57.51C572.22,-59.99 576.98,-63.1 581,-67 619.16,-103.97 579.88,-142.98 617,-181 618.41,-182.45 619.94,-183.79 621.56,-185.02"/>
<polygon fill="midnightblue" stroke="midnightblue" points="619.92,-188.12 630.26,-190.39 623.59,-182.16 619.92,-188.12"/>
</g>
<!-- Node97&#45;&gt;Node44 -->
<g id="edge45" class="edge">
<title>Node97&#45;&gt;Node44</title>
<path fill="none" stroke="midnightblue" d="M549.54,-343.88C559.91,-341.01 571.09,-337.38 581,-333 606.51,-321.74 633.33,-304.27 651.29,-291.64"/>
<polygon fill="midnightblue" stroke="midnightblue" points="653.72,-294.2 659.81,-285.54 649.65,-288.51 653.72,-294.2"/>
</g>
<!-- Node97&#45;&gt;Node75 -->
<g id="edge47" class="edge">
<title>Node97&#45;&gt;Node75</title>
<path fill="none" stroke="midnightblue" d="M549.53,-347.76C560.59,-345 572.16,-340.46 581,-333 609.55,-308.88 595.67,-287.69 617,-257 627.5,-241.89 642.11,-227.06 653.7,-216.32"/>
<polygon fill="midnightblue" stroke="midnightblue" points="656.08,-218.89 661.16,-209.59 651.39,-213.69 656.08,-218.89"/>
</g>
<!-- Node97&#45;&gt;Node90 -->
<g id="edge46" class="edge">
<title>Node97&#45;&gt;Node90</title>
<path fill="none" stroke="midnightblue" d="M549.58,-352C568.16,-352 591.31,-352 612.49,-352"/>
<polygon fill="midnightblue" stroke="midnightblue" points="612.7,-355.5 622.7,-352 612.7,-348.5 612.7,-355.5"/>
</g>
</g>
</svg>
