<?xml version="1.0" encoding="UTF-8" standalone="no"?>
<!DOCTYPE svg PUBLIC "-//W3C//DTD SVG 1.1//EN"
 "http://www.w3.org/Graphics/SVG/1.1/DTD/svg11.dtd">
<!-- Generated by graphviz version 2.43.0 (0)
 -->
<!-- Title: js_create_resolving_functions Pages: 1 -->
<svg width="648pt" height="218pt"
 viewBox="0.00 0.00 648.00 218.00" xmlns="http://www.w3.org/2000/svg" xmlns:xlink="http://www.w3.org/1999/xlink">
<g id="graph0" class="graph" transform="scale(1 1) rotate(0) translate(4 214)">
<title>js_create_resolving_functions</title>
<!-- Node1 -->
<g id="node1" class="node">
<title>Node1</title>
<g id="a_node1"><a xlink:title=" ">
<polygon fill="#bfbfbf" stroke="black" points="529,-101 529,-131 640,-131 640,-101 529,-101"/>
<text text-anchor="start" x="537" y="-119" font-family="Helvetica,sans-Serif" font-size="10.00">js_create_resolving</text>
<text text-anchor="middle" x="584.5" y="-108" font-family="Helvetica,sans-Serif" font-size="10.00">_functions</text>
</a>
</g>
</g>
<!-- Node2 -->
<g id="node2" class="node">
<title>Node2</title>
<g id="a_node2"><a xlink:href="quickjs_8c.html#a96f03a78375e0f29d9445c3fb2d5d60e" target="_top" xlink:title=" ">
<polygon fill="none" stroke="black" points="363,-128.5 363,-147.5 493,-147.5 493,-128.5 363,-128.5"/>
<text text-anchor="middle" x="428" y="-135.5" font-family="Helvetica,sans-Serif" font-size="10.00">js_promise_constructor</text>
</a>
</g>
</g>
<!-- Node1&#45;&gt;Node2 -->
<g id="edge1" class="edge">
<title>Node1&#45;&gt;Node2</title>
<path fill="none" stroke="midnightblue" d="M518.51,-125.25C510.15,-126.45 501.58,-127.66 493.23,-128.85"/>
<polygon fill="midnightblue" stroke="midnightblue" points="519.19,-128.69 528.59,-123.82 518.2,-121.76 519.19,-128.69"/>
</g>
<!-- Node97 -->
<g id="node11" class="node">
<title>Node97</title>
<g id="a_node11"><a xlink:href="quickjs_8c.html#a38596b6e5448e564dd261426466f36f6" target="_top" xlink:title=" ">
<polygon fill="none" stroke="red" points="372.5,-79 372.5,-109 483.5,-109 483.5,-79 372.5,-79"/>
<text text-anchor="start" x="380.5" y="-97" font-family="Helvetica,sans-Serif" font-size="10.00">js_promise_resolve</text>
<text text-anchor="middle" x="428" y="-86" font-family="Helvetica,sans-Serif" font-size="10.00">_thenable_job</text>
</a>
</g>
</g>
<!-- Node1&#45;&gt;Node97 -->
<g id="edge10" class="edge">
<title>Node1&#45;&gt;Node97</title>
<path fill="none" stroke="midnightblue" d="M518.54,-106.75C506.95,-105.1 494.99,-103.4 483.73,-101.79"/>
<polygon fill="midnightblue" stroke="midnightblue" points="518.2,-110.24 528.59,-108.18 519.19,-103.31 518.2,-110.24"/>
</g>
<!-- Node3 -->
<g id="node3" class="node">
<title>Node3</title>
<g id="a_node3"><a xlink:href="quickjs_8c.html#a2e66fcf1bc1d19f346317f10ee590621" target="_top" xlink:title=" ">
<polygon fill="none" stroke="black" points="188.5,-161.5 188.5,-180.5 316.5,-180.5 316.5,-161.5 188.5,-161.5"/>
<text text-anchor="middle" x="252.5" y="-168.5" font-family="Helvetica,sans-Serif" font-size="10.00">JS_AddIntrinsicPromise</text>
</a>
</g>
</g>
<!-- Node2&#45;&gt;Node3 -->
<g id="edge2" class="edge">
<title>Node2&#45;&gt;Node3</title>
<path fill="none" stroke="midnightblue" d="M366.88,-149.43C346.23,-153.36 323.34,-157.72 303.57,-161.48"/>
<polygon fill="midnightblue" stroke="midnightblue" points="367.65,-152.85 376.82,-147.54 366.34,-145.98 367.65,-152.85"/>
</g>
<!-- Node8 -->
<g id="node5" class="node">
<title>Node8</title>
<g id="a_node5"><a xlink:href="quickjs_8c.html#a28c0ccdd26317bc38d0a693f1dffe4dc" target="_top" xlink:title=" ">
<polygon fill="none" stroke="black" points="178,-95.5 178,-114.5 327,-114.5 327,-95.5 178,-95.5"/>
<text text-anchor="middle" x="252.5" y="-102.5" font-family="Helvetica,sans-Serif" font-size="10.00">js_new_promise_capability</text>
</a>
</g>
</g>
<!-- Node2&#45;&gt;Node8 -->
<g id="edge4" class="edge">
<title>Node2&#45;&gt;Node8</title>
<path fill="none" stroke="midnightblue" d="M366.88,-126.57C346.23,-122.64 323.34,-118.28 303.57,-114.52"/>
<polygon fill="midnightblue" stroke="midnightblue" points="366.34,-130.02 376.82,-128.46 367.65,-123.15 366.34,-130.02"/>
</g>
<!-- Node4 -->
<g id="node4" class="node">
<title>Node4</title>
<g id="a_node4"><a xlink:href="quickjs_8c.html#ad8aedb643b8753b7a15f6cb2df61945e" target="_top" xlink:title=" ">
<polygon fill="none" stroke="red" points="25.5,-190.5 25.5,-209.5 116.5,-209.5 116.5,-190.5 25.5,-190.5"/>
<text text-anchor="middle" x="71" y="-197.5" font-family="Helvetica,sans-Serif" font-size="10.00">JS_NewContext</text>
</a>
</g>
</g>
<!-- Node3&#45;&gt;Node4 -->
<g id="edge3" class="edge">
<title>Node3&#45;&gt;Node4</title>
<path fill="none" stroke="midnightblue" d="M182.26,-182.19C160.25,-185.74 136.51,-189.58 116.71,-192.78"/>
<polygon fill="midnightblue" stroke="midnightblue" points="182.91,-185.63 192.23,-180.58 181.8,-178.72 182.91,-185.63"/>
</g>
<!-- Node9 -->
<g id="node6" class="node">
<title>Node9</title>
<g id="a_node6"><a xlink:href="quickjs_8c.html#a2287eaf81466a0d408341cdae08ed673" target="_top" xlink:title=" ">
<polygon fill="none" stroke="red" points="0,-152.5 0,-171.5 142,-171.5 142,-152.5 0,-152.5"/>
<text text-anchor="middle" x="71" y="-159.5" font-family="Helvetica,sans-Serif" font-size="10.00">JS_NewPromiseCapability</text>
</a>
</g>
</g>
<!-- Node8&#45;&gt;Node9 -->
<g id="edge5" class="edge">
<title>Node8&#45;&gt;Node9</title>
<path fill="none" stroke="midnightblue" d="M215.95,-118.03C194.62,-125.68 166.9,-135.31 142,-143 131.41,-146.27 119.83,-149.54 109.19,-152.42"/>
<polygon fill="midnightblue" stroke="midnightblue" points="217.34,-121.25 225.56,-114.57 214.97,-114.67 217.34,-121.25"/>
</g>
<!-- Node76 -->
<g id="node7" class="node">
<title>Node76</title>
<g id="a_node7"><a xlink:href="quickjs_8c.html#a7a5c4f3ad3260974d9a0c75120ce5647" target="_top" xlink:title=" ">
<polygon fill="none" stroke="black" points="27.5,-114.5 27.5,-133.5 114.5,-133.5 114.5,-114.5 27.5,-114.5"/>
<text text-anchor="middle" x="71" y="-121.5" font-family="Helvetica,sans-Serif" font-size="10.00">js_promise_all</text>
</a>
</g>
</g>
<!-- Node8&#45;&gt;Node76 -->
<g id="edge6" class="edge">
<title>Node8&#45;&gt;Node76</title>
<path fill="none" stroke="midnightblue" d="M167.78,-113.86C149.33,-115.82 130.53,-117.8 114.54,-119.5"/>
<polygon fill="midnightblue" stroke="midnightblue" points="168.4,-117.32 177.97,-112.78 167.66,-110.35 168.4,-117.32"/>
</g>
<!-- Node77 -->
<g id="node8" class="node">
<title>Node77</title>
<g id="a_node8"><a xlink:href="quickjs_8c.html#a44e36674957b179c1963f7046c049d14" target="_top" xlink:title=" ">
<polygon fill="none" stroke="black" points="23,-76.5 23,-95.5 119,-95.5 119,-76.5 23,-76.5"/>
<text text-anchor="middle" x="71" y="-83.5" font-family="Helvetica,sans-Serif" font-size="10.00">js_promise_race</text>
</a>
</g>
</g>
<!-- Node8&#45;&gt;Node77 -->
<g id="edge7" class="edge">
<title>Node8&#45;&gt;Node77</title>
<path fill="none" stroke="midnightblue" d="M167.66,-96.13C151.01,-94.36 134.09,-92.57 119.2,-91"/>
<polygon fill="midnightblue" stroke="midnightblue" points="167.66,-99.65 177.97,-97.22 168.4,-92.68 167.66,-99.65"/>
</g>
<!-- Node92 -->
<g id="node9" class="node">
<title>Node92</title>
<g id="a_node9"><a xlink:href="quickjs_8c.html#a192c7bd4fc5264ccdf89e13ed5bc0dcc" target="_top" xlink:title=" ">
<polygon fill="none" stroke="red" points="15.5,-38.5 15.5,-57.5 126.5,-57.5 126.5,-38.5 15.5,-38.5"/>
<text text-anchor="middle" x="71" y="-45.5" font-family="Helvetica,sans-Serif" font-size="10.00">js_promise_resolve</text>
</a>
</g>
</g>
<!-- Node8&#45;&gt;Node92 -->
<g id="edge8" class="edge">
<title>Node8&#45;&gt;Node92</title>
<path fill="none" stroke="midnightblue" d="M215.95,-91.97C194.62,-84.32 166.9,-74.69 142,-67 131.41,-63.73 119.83,-60.46 109.19,-57.58"/>
<polygon fill="midnightblue" stroke="midnightblue" points="214.97,-95.33 225.56,-95.43 217.34,-88.75 214.97,-95.33"/>
</g>
<!-- Node106 -->
<g id="node10" class="node">
<title>Node106</title>
<g id="a_node10"><a xlink:href="quickjs_8c.html#ad66faf78650b6f6217fc4327b0739ba0" target="_top" xlink:title=" ">
<polygon fill="none" stroke="black" points="22.5,-0.5 22.5,-19.5 119.5,-19.5 119.5,-0.5 22.5,-0.5"/>
<text text-anchor="middle" x="71" y="-7.5" font-family="Helvetica,sans-Serif" font-size="10.00">js_promise_then</text>
</a>
</g>
</g>
<!-- Node8&#45;&gt;Node106 -->
<g id="edge9" class="edge">
<title>Node8&#45;&gt;Node106</title>
<path fill="none" stroke="midnightblue" d="M232.7,-88.93C211.82,-71.82 176.48,-45.06 142,-29 133.9,-25.23 124.9,-22.08 116.14,-19.51"/>
<polygon fill="midnightblue" stroke="midnightblue" points="230.55,-91.69 240.47,-95.39 235.03,-86.31 230.55,-91.69"/>
</g>
</g>
</svg>
