<?xml version="1.0" encoding="UTF-8" standalone="no"?>
<!DOCTYPE svg PUBLIC "-//W3C//DTD SVG 1.1//EN"
 "http://www.w3.org/Graphics/SVG/1.1/DTD/svg11.dtd">
<!-- Generated by graphviz version 2.43.0 (0)
 -->
<!-- Title: js_std_file_puts Pages: 1 -->
<svg width="622pt" height="218pt"
 viewBox="0.00 0.00 622.00 218.00" xmlns="http://www.w3.org/2000/svg" xmlns:xlink="http://www.w3.org/1999/xlink">
<g id="graph0" class="graph" transform="scale(1 1) rotate(0) translate(4 214)">
<title>js_std_file_puts</title>
<!-- Node1 -->
<g id="node1" class="node">
<title>Node1</title>
<g id="a_node1"><a xlink:title=" ">
<polygon fill="#bfbfbf" stroke="black" points="0,-152.5 0,-171.5 92,-171.5 92,-152.5 0,-152.5"/>
<text text-anchor="middle" x="46" y="-159.5" font-family="Helvetica,sans-Serif" font-size="10.00">js_std_file_puts</text>
</a>
</g>
</g>
<!-- Node2 -->
<g id="node2" class="node">
<title>Node2</title>
<g id="a_node2"><a xlink:href="quickjs_8c.html#ae0bc4f65da64810facb2cb9e476eda2e" target="_top" xlink:title=" ">
<polygon fill="none" stroke="black" points="264.5,-190.5 264.5,-209.5 351.5,-209.5 351.5,-190.5 264.5,-190.5"/>
<text text-anchor="middle" x="308" y="-197.5" font-family="Helvetica,sans-Serif" font-size="10.00">JS_FreeCString</text>
</a>
</g>
</g>
<!-- Node1&#45;&gt;Node2 -->
<g id="edge1" class="edge">
<title>Node1&#45;&gt;Node2</title>
<path fill="none" stroke="midnightblue" d="M83.5,-171.58C97.35,-174.95 113.33,-178.51 128,-181 170.2,-188.16 218.49,-193.1 254.27,-196.14"/>
<polygon fill="midnightblue" stroke="midnightblue" points="254.23,-199.65 264.48,-196.99 254.8,-192.67 254.23,-199.65"/>
</g>
<!-- Node41 -->
<g id="node5" class="node">
<title>Node41</title>
<g id="a_node5"><a xlink:href="quickjs-libc_8c.html#ae0b015235e2737bee13533c992f0b71b" target="_top" xlink:title=" ">
<polygon fill="none" stroke="black" points="132,-152.5 132,-171.5 218,-171.5 218,-152.5 132,-152.5"/>
<text text-anchor="middle" x="175" y="-159.5" font-family="Helvetica,sans-Serif" font-size="10.00">js_std_file_get</text>
</a>
</g>
</g>
<!-- Node1&#45;&gt;Node41 -->
<g id="edge4" class="edge">
<title>Node1&#45;&gt;Node41</title>
<path fill="none" stroke="midnightblue" d="M92.13,-162C101.76,-162 112.01,-162 121.88,-162"/>
<polygon fill="midnightblue" stroke="midnightblue" points="121.98,-165.5 131.98,-162 121.98,-158.5 121.98,-165.5"/>
</g>
<!-- Node42 -->
<g id="node6" class="node">
<title>Node42</title>
<g id="a_node6"><a xlink:href="quickjs_8h.html#a1e7f56471f8608df9405987087a56070" target="_top" xlink:title=" ">
<polygon fill="none" stroke="black" points="128,-114.5 128,-133.5 222,-133.5 222,-114.5 128,-114.5"/>
<text text-anchor="middle" x="175" y="-121.5" font-family="Helvetica,sans-Serif" font-size="10.00">JS_ToCStringLen</text>
</a>
</g>
</g>
<!-- Node1&#45;&gt;Node42 -->
<g id="edge5" class="edge">
<title>Node1&#45;&gt;Node42</title>
<path fill="none" stroke="midnightblue" d="M79.05,-152.41C95.14,-147.6 114.84,-141.7 132.12,-136.53"/>
<polygon fill="midnightblue" stroke="midnightblue" points="133.39,-139.81 141.96,-133.59 131.38,-133.1 133.39,-139.81"/>
</g>
<!-- Node3 -->
<g id="node3" class="node">
<title>Node3</title>
<g id="a_node3"><a xlink:href="quickjs_8h.html#afaa20c47565bc704c6c85f3d77254e7d" target="_top" xlink:title=" ">
<polygon fill="none" stroke="black" points="402,-190.5 402,-209.5 481,-209.5 481,-190.5 402,-190.5"/>
<text text-anchor="middle" x="441.5" y="-197.5" font-family="Helvetica,sans-Serif" font-size="10.00">JS_FreeValue</text>
</a>
</g>
</g>
<!-- Node2&#45;&gt;Node3 -->
<g id="edge2" class="edge">
<title>Node2&#45;&gt;Node3</title>
<path fill="none" stroke="midnightblue" d="M351.69,-200C364.36,-200 378.33,-200 391.37,-200"/>
<polygon fill="midnightblue" stroke="midnightblue" points="391.58,-203.5 401.58,-200 391.58,-196.5 391.58,-203.5"/>
</g>
<!-- Node4 -->
<g id="node4" class="node">
<title>Node4</title>
<g id="a_node4"><a xlink:href="quickjs_8c.html#aa059f309c30fd5166d16c82a97973146" target="_top" xlink:title=" ">
<polygon fill="none" stroke="red" points="525,-190.5 525,-209.5 614,-209.5 614,-190.5 525,-190.5"/>
<text text-anchor="middle" x="569.5" y="-197.5" font-family="Helvetica,sans-Serif" font-size="10.00">__JS_FreeValue</text>
</a>
</g>
</g>
<!-- Node3&#45;&gt;Node4 -->
<g id="edge3" class="edge">
<title>Node3&#45;&gt;Node4</title>
<path fill="none" stroke="midnightblue" d="M481.33,-200C491.85,-200 503.43,-200 514.62,-200"/>
<polygon fill="midnightblue" stroke="midnightblue" points="514.74,-203.5 524.74,-200 514.74,-196.5 514.74,-203.5"/>
</g>
<!-- Node43 -->
<g id="node7" class="node">
<title>Node43</title>
<g id="a_node7"><a xlink:href="quickjs_8c.html#af49e67b73f845dc1f9c3ee648dd9f95c" target="_top" xlink:title=" ">
<polygon fill="none" stroke="black" points="258,-114.5 258,-133.5 358,-133.5 358,-114.5 258,-114.5"/>
<text text-anchor="middle" x="308" y="-121.5" font-family="Helvetica,sans-Serif" font-size="10.00">JS_ToCStringLen2</text>
</a>
</g>
</g>
<!-- Node42&#45;&gt;Node43 -->
<g id="edge6" class="edge">
<title>Node42&#45;&gt;Node43</title>
<path fill="none" stroke="midnightblue" d="M222.19,-124C230.36,-124 238.97,-124 247.44,-124"/>
<polygon fill="midnightblue" stroke="midnightblue" points="247.68,-127.5 257.68,-124 247.68,-120.5 247.68,-127.5"/>
</g>
<!-- Node43&#45;&gt;Node3 -->
<g id="edge9" class="edge">
<title>Node43&#45;&gt;Node3</title>
<path fill="none" stroke="midnightblue" d="M321.46,-133.53C337.59,-145.6 366.87,-166.55 394,-181 397.54,-182.88 401.3,-184.7 405.1,-186.42"/>
<polygon fill="midnightblue" stroke="midnightblue" points="403.92,-189.72 414.49,-190.46 406.69,-183.29 403.92,-189.72"/>
</g>
<!-- Node44 -->
<g id="node8" class="node">
<title>Node44</title>
<g id="a_node8"><a xlink:href="quickjs_8c.html#ad303a9bc56766627b5fca41574933930" target="_top" xlink:title=" ">
<polygon fill="none" stroke="red" points="398.5,-152.5 398.5,-171.5 484.5,-171.5 484.5,-152.5 398.5,-152.5"/>
<text text-anchor="middle" x="441.5" y="-159.5" font-family="Helvetica,sans-Serif" font-size="10.00">js_alloc_string</text>
</a>
</g>
</g>
<!-- Node43&#45;&gt;Node44 -->
<g id="edge7" class="edge">
<title>Node43&#45;&gt;Node44</title>
<path fill="none" stroke="midnightblue" d="M342.18,-133.59C359,-138.45 379.63,-144.41 397.63,-149.61"/>
<polygon fill="midnightblue" stroke="midnightblue" points="396.75,-153 407.33,-152.41 398.69,-146.28 396.75,-153"/>
</g>
<!-- Node48 -->
<g id="node9" class="node">
<title>Node48</title>
<g id="a_node9"><a xlink:href="quickjs_8h.html#a775522f2d084fc8fa0fcb33f390006b4" target="_top" xlink:title=" ">
<polygon fill="none" stroke="black" points="403,-114.5 403,-133.5 480,-133.5 480,-114.5 403,-114.5"/>
<text text-anchor="middle" x="441.5" y="-121.5" font-family="Helvetica,sans-Serif" font-size="10.00">JS_DupValue</text>
</a>
</g>
</g>
<!-- Node43&#45;&gt;Node48 -->
<g id="edge8" class="edge">
<title>Node43&#45;&gt;Node48</title>
<path fill="none" stroke="midnightblue" d="M358.34,-124C369.61,-124 381.57,-124 392.77,-124"/>
<polygon fill="midnightblue" stroke="midnightblue" points="392.81,-127.5 402.8,-124 392.8,-120.5 392.81,-127.5"/>
</g>
<!-- Node49 -->
<g id="node10" class="node">
<title>Node49</title>
<g id="a_node10"><a xlink:href="quickjs_8h.html#ad80a83d73e9b7d872b88fbf2943aebe9" target="_top" xlink:title=" ">
<polygon fill="none" stroke="black" points="398,-76.5 398,-95.5 485,-95.5 485,-76.5 398,-76.5"/>
<text text-anchor="middle" x="441.5" y="-83.5" font-family="Helvetica,sans-Serif" font-size="10.00">JS_IsException</text>
</a>
</g>
</g>
<!-- Node43&#45;&gt;Node49 -->
<g id="edge10" class="edge">
<title>Node43&#45;&gt;Node49</title>
<path fill="none" stroke="midnightblue" d="M342.18,-114.41C359,-109.55 379.63,-103.59 397.63,-98.39"/>
<polygon fill="midnightblue" stroke="midnightblue" points="398.69,-101.72 407.33,-95.59 396.75,-95 398.69,-101.72"/>
</g>
<!-- Node50 -->
<g id="node11" class="node">
<title>Node50</title>
<g id="a_node11"><a xlink:href="quickjs_8c.html#a7bcb8e1a20cbc8374a5f9ba4a2088cec" target="_top" xlink:title=" ">
<polygon fill="none" stroke="red" points="406.5,-38.5 406.5,-57.5 476.5,-57.5 476.5,-38.5 406.5,-38.5"/>
<text text-anchor="middle" x="441.5" y="-45.5" font-family="Helvetica,sans-Serif" font-size="10.00">JS_ToString</text>
</a>
</g>
</g>
<!-- Node43&#45;&gt;Node50 -->
<g id="edge11" class="edge">
<title>Node43&#45;&gt;Node50</title>
<path fill="none" stroke="midnightblue" d="M321.46,-114.47C337.59,-102.4 366.87,-81.45 394,-67 397.54,-65.12 401.3,-63.3 405.1,-61.58"/>
<polygon fill="midnightblue" stroke="midnightblue" points="406.69,-64.71 414.49,-57.54 403.92,-58.28 406.69,-64.71"/>
</g>
<!-- Node155 -->
<g id="node12" class="node">
<title>Node155</title>
<g id="a_node12"><a xlink:href="cutils_8h.html#aad4e0decb15ab19e9f45b0ee69542a28" target="_top" xlink:title=" ">
<polygon fill="none" stroke="black" points="394,-0.5 394,-19.5 489,-19.5 489,-0.5 394,-0.5"/>
<text text-anchor="middle" x="441.5" y="-7.5" font-family="Helvetica,sans-Serif" font-size="10.00">unicode_to_utf8</text>
</a>
</g>
</g>
<!-- Node43&#45;&gt;Node155 -->
<g id="edge12" class="edge">
<title>Node43&#45;&gt;Node155</title>
<path fill="none" stroke="midnightblue" d="M315.37,-114.34C328.19,-95.55 358.92,-53.75 394,-29 396.55,-27.2 399.3,-25.53 402.15,-23.99"/>
<polygon fill="midnightblue" stroke="midnightblue" points="403.92,-27.02 411.41,-19.51 400.88,-20.71 403.92,-27.02"/>
</g>
</g>
</svg>
