<?xml version="1.0" encoding="UTF-8" standalone="no"?>
<!DOCTYPE svg PUBLIC "-//W3C//DTD SVG 1.1//EN"
 "http://www.w3.org/Graphics/SVG/1.1/DTD/svg11.dtd">
<!-- Generated by graphviz version 2.43.0 (0)
 -->
<!-- Title: add_star_export_entry Pages: 1 -->
<svg width="610pt" height="66pt"
 viewBox="0.00 0.00 610.00 66.00" xmlns="http://www.w3.org/2000/svg" xmlns:xlink="http://www.w3.org/1999/xlink">
<g id="graph0" class="graph" transform="scale(1 1) rotate(0) translate(4 62)">
<title>add_star_export_entry</title>
<!-- Node1 -->
<g id="node1" class="node">
<title>Node1</title>
<g id="a_node1"><a xlink:title=" ">
<polygon fill="#bfbfbf" stroke="black" points="476,-19.5 476,-38.5 602,-38.5 602,-19.5 476,-19.5"/>
<text text-anchor="middle" x="539" y="-26.5" font-family="Helvetica,sans-Serif" font-size="10.00">add_star_export_entry</text>
</a>
</g>
</g>
<!-- Node2 -->
<g id="node2" class="node">
<title>Node2</title>
<g id="a_node2"><a xlink:href="quickjs_8c.html#a498e1d5c7de1b59c1630e9847cde1e41" target="_top" xlink:title=" ">
<polygon fill="none" stroke="black" points="346,-19.5 346,-38.5 440,-38.5 440,-19.5 346,-19.5"/>
<text text-anchor="middle" x="393" y="-26.5" font-family="Helvetica,sans-Serif" font-size="10.00">js_parse_export</text>
</a>
</g>
</g>
<!-- Node1&#45;&gt;Node2 -->
<g id="edge1" class="edge">
<title>Node1&#45;&gt;Node2</title>
<path fill="none" stroke="midnightblue" d="M465.62,-29C457.02,-29 448.44,-29 440.35,-29"/>
<polygon fill="midnightblue" stroke="midnightblue" points="465.68,-32.5 475.68,-29 465.68,-25.5 465.68,-32.5"/>
</g>
<!-- Node3 -->
<g id="node3" class="node">
<title>Node3</title>
<g id="a_node3"><a xlink:href="quickjs_8c.html#ab59a3267a100decc9d2d81eb3297794a" target="_top" xlink:title=" ">
<polygon fill="none" stroke="black" points="170,-0.5 170,-19.5 310,-19.5 310,-0.5 170,-0.5"/>
<text text-anchor="middle" x="240" y="-7.5" font-family="Helvetica,sans-Serif" font-size="10.00">js_parse_source_element</text>
</a>
</g>
</g>
<!-- Node2&#45;&gt;Node3 -->
<g id="edge2" class="edge">
<title>Node2&#45;&gt;Node3</title>
<path fill="none" stroke="midnightblue" d="M335.87,-21.94C327.5,-20.88 318.79,-19.79 310.2,-18.71"/>
<polygon fill="midnightblue" stroke="midnightblue" points="335.52,-25.42 345.87,-23.2 336.39,-18.47 335.52,-25.42"/>
</g>
<!-- Node4 -->
<g id="node4" class="node">
<title>Node4</title>
<g id="a_node4"><a xlink:href="quickjs_8c.html#acc9eb677cab8dfcf45f59381f8a19601" target="_top" xlink:title=" ">
<polygon fill="none" stroke="red" points="0,-38.5 0,-57.5 134,-57.5 134,-38.5 0,-38.5"/>
<text text-anchor="middle" x="67" y="-45.5" font-family="Helvetica,sans-Serif" font-size="10.00">js_parse_function_decl2</text>
</a>
</g>
</g>
<!-- Node3&#45;&gt;Node4 -->
<g id="edge3" class="edge">
<title>Node3&#45;&gt;Node4</title>
<path fill="none" stroke="midnightblue" d="M185.79,-21.82C161.68,-27.18 133.56,-33.43 110.84,-38.48"/>
<polygon fill="midnightblue" stroke="midnightblue" points="186.85,-25.18 195.85,-19.59 185.33,-18.34 186.85,-25.18"/>
</g>
<!-- Node31 -->
<g id="node5" class="node">
<title>Node31</title>
<g id="a_node5"><a xlink:href="quickjs_8c.html#aec05caae64451720670d1a56040110b3" target="_top" xlink:title=" ">
<polygon fill="none" stroke="red" points="15,-0.5 15,-19.5 119,-19.5 119,-0.5 15,-0.5"/>
<text text-anchor="middle" x="67" y="-7.5" font-family="Helvetica,sans-Serif" font-size="10.00">js_parse_program</text>
</a>
</g>
</g>
<!-- Node3&#45;&gt;Node31 -->
<g id="edge5" class="edge">
<title>Node3&#45;&gt;Node31</title>
<path fill="none" stroke="midnightblue" d="M159.92,-10C146.07,-10 132,-10 119.17,-10"/>
<polygon fill="midnightblue" stroke="midnightblue" points="159.94,-13.5 169.94,-10 159.94,-6.5 159.94,-13.5"/>
</g>
<!-- Node4&#45;&gt;Node2 -->
<g id="edge4" class="edge">
<title>Node4&#45;&gt;Node2</title>
<path fill="none" stroke="midnightblue" d="M144.35,-43.52C206.94,-39.85 293.46,-34.78 345.92,-31.7"/>
<polygon fill="midnightblue" stroke="midnightblue" points="143.91,-40.04 134.13,-44.12 144.32,-47.03 143.91,-40.04"/>
</g>
</g>
</svg>
