<?xml version="1.0" encoding="UTF-8" standalone="no"?>
<!DOCTYPE svg PUBLIC "-//W3C//DTD SVG 1.1//EN"
 "http://www.w3.org/Graphics/SVG/1.1/DTD/svg11.dtd">
<!-- Generated by graphviz version 2.43.0 (0)
 -->
<!-- Title: js_proxy_set Pages: 1 -->
<svg width="1062pt" height="1169pt"
 viewBox="0.00 0.00 1062.00 1168.77" xmlns="http://www.w3.org/2000/svg" xmlns:xlink="http://www.w3.org/1999/xlink">
<g id="graph0" class="graph" transform="scale(1 1) rotate(0) translate(4 1164.77)">
<title>js_proxy_set</title>
<!-- Node1 -->
<g id="node1" class="node">
<title>Node1</title>
<g id="a_node1"><a xlink:title=" ">
<polygon fill="#bfbfbf" stroke="black" points="0,-265.17 0,-284.17 78,-284.17 78,-265.17 0,-265.17"/>
<text text-anchor="middle" x="39" y="-272.17" font-family="Helvetica,sans-Serif" font-size="10.00">js_proxy_set</text>
</a>
</g>
</g>
<!-- Node2 -->
<g id="node2" class="node">
<title>Node2</title>
<g id="a_node2"><a xlink:href="quickjs_8c.html#a9e94551ddba8762d74eda5127445dbbd" target="_top" xlink:title=" ">
<polygon fill="none" stroke="black" points="227,-1006.17 227,-1025.17 335,-1025.17 335,-1006.17 227,-1006.17"/>
<text text-anchor="middle" x="281" y="-1013.17" font-family="Helvetica,sans-Serif" font-size="10.00">get_proxy_method</text>
</a>
</g>
</g>
<!-- Node1&#45;&gt;Node2 -->
<g id="edge1" class="edge">
<title>Node1&#45;&gt;Node2</title>
<path fill="none" stroke="midnightblue" d="M40.36,-284.22C43.48,-363.99 66.76,-917.87 114,-972.67 139.12,-1001.82 181.19,-1012.49 216.69,-1015.92"/>
<polygon fill="midnightblue" stroke="midnightblue" points="216.74,-1019.44 226.98,-1016.74 217.29,-1012.46 216.74,-1019.44"/>
</g>
<!-- Node5 -->
<g id="node5" class="node">
<title>Node5</title>
<g id="a_node5"><a xlink:href="quickjs_8h.html#ad80a83d73e9b7d872b88fbf2943aebe9" target="_top" xlink:title=" ">
<polygon fill="none" stroke="black" points="800,-1012.17 800,-1031.17 887,-1031.17 887,-1012.17 800,-1012.17"/>
<text text-anchor="middle" x="843.5" y="-1019.17" font-family="Helvetica,sans-Serif" font-size="10.00">JS_IsException</text>
</a>
</g>
</g>
<!-- Node1&#45;&gt;Node5 -->
<g id="edge66" class="edge">
<title>Node1&#45;&gt;Node5</title>
<path fill="none" stroke="midnightblue" d="M40.06,-284.4C40.64,-361.21 47,-870.53 114,-1005.67 158.84,-1096.11 179.06,-1160.67 280,-1160.67 280,-1160.67 280,-1160.67 446.5,-1160.67 565.23,-1160.67 600.35,-1162.23 710,-1116.67 755.83,-1097.63 801.03,-1060.11 824.97,-1038.36"/>
<polygon fill="midnightblue" stroke="midnightblue" points="827.56,-1040.74 832.52,-1031.38 822.8,-1035.6 827.56,-1040.74"/>
</g>
<!-- Node10 -->
<g id="node10" class="node">
<title>Node10</title>
<g id="a_node10"><a xlink:href="quickjs_8c.html#a686cf78f8b0361621ee2ba6182195c31" target="_top" xlink:title=" ">
<polygon fill="none" stroke="black" points="799.5,-341.17 799.5,-360.17 887.5,-360.17 887.5,-341.17 799.5,-341.17"/>
<text text-anchor="middle" x="843.5" y="-348.17" font-family="Helvetica,sans-Serif" font-size="10.00">is_strict_mode</text>
</a>
</g>
</g>
<!-- Node1&#45;&gt;Node10 -->
<g id="edge9" class="edge">
<title>Node1&#45;&gt;Node10</title>
<path fill="none" stroke="midnightblue" d="M50.57,-264.77C64.12,-252.69 88.9,-232.64 114,-222.67 183.28,-195.16 205.46,-198.67 280,-198.67 280,-198.67 280,-198.67 446.5,-198.67 566.81,-198.67 599.85,-212.29 710,-260.67 753.96,-279.98 798.89,-314.18 823.49,-334.4"/>
<polygon fill="midnightblue" stroke="midnightblue" points="821.38,-337.21 831.3,-340.93 825.87,-331.83 821.38,-337.21"/>
</g>
<!-- Node11 -->
<g id="node11" class="node">
<title>Node11</title>
<g id="a_node11"><a xlink:href="quickjs_8c.html#afa67965c1017685fc6783776d6d0d4d7" target="_top" xlink:title=" ">
<polygon fill="none" stroke="black" points="398,-835.17 398,-854.17 493,-854.17 493,-835.17 398,-835.17"/>
<text text-anchor="middle" x="445.5" y="-842.17" font-family="Helvetica,sans-Serif" font-size="10.00">JS_AtomToValue</text>
</a>
</g>
</g>
<!-- Node1&#45;&gt;Node11 -->
<g id="edge10" class="edge">
<title>Node1&#45;&gt;Node11</title>
<path fill="none" stroke="midnightblue" d="M40.94,-284.44C46.11,-336.68 72.4,-583.22 114,-645.67 183.68,-750.29 328.82,-808.47 401.33,-832.07"/>
<polygon fill="midnightblue" stroke="midnightblue" points="400.47,-835.47 411.06,-835.17 402.6,-828.8 400.47,-835.47"/>
</g>
<!-- Node15 -->
<g id="node15" class="node">
<title>Node15</title>
<g id="a_node15"><a xlink:href="quickjs_8h.html#a775522f2d084fc8fa0fcb33f390006b4" target="_top" xlink:title=" ">
<polygon fill="none" stroke="black" points="977,-607.17 977,-626.17 1054,-626.17 1054,-607.17 977,-607.17"/>
<text text-anchor="middle" x="1015.5" y="-614.17" font-family="Helvetica,sans-Serif" font-size="10.00">JS_DupValue</text>
</a>
</g>
</g>
<!-- Node1&#45;&gt;Node15 -->
<g id="edge61" class="edge">
<title>Node1&#45;&gt;Node15</title>
<path fill="none" stroke="midnightblue" d="M39.5,-265.14C38.11,-227.87 38.48,-90.88 114,-27.67 170.95,19.99 205.74,-8.67 280,-8.67 280,-8.67 280,-8.67 634,-8.67 718.77,-8.67 889.6,-73.4 941,-141.67 996.49,-215.38 1010.96,-516.15 1013.87,-596.73"/>
<polygon fill="midnightblue" stroke="midnightblue" points="1010.38,-597.1 1014.22,-606.97 1017.37,-596.86 1010.38,-597.1"/>
</g>
<!-- Node39 -->
<g id="node17" class="node">
<title>Node39</title>
<g id="a_node17"><a xlink:href="quickjs_8c.html#a75f6ee5e4235a7dc99889f3d2eb2c147" target="_top" xlink:title=" ">
<polygon fill="none" stroke="black" points="117,-617.17 117,-636.17 188,-636.17 188,-617.17 117,-617.17"/>
<text text-anchor="middle" x="152.5" y="-624.17" font-family="Helvetica,sans-Serif" font-size="10.00">JS_CallFree</text>
</a>
</g>
</g>
<!-- Node1&#45;&gt;Node39 -->
<g id="edge16" class="edge">
<title>Node1&#45;&gt;Node39</title>
<path fill="none" stroke="midnightblue" d="M40.19,-284.27C41.41,-324.72 50.23,-484.19 114,-592.67 117.92,-599.34 123.58,-605.44 129.31,-610.58"/>
<polygon fill="midnightblue" stroke="midnightblue" points="127.09,-613.28 137.03,-616.95 131.54,-607.88 127.09,-613.28"/>
</g>
<!-- Node87 -->
<g id="node20" class="node">
<title>Node87</title>
<g id="a_node20"><a xlink:href="quickjs_8h.html#afaa20c47565bc704c6c85f3d77254e7d" target="_top" xlink:title=" ">
<polygon fill="none" stroke="red" points="804,-151.17 804,-170.17 883,-170.17 883,-151.17 804,-151.17"/>
<text text-anchor="middle" x="843.5" y="-158.17" font-family="Helvetica,sans-Serif" font-size="10.00">JS_FreeValue</text>
</a>
</g>
</g>
<!-- Node1&#45;&gt;Node87 -->
<g id="edge64" class="edge">
<title>Node1&#45;&gt;Node87</title>
<path fill="none" stroke="midnightblue" d="M43.64,-264.97C52.44,-242.72 76.89,-187.52 114,-155.67 174.89,-103.41 199.76,-84.67 280,-84.67 280,-84.67 280,-84.67 446.5,-84.67 579.28,-84.67 732.69,-126.39 803.27,-148.01"/>
<polygon fill="midnightblue" stroke="midnightblue" points="802.48,-151.43 813.07,-151.05 804.55,-144.75 802.48,-151.43"/>
</g>
<!-- Node133 -->
<g id="node21" class="node">
<title>Node133</title>
<g id="a_node21"><a xlink:href="quickjs_8h.html#a4e407128a9605afb77523e49e9a627fd" target="_top" xlink:title=" ">
<polygon fill="none" stroke="black" points="799,-455.17 799,-474.17 888,-474.17 888,-455.17 799,-455.17"/>
<text text-anchor="middle" x="843.5" y="-462.17" font-family="Helvetica,sans-Serif" font-size="10.00">JS_IsUndefined</text>
</a>
</g>
</g>
<!-- Node1&#45;&gt;Node133 -->
<g id="edge67" class="edge">
<title>Node1&#45;&gt;Node133</title>
<path fill="none" stroke="midnightblue" d="M78.29,-273.84C183.37,-272.86 483.47,-278.82 710,-369.67 756.3,-388.24 801.64,-426.26 825.4,-448.16"/>
<polygon fill="midnightblue" stroke="midnightblue" points="823.19,-450.88 832.88,-455.17 827.98,-445.77 823.19,-450.88"/>
</g>
<!-- Node233 -->
<g id="node22" class="node">
<title>Node233</title>
<g id="a_node22"><a xlink:href="quickjs_8c.html#a24be89a128d1cd7c0908604815b2b854" target="_top" xlink:title=" ">
<polygon fill="none" stroke="red" points="799,-759.17 799,-778.17 888,-778.17 888,-759.17 799,-759.17"/>
<text text-anchor="middle" x="843.5" y="-766.17" font-family="Helvetica,sans-Serif" font-size="10.00">js_same_value</text>
</a>
</g>
</g>
<!-- Node1&#45;&gt;Node233 -->
<g id="edge68" class="edge">
<title>Node1&#45;&gt;Node233</title>
<path fill="none" stroke="midnightblue" d="M40.27,-284.34C41.88,-331.62 52.36,-542.62 114,-700.67 163.54,-827.71 143.65,-958.67 280,-958.67 280,-958.67 280,-958.67 446.5,-958.67 568.38,-958.67 612.54,-955.87 710,-882.67 733.96,-864.68 724.5,-846.54 746,-825.67 764.8,-807.42 790.53,-792.6 810.69,-782.65"/>
<polygon fill="midnightblue" stroke="midnightblue" points="812.29,-785.76 819.8,-778.29 809.27,-779.45 812.29,-785.76"/>
</g>
<!-- Node428 -->
<g id="node25" class="node">
<title>Node428</title>
<g id="a_node25"><a xlink:href="quickjs_8c.html#a638e637d492ee889691691baba33c4bd" target="_top" xlink:title=" ">
<polygon fill="none" stroke="red" points="383,-455.17 383,-474.17 508,-474.17 508,-455.17 383,-455.17"/>
<text text-anchor="middle" x="445.5" y="-462.17" font-family="Helvetica,sans-Serif" font-size="10.00">JS_SetPropertyGeneric</text>
</a>
</g>
</g>
<!-- Node1&#45;&gt;Node428 -->
<g id="edge69" class="edge">
<title>Node1&#45;&gt;Node428</title>
<path fill="none" stroke="midnightblue" d="M60.34,-284.23C126.55,-315.33 336.21,-413.81 414.57,-450.62"/>
<polygon fill="midnightblue" stroke="midnightblue" points="413.34,-453.91 423.88,-454.99 416.32,-447.57 413.34,-453.91"/>
</g>
<!-- Node306 -->
<g id="node26" class="node">
<title>Node306</title>
<g id="a_node26"><a xlink:href="quickjs_8c.html#ad13892c0a0f11781b566808876658099" target="_top" xlink:title=" ">
<polygon fill="none" stroke="red" points="558.5,-607.17 558.5,-626.17 707.5,-626.17 707.5,-607.17 558.5,-607.17"/>
<text text-anchor="middle" x="633" y="-614.17" font-family="Helvetica,sans-Serif" font-size="10.00">JS_GetOwnPropertyInternal</text>
</a>
</g>
</g>
<!-- Node1&#45;&gt;Node306 -->
<g id="edge65" class="edge">
<title>Node1&#45;&gt;Node306</title>
<path fill="none" stroke="midnightblue" d="M48.91,-284.42C62.19,-298.58 88.35,-325.18 114,-343.67 283.35,-465.76 514.35,-567.66 599.1,-603.19"/>
<polygon fill="midnightblue" stroke="midnightblue" points="597.89,-606.48 608.47,-607.09 600.58,-600.01 597.89,-606.48"/>
</g>
<!-- Node223 -->
<g id="node29" class="node">
<title>Node223</title>
<g id="a_node29"><a xlink:href="quickjs_8c.html#a2bf30c9cddfe98a32535843202495069" target="_top" xlink:title=" ">
<polygon fill="none" stroke="black" points="403.5,-151.17 403.5,-170.17 487.5,-170.17 487.5,-151.17 403.5,-151.17"/>
<text text-anchor="middle" x="445.5" y="-158.17" font-family="Helvetica,sans-Serif" font-size="10.00">JS_ToBoolFree</text>
</a>
</g>
</g>
<!-- Node1&#45;&gt;Node223 -->
<g id="edge70" class="edge">
<title>Node1&#45;&gt;Node223</title>
<path fill="none" stroke="midnightblue" d="M44.49,-265.16C54.12,-245.97 78.79,-202.9 114,-184.67 203.54,-138.33 325.38,-144.19 393.33,-152.5"/>
<polygon fill="midnightblue" stroke="midnightblue" points="392.99,-155.99 403.35,-153.79 393.88,-149.04 392.99,-155.99"/>
</g>
<!-- Node318 -->
<g id="node30" class="node">
<title>Node318</title>
<g id="a_node30"><a xlink:href="quickjs_8c.html#adfe21c674d998ca6586b7f7400352dc4" target="_top" xlink:title=" ">
<polygon fill="none" stroke="black" points="114,-37.17 114,-56.17 191,-56.17 191,-37.17 114,-37.17"/>
<text text-anchor="middle" x="152.5" y="-44.17" font-family="Helvetica,sans-Serif" font-size="10.00">js_free_desc</text>
</a>
</g>
</g>
<!-- Node1&#45;&gt;Node318 -->
<g id="edge62" class="edge">
<title>Node1&#45;&gt;Node318</title>
<path fill="none" stroke="midnightblue" d="M41.25,-265.09C45.76,-233.89 63.64,-133.63 114,-70.67 116.54,-67.51 119.61,-64.63 122.89,-62.05"/>
<polygon fill="midnightblue" stroke="midnightblue" points="125.03,-64.83 131.3,-56.29 121.07,-59.06 125.03,-64.83"/>
</g>
<!-- Node3 -->
<g id="node3" class="node">
<title>Node3</title>
<g id="a_node3"><a xlink:href="quickjs_8c.html#af23ec7c9970ceb4671c59da7abd4b078" target="_top" xlink:title=" ">
<polygon fill="none" stroke="black" points="377,-987.17 377,-1006.17 514,-1006.17 514,-987.17 377,-987.17"/>
<text text-anchor="middle" x="445.5" y="-994.17" font-family="Helvetica,sans-Serif" font-size="10.00">js_check_stack_overflow</text>
</a>
</g>
</g>
<!-- Node2&#45;&gt;Node3 -->
<g id="edge2" class="edge">
<title>Node2&#45;&gt;Node3</title>
<path fill="none" stroke="midnightblue" d="M335.21,-1009.45C345.31,-1008.27 356.07,-1007.01 366.75,-1005.77"/>
<polygon fill="midnightblue" stroke="midnightblue" points="367.41,-1009.21 376.94,-1004.57 366.6,-1002.26 367.41,-1009.21"/>
</g>
<!-- Node2&#45;&gt;Node5 -->
<g id="edge4" class="edge">
<title>Node2&#45;&gt;Node5</title>
<path fill="none" stroke="midnightblue" d="M287.88,-1025.24C300.36,-1044.5 331.61,-1087.49 371,-1103.67 530.97,-1169.41 742.52,-1074.03 816.01,-1036.08"/>
<polygon fill="midnightblue" stroke="midnightblue" points="817.83,-1039.08 825.06,-1031.34 814.58,-1032.89 817.83,-1039.08"/>
</g>
<!-- Node6 -->
<g id="node6" class="node">
<title>Node6</title>
<g id="a_node6"><a xlink:href="quickjs_8h.html#a149f24b67e745bad93573b3b4c80db4c" target="_top" xlink:title=" ">
<polygon fill="none" stroke="black" points="416,-1025.17 416,-1044.17 475,-1044.17 475,-1025.17 416,-1025.17"/>
<text text-anchor="middle" x="445.5" y="-1032.17" font-family="Helvetica,sans-Serif" font-size="10.00">JS_IsNull</text>
</a>
</g>
</g>
<!-- Node2&#45;&gt;Node6 -->
<g id="edge5" class="edge">
<title>Node2&#45;&gt;Node6</title>
<path fill="none" stroke="midnightblue" d="M335.21,-1021.9C358.17,-1024.58 384.54,-1027.66 405.62,-1030.13"/>
<polygon fill="midnightblue" stroke="midnightblue" points="405.48,-1033.64 415.82,-1031.32 406.29,-1026.68 405.48,-1033.64"/>
</g>
<!-- Node7 -->
<g id="node7" class="node">
<title>Node7</title>
<g id="a_node7"><a xlink:href="quickjs_8c.html#a8353f635fb8a20553c08db8cf38c17e0" target="_top" xlink:title=" ">
<polygon fill="none" stroke="black" points="380,-873.17 380,-892.17 511,-892.17 511,-873.17 380,-873.17"/>
<text text-anchor="middle" x="445.5" y="-880.17" font-family="Helvetica,sans-Serif" font-size="10.00">JS_ThrowStackOverflow</text>
</a>
</g>
</g>
<!-- Node2&#45;&gt;Node7 -->
<g id="edge6" class="edge">
<title>Node2&#45;&gt;Node7</title>
<path fill="none" stroke="midnightblue" d="M293.69,-1006.11C321.19,-983.6 390.28,-927.05 424.56,-898.99"/>
<polygon fill="midnightblue" stroke="midnightblue" points="426.96,-901.55 432.48,-892.51 422.53,-896.14 426.96,-901.55"/>
</g>
<!-- Node9 -->
<g id="node9" class="node">
<title>Node9</title>
<g id="a_node9"><a xlink:href="quickjs_8c.html#a199d64ccbee0a90d93e1ad12745417f6" target="_top" xlink:title=" ">
<polygon fill="none" stroke="black" points="371,-1063.67 371,-1093.67 520,-1093.67 520,-1063.67 371,-1063.67"/>
<text text-anchor="start" x="379" y="-1081.67" font-family="Helvetica,sans-Serif" font-size="10.00">JS_ThrowTypeErrorRevoked</text>
<text text-anchor="middle" x="445.5" y="-1070.67" font-family="Helvetica,sans-Serif" font-size="10.00">Proxy</text>
</a>
</g>
</g>
<!-- Node2&#45;&gt;Node9 -->
<g id="edge8" class="edge">
<title>Node2&#45;&gt;Node9</title>
<path fill="none" stroke="midnightblue" d="M303.04,-1025.19C320.95,-1033.16 347.47,-1044.66 371,-1053.67 376.78,-1055.89 382.86,-1058.11 388.93,-1060.27"/>
<polygon fill="midnightblue" stroke="midnightblue" points="387.84,-1063.6 398.43,-1063.6 390.15,-1056.99 387.84,-1063.6"/>
</g>
<!-- Node4 -->
<g id="node4" class="node">
<title>Node4</title>
<g id="a_node4"><a xlink:href="quickjs_8c.html#acad70023f36797496683e579a4d60461" target="_top" xlink:title=" ">
<polygon fill="none" stroke="black" points="574.5,-987.17 574.5,-1006.17 691.5,-1006.17 691.5,-987.17 574.5,-987.17"/>
<text text-anchor="middle" x="633" y="-994.17" font-family="Helvetica,sans-Serif" font-size="10.00">js_get_stack_pointer</text>
</a>
</g>
</g>
<!-- Node3&#45;&gt;Node4 -->
<g id="edge3" class="edge">
<title>Node3&#45;&gt;Node4</title>
<path fill="none" stroke="midnightblue" d="M514.26,-996.67C530.63,-996.67 548.12,-996.67 564.48,-996.67"/>
<polygon fill="midnightblue" stroke="midnightblue" points="564.5,-1000.17 574.5,-996.67 564.5,-993.17 564.5,-1000.17"/>
</g>
<!-- Node8 -->
<g id="node8" class="node">
<title>Node8</title>
<g id="a_node8"><a xlink:href="quickjs_8c.html#a853f0924d441ea4225488f37c8b69f9a" target="_top" xlink:title=" ">
<polygon fill="none" stroke="black" points="593,-854.17 593,-873.17 673,-873.17 673,-854.17 593,-854.17"/>
<text text-anchor="middle" x="633" y="-861.17" font-family="Helvetica,sans-Serif" font-size="10.00">__attribute__</text>
</a>
</g>
</g>
<!-- Node7&#45;&gt;Node8 -->
<g id="edge7" class="edge">
<title>Node7&#45;&gt;Node8</title>
<path fill="none" stroke="midnightblue" d="M511.12,-876.06C534.59,-873.65 560.71,-870.98 582.65,-868.73"/>
<polygon fill="midnightblue" stroke="midnightblue" points="583.14,-872.2 592.73,-867.7 582.43,-865.23 583.14,-872.2"/>
</g>
<!-- Node12 -->
<g id="node12" class="node">
<title>Node12</title>
<g id="a_node12"><a xlink:href="quickjs_8c.html#a06ff303a11e6641cbf1f6634e6a61811" target="_top" xlink:title=" ">
<polygon fill="none" stroke="black" points="580.5,-797.17 580.5,-816.17 685.5,-816.17 685.5,-797.17 580.5,-797.17"/>
<text text-anchor="middle" x="633" y="-804.17" font-family="Helvetica,sans-Serif" font-size="10.00">__JS_AtomToValue</text>
</a>
</g>
</g>
<!-- Node11&#45;&gt;Node12 -->
<g id="edge11" class="edge">
<title>Node11&#45;&gt;Node12</title>
<path fill="none" stroke="midnightblue" d="M493.31,-835.09C518.34,-829.96 549.34,-823.61 575.68,-818.21"/>
<polygon fill="midnightblue" stroke="midnightblue" points="576.43,-821.63 585.53,-816.19 575.03,-814.77 576.43,-821.63"/>
</g>
<!-- Node13 -->
<g id="node13" class="node">
<title>Node13</title>
<g id="a_node13"><a xlink:href="quickjs_8c.html#a288254c06a39c9fca740a7abdad2834e" target="_top" xlink:title=" ">
<polygon fill="none" stroke="black" points="782,-683.17 782,-702.17 905,-702.17 905,-683.17 782,-683.17"/>
<text text-anchor="middle" x="843.5" y="-690.17" font-family="Helvetica,sans-Serif" font-size="10.00">__JS_AtomIsTaggedInt</text>
</a>
</g>
</g>
<!-- Node12&#45;&gt;Node13 -->
<g id="edge12" class="edge">
<title>Node12&#45;&gt;Node13</title>
<path fill="none" stroke="midnightblue" d="M651.42,-797.15C687.98,-777.16 772.92,-730.72 816.17,-707.07"/>
<polygon fill="midnightblue" stroke="midnightblue" points="817.89,-710.12 824.98,-702.25 814.53,-703.98 817.89,-710.12"/>
</g>
<!-- Node14 -->
<g id="node14" class="node">
<title>Node14</title>
<g id="a_node14"><a xlink:href="quickjs_8c.html#a89f38938cee8077ce1fbba07946ed185" target="_top" xlink:title=" ">
<polygon fill="none" stroke="black" points="788.5,-645.17 788.5,-664.17 898.5,-664.17 898.5,-645.17 788.5,-645.17"/>
<text text-anchor="middle" x="843.5" y="-652.17" font-family="Helvetica,sans-Serif" font-size="10.00">__JS_AtomToUInt32</text>
</a>
</g>
</g>
<!-- Node12&#45;&gt;Node14 -->
<g id="edge13" class="edge">
<title>Node12&#45;&gt;Node14</title>
<path fill="none" stroke="midnightblue" d="M641.57,-796.96C664.45,-767.68 732.22,-681.8 746,-673.67 755.84,-667.87 767.13,-663.81 778.44,-660.96"/>
<polygon fill="midnightblue" stroke="midnightblue" points="779.34,-664.35 788.34,-658.77 777.82,-657.52 779.34,-664.35"/>
</g>
<!-- Node12&#45;&gt;Node15 -->
<g id="edge14" class="edge">
<title>Node12&#45;&gt;Node15</title>
<path fill="none" stroke="midnightblue" d="M685.53,-809.81C762.1,-813.44 901.15,-815.72 941,-787.67 991.77,-751.94 1007.73,-673.53 1012.54,-636.62"/>
<polygon fill="midnightblue" stroke="midnightblue" points="1016.03,-636.93 1013.7,-626.6 1009.07,-636.13 1016.03,-636.93"/>
</g>
<!-- Node16 -->
<g id="node16" class="node">
<title>Node16</title>
<g id="a_node16"><a xlink:href="quickjs_8c.html#a0ee6a3654a6016393fac5e1c108f403a" target="_top" xlink:title=" ">
<polygon fill="none" stroke="red" points="803,-835.17 803,-854.17 884,-854.17 884,-835.17 803,-835.17"/>
<text text-anchor="middle" x="843.5" y="-842.17" font-family="Helvetica,sans-Serif" font-size="10.00">JS_NewString</text>
</a>
</g>
</g>
<!-- Node12&#45;&gt;Node16 -->
<g id="edge15" class="edge">
<title>Node12&#45;&gt;Node16</title>
<path fill="none" stroke="midnightblue" d="M685.54,-816.07C718.29,-822.04 760.47,-829.72 792.85,-835.62"/>
<polygon fill="midnightblue" stroke="midnightblue" points="792.53,-839.12 802.99,-837.47 793.78,-832.24 792.53,-839.12"/>
</g>
<!-- Node40 -->
<g id="node18" class="node">
<title>Node40</title>
<g id="a_node18"><a xlink:href="quickjs_8c.html#ac2894ff4edcdb4e6841bcce9c76081e3" target="_top" xlink:title=" ">
<polygon fill="none" stroke="red" points="237.5,-636.17 237.5,-655.17 324.5,-655.17 324.5,-636.17 237.5,-636.17"/>
<text text-anchor="middle" x="281" y="-643.17" font-family="Helvetica,sans-Serif" font-size="10.00">JS_CallInternal</text>
</a>
</g>
</g>
<!-- Node39&#45;&gt;Node40 -->
<g id="edge17" class="edge">
<title>Node39&#45;&gt;Node40</title>
<path fill="none" stroke="midnightblue" d="M188.07,-625.78C205.43,-627.53 226.46,-630.66 244.02,-634.11"/>
<polygon fill="midnightblue" stroke="midnightblue" points="243.4,-637.56 253.9,-636.17 244.83,-630.7 243.4,-637.56"/>
</g>
<!-- Node39&#45;&gt;Node87 -->
<g id="edge60" class="edge">
<title>Node39&#45;&gt;Node87</title>
<path fill="none" stroke="midnightblue" d="M157.46,-617.12C175.76,-573.95 256.12,-394.67 371,-288.67 439.54,-225.44 466.8,-216.89 556,-189.67 636.58,-165.09 735.21,-160.31 793.22,-159.91"/>
<polygon fill="midnightblue" stroke="midnightblue" points="793.57,-163.41 803.56,-159.88 793.56,-156.41 793.57,-163.41"/>
</g>
<!-- Node40&#45;&gt;Node3 -->
<g id="edge23" class="edge">
<title>Node40&#45;&gt;Node3</title>
<path fill="none" stroke="midnightblue" d="M282.98,-655.24C287.26,-693.49 307.13,-838.13 371,-934.67 383.67,-953.82 403.94,-970.29 419.99,-981.43"/>
<polygon fill="midnightblue" stroke="midnightblue" points="418.13,-984.41 428.39,-987.06 422.03,-978.59 418.13,-984.41"/>
</g>
<!-- Node40&#45;&gt;Node5 -->
<g id="edge35" class="edge">
<title>Node40&#45;&gt;Node5</title>
<path fill="none" stroke="midnightblue" d="M282.2,-655.35C283.54,-693.23 293.75,-832.77 371,-901.67 486.23,-1004.46 561.21,-936.4 710,-977.67 743.14,-986.87 780.24,-999.38 806.74,-1008.72"/>
<polygon fill="midnightblue" stroke="midnightblue" points="805.75,-1012.08 816.34,-1012.13 808.09,-1005.48 805.75,-1012.08"/>
</g>
<!-- Node40&#45;&gt;Node6 -->
<g id="edge36" class="edge">
<title>Node40&#45;&gt;Node6</title>
<path fill="none" stroke="midnightblue" d="M282.99,-655.35C288.6,-708.23 317.96,-961.73 371,-1015.67 380.19,-1025.02 393.32,-1029.97 405.96,-1032.53"/>
<polygon fill="midnightblue" stroke="midnightblue" points="405.47,-1036 415.9,-1034.11 406.57,-1029.09 405.47,-1036"/>
</g>
<!-- Node40&#45;&gt;Node7 -->
<g id="edge56" class="edge">
<title>Node40&#45;&gt;Node7</title>
<path fill="none" stroke="midnightblue" d="M282.92,-655.25C286.7,-689.25 304.2,-805.31 371,-863.67 372.77,-865.22 374.66,-866.65 376.63,-867.96"/>
<polygon fill="midnightblue" stroke="midnightblue" points="375.31,-871.23 385.75,-873.01 378.7,-865.11 375.31,-871.23"/>
</g>
<!-- Node40&#45;&gt;Node8 -->
<g id="edge18" class="edge">
<title>Node40&#45;&gt;Node8</title>
<path fill="none" stroke="midnightblue" d="M285.49,-655.33C295.03,-680.37 324.06,-747.88 371,-782.67 426.37,-823.71 454.24,-805.04 520,-825.67 545.31,-833.62 573.61,-843.22 595.42,-850.79"/>
<polygon fill="midnightblue" stroke="midnightblue" points="594.36,-854.12 604.96,-854.11 596.66,-847.51 594.36,-854.12"/>
</g>
<!-- Node40&#45;&gt;Node10 -->
<g id="edge19" class="edge">
<title>Node40&#45;&gt;Node10</title>
<path fill="none" stroke="midnightblue" d="M281.93,-636.16C282.19,-597.68 288.78,-452.52 371,-387.67 434.55,-337.55 679.83,-342.68 789.26,-347.69"/>
<polygon fill="midnightblue" stroke="midnightblue" points="789.27,-351.2 799.42,-348.18 789.6,-344.21 789.27,-351.2"/>
</g>
<!-- Node40&#45;&gt;Node11 -->
<g id="edge20" class="edge">
<title>Node40&#45;&gt;Node11</title>
<path fill="none" stroke="midnightblue" d="M286.37,-655.3C302.27,-690.19 356.89,-808.59 371,-820.67 376.14,-825.07 382.1,-828.67 388.37,-831.61"/>
<polygon fill="midnightblue" stroke="midnightblue" points="387.12,-834.88 397.7,-835.47 389.79,-828.41 387.12,-834.88"/>
</g>
<!-- Node40&#45;&gt;Node15 -->
<g id="edge33" class="edge">
<title>Node40&#45;&gt;Node15</title>
<path fill="none" stroke="midnightblue" d="M296.4,-655.26C313.43,-666.07 343.02,-683.25 371,-691.67 492.37,-728.2 827.21,-767.5 941,-711.67 973.14,-695.9 995.23,-658.55 1006.3,-635.66"/>
<polygon fill="midnightblue" stroke="midnightblue" points="1009.61,-636.84 1010.6,-626.29 1003.24,-633.92 1009.61,-636.84"/>
</g>
<!-- Node40&#45;&gt;Node39 -->
<g id="edge21" class="edge">
<title>Node40&#45;&gt;Node39</title>
<path fill="none" stroke="midnightblue" d="M237.39,-645.69C221.87,-643.88 204.48,-641.18 189.58,-638.26"/>
<polygon fill="midnightblue" stroke="midnightblue" points="190.21,-634.81 179.71,-636.2 188.79,-641.67 190.21,-634.81"/>
</g>
<!-- Node40&#45;&gt;Node40 -->
<g id="edge22" class="edge">
<title>Node40&#45;&gt;Node40</title>
<path fill="none" stroke="midnightblue" d="M261.27,-655.43C251.67,-664.24 258.25,-673.67 281,-673.67 295.57,-673.67 303.51,-669.8 304.81,-664.7"/>
<polygon fill="midnightblue" stroke="midnightblue" points="307.96,-663.17 300.73,-655.43 301.55,-665.99 307.96,-663.17"/>
</g>
<!-- Node185 -->
<g id="node19" class="node">
<title>Node185</title>
<g id="a_node19"><a xlink:href="quickjs_8c.html#ab50618f1bf78e444caa6da0e3e2785d7" target="_top" xlink:title=" ">
<polygon fill="none" stroke="red" points="581,-683.17 581,-702.17 685,-702.17 685,-683.17 581,-683.17"/>
<text text-anchor="middle" x="633" y="-690.17" font-family="Helvetica,sans-Serif" font-size="10.00">JS_DefineProperty</text>
</a>
</g>
</g>
<!-- Node40&#45;&gt;Node185 -->
<g id="edge24" class="edge">
<title>Node40&#45;&gt;Node185</title>
<path fill="none" stroke="midnightblue" d="M313.86,-655.24C330.71,-659.96 351.82,-665.34 371,-668.67 438.67,-680.45 517.27,-686.68 570.39,-689.81"/>
<polygon fill="midnightblue" stroke="midnightblue" points="570.48,-693.33 580.67,-690.4 570.88,-686.34 570.48,-693.33"/>
</g>
<!-- Node40&#45;&gt;Node87 -->
<g id="edge34" class="edge">
<title>Node40&#45;&gt;Node87</title>
<path fill="none" stroke="midnightblue" d="M281.98,-635.93C282.43,-595.02 289.53,-435.1 371,-346.67 419.15,-294.41 459.66,-326.22 520,-288.67 538.43,-277.21 537.28,-266.67 556,-255.67 633.1,-210.39 734.7,-183.27 793.89,-170.21"/>
<polygon fill="midnightblue" stroke="midnightblue" points="794.69,-173.62 803.72,-168.09 793.21,-166.78 794.69,-173.62"/>
</g>
<!-- Node40&#45;&gt;Node133 -->
<g id="edge38" class="edge">
<title>Node40&#45;&gt;Node133</title>
<path fill="none" stroke="midnightblue" d="M297.87,-635.99C315.27,-625.73 344.28,-609.66 371,-599.67 450.26,-570.04 473.51,-573.54 556,-554.67 624.24,-539.07 648.97,-555.95 710,-521.67 730.28,-510.28 725.62,-494.9 746,-483.67 759,-476.51 774.3,-472.02 788.84,-469.22"/>
<polygon fill="midnightblue" stroke="midnightblue" points="789.48,-472.66 798.75,-467.53 788.3,-465.76 789.48,-472.66"/>
</g>
<!-- Node40&#45;&gt;Node233 -->
<g id="edge40" class="edge">
<title>Node40&#45;&gt;Node233</title>
<path fill="none" stroke="midnightblue" d="M287.1,-655.27C298.73,-676.04 329.48,-724.89 371,-744.67 443.49,-779.22 681.2,-774.94 788.77,-771.04"/>
<polygon fill="midnightblue" stroke="midnightblue" points="788.91,-774.53 798.77,-770.66 788.64,-767.54 788.91,-774.53"/>
</g>
<!-- Node287 -->
<g id="node23" class="node">
<title>Node287</title>
<g id="a_node23"><a xlink:href="quickjs_8h.html#a3d68fe446df2d9c7d1900b16371bff5b" target="_top" xlink:title=" ">
<polygon fill="none" stroke="black" points="597.5,-493.17 597.5,-512.17 668.5,-512.17 668.5,-493.17 597.5,-493.17"/>
<text text-anchor="middle" x="633" y="-500.17" font-family="Helvetica,sans-Serif" font-size="10.00">JS_IsObject</text>
</a>
</g>
</g>
<!-- Node40&#45;&gt;Node287 -->
<g id="edge37" class="edge">
<title>Node40&#45;&gt;Node287</title>
<path fill="none" stroke="midnightblue" d="M285.84,-636.12C295.83,-612.68 325.07,-552.37 371,-526.67 438.9,-488.68 532.52,-490.73 587.23,-496.29"/>
<polygon fill="midnightblue" stroke="midnightblue" points="586.98,-499.78 597.3,-497.39 587.74,-492.82 586.98,-499.78"/>
</g>
<!-- Node157 -->
<g id="node24" class="node">
<title>Node157</title>
<g id="a_node24"><a xlink:href="quickjs_8h.html#aaab426b47c95d00479b7355b1cf7f56c" target="_top" xlink:title=" ">
<polygon fill="none" stroke="black" points="793,-569.17 793,-588.17 894,-588.17 894,-569.17 793,-569.17"/>
<text text-anchor="middle" x="843.5" y="-576.17" font-family="Helvetica,sans-Serif" font-size="10.00">JS_IsUninitialized</text>
</a>
</g>
</g>
<!-- Node40&#45;&gt;Node157 -->
<g id="edge39" class="edge">
<title>Node40&#45;&gt;Node157</title>
<path fill="none" stroke="midnightblue" d="M324.52,-648.28C418.42,-653.45 640.63,-662.35 710,-635.67 729.71,-628.1 727.34,-614.56 746,-604.67 757.37,-598.65 770.26,-593.94 782.82,-590.28"/>
<polygon fill="midnightblue" stroke="midnightblue" points="784.06,-593.56 792.79,-587.56 782.22,-586.81 784.06,-593.56"/>
</g>
<!-- Node40&#45;&gt;Node428 -->
<g id="edge41" class="edge">
<title>Node40&#45;&gt;Node428</title>
<path fill="none" stroke="midnightblue" d="M284.77,-635.93C293.06,-608.54 320.3,-530.12 371,-488.67 376.05,-484.55 381.82,-481.12 387.87,-478.28"/>
<polygon fill="midnightblue" stroke="midnightblue" points="389.63,-481.34 397.53,-474.28 386.96,-474.87 389.63,-481.34"/>
</g>
<!-- Node164 -->
<g id="node27" class="node">
<title>Node164</title>
<g id="a_node27"><a xlink:href="quickjs_8c.html#a75ac132a3af4de01e1fadeb0bede6ee7" target="_top" xlink:title=" ">
<polygon fill="none" stroke="red" points="746,-493.17 746,-512.17 941,-512.17 941,-493.17 746,-493.17"/>
<text text-anchor="middle" x="843.5" y="-500.17" font-family="Helvetica,sans-Serif" font-size="10.00">JS_ThrowReferenceErrorUninitialized</text>
</a>
</g>
</g>
<!-- Node40&#45;&gt;Node164 -->
<g id="edge55" class="edge">
<title>Node40&#45;&gt;Node164</title>
<path fill="none" stroke="midnightblue" d="M324.66,-638.39C418.32,-622.1 639.23,-582.02 710,-554.67 727.28,-548 729.08,-541.22 746,-533.67 762.1,-526.49 780.39,-520.18 796.67,-515.16"/>
<polygon fill="midnightblue" stroke="midnightblue" points="797.95,-518.44 806.52,-512.21 795.94,-511.73 797.95,-518.44"/>
</g>
<!-- Node219 -->
<g id="node28" class="node">
<title>Node219</title>
<g id="a_node28"><a xlink:href="quickjs_8c.html#adba489eac6c2332de312326782457940" target="_top" xlink:title=" ">
<polygon fill="none" stroke="black" points="556,-379.17 556,-398.17 710,-398.17 710,-379.17 556,-379.17"/>
<text text-anchor="middle" x="633" y="-386.17" font-family="Helvetica,sans-Serif" font-size="10.00">JS_ThrowTypeErrorReadOnly</text>
</a>
</g>
</g>
<!-- Node40&#45;&gt;Node219 -->
<g id="edge57" class="edge">
<title>Node40&#45;&gt;Node219</title>
<path fill="none" stroke="midnightblue" d="M283.24,-635.9C287.93,-603.27 307.65,-497.28 371,-445.67 419.83,-405.9 490.3,-392.28 545.71,-388.26"/>
<polygon fill="midnightblue" stroke="midnightblue" points="546.11,-391.75 555.87,-387.62 545.67,-384.76 546.11,-391.75"/>
</g>
<!-- Node40&#45;&gt;Node223 -->
<g id="edge58" class="edge">
<title>Node40&#45;&gt;Node223</title>
<path fill="none" stroke="midnightblue" d="M283.6,-636.03C290.66,-594.56 320.93,-427.68 371,-298.67 388.42,-253.8 416.98,-204.87 432.88,-179.04"/>
<polygon fill="midnightblue" stroke="midnightblue" points="435.99,-180.67 438.31,-170.33 430.05,-176.97 435.99,-180.67"/>
</g>
<!-- Node185&#45;&gt;Node5 -->
<g id="edge29" class="edge">
<title>Node185&#45;&gt;Node5</title>
<path fill="none" stroke="midnightblue" d="M643.03,-702.36C658.16,-718.93 689.07,-754.18 710,-787.67 729.81,-819.37 728.23,-830.79 746,-863.67 774,-915.5 811.37,-974.11 830.34,-1003.22"/>
<polygon fill="midnightblue" stroke="midnightblue" points="827.63,-1005.46 836.03,-1011.91 833.48,-1001.62 827.63,-1005.46"/>
</g>
<!-- Node185&#45;&gt;Node13 -->
<g id="edge25" class="edge">
<title>Node185&#45;&gt;Node13</title>
<path fill="none" stroke="midnightblue" d="M685,-692.67C710.99,-692.67 743.01,-692.67 771.37,-692.67"/>
<polygon fill="midnightblue" stroke="midnightblue" points="771.64,-696.17 781.64,-692.67 771.64,-689.17 771.64,-696.17"/>
</g>
<!-- Node185&#45;&gt;Node14 -->
<g id="edge26" class="edge">
<title>Node185&#45;&gt;Node14</title>
<path fill="none" stroke="midnightblue" d="M685,-683.38C713.71,-678.15 749.77,-671.57 780.15,-666.04"/>
<polygon fill="midnightblue" stroke="midnightblue" points="781,-669.44 790.21,-664.2 779.74,-662.55 781,-669.44"/>
</g>
<!-- Node185&#45;&gt;Node15 -->
<g id="edge27" class="edge">
<title>Node185&#45;&gt;Node15</title>
<path fill="none" stroke="midnightblue" d="M675.61,-683.1C687.18,-679.51 699.46,-674.77 710,-668.67 728.79,-657.82 726.06,-644.25 746,-635.67 817.98,-604.7 910.87,-606.15 966.39,-610.84"/>
<polygon fill="midnightblue" stroke="midnightblue" points="966.37,-614.35 976.64,-611.78 967,-607.38 966.37,-614.35"/>
</g>
<!-- Node185&#45;&gt;Node87 -->
<g id="edge28" class="edge">
<title>Node185&#45;&gt;Node87</title>
<path fill="none" stroke="midnightblue" d="M654.89,-683.04C672.72,-673.63 697.41,-657.54 710,-635.67 777.91,-517.78 703.74,-461 746,-331.67 765.67,-271.48 807.61,-208.59 829.14,-178.63"/>
<polygon fill="midnightblue" stroke="midnightblue" points="832.06,-180.56 835.12,-170.42 826.4,-176.44 832.06,-180.56"/>
</g>
<!-- Node185&#45;&gt;Node133 -->
<g id="edge30" class="edge">
<title>Node185&#45;&gt;Node133</title>
<path fill="none" stroke="midnightblue" d="M653.61,-683.04C671.09,-673.44 695.99,-657.06 710,-635.67 748.04,-577.6 695.98,-531.82 746,-483.67 757.4,-472.7 773.2,-467.18 788.72,-464.6"/>
<polygon fill="midnightblue" stroke="midnightblue" points="789.35,-468.05 798.82,-463.31 788.46,-461.11 789.35,-468.05"/>
</g>
<!-- Node185&#45;&gt;Node233 -->
<g id="edge31" class="edge">
<title>Node185&#45;&gt;Node233</title>
<path fill="none" stroke="midnightblue" d="M660.41,-702.3C697.54,-715.83 765.27,-740.52 806.84,-755.68"/>
<polygon fill="midnightblue" stroke="midnightblue" points="805.71,-758.99 816.31,-759.13 808.11,-752.41 805.71,-758.99"/>
</g>
<!-- Node233&#45;&gt;Node15 -->
<g id="edge32" class="edge">
<title>Node233&#45;&gt;Node15</title>
<path fill="none" stroke="midnightblue" d="M888.07,-765.32C905.9,-762.16 925.84,-756.12 941,-744.67 978,-716.75 999.41,-664.38 1008.79,-636.05"/>
<polygon fill="midnightblue" stroke="midnightblue" points="1012.14,-637.06 1011.8,-626.47 1005.46,-634.96 1012.14,-637.06"/>
</g>
<!-- Node428&#45;&gt;Node15 -->
<g id="edge43" class="edge">
<title>Node428&#45;&gt;Node15</title>
<path fill="none" stroke="midnightblue" d="M499.36,-455.13C611.7,-436.03 869.79,-398.77 941,-445.67 993.09,-479.98 1008.42,-559.78 1012.8,-596.95"/>
<polygon fill="midnightblue" stroke="midnightblue" points="1009.33,-597.44 1013.84,-607.03 1016.3,-596.72 1009.33,-597.44"/>
</g>
<!-- Node428&#45;&gt;Node185 -->
<g id="edge42" class="edge">
<title>Node428&#45;&gt;Node185</title>
<path fill="none" stroke="midnightblue" d="M451.15,-474.39C464.61,-501.88 505.86,-581.69 556,-635.67 571.11,-651.94 591.33,-666.86 607.12,-677.35"/>
<polygon fill="midnightblue" stroke="midnightblue" points="605.54,-680.49 615.83,-682.99 609.34,-674.62 605.54,-680.49"/>
</g>
<!-- Node428&#45;&gt;Node87 -->
<g id="edge44" class="edge">
<title>Node428&#45;&gt;Node87</title>
<path fill="none" stroke="midnightblue" d="M457.12,-454.93C476.39,-437.36 518.59,-399.46 556,-369.67 651.67,-293.5 771.37,-209.7 820.2,-175.98"/>
<polygon fill="midnightblue" stroke="midnightblue" points="822.23,-178.83 828.48,-170.28 818.26,-173.07 822.23,-178.83"/>
</g>
<!-- Node428&#45;&gt;Node133 -->
<g id="edge52" class="edge">
<title>Node428&#45;&gt;Node133</title>
<path fill="none" stroke="midnightblue" d="M508.38,-464.67C585.3,-464.67 715.34,-464.67 788.44,-464.67"/>
<polygon fill="midnightblue" stroke="midnightblue" points="788.8,-468.17 798.8,-464.67 788.8,-461.17 788.8,-468.17"/>
</g>
<!-- Node428&#45;&gt;Node287 -->
<g id="edge51" class="edge">
<title>Node428&#45;&gt;Node287</title>
<path fill="none" stroke="midnightblue" d="M493.31,-474.26C522.08,-480.16 558.75,-487.67 587.15,-493.49"/>
<polygon fill="midnightblue" stroke="midnightblue" points="586.71,-496.97 597.21,-495.55 588.12,-490.11 586.71,-496.97"/>
</g>
<!-- Node428&#45;&gt;Node306 -->
<g id="edge45" class="edge">
<title>Node428&#45;&gt;Node306</title>
<path fill="none" stroke="midnightblue" d="M458.1,-474.18C489.07,-499.56 573.95,-569.1 612.49,-600.69"/>
<polygon fill="midnightblue" stroke="midnightblue" points="610.45,-603.54 620.4,-607.17 614.88,-598.12 610.45,-603.54"/>
</g>
<!-- Node428&#45;&gt;Node219 -->
<g id="edge53" class="edge">
<title>Node428&#45;&gt;Node219</title>
<path fill="none" stroke="midnightblue" d="M464.76,-455.05C486.22,-443.96 523.1,-425.61 556,-412.67 566.45,-408.57 577.91,-404.65 588.7,-401.22"/>
<polygon fill="midnightblue" stroke="midnightblue" points="589.85,-404.52 598.36,-398.21 587.77,-397.84 589.85,-404.52"/>
</g>
<!-- Node306&#45;&gt;Node13 -->
<g id="edge46" class="edge">
<title>Node306&#45;&gt;Node13</title>
<path fill="none" stroke="midnightblue" d="M649.34,-626.22C670.38,-638.9 709.7,-661.14 746,-673.67 754.27,-676.53 763.09,-679 771.91,-681.13"/>
<polygon fill="midnightblue" stroke="midnightblue" points="771.32,-684.59 781.85,-683.39 772.87,-677.76 771.32,-684.59"/>
</g>
<!-- Node306&#45;&gt;Node14 -->
<g id="edge47" class="edge">
<title>Node306&#45;&gt;Node14</title>
<path fill="none" stroke="midnightblue" d="M686.34,-626.21C714.85,-631.41 750.3,-637.87 780.22,-643.32"/>
<polygon fill="midnightblue" stroke="midnightblue" points="779.67,-646.78 790.13,-645.13 780.92,-639.89 779.67,-646.78"/>
</g>
<!-- Node306&#45;&gt;Node15 -->
<g id="edge48" class="edge">
<title>Node306&#45;&gt;Node15</title>
<path fill="none" stroke="midnightblue" d="M675.61,-607.1C687.18,-603.51 699.46,-598.77 710,-592.67 728.79,-581.82 725.77,-567.54 746,-559.67 826.77,-528.26 859,-531.61 941,-559.67 963.99,-567.54 985.34,-585.85 999.05,-599.61"/>
<polygon fill="midnightblue" stroke="midnightblue" points="996.74,-602.27 1006.18,-607.07 1001.8,-597.43 996.74,-602.27"/>
</g>
<!-- Node306&#45;&gt;Node157 -->
<g id="edge49" class="edge">
<title>Node306&#45;&gt;Node157</title>
<path fill="none" stroke="midnightblue" d="M686.34,-607.13C715.61,-601.8 752.19,-595.13 782.6,-589.59"/>
<polygon fill="midnightblue" stroke="midnightblue" points="783.44,-593 792.65,-587.76 782.18,-586.11 783.44,-593"/>
</g>
<!-- Node306&#45;&gt;Node164 -->
<g id="edge50" class="edge">
<title>Node306&#45;&gt;Node164</title>
<path fill="none" stroke="midnightblue" d="M683.43,-607.11C692.93,-603.67 702.31,-599.01 710,-592.67 735.8,-571.44 719.55,-547.1 746,-526.67 751.51,-522.42 757.67,-518.91 764.16,-516.02"/>
<polygon fill="midnightblue" stroke="midnightblue" points="765.81,-519.13 773.83,-512.2 763.25,-512.61 765.81,-519.13"/>
</g>
<!-- Node219&#45;&gt;Node10 -->
<g id="edge54" class="edge">
<title>Node219&#45;&gt;Node10</title>
<path fill="none" stroke="midnightblue" d="M686.34,-379.13C717.8,-373.4 757.72,-366.12 789.33,-360.36"/>
<polygon fill="midnightblue" stroke="midnightblue" points="790.07,-363.79 799.28,-358.55 788.81,-356.9 790.07,-363.79"/>
</g>
<!-- Node223&#45;&gt;Node87 -->
<g id="edge59" class="edge">
<title>Node223&#45;&gt;Node87</title>
<path fill="none" stroke="midnightblue" d="M487.72,-154.15C508.19,-151.22 533.34,-148.12 556,-146.67 624.31,-142.33 641.65,-143.07 710,-146.67 737.81,-148.14 768.78,-151.32 793.77,-154.29"/>
<polygon fill="midnightblue" stroke="midnightblue" points="793.39,-157.76 803.74,-155.49 794.23,-150.82 793.39,-157.76"/>
</g>
<!-- Node318&#45;&gt;Node87 -->
<g id="edge63" class="edge">
<title>Node318&#45;&gt;Node87</title>
<path fill="none" stroke="midnightblue" d="M191.22,-41.4C282.91,-30.02 523.65,-8.94 710,-70.67 756.28,-86.01 801.32,-122.55 825.11,-144.06"/>
<polygon fill="midnightblue" stroke="midnightblue" points="822.88,-146.77 832.6,-150.98 827.63,-141.63 822.88,-146.77"/>
</g>
</g>
</svg>
