<?xml version="1.0" encoding="UTF-8" standalone="no"?>
<!DOCTYPE svg PUBLIC "-//W3C//DTD SVG 1.1//EN"
 "http://www.w3.org/Graphics/SVG/1.1/DTD/svg11.dtd">
<!-- Generated by graphviz version 2.43.0 (0)
 -->
<!-- Title: js_function_call Pages: 1 -->
<!--zoomable 1020 -->
<svg id="main" version="1.1" xmlns="http://www.w3.org/2000/svg" xmlns:xlink="http://www.w3.org/1999/xlink" xml:space="preserve" onload="init(evt)">
<style type="text/css"><![CDATA[
.edge:hover path { stroke: red; }
.edge:hover polygon { stroke: red; fill: red; }
]]></style>
<script type="text/javascript"><![CDATA[
var edges = document.getElementsByTagName('g');
if (edges && edges.length) {
  for (var i=0;i<edges.length;i++) {
    if (edges[i].id.substr(0,4)=='edge') {
      edges[i].setAttribute('class','edge');
    }
  }
}
]]></script>
        <defs>
                <circle id="rim" cx="0" cy="0" r="7"/>
                <circle id="rim2" cx="0" cy="0" r="3.5"/>
                <g id="zoomPlus">
                        <use xlink:href="#rim" fill="#404040">
                                <set attributeName="fill" to="#808080" begin="zoomplus.mouseover" end="zoomplus.mouseout"/>
                        </use>
                        <path d="M-4,0h8M0,-4v8" fill="none" stroke="white" stroke-width="1.5" pointer-events="none"/>
                </g>
                <g id="zoomMin">
                        <use xlink:href="#rim" fill="#404040">
                                <set attributeName="fill" to="#808080" begin="zoomminus.mouseover" end="zoomminus.mouseout"/>
                        </use>
                        <path d="M-4,0h8" fill="none" stroke="white" stroke-width="1.5" pointer-events="none"/>
                </g>
                <g id="dirArrow">
                        <path fill="none" stroke="white" stroke-width="1.5" d="M0,-3.0v7 M-2.5,-0.5L0,-3.0L2.5,-0.5"/>
                </g>
               <g id="resetDef">
                       <use xlink:href="#rim2" fill="#404040">
                               <set attributeName="fill" to="#808080" begin="reset.mouseover" end="reset.mouseout"/>
                       </use>
               </g>
        </defs>

<script type="text/javascript">
var viewWidth = 663;
var viewHeight = 1020;
var sectionId = 'dynsection-1457';
</script>
<script xlink:href="svgpan.js"/>
<svg id="graph" class="graph">
<g id="viewport">
<title>js_function_call</title>
<!-- Node1 -->
<g id="node1" class="node">
<title>Node1</title>
<g id="a_node1"><a xlink:title=" ">
<polygon fill="#bfbfbf" stroke="black" points="0,-475.5 0,-494.5 92,-494.5 92,-475.5 0,-475.5"/>
<text text-anchor="middle" x="46" y="-482.5" font-family="Helvetica,sans-Serif" font-size="10.00">js_function_call</text>
</a>
</g>
</g>
<!-- Node2 -->
<g id="node2" class="node">
<title>Node2</title>
<g id="a_node2"><a xlink:href="quickjs_8c.html#a1a4c02a29525d5cb2085dd8bca3af350" target="_top" xlink:title=" ">
<polygon fill="none" stroke="black" points="128,-475.5 128,-494.5 178,-494.5 178,-475.5 128,-475.5"/>
<text text-anchor="middle" x="153" y="-482.5" font-family="Helvetica,sans-Serif" font-size="10.00">JS_Call</text>
</a>
</g>
</g>
<!-- Node1&#45;&gt;Node2 -->
<g id="edge1" class="edge">
<title>Node1&#45;&gt;Node2</title>
<path fill="none" stroke="midnightblue" d="M92.14,-485C100.64,-485 109.41,-485 117.52,-485"/>
<polygon fill="midnightblue" stroke="midnightblue" points="117.73,-488.5 127.73,-485 117.73,-481.5 117.73,-488.5"/>
</g>
<!-- Node3 -->
<g id="node3" class="node">
<title>Node3</title>
<g id="a_node3"><a xlink:href="quickjs_8c.html#ac2894ff4edcdb4e6841bcce9c76081e3" target="_top" xlink:title=" ">
<polygon fill="none" stroke="red" points="214,-475.5 214,-494.5 301,-494.5 301,-475.5 214,-475.5"/>
<text text-anchor="middle" x="257.5" y="-482.5" font-family="Helvetica,sans-Serif" font-size="10.00">JS_CallInternal</text>
</a>
</g>
</g>
<!-- Node2&#45;&gt;Node3 -->
<g id="edge2" class="edge">
<title>Node2&#45;&gt;Node3</title>
<path fill="none" stroke="midnightblue" d="M178.03,-479.18C185.77,-478.59 194.68,-478.29 203.65,-478.25"/>
<polygon fill="midnightblue" stroke="midnightblue" points="203.72,-481.75 213.74,-478.33 203.77,-474.75 203.72,-481.75"/>
</g>
<!-- Node3&#45;&gt;Node2 -->
<g id="edge37" class="edge">
<title>Node3&#45;&gt;Node2</title>
<path fill="none" stroke="midnightblue" d="M213.74,-491.67C205.16,-491.84 196.26,-491.75 188.03,-491.4"/>
<polygon fill="midnightblue" stroke="midnightblue" points="188.22,-487.9 178.03,-490.82 187.81,-494.89 188.22,-487.9"/>
</g>
<!-- Node3&#45;&gt;Node3 -->
<g id="edge40" class="edge">
<title>Node3&#45;&gt;Node3</title>
<path fill="none" stroke="midnightblue" d="M241.47,-494.76C233.67,-503.57 239.02,-513 257.5,-513 269.05,-513 275.47,-509.31 276.76,-504.4"/>
<polygon fill="midnightblue" stroke="midnightblue" points="280.02,-503.13 273.53,-494.76 273.39,-505.35 280.02,-503.13"/>
</g>
<!-- Node4 -->
<g id="node4" class="node">
<title>Node4</title>
<g id="a_node4"><a xlink:href="quickjs_8c.html#a853f0924d441ea4225488f37c8b69f9a" target="_top" xlink:title=" ">
<polygon fill="none" stroke="black" points="552.5,-855.5 552.5,-874.5 632.5,-874.5 632.5,-855.5 552.5,-855.5"/>
<text text-anchor="middle" x="592.5" y="-862.5" font-family="Helvetica,sans-Serif" font-size="10.00">__attribute__</text>
</a>
</g>
</g>
<!-- Node3&#45;&gt;Node4 -->
<g id="edge3" class="edge">
<title>Node3&#45;&gt;Node4</title>
<path fill="none" stroke="midnightblue" d="M259.42,-494.57C264.35,-543.66 289.13,-766.7 337,-813 365.73,-840.79 476.7,-855.03 542.24,-861.16"/>
<polygon fill="midnightblue" stroke="midnightblue" points="542.08,-864.65 552.35,-862.07 542.71,-857.68 542.08,-864.65"/>
</g>
<!-- Node5 -->
<g id="node5" class="node">
<title>Node5</title>
<g id="a_node5"><a xlink:href="quickjs_8c.html#a877fcb7651d95b411ce70e62b7f4a1f0" target="_top" xlink:title=" ">
<polygon fill="none" stroke="black" points="530,-722.5 530,-741.5 655,-741.5 655,-722.5 530,-722.5"/>
<text text-anchor="middle" x="592.5" y="-729.5" font-family="Helvetica,sans-Serif" font-size="10.00">__JS_AtomFromUInt32</text>
</a>
</g>
</g>
<!-- Node3&#45;&gt;Node5 -->
<g id="edge4" class="edge">
<title>Node3&#45;&gt;Node5</title>
<path fill="none" stroke="midnightblue" d="M259.44,-494.67C264.3,-542.31 288.2,-751.2 337,-789 408.29,-844.22 522.7,-779.02 569.98,-747.35"/>
<polygon fill="midnightblue" stroke="midnightblue" points="571.98,-750.22 578.26,-741.68 568.03,-744.44 571.98,-750.22"/>
</g>
<!-- Node6 -->
<g id="node6" class="node">
<title>Node6</title>
<g id="a_node6"><a xlink:href="quickjs_8h.html#a9bf98b18de88b4199910a43e933eb97d" target="_top" xlink:title=" ">
<polygon fill="none" stroke="black" points="365.5,-912.5 365.5,-931.5 465.5,-931.5 465.5,-912.5 365.5,-912.5"/>
<text text-anchor="middle" x="415.5" y="-919.5" font-family="Helvetica,sans-Serif" font-size="10.00">__JS_NewFloat64</text>
</a>
</g>
</g>
<!-- Node3&#45;&gt;Node6 -->
<g id="edge5" class="edge">
<title>Node3&#45;&gt;Node6</title>
<path fill="none" stroke="midnightblue" d="M258.94,-494.78C261.7,-551.81 278.5,-841.2 337,-903 342.17,-908.46 348.64,-912.46 355.62,-915.38"/>
<polygon fill="midnightblue" stroke="midnightblue" points="354.78,-918.79 365.38,-918.71 357.04,-912.17 354.78,-918.79"/>
</g>
<!-- Node7 -->
<g id="node7" class="node">
<title>Node7</title>
<g id="a_node7"><a xlink:href="quickjs_8c.html#a74547db03bf739a52c83a326b32db997" target="_top" xlink:title=" ">
<polygon fill="none" stroke="red" points="552,-171.5 552,-190.5 633,-190.5 633,-171.5 552,-171.5"/>
<text text-anchor="middle" x="592.5" y="-178.5" font-family="Helvetica,sans-Serif" font-size="10.00">add_property</text>
</a>
</g>
</g>
<!-- Node3&#45;&gt;Node7 -->
<g id="edge6" class="edge">
<title>Node3&#45;&gt;Node7</title>
<path fill="none" stroke="midnightblue" d="M258.92,-475.2C261.5,-420.51 277.06,-153.82 337,-105 391.1,-60.93 428.01,-82.32 494,-105 527.77,-116.61 558.83,-145.23 576.43,-163.85"/>
<polygon fill="midnightblue" stroke="midnightblue" points="573.99,-166.36 583.33,-171.37 579.15,-161.63 573.99,-166.36"/>
</g>
<!-- Node65 -->
<g id="node8" class="node">
<title>Node65</title>
<g id="a_node8"><a xlink:href="quickjs_8c.html#a4956f45ffd2849b96dc051277264f87a" target="_top" xlink:title=" ">
<polygon fill="none" stroke="red" points="374.5,-950.5 374.5,-969.5 456.5,-969.5 456.5,-950.5 374.5,-950.5"/>
<text text-anchor="middle" x="415.5" y="-957.5" font-family="Helvetica,sans-Serif" font-size="10.00">build_arg_list</text>
</a>
</g>
</g>
<!-- Node3&#45;&gt;Node65 -->
<g id="edge7" class="edge">
<title>Node3&#45;&gt;Node65</title>
<path fill="none" stroke="midnightblue" d="M258.78,-494.86C260.67,-555.09 273.59,-872.99 337,-941 344.23,-948.76 354.07,-953.57 364.3,-956.51"/>
<polygon fill="midnightblue" stroke="midnightblue" points="363.63,-959.95 374.16,-958.79 365.21,-953.13 363.63,-959.95"/>
</g>
<!-- Node66 -->
<g id="node9" class="node">
<title>Node66</title>
<g id="a_node9"><a xlink:href="quickjs_8c.html#ac864482356b3efc2d0b0a509fcfa4c7c" target="_top" xlink:title=" ">
<polygon fill="none" stroke="red" points="554,-969.5 554,-988.5 631,-988.5 631,-969.5 554,-969.5"/>
<text text-anchor="middle" x="592.5" y="-976.5" font-family="Helvetica,sans-Serif" font-size="10.00">free_arg_list</text>
</a>
</g>
</g>
<!-- Node3&#45;&gt;Node66 -->
<g id="edge12" class="edge">
<title>Node3&#45;&gt;Node66</title>
<path fill="none" stroke="midnightblue" d="M258.42,-494.66C258.15,-557.98 260.05,-913.32 337,-979 398.56,-1031.55 502.34,-1008.89 556.39,-991.75"/>
<polygon fill="midnightblue" stroke="midnightblue" points="557.79,-994.98 566.2,-988.53 555.61,-988.33 557.79,-994.98"/>
</g>
<!-- Node161 -->
<g id="node10" class="node">
<title>Node161</title>
<g id="a_node10"><a xlink:href="quickjs_8c.html#a61c8dfb5e807af1b6ff7d8ca61576dda" target="_top" xlink:title=" ">
<polygon fill="none" stroke="red" points="368.5,-760.5 368.5,-779.5 462.5,-779.5 462.5,-760.5 368.5,-760.5"/>
<text text-anchor="middle" x="415.5" y="-767.5" font-family="Helvetica,sans-Serif" font-size="10.00">build_backtrace</text>
</a>
</g>
</g>
<!-- Node3&#45;&gt;Node161 -->
<g id="edge9" class="edge">
<title>Node3&#45;&gt;Node161</title>
<path fill="none" stroke="midnightblue" d="M258.18,-494.7C257.46,-533.33 260.2,-677.69 337,-751 343.12,-756.84 350.74,-760.98 358.78,-763.89"/>
<polygon fill="midnightblue" stroke="midnightblue" points="357.78,-767.24 368.36,-766.78 359.79,-760.54 357.78,-767.24"/>
</g>
<!-- Node247 -->
<g id="node11" class="node">
<title>Node247</title>
<g id="a_node11"><a xlink:href="quickjs_8c.html#a344894112559c2ba75043fd10bcfa02f" target="_top" xlink:title=" ">
<polygon fill="none" stroke="red" points="365,-722.5 365,-741.5 466,-741.5 466,-722.5 365,-722.5"/>
<text text-anchor="middle" x="415.5" y="-729.5" font-family="Helvetica,sans-Serif" font-size="10.00">close_lexical_var</text>
</a>
</g>
</g>
<!-- Node3&#45;&gt;Node247 -->
<g id="edge10" class="edge">
<title>Node3&#45;&gt;Node247</title>
<path fill="none" stroke="midnightblue" d="M258.72,-494.51C260.06,-529.4 269.59,-651.47 337,-713 342.22,-717.77 348.45,-721.39 355.06,-724.13"/>
<polygon fill="midnightblue" stroke="midnightblue" points="354.37,-727.6 364.97,-727.56 356.66,-720.98 354.37,-727.6"/>
</g>
<!-- Node248 -->
<g id="node12" class="node">
<title>Node248</title>
<g id="a_node12"><a xlink:href="quickjs_8c.html#a1782043fce951bd4f0d91c7796b31e24" target="_top" xlink:title=" ">
<polygon fill="none" stroke="red" points="372,-684.5 372,-703.5 459,-703.5 459,-684.5 372,-684.5"/>
<text text-anchor="middle" x="415.5" y="-691.5" font-family="Helvetica,sans-Serif" font-size="10.00">close_var_refs</text>
</a>
</g>
</g>
<!-- Node3&#45;&gt;Node248 -->
<g id="edge11" class="edge">
<title>Node3&#45;&gt;Node248</title>
<path fill="none" stroke="midnightblue" d="M259.73,-494.69C264.13,-525.19 281.87,-620.17 337,-670 344.14,-676.45 352.98,-681.16 362.11,-684.61"/>
<polygon fill="midnightblue" stroke="midnightblue" points="361.08,-687.96 371.67,-687.77 363.27,-681.31 361.08,-687.96"/>
</g>
<!-- Node54 -->
<g id="node13" class="node">
<title>Node54</title>
<g id="a_node13"><a xlink:href="quickjs_8c.html#a9e7b4bccf927d811b0f99b40b08c0472" target="_top" xlink:title=" ">
<polygon fill="none" stroke="red" points="554.5,-532.5 554.5,-551.5 630.5,-551.5 630.5,-532.5 554.5,-532.5"/>
<text text-anchor="middle" x="592.5" y="-539.5" font-family="Helvetica,sans-Serif" font-size="10.00">free_var_ref</text>
</a>
</g>
</g>
<!-- Node3&#45;&gt;Node54 -->
<g id="edge13" class="edge">
<title>Node3&#45;&gt;Node54</title>
<path fill="none" stroke="midnightblue" d="M260.03,-494.82C265.03,-523.06 283.73,-604.56 337,-637 396.6,-673.3 429.36,-663.28 494,-637 532.1,-621.51 563.45,-583.18 579.63,-560.22"/>
<polygon fill="midnightblue" stroke="midnightblue" points="582.69,-561.94 585.43,-551.71 576.91,-558 582.69,-561.94"/>
</g>
<!-- Node250 -->
<g id="node14" class="node">
<title>Node250</title>
<g id="a_node14"><a xlink:href="cutils_8h.html#a7c82a3ee025fee89db5b11ff5b7691b8" target="_top" xlink:title=" ">
<polygon fill="none" stroke="black" points="389,-608.5 389,-627.5 442,-627.5 442,-608.5 389,-608.5"/>
<text text-anchor="middle" x="415.5" y="-615.5" font-family="Helvetica,sans-Serif" font-size="10.00">get_i16</text>
</a>
</g>
</g>
<!-- Node3&#45;&gt;Node250 -->
<g id="edge14" class="edge">
<title>Node3&#45;&gt;Node250</title>
<path fill="none" stroke="midnightblue" d="M262.31,-494.73C271.53,-516.93 297.25,-571.56 337,-599 349.17,-607.4 364.68,-612.1 378.61,-614.72"/>
<polygon fill="midnightblue" stroke="midnightblue" points="378.46,-618.24 388.88,-616.35 379.55,-611.33 378.46,-618.24"/>
</g>
<!-- Node251 -->
<g id="node15" class="node">
<title>Node251</title>
<g id="a_node15"><a xlink:href="cutils_8h.html#a288ee4e688944e23500af2ecc813c306" target="_top" xlink:title=" ">
<polygon fill="none" stroke="black" points="392,-570.5 392,-589.5 439,-589.5 439,-570.5 392,-570.5"/>
<text text-anchor="middle" x="415.5" y="-577.5" font-family="Helvetica,sans-Serif" font-size="10.00">get_i8</text>
</a>
</g>
</g>
<!-- Node3&#45;&gt;Node251 -->
<g id="edge15" class="edge">
<title>Node3&#45;&gt;Node251</title>
<path fill="none" stroke="midnightblue" d="M265.57,-494.59C278.08,-510.85 305.79,-543.75 337,-561 350.76,-568.6 367.54,-573.2 381.97,-575.96"/>
<polygon fill="midnightblue" stroke="midnightblue" points="381.54,-579.44 391.98,-577.66 382.71,-572.53 381.54,-579.44"/>
</g>
<!-- Node252 -->
<g id="node16" class="node">
<title>Node252</title>
<g id="a_node16"><a xlink:href="cutils_8h.html#ad587834d17e95461893d59661e5e9676" target="_top" xlink:title=" ">
<polygon fill="none" stroke="black" points="387.5,-532.5 387.5,-551.5 443.5,-551.5 443.5,-532.5 387.5,-532.5"/>
<text text-anchor="middle" x="415.5" y="-539.5" font-family="Helvetica,sans-Serif" font-size="10.00">get_u16</text>
</a>
</g>
</g>
<!-- Node3&#45;&gt;Node252 -->
<g id="edge16" class="edge">
<title>Node3&#45;&gt;Node252</title>
<path fill="none" stroke="midnightblue" d="M275.51,-494.53C291.11,-502.95 315.06,-515.1 337,-523 349.86,-527.63 364.31,-531.51 377.22,-534.54"/>
<polygon fill="midnightblue" stroke="midnightblue" points="376.66,-538 387.19,-536.77 378.2,-531.17 376.66,-538"/>
</g>
<!-- Node50 -->
<g id="node17" class="node">
<title>Node50</title>
<g id="a_node17"><a xlink:href="cutils_8h.html#a941262a5f72fda2ec43ae7911e97a0dc" target="_top" xlink:title=" ">
<polygon fill="none" stroke="black" points="387.5,-494.5 387.5,-513.5 443.5,-513.5 443.5,-494.5 387.5,-494.5"/>
<text text-anchor="middle" x="415.5" y="-501.5" font-family="Helvetica,sans-Serif" font-size="10.00">get_u32</text>
</a>
</g>
</g>
<!-- Node3&#45;&gt;Node50 -->
<g id="edge17" class="edge">
<title>Node3&#45;&gt;Node50</title>
<path fill="none" stroke="midnightblue" d="M301.13,-490.19C324.91,-493.09 354.26,-496.66 377.14,-499.45"/>
<polygon fill="midnightblue" stroke="midnightblue" points="376.8,-502.93 387.15,-500.67 377.64,-495.99 376.8,-502.93"/>
</g>
<!-- Node253 -->
<g id="node18" class="node">
<title>Node253</title>
<g id="a_node18"><a xlink:href="quickjs_8c.html#a37fe43b6649456a848bd54846450b995" target="_top" xlink:title=" ">
<polygon fill="none" stroke="red" points="556.5,-342.5 556.5,-361.5 628.5,-361.5 628.5,-342.5 556.5,-342.5"/>
<text text-anchor="middle" x="592.5" y="-349.5" font-family="Helvetica,sans-Serif" font-size="10.00">get_var_ref</text>
</a>
</g>
</g>
<!-- Node3&#45;&gt;Node253 -->
<g id="edge18" class="edge">
<title>Node3&#45;&gt;Node253</title>
<path fill="none" stroke="midnightblue" d="M258.99,-475.22C261.2,-442.68 273.22,-337.66 337,-295 395,-256.21 426.65,-276.76 494,-295 523.41,-302.97 553.04,-322.26 571.79,-336.2"/>
<polygon fill="midnightblue" stroke="midnightblue" points="569.76,-339.06 579.83,-342.35 574.01,-333.5 569.76,-339.06"/>
</g>
<!-- Node197 -->
<g id="node19" class="node">
<title>Node197</title>
<g id="a_node19"><a xlink:href="list_8h.html#a663527a4d757540b2177bef0db1ce5c0" target="_top" xlink:title=" ">
<polygon fill="none" stroke="black" points="374.5,-418.5 374.5,-437.5 456.5,-437.5 456.5,-418.5 374.5,-418.5"/>
<text text-anchor="middle" x="415.5" y="-425.5" font-family="Helvetica,sans-Serif" font-size="10.00">init_list_head</text>
</a>
</g>
</g>
<!-- Node3&#45;&gt;Node197 -->
<g id="edge19" class="edge">
<title>Node3&#45;&gt;Node197</title>
<path fill="none" stroke="midnightblue" d="M275.51,-475.47C291.11,-467.05 315.06,-454.9 337,-447 345.71,-443.86 355.15,-441.07 364.36,-438.65"/>
<polygon fill="midnightblue" stroke="midnightblue" points="365.35,-442.01 374.2,-436.18 363.65,-435.22 365.35,-442.01"/>
</g>
<!-- Node254 -->
<g id="node20" class="node">
<title>Node254</title>
<g id="a_node20"><a xlink:href="quickjs_8c.html#a2bb0a2ca3b8320f3ff778c65034fce49" target="_top" xlink:title=" ">
<polygon fill="none" stroke="red" points="356,-380.5 356,-399.5 475,-399.5 475,-380.5 356,-380.5"/>
<text text-anchor="middle" x="415.5" y="-387.5" font-family="Helvetica,sans-Serif" font-size="10.00">is_backtrace_needed</text>
</a>
</g>
</g>
<!-- Node3&#45;&gt;Node254 -->
<g id="edge20" class="edge">
<title>Node3&#45;&gt;Node254</title>
<path fill="none" stroke="midnightblue" d="M265.57,-475.41C278.08,-459.15 305.79,-426.25 337,-409 341.18,-406.69 345.63,-404.66 350.21,-402.88"/>
<polygon fill="midnightblue" stroke="midnightblue" points="351.47,-406.15 359.75,-399.54 349.16,-399.54 351.47,-406.15"/>
</g>
<!-- Node181 -->
<g id="node21" class="node">
<title>Node181</title>
<g id="a_node21"><a xlink:href="quickjs_8c.html#a686cf78f8b0361621ee2ba6182195c31" target="_top" xlink:title=" ">
<polygon fill="none" stroke="black" points="371.5,-342.5 371.5,-361.5 459.5,-361.5 459.5,-342.5 371.5,-342.5"/>
<text text-anchor="middle" x="415.5" y="-349.5" font-family="Helvetica,sans-Serif" font-size="10.00">is_strict_mode</text>
</a>
</g>
</g>
<!-- Node3&#45;&gt;Node181 -->
<g id="edge21" class="edge">
<title>Node3&#45;&gt;Node181</title>
<path fill="none" stroke="midnightblue" d="M262.31,-475.27C271.53,-453.07 297.25,-398.44 337,-371 344.29,-365.97 352.77,-362.27 361.4,-359.54"/>
<polygon fill="midnightblue" stroke="midnightblue" points="362.43,-362.89 371.14,-356.86 360.57,-356.14 362.43,-362.89"/>
</g>
<!-- Node256 -->
<g id="node22" class="node">
<title>Node256</title>
<g id="a_node22"><a xlink:href="quickjs_8c.html#ae8ff05447c0d51fe277baccf616dc7c6" target="_top" xlink:title=" ">
<polygon fill="none" stroke="red" points="377.5,-304.5 377.5,-323.5 453.5,-323.5 453.5,-304.5 377.5,-304.5"/>
<text text-anchor="middle" x="415.5" y="-311.5" font-family="Helvetica,sans-Serif" font-size="10.00">js_add_slow</text>
</a>
</g>
</g>
<!-- Node3&#45;&gt;Node256 -->
<g id="edge22" class="edge">
<title>Node3&#45;&gt;Node256</title>
<path fill="none" stroke="midnightblue" d="M260.54,-475.4C266.77,-448.42 288.24,-371.41 337,-333 345.75,-326.11 356.64,-321.67 367.48,-318.83"/>
<polygon fill="midnightblue" stroke="midnightblue" points="368.34,-322.22 377.34,-316.64 366.82,-315.39 368.34,-322.22"/>
</g>
<!-- Node263 -->
<g id="node23" class="node">
<title>Node263</title>
<g id="a_node23"><a xlink:href="quickjs_8c.html#a6a21784a40b8684f2e779bd460dd13b2" target="_top" xlink:title=" ">
<polygon fill="none" stroke="red" points="376.5,-114.5 376.5,-133.5 454.5,-133.5 454.5,-114.5 376.5,-114.5"/>
<text text-anchor="middle" x="415.5" y="-121.5" font-family="Helvetica,sans-Serif" font-size="10.00">JS_AddBrand</text>
</a>
</g>
</g>
<!-- Node3&#45;&gt;Node263 -->
<g id="edge23" class="edge">
<title>Node3&#45;&gt;Node263</title>
<path fill="none" stroke="midnightblue" d="M259.36,-475.4C264.07,-425.1 288.26,-192.47 337,-143 344.89,-134.99 355.57,-130.15 366.47,-127.28"/>
<polygon fill="midnightblue" stroke="midnightblue" points="367.42,-130.65 376.47,-125.15 365.96,-123.8 367.42,-130.65"/>
</g>
<!-- Node266 -->
<g id="node24" class="node">
<title>Node266</title>
<g id="a_node24"><a xlink:href="quickjs_8c.html#a43208b0746998d2b6b9b8bd1ef8b5f99" target="_top" xlink:title=" ">
<polygon fill="none" stroke="red" points="353,-874.5 353,-893.5 478,-893.5 478,-874.5 353,-874.5"/>
<text text-anchor="middle" x="415.5" y="-881.5" font-family="Helvetica,sans-Serif" font-size="10.00">js_append_enumerate</text>
</a>
</g>
</g>
<!-- Node3&#45;&gt;Node266 -->
<g id="edge25" class="edge">
<title>Node3&#45;&gt;Node266</title>
<path fill="none" stroke="midnightblue" d="M259.22,-494.75C263.37,-548.05 285.74,-803.68 337,-860 340.52,-863.87 344.66,-867.13 349.15,-869.86"/>
<polygon fill="midnightblue" stroke="midnightblue" points="347.68,-873.04 358.17,-874.5 350.88,-866.81 347.68,-873.04"/>
</g>
<!-- Node98 -->
<g id="node25" class="node">
<title>Node98</title>
<g id="a_node25"><a xlink:href="quickjs_8c.html#a260bfa297ff6cb5bd18e229afaa54663" target="_top" xlink:title=" ">
<polygon fill="none" stroke="red" points="367.5,-190.5 367.5,-209.5 463.5,-209.5 463.5,-190.5 367.5,-190.5"/>
<text text-anchor="middle" x="415.5" y="-197.5" font-family="Helvetica,sans-Serif" font-size="10.00">JS_AtomToString</text>
</a>
</g>
</g>
<!-- Node3&#45;&gt;Node98 -->
<g id="edge27" class="edge">
<title>Node3&#45;&gt;Node98</title>
<path fill="none" stroke="midnightblue" d="M258.18,-475.3C257.46,-436.67 260.2,-292.31 337,-219 342.78,-213.49 349.88,-209.49 357.43,-206.61"/>
<polygon fill="midnightblue" stroke="midnightblue" points="358.67,-209.89 367.15,-203.53 356.56,-203.22 358.67,-209.89"/>
</g>
<!-- Node291 -->
<g id="node26" class="node">
<title>Node291</title>
<g id="a_node26"><a xlink:href="quickjs_8c.html#afa67965c1017685fc6783776d6d0d4d7" target="_top" xlink:title=" ">
<polygon fill="none" stroke="red" points="368,-152.5 368,-171.5 463,-171.5 463,-152.5 368,-152.5"/>
<text text-anchor="middle" x="415.5" y="-159.5" font-family="Helvetica,sans-Serif" font-size="10.00">JS_AtomToValue</text>
</a>
</g>
</g>
<!-- Node3&#45;&gt;Node291 -->
<g id="edge28" class="edge">
<title>Node3&#45;&gt;Node291</title>
<path fill="none" stroke="midnightblue" d="M259.68,-475.24C265.55,-428.07 293.18,-224.29 337,-181 342.89,-175.19 350.24,-171.05 358.06,-168.13"/>
<polygon fill="midnightblue" stroke="midnightblue" points="359.25,-171.43 367.77,-165.13 357.18,-164.74 359.25,-171.43"/>
</g>
<!-- Node292 -->
<g id="node27" class="node">
<title>Node292</title>
<g id="a_node27"><a xlink:href="quickjs_8c.html#a04d312757919ff6b4d79cd0c2c3e5bb2" target="_top" xlink:title=" ">
<polygon fill="none" stroke="red" points="359.5,-228.5 359.5,-247.5 471.5,-247.5 471.5,-228.5 359.5,-228.5"/>
<text text-anchor="middle" x="415.5" y="-235.5" font-family="Helvetica,sans-Serif" font-size="10.00">js_build_arguments</text>
</a>
</g>
</g>
<!-- Node3&#45;&gt;Node292 -->
<g id="edge29" class="edge">
<title>Node3&#45;&gt;Node292</title>
<path fill="none" stroke="midnightblue" d="M258.94,-475.35C261.04,-441.05 272.83,-323.77 337,-262 341.23,-257.93 346.13,-254.55 351.37,-251.75"/>
<polygon fill="midnightblue" stroke="midnightblue" points="352.86,-254.91 360.47,-247.54 349.92,-248.56 352.86,-254.91"/>
</g>
<!-- Node293 -->
<g id="node28" class="node">
<title>Node293</title>
<g id="a_node28"><a xlink:href="quickjs_8c.html#a1c459034f2971c4abc3a8d6d4693ef5f" target="_top" xlink:title=" ">
<polygon fill="none" stroke="red" points="337,-456.5 337,-475.5 494,-475.5 494,-456.5 337,-456.5"/>
<text text-anchor="middle" x="415.5" y="-463.5" font-family="Helvetica,sans-Serif" font-size="10.00">js_build_mapped_arguments</text>
</a>
</g>
</g>
<!-- Node3&#45;&gt;Node293 -->
<g id="edge31" class="edge">
<title>Node3&#45;&gt;Node293</title>
<path fill="none" stroke="midnightblue" d="M301.13,-479.81C309.19,-478.83 317.89,-477.77 326.76,-476.69"/>
<polygon fill="midnightblue" stroke="midnightblue" points="327.33,-480.14 336.83,-475.46 326.48,-473.19 327.33,-480.14"/>
</g>
<!-- Node294 -->
<g id="node29" class="node">
<title>Node294</title>
<g id="a_node29"><a xlink:href="quickjs_8c.html#a72f4829a5b32f5445fe3f2a59efeb8ea" target="_top" xlink:title=" ">
<polygon fill="none" stroke="red" points="376.5,-38.5 376.5,-57.5 454.5,-57.5 454.5,-38.5 376.5,-38.5"/>
<text text-anchor="middle" x="415.5" y="-45.5" font-family="Helvetica,sans-Serif" font-size="10.00">js_build_rest</text>
</a>
</g>
</g>
<!-- Node3&#45;&gt;Node294 -->
<g id="edge36" class="edge">
<title>Node3&#45;&gt;Node294</title>
<path fill="none" stroke="midnightblue" d="M259.01,-475.39C262.2,-419.32 280.96,-134.73 337,-72 344.69,-63.39 355.41,-57.83 366.42,-54.26"/>
<polygon fill="midnightblue" stroke="midnightblue" points="367.39,-57.62 376.1,-51.6 365.53,-50.87 367.39,-57.62"/>
</g>
<!-- Node295 -->
<g id="node30" class="node">
<title>Node295</title>
<g id="a_node30"><a xlink:href="quickjs_8c.html#ad35594576a14c10812efaf958c99af8a" target="_top" xlink:title=" ">
<polygon fill="none" stroke="red" points="344,-0.5 344,-19.5 487,-19.5 487,-0.5 344,-0.5"/>
<text text-anchor="middle" x="415.5" y="-7.5" font-family="Helvetica,sans-Serif" font-size="10.00">JS_CallConstructorInternal</text>
</a>
</g>
</g>
<!-- Node3&#45;&gt;Node295 -->
<g id="edge38" class="edge">
<title>Node3&#45;&gt;Node295</title>
<path fill="none" stroke="midnightblue" d="M258.71,-475.27C260.29,-416.1 272,-108.96 337.34,-21.76"/>
<polygon fill="midnightblue" stroke="midnightblue" points="340.08,-23.93 343.83,-14.02 334.72,-19.43 340.08,-23.93"/>
</g>
<!-- Node65&#45;&gt;Node66 -->
<g id="edge8" class="edge">
<title>Node65&#45;&gt;Node66</title>
<path fill="none" stroke="midnightblue" d="M456.65,-964.36C482.6,-967.18 516.5,-970.86 543.82,-973.82"/>
<polygon fill="midnightblue" stroke="midnightblue" points="543.61,-977.32 553.93,-974.92 544.37,-970.36 543.61,-977.32"/>
</g>
<!-- Node263&#45;&gt;Node7 -->
<g id="edge24" class="edge">
<title>Node263&#45;&gt;Node7</title>
<path fill="none" stroke="midnightblue" d="M454.62,-132.29C467.25,-135.32 481.32,-138.99 494,-143 516.42,-150.08 541.1,-159.72 560.01,-167.51"/>
<polygon fill="midnightblue" stroke="midnightblue" points="558.76,-170.78 569.34,-171.4 561.45,-164.32 558.76,-170.78"/>
</g>
<!-- Node266&#45;&gt;Node4 -->
<g id="edge26" class="edge">
<title>Node266&#45;&gt;Node4</title>
<path fill="none" stroke="midnightblue" d="M478.2,-877.3C499.23,-875.02 522.45,-872.5 542.36,-870.33"/>
<polygon fill="midnightblue" stroke="midnightblue" points="542.88,-873.8 552.45,-869.24 542.13,-866.84 542.88,-873.8"/>
</g>
<!-- Node292&#45;&gt;Node7 -->
<g id="edge30" class="edge">
<title>Node292&#45;&gt;Node7</title>
<path fill="none" stroke="midnightblue" d="M459.82,-228.44C471.03,-225.68 483.04,-222.46 494,-219 516.42,-211.92 541.1,-202.28 560.01,-194.49"/>
<polygon fill="midnightblue" stroke="midnightblue" points="561.45,-197.68 569.34,-190.6 558.76,-191.22 561.45,-197.68"/>
</g>
<!-- Node293&#45;&gt;Node5 -->
<g id="edge32" class="edge">
<title>Node293&#45;&gt;Node5</title>
<path fill="none" stroke="midnightblue" d="M479.24,-475.61C484.59,-478.09 489.62,-481.17 494,-485 503.18,-493.01 563.67,-656.19 584.48,-712.83"/>
<polygon fill="midnightblue" stroke="midnightblue" points="581.26,-714.2 587.99,-722.39 587.83,-711.79 581.26,-714.2"/>
</g>
<!-- Node293&#45;&gt;Node7 -->
<g id="edge33" class="edge">
<title>Node293&#45;&gt;Node7</title>
<path fill="none" stroke="midnightblue" d="M480.28,-456.34C485.28,-453.86 489.96,-450.79 494,-447 532.78,-410.68 512.02,-383 530,-333 547.5,-284.33 571.14,-228.18 583.39,-199.69"/>
<polygon fill="midnightblue" stroke="midnightblue" points="586.6,-201.07 587.35,-190.5 580.17,-198.3 586.6,-201.07"/>
</g>
<!-- Node293&#45;&gt;Node54 -->
<g id="edge34" class="edge">
<title>Node293&#45;&gt;Node54</title>
<path fill="none" stroke="midnightblue" d="M464.73,-475.54C474.58,-478.12 484.75,-481.26 494,-485 521.46,-496.12 550.46,-513.96 569.63,-526.73"/>
<polygon fill="midnightblue" stroke="midnightblue" points="567.7,-529.65 577.95,-532.36 571.63,-523.85 567.7,-529.65"/>
</g>
<!-- Node293&#45;&gt;Node253 -->
<g id="edge35" class="edge">
<title>Node293&#45;&gt;Node253</title>
<path fill="none" stroke="midnightblue" d="M471.26,-456.48C479.15,-454 486.97,-450.9 494,-447 529.6,-427.25 561.44,-391.06 578.46,-369.5"/>
<polygon fill="midnightblue" stroke="midnightblue" points="581.29,-371.56 584.62,-361.51 575.74,-367.29 581.29,-371.56"/>
</g>
<!-- Node295&#45;&gt;Node3 -->
<g id="edge39" class="edge">
<title>Node295&#45;&gt;Node3</title>
<path fill="none" stroke="midnightblue" d="M374.57,-19.57C360.9,-22.55 346.64,-27.67 337,-38 277.47,-101.85 262.44,-385.96 259.26,-464.81"/>
<polygon fill="midnightblue" stroke="midnightblue" points="255.74,-465.14 258.86,-475.27 262.74,-465.41 255.74,-465.14"/>
</g>
</g>
</svg>
        <g id="navigator" transform="translate(0 0)" fill="#404254">
                <rect fill="#f2f5e9" fill-opacity="0.5" stroke="#606060" stroke-width=".5" x="0" y="0" width="60" height="60"/>
                <use id="zoomplus" xlink:href="#zoomPlus" x="17" y="9" onmousedown="handleZoom(evt,'in')"/>
                <use id="zoomminus" xlink:href="#zoomMin" x="42" y="9" onmousedown="handleZoom(evt,'out')"/>
                <use id="reset" xlink:href="#resetDef" x="30" y="36" onmousedown="handleReset()"/>
                <g id="arrowUp" xlink:href="#dirArrow" transform="translate(30 24)" onmousedown="handlePan(0,-1)">
                  <use xlink:href="#rim" fill="#404040">
                        <set attributeName="fill" to="#808080" begin="arrowUp.mouseover" end="arrowUp.mouseout"/>
                  </use>
                  <path fill="none" stroke="white" stroke-width="1.5" d="M0,-3.0v7 M-2.5,-0.5L0,-3.0L2.5,-0.5"/>
                </g>
                <g id="arrowRight" xlink:href="#dirArrow" transform="rotate(90) translate(36 -43)" onmousedown="handlePan(1,0)">
                  <use xlink:href="#rim" fill="#404040">
                        <set attributeName="fill" to="#808080" begin="arrowRight.mouseover" end="arrowRight.mouseout"/>
                  </use>
                  <path fill="none" stroke="white" stroke-width="1.5" d="M0,-3.0v7 M-2.5,-0.5L0,-3.0L2.5,-0.5"/>
                </g>
                <g id="arrowDown" xlink:href="#dirArrow" transform="rotate(180) translate(-30 -48)" onmousedown="handlePan(0,1)">
                  <use xlink:href="#rim" fill="#404040">
                        <set attributeName="fill" to="#808080" begin="arrowDown.mouseover" end="arrowDown.mouseout"/>
                  </use>
                  <path fill="none" stroke="white" stroke-width="1.5" d="M0,-3.0v7 M-2.5,-0.5L0,-3.0L2.5,-0.5"/>
                </g>
                <g id="arrowLeft" xlink:href="#dirArrow" transform="rotate(270) translate(-36 17)" onmousedown="handlePan(-1,0)">
                  <use xlink:href="#rim" fill="#404040">
                        <set attributeName="fill" to="#808080" begin="arrowLeft.mouseover" end="arrowLeft.mouseout"/>
                  </use>
                  <path fill="none" stroke="white" stroke-width="1.5" d="M0,-3.0v7 M-2.5,-0.5L0,-3.0L2.5,-0.5"/>
                </g>
        </g>
        <svg viewBox="0 0 15 15" width="100%" height="30px" preserveAspectRatio="xMaxYMin meet">
         <g id="arrow_out" transform="scale(0.3 0.3)">
          <a xlink:href="quickjs_8c_a677ad630a103e1f3d5129e0549112b50_cgraph_org.svg" target="_base">
           <rect id="button" ry="5" rx="5" y="6" x="6" height="38" width="38"
                fill="#f2f5e9" fill-opacity="0.5" stroke="#606060" stroke-width="1.0"/>
           <path id="arrow"
             d="M 11.500037,31.436501 C 11.940474,20.09759 22.043105,11.32322 32.158766,21.979434 L 37.068811,17.246167 C 37.068811,17.246167 37.088388,32 37.088388,32 L 22.160133,31.978069 C 22.160133,31.978069 26.997745,27.140456 26.997745,27.140456 C 18.528582,18.264221 13.291696,25.230495 11.500037,31.436501 z"
             style="fill:#404040;"/>
          </a>
         </g>
        </svg>
</svg>
