<?xml version="1.0" encoding="UTF-8" standalone="no"?>
<!DOCTYPE svg PUBLIC "-//W3C//DTD SVG 1.1//EN"
 "http://www.w3.org/Graphics/SVG/1.1/DTD/svg11.dtd">
<!-- Generated by graphviz version 2.43.0 (0)
 -->
<!-- Title: js_std_dbuf_init Pages: 1 -->
<svg width="403pt" height="180pt"
 viewBox="0.00 0.00 403.00 180.00" xmlns="http://www.w3.org/2000/svg" xmlns:xlink="http://www.w3.org/1999/xlink">
<g id="graph0" class="graph" transform="scale(1 1) rotate(0) translate(4 176)">
<title>js_std_dbuf_init</title>
<!-- Node1 -->
<g id="node1" class="node">
<title>Node1</title>
<g id="a_node1"><a xlink:title=" ">
<polygon fill="#bfbfbf" stroke="black" points="302,-57.5 302,-76.5 395,-76.5 395,-57.5 302,-57.5"/>
<text text-anchor="middle" x="348.5" y="-64.5" font-family="Helvetica,sans-Serif" font-size="10.00">js_std_dbuf_init</text>
</a>
</g>
</g>
<!-- Node2 -->
<g id="node2" class="node">
<title>Node2</title>
<g id="a_node2"><a xlink:href="quickjs-libc_8c.html#a2abec3aeee82a6dd3dd063725bbeecfe" target="_top" xlink:title=" ">
<polygon fill="none" stroke="black" points="150,-114.5 150,-133.5 249,-133.5 249,-114.5 150,-114.5"/>
<text text-anchor="middle" x="199.5" y="-121.5" font-family="Helvetica,sans-Serif" font-size="10.00">js_printf_internal</text>
</a>
</g>
</g>
<!-- Node1&#45;&gt;Node2 -->
<g id="edge1" class="edge">
<title>Node1&#45;&gt;Node2</title>
<path fill="none" stroke="midnightblue" d="M319.99,-81.12C304.41,-88.79 284.4,-98.09 266,-105 256.8,-108.46 246.68,-111.67 237.2,-114.43"/>
<polygon fill="midnightblue" stroke="midnightblue" points="321.69,-84.18 329.08,-76.59 318.56,-77.92 321.69,-84.18"/>
</g>
<!-- Node6 -->
<g id="node6" class="node">
<title>Node6</title>
<g id="a_node6"><a xlink:href="quickjs-libc_8c.html#af31f002f20b3b7e983dd4efabd18d65e" target="_top" xlink:title=" ">
<polygon fill="none" stroke="black" points="147.5,-76.5 147.5,-95.5 251.5,-95.5 251.5,-76.5 147.5,-76.5"/>
<text text-anchor="middle" x="199.5" y="-83.5" font-family="Helvetica,sans-Serif" font-size="10.00">js_std_file_getline</text>
</a>
</g>
</g>
<!-- Node1&#45;&gt;Node6 -->
<g id="edge5" class="edge">
<title>Node1&#45;&gt;Node6</title>
<path fill="none" stroke="midnightblue" d="M291.87,-74.19C278.63,-75.9 264.57,-77.72 251.56,-79.4"/>
<polygon fill="midnightblue" stroke="midnightblue" points="292.33,-77.66 301.79,-72.91 291.43,-70.72 292.33,-77.66"/>
</g>
<!-- Node7 -->
<g id="node7" class="node">
<title>Node7</title>
<g id="a_node7"><a xlink:href="quickjs-libc_8c.html#ae8abf0c32bf9b0acd85adffaf8345dfe" target="_top" xlink:title=" ">
<polygon fill="none" stroke="black" points="133,-38.5 133,-57.5 266,-57.5 266,-38.5 133,-38.5"/>
<text text-anchor="middle" x="199.5" y="-45.5" font-family="Helvetica,sans-Serif" font-size="10.00">js_std_file_readAsString</text>
</a>
</g>
</g>
<!-- Node1&#45;&gt;Node7 -->
<g id="edge6" class="edge">
<title>Node1&#45;&gt;Node7</title>
<path fill="none" stroke="midnightblue" d="M291.77,-59.8C283.4,-58.72 274.7,-57.59 266.14,-56.48"/>
<polygon fill="midnightblue" stroke="midnightblue" points="291.43,-63.28 301.79,-61.09 292.33,-56.34 291.43,-63.28"/>
</g>
<!-- Node8 -->
<g id="node8" class="node">
<title>Node8</title>
<g id="a_node8"><a xlink:href="quickjs-libc_8c.html#a7aebce2172c6aa4a6645aef600a69e6b" target="_top" xlink:title=" ">
<polygon fill="none" stroke="black" points="159.5,-0.5 159.5,-19.5 239.5,-19.5 239.5,-0.5 159.5,-0.5"/>
<text text-anchor="middle" x="199.5" y="-7.5" font-family="Helvetica,sans-Serif" font-size="10.00">js_std_urlGet</text>
</a>
</g>
</g>
<!-- Node1&#45;&gt;Node8 -->
<g id="edge7" class="edge">
<title>Node1&#45;&gt;Node8</title>
<path fill="none" stroke="midnightblue" d="M319.99,-52.88C304.41,-45.21 284.4,-35.91 266,-29 256.8,-25.54 246.68,-22.33 237.2,-19.57"/>
<polygon fill="midnightblue" stroke="midnightblue" points="318.56,-56.08 329.08,-57.41 321.69,-49.82 318.56,-56.08"/>
</g>
<!-- Node3 -->
<g id="node3" class="node">
<title>Node3</title>
<g id="a_node3"><a xlink:href="quickjs-libc_8c.html#a2770356a19e5d09edcb7da0cecbfe0f8" target="_top" xlink:title=" ">
<polygon fill="none" stroke="black" points="0,-152.5 0,-171.5 97,-171.5 97,-152.5 0,-152.5"/>
<text text-anchor="middle" x="48.5" y="-159.5" font-family="Helvetica,sans-Serif" font-size="10.00">js_std_file_printf</text>
</a>
</g>
</g>
<!-- Node2&#45;&gt;Node3 -->
<g id="edge2" class="edge">
<title>Node2&#45;&gt;Node3</title>
<path fill="none" stroke="midnightblue" d="M151.01,-136.11C130.26,-141.4 106.27,-147.52 86.83,-152.48"/>
<polygon fill="midnightblue" stroke="midnightblue" points="152.08,-139.45 160.9,-133.59 150.35,-132.67 152.08,-139.45"/>
</g>
<!-- Node4 -->
<g id="node4" class="node">
<title>Node4</title>
<g id="a_node4"><a xlink:href="quickjs-libc_8c.html#a6f5e9fa6d24e8fabd0b97f88179c1b29" target="_top" xlink:title=" ">
<polygon fill="none" stroke="black" points="10,-114.5 10,-133.5 87,-133.5 87,-114.5 10,-114.5"/>
<text text-anchor="middle" x="48.5" y="-121.5" font-family="Helvetica,sans-Serif" font-size="10.00">js_std_printf</text>
</a>
</g>
</g>
<!-- Node2&#45;&gt;Node4 -->
<g id="edge3" class="edge">
<title>Node2&#45;&gt;Node4</title>
<path fill="none" stroke="midnightblue" d="M139.48,-124C121.82,-124 102.93,-124 87.05,-124"/>
<polygon fill="midnightblue" stroke="midnightblue" points="139.71,-127.5 149.71,-124 139.71,-120.5 139.71,-127.5"/>
</g>
<!-- Node5 -->
<g id="node5" class="node">
<title>Node5</title>
<g id="a_node5"><a xlink:href="quickjs-libc_8c.html#ac49c945b1cbeb056236cfb479ec1ffd5" target="_top" xlink:title=" ">
<polygon fill="none" stroke="black" points="7.5,-76.5 7.5,-95.5 89.5,-95.5 89.5,-76.5 7.5,-76.5"/>
<text text-anchor="middle" x="48.5" y="-83.5" font-family="Helvetica,sans-Serif" font-size="10.00">js_std_sprintf</text>
</a>
</g>
</g>
<!-- Node2&#45;&gt;Node5 -->
<g id="edge4" class="edge">
<title>Node2&#45;&gt;Node5</title>
<path fill="none" stroke="midnightblue" d="M151.01,-111.89C130.26,-106.6 106.27,-100.48 86.83,-95.52"/>
<polygon fill="midnightblue" stroke="midnightblue" points="150.35,-115.33 160.9,-114.41 152.08,-108.55 150.35,-115.33"/>
</g>
</g>
</svg>
