<?xml version="1.0" encoding="UTF-8" standalone="no"?>
<!DOCTYPE svg PUBLIC "-//W3C//DTD SVG 1.1//EN"
 "http://www.w3.org/Graphics/SVG/1.1/DTD/svg11.dtd">
<!-- Generated by graphviz version 2.43.0 (0)
 -->
<!-- Title: js_async_function_resolve_finalizer Pages: 1 -->
<svg width="680pt" height="142pt"
 viewBox="0.00 0.00 680.00 142.00" xmlns="http://www.w3.org/2000/svg" xmlns:xlink="http://www.w3.org/1999/xlink">
<g id="graph0" class="graph" transform="scale(1 1) rotate(0) translate(4 138)">
<title>js_async_function_resolve_finalizer</title>
<!-- Node1 -->
<g id="node1" class="node">
<title>Node1</title>
<g id="a_node1"><a xlink:title=" ">
<polygon fill="#bfbfbf" stroke="black" points="0,-52 0,-82 145,-82 145,-52 0,-52"/>
<text text-anchor="start" x="8" y="-70" font-family="Helvetica,sans-Serif" font-size="10.00">js_async_function_resolve</text>
<text text-anchor="middle" x="72.5" y="-59" font-family="Helvetica,sans-Serif" font-size="10.00">_finalizer</text>
</a>
</g>
</g>
<!-- Node2 -->
<g id="node2" class="node">
<title>Node2</title>
<g id="a_node2"><a xlink:href="quickjs_8c.html#aee58f0488d619274e9d72be864626298" target="_top" xlink:title=" ">
<polygon fill="none" stroke="black" points="181,-57.5 181,-76.5 309,-76.5 309,-57.5 181,-57.5"/>
<text text-anchor="middle" x="245" y="-64.5" font-family="Helvetica,sans-Serif" font-size="10.00">js_async_function_free</text>
</a>
</g>
</g>
<!-- Node1&#45;&gt;Node2 -->
<g id="edge1" class="edge">
<title>Node1&#45;&gt;Node2</title>
<path fill="none" stroke="midnightblue" d="M145.31,-67C153.72,-67 162.31,-67 170.75,-67"/>
<polygon fill="midnightblue" stroke="midnightblue" points="170.93,-70.5 180.93,-67 170.93,-63.5 170.93,-70.5"/>
</g>
<!-- Node3 -->
<g id="node3" class="node">
<title>Node3</title>
<g id="a_node3"><a xlink:href="quickjs_8c.html#a0272417de9a1be37e1fcc3fdccdb859a" target="_top" xlink:title=" ">
<polygon fill="none" stroke="black" points="345,-57.5 345,-76.5 479,-76.5 479,-57.5 345,-57.5"/>
<text text-anchor="middle" x="412" y="-64.5" font-family="Helvetica,sans-Serif" font-size="10.00">js_async_function_free0</text>
</a>
</g>
</g>
<!-- Node2&#45;&gt;Node3 -->
<g id="edge2" class="edge">
<title>Node2&#45;&gt;Node3</title>
<path fill="none" stroke="midnightblue" d="M309.32,-67C317.59,-67 326.13,-67 334.59,-67"/>
<polygon fill="midnightblue" stroke="midnightblue" points="334.84,-70.5 344.84,-67 334.84,-63.5 334.84,-70.5"/>
</g>
<!-- Node4 -->
<g id="node4" class="node">
<title>Node4</title>
<g id="a_node4"><a xlink:href="quickjs_8c.html#a4b282353917b10409ca38b279b0b1dce" target="_top" xlink:title=" ">
<polygon fill="none" stroke="red" points="515,-114.5 515,-133.5 672,-133.5 672,-114.5 515,-114.5"/>
<text text-anchor="middle" x="593.5" y="-121.5" font-family="Helvetica,sans-Serif" font-size="10.00">js_async_function_terminate</text>
</a>
</g>
</g>
<!-- Node3&#45;&gt;Node4 -->
<g id="edge3" class="edge">
<title>Node3&#45;&gt;Node4</title>
<path fill="none" stroke="midnightblue" d="M436.23,-76.54C456.74,-84.74 487.55,-96.55 515,-105 522.99,-107.46 531.53,-109.82 539.9,-111.98"/>
<polygon fill="midnightblue" stroke="midnightblue" points="539.07,-115.38 549.62,-114.43 540.78,-108.59 539.07,-115.38"/>
</g>
<!-- Node11 -->
<g id="node5" class="node">
<title>Node11</title>
<g id="a_node5"><a xlink:href="quickjs_8c.html#a69e19dda8a93d613203e0baa06f0ed8d" target="_top" xlink:title=" ">
<polygon fill="none" stroke="black" points="562.5,-76.5 562.5,-95.5 624.5,-95.5 624.5,-76.5 562.5,-76.5"/>
<text text-anchor="middle" x="593.5" y="-83.5" font-family="Helvetica,sans-Serif" font-size="10.00">js_free_rt</text>
</a>
</g>
</g>
<!-- Node3&#45;&gt;Node11 -->
<g id="edge4" class="edge">
<title>Node3&#45;&gt;Node11</title>
<path fill="none" stroke="midnightblue" d="M479.07,-73.99C503.64,-76.59 530.76,-79.47 552.32,-81.75"/>
<polygon fill="midnightblue" stroke="midnightblue" points="552.11,-85.24 562.42,-82.82 552.85,-78.28 552.11,-85.24"/>
</g>
<!-- Node12 -->
<g id="node6" class="node">
<title>Node12</title>
<g id="a_node6"><a xlink:href="quickjs_8h.html#ab8db583fa5e7c2b1935854a42859daed" target="_top" xlink:title=" ">
<polygon fill="none" stroke="red" points="548,-38.5 548,-57.5 639,-57.5 639,-38.5 548,-38.5"/>
<text text-anchor="middle" x="593.5" y="-45.5" font-family="Helvetica,sans-Serif" font-size="10.00">JS_FreeValueRT</text>
</a>
</g>
</g>
<!-- Node3&#45;&gt;Node12 -->
<g id="edge5" class="edge">
<title>Node3&#45;&gt;Node12</title>
<path fill="none" stroke="midnightblue" d="M479.07,-60.01C498.39,-57.96 519.28,-55.75 537.81,-53.79"/>
<polygon fill="midnightblue" stroke="midnightblue" points="538.25,-57.26 547.83,-52.73 537.52,-50.3 538.25,-57.26"/>
</g>
<!-- Node29 -->
<g id="node7" class="node">
<title>Node29</title>
<g id="a_node7"><a xlink:href="quickjs_8c.html#adfb3133f30938e2db9b525ade5fc09cf" target="_top" xlink:title=" ">
<polygon fill="none" stroke="red" points="540.5,-0.5 540.5,-19.5 646.5,-19.5 646.5,-0.5 540.5,-0.5"/>
<text text-anchor="middle" x="593.5" y="-7.5" font-family="Helvetica,sans-Serif" font-size="10.00">remove_gc_object</text>
</a>
</g>
</g>
<!-- Node3&#45;&gt;Node29 -->
<g id="edge6" class="edge">
<title>Node3&#45;&gt;Node29</title>
<path fill="none" stroke="midnightblue" d="M436.23,-57.46C456.74,-49.26 487.55,-37.45 515,-29 522.99,-26.54 531.53,-24.18 539.9,-22.02"/>
<polygon fill="midnightblue" stroke="midnightblue" points="540.78,-25.41 549.62,-19.57 539.07,-18.62 540.78,-25.41"/>
</g>
</g>
</svg>
