<?xml version="1.0" encoding="UTF-8" standalone="no"?>
<!DOCTYPE svg PUBLIC "-//W3C//DTD SVG 1.1//EN"
 "http://www.w3.org/Graphics/SVG/1.1/DTD/svg11.dtd">
<!-- Generated by graphviz version 2.43.0 (0)
 -->
<!-- Title: js_os_stat Pages: 1 -->
<!--zoomable 408 -->
<svg id="main" version="1.1" xmlns="http://www.w3.org/2000/svg" xmlns:xlink="http://www.w3.org/1999/xlink" xml:space="preserve" onload="init(evt)">
<style type="text/css"><![CDATA[
.edge:hover path { stroke: red; }
.edge:hover polygon { stroke: red; fill: red; }
]]></style>
<script type="text/javascript"><![CDATA[
var edges = document.getElementsByTagName('g');
if (edges && edges.length) {
  for (var i=0;i<edges.length;i++) {
    if (edges[i].id.substr(0,4)=='edge') {
      edges[i].setAttribute('class','edge');
    }
  }
}
]]></script>
        <defs>
                <circle id="rim" cx="0" cy="0" r="7"/>
                <circle id="rim2" cx="0" cy="0" r="3.5"/>
                <g id="zoomPlus">
                        <use xlink:href="#rim" fill="#404040">
                                <set attributeName="fill" to="#808080" begin="zoomplus.mouseover" end="zoomplus.mouseout"/>
                        </use>
                        <path d="M-4,0h8M0,-4v8" fill="none" stroke="white" stroke-width="1.5" pointer-events="none"/>
                </g>
                <g id="zoomMin">
                        <use xlink:href="#rim" fill="#404040">
                                <set attributeName="fill" to="#808080" begin="zoomminus.mouseover" end="zoomminus.mouseout"/>
                        </use>
                        <path d="M-4,0h8" fill="none" stroke="white" stroke-width="1.5" pointer-events="none"/>
                </g>
                <g id="dirArrow">
                        <path fill="none" stroke="white" stroke-width="1.5" d="M0,-3.0v7 M-2.5,-0.5L0,-3.0L2.5,-0.5"/>
                </g>
               <g id="resetDef">
                       <use xlink:href="#rim2" fill="#404040">
                               <set attributeName="fill" to="#808080" begin="reset.mouseover" end="reset.mouseout"/>
                       </use>
               </g>
        </defs>

<script type="text/javascript">
var viewWidth = 759;
var viewHeight = 408;
var sectionId = 'dynsection-100';
</script>
<script xlink:href="svgpan.js"/>
<svg id="graph" class="graph">
<g id="viewport">
<title>js_os_stat</title>
<!-- Node1 -->
<g id="node1" class="node">
<title>Node1</title>
<g id="a_node1"><a xlink:title=" ">
<polygon fill="#bfbfbf" stroke="black" points="0,-152.5 0,-171.5 65,-171.5 65,-152.5 0,-152.5"/>
<text text-anchor="middle" x="32.5" y="-159.5" font-family="Helvetica,sans-Serif" font-size="10.00">js_os_stat</text>
</a>
</g>
</g>
<!-- Node2 -->
<g id="node2" class="node">
<title>Node2</title>
<g id="a_node2"><a xlink:href="quickjs_8c.html#a841f4cb887e4d9e03e94a0697255e578" target="_top" xlink:title=" ">
<polygon fill="none" stroke="black" points="101,-285.5 101,-304.5 245,-304.5 245,-285.5 101,-285.5"/>
<text text-anchor="middle" x="173" y="-292.5" font-family="Helvetica,sans-Serif" font-size="10.00">JS_DefinePropertyValueStr</text>
</a>
</g>
</g>
<!-- Node1&#45;&gt;Node2 -->
<g id="edge1" class="edge">
<title>Node1&#45;&gt;Node2</title>
<path fill="none" stroke="midnightblue" d="M39,-171.62C49.38,-189.18 73.35,-226.96 101,-252 113.41,-263.24 129.18,-273.13 142.7,-280.59"/>
<polygon fill="midnightblue" stroke="midnightblue" points="141.17,-283.74 151.64,-285.35 144.46,-277.56 141.17,-283.74"/>
</g>
<!-- Node68 -->
<g id="node6" class="node">
<title>Node68</title>
<g id="a_node6"><a xlink:href="quickjs_8h.html#ad80a83d73e9b7d872b88fbf2943aebe9" target="_top" xlink:title=" ">
<polygon fill="none" stroke="black" points="626,-266.5 626,-285.5 713,-285.5 713,-266.5 626,-266.5"/>
<text text-anchor="middle" x="669.5" y="-273.5" font-family="Helvetica,sans-Serif" font-size="10.00">JS_IsException</text>
</a>
</g>
</g>
<!-- Node1&#45;&gt;Node68 -->
<g id="edge12" class="edge">
<title>Node1&#45;&gt;Node68</title>
<path fill="none" stroke="midnightblue" d="M48.97,-171.64C62.27,-179.46 82.22,-190.12 101,-196 196.73,-225.96 493.69,-258.35 615.52,-270.76"/>
<polygon fill="midnightblue" stroke="midnightblue" points="615.42,-274.27 625.72,-271.79 616.12,-267.3 615.42,-274.27"/>
</g>
<!-- Node129 -->
<g id="node7" class="node">
<title>Node129</title>
<g id="a_node7"><a xlink:href="quickjs_8h.html#a2050bc428da1c65ac7eb87c3fa3b0392" target="_top" xlink:title=" ">
<polygon fill="none" stroke="black" points="631,-152.5 631,-171.5 708,-171.5 708,-152.5 631,-152.5"/>
<text text-anchor="middle" x="669.5" y="-159.5" font-family="Helvetica,sans-Serif" font-size="10.00">JS_NewInt32</text>
</a>
</g>
</g>
<!-- Node1&#45;&gt;Node129 -->
<g id="edge13" class="edge">
<title>Node1&#45;&gt;Node129</title>
<path fill="none" stroke="midnightblue" d="M65.1,-158.79C112.11,-154.2 203.27,-145.98 281,-143 339.18,-140.77 353.82,-140.85 412,-143 484.85,-145.69 569.1,-152.68 620.58,-157.39"/>
<polygon fill="midnightblue" stroke="midnightblue" points="620.46,-160.89 630.74,-158.32 621.1,-153.92 620.46,-160.89"/>
</g>
<!-- Node143 -->
<g id="node10" class="node">
<title>Node143</title>
<g id="a_node10"><a xlink:href="quickjs_8c.html#ae0bc4f65da64810facb2cb9e476eda2e" target="_top" xlink:title=" ">
<polygon fill="none" stroke="black" points="456.5,-380.5 456.5,-399.5 543.5,-399.5 543.5,-380.5 456.5,-380.5"/>
<text text-anchor="middle" x="500" y="-387.5" font-family="Helvetica,sans-Serif" font-size="10.00">JS_FreeCString</text>
</a>
</g>
</g>
<!-- Node1&#45;&gt;Node143 -->
<g id="edge10" class="edge">
<title>Node1&#45;&gt;Node143</title>
<path fill="none" stroke="midnightblue" d="M35.01,-171.8C39.65,-198.64 56.24,-273.96 101,-314 197.89,-400.67 362.28,-401.81 446.24,-395.75"/>
<polygon fill="midnightblue" stroke="midnightblue" points="446.62,-399.23 456.31,-394.96 446.07,-392.25 446.62,-399.23"/>
</g>
<!-- Node207 -->
<g id="node11" class="node">
<title>Node207</title>
<g id="a_node11"><a xlink:href="quickjs_8h.html#a6acbc709e59969eac6775f9b253b438f" target="_top" xlink:title=" ">
<polygon fill="none" stroke="red" points="308,-152.5 308,-171.5 385,-171.5 385,-152.5 308,-152.5"/>
<text text-anchor="middle" x="346.5" y="-159.5" font-family="Helvetica,sans-Serif" font-size="10.00">JS_NewInt64</text>
</a>
</g>
</g>
<!-- Node1&#45;&gt;Node207 -->
<g id="edge14" class="edge">
<title>Node1&#45;&gt;Node207</title>
<path fill="none" stroke="midnightblue" d="M65.13,-162C119.87,-162 232.58,-162 297.18,-162"/>
<polygon fill="midnightblue" stroke="midnightblue" points="297.5,-165.5 307.5,-162 297.5,-158.5 297.5,-165.5"/>
</g>
<!-- Node403 -->
<g id="node12" class="node">
<title>Node403</title>
<g id="a_node12"><a xlink:href="quickjs_8c.html#afc0d8ea75588216ec132a6e1655524a7" target="_top" xlink:title=" ">
<polygon fill="none" stroke="red" points="131,-76.5 131,-95.5 215,-95.5 215,-76.5 131,-76.5"/>
<text text-anchor="middle" x="173" y="-83.5" font-family="Helvetica,sans-Serif" font-size="10.00">JS_NewObject</text>
</a>
</g>
</g>
<!-- Node1&#45;&gt;Node403 -->
<g id="edge16" class="edge">
<title>Node1&#45;&gt;Node403</title>
<path fill="none" stroke="midnightblue" d="M43.73,-152.35C56.34,-140.9 78.83,-121.86 101,-110 109,-105.72 117.92,-101.99 126.65,-98.83"/>
<polygon fill="midnightblue" stroke="midnightblue" points="128.04,-102.05 136.37,-95.5 125.78,-95.43 128.04,-102.05"/>
</g>
<!-- Node25 -->
<g id="node13" class="node">
<title>Node25</title>
<g id="a_node13"><a xlink:href="quickjs_8h.html#af931f06630ab719b5f82a16eb27effd1" target="_top" xlink:title=" ">
<polygon fill="none" stroke="red" points="134.5,-38.5 134.5,-57.5 211.5,-57.5 211.5,-38.5 134.5,-38.5"/>
<text text-anchor="middle" x="173" y="-45.5" font-family="Helvetica,sans-Serif" font-size="10.00">JS_ToCString</text>
</a>
</g>
</g>
<!-- Node1&#45;&gt;Node25 -->
<g id="edge17" class="edge">
<title>Node1&#45;&gt;Node25</title>
<path fill="none" stroke="midnightblue" d="M37.65,-152.22C46.4,-132.85 68.6,-89.51 101,-67 108,-62.13 116.19,-58.51 124.47,-55.82"/>
<polygon fill="midnightblue" stroke="midnightblue" points="125.49,-59.17 134.15,-53.06 123.58,-52.43 125.49,-59.17"/>
</g>
<!-- Node437 -->
<g id="node14" class="node">
<title>Node437</title>
<g id="a_node14"><a xlink:href="quickjs-libc_8c.html#a0210b73e16d177f7668621a6573576aa" target="_top" xlink:title=" ">
<polygon fill="none" stroke="black" points="454,-190.5 454,-209.5 546,-209.5 546,-190.5 454,-190.5"/>
<text text-anchor="middle" x="500" y="-197.5" font-family="Helvetica,sans-Serif" font-size="10.00">make_obj_error</text>
</a>
</g>
</g>
<!-- Node1&#45;&gt;Node437 -->
<g id="edge18" class="edge">
<title>Node1&#45;&gt;Node437</title>
<path fill="none" stroke="midnightblue" d="M65.27,-169.57C76.5,-171.99 89.26,-174.44 101,-176 222.4,-192.16 366.1,-197.45 443.29,-199.17"/>
<polygon fill="midnightblue" stroke="midnightblue" points="443.66,-202.68 453.73,-199.39 443.81,-195.68 443.66,-202.68"/>
</g>
<!-- Node438 -->
<g id="node17" class="node">
<title>Node438</title>
<g id="a_node17"><a xlink:href="quickjs-libc_8c.html#af47948b7bcfc358b6148b01c21c28b63" target="_top" xlink:title=" ">
<polygon fill="none" stroke="black" points="124.5,-0.5 124.5,-19.5 221.5,-19.5 221.5,-0.5 124.5,-0.5"/>
<text text-anchor="middle" x="173" y="-7.5" font-family="Helvetica,sans-Serif" font-size="10.00">timespec_to_ms</text>
</a>
</g>
</g>
<!-- Node1&#45;&gt;Node438 -->
<g id="edge23" class="edge">
<title>Node1&#45;&gt;Node438</title>
<path fill="none" stroke="midnightblue" d="M35.56,-152.25C41.29,-127.61 59.77,-62.43 101,-29 105.11,-25.67 109.74,-22.92 114.63,-20.65"/>
<polygon fill="midnightblue" stroke="midnightblue" points="116.25,-23.77 124.27,-16.85 113.68,-17.26 116.25,-23.77"/>
</g>
<!-- Node3 -->
<g id="node3" class="node">
<title>Node3</title>
<g id="a_node3"><a xlink:href="quickjs_8c.html#a0a8765bd4012467d9139bc24aabcb3ca" target="_top" xlink:title=" ">
<polygon fill="none" stroke="black" points="281,-342.5 281,-361.5 412,-361.5 412,-342.5 281,-342.5"/>
<text text-anchor="middle" x="346.5" y="-349.5" font-family="Helvetica,sans-Serif" font-size="10.00">JS_DefinePropertyValue</text>
</a>
</g>
</g>
<!-- Node2&#45;&gt;Node3 -->
<g id="edge2" class="edge">
<title>Node2&#45;&gt;Node3</title>
<path fill="none" stroke="midnightblue" d="M199.81,-304.61C221.4,-312.55 253.06,-323.93 281,-333 287.71,-335.18 294.86,-337.39 301.85,-339.49"/>
<polygon fill="midnightblue" stroke="midnightblue" points="301.33,-342.99 311.92,-342.49 303.33,-336.28 301.33,-342.99"/>
</g>
<!-- Node54 -->
<g id="node8" class="node">
<title>Node54</title>
<g id="a_node8"><a xlink:href="quickjs_8c.html#ab7fc45a99935a1c0ba50b0216d9401a9" target="_top" xlink:title=" ">
<polygon fill="none" stroke="red" points="307.5,-304.5 307.5,-323.5 385.5,-323.5 385.5,-304.5 307.5,-304.5"/>
<text text-anchor="middle" x="346.5" y="-311.5" font-family="Helvetica,sans-Serif" font-size="10.00">JS_FreeAtom</text>
</a>
</g>
</g>
<!-- Node2&#45;&gt;Node54 -->
<g id="edge8" class="edge">
<title>Node2&#45;&gt;Node54</title>
<path fill="none" stroke="midnightblue" d="M245.24,-302.89C262.76,-304.83 281.1,-306.87 297.24,-308.65"/>
<polygon fill="midnightblue" stroke="midnightblue" points="297.17,-312.17 307.5,-309.79 297.94,-305.21 297.17,-312.17"/>
</g>
<!-- Node355 -->
<g id="node9" class="node">
<title>Node355</title>
<g id="a_node9"><a xlink:href="quickjs_8c.html#aa2ef5af1544a3012f91a80c98c326b8f" target="_top" xlink:title=" ">
<polygon fill="none" stroke="red" points="307,-266.5 307,-285.5 386,-285.5 386,-266.5 307,-266.5"/>
<text text-anchor="middle" x="346.5" y="-273.5" font-family="Helvetica,sans-Serif" font-size="10.00">JS_NewAtom</text>
</a>
</g>
</g>
<!-- Node2&#45;&gt;Node355 -->
<g id="edge9" class="edge">
<title>Node2&#45;&gt;Node355</title>
<path fill="none" stroke="midnightblue" d="M245.24,-287.11C262.45,-285.2 280.47,-283.2 296.41,-281.44"/>
<polygon fill="midnightblue" stroke="midnightblue" points="296.99,-284.9 306.55,-280.32 296.22,-277.94 296.99,-284.9"/>
</g>
<!-- Node4 -->
<g id="node4" class="node">
<title>Node4</title>
<g id="a_node4"><a xlink:href="quickjs_8c.html#ab50618f1bf78e444caa6da0e3e2785d7" target="_top" xlink:title=" ">
<polygon fill="none" stroke="red" points="448,-285.5 448,-304.5 552,-304.5 552,-285.5 448,-285.5"/>
<text text-anchor="middle" x="500" y="-292.5" font-family="Helvetica,sans-Serif" font-size="10.00">JS_DefineProperty</text>
</a>
</g>
</g>
<!-- Node3&#45;&gt;Node4 -->
<g id="edge3" class="edge">
<title>Node3&#45;&gt;Node4</title>
<path fill="none" stroke="midnightblue" d="M382.91,-342.44C392.43,-339.63 402.68,-336.39 412,-333 431.55,-325.88 452.97,-316.55 469.67,-308.91"/>
<polygon fill="midnightblue" stroke="midnightblue" points="471.29,-312.01 478.9,-304.64 468.36,-305.66 471.29,-312.01"/>
</g>
<!-- Node32 -->
<g id="node5" class="node">
<title>Node32</title>
<g id="a_node5"><a xlink:href="quickjs_8h.html#afaa20c47565bc704c6c85f3d77254e7d" target="_top" xlink:title=" ">
<polygon fill="none" stroke="red" points="630,-342.5 630,-361.5 709,-361.5 709,-342.5 630,-342.5"/>
<text text-anchor="middle" x="669.5" y="-349.5" font-family="Helvetica,sans-Serif" font-size="10.00">JS_FreeValue</text>
</a>
</g>
</g>
<!-- Node3&#45;&gt;Node32 -->
<g id="edge7" class="edge">
<title>Node3&#45;&gt;Node32</title>
<path fill="none" stroke="midnightblue" d="M412.07,-352C473.3,-352 563.96,-352 619.46,-352"/>
<polygon fill="midnightblue" stroke="midnightblue" points="619.74,-355.5 629.74,-352 619.74,-348.5 619.74,-355.5"/>
</g>
<!-- Node4&#45;&gt;Node32 -->
<g id="edge4" class="edge">
<title>Node4&#45;&gt;Node32</title>
<path fill="none" stroke="midnightblue" d="M529.04,-304.54C556.94,-314.03 599.93,-328.67 630.81,-339.17"/>
<polygon fill="midnightblue" stroke="midnightblue" points="629.78,-342.52 640.37,-342.43 632.03,-335.89 629.78,-342.52"/>
</g>
<!-- Node4&#45;&gt;Node68 -->
<g id="edge5" class="edge">
<title>Node4&#45;&gt;Node68</title>
<path fill="none" stroke="midnightblue" d="M552.17,-289.2C572.33,-286.91 595.48,-284.28 615.79,-281.98"/>
<polygon fill="midnightblue" stroke="midnightblue" points="616.27,-285.45 625.82,-280.84 615.49,-278.49 616.27,-285.45"/>
</g>
<!-- Node4&#45;&gt;Node129 -->
<g id="edge6" class="edge">
<title>Node4&#45;&gt;Node129</title>
<path fill="none" stroke="midnightblue" d="M507.2,-285.25C523.26,-260.27 566.49,-194.95 588,-181 597.78,-174.65 609.46,-170.42 620.85,-167.6"/>
<polygon fill="midnightblue" stroke="midnightblue" points="621.69,-171 630.72,-165.47 620.21,-164.16 621.69,-171"/>
</g>
<!-- Node143&#45;&gt;Node32 -->
<g id="edge11" class="edge">
<title>Node143&#45;&gt;Node32</title>
<path fill="none" stroke="midnightblue" d="M543.27,-380.41C566.59,-375.12 595.65,-368.53 619.9,-363.02"/>
<polygon fill="midnightblue" stroke="midnightblue" points="621,-366.37 629.97,-360.74 619.45,-359.54 621,-366.37"/>
</g>
<!-- Node207&#45;&gt;Node129 -->
<g id="edge15" class="edge">
<title>Node207&#45;&gt;Node129</title>
<path fill="none" stroke="midnightblue" d="M385.27,-162C443.82,-162 556.45,-162 620.63,-162"/>
<polygon fill="midnightblue" stroke="midnightblue" points="620.88,-165.5 630.88,-162 620.88,-158.5 620.88,-165.5"/>
</g>
<!-- Node437&#45;&gt;Node68 -->
<g id="edge20" class="edge">
<title>Node437&#45;&gt;Node68</title>
<path fill="none" stroke="midnightblue" d="M525.16,-209.57C533.93,-213.5 543.71,-218.44 552,-224 570.02,-236.09 568.82,-246.85 588,-257 596.57,-261.54 606.22,-265 615.79,-267.65"/>
<polygon fill="midnightblue" stroke="midnightblue" points="615.13,-271.09 625.68,-270.11 616.82,-264.3 615.13,-271.09"/>
</g>
<!-- Node437&#45;&gt;Node129 -->
<g id="edge22" class="edge">
<title>Node437&#45;&gt;Node129</title>
<path fill="none" stroke="midnightblue" d="M543.27,-190.41C566.95,-185.04 596.55,-178.32 621.02,-172.77"/>
<polygon fill="midnightblue" stroke="midnightblue" points="621.84,-176.17 630.82,-170.55 620.29,-169.35 621.84,-176.17"/>
</g>
<!-- Node239 -->
<g id="node15" class="node">
<title>Node239</title>
<g id="a_node15"><a xlink:href="quickjs_8c.html#a12aed667595f49667e0095f0a028e0d4" target="_top" xlink:title=" ">
<polygon fill="none" stroke="red" points="588,-190.5 588,-209.5 751,-209.5 751,-190.5 588,-190.5"/>
<text text-anchor="middle" x="669.5" y="-197.5" font-family="Helvetica,sans-Serif" font-size="10.00">JS_DefinePropertyValueUint32</text>
</a>
</g>
</g>
<!-- Node437&#45;&gt;Node239 -->
<g id="edge19" class="edge">
<title>Node437&#45;&gt;Node239</title>
<path fill="none" stroke="midnightblue" d="M546.33,-200C556.19,-200 566.97,-200 577.9,-200"/>
<polygon fill="midnightblue" stroke="midnightblue" points="577.96,-203.5 587.96,-200 577.96,-196.5 577.96,-203.5"/>
</g>
<!-- Node208 -->
<g id="node16" class="node">
<title>Node208</title>
<g id="a_node16"><a xlink:href="quickjs_8c.html#ad4ba09e4c7ab9f28c144182e1aacf1f6" target="_top" xlink:title=" ">
<polygon fill="none" stroke="red" points="630,-228.5 630,-247.5 709,-247.5 709,-228.5 630,-228.5"/>
<text text-anchor="middle" x="669.5" y="-235.5" font-family="Helvetica,sans-Serif" font-size="10.00">JS_NewArray</text>
</a>
</g>
</g>
<!-- Node437&#45;&gt;Node208 -->
<g id="edge21" class="edge">
<title>Node437&#45;&gt;Node208</title>
<path fill="none" stroke="midnightblue" d="M543.27,-209.59C566.59,-214.88 595.65,-221.47 619.9,-226.98"/>
<polygon fill="midnightblue" stroke="midnightblue" points="619.45,-230.46 629.97,-229.26 621,-223.63 619.45,-230.46"/>
</g>
</g>
</svg>
        <g id="navigator" transform="translate(0 0)" fill="#404254">
                <rect fill="#f2f5e9" fill-opacity="0.5" stroke="#606060" stroke-width=".5" x="0" y="0" width="60" height="60"/>
                <use id="zoomplus" xlink:href="#zoomPlus" x="17" y="9" onmousedown="handleZoom(evt,'in')"/>
                <use id="zoomminus" xlink:href="#zoomMin" x="42" y="9" onmousedown="handleZoom(evt,'out')"/>
                <use id="reset" xlink:href="#resetDef" x="30" y="36" onmousedown="handleReset()"/>
                <g id="arrowUp" xlink:href="#dirArrow" transform="translate(30 24)" onmousedown="handlePan(0,-1)">
                  <use xlink:href="#rim" fill="#404040">
                        <set attributeName="fill" to="#808080" begin="arrowUp.mouseover" end="arrowUp.mouseout"/>
                  </use>
                  <path fill="none" stroke="white" stroke-width="1.5" d="M0,-3.0v7 M-2.5,-0.5L0,-3.0L2.5,-0.5"/>
                </g>
                <g id="arrowRight" xlink:href="#dirArrow" transform="rotate(90) translate(36 -43)" onmousedown="handlePan(1,0)">
                  <use xlink:href="#rim" fill="#404040">
                        <set attributeName="fill" to="#808080" begin="arrowRight.mouseover" end="arrowRight.mouseout"/>
                  </use>
                  <path fill="none" stroke="white" stroke-width="1.5" d="M0,-3.0v7 M-2.5,-0.5L0,-3.0L2.5,-0.5"/>
                </g>
                <g id="arrowDown" xlink:href="#dirArrow" transform="rotate(180) translate(-30 -48)" onmousedown="handlePan(0,1)">
                  <use xlink:href="#rim" fill="#404040">
                        <set attributeName="fill" to="#808080" begin="arrowDown.mouseover" end="arrowDown.mouseout"/>
                  </use>
                  <path fill="none" stroke="white" stroke-width="1.5" d="M0,-3.0v7 M-2.5,-0.5L0,-3.0L2.5,-0.5"/>
                </g>
                <g id="arrowLeft" xlink:href="#dirArrow" transform="rotate(270) translate(-36 17)" onmousedown="handlePan(-1,0)">
                  <use xlink:href="#rim" fill="#404040">
                        <set attributeName="fill" to="#808080" begin="arrowLeft.mouseover" end="arrowLeft.mouseout"/>
                  </use>
                  <path fill="none" stroke="white" stroke-width="1.5" d="M0,-3.0v7 M-2.5,-0.5L0,-3.0L2.5,-0.5"/>
                </g>
        </g>
        <svg viewBox="0 0 15 15" width="100%" height="30px" preserveAspectRatio="xMaxYMin meet">
         <g id="arrow_out" transform="scale(0.3 0.3)">
          <a xlink:href="quickjs-libc_8c_a0142166ddf6e134f89207c3ee3c7572c_cgraph_org.svg" target="_base">
           <rect id="button" ry="5" rx="5" y="6" x="6" height="38" width="38"
                fill="#f2f5e9" fill-opacity="0.5" stroke="#606060" stroke-width="1.0"/>
           <path id="arrow"
             d="M 11.500037,31.436501 C 11.940474,20.09759 22.043105,11.32322 32.158766,21.979434 L 37.068811,17.246167 C 37.068811,17.246167 37.088388,32 37.088388,32 L 22.160133,31.978069 C 22.160133,31.978069 26.997745,27.140456 26.997745,27.140456 C 18.528582,18.264221 13.291696,25.230495 11.500037,31.436501 z"
             style="fill:#404040;"/>
          </a>
         </g>
        </svg>
</svg>
