<?xml version="1.0" encoding="UTF-8" standalone="no"?>
<!DOCTYPE svg PUBLIC "-//W3C//DTD SVG 1.1//EN"
 "http://www.w3.org/Graphics/SVG/1.1/DTD/svg11.dtd">
<!-- Generated by graphviz version 2.43.0 (0)
 -->
<!-- Title: __attribute__ Pages: 1 -->
<svg width="572pt" height="830pt"
 viewBox="0.00 0.00 572.00 830.07" xmlns="http://www.w3.org/2000/svg" xmlns:xlink="http://www.w3.org/1999/xlink">
<g id="graph0" class="graph" transform="scale(1 1) rotate(0) translate(4 826.07)">
<title>__attribute__</title>
<!-- Node1 -->
<g id="node1" class="node">
<title>Node1</title>
<g id="a_node1"><a xlink:title=" ">
<polygon fill="#bfbfbf" stroke="black" points="484,-383.5 484,-402.5 564,-402.5 564,-383.5 484,-383.5"/>
<text text-anchor="middle" x="524" y="-390.5" font-family="Helvetica,sans-Serif" font-size="10.00">__attribute__</text>
</a>
</g>
</g>
<!-- Node2 -->
<g id="node2" class="node">
<title>Node2</title>
<g id="a_node2"><a xlink:href="quickjs_8c.html#a9d376a5d1dfcd4a3a0c901bb62e2ff96" target="_top" xlink:title=" ">
<polygon fill="none" stroke="black" points="327,-750.5 327,-769.5 438,-769.5 438,-750.5 327,-750.5"/>
<text text-anchor="middle" x="382.5" y="-757.5" font-family="Helvetica,sans-Serif" font-size="10.00">__js_poll_interrupts</text>
</a>
</g>
</g>
<!-- Node1&#45;&gt;Node2 -->
<g id="edge1" class="edge">
<title>Node1&#45;&gt;Node2</title>
<path fill="none" stroke="midnightblue" d="M520.77,-412.81C513.23,-476.8 486.99,-676.7 448,-727 439.68,-737.74 426.9,-745.29 414.9,-750.43"/>
<polygon fill="midnightblue" stroke="midnightblue" points="524.29,-412.85 521.96,-402.51 517.34,-412.04 524.29,-412.85"/>
</g>
<!-- Node25 -->
<g id="node4" class="node">
<title>Node25</title>
<g id="a_node4"><a xlink:href="quickjs_8c.html#ac2894ff4edcdb4e6841bcce9c76081e3" target="_top" xlink:title=" ">
<polygon fill="none" stroke="red" points="12,-735.5 12,-754.5 99,-754.5 99,-735.5 12,-735.5"/>
<text text-anchor="middle" x="55.5" y="-742.5" font-family="Helvetica,sans-Serif" font-size="10.00">JS_CallInternal</text>
</a>
</g>
</g>
<!-- Node1&#45;&gt;Node25 -->
<g id="edge25" class="edge">
<title>Node1&#45;&gt;Node25</title>
<path fill="none" stroke="midnightblue" d="M522.29,-412.94C519.25,-485.12 504.81,-731.01 448,-779 335.94,-873.65 135.97,-785.34 74.79,-754.62"/>
<polygon fill="midnightblue" stroke="midnightblue" points="525.8,-412.7 522.69,-402.57 518.8,-412.42 525.8,-412.7"/>
</g>
<!-- Node616 -->
<g id="node5" class="node">
<title>Node616</title>
<g id="a_node5"><a xlink:href="quickjs_8c.html#aff573513d994f4e9ad7b0430c03ddc3d" target="_top" xlink:title=" ">
<polygon fill="none" stroke="black" points="354.5,-584.5 354.5,-603.5 410.5,-603.5 410.5,-584.5 354.5,-584.5"/>
<text text-anchor="middle" x="382.5" y="-591.5" font-family="Helvetica,sans-Serif" font-size="10.00">add_arg</text>
</a>
</g>
</g>
<!-- Node1&#45;&gt;Node616 -->
<g id="edge5" class="edge">
<title>Node1&#45;&gt;Node616</title>
<path fill="none" stroke="midnightblue" d="M520.52,-412.6C514.76,-449.8 497.02,-530.85 448,-575 437.76,-584.22 423.26,-588.98 410.6,-591.43"/>
<polygon fill="midnightblue" stroke="midnightblue" points="524,-412.95 521.94,-402.56 517.07,-411.97 524,-412.95"/>
</g>
<!-- Node617 -->
<g id="node7" class="node">
<title>Node617</title>
<g id="a_node7"><a xlink:href="quickjs_8c.html#a9f64fb61a20cee1cad0eb2680624e341" target="_top" xlink:title=" ">
<polygon fill="none" stroke="black" points="334.5,-440.5 334.5,-459.5 430.5,-459.5 430.5,-440.5 334.5,-440.5"/>
<text text-anchor="middle" x="382.5" y="-447.5" font-family="Helvetica,sans-Serif" font-size="10.00">add_closure_var</text>
</a>
</g>
</g>
<!-- Node1&#45;&gt;Node617 -->
<g id="edge7" class="edge">
<title>Node1&#45;&gt;Node617</title>
<path fill="none" stroke="midnightblue" d="M492.76,-406.79C479.16,-412.86 462.85,-419.98 448,-426 435.71,-430.99 421.95,-436.16 410.31,-440.42"/>
<polygon fill="midnightblue" stroke="midnightblue" points="494.44,-409.87 502.13,-402.58 491.57,-403.48 494.44,-409.87"/>
</g>
<!-- Node623 -->
<g id="node9" class="node">
<title>Node623</title>
<g id="a_node9"><a xlink:href="quickjs_8c.html#ab2e0855c4317f8e3b05c0a091bc43a29" target="_top" xlink:title=" ">
<polygon fill="none" stroke="red" points="354.5,-478.5 354.5,-497.5 410.5,-497.5 410.5,-478.5 354.5,-478.5"/>
<text text-anchor="middle" x="382.5" y="-485.5" font-family="Helvetica,sans-Serif" font-size="10.00">add_var</text>
</a>
</g>
</g>
<!-- Node1&#45;&gt;Node623 -->
<g id="edge10" class="edge">
<title>Node1&#45;&gt;Node623</title>
<path fill="none" stroke="midnightblue" d="M509.81,-410.87C496.17,-428.13 473.33,-453.84 448,-469 436.68,-475.77 422.79,-480.27 410.8,-483.18"/>
<polygon fill="midnightblue" stroke="midnightblue" points="512.76,-412.77 516.07,-402.71 507.21,-408.51 512.76,-412.77"/>
</g>
<!-- Node633 -->
<g id="node16" class="node">
<title>Node633</title>
<g id="a_node16"><a xlink:href="quickjs_8c.html#a8cdae63a2cea1f6df8105adc6e2d03d0" target="_top" xlink:title=" ">
<polygon fill="none" stroke="red" points="156,-262.5 156,-281.5 272,-281.5 272,-262.5 156,-262.5"/>
<text text-anchor="middle" x="214" y="-269.5" font-family="Helvetica,sans-Serif" font-size="10.00">compute_stack_size</text>
</a>
</g>
</g>
<!-- Node1&#45;&gt;Node633 -->
<g id="edge22" class="edge">
<title>Node1&#45;&gt;Node633</title>
<path fill="none" stroke="midnightblue" d="M484.4,-405.22C439.77,-416.81 366.16,-427.78 317,-393 277.76,-365.23 315.98,-323.98 281,-291 276.92,-287.16 272.12,-284.08 266.99,-281.63"/>
<polygon fill="midnightblue" stroke="midnightblue" points="485.55,-408.54 494.28,-402.53 483.71,-401.78 485.55,-408.54"/>
</g>
<!-- Node78 -->
<g id="node17" class="node">
<title>Node78</title>
<g id="a_node17"><a xlink:href="quickjs_8c.html#a43208b0746998d2b6b9b8bd1ef8b5f99" target="_top" xlink:title=" ">
<polygon fill="none" stroke="black" points="151.5,-716.5 151.5,-735.5 276.5,-735.5 276.5,-716.5 151.5,-716.5"/>
<text text-anchor="middle" x="214" y="-723.5" font-family="Helvetica,sans-Serif" font-size="10.00">js_append_enumerate</text>
</a>
</g>
</g>
<!-- Node1&#45;&gt;Node78 -->
<g id="edge23" class="edge">
<title>Node1&#45;&gt;Node78</title>
<path fill="none" stroke="midnightblue" d="M520.82,-412.6C513.77,-472.45 489.56,-651.05 448,-689 402.1,-730.91 328.75,-736.14 276.61,-733.44"/>
<polygon fill="midnightblue" stroke="midnightblue" points="524.31,-412.91 521.97,-402.58 517.36,-412.11 524.31,-412.91"/>
</g>
<!-- Node634 -->
<g id="node18" class="node">
<title>Node634</title>
<g id="a_node18"><a xlink:href="quickjs_8c.html#aa864584f81729321ec9d527d6362c633" target="_top" xlink:title=" ">
<polygon fill="none" stroke="red" points="333,-326.5 333,-345.5 432,-345.5 432,-326.5 333,-326.5"/>
<text text-anchor="middle" x="382.5" y="-333.5" font-family="Helvetica,sans-Serif" font-size="10.00">JS_ConcatString1</text>
</a>
</g>
</g>
<!-- Node1&#45;&gt;Node634 -->
<g id="edge26" class="edge">
<title>Node1&#45;&gt;Node634</title>
<path fill="none" stroke="midnightblue" d="M497.27,-378.49C483.04,-370.85 464.87,-361.69 448,-355 439.1,-351.47 429.29,-348.25 420.05,-345.51"/>
<polygon fill="midnightblue" stroke="midnightblue" points="495.97,-381.77 506.43,-383.5 499.33,-375.63 495.97,-381.77"/>
</g>
<!-- Node635 -->
<g id="node19" class="node">
<title>Node635</title>
<g id="a_node19"><a xlink:href="quickjs_8c.html#ac34cc554aab1e98c45a7f845fff64385" target="_top" xlink:title=" ">
<polygon fill="none" stroke="red" points="333.5,-288.5 333.5,-307.5 431.5,-307.5 431.5,-288.5 333.5,-288.5"/>
<text text-anchor="middle" x="382.5" y="-295.5" font-family="Helvetica,sans-Serif" font-size="10.00">JS_NewStringLen</text>
</a>
</g>
</g>
<!-- Node1&#45;&gt;Node635 -->
<g id="edge27" class="edge">
<title>Node1&#45;&gt;Node635</title>
<path fill="none" stroke="midnightblue" d="M509.81,-375.13C496.17,-357.87 473.33,-332.16 448,-317 441.59,-313.16 434.35,-310.06 427.1,-307.56"/>
<polygon fill="midnightblue" stroke="midnightblue" points="507.21,-377.49 516.07,-383.29 512.76,-373.23 507.21,-377.49"/>
</g>
<!-- Node196 -->
<g id="node20" class="node">
<title>Node196</title>
<g id="a_node20"><a xlink:href="quickjs_8c.html#a26be546cf89c4580ba9020e8fc43a759" target="_top" xlink:title=" ">
<polygon fill="none" stroke="red" points="319,-517 319,-547 446,-547 446,-517 319,-517"/>
<text text-anchor="start" x="327" y="-535" font-family="Helvetica,sans-Serif" font-size="10.00">js_parse_destructuring</text>
<text text-anchor="middle" x="382.5" y="-524" font-family="Helvetica,sans-Serif" font-size="10.00">_element</text>
</a>
</g>
</g>
<!-- Node1&#45;&gt;Node196 -->
<g id="edge28" class="edge">
<title>Node1&#45;&gt;Node196</title>
<path fill="none" stroke="midnightblue" d="M515.07,-411.86C503.67,-436.85 480.4,-480.84 448,-507 443.23,-510.85 437.81,-514.16 432.17,-516.98"/>
<polygon fill="midnightblue" stroke="midnightblue" points="518.27,-413.27 519.1,-402.71 511.86,-410.45 518.27,-413.27"/>
</g>
<!-- Node133 -->
<g id="node21" class="node">
<title>Node133</title>
<g id="a_node21"><a xlink:href="quickjs_8c.html#a9eb2d90f27f684820f9de13189502b7c" target="_top" xlink:title=" ">
<polygon fill="none" stroke="red" points="336.5,-250.5 336.5,-269.5 428.5,-269.5 428.5,-250.5 336.5,-250.5"/>
<text text-anchor="middle" x="382.5" y="-257.5" font-family="Helvetica,sans-Serif" font-size="10.00">js_regexp_exec</text>
</a>
</g>
</g>
<!-- Node1&#45;&gt;Node133 -->
<g id="edge31" class="edge">
<title>Node1&#45;&gt;Node133</title>
<path fill="none" stroke="midnightblue" d="M515.54,-374.12C504.56,-348.73 481.63,-303.92 448,-279 442.28,-274.76 435.62,-271.46 428.8,-268.9"/>
<polygon fill="midnightblue" stroke="midnightblue" points="512.33,-375.51 519.4,-383.4 518.8,-372.82 512.33,-375.51"/>
</g>
<!-- Node142 -->
<g id="node22" class="node">
<title>Node142</title>
<g id="a_node22"><a xlink:href="quickjs_8c.html#a14fa3c10f581e1cd38b349913f47fb43" target="_top" xlink:title=" ">
<polygon fill="none" stroke="red" points="332.5,-212.5 332.5,-231.5 432.5,-231.5 432.5,-212.5 332.5,-212.5"/>
<text text-anchor="middle" x="382.5" y="-219.5" font-family="Helvetica,sans-Serif" font-size="10.00">JS_RegExpDelete</text>
</a>
</g>
</g>
<!-- Node1&#45;&gt;Node142 -->
<g id="edge32" class="edge">
<title>Node1&#45;&gt;Node142</title>
<path fill="none" stroke="midnightblue" d="M518.65,-373.06C510.51,-340.55 489.9,-276.25 448,-241 443.36,-237.09 437.94,-233.99 432.25,-231.52"/>
<polygon fill="midnightblue" stroke="midnightblue" points="515.32,-374.2 521.02,-383.13 522.13,-372.59 515.32,-374.2"/>
</g>
<!-- Node508 -->
<g id="node23" class="node">
<title>Node508</title>
<g id="a_node23"><a xlink:href="quickjs_8c.html#afe038ef522a8c7c8862cfe18a0c0a785" target="_top" xlink:title=" ">
<polygon fill="none" stroke="black" points="342,-174.5 342,-193.5 423,-193.5 423,-174.5 342,-174.5"/>
<text text-anchor="middle" x="382.5" y="-181.5" font-family="Helvetica,sans-Serif" font-size="10.00">js_string_pad</text>
</a>
</g>
</g>
<!-- Node1&#45;&gt;Node508 -->
<g id="edge33" class="edge">
<title>Node1&#45;&gt;Node508</title>
<path fill="none" stroke="midnightblue" d="M520.86,-373.1C515.65,-334.54 498.76,-249.41 448,-203 441.11,-196.7 432.22,-192.48 423.27,-189.66"/>
<polygon fill="midnightblue" stroke="midnightblue" points="517.44,-373.97 522.13,-383.47 524.39,-373.12 517.44,-373.97"/>
</g>
<!-- Node520 -->
<g id="node24" class="node">
<title>Node520</title>
<g id="a_node24"><a xlink:href="quickjs_8c.html#a0f6f437eaf0cabf7d3e31f8306ed7e02" target="_top" xlink:title=" ">
<polygon fill="none" stroke="black" points="335,-136.5 335,-155.5 430,-155.5 430,-136.5 335,-136.5"/>
<text text-anchor="middle" x="382.5" y="-143.5" font-family="Helvetica,sans-Serif" font-size="10.00">js_string_repeat</text>
</a>
</g>
</g>
<!-- Node1&#45;&gt;Node520 -->
<g id="edge34" class="edge">
<title>Node1&#45;&gt;Node520</title>
<path fill="none" stroke="midnightblue" d="M522.38,-373.12C519.91,-329.13 507.73,-222.89 448,-165 442.97,-160.13 436.76,-156.49 430.19,-153.79"/>
<polygon fill="midnightblue" stroke="midnightblue" points="518.88,-373.29 522.83,-383.12 525.88,-372.97 518.88,-373.29"/>
</g>
<!-- Node692 -->
<g id="node25" class="node">
<title>Node692</title>
<g id="a_node25"><a xlink:href="quickjs_8c.html#a344d6c0e45d9bf3861fd9269724045a2" target="_top" xlink:title=" ">
<polygon fill="none" stroke="red" points="317.5,-98.5 317.5,-117.5 447.5,-117.5 447.5,-98.5 317.5,-98.5"/>
<text text-anchor="middle" x="382.5" y="-105.5" font-family="Helvetica,sans-Serif" font-size="10.00">JS_ThrowOutOfMemory</text>
</a>
</g>
</g>
<!-- Node1&#45;&gt;Node692 -->
<g id="edge35" class="edge">
<title>Node1&#45;&gt;Node692</title>
<path fill="none" stroke="midnightblue" d="M523.49,-373.25C523.59,-324.36 516.85,-196.66 448,-127 444.14,-123.1 439.53,-119.99 434.56,-117.51"/>
<polygon fill="midnightblue" stroke="midnightblue" points="519.99,-373.37 523.36,-383.41 526.99,-373.46 519.99,-373.37"/>
</g>
<!-- Node762 -->
<g id="node26" class="node">
<title>Node762</title>
<g id="a_node26"><a xlink:href="quickjs_8c.html#a8353f635fb8a20553c08db8cf38c17e0" target="_top" xlink:title=" ">
<polygon fill="none" stroke="red" points="317,-660.5 317,-679.5 448,-679.5 448,-660.5 317,-660.5"/>
<text text-anchor="middle" x="382.5" y="-667.5" font-family="Helvetica,sans-Serif" font-size="10.00">JS_ThrowStackOverflow</text>
</a>
</g>
</g>
<!-- Node1&#45;&gt;Node762 -->
<g id="edge36" class="edge">
<title>Node1&#45;&gt;Node762</title>
<path fill="none" stroke="midnightblue" d="M522.84,-412.77C521.38,-459.57 511.27,-578.27 448,-646 442.13,-652.29 434.46,-656.93 426.46,-660.37"/>
<polygon fill="midnightblue" stroke="midnightblue" points="526.34,-412.8 523.04,-402.73 519.34,-412.66 526.34,-412.8"/>
</g>
<!-- Node356 -->
<g id="node27" class="node">
<title>Node356</title>
<g id="a_node27"><a xlink:href="quickjs_8c.html#aa9342f7444c1c9f8743d43aa4d7f89e3" target="_top" xlink:title=" ">
<polygon fill="none" stroke="red" points="160.5,-622.5 160.5,-641.5 267.5,-641.5 267.5,-622.5 160.5,-622.5"/>
<text text-anchor="middle" x="214" y="-629.5" font-family="Helvetica,sans-Serif" font-size="10.00">JS_WriteObjectRec</text>
</a>
</g>
</g>
<!-- Node1&#45;&gt;Node356 -->
<g id="edge40" class="edge">
<title>Node1&#45;&gt;Node356</title>
<path fill="none" stroke="midnightblue" d="M522.95,-412.78C521.64,-456.9 511.7,-563.37 448,-613 393.89,-655.15 309.68,-649.93 258.69,-641.51"/>
<polygon fill="midnightblue" stroke="midnightblue" points="526.45,-412.59 523.12,-402.53 519.45,-412.47 526.45,-412.59"/>
</g>
<!-- Node764 -->
<g id="node28" class="node">
<title>Node764</title>
<g id="a_node28"><a xlink:href="structqjs_1_1js__traits_3_01std_1_1shared__ptr_3_01T_01_4_01_4.html#af3558afeef079826c58411353c8ccce0" target="_top" xlink:title="Register class in QuickJS context.">
<polygon fill="none" stroke="red" points="325.5,-38.5 325.5,-79.5 439.5,-79.5 439.5,-38.5 325.5,-38.5"/>
<text text-anchor="start" x="333.5" y="-67.5" font-family="Helvetica,sans-Serif" font-size="10.00">qjs::js_traits&lt; std</text>
<text text-anchor="start" x="333.5" y="-56.5" font-family="Helvetica,sans-Serif" font-size="10.00">::shared_ptr&lt; T &gt; &gt;</text>
<text text-anchor="middle" x="382.5" y="-45.5" font-family="Helvetica,sans-Serif" font-size="10.00">::register_class</text>
</a>
</g>
</g>
<!-- Node1&#45;&gt;Node764 -->
<g id="edge41" class="edge">
<title>Node1&#45;&gt;Node764</title>
<path fill="none" stroke="midnightblue" d="M523.67,-373.27C524.4,-320.78 519.45,-175.81 448,-89 445.1,-85.47 441.68,-82.34 437.97,-79.56"/>
<polygon fill="midnightblue" stroke="midnightblue" points="520.17,-373.19 523.44,-383.27 527.17,-373.35 520.17,-373.19"/>
</g>
<!-- Node760 -->
<g id="node29" class="node">
<title>Node760</title>
<g id="a_node29"><a xlink:href="quickjs_8c.html#ae45b122556638f15e903dc36708dbe20" target="_top" xlink:title=" ">
<polygon fill="none" stroke="black" points="352,-364.5 352,-383.5 413,-383.5 413,-364.5 352,-364.5"/>
<text text-anchor="middle" x="382.5" y="-371.5" font-family="Helvetica,sans-Serif" font-size="10.00">ss_check</text>
</a>
</g>
</g>
<!-- Node1&#45;&gt;Node760 -->
<g id="edge42" class="edge">
<title>Node1&#45;&gt;Node760</title>
<path fill="none" stroke="midnightblue" d="M473.77,-386.29C453.53,-383.54 430.76,-380.44 413.15,-378.04"/>
<polygon fill="midnightblue" stroke="midnightblue" points="473.39,-389.78 483.77,-387.66 474.33,-382.84 473.39,-389.78"/>
</g>
<!-- Node765 -->
<g id="node30" class="node">
<title>Node765</title>
<g id="a_node30"><a xlink:href="quickjs_8c.html#a317ccdca83843c76330ace89fb055b56" target="_top" xlink:title=" ">
<polygon fill="none" stroke="red" points="324.5,-0.5 324.5,-19.5 440.5,-19.5 440.5,-0.5 324.5,-0.5"/>
<text text-anchor="middle" x="382.5" y="-7.5" font-family="Helvetica,sans-Serif" font-size="10.00">string_buffer_realloc</text>
</a>
</g>
</g>
<!-- Node1&#45;&gt;Node765 -->
<g id="edge44" class="edge">
<title>Node1&#45;&gt;Node765</title>
<path fill="none" stroke="midnightblue" d="M521.53,-372.88C516.14,-304.17 495.18,-80.28 448,-29 444.44,-25.13 440.14,-22.04 435.47,-19.57"/>
<polygon fill="midnightblue" stroke="midnightblue" points="518.07,-373.47 522.32,-383.18 525.05,-372.94 518.07,-373.47"/>
</g>
<!-- Node3 -->
<g id="node3" class="node">
<title>Node3</title>
<g id="a_node3"><a xlink:href="quickjs_8c.html#a246e337d6566552736209730827c0871" target="_top" xlink:title=" ">
<polygon fill="none" stroke="red" points="163.5,-754.5 163.5,-773.5 264.5,-773.5 264.5,-754.5 163.5,-754.5"/>
<text text-anchor="middle" x="214" y="-761.5" font-family="Helvetica,sans-Serif" font-size="10.00">js_poll_interrupts</text>
</a>
</g>
</g>
<!-- Node2&#45;&gt;Node3 -->
<g id="edge2" class="edge">
<title>Node2&#45;&gt;Node3</title>
<path fill="none" stroke="midnightblue" d="M316.9,-761.55C299.52,-761.97 281,-762.41 264.58,-762.81"/>
<polygon fill="midnightblue" stroke="midnightblue" points="317.07,-765.05 326.98,-761.31 316.9,-758.05 317.07,-765.05"/>
</g>
<!-- Node3&#45;&gt;Node25 -->
<g id="edge3" class="edge">
<title>Node3&#45;&gt;Node25</title>
<path fill="none" stroke="midnightblue" d="M153.33,-756.76C135.27,-754.56 115.81,-752.2 99.11,-750.17"/>
<polygon fill="midnightblue" stroke="midnightblue" points="153.13,-760.26 163.48,-757.99 153.98,-753.31 153.13,-760.26"/>
</g>
<!-- Node25&#45;&gt;Node25 -->
<g id="edge4" class="edge">
<title>Node25&#45;&gt;Node25</title>
<path fill="none" stroke="midnightblue" d="M84.99,-763.65C83.76,-768.94 73.93,-773 55.5,-773 27.42,-773 19.3,-763.57 31.15,-754.76"/>
<polygon fill="midnightblue" stroke="midnightblue" points="87.89,-761.66 79.85,-754.76 81.82,-765.17 87.89,-761.66"/>
</g>
<!-- Node187 -->
<g id="node6" class="node">
<title>Node187</title>
<g id="a_node6"><a xlink:href="quickjs_8c.html#acc9eb677cab8dfcf45f59381f8a19601" target="_top" xlink:title=" ">
<polygon fill="none" stroke="red" points="147,-584.5 147,-603.5 281,-603.5 281,-584.5 147,-584.5"/>
<text text-anchor="middle" x="214" y="-591.5" font-family="Helvetica,sans-Serif" font-size="10.00">js_parse_function_decl2</text>
</a>
</g>
</g>
<!-- Node616&#45;&gt;Node187 -->
<g id="edge6" class="edge">
<title>Node616&#45;&gt;Node187</title>
<path fill="none" stroke="midnightblue" d="M344.29,-594C325.73,-594 302.73,-594 281.29,-594"/>
<polygon fill="midnightblue" stroke="midnightblue" points="344.38,-597.5 354.38,-594 344.38,-590.5 344.38,-597.5"/>
</g>
<!-- Node618 -->
<g id="node8" class="node">
<title>Node618</title>
<g id="a_node8"><a xlink:href="quickjs_8c.html#a4671a759c33274b073d0578ac62261e0" target="_top" xlink:title=" ">
<polygon fill="none" stroke="red" points="164,-300.5 164,-319.5 264,-319.5 264,-300.5 164,-300.5"/>
<text text-anchor="middle" x="214" y="-307.5" font-family="Helvetica,sans-Serif" font-size="10.00">get_closure_var2</text>
</a>
</g>
</g>
<!-- Node617&#45;&gt;Node618 -->
<g id="edge8" class="edge">
<title>Node617&#45;&gt;Node618</title>
<path fill="none" stroke="midnightblue" d="M331.7,-436.18C326.36,-433.38 321.31,-430.02 317,-426 288.76,-399.71 307.12,-375.4 281,-347 269.79,-334.82 253.63,-325.67 240.1,-319.51"/>
<polygon fill="midnightblue" stroke="midnightblue" points="330.32,-439.4 340.87,-440.4 333.25,-433.04 330.32,-439.4"/>
</g>
<!-- Node618&#45;&gt;Node618 -->
<g id="edge9" class="edge">
<title>Node618&#45;&gt;Node618</title>
<path fill="none" stroke="midnightblue" d="M243.49,-328.65C242.26,-333.94 232.43,-338 214,-338 185.92,-338 177.8,-328.57 189.65,-319.76"/>
<polygon fill="midnightblue" stroke="midnightblue" points="246.39,-326.66 238.35,-319.76 240.32,-330.17 246.39,-326.66"/>
</g>
<!-- Node623&#45;&gt;Node187 -->
<g id="edge21" class="edge">
<title>Node623&#45;&gt;Node187</title>
<path fill="none" stroke="midnightblue" d="M344.41,-494.42C334.77,-497.39 324.89,-501.71 317,-508 292.08,-527.85 305.44,-549.55 281,-570 273.52,-576.26 264.27,-580.95 255.09,-584.44"/>
<polygon fill="midnightblue" stroke="midnightblue" points="345.51,-497.75 354.27,-491.8 343.71,-490.99 345.51,-497.75"/>
</g>
<!-- Node624 -->
<g id="node10" class="node">
<title>Node624</title>
<g id="a_node10"><a xlink:href="quickjs_8c.html#a2bfa1a7eb92eca442a25cf6726a0b19d" target="_top" xlink:title=" ">
<polygon fill="none" stroke="black" points="157.5,-508.5 157.5,-527.5 270.5,-527.5 270.5,-508.5 157.5,-508.5"/>
<text text-anchor="middle" x="214" y="-515.5" font-family="Helvetica,sans-Serif" font-size="10.00">add_arguments_arg</text>
</a>
</g>
</g>
<!-- Node623&#45;&gt;Node624 -->
<g id="edge11" class="edge">
<title>Node623&#45;&gt;Node624</title>
<path fill="none" stroke="midnightblue" d="M344.24,-494.71C321.79,-498.76 292.83,-503.98 268.02,-508.45"/>
<polygon fill="midnightblue" stroke="midnightblue" points="345.16,-498.1 354.38,-492.89 343.92,-491.22 345.16,-498.1"/>
</g>
<!-- Node620 -->
<g id="node11" class="node">
<title>Node620</title>
<g id="a_node11"><a xlink:href="quickjs_8c.html#a3d84c0bab25b37dbac0b6f3aa7b93e59" target="_top" xlink:title=" ">
<polygon fill="none" stroke="red" points="0,-470.5 0,-489.5 111,-489.5 111,-470.5 0,-470.5"/>
<text text-anchor="middle" x="55.5" y="-477.5" font-family="Helvetica,sans-Serif" font-size="10.00">add_eval_variables</text>
</a>
</g>
</g>
<!-- Node623&#45;&gt;Node620 -->
<g id="edge15" class="edge">
<title>Node623&#45;&gt;Node620</title>
<path fill="none" stroke="midnightblue" d="M344.46,-496.87C335.21,-499.78 325.51,-503.47 317,-508 298.87,-517.66 300.38,-530.17 281,-537 224.84,-556.81 204.22,-553.52 147,-537 114.89,-527.73 83.19,-503.32 67.2,-489.64"/>
<polygon fill="midnightblue" stroke="midnightblue" points="345.62,-500.17 354.24,-494.01 343.65,-493.46 345.62,-500.17"/>
</g>
<!-- Node625 -->
<g id="node12" class="node">
<title>Node625</title>
<g id="a_node12"><a xlink:href="quickjs_8c.html#a868100a32a3062ab6365985bb5c02b7d" target="_top" xlink:title=" ">
<polygon fill="none" stroke="red" points="157.5,-470.5 157.5,-489.5 270.5,-489.5 270.5,-470.5 157.5,-470.5"/>
<text text-anchor="middle" x="214" y="-477.5" font-family="Helvetica,sans-Serif" font-size="10.00">add_arguments_var</text>
</a>
</g>
</g>
<!-- Node623&#45;&gt;Node625 -->
<g id="edge13" class="edge">
<title>Node623&#45;&gt;Node625</title>
<path fill="none" stroke="midnightblue" d="M344.28,-486.21C322.65,-485.17 294.96,-483.84 270.76,-482.68"/>
<polygon fill="midnightblue" stroke="midnightblue" points="344.22,-489.71 354.38,-486.7 344.56,-482.72 344.22,-489.71"/>
</g>
<!-- Node626 -->
<g id="node13" class="node">
<title>Node626</title>
<g id="a_node13"><a xlink:href="quickjs_8c.html#afe834031fad358f2fbd7d71cfe8ac19c" target="_top" xlink:title=" ">
<polygon fill="none" stroke="red" points="173,-432.5 173,-451.5 255,-451.5 255,-432.5 173,-432.5"/>
<text text-anchor="middle" x="214" y="-439.5" font-family="Helvetica,sans-Serif" font-size="10.00">add_func_var</text>
</a>
</g>
</g>
<!-- Node623&#45;&gt;Node626 -->
<g id="edge16" class="edge">
<title>Node623&#45;&gt;Node626</title>
<path fill="none" stroke="midnightblue" d="M344.45,-477.76C316.12,-469.94 277.34,-459.22 249.63,-451.57"/>
<polygon fill="midnightblue" stroke="midnightblue" points="343.81,-481.22 354.38,-480.51 345.67,-474.47 343.81,-481.22"/>
</g>
<!-- Node627 -->
<g id="node14" class="node">
<title>Node627</title>
<g id="a_node14"><a xlink:href="quickjs_8c.html#a9a006fc2eb9bbbc399c396d7a1e8d18b" target="_top" xlink:title=" ">
<polygon fill="none" stroke="red" points="169.5,-356.5 169.5,-375.5 258.5,-375.5 258.5,-356.5 169.5,-356.5"/>
<text text-anchor="middle" x="214" y="-363.5" font-family="Helvetica,sans-Serif" font-size="10.00">add_scope_var</text>
</a>
</g>
</g>
<!-- Node623&#45;&gt;Node627 -->
<g id="edge18" class="edge">
<title>Node623&#45;&gt;Node627</title>
<path fill="none" stroke="midnightblue" d="M344.72,-483.05C334.82,-480.25 324.72,-475.86 317,-469 286.63,-442.03 311.45,-411.88 281,-385 274.65,-379.4 266.75,-375.44 258.64,-372.65"/>
<polygon fill="midnightblue" stroke="midnightblue" points="343.92,-486.46 354.46,-485.36 345.53,-479.65 343.92,-486.46"/>
</g>
<!-- Node631 -->
<g id="node15" class="node">
<title>Node631</title>
<g id="a_node15"><a xlink:href="quickjs_8c.html#a237c9785e84b9382c476ee0868edb117" target="_top" xlink:title=" ">
<polygon fill="none" stroke="red" points="174.5,-394.5 174.5,-413.5 253.5,-413.5 253.5,-394.5 174.5,-394.5"/>
<text text-anchor="middle" x="214" y="-401.5" font-family="Helvetica,sans-Serif" font-size="10.00">add_var_this</text>
</a>
</g>
</g>
<!-- Node623&#45;&gt;Node631 -->
<g id="edge19" class="edge">
<title>Node623&#45;&gt;Node631</title>
<path fill="none" stroke="midnightblue" d="M344.72,-481.39C335.16,-478.58 325.24,-474.6 317,-469 295.52,-454.41 302.52,-437.52 281,-423 272.89,-417.53 263.21,-413.62 253.79,-410.82"/>
<polygon fill="midnightblue" stroke="midnightblue" points="343.9,-484.79 354.46,-483.92 345.66,-478.02 343.9,-484.79"/>
</g>
<!-- Node624&#45;&gt;Node620 -->
<g id="edge12" class="edge">
<title>Node624&#45;&gt;Node620</title>
<path fill="none" stroke="midnightblue" d="M163.71,-506.03C141.78,-500.71 116.32,-494.52 95.71,-489.52"/>
<polygon fill="midnightblue" stroke="midnightblue" points="162.96,-509.45 173.51,-508.41 164.62,-502.65 162.96,-509.45"/>
</g>
<!-- Node625&#45;&gt;Node620 -->
<g id="edge14" class="edge">
<title>Node625&#45;&gt;Node620</title>
<path fill="none" stroke="midnightblue" d="M147.38,-480C135.32,-480 122.84,-480 111.15,-480"/>
<polygon fill="midnightblue" stroke="midnightblue" points="147.38,-483.5 157.38,-480 147.38,-476.5 147.38,-483.5"/>
</g>
<!-- Node626&#45;&gt;Node620 -->
<g id="edge17" class="edge">
<title>Node626&#45;&gt;Node620</title>
<path fill="none" stroke="midnightblue" d="M163.71,-453.97C141.78,-459.29 116.32,-465.48 95.71,-470.48"/>
<polygon fill="midnightblue" stroke="midnightblue" points="164.62,-457.35 173.51,-451.59 162.96,-450.55 164.62,-457.35"/>
</g>
<!-- Node631&#45;&gt;Node620 -->
<g id="edge20" class="edge">
<title>Node631&#45;&gt;Node620</title>
<path fill="none" stroke="midnightblue" d="M164.35,-416.3C158.42,-418.3 152.51,-420.53 147,-423 117.35,-436.29 85.94,-458.04 69.04,-470.48"/>
<polygon fill="midnightblue" stroke="midnightblue" points="165.82,-419.51 174.3,-413.17 163.72,-412.83 165.82,-419.51"/>
</g>
<!-- Node78&#45;&gt;Node25 -->
<g id="edge24" class="edge">
<title>Node78&#45;&gt;Node25</title>
<path fill="none" stroke="midnightblue" d="M140.83,-734.76C126.56,-736.49 112.02,-738.26 99.12,-739.83"/>
<polygon fill="midnightblue" stroke="midnightblue" points="141.64,-738.19 151.15,-733.51 140.8,-731.24 141.64,-738.19"/>
</g>
<!-- Node196&#45;&gt;Node187 -->
<g id="edge30" class="edge">
<title>Node196&#45;&gt;Node187</title>
<path fill="none" stroke="midnightblue" d="M332.54,-550.65C316.17,-556.85 297.81,-563.76 281,-570 268.08,-574.79 253.71,-580.03 241.68,-584.38"/>
<polygon fill="midnightblue" stroke="midnightblue" points="333.82,-553.91 341.93,-547.1 331.33,-547.37 333.82,-553.91"/>
</g>
<!-- Node196&#45;&gt;Node196 -->
<g id="edge29" class="edge">
<title>Node196&#45;&gt;Node196</title>
<path fill="none" stroke="midnightblue" d="M407.38,-557.46C404.29,-562.18 396,-565.5 382.5,-565.5 360.35,-565.5 352.22,-556.56 358.1,-547.16"/>
<polygon fill="midnightblue" stroke="midnightblue" points="410.86,-556.99 406.9,-547.16 403.87,-557.31 410.86,-556.99"/>
</g>
<!-- Node762&#45;&gt;Node25 -->
<g id="edge37" class="edge">
<title>Node762&#45;&gt;Node25</title>
<path fill="none" stroke="midnightblue" d="M306.89,-677.12C260.31,-682.71 199.45,-692.09 147,-707 121.43,-714.27 93.42,-726.79 75.43,-735.46"/>
<polygon fill="midnightblue" stroke="midnightblue" points="307.37,-680.59 316.9,-675.95 306.56,-673.64 307.37,-680.59"/>
</g>
<!-- Node762&#45;&gt;Node356 -->
<g id="edge38" class="edge">
<title>Node762&#45;&gt;Node356</title>
<path fill="none" stroke="midnightblue" d="M329.69,-658.18C306.22,-652.82 278.83,-646.57 256.71,-641.52"/>
<polygon fill="midnightblue" stroke="midnightblue" points="328.96,-661.6 339.49,-660.41 330.51,-654.77 328.96,-661.6"/>
</g>
<!-- Node356&#45;&gt;Node356 -->
<g id="edge39" class="edge">
<title>Node356&#45;&gt;Node356</title>
<path fill="none" stroke="midnightblue" d="M243.49,-650.65C242.26,-655.94 232.43,-660 214,-660 185.92,-660 177.8,-650.57 189.65,-641.76"/>
<polygon fill="midnightblue" stroke="midnightblue" points="246.39,-648.66 238.35,-641.76 240.32,-652.17 246.39,-648.66"/>
</g>
<!-- Node760&#45;&gt;Node633 -->
<g id="edge43" class="edge">
<title>Node760&#45;&gt;Node633</title>
<path fill="none" stroke="midnightblue" d="M342.05,-367.57C333.16,-364.77 324.23,-360.76 317,-355 291.47,-334.67 306.59,-311.25 281,-291 276.14,-287.15 270.53,-284.08 264.67,-281.64"/>
<polygon fill="midnightblue" stroke="midnightblue" points="341.4,-371.02 351.97,-370.24 343.22,-364.26 341.4,-371.02"/>
</g>
</g>
</svg>
