<?xml version="1.0" encoding="UTF-8" standalone="no"?>
<!DOCTYPE svg PUBLIC "-//W3C//DTD SVG 1.1//EN"
 "http://www.w3.org/Graphics/SVG/1.1/DTD/svg11.dtd">
<!-- Generated by graphviz version 2.43.0 (0)
 -->
<!-- Title: JS_FreeValueRT Pages: 1 -->
<svg width="504pt" height="104pt"
 viewBox="0.00 0.00 504.00 104.00" xmlns="http://www.w3.org/2000/svg" xmlns:xlink="http://www.w3.org/1999/xlink">
<g id="graph0" class="graph" transform="scale(1 1) rotate(0) translate(4 100)">
<title>JS_FreeValueRT</title>
<!-- Node1 -->
<g id="node1" class="node">
<title>Node1</title>
<g id="a_node1"><a xlink:title=" ">
<polygon fill="#bfbfbf" stroke="black" points="0,-38.5 0,-57.5 91,-57.5 91,-38.5 0,-38.5"/>
<text text-anchor="middle" x="45.5" y="-45.5" font-family="Helvetica,sans-Serif" font-size="10.00">JS_FreeValueRT</text>
</a>
</g>
</g>
<!-- Node2 -->
<g id="node2" class="node">
<title>Node2</title>
<g id="a_node2"><a xlink:href="quickjs_8c.html#ab1ea3fad7d138be12144a38be4d36423" target="_top" xlink:title=" ">
<polygon fill="none" stroke="black" points="127,-38.5 127,-57.5 228,-57.5 228,-38.5 127,-38.5"/>
<text text-anchor="middle" x="177.5" y="-45.5" font-family="Helvetica,sans-Serif" font-size="10.00">__JS_FreeValueRT</text>
</a>
</g>
</g>
<!-- Node1&#45;&gt;Node2 -->
<g id="edge1" class="edge">
<title>Node1&#45;&gt;Node2</title>
<path fill="none" stroke="midnightblue" d="M91.24,-48C99.38,-48 108,-48 116.5,-48"/>
<polygon fill="midnightblue" stroke="midnightblue" points="116.78,-51.5 126.78,-48 116.78,-44.5 116.78,-51.5"/>
</g>
<!-- Node3 -->
<g id="node3" class="node">
<title>Node3</title>
<g id="a_node3"><a xlink:href="quickjs_8c.html#a8defed3434f60d6b5d6a7ea202cc8f9d" target="_top" xlink:title=" ">
<polygon fill="none" stroke="black" points="264,-76.5 264,-95.5 372,-95.5 372,-76.5 264,-76.5"/>
<text text-anchor="middle" x="318" y="-83.5" font-family="Helvetica,sans-Serif" font-size="10.00">free_zero_refcount</text>
</a>
</g>
</g>
<!-- Node2&#45;&gt;Node3 -->
<g id="edge2" class="edge">
<title>Node2&#45;&gt;Node3</title>
<path fill="none" stroke="midnightblue" d="M213.45,-57.59C231.33,-62.49 253.29,-68.52 272.38,-73.76"/>
<polygon fill="midnightblue" stroke="midnightblue" points="271.49,-77.14 282.06,-76.41 273.34,-70.39 271.49,-77.14"/>
</g>
<!-- Node13 -->
<g id="node5" class="node">
<title>Node13</title>
<g id="a_node5"><a xlink:href="quickjs_8c.html#a69e19dda8a93d613203e0baa06f0ed8d" target="_top" xlink:title=" ">
<polygon fill="none" stroke="black" points="421,-19.5 421,-38.5 483,-38.5 483,-19.5 421,-19.5"/>
<text text-anchor="middle" x="452" y="-26.5" font-family="Helvetica,sans-Serif" font-size="10.00">js_free_rt</text>
</a>
</g>
</g>
<!-- Node2&#45;&gt;Node13 -->
<g id="edge4" class="edge">
<title>Node2&#45;&gt;Node13</title>
<path fill="none" stroke="midnightblue" d="M228.16,-44.54C280.51,-40.89 361.97,-35.21 410.54,-31.82"/>
<polygon fill="midnightblue" stroke="midnightblue" points="410.95,-35.3 420.68,-31.11 410.46,-28.32 410.95,-35.3"/>
</g>
<!-- Node11 -->
<g id="node6" class="node">
<title>Node11</title>
<g id="a_node6"><a xlink:href="quickjs_8c.html#a58c8965dad50b15b75918a09f3d9dc7c" target="_top" xlink:title=" ">
<polygon fill="none" stroke="red" points="264.5,-0.5 264.5,-19.5 371.5,-19.5 371.5,-0.5 264.5,-0.5"/>
<text text-anchor="middle" x="318" y="-7.5" font-family="Helvetica,sans-Serif" font-size="10.00">JS_FreeAtomStruct</text>
</a>
</g>
</g>
<!-- Node2&#45;&gt;Node11 -->
<g id="edge5" class="edge">
<title>Node2&#45;&gt;Node11</title>
<path fill="none" stroke="midnightblue" d="M213.45,-38.41C231.33,-33.51 253.29,-27.48 272.38,-22.24"/>
<polygon fill="midnightblue" stroke="midnightblue" points="273.34,-25.61 282.06,-19.59 271.49,-18.86 273.34,-25.61"/>
</g>
<!-- Node4 -->
<g id="node4" class="node">
<title>Node4</title>
<g id="a_node4"><a xlink:href="quickjs_8c.html#a3d1c7a8d6aa5a9ba8ea8ef2828db188a" target="_top" xlink:title=" ">
<polygon fill="none" stroke="red" points="408,-76.5 408,-95.5 496,-95.5 496,-76.5 408,-76.5"/>
<text text-anchor="middle" x="452" y="-83.5" font-family="Helvetica,sans-Serif" font-size="10.00">free_gc_object</text>
</a>
</g>
</g>
<!-- Node3&#45;&gt;Node4 -->
<g id="edge3" class="edge">
<title>Node3&#45;&gt;Node4</title>
<path fill="none" stroke="midnightblue" d="M372.31,-86C380.65,-86 389.28,-86 397.62,-86"/>
<polygon fill="midnightblue" stroke="midnightblue" points="397.62,-89.5 407.62,-86 397.62,-82.5 397.62,-89.5"/>
</g>
<!-- Node11&#45;&gt;Node13 -->
<g id="edge6" class="edge">
<title>Node11&#45;&gt;Node13</title>
<path fill="none" stroke="midnightblue" d="M371.55,-17.56C384.58,-19.44 398.34,-21.42 410.68,-23.2"/>
<polygon fill="midnightblue" stroke="midnightblue" points="410.27,-26.67 420.67,-24.63 411.27,-19.75 410.27,-26.67"/>
</g>
</g>
</svg>
