<?xml version="1.0" encoding="UTF-8" standalone="no"?>
<!DOCTYPE svg PUBLIC "-//W3C//DTD SVG 1.1//EN"
 "http://www.w3.org/Graphics/SVG/1.1/DTD/svg11.dtd">
<!-- Generated by graphviz version 2.43.0 (0)
 -->
<!-- Title: JS_NewAtomStr Pages: 1 -->
<svg width="718pt" height="696pt"
 viewBox="0.00 0.00 718.00 696.00" xmlns="http://www.w3.org/2000/svg" xmlns:xlink="http://www.w3.org/1999/xlink">
<g id="graph0" class="graph" transform="scale(1 1) rotate(0) translate(4 692)">
<title>JS_NewAtomStr</title>
<!-- Node1 -->
<g id="node1" class="node">
<title>Node1</title>
<g id="a_node1"><a xlink:title=" ">
<polygon fill="#bfbfbf" stroke="black" points="618,-221.5 618,-240.5 710,-240.5 710,-221.5 618,-221.5"/>
<text text-anchor="middle" x="664" y="-228.5" font-family="Helvetica,sans-Serif" font-size="10.00">JS_NewAtomStr</text>
</a>
</g>
</g>
<!-- Node2 -->
<g id="node2" class="node">
<title>Node2</title>
<g id="a_node2"><a xlink:href="quickjs_8c.html#a22324bb35cdaa36ce844506a073bb7f4" target="_top" xlink:title=" ">
<polygon fill="none" stroke="black" points="473,-584.5 473,-603.5 572,-603.5 572,-584.5 473,-584.5"/>
<text text-anchor="middle" x="522.5" y="-591.5" font-family="Helvetica,sans-Serif" font-size="10.00">emit_push_const</text>
</a>
</g>
</g>
<!-- Node1&#45;&gt;Node2 -->
<g id="edge1" class="edge">
<title>Node1&#45;&gt;Node2</title>
<path fill="none" stroke="midnightblue" d="M655.55,-250.39C629.9,-317.13 545.81,-535.94 527.18,-584.43"/>
<polygon fill="midnightblue" stroke="midnightblue" points="658.95,-251.3 659.27,-240.71 652.41,-248.79 658.95,-251.3"/>
</g>
<!-- Node39 -->
<g id="node7" class="node">
<title>Node39</title>
<g id="a_node7"><a xlink:href="quickjs_8c.html#a522741f41afb1d0da0aa55968cd8579e" target="_top" xlink:title=" ">
<polygon fill="none" stroke="black" points="474.5,-240.5 474.5,-259.5 570.5,-259.5 570.5,-240.5 474.5,-240.5"/>
<text text-anchor="middle" x="522.5" y="-247.5" font-family="Helvetica,sans-Serif" font-size="10.00">JS_NewAtomLen</text>
</a>
</g>
</g>
<!-- Node1&#45;&gt;Node39 -->
<g id="edge11" class="edge">
<title>Node1&#45;&gt;Node39</title>
<path fill="none" stroke="midnightblue" d="M607.68,-238.53C595.53,-240.19 582.77,-241.93 570.96,-243.54"/>
<polygon fill="midnightblue" stroke="midnightblue" points="608.27,-241.99 617.71,-237.17 607.33,-235.05 608.27,-241.99"/>
</g>
<!-- Node644 -->
<g id="node28" class="node">
<title>Node644</title>
<g id="a_node28"><a xlink:href="quickjs_8c.html#ad54b242d774ba44b2ac39fe8161aaf9c" target="_top" xlink:title=" ">
<polygon fill="none" stroke="black" points="463,-202.5 463,-221.5 582,-221.5 582,-202.5 463,-202.5"/>
<text text-anchor="middle" x="522.5" y="-209.5" font-family="Helvetica,sans-Serif" font-size="10.00">JS_ReadObjectAtoms</text>
</a>
</g>
</g>
<!-- Node1&#45;&gt;Node644 -->
<g id="edge33" class="edge">
<title>Node1&#45;&gt;Node644</title>
<path fill="none" stroke="midnightblue" d="M607.63,-223.46C599.22,-222.31 590.51,-221.13 582.04,-219.97"/>
<polygon fill="midnightblue" stroke="midnightblue" points="607.33,-226.95 617.71,-224.83 608.27,-220.01 607.33,-226.95"/>
</g>
<!-- Node554 -->
<g id="node30" class="node">
<title>Node554</title>
<g id="a_node30"><a xlink:href="quickjs_8c.html#a859d5c989a2aaecef1653b3ac279e108" target="_top" xlink:title=" ">
<polygon fill="none" stroke="red" points="475,-164.5 475,-183.5 570,-183.5 570,-164.5 475,-164.5"/>
<text text-anchor="middle" x="522.5" y="-171.5" font-family="Helvetica,sans-Serif" font-size="10.00">JS_ValueToAtom</text>
</a>
</g>
</g>
<!-- Node1&#45;&gt;Node554 -->
<g id="edge35" class="edge">
<title>Node1&#45;&gt;Node554</title>
<path fill="none" stroke="midnightblue" d="M635.28,-216.95C619.81,-209.37 600.06,-200.14 582,-193 573.46,-189.62 564.05,-186.37 555.33,-183.54"/>
<polygon fill="midnightblue" stroke="midnightblue" points="633.79,-220.12 644.31,-221.42 636.9,-213.84 633.79,-220.12"/>
</g>
<!-- Node3 -->
<g id="node3" class="node">
<title>Node3</title>
<g id="a_node3"><a xlink:href="quickjs_8c.html#a2ecfb6abb190101748202a8aa5821fba" target="_top" xlink:title=" ">
<polygon fill="none" stroke="black" points="161.5,-650.5 161.5,-669.5 254.5,-669.5 254.5,-650.5 161.5,-650.5"/>
<text text-anchor="middle" x="208" y="-657.5" font-family="Helvetica,sans-Serif" font-size="10.00">js_parse_delete</text>
</a>
</g>
</g>
<!-- Node2&#45;&gt;Node3 -->
<g id="edge2" class="edge">
<title>Node2&#45;&gt;Node3</title>
<path fill="none" stroke="midnightblue" d="M466.28,-605.66C405.86,-618.42 310.17,-638.63 254.09,-650.48"/>
<polygon fill="midnightblue" stroke="midnightblue" points="467.33,-609.02 476.39,-603.53 465.89,-602.17 467.33,-609.02"/>
</g>
<!-- Node11 -->
<g id="node5" class="node">
<title>Node11</title>
<g id="a_node5"><a xlink:href="quickjs_8c.html#a840642c87c5a82d4cc68333376a3b6de" target="_top" xlink:title=" ">
<polygon fill="none" stroke="red" points="147,-594.5 147,-613.5 269,-613.5 269,-594.5 147,-594.5"/>
<text text-anchor="middle" x="208" y="-601.5" font-family="Helvetica,sans-Serif" font-size="10.00">js_parse_postfix_expr</text>
</a>
</g>
</g>
<!-- Node2&#45;&gt;Node11 -->
<g id="edge6" class="edge">
<title>Node2&#45;&gt;Node11</title>
<path fill="none" stroke="midnightblue" d="M462.68,-595.88C407.38,-597.65 325.01,-600.29 269.25,-602.07"/>
<polygon fill="midnightblue" stroke="midnightblue" points="462.79,-599.38 472.67,-595.56 462.57,-592.38 462.79,-599.38"/>
</g>
<!-- Node37 -->
<g id="node6" class="node">
<title>Node37</title>
<g id="a_node6"><a xlink:href="quickjs_8c.html#a035daca514f14aacc1e0cff81d8e423a" target="_top" xlink:title=" ">
<polygon fill="none" stroke="black" points="318,-565.5 318,-584.5 425,-584.5 425,-565.5 318,-565.5"/>
<text text-anchor="middle" x="371.5" y="-572.5" font-family="Helvetica,sans-Serif" font-size="10.00">js_parse_template</text>
</a>
</g>
</g>
<!-- Node2&#45;&gt;Node37 -->
<g id="edge9" class="edge">
<title>Node2&#45;&gt;Node37</title>
<path fill="none" stroke="midnightblue" d="M462.54,-586.48C450.23,-584.91 437.32,-583.27 425.25,-581.73"/>
<polygon fill="midnightblue" stroke="midnightblue" points="462.35,-589.99 472.71,-587.78 463.23,-583.04 462.35,-589.99"/>
</g>
<!-- Node4 -->
<g id="node4" class="node">
<title>Node4</title>
<g id="a_node4"><a xlink:href="quickjs_8c.html#a9f26c765171d977db1796791f035f1f9" target="_top" xlink:title=" ">
<polygon fill="none" stroke="red" points="5,-650.5 5,-669.5 95,-669.5 95,-650.5 5,-650.5"/>
<text text-anchor="middle" x="50" y="-657.5" font-family="Helvetica,sans-Serif" font-size="10.00">js_parse_unary</text>
</a>
</g>
</g>
<!-- Node3&#45;&gt;Node4 -->
<g id="edge3" class="edge">
<title>Node3&#45;&gt;Node4</title>
<path fill="none" stroke="midnightblue" d="M151.43,-653.5C132.99,-653.08 112.72,-653.19 95.25,-653.85"/>
<polygon fill="midnightblue" stroke="midnightblue" points="151.36,-657 161.46,-653.8 151.57,-650.01 151.36,-657"/>
</g>
<!-- Node4&#45;&gt;Node3 -->
<g id="edge4" class="edge">
<title>Node4&#45;&gt;Node3</title>
<path fill="none" stroke="midnightblue" d="M105.47,-666.47C123.75,-666.92 143.94,-666.83 161.46,-666.2"/>
<polygon fill="midnightblue" stroke="midnightblue" points="105.36,-662.96 95.25,-666.15 105.14,-669.96 105.36,-662.96"/>
</g>
<!-- Node4&#45;&gt;Node4 -->
<g id="edge5" class="edge">
<title>Node4&#45;&gt;Node4</title>
<path fill="none" stroke="midnightblue" d="M79.49,-678.65C78.26,-683.94 68.43,-688 50,-688 21.92,-688 13.8,-678.57 25.65,-669.76"/>
<polygon fill="midnightblue" stroke="midnightblue" points="82.39,-676.66 74.35,-669.76 76.32,-680.17 82.39,-676.66"/>
</g>
<!-- Node11&#45;&gt;Node4 -->
<g id="edge8" class="edge">
<title>Node11&#45;&gt;Node4</title>
<path fill="none" stroke="midnightblue" d="M170.57,-617.08C142.05,-627.31 103.06,-641.31 77.47,-650.5"/>
<polygon fill="midnightblue" stroke="midnightblue" points="171.95,-620.3 180.18,-613.63 169.59,-613.71 171.95,-620.3"/>
</g>
<!-- Node11&#45;&gt;Node11 -->
<g id="edge7" class="edge">
<title>Node11&#45;&gt;Node11</title>
<path fill="none" stroke="midnightblue" d="M237.49,-622.65C236.26,-627.94 226.43,-632 208,-632 179.92,-632 171.8,-622.57 183.65,-613.76"/>
<polygon fill="midnightblue" stroke="midnightblue" points="240.39,-620.66 232.35,-613.76 234.32,-624.17 240.39,-620.66"/>
</g>
<!-- Node37&#45;&gt;Node11 -->
<g id="edge10" class="edge">
<title>Node37&#45;&gt;Node11</title>
<path fill="none" stroke="midnightblue" d="M307.39,-586.33C292.38,-589.03 276.51,-591.88 262,-594.48"/>
<polygon fill="midnightblue" stroke="midnightblue" points="308.39,-589.71 317.62,-584.5 307.16,-582.82 308.39,-589.71"/>
</g>
<!-- Node40 -->
<g id="node8" class="node">
<title>Node40</title>
<g id="a_node8"><a xlink:href="quickjs_8c.html#aadfd9c31a6f69160c12e99b8d5eb5b3c" target="_top" xlink:title=" ">
<polygon fill="none" stroke="black" points="316,-518.5 316,-537.5 427,-537.5 427,-518.5 316,-518.5"/>
<text text-anchor="middle" x="371.5" y="-525.5" font-family="Helvetica,sans-Serif" font-size="10.00">js_atom_concat_str</text>
</a>
</g>
</g>
<!-- Node39&#45;&gt;Node40 -->
<g id="edge12" class="edge">
<title>Node39&#45;&gt;Node40</title>
<path fill="none" stroke="midnightblue" d="M511.47,-268.72C482.45,-322.87 399.1,-478.36 377.61,-518.47"/>
<polygon fill="midnightblue" stroke="midnightblue" points="514.73,-270.04 516.37,-259.57 508.56,-266.73 514.73,-270.04"/>
</g>
<!-- Node46 -->
<g id="node11" class="node">
<title>Node46</title>
<g id="a_node11"><a xlink:href="quickjs_8c.html#aa2ef5af1544a3012f91a80c98c326b8f" target="_top" xlink:title=" ">
<polygon fill="none" stroke="red" points="332,-278.5 332,-297.5 411,-297.5 411,-278.5 332,-278.5"/>
<text text-anchor="middle" x="371.5" y="-285.5" font-family="Helvetica,sans-Serif" font-size="10.00">JS_NewAtom</text>
</a>
</g>
</g>
<!-- Node39&#45;&gt;Node46 -->
<g id="edge15" class="edge">
<title>Node39&#45;&gt;Node46</title>
<path fill="none" stroke="midnightblue" d="M474.01,-262.11C453.26,-267.4 429.27,-273.52 409.83,-278.48"/>
<polygon fill="midnightblue" stroke="midnightblue" points="475.08,-265.45 483.9,-259.59 473.35,-258.67 475.08,-265.45"/>
</g>
<!-- Node322 -->
<g id="node25" class="node">
<title>Node322</title>
<g id="a_node25"><a xlink:href="quickjs-libc_8c.html#a744c97f53406d93e57acb57e3d498227" target="_top" xlink:title=" ">
<polygon fill="none" stroke="black" points="320,-240.5 320,-259.5 423,-259.5 423,-240.5 320,-240.5"/>
<text text-anchor="middle" x="371.5" y="-247.5" font-family="Helvetica,sans-Serif" font-size="10.00">js_std_getenviron</text>
</a>
</g>
</g>
<!-- Node39&#45;&gt;Node322 -->
<g id="edge30" class="edge">
<title>Node39&#45;&gt;Node322</title>
<path fill="none" stroke="midnightblue" d="M464.21,-250C450.71,-250 436.4,-250 423.2,-250"/>
<polygon fill="midnightblue" stroke="midnightblue" points="464.36,-253.5 474.36,-250 464.36,-246.5 464.36,-253.5"/>
</g>
<!-- Node632 -->
<g id="node26" class="node">
<title>Node632</title>
<g id="a_node26"><a xlink:href="quickjs_8c.html#adab89942b11c3b3cbf3ecb9e763b0ab6" target="_top" xlink:title=" ">
<polygon fill="none" stroke="red" points="322,-202.5 322,-221.5 421,-221.5 421,-202.5 322,-202.5"/>
<text text-anchor="middle" x="371.5" y="-209.5" font-family="Helvetica,sans-Serif" font-size="10.00">json_parse_ident</text>
</a>
</g>
</g>
<!-- Node39&#45;&gt;Node632 -->
<g id="edge31" class="edge">
<title>Node39&#45;&gt;Node632</title>
<path fill="none" stroke="midnightblue" d="M474.01,-237.89C453.26,-232.6 429.27,-226.48 409.83,-221.52"/>
<polygon fill="midnightblue" stroke="midnightblue" points="473.35,-241.33 483.9,-240.41 475.08,-234.55 473.35,-241.33"/>
</g>
<!-- Node635 -->
<g id="node27" class="node">
<title>Node635</title>
<g id="a_node27"><a xlink:href="quickjs_8c.html#ad91865d0889d1420e3e70d5d497a9bdb" target="_top" xlink:title=" ">
<polygon fill="none" stroke="red" points="334.5,-164.5 334.5,-183.5 408.5,-183.5 408.5,-164.5 334.5,-164.5"/>
<text text-anchor="middle" x="371.5" y="-171.5" font-family="Helvetica,sans-Serif" font-size="10.00">parse_ident</text>
</a>
</g>
</g>
<!-- Node39&#45;&gt;Node635 -->
<g id="edge32" class="edge">
<title>Node39&#45;&gt;Node635</title>
<path fill="none" stroke="midnightblue" d="M473.54,-236.66C469.87,-234.97 466.31,-233.09 463,-231 443.33,-218.58 446.54,-205.63 427,-193 421.19,-189.25 414.56,-186.14 407.96,-183.59"/>
<polygon fill="midnightblue" stroke="midnightblue" points="472.24,-239.91 482.82,-240.47 474.9,-233.43 472.24,-239.91"/>
</g>
<!-- Node41 -->
<g id="node9" class="node">
<title>Node41</title>
<g id="a_node9"><a xlink:href="quickjs_8c.html#a6bb36fa120270db7f4e19891b8a0bfe1" target="_top" xlink:title=" ">
<polygon fill="none" stroke="red" points="138.5,-556.5 138.5,-575.5 277.5,-575.5 277.5,-556.5 138.5,-556.5"/>
<text text-anchor="middle" x="208" y="-563.5" font-family="Helvetica,sans-Serif" font-size="10.00">get_private_setter_name</text>
</a>
</g>
</g>
<!-- Node40&#45;&gt;Node41 -->
<g id="edge13" class="edge">
<title>Node40&#45;&gt;Node41</title>
<path fill="none" stroke="midnightblue" d="M319.94,-539.9C297.24,-545.24 270.82,-551.45 249.46,-556.48"/>
<polygon fill="midnightblue" stroke="midnightblue" points="320.81,-543.29 329.75,-537.59 319.21,-536.47 320.81,-543.29"/>
</g>
<!-- Node45 -->
<g id="node10" class="node">
<title>Node45</title>
<g id="a_node10"><a xlink:href="quickjs_8c.html#aa38698096df1fd806b60ab8b209fa4a8" target="_top" xlink:title=" ">
<polygon fill="none" stroke="red" points="148,-518.5 148,-537.5 268,-537.5 268,-518.5 148,-518.5"/>
<text text-anchor="middle" x="208" y="-525.5" font-family="Helvetica,sans-Serif" font-size="10.00">js_atom_concat_num</text>
</a>
</g>
</g>
<!-- Node40&#45;&gt;Node45 -->
<g id="edge14" class="edge">
<title>Node40&#45;&gt;Node45</title>
<path fill="none" stroke="midnightblue" d="M305.56,-528C293.16,-528 280.25,-528 268.05,-528"/>
<polygon fill="midnightblue" stroke="midnightblue" points="305.82,-531.5 315.82,-528 305.82,-524.5 305.82,-531.5"/>
</g>
<!-- Node25 -->
<g id="node12" class="node">
<title>Node25</title>
<g id="a_node12"><a xlink:href="quickjs_8c.html#a46a8a7e155cfd0af984f6725f060f0d6" target="_top" xlink:title=" ">
<polygon fill="none" stroke="red" points="0,-316.5 0,-335.5 100,-335.5 100,-316.5 0,-316.5"/>
<text text-anchor="middle" x="50" y="-323.5" font-family="Helvetica,sans-Serif" font-size="10.00">__JS_EvalInternal</text>
</a>
</g>
</g>
<!-- Node46&#45;&gt;Node25 -->
<g id="edge16" class="edge">
<title>Node46&#45;&gt;Node25</title>
<path fill="none" stroke="midnightblue" d="M367.56,-307.89C360.53,-347.27 338.77,-434.5 280,-471 225.63,-504.77 191.53,-502.82 136,-471 83.08,-440.68 59.92,-363.22 53.19,-335.8"/>
<polygon fill="midnightblue" stroke="midnightblue" points="371.02,-308.37 369.19,-297.93 364.12,-307.23 371.02,-308.37"/>
</g>
<!-- Node47 -->
<g id="node13" class="node">
<title>Node47</title>
<g id="a_node13"><a xlink:href="classqjs_1_1Value.html#a7816587475ecf667433f9ea681df925b" target="_top" xlink:title=" ">
<polygon fill="none" stroke="black" points="147,-442.5 147,-461.5 269,-461.5 269,-442.5 147,-442.5"/>
<text text-anchor="middle" x="208" y="-449.5" font-family="Helvetica,sans-Serif" font-size="10.00">qjs::Value::add_getter</text>
</a>
</g>
</g>
<!-- Node46&#45;&gt;Node47 -->
<g id="edge17" class="edge">
<title>Node46&#45;&gt;Node47</title>
<path fill="none" stroke="midnightblue" d="M363.6,-307.45C351.58,-338.54 323.78,-399.25 280,-432 274.15,-436.37 267.39,-439.79 260.41,-442.46"/>
<polygon fill="midnightblue" stroke="midnightblue" points="366.99,-308.38 367.2,-297.78 360.43,-305.94 366.99,-308.38"/>
</g>
<!-- Node48 -->
<g id="node14" class="node">
<title>Node48</title>
<g id="a_node14"><a xlink:href="classqjs_1_1Value.html#ac6bbb5f2ab1ed265b2b508325807e2fb" target="_top" xlink:title=" ">
<polygon fill="none" stroke="black" points="147,-393 147,-423 269,-423 269,-393 147,-393"/>
<text text-anchor="start" x="155" y="-411" font-family="Helvetica,sans-Serif" font-size="10.00">qjs::Value::add_getter</text>
<text text-anchor="middle" x="208" y="-400" font-family="Helvetica,sans-Serif" font-size="10.00">_setter</text>
</a>
</g>
</g>
<!-- Node46&#45;&gt;Node48 -->
<g id="edge18" class="edge">
<title>Node46&#45;&gt;Node48</title>
<path fill="none" stroke="midnightblue" d="M357.91,-305.61C341.97,-326.72 312.64,-361.89 280,-383 274.18,-386.76 267.73,-390.04 261.16,-392.87"/>
<polygon fill="midnightblue" stroke="midnightblue" points="360.77,-307.63 363.89,-297.5 355.13,-303.47 360.77,-307.63"/>
</g>
<!-- Node49 -->
<g id="node15" class="node">
<title>Node49</title>
<g id="a_node15"><a xlink:href="quickjs_8c.html#ae8e62d181b34d2e7bdda0b099c0880f5" target="_top" xlink:title=" ">
<polygon fill="none" stroke="red" points="175.5,-354.5 175.5,-373.5 240.5,-373.5 240.5,-354.5 175.5,-354.5"/>
<text text-anchor="middle" x="208" y="-361.5" font-family="Helvetica,sans-Serif" font-size="10.00">find_atom</text>
</a>
</g>
</g>
<!-- Node46&#45;&gt;Node49 -->
<g id="edge19" class="edge">
<title>Node46&#45;&gt;Node49</title>
<path fill="none" stroke="midnightblue" d="M349.58,-303.74C331.86,-316.43 305.36,-333.92 280,-345 267.6,-350.41 253.3,-354.6 240.8,-357.65"/>
<polygon fill="midnightblue" stroke="midnightblue" points="351.98,-306.32 358,-297.6 347.85,-300.67 351.98,-306.32"/>
</g>
<!-- Node69 -->
<g id="node16" class="node">
<title>Node69</title>
<g id="a_node16"><a xlink:href="quickjs_8c.html#a369af749a1fb181216fe8a8b55f841b0" target="_top" xlink:title=" ">
<polygon fill="none" stroke="red" points="149.5,-316.5 149.5,-335.5 266.5,-335.5 266.5,-316.5 149.5,-316.5"/>
<text text-anchor="middle" x="208" y="-323.5" font-family="Helvetica,sans-Serif" font-size="10.00">JS_AddModuleExport</text>
</a>
</g>
</g>
<!-- Node46&#45;&gt;Node69 -->
<g id="edge20" class="edge">
<title>Node46&#45;&gt;Node69</title>
<path fill="none" stroke="midnightblue" d="M321.88,-299.44C298.81,-304.87 271.57,-311.28 249.62,-316.44"/>
<polygon fill="midnightblue" stroke="midnightblue" points="322.88,-302.8 331.82,-297.1 321.28,-295.99 322.88,-302.8"/>
</g>
<!-- Node72 -->
<g id="node17" class="node">
<title>Node72</title>
<g id="a_node17"><a xlink:href="quickjs_8c.html#a841f4cb887e4d9e03e94a0697255e578" target="_top" xlink:title=" ">
<polygon fill="none" stroke="red" points="136,-278.5 136,-297.5 280,-297.5 280,-278.5 136,-278.5"/>
<text text-anchor="middle" x="208" y="-285.5" font-family="Helvetica,sans-Serif" font-size="10.00">JS_DefinePropertyValueStr</text>
</a>
</g>
</g>
<!-- Node46&#45;&gt;Node72 -->
<g id="edge21" class="edge">
<title>Node46&#45;&gt;Node72</title>
<path fill="none" stroke="midnightblue" d="M321.66,-288C308.61,-288 294.23,-288 280.23,-288"/>
<polygon fill="midnightblue" stroke="midnightblue" points="321.82,-291.5 331.82,-288 321.82,-284.5 321.82,-291.5"/>
</g>
<!-- Node93 -->
<g id="node18" class="node">
<title>Node93</title>
<g id="a_node18"><a xlink:href="quickjs_8c.html#a04f589361a4fbc30d997402e92a50de2" target="_top" xlink:title=" ">
<polygon fill="none" stroke="red" points="156.5,-240.5 156.5,-259.5 259.5,-259.5 259.5,-240.5 156.5,-240.5"/>
<text text-anchor="middle" x="208" y="-247.5" font-family="Helvetica,sans-Serif" font-size="10.00">JS_GetPropertyStr</text>
</a>
</g>
</g>
<!-- Node46&#45;&gt;Node93 -->
<g id="edge22" class="edge">
<title>Node46&#45;&gt;Node93</title>
<path fill="none" stroke="midnightblue" d="M321.88,-276.56C298.81,-271.13 271.57,-264.72 249.62,-259.56"/>
<polygon fill="midnightblue" stroke="midnightblue" points="321.28,-280.01 331.82,-278.9 322.88,-273.2 321.28,-280.01"/>
</g>
<!-- Node107 -->
<g id="node19" class="node">
<title>Node107</title>
<g id="a_node19"><a xlink:href="quickjs_8c.html#a90dd988b99a5bc7b2a4aaffd2de405a9" target="_top" xlink:title=" ">
<polygon fill="none" stroke="red" points="137,-191 137,-221 279,-221 279,-191 137,-191"/>
<text text-anchor="start" x="145" y="-209" font-family="Helvetica,sans-Serif" font-size="10.00">js_host_resolve_imported</text>
<text text-anchor="middle" x="208" y="-198" font-family="Helvetica,sans-Serif" font-size="10.00">_module</text>
</a>
</g>
</g>
<!-- Node46&#45;&gt;Node107 -->
<g id="edge23" class="edge">
<title>Node46&#45;&gt;Node107</title>
<path fill="none" stroke="midnightblue" d="M325.83,-274.45C322.4,-272.81 319.08,-270.99 316,-269 296.46,-256.37 299.52,-243.66 280,-231 274.19,-227.23 267.74,-223.95 261.17,-221.12"/>
<polygon fill="midnightblue" stroke="midnightblue" points="324.47,-277.68 335.04,-278.41 327.23,-271.24 324.47,-277.68"/>
</g>
<!-- Node624 -->
<g id="node20" class="node">
<title>Node624</title>
<g id="a_node20"><a xlink:href="quickjs_8c.html#a8020fd59ed57f7f299216ec1ebfcda01" target="_top" xlink:title=" ">
<polygon fill="none" stroke="red" points="150,-152.5 150,-171.5 266,-171.5 266,-152.5 150,-152.5"/>
<text text-anchor="middle" x="208" y="-159.5" font-family="Helvetica,sans-Serif" font-size="10.00">js_new_function_def</text>
</a>
</g>
</g>
<!-- Node46&#45;&gt;Node624 -->
<g id="edge24" class="edge">
<title>Node46&#45;&gt;Node624</title>
<path fill="none" stroke="midnightblue" d="M322.93,-274.4C320.45,-272.8 318.11,-271 316,-269 285.34,-239.92 311.71,-208.93 280,-181 275.59,-177.12 270.48,-174.02 265.05,-171.55"/>
<polygon fill="midnightblue" stroke="midnightblue" points="321.34,-277.52 331.81,-279.17 324.65,-271.36 321.34,-277.52"/>
</g>
<!-- Node628 -->
<g id="node21" class="node">
<title>Node628</title>
<g id="a_node21"><a xlink:href="quickjs_8c.html#a27c3a725d4014a35b5bedcdf6e70dec7" target="_top" xlink:title=" ">
<polygon fill="none" stroke="red" points="154.5,-114.5 154.5,-133.5 261.5,-133.5 261.5,-114.5 154.5,-114.5"/>
<text text-anchor="middle" x="208" y="-121.5" font-family="Helvetica,sans-Serif" font-size="10.00">JS_NewAtomString</text>
</a>
</g>
</g>
<!-- Node46&#45;&gt;Node628 -->
<g id="edge26" class="edge">
<title>Node46&#45;&gt;Node628</title>
<path fill="none" stroke="midnightblue" d="M322.9,-274.83C320.39,-273.12 318.06,-271.19 316,-269 276.01,-226.66 321.53,-183.83 280,-143 274.81,-137.9 268.42,-134.13 261.61,-131.35"/>
<polygon fill="midnightblue" stroke="midnightblue" points="321.5,-278.06 331.95,-279.84 324.89,-271.93 321.5,-278.06"/>
</g>
<!-- Node305 -->
<g id="node22" class="node">
<title>Node305</title>
<g id="a_node22"><a xlink:href="quickjs_8c.html#a21cfe4c4fc9372dc0b95b37667cff0c9" target="_top" xlink:title=" ">
<polygon fill="none" stroke="red" points="154.5,-76.5 154.5,-95.5 261.5,-95.5 261.5,-76.5 154.5,-76.5"/>
<text text-anchor="middle" x="208" y="-83.5" font-family="Helvetica,sans-Serif" font-size="10.00">JS_NewCFunction3</text>
</a>
</g>
</g>
<!-- Node46&#45;&gt;Node305 -->
<g id="edge27" class="edge">
<title>Node46&#45;&gt;Node305</title>
<path fill="none" stroke="midnightblue" d="M322.85,-275.06C320.34,-273.29 318.03,-271.28 316,-269 266.47,-213.18 331.56,-158.95 280,-105 274.89,-99.65 268.45,-95.75 261.54,-92.91"/>
<polygon fill="midnightblue" stroke="midnightblue" points="321.54,-278.34 331.98,-280.19 324.97,-272.24 321.54,-278.34"/>
</g>
<!-- Node629 -->
<g id="node23" class="node">
<title>Node629</title>
<g id="a_node23"><a xlink:href="quickjs_8c.html#ac29cc4ec49efa0f0308e494316ce5139" target="_top" xlink:title=" ">
<polygon fill="none" stroke="red" points="160.5,-38.5 160.5,-57.5 255.5,-57.5 255.5,-38.5 160.5,-38.5"/>
<text text-anchor="middle" x="208" y="-45.5" font-family="Helvetica,sans-Serif" font-size="10.00">JS_NewCModule</text>
</a>
</g>
</g>
<!-- Node46&#45;&gt;Node629 -->
<g id="edge28" class="edge">
<title>Node46&#45;&gt;Node629</title>
<path fill="none" stroke="midnightblue" d="M322.74,-275.15C320.26,-273.36 317.98,-271.32 316,-269 256.84,-199.6 341.68,-134.17 280,-67 273.53,-59.95 264.75,-55.4 255.58,-52.49"/>
<polygon fill="midnightblue" stroke="midnightblue" points="321.39,-278.41 331.81,-280.33 324.86,-272.33 321.39,-278.41"/>
</g>
<!-- Node631 -->
<g id="node24" class="node">
<title>Node631</title>
<g id="a_node24"><a xlink:href="quickjs_8c.html#acc3990661d2851b858601061a62cc7d6" target="_top" xlink:title=" ">
<polygon fill="none" stroke="red" points="151,-0.5 151,-19.5 265,-19.5 265,-0.5 151,-0.5"/>
<text text-anchor="middle" x="208" y="-7.5" font-family="Helvetica,sans-Serif" font-size="10.00">JS_SetModuleExport</text>
</a>
</g>
</g>
<!-- Node46&#45;&gt;Node631 -->
<g id="edge29" class="edge">
<title>Node46&#45;&gt;Node631</title>
<path fill="none" stroke="midnightblue" d="M322.78,-275.3C320.27,-273.47 317.98,-271.39 316,-269 247.17,-185.96 351.86,-109.44 280,-29 275.83,-24.34 270.66,-20.76 265.02,-18.03"/>
<polygon fill="midnightblue" stroke="midnightblue" points="321.56,-278.63 331.97,-280.55 325.03,-272.55 321.56,-278.63"/>
</g>
<!-- Node624&#45;&gt;Node25 -->
<g id="edge25" class="edge">
<title>Node624&#45;&gt;Node25</title>
<path fill="none" stroke="midnightblue" d="M143.83,-175.92C141.09,-177.44 138.46,-179.13 136,-181 87.72,-217.78 61.78,-290.52 53.75,-316.5"/>
<polygon fill="midnightblue" stroke="midnightblue" points="145.39,-179.05 152.93,-171.6 142.39,-172.73 145.39,-179.05"/>
</g>
<!-- Node152 -->
<g id="node29" class="node">
<title>Node152</title>
<g id="a_node29"><a xlink:href="quickjs_8c.html#a12be2ea9c010752715072489497594e9" target="_top" xlink:title=" ">
<polygon fill="none" stroke="red" points="328,-126.5 328,-145.5 415,-145.5 415,-126.5 328,-126.5"/>
<text text-anchor="middle" x="371.5" y="-133.5" font-family="Helvetica,sans-Serif" font-size="10.00">JS_ReadObject</text>
</a>
</g>
</g>
<!-- Node644&#45;&gt;Node152 -->
<g id="edge34" class="edge">
<title>Node644&#45;&gt;Node152</title>
<path fill="none" stroke="midnightblue" d="M473.54,-198.66C469.87,-196.97 466.31,-195.09 463,-193 443.33,-180.58 446.54,-167.63 427,-155 421.19,-151.25 414.56,-148.14 407.96,-145.59"/>
<polygon fill="midnightblue" stroke="midnightblue" points="472.24,-201.91 482.82,-202.47 474.9,-195.43 472.24,-201.91"/>
</g>
</g>
</svg>
