<?xml version="1.0" encoding="UTF-8" standalone="no"?>
<!DOCTYPE svg PUBLIC "-//W3C//DTD SVG 1.1//EN"
 "http://www.w3.org/Graphics/SVG/1.1/DTD/svg11.dtd">
<!-- Generated by graphviz version 2.43.0 (0)
 -->
<!-- Title: free_var_ref Pages: 1 -->
<svg width="605pt" height="133pt"
 viewBox="0.00 0.00 605.00 133.21" xmlns="http://www.w3.org/2000/svg" xmlns:xlink="http://www.w3.org/1999/xlink">
<g id="graph0" class="graph" transform="scale(1 1) rotate(0) translate(4 129.21)">
<title>free_var_ref</title>
<!-- Node1 -->
<g id="node1" class="node">
<title>Node1</title>
<g id="a_node1"><a xlink:title=" ">
<polygon fill="#bfbfbf" stroke="black" points="0,-57.5 0,-76.5 76,-76.5 76,-57.5 0,-57.5"/>
<text text-anchor="middle" x="38" y="-64.5" font-family="Helvetica,sans-Serif" font-size="10.00">free_var_ref</text>
</a>
</g>
</g>
<!-- Node2 -->
<g id="node2" class="node">
<title>Node2</title>
<g id="a_node2"><a xlink:href="quickjs_8c.html#a69e19dda8a93d613203e0baa06f0ed8d" target="_top" xlink:title=" ">
<polygon fill="none" stroke="black" points="535,-90.5 535,-109.5 597,-109.5 597,-90.5 535,-90.5"/>
<text text-anchor="middle" x="566" y="-97.5" font-family="Helvetica,sans-Serif" font-size="10.00">js_free_rt</text>
</a>
</g>
</g>
<!-- Node1&#45;&gt;Node2 -->
<g id="edge1" class="edge">
<title>Node1&#45;&gt;Node2</title>
<path fill="none" stroke="midnightblue" d="M52.47,-76.56C66.54,-85.91 89.66,-99.53 112,-105 260.42,-141.32 444.46,-119.63 524.58,-107.07"/>
<polygon fill="midnightblue" stroke="midnightblue" points="525.41,-110.48 534.73,-105.43 524.3,-103.57 525.41,-110.48"/>
</g>
<!-- Node3 -->
<g id="node3" class="node">
<title>Node3</title>
<g id="a_node3"><a xlink:href="quickjs_8h.html#ab8db583fa5e7c2b1935854a42859daed" target="_top" xlink:title=" ">
<polygon fill="none" stroke="black" points="119.5,-76.5 119.5,-95.5 210.5,-95.5 210.5,-76.5 119.5,-76.5"/>
<text text-anchor="middle" x="165" y="-83.5" font-family="Helvetica,sans-Serif" font-size="10.00">JS_FreeValueRT</text>
</a>
</g>
</g>
<!-- Node1&#45;&gt;Node3 -->
<g id="edge2" class="edge">
<title>Node1&#45;&gt;Node3</title>
<path fill="none" stroke="midnightblue" d="M76.17,-72.65C86.52,-74.22 98,-75.97 109.15,-77.66"/>
<polygon fill="midnightblue" stroke="midnightblue" points="108.84,-81.16 119.25,-79.2 109.89,-74.23 108.84,-81.16"/>
</g>
<!-- Node22 -->
<g id="node7" class="node">
<title>Node22</title>
<g id="a_node7"><a xlink:href="list_8h.html#ab60d5d18869ebeb5d6ab694289576fa7" target="_top" xlink:title=" ">
<polygon fill="none" stroke="black" points="278.5,-19.5 278.5,-38.5 330.5,-38.5 330.5,-19.5 278.5,-19.5"/>
<text text-anchor="middle" x="304.5" y="-26.5" font-family="Helvetica,sans-Serif" font-size="10.00">list_del</text>
</a>
</g>
</g>
<!-- Node1&#45;&gt;Node22 -->
<g id="edge8" class="edge">
<title>Node1&#45;&gt;Node22</title>
<path fill="none" stroke="midnightblue" d="M76.06,-61.68C127.03,-54.35 218.13,-41.27 268.17,-34.08"/>
<polygon fill="midnightblue" stroke="midnightblue" points="268.8,-37.52 278.2,-32.63 267.8,-30.59 268.8,-37.52"/>
</g>
<!-- Node31 -->
<g id="node8" class="node">
<title>Node31</title>
<g id="a_node8"><a xlink:href="quickjs_8c.html#adfb3133f30938e2db9b525ade5fc09cf" target="_top" xlink:title=" ">
<polygon fill="none" stroke="black" points="112,-0.5 112,-19.5 218,-19.5 218,-0.5 112,-0.5"/>
<text text-anchor="middle" x="165" y="-7.5" font-family="Helvetica,sans-Serif" font-size="10.00">remove_gc_object</text>
</a>
</g>
</g>
<!-- Node1&#45;&gt;Node31 -->
<g id="edge9" class="edge">
<title>Node1&#45;&gt;Node31</title>
<path fill="none" stroke="midnightblue" d="M59.92,-57.46C80.11,-48.25 110.9,-34.22 133.75,-23.79"/>
<polygon fill="midnightblue" stroke="midnightblue" points="135.36,-26.91 143.01,-19.57 132.46,-20.54 135.36,-26.91"/>
</g>
<!-- Node4 -->
<g id="node4" class="node">
<title>Node4</title>
<g id="a_node4"><a xlink:href="quickjs_8c.html#ab1ea3fad7d138be12144a38be4d36423" target="_top" xlink:title=" ">
<polygon fill="none" stroke="black" points="254,-66.5 254,-85.5 355,-85.5 355,-66.5 254,-66.5"/>
<text text-anchor="middle" x="304.5" y="-73.5" font-family="Helvetica,sans-Serif" font-size="10.00">__JS_FreeValueRT</text>
</a>
</g>
</g>
<!-- Node3&#45;&gt;Node4 -->
<g id="edge3" class="edge">
<title>Node3&#45;&gt;Node4</title>
<path fill="none" stroke="midnightblue" d="M210.64,-82.75C221.21,-81.98 232.65,-81.15 243.76,-80.34"/>
<polygon fill="midnightblue" stroke="midnightblue" points="244.13,-83.83 253.85,-79.61 243.62,-76.85 244.13,-83.83"/>
</g>
<!-- Node4&#45;&gt;Node2 -->
<g id="edge5" class="edge">
<title>Node4&#45;&gt;Node2</title>
<path fill="none" stroke="midnightblue" d="M355.23,-80.6C404.52,-85.16 479.08,-92.05 524.76,-96.28"/>
<polygon fill="midnightblue" stroke="midnightblue" points="524.61,-99.78 534.89,-97.22 525.25,-92.81 524.61,-99.78"/>
</g>
<!-- Node5 -->
<g id="node5" class="node">
<title>Node5</title>
<g id="a_node5"><a xlink:href="quickjs_8c.html#a8defed3434f60d6b5d6a7ea202cc8f9d" target="_top" xlink:title=" ">
<polygon fill="none" stroke="red" points="391,-52.5 391,-71.5 499,-71.5 499,-52.5 391,-52.5"/>
<text text-anchor="middle" x="445" y="-59.5" font-family="Helvetica,sans-Serif" font-size="10.00">free_zero_refcount</text>
</a>
</g>
</g>
<!-- Node4&#45;&gt;Node5 -->
<g id="edge4" class="edge">
<title>Node4&#45;&gt;Node5</title>
<path fill="none" stroke="midnightblue" d="M355.11,-70.99C363.48,-70.14 372.26,-69.25 380.92,-68.38"/>
<polygon fill="midnightblue" stroke="midnightblue" points="381.39,-71.85 390.99,-67.36 380.69,-64.88 381.39,-71.85"/>
</g>
<!-- Node13 -->
<g id="node6" class="node">
<title>Node13</title>
<g id="a_node6"><a xlink:href="quickjs_8c.html#a58c8965dad50b15b75918a09f3d9dc7c" target="_top" xlink:title=" ">
<polygon fill="none" stroke="red" points="391.5,-14.5 391.5,-33.5 498.5,-33.5 498.5,-14.5 391.5,-14.5"/>
<text text-anchor="middle" x="445" y="-21.5" font-family="Helvetica,sans-Serif" font-size="10.00">JS_FreeAtomStruct</text>
</a>
</g>
</g>
<!-- Node4&#45;&gt;Node13 -->
<g id="edge6" class="edge">
<title>Node4&#45;&gt;Node13</title>
<path fill="none" stroke="midnightblue" d="M329.76,-66.46C346.85,-59.78 370.27,-50.71 391,-43 396.27,-41.04 401.84,-39 407.32,-37.02"/>
<polygon fill="midnightblue" stroke="midnightblue" points="408.77,-40.22 416.99,-33.54 406.4,-33.63 408.77,-40.22"/>
</g>
<!-- Node13&#45;&gt;Node2 -->
<g id="edge7" class="edge">
<title>Node13&#45;&gt;Node2</title>
<path fill="none" stroke="midnightblue" d="M478.52,-33.52C485.5,-36.14 492.67,-39.3 499,-43 517.84,-54 536.38,-70.67 548.99,-83.15"/>
<polygon fill="midnightblue" stroke="midnightblue" points="546.51,-85.62 556.03,-90.29 551.5,-80.71 546.51,-85.62"/>
</g>
<!-- Node31&#45;&gt;Node22 -->
<g id="edge10" class="edge">
<title>Node31&#45;&gt;Node22</title>
<path fill="none" stroke="midnightblue" d="M218.38,-17.24C235.02,-19.54 253.03,-22.03 268.18,-24.12"/>
<polygon fill="midnightblue" stroke="midnightblue" points="267.77,-27.6 278.16,-25.5 268.73,-20.66 267.77,-27.6"/>
</g>
</g>
</svg>
