<?xml version="1.0" encoding="UTF-8" standalone="no"?>
<!DOCTYPE svg PUBLIC "-//W3C//DTD SVG 1.1//EN"
 "http://www.w3.org/Graphics/SVG/1.1/DTD/svg11.dtd">
<!-- Generated by graphviz version 2.43.0 (0)
 -->
<!-- Title: js_typed_array_get_length_internal Pages: 1 -->
<svg width="653pt" height="434pt"
 viewBox="0.00 0.00 653.00 434.09" xmlns="http://www.w3.org/2000/svg" xmlns:xlink="http://www.w3.org/1999/xlink">
<g id="graph0" class="graph" transform="scale(1 1) rotate(0) translate(4 430.09)">
<title>js_typed_array_get_length_internal</title>
<!-- Node1 -->
<g id="node1" class="node">
<title>Node1</title>
<g id="a_node1"><a xlink:title=" ">
<polygon fill="#bfbfbf" stroke="black" points="535,-185 535,-215 645,-215 645,-185 535,-185"/>
<text text-anchor="start" x="543" y="-203" font-family="Helvetica,sans-Serif" font-size="10.00">js_typed_array_get</text>
<text text-anchor="middle" x="590" y="-192" font-family="Helvetica,sans-Serif" font-size="10.00">_length_internal</text>
</a>
</g>
</g>
<!-- Node2 -->
<g id="node2" class="node">
<title>Node2</title>
<g id="a_node2"><a xlink:href="quickjs_8c.html#aa0bbf08a7e91459c68a312fba7016c6d" target="_top" xlink:title=" ">
<polygon fill="none" stroke="black" points="24,-389.5 24,-408.5 113,-408.5 113,-389.5 24,-389.5"/>
<text text-anchor="middle" x="68.5" y="-396.5" font-family="Helvetica,sans-Serif" font-size="10.00">js_array_every</text>
</a>
</g>
</g>
<!-- Node1&#45;&gt;Node2 -->
<g id="edge1" class="edge">
<title>Node1&#45;&gt;Node2</title>
<path fill="none" stroke="midnightblue" d="M583.89,-225.17C574.55,-263.98 550.7,-337.44 499,-371 376.78,-450.33 191.55,-425.05 110.22,-408.5"/>
<polygon fill="midnightblue" stroke="midnightblue" points="587.35,-225.73 586.15,-215.2 580.53,-224.18 587.35,-225.73"/>
</g>
<!-- Node3 -->
<g id="node3" class="node">
<title>Node3</title>
<g id="a_node3"><a xlink:href="quickjs_8c.html#a36c1692489542a86dd79a7d39ab8ff95" target="_top" xlink:title=" ">
<polygon fill="none" stroke="black" points="377.5,-342.5 377.5,-361.5 471.5,-361.5 471.5,-342.5 377.5,-342.5"/>
<text text-anchor="middle" x="424.5" y="-349.5" font-family="Helvetica,sans-Serif" font-size="10.00">js_array_reduce</text>
</a>
</g>
</g>
<!-- Node1&#45;&gt;Node3 -->
<g id="edge2" class="edge">
<title>Node1&#45;&gt;Node3</title>
<path fill="none" stroke="midnightblue" d="M578.85,-224.84C565.22,-255.05 538.09,-305.42 499,-333 490.92,-338.7 481.27,-342.69 471.66,-345.48"/>
<polygon fill="midnightblue" stroke="midnightblue" points="582.17,-226 582.96,-215.43 575.75,-223.2 582.17,-226"/>
</g>
<!-- Node4 -->
<g id="node4" class="node">
<title>Node4</title>
<g id="a_node4"><a xlink:href="quickjs_8c.html#abe83a22e4d81b08015c382d8f4e7f833" target="_top" xlink:title=" ">
<polygon fill="none" stroke="black" points="350,-304.5 350,-323.5 499,-323.5 499,-304.5 350,-304.5"/>
<text text-anchor="middle" x="424.5" y="-311.5" font-family="Helvetica,sans-Serif" font-size="10.00">js_typed_array_copyWithin</text>
</a>
</g>
</g>
<!-- Node1&#45;&gt;Node4 -->
<g id="edge3" class="edge">
<title>Node1&#45;&gt;Node4</title>
<path fill="none" stroke="midnightblue" d="M572.92,-223.37C556.73,-245.13 529.79,-276.85 499,-295 492.41,-298.88 485.04,-301.98 477.57,-304.45"/>
<polygon fill="midnightblue" stroke="midnightblue" points="575.94,-225.16 578.98,-215.01 570.28,-221.05 575.94,-225.16"/>
</g>
<!-- Node5 -->
<g id="node5" class="node">
<title>Node5</title>
<g id="a_node5"><a xlink:href="quickjs_8c.html#a8c18ce4b7a8c97ab520d4d37a1c6fc72" target="_top" xlink:title=" ">
<polygon fill="none" stroke="black" points="362,-266.5 362,-285.5 487,-285.5 487,-266.5 362,-266.5"/>
<text text-anchor="middle" x="424.5" y="-273.5" font-family="Helvetica,sans-Serif" font-size="10.00">js_typed_array_create</text>
</a>
</g>
</g>
<!-- Node1&#45;&gt;Node5 -->
<g id="edge4" class="edge">
<title>Node1&#45;&gt;Node5</title>
<path fill="none" stroke="midnightblue" d="M557.16,-220.58C540.31,-230.9 519.02,-243.06 499,-252 486.5,-257.58 472.29,-262.52 459.72,-266.45"/>
<polygon fill="midnightblue" stroke="midnightblue" points="559.37,-223.32 566.02,-215.07 555.68,-217.38 559.37,-223.32"/>
</g>
<!-- Node7 -->
<g id="node7" class="node">
<title>Node7</title>
<g id="a_node7"><a xlink:href="quickjs_8c.html#a04f45f4b341a84aa1039cfd862adbcd2" target="_top" xlink:title=" ">
<polygon fill="none" stroke="black" points="10.5,-269.5 10.5,-288.5 126.5,-288.5 126.5,-269.5 10.5,-269.5"/>
<text text-anchor="middle" x="68.5" y="-276.5" font-family="Helvetica,sans-Serif" font-size="10.00">js_typed_array_slice</text>
</a>
</g>
</g>
<!-- Node1&#45;&gt;Node7 -->
<g id="edge16" class="edge">
<title>Node1&#45;&gt;Node7</title>
<path fill="none" stroke="midnightblue" d="M524.82,-214.3C516.17,-216.01 507.38,-217.63 499,-219 355.04,-242.53 316.94,-233.37 173,-257 152.15,-260.42 129.15,-265.21 110.13,-269.45"/>
<polygon fill="midnightblue" stroke="midnightblue" points="525.79,-217.68 534.9,-212.26 524.4,-210.81 525.79,-217.68"/>
</g>
<!-- Node11 -->
<g id="node11" class="node">
<title>Node11</title>
<g id="a_node11"><a xlink:href="quickjs_8c.html#ae93231189fcdcb0450f2b21c208f293f" target="_top" xlink:title=" ">
<polygon fill="none" stroke="black" points="371.5,-190.5 371.5,-209.5 477.5,-209.5 477.5,-190.5 371.5,-190.5"/>
<text text-anchor="middle" x="424.5" y="-197.5" font-family="Helvetica,sans-Serif" font-size="10.00">js_typed_array_fill</text>
</a>
</g>
</g>
<!-- Node1&#45;&gt;Node11 -->
<g id="edge11" class="edge">
<title>Node1&#45;&gt;Node11</title>
<path fill="none" stroke="midnightblue" d="M524.52,-200C509.01,-200 492.64,-200 477.76,-200"/>
<polygon fill="midnightblue" stroke="midnightblue" points="524.56,-203.5 534.56,-200 524.56,-196.5 524.56,-203.5"/>
</g>
<!-- Node12 -->
<g id="node12" class="node">
<title>Node12</title>
<g id="a_node12"><a xlink:href="quickjs_8c.html#a0b8ae7efe63abc1be33d9e828d43ce8d" target="_top" xlink:title=" ">
<polygon fill="none" stroke="black" points="368.5,-152.5 368.5,-171.5 480.5,-171.5 480.5,-152.5 368.5,-152.5"/>
<text text-anchor="middle" x="424.5" y="-159.5" font-family="Helvetica,sans-Serif" font-size="10.00">js_typed_array_find</text>
</a>
</g>
</g>
<!-- Node1&#45;&gt;Node12 -->
<g id="edge12" class="edge">
<title>Node1&#45;&gt;Node12</title>
<path fill="none" stroke="midnightblue" d="M524.76,-185.07C505.16,-180.51 484.14,-175.63 466.52,-171.53"/>
<polygon fill="midnightblue" stroke="midnightblue" points="524.02,-188.49 534.56,-187.35 525.61,-181.67 524.02,-188.49"/>
</g>
<!-- Node13 -->
<g id="node13" class="node">
<title>Node13</title>
<g id="a_node13"><a xlink:href="quickjs_8c.html#a5552c2701abfaa12a9c9b029a377725d" target="_top" xlink:title=" ">
<polygon fill="none" stroke="black" points="358.5,-114.5 358.5,-133.5 490.5,-133.5 490.5,-114.5 358.5,-114.5"/>
<text text-anchor="middle" x="424.5" y="-121.5" font-family="Helvetica,sans-Serif" font-size="10.00">js_typed_array_indexOf</text>
</a>
</g>
</g>
<!-- Node1&#45;&gt;Node13 -->
<g id="edge13" class="edge">
<title>Node1&#45;&gt;Node13</title>
<path fill="none" stroke="midnightblue" d="M560.87,-178.96C543.73,-166.98 520.97,-152.52 499,-143 490.41,-139.28 480.94,-136.16 471.72,-133.6"/>
<polygon fill="midnightblue" stroke="midnightblue" points="559.11,-182 569.28,-184.95 563.17,-176.3 559.11,-182"/>
</g>
<!-- Node14 -->
<g id="node14" class="node">
<title>Node14</title>
<g id="a_node14"><a xlink:href="quickjs_8c.html#aa04ea5aa5c3614856e8cd9843f1ebaa1" target="_top" xlink:title=" ">
<polygon fill="none" stroke="black" points="368.5,-76.5 368.5,-95.5 480.5,-95.5 480.5,-76.5 368.5,-76.5"/>
<text text-anchor="middle" x="424.5" y="-83.5" font-family="Helvetica,sans-Serif" font-size="10.00">js_typed_array_join</text>
</a>
</g>
</g>
<!-- Node1&#45;&gt;Node14 -->
<g id="edge14" class="edge">
<title>Node1&#45;&gt;Node14</title>
<path fill="none" stroke="midnightblue" d="M572.92,-176.63C556.73,-154.87 529.79,-123.15 499,-105 492.41,-101.12 485.04,-98.02 477.57,-95.55"/>
<polygon fill="midnightblue" stroke="midnightblue" points="570.28,-178.95 578.98,-184.99 575.94,-174.84 570.28,-178.95"/>
</g>
<!-- Node15 -->
<g id="node15" class="node">
<title>Node15</title>
<g id="a_node15"><a xlink:href="quickjs_8c.html#a1cbe16f416f7695b59db3032a6b76af6" target="_top" xlink:title=" ">
<polygon fill="none" stroke="black" points="359,-38.5 359,-57.5 490,-57.5 490,-38.5 359,-38.5"/>
<text text-anchor="middle" x="424.5" y="-45.5" font-family="Helvetica,sans-Serif" font-size="10.00">js_typed_array_reverse</text>
</a>
</g>
</g>
<!-- Node1&#45;&gt;Node15 -->
<g id="edge15" class="edge">
<title>Node1&#45;&gt;Node15</title>
<path fill="none" stroke="midnightblue" d="M578.85,-175.16C565.22,-144.95 538.09,-94.58 499,-67 493.51,-63.12 487.29,-60.04 480.85,-57.58"/>
<polygon fill="midnightblue" stroke="midnightblue" points="575.75,-176.8 582.96,-184.57 582.17,-174 575.75,-176.8"/>
</g>
<!-- Node16 -->
<g id="node16" class="node">
<title>Node16</title>
<g id="a_node16"><a xlink:href="quickjs_8c.html#ad24e5f774218bb0d2859db9dc569d118" target="_top" xlink:title=" ">
<polygon fill="none" stroke="black" points="368,-0.5 368,-19.5 481,-19.5 481,-0.5 368,-0.5"/>
<text text-anchor="middle" x="424.5" y="-7.5" font-family="Helvetica,sans-Serif" font-size="10.00">js_typed_array_sort</text>
</a>
</g>
</g>
<!-- Node1&#45;&gt;Node16 -->
<g id="edge17" class="edge">
<title>Node1&#45;&gt;Node16</title>
<path fill="none" stroke="midnightblue" d="M582.71,-174.63C572.05,-137.01 546.76,-66.81 499,-29 493.73,-24.83 487.64,-21.56 481.27,-19.01"/>
<polygon fill="midnightblue" stroke="midnightblue" points="579.46,-176.02 585.45,-184.76 586.22,-174.19 579.46,-176.02"/>
</g>
<!-- Node6 -->
<g id="node6" class="node">
<title>Node6</title>
<g id="a_node6"><a xlink:href="quickjs_8c.html#ae5a8e884ec4a3364f63ebfeae6b08bdc" target="_top" xlink:title=" ">
<polygon fill="none" stroke="black" points="173,-343 173,-373 314,-373 314,-343 173,-343"/>
<text text-anchor="start" x="181" y="-361" font-family="Helvetica,sans-Serif" font-size="10.00">js_typed_array___species</text>
<text text-anchor="middle" x="243.5" y="-350" font-family="Helvetica,sans-Serif" font-size="10.00">Create</text>
</a>
</g>
</g>
<!-- Node5&#45;&gt;Node6 -->
<g id="edge5" class="edge">
<title>Node5&#45;&gt;Node6</title>
<path fill="none" stroke="midnightblue" d="M361.74,-289.17C357.66,-290.88 353.7,-292.82 350,-295 329.96,-306.81 333.47,-320.27 314,-333 308.2,-336.79 301.76,-340.09 295.2,-342.94"/>
<polygon fill="midnightblue" stroke="midnightblue" points="363.28,-292.32 371.43,-285.55 360.83,-285.77 363.28,-292.32"/>
</g>
<!-- Node9 -->
<g id="node9" class="node">
<title>Node9</title>
<g id="a_node9"><a xlink:href="quickjs_8c.html#a5f46f50deddd4e3a23da24e8173db28e" target="_top" xlink:title=" ">
<polygon fill="none" stroke="black" points="185,-304.5 185,-323.5 302,-323.5 302,-304.5 185,-304.5"/>
<text text-anchor="middle" x="243.5" y="-311.5" font-family="Helvetica,sans-Serif" font-size="10.00">js_typed_array_from</text>
</a>
</g>
</g>
<!-- Node5&#45;&gt;Node9 -->
<g id="edge9" class="edge">
<title>Node5&#45;&gt;Node9</title>
<path fill="none" stroke="midnightblue" d="M368.48,-287.68C343.09,-293.07 313.34,-299.39 289.34,-304.48"/>
<polygon fill="midnightblue" stroke="midnightblue" points="369.28,-291.09 378.33,-285.59 367.82,-284.24 369.28,-291.09"/>
</g>
<!-- Node10 -->
<g id="node10" class="node">
<title>Node10</title>
<g id="a_node10"><a xlink:href="quickjs_8c.html#a36967d647cc965999043c6cfdeb9e943" target="_top" xlink:title=" ">
<polygon fill="none" stroke="black" points="191.5,-266.5 191.5,-285.5 295.5,-285.5 295.5,-266.5 191.5,-266.5"/>
<text text-anchor="middle" x="243.5" y="-273.5" font-family="Helvetica,sans-Serif" font-size="10.00">js_typed_array_of</text>
</a>
</g>
</g>
<!-- Node5&#45;&gt;Node10 -->
<g id="edge10" class="edge">
<title>Node5&#45;&gt;Node10</title>
<path fill="none" stroke="midnightblue" d="M351.86,-276C333,-276 313.05,-276 295.52,-276"/>
<polygon fill="midnightblue" stroke="midnightblue" points="351.9,-279.5 361.9,-276 351.9,-272.5 351.9,-279.5"/>
</g>
<!-- Node6&#45;&gt;Node2 -->
<g id="edge6" class="edge">
<title>Node6&#45;&gt;Node2</title>
<path fill="none" stroke="midnightblue" d="M169.18,-375.38C148.84,-380.2 127.5,-385.25 109.82,-389.45"/>
<polygon fill="midnightblue" stroke="midnightblue" points="170.14,-378.75 179.06,-373.03 168.53,-371.93 170.14,-378.75"/>
</g>
<!-- Node6&#45;&gt;Node7 -->
<g id="edge7" class="edge">
<title>Node6&#45;&gt;Node7</title>
<path fill="none" stroke="midnightblue" d="M188.29,-339.31C183.09,-337.27 177.92,-335.16 173,-333 141.44,-319.17 106.16,-299.89 86.01,-288.51"/>
<polygon fill="midnightblue" stroke="midnightblue" points="187.07,-342.59 197.66,-342.88 189.56,-336.05 187.07,-342.59"/>
</g>
<!-- Node8 -->
<g id="node8" class="node">
<title>Node8</title>
<g id="a_node8"><a xlink:href="quickjs_8c.html#a355310420e303302c981eb7c73a222fb" target="_top" xlink:title=" ">
<polygon fill="none" stroke="black" points="0,-348.5 0,-367.5 137,-367.5 137,-348.5 0,-348.5"/>
<text text-anchor="middle" x="68.5" y="-355.5" font-family="Helvetica,sans-Serif" font-size="10.00">js_typed_array_subarray</text>
</a>
</g>
</g>
<!-- Node6&#45;&gt;Node8 -->
<g id="edge8" class="edge">
<title>Node6&#45;&gt;Node8</title>
<path fill="none" stroke="midnightblue" d="M162.38,-358C153.93,-358 145.39,-358 137.1,-358"/>
<polygon fill="midnightblue" stroke="midnightblue" points="162.63,-361.5 172.63,-358 162.63,-354.5 162.63,-361.5"/>
</g>
</g>
</svg>
