<?xml version="1.0" encoding="UTF-8" standalone="no"?>
<!DOCTYPE svg PUBLIC "-//W3C//DTD SVG 1.1//EN"
 "http://www.w3.org/Graphics/SVG/1.1/DTD/svg11.dtd">
<!-- Generated by graphviz version 2.43.0 (0)
 -->
<!-- Title: js_clone_shape Pages: 1 -->
<svg width="541pt" height="313pt"
 viewBox="0.00 0.00 541.00 313.00" xmlns="http://www.w3.org/2000/svg" xmlns:xlink="http://www.w3.org/1999/xlink">
<g id="graph0" class="graph" transform="scale(1 1) rotate(0) translate(4 309)">
<title>js_clone_shape</title>
<!-- Node1 -->
<g id="node1" class="node">
<title>Node1</title>
<g id="a_node1"><a xlink:title=" ">
<polygon fill="#bfbfbf" stroke="black" points="0,-152.5 0,-171.5 91,-171.5 91,-152.5 0,-152.5"/>
<text text-anchor="middle" x="45.5" y="-159.5" font-family="Helvetica,sans-Serif" font-size="10.00">js_clone_shape</text>
</a>
</g>
</g>
<!-- Node2 -->
<g id="node2" class="node">
<title>Node2</title>
<g id="a_node2"><a xlink:href="quickjs_8c.html#a9780456a71703c53244b88831bc8fb7a" target="_top" xlink:title=" ">
<polygon fill="none" stroke="black" points="146,-285.5 146,-304.5 232,-304.5 232,-285.5 146,-285.5"/>
<text text-anchor="middle" x="189" y="-292.5" font-family="Helvetica,sans-Serif" font-size="10.00">add_gc_object</text>
</a>
</g>
</g>
<!-- Node1&#45;&gt;Node2 -->
<g id="edge1" class="edge">
<title>Node1&#45;&gt;Node2</title>
<path fill="none" stroke="midnightblue" d="M50.6,-171.56C60.45,-193.41 87.62,-247.35 127,-276 130,-278.18 133.26,-280.12 136.66,-281.84"/>
<polygon fill="midnightblue" stroke="midnightblue" points="135.34,-285.08 145.9,-285.9 138.15,-278.67 135.34,-285.08"/>
</g>
<!-- Node5 -->
<g id="node5" class="node">
<title>Node5</title>
<g id="a_node5"><a xlink:href="quickjs_8c.html#a7da0cfa6f27af0e1b9599d7f359edbe2" target="_top" xlink:title=" ">
<polygon fill="none" stroke="black" points="127,-247.5 127,-266.5 251,-266.5 251,-247.5 127,-247.5"/>
<text text-anchor="middle" x="189" y="-254.5" font-family="Helvetica,sans-Serif" font-size="10.00">get_alloc_from_shape</text>
</a>
</g>
</g>
<!-- Node1&#45;&gt;Node5 -->
<g id="edge4" class="edge">
<title>Node1&#45;&gt;Node5</title>
<path fill="none" stroke="midnightblue" d="M54.13,-171.63C67.32,-187.66 95.98,-219.85 127,-238 130.66,-240.14 134.59,-242.07 138.63,-243.8"/>
<polygon fill="midnightblue" stroke="midnightblue" points="137.57,-247.14 148.16,-247.47 140.09,-240.61 137.57,-247.14"/>
</g>
<!-- Node7 -->
<g id="node7" class="node">
<title>Node7</title>
<g id="a_node7"><a xlink:href="quickjs_8c.html#a8b6c89e0f589df709eb31a92b7fac32a" target="_top" xlink:title=" ">
<polygon fill="none" stroke="black" points="127,-209.5 127,-228.5 251,-228.5 251,-209.5 127,-209.5"/>
<text text-anchor="middle" x="189" y="-216.5" font-family="Helvetica,sans-Serif" font-size="10.00">get_shape_from_alloc</text>
</a>
</g>
</g>
<!-- Node1&#45;&gt;Node7 -->
<g id="edge6" class="edge">
<title>Node1&#45;&gt;Node7</title>
<path fill="none" stroke="midnightblue" d="M65.04,-171.66C81.16,-179.83 105.26,-191.53 127,-200 132.63,-202.19 138.62,-204.31 144.57,-206.29"/>
<polygon fill="midnightblue" stroke="midnightblue" points="143.88,-209.74 154.47,-209.47 146.02,-203.08 143.88,-209.74"/>
</g>
<!-- Node8 -->
<g id="node8" class="node">
<title>Node8</title>
<g id="a_node8"><a xlink:href="quickjs_8c.html#a643df594b75933007bcdbb071b5ea8c5" target="_top" xlink:title=" ">
<polygon fill="none" stroke="black" points="142,-171.5 142,-190.5 236,-190.5 236,-171.5 142,-171.5"/>
<text text-anchor="middle" x="189" y="-178.5" font-family="Helvetica,sans-Serif" font-size="10.00">get_shape_prop</text>
</a>
</g>
</g>
<!-- Node1&#45;&gt;Node8 -->
<g id="edge7" class="edge">
<title>Node1&#45;&gt;Node8</title>
<path fill="none" stroke="midnightblue" d="M91.27,-168.01C104.05,-169.73 118.13,-171.62 131.51,-173.41"/>
<polygon fill="midnightblue" stroke="midnightblue" points="131.19,-176.9 141.57,-174.77 132.12,-169.97 131.19,-176.9"/>
</g>
<!-- Node9 -->
<g id="node9" class="node">
<title>Node9</title>
<g id="a_node9"><a xlink:href="quickjs_8c.html#ab54e821a9b1b55dc16c4494bd410b698" target="_top" xlink:title=" ">
<polygon fill="none" stroke="black" points="143,-133.5 143,-152.5 235,-152.5 235,-133.5 143,-133.5"/>
<text text-anchor="middle" x="189" y="-140.5" font-family="Helvetica,sans-Serif" font-size="10.00">get_shape_size</text>
</a>
</g>
</g>
<!-- Node1&#45;&gt;Node9 -->
<g id="edge8" class="edge">
<title>Node1&#45;&gt;Node9</title>
<path fill="none" stroke="midnightblue" d="M91.27,-155.99C104.3,-154.24 118.7,-152.3 132.32,-150.48"/>
<polygon fill="midnightblue" stroke="midnightblue" points="133.1,-153.9 142.55,-149.1 132.17,-146.97 133.1,-153.9"/>
</g>
<!-- Node10 -->
<g id="node10" class="node">
<title>Node10</title>
<g id="a_node10"><a xlink:href="quickjs_8c.html#abbf44eaeace1104a6bef718fbf5700fe" target="_top" xlink:title=" ">
<polygon fill="none" stroke="black" points="150.5,-95.5 150.5,-114.5 227.5,-114.5 227.5,-95.5 150.5,-95.5"/>
<text text-anchor="middle" x="189" y="-102.5" font-family="Helvetica,sans-Serif" font-size="10.00">JS_DupAtom</text>
</a>
</g>
</g>
<!-- Node1&#45;&gt;Node10 -->
<g id="edge9" class="edge">
<title>Node1&#45;&gt;Node10</title>
<path fill="none" stroke="midnightblue" d="M65.04,-152.34C81.16,-144.17 105.26,-132.47 127,-124 132.63,-121.81 138.62,-119.69 144.57,-117.71"/>
<polygon fill="midnightblue" stroke="midnightblue" points="146.02,-120.92 154.47,-114.53 143.88,-114.26 146.02,-120.92"/>
</g>
<!-- Node12 -->
<g id="node12" class="node">
<title>Node12</title>
<g id="a_node12"><a xlink:href="quickjs_8h.html#a775522f2d084fc8fa0fcb33f390006b4" target="_top" xlink:title=" ">
<polygon fill="none" stroke="black" points="150.5,-57.5 150.5,-76.5 227.5,-76.5 227.5,-57.5 150.5,-57.5"/>
<text text-anchor="middle" x="189" y="-64.5" font-family="Helvetica,sans-Serif" font-size="10.00">JS_DupValue</text>
</a>
</g>
</g>
<!-- Node1&#45;&gt;Node12 -->
<g id="edge11" class="edge">
<title>Node1&#45;&gt;Node12</title>
<path fill="none" stroke="midnightblue" d="M54.13,-152.37C67.32,-136.34 95.98,-104.15 127,-86 131.38,-83.44 136.13,-81.19 141,-79.22"/>
<polygon fill="midnightblue" stroke="midnightblue" points="142.23,-82.49 150.41,-75.76 139.81,-75.92 142.23,-82.49"/>
</g>
<!-- Node13 -->
<g id="node13" class="node">
<title>Node13</title>
<g id="a_node13"><a xlink:href="quickjs_8c.html#a78b7f6b85f2739b551ff54f16156128b" target="_top" xlink:title=" ">
<polygon fill="none" stroke="black" points="157.5,-19.5 157.5,-38.5 220.5,-38.5 220.5,-19.5 157.5,-19.5"/>
<text text-anchor="middle" x="189" y="-26.5" font-family="Helvetica,sans-Serif" font-size="10.00">js_malloc</text>
</a>
</g>
</g>
<!-- Node1&#45;&gt;Node13 -->
<g id="edge12" class="edge">
<title>Node1&#45;&gt;Node13</title>
<path fill="none" stroke="midnightblue" d="M50.6,-152.44C60.45,-130.59 87.62,-76.65 127,-48 133.1,-43.56 140.28,-40.14 147.51,-37.5"/>
<polygon fill="midnightblue" stroke="midnightblue" points="148.86,-40.75 157.33,-34.38 146.74,-34.08 148.86,-40.75"/>
</g>
<!-- Node3 -->
<g id="node3" class="node">
<title>Node3</title>
<g id="a_node3"><a xlink:href="list_8h.html#a3a5d0733570b2fafc18f4c71a2968ea5" target="_top" xlink:title=" ">
<polygon fill="none" stroke="black" points="314,-285.5 314,-304.5 390,-304.5 390,-285.5 314,-285.5"/>
<text text-anchor="middle" x="352" y="-292.5" font-family="Helvetica,sans-Serif" font-size="10.00">list_add_tail</text>
</a>
</g>
</g>
<!-- Node2&#45;&gt;Node3 -->
<g id="edge2" class="edge">
<title>Node2&#45;&gt;Node3</title>
<path fill="none" stroke="midnightblue" d="M232.3,-295C254.28,-295 281.2,-295 303.84,-295"/>
<polygon fill="midnightblue" stroke="midnightblue" points="303.91,-298.5 313.91,-295 303.91,-291.5 303.91,-298.5"/>
</g>
<!-- Node4 -->
<g id="node4" class="node">
<title>Node4</title>
<g id="a_node4"><a xlink:href="list_8h.html#a16286d5bff74a27aec51a3134ffc7b43" target="_top" xlink:title=" ">
<polygon fill="none" stroke="black" points="460.5,-285.5 460.5,-304.5 525.5,-304.5 525.5,-285.5 460.5,-285.5"/>
<text text-anchor="middle" x="493" y="-292.5" font-family="Helvetica,sans-Serif" font-size="10.00">__list_add</text>
</a>
</g>
</g>
<!-- Node3&#45;&gt;Node4 -->
<g id="edge3" class="edge">
<title>Node3&#45;&gt;Node4</title>
<path fill="none" stroke="midnightblue" d="M390.25,-295C408.71,-295 431.06,-295 450.11,-295"/>
<polygon fill="midnightblue" stroke="midnightblue" points="450.31,-298.5 460.31,-295 450.31,-291.5 450.31,-298.5"/>
</g>
<!-- Node6 -->
<g id="node6" class="node">
<title>Node6</title>
<g id="a_node6"><a xlink:href="quickjs_8c.html#acab22c2945c4d609e57a2484feb68a96" target="_top" xlink:title=" ">
<polygon fill="none" stroke="black" points="307,-247.5 307,-266.5 397,-266.5 397,-247.5 307,-247.5"/>
<text text-anchor="middle" x="352" y="-254.5" font-family="Helvetica,sans-Serif" font-size="10.00">prop_hash_end</text>
</a>
</g>
</g>
<!-- Node5&#45;&gt;Node6 -->
<g id="edge5" class="edge">
<title>Node5&#45;&gt;Node6</title>
<path fill="none" stroke="midnightblue" d="M251.33,-257C266.2,-257 282,-257 296.53,-257"/>
<polygon fill="midnightblue" stroke="midnightblue" points="296.86,-260.5 306.86,-257 296.86,-253.5 296.86,-260.5"/>
</g>
<!-- Node11 -->
<g id="node11" class="node">
<title>Node11</title>
<g id="a_node11"><a xlink:href="quickjs_8c.html#a7f6796ee7a195631366f57c713a33f65" target="_top" xlink:title=" ">
<polygon fill="none" stroke="black" points="300,-95.5 300,-114.5 404,-114.5 404,-95.5 300,-95.5"/>
<text text-anchor="middle" x="352" y="-102.5" font-family="Helvetica,sans-Serif" font-size="10.00">__JS_AtomIsConst</text>
</a>
</g>
</g>
<!-- Node10&#45;&gt;Node11 -->
<g id="edge10" class="edge">
<title>Node10&#45;&gt;Node11</title>
<path fill="none" stroke="midnightblue" d="M227.75,-105C246.2,-105 268.87,-105 289.72,-105"/>
<polygon fill="midnightblue" stroke="midnightblue" points="289.78,-108.5 299.78,-105 289.78,-101.5 289.78,-108.5"/>
</g>
<!-- Node14 -->
<g id="node14" class="node">
<title>Node14</title>
<g id="a_node14"><a xlink:href="quickjs_8c.html#a4b710876403548c1ad3edc7a7719c559" target="_top" xlink:title=" ">
<polygon fill="none" stroke="black" points="314,-38.5 314,-57.5 390,-57.5 390,-38.5 314,-38.5"/>
<text text-anchor="middle" x="352" y="-45.5" font-family="Helvetica,sans-Serif" font-size="10.00">js_malloc_rt</text>
</a>
</g>
</g>
<!-- Node13&#45;&gt;Node14 -->
<g id="edge13" class="edge">
<title>Node13&#45;&gt;Node14</title>
<path fill="none" stroke="midnightblue" d="M220.66,-32.62C244.2,-35.4 277.12,-39.28 303.98,-42.45"/>
<polygon fill="midnightblue" stroke="midnightblue" points="303.61,-45.93 313.95,-43.63 304.43,-38.98 303.61,-45.93"/>
</g>
<!-- Node15 -->
<g id="node15" class="node">
<title>Node15</title>
<g id="a_node15"><a xlink:href="quickjs_8c.html#a344d6c0e45d9bf3861fd9269724045a2" target="_top" xlink:title=" ">
<polygon fill="none" stroke="black" points="287,-0.5 287,-19.5 417,-19.5 417,-0.5 287,-0.5"/>
<text text-anchor="middle" x="352" y="-7.5" font-family="Helvetica,sans-Serif" font-size="10.00">JS_ThrowOutOfMemory</text>
</a>
</g>
</g>
<!-- Node13&#45;&gt;Node15 -->
<g id="edge14" class="edge">
<title>Node13&#45;&gt;Node15</title>
<path fill="none" stroke="midnightblue" d="M220.66,-25.38C236.66,-23.49 256.99,-21.09 276.81,-18.76"/>
<polygon fill="midnightblue" stroke="midnightblue" points="277.27,-22.23 286.79,-17.58 276.45,-15.27 277.27,-22.23"/>
</g>
<!-- Node16 -->
<g id="node16" class="node">
<title>Node16</title>
<g id="a_node16"><a xlink:href="quickjs_8c.html#a853f0924d441ea4225488f37c8b69f9a" target="_top" xlink:title=" ">
<polygon fill="none" stroke="black" points="453,-0.5 453,-19.5 533,-19.5 533,-0.5 453,-0.5"/>
<text text-anchor="middle" x="493" y="-7.5" font-family="Helvetica,sans-Serif" font-size="10.00">__attribute__</text>
</a>
</g>
</g>
<!-- Node15&#45;&gt;Node16 -->
<g id="edge15" class="edge">
<title>Node15&#45;&gt;Node16</title>
<path fill="none" stroke="midnightblue" d="M417.21,-10C425.71,-10 434.32,-10 442.52,-10"/>
<polygon fill="midnightblue" stroke="midnightblue" points="442.66,-13.5 452.66,-10 442.66,-6.5 442.66,-13.5"/>
</g>
</g>
</svg>
