<?xml version="1.0" encoding="UTF-8" standalone="no"?>
<!DOCTYPE svg PUBLIC "-//W3C//DTD SVG 1.1//EN"
 "http://www.w3.org/Graphics/SVG/1.1/DTD/svg11.dtd">
<!-- Generated by graphviz version 2.43.0 (0)
 -->
<!-- Title: string_buffer_putc16 Pages: 1 -->
<!--zoomable 180 -->
<svg id="main" version="1.1" xmlns="http://www.w3.org/2000/svg" xmlns:xlink="http://www.w3.org/1999/xlink" xml:space="preserve" onload="init(evt)">
<style type="text/css"><![CDATA[
.edge:hover path { stroke: red; }
.edge:hover polygon { stroke: red; fill: red; }
]]></style>
<script type="text/javascript"><![CDATA[
var edges = document.getElementsByTagName('g');
if (edges && edges.length) {
  for (var i=0;i<edges.length;i++) {
    if (edges[i].id.substr(0,4)=='edge') {
      edges[i].setAttribute('class','edge');
    }
  }
}
]]></script>
        <defs>
                <circle id="rim" cx="0" cy="0" r="7"/>
                <circle id="rim2" cx="0" cy="0" r="3.5"/>
                <g id="zoomPlus">
                        <use xlink:href="#rim" fill="#404040">
                                <set attributeName="fill" to="#808080" begin="zoomplus.mouseover" end="zoomplus.mouseout"/>
                        </use>
                        <path d="M-4,0h8M0,-4v8" fill="none" stroke="white" stroke-width="1.5" pointer-events="none"/>
                </g>
                <g id="zoomMin">
                        <use xlink:href="#rim" fill="#404040">
                                <set attributeName="fill" to="#808080" begin="zoomminus.mouseover" end="zoomminus.mouseout"/>
                        </use>
                        <path d="M-4,0h8" fill="none" stroke="white" stroke-width="1.5" pointer-events="none"/>
                </g>
                <g id="dirArrow">
                        <path fill="none" stroke="white" stroke-width="1.5" d="M0,-3.0v7 M-2.5,-0.5L0,-3.0L2.5,-0.5"/>
                </g>
               <g id="resetDef">
                       <use xlink:href="#rim2" fill="#404040">
                               <set attributeName="fill" to="#808080" begin="reset.mouseover" end="reset.mouseout"/>
                       </use>
               </g>
        </defs>

<script type="text/javascript">
var viewWidth = 756;
var viewHeight = 180;
var sectionId = 'dynsection-319';
</script>
<script xlink:href="svgpan.js"/>
<svg id="graph" class="graph">
<g id="viewport">
<title>string_buffer_putc16</title>
<!-- Node1 -->
<g id="node1" class="node">
<title>Node1</title>
<g id="a_node1"><a xlink:title=" ">
<polygon fill="#bfbfbf" stroke="black" points="0,-38.5 0,-57.5 116,-57.5 116,-38.5 0,-38.5"/>
<text text-anchor="middle" x="58" y="-45.5" font-family="Helvetica,sans-Serif" font-size="10.00">string_buffer_putc16</text>
</a>
</g>
</g>
<!-- Node2 -->
<g id="node2" class="node">
<title>Node2</title>
<g id="a_node2"><a xlink:href="quickjs_8c.html#a08e52b8382e2347db73c950c39af413c" target="_top" xlink:title=" ">
<polygon fill="none" stroke="black" points="152,-38.5 152,-57.5 284,-57.5 284,-38.5 152,-38.5"/>
<text text-anchor="middle" x="218" y="-45.5" font-family="Helvetica,sans-Serif" font-size="10.00">string_buffer_putc_slow</text>
</a>
</g>
</g>
<!-- Node1&#45;&gt;Node2 -->
<g id="edge1" class="edge">
<title>Node1&#45;&gt;Node2</title>
<path fill="none" stroke="midnightblue" d="M116.04,-48C124.43,-48 133.17,-48 141.86,-48"/>
<polygon fill="midnightblue" stroke="midnightblue" points="141.99,-51.5 151.99,-48 141.99,-44.5 141.99,-51.5"/>
</g>
<!-- Node3 -->
<g id="node3" class="node">
<title>Node3</title>
<g id="a_node3"><a xlink:href="quickjs_8c.html#a317ccdca83843c76330ace89fb055b56" target="_top" xlink:title=" ">
<polygon fill="none" stroke="black" points="320,-66.5 320,-85.5 436,-85.5 436,-66.5 320,-66.5"/>
<text text-anchor="middle" x="378" y="-73.5" font-family="Helvetica,sans-Serif" font-size="10.00">string_buffer_realloc</text>
</a>
</g>
</g>
<!-- Node2&#45;&gt;Node3 -->
<g id="edge2" class="edge">
<title>Node2&#45;&gt;Node3</title>
<path fill="none" stroke="midnightblue" d="M272.93,-57.56C285.9,-59.86 299.87,-62.33 313.23,-64.7"/>
<polygon fill="midnightblue" stroke="midnightblue" points="312.85,-68.19 323.31,-66.49 314.07,-61.29 312.85,-68.19"/>
</g>
<!-- Node10 -->
<g id="node8" class="node">
<title>Node10</title>
<g id="a_node8"><a xlink:href="quickjs_8c.html#a3a6ad85d7c6ef1ba1854e51b762ee0ea" target="_top" xlink:title=" ">
<polygon fill="none" stroke="black" points="472,-0.5 472,-19.5 585,-19.5 585,-0.5 472,-0.5"/>
<text text-anchor="middle" x="528.5" y="-7.5" font-family="Helvetica,sans-Serif" font-size="10.00">string_buffer_widen</text>
</a>
</g>
</g>
<!-- Node2&#45;&gt;Node10 -->
<g id="edge9" class="edge">
<title>Node2&#45;&gt;Node10</title>
<path fill="none" stroke="midnightblue" d="M284.05,-39.99C336.25,-33.56 409.23,-24.57 461.64,-18.11"/>
<polygon fill="midnightblue" stroke="midnightblue" points="462.34,-21.55 471.84,-16.86 461.49,-14.6 462.34,-21.55"/>
</g>
<!-- Node4 -->
<g id="node4" class="node">
<title>Node4</title>
<g id="a_node4"><a xlink:href="quickjs_8c.html#a853f0924d441ea4225488f37c8b69f9a" target="_top" xlink:title=" ">
<polygon fill="none" stroke="black" points="488.5,-152.5 488.5,-171.5 568.5,-171.5 568.5,-152.5 488.5,-152.5"/>
<text text-anchor="middle" x="528.5" y="-159.5" font-family="Helvetica,sans-Serif" font-size="10.00">__attribute__</text>
</a>
</g>
</g>
<!-- Node3&#45;&gt;Node4 -->
<g id="edge3" class="edge">
<title>Node3&#45;&gt;Node4</title>
<path fill="none" stroke="midnightblue" d="M390.03,-85.62C406.76,-99.82 440,-126.46 472,-143 476.03,-145.08 480.33,-147.01 484.7,-148.79"/>
<polygon fill="midnightblue" stroke="midnightblue" points="483.67,-152.14 494.26,-152.4 486.15,-145.59 483.67,-152.14"/>
</g>
<!-- Node5 -->
<g id="node5" class="node">
<title>Node5</title>
<g id="a_node5"><a xlink:href="cutils_8h.html#a94f155fcce337a2b9d4719ed8042cbbe" target="_top" xlink:title=" ">
<polygon fill="none" stroke="black" points="500.5,-114.5 500.5,-133.5 556.5,-133.5 556.5,-114.5 500.5,-114.5"/>
<text text-anchor="middle" x="528.5" y="-121.5" font-family="Helvetica,sans-Serif" font-size="10.00">max_int</text>
</a>
</g>
</g>
<!-- Node3&#45;&gt;Node5 -->
<g id="edge4" class="edge">
<title>Node3&#45;&gt;Node5</title>
<path fill="none" stroke="midnightblue" d="M408.69,-85.6C432.31,-93.23 465.46,-103.95 490.74,-112.12"/>
<polygon fill="midnightblue" stroke="midnightblue" points="489.77,-115.48 500.36,-115.23 491.92,-108.82 489.77,-115.48"/>
</g>
<!-- Node6 -->
<g id="node6" class="node">
<title>Node6</title>
<g id="a_node6"><a xlink:href="cutils_8h.html#a29a7a26d9387c01c1b4e9fe4fff5704a" target="_top" xlink:title=" ">
<polygon fill="none" stroke="black" points="502,-76.5 502,-95.5 555,-95.5 555,-76.5 502,-76.5"/>
<text text-anchor="middle" x="528.5" y="-83.5" font-family="Helvetica,sans-Serif" font-size="10.00">min_int</text>
</a>
</g>
</g>
<!-- Node3&#45;&gt;Node6 -->
<g id="edge5" class="edge">
<title>Node3&#45;&gt;Node6</title>
<path fill="none" stroke="midnightblue" d="M436.41,-79.87C454.89,-81.11 474.84,-82.45 491.34,-83.57"/>
<polygon fill="midnightblue" stroke="midnightblue" points="491.43,-87.08 501.64,-84.26 491.9,-80.09 491.43,-87.08"/>
</g>
<!-- Node7 -->
<g id="node7" class="node">
<title>Node7</title>
<g id="a_node7"><a xlink:href="quickjs_8c.html#a85744d3012cd123d2c7d27ef7a4e7ddf" target="_top" xlink:title=" ">
<polygon fill="none" stroke="red" points="621,-19.5 621,-38.5 748,-38.5 748,-19.5 621,-19.5"/>
<text text-anchor="middle" x="684.5" y="-26.5" font-family="Helvetica,sans-Serif" font-size="10.00">string_buffer_set_error</text>
</a>
</g>
</g>
<!-- Node3&#45;&gt;Node7 -->
<g id="edge6" class="edge">
<title>Node3&#45;&gt;Node7</title>
<path fill="none" stroke="midnightblue" d="M436.27,-67.16C485.96,-59.49 558.12,-48.35 611.66,-40.09"/>
<polygon fill="midnightblue" stroke="midnightblue" points="612.42,-43.51 621.77,-38.53 611.36,-36.59 612.42,-43.51"/>
</g>
<!-- Node3&#45;&gt;Node10 -->
<g id="edge7" class="edge">
<title>Node3&#45;&gt;Node10</title>
<path fill="none" stroke="midnightblue" d="M400.01,-66.4C418.83,-57.82 447.21,-44.96 472,-34 479.71,-30.59 488.05,-26.96 495.86,-23.58"/>
<polygon fill="midnightblue" stroke="midnightblue" points="497.26,-26.79 505.05,-19.61 494.48,-20.36 497.26,-26.79"/>
</g>
<!-- Node10&#45;&gt;Node7 -->
<g id="edge8" class="edge">
<title>Node10&#45;&gt;Node7</title>
<path fill="none" stroke="midnightblue" d="M585.1,-16.86C593.46,-17.89 602.18,-18.97 610.83,-20.03"/>
<polygon fill="midnightblue" stroke="midnightblue" points="610.58,-23.53 620.93,-21.28 611.44,-16.58 610.58,-23.53"/>
</g>
</g>
</svg>
        <g id="navigator" transform="translate(0 0)" fill="#404254">
                <rect fill="#f2f5e9" fill-opacity="0.5" stroke="#606060" stroke-width=".5" x="0" y="0" width="60" height="60"/>
                <use id="zoomplus" xlink:href="#zoomPlus" x="17" y="9" onmousedown="handleZoom(evt,'in')"/>
                <use id="zoomminus" xlink:href="#zoomMin" x="42" y="9" onmousedown="handleZoom(evt,'out')"/>
                <use id="reset" xlink:href="#resetDef" x="30" y="36" onmousedown="handleReset()"/>
                <g id="arrowUp" xlink:href="#dirArrow" transform="translate(30 24)" onmousedown="handlePan(0,-1)">
                  <use xlink:href="#rim" fill="#404040">
                        <set attributeName="fill" to="#808080" begin="arrowUp.mouseover" end="arrowUp.mouseout"/>
                  </use>
                  <path fill="none" stroke="white" stroke-width="1.5" d="M0,-3.0v7 M-2.5,-0.5L0,-3.0L2.5,-0.5"/>
                </g>
                <g id="arrowRight" xlink:href="#dirArrow" transform="rotate(90) translate(36 -43)" onmousedown="handlePan(1,0)">
                  <use xlink:href="#rim" fill="#404040">
                        <set attributeName="fill" to="#808080" begin="arrowRight.mouseover" end="arrowRight.mouseout"/>
                  </use>
                  <path fill="none" stroke="white" stroke-width="1.5" d="M0,-3.0v7 M-2.5,-0.5L0,-3.0L2.5,-0.5"/>
                </g>
                <g id="arrowDown" xlink:href="#dirArrow" transform="rotate(180) translate(-30 -48)" onmousedown="handlePan(0,1)">
                  <use xlink:href="#rim" fill="#404040">
                        <set attributeName="fill" to="#808080" begin="arrowDown.mouseover" end="arrowDown.mouseout"/>
                  </use>
                  <path fill="none" stroke="white" stroke-width="1.5" d="M0,-3.0v7 M-2.5,-0.5L0,-3.0L2.5,-0.5"/>
                </g>
                <g id="arrowLeft" xlink:href="#dirArrow" transform="rotate(270) translate(-36 17)" onmousedown="handlePan(-1,0)">
                  <use xlink:href="#rim" fill="#404040">
                        <set attributeName="fill" to="#808080" begin="arrowLeft.mouseover" end="arrowLeft.mouseout"/>
                  </use>
                  <path fill="none" stroke="white" stroke-width="1.5" d="M0,-3.0v7 M-2.5,-0.5L0,-3.0L2.5,-0.5"/>
                </g>
        </g>
        <svg viewBox="0 0 15 15" width="100%" height="30px" preserveAspectRatio="xMaxYMin meet">
         <g id="arrow_out" transform="scale(0.3 0.3)">
          <a xlink:href="quickjs_8c_a9b8fb6b5ce638616691f7bf7881fa57d_cgraph_org.svg" target="_base">
           <rect id="button" ry="5" rx="5" y="6" x="6" height="38" width="38"
                fill="#f2f5e9" fill-opacity="0.5" stroke="#606060" stroke-width="1.0"/>
           <path id="arrow"
             d="M 11.500037,31.436501 C 11.940474,20.09759 22.043105,11.32322 32.158766,21.979434 L 37.068811,17.246167 C 37.068811,17.246167 37.088388,32 37.088388,32 L 22.160133,31.978069 C 22.160133,31.978069 26.997745,27.140456 26.997745,27.140456 C 18.528582,18.264221 13.291696,25.230495 11.500037,31.436501 z"
             style="fill:#404040;"/>
          </a>
         </g>
        </svg>
</svg>
