<?xml version="1.0" encoding="UTF-8" standalone="no"?>
<!DOCTYPE svg PUBLIC "-//W3C//DTD SVG 1.1//EN"
 "http://www.w3.org/Graphics/SVG/1.1/DTD/svg11.dtd">
<!-- Generated by graphviz version 2.43.0 (0)
 -->
<!-- Title: js_reflect_set Pages: 1 -->
<svg width="908pt" height="561pt"
 viewBox="0.00 0.00 908.00 560.59" xmlns="http://www.w3.org/2000/svg" xmlns:xlink="http://www.w3.org/1999/xlink">
<g id="graph0" class="graph" transform="scale(1 1) rotate(0) translate(4 556.59)">
<title>js_reflect_set</title>
<!-- Node1 -->
<g id="node1" class="node">
<title>Node1</title>
<g id="a_node1"><a xlink:title=" ">
<polygon fill="#bfbfbf" stroke="black" points="0,-95.5 0,-114.5 81,-114.5 81,-95.5 0,-95.5"/>
<text text-anchor="middle" x="40.5" y="-102.5" font-family="Helvetica,sans-Serif" font-size="10.00">js_reflect_set</text>
</a>
</g>
</g>
<!-- Node2 -->
<g id="node2" class="node">
<title>Node2</title>
<g id="a_node2"><a xlink:href="quickjs_8h.html#a775522f2d084fc8fa0fcb33f390006b4" target="_top" xlink:title=" ">
<polygon fill="none" stroke="black" points="660.5,-418.5 660.5,-437.5 737.5,-437.5 737.5,-418.5 660.5,-418.5"/>
<text text-anchor="middle" x="699" y="-425.5" font-family="Helvetica,sans-Serif" font-size="10.00">JS_DupValue</text>
</a>
</g>
</g>
<!-- Node1&#45;&gt;Node2 -->
<g id="edge1" class="edge">
<title>Node1&#45;&gt;Node2</title>
<path fill="none" stroke="midnightblue" d="M42.7,-114.66C50.33,-171.07 97.58,-458.4 278,-542 321.88,-562.33 539.26,-548.69 586,-529 628.58,-511.06 665.67,-469.87 684.61,-446"/>
<polygon fill="midnightblue" stroke="midnightblue" points="687.61,-447.84 690.96,-437.78 682.07,-443.56 687.61,-447.84"/>
</g>
<!-- Node3 -->
<g id="node3" class="node">
<title>Node3</title>
<g id="a_node3"><a xlink:href="quickjs_8c.html#ab7fc45a99935a1c0ba50b0216d9401a9" target="_top" xlink:title=" ">
<polygon fill="none" stroke="black" points="140.5,-76.5 140.5,-95.5 218.5,-95.5 218.5,-76.5 140.5,-76.5"/>
<text text-anchor="middle" x="179.5" y="-83.5" font-family="Helvetica,sans-Serif" font-size="10.00">JS_FreeAtom</text>
</a>
</g>
</g>
<!-- Node1&#45;&gt;Node3 -->
<g id="edge2" class="edge">
<title>Node1&#45;&gt;Node3</title>
<path fill="none" stroke="midnightblue" d="M81.13,-99.5C96.43,-97.38 114.08,-94.93 130.11,-92.71"/>
<polygon fill="midnightblue" stroke="midnightblue" points="130.95,-96.13 140.38,-91.29 129.99,-89.19 130.95,-96.13"/>
</g>
<!-- Node9 -->
<g id="node7" class="node">
<title>Node9</title>
<g id="a_node7"><a xlink:href="quickjs_8h.html#a93abffa925714e249a6aa2f4ae7900f6" target="_top" xlink:title=" ">
<polygon fill="none" stroke="black" points="142.5,-38.5 142.5,-57.5 216.5,-57.5 216.5,-38.5 142.5,-38.5"/>
<text text-anchor="middle" x="179.5" y="-45.5" font-family="Helvetica,sans-Serif" font-size="10.00">JS_NewBool</text>
</a>
</g>
</g>
<!-- Node1&#45;&gt;Node9 -->
<g id="edge6" class="edge">
<title>Node1&#45;&gt;Node9</title>
<path fill="none" stroke="midnightblue" d="M58.51,-95.41C73.57,-87.17 96.31,-75.33 117,-67 122.51,-64.78 128.39,-62.66 134.24,-60.7"/>
<polygon fill="midnightblue" stroke="midnightblue" points="135.55,-63.96 143.99,-57.55 133.4,-57.29 135.55,-63.96"/>
</g>
<!-- Node10 -->
<g id="node8" class="node">
<title>Node10</title>
<g id="a_node8"><a xlink:href="quickjs_8c.html#a638e637d492ee889691691baba33c4bd" target="_top" xlink:title=" ">
<polygon fill="none" stroke="black" points="117,-323.5 117,-342.5 242,-342.5 242,-323.5 117,-323.5"/>
<text text-anchor="middle" x="179.5" y="-330.5" font-family="Helvetica,sans-Serif" font-size="10.00">JS_SetPropertyGeneric</text>
</a>
</g>
</g>
<!-- Node1&#45;&gt;Node10 -->
<g id="edge7" class="edge">
<title>Node1&#45;&gt;Node10</title>
<path fill="none" stroke="midnightblue" d="M47.21,-114.51C68.01,-149.13 139.95,-268.84 167.57,-314.82"/>
<polygon fill="midnightblue" stroke="midnightblue" points="164.61,-316.68 172.76,-323.45 170.61,-313.08 164.61,-316.68"/>
</g>
<!-- Node200 -->
<g id="node18" class="node">
<title>Node200</title>
<g id="a_node18"><a xlink:href="quickjs_8c.html#a726b00d108e0a0f4d958c36c2e426a64" target="_top" xlink:title=" ">
<polygon fill="none" stroke="black" points="418,-171.5 418,-190.5 586,-190.5 586,-171.5 418,-171.5"/>
<text text-anchor="middle" x="502" y="-178.5" font-family="Helvetica,sans-Serif" font-size="10.00">JS_ThrowTypeErrorNotAnObject</text>
</a>
</g>
</g>
<!-- Node1&#45;&gt;Node200 -->
<g id="edge34" class="edge">
<title>Node1&#45;&gt;Node200</title>
<path fill="none" stroke="midnightblue" d="M81.07,-111.55C159.6,-124.53 335.93,-153.7 433.26,-169.8"/>
<polygon fill="midnightblue" stroke="midnightblue" points="432.85,-173.28 443.29,-171.45 433.99,-166.37 432.85,-173.28"/>
</g>
<!-- Node153 -->
<g id="node21" class="node">
<title>Node153</title>
<g id="a_node21"><a xlink:href="quickjs_8c.html#a859d5c989a2aaecef1653b3ac279e108" target="_top" xlink:title=" ">
<polygon fill="none" stroke="red" points="132,-0.5 132,-19.5 227,-19.5 227,-0.5 132,-0.5"/>
<text text-anchor="middle" x="179.5" y="-7.5" font-family="Helvetica,sans-Serif" font-size="10.00">JS_ValueToAtom</text>
</a>
</g>
</g>
<!-- Node1&#45;&gt;Node153 -->
<g id="edge35" class="edge">
<title>Node1&#45;&gt;Node153</title>
<path fill="none" stroke="midnightblue" d="M48.51,-95.34C60.67,-79.26 87.24,-47.01 117,-29 120.45,-26.91 124.15,-25.03 127.96,-23.35"/>
<polygon fill="midnightblue" stroke="midnightblue" points="129.57,-26.48 137.58,-19.55 127,-19.97 129.57,-26.48"/>
</g>
<!-- Node4 -->
<g id="node4" class="node">
<title>Node4</title>
<g id="a_node4"><a xlink:href="quickjs_8c.html#a7f6796ee7a195631366f57c713a33f65" target="_top" xlink:title=" ">
<polygon fill="none" stroke="black" points="278,-76.5 278,-95.5 382,-95.5 382,-76.5 278,-76.5"/>
<text text-anchor="middle" x="330" y="-83.5" font-family="Helvetica,sans-Serif" font-size="10.00">__JS_AtomIsConst</text>
</a>
</g>
</g>
<!-- Node3&#45;&gt;Node4 -->
<g id="edge3" class="edge">
<title>Node3&#45;&gt;Node4</title>
<path fill="none" stroke="midnightblue" d="M218.74,-86C233.62,-86 251.03,-86 267.57,-86"/>
<polygon fill="midnightblue" stroke="midnightblue" points="267.73,-89.5 277.73,-86 267.73,-82.5 267.73,-89.5"/>
</g>
<!-- Node5 -->
<g id="node5" class="node">
<title>Node5</title>
<g id="a_node5"><a xlink:href="quickjs_8c.html#a0bbd9e3ecd55e3ea6c9d44bfda382095" target="_top" xlink:title=" ">
<polygon fill="none" stroke="black" points="285.5,-38.5 285.5,-57.5 374.5,-57.5 374.5,-38.5 285.5,-38.5"/>
<text text-anchor="middle" x="330" y="-45.5" font-family="Helvetica,sans-Serif" font-size="10.00">__JS_FreeAtom</text>
</a>
</g>
</g>
<!-- Node3&#45;&gt;Node5 -->
<g id="edge4" class="edge">
<title>Node3&#45;&gt;Node5</title>
<path fill="none" stroke="midnightblue" d="M217.97,-76.41C237.39,-71.44 261.3,-65.32 281.95,-60.04"/>
<polygon fill="midnightblue" stroke="midnightblue" points="282.98,-63.39 291.8,-57.52 281.24,-56.61 282.98,-63.39"/>
</g>
<!-- Node6 -->
<g id="node6" class="node">
<title>Node6</title>
<g id="a_node6"><a xlink:href="quickjs_8c.html#a58c8965dad50b15b75918a09f3d9dc7c" target="_top" xlink:title=" ">
<polygon fill="none" stroke="red" points="448.5,-38.5 448.5,-57.5 555.5,-57.5 555.5,-38.5 448.5,-38.5"/>
<text text-anchor="middle" x="502" y="-45.5" font-family="Helvetica,sans-Serif" font-size="10.00">JS_FreeAtomStruct</text>
</a>
</g>
</g>
<!-- Node5&#45;&gt;Node6 -->
<g id="edge5" class="edge">
<title>Node5&#45;&gt;Node6</title>
<path fill="none" stroke="midnightblue" d="M374.78,-48C394.06,-48 417.06,-48 438.12,-48"/>
<polygon fill="midnightblue" stroke="midnightblue" points="438.28,-51.5 448.28,-48 438.28,-44.5 438.28,-51.5"/>
</g>
<!-- Node10&#45;&gt;Node2 -->
<g id="edge27" class="edge">
<title>Node10&#45;&gt;Node2</title>
<path fill="none" stroke="midnightblue" d="M189.4,-342.5C205.39,-358.92 240.8,-392.33 278,-408 403.7,-460.97 569.67,-447.27 650.15,-436"/>
<polygon fill="midnightblue" stroke="midnightblue" points="651.07,-439.41 660.46,-434.51 650.06,-432.48 651.07,-439.41"/>
</g>
<!-- Node11 -->
<g id="node9" class="node">
<title>Node11</title>
<g id="a_node9"><a xlink:href="quickjs_8c.html#a014abd680db53ab89cb133345742a59c" target="_top" xlink:title=" ">
<polygon fill="none" stroke="black" points="659,-266.5 659,-285.5 739,-285.5 739,-266.5 659,-266.5"/>
<text text-anchor="middle" x="699" y="-273.5" font-family="Helvetica,sans-Serif" font-size="10.00">__attribute__</text>
</a>
</g>
</g>
<!-- Node10&#45;&gt;Node11 -->
<g id="edge8" class="edge">
<title>Node10&#45;&gt;Node11</title>
<path fill="none" stroke="midnightblue" d="M185.5,-323.47C197.99,-300.56 232.83,-241.93 278,-210 331.71,-172.03 353.12,-172.81 418,-162 491.65,-149.72 517.14,-133.12 586,-162 632.46,-181.49 669.36,-230.69 686.89,-257.64"/>
<polygon fill="midnightblue" stroke="midnightblue" points="683.97,-259.57 692.26,-266.17 689.89,-255.84 683.97,-259.57"/>
</g>
<!-- Node236 -->
<g id="node12" class="node">
<title>Node236</title>
<g id="a_node12"><a xlink:href="quickjs_8c.html#a3fb71f8d31b557ebebec82476999408a" target="_top" xlink:title=" ">
<polygon fill="none" stroke="red" points="296,-513.5 296,-532.5 364,-532.5 364,-513.5 296,-513.5"/>
<text text-anchor="middle" x="330" y="-520.5" font-family="Helvetica,sans-Serif" font-size="10.00">call_setter</text>
</a>
</g>
</g>
<!-- Node10&#45;&gt;Node236 -->
<g id="edge11" class="edge">
<title>Node10&#45;&gt;Node236</title>
<path fill="none" stroke="midnightblue" d="M183.79,-342.57C193.76,-370.29 226.16,-451.68 278,-499 282.11,-502.75 286.91,-506.02 291.89,-508.84"/>
<polygon fill="midnightblue" stroke="midnightblue" points="290.45,-512.03 300.95,-513.42 293.61,-505.78 290.45,-512.03"/>
</g>
<!-- Node37 -->
<g id="node13" class="node">
<title>Node37</title>
<g id="a_node13"><a xlink:href="quickjs_8h.html#afaa20c47565bc704c6c85f3d77254e7d" target="_top" xlink:title=" ">
<polygon fill="none" stroke="red" points="462.5,-475.5 462.5,-494.5 541.5,-494.5 541.5,-475.5 462.5,-475.5"/>
<text text-anchor="middle" x="502" y="-482.5" font-family="Helvetica,sans-Serif" font-size="10.00">JS_FreeValue</text>
</a>
</g>
</g>
<!-- Node10&#45;&gt;Node37 -->
<g id="edge28" class="edge">
<title>Node10&#45;&gt;Node37</title>
<path fill="none" stroke="midnightblue" d="M184.47,-342.51C195.29,-367.07 227.88,-432.73 278,-461 331.87,-491.38 404.75,-493.3 452.3,-490.38"/>
<polygon fill="midnightblue" stroke="midnightblue" points="452.62,-493.87 462.34,-489.67 452.12,-486.89 452.62,-493.87"/>
</g>
<!-- Node211 -->
<g id="node14" class="node">
<title>Node211</title>
<g id="a_node14"><a xlink:href="quickjs_8c.html#ad5565bb5cfd5321f181573257f3b0c91" target="_top" xlink:title=" ">
<polygon fill="none" stroke="red" points="450,-285.5 450,-304.5 554,-304.5 554,-285.5 450,-285.5"/>
<text text-anchor="middle" x="502" y="-292.5" font-family="Helvetica,sans-Serif" font-size="10.00">JS_CreateProperty</text>
</a>
</g>
</g>
<!-- Node10&#45;&gt;Node211 -->
<g id="edge15" class="edge">
<title>Node10&#45;&gt;Node211</title>
<path fill="none" stroke="midnightblue" d="M242.35,-328.2C282.27,-324.85 335.29,-319.92 382,-314 400.83,-311.61 421.25,-308.53 439.78,-305.55"/>
<polygon fill="midnightblue" stroke="midnightblue" points="440.54,-308.97 449.85,-303.91 439.42,-302.06 440.54,-308.97"/>
</g>
<!-- Node213 -->
<g id="node15" class="node">
<title>Node213</title>
<g id="a_node15"><a xlink:href="quickjs_8c.html#adba489eac6c2332de312326782457940" target="_top" xlink:title=" ">
<polygon fill="none" stroke="black" points="622,-304.5 622,-323.5 776,-323.5 776,-304.5 622,-304.5"/>
<text text-anchor="middle" x="699" y="-311.5" font-family="Helvetica,sans-Serif" font-size="10.00">JS_ThrowTypeErrorReadOnly</text>
</a>
</g>
</g>
<!-- Node10&#45;&gt;Node213 -->
<g id="edge33" class="edge">
<title>Node10&#45;&gt;Node213</title>
<path fill="none" stroke="midnightblue" d="M242.25,-333.96C282.13,-334.34 335.14,-334.41 382,-333 459.67,-330.67 547.93,-325.12 611.39,-320.61"/>
<polygon fill="midnightblue" stroke="midnightblue" points="612.03,-324.08 621.75,-319.87 611.53,-317.09 612.03,-324.08"/>
</g>
<!-- Node207 -->
<g id="node16" class="node">
<title>Node207</title>
<g id="a_node16"><a xlink:href="quickjs_8c.html#ab50618f1bf78e444caa6da0e3e2785d7" target="_top" xlink:title=" ">
<polygon fill="none" stroke="red" points="278,-285.5 278,-304.5 382,-304.5 382,-285.5 278,-285.5"/>
<text text-anchor="middle" x="330" y="-292.5" font-family="Helvetica,sans-Serif" font-size="10.00">JS_DefineProperty</text>
</a>
</g>
</g>
<!-- Node10&#45;&gt;Node207 -->
<g id="edge20" class="edge">
<title>Node10&#45;&gt;Node207</title>
<path fill="none" stroke="midnightblue" d="M217.97,-323.41C237.39,-318.44 261.3,-312.32 281.95,-307.04"/>
<polygon fill="midnightblue" stroke="midnightblue" points="282.98,-310.39 291.8,-304.52 281.24,-303.61 282.98,-310.39"/>
</g>
<!-- Node146 -->
<g id="node17" class="node">
<title>Node146</title>
<g id="a_node17"><a xlink:href="quickjs_8h.html#a4e407128a9605afb77523e49e9a627fd" target="_top" xlink:title=" ">
<polygon fill="none" stroke="black" points="457.5,-209.5 457.5,-228.5 546.5,-228.5 546.5,-209.5 457.5,-209.5"/>
<text text-anchor="middle" x="502" y="-216.5" font-family="Helvetica,sans-Serif" font-size="10.00">JS_IsUndefined</text>
</a>
</g>
</g>
<!-- Node10&#45;&gt;Node146 -->
<g id="edge32" class="edge">
<title>Node10&#45;&gt;Node146</title>
<path fill="none" stroke="midnightblue" d="M186.9,-323.27C200.74,-303.18 235.66,-257.35 278,-238 331.72,-213.45 400.26,-211.35 447.09,-213.7"/>
<polygon fill="midnightblue" stroke="midnightblue" points="447.14,-217.21 457.33,-214.31 447.55,-210.22 447.14,-217.21"/>
</g>
<!-- Node304 -->
<g id="node19" class="node">
<title>Node304</title>
<g id="a_node19"><a xlink:href="quickjs_8c.html#ad13892c0a0f11781b566808876658099" target="_top" xlink:title=" ">
<polygon fill="none" stroke="red" points="427.5,-399.5 427.5,-418.5 576.5,-418.5 576.5,-399.5 427.5,-399.5"/>
<text text-anchor="middle" x="502" y="-406.5" font-family="Helvetica,sans-Serif" font-size="10.00">JS_GetOwnPropertyInternal</text>
</a>
</g>
</g>
<!-- Node10&#45;&gt;Node304 -->
<g id="edge29" class="edge">
<title>Node10&#45;&gt;Node304</title>
<path fill="none" stroke="midnightblue" d="M194.28,-342.57C212.52,-354.69 246.1,-375.18 278,-385 322.79,-398.79 374.75,-404.91 417.25,-407.54"/>
<polygon fill="midnightblue" stroke="midnightblue" points="417.09,-411.03 427.27,-408.1 417.49,-404.05 417.09,-411.03"/>
</g>
<!-- Node283 -->
<g id="node20" class="node">
<title>Node283</title>
<g id="a_node20"><a xlink:href="quickjs_8h.html#a3d68fe446df2d9c7d1900b16371bff5b" target="_top" xlink:title=" ">
<polygon fill="none" stroke="black" points="294.5,-247.5 294.5,-266.5 365.5,-266.5 365.5,-247.5 294.5,-247.5"/>
<text text-anchor="middle" x="330" y="-254.5" font-family="Helvetica,sans-Serif" font-size="10.00">JS_IsObject</text>
</a>
</g>
</g>
<!-- Node10&#45;&gt;Node283 -->
<g id="edge31" class="edge">
<title>Node10&#45;&gt;Node283</title>
<path fill="none" stroke="midnightblue" d="M194.94,-323.49C213.6,-311.46 247.35,-290.53 278,-276 282.31,-273.96 286.9,-271.98 291.5,-270.12"/>
<polygon fill="midnightblue" stroke="midnightblue" points="292.79,-273.38 300.85,-266.5 290.26,-266.85 292.79,-273.38"/>
</g>
<!-- Node12 -->
<g id="node10" class="node">
<title>Node12</title>
<g id="a_node10"><a xlink:href="quickjs_8c.html#a686cf78f8b0361621ee2ba6182195c31" target="_top" xlink:title=" ">
<polygon fill="none" stroke="black" points="812,-304.5 812,-323.5 900,-323.5 900,-304.5 812,-304.5"/>
<text text-anchor="middle" x="856" y="-311.5" font-family="Helvetica,sans-Serif" font-size="10.00">is_strict_mode</text>
</a>
</g>
</g>
<!-- Node11&#45;&gt;Node12 -->
<g id="edge9" class="edge">
<title>Node11&#45;&gt;Node12</title>
<path fill="none" stroke="midnightblue" d="M739.11,-285.59C759.47,-290.58 784.57,-296.73 806.19,-302.03"/>
<polygon fill="midnightblue" stroke="midnightblue" points="805.62,-305.5 816.17,-304.48 807.29,-298.7 805.62,-305.5"/>
</g>
<!-- Node13 -->
<g id="node11" class="node">
<title>Node13</title>
<g id="a_node11"><a xlink:href="quickjs_8c.html#a1b110b017211230b8b6310e853cd2b54" target="_top" xlink:title=" ">
<polygon fill="none" stroke="red" points="814,-266.5 814,-285.5 898,-285.5 898,-266.5 814,-266.5"/>
<text text-anchor="middle" x="856" y="-273.5" font-family="Helvetica,sans-Serif" font-size="10.00">JS_ThrowError</text>
</a>
</g>
</g>
<!-- Node11&#45;&gt;Node13 -->
<g id="edge10" class="edge">
<title>Node11&#45;&gt;Node13</title>
<path fill="none" stroke="midnightblue" d="M739.11,-276C758.69,-276 782.64,-276 803.67,-276"/>
<polygon fill="midnightblue" stroke="midnightblue" points="803.73,-279.5 813.73,-276 803.73,-272.5 803.73,-279.5"/>
</g>
<!-- Node236&#45;&gt;Node2 -->
<g id="edge13" class="edge">
<title>Node236&#45;&gt;Node2</title>
<path fill="none" stroke="midnightblue" d="M364.3,-525.87C414.07,-528.99 510.12,-530.44 586,-504 623.06,-491.09 659.42,-462.68 680.24,-444.49"/>
<polygon fill="midnightblue" stroke="midnightblue" points="682.79,-446.9 687.91,-437.62 678.13,-441.68 682.79,-446.9"/>
</g>
<!-- Node236&#45;&gt;Node12 -->
<g id="edge12" class="edge">
<title>Node236&#45;&gt;Node12</title>
<path fill="none" stroke="midnightblue" d="M364.03,-528.48C413.06,-535.56 507.72,-545.17 586,-529 676.07,-510.39 706.92,-507.72 776,-447 812.49,-414.93 836.85,-361.77 848.01,-333.35"/>
<polygon fill="midnightblue" stroke="midnightblue" points="851.37,-334.35 851.64,-323.76 844.83,-331.87 851.37,-334.35"/>
</g>
<!-- Node236&#45;&gt;Node37 -->
<g id="edge14" class="edge">
<title>Node236&#45;&gt;Node37</title>
<path fill="none" stroke="midnightblue" d="M364.18,-515.58C389.22,-509.99 423.97,-502.22 452.18,-495.91"/>
<polygon fill="midnightblue" stroke="midnightblue" points="453.25,-499.26 462.25,-493.66 451.73,-492.43 453.25,-499.26"/>
</g>
<!-- Node211&#45;&gt;Node2 -->
<g id="edge17" class="edge">
<title>Node211&#45;&gt;Node2</title>
<path fill="none" stroke="midnightblue" d="M551.17,-304.62C563.03,-308.13 575.37,-312.82 586,-319 627.57,-343.17 665.26,-386.12 684.52,-410.26"/>
<polygon fill="midnightblue" stroke="midnightblue" points="681.84,-412.51 690.76,-418.23 687.35,-408.2 681.84,-412.51"/>
</g>
<!-- Node211&#45;&gt;Node11 -->
<g id="edge16" class="edge">
<title>Node211&#45;&gt;Node11</title>
<path fill="none" stroke="midnightblue" d="M554.23,-290.01C583.38,-287.17 619.7,-283.63 648.55,-280.82"/>
<polygon fill="midnightblue" stroke="midnightblue" points="649.2,-284.27 658.81,-279.82 648.52,-277.3 649.2,-284.27"/>
</g>
<!-- Node211&#45;&gt;Node213 -->
<g id="edge18" class="edge">
<title>Node211&#45;&gt;Node213</title>
<path fill="none" stroke="midnightblue" d="M554.23,-299.99C571.82,-301.71 592.02,-303.67 611.61,-305.58"/>
<polygon fill="midnightblue" stroke="midnightblue" points="611.49,-309.09 621.78,-306.57 612.17,-302.12 611.49,-309.09"/>
</g>
<!-- Node213&#45;&gt;Node12 -->
<g id="edge19" class="edge">
<title>Node213&#45;&gt;Node12</title>
<path fill="none" stroke="midnightblue" d="M776.14,-314C784.75,-314 793.39,-314 801.62,-314"/>
<polygon fill="midnightblue" stroke="midnightblue" points="801.8,-317.5 811.8,-314 801.8,-310.5 801.8,-317.5"/>
</g>
<!-- Node207&#45;&gt;Node2 -->
<g id="edge23" class="edge">
<title>Node207&#45;&gt;Node2</title>
<path fill="none" stroke="midnightblue" d="M357.39,-304.57C421.91,-327.95 587.7,-388.03 661.56,-414.79"/>
<polygon fill="midnightblue" stroke="midnightblue" points="660.76,-418.23 671.35,-418.34 663.14,-411.65 660.76,-418.23"/>
</g>
<!-- Node207&#45;&gt;Node11 -->
<g id="edge21" class="edge">
<title>Node207&#45;&gt;Node11</title>
<path fill="none" stroke="midnightblue" d="M366.27,-285.49C381.98,-281.73 400.78,-277.86 418,-276 498.53,-267.31 592.85,-269.93 648.9,-272.82"/>
<polygon fill="midnightblue" stroke="midnightblue" points="648.73,-276.32 658.9,-273.36 649.11,-269.33 648.73,-276.32"/>
</g>
<!-- Node207&#45;&gt;Node37 -->
<g id="edge24" class="edge">
<title>Node207&#45;&gt;Node37</title>
<path fill="none" stroke="midnightblue" d="M335.61,-304.59C347.08,-327.79 378.84,-387.95 418,-428 434.5,-444.87 456.68,-459.8 473.96,-470.14"/>
<polygon fill="midnightblue" stroke="midnightblue" points="472.58,-473.39 482.99,-475.4 476.11,-467.35 472.58,-473.39"/>
</g>
<!-- Node207&#45;&gt;Node211 -->
<g id="edge22" class="edge">
<title>Node207&#45;&gt;Node211</title>
<path fill="none" stroke="midnightblue" d="M382.01,-295C400.16,-295 420.79,-295 439.72,-295"/>
<polygon fill="midnightblue" stroke="midnightblue" points="439.74,-298.5 449.74,-295 439.74,-291.5 439.74,-298.5"/>
</g>
<!-- Node207&#45;&gt;Node146 -->
<g id="edge25" class="edge">
<title>Node207&#45;&gt;Node146</title>
<path fill="none" stroke="midnightblue" d="M362.37,-285.49C369.08,-282.86 375.96,-279.7 382,-276 400.51,-264.67 399.08,-253.63 418,-243 427.12,-237.88 437.43,-233.77 447.6,-230.49"/>
<polygon fill="midnightblue" stroke="midnightblue" points="448.69,-233.82 457.27,-227.61 446.68,-227.12 448.69,-233.82"/>
</g>
<!-- Node207&#45;&gt;Node200 -->
<g id="edge26" class="edge">
<title>Node207&#45;&gt;Node200</title>
<path fill="none" stroke="midnightblue" d="M367.56,-285.38C372.8,-282.91 377.82,-279.83 382,-276 409.54,-250.73 388.86,-223.41 418,-200 420.07,-198.34 422.25,-196.82 424.53,-195.43"/>
<polygon fill="midnightblue" stroke="midnightblue" points="426.44,-198.38 433.7,-190.66 423.22,-192.16 426.44,-198.38"/>
</g>
<!-- Node304&#45;&gt;Node2 -->
<g id="edge30" class="edge">
<title>Node304&#45;&gt;Node2</title>
<path fill="none" stroke="midnightblue" d="M576.72,-416.18C601.3,-418.58 628.03,-421.18 650.12,-423.33"/>
<polygon fill="midnightblue" stroke="midnightblue" points="649.95,-426.83 660.24,-424.32 650.63,-419.87 649.95,-426.83"/>
</g>
</g>
</svg>
