<?xml version="1.0" encoding="UTF-8" standalone="no"?>
<!DOCTYPE svg PUBLIC "-//W3C//DTD SVG 1.1//EN"
 "http://www.w3.org/Graphics/SVG/1.1/DTD/svg11.dtd">
<!-- Generated by graphviz version 2.43.0 (0)
 -->
<!-- Title: js_date_Symbol_toPrimitive Pages: 1 -->
<svg width="766pt" height="365pt"
 viewBox="0.00 0.00 766.00 365.00" xmlns="http://www.w3.org/2000/svg" xmlns:xlink="http://www.w3.org/1999/xlink">
<g id="graph0" class="graph" transform="scale(1 1) rotate(0) translate(4 361)">
<title>js_date_Symbol_toPrimitive</title>
<!-- Node1 -->
<g id="node1" class="node">
<title>Node1</title>
<g id="a_node1"><a xlink:title=" ">
<polygon fill="#bfbfbf" stroke="black" points="0,-199.5 0,-218.5 153,-218.5 153,-199.5 0,-199.5"/>
<text text-anchor="middle" x="76.5" y="-206.5" font-family="Helvetica,sans-Serif" font-size="10.00">js_date_Symbol_toPrimitive</text>
</a>
</g>
</g>
<!-- Node2 -->
<g id="node2" class="node">
<title>Node2</title>
<g id="a_node2"><a xlink:href="quickjs_8c.html#ab7fc45a99935a1c0ba50b0216d9401a9" target="_top" xlink:title=" ">
<polygon fill="none" stroke="black" points="234,-299.5 234,-318.5 312,-318.5 312,-299.5 234,-299.5"/>
<text text-anchor="middle" x="273" y="-306.5" font-family="Helvetica,sans-Serif" font-size="10.00">JS_FreeAtom</text>
</a>
</g>
</g>
<!-- Node1&#45;&gt;Node2 -->
<g id="edge1" class="edge">
<title>Node1&#45;&gt;Node2</title>
<path fill="none" stroke="midnightblue" d="M88.8,-218.52C108.14,-234.39 149.36,-266.35 189,-285 200.03,-290.19 212.42,-294.5 224.19,-297.97"/>
<polygon fill="midnightblue" stroke="midnightblue" points="223.32,-301.36 233.89,-300.69 225.21,-294.62 223.32,-301.36"/>
</g>
<!-- Node8 -->
<g id="node6" class="node">
<title>Node8</title>
<g id="a_node6"><a xlink:href="quickjs_8h.html#a3d68fe446df2d9c7d1900b16371bff5b" target="_top" xlink:title=" ">
<polygon fill="none" stroke="black" points="237.5,-256.5 237.5,-275.5 308.5,-275.5 308.5,-256.5 237.5,-256.5"/>
<text text-anchor="middle" x="273" y="-263.5" font-family="Helvetica,sans-Serif" font-size="10.00">JS_IsObject</text>
</a>
</g>
</g>
<!-- Node1&#45;&gt;Node8 -->
<g id="edge5" class="edge">
<title>Node1&#45;&gt;Node8</title>
<path fill="none" stroke="midnightblue" d="M102.95,-218.51C125.4,-226.7 159.1,-238.51 189,-247 201.45,-250.54 215.1,-253.88 227.67,-256.74"/>
<polygon fill="midnightblue" stroke="midnightblue" points="226.95,-260.17 237.47,-258.93 228.48,-253.34 226.95,-260.17"/>
</g>
<!-- Node9 -->
<g id="node7" class="node">
<title>Node9</title>
<g id="a_node7"><a xlink:href="quickjs_8h.html#aa53b9197dc6d5770e3a080c1e335f7cb" target="_top" xlink:title=" ">
<polygon fill="none" stroke="black" points="239,-218.5 239,-237.5 307,-237.5 307,-218.5 239,-218.5"/>
<text text-anchor="middle" x="273" y="-225.5" font-family="Helvetica,sans-Serif" font-size="10.00">JS_IsString</text>
</a>
</g>
</g>
<!-- Node1&#45;&gt;Node9 -->
<g id="edge6" class="edge">
<title>Node1&#45;&gt;Node9</title>
<path fill="none" stroke="midnightblue" d="M153.26,-216.4C178.85,-218.9 206.54,-221.61 228.74,-223.77"/>
<polygon fill="midnightblue" stroke="midnightblue" points="228.55,-227.27 238.84,-224.76 229.23,-220.31 228.55,-227.27"/>
</g>
<!-- Node10 -->
<g id="node8" class="node">
<title>Node10</title>
<g id="a_node8"><a xlink:href="quickjs_8c.html#a726b00d108e0a0f4d958c36c2e426a64" target="_top" xlink:title=" ">
<polygon fill="none" stroke="black" points="189,-180.5 189,-199.5 357,-199.5 357,-180.5 189,-180.5"/>
<text text-anchor="middle" x="273" y="-187.5" font-family="Helvetica,sans-Serif" font-size="10.00">JS_ThrowTypeErrorNotAnObject</text>
</a>
</g>
</g>
<!-- Node1&#45;&gt;Node10 -->
<g id="edge7" class="edge">
<title>Node1&#45;&gt;Node10</title>
<path fill="none" stroke="midnightblue" d="M153.26,-201.6C161.61,-200.78 170.19,-199.95 178.73,-199.11"/>
<polygon fill="midnightblue" stroke="midnightblue" points="179.11,-202.59 188.72,-198.14 178.43,-195.62 179.11,-202.59"/>
</g>
<!-- Node11 -->
<g id="node9" class="node">
<title>Node11</title>
<g id="a_node9"><a xlink:href="quickjs_8c.html#a2b8df609710fa689dd50b4bd18df2493" target="_top" xlink:title=" ">
<polygon fill="none" stroke="black" points="230,-142.5 230,-161.5 316,-161.5 316,-142.5 230,-142.5"/>
<text text-anchor="middle" x="273" y="-149.5" font-family="Helvetica,sans-Serif" font-size="10.00">JS_ToPrimitive</text>
</a>
</g>
</g>
<!-- Node1&#45;&gt;Node11 -->
<g id="edge8" class="edge">
<title>Node1&#45;&gt;Node11</title>
<path fill="none" stroke="midnightblue" d="M102.95,-199.49C125.4,-191.3 159.1,-179.49 189,-171 199.02,-168.15 209.82,-165.43 220.2,-162.99"/>
<polygon fill="midnightblue" stroke="midnightblue" points="221.03,-166.39 229.99,-160.73 219.46,-159.57 221.03,-166.39"/>
</g>
<!-- Node137 -->
<g id="node20" class="node">
<title>Node137</title>
<g id="a_node20"><a xlink:href="quickjs_8c.html#a859d5c989a2aaecef1653b3ac279e108" target="_top" xlink:title=" ">
<polygon fill="none" stroke="red" points="399,-28.5 399,-47.5 494,-47.5 494,-28.5 399,-28.5"/>
<text text-anchor="middle" x="446.5" y="-35.5" font-family="Helvetica,sans-Serif" font-size="10.00">JS_ValueToAtom</text>
</a>
</g>
</g>
<!-- Node1&#45;&gt;Node137 -->
<g id="edge20" class="edge">
<title>Node1&#45;&gt;Node137</title>
<path fill="none" stroke="midnightblue" d="M89.59,-199.29C109.41,-183.72 150.49,-152.88 189,-133 260.75,-95.96 350.35,-66.21 402.43,-50.41"/>
<polygon fill="midnightblue" stroke="midnightblue" points="403.45,-53.76 412.02,-47.53 401.44,-47.06 403.45,-53.76"/>
</g>
<!-- Node3 -->
<g id="node3" class="node">
<title>Node3</title>
<g id="a_node3"><a xlink:href="quickjs_8c.html#a7f6796ee7a195631366f57c713a33f65" target="_top" xlink:title=" ">
<polygon fill="none" stroke="black" points="394.5,-337.5 394.5,-356.5 498.5,-356.5 498.5,-337.5 394.5,-337.5"/>
<text text-anchor="middle" x="446.5" y="-344.5" font-family="Helvetica,sans-Serif" font-size="10.00">__JS_AtomIsConst</text>
</a>
</g>
</g>
<!-- Node2&#45;&gt;Node3 -->
<g id="edge2" class="edge">
<title>Node2&#45;&gt;Node3</title>
<path fill="none" stroke="midnightblue" d="M312.06,-317.43C335.67,-322.66 366.35,-329.46 392.34,-335.22"/>
<polygon fill="midnightblue" stroke="midnightblue" points="391.89,-338.71 402.41,-337.45 393.41,-331.87 391.89,-338.71"/>
</g>
<!-- Node4 -->
<g id="node4" class="node">
<title>Node4</title>
<g id="a_node4"><a xlink:href="quickjs_8c.html#a0bbd9e3ecd55e3ea6c9d44bfda382095" target="_top" xlink:title=" ">
<polygon fill="none" stroke="black" points="402,-299.5 402,-318.5 491,-318.5 491,-299.5 402,-299.5"/>
<text text-anchor="middle" x="446.5" y="-306.5" font-family="Helvetica,sans-Serif" font-size="10.00">__JS_FreeAtom</text>
</a>
</g>
</g>
<!-- Node2&#45;&gt;Node4 -->
<g id="edge3" class="edge">
<title>Node2&#45;&gt;Node4</title>
<path fill="none" stroke="midnightblue" d="M312.06,-309C335.5,-309 365.9,-309 391.76,-309"/>
<polygon fill="midnightblue" stroke="midnightblue" points="391.8,-312.5 401.8,-309 391.8,-305.5 391.8,-312.5"/>
</g>
<!-- Node5 -->
<g id="node5" class="node">
<title>Node5</title>
<g id="a_node5"><a xlink:href="quickjs_8c.html#a58c8965dad50b15b75918a09f3d9dc7c" target="_top" xlink:title=" ">
<polygon fill="none" stroke="red" points="536,-304.5 536,-323.5 643,-323.5 643,-304.5 536,-304.5"/>
<text text-anchor="middle" x="589.5" y="-311.5" font-family="Helvetica,sans-Serif" font-size="10.00">JS_FreeAtomStruct</text>
</a>
</g>
</g>
<!-- Node4&#45;&gt;Node5 -->
<g id="edge4" class="edge">
<title>Node4&#45;&gt;Node5</title>
<path fill="none" stroke="midnightblue" d="M491.34,-310.55C502.22,-310.94 514.09,-311.36 525.69,-311.77"/>
<polygon fill="midnightblue" stroke="midnightblue" points="525.65,-315.27 535.77,-312.13 525.9,-308.28 525.65,-315.27"/>
</g>
<!-- Node12 -->
<g id="node10" class="node">
<title>Node12</title>
<g id="a_node10"><a xlink:href="quickjs_8h.html#a775522f2d084fc8fa0fcb33f390006b4" target="_top" xlink:title=" ">
<polygon fill="none" stroke="black" points="408,-161.5 408,-180.5 485,-180.5 485,-161.5 408,-161.5"/>
<text text-anchor="middle" x="446.5" y="-168.5" font-family="Helvetica,sans-Serif" font-size="10.00">JS_DupValue</text>
</a>
</g>
</g>
<!-- Node11&#45;&gt;Node12 -->
<g id="edge9" class="edge">
<title>Node11&#45;&gt;Node12</title>
<path fill="none" stroke="midnightblue" d="M316.39,-156.7C341.07,-159.43 372.24,-162.88 397.77,-165.71"/>
<polygon fill="midnightblue" stroke="midnightblue" points="397.64,-169.22 407.97,-166.84 398.41,-162.26 397.64,-169.22"/>
</g>
<!-- Node13 -->
<g id="node11" class="node">
<title>Node13</title>
<g id="a_node11"><a xlink:href="quickjs_8c.html#abac33881bb91f8c31106f616d81b67e8" target="_top" xlink:title=" ">
<polygon fill="none" stroke="black" points="393,-123.5 393,-142.5 500,-142.5 500,-123.5 393,-123.5"/>
<text text-anchor="middle" x="446.5" y="-130.5" font-family="Helvetica,sans-Serif" font-size="10.00">JS_ToPrimitiveFree</text>
</a>
</g>
</g>
<!-- Node11&#45;&gt;Node13 -->
<g id="edge10" class="edge">
<title>Node11&#45;&gt;Node13</title>
<path fill="none" stroke="midnightblue" d="M316.39,-147.3C336.44,-145.08 360.77,-142.39 382.88,-139.94"/>
<polygon fill="midnightblue" stroke="midnightblue" points="383.3,-143.41 392.86,-138.83 382.53,-136.45 383.3,-143.41"/>
</g>
<!-- Node14 -->
<g id="node12" class="node">
<title>Node14</title>
<g id="a_node12"><a xlink:href="quickjs_8c.html#a260bfa297ff6cb5bd18e229afaa54663" target="_top" xlink:title=" ">
<polygon fill="none" stroke="red" points="541.5,-266.5 541.5,-285.5 637.5,-285.5 637.5,-266.5 541.5,-266.5"/>
<text text-anchor="middle" x="589.5" y="-273.5" font-family="Helvetica,sans-Serif" font-size="10.00">JS_AtomToString</text>
</a>
</g>
</g>
<!-- Node13&#45;&gt;Node14 -->
<g id="edge11" class="edge">
<title>Node13&#45;&gt;Node14</title>
<path fill="none" stroke="midnightblue" d="M486.59,-142.58C491.54,-145.04 496.19,-148.13 500,-152 534.59,-187.18 501.41,-221.82 536,-257 537.43,-258.45 538.97,-259.79 540.61,-261.03"/>
<polygon fill="midnightblue" stroke="midnightblue" points="539.05,-264.18 549.41,-266.42 542.7,-258.21 539.05,-264.18"/>
</g>
<!-- Node40 -->
<g id="node13" class="node">
<title>Node40</title>
<g id="a_node13"><a xlink:href="quickjs_8c.html#a75f6ee5e4235a7dc99889f3d2eb2c147" target="_top" xlink:title=" ">
<polygon fill="none" stroke="red" points="554,-228.5 554,-247.5 625,-247.5 625,-228.5 554,-228.5"/>
<text text-anchor="middle" x="589.5" y="-235.5" font-family="Helvetica,sans-Serif" font-size="10.00">JS_CallFree</text>
</a>
</g>
</g>
<!-- Node13&#45;&gt;Node40 -->
<g id="edge12" class="edge">
<title>Node13&#45;&gt;Node40</title>
<path fill="none" stroke="midnightblue" d="M484.31,-142.56C489.93,-145.05 495.39,-148.15 500,-152 524.45,-172.43 512.4,-192.59 536,-214 540.18,-217.79 545.05,-221.07 550.12,-223.88"/>
<polygon fill="midnightblue" stroke="midnightblue" points="548.82,-227.15 559.33,-228.46 551.93,-220.88 548.82,-227.15"/>
</g>
<!-- Node83 -->
<g id="node14" class="node">
<title>Node83</title>
<g id="a_node14"><a xlink:href="quickjs_8h.html#afaa20c47565bc704c6c85f3d77254e7d" target="_top" xlink:title=" ">
<polygon fill="none" stroke="red" points="679,-209.5 679,-228.5 758,-228.5 758,-209.5 679,-209.5"/>
<text text-anchor="middle" x="718.5" y="-216.5" font-family="Helvetica,sans-Serif" font-size="10.00">JS_FreeValue</text>
</a>
</g>
</g>
<!-- Node13&#45;&gt;Node83 -->
<g id="edge14" class="edge">
<title>Node13&#45;&gt;Node83</title>
<path fill="none" stroke="midnightblue" d="M479.07,-142.51C486.15,-145.16 493.5,-148.34 500,-152 517.9,-162.08 517.43,-172.21 536,-181 578.29,-201.02 631.06,-210.56 668.78,-215.06"/>
<polygon fill="midnightblue" stroke="midnightblue" points="668.67,-218.57 679,-216.2 669.45,-211.62 668.67,-218.57"/>
</g>
<!-- Node94 -->
<g id="node15" class="node">
<title>Node94</title>
<g id="a_node15"><a xlink:href="quickjs_8h.html#a89b7c8686c7eee70b86be722ee4730ad" target="_top" xlink:title=" ">
<polygon fill="none" stroke="red" points="545,-152.5 545,-171.5 634,-171.5 634,-152.5 545,-152.5"/>
<text text-anchor="middle" x="589.5" y="-159.5" font-family="Helvetica,sans-Serif" font-size="10.00">JS_GetProperty</text>
</a>
</g>
</g>
<!-- Node13&#45;&gt;Node94 -->
<g id="edge15" class="edge">
<title>Node13&#45;&gt;Node94</title>
<path fill="none" stroke="midnightblue" d="M494.06,-142.58C507.1,-145.26 521.38,-148.2 534.8,-150.95"/>
<polygon fill="midnightblue" stroke="midnightblue" points="534.36,-154.44 544.86,-153.02 535.77,-147.58 534.36,-154.44"/>
</g>
<!-- Node100 -->
<g id="node16" class="node">
<title>Node100</title>
<g id="a_node16"><a xlink:href="quickjs_8h.html#ad80a83d73e9b7d872b88fbf2943aebe9" target="_top" xlink:title=" ">
<polygon fill="none" stroke="black" points="546,-0.5 546,-19.5 633,-19.5 633,-0.5 546,-0.5"/>
<text text-anchor="middle" x="589.5" y="-7.5" font-family="Helvetica,sans-Serif" font-size="10.00">JS_IsException</text>
</a>
</g>
</g>
<!-- Node13&#45;&gt;Node100 -->
<g id="edge16" class="edge">
<title>Node13&#45;&gt;Node100</title>
<path fill="none" stroke="midnightblue" d="M453.32,-123.22C465.9,-102.86 497.62,-55.62 536,-29 538.83,-27.03 541.89,-25.25 545.06,-23.63"/>
<polygon fill="midnightblue" stroke="midnightblue" points="546.52,-26.81 554.18,-19.5 543.63,-20.44 546.52,-26.81"/>
</g>
<!-- Node225 -->
<g id="node17" class="node">
<title>Node225</title>
<g id="a_node17"><a xlink:href="quickjs_8c.html#a1ca9cdb1fa2ffc3e6506e92b200e490f" target="_top" xlink:title=" ">
<polygon fill="none" stroke="black" points="549.5,-114.5 549.5,-133.5 629.5,-133.5 629.5,-114.5 549.5,-114.5"/>
<text text-anchor="middle" x="589.5" y="-121.5" font-family="Helvetica,sans-Serif" font-size="10.00">JS_IsFunction</text>
</a>
</g>
</g>
<!-- Node13&#45;&gt;Node225 -->
<g id="edge17" class="edge">
<title>Node13&#45;&gt;Node225</title>
<path fill="none" stroke="midnightblue" d="M500,-129.65C512.73,-128.84 526.29,-127.97 538.87,-127.17"/>
<polygon fill="midnightblue" stroke="midnightblue" points="539.42,-130.64 549.18,-126.51 538.97,-123.65 539.42,-130.64"/>
</g>
<!-- Node221 -->
<g id="node18" class="node">
<title>Node221</title>
<g id="a_node18"><a xlink:href="quickjs_8h.html#a149f24b67e745bad93573b3b4c80db4c" target="_top" xlink:title=" ">
<polygon fill="none" stroke="black" points="560,-76.5 560,-95.5 619,-95.5 619,-76.5 560,-76.5"/>
<text text-anchor="middle" x="589.5" y="-83.5" font-family="Helvetica,sans-Serif" font-size="10.00">JS_IsNull</text>
</a>
</g>
</g>
<!-- Node13&#45;&gt;Node221 -->
<g id="edge18" class="edge">
<title>Node13&#45;&gt;Node221</title>
<path fill="none" stroke="midnightblue" d="M476.03,-123.49C497.3,-116.4 526.57,-106.64 549.92,-98.86"/>
<polygon fill="midnightblue" stroke="midnightblue" points="551.15,-102.14 559.53,-95.66 548.93,-95.5 551.15,-102.14"/>
</g>
<!-- Node130 -->
<g id="node19" class="node">
<title>Node130</title>
<g id="a_node19"><a xlink:href="quickjs_8h.html#a4e407128a9605afb77523e49e9a627fd" target="_top" xlink:title=" ">
<polygon fill="none" stroke="black" points="545,-38.5 545,-57.5 634,-57.5 634,-38.5 545,-38.5"/>
<text text-anchor="middle" x="589.5" y="-45.5" font-family="Helvetica,sans-Serif" font-size="10.00">JS_IsUndefined</text>
</a>
</g>
</g>
<!-- Node13&#45;&gt;Node130 -->
<g id="edge19" class="edge">
<title>Node13&#45;&gt;Node130</title>
<path fill="none" stroke="midnightblue" d="M458.24,-123.33C474.21,-109.34 505.62,-83.36 536,-67 539.74,-64.98 543.75,-63.1 547.81,-61.36"/>
<polygon fill="midnightblue" stroke="midnightblue" points="549.31,-64.53 557.31,-57.58 546.72,-58.03 549.31,-64.53"/>
</g>
<!-- Node40&#45;&gt;Node83 -->
<g id="edge13" class="edge">
<title>Node40&#45;&gt;Node83</title>
<path fill="none" stroke="midnightblue" d="M625.2,-232.81C638.56,-230.81 654.07,-228.49 668.52,-226.33"/>
<polygon fill="midnightblue" stroke="midnightblue" points="669.44,-229.73 678.81,-224.79 668.41,-222.81 669.44,-229.73"/>
</g>
<!-- Node137&#45;&gt;Node100 -->
<g id="edge21" class="edge">
<title>Node137&#45;&gt;Node100</title>
<path fill="none" stroke="midnightblue" d="M494.06,-28.75C507.49,-26.09 522.23,-23.16 535.99,-20.43"/>
<polygon fill="midnightblue" stroke="midnightblue" points="536.67,-23.86 545.8,-18.48 535.31,-16.99 536.67,-23.86"/>
</g>
</g>
</svg>
