<?xml version="1.0" encoding="UTF-8" standalone="no"?>
<!DOCTYPE svg PUBLIC "-//W3C//DTD SVG 1.1//EN"
 "http://www.w3.org/Graphics/SVG/1.1/DTD/svg11.dtd">
<!-- Generated by graphviz version 2.43.0 (0)
 -->
<!-- Title: init_class_range Pages: 1 -->
<svg width="558pt" height="132pt"
 viewBox="0.00 0.00 558.00 132.00" xmlns="http://www.w3.org/2000/svg" xmlns:xlink="http://www.w3.org/1999/xlink">
<g id="graph0" class="graph" transform="scale(1 1) rotate(0) translate(4 128)">
<title>init_class_range</title>
<!-- Node1 -->
<g id="node1" class="node">
<title>Node1</title>
<g id="a_node1"><a xlink:title=" ">
<polygon fill="#bfbfbf" stroke="black" points="455,-66.5 455,-85.5 550,-85.5 550,-66.5 455,-66.5"/>
<text text-anchor="middle" x="502.5" y="-73.5" font-family="Helvetica,sans-Serif" font-size="10.00">init_class_range</text>
</a>
</g>
</g>
<!-- Node2 -->
<g id="node2" class="node">
<title>Node2</title>
<g id="a_node2"><a xlink:href="quickjs_8c.html#a2e66fcf1bc1d19f346317f10ee590621" target="_top" xlink:title=" ">
<polygon fill="none" stroke="black" points="291,-104.5 291,-123.5 419,-123.5 419,-104.5 291,-104.5"/>
<text text-anchor="middle" x="355" y="-111.5" font-family="Helvetica,sans-Serif" font-size="10.00">JS_AddIntrinsicPromise</text>
</a>
</g>
</g>
<!-- Node1&#45;&gt;Node2 -->
<g id="edge1" class="edge">
<title>Node1&#45;&gt;Node2</title>
<path fill="none" stroke="midnightblue" d="M454.85,-88.18C434.65,-93.46 411.35,-99.54 392.45,-104.48"/>
<polygon fill="midnightblue" stroke="midnightblue" points="455.99,-91.5 464.78,-85.59 454.22,-84.73 455.99,-91.5"/>
</g>
<!-- Node7 -->
<g id="node5" class="node">
<title>Node7</title>
<g id="a_node5"><a xlink:href="quickjs_8c.html#a3afdbdd7b58ef7e1dcc178c362071b3d" target="_top" xlink:title=" ">
<polygon fill="none" stroke="black" points="297,-66.5 297,-85.5 413,-85.5 413,-66.5 297,-66.5"/>
<text text-anchor="middle" x="355" y="-73.5" font-family="Helvetica,sans-Serif" font-size="10.00">JS_AddIntrinsicProxy</text>
</a>
</g>
</g>
<!-- Node1&#45;&gt;Node7 -->
<g id="edge4" class="edge">
<title>Node1&#45;&gt;Node7</title>
<path fill="none" stroke="midnightblue" d="M444.54,-76C434.24,-76 423.5,-76 413.19,-76"/>
<polygon fill="midnightblue" stroke="midnightblue" points="444.66,-79.5 454.66,-76 444.66,-72.5 444.66,-79.5"/>
</g>
<!-- Node8 -->
<g id="node6" class="node">
<title>Node8</title>
<g id="a_node6"><a xlink:href="quickjs_8c.html#a27966451027feb455b5da12c1578771c" target="_top" xlink:title=" ">
<polygon fill="none" stroke="black" points="305,-28.5 305,-47.5 405,-47.5 405,-28.5 305,-28.5"/>
<text text-anchor="middle" x="355" y="-35.5" font-family="Helvetica,sans-Serif" font-size="10.00">JS_NewRuntime2</text>
</a>
</g>
</g>
<!-- Node1&#45;&gt;Node8 -->
<g id="edge6" class="edge">
<title>Node1&#45;&gt;Node8</title>
<path fill="none" stroke="midnightblue" d="M454.85,-63.82C434.65,-58.54 411.35,-52.46 392.45,-47.52"/>
<polygon fill="midnightblue" stroke="midnightblue" points="454.22,-67.27 464.78,-66.41 455.99,-60.5 454.22,-67.27"/>
</g>
<!-- Node3 -->
<g id="node3" class="node">
<title>Node3</title>
<g id="a_node3"><a xlink:href="quickjs_8c.html#ad8aedb643b8753b7a15f6cb2df61945e" target="_top" xlink:title=" ">
<polygon fill="none" stroke="black" points="162.5,-85.5 162.5,-104.5 253.5,-104.5 253.5,-85.5 162.5,-85.5"/>
<text text-anchor="middle" x="208" y="-92.5" font-family="Helvetica,sans-Serif" font-size="10.00">JS_NewContext</text>
</a>
</g>
</g>
<!-- Node2&#45;&gt;Node3 -->
<g id="edge2" class="edge">
<title>Node2&#45;&gt;Node3</title>
<path fill="none" stroke="midnightblue" d="M280.8,-104.41C271.54,-103.19 262.29,-101.98 253.67,-100.85"/>
<polygon fill="midnightblue" stroke="midnightblue" points="280.45,-107.89 290.82,-105.72 281.36,-100.95 280.45,-107.89"/>
</g>
<!-- Node4 -->
<g id="node4" class="node">
<title>Node4</title>
<g id="a_node4"><a xlink:href="classqjs_1_1Context.html#a4392a23648acfc4bf6b445336efb5007" target="_top" xlink:title=" ">
<polygon fill="none" stroke="red" points="3,-85.5 3,-104.5 122,-104.5 122,-85.5 3,-85.5"/>
<text text-anchor="middle" x="62.5" y="-92.5" font-family="Helvetica,sans-Serif" font-size="10.00">qjs::Context::Context</text>
</a>
</g>
</g>
<!-- Node3&#45;&gt;Node4 -->
<g id="edge3" class="edge">
<title>Node3&#45;&gt;Node4</title>
<path fill="none" stroke="midnightblue" d="M152.29,-95C142.41,-95 132.07,-95 122.08,-95"/>
<polygon fill="midnightblue" stroke="midnightblue" points="152.38,-98.5 162.38,-95 152.38,-91.5 152.38,-98.5"/>
</g>
<!-- Node7&#45;&gt;Node3 -->
<g id="edge5" class="edge">
<title>Node7&#45;&gt;Node3</title>
<path fill="none" stroke="midnightblue" d="M286.57,-84.84C275.46,-86.29 264.2,-87.77 253.82,-89.13"/>
<polygon fill="midnightblue" stroke="midnightblue" points="287.23,-88.28 296.69,-83.51 286.32,-81.34 287.23,-88.28"/>
</g>
<!-- Node9 -->
<g id="node7" class="node">
<title>Node9</title>
<g id="a_node7"><a xlink:href="quickjs_8c.html#afc1ca27a266094085ebb43e2eea0dda2" target="_top" xlink:title=" ">
<polygon fill="none" stroke="black" points="161,-28.5 161,-47.5 255,-47.5 255,-28.5 161,-28.5"/>
<text text-anchor="middle" x="208" y="-35.5" font-family="Helvetica,sans-Serif" font-size="10.00">JS_NewRuntime</text>
</a>
</g>
</g>
<!-- Node8&#45;&gt;Node9 -->
<g id="edge7" class="edge">
<title>Node8&#45;&gt;Node9</title>
<path fill="none" stroke="midnightblue" d="M294.52,-38C281.37,-38 267.63,-38 255.1,-38"/>
<polygon fill="midnightblue" stroke="midnightblue" points="294.91,-41.5 304.91,-38 294.91,-34.5 294.91,-41.5"/>
</g>
<!-- Node10 -->
<g id="node8" class="node">
<title>Node10</title>
<g id="a_node8"><a xlink:href="classqjs_1_1Runtime.html#a0860a1339ff567f9f603c7bed4d670f9" target="_top" xlink:title=" ">
<polygon fill="none" stroke="black" points="0,-38.5 0,-57.5 125,-57.5 125,-38.5 0,-38.5"/>
<text text-anchor="middle" x="62.5" y="-45.5" font-family="Helvetica,sans-Serif" font-size="10.00">qjs::Runtime::Runtime</text>
</a>
</g>
</g>
<!-- Node9&#45;&gt;Node10 -->
<g id="edge8" class="edge">
<title>Node9&#45;&gt;Node10</title>
<path fill="none" stroke="midnightblue" d="M150.72,-41.92C142.29,-42.51 133.57,-43.12 125.05,-43.71"/>
<polygon fill="midnightblue" stroke="midnightblue" points="151.07,-45.41 160.81,-41.22 150.59,-38.42 151.07,-45.41"/>
</g>
<!-- Node11 -->
<g id="node9" class="node">
<title>Node11</title>
<g id="a_node9"><a xlink:href="quickjs-libc_8c.html#a1fbb3adc15e7b967479fc1940e99b67a" target="_top" xlink:title=" ">
<polygon fill="none" stroke="red" points="24.5,-0.5 24.5,-19.5 100.5,-19.5 100.5,-0.5 24.5,-0.5"/>
<text text-anchor="middle" x="62.5" y="-7.5" font-family="Helvetica,sans-Serif" font-size="10.00">worker_func</text>
</a>
</g>
</g>
<!-- Node9&#45;&gt;Node11 -->
<g id="edge9" class="edge">
<title>Node9&#45;&gt;Node11</title>
<path fill="none" stroke="midnightblue" d="M150.53,-26.98C133.73,-23.7 115.75,-20.19 100.52,-17.22"/>
<polygon fill="midnightblue" stroke="midnightblue" points="150.32,-30.51 160.81,-28.99 151.66,-23.64 150.32,-30.51"/>
</g>
</g>
</svg>
