<?xml version="1.0" encoding="UTF-8" standalone="no"?>
<!DOCTYPE svg PUBLIC "-//W3C//DTD SVG 1.1//EN"
 "http://www.w3.org/Graphics/SVG/1.1/DTD/svg11.dtd">
<!-- Generated by graphviz version 2.43.0 (0)
 -->
<!-- Title: js_os_read_write Pages: 1 -->
<!--zoomable 236 -->
<svg id="main" version="1.1" xmlns="http://www.w3.org/2000/svg" xmlns:xlink="http://www.w3.org/1999/xlink" xml:space="preserve" onload="init(evt)">
<style type="text/css"><![CDATA[
.edge:hover path { stroke: red; }
.edge:hover polygon { stroke: red; fill: red; }
]]></style>
<script type="text/javascript"><![CDATA[
var edges = document.getElementsByTagName('g');
if (edges && edges.length) {
  for (var i=0;i<edges.length;i++) {
    if (edges[i].id.substr(0,4)=='edge') {
      edges[i].setAttribute('class','edge');
    }
  }
}
]]></script>
        <defs>
                <circle id="rim" cx="0" cy="0" r="7"/>
                <circle id="rim2" cx="0" cy="0" r="3.5"/>
                <g id="zoomPlus">
                        <use xlink:href="#rim" fill="#404040">
                                <set attributeName="fill" to="#808080" begin="zoomplus.mouseover" end="zoomplus.mouseout"/>
                        </use>
                        <path d="M-4,0h8M0,-4v8" fill="none" stroke="white" stroke-width="1.5" pointer-events="none"/>
                </g>
                <g id="zoomMin">
                        <use xlink:href="#rim" fill="#404040">
                                <set attributeName="fill" to="#808080" begin="zoomminus.mouseover" end="zoomminus.mouseout"/>
                        </use>
                        <path d="M-4,0h8" fill="none" stroke="white" stroke-width="1.5" pointer-events="none"/>
                </g>
                <g id="dirArrow">
                        <path fill="none" stroke="white" stroke-width="1.5" d="M0,-3.0v7 M-2.5,-0.5L0,-3.0L2.5,-0.5"/>
                </g>
               <g id="resetDef">
                       <use xlink:href="#rim2" fill="#404040">
                               <set attributeName="fill" to="#808080" begin="reset.mouseover" end="reset.mouseout"/>
                       </use>
               </g>
        </defs>

<script type="text/javascript">
var viewWidth = 611;
var viewHeight = 236;
var sectionId = 'dynsection-67';
</script>
<script xlink:href="svgpan.js"/>
<svg id="graph" class="graph">
<g id="viewport">
<title>js_os_read_write</title>
<!-- Node1 -->
<g id="node1" class="node">
<title>Node1</title>
<g id="a_node1"><a xlink:title=" ">
<polygon fill="#bfbfbf" stroke="black" points="0,-101.5 0,-120.5 98,-120.5 98,-101.5 0,-101.5"/>
<text text-anchor="middle" x="49" y="-108.5" font-family="Helvetica,sans-Serif" font-size="10.00">js_os_read_write</text>
</a>
</g>
</g>
<!-- Node2 -->
<g id="node2" class="node">
<title>Node2</title>
<g id="a_node2"><a xlink:href="quickjs-libc_8c.html#ad2d02a2bee77d81e6e3aa114751f3ace" target="_top" xlink:title=" ">
<polygon fill="none" stroke="black" points="147.5,-189.5 147.5,-208.5 224.5,-208.5 224.5,-189.5 147.5,-189.5"/>
<text text-anchor="middle" x="186" y="-196.5" font-family="Helvetica,sans-Serif" font-size="10.00">js_get_errno</text>
</a>
</g>
</g>
<!-- Node1&#45;&gt;Node2 -->
<g id="edge1" class="edge">
<title>Node1&#45;&gt;Node2</title>
<path fill="none" stroke="midnightblue" d="M59.54,-120.67C74.33,-135.22 104.23,-162.87 134,-180 137.45,-181.98 141.14,-183.83 144.91,-185.53"/>
<polygon fill="midnightblue" stroke="midnightblue" points="143.74,-188.83 154.32,-189.44 146.43,-182.37 143.74,-188.83"/>
</g>
<!-- Node3 -->
<g id="node3" class="node">
<title>Node3</title>
<g id="a_node3"><a xlink:href="quickjs_8c.html#ab9dd8240188c470b7c9733ff1ac12726" target="_top" xlink:title=" ">
<polygon fill="none" stroke="black" points="134,-151.5 134,-170.5 238,-170.5 238,-151.5 134,-151.5"/>
<text text-anchor="middle" x="186" y="-158.5" font-family="Helvetica,sans-Serif" font-size="10.00">JS_GetArrayBuffer</text>
</a>
</g>
</g>
<!-- Node1&#45;&gt;Node3 -->
<g id="edge2" class="edge">
<title>Node1&#45;&gt;Node3</title>
<path fill="none" stroke="midnightblue" d="M75.71,-120.52C96.6,-128.26 126.28,-139.25 149.44,-147.83"/>
<polygon fill="midnightblue" stroke="midnightblue" points="148.33,-151.15 158.93,-151.34 150.76,-144.59 148.33,-151.15"/>
</g>
<!-- Node7 -->
<g id="node7" class="node">
<title>Node7</title>
<g id="a_node7"><a xlink:href="quickjs_8h.html#a6acbc709e59969eac6775f9b253b438f" target="_top" xlink:title=" ">
<polygon fill="none" stroke="black" points="147.5,-101.5 147.5,-120.5 224.5,-120.5 224.5,-101.5 147.5,-101.5"/>
<text text-anchor="middle" x="186" y="-108.5" font-family="Helvetica,sans-Serif" font-size="10.00">JS_NewInt64</text>
</a>
</g>
</g>
<!-- Node1&#45;&gt;Node7 -->
<g id="edge6" class="edge">
<title>Node1&#45;&gt;Node7</title>
<path fill="none" stroke="midnightblue" d="M98.36,-111C110.89,-111 124.38,-111 136.9,-111"/>
<polygon fill="midnightblue" stroke="midnightblue" points="137.14,-114.5 147.14,-111 137.14,-107.5 137.14,-114.5"/>
</g>
<!-- Node10 -->
<g id="node10" class="node">
<title>Node10</title>
<g id="a_node10"><a xlink:href="quickjs_8c.html#ad52f50dfe0e0e4aeae7003b97c4c0765" target="_top" xlink:title=" ">
<polygon fill="none" stroke="black" points="152,-44.5 152,-63.5 220,-63.5 220,-44.5 152,-44.5"/>
<text text-anchor="middle" x="186" y="-51.5" font-family="Helvetica,sans-Serif" font-size="10.00">JS_ToIndex</text>
</a>
</g>
</g>
<!-- Node1&#45;&gt;Node10 -->
<g id="edge9" class="edge">
<title>Node1&#45;&gt;Node10</title>
<path fill="none" stroke="midnightblue" d="M72.6,-101.46C94.6,-92.17 128.24,-77.96 152.99,-67.51"/>
<polygon fill="midnightblue" stroke="midnightblue" points="154.48,-70.69 162.33,-63.57 151.76,-64.24 154.48,-70.69"/>
</g>
<!-- Node231 -->
<g id="node14" class="node">
<title>Node231</title>
<g id="a_node14"><a xlink:href="quickjs_8c.html#a4073bd2b4f247bf6077cd956759193b9" target="_top" xlink:title=" ">
<polygon fill="none" stroke="red" points="153,-6.5 153,-25.5 219,-25.5 219,-6.5 153,-6.5"/>
<text text-anchor="middle" x="186" y="-13.5" font-family="Helvetica,sans-Serif" font-size="10.00">JS_ToInt32</text>
</a>
</g>
</g>
<!-- Node1&#45;&gt;Node231 -->
<g id="edge13" class="edge">
<title>Node1&#45;&gt;Node231</title>
<path fill="none" stroke="midnightblue" d="M58.4,-101.32C72.56,-85.51 102.74,-54 134,-35 137.22,-33.04 140.67,-31.24 144.2,-29.58"/>
<polygon fill="midnightblue" stroke="midnightblue" points="145.83,-32.69 153.65,-25.54 143.08,-26.26 145.83,-32.69"/>
</g>
<!-- Node4 -->
<g id="node4" class="node">
<title>Node4</title>
<g id="a_node4"><a xlink:href="quickjs_8c.html#a97c02025a1b40d1d8f9612874b071a74" target="_top" xlink:title=" ">
<polygon fill="none" stroke="black" points="295.5,-202.5 295.5,-221.5 405.5,-221.5 405.5,-202.5 295.5,-202.5"/>
<text text-anchor="middle" x="350.5" y="-209.5" font-family="Helvetica,sans-Serif" font-size="10.00">js_get_array_buffer</text>
</a>
</g>
</g>
<!-- Node3&#45;&gt;Node4 -->
<g id="edge3" class="edge">
<title>Node3&#45;&gt;Node4</title>
<path fill="none" stroke="midnightblue" d="M212.82,-170.65C236.21,-179.37 267.93,-191.12 274,-193 281.8,-195.41 290.13,-197.74 298.3,-199.9"/>
<polygon fill="midnightblue" stroke="midnightblue" points="297.58,-203.32 308.14,-202.43 299.33,-196.55 297.58,-203.32"/>
</g>
<!-- Node6 -->
<g id="node6" class="node">
<title>Node6</title>
<g id="a_node6"><a xlink:href="quickjs_8c.html#a033dd3ebd29c4eb9f0baff1dd0fec0b1" target="_top" xlink:title=" ">
<polygon fill="none" stroke="black" points="274,-153 274,-183 427,-183 427,-153 274,-153"/>
<text text-anchor="start" x="282" y="-171" font-family="Helvetica,sans-Serif" font-size="10.00">JS_ThrowTypeErrorDetached</text>
<text text-anchor="middle" x="350.5" y="-160" font-family="Helvetica,sans-Serif" font-size="10.00">ArrayBuffer</text>
</a>
</g>
</g>
<!-- Node3&#45;&gt;Node6 -->
<g id="edge5" class="edge">
<title>Node3&#45;&gt;Node6</title>
<path fill="none" stroke="midnightblue" d="M238.42,-163.21C246.5,-163.56 255.05,-163.93 263.66,-164.3"/>
<polygon fill="midnightblue" stroke="midnightblue" points="263.64,-167.8 273.78,-164.74 263.94,-160.81 263.64,-167.8"/>
</g>
<!-- Node5 -->
<g id="node5" class="node">
<title>Node5</title>
<g id="a_node5"><a xlink:href="quickjs_8c.html#ab0f713d7a2440dbb2673810323a9a78d" target="_top" xlink:title=" ">
<polygon fill="none" stroke="black" points="463,-197 463,-227 603,-227 603,-197 463,-197"/>
<text text-anchor="start" x="471" y="-215" font-family="Helvetica,sans-Serif" font-size="10.00">JS_ThrowTypeErrorInvalid</text>
<text text-anchor="middle" x="533" y="-204" font-family="Helvetica,sans-Serif" font-size="10.00">Class</text>
</a>
</g>
</g>
<!-- Node4&#45;&gt;Node5 -->
<g id="edge4" class="edge">
<title>Node4&#45;&gt;Node5</title>
<path fill="none" stroke="midnightblue" d="M405.66,-212C420.39,-212 436.67,-212 452.49,-212"/>
<polygon fill="midnightblue" stroke="midnightblue" points="452.81,-215.5 462.81,-212 452.81,-208.5 452.81,-215.5"/>
</g>
<!-- Node8 -->
<g id="node8" class="node">
<title>Node8</title>
<g id="a_node8"><a xlink:href="quickjs_8h.html#a9bf98b18de88b4199910a43e933eb97d" target="_top" xlink:title=" ">
<polygon fill="none" stroke="black" points="300.5,-114.5 300.5,-133.5 400.5,-133.5 400.5,-114.5 300.5,-114.5"/>
<text text-anchor="middle" x="350.5" y="-121.5" font-family="Helvetica,sans-Serif" font-size="10.00">__JS_NewFloat64</text>
</a>
</g>
</g>
<!-- Node7&#45;&gt;Node8 -->
<g id="edge7" class="edge">
<title>Node7&#45;&gt;Node8</title>
<path fill="none" stroke="midnightblue" d="M224.69,-114.02C244.11,-115.57 268.26,-117.5 290.12,-119.25"/>
<polygon fill="midnightblue" stroke="midnightblue" points="290.06,-122.76 300.3,-120.06 290.61,-115.78 290.06,-122.76"/>
</g>
<!-- Node9 -->
<g id="node9" class="node">
<title>Node9</title>
<g id="a_node9"><a xlink:href="quickjs_8h.html#a2050bc428da1c65ac7eb87c3fa3b0392" target="_top" xlink:title=" ">
<polygon fill="none" stroke="black" points="312,-76.5 312,-95.5 389,-95.5 389,-76.5 312,-76.5"/>
<text text-anchor="middle" x="350.5" y="-83.5" font-family="Helvetica,sans-Serif" font-size="10.00">JS_NewInt32</text>
</a>
</g>
</g>
<!-- Node7&#45;&gt;Node9 -->
<g id="edge8" class="edge">
<title>Node7&#45;&gt;Node9</title>
<path fill="none" stroke="midnightblue" d="M224.69,-105.2C247.58,-101.68 277.01,-97.15 301.55,-93.38"/>
<polygon fill="midnightblue" stroke="midnightblue" points="302.38,-96.79 311.73,-91.81 301.32,-89.87 302.38,-96.79"/>
</g>
<!-- Node11 -->
<g id="node11" class="node">
<title>Node11</title>
<g id="a_node11"><a xlink:href="quickjs_8c.html#aee6a60a9e9f3c0d9827d5cb0e15c23b4" target="_top" xlink:title=" ">
<polygon fill="none" stroke="black" points="309.5,-38.5 309.5,-57.5 391.5,-57.5 391.5,-38.5 309.5,-38.5"/>
<text text-anchor="middle" x="350.5" y="-45.5" font-family="Helvetica,sans-Serif" font-size="10.00">JS_ToInt64Sat</text>
</a>
</g>
</g>
<!-- Node10&#45;&gt;Node11 -->
<g id="edge10" class="edge">
<title>Node10&#45;&gt;Node11</title>
<path fill="none" stroke="midnightblue" d="M220.28,-52.77C242.96,-51.93 273.43,-50.81 299.08,-49.86"/>
<polygon fill="midnightblue" stroke="midnightblue" points="299.51,-53.35 309.37,-49.48 299.25,-46.35 299.51,-53.35"/>
</g>
<!-- Node12 -->
<g id="node12" class="node">
<title>Node12</title>
<g id="a_node12"><a xlink:href="quickjs_8h.html#a775522f2d084fc8fa0fcb33f390006b4" target="_top" xlink:title=" ">
<polygon fill="none" stroke="black" points="494.5,-0.5 494.5,-19.5 571.5,-19.5 571.5,-0.5 494.5,-0.5"/>
<text text-anchor="middle" x="533" y="-7.5" font-family="Helvetica,sans-Serif" font-size="10.00">JS_DupValue</text>
</a>
</g>
</g>
<!-- Node11&#45;&gt;Node12 -->
<g id="edge11" class="edge">
<title>Node11&#45;&gt;Node12</title>
<path fill="none" stroke="midnightblue" d="M391.56,-39.57C418.97,-33.8 455.43,-26.12 484.33,-20.04"/>
<polygon fill="midnightblue" stroke="midnightblue" points="485.15,-23.44 494.21,-17.96 483.71,-16.59 485.15,-23.44"/>
</g>
<!-- Node13 -->
<g id="node13" class="node">
<title>Node13</title>
<g id="a_node13"><a xlink:href="quickjs_8c.html#a8c94da482e7e46bf333be67ff97e58c1" target="_top" xlink:title=" ">
<polygon fill="none" stroke="red" points="481.5,-38.5 481.5,-57.5 584.5,-57.5 584.5,-38.5 481.5,-38.5"/>
<text text-anchor="middle" x="533" y="-45.5" font-family="Helvetica,sans-Serif" font-size="10.00">JS_ToInt64SatFree</text>
</a>
</g>
</g>
<!-- Node11&#45;&gt;Node13 -->
<g id="edge12" class="edge">
<title>Node11&#45;&gt;Node13</title>
<path fill="none" stroke="midnightblue" d="M391.56,-48C414.94,-48 444.91,-48 471.16,-48"/>
<polygon fill="midnightblue" stroke="midnightblue" points="471.39,-51.5 481.39,-48 471.39,-44.5 471.39,-51.5"/>
</g>
<!-- Node231&#45;&gt;Node12 -->
<g id="edge14" class="edge">
<title>Node231&#45;&gt;Node12</title>
<path fill="none" stroke="midnightblue" d="M219.15,-15.44C280.13,-14.38 412.89,-12.07 484.29,-10.83"/>
<polygon fill="midnightblue" stroke="midnightblue" points="484.42,-14.33 494.36,-10.65 484.3,-7.33 484.42,-14.33"/>
</g>
</g>
</svg>
        <g id="navigator" transform="translate(0 0)" fill="#404254">
                <rect fill="#f2f5e9" fill-opacity="0.5" stroke="#606060" stroke-width=".5" x="0" y="0" width="60" height="60"/>
                <use id="zoomplus" xlink:href="#zoomPlus" x="17" y="9" onmousedown="handleZoom(evt,'in')"/>
                <use id="zoomminus" xlink:href="#zoomMin" x="42" y="9" onmousedown="handleZoom(evt,'out')"/>
                <use id="reset" xlink:href="#resetDef" x="30" y="36" onmousedown="handleReset()"/>
                <g id="arrowUp" xlink:href="#dirArrow" transform="translate(30 24)" onmousedown="handlePan(0,-1)">
                  <use xlink:href="#rim" fill="#404040">
                        <set attributeName="fill" to="#808080" begin="arrowUp.mouseover" end="arrowUp.mouseout"/>
                  </use>
                  <path fill="none" stroke="white" stroke-width="1.5" d="M0,-3.0v7 M-2.5,-0.5L0,-3.0L2.5,-0.5"/>
                </g>
                <g id="arrowRight" xlink:href="#dirArrow" transform="rotate(90) translate(36 -43)" onmousedown="handlePan(1,0)">
                  <use xlink:href="#rim" fill="#404040">
                        <set attributeName="fill" to="#808080" begin="arrowRight.mouseover" end="arrowRight.mouseout"/>
                  </use>
                  <path fill="none" stroke="white" stroke-width="1.5" d="M0,-3.0v7 M-2.5,-0.5L0,-3.0L2.5,-0.5"/>
                </g>
                <g id="arrowDown" xlink:href="#dirArrow" transform="rotate(180) translate(-30 -48)" onmousedown="handlePan(0,1)">
                  <use xlink:href="#rim" fill="#404040">
                        <set attributeName="fill" to="#808080" begin="arrowDown.mouseover" end="arrowDown.mouseout"/>
                  </use>
                  <path fill="none" stroke="white" stroke-width="1.5" d="M0,-3.0v7 M-2.5,-0.5L0,-3.0L2.5,-0.5"/>
                </g>
                <g id="arrowLeft" xlink:href="#dirArrow" transform="rotate(270) translate(-36 17)" onmousedown="handlePan(-1,0)">
                  <use xlink:href="#rim" fill="#404040">
                        <set attributeName="fill" to="#808080" begin="arrowLeft.mouseover" end="arrowLeft.mouseout"/>
                  </use>
                  <path fill="none" stroke="white" stroke-width="1.5" d="M0,-3.0v7 M-2.5,-0.5L0,-3.0L2.5,-0.5"/>
                </g>
        </g>
        <svg viewBox="0 0 15 15" width="100%" height="30px" preserveAspectRatio="xMaxYMin meet">
         <g id="arrow_out" transform="scale(0.3 0.3)">
          <a xlink:href="quickjs-libc_8c_a70dbcae0637863811297360f2773c3ba_cgraph_org.svg" target="_base">
           <rect id="button" ry="5" rx="5" y="6" x="6" height="38" width="38"
                fill="#f2f5e9" fill-opacity="0.5" stroke="#606060" stroke-width="1.0"/>
           <path id="arrow"
             d="M 11.500037,31.436501 C 11.940474,20.09759 22.043105,11.32322 32.158766,21.979434 L 37.068811,17.246167 C 37.068811,17.246167 37.088388,32 37.088388,32 L 22.160133,31.978069 C 22.160133,31.978069 26.997745,27.140456 26.997745,27.140456 C 18.528582,18.264221 13.291696,25.230495 11.500037,31.436501 z"
             style="fill:#404040;"/>
          </a>
         </g>
        </svg>
</svg>
