<?xml version="1.0" encoding="UTF-8" standalone="no"?>
<!DOCTYPE svg PUBLIC "-//W3C//DTD SVG 1.1//EN"
 "http://www.w3.org/Graphics/SVG/1.1/DTD/svg11.dtd">
<!-- Generated by graphviz version 2.43.0 (0)
 -->
<!-- Title: find_jump_target Pages: 1 -->
<svg width="508pt" height="46pt"
 viewBox="0.00 0.00 508.00 46.00" xmlns="http://www.w3.org/2000/svg" xmlns:xlink="http://www.w3.org/1999/xlink">
<g id="graph0" class="graph" transform="scale(1 1) rotate(0) translate(4 42)">
<title>find_jump_target</title>
<!-- Node1 -->
<g id="node1" class="node">
<title>Node1</title>
<g id="a_node1"><a xlink:title=" ">
<polygon fill="#bfbfbf" stroke="black" points="401,-0.5 401,-19.5 500,-19.5 500,-0.5 401,-0.5"/>
<text text-anchor="middle" x="450.5" y="-7.5" font-family="Helvetica,sans-Serif" font-size="10.00">find_jump_target</text>
</a>
</g>
</g>
<!-- Node2 -->
<g id="node2" class="node">
<title>Node2</title>
<g id="a_node2"><a xlink:href="quickjs_8c.html#ad0d311d4ce409584384f835f1a3e185a" target="_top" xlink:title=" ">
<polygon fill="none" stroke="black" points="278,-0.5 278,-19.5 365,-19.5 365,-0.5 278,-0.5"/>
<text text-anchor="middle" x="321.5" y="-7.5" font-family="Helvetica,sans-Serif" font-size="10.00">resolve_labels</text>
</a>
</g>
</g>
<!-- Node1&#45;&gt;Node2 -->
<g id="edge1" class="edge">
<title>Node1&#45;&gt;Node2</title>
<path fill="none" stroke="midnightblue" d="M390.72,-10C382.08,-10 373.33,-10 365.1,-10"/>
<polygon fill="midnightblue" stroke="midnightblue" points="390.76,-13.5 400.76,-10 390.76,-6.5 390.76,-13.5"/>
</g>
<!-- Node3 -->
<g id="node3" class="node">
<title>Node3</title>
<g id="a_node3"><a xlink:href="quickjs_8c.html#a97fcc747d8b1c3644174745d2e2739be" target="_top" xlink:title=" ">
<polygon fill="none" stroke="black" points="136,-0.5 136,-19.5 242,-19.5 242,-0.5 136,-0.5"/>
<text text-anchor="middle" x="189" y="-7.5" font-family="Helvetica,sans-Serif" font-size="10.00">js_create_function</text>
</a>
</g>
</g>
<!-- Node2&#45;&gt;Node3 -->
<g id="edge2" class="edge">
<title>Node2&#45;&gt;Node3</title>
<path fill="none" stroke="midnightblue" d="M267.75,-10C259.39,-10 250.75,-10 242.4,-10"/>
<polygon fill="midnightblue" stroke="midnightblue" points="267.77,-13.5 277.77,-10 267.77,-6.5 267.77,-13.5"/>
</g>
<!-- Node3&#45;&gt;Node3 -->
<g id="edge4" class="edge">
<title>Node3&#45;&gt;Node3</title>
<path fill="none" stroke="midnightblue" d="M213.55,-29.03C212.21,-34.13 204.03,-38 189,-38 165.54,-38 158.76,-28.57 168.65,-19.76"/>
<polygon fill="midnightblue" stroke="midnightblue" points="216.67,-27.42 209.35,-19.76 210.29,-30.31 216.67,-27.42"/>
</g>
<!-- Node4 -->
<g id="node4" class="node">
<title>Node4</title>
<g id="a_node4"><a xlink:href="quickjs_8c.html#a46a8a7e155cfd0af984f6725f060f0d6" target="_top" xlink:title=" ">
<polygon fill="none" stroke="red" points="0,-0.5 0,-19.5 100,-19.5 100,-0.5 0,-0.5"/>
<text text-anchor="middle" x="50" y="-7.5" font-family="Helvetica,sans-Serif" font-size="10.00">__JS_EvalInternal</text>
</a>
</g>
</g>
<!-- Node3&#45;&gt;Node4 -->
<g id="edge3" class="edge">
<title>Node3&#45;&gt;Node4</title>
<path fill="none" stroke="midnightblue" d="M125.58,-10C117.12,-10 108.53,-10 100.33,-10"/>
<polygon fill="midnightblue" stroke="midnightblue" points="125.82,-13.5 135.82,-10 125.82,-6.5 125.82,-13.5"/>
</g>
</g>
</svg>
