<?xml version="1.0" encoding="UTF-8" standalone="no"?>
<!DOCTYPE svg PUBLIC "-//W3C//DTD SVG 1.1//EN"
 "http://www.w3.org/Graphics/SVG/1.1/DTD/svg11.dtd">
<!-- Generated by graphviz version 2.43.0 (0)
 -->
<!-- Title: js_alloc_string_rt Pages: 1 -->
<!--zoomable 746 -->
<svg id="main" version="1.1" xmlns="http://www.w3.org/2000/svg" xmlns:xlink="http://www.w3.org/1999/xlink" xml:space="preserve" onload="init(evt)">
<style type="text/css"><![CDATA[
.edge:hover path { stroke: red; }
.edge:hover polygon { stroke: red; fill: red; }
]]></style>
<script type="text/javascript"><![CDATA[
var edges = document.getElementsByTagName('g');
if (edges && edges.length) {
  for (var i=0;i<edges.length;i++) {
    if (edges[i].id.substr(0,4)=='edge') {
      edges[i].setAttribute('class','edge');
    }
  }
}
]]></script>
        <defs>
                <circle id="rim" cx="0" cy="0" r="7"/>
                <circle id="rim2" cx="0" cy="0" r="3.5"/>
                <g id="zoomPlus">
                        <use xlink:href="#rim" fill="#404040">
                                <set attributeName="fill" to="#808080" begin="zoomplus.mouseover" end="zoomplus.mouseout"/>
                        </use>
                        <path d="M-4,0h8M0,-4v8" fill="none" stroke="white" stroke-width="1.5" pointer-events="none"/>
                </g>
                <g id="zoomMin">
                        <use xlink:href="#rim" fill="#404040">
                                <set attributeName="fill" to="#808080" begin="zoomminus.mouseover" end="zoomminus.mouseout"/>
                        </use>
                        <path d="M-4,0h8" fill="none" stroke="white" stroke-width="1.5" pointer-events="none"/>
                </g>
                <g id="dirArrow">
                        <path fill="none" stroke="white" stroke-width="1.5" d="M0,-3.0v7 M-2.5,-0.5L0,-3.0L2.5,-0.5"/>
                </g>
               <g id="resetDef">
                       <use xlink:href="#rim2" fill="#404040">
                               <set attributeName="fill" to="#808080" begin="reset.mouseover" end="reset.mouseout"/>
                       </use>
               </g>
        </defs>

<script type="text/javascript">
var viewWidth = 734;
var viewHeight = 746;
var sectionId = 'dynsection-189';
</script>
<script xlink:href="svgpan.js"/>
<svg id="graph" class="graph">
<g id="viewport">
<title>js_alloc_string_rt</title>
<!-- Node1 -->
<g id="node1" class="node">
<title>Node1</title>
<g id="a_node1"><a xlink:title=" ">
<polygon fill="#bfbfbf" stroke="black" points="627,-467.5 627,-486.5 726,-486.5 726,-467.5 627,-467.5"/>
<text text-anchor="middle" x="676.5" y="-474.5" font-family="Helvetica,sans-Serif" font-size="10.00">js_alloc_string_rt</text>
</a>
</g>
</g>
<!-- Node2 -->
<g id="node2" class="node">
<title>Node2</title>
<g id="a_node2"><a xlink:href="quickjs_8c.html#a128673f932e71b867730af75a44e3f97" target="_top" xlink:title=" ">
<polygon fill="none" stroke="black" points="486,-615.5 486,-634.5 591,-634.5 591,-615.5 486,-615.5"/>
<text text-anchor="middle" x="538.5" y="-622.5" font-family="Helvetica,sans-Serif" font-size="10.00">__JS_NewAtomInit</text>
</a>
</g>
</g>
<!-- Node1&#45;&gt;Node2 -->
<g id="edge1" class="edge">
<title>Node1&#45;&gt;Node2</title>
<path fill="none" stroke="midnightblue" d="M659.65,-494.25C630.84,-525.6 570.8,-590.94 548.28,-615.45"/>
<polygon fill="midnightblue" stroke="midnightblue" points="662.39,-496.44 666.58,-486.71 657.23,-491.71 662.39,-496.44"/>
</g>
<!-- Node21 -->
<g id="node10" class="node">
<title>Node21</title>
<g id="a_node10"><a xlink:href="quickjs_8c.html#ad303a9bc56766627b5fca41574933930" target="_top" xlink:title=" ">
<polygon fill="none" stroke="black" points="495.5,-361.5 495.5,-380.5 581.5,-380.5 581.5,-361.5 495.5,-361.5"/>
<text text-anchor="middle" x="538.5" y="-368.5" font-family="Helvetica,sans-Serif" font-size="10.00">js_alloc_string</text>
</a>
</g>
</g>
<!-- Node1&#45;&gt;Node21 -->
<g id="edge9" class="edge">
<title>Node1&#45;&gt;Node21</title>
<path fill="none" stroke="midnightblue" d="M654.84,-460.9C626.24,-438.61 575.48,-399.04 552.02,-380.76"/>
<polygon fill="midnightblue" stroke="midnightblue" points="652.91,-463.83 662.95,-467.22 657.21,-458.31 652.91,-463.83"/>
</g>
<!-- Node3 -->
<g id="node3" class="node">
<title>Node3</title>
<g id="a_node3"><a xlink:href="quickjs_8c.html#a2469c0e8a95a75d5835ec98ea967085f" target="_top" xlink:title=" ">
<polygon fill="none" stroke="black" points="358.5,-696.5 358.5,-715.5 436.5,-715.5 436.5,-696.5 358.5,-696.5"/>
<text text-anchor="middle" x="397.5" y="-703.5" font-family="Helvetica,sans-Serif" font-size="10.00">JS_InitAtoms</text>
</a>
</g>
</g>
<!-- Node2&#45;&gt;Node3 -->
<g id="edge2" class="edge">
<title>Node2&#45;&gt;Node3</title>
<path fill="none" stroke="midnightblue" d="M512.11,-639.79C483.85,-656.26 438.99,-682.4 414.97,-696.4"/>
<polygon fill="midnightblue" stroke="midnightblue" points="514.13,-642.67 521.01,-634.61 510.61,-636.62 514.13,-642.67"/>
</g>
<!-- Node12 -->
<g id="node5" class="node">
<title>Node12</title>
<g id="a_node5"><a xlink:href="quickjs_8c.html#a9f0339d81c06451de278073572cc194e" target="_top" xlink:title=" ">
<polygon fill="none" stroke="black" points="358,-615.5 358,-634.5 437,-634.5 437,-615.5 358,-615.5"/>
<text text-anchor="middle" x="397.5" y="-622.5" font-family="Helvetica,sans-Serif" font-size="10.00">JS_NewClass</text>
</a>
</g>
</g>
<!-- Node2&#45;&gt;Node12 -->
<g id="edge4" class="edge">
<title>Node2&#45;&gt;Node12</title>
<path fill="none" stroke="midnightblue" d="M475.44,-625C462.45,-625 449.11,-625 437.27,-625"/>
<polygon fill="midnightblue" stroke="midnightblue" points="475.74,-628.5 485.74,-625 475.74,-621.5 475.74,-628.5"/>
</g>
<!-- Node4 -->
<g id="node4" class="node">
<title>Node4</title>
<g id="a_node4"><a xlink:href="quickjs_8c.html#a27966451027feb455b5da12c1578771c" target="_top" xlink:title=" ">
<polygon fill="none" stroke="red" points="185.5,-718.5 185.5,-737.5 285.5,-737.5 285.5,-718.5 185.5,-718.5"/>
<text text-anchor="middle" x="235.5" y="-725.5" font-family="Helvetica,sans-Serif" font-size="10.00">JS_NewRuntime2</text>
</a>
</g>
</g>
<!-- Node3&#45;&gt;Node4 -->
<g id="edge3" class="edge">
<title>Node3&#45;&gt;Node4</title>
<path fill="none" stroke="midnightblue" d="M348.16,-712.65C328.4,-715.36 305.58,-718.5 285.73,-721.23"/>
<polygon fill="midnightblue" stroke="midnightblue" points="348.75,-716.1 358.18,-711.27 347.79,-709.16 348.75,-716.1"/>
</g>
<!-- Node9 -->
<g id="node6" class="node">
<title>Node9</title>
<g id="a_node6"><a xlink:href="quickjs-libc_8c.html#a066e7962ce24f22d5df20968a8baa346" target="_top" xlink:title=" ">
<polygon fill="none" stroke="red" points="204.5,-680.5 204.5,-699.5 266.5,-699.5 266.5,-680.5 204.5,-680.5"/>
<text text-anchor="middle" x="235.5" y="-687.5" font-family="Helvetica,sans-Serif" font-size="10.00">js_os_init</text>
</a>
</g>
</g>
<!-- Node12&#45;&gt;Node9 -->
<g id="edge5" class="edge">
<title>Node12&#45;&gt;Node9</title>
<path fill="none" stroke="midnightblue" d="M372.08,-639.77C354.91,-649.67 331.14,-662.41 309,-671 295.41,-676.27 279.84,-680.57 266.62,-683.73"/>
<polygon fill="midnightblue" stroke="midnightblue" points="374.03,-642.68 380.89,-634.61 370.49,-636.64 374.03,-642.68"/>
</g>
<!-- Node13 -->
<g id="node7" class="node">
<title>Node13</title>
<g id="a_node7"><a xlink:href="quickjs-libc_8c.html#a08cea1a0226b7603e6969e2208d99d55" target="_top" xlink:title=" ">
<polygon fill="none" stroke="red" points="202.5,-642.5 202.5,-661.5 268.5,-661.5 268.5,-642.5 202.5,-642.5"/>
<text text-anchor="middle" x="235.5" y="-649.5" font-family="Helvetica,sans-Serif" font-size="10.00">js_std_init</text>
</a>
</g>
</g>
<!-- Node12&#45;&gt;Node13 -->
<g id="edge6" class="edge">
<title>Node12&#45;&gt;Node13</title>
<path fill="none" stroke="midnightblue" d="M347.84,-633.21C322.17,-637.54 291.37,-642.74 268.68,-646.57"/>
<polygon fill="midnightblue" stroke="midnightblue" points="348.49,-636.65 357.77,-631.54 347.33,-629.75 348.49,-636.65"/>
</g>
<!-- Node15 -->
<g id="node8" class="node">
<title>Node15</title>
<g id="a_node8"><a xlink:href="structqjs_1_1js__traits_3_01std_1_1shared__ptr_3_01T_01_4_01_4.html#af3558afeef079826c58411353c8ccce0" target="_top" xlink:title="Register class in QuickJS context.">
<polygon fill="none" stroke="red" points="178.5,-582.5 178.5,-623.5 292.5,-623.5 292.5,-582.5 178.5,-582.5"/>
<text text-anchor="start" x="186.5" y="-611.5" font-family="Helvetica,sans-Serif" font-size="10.00">qjs::js_traits&lt; std</text>
<text text-anchor="start" x="186.5" y="-600.5" font-family="Helvetica,sans-Serif" font-size="10.00">::shared_ptr&lt; T &gt; &gt;</text>
<text text-anchor="middle" x="235.5" y="-589.5" font-family="Helvetica,sans-Serif" font-size="10.00">::register_class</text>
</a>
</g>
</g>
<!-- Node12&#45;&gt;Node15 -->
<g id="edge7" class="edge">
<title>Node12&#45;&gt;Node15</title>
<path fill="none" stroke="midnightblue" d="M347.83,-618.31C330.44,-615.92 310.7,-613.2 292.72,-610.73"/>
<polygon fill="midnightblue" stroke="midnightblue" points="347.38,-621.78 357.77,-619.67 348.34,-614.84 347.38,-621.78"/>
</g>
<!-- Node17 -->
<g id="node9" class="node">
<title>Node17</title>
<g id="a_node9"><a xlink:href="structqjs_1_1js__traits_3_01detail_1_1function_01_4.html#afe383c63f389edaf9f878cd30062d37f" target="_top" xlink:title=" ">
<polygon fill="none" stroke="red" points="162,-533 162,-563 309,-563 309,-533 162,-533"/>
<text text-anchor="start" x="170" y="-551" font-family="Helvetica,sans-Serif" font-size="10.00">qjs::js_traits&lt; detail</text>
<text text-anchor="middle" x="235.5" y="-540" font-family="Helvetica,sans-Serif" font-size="10.00">::function &gt;::register_class</text>
</a>
</g>
</g>
<!-- Node12&#45;&gt;Node17 -->
<g id="edge8" class="edge">
<title>Node12&#45;&gt;Node17</title>
<path fill="none" stroke="midnightblue" d="M373.66,-609.67C356.4,-598.52 331.86,-583.6 309,-573 301.27,-569.42 292.87,-566.06 284.63,-563.05"/>
<polygon fill="midnightblue" stroke="midnightblue" points="372.16,-612.87 382.44,-615.42 375.99,-607.01 372.16,-612.87"/>
</g>
<!-- Node22 -->
<g id="node11" class="node">
<title>Node22</title>
<g id="a_node11"><a xlink:href="quickjs_8c.html#aa864584f81729321ec9d527d6362c633" target="_top" xlink:title=" ">
<polygon fill="none" stroke="black" points="348,-475.5 348,-494.5 447,-494.5 447,-475.5 348,-475.5"/>
<text text-anchor="middle" x="397.5" y="-482.5" font-family="Helvetica,sans-Serif" font-size="10.00">JS_ConcatString1</text>
</a>
</g>
</g>
<!-- Node21&#45;&gt;Node22 -->
<g id="edge10" class="edge">
<title>Node21&#45;&gt;Node22</title>
<path fill="none" stroke="midnightblue" d="M519.23,-387.62C501.77,-403.32 474.56,-427.32 450,-447 437.51,-457 422.78,-467.78 412.28,-475.29"/>
<polygon fill="midnightblue" stroke="midnightblue" points="521.88,-389.94 526.96,-380.64 517.19,-384.75 521.88,-389.94"/>
</g>
<!-- Node623 -->
<g id="node13" class="node">
<title>Node623</title>
<g id="a_node13"><a xlink:href="quickjs_8c.html#a960b48be1175b0982ecc03505711fc56" target="_top" xlink:title=" ">
<polygon fill="none" stroke="black" points="350,-418.5 350,-437.5 445,-437.5 445,-418.5 350,-418.5"/>
<text text-anchor="middle" x="397.5" y="-425.5" font-family="Helvetica,sans-Serif" font-size="10.00">js_new_string16</text>
</a>
</g>
</g>
<!-- Node21&#45;&gt;Node623 -->
<g id="edge12" class="edge">
<title>Node21&#45;&gt;Node623</title>
<path fill="none" stroke="midnightblue" d="M504.97,-384.34C479.47,-394.8 444.62,-409.09 421.84,-418.43"/>
<polygon fill="midnightblue" stroke="midnightblue" points="506.31,-387.57 514.23,-380.54 503.65,-381.1 506.31,-387.57"/>
</g>
<!-- Node627 -->
<g id="node17" class="node">
<title>Node627</title>
<g id="a_node17"><a xlink:href="quickjs_8c.html#a011157b8ff30c8418be989eadf509c92" target="_top" xlink:title=" ">
<polygon fill="none" stroke="red" points="195.5,-380.5 195.5,-399.5 275.5,-399.5 275.5,-380.5 195.5,-380.5"/>
<text text-anchor="middle" x="235.5" y="-387.5" font-family="Helvetica,sans-Serif" font-size="10.00">js_sub_string</text>
</a>
</g>
</g>
<!-- Node21&#45;&gt;Node627 -->
<g id="edge27" class="edge">
<title>Node21&#45;&gt;Node627</title>
<path fill="none" stroke="midnightblue" d="M485.35,-374.29C425.61,-378.06 329.1,-384.15 275.52,-387.54"/>
<polygon fill="midnightblue" stroke="midnightblue" points="485.57,-377.78 495.33,-373.66 485.13,-370.8 485.57,-377.78"/>
</g>
<!-- Node628 -->
<g id="node18" class="node">
<title>Node628</title>
<g id="a_node18"><a xlink:href="quickjs_8c.html#aa923510185fe24e3083baf7405b09f51" target="_top" xlink:title=" ">
<polygon fill="none" stroke="black" points="353,-342.5 353,-361.5 442,-361.5 442,-342.5 353,-342.5"/>
<text text-anchor="middle" x="397.5" y="-349.5" font-family="Helvetica,sans-Serif" font-size="10.00">js_new_string8</text>
</a>
</g>
</g>
<!-- Node21&#45;&gt;Node628 -->
<g id="edge18" class="edge">
<title>Node21&#45;&gt;Node628</title>
<path fill="none" stroke="midnightblue" d="M485.33,-363.87C471.18,-361.93 456.01,-359.86 442.37,-358"/>
<polygon fill="midnightblue" stroke="midnightblue" points="485.04,-367.36 495.42,-365.25 485.98,-360.43 485.04,-367.36"/>
</g>
<!-- Node681 -->
<g id="node21" class="node">
<title>Node681</title>
<g id="a_node21"><a xlink:href="quickjs_8c.html#a73a002c998fe7508eae9aa069fac802b" target="_top" xlink:title=" ">
<polygon fill="none" stroke="black" points="355.5,-228.5 355.5,-247.5 439.5,-247.5 439.5,-228.5 355.5,-228.5"/>
<text text-anchor="middle" x="397.5" y="-235.5" font-family="Helvetica,sans-Serif" font-size="10.00">JS_ReadString</text>
</a>
</g>
</g>
<!-- Node21&#45;&gt;Node681 -->
<g id="edge24" class="edge">
<title>Node21&#45;&gt;Node681</title>
<path fill="none" stroke="midnightblue" d="M523.05,-353.38C506.41,-333.57 477.77,-300.91 450,-276 438.25,-265.47 423.69,-254.93 413.05,-247.63"/>
<polygon fill="midnightblue" stroke="midnightblue" points="520.52,-355.82 529.61,-361.27 525.9,-351.34 520.52,-355.82"/>
</g>
<!-- Node559 -->
<g id="node24" class="node">
<title>Node559</title>
<g id="a_node24"><a xlink:href="quickjs_8c.html#af49e67b73f845dc1f9c3ee648dd9f95c" target="_top" xlink:title=" ">
<polygon fill="none" stroke="red" points="347.5,-285.5 347.5,-304.5 447.5,-304.5 447.5,-285.5 347.5,-285.5"/>
<text text-anchor="middle" x="397.5" y="-292.5" font-family="Helvetica,sans-Serif" font-size="10.00">JS_ToCStringLen2</text>
</a>
</g>
</g>
<!-- Node21&#45;&gt;Node559 -->
<g id="edge28" class="edge">
<title>Node21&#45;&gt;Node559</title>
<path fill="none" stroke="midnightblue" d="M511.06,-356.54C483.14,-341.28 439.91,-317.64 415.96,-304.55"/>
<polygon fill="midnightblue" stroke="midnightblue" points="509.44,-359.65 519.9,-361.37 512.8,-353.51 509.44,-359.65"/>
</g>
<!-- Node683 -->
<g id="node25" class="node">
<title>Node683</title>
<g id="a_node25"><a xlink:href="quickjs_8c.html#ac43dee2ed14e80248f1af195bd3d8181" target="_top" xlink:title=" ">
<polygon fill="none" stroke="black" points="345,-95.5 345,-114.5 450,-114.5 450,-95.5 345,-95.5"/>
<text text-anchor="middle" x="397.5" y="-102.5" font-family="Helvetica,sans-Serif" font-size="10.00">string_buffer_init2</text>
</a>
</g>
</g>
<!-- Node21&#45;&gt;Node683 -->
<g id="edge30" class="edge">
<title>Node21&#45;&gt;Node683</title>
<path fill="none" stroke="midnightblue" d="M527.75,-352.34C500.44,-300.07 423.85,-153.51 403.51,-114.59"/>
<polygon fill="midnightblue" stroke="midnightblue" points="524.65,-353.98 532.39,-361.22 530.86,-350.73 524.65,-353.98"/>
</g>
<!-- Node23 -->
<g id="node12" class="node">
<title>Node23</title>
<g id="a_node12"><a xlink:href="quickjs_8c.html#ab6d8a1a52baf4d686aed594b996699d7" target="_top" xlink:title=" ">
<polygon fill="none" stroke="red" points="189,-494.5 189,-513.5 282,-513.5 282,-494.5 189,-494.5"/>
<text text-anchor="middle" x="235.5" y="-501.5" font-family="Helvetica,sans-Serif" font-size="10.00">JS_ConcatString</text>
</a>
</g>
</g>
<!-- Node22&#45;&gt;Node23 -->
<g id="edge11" class="edge">
<title>Node22&#45;&gt;Node23</title>
<path fill="none" stroke="midnightblue" d="M337.63,-491.99C319.29,-494.17 299.36,-496.54 282.07,-498.59"/>
<polygon fill="midnightblue" stroke="midnightblue" points="338.11,-495.46 347.63,-490.8 337.28,-488.51 338.11,-495.46"/>
</g>
<!-- Node624 -->
<g id="node14" class="node">
<title>Node624</title>
<g id="a_node14"><a xlink:href="quickjs_8c.html#a077ffa6455c0d7831bd4547542b5f2f7" target="_top" xlink:title=" ">
<polygon fill="none" stroke="red" points="180.5,-418.5 180.5,-437.5 290.5,-437.5 290.5,-418.5 180.5,-418.5"/>
<text text-anchor="middle" x="235.5" y="-425.5" font-family="Helvetica,sans-Serif" font-size="10.00">js_new_string_char</text>
</a>
</g>
</g>
<!-- Node623&#45;&gt;Node624 -->
<g id="edge13" class="edge">
<title>Node623&#45;&gt;Node624</title>
<path fill="none" stroke="midnightblue" d="M339.55,-428C323.62,-428 306.36,-428 290.6,-428"/>
<polygon fill="midnightblue" stroke="midnightblue" points="339.79,-431.5 349.79,-428 339.79,-424.5 339.79,-431.5"/>
</g>
<!-- Node626 -->
<g id="node16" class="node">
<title>Node626</title>
<g id="a_node16"><a xlink:href="quickjs_8c.html#a15988d5ca6500d029bdc559bd310f48d" target="_top" xlink:title=" ">
<polygon fill="none" stroke="black" points="0,-437.5 0,-456.5 126,-456.5 126,-437.5 0,-437.5"/>
<text text-anchor="middle" x="63" y="-444.5" font-family="Helvetica,sans-Serif" font-size="10.00">js_string_iterator_next</text>
</a>
</g>
</g>
<!-- Node623&#45;&gt;Node626 -->
<g id="edge16" class="edge">
<title>Node623&#45;&gt;Node626</title>
<path fill="none" stroke="midnightblue" d="M351.05,-439.8C337.61,-442.76 322.79,-445.52 309,-447 247.04,-453.65 175.76,-452.69 126.12,-450.65"/>
<polygon fill="midnightblue" stroke="midnightblue" points="352.06,-443.16 361.02,-437.51 350.49,-436.33 352.06,-443.16"/>
</g>
<!-- Node623&#45;&gt;Node627 -->
<g id="edge17" class="edge">
<title>Node623&#45;&gt;Node627</title>
<path fill="none" stroke="midnightblue" d="M346.3,-416.08C323.54,-410.67 297.03,-404.37 275.76,-399.32"/>
<polygon fill="midnightblue" stroke="midnightblue" points="345.59,-419.51 356.13,-418.41 347.2,-412.69 345.59,-419.51"/>
</g>
<!-- Node515 -->
<g id="node15" class="node">
<title>Node515</title>
<g id="a_node15"><a xlink:href="quickjs_8c.html#a187940a18f6d1d4a5405405f37b5cf46" target="_top" xlink:title=" ">
<polygon fill="none" stroke="black" points="15.5,-370.5 15.5,-389.5 110.5,-389.5 110.5,-370.5 15.5,-370.5"/>
<text text-anchor="middle" x="63" y="-377.5" font-family="Helvetica,sans-Serif" font-size="10.00">js_string_charAt</text>
</a>
</g>
</g>
<!-- Node624&#45;&gt;Node515 -->
<g id="edge14" class="edge">
<title>Node624&#45;&gt;Node515</title>
<path fill="none" stroke="midnightblue" d="M187.41,-415.89C178.94,-413.64 170.2,-411.29 162,-409 139.61,-402.76 114.47,-395.31 95.26,-389.52"/>
<polygon fill="midnightblue" stroke="midnightblue" points="186.62,-419.3 197.18,-418.46 188.4,-412.53 186.62,-419.3"/>
</g>
<!-- Node624&#45;&gt;Node626 -->
<g id="edge15" class="edge">
<title>Node624&#45;&gt;Node626</title>
<path fill="none" stroke="midnightblue" d="M169.84,-435.21C155.53,-436.8 140.41,-438.49 126.2,-440.07"/>
<polygon fill="midnightblue" stroke="midnightblue" points="170.53,-438.65 180.08,-434.06 169.76,-431.69 170.53,-438.65"/>
</g>
<!-- Node628&#45;&gt;Node624 -->
<g id="edge20" class="edge">
<title>Node628&#45;&gt;Node624</title>
<path fill="none" stroke="midnightblue" d="M376.37,-367.81C359.3,-380.54 333.7,-398.06 309,-409 300.55,-412.74 291.21,-415.87 282.13,-418.43"/>
<polygon fill="midnightblue" stroke="midnightblue" points="378.63,-370.49 384.48,-361.65 374.4,-364.92 378.63,-370.49"/>
</g>
<!-- Node628&#45;&gt;Node515 -->
<g id="edge22" class="edge">
<title>Node628&#45;&gt;Node515</title>
<path fill="none" stroke="midnightblue" d="M342.77,-356.19C295.23,-359.93 223.99,-365.64 162,-371 145.32,-372.44 127.05,-374.1 110.85,-375.59"/>
<polygon fill="midnightblue" stroke="midnightblue" points="343.14,-359.67 352.84,-355.4 342.59,-352.69 343.14,-359.67"/>
</g>
<!-- Node628&#45;&gt;Node627 -->
<g id="edge23" class="edge">
<title>Node628&#45;&gt;Node627</title>
<path fill="none" stroke="midnightblue" d="M346.3,-363.92C323.54,-369.33 297.03,-375.63 275.76,-380.68"/>
<polygon fill="midnightblue" stroke="midnightblue" points="347.2,-367.31 356.13,-361.59 345.59,-360.49 347.2,-367.31"/>
</g>
<!-- Node560 -->
<g id="node19" class="node">
<title>Node560</title>
<g id="a_node19"><a xlink:href="quickjs_8c.html#ab0bd3fbfe9b7f004c067b103a6d60d03" target="_top" xlink:title=" ">
<polygon fill="none" stroke="red" points="181.5,-266.5 181.5,-285.5 289.5,-285.5 289.5,-266.5 181.5,-266.5"/>
<text text-anchor="middle" x="235.5" y="-273.5" font-family="Helvetica,sans-Serif" font-size="10.00">js_compile_regexp</text>
</a>
</g>
</g>
<!-- Node628&#45;&gt;Node560 -->
<g id="edge19" class="edge">
<title>Node628&#45;&gt;Node560</title>
<path fill="none" stroke="midnightblue" d="M373.7,-336.58C356.46,-325.4 331.93,-310.46 309,-300 296.7,-294.39 282.69,-289.44 270.29,-285.51"/>
<polygon fill="midnightblue" stroke="midnightblue" points="372.19,-339.78 382.47,-342.36 376.04,-333.94 372.19,-339.78"/>
</g>
<!-- Node629 -->
<g id="node20" class="node">
<title>Node629</title>
<g id="a_node20"><a xlink:href="quickjs_8c.html#ac34cc554aab1e98c45a7f845fff64385" target="_top" xlink:title=" ">
<polygon fill="none" stroke="red" points="14,-180.5 14,-199.5 112,-199.5 112,-180.5 14,-180.5"/>
<text text-anchor="middle" x="63" y="-187.5" font-family="Helvetica,sans-Serif" font-size="10.00">JS_NewStringLen</text>
</a>
</g>
</g>
<!-- Node628&#45;&gt;Node629 -->
<g id="edge21" class="edge">
<title>Node628&#45;&gt;Node629</title>
<path fill="none" stroke="midnightblue" d="M342.4,-347.74C292.62,-341.84 218.22,-327.88 162,-295 119.17,-269.95 83.71,-220.4 70.04,-199.57"/>
<polygon fill="midnightblue" stroke="midnightblue" points="342.31,-351.25 352.64,-348.88 343.08,-344.3 342.31,-351.25"/>
</g>
<!-- Node682 -->
<g id="node22" class="node">
<title>Node682</title>
<g id="a_node22"><a xlink:href="quickjs_8c.html#ad54b242d774ba44b2ac39fe8161aaf9c" target="_top" xlink:title=" ">
<polygon fill="none" stroke="red" points="176,-228.5 176,-247.5 295,-247.5 295,-228.5 176,-228.5"/>
<text text-anchor="middle" x="235.5" y="-235.5" font-family="Helvetica,sans-Serif" font-size="10.00">JS_ReadObjectAtoms</text>
</a>
</g>
</g>
<!-- Node681&#45;&gt;Node682 -->
<g id="edge25" class="edge">
<title>Node681&#45;&gt;Node682</title>
<path fill="none" stroke="midnightblue" d="M345.1,-238C329.15,-238 311.45,-238 295.05,-238"/>
<polygon fill="midnightblue" stroke="midnightblue" points="345.3,-241.5 355.3,-238 345.3,-234.5 345.3,-241.5"/>
</g>
<!-- Node64 -->
<g id="node23" class="node">
<title>Node64</title>
<g id="a_node23"><a xlink:href="quickjs_8c.html#a4b8ef2bb3b35e4a5f6ed8bd837a50e7c" target="_top" xlink:title=" ">
<polygon fill="none" stroke="red" points="183,-190.5 183,-209.5 288,-209.5 288,-190.5 183,-190.5"/>
<text text-anchor="middle" x="235.5" y="-197.5" font-family="Helvetica,sans-Serif" font-size="10.00">JS_ReadObjectRec</text>
</a>
</g>
</g>
<!-- Node681&#45;&gt;Node64 -->
<g id="edge26" class="edge">
<title>Node681&#45;&gt;Node64</title>
<path fill="none" stroke="midnightblue" d="M346.11,-226.03C323.69,-220.71 297.65,-214.52 276.58,-209.52"/>
<polygon fill="midnightblue" stroke="midnightblue" points="345.59,-229.51 356.13,-228.41 347.2,-222.69 345.59,-229.51"/>
</g>
<!-- Node559&#45;&gt;Node560 -->
<g id="edge29" class="edge">
<title>Node559&#45;&gt;Node560</title>
<path fill="none" stroke="midnightblue" d="M337.12,-287.95C321.52,-286.1 304.79,-284.11 289.54,-282.3"/>
<polygon fill="midnightblue" stroke="midnightblue" points="336.85,-291.44 347.19,-289.14 337.67,-284.49 336.85,-291.44"/>
</g>
<!-- Node602 -->
<g id="node26" class="node">
<title>Node602</title>
<g id="a_node26"><a xlink:href="quickjs_8c.html#a964b0ba49f8823d8d8f21c6645a81542" target="_top" xlink:title=" ">
<polygon fill="none" stroke="red" points="186,-152.5 186,-171.5 285,-171.5 285,-152.5 186,-152.5"/>
<text text-anchor="middle" x="235.5" y="-159.5" font-family="Helvetica,sans-Serif" font-size="10.00">JS_ConcatString3</text>
</a>
</g>
</g>
<!-- Node683&#45;&gt;Node602 -->
<g id="edge31" class="edge">
<title>Node683&#45;&gt;Node602</title>
<path fill="none" stroke="midnightblue" d="M367.4,-118.97C350.59,-126.71 328.89,-136.12 309,-143 298.92,-146.49 287.85,-149.69 277.47,-152.43"/>
<polygon fill="midnightblue" stroke="midnightblue" points="369.11,-122.04 376.69,-114.64 366.15,-115.7 369.11,-122.04"/>
</g>
<!-- Node672 -->
<g id="node27" class="node">
<title>Node672</title>
<g id="a_node27"><a xlink:href="quickjs_8c.html#a32ee6be61757664e4eea552e5508ad6e" target="_top" xlink:title=" ">
<polygon fill="none" stroke="black" points="174.5,-114.5 174.5,-133.5 296.5,-133.5 296.5,-114.5 174.5,-114.5"/>
<text text-anchor="middle" x="235.5" y="-121.5" font-family="Helvetica,sans-Serif" font-size="10.00">js_regexp_get_source</text>
</a>
</g>
</g>
<!-- Node683&#45;&gt;Node672 -->
<g id="edge32" class="edge">
<title>Node683&#45;&gt;Node672</title>
<path fill="none" stroke="midnightblue" d="M335.03,-112.3C322.41,-113.8 309.13,-115.38 296.55,-116.87"/>
<polygon fill="midnightblue" stroke="midnightblue" points="335.48,-115.77 344.99,-111.12 334.65,-108.82 335.48,-115.77"/>
</g>
<!-- Node502 -->
<g id="node28" class="node">
<title>Node502</title>
<g id="a_node28"><a xlink:href="quickjs_8c.html#a14b12816060fe321a1d8b562e48135b2" target="_top" xlink:title=" ">
<polygon fill="none" stroke="black" points="164.5,-76.5 164.5,-95.5 306.5,-95.5 306.5,-76.5 164.5,-76.5"/>
<text text-anchor="middle" x="235.5" y="-83.5" font-family="Helvetica,sans-Serif" font-size="10.00">js_string_codePointRange</text>
</a>
</g>
</g>
<!-- Node683&#45;&gt;Node502 -->
<g id="edge33" class="edge">
<title>Node683&#45;&gt;Node502</title>
<path fill="none" stroke="midnightblue" d="M335.05,-97.7C325.73,-96.6 316.06,-95.45 306.57,-94.32"/>
<polygon fill="midnightblue" stroke="midnightblue" points="334.65,-101.18 344.99,-98.88 335.48,-94.23 334.65,-101.18"/>
</g>
<!-- Node529 -->
<g id="node29" class="node">
<title>Node529</title>
<g id="a_node29"><a xlink:href="quickjs_8c.html#a0f6f437eaf0cabf7d3e31f8306ed7e02" target="_top" xlink:title=" ">
<polygon fill="none" stroke="black" points="188,-38.5 188,-57.5 283,-57.5 283,-38.5 188,-38.5"/>
<text text-anchor="middle" x="235.5" y="-45.5" font-family="Helvetica,sans-Serif" font-size="10.00">js_string_repeat</text>
</a>
</g>
</g>
<!-- Node683&#45;&gt;Node529 -->
<g id="edge34" class="edge">
<title>Node683&#45;&gt;Node529</title>
<path fill="none" stroke="midnightblue" d="M367.4,-91.03C350.59,-83.29 328.89,-73.88 309,-67 298.92,-63.51 287.85,-60.31 277.47,-57.57"/>
<polygon fill="midnightblue" stroke="midnightblue" points="366.15,-94.3 376.69,-95.36 369.11,-87.96 366.15,-94.3"/>
</g>
<!-- Node684 -->
<g id="node30" class="node">
<title>Node684</title>
<g id="a_node30"><a xlink:href="quickjs_8c.html#a9c11961b0adafedd064b294612d0c2f3" target="_top" xlink:title=" ">
<polygon fill="none" stroke="red" points="186,-0.5 186,-19.5 285,-19.5 285,-0.5 186,-0.5"/>
<text text-anchor="middle" x="235.5" y="-7.5" font-family="Helvetica,sans-Serif" font-size="10.00">string_buffer_init</text>
</a>
</g>
</g>
<!-- Node683&#45;&gt;Node684 -->
<g id="edge35" class="edge">
<title>Node683&#45;&gt;Node684</title>
<path fill="none" stroke="midnightblue" d="M381.3,-87.8C365.06,-70.47 337.75,-44.18 309,-29 301.64,-25.11 293.42,-21.98 285.24,-19.47"/>
<polygon fill="midnightblue" stroke="midnightblue" points="379.01,-90.48 388.34,-95.5 384.18,-85.76 379.01,-90.48"/>
</g>
<!-- Node684&#45;&gt;Node629 -->
<g id="edge36" class="edge">
<title>Node684&#45;&gt;Node629</title>
<path fill="none" stroke="midnightblue" d="M176.36,-20.81C171.25,-23.05 166.37,-25.75 162,-29 106.89,-70.05 76.25,-152.09 67.02,-180.25"/>
<polygon fill="midnightblue" stroke="midnightblue" points="177.62,-24.08 185.73,-17.26 175.14,-17.53 177.62,-24.08"/>
</g>
</g>
</svg>
        <g id="navigator" transform="translate(0 0)" fill="#404254">
                <rect fill="#f2f5e9" fill-opacity="0.5" stroke="#606060" stroke-width=".5" x="0" y="0" width="60" height="60"/>
                <use id="zoomplus" xlink:href="#zoomPlus" x="17" y="9" onmousedown="handleZoom(evt,'in')"/>
                <use id="zoomminus" xlink:href="#zoomMin" x="42" y="9" onmousedown="handleZoom(evt,'out')"/>
                <use id="reset" xlink:href="#resetDef" x="30" y="36" onmousedown="handleReset()"/>
                <g id="arrowUp" xlink:href="#dirArrow" transform="translate(30 24)" onmousedown="handlePan(0,-1)">
                  <use xlink:href="#rim" fill="#404040">
                        <set attributeName="fill" to="#808080" begin="arrowUp.mouseover" end="arrowUp.mouseout"/>
                  </use>
                  <path fill="none" stroke="white" stroke-width="1.5" d="M0,-3.0v7 M-2.5,-0.5L0,-3.0L2.5,-0.5"/>
                </g>
                <g id="arrowRight" xlink:href="#dirArrow" transform="rotate(90) translate(36 -43)" onmousedown="handlePan(1,0)">
                  <use xlink:href="#rim" fill="#404040">
                        <set attributeName="fill" to="#808080" begin="arrowRight.mouseover" end="arrowRight.mouseout"/>
                  </use>
                  <path fill="none" stroke="white" stroke-width="1.5" d="M0,-3.0v7 M-2.5,-0.5L0,-3.0L2.5,-0.5"/>
                </g>
                <g id="arrowDown" xlink:href="#dirArrow" transform="rotate(180) translate(-30 -48)" onmousedown="handlePan(0,1)">
                  <use xlink:href="#rim" fill="#404040">
                        <set attributeName="fill" to="#808080" begin="arrowDown.mouseover" end="arrowDown.mouseout"/>
                  </use>
                  <path fill="none" stroke="white" stroke-width="1.5" d="M0,-3.0v7 M-2.5,-0.5L0,-3.0L2.5,-0.5"/>
                </g>
                <g id="arrowLeft" xlink:href="#dirArrow" transform="rotate(270) translate(-36 17)" onmousedown="handlePan(-1,0)">
                  <use xlink:href="#rim" fill="#404040">
                        <set attributeName="fill" to="#808080" begin="arrowLeft.mouseover" end="arrowLeft.mouseout"/>
                  </use>
                  <path fill="none" stroke="white" stroke-width="1.5" d="M0,-3.0v7 M-2.5,-0.5L0,-3.0L2.5,-0.5"/>
                </g>
        </g>
        <svg viewBox="0 0 15 15" width="100%" height="30px" preserveAspectRatio="xMaxYMin meet">
         <g id="arrow_out" transform="scale(0.3 0.3)">
          <a xlink:href="quickjs_8c_a5837dfc67b8f09e0579a28c827b39d93_icgraph_org.svg" target="_base">
           <rect id="button" ry="5" rx="5" y="6" x="6" height="38" width="38"
                fill="#f2f5e9" fill-opacity="0.5" stroke="#606060" stroke-width="1.0"/>
           <path id="arrow"
             d="M 11.500037,31.436501 C 11.940474,20.09759 22.043105,11.32322 32.158766,21.979434 L 37.068811,17.246167 C 37.068811,17.246167 37.088388,32 37.088388,32 L 22.160133,31.978069 C 22.160133,31.978069 26.997745,27.140456 26.997745,27.140456 C 18.528582,18.264221 13.291696,25.230495 11.500037,31.436501 z"
             style="fill:#404040;"/>
          </a>
         </g>
        </svg>
</svg>
