<?xml version="1.0" encoding="UTF-8" standalone="no"?>
<!DOCTYPE svg PUBLIC "-//W3C//DTD SVG 1.1//EN"
 "http://www.w3.org/Graphics/SVG/1.1/DTD/svg11.dtd">
<!-- Generated by graphviz version 2.43.0 (0)
 -->
<!-- Title: JS_NewObjectClass Pages: 1 -->
<svg width="740pt" height="370pt"
 viewBox="0.00 0.00 740.00 370.00" xmlns="http://www.w3.org/2000/svg" xmlns:xlink="http://www.w3.org/1999/xlink">
<g id="graph0" class="graph" transform="scale(1 1) rotate(0) translate(4 366)">
<title>JS_NewObjectClass</title>
<!-- Node1 -->
<g id="node1" class="node">
<title>Node1</title>
<g id="a_node1"><a xlink:title=" ">
<polygon fill="#bfbfbf" stroke="black" points="0,-190.5 0,-209.5 110,-209.5 110,-190.5 0,-190.5"/>
<text text-anchor="middle" x="55" y="-197.5" font-family="Helvetica,sans-Serif" font-size="10.00">JS_NewObjectClass</text>
</a>
</g>
</g>
<!-- Node2 -->
<g id="node2" class="node">
<title>Node2</title>
<g id="a_node2"><a xlink:href="quickjs_8c.html#a73738c650f11459db0d7af3dcdf8316b" target="_top" xlink:title=" ">
<polygon fill="none" stroke="black" points="146,-190.5 146,-209.5 282,-209.5 282,-190.5 146,-190.5"/>
<text text-anchor="middle" x="214" y="-197.5" font-family="Helvetica,sans-Serif" font-size="10.00">JS_NewObjectProtoClass</text>
</a>
</g>
</g>
<!-- Node1&#45;&gt;Node2 -->
<g id="edge1" class="edge">
<title>Node1&#45;&gt;Node2</title>
<path fill="none" stroke="midnightblue" d="M110.03,-200C118.32,-200 127.01,-200 135.68,-200"/>
<polygon fill="midnightblue" stroke="midnightblue" points="135.83,-203.5 145.83,-200 135.83,-196.5 135.83,-203.5"/>
</g>
<!-- Node3 -->
<g id="node3" class="node">
<title>Node3</title>
<g id="a_node3"><a xlink:href="quickjs_8c.html#aad24bdf2bcbb0ce55462fe6074dac8a5" target="_top" xlink:title=" ">
<polygon fill="none" stroke="black" points="318,-304.5 318,-323.5 458,-323.5 458,-304.5 318,-304.5"/>
<text text-anchor="middle" x="388" y="-311.5" font-family="Helvetica,sans-Serif" font-size="10.00">find_hashed_shape_proto</text>
</a>
</g>
</g>
<!-- Node2&#45;&gt;Node3 -->
<g id="edge2" class="edge">
<title>Node2&#45;&gt;Node3</title>
<path fill="none" stroke="midnightblue" d="M226.99,-209.67C245.83,-224.66 283.75,-254.07 318,-276 331.12,-284.4 346.24,-292.86 358.97,-299.65"/>
<polygon fill="midnightblue" stroke="midnightblue" points="357.68,-302.93 368.16,-304.49 360.94,-296.73 357.68,-302.93"/>
</g>
<!-- Node7 -->
<g id="node6" class="node">
<title>Node7</title>
<g id="a_node6"><a xlink:href="quickjs_8c.html#aab0be018b8f7bdcff45226f502c3f820" target="_top" xlink:title=" ">
<polygon fill="none" stroke="black" points="346.5,-95.5 346.5,-114.5 429.5,-114.5 429.5,-95.5 346.5,-95.5"/>
<text text-anchor="middle" x="388" y="-102.5" font-family="Helvetica,sans-Serif" font-size="10.00">get_proto_obj</text>
</a>
</g>
</g>
<!-- Node2&#45;&gt;Node7 -->
<g id="edge5" class="edge">
<title>Node2&#45;&gt;Node7</title>
<path fill="none" stroke="midnightblue" d="M225.27,-190.37C242.89,-174.34 280.62,-142.16 318,-124 323.79,-121.19 330.07,-118.73 336.4,-116.61"/>
<polygon fill="midnightblue" stroke="midnightblue" points="337.8,-119.84 346.32,-113.54 335.73,-113.15 337.8,-119.84"/>
</g>
<!-- Node8 -->
<g id="node7" class="node">
<title>Node8</title>
<g id="a_node7"><a xlink:href="quickjs_8c.html#aed229eb80b3b03a2275471dee93c69d6" target="_top" xlink:title=" ">
<polygon fill="none" stroke="black" points="637,-162.5 637,-181.5 720,-181.5 720,-162.5 637,-162.5"/>
<text text-anchor="middle" x="678.5" y="-169.5" font-family="Helvetica,sans-Serif" font-size="10.00">js_dup_shape</text>
</a>
</g>
</g>
<!-- Node2&#45;&gt;Node8 -->
<g id="edge6" class="edge">
<title>Node2&#45;&gt;Node8</title>
<path fill="none" stroke="midnightblue" d="M282.29,-197.61C357.21,-194.7 481.87,-189.16 589,-181 601.15,-180.07 614.22,-178.86 626.48,-177.63"/>
<polygon fill="midnightblue" stroke="midnightblue" points="626.97,-181.1 636.56,-176.6 626.26,-174.14 626.97,-181.1"/>
</g>
<!-- Node9 -->
<g id="node8" class="node">
<title>Node9</title>
<g id="a_node8"><a xlink:href="quickjs_8c.html#ad6926e49955be5e10423f6df8d8cff3e" target="_top" xlink:title=" ">
<polygon fill="none" stroke="black" points="345.5,-247.5 345.5,-266.5 430.5,-266.5 430.5,-247.5 345.5,-247.5"/>
<text text-anchor="middle" x="388" y="-254.5" font-family="Helvetica,sans-Serif" font-size="10.00">js_new_shape</text>
</a>
</g>
</g>
<!-- Node2&#45;&gt;Node9 -->
<g id="edge7" class="edge">
<title>Node2&#45;&gt;Node9</title>
<path fill="none" stroke="midnightblue" d="M243.79,-209.54C272.44,-219.03 316.59,-233.67 348.3,-244.17"/>
<polygon fill="midnightblue" stroke="midnightblue" points="347.52,-247.6 358.12,-247.43 349.73,-240.96 347.52,-247.6"/>
</g>
<!-- Node25 -->
<g id="node11" class="node">
<title>Node25</title>
<g id="a_node11"><a xlink:href="quickjs_8c.html#a030c2e98b1775a7e3bdd13be1400b1fe" target="_top" xlink:title=" ">
<polygon fill="none" stroke="black" points="318.5,-133.5 318.5,-152.5 457.5,-152.5 457.5,-133.5 318.5,-133.5"/>
<text text-anchor="middle" x="388" y="-140.5" font-family="Helvetica,sans-Serif" font-size="10.00">JS_NewObjectFromShape</text>
</a>
</g>
</g>
<!-- Node2&#45;&gt;Node25 -->
<g id="edge11" class="edge">
<title>Node2&#45;&gt;Node25</title>
<path fill="none" stroke="midnightblue" d="M243.79,-190.46C272.44,-180.97 316.59,-166.33 348.3,-155.83"/>
<polygon fill="midnightblue" stroke="midnightblue" points="349.73,-159.04 358.12,-152.57 347.52,-152.4 349.73,-159.04"/>
</g>
<!-- Node4 -->
<g id="node4" class="node">
<title>Node4</title>
<g id="a_node4"><a xlink:href="quickjs_8c.html#a8291bf195606b5d1b0faed795b6dc3ff" target="_top" xlink:title=" ">
<polygon fill="none" stroke="black" points="494,-342.5 494,-361.5 589,-361.5 589,-342.5 494,-342.5"/>
<text text-anchor="middle" x="541.5" y="-349.5" font-family="Helvetica,sans-Serif" font-size="10.00">get_shape_hash</text>
</a>
</g>
</g>
<!-- Node3&#45;&gt;Node4 -->
<g id="edge3" class="edge">
<title>Node3&#45;&gt;Node4</title>
<path fill="none" stroke="midnightblue" d="M427.23,-323.59C447.13,-328.58 471.66,-334.73 492.79,-340.03"/>
<polygon fill="midnightblue" stroke="midnightblue" points="491.99,-343.44 502.55,-342.48 493.7,-336.65 491.99,-343.44"/>
</g>
<!-- Node5 -->
<g id="node5" class="node">
<title>Node5</title>
<g id="a_node5"><a xlink:href="quickjs_8c.html#afeaafcef811076df11d1552bcc7f6a2a" target="_top" xlink:title=" ">
<polygon fill="none" stroke="red" points="625,-294.5 625,-313.5 732,-313.5 732,-294.5 625,-294.5"/>
<text text-anchor="middle" x="678.5" y="-301.5" font-family="Helvetica,sans-Serif" font-size="10.00">shape_initial_hash</text>
</a>
</g>
</g>
<!-- Node3&#45;&gt;Node5 -->
<g id="edge4" class="edge">
<title>Node3&#45;&gt;Node5</title>
<path fill="none" stroke="midnightblue" d="M458.1,-311.6C505.68,-309.96 568.39,-307.78 614.58,-306.18"/>
<polygon fill="midnightblue" stroke="midnightblue" points="614.89,-309.67 624.76,-305.83 614.65,-302.68 614.89,-309.67"/>
</g>
<!-- Node10 -->
<g id="node9" class="node">
<title>Node10</title>
<g id="a_node9"><a xlink:href="quickjs_8c.html#a1030d2020be7d911eb62869f21cc3b70" target="_top" xlink:title=" ">
<polygon fill="none" stroke="red" points="496,-266.5 496,-285.5 587,-285.5 587,-266.5 496,-266.5"/>
<text text-anchor="middle" x="541.5" y="-273.5" font-family="Helvetica,sans-Serif" font-size="10.00">js_new_shape2</text>
</a>
</g>
</g>
<!-- Node9&#45;&gt;Node10 -->
<g id="edge8" class="edge">
<title>Node9&#45;&gt;Node10</title>
<path fill="none" stroke="midnightblue" d="M430.8,-262.24C447.79,-264.37 467.66,-266.86 485.78,-269.14"/>
<polygon fill="midnightblue" stroke="midnightblue" points="485.56,-272.64 495.92,-270.41 486.44,-265.69 485.56,-272.64"/>
</g>
<!-- Node10&#45;&gt;Node5 -->
<g id="edge10" class="edge">
<title>Node10&#45;&gt;Node5</title>
<path fill="none" stroke="midnightblue" d="M587.08,-285.25C598.13,-287.54 610.11,-290.02 621.62,-292.41"/>
<polygon fill="midnightblue" stroke="midnightblue" points="621.08,-295.87 631.58,-294.48 622.5,-289.02 621.08,-295.87"/>
</g>
<!-- Node11 -->
<g id="node10" class="node">
<title>Node11</title>
<g id="a_node10"><a xlink:href="quickjs_8c.html#a9780456a71703c53244b88831bc8fb7a" target="_top" xlink:title=" ">
<polygon fill="none" stroke="red" points="635.5,-247.5 635.5,-266.5 721.5,-266.5 721.5,-247.5 635.5,-247.5"/>
<text text-anchor="middle" x="678.5" y="-254.5" font-family="Helvetica,sans-Serif" font-size="10.00">add_gc_object</text>
</a>
</g>
</g>
<!-- Node10&#45;&gt;Node11 -->
<g id="edge9" class="edge">
<title>Node10&#45;&gt;Node11</title>
<path fill="none" stroke="midnightblue" d="M587.08,-269.73C599.32,-268 612.7,-266.12 625.33,-264.34"/>
<polygon fill="midnightblue" stroke="midnightblue" points="625.84,-267.8 635.26,-262.95 624.87,-260.87 625.84,-267.8"/>
</g>
<!-- Node25&#45;&gt;Node11 -->
<g id="edge12" class="edge">
<title>Node25&#45;&gt;Node11</title>
<path fill="none" stroke="midnightblue" d="M413.1,-152.52C464.44,-172.81 584.69,-220.33 643.67,-243.63"/>
<polygon fill="midnightblue" stroke="midnightblue" points="642.68,-247 653.26,-247.42 645.25,-240.49 642.68,-247"/>
</g>
<!-- Node26 -->
<g id="node12" class="node">
<title>Node26</title>
<g id="a_node12"><a xlink:href="quickjs_8c.html#a74547db03bf739a52c83a326b32db997" target="_top" xlink:title=" ">
<polygon fill="none" stroke="red" points="501,-114.5 501,-133.5 582,-133.5 582,-114.5 501,-114.5"/>
<text text-anchor="middle" x="541.5" y="-121.5" font-family="Helvetica,sans-Serif" font-size="10.00">add_property</text>
</a>
</g>
</g>
<!-- Node25&#45;&gt;Node26 -->
<g id="edge13" class="edge">
<title>Node25&#45;&gt;Node26</title>
<path fill="none" stroke="midnightblue" d="M457.66,-134.39C468.7,-133.01 479.94,-131.6 490.43,-130.28"/>
<polygon fill="midnightblue" stroke="midnightblue" points="491.16,-133.72 500.65,-129 490.29,-126.77 491.16,-133.72"/>
</g>
<!-- Node42 -->
<g id="node13" class="node">
<title>Node42</title>
<g id="a_node13"><a xlink:href="quickjs_8c.html#a3a9f27520d96cf58aa5bd7359e9cddee" target="_top" xlink:title=" ">
<polygon fill="none" stroke="red" points="636.5,-95.5 636.5,-114.5 720.5,-114.5 720.5,-95.5 636.5,-95.5"/>
<text text-anchor="middle" x="678.5" y="-102.5" font-family="Helvetica,sans-Serif" font-size="10.00">js_free_shape</text>
</a>
</g>
</g>
<!-- Node25&#45;&gt;Node42 -->
<g id="edge17" class="edge">
<title>Node25&#45;&gt;Node42</title>
<path fill="none" stroke="midnightblue" d="M429.26,-133.5C438.81,-130.81 448.87,-127.61 458,-124 474.82,-117.34 476.44,-109.35 494,-105 537.67,-94.18 589,-95.3 626.25,-98.48"/>
<polygon fill="midnightblue" stroke="midnightblue" points="626.09,-101.98 636.37,-99.42 626.73,-95.01 626.09,-101.98"/>
</g>
<!-- Node35 -->
<g id="node14" class="node">
<title>Node35</title>
<g id="a_node14"><a xlink:href="quickjs_8c.html#a80e54dcf9ac687d4ccc2f90273565f30" target="_top" xlink:title=" ">
<polygon fill="none" stroke="red" points="516.5,-38.5 516.5,-57.5 566.5,-57.5 566.5,-38.5 516.5,-38.5"/>
<text text-anchor="middle" x="541.5" y="-45.5" font-family="Helvetica,sans-Serif" font-size="10.00">js_free</text>
</a>
</g>
</g>
<!-- Node25&#45;&gt;Node35 -->
<g id="edge16" class="edge">
<title>Node25&#45;&gt;Node35</title>
<path fill="none" stroke="midnightblue" d="M439.86,-133.43C446.29,-130.97 452.53,-127.88 458,-124 480.93,-107.74 472.88,-90.55 494,-72 497.99,-68.49 502.59,-65.33 507.3,-62.55"/>
<polygon fill="midnightblue" stroke="midnightblue" points="509.24,-65.48 516.39,-57.66 505.93,-59.32 509.24,-65.48"/>
</g>
<!-- Node69 -->
<g id="node15" class="node">
<title>Node69</title>
<g id="a_node15"><a xlink:href="quickjs_8h.html#a2050bc428da1c65ac7eb87c3fa3b0392" target="_top" xlink:title=" ">
<polygon fill="none" stroke="black" points="503,-0.5 503,-19.5 580,-19.5 580,-0.5 503,-0.5"/>
<text text-anchor="middle" x="541.5" y="-7.5" font-family="Helvetica,sans-Serif" font-size="10.00">JS_NewInt32</text>
</a>
</g>
</g>
<!-- Node25&#45;&gt;Node69 -->
<g id="edge18" class="edge">
<title>Node25&#45;&gt;Node69</title>
<path fill="none" stroke="midnightblue" d="M443.59,-133.39C448.84,-130.93 453.77,-127.85 458,-124 491.38,-93.6 462.49,-61.33 494,-29 495.42,-27.55 496.96,-26.2 498.59,-24.96"/>
<polygon fill="midnightblue" stroke="midnightblue" points="500.7,-27.77 507.36,-19.53 497.02,-21.81 500.7,-27.77"/>
</g>
<!-- Node70 -->
<g id="node16" class="node">
<title>Node70</title>
<g id="a_node16"><a xlink:href="quickjs_8c.html#a85321334e4bec66bfc03451897a03a3b" target="_top" xlink:title=" ">
<polygon fill="none" stroke="red" points="502,-152.5 502,-171.5 581,-171.5 581,-152.5 502,-152.5"/>
<text text-anchor="middle" x="541.5" y="-159.5" font-family="Helvetica,sans-Serif" font-size="10.00">js_trigger_gc</text>
</a>
</g>
</g>
<!-- Node25&#45;&gt;Node70 -->
<g id="edge19" class="edge">
<title>Node25&#45;&gt;Node70</title>
<path fill="none" stroke="midnightblue" d="M457.66,-151.61C469.17,-153.05 480.9,-154.53 491.77,-155.89"/>
<polygon fill="midnightblue" stroke="midnightblue" points="491.54,-159.39 501.9,-157.16 492.42,-152.44 491.54,-159.39"/>
</g>
<!-- Node26&#45;&gt;Node8 -->
<g id="edge14" class="edge">
<title>Node26&#45;&gt;Node8</title>
<path fill="none" stroke="midnightblue" d="M569.49,-133.6C590.01,-140.89 618.43,-151 640.98,-159.01"/>
<polygon fill="midnightblue" stroke="midnightblue" points="639.96,-162.37 650.55,-162.42 642.3,-155.77 639.96,-162.37"/>
</g>
<!-- Node26&#45;&gt;Node42 -->
<g id="edge15" class="edge">
<title>Node26&#45;&gt;Node42</title>
<path fill="none" stroke="midnightblue" d="M582.27,-118.4C595.92,-116.48 611.39,-114.3 625.84,-112.27"/>
<polygon fill="midnightblue" stroke="midnightblue" points="626.72,-115.68 636.14,-110.82 625.75,-108.75 626.72,-115.68"/>
</g>
</g>
</svg>
