<?xml version="1.0" encoding="UTF-8" standalone="no"?>
<!DOCTYPE svg PUBLIC "-//W3C//DTD SVG 1.1//EN"
 "http://www.w3.org/Graphics/SVG/1.1/DTD/svg11.dtd">
<!-- Generated by graphviz version 2.43.0 (0)
 -->
<!-- Title: JS_ToInt64Free Pages: 1 -->
<svg width="470pt" height="180pt"
 viewBox="0.00 0.00 470.00 180.00" xmlns="http://www.w3.org/2000/svg" xmlns:xlink="http://www.w3.org/1999/xlink">
<g id="graph0" class="graph" transform="scale(1 1) rotate(0) translate(4 176)">
<title>JS_ToInt64Free</title>
<!-- Node1 -->
<g id="node1" class="node">
<title>Node1</title>
<g id="a_node1"><a xlink:title=" ">
<polygon fill="#bfbfbf" stroke="black" points="375,-95.5 375,-114.5 462,-114.5 462,-95.5 375,-95.5"/>
<text text-anchor="middle" x="418.5" y="-102.5" font-family="Helvetica,sans-Serif" font-size="10.00">JS_ToInt64Free</text>
</a>
</g>
</g>
<!-- Node2 -->
<g id="node2" class="node">
<title>Node2</title>
<g id="a_node2"><a xlink:href="quickjs_8c.html#ae2829a2d31c667739617023e2374a6b2" target="_top" xlink:title=" ">
<polygon fill="none" stroke="black" points="273,-95.5 273,-114.5 339,-114.5 339,-95.5 273,-95.5"/>
<text text-anchor="middle" x="306" y="-102.5" font-family="Helvetica,sans-Serif" font-size="10.00">JS_ToInt64</text>
</a>
</g>
</g>
<!-- Node1&#45;&gt;Node2 -->
<g id="edge1" class="edge">
<title>Node1&#45;&gt;Node2</title>
<path fill="none" stroke="midnightblue" d="M364.7,-105C356.04,-105 347.29,-105 339.32,-105"/>
<polygon fill="midnightblue" stroke="midnightblue" points="364.78,-108.5 374.78,-105 364.78,-101.5 364.78,-108.5"/>
</g>
<!-- Node3 -->
<g id="node3" class="node">
<title>Node3</title>
<g id="a_node3"><a xlink:href="quickjs-libc_8c.html#acd6d7f2e207ed1d263e55bed721a7288" target="_top" xlink:title=" ">
<polygon fill="none" stroke="black" points="135,-152.5 135,-171.5 237,-171.5 237,-152.5 135,-152.5"/>
<text text-anchor="middle" x="186" y="-159.5" font-family="Helvetica,sans-Serif" font-size="10.00">js_os_setTimeout</text>
</a>
</g>
</g>
<!-- Node2&#45;&gt;Node3 -->
<g id="edge2" class="edge">
<title>Node2&#45;&gt;Node3</title>
<path fill="none" stroke="midnightblue" d="M280.75,-119.69C267.97,-127.14 251.89,-136.05 237,-143 229.76,-146.38 221.74,-149.63 214.29,-152.46"/>
<polygon fill="midnightblue" stroke="midnightblue" points="282.58,-122.68 289.41,-114.58 279.02,-116.65 282.58,-122.68"/>
</g>
<!-- Node4 -->
<g id="node4" class="node">
<title>Node4</title>
<g id="a_node4"><a xlink:href="quickjs-libc_8c.html#ac6c57d6d76a5e1581e1ce9fa60f8e60a" target="_top" xlink:title=" ">
<polygon fill="none" stroke="black" points="149.5,-114.5 149.5,-133.5 222.5,-133.5 222.5,-114.5 149.5,-114.5"/>
<text text-anchor="middle" x="186" y="-121.5" font-family="Helvetica,sans-Serif" font-size="10.00">js_os_sleep</text>
</a>
</g>
</g>
<!-- Node2&#45;&gt;Node4 -->
<g id="edge3" class="edge">
<title>Node2&#45;&gt;Node4</title>
<path fill="none" stroke="midnightblue" d="M262.55,-111.84C249.43,-113.95 235.12,-116.25 222.52,-118.28"/>
<polygon fill="midnightblue" stroke="midnightblue" points="263.44,-115.24 272.76,-110.19 262.33,-108.33 263.44,-115.24"/>
</g>
<!-- Node5 -->
<g id="node5" class="node">
<title>Node5</title>
<g id="a_node5"><a xlink:href="quickjs-libc_8c.html#a75a026899e6e503ad72d190af515069e" target="_top" xlink:title=" ">
<polygon fill="none" stroke="black" points="146,-76.5 146,-95.5 226,-95.5 226,-76.5 146,-76.5"/>
<text text-anchor="middle" x="186" y="-83.5" font-family="Helvetica,sans-Serif" font-size="10.00">js_os_utimes</text>
</a>
</g>
</g>
<!-- Node2&#45;&gt;Node5 -->
<g id="edge4" class="edge">
<title>Node2&#45;&gt;Node5</title>
<path fill="none" stroke="midnightblue" d="M262.66,-98.18C250.82,-96.28 238.01,-94.21 226.35,-92.34"/>
<polygon fill="midnightblue" stroke="midnightblue" points="262.33,-101.67 272.76,-99.81 263.44,-94.76 262.33,-101.67"/>
</g>
<!-- Node6 -->
<g id="node6" class="node">
<title>Node6</title>
<g id="a_node6"><a xlink:href="quickjs_8c.html#acbddbd012155853a1d93ae7bb4055f0d" target="_top" xlink:title=" ">
<polygon fill="none" stroke="black" points="145,-38.5 145,-57.5 227,-57.5 227,-38.5 145,-38.5"/>
<text text-anchor="middle" x="186" y="-45.5" font-family="Helvetica,sans-Serif" font-size="10.00">JS_ToInt64Ext</text>
</a>
</g>
</g>
<!-- Node2&#45;&gt;Node6 -->
<g id="edge5" class="edge">
<title>Node2&#45;&gt;Node6</title>
<path fill="none" stroke="midnightblue" d="M280.75,-90.31C267.97,-82.86 251.89,-73.95 237,-67 229.76,-63.62 221.74,-60.37 214.29,-57.54"/>
<polygon fill="midnightblue" stroke="midnightblue" points="279.02,-93.35 289.41,-95.42 282.58,-87.32 279.02,-93.35"/>
</g>
<!-- Node7 -->
<g id="node7" class="node">
<title>Node7</title>
<g id="a_node7"><a xlink:href="quickjs-libc_8c.html#a06fb885216567f06919c7bbe0436234a" target="_top" xlink:title=" ">
<polygon fill="none" stroke="black" points="14.5,-76.5 14.5,-95.5 84.5,-95.5 84.5,-76.5 14.5,-76.5"/>
<text text-anchor="middle" x="49.5" y="-83.5" font-family="Helvetica,sans-Serif" font-size="10.00">js_os_seek</text>
</a>
</g>
</g>
<!-- Node6&#45;&gt;Node7 -->
<g id="edge6" class="edge">
<title>Node6&#45;&gt;Node7</title>
<path fill="none" stroke="midnightblue" d="M141.4,-60.32C122.92,-65.54 101.71,-71.53 84.43,-76.41"/>
<polygon fill="midnightblue" stroke="midnightblue" points="142.39,-63.68 151.06,-57.59 140.49,-56.94 142.39,-63.68"/>
</g>
<!-- Node8 -->
<g id="node8" class="node">
<title>Node8</title>
<g id="a_node8"><a xlink:href="quickjs-libc_8c.html#a2abec3aeee82a6dd3dd063725bbeecfe" target="_top" xlink:title=" ">
<polygon fill="none" stroke="red" points="0,-38.5 0,-57.5 99,-57.5 99,-38.5 0,-38.5"/>
<text text-anchor="middle" x="49.5" y="-45.5" font-family="Helvetica,sans-Serif" font-size="10.00">js_printf_internal</text>
</a>
</g>
</g>
<!-- Node6&#45;&gt;Node8 -->
<g id="edge7" class="edge">
<title>Node6&#45;&gt;Node8</title>
<path fill="none" stroke="midnightblue" d="M134.36,-48C122.9,-48 110.76,-48 99.38,-48"/>
<polygon fill="midnightblue" stroke="midnightblue" points="134.65,-51.5 144.65,-48 134.65,-44.5 134.65,-51.5"/>
</g>
<!-- Node12 -->
<g id="node9" class="node">
<title>Node12</title>
<g id="a_node9"><a xlink:href="quickjs-libc_8c.html#ab4e00836dd0e1609a2b081eb5e335df9" target="_top" xlink:title=" ">
<polygon fill="none" stroke="black" points="2.5,-0.5 2.5,-19.5 96.5,-19.5 96.5,-0.5 2.5,-0.5"/>
<text text-anchor="middle" x="49.5" y="-7.5" font-family="Helvetica,sans-Serif" font-size="10.00">js_std_file_seek</text>
</a>
</g>
</g>
<!-- Node6&#45;&gt;Node12 -->
<g id="edge8" class="edge">
<title>Node6&#45;&gt;Node12</title>
<path fill="none" stroke="midnightblue" d="M141.4,-35.68C122.92,-30.46 101.71,-24.47 84.43,-19.59"/>
<polygon fill="midnightblue" stroke="midnightblue" points="140.49,-39.06 151.06,-38.41 142.39,-32.32 140.49,-39.06"/>
</g>
</g>
</svg>
