<?xml version="1.0" encoding="UTF-8" standalone="no"?>
<!DOCTYPE svg PUBLIC "-//W3C//DTD SVG 1.1//EN"
 "http://www.w3.org/Graphics/SVG/1.1/DTD/svg11.dtd">
<!-- Generated by graphviz version 2.43.0 (0)
 -->
<!-- Title: JS_ToPrimitiveFree Pages: 1 -->
<svg width="837pt" height="1016pt"
 viewBox="0.00 0.00 837.00 1016.00" xmlns="http://www.w3.org/2000/svg" xmlns:xlink="http://www.w3.org/1999/xlink">
<g id="graph0" class="graph" transform="scale(1 1) rotate(0) translate(4 1012)">
<title>JS_ToPrimitiveFree</title>
<!-- Node1 -->
<g id="node1" class="node">
<title>Node1</title>
<g id="a_node1"><a xlink:title=" ">
<polygon fill="#bfbfbf" stroke="black" points="0,-152.5 0,-171.5 107,-171.5 107,-152.5 0,-152.5"/>
<text text-anchor="middle" x="53.5" y="-159.5" font-family="Helvetica,sans-Serif" font-size="10.00">JS_ToPrimitiveFree</text>
</a>
</g>
</g>
<!-- Node2 -->
<g id="node2" class="node">
<title>Node2</title>
<g id="a_node2"><a xlink:href="quickjs_8c.html#a260bfa297ff6cb5bd18e229afaa54663" target="_top" xlink:title=" ">
<polygon fill="none" stroke="black" points="396.5,-988.5 396.5,-1007.5 492.5,-1007.5 492.5,-988.5 396.5,-988.5"/>
<text text-anchor="middle" x="444.5" y="-995.5" font-family="Helvetica,sans-Serif" font-size="10.00">JS_AtomToString</text>
</a>
</g>
</g>
<!-- Node1&#45;&gt;Node2 -->
<g id="edge1" class="edge">
<title>Node1&#45;&gt;Node2</title>
<path fill="none" stroke="midnightblue" d="M54.69,-171.74C56,-225.51 66.29,-490.88 143,-689 203.31,-844.75 236.62,-896.79 382,-979 385.88,-981.19 390.04,-983.17 394.31,-984.93"/>
<polygon fill="midnightblue" stroke="midnightblue" points="393.15,-988.23 403.74,-988.47 395.61,-981.68 393.15,-988.23"/>
</g>
<!-- Node30 -->
<g id="node8" class="node">
<title>Node30</title>
<g id="a_node8"><a xlink:href="quickjs_8c.html#a75f6ee5e4235a7dc99889f3d2eb2c147" target="_top" xlink:title=" ">
<polygon fill="none" stroke="black" points="147.5,-475.5 147.5,-494.5 218.5,-494.5 218.5,-475.5 147.5,-475.5"/>
<text text-anchor="middle" x="183" y="-482.5" font-family="Helvetica,sans-Serif" font-size="10.00">JS_CallFree</text>
</a>
</g>
</g>
<!-- Node1&#45;&gt;Node30 -->
<g id="edge7" class="edge">
<title>Node1&#45;&gt;Node30</title>
<path fill="none" stroke="midnightblue" d="M58.32,-171.67C76.02,-216.52 150.34,-404.78 174.43,-465.81"/>
<polygon fill="midnightblue" stroke="midnightblue" points="171.27,-467.35 178.2,-475.37 177.78,-464.78 171.27,-467.35"/>
</g>
<!-- Node78 -->
<g id="node16" class="node">
<title>Node78</title>
<g id="a_node16"><a xlink:href="quickjs_8h.html#afaa20c47565bc704c6c85f3d77254e7d" target="_top" xlink:title=" ">
<polygon fill="none" stroke="red" points="728,-228.5 728,-247.5 807,-247.5 807,-228.5 728,-228.5"/>
<text text-anchor="middle" x="767.5" y="-235.5" font-family="Helvetica,sans-Serif" font-size="10.00">JS_FreeValue</text>
</a>
</g>
</g>
<!-- Node1&#45;&gt;Node78 -->
<g id="edge47" class="edge">
<title>Node1&#45;&gt;Node78</title>
<path fill="none" stroke="midnightblue" d="M63.86,-152.04C79.01,-136.5 110.52,-106.54 143,-90 207.94,-56.93 228.62,-48 301.5,-48 301.5,-48 301.5,-48 445.5,-48 580.51,-48 708.52,-174.01 751.38,-220.79"/>
<polygon fill="midnightblue" stroke="midnightblue" points="748.87,-223.23 758.17,-228.32 754.07,-218.55 748.87,-223.23"/>
</g>
<!-- Node95 -->
<g id="node17" class="node">
<title>Node95</title>
<g id="a_node17"><a xlink:href="quickjs_8h.html#ad80a83d73e9b7d872b88fbf2943aebe9" target="_top" xlink:title=" ">
<polygon fill="none" stroke="black" points="563,-266.5 563,-285.5 650,-285.5 650,-266.5 563,-266.5"/>
<text text-anchor="middle" x="606.5" y="-273.5" font-family="Helvetica,sans-Serif" font-size="10.00">JS_IsException</text>
</a>
</g>
</g>
<!-- Node1&#45;&gt;Node95 -->
<g id="edge49" class="edge">
<title>Node1&#45;&gt;Node95</title>
<path fill="none" stroke="midnightblue" d="M72.45,-152.45C136.54,-119.76 358.24,-19.02 507,-105 564.26,-138.1 591.17,-218.5 600.95,-256.06"/>
<polygon fill="midnightblue" stroke="midnightblue" points="597.66,-257.36 603.44,-266.24 604.46,-255.69 597.66,-257.36"/>
</g>
<!-- Node89 -->
<g id="node26" class="node">
<title>Node89</title>
<g id="a_node26"><a xlink:href="quickjs_8h.html#a89b7c8686c7eee70b86be722ee4730ad" target="_top" xlink:title=" ">
<polygon fill="none" stroke="black" points="400,-950.5 400,-969.5 489,-969.5 489,-950.5 400,-950.5"/>
<text text-anchor="middle" x="444.5" y="-957.5" font-family="Helvetica,sans-Serif" font-size="10.00">JS_GetProperty</text>
</a>
</g>
</g>
<!-- Node1&#45;&gt;Node89 -->
<g id="edge48" class="edge">
<title>Node1&#45;&gt;Node89</title>
<path fill="none" stroke="midnightblue" d="M55.16,-171.9C59.87,-235.75 93.14,-593.62 259,-814 303.68,-873.37 378.03,-922.09 417.32,-945.31"/>
<polygon fill="midnightblue" stroke="midnightblue" points="415.65,-948.39 426.06,-950.4 419.17,-942.34 415.65,-948.39"/>
</g>
<!-- Node217 -->
<g id="node28" class="node">
<title>Node217</title>
<g id="a_node28"><a xlink:href="quickjs_8h.html#a149f24b67e745bad93573b3b4c80db4c" target="_top" xlink:title=" ">
<polygon fill="none" stroke="black" points="415,-190.5 415,-209.5 474,-209.5 474,-190.5 415,-190.5"/>
<text text-anchor="middle" x="444.5" y="-197.5" font-family="Helvetica,sans-Serif" font-size="10.00">JS_IsNull</text>
</a>
</g>
</g>
<!-- Node1&#45;&gt;Node217 -->
<g id="edge51" class="edge">
<title>Node1&#45;&gt;Node217</title>
<path fill="none" stroke="midnightblue" d="M107.37,-167.16C186.6,-174.9 334.33,-189.34 404.52,-196.19"/>
<polygon fill="midnightblue" stroke="midnightblue" points="404.41,-199.7 414.7,-197.19 405.09,-192.73 404.41,-199.7"/>
</g>
<!-- Node126 -->
<g id="node29" class="node">
<title>Node126</title>
<g id="a_node29"><a xlink:href="quickjs_8h.html#a4e407128a9605afb77523e49e9a627fd" target="_top" xlink:title=" ">
<polygon fill="none" stroke="black" points="400,-114.5 400,-133.5 489,-133.5 489,-114.5 400,-114.5"/>
<text text-anchor="middle" x="444.5" y="-121.5" font-family="Helvetica,sans-Serif" font-size="10.00">JS_IsUndefined</text>
</a>
</g>
</g>
<!-- Node1&#45;&gt;Node126 -->
<g id="edge52" class="edge">
<title>Node1&#45;&gt;Node126</title>
<path fill="none" stroke="midnightblue" d="M107.37,-156.84C181.37,-149.61 315.12,-136.54 389.65,-129.26"/>
<polygon fill="midnightblue" stroke="midnightblue" points="390.15,-132.73 399.76,-128.27 389.47,-125.76 390.15,-132.73"/>
</g>
<!-- Node221 -->
<g id="node30" class="node">
<title>Node221</title>
<g id="a_node30"><a xlink:href="quickjs_8c.html#a1ca9cdb1fa2ffc3e6506e92b200e490f" target="_top" xlink:title=" ">
<polygon fill="none" stroke="black" points="143,-0.5 143,-19.5 223,-19.5 223,-0.5 143,-0.5"/>
<text text-anchor="middle" x="183" y="-7.5" font-family="Helvetica,sans-Serif" font-size="10.00">JS_IsFunction</text>
</a>
</g>
</g>
<!-- Node1&#45;&gt;Node221 -->
<g id="edge50" class="edge">
<title>Node1&#45;&gt;Node221</title>
<path fill="none" stroke="midnightblue" d="M59.37,-152.33C71.19,-129.54 103.4,-71.55 143,-34 146.4,-30.77 150.31,-27.76 154.3,-25.03"/>
<polygon fill="midnightblue" stroke="midnightblue" points="156.42,-27.83 163.03,-19.55 152.7,-21.91 156.42,-27.83"/>
</g>
<!-- Node3 -->
<g id="node3" class="node">
<title>Node3</title>
<g id="a_node3"><a xlink:href="quickjs_8c.html#a06ff303a11e6641cbf1f6634e6a61811" target="_top" xlink:title=" ">
<polygon fill="none" stroke="black" points="554,-912.5 554,-931.5 659,-931.5 659,-912.5 554,-912.5"/>
<text text-anchor="middle" x="606.5" y="-919.5" font-family="Helvetica,sans-Serif" font-size="10.00">__JS_AtomToValue</text>
</a>
</g>
</g>
<!-- Node2&#45;&gt;Node3 -->
<g id="edge2" class="edge">
<title>Node2&#45;&gt;Node3</title>
<path fill="none" stroke="midnightblue" d="M481.12,-988.48C489.73,-985.78 498.81,-982.58 507,-979 534.19,-967.11 563.39,-949.55 582.87,-937.07"/>
<polygon fill="midnightblue" stroke="midnightblue" points="584.87,-939.94 591.35,-931.56 581.06,-934.07 584.87,-939.94"/>
</g>
<!-- Node4 -->
<g id="node4" class="node">
<title>Node4</title>
<g id="a_node4"><a xlink:href="quickjs_8c.html#a288254c06a39c9fca740a7abdad2834e" target="_top" xlink:title=" ">
<polygon fill="none" stroke="black" points="706,-912.5 706,-931.5 829,-931.5 829,-912.5 706,-912.5"/>
<text text-anchor="middle" x="767.5" y="-919.5" font-family="Helvetica,sans-Serif" font-size="10.00">__JS_AtomIsTaggedInt</text>
</a>
</g>
</g>
<!-- Node3&#45;&gt;Node4 -->
<g id="edge3" class="edge">
<title>Node3&#45;&gt;Node4</title>
<path fill="none" stroke="midnightblue" d="M659.12,-922C670.74,-922 683.27,-922 695.52,-922"/>
<polygon fill="midnightblue" stroke="midnightblue" points="695.73,-925.5 705.73,-922 695.73,-918.5 695.73,-925.5"/>
</g>
<!-- Node5 -->
<g id="node5" class="node">
<title>Node5</title>
<g id="a_node5"><a xlink:href="quickjs_8c.html#a89f38938cee8077ce1fbba07946ed185" target="_top" xlink:title=" ">
<polygon fill="none" stroke="black" points="712.5,-874.5 712.5,-893.5 822.5,-893.5 822.5,-874.5 712.5,-874.5"/>
<text text-anchor="middle" x="767.5" y="-881.5" font-family="Helvetica,sans-Serif" font-size="10.00">__JS_AtomToUInt32</text>
</a>
</g>
</g>
<!-- Node3&#45;&gt;Node5 -->
<g id="edge4" class="edge">
<title>Node3&#45;&gt;Node5</title>
<path fill="none" stroke="midnightblue" d="M647.62,-912.41C668.6,-907.4 694.48,-901.21 716.73,-895.89"/>
<polygon fill="midnightblue" stroke="midnightblue" points="717.75,-899.25 726.67,-893.52 716.13,-892.44 717.75,-899.25"/>
</g>
<!-- Node6 -->
<g id="node6" class="node">
<title>Node6</title>
<g id="a_node6"><a xlink:href="quickjs_8h.html#a775522f2d084fc8fa0fcb33f390006b4" target="_top" xlink:title=" ">
<polygon fill="none" stroke="black" points="729,-798.5 729,-817.5 806,-817.5 806,-798.5 729,-798.5"/>
<text text-anchor="middle" x="767.5" y="-805.5" font-family="Helvetica,sans-Serif" font-size="10.00">JS_DupValue</text>
</a>
</g>
</g>
<!-- Node3&#45;&gt;Node6 -->
<g id="edge5" class="edge">
<title>Node3&#45;&gt;Node6</title>
<path fill="none" stroke="midnightblue" d="M654.8,-912.37C660.3,-909.92 665.53,-906.85 670,-903 698.3,-878.59 677.81,-851.54 706,-827 709.95,-823.56 714.51,-820.75 719.33,-818.44"/>
<polygon fill="midnightblue" stroke="midnightblue" points="720.86,-821.6 728.82,-814.6 718.24,-815.11 720.86,-821.6"/>
</g>
<!-- Node7 -->
<g id="node7" class="node">
<title>Node7</title>
<g id="a_node7"><a xlink:href="quickjs_8c.html#a0ee6a3654a6016393fac5e1c108f403a" target="_top" xlink:title=" ">
<polygon fill="none" stroke="red" points="727,-836.5 727,-855.5 808,-855.5 808,-836.5 727,-836.5"/>
<text text-anchor="middle" x="767.5" y="-843.5" font-family="Helvetica,sans-Serif" font-size="10.00">JS_NewString</text>
</a>
</g>
</g>
<!-- Node3&#45;&gt;Node7 -->
<g id="edge6" class="edge">
<title>Node3&#45;&gt;Node7</title>
<path fill="none" stroke="midnightblue" d="M649.82,-912.41C656.83,-909.91 663.83,-906.82 670,-903 689.79,-890.77 686.27,-877.33 706,-865 709.57,-862.77 713.43,-860.78 717.4,-859.01"/>
<polygon fill="midnightblue" stroke="midnightblue" points="718.81,-862.22 726.81,-855.27 716.23,-855.71 718.81,-862.22"/>
</g>
<!-- Node31 -->
<g id="node9" class="node">
<title>Node31</title>
<g id="a_node9"><a xlink:href="quickjs_8c.html#ac2894ff4edcdb4e6841bcce9c76081e3" target="_top" xlink:title=" ">
<polygon fill="none" stroke="red" points="259,-513.5 259,-532.5 346,-532.5 346,-513.5 259,-513.5"/>
<text text-anchor="middle" x="302.5" y="-520.5" font-family="Helvetica,sans-Serif" font-size="10.00">JS_CallInternal</text>
</a>
</g>
</g>
<!-- Node30&#45;&gt;Node31 -->
<g id="edge8" class="edge">
<title>Node30&#45;&gt;Node31</title>
<path fill="none" stroke="midnightblue" d="M218.62,-489.98C237.23,-495.13 259.75,-502.61 276.62,-509.32"/>
<polygon fill="midnightblue" stroke="midnightblue" points="275.73,-512.74 286.3,-513.37 278.43,-506.28 275.73,-512.74"/>
</g>
<!-- Node30&#45;&gt;Node78 -->
<g id="edge46" class="edge">
<title>Node30&#45;&gt;Node78</title>
<path fill="none" stroke="midnightblue" d="M186.61,-475.39C199.14,-431.37 257.69,-248.39 382,-181 502.76,-115.54 674.57,-190.21 739.9,-223.56"/>
<polygon fill="midnightblue" stroke="midnightblue" points="738.61,-226.83 749.1,-228.34 741.84,-220.62 738.61,-226.83"/>
</g>
<!-- Node31&#45;&gt;Node1 -->
<g id="edge45" class="edge">
<title>Node31&#45;&gt;Node1</title>
<path fill="none" stroke="midnightblue" d="M258.93,-529.97C223.66,-533.19 174.4,-531.45 143,-504 93.24,-460.5 64.54,-247.83 56.71,-181.68"/>
<polygon fill="midnightblue" stroke="midnightblue" points="60.18,-181.26 55.56,-171.73 53.23,-182.06 60.18,-181.26"/>
</g>
<!-- Node31&#45;&gt;Node2 -->
<g id="edge29" class="edge">
<title>Node31&#45;&gt;Node2</title>
<path fill="none" stroke="midnightblue" d="M303.83,-532.81C306.06,-592.73 320.63,-909.14 382,-979 383.74,-980.98 385.69,-982.76 387.78,-984.36"/>
<polygon fill="midnightblue" stroke="midnightblue" points="386.13,-987.45 396.49,-989.65 389.76,-981.47 386.13,-987.45"/>
</g>
<!-- Node31&#45;&gt;Node6 -->
<g id="edge32" class="edge">
<title>Node31&#45;&gt;Node6</title>
<path fill="none" stroke="midnightblue" d="M346.29,-523.98C389.11,-526.52 455.8,-534.82 507,-561 621.22,-619.4 719.83,-744.03 753.85,-790.26"/>
<polygon fill="midnightblue" stroke="midnightblue" points="751.07,-792.38 759.78,-798.42 756.73,-788.27 751.07,-792.38"/>
</g>
<!-- Node31&#45;&gt;Node30 -->
<g id="edge30" class="edge">
<title>Node31&#45;&gt;Node30</title>
<path fill="none" stroke="midnightblue" d="M258.8,-515.71C241.95,-510.75 223.18,-504.38 208.66,-498.59"/>
<polygon fill="midnightblue" stroke="midnightblue" points="209.94,-495.33 199.36,-494.7 207.23,-501.79 209.94,-495.33"/>
</g>
<!-- Node31&#45;&gt;Node31 -->
<g id="edge31" class="edge">
<title>Node31&#45;&gt;Node31</title>
<path fill="none" stroke="midnightblue" d="M284.31,-532.76C275.46,-541.57 281.53,-551 302.5,-551 315.94,-551 323.25,-547.13 324.45,-542.03"/>
<polygon fill="midnightblue" stroke="midnightblue" points="327.69,-540.71 320.69,-532.76 321.2,-543.34 327.69,-540.71"/>
</g>
<!-- Node9 -->
<g id="node10" class="node">
<title>Node9</title>
<g id="a_node10"><a xlink:href="quickjs_8c.html#a853f0924d441ea4225488f37c8b69f9a" target="_top" xlink:title=" ">
<polygon fill="none" stroke="black" points="404.5,-456.5 404.5,-475.5 484.5,-475.5 484.5,-456.5 404.5,-456.5"/>
<text text-anchor="middle" x="444.5" y="-463.5" font-family="Helvetica,sans-Serif" font-size="10.00">__attribute__</text>
</a>
</g>
</g>
<!-- Node31&#45;&gt;Node9 -->
<g id="edge9" class="edge">
<title>Node31&#45;&gt;Node9</title>
<path fill="none" stroke="midnightblue" d="M321.24,-513.46C336.93,-505.25 360.59,-493.43 382,-485 387.6,-482.8 393.56,-480.68 399.48,-478.71"/>
<polygon fill="midnightblue" stroke="midnightblue" points="400.89,-481.93 409.35,-475.55 398.76,-475.27 400.89,-481.93"/>
</g>
<!-- Node32 -->
<g id="node11" class="node">
<title>Node32</title>
<g id="a_node11"><a xlink:href="quickjs_8c.html#a877fcb7651d95b411ce70e62b7f4a1f0" target="_top" xlink:title=" ">
<polygon fill="none" stroke="black" points="382,-418.5 382,-437.5 507,-437.5 507,-418.5 382,-418.5"/>
<text text-anchor="middle" x="444.5" y="-425.5" font-family="Helvetica,sans-Serif" font-size="10.00">__JS_AtomFromUInt32</text>
</a>
</g>
</g>
<!-- Node31&#45;&gt;Node32 -->
<g id="edge10" class="edge">
<title>Node31&#45;&gt;Node32</title>
<path fill="none" stroke="midnightblue" d="M310.88,-513.35C323.66,-497.29 351.47,-465.07 382,-447 385.62,-444.85 389.51,-442.93 393.51,-441.21"/>
<polygon fill="midnightblue" stroke="midnightblue" points="394.91,-444.42 402.97,-437.54 392.38,-437.89 394.91,-444.42"/>
</g>
<!-- Node33 -->
<g id="node12" class="node">
<title>Node33</title>
<g id="a_node12"><a xlink:href="quickjs_8h.html#a9bf98b18de88b4199910a43e933eb97d" target="_top" xlink:title=" ">
<polygon fill="none" stroke="black" points="394.5,-380.5 394.5,-399.5 494.5,-399.5 494.5,-380.5 394.5,-380.5"/>
<text text-anchor="middle" x="444.5" y="-387.5" font-family="Helvetica,sans-Serif" font-size="10.00">__JS_NewFloat64</text>
</a>
</g>
</g>
<!-- Node31&#45;&gt;Node33 -->
<g id="edge11" class="edge">
<title>Node31&#45;&gt;Node33</title>
<path fill="none" stroke="midnightblue" d="M307.42,-513.44C316.88,-491.57 343.08,-437.6 382,-409 384.66,-407.05 387.52,-405.29 390.5,-403.72"/>
<polygon fill="midnightblue" stroke="midnightblue" points="392.09,-406.84 399.73,-399.5 389.18,-400.47 392.09,-406.84"/>
</g>
<!-- Node34 -->
<g id="node13" class="node">
<title>Node34</title>
<g id="a_node13"><a xlink:href="quickjs_8c.html#a74547db03bf739a52c83a326b32db997" target="_top" xlink:title=" ">
<polygon fill="none" stroke="red" points="404,-342.5 404,-361.5 485,-361.5 485,-342.5 404,-342.5"/>
<text text-anchor="middle" x="444.5" y="-349.5" font-family="Helvetica,sans-Serif" font-size="10.00">add_property</text>
</a>
</g>
</g>
<!-- Node31&#45;&gt;Node34 -->
<g id="edge12" class="edge">
<title>Node31&#45;&gt;Node34</title>
<path fill="none" stroke="midnightblue" d="M305.75,-513.15C312.41,-486.21 334.63,-410.65 382,-371 385.71,-367.89 389.93,-365.29 394.38,-363.11"/>
<polygon fill="midnightblue" stroke="midnightblue" points="395.85,-366.29 403.74,-359.22 393.16,-359.83 395.85,-366.29"/>
</g>
<!-- Node86 -->
<g id="node14" class="node">
<title>Node86</title>
<g id="a_node14"><a xlink:href="quickjs_8c.html#a4956f45ffd2849b96dc051277264f87a" target="_top" xlink:title=" ">
<polygon fill="none" stroke="red" points="403.5,-494.5 403.5,-513.5 485.5,-513.5 485.5,-494.5 403.5,-494.5"/>
<text text-anchor="middle" x="444.5" y="-501.5" font-family="Helvetica,sans-Serif" font-size="10.00">build_arg_list</text>
</a>
</g>
</g>
<!-- Node31&#45;&gt;Node86 -->
<g id="edge13" class="edge">
<title>Node31&#45;&gt;Node86</title>
<path fill="none" stroke="midnightblue" d="M346.27,-517.2C361.17,-515.17 378.03,-512.88 393.48,-510.79"/>
<polygon fill="midnightblue" stroke="midnightblue" points="393.95,-514.26 403.39,-509.44 393.01,-507.32 393.95,-514.26"/>
</g>
<!-- Node87 -->
<g id="node15" class="node">
<title>Node87</title>
<g id="a_node15"><a xlink:href="quickjs_8c.html#ac864482356b3efc2d0b0a509fcfa4c7c" target="_top" xlink:title=" ">
<polygon fill="none" stroke="red" points="568,-304.5 568,-323.5 645,-323.5 645,-304.5 568,-304.5"/>
<text text-anchor="middle" x="606.5" y="-311.5" font-family="Helvetica,sans-Serif" font-size="10.00">free_arg_list</text>
</a>
</g>
</g>
<!-- Node31&#45;&gt;Node87 -->
<g id="edge23" class="edge">
<title>Node31&#45;&gt;Node87</title>
<path fill="none" stroke="midnightblue" d="M304.13,-513.43C306.8,-481.53 320.08,-378.33 382,-333 432.9,-295.74 508.86,-298.03 557.8,-304.73"/>
<polygon fill="midnightblue" stroke="midnightblue" points="557.41,-308.21 567.81,-306.21 558.43,-301.28 557.41,-308.21"/>
</g>
<!-- Node31&#45;&gt;Node78 -->
<g id="edge33" class="edge">
<title>Node31&#45;&gt;Node78</title>
<path fill="none" stroke="midnightblue" d="M304.9,-513.21C311.39,-469.42 339.96,-292.18 382,-259 432.72,-218.97 626.06,-227.42 717.73,-233.96"/>
<polygon fill="midnightblue" stroke="midnightblue" points="717.63,-237.46 727.86,-234.7 718.15,-230.48 717.63,-237.46"/>
</g>
<!-- Node31&#45;&gt;Node95 -->
<g id="edge42" class="edge">
<title>Node31&#45;&gt;Node95</title>
<path fill="none" stroke="midnightblue" d="M303.47,-513.23C303.92,-477.48 310.75,-352.88 382,-297 430.1,-259.28 503.15,-259.89 552.53,-266.03"/>
<polygon fill="midnightblue" stroke="midnightblue" points="552.31,-269.54 562.69,-267.41 553.25,-262.6 552.31,-269.54"/>
</g>
<!-- Node157 -->
<g id="node18" class="node">
<title>Node157</title>
<g id="a_node18"><a xlink:href="quickjs_8c.html#a61c8dfb5e807af1b6ff7d8ca61576dda" target="_top" xlink:title=" ">
<polygon fill="none" stroke="red" points="559.5,-836.5 559.5,-855.5 653.5,-855.5 653.5,-836.5 559.5,-836.5"/>
<text text-anchor="middle" x="606.5" y="-843.5" font-family="Helvetica,sans-Serif" font-size="10.00">build_backtrace</text>
</a>
</g>
</g>
<!-- Node31&#45;&gt;Node157 -->
<g id="edge18" class="edge">
<title>Node31&#45;&gt;Node157</title>
<path fill="none" stroke="midnightblue" d="M304.61,-532.62C310.2,-579.07 336.67,-779.57 382,-819 427.52,-858.6 499.41,-860.26 549.31,-855.33"/>
<polygon fill="midnightblue" stroke="midnightblue" points="549.74,-858.81 559.3,-854.23 548.98,-851.85 549.74,-858.81"/>
</g>
<!-- Node245 -->
<g id="node19" class="node">
<title>Node245</title>
<g id="a_node19"><a xlink:href="quickjs_8c.html#a344894112559c2ba75043fd10bcfa02f" target="_top" xlink:title=" ">
<polygon fill="none" stroke="red" points="556,-798.5 556,-817.5 657,-817.5 657,-798.5 556,-798.5"/>
<text text-anchor="middle" x="606.5" y="-805.5" font-family="Helvetica,sans-Serif" font-size="10.00">close_lexical_var</text>
</a>
</g>
</g>
<!-- Node31&#45;&gt;Node245 -->
<g id="edge20" class="edge">
<title>Node31&#45;&gt;Node245</title>
<path fill="none" stroke="midnightblue" d="M304.87,-532.54C311.32,-576.03 340.12,-754.83 382,-789 429.28,-827.58 502.43,-826.04 552.05,-819.05"/>
<polygon fill="midnightblue" stroke="midnightblue" points="552.6,-822.51 561.96,-817.54 551.54,-815.59 552.6,-822.51"/>
</g>
<!-- Node246 -->
<g id="node20" class="node">
<title>Node246</title>
<g id="a_node20"><a xlink:href="quickjs_8c.html#a1782043fce951bd4f0d91c7796b31e24" target="_top" xlink:title=" ">
<polygon fill="none" stroke="red" points="401,-760.5 401,-779.5 488,-779.5 488,-760.5 401,-760.5"/>
<text text-anchor="middle" x="444.5" y="-767.5" font-family="Helvetica,sans-Serif" font-size="10.00">close_var_refs</text>
</a>
</g>
</g>
<!-- Node31&#45;&gt;Node246 -->
<g id="edge22" class="edge">
<title>Node31&#45;&gt;Node246</title>
<path fill="none" stroke="midnightblue" d="M303.87,-532.86C305.71,-567.92 316.75,-687.8 382,-751 384.9,-753.81 388.2,-756.2 391.74,-758.24"/>
<polygon fill="midnightblue" stroke="midnightblue" points="390.38,-761.47 400.91,-762.62 393.39,-755.15 390.38,-761.47"/>
</g>
<!-- Node75 -->
<g id="node21" class="node">
<title>Node75</title>
<g id="a_node21"><a xlink:href="quickjs_8c.html#a9e7b4bccf927d811b0f99b40b08c0472" target="_top" xlink:title=" ">
<polygon fill="none" stroke="red" points="406.5,-722.5 406.5,-741.5 482.5,-741.5 482.5,-722.5 406.5,-722.5"/>
<text text-anchor="middle" x="444.5" y="-729.5" font-family="Helvetica,sans-Serif" font-size="10.00">free_var_ref</text>
</a>
</g>
</g>
<!-- Node31&#45;&gt;Node75 -->
<g id="edge24" class="edge">
<title>Node31&#45;&gt;Node75</title>
<path fill="none" stroke="midnightblue" d="M304.59,-532.51C308.63,-563.34 325.56,-661.54 382,-713 386.34,-716.96 391.48,-720.09 396.93,-722.57"/>
<polygon fill="midnightblue" stroke="midnightblue" points="395.68,-725.84 406.27,-726.16 398.19,-719.3 395.68,-725.84"/>
</g>
<!-- Node248 -->
<g id="node22" class="node">
<title>Node248</title>
<g id="a_node22"><a xlink:href="cutils_8h.html#a7c82a3ee025fee89db5b11ff5b7691b8" target="_top" xlink:title=" ">
<polygon fill="none" stroke="black" points="418,-684.5 418,-703.5 471,-703.5 471,-684.5 418,-684.5"/>
<text text-anchor="middle" x="444.5" y="-691.5" font-family="Helvetica,sans-Serif" font-size="10.00">get_i16</text>
</a>
</g>
</g>
<!-- Node31&#45;&gt;Node248 -->
<g id="edge25" class="edge">
<title>Node31&#45;&gt;Node248</title>
<path fill="none" stroke="midnightblue" d="M305.75,-532.85C312.41,-559.79 334.63,-635.35 382,-675 389.43,-681.22 398.87,-685.4 408.12,-688.22"/>
<polygon fill="midnightblue" stroke="midnightblue" points="407.41,-691.65 417.97,-690.77 409.17,-684.87 407.41,-691.65"/>
</g>
<!-- Node249 -->
<g id="node23" class="node">
<title>Node249</title>
<g id="a_node23"><a xlink:href="cutils_8h.html#a288ee4e688944e23500af2ecc813c306" target="_top" xlink:title=" ">
<polygon fill="none" stroke="black" points="421,-646.5 421,-665.5 468,-665.5 468,-646.5 421,-646.5"/>
<text text-anchor="middle" x="444.5" y="-653.5" font-family="Helvetica,sans-Serif" font-size="10.00">get_i8</text>
</a>
</g>
</g>
<!-- Node31&#45;&gt;Node249 -->
<g id="edge26" class="edge">
<title>Node31&#45;&gt;Node249</title>
<path fill="none" stroke="midnightblue" d="M307.42,-532.56C316.88,-554.43 343.08,-608.4 382,-637 390.42,-643.19 400.9,-647.39 410.8,-650.23"/>
<polygon fill="midnightblue" stroke="midnightblue" points="410.26,-653.7 420.81,-652.73 411.95,-646.91 410.26,-653.7"/>
</g>
<!-- Node250 -->
<g id="node24" class="node">
<title>Node250</title>
<g id="a_node24"><a xlink:href="cutils_8h.html#ad587834d17e95461893d59661e5e9676" target="_top" xlink:title=" ">
<polygon fill="none" stroke="black" points="416.5,-608.5 416.5,-627.5 472.5,-627.5 472.5,-608.5 416.5,-608.5"/>
<text text-anchor="middle" x="444.5" y="-615.5" font-family="Helvetica,sans-Serif" font-size="10.00">get_u16</text>
</a>
</g>
</g>
<!-- Node31&#45;&gt;Node250 -->
<g id="edge27" class="edge">
<title>Node31&#45;&gt;Node250</title>
<path fill="none" stroke="midnightblue" d="M310.88,-532.65C323.66,-548.71 351.47,-580.93 382,-599 389.53,-603.46 398.22,-606.97 406.64,-609.69"/>
<polygon fill="midnightblue" stroke="midnightblue" points="405.74,-613.08 416.32,-612.54 407.71,-606.36 405.74,-613.08"/>
</g>
<!-- Node71 -->
<g id="node25" class="node">
<title>Node71</title>
<g id="a_node25"><a xlink:href="cutils_8h.html#a941262a5f72fda2ec43ae7911e97a0dc" target="_top" xlink:title=" ">
<polygon fill="none" stroke="black" points="416.5,-570.5 416.5,-589.5 472.5,-589.5 472.5,-570.5 416.5,-570.5"/>
<text text-anchor="middle" x="444.5" y="-577.5" font-family="Helvetica,sans-Serif" font-size="10.00">get_u32</text>
</a>
</g>
</g>
<!-- Node31&#45;&gt;Node71 -->
<g id="edge28" class="edge">
<title>Node31&#45;&gt;Node71</title>
<path fill="none" stroke="midnightblue" d="M325.77,-532.54C341.45,-539.22 362.95,-548.28 382,-556 390.81,-559.57 400.38,-563.35 409.28,-566.83"/>
<polygon fill="midnightblue" stroke="midnightblue" points="408.02,-570.09 418.61,-570.45 410.55,-563.57 408.02,-570.09"/>
</g>
<!-- Node31&#45;&gt;Node89 -->
<g id="edge34" class="edge">
<title>Node31&#45;&gt;Node89</title>
<path fill="none" stroke="midnightblue" d="M303.56,-532.66C304.21,-577.25 311.22,-766.52 382,-898 391.82,-916.24 408.68,-932.67 422.26,-944.03"/>
<polygon fill="midnightblue" stroke="midnightblue" points="420.22,-946.88 430.21,-950.42 424.61,-941.42 420.22,-946.88"/>
</g>
<!-- Node90 -->
<g id="node27" class="node">
<title>Node90</title>
<g id="a_node27"><a xlink:href="quickjs_8c.html#a5762c57ae0c9937e986040c01222833a" target="_top" xlink:title=" ">
<polygon fill="none" stroke="red" points="543,-874.5 543,-893.5 670,-893.5 670,-874.5 543,-874.5"/>
<text text-anchor="middle" x="606.5" y="-881.5" font-family="Helvetica,sans-Serif" font-size="10.00">JS_GetPropertyInternal</text>
</a>
</g>
</g>
<!-- Node31&#45;&gt;Node90 -->
<g id="edge41" class="edge">
<title>Node31&#45;&gt;Node90</title>
<path fill="none" stroke="midnightblue" d="M304.37,-532.65C309.02,-582.15 332.65,-806.99 382,-852 422.09,-888.56 484.16,-894.94 532.72,-893.09"/>
<polygon fill="midnightblue" stroke="midnightblue" points="533.06,-896.58 542.87,-892.58 532.7,-889.58 533.06,-896.58"/>
</g>
<!-- Node31&#45;&gt;Node217 -->
<g id="edge43" class="edge">
<title>Node31&#45;&gt;Node217</title>
<path fill="none" stroke="midnightblue" d="M303.09,-513.29C301.92,-472.48 302.75,-312.96 382,-224 388.15,-217.1 396.53,-212.16 405.12,-208.64"/>
<polygon fill="midnightblue" stroke="midnightblue" points="406.53,-211.85 414.8,-205.23 404.21,-205.25 406.53,-211.85"/>
</g>
<!-- Node31&#45;&gt;Node126 -->
<g id="edge44" class="edge">
<title>Node31&#45;&gt;Node126</title>
<path fill="none" stroke="midnightblue" d="M303.69,-513.28C304.9,-470.83 313.97,-298.59 382,-181 391.57,-164.46 407.49,-149.9 420.74,-139.63"/>
<polygon fill="midnightblue" stroke="midnightblue" points="423.02,-142.3 428.96,-133.53 418.85,-136.68 423.02,-142.3"/>
</g>
<!-- Node86&#45;&gt;Node6 -->
<g id="edge16" class="edge">
<title>Node86&#45;&gt;Node6</title>
<path fill="none" stroke="midnightblue" d="M485.55,-496.43C534.54,-489.58 617.42,-486.11 670,-528 753,-594.12 764.89,-735.62 766.38,-787.98"/>
<polygon fill="midnightblue" stroke="midnightblue" points="762.89,-788.32 766.57,-798.26 769.89,-788.2 762.89,-788.32"/>
</g>
<!-- Node86&#45;&gt;Node87 -->
<g id="edge14" class="edge">
<title>Node86&#45;&gt;Node87</title>
<path fill="none" stroke="midnightblue" d="M485.72,-496.33C493.31,-493.62 500.8,-489.95 507,-485 558.19,-444.12 587.86,-368.9 599.6,-333.45"/>
<polygon fill="midnightblue" stroke="midnightblue" points="602.97,-334.4 602.68,-323.81 596.31,-332.28 602.97,-334.4"/>
</g>
<!-- Node86&#45;&gt;Node95 -->
<g id="edge17" class="edge">
<title>Node86&#45;&gt;Node95</title>
<path fill="none" stroke="midnightblue" d="M485.56,-498.42C493.62,-495.58 501.34,-491.33 507,-485 564.26,-420.91 485.59,-358.96 543,-295 546.07,-291.58 549.72,-288.77 553.71,-286.46"/>
<polygon fill="midnightblue" stroke="midnightblue" points="555.3,-289.58 562.86,-282.16 552.32,-283.25 555.3,-289.58"/>
</g>
<!-- Node87&#45;&gt;Node78 -->
<g id="edge15" class="edge">
<title>Node87&#45;&gt;Node78</title>
<path fill="none" stroke="midnightblue" d="M644.06,-304.48C652.71,-301.8 661.8,-298.61 670,-295 696.63,-283.29 725.08,-265.81 744.13,-253.3"/>
<polygon fill="midnightblue" stroke="midnightblue" points="746.3,-256.06 752.68,-247.6 742.42,-250.23 746.3,-256.06"/>
</g>
<!-- Node157&#45;&gt;Node7 -->
<g id="edge19" class="edge">
<title>Node157&#45;&gt;Node7</title>
<path fill="none" stroke="midnightblue" d="M653.92,-846C673.59,-846 696.55,-846 716.58,-846"/>
<polygon fill="midnightblue" stroke="midnightblue" points="716.76,-849.5 726.76,-846 716.76,-842.5 716.76,-849.5"/>
</g>
<!-- Node245&#45;&gt;Node6 -->
<g id="edge21" class="edge">
<title>Node245&#45;&gt;Node6</title>
<path fill="none" stroke="midnightblue" d="M657.37,-808C676.98,-808 699.4,-808 718.79,-808"/>
<polygon fill="midnightblue" stroke="midnightblue" points="718.92,-811.5 728.92,-808 718.92,-804.5 718.92,-811.5"/>
</g>
<!-- Node89&#45;&gt;Node90 -->
<g id="edge35" class="edge">
<title>Node89&#45;&gt;Node90</title>
<path fill="none" stroke="midnightblue" d="M476.6,-950.41C486.68,-946.65 497.66,-941.82 507,-936 525.42,-924.53 524.15,-913.76 543,-903 546.87,-900.79 551.03,-898.81 555.29,-897.04"/>
<polygon fill="midnightblue" stroke="midnightblue" points="556.59,-900.3 564.72,-893.51 554.13,-893.74 556.59,-900.3"/>
</g>
<!-- Node90&#45;&gt;Node4 -->
<g id="edge36" class="edge">
<title>Node90&#45;&gt;Node4</title>
<path fill="none" stroke="midnightblue" d="M647.62,-893.59C668.6,-898.6 694.48,-904.79 716.73,-910.11"/>
<polygon fill="midnightblue" stroke="midnightblue" points="716.13,-913.56 726.67,-912.48 717.75,-906.75 716.13,-913.56"/>
</g>
<!-- Node90&#45;&gt;Node5 -->
<g id="edge37" class="edge">
<title>Node90&#45;&gt;Node5</title>
<path fill="none" stroke="midnightblue" d="M670.34,-884C680.76,-884 691.57,-884 702.03,-884"/>
<polygon fill="midnightblue" stroke="midnightblue" points="702.34,-887.5 712.34,-884 702.34,-880.5 702.34,-887.5"/>
</g>
<!-- Node90&#45;&gt;Node6 -->
<g id="edge39" class="edge">
<title>Node90&#45;&gt;Node6</title>
<path fill="none" stroke="midnightblue" d="M649.82,-874.41C656.83,-871.91 663.83,-868.82 670,-865 689.79,-852.77 686.27,-839.33 706,-827 710.1,-824.44 714.58,-822.19 719.18,-820.24"/>
<polygon fill="midnightblue" stroke="midnightblue" points="720.62,-823.44 728.72,-816.61 718.13,-816.89 720.62,-823.44"/>
</g>
<!-- Node90&#45;&gt;Node30 -->
<g id="edge38" class="edge">
<title>Node90&#45;&gt;Node30</title>
<path fill="none" stroke="midnightblue" d="M576.06,-893.54C530.61,-906.36 442.31,-923.48 382,-886 239.56,-797.47 196.53,-572.85 186.56,-504.82"/>
<polygon fill="midnightblue" stroke="midnightblue" points="189.99,-504.07 185.15,-494.65 183.05,-505.03 189.99,-504.07"/>
</g>
<!-- Node90&#45;&gt;Node78 -->
<g id="edge40" class="edge">
<title>Node90&#45;&gt;Node78</title>
<path fill="none" stroke="midnightblue" d="M658.07,-874.41C662.56,-871.94 666.66,-868.86 670,-865 711.07,-817.62 755.43,-358.39 764.73,-257.52"/>
<polygon fill="midnightblue" stroke="midnightblue" points="768.22,-257.78 765.65,-247.5 761.25,-257.14 768.22,-257.78"/>
</g>
</g>
</svg>
