<?xml version="1.0" encoding="UTF-8" standalone="no"?>
<!DOCTYPE svg PUBLIC "-//W3C//DTD SVG 1.1//EN"
 "http://www.w3.org/Graphics/SVG/1.1/DTD/svg11.dtd">
<!-- Generated by graphviz version 2.43.0 (0)
 -->
<!-- Title: js_throw_type_error Pages: 1 -->
<svg width="757pt" height="47pt"
 viewBox="0.00 0.00 757.00 47.00" xmlns="http://www.w3.org/2000/svg" xmlns:xlink="http://www.w3.org/1999/xlink">
<g id="graph0" class="graph" transform="scale(1 1) rotate(0) translate(4 43)">
<title>js_throw_type_error</title>
<!-- Node1 -->
<g id="node1" class="node">
<title>Node1</title>
<g id="a_node1"><a xlink:title=" ">
<polygon fill="#bfbfbf" stroke="black" points="636,-19.5 636,-38.5 749,-38.5 749,-19.5 636,-19.5"/>
<text text-anchor="middle" x="692.5" y="-26.5" font-family="Helvetica,sans-Serif" font-size="10.00">js_throw_type_error</text>
</a>
</g>
</g>
<!-- Node2 -->
<g id="node2" class="node">
<title>Node2</title>
<g id="a_node2"><a xlink:href="quickjs_8c.html#a4c9489297c684663f30e517204a9ec14" target="_top" xlink:title=" ">
<polygon fill="none" stroke="black" points="282,-19.5 282,-38.5 431,-38.5 431,-19.5 282,-19.5"/>
<text text-anchor="middle" x="356.5" y="-26.5" font-family="Helvetica,sans-Serif" font-size="10.00">JS_AddIntrinsicBaseObjects</text>
</a>
</g>
</g>
<!-- Node1&#45;&gt;Node2 -->
<g id="edge1" class="edge">
<title>Node1&#45;&gt;Node2</title>
<path fill="none" stroke="midnightblue" d="M625.8,-29C569.75,-29 489.22,-29 431.03,-29"/>
<polygon fill="midnightblue" stroke="midnightblue" points="625.97,-32.5 635.97,-29 625.97,-25.5 625.97,-32.5"/>
</g>
<!-- Node7 -->
<g id="node5" class="node">
<title>Node7</title>
<g id="a_node5"><a xlink:href="quickjs_8c.html#adaeef1b86e37da5560f25b630c2d090c" target="_top" xlink:title=" ">
<polygon fill="none" stroke="black" points="467,-0.5 467,-19.5 600,-19.5 600,-0.5 467,-0.5"/>
<text text-anchor="middle" x="533.5" y="-7.5" font-family="Helvetica,sans-Serif" font-size="10.00">js_function_proto_caller</text>
</a>
</g>
</g>
<!-- Node1&#45;&gt;Node7 -->
<g id="edge4" class="edge">
<title>Node1&#45;&gt;Node7</title>
<path fill="none" stroke="midnightblue" d="M625.54,-21.02C617.1,-20 608.47,-18.95 600.04,-17.93"/>
<polygon fill="midnightblue" stroke="midnightblue" points="625.36,-24.52 635.71,-22.25 626.2,-17.57 625.36,-24.52"/>
</g>
<!-- Node3 -->
<g id="node3" class="node">
<title>Node3</title>
<g id="a_node3"><a xlink:href="quickjs_8c.html#ad8aedb643b8753b7a15f6cb2df61945e" target="_top" xlink:title=" ">
<polygon fill="none" stroke="black" points="155,-19.5 155,-38.5 246,-38.5 246,-19.5 155,-19.5"/>
<text text-anchor="middle" x="200.5" y="-26.5" font-family="Helvetica,sans-Serif" font-size="10.00">JS_NewContext</text>
</a>
</g>
</g>
<!-- Node2&#45;&gt;Node3 -->
<g id="edge2" class="edge">
<title>Node2&#45;&gt;Node3</title>
<path fill="none" stroke="midnightblue" d="M271.5,-29C262.87,-29 254.36,-29 246.4,-29"/>
<polygon fill="midnightblue" stroke="midnightblue" points="271.66,-32.5 281.66,-29 271.66,-25.5 271.66,-32.5"/>
</g>
<!-- Node4 -->
<g id="node4" class="node">
<title>Node4</title>
<g id="a_node4"><a xlink:href="classqjs_1_1Context.html#a4392a23648acfc4bf6b445336efb5007" target="_top" xlink:title=" ">
<polygon fill="none" stroke="red" points="0,-19.5 0,-38.5 119,-38.5 119,-19.5 0,-19.5"/>
<text text-anchor="middle" x="59.5" y="-26.5" font-family="Helvetica,sans-Serif" font-size="10.00">qjs::Context::Context</text>
</a>
</g>
</g>
<!-- Node3&#45;&gt;Node4 -->
<g id="edge3" class="edge">
<title>Node3&#45;&gt;Node4</title>
<path fill="none" stroke="midnightblue" d="M144.69,-29C136.3,-29 127.6,-29 119.12,-29"/>
<polygon fill="midnightblue" stroke="midnightblue" points="144.75,-32.5 154.75,-29 144.75,-25.5 144.75,-32.5"/>
</g>
<!-- Node7&#45;&gt;Node2 -->
<g id="edge5" class="edge">
<title>Node7&#45;&gt;Node2</title>
<path fill="none" stroke="midnightblue" d="M456.63,-18.24C448.18,-19.15 439.59,-20.09 431.17,-21"/>
<polygon fill="midnightblue" stroke="midnightblue" points="457.27,-21.69 466.84,-17.13 456.52,-14.73 457.27,-21.69"/>
</g>
</g>
</svg>
