<?xml version="1.0" encoding="UTF-8" standalone="no"?>
<!DOCTYPE svg PUBLIC "-//W3C//DTD SVG 1.1//EN"
 "http://www.w3.org/Graphics/SVG/1.1/DTD/svg11.dtd">
<!-- Generated by graphviz version 2.43.0 (0)
 -->
<!-- Title: JS_AddModuleExport Pages: 1 -->
<svg width="523pt" height="123pt"
 viewBox="0.00 0.00 523.00 123.00" xmlns="http://www.w3.org/2000/svg" xmlns:xlink="http://www.w3.org/1999/xlink">
<g id="graph0" class="graph" transform="scale(1 1) rotate(0) translate(4 119)">
<title>JS_AddModuleExport</title>
<!-- Node1 -->
<g id="node1" class="node">
<title>Node1</title>
<g id="a_node1"><a xlink:title=" ">
<polygon fill="#bfbfbf" stroke="black" points="398,-38.5 398,-57.5 515,-57.5 515,-38.5 398,-38.5"/>
<text text-anchor="middle" x="456.5" y="-45.5" font-family="Helvetica,sans-Serif" font-size="10.00">JS_AddModuleExport</text>
</a>
</g>
</g>
<!-- Node2 -->
<g id="node2" class="node">
<title>Node2</title>
<g id="a_node2"><a xlink:href="classqjs_1_1Context_1_1Module.html#aa51896e065a04689c9dbe80a282805bb" target="_top" xlink:title=" ">
<polygon fill="none" stroke="black" points="221,-95.5 221,-114.5 362,-114.5 362,-95.5 221,-95.5"/>
<text text-anchor="middle" x="291.5" y="-102.5" font-family="Helvetica,sans-Serif" font-size="10.00">qjs::Context::Module::add</text>
</a>
</g>
</g>
<!-- Node1&#45;&gt;Node2 -->
<g id="edge1" class="edge">
<title>Node1&#45;&gt;Node2</title>
<path fill="none" stroke="midnightblue" d="M418.82,-61.01C401.59,-67.11 380.75,-74.45 362,-81 348.26,-85.8 332.98,-91.08 320.25,-95.47"/>
<polygon fill="midnightblue" stroke="midnightblue" points="420.25,-64.22 428.51,-57.58 417.92,-57.62 420.25,-64.22"/>
</g>
<!-- Node3 -->
<g id="node3" class="node">
<title>Node3</title>
<g id="a_node3"><a xlink:href="quickjs_8c.html#ac7a9b88dd7ca1a70cd0ecd9a28905e25" target="_top" xlink:title=" ">
<polygon fill="none" stroke="black" points="224.5,-19.5 224.5,-38.5 358.5,-38.5 358.5,-19.5 224.5,-19.5"/>
<text text-anchor="middle" x="291.5" y="-26.5" font-family="Helvetica,sans-Serif" font-size="10.00">JS_AddModuleExportList</text>
</a>
</g>
</g>
<!-- Node1&#45;&gt;Node3 -->
<g id="edge2" class="edge">
<title>Node1&#45;&gt;Node3</title>
<path fill="none" stroke="midnightblue" d="M387.36,-40.06C377.84,-38.95 368.06,-37.81 358.57,-36.7"/>
<polygon fill="midnightblue" stroke="midnightblue" points="387.24,-43.57 397.57,-41.25 388.05,-36.61 387.24,-43.57"/>
</g>
<!-- Node4 -->
<g id="node4" class="node">
<title>Node4</title>
<g id="a_node4"><a xlink:href="quickjs-libc_8c.html#adcca2b4a661355e6ff87a0def2339894" target="_top" xlink:title=" ">
<polygon fill="none" stroke="black" points="79,-38.5 79,-57.5 183,-57.5 183,-38.5 79,-38.5"/>
<text text-anchor="middle" x="131" y="-45.5" font-family="Helvetica,sans-Serif" font-size="10.00">js_init_module_os</text>
</a>
</g>
</g>
<!-- Node1&#45;&gt;Node4 -->
<g id="edge7" class="edge">
<title>Node1&#45;&gt;Node4</title>
<path fill="none" stroke="midnightblue" d="M387.37,-48C326.4,-48 238.36,-48 183.21,-48"/>
<polygon fill="midnightblue" stroke="midnightblue" points="387.66,-51.5 397.66,-48 387.66,-44.5 387.66,-51.5"/>
</g>
<!-- Node6 -->
<g id="node6" class="node">
<title>Node6</title>
<g id="a_node6"><a xlink:href="quickjs-libc_8c.html#a0e65c67dfff872a664f8d29e7eae5a61" target="_top" xlink:title=" ">
<polygon fill="none" stroke="black" points="77,-0.5 77,-19.5 185,-19.5 185,-0.5 77,-0.5"/>
<text text-anchor="middle" x="131" y="-7.5" font-family="Helvetica,sans-Serif" font-size="10.00">js_init_module_std</text>
</a>
</g>
</g>
<!-- Node1&#45;&gt;Node6 -->
<g id="edge8" class="edge">
<title>Node1&#45;&gt;Node6</title>
<path fill="none" stroke="midnightblue" d="M428.73,-33.88C410.49,-25.08 385.47,-14.59 362,-10 302.24,1.68 232.06,-0.56 185.08,-4.27"/>
<polygon fill="midnightblue" stroke="midnightblue" points="427.35,-37.11 437.87,-38.42 430.47,-30.84 427.35,-37.11"/>
</g>
<!-- Node3&#45;&gt;Node4 -->
<g id="edge3" class="edge">
<title>Node3&#45;&gt;Node4</title>
<path fill="none" stroke="midnightblue" d="M214.15,-38.15C203.61,-39.42 193.01,-40.69 183.08,-41.88"/>
<polygon fill="midnightblue" stroke="midnightblue" points="214.69,-41.61 224.2,-36.95 213.85,-34.66 214.69,-41.61"/>
</g>
<!-- Node3&#45;&gt;Node6 -->
<g id="edge5" class="edge">
<title>Node3&#45;&gt;Node6</title>
<path fill="none" stroke="midnightblue" d="M214.03,-19.83C204.22,-18.66 194.35,-17.47 185.03,-16.36"/>
<polygon fill="midnightblue" stroke="midnightblue" points="213.85,-23.34 224.2,-21.05 214.69,-16.39 213.85,-23.34"/>
</g>
<!-- Node5 -->
<g id="node5" class="node">
<title>Node5</title>
<g id="a_node5"><a xlink:href="qjs_8cpp.html#a3c04138a5bfe5d72780bb7e82a18e627" target="_top" xlink:title=" ">
<polygon fill="none" stroke="black" points="0,-19.5 0,-38.5 41,-38.5 41,-19.5 0,-19.5"/>
<text text-anchor="middle" x="20.5" y="-26.5" font-family="Helvetica,sans-Serif" font-size="10.00">main</text>
</a>
</g>
</g>
<!-- Node4&#45;&gt;Node5 -->
<g id="edge4" class="edge">
<title>Node4&#45;&gt;Node5</title>
<path fill="none" stroke="midnightblue" d="M68.87,-37.3C58.87,-35.54 49.19,-33.85 41.21,-32.45"/>
<polygon fill="midnightblue" stroke="midnightblue" points="68.47,-40.78 78.93,-39.06 69.68,-33.88 68.47,-40.78"/>
</g>
<!-- Node6&#45;&gt;Node5 -->
<g id="edge6" class="edge">
<title>Node6&#45;&gt;Node5</title>
<path fill="none" stroke="midnightblue" d="M66.58,-21.11C57.33,-22.73 48.45,-24.28 41.05,-25.58"/>
<polygon fill="midnightblue" stroke="midnightblue" points="67.46,-24.51 76.7,-19.33 66.25,-17.61 67.46,-24.51"/>
</g>
</g>
</svg>
