<?xml version="1.0" encoding="UTF-8" standalone="no"?>
<!DOCTYPE svg PUBLIC "-//W3C//DTD SVG 1.1//EN"
 "http://www.w3.org/Graphics/SVG/1.1/DTD/svg11.dtd">
<!-- Generated by graphviz version 2.43.0 (0)
 -->
<!-- Title: JS_MarkValue Pages: 1 -->
<svg width="662pt" height="610pt"
 viewBox="0.00 0.00 662.00 610.00" xmlns="http://www.w3.org/2000/svg" xmlns:xlink="http://www.w3.org/1999/xlink">
<g id="graph0" class="graph" transform="scale(1 1) rotate(0) translate(4 606)">
<title>JS_MarkValue</title>
<!-- Node1 -->
<g id="node1" class="node">
<title>Node1</title>
<g id="a_node1"><a xlink:title=" ">
<polygon fill="#bfbfbf" stroke="black" points="571,-278.5 571,-297.5 654,-297.5 654,-278.5 571,-278.5"/>
<text text-anchor="middle" x="612.5" y="-285.5" font-family="Helvetica,sans-Serif" font-size="10.00">JS_MarkValue</text>
</a>
</g>
</g>
<!-- Node2 -->
<g id="node2" class="node">
<title>Node2</title>
<g id="a_node2"><a xlink:href="quickjs_8c.html#a440c98b7712cdebdd1669145e347aeee" target="_top" xlink:title=" ">
<polygon fill="none" stroke="black" points="399.5,-544.5 399.5,-563.5 501.5,-563.5 501.5,-544.5 399.5,-544.5"/>
<text text-anchor="middle" x="450.5" y="-551.5" font-family="Helvetica,sans-Serif" font-size="10.00">async_func_mark</text>
</a>
</g>
</g>
<!-- Node1&#45;&gt;Node2 -->
<g id="edge1" class="edge">
<title>Node1&#45;&gt;Node2</title>
<path fill="none" stroke="midnightblue" d="M611.21,-308.18C609.42,-354.3 598.43,-468.21 535,-530 525.92,-538.84 513.81,-544.46 501.64,-548.03"/>
<polygon fill="midnightblue" stroke="midnightblue" points="614.71,-308.08 611.49,-297.98 607.72,-307.88 614.71,-308.08"/>
</g>
<!-- Node4 -->
<g id="node4" class="node">
<title>Node4</title>
<g id="a_node4"><a xlink:href="quickjs_8c.html#aa863a9d565bac49a2a76d10009eabd5c" target="_top" xlink:title=" ">
<polygon fill="none" stroke="black" points="100,-506.5 100,-525.5 186,-525.5 186,-506.5 100,-506.5"/>
<text text-anchor="middle" x="143" y="-513.5" font-family="Helvetica,sans-Serif" font-size="10.00">mark_children</text>
</a>
</g>
</g>
<!-- Node1&#45;&gt;Node4 -->
<g id="edge21" class="edge">
<title>Node1&#45;&gt;Node4</title>
<path fill="none" stroke="midnightblue" d="M611.02,-307.84C608.78,-350.65 596.87,-451.49 535,-497 480.67,-536.97 275.51,-526.38 186.09,-519.6"/>
<polygon fill="midnightblue" stroke="midnightblue" points="614.52,-307.74 611.42,-297.61 607.53,-307.47 614.52,-307.74"/>
</g>
<!-- Node645 -->
<g id="node7" class="node">
<title>Node645</title>
<g id="a_node7"><a xlink:href="quickjs_8c.html#ab9c865d20323b804ccb094fcfaa50bc6" target="_top" xlink:title=" ">
<polygon fill="none" stroke="black" points="386.5,-468.5 386.5,-487.5 514.5,-487.5 514.5,-468.5 386.5,-468.5"/>
<text text-anchor="middle" x="450.5" y="-475.5" font-family="Helvetica,sans-Serif" font-size="10.00">js_array_iterator_mark</text>
</a>
</g>
</g>
<!-- Node1&#45;&gt;Node645 -->
<g id="edge6" class="edge">
<title>Node1&#45;&gt;Node645</title>
<path fill="none" stroke="midnightblue" d="M608.53,-307.69C602.03,-343.57 583.1,-419.54 535,-459 529.02,-463.9 522.03,-467.6 514.68,-470.37"/>
<polygon fill="midnightblue" stroke="midnightblue" points="612.03,-307.98 610.22,-297.54 605.12,-306.83 612.03,-307.98"/>
</g>
<!-- Node646 -->
<g id="node8" class="node">
<title>Node646</title>
<g id="a_node8"><a xlink:href="quickjs_8c.html#acb99077e846bd9454a9a487e37d2c3ea" target="_top" xlink:title=" ">
<polygon fill="none" stroke="black" points="407.5,-430.5 407.5,-449.5 493.5,-449.5 493.5,-430.5 407.5,-430.5"/>
<text text-anchor="middle" x="450.5" y="-437.5" font-family="Helvetica,sans-Serif" font-size="10.00">js_array_mark</text>
</a>
</g>
</g>
<!-- Node1&#45;&gt;Node646 -->
<g id="edge7" class="edge">
<title>Node1&#45;&gt;Node646</title>
<path fill="none" stroke="midnightblue" d="M605.9,-307.37C596.37,-336.72 574.14,-392.09 535,-421 523.16,-429.75 507.99,-434.57 493.84,-437.19"/>
<polygon fill="midnightblue" stroke="midnightblue" points="609.34,-308.09 608.94,-297.51 602.65,-306.03 609.34,-308.09"/>
</g>
<!-- Node647 -->
<g id="node9" class="node">
<title>Node647</title>
<g id="a_node9"><a xlink:href="quickjs_8c.html#a38e3ca2956f24530050960209de00786" target="_top" xlink:title=" ">
<polygon fill="none" stroke="black" points="382.5,-392.5 382.5,-411.5 518.5,-411.5 518.5,-392.5 382.5,-392.5"/>
<text text-anchor="middle" x="450.5" y="-399.5" font-family="Helvetica,sans-Serif" font-size="10.00">js_bound_function_mark</text>
</a>
</g>
</g>
<!-- Node1&#45;&gt;Node647 -->
<g id="edge8" class="edge">
<title>Node1&#45;&gt;Node647</title>
<path fill="none" stroke="midnightblue" d="M601.73,-306.52C589.24,-328.31 565.53,-363.93 535,-383 528.82,-386.86 521.95,-389.94 514.87,-392.39"/>
<polygon fill="midnightblue" stroke="midnightblue" points="604.89,-308.03 606.66,-297.59 598.76,-304.65 604.89,-308.03"/>
</g>
<!-- Node648 -->
<g id="node10" class="node">
<title>Node648</title>
<g id="a_node10"><a xlink:href="quickjs_8c.html#aeb353cd4219d604d1703cb933d84edd5" target="_top" xlink:title=" ">
<polygon fill="none" stroke="black" points="375,-354.5 375,-373.5 526,-373.5 526,-354.5 375,-354.5"/>
<text text-anchor="middle" x="450.5" y="-361.5" font-family="Helvetica,sans-Serif" font-size="10.00">js_bytecode_function_mark</text>
</a>
</g>
</g>
<!-- Node1&#45;&gt;Node648 -->
<g id="edge9" class="edge">
<title>Node1&#45;&gt;Node648</title>
<path fill="none" stroke="midnightblue" d="M593.77,-304.62C579.09,-317.49 557.13,-334.8 535,-345 526.63,-348.86 517.42,-351.96 508.26,-354.45"/>
<polygon fill="midnightblue" stroke="midnightblue" points="596.43,-306.94 601.51,-297.64 591.74,-301.74 596.43,-306.94"/>
</g>
<!-- Node649 -->
<g id="node11" class="node">
<title>Node649</title>
<g id="a_node11"><a xlink:href="quickjs_8c.html#a25ec2f38e68d70c00a45e792769d5e9c" target="_top" xlink:title=" ">
<polygon fill="none" stroke="black" points="385.5,-316.5 385.5,-335.5 515.5,-335.5 515.5,-316.5 385.5,-316.5"/>
<text text-anchor="middle" x="450.5" y="-323.5" font-family="Helvetica,sans-Serif" font-size="10.00">js_for_in_iterator_mark</text>
</a>
</g>
</g>
<!-- Node1&#45;&gt;Node649 -->
<g id="edge10" class="edge">
<title>Node1&#45;&gt;Node649</title>
<path fill="none" stroke="midnightblue" d="M564,-299.95C554.41,-302.32 544.39,-304.77 535,-307 521.69,-310.17 507.17,-313.51 494.02,-316.5"/>
<polygon fill="midnightblue" stroke="midnightblue" points="564.93,-303.33 573.79,-297.52 563.24,-296.53 564.93,-303.33"/>
</g>
<!-- Node650 -->
<g id="node12" class="node">
<title>Node650</title>
<g id="a_node12"><a xlink:href="quickjs_8c.html#a50bc5b6d5a67ae989b6736f49188908a" target="_top" xlink:title=" ">
<polygon fill="none" stroke="black" points="388.5,-278.5 388.5,-297.5 512.5,-297.5 512.5,-278.5 388.5,-278.5"/>
<text text-anchor="middle" x="450.5" y="-285.5" font-family="Helvetica,sans-Serif" font-size="10.00">js_map_iterator_mark</text>
</a>
</g>
</g>
<!-- Node1&#45;&gt;Node650 -->
<g id="edge11" class="edge">
<title>Node1&#45;&gt;Node650</title>
<path fill="none" stroke="midnightblue" d="M560.49,-288C545.32,-288 528.53,-288 512.77,-288"/>
<polygon fill="midnightblue" stroke="midnightblue" points="560.71,-291.5 570.71,-288 560.71,-284.5 560.71,-291.5"/>
</g>
<!-- Node651 -->
<g id="node13" class="node">
<title>Node651</title>
<g id="a_node13"><a xlink:href="quickjs_8c.html#a6e5b40b07a3a50f183d29c07e1ef6e89" target="_top" xlink:title=" ">
<polygon fill="none" stroke="black" points="409,-240.5 409,-259.5 492,-259.5 492,-240.5 409,-240.5"/>
<text text-anchor="middle" x="450.5" y="-247.5" font-family="Helvetica,sans-Serif" font-size="10.00">js_map_mark</text>
</a>
</g>
</g>
<!-- Node1&#45;&gt;Node651 -->
<g id="edge12" class="edge">
<title>Node1&#45;&gt;Node651</title>
<path fill="none" stroke="midnightblue" d="M564,-276.05C554.41,-273.68 544.39,-271.23 535,-269 521.12,-265.7 505.9,-262.2 492.31,-259.12"/>
<polygon fill="midnightblue" stroke="midnightblue" points="563.24,-279.47 573.79,-278.48 564.93,-272.67 563.24,-279.47"/>
</g>
<!-- Node652 -->
<g id="node14" class="node">
<title>Node652</title>
<g id="a_node14"><a xlink:href="quickjs_8c.html#ab9aacbe1f6b77d056f2964b11ebe5582" target="_top" xlink:title=" ">
<polygon fill="none" stroke="black" points="391,-202.5 391,-221.5 510,-221.5 510,-202.5 391,-202.5"/>
<text text-anchor="middle" x="450.5" y="-209.5" font-family="Helvetica,sans-Serif" font-size="10.00">js_mark_module_def</text>
</a>
</g>
</g>
<!-- Node1&#45;&gt;Node652 -->
<g id="edge13" class="edge">
<title>Node1&#45;&gt;Node652</title>
<path fill="none" stroke="midnightblue" d="M593.77,-271.38C579.09,-258.51 557.13,-241.2 535,-231 526.63,-227.14 517.42,-224.04 508.26,-221.55"/>
<polygon fill="midnightblue" stroke="midnightblue" points="591.74,-274.26 601.51,-278.36 596.43,-269.06 591.74,-274.26"/>
</g>
<!-- Node653 -->
<g id="node15" class="node">
<title>Node653</title>
<g id="a_node15"><a xlink:href="quickjs_8c.html#a7b4ca0877b507766c40c28209ecef13a" target="_top" xlink:title=" ">
<polygon fill="none" stroke="black" points="229,-202.5 229,-221.5 323,-221.5 323,-202.5 229,-202.5"/>
<text text-anchor="middle" x="276" y="-209.5" font-family="Helvetica,sans-Serif" font-size="10.00">JS_MarkContext</text>
</a>
</g>
</g>
<!-- Node1&#45;&gt;Node653 -->
<g id="edge16" class="edge">
<title>Node1&#45;&gt;Node653</title>
<path fill="none" stroke="midnightblue" d="M602.9,-269.3C591.22,-246.41 567.94,-208.77 535,-193 456.61,-155.48 349.32,-185.53 301.61,-202.45"/>
<polygon fill="midnightblue" stroke="midnightblue" points="599.8,-270.91 607.32,-278.37 606.09,-267.85 599.8,-270.91"/>
</g>
<!-- Node654 -->
<g id="node16" class="node">
<title>Node654</title>
<g id="a_node16"><a xlink:href="quickjs_8c.html#a84236742f665a886029b3cda97b594d0" target="_top" xlink:title=" ">
<polygon fill="none" stroke="black" points="391.5,-126.5 391.5,-145.5 509.5,-145.5 509.5,-126.5 391.5,-126.5"/>
<text text-anchor="middle" x="450.5" y="-133.5" font-family="Helvetica,sans-Serif" font-size="10.00">js_object_data_mark</text>
</a>
</g>
</g>
<!-- Node1&#45;&gt;Node654 -->
<g id="edge17" class="edge">
<title>Node1&#45;&gt;Node654</title>
<path fill="none" stroke="midnightblue" d="M605.19,-268.79C594.97,-240.67 572.11,-188.56 535,-160 526.75,-153.65 516.89,-148.98 506.87,-145.55"/>
<polygon fill="midnightblue" stroke="midnightblue" points="601.91,-269.99 608.49,-278.29 608.52,-267.69 601.91,-269.99"/>
</g>
<!-- Node655 -->
<g id="node17" class="node">
<title>Node655</title>
<g id="a_node17"><a xlink:href="quickjs_8c.html#ae00a898975e00f635f0e4596e71182aa" target="_top" xlink:title=" ">
<polygon fill="none" stroke="black" points="395,-77 395,-107 506,-107 506,-77 395,-77"/>
<text text-anchor="start" x="403" y="-95" font-family="Helvetica,sans-Serif" font-size="10.00">js_promise_resolve</text>
<text text-anchor="middle" x="450.5" y="-84" font-family="Helvetica,sans-Serif" font-size="10.00">_function_mark</text>
</a>
</g>
</g>
<!-- Node1&#45;&gt;Node655 -->
<g id="edge18" class="edge">
<title>Node1&#45;&gt;Node655</title>
<path fill="none" stroke="midnightblue" d="M608.17,-268.11C601.16,-232.53 581.53,-157.85 535,-117 526.81,-109.81 516.63,-104.69 506.21,-101.04"/>
<polygon fill="midnightblue" stroke="midnightblue" points="604.77,-269 610.02,-278.2 611.66,-267.74 604.77,-269"/>
</g>
<!-- Node656 -->
<g id="node18" class="node">
<title>Node656</title>
<g id="a_node18"><a xlink:href="quickjs_8c.html#a8bd66cdb14ac137c3ec953c89bab574b" target="_top" xlink:title=" ">
<polygon fill="none" stroke="black" points="366,-38.5 366,-57.5 535,-57.5 535,-38.5 366,-38.5"/>
<text text-anchor="middle" x="450.5" y="-45.5" font-family="Helvetica,sans-Serif" font-size="10.00">js_regexp_string_iterator_mark</text>
</a>
</g>
</g>
<!-- Node1&#45;&gt;Node656 -->
<g id="edge19" class="edge">
<title>Node1&#45;&gt;Node656</title>
<path fill="none" stroke="midnightblue" d="M610.77,-268.16C608.05,-224.76 595.23,-120.97 535,-67 530.79,-63.23 525.99,-60.16 520.87,-57.67"/>
<polygon fill="midnightblue" stroke="midnightblue" points="607.28,-268.46 611.28,-278.27 614.27,-268.1 607.28,-268.46"/>
</g>
<!-- Node657 -->
<g id="node19" class="node">
<title>Node657</title>
<g id="a_node19"><a xlink:href="quickjs_8c.html#a266770cbb5df742a21f25b9f0b9ce173" target="_top" xlink:title=" ">
<polygon fill="none" stroke="black" points="391,-0.5 391,-19.5 510,-19.5 510,-0.5 391,-0.5"/>
<text text-anchor="middle" x="450.5" y="-7.5" font-family="Helvetica,sans-Serif" font-size="10.00">js_typed_array_mark</text>
</a>
</g>
</g>
<!-- Node1&#45;&gt;Node657 -->
<g id="edge20" class="edge">
<title>Node1&#45;&gt;Node657</title>
<path fill="none" stroke="midnightblue" d="M611.95,-268.15C611.89,-219.65 604.63,-94.35 535,-29 528.06,-22.49 519.37,-18.05 510.24,-15.04"/>
<polygon fill="midnightblue" stroke="midnightblue" points="608.45,-268.23 611.85,-278.26 615.44,-268.3 608.45,-268.23"/>
</g>
<!-- Node3 -->
<g id="node3" class="node">
<title>Node3</title>
<g id="a_node3"><a xlink:href="quickjs_8c.html#abcdce6a4957ddcf9ad7185c9d269c230" target="_top" xlink:title=" ">
<polygon fill="none" stroke="black" points="222,-582.5 222,-601.5 330,-601.5 330,-582.5 222,-582.5"/>
<text text-anchor="middle" x="276" y="-589.5" font-family="Helvetica,sans-Serif" font-size="10.00">js_generator_mark</text>
</a>
</g>
</g>
<!-- Node2&#45;&gt;Node3 -->
<g id="edge2" class="edge">
<title>Node2&#45;&gt;Node3</title>
<path fill="none" stroke="midnightblue" d="M396.15,-565.75C371.76,-571.13 343.24,-577.41 320.22,-582.48"/>
<polygon fill="midnightblue" stroke="midnightblue" points="396.96,-569.16 405.97,-563.59 395.45,-562.32 396.96,-569.16"/>
</g>
<!-- Node2&#45;&gt;Node4 -->
<g id="edge3" class="edge">
<title>Node2&#45;&gt;Node4</title>
<path fill="none" stroke="midnightblue" d="M389.13,-548.83C343.2,-544.61 278.48,-538.04 222,-530 210.29,-528.33 197.64,-526.21 186.01,-524.12"/>
<polygon fill="midnightblue" stroke="midnightblue" points="388.94,-552.33 399.22,-549.75 389.58,-545.36 388.94,-552.33"/>
</g>
<!-- Node5 -->
<g id="node5" class="node">
<title>Node5</title>
<g id="a_node5"><a xlink:href="quickjs_8c.html#ae09ca4f159971d3c1f1dafc8682ba04b" target="_top" xlink:title=" ">
<polygon fill="none" stroke="red" points="0,-525.5 0,-544.5 64,-544.5 64,-525.5 0,-525.5"/>
<text text-anchor="middle" x="32" y="-532.5" font-family="Helvetica,sans-Serif" font-size="10.00">gc_decref</text>
</a>
</g>
</g>
<!-- Node4&#45;&gt;Node5 -->
<g id="edge4" class="edge">
<title>Node4&#45;&gt;Node5</title>
<path fill="none" stroke="midnightblue" d="M89.99,-525.07C81.18,-526.6 72.28,-528.15 64.21,-529.56"/>
<polygon fill="midnightblue" stroke="midnightblue" points="90.61,-528.51 99.86,-523.35 89.41,-521.62 90.61,-528.51"/>
</g>
<!-- Node644 -->
<g id="node6" class="node">
<title>Node644</title>
<g id="a_node6"><a xlink:href="quickjs_8c.html#adee2db09b659dd2c1a1a3c408658a753" target="_top" xlink:title=" ">
<polygon fill="none" stroke="red" points="4,-487.5 4,-506.5 60,-506.5 60,-487.5 4,-487.5"/>
<text text-anchor="middle" x="32" y="-494.5" font-family="Helvetica,sans-Serif" font-size="10.00">gc_scan</text>
</a>
</g>
</g>
<!-- Node4&#45;&gt;Node644 -->
<g id="edge5" class="edge">
<title>Node4&#45;&gt;Node644</title>
<path fill="none" stroke="midnightblue" d="M89.74,-506.89C79.54,-505.11 69.23,-503.32 60.25,-501.75"/>
<polygon fill="midnightblue" stroke="midnightblue" points="89.41,-510.38 99.86,-508.65 90.61,-503.49 89.41,-510.38"/>
</g>
<!-- Node652&#45;&gt;Node653 -->
<g id="edge14" class="edge">
<title>Node652&#45;&gt;Node653</title>
<path fill="none" stroke="midnightblue" d="M380.37,-212C361.12,-212 340.68,-212 323.1,-212"/>
<polygon fill="midnightblue" stroke="midnightblue" points="380.62,-215.5 390.62,-212 380.62,-208.5 380.62,-215.5"/>
</g>
<!-- Node653&#45;&gt;Node4 -->
<g id="edge15" class="edge">
<title>Node653&#45;&gt;Node4</title>
<path fill="none" stroke="midnightblue" d="M266.69,-231.29C241.49,-289.76 166.56,-463.65 148.13,-506.42"/>
<polygon fill="midnightblue" stroke="midnightblue" points="270.05,-232.34 270.79,-221.77 263.62,-229.57 270.05,-232.34"/>
</g>
</g>
</svg>
