<?xml version="1.0" encoding="UTF-8" standalone="no"?>
<!DOCTYPE svg PUBLIC "-//W3C//DTD SVG 1.1//EN"
 "http://www.w3.org/Graphics/SVG/1.1/DTD/svg11.dtd">
<!-- Generated by graphviz version 2.43.0 (0)
 -->
<!-- Title: JS_ToUint32Free Pages: 1 -->
<svg width="788pt" height="354pt"
 viewBox="0.00 0.00 788.00 354.39" xmlns="http://www.w3.org/2000/svg" xmlns:xlink="http://www.w3.org/1999/xlink">
<g id="graph0" class="graph" transform="scale(1 1) rotate(0) translate(4 350.39)">
<title>JS_ToUint32Free</title>
<!-- Node1 -->
<g id="node1" class="node">
<title>Node1</title>
<g id="a_node1"><a xlink:title=" ">
<polygon fill="#bfbfbf" stroke="black" points="685,-201 685,-220 780,-220 780,-201 685,-201"/>
<text text-anchor="middle" x="732.5" y="-208" font-family="Helvetica,sans-Serif" font-size="10.00">JS_ToUint32Free</text>
</a>
</g>
</g>
<!-- Node2 -->
<g id="node2" class="node">
<title>Node2</title>
<g id="a_node2"><a xlink:href="quickjs_8c.html#a718e904644ebc55548a5bdbd44f3adb9" target="_top" xlink:title=" ">
<polygon fill="none" stroke="black" points="555,-182 555,-201 649,-201 649,-182 555,-182"/>
<text text-anchor="middle" x="602" y="-189" font-family="Helvetica,sans-Serif" font-size="10.00">js_get_length32</text>
</a>
</g>
</g>
<!-- Node1&#45;&gt;Node2 -->
<g id="edge1" class="edge">
<title>Node1&#45;&gt;Node2</title>
<path fill="none" stroke="midnightblue" d="M674.78,-202.11C666.18,-200.84 657.41,-199.54 649.08,-198.31"/>
<polygon fill="midnightblue" stroke="midnightblue" points="674.34,-205.59 684.75,-203.59 675.36,-198.66 674.34,-205.59"/>
</g>
<!-- Node612 -->
<g id="node14" class="node">
<title>Node612</title>
<g id="a_node14"><a xlink:href="quickjs_8c.html#a612a61744ff6b38d2ef45c1fc9f2a805" target="_top" xlink:title=" ">
<polygon fill="none" stroke="black" points="565.5,-277 565.5,-296 638.5,-296 638.5,-277 565.5,-277"/>
<text text-anchor="middle" x="602" y="-284" font-family="Helvetica,sans-Serif" font-size="10.00">js_shr_slow</text>
</a>
</g>
</g>
<!-- Node1&#45;&gt;Node612 -->
<g id="edge20" class="edge">
<title>Node1&#45;&gt;Node612</title>
<path fill="none" stroke="midnightblue" d="M706.38,-225.36C680.55,-240.63 641.09,-263.97 619.14,-276.95"/>
<polygon fill="midnightblue" stroke="midnightblue" points="708.4,-228.23 715.23,-220.13 704.84,-222.2 708.4,-228.23"/>
</g>
<!-- Node3 -->
<g id="node3" class="node">
<title>Node3</title>
<g id="a_node3"><a xlink:href="quickjs_8c.html#a4956f45ffd2849b96dc051277264f87a" target="_top" xlink:title=" ">
<polygon fill="none" stroke="black" points="402.5,-220 402.5,-239 484.5,-239 484.5,-220 402.5,-220"/>
<text text-anchor="middle" x="443.5" y="-227" font-family="Helvetica,sans-Serif" font-size="10.00">build_arg_list</text>
</a>
</g>
</g>
<!-- Node2&#45;&gt;Node3 -->
<g id="edge2" class="edge">
<title>Node2&#45;&gt;Node3</title>
<path fill="none" stroke="midnightblue" d="M551.71,-203.47C529.78,-208.79 504.32,-214.98 483.71,-219.98"/>
<polygon fill="midnightblue" stroke="midnightblue" points="552.62,-206.85 561.51,-201.09 550.96,-200.05 552.62,-206.85"/>
</g>
<!-- Node45 -->
<g id="node6" class="node">
<title>Node45</title>
<g id="a_node6"><a xlink:href="quickjs_8c.html#a6a77bcdb9f7f18c13c108c99a198708b" target="_top" xlink:title=" ">
<polygon fill="none" stroke="black" points="0,-144 0,-163 147,-163 147,-144 0,-144"/>
<text text-anchor="middle" x="73.5" y="-151" font-family="Helvetica,sans-Serif" font-size="10.00">js_regexp_Symbol_replace</text>
</a>
</g>
</g>
<!-- Node2&#45;&gt;Node45 -->
<g id="edge16" class="edge">
<title>Node2&#45;&gt;Node45</title>
<path fill="none" stroke="midnightblue" d="M574.9,-177.15C559.17,-169.16 538.47,-159.79 519,-154.5 374.63,-115.29 332.04,-121.55 183,-134.5 161.66,-136.35 138.23,-140.22 118.61,-143.99"/>
<polygon fill="midnightblue" stroke="midnightblue" points="573.52,-180.37 584,-181.9 576.75,-174.17 573.52,-180.37"/>
</g>
<!-- Node27 -->
<g id="node8" class="node">
<title>Node27</title>
<g id="a_node8"><a xlink:href="quickjs_8c.html#a624282391413d4c5a030adbd8b77aa80" target="_top" xlink:title=" ">
<polygon fill="none" stroke="red" points="373.5,-50 373.5,-69 513.5,-69 513.5,-50 373.5,-50"/>
<text text-anchor="middle" x="443.5" y="-57" font-family="Helvetica,sans-Serif" font-size="10.00">internalize_json_property</text>
</a>
</g>
</g>
<!-- Node2&#45;&gt;Node27 -->
<g id="edge9" class="edge">
<title>Node2&#45;&gt;Node27</title>
<path fill="none" stroke="midnightblue" d="M587.8,-173.93C572.66,-154.58 546.39,-123.31 519,-101.5 502.39,-88.27 481.09,-76.72 465.52,-69.09"/>
<polygon fill="midnightblue" stroke="midnightblue" points="585.06,-176.11 593.93,-181.9 590.61,-171.84 585.06,-176.11"/>
</g>
<!-- Node69 -->
<g id="node9" class="node">
<title>Node69</title>
<g id="a_node9"><a xlink:href="quickjs_8c.html#a43208b0746998d2b6b9b8bd1ef8b5f99" target="_top" xlink:title=" ">
<polygon fill="none" stroke="black" points="195,-296 195,-315 320,-315 320,-296 195,-296"/>
<text text-anchor="middle" x="257.5" y="-303" font-family="Helvetica,sans-Serif" font-size="10.00">js_append_enumerate</text>
</a>
</g>
</g>
<!-- Node2&#45;&gt;Node69 -->
<g id="edge11" class="edge">
<title>Node2&#45;&gt;Node69</title>
<path fill="none" stroke="midnightblue" d="M582.25,-207.76C566.41,-220.67 542.6,-238.2 519,-248.5 482.83,-264.28 379.29,-284.33 314.16,-295.95"/>
<polygon fill="midnightblue" stroke="midnightblue" points="584.74,-210.24 590.18,-201.15 580.26,-204.87 584.74,-210.24"/>
</g>
<!-- Node248 -->
<g id="node10" class="node">
<title>Node248</title>
<g id="a_node10"><a xlink:href="quickjs_8c.html#a4398c126700f887a947501bf25910f75" target="_top" xlink:title=" ">
<polygon fill="none" stroke="black" points="381.5,-296 381.5,-315 505.5,-315 505.5,-296 381.5,-296"/>
<text text-anchor="middle" x="443.5" y="-303" font-family="Helvetica,sans-Serif" font-size="10.00">js_array_iterator_next</text>
</a>
</g>
</g>
<!-- Node2&#45;&gt;Node248 -->
<g id="edge13" class="edge">
<title>Node2&#45;&gt;Node248</title>
<path fill="none" stroke="midnightblue" d="M589.02,-209.51C574.65,-229.78 548.75,-262.36 519,-281.5 509.4,-287.68 498.08,-292.38 487.2,-295.92"/>
<polygon fill="midnightblue" stroke="midnightblue" points="591.98,-211.38 594.78,-201.16 586.22,-207.4 591.98,-211.38"/>
</g>
<!-- Node375 -->
<g id="node11" class="node">
<title>Node375</title>
<g id="a_node11"><a xlink:href="quickjs_8c.html#a438b354d69a8f0674195b0cdc19dd686" target="_top" xlink:title=" ">
<polygon fill="none" stroke="black" points="368,-0.5 368,-30.5 519,-30.5 519,-0.5 368,-0.5"/>
<text text-anchor="start" x="376" y="-18.5" font-family="Helvetica,sans-Serif" font-size="10.00">js_proxy_get_own_property</text>
<text text-anchor="middle" x="443.5" y="-7.5" font-family="Helvetica,sans-Serif" font-size="10.00">_names</text>
</a>
</g>
</g>
<!-- Node2&#45;&gt;Node375 -->
<g id="edge15" class="edge">
<title>Node2&#45;&gt;Node375</title>
<path fill="none" stroke="midnightblue" d="M595.5,-171.84C585.54,-139.77 561.5,-76.2 519,-40.5 514.4,-36.64 509.19,-33.37 503.7,-30.6"/>
<polygon fill="midnightblue" stroke="midnightblue" points="592.25,-173.18 598.44,-181.77 598.96,-171.19 592.25,-173.18"/>
</g>
<!-- Node355 -->
<g id="node12" class="node">
<title>Node355</title>
<g id="a_node12"><a xlink:href="quickjs_8c.html#adb4d2990e6bf3f99633512ad2054b47a" target="_top" xlink:title=" ">
<polygon fill="none" stroke="red" points="183,-144 183,-163 332,-163 332,-144 183,-144"/>
<text text-anchor="middle" x="257.5" y="-151" font-family="Helvetica,sans-Serif" font-size="10.00">js_string___GetSubstitution</text>
</a>
</g>
</g>
<!-- Node2&#45;&gt;Node355 -->
<g id="edge17" class="edge">
<title>Node2&#45;&gt;Node355</title>
<path fill="none" stroke="midnightblue" d="M555.26,-179.58C543.51,-176.89 530.85,-174.29 519,-172.5 456.34,-163.01 384.46,-158.22 332.1,-155.83"/>
<polygon fill="midnightblue" stroke="midnightblue" points="554.77,-183.06 565.31,-181.96 556.38,-176.25 554.77,-183.06"/>
</g>
<!-- Node388 -->
<g id="node13" class="node">
<title>Node388</title>
<g id="a_node13"><a xlink:href="quickjs_8c.html#aba35628e2e963dca8fa201e6708046d6" target="_top" xlink:title=" ">
<polygon fill="none" stroke="red" points="402,-182 402,-201 485,-201 485,-182 402,-182"/>
<text text-anchor="middle" x="443.5" y="-189" font-family="Helvetica,sans-Serif" font-size="10.00">JS_WriteArray</text>
</a>
</g>
</g>
<!-- Node2&#45;&gt;Node388 -->
<g id="edge19" class="edge">
<title>Node2&#45;&gt;Node388</title>
<path fill="none" stroke="midnightblue" d="M544.81,-191.5C525.12,-191.5 503.41,-191.5 485.23,-191.5"/>
<polygon fill="midnightblue" stroke="midnightblue" points="544.89,-195 554.89,-191.5 544.89,-188 544.89,-195"/>
</g>
<!-- Node4 -->
<g id="node4" class="node">
<title>Node4</title>
<g id="a_node4"><a xlink:href="quickjs_8c.html#ac2894ff4edcdb4e6841bcce9c76081e3" target="_top" xlink:title=" ">
<polygon fill="none" stroke="red" points="30,-277 30,-296 117,-296 117,-277 30,-277"/>
<text text-anchor="middle" x="73.5" y="-284" font-family="Helvetica,sans-Serif" font-size="10.00">JS_CallInternal</text>
</a>
</g>
</g>
<!-- Node3&#45;&gt;Node4 -->
<g id="edge3" class="edge">
<title>Node3&#45;&gt;Node4</title>
<path fill="none" stroke="midnightblue" d="M392.48,-238.36C373.55,-241.64 351.8,-245.34 332,-248.5 256.59,-260.55 168.52,-273.25 117.38,-280.49"/>
<polygon fill="midnightblue" stroke="midnightblue" points="393.13,-241.8 402.39,-236.63 391.93,-234.9 393.13,-241.8"/>
</g>
<!-- Node43 -->
<g id="node5" class="node">
<title>Node43</title>
<g id="a_node5"><a xlink:href="quickjs_8c.html#a8d4b24969540aff427939eeda47f451d" target="_top" xlink:title=" ">
<polygon fill="none" stroke="red" points="206.5,-182 206.5,-201 308.5,-201 308.5,-182 206.5,-182"/>
<text text-anchor="middle" x="257.5" y="-189" font-family="Helvetica,sans-Serif" font-size="10.00">js_function_apply</text>
</a>
</g>
</g>
<!-- Node3&#45;&gt;Node43 -->
<g id="edge5" class="edge">
<title>Node3&#45;&gt;Node43</title>
<path fill="none" stroke="midnightblue" d="M391.99,-219.07C364.68,-213.43 331.21,-206.52 304.62,-201.02"/>
<polygon fill="midnightblue" stroke="midnightblue" points="391.62,-222.57 402.12,-221.16 393.03,-215.71 391.62,-222.57"/>
</g>
<!-- Node123 -->
<g id="node7" class="node">
<title>Node123</title>
<g id="a_node7"><a xlink:href="quickjs_8c.html#a392bb9e4d465d6a061eb3f6c830e0efa" target="_top" xlink:title=" ">
<polygon fill="none" stroke="black" points="202,-220 202,-239 313,-239 313,-220 202,-220"/>
<text text-anchor="middle" x="257.5" y="-227" font-family="Helvetica,sans-Serif" font-size="10.00">js_reflect_construct</text>
</a>
</g>
</g>
<!-- Node3&#45;&gt;Node123 -->
<g id="edge8" class="edge">
<title>Node3&#45;&gt;Node123</title>
<path fill="none" stroke="midnightblue" d="M391.96,-229.5C367.5,-229.5 338.08,-229.5 313.1,-229.5"/>
<polygon fill="midnightblue" stroke="midnightblue" points="392.12,-233 402.12,-229.5 392.12,-226 392.12,-233"/>
</g>
<!-- Node4&#45;&gt;Node4 -->
<g id="edge4" class="edge">
<title>Node4&#45;&gt;Node4</title>
<path fill="none" stroke="midnightblue" d="M107.98,-304.39C107.48,-310.04 95.98,-314.5 73.5,-314.5 40.8,-314.5 31.34,-305.07 45.14,-296.26"/>
<polygon fill="midnightblue" stroke="midnightblue" points="110.67,-302.14 101.86,-296.26 105.08,-306.35 110.67,-302.14"/>
</g>
<!-- Node43&#45;&gt;Node4 -->
<g id="edge6" class="edge">
<title>Node43&#45;&gt;Node4</title>
<path fill="none" stroke="midnightblue" d="M199.68,-203.99C193.95,-205.9 188.29,-208.06 183,-210.5 143.94,-228.51 104.05,-260.76 85.39,-276.84"/>
<polygon fill="midnightblue" stroke="midnightblue" points="200.83,-207.3 209.36,-201.01 198.77,-200.6 200.83,-207.3"/>
</g>
<!-- Node43&#45;&gt;Node45 -->
<g id="edge7" class="edge">
<title>Node43&#45;&gt;Node45</title>
<path fill="none" stroke="midnightblue" d="M200.55,-179.82C174.74,-174.43 144.49,-168.11 120.1,-163.02"/>
<polygon fill="midnightblue" stroke="midnightblue" points="200.07,-183.29 210.57,-181.91 201.5,-176.44 200.07,-183.29"/>
</g>
<!-- Node27&#45;&gt;Node27 -->
<g id="edge10" class="edge">
<title>Node27&#45;&gt;Node27</title>
<path fill="none" stroke="midnightblue" d="M472.99,-78.15C471.76,-83.44 461.93,-87.5 443.5,-87.5 415.42,-87.5 407.3,-78.07 419.15,-69.26"/>
<polygon fill="midnightblue" stroke="midnightblue" points="475.89,-76.16 467.85,-69.26 469.82,-79.67 475.89,-76.16"/>
</g>
<!-- Node69&#45;&gt;Node4 -->
<g id="edge12" class="edge">
<title>Node69&#45;&gt;Node4</title>
<path fill="none" stroke="midnightblue" d="M184.84,-298.02C161.92,-295.63 137.28,-293.05 117.11,-290.95"/>
<polygon fill="midnightblue" stroke="midnightblue" points="184.57,-301.51 194.88,-299.07 185.3,-294.55 184.57,-301.51"/>
</g>
<!-- Node248&#45;&gt;Node69 -->
<g id="edge14" class="edge">
<title>Node248&#45;&gt;Node69</title>
<path fill="none" stroke="midnightblue" d="M371.18,-305.5C354.39,-305.5 336.62,-305.5 320.29,-305.5"/>
<polygon fill="midnightblue" stroke="midnightblue" points="371.49,-309 381.49,-305.5 371.49,-302 371.49,-309"/>
</g>
<!-- Node355&#45;&gt;Node45 -->
<g id="edge18" class="edge">
<title>Node355&#45;&gt;Node45</title>
<path fill="none" stroke="midnightblue" d="M172.93,-153.5C164.3,-153.5 155.59,-153.5 147.09,-153.5"/>
<polygon fill="midnightblue" stroke="midnightblue" points="173,-157 183,-153.5 173,-150 173,-157"/>
</g>
<!-- Node612&#45;&gt;Node4 -->
<g id="edge21" class="edge">
<title>Node612&#45;&gt;Node4</title>
<path fill="none" stroke="midnightblue" d="M576.63,-301.21C560.82,-309.88 539.43,-320 519,-324.5 373.17,-356.65 330.22,-349.53 183,-324.5 151.32,-319.11 116.57,-305.47 95.15,-296.09"/>
<polygon fill="midnightblue" stroke="midnightblue" points="578.73,-304.05 585.7,-296.07 575.27,-297.96 578.73,-304.05"/>
</g>
</g>
</svg>
