<?xml version="1.0" encoding="UTF-8" standalone="no"?>
<!DOCTYPE svg PUBLIC "-//W3C//DTD SVG 1.1//EN"
 "http://www.w3.org/Graphics/SVG/1.1/DTD/svg11.dtd">
<!-- Generated by graphviz version 2.43.0 (0)
 -->
<!-- Title: string_buffer_putc8 Pages: 1 -->
<svg width="668pt" height="180pt"
 viewBox="0.00 0.00 668.00 180.00" xmlns="http://www.w3.org/2000/svg" xmlns:xlink="http://www.w3.org/1999/xlink">
<g id="graph0" class="graph" transform="scale(1 1) rotate(0) translate(4 176)">
<title>string_buffer_putc8</title>
<!-- Node1 -->
<g id="node1" class="node">
<title>Node1</title>
<g id="a_node1"><a xlink:title=" ">
<polygon fill="#bfbfbf" stroke="black" points="0,-76.5 0,-95.5 110,-95.5 110,-76.5 0,-76.5"/>
<text text-anchor="middle" x="55" y="-83.5" font-family="Helvetica,sans-Serif" font-size="10.00">string_buffer_putc8</text>
</a>
</g>
</g>
<!-- Node2 -->
<g id="node2" class="node">
<title>Node2</title>
<g id="a_node2"><a xlink:href="quickjs_8c.html#a317ccdca83843c76330ace89fb055b56" target="_top" xlink:title=" ">
<polygon fill="none" stroke="black" points="146,-76.5 146,-95.5 262,-95.5 262,-76.5 146,-76.5"/>
<text text-anchor="middle" x="204" y="-83.5" font-family="Helvetica,sans-Serif" font-size="10.00">string_buffer_realloc</text>
</a>
</g>
</g>
<!-- Node1&#45;&gt;Node2 -->
<g id="edge1" class="edge">
<title>Node1&#45;&gt;Node2</title>
<path fill="none" stroke="midnightblue" d="M110.32,-86C118.58,-86 127.18,-86 135.67,-86"/>
<polygon fill="midnightblue" stroke="midnightblue" points="135.95,-89.5 145.95,-86 135.95,-82.5 135.95,-89.5"/>
</g>
<!-- Node3 -->
<g id="node3" class="node">
<title>Node3</title>
<g id="a_node3"><a xlink:href="quickjs_8c.html#a853f0924d441ea4225488f37c8b69f9a" target="_top" xlink:title=" ">
<polygon fill="none" stroke="black" points="314.5,-152.5 314.5,-171.5 394.5,-171.5 394.5,-152.5 314.5,-152.5"/>
<text text-anchor="middle" x="354.5" y="-159.5" font-family="Helvetica,sans-Serif" font-size="10.00">__attribute__</text>
</a>
</g>
</g>
<!-- Node2&#45;&gt;Node3 -->
<g id="edge2" class="edge">
<title>Node2&#45;&gt;Node3</title>
<path fill="none" stroke="midnightblue" d="M218.64,-95.69C236.31,-107.92 268.36,-129.05 298,-143 302.43,-145.09 307.16,-147.06 311.91,-148.89"/>
<polygon fill="midnightblue" stroke="midnightblue" points="311.02,-152.29 321.62,-152.43 313.42,-145.71 311.02,-152.29"/>
</g>
<!-- Node4 -->
<g id="node4" class="node">
<title>Node4</title>
<g id="a_node4"><a xlink:href="cutils_8h.html#a94f155fcce337a2b9d4719ed8042cbbe" target="_top" xlink:title=" ">
<polygon fill="none" stroke="black" points="326.5,-114.5 326.5,-133.5 382.5,-133.5 382.5,-114.5 326.5,-114.5"/>
<text text-anchor="middle" x="354.5" y="-121.5" font-family="Helvetica,sans-Serif" font-size="10.00">max_int</text>
</a>
</g>
</g>
<!-- Node2&#45;&gt;Node4 -->
<g id="edge3" class="edge">
<title>Node2&#45;&gt;Node4</title>
<path fill="none" stroke="midnightblue" d="M242.47,-95.59C265.12,-101.39 293.88,-108.74 316.46,-114.52"/>
<polygon fill="midnightblue" stroke="midnightblue" points="315.79,-117.96 326.35,-117.05 317.53,-111.18 315.79,-117.96"/>
</g>
<!-- Node5 -->
<g id="node5" class="node">
<title>Node5</title>
<g id="a_node5"><a xlink:href="cutils_8h.html#a29a7a26d9387c01c1b4e9fe4fff5704a" target="_top" xlink:title=" ">
<polygon fill="none" stroke="black" points="328,-76.5 328,-95.5 381,-95.5 381,-76.5 328,-76.5"/>
<text text-anchor="middle" x="354.5" y="-83.5" font-family="Helvetica,sans-Serif" font-size="10.00">min_int</text>
</a>
</g>
</g>
<!-- Node2&#45;&gt;Node5 -->
<g id="edge4" class="edge">
<title>Node2&#45;&gt;Node5</title>
<path fill="none" stroke="midnightblue" d="M262.41,-86C280.89,-86 300.84,-86 317.34,-86"/>
<polygon fill="midnightblue" stroke="midnightblue" points="317.64,-89.5 327.64,-86 317.64,-82.5 317.64,-89.5"/>
</g>
<!-- Node6 -->
<g id="node6" class="node">
<title>Node6</title>
<g id="a_node6"><a xlink:href="quickjs_8c.html#a85744d3012cd123d2c7d27ef7a4e7ddf" target="_top" xlink:title=" ">
<polygon fill="none" stroke="black" points="447,-19.5 447,-38.5 574,-38.5 574,-19.5 447,-19.5"/>
<text text-anchor="middle" x="510.5" y="-26.5" font-family="Helvetica,sans-Serif" font-size="10.00">string_buffer_set_error</text>
</a>
</g>
</g>
<!-- Node2&#45;&gt;Node6 -->
<g id="edge5" class="edge">
<title>Node2&#45;&gt;Node6</title>
<path fill="none" stroke="midnightblue" d="M250.84,-76.41C265.85,-73.33 282.63,-69.95 298,-67 346.91,-57.61 402.32,-47.68 444.15,-40.33"/>
<polygon fill="midnightblue" stroke="midnightblue" points="444.97,-43.74 454.21,-38.56 443.76,-36.84 444.97,-43.74"/>
</g>
<!-- Node9 -->
<g id="node8" class="node">
<title>Node9</title>
<g id="a_node8"><a xlink:href="quickjs_8c.html#a3a6ad85d7c6ef1ba1854e51b762ee0ea" target="_top" xlink:title=" ">
<polygon fill="none" stroke="black" points="298,-0.5 298,-19.5 411,-19.5 411,-0.5 298,-0.5"/>
<text text-anchor="middle" x="354.5" y="-7.5" font-family="Helvetica,sans-Serif" font-size="10.00">string_buffer_widen</text>
</a>
</g>
</g>
<!-- Node2&#45;&gt;Node9 -->
<g id="edge7" class="edge">
<title>Node2&#45;&gt;Node9</title>
<path fill="none" stroke="midnightblue" d="M220.86,-76.48C239.17,-65.65 270.31,-47.69 298,-34 305.28,-30.4 313.23,-26.79 320.77,-23.5"/>
<polygon fill="midnightblue" stroke="midnightblue" points="322.23,-26.68 330.04,-19.52 319.47,-20.25 322.23,-26.68"/>
</g>
<!-- Node7 -->
<g id="node7" class="node">
<title>Node7</title>
<g id="a_node7"><a xlink:href="quickjs_8c.html#a80e54dcf9ac687d4ccc2f90273565f30" target="_top" xlink:title=" ">
<polygon fill="none" stroke="red" points="610,-19.5 610,-38.5 660,-38.5 660,-19.5 610,-19.5"/>
<text text-anchor="middle" x="635" y="-26.5" font-family="Helvetica,sans-Serif" font-size="10.00">js_free</text>
</a>
</g>
</g>
<!-- Node6&#45;&gt;Node7 -->
<g id="edge6" class="edge">
<title>Node6&#45;&gt;Node7</title>
<path fill="none" stroke="midnightblue" d="M574.19,-29C583.03,-29 591.83,-29 599.85,-29"/>
<polygon fill="midnightblue" stroke="midnightblue" points="599.89,-32.5 609.89,-29 599.89,-25.5 599.89,-32.5"/>
</g>
<!-- Node9&#45;&gt;Node6 -->
<g id="edge8" class="edge">
<title>Node9&#45;&gt;Node6</title>
<path fill="none" stroke="midnightblue" d="M411.1,-16.86C419.46,-17.89 428.18,-18.97 436.83,-20.03"/>
<polygon fill="midnightblue" stroke="midnightblue" points="436.58,-23.53 446.93,-21.28 437.44,-16.58 436.58,-23.53"/>
</g>
</g>
</svg>
