<?xml version="1.0" encoding="UTF-8" standalone="no"?>
<!DOCTYPE svg PUBLIC "-//W3C//DTD SVG 1.1//EN"
 "http://www.w3.org/Graphics/SVG/1.1/DTD/svg11.dtd">
<!-- Generated by graphviz version 2.43.0 (0)
 -->
<!-- Title: JS_DefineGlobalVar Pages: 1 -->
<svg width="858pt" height="541pt"
 viewBox="0.00 0.00 858.00 541.24" xmlns="http://www.w3.org/2000/svg" xmlns:xlink="http://www.w3.org/1999/xlink">
<g id="graph0" class="graph" transform="scale(1 1) rotate(0) translate(4 537.24)">
<title>JS_DefineGlobalVar</title>
<!-- Node1 -->
<g id="node1" class="node">
<title>Node1</title>
<g id="a_node1"><a xlink:title=" ">
<polygon fill="#bfbfbf" stroke="black" points="0,-418.5 0,-437.5 110,-437.5 110,-418.5 0,-418.5"/>
<text text-anchor="middle" x="55" y="-425.5" font-family="Helvetica,sans-Serif" font-size="10.00">JS_DefineGlobalVar</text>
</a>
</g>
</g>
<!-- Node2 -->
<g id="node2" class="node">
<title>Node2</title>
<g id="a_node2"><a xlink:href="quickjs_8c.html#a74547db03bf739a52c83a326b32db997" target="_top" xlink:title=" ">
<polygon fill="none" stroke="black" points="146,-342.5 146,-361.5 227,-361.5 227,-342.5 146,-342.5"/>
<text text-anchor="middle" x="186.5" y="-349.5" font-family="Helvetica,sans-Serif" font-size="10.00">add_property</text>
</a>
</g>
</g>
<!-- Node1&#45;&gt;Node2 -->
<g id="edge1" class="edge">
<title>Node1&#45;&gt;Node2</title>
<path fill="none" stroke="midnightblue" d="M72.4,-418.37C94.59,-405.35 134.37,-382.01 160.34,-366.76"/>
<polygon fill="midnightblue" stroke="midnightblue" points="162.38,-369.63 169.23,-361.55 158.84,-363.59 162.38,-369.63"/>
</g>
<!-- Node61 -->
<g id="node24" class="node">
<title>Node61</title>
<g id="a_node24"><a xlink:href="quickjs_8c.html#afdc6d90129958f6258bae1505495869f" target="_top" xlink:title=" ">
<polygon fill="none" stroke="black" points="441,-494.5 441,-513.5 554,-513.5 554,-494.5 441,-494.5"/>
<text text-anchor="middle" x="497.5" y="-501.5" font-family="Helvetica,sans-Serif" font-size="10.00">find_own_property1</text>
</a>
</g>
</g>
<!-- Node1&#45;&gt;Node61 -->
<g id="edge38" class="edge">
<title>Node1&#45;&gt;Node61</title>
<path fill="none" stroke="midnightblue" d="M84.08,-437.54C123.53,-450.53 197.85,-473.48 263,-485 319.16,-494.93 383.84,-499.68 430.87,-501.95"/>
<polygon fill="midnightblue" stroke="midnightblue" points="430.78,-505.45 440.93,-502.41 431.1,-498.45 430.78,-505.45"/>
</g>
<!-- Node3 -->
<g id="node3" class="node">
<title>Node3</title>
<g id="a_node3"><a xlink:href="quickjs_8c.html#a3cadcaa2bd1e3f9359f1c006f396cfa0" target="_top" xlink:title=" ">
<polygon fill="none" stroke="black" points="273.5,-342.5 273.5,-361.5 389.5,-361.5 389.5,-342.5 273.5,-342.5"/>
<text text-anchor="middle" x="331.5" y="-349.5" font-family="Helvetica,sans-Serif" font-size="10.00">add_shape_property</text>
</a>
</g>
</g>
<!-- Node2&#45;&gt;Node3 -->
<g id="edge2" class="edge">
<title>Node2&#45;&gt;Node3</title>
<path fill="none" stroke="midnightblue" d="M227.33,-352C238.44,-352 250.82,-352 263.04,-352"/>
<polygon fill="midnightblue" stroke="midnightblue" points="263.24,-355.5 273.24,-352 263.24,-348.5 263.24,-355.5"/>
</g>
<!-- Node8 -->
<g id="node7" class="node">
<title>Node8</title>
<g id="a_node7"><a xlink:href="quickjs_8c.html#a82dbe63adeac7849406fd48d96f39f7b" target="_top" xlink:title=" ">
<polygon fill="none" stroke="black" points="442,-418.5 442,-437.5 553,-437.5 553,-418.5 442,-418.5"/>
<text text-anchor="middle" x="497.5" y="-425.5" font-family="Helvetica,sans-Serif" font-size="10.00">js_shape_hash_link</text>
</a>
</g>
</g>
<!-- Node2&#45;&gt;Node8 -->
<g id="edge37" class="edge">
<title>Node2&#45;&gt;Node8</title>
<path fill="none" stroke="midnightblue" d="M225.12,-361.52C237.21,-364.57 250.67,-367.94 263,-371 326.39,-386.71 399.55,-404.52 446.84,-415.99"/>
<polygon fill="midnightblue" stroke="midnightblue" points="446.27,-419.45 456.82,-418.4 447.92,-412.65 446.27,-419.45"/>
</g>
<!-- Node29 -->
<g id="node17" class="node">
<title>Node29</title>
<g id="a_node17"><a xlink:href="quickjs_8c.html#ac0c5dbb01d6082796c44b1c7f7c170f1" target="_top" xlink:title=" ">
<polygon fill="none" stroke="black" points="263,-456.5 263,-475.5 400,-475.5 400,-456.5 263,-456.5"/>
<text text-anchor="middle" x="331.5" y="-463.5" font-family="Helvetica,sans-Serif" font-size="10.00">find_hashed_shape_prop</text>
</a>
</g>
</g>
<!-- Node2&#45;&gt;Node29 -->
<g id="edge19" class="edge">
<title>Node2&#45;&gt;Node29</title>
<path fill="none" stroke="midnightblue" d="M196.75,-361.8C210.49,-376.09 237.43,-403.12 263,-423 276.15,-433.23 291.79,-443.31 304.7,-451.13"/>
<polygon fill="midnightblue" stroke="midnightblue" points="303.16,-454.29 313.55,-456.4 306.75,-448.28 303.16,-454.29"/>
</g>
<!-- Node30 -->
<g id="node18" class="node">
<title>Node30</title>
<g id="a_node18"><a xlink:href="quickjs_8c.html#a8e34657169da77ae6a386311351ed3de" target="_top" xlink:title=" ">
<polygon fill="none" stroke="black" points="452,-152.5 452,-171.5 543,-171.5 543,-152.5 452,-152.5"/>
<text text-anchor="middle" x="497.5" y="-159.5" font-family="Helvetica,sans-Serif" font-size="10.00">js_clone_shape</text>
</a>
</g>
</g>
<!-- Node2&#45;&gt;Node30 -->
<g id="edge22" class="edge">
<title>Node2&#45;&gt;Node30</title>
<path fill="none" stroke="midnightblue" d="M192.94,-342.37C203.96,-323.64 230.63,-281.95 263,-257 318.25,-214.42 395.2,-188.04 445.43,-174.19"/>
<polygon fill="midnightblue" stroke="midnightblue" points="446.36,-177.56 455.1,-171.58 444.54,-170.8 446.36,-177.56"/>
</g>
<!-- Node33 -->
<g id="node21" class="node">
<title>Node33</title>
<g id="a_node21"><a xlink:href="quickjs_8c.html#aed229eb80b3b03a2275471dee93c69d6" target="_top" xlink:title=" ">
<polygon fill="none" stroke="black" points="290,-266.5 290,-285.5 373,-285.5 373,-266.5 290,-266.5"/>
<text text-anchor="middle" x="331.5" y="-273.5" font-family="Helvetica,sans-Serif" font-size="10.00">js_dup_shape</text>
</a>
</g>
</g>
<!-- Node2&#45;&gt;Node33 -->
<g id="edge31" class="edge">
<title>Node2&#45;&gt;Node33</title>
<path fill="none" stroke="midnightblue" d="M197.9,-342.11C211.72,-329.47 237.4,-307.7 263,-295 268.38,-292.33 274.19,-289.99 280.07,-287.94"/>
<polygon fill="midnightblue" stroke="midnightblue" points="281.51,-291.15 289.96,-284.77 279.37,-284.49 281.51,-291.15"/>
</g>
<!-- Node34 -->
<g id="node22" class="node">
<title>Node34</title>
<g id="a_node22"><a xlink:href="quickjs_8c.html#a3a9f27520d96cf58aa5bd7359e9cddee" target="_top" xlink:title=" ">
<polygon fill="none" stroke="black" points="289.5,-304.5 289.5,-323.5 373.5,-323.5 373.5,-304.5 289.5,-304.5"/>
<text text-anchor="middle" x="331.5" y="-311.5" font-family="Helvetica,sans-Serif" font-size="10.00">js_free_shape</text>
</a>
</g>
</g>
<!-- Node2&#45;&gt;Node34 -->
<g id="edge32" class="edge">
<title>Node2&#45;&gt;Node34</title>
<path fill="none" stroke="midnightblue" d="M223.58,-342.41C242.13,-337.48 264.93,-331.43 284.7,-326.17"/>
<polygon fill="midnightblue" stroke="midnightblue" points="285.66,-329.54 294.43,-323.59 283.86,-322.77 285.66,-329.54"/>
</g>
<!-- Node4 -->
<g id="node4" class="node">
<title>Node4</title>
<g id="a_node4"><a xlink:href="quickjs_8c.html#a288254c06a39c9fca740a7abdad2834e" target="_top" xlink:title=" ">
<polygon fill="none" stroke="black" points="436,-266.5 436,-285.5 559,-285.5 559,-266.5 436,-266.5"/>
<text text-anchor="middle" x="497.5" y="-273.5" font-family="Helvetica,sans-Serif" font-size="10.00">__JS_AtomIsTaggedInt</text>
</a>
</g>
</g>
<!-- Node3&#45;&gt;Node4 -->
<g id="edge3" class="edge">
<title>Node3&#45;&gt;Node4</title>
<path fill="none" stroke="midnightblue" d="M377.61,-342.48C385.33,-339.97 393.09,-336.85 400,-333 418.96,-322.44 417.61,-311.53 436,-300 442.39,-296 449.55,-292.45 456.65,-289.4"/>
<polygon fill="midnightblue" stroke="midnightblue" points="458.26,-292.52 466.22,-285.54 455.64,-286.03 458.26,-292.52"/>
</g>
<!-- Node5 -->
<g id="node5" class="node">
<title>Node5</title>
<g id="a_node5"><a xlink:href="quickjs_8c.html#a643df594b75933007bcdbb071b5ea8c5" target="_top" xlink:title=" ">
<polygon fill="none" stroke="black" points="610,-304.5 610,-323.5 704,-323.5 704,-304.5 610,-304.5"/>
<text text-anchor="middle" x="657" y="-311.5" font-family="Helvetica,sans-Serif" font-size="10.00">get_shape_prop</text>
</a>
</g>
</g>
<!-- Node3&#45;&gt;Node5 -->
<g id="edge4" class="edge">
<title>Node3&#45;&gt;Node5</title>
<path fill="none" stroke="midnightblue" d="M389.59,-345.29C448.8,-338.34 540.79,-327.53 599.7,-320.61"/>
<polygon fill="midnightblue" stroke="midnightblue" points="600.41,-324.05 609.94,-319.41 599.6,-317.1 600.41,-324.05"/>
</g>
<!-- Node6 -->
<g id="node6" class="node">
<title>Node6</title>
<g id="a_node6"><a xlink:href="quickjs_8c.html#abbf44eaeace1104a6bef718fbf5700fe" target="_top" xlink:title=" ">
<polygon fill="none" stroke="red" points="618.5,-0.5 618.5,-19.5 695.5,-19.5 695.5,-0.5 618.5,-0.5"/>
<text text-anchor="middle" x="657" y="-7.5" font-family="Helvetica,sans-Serif" font-size="10.00">JS_DupAtom</text>
</a>
</g>
</g>
<!-- Node3&#45;&gt;Node6 -->
<g id="edge5" class="edge">
<title>Node3&#45;&gt;Node6</title>
<path fill="none" stroke="midnightblue" d="M387.58,-342.44C392.21,-339.96 396.46,-336.86 400,-333 458.07,-269.64 389.76,-215.45 436,-143 482.78,-69.7 517.16,-67.76 595,-29 599.54,-26.74 604.4,-24.68 609.33,-22.83"/>
<polygon fill="midnightblue" stroke="midnightblue" points="610.53,-26.11 618.81,-19.5 608.21,-19.51 610.53,-26.11"/>
</g>
<!-- Node3&#45;&gt;Node8 -->
<g id="edge6" class="edge">
<title>Node3&#45;&gt;Node8</title>
<path fill="none" stroke="midnightblue" d="M350.22,-361.5C370.65,-372.32 405.36,-390.26 436,-404 444.15,-407.66 453.04,-411.34 461.43,-414.69"/>
<polygon fill="midnightblue" stroke="midnightblue" points="460.39,-418.05 470.98,-418.45 462.95,-411.53 460.39,-418.05"/>
</g>
<!-- Node10 -->
<g id="node9" class="node">
<title>Node10</title>
<g id="a_node9"><a xlink:href="quickjs_8c.html#ae5e76f4be6214208cc91f10a192fc810" target="_top" xlink:title=" ">
<polygon fill="none" stroke="black" points="595.5,-342.5 595.5,-361.5 718.5,-361.5 718.5,-342.5 595.5,-342.5"/>
<text text-anchor="middle" x="657" y="-349.5" font-family="Helvetica,sans-Serif" font-size="10.00">js_shape_hash_unlink</text>
</a>
</g>
</g>
<!-- Node3&#45;&gt;Node10 -->
<g id="edge8" class="edge">
<title>Node3&#45;&gt;Node10</title>
<path fill="none" stroke="midnightblue" d="M389.59,-352C444.09,-352 526.37,-352 585.06,-352"/>
<polygon fill="midnightblue" stroke="midnightblue" points="585.36,-355.5 595.36,-352 585.36,-348.5 585.36,-355.5"/>
</g>
<!-- Node11 -->
<g id="node10" class="node">
<title>Node11</title>
<g id="a_node10"><a xlink:href="quickjs_8c.html#acab22c2945c4d609e57a2484feb68a96" target="_top" xlink:title=" ">
<polygon fill="none" stroke="black" points="757.5,-323.5 757.5,-342.5 847.5,-342.5 847.5,-323.5 757.5,-323.5"/>
<text text-anchor="middle" x="802.5" y="-330.5" font-family="Helvetica,sans-Serif" font-size="10.00">prop_hash_end</text>
</a>
</g>
</g>
<!-- Node3&#45;&gt;Node11 -->
<g id="edge10" class="edge">
<title>Node3&#45;&gt;Node11</title>
<path fill="none" stroke="midnightblue" d="M376.3,-361.54C448.62,-375.66 597.1,-397.72 719,-371 739.54,-366.5 761.06,-356.38 776.97,-347.71"/>
<polygon fill="midnightblue" stroke="midnightblue" points="779.1,-350.53 786.09,-342.57 775.66,-344.43 779.1,-350.53"/>
</g>
<!-- Node12 -->
<g id="node11" class="node">
<title>Node12</title>
<g id="a_node11"><a xlink:href="quickjs_8c.html#aa80740ff93b724ea7e0c280826f4a25a" target="_top" xlink:title=" ">
<polygon fill="none" stroke="red" points="447,-190.5 447,-209.5 548,-209.5 548,-190.5 447,-190.5"/>
<text text-anchor="middle" x="497.5" y="-197.5" font-family="Helvetica,sans-Serif" font-size="10.00">resize_properties</text>
</a>
</g>
</g>
<!-- Node3&#45;&gt;Node12 -->
<g id="edge11" class="edge">
<title>Node3&#45;&gt;Node12</title>
<path fill="none" stroke="midnightblue" d="M386.13,-342.49C391.22,-340.01 395.98,-336.9 400,-333 438.16,-296.03 398.4,-256.54 436,-219 437.46,-217.54 439.03,-216.19 440.69,-214.95"/>
<polygon fill="midnightblue" stroke="midnightblue" points="442.85,-217.73 449.59,-209.55 439.22,-211.75 442.85,-217.73"/>
</g>
<!-- Node28 -->
<g id="node16" class="node">
<title>Node28</title>
<g id="a_node16"><a xlink:href="quickjs_8c.html#a11f047846c1027dc6066a5f1b2ef292a" target="_top" xlink:title=" ">
<polygon fill="none" stroke="black" points="460.5,-456.5 460.5,-475.5 534.5,-475.5 534.5,-456.5 460.5,-456.5"/>
<text text-anchor="middle" x="497.5" y="-463.5" font-family="Helvetica,sans-Serif" font-size="10.00">shape_hash</text>
</a>
</g>
</g>
<!-- Node3&#45;&gt;Node28 -->
<g id="edge18" class="edge">
<title>Node3&#45;&gt;Node28</title>
<path fill="none" stroke="midnightblue" d="M340.31,-361.56C356.32,-380.55 394.81,-423.23 436,-447 440.53,-449.62 445.47,-451.92 450.5,-453.93"/>
<polygon fill="midnightblue" stroke="midnightblue" points="449.62,-457.33 460.21,-457.44 452,-450.75 449.62,-457.33"/>
</g>
<!-- Node9 -->
<g id="node8" class="node">
<title>Node9</title>
<g id="a_node8"><a xlink:href="quickjs_8c.html#a8291bf195606b5d1b0faed795b6dc3ff" target="_top" xlink:title=" ">
<polygon fill="none" stroke="black" points="755,-456.5 755,-475.5 850,-475.5 850,-456.5 755,-456.5"/>
<text text-anchor="middle" x="802.5" y="-463.5" font-family="Helvetica,sans-Serif" font-size="10.00">get_shape_hash</text>
</a>
</g>
</g>
<!-- Node8&#45;&gt;Node9 -->
<g id="edge7" class="edge">
<title>Node8&#45;&gt;Node9</title>
<path fill="none" stroke="midnightblue" d="M553.02,-434.84C607.12,-441.62 689.69,-451.98 744.61,-458.86"/>
<polygon fill="midnightblue" stroke="midnightblue" points="744.51,-462.38 754.87,-460.15 745.38,-455.43 744.51,-462.38"/>
</g>
<!-- Node10&#45;&gt;Node9 -->
<g id="edge9" class="edge">
<title>Node10&#45;&gt;Node9</title>
<path fill="none" stroke="midnightblue" d="M670.23,-361.72C694.91,-381.32 750.86,-425.77 781.14,-449.82"/>
<polygon fill="midnightblue" stroke="midnightblue" points="779.29,-452.83 789.3,-456.31 783.64,-447.34 779.29,-452.83"/>
</g>
<!-- Node12&#45;&gt;Node11 -->
<g id="edge17" class="edge">
<title>Node12&#45;&gt;Node11</title>
<path fill="none" stroke="midnightblue" d="M546.44,-209.53C601.93,-221.06 689.48,-240.93 719,-257 746.63,-272.05 772.24,-298.37 787.38,-315.75"/>
<polygon fill="midnightblue" stroke="midnightblue" points="784.8,-318.11 793.94,-323.47 790.13,-313.58 784.8,-318.11"/>
</g>
<!-- Node13 -->
<g id="node12" class="node">
<title>Node13</title>
<g id="a_node12"><a xlink:href="quickjs_8c.html#a7da0cfa6f27af0e1b9599d7f359edbe2" target="_top" xlink:title=" ">
<polygon fill="none" stroke="black" points="595,-266.5 595,-285.5 719,-285.5 719,-266.5 595,-266.5"/>
<text text-anchor="middle" x="657" y="-273.5" font-family="Helvetica,sans-Serif" font-size="10.00">get_alloc_from_shape</text>
</a>
</g>
</g>
<!-- Node12&#45;&gt;Node13 -->
<g id="edge12" class="edge">
<title>Node12&#45;&gt;Node13</title>
<path fill="none" stroke="midnightblue" d="M537.65,-209.53C544.99,-212.08 552.42,-215.2 559,-219 577.8,-229.84 576.59,-240.5 595,-252 601.44,-256.02 608.66,-259.58 615.82,-262.63"/>
<polygon fill="midnightblue" stroke="midnightblue" points="614.89,-266.03 625.47,-266.49 617.49,-259.53 614.89,-266.03"/>
</g>
<!-- Node14 -->
<g id="node13" class="node">
<title>Node14</title>
<g id="a_node13"><a xlink:href="quickjs_8c.html#a8b6c89e0f589df709eb31a92b7fac32a" target="_top" xlink:title=" ">
<polygon fill="none" stroke="black" points="595,-152.5 595,-171.5 719,-171.5 719,-152.5 595,-152.5"/>
<text text-anchor="middle" x="657" y="-159.5" font-family="Helvetica,sans-Serif" font-size="10.00">get_shape_from_alloc</text>
</a>
</g>
</g>
<!-- Node12&#45;&gt;Node14 -->
<g id="edge14" class="edge">
<title>Node12&#45;&gt;Node14</title>
<path fill="none" stroke="midnightblue" d="M538.24,-190.41C559.03,-185.4 584.66,-179.21 606.7,-173.89"/>
<polygon fill="midnightblue" stroke="midnightblue" points="607.64,-177.27 616.54,-171.52 606,-170.46 607.64,-177.27"/>
</g>
<!-- Node15 -->
<g id="node14" class="node">
<title>Node15</title>
<g id="a_node14"><a xlink:href="quickjs_8c.html#ab54e821a9b1b55dc16c4494bd410b698" target="_top" xlink:title=" ">
<polygon fill="none" stroke="black" points="611,-114.5 611,-133.5 703,-133.5 703,-114.5 611,-114.5"/>
<text text-anchor="middle" x="657" y="-121.5" font-family="Helvetica,sans-Serif" font-size="10.00">get_shape_size</text>
</a>
</g>
</g>
<!-- Node12&#45;&gt;Node15 -->
<g id="edge15" class="edge">
<title>Node12&#45;&gt;Node15</title>
<path fill="none" stroke="midnightblue" d="M538.83,-190.5C545.83,-187.98 552.84,-184.85 559,-181 578.73,-168.67 575.25,-155.3 595,-143 598.35,-140.92 601.94,-139.04 605.65,-137.36"/>
<polygon fill="midnightblue" stroke="midnightblue" points="607.06,-140.57 615.02,-133.58 604.44,-134.08 607.06,-140.57"/>
</g>
<!-- Node18 -->
<g id="node15" class="node">
<title>Node18</title>
<g id="a_node15"><a xlink:href="quickjs_8c.html#a78b7f6b85f2739b551ff54f16156128b" target="_top" xlink:title=" ">
<polygon fill="none" stroke="red" points="625.5,-190.5 625.5,-209.5 688.5,-209.5 688.5,-190.5 625.5,-190.5"/>
<text text-anchor="middle" x="657" y="-197.5" font-family="Helvetica,sans-Serif" font-size="10.00">js_malloc</text>
</a>
</g>
</g>
<!-- Node12&#45;&gt;Node18 -->
<g id="edge16" class="edge">
<title>Node12&#45;&gt;Node18</title>
<path fill="none" stroke="midnightblue" d="M548.33,-200C569.82,-200 594.65,-200 615.04,-200"/>
<polygon fill="midnightblue" stroke="midnightblue" points="615.26,-203.5 625.26,-200 615.26,-196.5 615.26,-203.5"/>
</g>
<!-- Node13&#45;&gt;Node11 -->
<g id="edge13" class="edge">
<title>Node13&#45;&gt;Node11</title>
<path fill="none" stroke="midnightblue" d="M691.51,-285.58C700.52,-288.39 710.2,-291.62 719,-295 737.41,-302.07 757.52,-311.3 773.27,-318.89"/>
<polygon fill="midnightblue" stroke="midnightblue" points="771.94,-322.14 782.47,-323.38 775.01,-315.85 771.94,-322.14"/>
</g>
<!-- Node29&#45;&gt;Node9 -->
<g id="edge20" class="edge">
<title>Node29&#45;&gt;Node9</title>
<path fill="none" stroke="midnightblue" d="M344.99,-475.66C363.6,-489.36 400.24,-513.8 436,-523 557.33,-554.2 705.97,-504.76 769.86,-479.45"/>
<polygon fill="midnightblue" stroke="midnightblue" points="771.4,-482.6 779.36,-475.62 768.78,-476.11 771.4,-482.6"/>
</g>
<!-- Node29&#45;&gt;Node28 -->
<g id="edge21" class="edge">
<title>Node29&#45;&gt;Node28</title>
<path fill="none" stroke="midnightblue" d="M400.15,-466C416.93,-466 434.53,-466 450.03,-466"/>
<polygon fill="midnightblue" stroke="midnightblue" points="450.39,-469.5 460.39,-466 450.39,-462.5 450.39,-469.5"/>
</g>
<!-- Node30&#45;&gt;Node5 -->
<g id="edge26" class="edge">
<title>Node30&#45;&gt;Node5</title>
<path fill="none" stroke="midnightblue" d="M543.29,-170.56C549.1,-173.16 554.56,-176.57 559,-181 596.6,-218.54 557.36,-257.5 595,-295 596.86,-296.85 598.89,-298.52 601.05,-300.03"/>
<polygon fill="midnightblue" stroke="midnightblue" points="599.5,-303.17 609.92,-305.08 602.96,-297.09 599.5,-303.17"/>
</g>
<!-- Node30&#45;&gt;Node6 -->
<g id="edge28" class="edge">
<title>Node30&#45;&gt;Node6</title>
<path fill="none" stroke="midnightblue" d="M505.88,-152.36C517.39,-137.26 540.24,-107.08 559,-81 575.41,-58.18 572.35,-45.64 595,-29 599.19,-25.92 603.9,-23.33 608.79,-21.15"/>
<polygon fill="midnightblue" stroke="midnightblue" points="610.27,-24.33 618.33,-17.46 607.74,-17.81 610.27,-24.33"/>
</g>
<!-- Node30&#45;&gt;Node13 -->
<g id="edge24" class="edge">
<title>Node30&#45;&gt;Node13</title>
<path fill="none" stroke="midnightblue" d="M538.83,-171.5C545.83,-174.02 552.84,-177.15 559,-181 578.73,-193.33 578.49,-202.61 595,-219 609,-232.91 625.37,-248.15 637.62,-259.37"/>
<polygon fill="midnightblue" stroke="midnightblue" points="635.26,-261.95 645.01,-266.11 639.98,-256.78 635.26,-261.95"/>
</g>
<!-- Node30&#45;&gt;Node14 -->
<g id="edge25" class="edge">
<title>Node30&#45;&gt;Node14</title>
<path fill="none" stroke="midnightblue" d="M543.21,-162C556.09,-162 570.48,-162 584.55,-162"/>
<polygon fill="midnightblue" stroke="midnightblue" points="584.71,-165.5 594.71,-162 584.71,-158.5 584.71,-165.5"/>
</g>
<!-- Node30&#45;&gt;Node15 -->
<g id="edge27" class="edge">
<title>Node30&#45;&gt;Node15</title>
<path fill="none" stroke="midnightblue" d="M538.24,-152.41C559.03,-147.4 584.66,-141.21 606.7,-135.89"/>
<polygon fill="midnightblue" stroke="midnightblue" points="607.64,-139.27 616.54,-133.52 606,-132.46 607.64,-139.27"/>
</g>
<!-- Node30&#45;&gt;Node18 -->
<g id="edge30" class="edge">
<title>Node30&#45;&gt;Node18</title>
<path fill="none" stroke="midnightblue" d="M538.24,-171.59C561.85,-177.28 591.7,-184.49 615.45,-190.22"/>
<polygon fill="midnightblue" stroke="midnightblue" points="614.67,-193.63 625.21,-192.57 616.31,-186.82 614.67,-193.63"/>
</g>
<!-- Node31 -->
<g id="node19" class="node">
<title>Node31</title>
<g id="a_node19"><a xlink:href="quickjs_8c.html#a9780456a71703c53244b88831bc8fb7a" target="_top" xlink:title=" ">
<polygon fill="none" stroke="red" points="614,-38.5 614,-57.5 700,-57.5 700,-38.5 614,-38.5"/>
<text text-anchor="middle" x="657" y="-45.5" font-family="Helvetica,sans-Serif" font-size="10.00">add_gc_object</text>
</a>
</g>
</g>
<!-- Node30&#45;&gt;Node31 -->
<g id="edge23" class="edge">
<title>Node30&#45;&gt;Node31</title>
<path fill="none" stroke="midnightblue" d="M505.63,-152.4C520.27,-133.35 555.67,-90.56 595,-67 598.59,-64.85 602.44,-62.92 606.4,-61.2"/>
<polygon fill="midnightblue" stroke="midnightblue" points="607.74,-64.43 615.77,-57.53 605.18,-57.92 607.74,-64.43"/>
</g>
<!-- Node32 -->
<g id="node20" class="node">
<title>Node32</title>
<g id="a_node20"><a xlink:href="quickjs_8h.html#a775522f2d084fc8fa0fcb33f390006b4" target="_top" xlink:title=" ">
<polygon fill="none" stroke="black" points="618.5,-76.5 618.5,-95.5 695.5,-95.5 695.5,-76.5 618.5,-76.5"/>
<text text-anchor="middle" x="657" y="-83.5" font-family="Helvetica,sans-Serif" font-size="10.00">JS_DupValue</text>
</a>
</g>
</g>
<!-- Node30&#45;&gt;Node32 -->
<g id="edge29" class="edge">
<title>Node30&#45;&gt;Node32</title>
<path fill="none" stroke="midnightblue" d="M512.34,-152.43C530.6,-140.13 564.05,-118.74 595,-105 600.01,-102.78 605.35,-100.71 610.72,-98.81"/>
<polygon fill="midnightblue" stroke="midnightblue" points="611.96,-102.09 620.33,-95.59 609.73,-95.45 611.96,-102.09"/>
</g>
<!-- Node35 -->
<g id="node23" class="node">
<title>Node35</title>
<g id="a_node23"><a xlink:href="quickjs_8c.html#a6f921a6312ada5c7da7b485e24d37f54" target="_top" xlink:title=" ">
<polygon fill="none" stroke="red" points="452.5,-228.5 452.5,-247.5 542.5,-247.5 542.5,-228.5 452.5,-228.5"/>
<text text-anchor="middle" x="497.5" y="-235.5" font-family="Helvetica,sans-Serif" font-size="10.00">js_free_shape0</text>
</a>
</g>
</g>
<!-- Node34&#45;&gt;Node35 -->
<g id="edge33" class="edge">
<title>Node34&#45;&gt;Node35</title>
<path fill="none" stroke="midnightblue" d="M373.58,-306.23C382.67,-303.5 391.98,-299.85 400,-295 419.91,-282.97 416.27,-269.33 436,-257 439.37,-254.89 442.99,-253.01 446.73,-251.31"/>
<polygon fill="midnightblue" stroke="midnightblue" points="448.21,-254.49 456.17,-247.5 445.59,-248 448.21,-254.49"/>
</g>
<!-- Node35&#45;&gt;Node5 -->
<g id="edge35" class="edge">
<title>Node35&#45;&gt;Node5</title>
<path fill="none" stroke="midnightblue" d="M538.83,-247.5C545.83,-250.02 552.84,-253.15 559,-257 578.73,-269.33 575.25,-282.7 595,-295 598.35,-297.08 601.94,-298.96 605.65,-300.64"/>
<polygon fill="midnightblue" stroke="midnightblue" points="604.44,-303.92 615.02,-304.42 607.06,-297.43 604.44,-303.92"/>
</g>
<!-- Node35&#45;&gt;Node10 -->
<g id="edge36" class="edge">
<title>Node35&#45;&gt;Node10</title>
<path fill="none" stroke="midnightblue" d="M542.76,-247.12C548.64,-249.65 554.27,-252.88 559,-257 587.19,-281.54 566.78,-308.49 595,-333 596.94,-334.69 599.03,-336.22 601.23,-337.62"/>
<polygon fill="midnightblue" stroke="midnightblue" points="599.66,-340.76 610.13,-342.38 602.96,-334.58 599.66,-340.76"/>
</g>
<!-- Node35&#45;&gt;Node13 -->
<g id="edge34" class="edge">
<title>Node35&#45;&gt;Node13</title>
<path fill="none" stroke="midnightblue" d="M538.24,-247.59C559.03,-252.6 584.66,-258.79 606.7,-264.11"/>
<polygon fill="midnightblue" stroke="midnightblue" points="606,-267.54 616.54,-266.48 607.64,-260.73 606,-267.54"/>
</g>
<!-- Node61&#45;&gt;Node5 -->
<g id="edge39" class="edge">
<title>Node61&#45;&gt;Node5</title>
<path fill="none" stroke="midnightblue" d="M546.29,-494.41C551.02,-491.95 555.4,-488.87 559,-485 606.3,-434.18 547.64,-383.76 595,-333 596.82,-331.05 598.84,-329.3 601,-327.72"/>
<polygon fill="midnightblue" stroke="midnightblue" points="603.07,-330.57 609.93,-322.5 599.53,-324.52 603.07,-330.57"/>
</g>
<!-- Node61&#45;&gt;Node11 -->
<g id="edge40" class="edge">
<title>Node61&#45;&gt;Node11</title>
<path fill="none" stroke="midnightblue" d="M532.45,-494.42C541.2,-491.65 550.54,-488.44 559,-485 632.83,-454.96 652.75,-448.32 719,-404 743.34,-387.71 768.45,-365.13 784.47,-349.83"/>
<polygon fill="midnightblue" stroke="midnightblue" points="787.22,-352.04 791.97,-342.57 782.35,-347.01 787.22,-352.04"/>
</g>
</g>
</svg>
