<?xml version="1.0" encoding="UTF-8" standalone="no"?>
<!DOCTYPE svg PUBLIC "-//W3C//DTD SVG 1.1//EN"
 "http://www.w3.org/Graphics/SVG/1.1/DTD/svg11.dtd">
<!-- Generated by graphviz version 2.43.0 (0)
 -->
<!-- Title: js_dataview_getValue Pages: 1 -->
<svg width="595pt" height="453pt"
 viewBox="0.00 0.00 595.00 452.99" xmlns="http://www.w3.org/2000/svg" xmlns:xlink="http://www.w3.org/1999/xlink">
<g id="graph0" class="graph" transform="scale(1 1) rotate(0) translate(4 448.99)">
<title>js_dataview_getValue</title>
<!-- Node1 -->
<g id="node1" class="node">
<title>Node1</title>
<g id="a_node1"><a xlink:title=" ">
<polygon fill="#bfbfbf" stroke="black" points="0,-221.5 0,-240.5 123,-240.5 123,-221.5 0,-221.5"/>
<text text-anchor="middle" x="61.5" y="-228.5" font-family="Helvetica,sans-Serif" font-size="10.00">js_dataview_getValue</text>
</a>
</g>
</g>
<!-- Node2 -->
<g id="node2" class="node">
<title>Node2</title>
<g id="a_node2"><a xlink:href="quickjs_8h.html#a9bf98b18de88b4199910a43e933eb97d" target="_top" xlink:title=" ">
<polygon fill="none" stroke="black" points="348,-316.5 348,-335.5 448,-335.5 448,-316.5 348,-316.5"/>
<text text-anchor="middle" x="398" y="-323.5" font-family="Helvetica,sans-Serif" font-size="10.00">__JS_NewFloat64</text>
</a>
</g>
</g>
<!-- Node1&#45;&gt;Node2 -->
<g id="edge1" class="edge">
<title>Node1&#45;&gt;Node2</title>
<path fill="none" stroke="midnightblue" d="M63.92,-240.86C69.22,-273.66 91.21,-379.39 159,-421 216.96,-456.57 249.92,-448.76 312,-421 347,-405.35 373.56,-367.37 387.07,-344.46"/>
<polygon fill="midnightblue" stroke="midnightblue" points="390.17,-346.09 392.05,-335.67 384.07,-342.64 390.17,-346.09"/>
</g>
<!-- Node3 -->
<g id="node3" class="node">
<title>Node3</title>
<g id="a_node3"><a xlink:href="cutils_8h.html#a86b872249d4bcf1f6b08c4af388f1d3c" target="_top" xlink:title=" ">
<polygon fill="none" stroke="black" points="205.5,-392.5 205.5,-411.5 265.5,-411.5 265.5,-392.5 205.5,-392.5"/>
<text text-anchor="middle" x="235.5" y="-399.5" font-family="Helvetica,sans-Serif" font-size="10.00">bswap16</text>
</a>
</g>
</g>
<!-- Node1&#45;&gt;Node3 -->
<g id="edge2" class="edge">
<title>Node1&#45;&gt;Node3</title>
<path fill="none" stroke="midnightblue" d="M65.71,-240.62C75.24,-267.64 106.05,-344.73 159,-383 169.53,-390.61 182.79,-395.18 195.25,-397.93"/>
<polygon fill="midnightblue" stroke="midnightblue" points="194.98,-401.44 205.45,-399.83 196.26,-394.56 194.98,-401.44"/>
</g>
<!-- Node4 -->
<g id="node4" class="node">
<title>Node4</title>
<g id="a_node4"><a xlink:href="cutils_8h.html#acc2d0d790271933eb5f1b1b70edb98ba" target="_top" xlink:title=" ">
<polygon fill="none" stroke="black" points="205.5,-354.5 205.5,-373.5 265.5,-373.5 265.5,-354.5 205.5,-354.5"/>
<text text-anchor="middle" x="235.5" y="-361.5" font-family="Helvetica,sans-Serif" font-size="10.00">bswap32</text>
</a>
</g>
</g>
<!-- Node1&#45;&gt;Node4 -->
<g id="edge3" class="edge">
<title>Node1&#45;&gt;Node4</title>
<path fill="none" stroke="midnightblue" d="M67.82,-240.71C80.51,-262.87 114.77,-317.43 159,-345 169.84,-351.76 182.97,-356.12 195.22,-358.93"/>
<polygon fill="midnightblue" stroke="midnightblue" points="194.74,-362.4 205.24,-360.94 196.12,-355.54 194.74,-362.4"/>
</g>
<!-- Node5 -->
<g id="node5" class="node">
<title>Node5</title>
<g id="a_node5"><a xlink:href="cutils_8h.html#a099a2e37a35e9b2fe832c74cdeadfe2c" target="_top" xlink:title=" ">
<polygon fill="none" stroke="black" points="205.5,-316.5 205.5,-335.5 265.5,-335.5 265.5,-316.5 205.5,-316.5"/>
<text text-anchor="middle" x="235.5" y="-323.5" font-family="Helvetica,sans-Serif" font-size="10.00">bswap64</text>
</a>
</g>
</g>
<!-- Node1&#45;&gt;Node5 -->
<g id="edge4" class="edge">
<title>Node1&#45;&gt;Node5</title>
<path fill="none" stroke="midnightblue" d="M71.95,-240.75C88.22,-256.97 123.21,-289.41 159,-307 170.28,-312.54 183.32,-316.57 195.36,-319.44"/>
<polygon fill="midnightblue" stroke="midnightblue" points="194.66,-322.87 205.18,-321.6 196.16,-316.03 194.66,-322.87"/>
</g>
<!-- Node6 -->
<g id="node6" class="node">
<title>Node6</title>
<g id="a_node6"><a xlink:href="cutils_8h.html#ad587834d17e95461893d59661e5e9676" target="_top" xlink:title=" ">
<polygon fill="none" stroke="black" points="207.5,-278.5 207.5,-297.5 263.5,-297.5 263.5,-278.5 207.5,-278.5"/>
<text text-anchor="middle" x="235.5" y="-285.5" font-family="Helvetica,sans-Serif" font-size="10.00">get_u16</text>
</a>
</g>
</g>
<!-- Node1&#45;&gt;Node6 -->
<g id="edge5" class="edge">
<title>Node1&#45;&gt;Node6</title>
<path fill="none" stroke="midnightblue" d="M84.44,-240.57C103.81,-248.8 132.94,-260.63 159,-269 171.37,-272.97 185.09,-276.64 197.4,-279.67"/>
<polygon fill="midnightblue" stroke="midnightblue" points="196.82,-283.13 207.36,-282.06 198.45,-276.32 196.82,-283.13"/>
</g>
<!-- Node7 -->
<g id="node7" class="node">
<title>Node7</title>
<g id="a_node7"><a xlink:href="cutils_8h.html#a941262a5f72fda2ec43ae7911e97a0dc" target="_top" xlink:title=" ">
<polygon fill="none" stroke="black" points="207.5,-240.5 207.5,-259.5 263.5,-259.5 263.5,-240.5 207.5,-240.5"/>
<text text-anchor="middle" x="235.5" y="-247.5" font-family="Helvetica,sans-Serif" font-size="10.00">get_u32</text>
</a>
</g>
</g>
<!-- Node1&#45;&gt;Node7 -->
<g id="edge6" class="edge">
<title>Node1&#45;&gt;Node7</title>
<path fill="none" stroke="midnightblue" d="M123.14,-237.7C147.74,-240.42 175.39,-243.47 196.98,-245.86"/>
<polygon fill="midnightblue" stroke="midnightblue" points="196.73,-249.35 207.05,-246.97 197.49,-242.39 196.73,-249.35"/>
</g>
<!-- Node8 -->
<g id="node8" class="node">
<title>Node8</title>
<g id="a_node8"><a xlink:href="cutils_8h.html#abd459f86984783206f7317582511f8db" target="_top" xlink:title=" ">
<polygon fill="none" stroke="black" points="207.5,-202.5 207.5,-221.5 263.5,-221.5 263.5,-202.5 207.5,-202.5"/>
<text text-anchor="middle" x="235.5" y="-209.5" font-family="Helvetica,sans-Serif" font-size="10.00">get_u64</text>
</a>
</g>
</g>
<!-- Node1&#45;&gt;Node8 -->
<g id="edge7" class="edge">
<title>Node1&#45;&gt;Node8</title>
<path fill="none" stroke="midnightblue" d="M123.14,-224.3C147.74,-221.58 175.39,-218.53 196.98,-216.14"/>
<polygon fill="midnightblue" stroke="midnightblue" points="197.49,-219.61 207.05,-215.03 196.73,-212.65 197.49,-219.61"/>
</g>
<!-- Node9 -->
<g id="node9" class="node">
<title>Node9</title>
<g id="a_node9"><a xlink:href="quickjs_8h.html#a2050bc428da1c65ac7eb87c3fa3b0392" target="_top" xlink:title=" ">
<polygon fill="none" stroke="black" points="359.5,-145.5 359.5,-164.5 436.5,-164.5 436.5,-145.5 359.5,-145.5"/>
<text text-anchor="middle" x="398" y="-152.5" font-family="Helvetica,sans-Serif" font-size="10.00">JS_NewInt32</text>
</a>
</g>
</g>
<!-- Node1&#45;&gt;Node9 -->
<g id="edge8" class="edge">
<title>Node1&#45;&gt;Node9</title>
<path fill="none" stroke="midnightblue" d="M70.56,-221.37C85.74,-204.08 120.51,-168.34 159,-155 222.06,-133.15 300.28,-138.87 349.44,-146.07"/>
<polygon fill="midnightblue" stroke="midnightblue" points="349.05,-149.55 359.47,-147.62 350.12,-142.63 349.05,-149.55"/>
</g>
<!-- Node10 -->
<g id="node10" class="node">
<title>Node10</title>
<g id="a_node10"><a xlink:href="quickjs_8h.html#a88259aa0da61ac754402c64ccecee116" target="_top" xlink:title=" ">
<polygon fill="none" stroke="black" points="193,-164.5 193,-183.5 278,-183.5 278,-164.5 193,-164.5"/>
<text text-anchor="middle" x="235.5" y="-171.5" font-family="Helvetica,sans-Serif" font-size="10.00">JS_NewUint32</text>
</a>
</g>
</g>
<!-- Node1&#45;&gt;Node10 -->
<g id="edge9" class="edge">
<title>Node1&#45;&gt;Node10</title>
<path fill="none" stroke="midnightblue" d="M84.44,-221.43C103.81,-213.2 132.94,-201.37 159,-193 166.68,-190.53 174.89,-188.18 182.96,-186.03"/>
<polygon fill="midnightblue" stroke="midnightblue" points="183.89,-189.4 192.69,-183.5 182.13,-182.63 183.89,-189.4"/>
</g>
<!-- Node11 -->
<g id="node11" class="node">
<title>Node11</title>
<g id="a_node11"><a xlink:href="quickjs_8c.html#a033dd3ebd29c4eb9f0baff1dd0fec0b1" target="_top" xlink:title=" ">
<polygon fill="none" stroke="black" points="159,-77 159,-107 312,-107 312,-77 159,-77"/>
<text text-anchor="start" x="167" y="-95" font-family="Helvetica,sans-Serif" font-size="10.00">JS_ThrowTypeErrorDetached</text>
<text text-anchor="middle" x="235.5" y="-84" font-family="Helvetica,sans-Serif" font-size="10.00">ArrayBuffer</text>
</a>
</g>
</g>
<!-- Node1&#45;&gt;Node11 -->
<g id="edge12" class="edge">
<title>Node1&#45;&gt;Node11</title>
<path fill="none" stroke="midnightblue" d="M68.6,-221.49C82.36,-200.74 117.84,-150.9 159,-122 164.66,-118.02 170.92,-114.47 177.35,-111.32"/>
<polygon fill="midnightblue" stroke="midnightblue" points="179.19,-114.33 186.83,-107 176.28,-107.97 179.19,-114.33"/>
</g>
<!-- Node12 -->
<g id="node12" class="node">
<title>Node12</title>
<g id="a_node12"><a xlink:href="quickjs_8c.html#a525bb5bdbab2566313d9bcd876838d9d" target="_top" xlink:title=" ">
<polygon fill="none" stroke="black" points="204,-38.5 204,-57.5 267,-57.5 267,-38.5 204,-38.5"/>
<text text-anchor="middle" x="235.5" y="-45.5" font-family="Helvetica,sans-Serif" font-size="10.00">JS_ToBool</text>
</a>
</g>
</g>
<!-- Node1&#45;&gt;Node12 -->
<g id="edge13" class="edge">
<title>Node1&#45;&gt;Node12</title>
<path fill="none" stroke="midnightblue" d="M65.39,-221.14C74.27,-192.66 103.92,-109.66 159,-68 169.05,-60.39 181.76,-55.68 193.87,-52.75"/>
<polygon fill="midnightblue" stroke="midnightblue" points="194.75,-56.14 203.83,-50.69 193.33,-49.29 194.75,-56.14"/>
</g>
<!-- Node52 -->
<g id="node16" class="node">
<title>Node52</title>
<g id="a_node16"><a xlink:href="quickjs_8c.html#ad52f50dfe0e0e4aeae7003b97c4c0765" target="_top" xlink:title=" ">
<polygon fill="none" stroke="black" points="201.5,-0.5 201.5,-19.5 269.5,-19.5 269.5,-0.5 201.5,-0.5"/>
<text text-anchor="middle" x="235.5" y="-7.5" font-family="Helvetica,sans-Serif" font-size="10.00">JS_ToIndex</text>
</a>
</g>
</g>
<!-- Node1&#45;&gt;Node52 -->
<g id="edge17" class="edge">
<title>Node1&#45;&gt;Node52</title>
<path fill="none" stroke="midnightblue" d="M64.16,-221.19C70.22,-188.43 94.33,-81.92 159,-29 168.14,-21.52 179.84,-16.93 191.29,-14.13"/>
<polygon fill="midnightblue" stroke="midnightblue" points="192.11,-17.54 201.21,-12.11 190.71,-10.68 192.11,-17.54"/>
</g>
<!-- Node10&#45;&gt;Node2 -->
<g id="edge10" class="edge">
<title>Node10&#45;&gt;Node2</title>
<path fill="none" stroke="midnightblue" d="M278.12,-178.64C289.87,-181.43 302.13,-185.89 312,-193 352.59,-222.25 378.52,-277.43 390.05,-306.67"/>
<polygon fill="midnightblue" stroke="midnightblue" points="386.84,-308.06 393.65,-316.18 393.38,-305.59 386.84,-308.06"/>
</g>
<!-- Node10&#45;&gt;Node9 -->
<g id="edge11" class="edge">
<title>Node10&#45;&gt;Node9</title>
<path fill="none" stroke="midnightblue" d="M278.25,-169.06C300,-166.48 326.69,-163.32 349.25,-160.65"/>
<polygon fill="midnightblue" stroke="midnightblue" points="349.78,-164.11 359.3,-159.46 348.96,-157.16 349.78,-164.11"/>
</g>
<!-- Node13 -->
<g id="node13" class="node">
<title>Node13</title>
<g id="a_node13"><a xlink:href="quickjs_8h.html#a775522f2d084fc8fa0fcb33f390006b4" target="_top" xlink:title=" ">
<polygon fill="none" stroke="black" points="497,-38.5 497,-57.5 574,-57.5 574,-38.5 497,-38.5"/>
<text text-anchor="middle" x="535.5" y="-45.5" font-family="Helvetica,sans-Serif" font-size="10.00">JS_DupValue</text>
</a>
</g>
</g>
<!-- Node12&#45;&gt;Node13 -->
<g id="edge14" class="edge">
<title>Node12&#45;&gt;Node13</title>
<path fill="none" stroke="midnightblue" d="M267.27,-48C319.28,-48 424.94,-48 486.68,-48"/>
<polygon fill="midnightblue" stroke="midnightblue" points="486.93,-51.5 496.93,-48 486.93,-44.5 486.93,-51.5"/>
</g>
<!-- Node14 -->
<g id="node14" class="node">
<title>Node14</title>
<g id="a_node14"><a xlink:href="quickjs_8c.html#a2bf30c9cddfe98a32535843202495069" target="_top" xlink:title=" ">
<polygon fill="none" stroke="black" points="356,-76.5 356,-95.5 440,-95.5 440,-76.5 356,-76.5"/>
<text text-anchor="middle" x="398" y="-83.5" font-family="Helvetica,sans-Serif" font-size="10.00">JS_ToBoolFree</text>
</a>
</g>
</g>
<!-- Node12&#45;&gt;Node14 -->
<g id="edge15" class="edge">
<title>Node12&#45;&gt;Node14</title>
<path fill="none" stroke="midnightblue" d="M267.07,-55.24C289.65,-60.58 320.88,-67.98 347.07,-74.18"/>
<polygon fill="midnightblue" stroke="midnightblue" points="346.29,-77.59 356.83,-76.49 347.9,-70.78 346.29,-77.59"/>
</g>
<!-- Node15 -->
<g id="node15" class="node">
<title>Node15</title>
<g id="a_node15"><a xlink:href="quickjs_8h.html#afaa20c47565bc704c6c85f3d77254e7d" target="_top" xlink:title=" ">
<polygon fill="none" stroke="red" points="496,-76.5 496,-95.5 575,-95.5 575,-76.5 496,-76.5"/>
<text text-anchor="middle" x="535.5" y="-83.5" font-family="Helvetica,sans-Serif" font-size="10.00">JS_FreeValue</text>
</a>
</g>
</g>
<!-- Node14&#45;&gt;Node15 -->
<g id="edge16" class="edge">
<title>Node14&#45;&gt;Node15</title>
<path fill="none" stroke="midnightblue" d="M440.02,-86C454.45,-86 470.81,-86 485.81,-86"/>
<polygon fill="midnightblue" stroke="midnightblue" points="485.93,-89.5 495.93,-86 485.93,-82.5 485.93,-89.5"/>
</g>
<!-- Node53 -->
<g id="node17" class="node">
<title>Node53</title>
<g id="a_node17"><a xlink:href="quickjs_8c.html#aee6a60a9e9f3c0d9827d5cb0e15c23b4" target="_top" xlink:title=" ">
<polygon fill="none" stroke="black" points="357,-0.5 357,-19.5 439,-19.5 439,-0.5 357,-0.5"/>
<text text-anchor="middle" x="398" y="-7.5" font-family="Helvetica,sans-Serif" font-size="10.00">JS_ToInt64Sat</text>
</a>
</g>
</g>
<!-- Node52&#45;&gt;Node53 -->
<g id="edge18" class="edge">
<title>Node52&#45;&gt;Node53</title>
<path fill="none" stroke="midnightblue" d="M269.76,-10C292.03,-10 321.76,-10 346.88,-10"/>
<polygon fill="midnightblue" stroke="midnightblue" points="346.97,-13.5 356.97,-10 346.97,-6.5 346.97,-13.5"/>
</g>
<!-- Node53&#45;&gt;Node13 -->
<g id="edge19" class="edge">
<title>Node53&#45;&gt;Node13</title>
<path fill="none" stroke="midnightblue" d="M433.19,-19.59C450.6,-24.47 471.97,-30.46 490.59,-35.68"/>
<polygon fill="midnightblue" stroke="midnightblue" points="489.74,-39.08 500.32,-38.41 491.64,-32.34 489.74,-39.08"/>
</g>
<!-- Node54 -->
<g id="node18" class="node">
<title>Node54</title>
<g id="a_node18"><a xlink:href="quickjs_8c.html#a8c94da482e7e46bf333be67ff97e58c1" target="_top" xlink:title=" ">
<polygon fill="none" stroke="red" points="484,-0.5 484,-19.5 587,-19.5 587,-0.5 484,-0.5"/>
<text text-anchor="middle" x="535.5" y="-7.5" font-family="Helvetica,sans-Serif" font-size="10.00">JS_ToInt64SatFree</text>
</a>
</g>
</g>
<!-- Node53&#45;&gt;Node54 -->
<g id="edge20" class="edge">
<title>Node53&#45;&gt;Node54</title>
<path fill="none" stroke="midnightblue" d="M439.29,-10C450.03,-10 461.88,-10 473.46,-10"/>
<polygon fill="midnightblue" stroke="midnightblue" points="473.54,-13.5 483.54,-10 473.54,-6.5 473.54,-13.5"/>
</g>
</g>
</svg>
