<?xml version="1.0" encoding="UTF-8" standalone="no"?>
<!DOCTYPE svg PUBLIC "-//W3C//DTD SVG 1.1//EN"
 "http://www.w3.org/Graphics/SVG/1.1/DTD/svg11.dtd">
<!-- Generated by graphviz version 2.43.0 (0)
 -->
<!-- Title: close_var_refs Pages: 1 -->
<svg width="433pt" height="66pt"
 viewBox="0.00 0.00 433.00 66.00" xmlns="http://www.w3.org/2000/svg" xmlns:xlink="http://www.w3.org/1999/xlink">
<g id="graph0" class="graph" transform="scale(1 1) rotate(0) translate(4 62)">
<title>close_var_refs</title>
<!-- Node1 -->
<g id="node1" class="node">
<title>Node1</title>
<g id="a_node1"><a xlink:title=" ">
<polygon fill="#bfbfbf" stroke="black" points="0,-19.5 0,-38.5 87,-38.5 87,-19.5 0,-19.5"/>
<text text-anchor="middle" x="43.5" y="-26.5" font-family="Helvetica,sans-Serif" font-size="10.00">close_var_refs</text>
</a>
</g>
</g>
<!-- Node2 -->
<g id="node2" class="node">
<title>Node2</title>
<g id="a_node2"><a xlink:href="quickjs_8c.html#a9780456a71703c53244b88831bc8fb7a" target="_top" xlink:title=" ">
<polygon fill="none" stroke="black" points="124.5,-38.5 124.5,-57.5 210.5,-57.5 210.5,-38.5 124.5,-38.5"/>
<text text-anchor="middle" x="167.5" y="-45.5" font-family="Helvetica,sans-Serif" font-size="10.00">add_gc_object</text>
</a>
</g>
</g>
<!-- Node1&#45;&gt;Node2 -->
<g id="edge1" class="edge">
<title>Node1&#45;&gt;Node2</title>
<path fill="none" stroke="midnightblue" d="M87.17,-35.65C95.96,-37.01 105.3,-38.47 114.38,-39.88"/>
<polygon fill="midnightblue" stroke="midnightblue" points="114.05,-43.37 124.47,-41.45 115.13,-36.46 114.05,-43.37"/>
</g>
<!-- Node5 -->
<g id="node5" class="node">
<title>Node5</title>
<g id="a_node5"><a xlink:href="quickjs_8h.html#a43f4842ac4151b79ccd82e23216e87ad" target="_top" xlink:title=" ">
<polygon fill="none" stroke="black" points="123,-0.5 123,-19.5 212,-19.5 212,-0.5 123,-0.5"/>
<text text-anchor="middle" x="167.5" y="-7.5" font-family="Helvetica,sans-Serif" font-size="10.00">JS_DupValueRT</text>
</a>
</g>
</g>
<!-- Node1&#45;&gt;Node5 -->
<g id="edge4" class="edge">
<title>Node1&#45;&gt;Node5</title>
<path fill="none" stroke="midnightblue" d="M87.17,-22.35C95.47,-21.06 104.26,-19.69 112.86,-18.35"/>
<polygon fill="midnightblue" stroke="midnightblue" points="113.48,-21.8 122.82,-16.8 112.4,-14.88 113.48,-21.8"/>
</g>
<!-- Node3 -->
<g id="node3" class="node">
<title>Node3</title>
<g id="a_node3"><a xlink:href="list_8h.html#a3a5d0733570b2fafc18f4c71a2968ea5" target="_top" xlink:title=" ">
<polygon fill="none" stroke="black" points="248,-38.5 248,-57.5 324,-57.5 324,-38.5 248,-38.5"/>
<text text-anchor="middle" x="286" y="-45.5" font-family="Helvetica,sans-Serif" font-size="10.00">list_add_tail</text>
</a>
</g>
</g>
<!-- Node2&#45;&gt;Node3 -->
<g id="edge2" class="edge">
<title>Node2&#45;&gt;Node3</title>
<path fill="none" stroke="midnightblue" d="M210.56,-48C219.27,-48 228.51,-48 237.41,-48"/>
<polygon fill="midnightblue" stroke="midnightblue" points="237.64,-51.5 247.64,-48 237.64,-44.5 237.64,-51.5"/>
</g>
<!-- Node4 -->
<g id="node4" class="node">
<title>Node4</title>
<g id="a_node4"><a xlink:href="list_8h.html#a16286d5bff74a27aec51a3134ffc7b43" target="_top" xlink:title=" ">
<polygon fill="none" stroke="black" points="360,-38.5 360,-57.5 425,-57.5 425,-38.5 360,-38.5"/>
<text text-anchor="middle" x="392.5" y="-45.5" font-family="Helvetica,sans-Serif" font-size="10.00">__list_add</text>
</a>
</g>
</g>
<!-- Node3&#45;&gt;Node4 -->
<g id="edge3" class="edge">
<title>Node3&#45;&gt;Node4</title>
<path fill="none" stroke="midnightblue" d="M324.14,-48C332.39,-48 341.2,-48 349.64,-48"/>
<polygon fill="midnightblue" stroke="midnightblue" points="349.67,-51.5 359.67,-48 349.67,-44.5 349.67,-51.5"/>
</g>
</g>
</svg>
