<?xml version="1.0" encoding="UTF-8" standalone="no"?>
<!DOCTYPE svg PUBLIC "-//W3C//DTD SVG 1.1//EN"
 "http://www.w3.org/Graphics/SVG/1.1/DTD/svg11.dtd">
<!-- Generated by graphviz version 2.43.0 (0)
 -->
<!-- Title: JS_SetPrototypeInternal Pages: 1 -->
<svg width="676pt" height="994pt"
 viewBox="0.00 0.00 676.00 993.50" xmlns="http://www.w3.org/2000/svg" xmlns:xlink="http://www.w3.org/1999/xlink">
<g id="graph0" class="graph" transform="scale(1 1) rotate(0) translate(4 989.5)">
<title>JS_SetPrototypeInternal</title>
<!-- Node1 -->
<g id="node1" class="node">
<title>Node1</title>
<g id="a_node1"><a xlink:title=" ">
<polygon fill="#bfbfbf" stroke="black" points="537,-133.5 537,-152.5 668,-152.5 668,-133.5 537,-133.5"/>
<text text-anchor="middle" x="602.5" y="-140.5" font-family="Helvetica,sans-Serif" font-size="10.00">JS_SetPrototypeInternal</text>
</a>
</g>
</g>
<!-- Node2 -->
<g id="node2" class="node">
<title>Node2</title>
<g id="a_node2"><a xlink:href="quickjs_8c.html#ac2894ff4edcdb4e6841bcce9c76081e3" target="_top" xlink:title=" ">
<polygon fill="none" stroke="black" points="387.5,-392.5 387.5,-411.5 474.5,-411.5 474.5,-392.5 387.5,-392.5"/>
<text text-anchor="middle" x="431" y="-399.5" font-family="Helvetica,sans-Serif" font-size="10.00">JS_CallInternal</text>
</a>
</g>
</g>
<!-- Node1&#45;&gt;Node2 -->
<g id="edge1" class="edge">
<title>Node1&#45;&gt;Node2</title>
<path fill="none" stroke="midnightblue" d="M589.62,-161.15C556.41,-211.9 463.36,-354.08 438.29,-392.39"/>
<polygon fill="midnightblue" stroke="midnightblue" points="592.72,-162.81 595.27,-152.53 586.86,-158.98 592.72,-162.81"/>
</g>
<!-- Node602 -->
<g id="node25" class="node">
<title>Node602</title>
<g id="a_node25"><a xlink:href="quickjs_8c.html#ae8b32777df50bb192c19840adc4d32a1" target="_top" xlink:title=" ">
<polygon fill="none" stroke="black" points="4.5,-199.5 4.5,-218.5 141.5,-218.5 141.5,-199.5 4.5,-199.5"/>
<text text-anchor="middle" x="73" y="-206.5" font-family="Helvetica,sans-Serif" font-size="10.00">js_proxy_setPrototypeOf</text>
</a>
</g>
</g>
<!-- Node1&#45;&gt;Node602 -->
<g id="edge37" class="edge">
<title>Node1&#45;&gt;Node602</title>
<path fill="none" stroke="midnightblue" d="M552.92,-156.15C536.71,-162.01 518.36,-168.24 501,-172 376.3,-199.03 226.73,-202.4 141.78,-204.4"/>
<polygon fill="midnightblue" stroke="midnightblue" points="554.51,-159.29 562.7,-152.56 552.11,-152.72 554.51,-159.29"/>
</g>
<!-- Node349 -->
<g id="node26" class="node">
<title>Node349</title>
<g id="a_node26"><a xlink:href="quickjs_8c.html#a43064473b2e303ee40f4c1c7a87e85da" target="_top" xlink:title=" ">
<polygon fill="none" stroke="red" points="366,-152.5 366,-171.5 496,-171.5 496,-152.5 366,-152.5"/>
<text text-anchor="middle" x="431" y="-159.5" font-family="Helvetica,sans-Serif" font-size="10.00">js_function_constructor</text>
</a>
</g>
</g>
<!-- Node1&#45;&gt;Node349 -->
<g id="edge34" class="edge">
<title>Node1&#45;&gt;Node349</title>
<path fill="none" stroke="midnightblue" d="M526.79,-151.37C516.56,-152.52 506.13,-153.69 496.1,-154.81"/>
<polygon fill="midnightblue" stroke="midnightblue" points="527.39,-154.83 536.94,-150.24 526.61,-147.87 527.39,-154.83"/>
</g>
<!-- Node609 -->
<g id="node27" class="node">
<title>Node609</title>
<g id="a_node27"><a xlink:href="quickjs_8c.html#a30f6da192ec0f9642ef42d3e0d25f8d9" target="_top" xlink:title=" ">
<polygon fill="none" stroke="black" points="365,-114.5 365,-133.5 497,-133.5 497,-114.5 365,-114.5"/>
<text text-anchor="middle" x="431" y="-121.5" font-family="Helvetica,sans-Serif" font-size="10.00">js_object_set___proto__</text>
</a>
</g>
</g>
<!-- Node1&#45;&gt;Node609 -->
<g id="edge35" class="edge">
<title>Node1&#45;&gt;Node609</title>
<path fill="none" stroke="midnightblue" d="M526.77,-134.62C516.92,-133.52 506.9,-132.4 497.23,-131.31"/>
<polygon fill="midnightblue" stroke="midnightblue" points="526.61,-138.13 536.94,-135.76 527.39,-131.17 526.61,-138.13"/>
</g>
<!-- Node610 -->
<g id="node28" class="node">
<title>Node610</title>
<g id="a_node28"><a xlink:href="quickjs_8c.html#a25b4a7ad34d2af9d778c833c0a358d11" target="_top" xlink:title=" ">
<polygon fill="none" stroke="black" points="361.5,-76.5 361.5,-95.5 500.5,-95.5 500.5,-76.5 361.5,-76.5"/>
<text text-anchor="middle" x="431" y="-83.5" font-family="Helvetica,sans-Serif" font-size="10.00">js_object_setPrototypeOf</text>
</a>
</g>
</g>
<!-- Node1&#45;&gt;Node610 -->
<g id="edge36" class="edge">
<title>Node1&#45;&gt;Node610</title>
<path fill="none" stroke="midnightblue" d="M568.81,-129.76C549.29,-122.07 523.91,-112.47 501,-105 490.72,-101.65 479.46,-98.38 469.07,-95.53"/>
<polygon fill="midnightblue" stroke="midnightblue" points="567.58,-133.04 578.16,-133.47 570.16,-126.53 567.58,-133.04"/>
</g>
<!-- Node611 -->
<g id="node29" class="node">
<title>Node611</title>
<g id="a_node29"><a xlink:href="quickjs_8c.html#a30655739588b4dda775e20f87360b7bf" target="_top" xlink:title=" ">
<polygon fill="none" stroke="black" points="361,-38.5 361,-57.5 501,-57.5 501,-38.5 361,-38.5"/>
<text text-anchor="middle" x="431" y="-45.5" font-family="Helvetica,sans-Serif" font-size="10.00">js_reflect_setPrototypeOf</text>
</a>
</g>
</g>
<!-- Node1&#45;&gt;Node611 -->
<g id="edge38" class="edge">
<title>Node1&#45;&gt;Node611</title>
<path fill="none" stroke="midnightblue" d="M583.97,-126.41C564.94,-109.23 532.96,-82.76 501,-67 493.31,-63.21 484.75,-60.08 476.36,-57.53"/>
<polygon fill="midnightblue" stroke="midnightblue" points="581.8,-129.16 591.53,-133.36 586.54,-124.01 581.8,-129.16"/>
</g>
<!-- Node612 -->
<g id="node30" class="node">
<title>Node612</title>
<g id="a_node30"><a xlink:href="quickjs_8c.html#af7e6f1b99757ce3911225ac50ca27b6a" target="_top" xlink:title=" ">
<polygon fill="none" stroke="black" points="384,-0.5 384,-19.5 478,-19.5 478,-0.5 384,-0.5"/>
<text text-anchor="middle" x="431" y="-7.5" font-family="Helvetica,sans-Serif" font-size="10.00">JS_SetPrototype</text>
</a>
</g>
</g>
<!-- Node1&#45;&gt;Node612 -->
<g id="edge39" class="edge">
<title>Node1&#45;&gt;Node612</title>
<path fill="none" stroke="midnightblue" d="M590.35,-124.73C573.94,-99.4 540.88,-53.92 501,-29 494.05,-24.65 486.09,-21.29 478.11,-18.68"/>
<polygon fill="midnightblue" stroke="midnightblue" points="587.51,-126.78 595.8,-133.37 593.43,-123.04 587.51,-126.78"/>
</g>
<!-- Node2&#45;&gt;Node2 -->
<g id="edge33" class="edge">
<title>Node2&#45;&gt;Node2</title>
<path fill="none" stroke="midnightblue" d="M462.81,-420.27C461.9,-425.74 451.3,-430 431,-430 400.79,-430 392.05,-420.57 404.8,-411.76"/>
<polygon fill="midnightblue" stroke="midnightblue" points="465.63,-418.18 457.2,-411.76 459.78,-422.03 465.63,-418.18"/>
</g>
<!-- Node3 -->
<g id="node3" class="node">
<title>Node3</title>
<g id="a_node3"><a xlink:href="quickjs_8c.html#ade71a22dc56e7371392393df663b28b3" target="_top" xlink:title=" ">
<polygon fill="none" stroke="black" points="197,-867.5 197,-886.5 310,-886.5 310,-867.5 197,-867.5"/>
<text text-anchor="middle" x="253.5" y="-874.5" font-family="Helvetica,sans-Serif" font-size="10.00">async_func_resume</text>
</a>
</g>
</g>
<!-- Node2&#45;&gt;Node3 -->
<g id="edge2" class="edge">
<title>Node2&#45;&gt;Node3</title>
<path fill="none" stroke="midnightblue" d="M422.85,-421.34C393.15,-501.75 279.95,-808.13 258.15,-867.13"/>
<polygon fill="midnightblue" stroke="midnightblue" points="426.15,-422.51 426.33,-411.92 419.59,-420.09 426.15,-422.51"/>
</g>
<!-- Node22 -->
<g id="node8" class="node">
<title>Node22</title>
<g id="a_node8"><a xlink:href="quickjs_8c.html#a1a4c02a29525d5cb2085dd8bca3af350" target="_top" xlink:title=" ">
<polygon fill="none" stroke="red" points="228.5,-501.5 228.5,-520.5 278.5,-520.5 278.5,-501.5 228.5,-501.5"/>
<text text-anchor="middle" x="253.5" y="-508.5" font-family="Helvetica,sans-Serif" font-size="10.00">JS_Call</text>
</a>
</g>
</g>
<!-- Node2&#45;&gt;Node22 -->
<g id="edge7" class="edge">
<title>Node2&#45;&gt;Node22</title>
<path fill="none" stroke="midnightblue" d="M398.12,-416.46C357.6,-439.23 289.87,-481.96 264.5,-501.44"/>
<polygon fill="midnightblue" stroke="midnightblue" points="399.99,-419.42 407.06,-411.52 396.61,-413.29 399.99,-419.42"/>
</g>
<!-- Node108 -->
<g id="node23" class="node">
<title>Node108</title>
<g id="a_node23"><a xlink:href="quickjs_8c.html#ad35594576a14c10812efaf958c99af8a" target="_top" xlink:title=" ">
<polygon fill="none" stroke="red" points="182,-392.5 182,-411.5 325,-411.5 325,-392.5 182,-392.5"/>
<text text-anchor="middle" x="253.5" y="-399.5" font-family="Helvetica,sans-Serif" font-size="10.00">JS_CallConstructorInternal</text>
</a>
</g>
</g>
<!-- Node2&#45;&gt;Node108 -->
<g id="edge27" class="edge">
<title>Node2&#45;&gt;Node108</title>
<path fill="none" stroke="midnightblue" d="M376.67,-395.73C360.4,-395.25 342.25,-395.13 325.02,-395.37"/>
<polygon fill="midnightblue" stroke="midnightblue" points="376.95,-399.25 387.07,-396.1 377.2,-392.25 376.95,-399.25"/>
</g>
<!-- Node122 -->
<g id="node24" class="node">
<title>Node122</title>
<g id="a_node24"><a xlink:href="quickjs_8c.html#a75f6ee5e4235a7dc99889f3d2eb2c147" target="_top" xlink:title=" ">
<polygon fill="none" stroke="red" points="218,-316.5 218,-335.5 289,-335.5 289,-316.5 218,-316.5"/>
<text text-anchor="middle" x="253.5" y="-323.5" font-family="Helvetica,sans-Serif" font-size="10.00">JS_CallFree</text>
</a>
</g>
</g>
<!-- Node2&#45;&gt;Node122 -->
<g id="edge29" class="edge">
<title>Node2&#45;&gt;Node122</title>
<path fill="none" stroke="midnightblue" d="M413.21,-386.46C392.74,-372.84 356.93,-354.27 325,-341 313.54,-336.24 300.76,-331.67 289.26,-328.3"/>
<polygon fill="midnightblue" stroke="midnightblue" points="411.29,-389.39 421.47,-392.33 415.35,-383.68 411.29,-389.39"/>
</g>
<!-- Node4 -->
<g id="node4" class="node">
<title>Node4</title>
<g id="a_node4"><a xlink:href="quickjs_8c.html#a1bf6b62983e8fff99c0a5d5a9f486115" target="_top" xlink:title=" ">
<polygon fill="none" stroke="red" points="0,-829.5 0,-848.5 146,-848.5 146,-829.5 0,-829.5"/>
<text text-anchor="middle" x="73" y="-836.5" font-family="Helvetica,sans-Serif" font-size="10.00">js_async_function_resume</text>
</a>
</g>
</g>
<!-- Node3&#45;&gt;Node4 -->
<g id="edge3" class="edge">
<title>Node3&#45;&gt;Node4</title>
<path fill="none" stroke="midnightblue" d="M197.63,-865.32C172.32,-859.93 142.65,-853.61 118.72,-848.52"/>
<polygon fill="midnightblue" stroke="midnightblue" points="196.95,-868.75 207.46,-867.41 198.4,-861.91 196.95,-868.75"/>
</g>
<!-- Node12 -->
<g id="node5" class="node">
<title>Node12</title>
<g id="a_node5"><a xlink:href="quickjs_8c.html#ae19867da709929c072f05e90301835a4" target="_top" xlink:title=" ">
<polygon fill="none" stroke="red" points="17.5,-955 17.5,-985 128.5,-985 128.5,-955 17.5,-955"/>
<text text-anchor="start" x="25.5" y="-973" font-family="Helvetica,sans-Serif" font-size="10.00">js_async_generator</text>
<text text-anchor="middle" x="73" y="-962" font-family="Helvetica,sans-Serif" font-size="10.00">_function_call</text>
</a>
</g>
</g>
<!-- Node3&#45;&gt;Node12 -->
<g id="edge4" class="edge">
<title>Node3&#45;&gt;Node12</title>
<path fill="none" stroke="midnightblue" d="M231.91,-892.6C211.11,-907.8 177.62,-930.79 146,-946 139.23,-949.26 131.91,-952.25 124.61,-954.94"/>
<polygon fill="midnightblue" stroke="midnightblue" points="234.05,-895.37 240.01,-886.61 229.89,-889.74 234.05,-895.37"/>
</g>
<!-- Node13 -->
<g id="node6" class="node">
<title>Node13</title>
<g id="a_node6"><a xlink:href="quickjs_8c.html#a89b019c704a2d2914bc30b30a72040b3" target="_top" xlink:title=" ">
<polygon fill="none" stroke="black" points="17.5,-906 17.5,-936 128.5,-936 128.5,-906 17.5,-906"/>
<text text-anchor="start" x="25.5" y="-924" font-family="Helvetica,sans-Serif" font-size="10.00">js_async_generator</text>
<text text-anchor="middle" x="73" y="-913" font-family="Helvetica,sans-Serif" font-size="10.00">_resume_next</text>
</a>
</g>
</g>
<!-- Node3&#45;&gt;Node13 -->
<g id="edge5" class="edge">
<title>Node3&#45;&gt;Node13</title>
<path fill="none" stroke="midnightblue" d="M203.77,-889.01C180.5,-894.75 152.55,-901.64 128.57,-907.55"/>
<polygon fill="midnightblue" stroke="midnightblue" points="204.9,-892.34 213.77,-886.55 203.22,-885.54 204.9,-892.34"/>
</g>
<!-- Node14 -->
<g id="node7" class="node">
<title>Node14</title>
<g id="a_node7"><a xlink:href="quickjs_8c.html#ac90552b1f1659acb3dae9a4c62479a30" target="_top" xlink:title=" ">
<polygon fill="none" stroke="red" points="0.5,-867.5 0.5,-886.5 145.5,-886.5 145.5,-867.5 0.5,-867.5"/>
<text text-anchor="middle" x="73" y="-874.5" font-family="Helvetica,sans-Serif" font-size="10.00">js_generator_function_call</text>
</a>
</g>
</g>
<!-- Node3&#45;&gt;Node14 -->
<g id="edge6" class="edge">
<title>Node3&#45;&gt;Node14</title>
<path fill="none" stroke="midnightblue" d="M186.89,-877C173.44,-877 159.22,-877 145.58,-877"/>
<polygon fill="midnightblue" stroke="midnightblue" points="187,-880.5 197,-877 187,-873.5 187,-880.5"/>
</g>
<!-- Node22&#45;&gt;Node2 -->
<g id="edge21" class="edge">
<title>Node22&#45;&gt;Node2</title>
<path fill="none" stroke="midnightblue" d="M286.52,-496.47C327.09,-473.66 394.77,-430.95 420.06,-411.51"/>
<polygon fill="midnightblue" stroke="midnightblue" points="284.63,-493.51 277.57,-501.41 288.01,-499.64 284.63,-493.51"/>
</g>
<!-- Node22&#45;&gt;Node4 -->
<g id="edge17" class="edge">
<title>Node22&#45;&gt;Node4</title>
<path fill="none" stroke="midnightblue" d="M251.82,-530.53C248.84,-584.92 232.76,-739.43 146,-820 141.83,-823.87 136.97,-826.97 131.78,-829.45"/>
<polygon fill="midnightblue" stroke="midnightblue" points="255.32,-530.65 252.28,-520.5 248.33,-530.33 255.32,-530.65"/>
</g>
<!-- Node23 -->
<g id="node9" class="node">
<title>Node23</title>
<g id="a_node9"><a xlink:href="quickjs-libc_8c.html#abb1cbe3fdf905e81f603a3a0bfce475a" target="_top" xlink:title=" ">
<polygon fill="none" stroke="black" points="35,-791.5 35,-810.5 111,-810.5 111,-791.5 35,-791.5"/>
<text text-anchor="middle" x="73" y="-798.5" font-family="Helvetica,sans-Serif" font-size="10.00">call_handler</text>
</a>
</g>
</g>
<!-- Node22&#45;&gt;Node23 -->
<g id="edge8" class="edge">
<title>Node22&#45;&gt;Node23</title>
<path fill="none" stroke="midnightblue" d="M250.72,-530.76C245.15,-580.74 223.43,-713.1 146,-782 136.44,-790.51 123.5,-795.28 111.24,-797.93"/>
<polygon fill="midnightblue" stroke="midnightblue" points="254.22,-530.95 251.75,-520.65 247.26,-530.24 254.22,-530.95"/>
</g>
<!-- Node24 -->
<g id="node10" class="node">
<title>Node24</title>
<g id="a_node10"><a xlink:href="quickjs-libc_8c.html#a9fa4c190ba56314c7ed9b00bbc7ad0f9" target="_top" xlink:title=" ">
<polygon fill="none" stroke="black" points="4.5,-753.5 4.5,-772.5 141.5,-772.5 141.5,-753.5 4.5,-753.5"/>
<text text-anchor="middle" x="73" y="-760.5" font-family="Helvetica,sans-Serif" font-size="10.00">handle_posted_message</text>
</a>
</g>
</g>
<!-- Node22&#45;&gt;Node24 -->
<g id="edge9" class="edge">
<title>Node22&#45;&gt;Node24</title>
<path fill="none" stroke="midnightblue" d="M249.33,-530.69C241.02,-575.65 214.36,-686.41 146,-744 141.45,-747.83 136.21,-750.9 130.68,-753.35"/>
<polygon fill="midnightblue" stroke="midnightblue" points="252.79,-531.2 251.06,-520.75 245.9,-530 252.79,-531.2"/>
</g>
<!-- Node25 -->
<g id="node11" class="node">
<title>Node25</title>
<g id="a_node11"><a xlink:href="quickjs_8c.html#a624282391413d4c5a030adbd8b77aa80" target="_top" xlink:title=" ">
<polygon fill="none" stroke="red" points="3,-697.5 3,-716.5 143,-716.5 143,-697.5 3,-697.5"/>
<text text-anchor="middle" x="73" y="-704.5" font-family="Helvetica,sans-Serif" font-size="10.00">internalize_json_property</text>
</a>
</g>
</g>
<!-- Node22&#45;&gt;Node25 -->
<g id="edge10" class="edge">
<title>Node22&#45;&gt;Node25</title>
<path fill="none" stroke="midnightblue" d="M246.38,-530.36C233.77,-566.99 201.36,-646.48 146,-688 140.83,-691.88 134.93,-694.97 128.79,-697.43"/>
<polygon fill="midnightblue" stroke="midnightblue" points="249.71,-531.44 249.53,-520.85 243.06,-529.23 249.71,-531.44"/>
</g>
<!-- Node27 -->
<g id="node12" class="node">
<title>Node27</title>
<g id="a_node12"><a xlink:href="quickjs_8c.html#aa0bbf08a7e91459c68a312fba7016c6d" target="_top" xlink:title=" ">
<polygon fill="none" stroke="black" points="28.5,-659.5 28.5,-678.5 117.5,-678.5 117.5,-659.5 28.5,-659.5"/>
<text text-anchor="middle" x="73" y="-666.5" font-family="Helvetica,sans-Serif" font-size="10.00">js_array_every</text>
</a>
</g>
</g>
<!-- Node22&#45;&gt;Node27 -->
<g id="edge12" class="edge">
<title>Node22&#45;&gt;Node27</title>
<path fill="none" stroke="midnightblue" d="M243.29,-529.91C227.61,-560.07 192.83,-618.81 146,-650 137.61,-655.59 127.64,-659.54 117.85,-662.32"/>
<polygon fill="midnightblue" stroke="midnightblue" points="246.48,-531.37 247.86,-520.86 240.23,-528.21 246.48,-531.37"/>
</g>
<!-- Node28 -->
<g id="node13" class="node">
<title>Node28</title>
<g id="a_node13"><a xlink:href="quickjs_8c.html#a9dd41b086da4e13b3487cc9c6e2af2b8" target="_top" xlink:title=" ">
<polygon fill="none" stroke="black" points="33.5,-621.5 33.5,-640.5 112.5,-640.5 112.5,-621.5 33.5,-621.5"/>
<text text-anchor="middle" x="73" y="-628.5" font-family="Helvetica,sans-Serif" font-size="10.00">js_array_find</text>
</a>
</g>
</g>
<!-- Node22&#45;&gt;Node28 -->
<g id="edge13" class="edge">
<title>Node22&#45;&gt;Node28</title>
<path fill="none" stroke="midnightblue" d="M238.86,-528.54C220.29,-551.21 184.88,-590.33 146,-612 135.84,-617.66 123.92,-621.69 112.74,-624.54"/>
<polygon fill="midnightblue" stroke="midnightblue" points="241.6,-530.72 245.12,-520.73 236.14,-526.34 241.6,-530.72"/>
</g>
<!-- Node29 -->
<g id="node14" class="node">
<title>Node29</title>
<g id="a_node14"><a xlink:href="quickjs_8c.html#a5e32da9a43002cb96dcbd62a1a340144" target="_top" xlink:title=" ">
<polygon fill="none" stroke="black" points="31,-583.5 31,-602.5 115,-602.5 115,-583.5 31,-583.5"/>
<text text-anchor="middle" x="73" y="-590.5" font-family="Helvetica,sans-Serif" font-size="10.00">js_array_from</text>
</a>
</g>
</g>
<!-- Node22&#45;&gt;Node29 -->
<g id="edge14" class="edge">
<title>Node22&#45;&gt;Node29</title>
<path fill="none" stroke="midnightblue" d="M230.57,-526.43C209.67,-540.52 176.9,-561.08 146,-574 136.22,-578.09 125.32,-581.51 115.02,-584.27"/>
<polygon fill="midnightblue" stroke="midnightblue" points="232.75,-529.18 239.02,-520.64 228.79,-523.4 232.75,-529.18"/>
</g>
<!-- Node30 -->
<g id="node15" class="node">
<title>Node30</title>
<g id="a_node15"><a xlink:href="quickjs_8c.html#a36c1692489542a86dd79a7d39ab8ff95" target="_top" xlink:title=" ">
<polygon fill="none" stroke="black" points="26,-545.5 26,-564.5 120,-564.5 120,-545.5 26,-545.5"/>
<text text-anchor="middle" x="73" y="-552.5" font-family="Helvetica,sans-Serif" font-size="10.00">js_array_reduce</text>
</a>
</g>
</g>
<!-- Node22&#45;&gt;Node30 -->
<g id="edge15" class="edge">
<title>Node22&#45;&gt;Node30</title>
<path fill="none" stroke="midnightblue" d="M218.37,-519.41C188.18,-526.85 144.17,-537.7 112.69,-545.46"/>
<polygon fill="midnightblue" stroke="midnightblue" points="219.56,-522.73 228.43,-516.93 217.88,-515.93 219.56,-522.73"/>
</g>
<!-- Node31 -->
<g id="node16" class="node">
<title>Node31</title>
<g id="a_node16"><a xlink:href="quickjs_8c.html#aa45afa6d2861615f29444c9614ce766a" target="_top" xlink:title=" ">
<polygon fill="none" stroke="black" points="15.5,-496 15.5,-526 130.5,-526 130.5,-496 15.5,-496"/>
<text text-anchor="start" x="23.5" y="-514" font-family="Helvetica,sans-Serif" font-size="10.00">js_async_from_sync</text>
<text text-anchor="middle" x="73" y="-503" font-family="Helvetica,sans-Serif" font-size="10.00">_iterator_next</text>
</a>
</g>
</g>
<!-- Node22&#45;&gt;Node31 -->
<g id="edge16" class="edge">
<title>Node22&#45;&gt;Node31</title>
<path fill="none" stroke="midnightblue" d="M218.42,-511C193.64,-511 159.52,-511 130.67,-511"/>
<polygon fill="midnightblue" stroke="midnightblue" points="218.43,-514.5 228.43,-511 218.43,-507.5 218.43,-514.5"/>
</g>
<!-- Node32 -->
<g id="node17" class="node">
<title>Node32</title>
<g id="a_node17"><a xlink:href="quickjs_8c.html#a2355fabf91f59212ea65baba1b0b7c1b" target="_top" xlink:title=" ">
<polygon fill="none" stroke="black" points="4,-457.5 4,-476.5 142,-476.5 142,-457.5 4,-457.5"/>
<text text-anchor="middle" x="73" y="-464.5" font-family="Helvetica,sans-Serif" font-size="10.00">js_async_generator_next</text>
</a>
</g>
</g>
<!-- Node22&#45;&gt;Node32 -->
<g id="edge18" class="edge">
<title>Node22&#45;&gt;Node32</title>
<path fill="none" stroke="midnightblue" d="M218.37,-502.59C188.18,-495.15 144.17,-484.3 112.69,-476.54"/>
<polygon fill="midnightblue" stroke="midnightblue" points="217.88,-506.07 228.43,-505.07 219.56,-499.27 217.88,-506.07"/>
</g>
<!-- Node33 -->
<g id="node18" class="node">
<title>Node33</title>
<g id="a_node18"><a xlink:href="quickjs_8c.html#a3e852026d167fa03c673f86697dd3e67" target="_top" xlink:title=" ">
<polygon fill="none" stroke="red" points="17.5,-408 17.5,-438 128.5,-438 128.5,-408 17.5,-408"/>
<text text-anchor="start" x="25.5" y="-426" font-family="Helvetica,sans-Serif" font-size="10.00">js_async_generator</text>
<text text-anchor="middle" x="73" y="-415" font-family="Helvetica,sans-Serif" font-size="10.00">_resolve_or_reject</text>
</a>
</g>
</g>
<!-- Node22&#45;&gt;Node33 -->
<g id="edge19" class="edge">
<title>Node22&#45;&gt;Node33</title>
<path fill="none" stroke="midnightblue" d="M229.98,-495.87C208.9,-482.16 176.22,-462.01 146,-448 138.32,-444.44 129.98,-441.09 121.79,-438.08"/>
<polygon fill="midnightblue" stroke="midnightblue" points="228.25,-498.93 238.53,-501.5 232.09,-493.08 228.25,-498.93"/>
</g>
<!-- Node36 -->
<g id="node19" class="node">
<title>Node36</title>
<g id="a_node19"><a xlink:href="quickjs_8c.html#afd4ef2d701fa0702f321925b61c57bbf" target="_top" xlink:title=" ">
<polygon fill="none" stroke="red" points="9,-369.5 9,-388.5 137,-388.5 137,-369.5 9,-369.5"/>
<text text-anchor="middle" x="73" y="-376.5" font-family="Helvetica,sans-Serif" font-size="10.00">js_call_bound_function</text>
</a>
</g>
</g>
<!-- Node22&#45;&gt;Node36 -->
<g id="edge20" class="edge">
<title>Node22&#45;&gt;Node36</title>
<path fill="none" stroke="midnightblue" d="M240.31,-493.04C222.49,-468.19 186.98,-423.6 146,-399 138.77,-394.66 130.57,-391.23 122.36,-388.54"/>
<polygon fill="midnightblue" stroke="midnightblue" points="237.44,-495.05 246.05,-501.23 243.17,-491.03 237.44,-495.05"/>
</g>
<!-- Node37 -->
<g id="node20" class="node">
<title>Node37</title>
<g id="a_node20"><a xlink:href="quickjs_8c.html#a6357b7fdae71c70c140e78e6c20cb5c2" target="_top" xlink:title=" ">
<polygon fill="none" stroke="red" points="8,-331.5 8,-350.5 138,-350.5 138,-331.5 8,-331.5"/>
<text text-anchor="middle" x="73" y="-338.5" font-family="Helvetica,sans-Serif" font-size="10.00">js_dynamic_import_job</text>
</a>
</g>
</g>
<!-- Node22&#45;&gt;Node37 -->
<g id="edge22" class="edge">
<title>Node22&#45;&gt;Node37</title>
<path fill="none" stroke="midnightblue" d="M237.7,-493.54C222.92,-475.77 199.88,-447.21 182,-421 164.26,-395 171.1,-379 146,-360 140.85,-356.1 134.96,-353 128.82,-350.53"/>
<polygon fill="midnightblue" stroke="midnightblue" points="235.13,-495.92 244.24,-501.33 240.49,-491.42 235.13,-495.92"/>
</g>
<!-- Node39 -->
<g id="node21" class="node">
<title>Node39</title>
<g id="a_node21"><a xlink:href="quickjs_8c.html#ad90c33b4aae1181151bda4a98ac2ef23" target="_top" xlink:title=" ">
<polygon fill="none" stroke="red" points="18,-275.5 18,-294.5 128,-294.5 128,-275.5 18,-275.5"/>
<text text-anchor="middle" x="73" y="-282.5" font-family="Helvetica,sans-Serif" font-size="10.00">JS_FlattenIntoArray</text>
</a>
</g>
</g>
<!-- Node22&#45;&gt;Node39 -->
<g id="edge23" class="edge">
<title>Node22&#45;&gt;Node39</title>
<path fill="none" stroke="midnightblue" d="M236.14,-493.63C220.54,-476.32 197.23,-448.44 182,-421 159.28,-380.06 176.96,-357.12 146,-322 134.85,-309.35 118.33,-300.43 103.93,-294.52"/>
<polygon fill="midnightblue" stroke="midnightblue" points="233.77,-496.22 243.11,-501.22 238.93,-491.49 233.77,-496.22"/>
</g>
<!-- Node41 -->
<g id="node22" class="node">
<title>Node41</title>
<g id="a_node22"><a xlink:href="quickjs_8c.html#a8d4b24969540aff427939eeda47f451d" target="_top" xlink:title=" ">
<polygon fill="none" stroke="red" points="22,-237.5 22,-256.5 124,-256.5 124,-237.5 22,-237.5"/>
<text text-anchor="middle" x="73" y="-244.5" font-family="Helvetica,sans-Serif" font-size="10.00">js_function_apply</text>
</a>
</g>
</g>
<!-- Node22&#45;&gt;Node41 -->
<g id="edge25" class="edge">
<title>Node22&#45;&gt;Node41</title>
<path fill="none" stroke="midnightblue" d="M235.41,-494.01C219.26,-476.98 195.55,-449.31 182,-421 151.47,-357.21 195.26,-316.75 146,-266 140.06,-259.88 132.39,-255.65 124.29,-252.74"/>
<polygon fill="midnightblue" stroke="midnightblue" points="233.17,-496.73 242.65,-501.46 238.19,-491.85 233.17,-496.73"/>
</g>
<!-- Node25&#45;&gt;Node25 -->
<g id="edge11" class="edge">
<title>Node25&#45;&gt;Node25</title>
<path fill="none" stroke="midnightblue" d="M106.73,-724.89C106.24,-730.54 94.99,-735 73,-735 41.01,-735 31.76,-725.57 45.26,-716.76"/>
<polygon fill="midnightblue" stroke="midnightblue" points="109.49,-722.73 100.74,-716.76 103.85,-726.88 109.49,-722.73"/>
</g>
<!-- Node39&#45;&gt;Node39 -->
<g id="edge24" class="edge">
<title>Node39&#45;&gt;Node39</title>
<path fill="none" stroke="midnightblue" d="M106.73,-302.89C106.24,-308.54 94.99,-313 73,-313 41.01,-313 31.76,-303.57 45.26,-294.76"/>
<polygon fill="midnightblue" stroke="midnightblue" points="109.49,-300.73 100.74,-294.76 103.85,-304.88 109.49,-300.73"/>
</g>
<!-- Node41&#45;&gt;Node2 -->
<g id="edge26" class="edge">
<title>Node41&#45;&gt;Node2</title>
<path fill="none" stroke="midnightblue" d="M133.54,-257.98C138.02,-260.19 142.24,-262.83 146,-266 175.5,-290.88 152.11,-320.6 182,-345 197.85,-357.94 320.62,-382 387.28,-394.31"/>
<polygon fill="midnightblue" stroke="midnightblue" points="134.65,-254.65 124.08,-254.03 131.96,-261.11 134.65,-254.65"/>
</g>
<!-- Node108&#45;&gt;Node2 -->
<g id="edge28" class="edge">
<title>Node108&#45;&gt;Node2</title>
<path fill="none" stroke="midnightblue" d="M335.45,-408.73C353.26,-408.83 371.46,-408.55 387.07,-407.9"/>
<polygon fill="midnightblue" stroke="midnightblue" points="335.05,-405.23 325.02,-408.63 334.99,-412.23 335.05,-405.23"/>
</g>
<!-- Node122&#45;&gt;Node2 -->
<g id="edge30" class="edge">
<title>Node122&#45;&gt;Node2</title>
<path fill="none" stroke="midnightblue" d="M275,-339.77C289.21,-345.67 308.48,-352.13 325,-359 349.98,-369.39 377.35,-383.02 397.88,-392.45"/>
<polygon fill="midnightblue" stroke="midnightblue" points="276.21,-336.48 265.66,-335.57 273.34,-342.86 276.21,-336.48"/>
</g>
<!-- Node122&#45;&gt;Node602 -->
<g id="edge31" class="edge">
<title>Node122&#45;&gt;Node602</title>
<path fill="none" stroke="midnightblue" d="M238.21,-308.37C219.37,-286.3 184.13,-248.88 146,-228 138.97,-224.15 131.12,-221.05 123.26,-218.56"/>
<polygon fill="midnightblue" stroke="midnightblue" points="235.71,-310.84 244.81,-316.27 241.08,-306.35 235.71,-310.84"/>
</g>
<!-- Node602&#45;&gt;Node1 -->
<g id="edge32" class="edge">
<title>Node602&#45;&gt;Node1</title>
<path fill="none" stroke="midnightblue" d="M152.03,-217.33C238.38,-220.1 381.17,-215.98 501,-190 536.18,-182.37 575.44,-164.65 592.63,-152.53"/>
<polygon fill="midnightblue" stroke="midnightblue" points="151.9,-213.83 141.78,-216.96 151.65,-220.82 151.9,-213.83"/>
</g>
</g>
</svg>
