<?xml version="1.0" encoding="UTF-8" standalone="no"?>
<!DOCTYPE svg PUBLIC "-//W3C//DTD SVG 1.1//EN"
 "http://www.w3.org/Graphics/SVG/1.1/DTD/svg11.dtd">
<!-- Generated by graphviz version 2.43.0 (0)
 -->
<!-- Title: js_resolve_module Pages: 1 -->
<svg width="604pt" height="142pt"
 viewBox="0.00 0.00 604.00 142.00" xmlns="http://www.w3.org/2000/svg" xmlns:xlink="http://www.w3.org/1999/xlink">
<g id="graph0" class="graph" transform="scale(1 1) rotate(0) translate(4 138)">
<title>js_resolve_module</title>
<!-- Node1 -->
<g id="node1" class="node">
<title>Node1</title>
<g id="a_node1"><a xlink:title=" ">
<polygon fill="#bfbfbf" stroke="black" points="0,-76.5 0,-95.5 108,-95.5 108,-76.5 0,-76.5"/>
<text text-anchor="middle" x="54" y="-83.5" font-family="Helvetica,sans-Serif" font-size="10.00">js_resolve_module</text>
</a>
</g>
</g>
<!-- Node1&#45;&gt;Node1 -->
<g id="edge10" class="edge">
<title>Node1&#45;&gt;Node1</title>
<path fill="none" stroke="midnightblue" d="M29.34,-95.76C17.34,-104.57 25.56,-114 54,-114 73.11,-114 83.09,-109.74 83.94,-104.27"/>
<polygon fill="midnightblue" stroke="midnightblue" points="86.9,-102.41 78.66,-95.76 80.95,-106.1 86.9,-102.41"/>
</g>
<!-- Node2 -->
<g id="node2" class="node">
<title>Node2</title>
<g id="a_node2"><a xlink:href="quickjs_8c.html#a5b9215d5347fb8696212caf3f8ebfad0" target="_top" xlink:title=" ">
<polygon fill="none" stroke="black" points="144,-71 144,-101 286,-101 286,-71 144,-71"/>
<text text-anchor="start" x="152" y="-89" font-family="Helvetica,sans-Serif" font-size="10.00">js_host_resolve_imported</text>
<text text-anchor="middle" x="215" y="-78" font-family="Helvetica,sans-Serif" font-size="10.00">_module_atom</text>
</a>
</g>
</g>
<!-- Node1&#45;&gt;Node2 -->
<g id="edge1" class="edge">
<title>Node1&#45;&gt;Node2</title>
<path fill="none" stroke="midnightblue" d="M108.39,-86C116.56,-86 125.14,-86 133.74,-86"/>
<polygon fill="midnightblue" stroke="midnightblue" points="133.81,-89.5 143.81,-86 133.81,-82.5 133.81,-89.5"/>
</g>
<!-- Node3 -->
<g id="node3" class="node">
<title>Node3</title>
<g id="a_node3"><a xlink:href="quickjs_8c.html#a4b66ebf3abee5d29490343fbe360ec5a" target="_top" xlink:title=" ">
<polygon fill="none" stroke="black" points="341.5,-76.5 341.5,-95.5 444.5,-95.5 444.5,-76.5 341.5,-76.5"/>
<text text-anchor="middle" x="393" y="-83.5" font-family="Helvetica,sans-Serif" font-size="10.00">JS_AtomToCString</text>
</a>
</g>
</g>
<!-- Node2&#45;&gt;Node3 -->
<g id="edge2" class="edge">
<title>Node2&#45;&gt;Node3</title>
<path fill="none" stroke="midnightblue" d="M286.07,-86C300.95,-86 316.56,-86 331.07,-86"/>
<polygon fill="midnightblue" stroke="midnightblue" points="331.42,-89.5 341.42,-86 331.42,-82.5 331.42,-89.5"/>
</g>
<!-- Node125 -->
<g id="node8" class="node">
<title>Node125</title>
<g id="a_node8"><a xlink:href="quickjs_8c.html#ae0bc4f65da64810facb2cb9e476eda2e" target="_top" xlink:title=" ">
<polygon fill="none" stroke="black" points="349.5,-114.5 349.5,-133.5 436.5,-133.5 436.5,-114.5 349.5,-114.5"/>
<text text-anchor="middle" x="393" y="-121.5" font-family="Helvetica,sans-Serif" font-size="10.00">JS_FreeCString</text>
</a>
</g>
</g>
<!-- Node2&#45;&gt;Node125 -->
<g id="edge7" class="edge">
<title>Node2&#45;&gt;Node125</title>
<path fill="none" stroke="midnightblue" d="M285.56,-101.02C303.38,-104.87 322.26,-108.94 339.1,-112.58"/>
<polygon fill="midnightblue" stroke="midnightblue" points="338.77,-116.09 349.28,-114.78 340.25,-109.25 338.77,-116.09"/>
</g>
<!-- Node363 -->
<g id="node9" class="node">
<title>Node363</title>
<g id="a_node9"><a xlink:href="quickjs_8c.html#a90dd988b99a5bc7b2a4aaffd2de405a9" target="_top" xlink:title=" ">
<polygon fill="none" stroke="red" points="322,-27 322,-57 464,-57 464,-27 322,-27"/>
<text text-anchor="start" x="330" y="-45" font-family="Helvetica,sans-Serif" font-size="10.00">js_host_resolve_imported</text>
<text text-anchor="middle" x="393" y="-34" font-family="Helvetica,sans-Serif" font-size="10.00">_module</text>
</a>
</g>
</g>
<!-- Node2&#45;&gt;Node363 -->
<g id="edge9" class="edge">
<title>Node2&#45;&gt;Node363</title>
<path fill="none" stroke="midnightblue" d="M276.08,-70.98C290.86,-67.28 306.82,-63.29 322.03,-59.49"/>
<polygon fill="midnightblue" stroke="midnightblue" points="323.04,-62.85 331.9,-57.03 321.34,-56.06 323.04,-62.85"/>
</g>
<!-- Node4 -->
<g id="node4" class="node">
<title>Node4</title>
<g id="a_node4"><a xlink:href="quickjs_8c.html#a260bfa297ff6cb5bd18e229afaa54663" target="_top" xlink:title=" ">
<polygon fill="none" stroke="red" points="500,-76.5 500,-95.5 596,-95.5 596,-76.5 500,-76.5"/>
<text text-anchor="middle" x="548" y="-83.5" font-family="Helvetica,sans-Serif" font-size="10.00">JS_AtomToString</text>
</a>
</g>
</g>
<!-- Node3&#45;&gt;Node4 -->
<g id="edge3" class="edge">
<title>Node3&#45;&gt;Node4</title>
<path fill="none" stroke="midnightblue" d="M444.52,-86C459.02,-86 474.93,-86 489.8,-86"/>
<polygon fill="midnightblue" stroke="midnightblue" points="489.9,-89.5 499.9,-86 489.9,-82.5 489.9,-89.5"/>
</g>
<!-- Node32 -->
<g id="node5" class="node">
<title>Node32</title>
<g id="a_node5"><a xlink:href="quickjs_8h.html#afaa20c47565bc704c6c85f3d77254e7d" target="_top" xlink:title=" ">
<polygon fill="none" stroke="red" points="508.5,-114.5 508.5,-133.5 587.5,-133.5 587.5,-114.5 508.5,-114.5"/>
<text text-anchor="middle" x="548" y="-121.5" font-family="Helvetica,sans-Serif" font-size="10.00">JS_FreeValue</text>
</a>
</g>
</g>
<!-- Node3&#45;&gt;Node32 -->
<g id="edge4" class="edge">
<title>Node3&#45;&gt;Node32</title>
<path fill="none" stroke="midnightblue" d="M432.61,-95.59C452.71,-100.58 477.48,-106.73 498.82,-112.03"/>
<polygon fill="midnightblue" stroke="midnightblue" points="498.12,-115.47 508.67,-114.48 499.81,-108.67 498.12,-115.47"/>
</g>
<!-- Node68 -->
<g id="node6" class="node">
<title>Node68</title>
<g id="a_node6"><a xlink:href="quickjs_8h.html#ad80a83d73e9b7d872b88fbf2943aebe9" target="_top" xlink:title=" ">
<polygon fill="none" stroke="black" points="504.5,-38.5 504.5,-57.5 591.5,-57.5 591.5,-38.5 504.5,-38.5"/>
<text text-anchor="middle" x="548" y="-45.5" font-family="Helvetica,sans-Serif" font-size="10.00">JS_IsException</text>
</a>
</g>
</g>
<!-- Node3&#45;&gt;Node68 -->
<g id="edge5" class="edge">
<title>Node3&#45;&gt;Node68</title>
<path fill="none" stroke="midnightblue" d="M432.61,-76.41C452.71,-71.42 477.48,-65.27 498.82,-59.97"/>
<polygon fill="midnightblue" stroke="midnightblue" points="499.81,-63.33 508.67,-57.52 498.12,-56.53 499.81,-63.33"/>
</g>
<!-- Node69 -->
<g id="node7" class="node">
<title>Node69</title>
<g id="a_node7"><a xlink:href="quickjs_8h.html#af931f06630ab719b5f82a16eb27effd1" target="_top" xlink:title=" ">
<polygon fill="none" stroke="red" points="509.5,-0.5 509.5,-19.5 586.5,-19.5 586.5,-0.5 509.5,-0.5"/>
<text text-anchor="middle" x="548" y="-7.5" font-family="Helvetica,sans-Serif" font-size="10.00">JS_ToCString</text>
</a>
</g>
</g>
<!-- Node3&#45;&gt;Node69 -->
<g id="edge6" class="edge">
<title>Node3&#45;&gt;Node69</title>
<path fill="none" stroke="midnightblue" d="M442.86,-76.46C450.22,-73.98 457.51,-70.88 464,-67 483.97,-55.06 480.78,-42.1 500,-29 502.69,-27.17 505.59,-25.46 508.57,-23.9"/>
<polygon fill="midnightblue" stroke="midnightblue" points="510.13,-27.03 517.67,-19.59 507.13,-20.7 510.13,-27.03"/>
</g>
<!-- Node125&#45;&gt;Node32 -->
<g id="edge8" class="edge">
<title>Node125&#45;&gt;Node32</title>
<path fill="none" stroke="midnightblue" d="M436.62,-124C455.74,-124 478.41,-124 498.21,-124"/>
<polygon fill="midnightblue" stroke="midnightblue" points="498.27,-127.5 508.27,-124 498.27,-120.5 498.27,-127.5"/>
</g>
</g>
</svg>
