<?xml version="1.0" encoding="UTF-8" standalone="no"?>
<!DOCTYPE svg PUBLIC "-//W3C//DTD SVG 1.1//EN"
 "http://www.w3.org/Graphics/SVG/1.1/DTD/svg11.dtd">
<!-- Generated by graphviz version 2.43.0 (0)
 -->
<!-- Title: get_proxy_method Pages: 1 -->
<svg width="454pt" height="192pt"
 viewBox="0.00 0.00 454.00 191.50" xmlns="http://www.w3.org/2000/svg" xmlns:xlink="http://www.w3.org/1999/xlink">
<g id="graph0" class="graph" transform="scale(1 1) rotate(0) translate(4 187.5)">
<title>get_proxy_method</title>
<!-- Node1 -->
<g id="node1" class="node">
<title>Node1</title>
<g id="a_node1"><a xlink:title=" ">
<polygon fill="#bfbfbf" stroke="black" points="0,-88 0,-107 108,-107 108,-88 0,-88"/>
<text text-anchor="middle" x="54" y="-95" font-family="Helvetica,sans-Serif" font-size="10.00">get_proxy_method</text>
</a>
</g>
</g>
<!-- Node2 -->
<g id="node2" class="node">
<title>Node2</title>
<g id="a_node2"><a xlink:href="quickjs_8c.html#af23ec7c9970ceb4671c59da7abd4b078" target="_top" xlink:title=" ">
<polygon fill="none" stroke="black" points="150,-164 150,-183 287,-183 287,-164 150,-164"/>
<text text-anchor="middle" x="218.5" y="-171" font-family="Helvetica,sans-Serif" font-size="10.00">js_check_stack_overflow</text>
</a>
</g>
</g>
<!-- Node1&#45;&gt;Node2 -->
<g id="edge1" class="edge">
<title>Node1&#45;&gt;Node2</title>
<path fill="none" stroke="midnightblue" d="M67.25,-107.15C83.79,-119.74 114.57,-141.66 144,-154.5 149.49,-156.9 155.36,-159.04 161.28,-160.95"/>
<polygon fill="midnightblue" stroke="midnightblue" points="160.68,-164.42 171.26,-163.94 162.69,-157.71 160.68,-164.42"/>
</g>
<!-- Node4 -->
<g id="node4" class="node">
<title>Node4</title>
<g id="a_node4"><a xlink:href="quickjs_8h.html#ad80a83d73e9b7d872b88fbf2943aebe9" target="_top" xlink:title=" ">
<polygon fill="none" stroke="black" points="175,-126 175,-145 262,-145 262,-126 175,-126"/>
<text text-anchor="middle" x="218.5" y="-133" font-family="Helvetica,sans-Serif" font-size="10.00">JS_IsException</text>
</a>
</g>
</g>
<!-- Node1&#45;&gt;Node4 -->
<g id="edge3" class="edge">
<title>Node1&#45;&gt;Node4</title>
<path fill="none" stroke="midnightblue" d="M96.01,-107.09C117.55,-112.13 144.13,-118.34 166.94,-123.68"/>
<polygon fill="midnightblue" stroke="midnightblue" points="166.25,-127.11 176.79,-125.98 167.85,-120.29 166.25,-127.11"/>
</g>
<!-- Node5 -->
<g id="node5" class="node">
<title>Node5</title>
<g id="a_node5"><a xlink:href="quickjs_8h.html#a149f24b67e745bad93573b3b4c80db4c" target="_top" xlink:title=" ">
<polygon fill="none" stroke="black" points="189,-88 189,-107 248,-107 248,-88 189,-88"/>
<text text-anchor="middle" x="218.5" y="-95" font-family="Helvetica,sans-Serif" font-size="10.00">JS_IsNull</text>
</a>
</g>
</g>
<!-- Node1&#45;&gt;Node5 -->
<g id="edge4" class="edge">
<title>Node1&#45;&gt;Node5</title>
<path fill="none" stroke="midnightblue" d="M108.21,-97.5C131.17,-97.5 157.54,-97.5 178.62,-97.5"/>
<polygon fill="midnightblue" stroke="midnightblue" points="178.82,-101 188.82,-97.5 178.82,-94 178.82,-101"/>
</g>
<!-- Node6 -->
<g id="node6" class="node">
<title>Node6</title>
<g id="a_node6"><a xlink:href="quickjs_8c.html#a8353f635fb8a20553c08db8cf38c17e0" target="_top" xlink:title=" ">
<polygon fill="none" stroke="black" points="153,-50 153,-69 284,-69 284,-50 153,-50"/>
<text text-anchor="middle" x="218.5" y="-57" font-family="Helvetica,sans-Serif" font-size="10.00">JS_ThrowStackOverflow</text>
</a>
</g>
</g>
<!-- Node1&#45;&gt;Node6 -->
<g id="edge5" class="edge">
<title>Node1&#45;&gt;Node6</title>
<path fill="none" stroke="midnightblue" d="M96.01,-87.91C117.55,-82.87 144.13,-76.66 166.94,-71.32"/>
<polygon fill="midnightblue" stroke="midnightblue" points="167.85,-74.71 176.79,-69.02 166.25,-67.89 167.85,-74.71"/>
</g>
<!-- Node8 -->
<g id="node8" class="node">
<title>Node8</title>
<g id="a_node8"><a xlink:href="quickjs_8c.html#a199d64ccbee0a90d93e1ad12745417f6" target="_top" xlink:title=" ">
<polygon fill="none" stroke="black" points="144,-0.5 144,-30.5 293,-30.5 293,-0.5 144,-0.5"/>
<text text-anchor="start" x="152" y="-18.5" font-family="Helvetica,sans-Serif" font-size="10.00">JS_ThrowTypeErrorRevoked</text>
<text text-anchor="middle" x="218.5" y="-7.5" font-family="Helvetica,sans-Serif" font-size="10.00">Proxy</text>
</a>
</g>
</g>
<!-- Node1&#45;&gt;Node8 -->
<g id="edge7" class="edge">
<title>Node1&#45;&gt;Node8</title>
<path fill="none" stroke="midnightblue" d="M67.69,-87.97C84.46,-75.71 115.23,-54.35 144,-40.5 148.59,-38.29 153.42,-36.19 158.33,-34.21"/>
<polygon fill="midnightblue" stroke="midnightblue" points="159.74,-37.42 167.82,-30.57 157.23,-30.89 159.74,-37.42"/>
</g>
<!-- Node3 -->
<g id="node3" class="node">
<title>Node3</title>
<g id="a_node3"><a xlink:href="quickjs_8c.html#acad70023f36797496683e579a4d60461" target="_top" xlink:title=" ">
<polygon fill="none" stroke="black" points="329,-164 329,-183 446,-183 446,-164 329,-164"/>
<text text-anchor="middle" x="387.5" y="-171" font-family="Helvetica,sans-Serif" font-size="10.00">js_get_stack_pointer</text>
</a>
</g>
</g>
<!-- Node2&#45;&gt;Node3 -->
<g id="edge2" class="edge">
<title>Node2&#45;&gt;Node3</title>
<path fill="none" stroke="midnightblue" d="M287.43,-173.5C297.72,-173.5 308.34,-173.5 318.63,-173.5"/>
<polygon fill="midnightblue" stroke="midnightblue" points="318.79,-177 328.79,-173.5 318.79,-170 318.79,-177"/>
</g>
<!-- Node7 -->
<g id="node7" class="node">
<title>Node7</title>
<g id="a_node7"><a xlink:href="quickjs_8c.html#a853f0924d441ea4225488f37c8b69f9a" target="_top" xlink:title=" ">
<polygon fill="none" stroke="black" points="347.5,-50 347.5,-69 427.5,-69 427.5,-50 347.5,-50"/>
<text text-anchor="middle" x="387.5" y="-57" font-family="Helvetica,sans-Serif" font-size="10.00">__attribute__</text>
</a>
</g>
</g>
<!-- Node6&#45;&gt;Node7 -->
<g id="edge6" class="edge">
<title>Node6&#45;&gt;Node7</title>
<path fill="none" stroke="midnightblue" d="M284.07,-59.5C301.7,-59.5 320.52,-59.5 337.16,-59.5"/>
<polygon fill="midnightblue" stroke="midnightblue" points="337.21,-63 347.21,-59.5 337.21,-56 337.21,-63"/>
</g>
</g>
</svg>
