<?xml version="1.0" encoding="UTF-8" standalone="no"?>
<!DOCTYPE svg PUBLIC "-//W3C//DTD SVG 1.1//EN"
 "http://www.w3.org/Graphics/SVG/1.1/DTD/svg11.dtd">
<!-- Generated by graphviz version 2.43.0 (0)
 -->
<!-- Title: js_object_toString Pages: 1 -->
<svg width="884pt" height="581pt"
 viewBox="0.00 0.00 884.00 581.00" xmlns="http://www.w3.org/2000/svg" xmlns:xlink="http://www.w3.org/1999/xlink">
<g id="graph0" class="graph" transform="scale(1 1) rotate(0) translate(4 577)">
<title>js_object_toString</title>
<!-- Node1 -->
<g id="node1" class="node">
<title>Node1</title>
<g id="a_node1"><a xlink:title=" ">
<polygon fill="#bfbfbf" stroke="black" points="0,-209.5 0,-228.5 104,-228.5 104,-209.5 0,-209.5"/>
<text text-anchor="middle" x="52" y="-216.5" font-family="Helvetica,sans-Serif" font-size="10.00">js_object_toString</text>
</a>
</g>
</g>
<!-- Node2 -->
<g id="node2" class="node">
<title>Node2</title>
<g id="a_node2"><a xlink:href="quickjs_8c.html#a260bfa297ff6cb5bd18e229afaa54663" target="_top" xlink:title=" ">
<polygon fill="none" stroke="black" points="453.5,-453.5 453.5,-472.5 549.5,-472.5 549.5,-453.5 453.5,-453.5"/>
<text text-anchor="middle" x="501.5" y="-460.5" font-family="Helvetica,sans-Serif" font-size="10.00">JS_AtomToString</text>
</a>
</g>
</g>
<!-- Node1&#45;&gt;Node2 -->
<g id="edge1" class="edge">
<title>Node1&#45;&gt;Node2</title>
<path fill="none" stroke="midnightblue" d="M56.65,-228.59C66.78,-254.27 97.33,-325.88 140,-373 189.25,-427.38 205.05,-445.86 275,-468 330.65,-485.62 397.95,-481.02 444.46,-474.11"/>
<polygon fill="midnightblue" stroke="midnightblue" points="445.01,-477.57 454.35,-472.56 443.93,-470.65 445.01,-477.57"/>
</g>
<!-- Node7 -->
<g id="node7" class="node">
<title>Node7</title>
<g id="a_node7"><a xlink:href="quickjs_8c.html#a0ee6a3654a6016393fac5e1c108f403a" target="_top" xlink:title=" ">
<polygon fill="none" stroke="red" points="774,-282.5 774,-301.5 855,-301.5 855,-282.5 774,-282.5"/>
<text text-anchor="middle" x="814.5" y="-289.5" font-family="Helvetica,sans-Serif" font-size="10.00">JS_NewString</text>
</a>
</g>
</g>
<!-- Node1&#45;&gt;Node7 -->
<g id="edge31" class="edge">
<title>Node1&#45;&gt;Node7</title>
<path fill="none" stroke="midnightblue" d="M104.22,-223.05C141.75,-225.04 193.81,-225.75 239,-219 255.55,-216.53 258.51,-210.8 275,-208 406.92,-185.63 444.38,-177.9 576,-202 655.44,-216.55 742.77,-256.34 786.05,-277.82"/>
<polygon fill="midnightblue" stroke="midnightblue" points="784.58,-281 795.09,-282.36 787.72,-274.74 784.58,-281"/>
</g>
<!-- Node30 -->
<g id="node8" class="node">
<title>Node30</title>
<g id="a_node8"><a xlink:href="quickjs_8c.html#a964b0ba49f8823d8d8f21c6645a81542" target="_top" xlink:title=" ">
<polygon fill="none" stroke="black" points="140,-344.5 140,-363.5 239,-363.5 239,-344.5 140,-344.5"/>
<text text-anchor="middle" x="189.5" y="-351.5" font-family="Helvetica,sans-Serif" font-size="10.00">JS_ConcatString3</text>
</a>
</g>
</g>
<!-- Node1&#45;&gt;Node30 -->
<g id="edge7" class="edge">
<title>Node1&#45;&gt;Node30</title>
<path fill="none" stroke="midnightblue" d="M61.63,-228.67C76.96,-245.73 110.15,-282.1 140,-311 149.41,-320.11 160.28,-329.82 169.35,-337.71"/>
<polygon fill="midnightblue" stroke="midnightblue" points="167.21,-340.49 177.07,-344.37 171.79,-335.19 167.21,-340.49"/>
</g>
<!-- Node31 -->
<g id="node9" class="node">
<title>Node31</title>
<g id="a_node9"><a xlink:href="quickjs_8h.html#afaa20c47565bc704c6c85f3d77254e7d" target="_top" xlink:title=" ">
<polygon fill="none" stroke="black" points="462,-325.5 462,-344.5 541,-344.5 541,-325.5 462,-325.5"/>
<text text-anchor="middle" x="501.5" y="-332.5" font-family="Helvetica,sans-Serif" font-size="10.00">JS_FreeValue</text>
</a>
</g>
</g>
<!-- Node1&#45;&gt;Node31 -->
<g id="edge21" class="edge">
<title>Node1&#45;&gt;Node31</title>
<path fill="none" stroke="midnightblue" d="M75.6,-228.55C92.99,-235.65 117.74,-245.25 140,-252 249.76,-285.28 381.81,-312.52 451.65,-325.95"/>
<polygon fill="midnightblue" stroke="midnightblue" points="451.42,-329.47 461.9,-327.91 452.73,-322.59 451.42,-329.47"/>
</g>
<!-- Node67 -->
<g id="node11" class="node">
<title>Node67</title>
<g id="a_node11"><a xlink:href="quickjs_8h.html#ad80a83d73e9b7d872b88fbf2943aebe9" target="_top" xlink:title=" ">
<polygon fill="none" stroke="black" points="289.5,-515.5 289.5,-534.5 376.5,-534.5 376.5,-515.5 289.5,-515.5"/>
<text text-anchor="middle" x="333" y="-522.5" font-family="Helvetica,sans-Serif" font-size="10.00">JS_IsException</text>
</a>
</g>
</g>
<!-- Node1&#45;&gt;Node67 -->
<g id="edge26" class="edge">
<title>Node1&#45;&gt;Node67</title>
<path fill="none" stroke="midnightblue" d="M52.58,-228.73C51.43,-269.52 52.86,-427.9 140,-501 178.28,-533.11 236.89,-536.01 279.29,-532.8"/>
<polygon fill="midnightblue" stroke="midnightblue" points="279.77,-536.27 289.42,-531.9 279.15,-529.3 279.77,-536.27"/>
</g>
<!-- Node103 -->
<g id="node19" class="node">
<title>Node103</title>
<g id="a_node19"><a xlink:href="quickjs_8h.html#a89b7c8686c7eee70b86be722ee4730ad" target="_top" xlink:title=" ">
<polygon fill="none" stroke="red" points="145,-190.5 145,-209.5 234,-209.5 234,-190.5 145,-190.5"/>
<text text-anchor="middle" x="189.5" y="-197.5" font-family="Helvetica,sans-Serif" font-size="10.00">JS_GetProperty</text>
</a>
</g>
</g>
<!-- Node1&#45;&gt;Node103 -->
<g id="edge22" class="edge">
<title>Node1&#45;&gt;Node103</title>
<path fill="none" stroke="midnightblue" d="M104.23,-211.82C114.13,-210.43 124.53,-208.97 134.52,-207.57"/>
<polygon fill="midnightblue" stroke="midnightblue" points="135.32,-210.99 144.73,-206.14 134.34,-204.06 135.32,-210.99"/>
</g>
<!-- Node436 -->
<g id="node20" class="node">
<title>Node436</title>
<g id="a_node20"><a xlink:href="quickjs_8c.html#a1fc2c29e89230a9792fd36ae50b270e4" target="_top" xlink:title=" ">
<polygon fill="none" stroke="black" points="157,-152.5 157,-171.5 222,-171.5 222,-152.5 157,-152.5"/>
<text text-anchor="middle" x="189.5" y="-159.5" font-family="Helvetica,sans-Serif" font-size="10.00">JS_IsArray</text>
</a>
</g>
</g>
<!-- Node1&#45;&gt;Node436 -->
<g id="edge23" class="edge">
<title>Node1&#45;&gt;Node436</title>
<path fill="none" stroke="midnightblue" d="M74.35,-209.4C91.91,-201.58 117.46,-190.33 140,-181 144.46,-179.15 149.18,-177.25 153.84,-175.39"/>
<polygon fill="midnightblue" stroke="midnightblue" points="155.24,-178.6 163.25,-171.68 152.67,-172.09 155.24,-178.6"/>
</g>
<!-- Node224 -->
<g id="node23" class="node">
<title>Node224</title>
<g id="a_node23"><a xlink:href="quickjs_8c.html#a1ca9cdb1fa2ffc3e6506e92b200e490f" target="_top" xlink:title=" ">
<polygon fill="none" stroke="black" points="149.5,-114.5 149.5,-133.5 229.5,-133.5 229.5,-114.5 149.5,-114.5"/>
<text text-anchor="middle" x="189.5" y="-121.5" font-family="Helvetica,sans-Serif" font-size="10.00">JS_IsFunction</text>
</a>
</g>
</g>
<!-- Node1&#45;&gt;Node224 -->
<g id="edge27" class="edge">
<title>Node1&#45;&gt;Node224</title>
<path fill="none" stroke="midnightblue" d="M61.81,-209.4C76.64,-193.71 108.11,-162.36 140,-143 143.16,-141.08 146.55,-139.29 150.02,-137.63"/>
<polygon fill="midnightblue" stroke="midnightblue" points="151.51,-140.8 159.25,-133.58 148.69,-134.39 151.51,-140.8"/>
</g>
<!-- Node220 -->
<g id="node24" class="node">
<title>Node220</title>
<g id="a_node24"><a xlink:href="quickjs_8h.html#a149f24b67e745bad93573b3b4c80db4c" target="_top" xlink:title=" ">
<polygon fill="none" stroke="black" points="160,-76.5 160,-95.5 219,-95.5 219,-76.5 160,-76.5"/>
<text text-anchor="middle" x="189.5" y="-83.5" font-family="Helvetica,sans-Serif" font-size="10.00">JS_IsNull</text>
</a>
</g>
</g>
<!-- Node1&#45;&gt;Node220 -->
<g id="edge28" class="edge">
<title>Node1&#45;&gt;Node220</title>
<path fill="none" stroke="midnightblue" d="M57.96,-209.33C69.51,-187.7 100.24,-134.98 140,-105 143.24,-102.56 146.83,-100.39 150.55,-98.47"/>
<polygon fill="midnightblue" stroke="midnightblue" points="152.28,-101.53 159.95,-94.21 149.39,-95.15 152.28,-101.53"/>
</g>
<!-- Node351 -->
<g id="node25" class="node">
<title>Node351</title>
<g id="a_node25"><a xlink:href="quickjs_8h.html#aa53b9197dc6d5770e3a080c1e335f7cb" target="_top" xlink:title=" ">
<polygon fill="none" stroke="black" points="155.5,-38.5 155.5,-57.5 223.5,-57.5 223.5,-38.5 155.5,-38.5"/>
<text text-anchor="middle" x="189.5" y="-45.5" font-family="Helvetica,sans-Serif" font-size="10.00">JS_IsString</text>
</a>
</g>
</g>
<!-- Node1&#45;&gt;Node351 -->
<g id="edge29" class="edge">
<title>Node1&#45;&gt;Node351</title>
<path fill="none" stroke="midnightblue" d="M55.98,-209.33C64.61,-182.84 92.13,-108.33 140,-67 141.98,-65.29 144.12,-63.73 146.38,-62.3"/>
<polygon fill="midnightblue" stroke="midnightblue" points="148.32,-65.23 155.47,-57.42 145.01,-59.06 148.32,-65.23"/>
</g>
<!-- Node129 -->
<g id="node26" class="node">
<title>Node129</title>
<g id="a_node26"><a xlink:href="quickjs_8h.html#a4e407128a9605afb77523e49e9a627fd" target="_top" xlink:title=" ">
<polygon fill="none" stroke="black" points="145,-0.5 145,-19.5 234,-19.5 234,-0.5 145,-0.5"/>
<text text-anchor="middle" x="189.5" y="-7.5" font-family="Helvetica,sans-Serif" font-size="10.00">JS_IsUndefined</text>
</a>
</g>
</g>
<!-- Node1&#45;&gt;Node129 -->
<g id="edge30" class="edge">
<title>Node1&#45;&gt;Node129</title>
<path fill="none" stroke="midnightblue" d="M54.79,-209.21C60.91,-178.37 83.85,-82.09 140,-29 141.66,-27.44 143.45,-25.99 145.35,-24.67"/>
<polygon fill="midnightblue" stroke="midnightblue" points="147.27,-27.6 154.18,-19.56 143.77,-21.54 147.27,-27.6"/>
</g>
<!-- Node278 -->
<g id="node27" class="node">
<title>Node278</title>
<g id="a_node27"><a xlink:href="quickjs_8c.html#a710289a14c2810467e5b448d3c28bd55" target="_top" xlink:title=" ">
<polygon fill="none" stroke="red" points="153,-553.5 153,-572.5 226,-572.5 226,-553.5 153,-553.5"/>
<text text-anchor="middle" x="189.5" y="-560.5" font-family="Helvetica,sans-Serif" font-size="10.00">JS_ToObject</text>
</a>
</g>
</g>
<!-- Node1&#45;&gt;Node278 -->
<g id="edge32" class="edge">
<title>Node1&#45;&gt;Node278</title>
<path fill="none" stroke="midnightblue" d="M52.9,-228.64C52.96,-270.62 58.44,-439.85 140,-539 142.93,-542.57 146.53,-545.65 150.42,-548.3"/>
<polygon fill="midnightblue" stroke="midnightblue" points="148.87,-551.45 159.28,-553.44 152.39,-545.39 148.87,-551.45"/>
</g>
<!-- Node3 -->
<g id="node3" class="node">
<title>Node3</title>
<g id="a_node3"><a xlink:href="quickjs_8c.html#a06ff303a11e6641cbf1f6634e6a61811" target="_top" xlink:title=" ">
<polygon fill="none" stroke="black" points="612,-453.5 612,-472.5 717,-472.5 717,-453.5 612,-453.5"/>
<text text-anchor="middle" x="664.5" y="-460.5" font-family="Helvetica,sans-Serif" font-size="10.00">__JS_AtomToValue</text>
</a>
</g>
</g>
<!-- Node2&#45;&gt;Node3 -->
<g id="edge2" class="edge">
<title>Node2&#45;&gt;Node3</title>
<path fill="none" stroke="midnightblue" d="M549.5,-463C565.87,-463 584.49,-463 601.87,-463"/>
<polygon fill="midnightblue" stroke="midnightblue" points="601.93,-466.5 611.93,-463 601.93,-459.5 601.93,-466.5"/>
</g>
<!-- Node4 -->
<g id="node4" class="node">
<title>Node4</title>
<g id="a_node4"><a xlink:href="quickjs_8c.html#a288254c06a39c9fca740a7abdad2834e" target="_top" xlink:title=" ">
<polygon fill="none" stroke="black" points="753,-434.5 753,-453.5 876,-453.5 876,-434.5 753,-434.5"/>
<text text-anchor="middle" x="814.5" y="-441.5" font-family="Helvetica,sans-Serif" font-size="10.00">__JS_AtomIsTaggedInt</text>
</a>
</g>
</g>
<!-- Node3&#45;&gt;Node4 -->
<g id="edge3" class="edge">
<title>Node3&#45;&gt;Node4</title>
<path fill="none" stroke="midnightblue" d="M717.26,-456.35C725.53,-455.29 734.21,-454.18 742.82,-453.07"/>
<polygon fill="midnightblue" stroke="midnightblue" points="743.41,-456.53 752.88,-451.78 742.52,-449.58 743.41,-456.53"/>
</g>
<!-- Node5 -->
<g id="node5" class="node">
<title>Node5</title>
<g id="a_node5"><a xlink:href="quickjs_8c.html#a89f38938cee8077ce1fbba07946ed185" target="_top" xlink:title=" ">
<polygon fill="none" stroke="black" points="759.5,-472.5 759.5,-491.5 869.5,-491.5 869.5,-472.5 759.5,-472.5"/>
<text text-anchor="middle" x="814.5" y="-479.5" font-family="Helvetica,sans-Serif" font-size="10.00">__JS_AtomToUInt32</text>
</a>
</g>
</g>
<!-- Node3&#45;&gt;Node5 -->
<g id="edge4" class="edge">
<title>Node3&#45;&gt;Node5</title>
<path fill="none" stroke="midnightblue" d="M717.26,-469.65C727.56,-470.97 738.49,-472.37 749.15,-473.74"/>
<polygon fill="midnightblue" stroke="midnightblue" points="748.89,-477.23 759.25,-475.04 749.78,-470.29 748.89,-477.23"/>
</g>
<!-- Node6 -->
<g id="node6" class="node">
<title>Node6</title>
<g id="a_node6"><a xlink:href="quickjs_8h.html#a775522f2d084fc8fa0fcb33f390006b4" target="_top" xlink:title=" ">
<polygon fill="none" stroke="black" points="776,-525.5 776,-544.5 853,-544.5 853,-525.5 776,-525.5"/>
<text text-anchor="middle" x="814.5" y="-532.5" font-family="Helvetica,sans-Serif" font-size="10.00">JS_DupValue</text>
</a>
</g>
</g>
<!-- Node3&#45;&gt;Node6 -->
<g id="edge5" class="edge">
<title>Node3&#45;&gt;Node6</title>
<path fill="none" stroke="midnightblue" d="M685.15,-472.56C710.59,-484.93 755.1,-506.59 784.45,-520.87"/>
<polygon fill="midnightblue" stroke="midnightblue" points="783.24,-524.17 793.77,-525.4 786.3,-517.88 783.24,-524.17"/>
</g>
<!-- Node3&#45;&gt;Node7 -->
<g id="edge6" class="edge">
<title>Node3&#45;&gt;Node7</title>
<path fill="none" stroke="midnightblue" d="M673.88,-453.32C698,-425.45 767.8,-344.8 798.6,-309.22"/>
<polygon fill="midnightblue" stroke="midnightblue" points="801.31,-311.43 805.21,-301.58 796.02,-306.85 801.31,-311.43"/>
</g>
<!-- Node30&#45;&gt;Node31 -->
<g id="edge8" class="edge">
<title>Node30&#45;&gt;Node31</title>
<path fill="none" stroke="midnightblue" d="M239.28,-351.01C297.35,-347.45 393.74,-341.54 451.78,-337.99"/>
<polygon fill="midnightblue" stroke="midnightblue" points="452.03,-341.48 461.8,-337.37 451.61,-334.49 452.03,-341.48"/>
</g>
<!-- Node30&#45;&gt;Node67 -->
<g id="edge10" class="edge">
<title>Node30&#45;&gt;Node67</title>
<path fill="none" stroke="midnightblue" d="M196.85,-363.52C210.35,-383.55 243.3,-431.25 275,-468 287.33,-482.29 302.49,-497.35 314.07,-508.39"/>
<polygon fill="midnightblue" stroke="midnightblue" points="311.77,-511.03 321.44,-515.34 316.57,-505.94 311.77,-511.03"/>
</g>
<!-- Node68 -->
<g id="node12" class="node">
<title>Node68</title>
<g id="a_node12"><a xlink:href="quickjs_8c.html#a38cad713b74c445668210ea8614bfb65" target="_top" xlink:title=" ">
<polygon fill="none" stroke="black" points="287.5,-363.5 287.5,-382.5 378.5,-382.5 378.5,-363.5 287.5,-363.5"/>
<text text-anchor="middle" x="333" y="-370.5" font-family="Helvetica,sans-Serif" font-size="10.00">JS_ToStringFree</text>
</a>
</g>
</g>
<!-- Node30&#45;&gt;Node68 -->
<g id="edge11" class="edge">
<title>Node30&#45;&gt;Node68</title>
<path fill="none" stroke="midnightblue" d="M239.2,-360.54C251.56,-362.2 264.92,-363.99 277.55,-365.69"/>
<polygon fill="midnightblue" stroke="midnightblue" points="277.11,-369.16 287.49,-367.02 278.04,-362.22 277.11,-369.16"/>
</g>
<!-- Node434 -->
<g id="node14" class="node">
<title>Node434</title>
<g id="a_node14"><a xlink:href="quickjs_8c.html#a6887ef15fd884e05ddf04ec291b5f3d2" target="_top" xlink:title=" ">
<polygon fill="none" stroke="black" points="275,-249.5 275,-268.5 391,-268.5 391,-249.5 275,-249.5"/>
<text text-anchor="middle" x="333" y="-256.5" font-family="Helvetica,sans-Serif" font-size="10.00">string_buffer_concat</text>
</a>
</g>
</g>
<!-- Node30&#45;&gt;Node434 -->
<g id="edge14" class="edge">
<title>Node30&#45;&gt;Node434</title>
<path fill="none" stroke="midnightblue" d="M204.85,-344.37C229.42,-327.87 279.77,-294.06 309.2,-274.3"/>
<polygon fill="midnightblue" stroke="midnightblue" points="311.26,-277.14 317.62,-268.66 307.36,-271.33 311.26,-277.14"/>
</g>
<!-- Node28 -->
<g id="node16" class="node">
<title>Node28</title>
<g id="a_node16"><a xlink:href="quickjs_8c.html#a0b130652cf11eb0eb9f7e3ee6c5d7c6a" target="_top" xlink:title=" ">
<polygon fill="none" stroke="red" points="444.5,-211.5 444.5,-230.5 558.5,-230.5 558.5,-211.5 444.5,-211.5"/>
<text text-anchor="middle" x="501.5" y="-218.5" font-family="Helvetica,sans-Serif" font-size="10.00">string_buffer_write8</text>
</a>
</g>
</g>
<!-- Node30&#45;&gt;Node28 -->
<g id="edge20" class="edge">
<title>Node30&#45;&gt;Node28</title>
<path fill="none" stroke="midnightblue" d="M194.25,-344.5C203.78,-321.76 231.32,-264.35 275,-240 323.44,-213 387.01,-210 434.31,-212.74"/>
<polygon fill="midnightblue" stroke="midnightblue" points="434.23,-216.24 444.44,-213.43 434.7,-209.26 434.23,-216.24"/>
</g>
<!-- Node14 -->
<g id="node17" class="node">
<title>Node14</title>
<g id="a_node17"><a xlink:href="quickjs_8c.html#accfc3d1dcaa88c88402cb245ccaf4fdb" target="_top" xlink:title=" ">
<polygon fill="none" stroke="red" points="282.5,-439.5 282.5,-458.5 383.5,-458.5 383.5,-439.5 282.5,-439.5"/>
<text text-anchor="middle" x="333" y="-446.5" font-family="Helvetica,sans-Serif" font-size="10.00">string_buffer_end</text>
</a>
</g>
</g>
<!-- Node30&#45;&gt;Node14 -->
<g id="edge17" class="edge">
<title>Node30&#45;&gt;Node14</title>
<path fill="none" stroke="midnightblue" d="M198.66,-363.54C212.72,-379.44 243.11,-411.44 275,-430 278.6,-432.1 282.46,-434 286.42,-435.72"/>
<polygon fill="midnightblue" stroke="midnightblue" points="285.16,-438.99 295.75,-439.41 287.74,-432.48 285.16,-438.99"/>
</g>
<!-- Node19 -->
<g id="node18" class="node">
<title>Node19</title>
<g id="a_node18"><a xlink:href="quickjs_8c.html#ac43dee2ed14e80248f1af195bd3d8181" target="_top" xlink:title=" ">
<polygon fill="none" stroke="red" points="280.5,-401.5 280.5,-420.5 385.5,-420.5 385.5,-401.5 280.5,-401.5"/>
<text text-anchor="middle" x="333" y="-408.5" font-family="Helvetica,sans-Serif" font-size="10.00">string_buffer_init2</text>
</a>
</g>
</g>
<!-- Node30&#45;&gt;Node19 -->
<g id="edge19" class="edge">
<title>Node30&#45;&gt;Node19</title>
<path fill="none" stroke="midnightblue" d="M210.4,-363.64C227.38,-371.69 252.52,-383.23 275,-392 280.28,-394.06 285.89,-396.11 291.45,-398.05"/>
<polygon fill="midnightblue" stroke="midnightblue" points="290.73,-401.5 301.33,-401.41 292.99,-394.87 290.73,-401.5"/>
</g>
<!-- Node32 -->
<g id="node10" class="node">
<title>Node32</title>
<g id="a_node10"><a xlink:href="quickjs_8c.html#aa059f309c30fd5166d16c82a97973146" target="_top" xlink:title=" ">
<polygon fill="none" stroke="red" points="620,-325.5 620,-344.5 709,-344.5 709,-325.5 620,-325.5"/>
<text text-anchor="middle" x="664.5" y="-332.5" font-family="Helvetica,sans-Serif" font-size="10.00">__JS_FreeValue</text>
</a>
</g>
</g>
<!-- Node31&#45;&gt;Node32 -->
<g id="edge9" class="edge">
<title>Node31&#45;&gt;Node32</title>
<path fill="none" stroke="midnightblue" d="M541.06,-335C561.64,-335 587.28,-335 609.77,-335"/>
<polygon fill="midnightblue" stroke="midnightblue" points="609.85,-338.5 619.85,-335 609.85,-331.5 609.85,-338.5"/>
</g>
<!-- Node68&#45;&gt;Node31 -->
<g id="edge12" class="edge">
<title>Node68&#45;&gt;Node31</title>
<path fill="none" stroke="midnightblue" d="M376.01,-363.41C399.11,-358.14 427.87,-351.58 451.93,-346.08"/>
<polygon fill="midnightblue" stroke="midnightblue" points="452.95,-349.44 461.92,-343.8 451.39,-342.62 452.95,-349.44"/>
</g>
<!-- Node69 -->
<g id="node13" class="node">
<title>Node69</title>
<g id="a_node13"><a xlink:href="quickjs_8c.html#a7bcb8e1a20cbc8374a5f9ba4a2088cec" target="_top" xlink:title=" ">
<polygon fill="none" stroke="red" points="466.5,-363.5 466.5,-382.5 536.5,-382.5 536.5,-363.5 466.5,-363.5"/>
<text text-anchor="middle" x="501.5" y="-370.5" font-family="Helvetica,sans-Serif" font-size="10.00">JS_ToString</text>
</a>
</g>
</g>
<!-- Node68&#45;&gt;Node69 -->
<g id="edge13" class="edge">
<title>Node68&#45;&gt;Node69</title>
<path fill="none" stroke="midnightblue" d="M378.62,-373C402.62,-373 432.12,-373 456.09,-373"/>
<polygon fill="midnightblue" stroke="midnightblue" points="456.33,-376.5 466.33,-373 456.33,-369.5 456.33,-376.5"/>
</g>
<!-- Node435 -->
<g id="node15" class="node">
<title>Node435</title>
<g id="a_node15"><a xlink:href="quickjs_8c.html#a529c84c4766057fc95736603e6f55e3e" target="_top" xlink:title=" ">
<polygon fill="none" stroke="red" points="441.5,-249.5 441.5,-268.5 561.5,-268.5 561.5,-249.5 441.5,-249.5"/>
<text text-anchor="middle" x="501.5" y="-256.5" font-family="Helvetica,sans-Serif" font-size="10.00">string_buffer_write16</text>
</a>
</g>
</g>
<!-- Node434&#45;&gt;Node435 -->
<g id="edge15" class="edge">
<title>Node434&#45;&gt;Node435</title>
<path fill="none" stroke="midnightblue" d="M391.3,-259C404.19,-259 418.01,-259 431.33,-259"/>
<polygon fill="midnightblue" stroke="midnightblue" points="431.4,-262.5 441.4,-259 431.4,-255.5 431.4,-262.5"/>
</g>
<!-- Node434&#45;&gt;Node28 -->
<g id="edge16" class="edge">
<title>Node434&#45;&gt;Node28</title>
<path fill="none" stroke="midnightblue" d="M376.01,-249.41C398.18,-244.35 425.57,-238.1 449.01,-232.75"/>
<polygon fill="midnightblue" stroke="midnightblue" points="449.82,-236.16 458.79,-230.52 448.26,-229.33 449.82,-236.16"/>
</g>
<!-- Node14&#45;&gt;Node2 -->
<g id="edge18" class="edge">
<title>Node14&#45;&gt;Node2</title>
<path fill="none" stroke="midnightblue" d="M383.5,-453.16C402.36,-454.75 424,-456.57 443.5,-458.21"/>
<polygon fill="midnightblue" stroke="midnightblue" points="443.21,-461.7 453.47,-459.05 443.8,-454.72 443.21,-461.7"/>
</g>
<!-- Node437 -->
<g id="node21" class="node">
<title>Node437</title>
<g id="a_node21"><a xlink:href="quickjs_8c.html#a91b2b06caf6cc28b1edf48334b95b51a" target="_top" xlink:title=" ">
<polygon fill="none" stroke="black" points="284,-132.5 284,-151.5 382,-151.5 382,-132.5 284,-132.5"/>
<text text-anchor="middle" x="333" y="-139.5" font-family="Helvetica,sans-Serif" font-size="10.00">js_proxy_isArray</text>
</a>
</g>
</g>
<!-- Node436&#45;&gt;Node437 -->
<g id="edge24" class="edge">
<title>Node436&#45;&gt;Node437</title>
<path fill="none" stroke="midnightblue" d="M222.26,-157.51C237.44,-155.36 256.12,-152.72 273.73,-150.24"/>
<polygon fill="midnightblue" stroke="midnightblue" points="274.53,-153.66 283.94,-148.79 273.55,-146.73 274.53,-153.66"/>
</g>
<!-- Node222 -->
<g id="node22" class="node">
<title>Node222</title>
<g id="a_node22"><a xlink:href="quickjs_8c.html#a199d64ccbee0a90d93e1ad12745417f6" target="_top" xlink:title=" ">
<polygon fill="none" stroke="black" points="427,-124 427,-154 576,-154 576,-124 427,-124"/>
<text text-anchor="start" x="435" y="-142" font-family="Helvetica,sans-Serif" font-size="10.00">JS_ThrowTypeErrorRevoked</text>
<text text-anchor="middle" x="501.5" y="-131" font-family="Helvetica,sans-Serif" font-size="10.00">Proxy</text>
</a>
</g>
</g>
<!-- Node437&#45;&gt;Node222 -->
<g id="edge25" class="edge">
<title>Node437&#45;&gt;Node222</title>
<path fill="none" stroke="midnightblue" d="M382.16,-141.13C392.93,-140.94 404.66,-140.73 416.41,-140.52"/>
<polygon fill="midnightblue" stroke="midnightblue" points="416.79,-144.01 426.72,-140.33 416.66,-137.01 416.79,-144.01"/>
</g>
<!-- Node278&#45;&gt;Node6 -->
<g id="edge33" class="edge">
<title>Node278&#45;&gt;Node6</title>
<path fill="none" stroke="midnightblue" d="M226.23,-561.39C332.38,-556.62 645.87,-542.53 765.96,-537.14"/>
<polygon fill="midnightblue" stroke="midnightblue" points="766.12,-540.63 775.95,-536.69 765.81,-533.64 766.12,-540.63"/>
</g>
<!-- Node278&#45;&gt;Node67 -->
<g id="edge34" class="edge">
<title>Node278&#45;&gt;Node67</title>
<path fill="none" stroke="midnightblue" d="M226.21,-553.41C244.47,-548.51 266.91,-542.48 286.41,-537.24"/>
<polygon fill="midnightblue" stroke="midnightblue" points="287.55,-540.56 296.3,-534.59 285.74,-533.8 287.55,-540.56"/>
</g>
</g>
</svg>
