<?xml version="1.0" encoding="UTF-8" standalone="no"?>
<!DOCTYPE svg PUBLIC "-//W3C//DTD SVG 1.1//EN"
 "http://www.w3.org/Graphics/SVG/1.1/DTD/svg11.dtd">
<!-- Generated by graphviz version 2.43.0 (0)
 -->
<!-- Title: js_trigger_gc Pages: 1 -->
<!--zoomable 996 -->
<svg id="main" version="1.1" xmlns="http://www.w3.org/2000/svg" xmlns:xlink="http://www.w3.org/1999/xlink" xml:space="preserve" onload="init(evt)">
<style type="text/css"><![CDATA[
.edge:hover path { stroke: red; }
.edge:hover polygon { stroke: red; fill: red; }
]]></style>
<script type="text/javascript"><![CDATA[
var edges = document.getElementsByTagName('g');
if (edges && edges.length) {
  for (var i=0;i<edges.length;i++) {
    if (edges[i].id.substr(0,4)=='edge') {
      edges[i].setAttribute('class','edge');
    }
  }
}
]]></script>
        <defs>
                <circle id="rim" cx="0" cy="0" r="7"/>
                <circle id="rim2" cx="0" cy="0" r="3.5"/>
                <g id="zoomPlus">
                        <use xlink:href="#rim" fill="#404040">
                                <set attributeName="fill" to="#808080" begin="zoomplus.mouseover" end="zoomplus.mouseout"/>
                        </use>
                        <path d="M-4,0h8M0,-4v8" fill="none" stroke="white" stroke-width="1.5" pointer-events="none"/>
                </g>
                <g id="zoomMin">
                        <use xlink:href="#rim" fill="#404040">
                                <set attributeName="fill" to="#808080" begin="zoomminus.mouseover" end="zoomminus.mouseout"/>
                        </use>
                        <path d="M-4,0h8" fill="none" stroke="white" stroke-width="1.5" pointer-events="none"/>
                </g>
                <g id="dirArrow">
                        <path fill="none" stroke="white" stroke-width="1.5" d="M0,-3.0v7 M-2.5,-0.5L0,-3.0L2.5,-0.5"/>
                </g>
               <g id="resetDef">
                       <use xlink:href="#rim2" fill="#404040">
                               <set attributeName="fill" to="#808080" begin="reset.mouseover" end="reset.mouseout"/>
                       </use>
               </g>
        </defs>

<script type="text/javascript">
var viewWidth = 745;
var viewHeight = 996;
var sectionId = 'dynsection-136';
</script>
<script xlink:href="svgpan.js"/>
<svg id="graph" class="graph">
<g id="viewport">
<title>js_trigger_gc</title>
<!-- Node1 -->
<g id="node1" class="node">
<title>Node1</title>
<g id="a_node1"><a xlink:title=" ">
<polygon fill="#bfbfbf" stroke="black" points="658,-474.5 658,-493.5 737,-493.5 737,-474.5 658,-474.5"/>
<text text-anchor="middle" x="697.5" y="-481.5" font-family="Helvetica,sans-Serif" font-size="10.00">js_trigger_gc</text>
</a>
</g>
</g>
<!-- Node2 -->
<g id="node2" class="node">
<title>Node2</title>
<g id="a_node2"><a xlink:href="quickjs_8c.html#a030c2e98b1775a7e3bdd13be1400b1fe" target="_top" xlink:title=" ">
<polygon fill="none" stroke="black" points="483,-474.5 483,-493.5 622,-493.5 622,-474.5 483,-474.5"/>
<text text-anchor="middle" x="552.5" y="-481.5" font-family="Helvetica,sans-Serif" font-size="10.00">JS_NewObjectFromShape</text>
</a>
</g>
</g>
<!-- Node1&#45;&gt;Node2 -->
<g id="edge1" class="edge">
<title>Node1&#45;&gt;Node2</title>
<path fill="none" stroke="midnightblue" d="M647.69,-484C639.49,-484 630.85,-484 622.26,-484"/>
<polygon fill="midnightblue" stroke="midnightblue" points="647.8,-487.5 657.8,-484 647.8,-480.5 647.8,-487.5"/>
</g>
<!-- Node3 -->
<g id="node3" class="node">
<title>Node3</title>
<g id="a_node3"><a xlink:href="quickjs_8c.html#ad4ba09e4c7ab9f28c144182e1aacf1f6" target="_top" xlink:title=" ">
<polygon fill="none" stroke="red" points="339.5,-493.5 339.5,-512.5 418.5,-512.5 418.5,-493.5 339.5,-493.5"/>
<text text-anchor="middle" x="379" y="-500.5" font-family="Helvetica,sans-Serif" font-size="10.00">JS_NewArray</text>
</a>
</g>
</g>
<!-- Node2&#45;&gt;Node3 -->
<g id="edge2" class="edge">
<title>Node2&#45;&gt;Node3</title>
<path fill="none" stroke="midnightblue" d="M472.68,-492.73C453.92,-494.81 434.71,-496.94 418.69,-498.71"/>
<polygon fill="midnightblue" stroke="midnightblue" points="473.18,-496.2 482.73,-491.62 472.41,-489.24 473.18,-496.2"/>
</g>
<!-- Node618 -->
<g id="node30" class="node">
<title>Node618</title>
<g id="a_node30"><a xlink:href="quickjs_8c.html#a73738c650f11459db0d7af3dcdf8316b" target="_top" xlink:title=" ">
<polygon fill="none" stroke="red" points="311,-455.5 311,-474.5 447,-474.5 447,-455.5 311,-455.5"/>
<text text-anchor="middle" x="379" y="-462.5" font-family="Helvetica,sans-Serif" font-size="10.00">JS_NewObjectProtoClass</text>
</a>
</g>
</g>
<!-- Node2&#45;&gt;Node618 -->
<g id="edge33" class="edge">
<title>Node2&#45;&gt;Node618</title>
<path fill="none" stroke="midnightblue" d="M472.74,-475.27C464.18,-474.33 455.52,-473.37 447.11,-472.43"/>
<polygon fill="midnightblue" stroke="midnightblue" points="472.41,-478.76 482.73,-476.38 473.18,-471.8 472.41,-478.76"/>
</g>
<!-- Node4 -->
<g id="node4" class="node">
<title>Node4</title>
<g id="a_node4"><a xlink:href="quickjs_8c.html#a9f70dbefcf33550d6f9e588c05c9ffef" target="_top" xlink:title=" ">
<polygon fill="none" stroke="red" points="150,-968.5 150,-987.5 248,-987.5 248,-968.5 150,-968.5"/>
<text text-anchor="middle" x="199" y="-975.5" font-family="Helvetica,sans-Serif" font-size="10.00">iterator_to_array</text>
</a>
</g>
</g>
<!-- Node3&#45;&gt;Node4 -->
<g id="edge3" class="edge">
<title>Node3&#45;&gt;Node4</title>
<path fill="none" stroke="midnightblue" d="M376.22,-523.02C368.78,-602.53 337.49,-894.87 275,-959 267.78,-966.41 258.12,-971.08 248.14,-973.99"/>
<polygon fill="midnightblue" stroke="midnightblue" points="379.73,-523.16 377.15,-512.88 372.76,-522.52 379.73,-523.16"/>
</g>
<!-- Node11 -->
<g id="node5" class="node">
<title>Node11</title>
<g id="a_node5"><a xlink:href="quickjs_8c.html#aa0bbf08a7e91459c68a312fba7016c6d" target="_top" xlink:title=" ">
<polygon fill="none" stroke="black" points="154.5,-930.5 154.5,-949.5 243.5,-949.5 243.5,-930.5 154.5,-930.5"/>
<text text-anchor="middle" x="199" y="-937.5" font-family="Helvetica,sans-Serif" font-size="10.00">js_array_every</text>
</a>
</g>
</g>
<!-- Node3&#45;&gt;Node11 -->
<g id="edge4" class="edge">
<title>Node3&#45;&gt;Node11</title>
<path fill="none" stroke="midnightblue" d="M375.81,-522.78C367.13,-597.72 332.75,-862.88 275,-921 266.67,-929.39 255.2,-934.25 243.74,-937.03"/>
<polygon fill="midnightblue" stroke="midnightblue" points="379.29,-523.13 376.94,-512.8 372.34,-522.34 379.29,-523.13"/>
</g>
<!-- Node12 -->
<g id="node6" class="node">
<title>Node12</title>
<g id="a_node6"><a xlink:href="quickjs_8c.html#a5e32da9a43002cb96dcbd62a1a340144" target="_top" xlink:title=" ">
<polygon fill="none" stroke="black" points="157,-892.5 157,-911.5 241,-911.5 241,-892.5 157,-892.5"/>
<text text-anchor="middle" x="199" y="-899.5" font-family="Helvetica,sans-Serif" font-size="10.00">js_array_from</text>
</a>
</g>
</g>
<!-- Node3&#45;&gt;Node12 -->
<g id="edge5" class="edge">
<title>Node3&#45;&gt;Node12</title>
<path fill="none" stroke="midnightblue" d="M375.29,-522.76C365.25,-593.25 327.97,-830.9 275,-883 266,-891.85 253.5,-896.77 241.28,-899.44"/>
<polygon fill="midnightblue" stroke="midnightblue" points="378.8,-522.99 376.72,-512.6 371.86,-522.02 378.8,-522.99"/>
</g>
<!-- Node13 -->
<g id="node7" class="node">
<title>Node13</title>
<g id="a_node7"><a xlink:href="quickjs_8c.html#a54596af885c45bf0281d53985349e9ef" target="_top" xlink:title=" ">
<polygon fill="none" stroke="red" points="136.5,-854.5 136.5,-873.5 261.5,-873.5 261.5,-854.5 136.5,-854.5"/>
<text text-anchor="middle" x="199" y="-861.5" font-family="Helvetica,sans-Serif" font-size="10.00">js_array_from_iterator</text>
</a>
</g>
</g>
<!-- Node3&#45;&gt;Node13 -->
<g id="edge6" class="edge">
<title>Node3&#45;&gt;Node13</title>
<path fill="none" stroke="midnightblue" d="M378.34,-522.66C378.21,-580.97 369.52,-754.59 275,-845 271.02,-848.81 266.39,-851.88 261.42,-854.36"/>
<polygon fill="midnightblue" stroke="midnightblue" points="381.83,-522.56 378.27,-512.59 374.84,-522.61 381.83,-522.56"/>
</g>
<!-- Node31 -->
<g id="node8" class="node">
<title>Node31</title>
<g id="a_node8"><a xlink:href="quickjs_8c.html#aed64f4c93145310216f62d7548856b8d" target="_top" xlink:title=" ">
<polygon fill="none" stroke="black" points="163.5,-816.5 163.5,-835.5 234.5,-835.5 234.5,-816.5 163.5,-816.5"/>
<text text-anchor="middle" x="199" y="-823.5" font-family="Helvetica,sans-Serif" font-size="10.00">js_array_of</text>
</a>
</g>
</g>
<!-- Node3&#45;&gt;Node31 -->
<g id="edge7" class="edge">
<title>Node3&#45;&gt;Node31</title>
<path fill="none" stroke="midnightblue" d="M377.46,-522.95C374.88,-577.16 360.01,-728.42 275,-807 264.15,-817.03 248.78,-821.95 234.77,-824.3"/>
<polygon fill="midnightblue" stroke="midnightblue" points="380.97,-522.77 377.86,-512.65 373.98,-522.51 380.97,-522.77"/>
</g>
<!-- Node32 -->
<g id="node9" class="node">
<title>Node32</title>
<g id="a_node9"><a xlink:href="quickjs_8c.html#a72f4829a5b32f5445fe3f2a59efeb8ea" target="_top" xlink:title=" ">
<polygon fill="none" stroke="black" points="160,-778.5 160,-797.5 238,-797.5 238,-778.5 160,-778.5"/>
<text text-anchor="middle" x="199" y="-785.5" font-family="Helvetica,sans-Serif" font-size="10.00">js_build_rest</text>
</a>
</g>
</g>
<!-- Node3&#45;&gt;Node32 -->
<g id="edge8" class="edge">
<title>Node3&#45;&gt;Node32</title>
<path fill="none" stroke="midnightblue" d="M375.93,-522.76C369.81,-571.08 347.44,-696.2 275,-764 264.92,-773.44 251.12,-779.16 238.1,-782.64"/>
<polygon fill="midnightblue" stroke="midnightblue" points="379.42,-523.03 377.1,-512.69 372.47,-522.21 379.42,-523.03"/>
</g>
<!-- Node33 -->
<g id="node10" class="node">
<title>Node33</title>
<g id="a_node10"><a xlink:href="quickjs_8c.html#ac2894ff4edcdb4e6841bcce9c76081e3" target="_top" xlink:title=" ">
<polygon fill="none" stroke="red" points="0,-759.5 0,-778.5 87,-778.5 87,-759.5 0,-759.5"/>
<text text-anchor="middle" x="43.5" y="-766.5" font-family="Helvetica,sans-Serif" font-size="10.00">JS_CallInternal</text>
</a>
</g>
</g>
<!-- Node3&#45;&gt;Node33 -->
<g id="edge11" class="edge">
<title>Node3&#45;&gt;Node33</title>
<path fill="none" stroke="midnightblue" d="M375.36,-522.71C368.24,-567.63 344.23,-677.83 275,-731 246.29,-753.05 145.55,-762.82 87.19,-766.72"/>
<polygon fill="midnightblue" stroke="midnightblue" points="378.83,-523.17 376.83,-512.77 371.91,-522.15 378.83,-523.17"/>
</g>
<!-- Node248 -->
<g id="node11" class="node">
<title>Node248</title>
<g id="a_node11"><a xlink:href="quickjs_8c.html#a339d687d765143d3f8ea0ea89fa47b0f" target="_top" xlink:title=" ">
<polygon fill="none" stroke="red" points="153,-702.5 153,-721.5 245,-721.5 245,-702.5 153,-702.5"/>
<text text-anchor="middle" x="199" y="-709.5" font-family="Helvetica,sans-Serif" font-size="10.00">js_create_array</text>
</a>
</g>
</g>
<!-- Node3&#45;&gt;Node248 -->
<g id="edge12" class="edge">
<title>Node3&#45;&gt;Node248</title>
<path fill="none" stroke="midnightblue" d="M373.04,-522.71C362.22,-561.55 332.69,-648.13 275,-693 266.41,-699.68 255.75,-704.03 245.19,-706.87"/>
<polygon fill="midnightblue" stroke="midnightblue" points="376.52,-523.25 375.71,-512.68 369.76,-521.45 376.52,-523.25"/>
</g>
<!-- Node251 -->
<g id="node12" class="node">
<title>Node251</title>
<g id="a_node12"><a xlink:href="quickjs_8c.html#a79c9d633e8f9d5fd70546406b9e6f176" target="_top" xlink:title=" ">
<polygon fill="none" stroke="red" points="123,-664.5 123,-683.5 275,-683.5 275,-664.5 123,-664.5"/>
<text text-anchor="middle" x="199" y="-671.5" font-family="Helvetica,sans-Serif" font-size="10.00">JS_GetOwnPropertyNames2</text>
</a>
</g>
</g>
<!-- Node3&#45;&gt;Node251 -->
<g id="edge13" class="edge">
<title>Node3&#45;&gt;Node251</title>
<path fill="none" stroke="midnightblue" d="M370.57,-521.89C356.82,-554.33 324.22,-620.48 275,-655 269.5,-658.86 263.29,-661.93 256.85,-664.38"/>
<polygon fill="midnightblue" stroke="midnightblue" points="373.82,-523.2 374.37,-512.62 367.34,-520.54 373.82,-523.2"/>
</g>
<!-- Node84 -->
<g id="node13" class="node">
<title>Node84</title>
<g id="a_node13"><a xlink:href="quickjs_8c.html#a343a343b16bc3c9875050e99ee0d2884" target="_top" xlink:title=" ">
<polygon fill="none" stroke="red" points="151.5,-626.5 151.5,-645.5 246.5,-645.5 246.5,-626.5 151.5,-626.5"/>
<text text-anchor="middle" x="199" y="-633.5" font-family="Helvetica,sans-Serif" font-size="10.00">JS_JSONStringify</text>
</a>
</g>
</g>
<!-- Node3&#45;&gt;Node84 -->
<g id="edge14" class="edge">
<title>Node3&#45;&gt;Node84</title>
<path fill="none" stroke="midnightblue" d="M366.53,-521.38C349.67,-546.84 315.72,-592.47 275,-617 266.37,-622.2 256.36,-625.98 246.52,-628.73"/>
<polygon fill="midnightblue" stroke="midnightblue" points="369.66,-522.99 372.14,-512.69 363.78,-519.2 369.66,-522.99"/>
</g>
<!-- Node259 -->
<g id="node14" class="node">
<title>Node259</title>
<g id="a_node14"><a xlink:href="quickjs-libc_8c.html#a6d1c957c402e5cda23a3b00762208185" target="_top" xlink:title=" ">
<polygon fill="none" stroke="black" points="165,-588.5 165,-607.5 233,-607.5 233,-588.5 165,-588.5"/>
<text text-anchor="middle" x="199" y="-595.5" font-family="Helvetica,sans-Serif" font-size="10.00">js_os_pipe</text>
</a>
</g>
</g>
<!-- Node3&#45;&gt;Node259 -->
<g id="edge15" class="edge">
<title>Node3&#45;&gt;Node259</title>
<path fill="none" stroke="midnightblue" d="M358.67,-518.92C338.74,-534.69 306.24,-558.65 275,-574 261.87,-580.45 246.61,-585.7 233.3,-589.63"/>
<polygon fill="midnightblue" stroke="midnightblue" points="361.05,-521.5 366.65,-512.51 356.66,-516.04 361.05,-521.5"/>
</g>
<!-- Node260 -->
<g id="node15" class="node">
<title>Node260</title>
<g id="a_node15"><a xlink:href="quickjs-libc_8c.html#a64270f007df853e9d2f443383d26ec60" target="_top" xlink:title=" ">
<polygon fill="none" stroke="black" points="3,-275.5 3,-294.5 84,-294.5 84,-275.5 3,-275.5"/>
<text text-anchor="middle" x="43.5" y="-282.5" font-family="Helvetica,sans-Serif" font-size="10.00">js_os_readdir</text>
</a>
</g>
</g>
<!-- Node3&#45;&gt;Node260 -->
<g id="edge16" class="edge">
<title>Node3&#45;&gt;Node260</title>
<path fill="none" stroke="midnightblue" d="M353.06,-517.47C303.87,-543.92 193.01,-592.76 123,-541 81.13,-510.05 52.43,-337.26 45.91,-294.55"/>
<polygon fill="midnightblue" stroke="midnightblue" points="354.98,-520.41 362.05,-512.52 351.6,-514.28 354.98,-520.41"/>
</g>
<!-- Node261 -->
<g id="node16" class="node">
<title>Node261</title>
<g id="a_node16"><a xlink:href="quickjs-libc_8c.html#a9caf548a60b412734dc8a40a7ebc914e" target="_top" xlink:title=" ">
<polygon fill="none" stroke="black" points="141,-512.5 141,-531.5 257,-531.5 257,-512.5 141,-512.5"/>
<text text-anchor="middle" x="199" y="-519.5" font-family="Helvetica,sans-Serif" font-size="10.00">js_os_ttyGetWinSize</text>
</a>
</g>
</g>
<!-- Node3&#45;&gt;Node261 -->
<g id="edge17" class="edge">
<title>Node3&#45;&gt;Node261</title>
<path fill="none" stroke="midnightblue" d="M329.14,-508.22C306.86,-510.59 280.34,-513.42 257.14,-515.9"/>
<polygon fill="midnightblue" stroke="midnightblue" points="329.8,-511.66 339.38,-507.12 329.06,-504.7 329.8,-511.66"/>
</g>
<!-- Node262 -->
<g id="node17" class="node">
<title>Node262</title>
<g id="a_node17"><a xlink:href="quickjs-libc_8c.html#aedcefc332980a5da1b0a3c512232d46f" target="_top" xlink:title=" ">
<polygon fill="none" stroke="black" points="157.5,-474.5 157.5,-493.5 240.5,-493.5 240.5,-474.5 157.5,-474.5"/>
<text text-anchor="middle" x="199" y="-481.5" font-family="Helvetica,sans-Serif" font-size="10.00">js_os_waitpid</text>
</a>
</g>
</g>
<!-- Node3&#45;&gt;Node262 -->
<g id="edge18" class="edge">
<title>Node3&#45;&gt;Node262</title>
<path fill="none" stroke="midnightblue" d="M329.09,-497.78C301.33,-494.82 266.99,-491.15 240.71,-488.35"/>
<polygon fill="midnightblue" stroke="midnightblue" points="329.06,-501.3 339.38,-498.88 329.8,-494.34 329.06,-501.3"/>
</g>
<!-- Node216 -->
<g id="node18" class="node">
<title>Node216</title>
<g id="a_node18"><a xlink:href="quickjs_8c.html#a035daca514f14aacc1e0cff81d8e423a" target="_top" xlink:title=" ">
<polygon fill="none" stroke="red" points="145.5,-436.5 145.5,-455.5 252.5,-455.5 252.5,-436.5 145.5,-436.5"/>
<text text-anchor="middle" x="199" y="-443.5" font-family="Helvetica,sans-Serif" font-size="10.00">js_parse_template</text>
</a>
</g>
</g>
<!-- Node3&#45;&gt;Node216 -->
<g id="edge19" class="edge">
<title>Node3&#45;&gt;Node216</title>
<path fill="none" stroke="midnightblue" d="M329.47,-490.54C323.19,-488.55 316.89,-486.36 311,-484 294.21,-477.27 291.89,-471.49 275,-465 265.47,-461.34 254.99,-458.18 244.96,-455.54"/>
<polygon fill="midnightblue" stroke="midnightblue" points="328.69,-493.96 339.27,-493.51 330.71,-487.26 328.69,-493.96"/>
</g>
<!-- Node77 -->
<g id="node19" class="node">
<title>Node77</title>
<g id="a_node19"><a xlink:href="quickjs_8c.html#a7a5c4f3ad3260974d9a0c75120ce5647" target="_top" xlink:title=" ">
<polygon fill="none" stroke="black" points="155.5,-398.5 155.5,-417.5 242.5,-417.5 242.5,-398.5 155.5,-398.5"/>
<text text-anchor="middle" x="199" y="-405.5" font-family="Helvetica,sans-Serif" font-size="10.00">js_promise_all</text>
</a>
</g>
</g>
<!-- Node3&#45;&gt;Node77 -->
<g id="edge20" class="edge">
<title>Node3&#45;&gt;Node77</title>
<path fill="none" stroke="midnightblue" d="M329.53,-493.9C322.93,-491.37 316.53,-488.13 311,-484 287,-466.06 299.25,-444.6 275,-427 265.54,-420.14 253.85,-415.74 242.54,-412.93"/>
<polygon fill="midnightblue" stroke="midnightblue" points="328.68,-497.31 339.27,-497.13 330.88,-490.66 328.68,-497.31"/>
</g>
<!-- Node19 -->
<g id="node20" class="node">
<title>Node19</title>
<g id="a_node20"><a xlink:href="quickjs_8c.html#a18da561cb430d36d47200cd3ab394984" target="_top" xlink:title=" ">
<polygon fill="none" stroke="red" points="158,-360.5 158,-379.5 240,-379.5 240,-360.5 158,-360.5"/>
<text text-anchor="middle" x="199" y="-367.5" font-family="Helvetica,sans-Serif" font-size="10.00">JS_ReadArray</text>
</a>
</g>
</g>
<!-- Node3&#45;&gt;Node19 -->
<g id="edge21" class="edge">
<title>Node3&#45;&gt;Node19</title>
<path fill="none" stroke="midnightblue" d="M329.89,-495.33C322.97,-492.61 316.39,-488.95 311,-484 277.73,-453.47 308.7,-419.05 275,-389 265.48,-380.51 252.69,-375.7 240.38,-373.01"/>
<polygon fill="midnightblue" stroke="midnightblue" points="328.84,-498.68 339.44,-498.49 331.04,-492.03 328.84,-498.68"/>
</g>
<!-- Node141 -->
<g id="node21" class="node">
<title>Node141</title>
<g id="a_node21"><a xlink:href="quickjs_8c.html#a9eb2d90f27f684820f9de13189502b7c" target="_top" xlink:title=" ">
<polygon fill="none" stroke="red" points="153,-322.5 153,-341.5 245,-341.5 245,-322.5 153,-322.5"/>
<text text-anchor="middle" x="199" y="-329.5" font-family="Helvetica,sans-Serif" font-size="10.00">js_regexp_exec</text>
</a>
</g>
</g>
<!-- Node3&#45;&gt;Node141 -->
<g id="edge22" class="edge">
<title>Node3&#45;&gt;Node141</title>
<path fill="none" stroke="midnightblue" d="M329.69,-495.88C322.74,-493.09 316.2,-489.26 311,-484 267.96,-440.44 318.65,-393.95 275,-351 266.96,-343.09 256.12,-338.32 245.18,-335.49"/>
<polygon fill="midnightblue" stroke="midnightblue" points="328.73,-499.25 339.32,-499.06 330.92,-492.6 328.73,-499.25"/>
</g>
<!-- Node145 -->
<g id="node22" class="node">
<title>Node145</title>
<g id="a_node22"><a xlink:href="quickjs_8c.html#a41fc4304b39616e7be3500fe6ec881c2" target="_top" xlink:title=" ">
<polygon fill="none" stroke="black" points="128,-284.5 128,-303.5 270,-303.5 270,-284.5 128,-284.5"/>
<text text-anchor="middle" x="199" y="-291.5" font-family="Helvetica,sans-Serif" font-size="10.00">js_regexp_Symbol_match</text>
</a>
</g>
</g>
<!-- Node3&#45;&gt;Node145 -->
<g id="edge23" class="edge">
<title>Node3&#45;&gt;Node145</title>
<path fill="none" stroke="midnightblue" d="M329.66,-496.23C322.66,-493.4 316.1,-489.47 311,-484 258,-427.22 328.79,-369.02 275,-313 271.37,-309.22 267.11,-306.15 262.49,-303.67"/>
<polygon fill="midnightblue" stroke="midnightblue" points="328.79,-499.63 339.39,-499.43 330.98,-492.98 328.79,-499.63"/>
</g>
<!-- Node67 -->
<g id="node23" class="node">
<title>Node67</title>
<g id="a_node23"><a xlink:href="quickjs_8c.html#a6a77bcdb9f7f18c13c108c99a198708b" target="_top" xlink:title=" ">
<polygon fill="none" stroke="black" points="125.5,-246.5 125.5,-265.5 272.5,-265.5 272.5,-246.5 125.5,-246.5"/>
<text text-anchor="middle" x="199" y="-253.5" font-family="Helvetica,sans-Serif" font-size="10.00">js_regexp_Symbol_replace</text>
</a>
</g>
</g>
<!-- Node3&#45;&gt;Node67 -->
<g id="edge24" class="edge">
<title>Node3&#45;&gt;Node67</title>
<path fill="none" stroke="midnightblue" d="M329.48,-496.39C322.5,-493.55 316,-489.56 311,-484 247.97,-413.92 339.02,-344.18 275,-275 271.44,-271.16 267.23,-268.04 262.64,-265.52"/>
<polygon fill="midnightblue" stroke="midnightblue" points="328.61,-499.79 339.2,-499.6 330.8,-493.14 328.61,-499.79"/>
</g>
<!-- Node119 -->
<g id="node24" class="node">
<title>Node119</title>
<g id="a_node24"><a xlink:href="quickjs_8c.html#a79872a6d9d139e36d5d1894d16132024" target="_top" xlink:title=" ">
<polygon fill="none" stroke="black" points="133,-208.5 133,-227.5 265,-227.5 265,-208.5 133,-208.5"/>
<text text-anchor="middle" x="199" y="-215.5" font-family="Helvetica,sans-Serif" font-size="10.00">js_regexp_Symbol_split</text>
</a>
</g>
</g>
<!-- Node3&#45;&gt;Node119 -->
<g id="edge25" class="edge">
<title>Node3&#45;&gt;Node119</title>
<path fill="none" stroke="midnightblue" d="M329.59,-496.59C322.54,-493.73 315.99,-489.69 311,-484 237.88,-400.57 349.29,-319.39 275,-237 271.58,-233.21 267.53,-230.12 263.1,-227.62"/>
<polygon fill="midnightblue" stroke="midnightblue" points="328.82,-500.03 339.42,-499.81 331,-493.37 328.82,-500.03"/>
</g>
<!-- Node161 -->
<g id="node25" class="node">
<title>Node161</title>
<g id="a_node25"><a xlink:href="quickjs-libc_8c.html#ad04466feec6822a3b838baf229f6dfa0" target="_top" xlink:title=" ">
<polygon fill="none" stroke="red" points="144,-170.5 144,-189.5 254,-189.5 254,-170.5 144,-170.5"/>
<text text-anchor="middle" x="199" y="-177.5" font-family="Helvetica,sans-Serif" font-size="10.00">js_std_add_helpers</text>
</a>
</g>
</g>
<!-- Node3&#45;&gt;Node161 -->
<g id="edge26" class="edge">
<title>Node3&#45;&gt;Node161</title>
<path fill="none" stroke="midnightblue" d="M329.49,-496.67C322.45,-493.8 315.93,-489.74 311,-484 227.77,-387.18 359.58,-294.63 275,-199 269.39,-192.66 262,-188.29 254.05,-185.31"/>
<polygon fill="midnightblue" stroke="midnightblue" points="328.72,-500.11 339.32,-499.89 330.9,-493.45 328.72,-500.11"/>
</g>
<!-- Node256 -->
<g id="node26" class="node">
<title>Node256</title>
<g id="a_node26"><a xlink:href="quickjs_8c.html#a99f359a90bf2aa7902ec554d726d4fda" target="_top" xlink:title=" ">
<polygon fill="none" stroke="black" points="157,-132.5 157,-151.5 241,-151.5 241,-132.5 157,-132.5"/>
<text text-anchor="middle" x="199" y="-139.5" font-family="Helvetica,sans-Serif" font-size="10.00">js_string_split</text>
</a>
</g>
</g>
<!-- Node3&#45;&gt;Node256 -->
<g id="edge27" class="edge">
<title>Node3&#45;&gt;Node256</title>
<path fill="none" stroke="midnightblue" d="M329.42,-496.74C322.39,-493.86 315.89,-489.77 311,-484 217.64,-373.78 369.9,-269.89 275,-161 266.53,-151.28 253.86,-146.18 241.34,-143.6"/>
<polygon fill="midnightblue" stroke="midnightblue" points="328.65,-500.17 339.24,-499.96 330.83,-493.52 328.65,-500.17"/>
</g>
<!-- Node73 -->
<g id="node27" class="node">
<title>Node73</title>
<g id="a_node27"><a xlink:href="quickjs_8c.html#a5f46f50deddd4e3a23da24e8173db28e" target="_top" xlink:title=" ">
<polygon fill="none" stroke="black" points="140.5,-94.5 140.5,-113.5 257.5,-113.5 257.5,-94.5 140.5,-94.5"/>
<text text-anchor="middle" x="199" y="-101.5" font-family="Helvetica,sans-Serif" font-size="10.00">js_typed_array_from</text>
</a>
</g>
</g>
<!-- Node3&#45;&gt;Node73 -->
<g id="edge28" class="edge">
<title>Node3&#45;&gt;Node73</title>
<path fill="none" stroke="midnightblue" d="M329.37,-496.78C322.34,-493.9 315.86,-489.8 311,-484 207.51,-360.36 380.23,-245.17 275,-123 270.27,-117.5 264.19,-113.48 257.55,-110.56"/>
<polygon fill="midnightblue" stroke="midnightblue" points="328.59,-500.21 339.18,-500.01 330.77,-493.56 328.59,-500.21"/>
</g>
<!-- Node263 -->
<g id="node28" class="node">
<title>Node263</title>
<g id="a_node28"><a xlink:href="quickjs_8c.html#a756c1ab5dee9a6dd07723d7a075e2a53" target="_top" xlink:title=" ">
<polygon fill="none" stroke="red" points="148.5,-38.5 148.5,-57.5 249.5,-57.5 249.5,-38.5 148.5,-38.5"/>
<text text-anchor="middle" x="199" y="-45.5" font-family="Helvetica,sans-Serif" font-size="10.00">json_parse_value</text>
</a>
</g>
</g>
<!-- Node3&#45;&gt;Node263 -->
<g id="edge29" class="edge">
<title>Node3&#45;&gt;Node263</title>
<path fill="none" stroke="midnightblue" d="M329.55,-496.92C322.44,-494.02 315.88,-489.89 311,-484 254.18,-415.46 325.36,-158.41 275,-85 265.97,-71.83 250.85,-63.15 236.54,-57.53"/>
<polygon fill="midnightblue" stroke="midnightblue" points="328.89,-500.38 339.48,-500.14 331.05,-493.73 328.89,-500.38"/>
</g>
<!-- Node268 -->
<g id="node29" class="node">
<title>Node268</title>
<g id="a_node29"><a xlink:href="quickjs-libc_8c.html#a0210b73e16d177f7668621a6573576aa" target="_top" xlink:title=" ">
<polygon fill="none" stroke="red" points="153,-0.5 153,-19.5 245,-19.5 245,-0.5 153,-0.5"/>
<text text-anchor="middle" x="199" y="-7.5" font-family="Helvetica,sans-Serif" font-size="10.00">make_obj_error</text>
</a>
</g>
</g>
<!-- Node3&#45;&gt;Node268 -->
<g id="edge31" class="edge">
<title>Node3&#45;&gt;Node268</title>
<path fill="none" stroke="midnightblue" d="M329.49,-496.96C322.39,-494.07 315.85,-489.91 311,-484 246.7,-405.56 340.4,-106.52 275,-29 267.46,-20.07 256.39,-15.01 245.05,-12.23"/>
<polygon fill="midnightblue" stroke="midnightblue" points="328.83,-500.43 339.42,-500.19 330.99,-493.77 328.83,-500.43"/>
</g>
<!-- Node32&#45;&gt;Node33 -->
<g id="edge9" class="edge">
<title>Node32&#45;&gt;Node33</title>
<path fill="none" stroke="midnightblue" d="M149.51,-782C129.52,-779.52 106.56,-776.68 87.21,-774.29"/>
<polygon fill="midnightblue" stroke="midnightblue" points="149.31,-785.5 159.66,-783.25 150.17,-778.55 149.31,-785.5"/>
</g>
<!-- Node33&#45;&gt;Node33 -->
<g id="edge10" class="edge">
<title>Node33&#45;&gt;Node33</title>
<path fill="none" stroke="midnightblue" d="M72.25,-787.65C71.04,-792.94 61.46,-797 43.5,-797 16.13,-797 8.22,-787.57 19.76,-778.76"/>
<polygon fill="midnightblue" stroke="midnightblue" points="75.19,-785.75 67.24,-778.76 69.09,-789.19 75.19,-785.75"/>
</g>
<!-- Node263&#45;&gt;Node263 -->
<g id="edge30" class="edge">
<title>Node263&#45;&gt;Node263</title>
<path fill="none" stroke="midnightblue" d="M227.75,-66.65C226.54,-71.94 216.96,-76 199,-76 171.63,-76 163.72,-66.57 175.26,-57.76"/>
<polygon fill="midnightblue" stroke="midnightblue" points="230.69,-64.75 222.74,-57.76 224.59,-68.19 230.69,-64.75"/>
</g>
<!-- Node268&#45;&gt;Node260 -->
<g id="edge32" class="edge">
<title>Node268&#45;&gt;Node260</title>
<path fill="none" stroke="midnightblue" d="M143.34,-16.72C135.83,-19.57 128.75,-23.53 123,-29 48.92,-99.51 44.19,-237.89 44.33,-275.42"/>
<polygon fill="midnightblue" stroke="midnightblue" points="144.51,-20.02 152.99,-13.67 142.4,-13.35 144.51,-20.02"/>
</g>
</g>
</svg>
        <g id="navigator" transform="translate(0 0)" fill="#404254">
                <rect fill="#f2f5e9" fill-opacity="0.5" stroke="#606060" stroke-width=".5" x="0" y="0" width="60" height="60"/>
                <use id="zoomplus" xlink:href="#zoomPlus" x="17" y="9" onmousedown="handleZoom(evt,'in')"/>
                <use id="zoomminus" xlink:href="#zoomMin" x="42" y="9" onmousedown="handleZoom(evt,'out')"/>
                <use id="reset" xlink:href="#resetDef" x="30" y="36" onmousedown="handleReset()"/>
                <g id="arrowUp" xlink:href="#dirArrow" transform="translate(30 24)" onmousedown="handlePan(0,-1)">
                  <use xlink:href="#rim" fill="#404040">
                        <set attributeName="fill" to="#808080" begin="arrowUp.mouseover" end="arrowUp.mouseout"/>
                  </use>
                  <path fill="none" stroke="white" stroke-width="1.5" d="M0,-3.0v7 M-2.5,-0.5L0,-3.0L2.5,-0.5"/>
                </g>
                <g id="arrowRight" xlink:href="#dirArrow" transform="rotate(90) translate(36 -43)" onmousedown="handlePan(1,0)">
                  <use xlink:href="#rim" fill="#404040">
                        <set attributeName="fill" to="#808080" begin="arrowRight.mouseover" end="arrowRight.mouseout"/>
                  </use>
                  <path fill="none" stroke="white" stroke-width="1.5" d="M0,-3.0v7 M-2.5,-0.5L0,-3.0L2.5,-0.5"/>
                </g>
                <g id="arrowDown" xlink:href="#dirArrow" transform="rotate(180) translate(-30 -48)" onmousedown="handlePan(0,1)">
                  <use xlink:href="#rim" fill="#404040">
                        <set attributeName="fill" to="#808080" begin="arrowDown.mouseover" end="arrowDown.mouseout"/>
                  </use>
                  <path fill="none" stroke="white" stroke-width="1.5" d="M0,-3.0v7 M-2.5,-0.5L0,-3.0L2.5,-0.5"/>
                </g>
                <g id="arrowLeft" xlink:href="#dirArrow" transform="rotate(270) translate(-36 17)" onmousedown="handlePan(-1,0)">
                  <use xlink:href="#rim" fill="#404040">
                        <set attributeName="fill" to="#808080" begin="arrowLeft.mouseover" end="arrowLeft.mouseout"/>
                  </use>
                  <path fill="none" stroke="white" stroke-width="1.5" d="M0,-3.0v7 M-2.5,-0.5L0,-3.0L2.5,-0.5"/>
                </g>
        </g>
        <svg viewBox="0 0 15 15" width="100%" height="30px" preserveAspectRatio="xMaxYMin meet">
         <g id="arrow_out" transform="scale(0.3 0.3)">
          <a xlink:href="quickjs_8c_a85321334e4bec66bfc03451897a03a3b_icgraph_org.svg" target="_base">
           <rect id="button" ry="5" rx="5" y="6" x="6" height="38" width="38"
                fill="#f2f5e9" fill-opacity="0.5" stroke="#606060" stroke-width="1.0"/>
           <path id="arrow"
             d="M 11.500037,31.436501 C 11.940474,20.09759 22.043105,11.32322 32.158766,21.979434 L 37.068811,17.246167 C 37.068811,17.246167 37.088388,32 37.088388,32 L 22.160133,31.978069 C 22.160133,31.978069 26.997745,27.140456 26.997745,27.140456 C 18.528582,18.264221 13.291696,25.230495 11.500037,31.436501 z"
             style="fill:#404040;"/>
          </a>
         </g>
        </svg>
</svg>
