<?xml version="1.0" encoding="UTF-8" standalone="no"?>
<!DOCTYPE svg PUBLIC "-//W3C//DTD SVG 1.1//EN"
 "http://www.w3.org/Graphics/SVG/1.1/DTD/svg11.dtd">
<!-- Generated by graphviz version 2.43.0 (0)
 -->
<!-- Title: js_function_apply Pages: 1 -->
<svg width="568pt" height="256pt"
 viewBox="0.00 0.00 568.00 256.00" xmlns="http://www.w3.org/2000/svg" xmlns:xlink="http://www.w3.org/1999/xlink">
<g id="graph0" class="graph" transform="scale(1 1) rotate(0) translate(4 252)">
<title>js_function_apply</title>
<!-- Node1 -->
<g id="node1" class="node">
<title>Node1</title>
<g id="a_node1"><a xlink:title=" ">
<polygon fill="#bfbfbf" stroke="black" points="0,-152.5 0,-171.5 102,-171.5 102,-152.5 0,-152.5"/>
<text text-anchor="middle" x="51" y="-159.5" font-family="Helvetica,sans-Serif" font-size="10.00">js_function_apply</text>
</a>
</g>
</g>
<!-- Node2 -->
<g id="node2" class="node">
<title>Node2</title>
<g id="a_node2"><a xlink:href="quickjs_8c.html#a4956f45ffd2849b96dc051277264f87a" target="_top" xlink:title=" ">
<polygon fill="none" stroke="black" points="153,-152.5 153,-171.5 235,-171.5 235,-152.5 153,-152.5"/>
<text text-anchor="middle" x="194" y="-159.5" font-family="Helvetica,sans-Serif" font-size="10.00">build_arg_list</text>
</a>
</g>
</g>
<!-- Node1&#45;&gt;Node2 -->
<g id="edge1" class="edge">
<title>Node1&#45;&gt;Node2</title>
<path fill="none" stroke="midnightblue" d="M102.11,-162C115.22,-162 129.37,-162 142.51,-162"/>
<polygon fill="midnightblue" stroke="midnightblue" points="142.79,-165.5 152.79,-162 142.79,-158.5 142.79,-165.5"/>
</g>
<!-- Node3 -->
<g id="node3" class="node">
<title>Node3</title>
<g id="a_node3"><a xlink:href="quickjs_8c.html#ac864482356b3efc2d0b0a509fcfa4c7c" target="_top" xlink:title=" ">
<polygon fill="none" stroke="black" points="319,-228.5 319,-247.5 396,-247.5 396,-228.5 319,-228.5"/>
<text text-anchor="middle" x="357.5" y="-235.5" font-family="Helvetica,sans-Serif" font-size="10.00">free_arg_list</text>
</a>
</g>
</g>
<!-- Node1&#45;&gt;Node3 -->
<g id="edge13" class="edge">
<title>Node1&#45;&gt;Node3</title>
<path fill="none" stroke="midnightblue" d="M62.7,-171.72C78.08,-185.04 107.9,-208.49 138,-219 194.36,-238.69 263.64,-241.38 308.88,-240.52"/>
<polygon fill="midnightblue" stroke="midnightblue" points="309.09,-244.02 319,-240.26 308.91,-237.02 309.09,-244.02"/>
</g>
<!-- Node371 -->
<g id="node12" class="node">
<title>Node371</title>
<g id="a_node12"><a xlink:href="quickjs_8c.html#a59a7e992f228759bf0a56f0aae4f3cc3" target="_top" xlink:title=" ">
<polygon fill="none" stroke="red" points="149,-114.5 149,-133.5 239,-133.5 239,-114.5 149,-114.5"/>
<text text-anchor="middle" x="194" y="-121.5" font-family="Helvetica,sans-Serif" font-size="10.00">check_function</text>
</a>
</g>
</g>
<!-- Node1&#45;&gt;Node371 -->
<g id="edge12" class="edge">
<title>Node1&#45;&gt;Node371</title>
<path fill="none" stroke="midnightblue" d="M87.58,-152.41C105.78,-147.51 128.14,-141.48 147.57,-136.24"/>
<polygon fill="midnightblue" stroke="midnightblue" points="148.69,-139.57 157.43,-133.59 146.86,-132.81 148.69,-139.57"/>
</g>
<!-- Node278 -->
<g id="node13" class="node">
<title>Node278</title>
<g id="a_node13"><a xlink:href="quickjs_8c.html#a1a4c02a29525d5cb2085dd8bca3af350" target="_top" xlink:title=" ">
<polygon fill="none" stroke="red" points="169,-76.5 169,-95.5 219,-95.5 219,-76.5 169,-76.5"/>
<text text-anchor="middle" x="194" y="-83.5" font-family="Helvetica,sans-Serif" font-size="10.00">JS_Call</text>
</a>
</g>
</g>
<!-- Node1&#45;&gt;Node278 -->
<g id="edge14" class="edge">
<title>Node1&#45;&gt;Node278</title>
<path fill="none" stroke="midnightblue" d="M64.22,-152.45C80.37,-140.18 110.06,-118.81 138,-105 144.72,-101.68 152.18,-98.68 159.37,-96.11"/>
<polygon fill="midnightblue" stroke="midnightblue" points="160.57,-99.39 168.91,-92.86 158.32,-92.77 160.57,-99.39"/>
</g>
<!-- Node434 -->
<g id="node14" class="node">
<title>Node434</title>
<g id="a_node14"><a xlink:href="quickjs_8c.html#a03d5edf3e8bb18809d6675e5c08bac26" target="_top" xlink:title=" ">
<polygon fill="none" stroke="black" points="138,-190.5 138,-209.5 250,-209.5 250,-190.5 138,-190.5"/>
<text text-anchor="middle" x="194" y="-197.5" font-family="Helvetica,sans-Serif" font-size="10.00">JS_CallConstructor2</text>
</a>
</g>
</g>
<!-- Node1&#45;&gt;Node434 -->
<g id="edge15" class="edge">
<title>Node1&#45;&gt;Node434</title>
<path fill="none" stroke="midnightblue" d="M87.58,-171.59C105.78,-176.49 128.14,-182.52 147.57,-187.76"/>
<polygon fill="midnightblue" stroke="midnightblue" points="146.86,-191.19 157.43,-190.41 148.69,-184.43 146.86,-191.19"/>
</g>
<!-- Node2&#45;&gt;Node3 -->
<g id="edge2" class="edge">
<title>Node2&#45;&gt;Node3</title>
<path fill="none" stroke="midnightblue" d="M230.79,-171.56C237.44,-174.1 244.14,-177.22 250,-181 269.55,-193.6 266.02,-207.08 286,-219 293.04,-223.2 301.03,-226.49 309.03,-229.07"/>
<polygon fill="midnightblue" stroke="midnightblue" points="308.16,-232.46 318.74,-231.86 310.1,-225.73 308.16,-232.46"/>
</g>
<!-- Node42 -->
<g id="node6" class="node">
<title>Node42</title>
<g id="a_node6"><a xlink:href="quickjs_8h.html#a775522f2d084fc8fa0fcb33f390006b4" target="_top" xlink:title=" ">
<polygon fill="none" stroke="black" points="319,-152.5 319,-171.5 396,-171.5 396,-152.5 319,-152.5"/>
<text text-anchor="middle" x="357.5" y="-159.5" font-family="Helvetica,sans-Serif" font-size="10.00">JS_DupValue</text>
</a>
</g>
</g>
<!-- Node2&#45;&gt;Node42 -->
<g id="edge5" class="edge">
<title>Node2&#45;&gt;Node42</title>
<path fill="none" stroke="midnightblue" d="M235.34,-162C257.64,-162 285.48,-162 308.84,-162"/>
<polygon fill="midnightblue" stroke="midnightblue" points="308.89,-165.5 318.89,-162 308.89,-158.5 308.89,-165.5"/>
</g>
<!-- Node43 -->
<g id="node7" class="node">
<title>Node43</title>
<g id="a_node7"><a xlink:href="quickjs_8c.html#a718e904644ebc55548a5bdbd44f3adb9" target="_top" xlink:title=" ">
<polygon fill="none" stroke="black" points="310.5,-38.5 310.5,-57.5 404.5,-57.5 404.5,-38.5 310.5,-38.5"/>
<text text-anchor="middle" x="357.5" y="-45.5" font-family="Helvetica,sans-Serif" font-size="10.00">js_get_length32</text>
</a>
</g>
</g>
<!-- Node2&#45;&gt;Node43 -->
<g id="edge6" class="edge">
<title>Node2&#45;&gt;Node43</title>
<path fill="none" stroke="midnightblue" d="M234.88,-152.39C240.35,-149.93 245.58,-146.85 250,-143 276.67,-119.75 259.28,-95.19 286,-72 290.74,-67.88 296.22,-64.47 301.99,-61.63"/>
<polygon fill="midnightblue" stroke="midnightblue" points="303.44,-64.82 311.22,-57.63 300.66,-58.39 303.44,-64.82"/>
</g>
<!-- Node53 -->
<g id="node9" class="node">
<title>Node53</title>
<g id="a_node9"><a xlink:href="quickjs_8h.html#ad80a83d73e9b7d872b88fbf2943aebe9" target="_top" xlink:title=" ">
<polygon fill="none" stroke="black" points="469,-76.5 469,-95.5 556,-95.5 556,-76.5 469,-76.5"/>
<text text-anchor="middle" x="512.5" y="-83.5" font-family="Helvetica,sans-Serif" font-size="10.00">JS_IsException</text>
</a>
</g>
</g>
<!-- Node2&#45;&gt;Node53 -->
<g id="edge11" class="edge">
<title>Node2&#45;&gt;Node53</title>
<path fill="none" stroke="midnightblue" d="M230.79,-152.44C237.44,-149.9 244.14,-146.78 250,-143 269.55,-130.4 265.03,-115.08 286,-105 340.59,-78.75 411.23,-77.23 458.77,-80.17"/>
<polygon fill="midnightblue" stroke="midnightblue" points="458.63,-83.67 468.85,-80.88 459.12,-76.68 458.63,-83.67"/>
</g>
<!-- Node263 -->
<g id="node11" class="node">
<title>Node263</title>
<g id="a_node11"><a xlink:href="quickjs_8c.html#aeb97957655d979e9fe56c955da2b2d4b" target="_top" xlink:title=" ">
<polygon fill="none" stroke="red" points="296.5,-114.5 296.5,-133.5 418.5,-133.5 418.5,-114.5 296.5,-114.5"/>
<text text-anchor="middle" x="357.5" y="-121.5" font-family="Helvetica,sans-Serif" font-size="10.00">JS_GetPropertyUint32</text>
</a>
</g>
</g>
<!-- Node2&#45;&gt;Node263 -->
<g id="edge10" class="edge">
<title>Node2&#45;&gt;Node263</title>
<path fill="none" stroke="midnightblue" d="M235.34,-152.51C256.82,-147.45 283.45,-141.19 306.27,-135.82"/>
<polygon fill="midnightblue" stroke="midnightblue" points="307.19,-139.2 316.12,-133.5 305.58,-132.39 307.19,-139.2"/>
</g>
<!-- Node4 -->
<g id="node4" class="node">
<title>Node4</title>
<g id="a_node4"><a xlink:href="quickjs_8c.html#a80e54dcf9ac687d4ccc2f90273565f30" target="_top" xlink:title=" ">
<polygon fill="none" stroke="red" points="487.5,-228.5 487.5,-247.5 537.5,-247.5 537.5,-228.5 487.5,-228.5"/>
<text text-anchor="middle" x="512.5" y="-235.5" font-family="Helvetica,sans-Serif" font-size="10.00">js_free</text>
</a>
</g>
</g>
<!-- Node3&#45;&gt;Node4 -->
<g id="edge3" class="edge">
<title>Node3&#45;&gt;Node4</title>
<path fill="none" stroke="midnightblue" d="M396.32,-238C421.14,-238 453.34,-238 477.37,-238"/>
<polygon fill="midnightblue" stroke="midnightblue" points="477.46,-241.5 487.46,-238 477.46,-234.5 477.46,-241.5"/>
</g>
<!-- Node6 -->
<g id="node5" class="node">
<title>Node6</title>
<g id="a_node5"><a xlink:href="quickjs_8h.html#afaa20c47565bc704c6c85f3d77254e7d" target="_top" xlink:title=" ">
<polygon fill="none" stroke="red" points="473,-190.5 473,-209.5 552,-209.5 552,-190.5 473,-190.5"/>
<text text-anchor="middle" x="512.5" y="-197.5" font-family="Helvetica,sans-Serif" font-size="10.00">JS_FreeValue</text>
</a>
</g>
</g>
<!-- Node3&#45;&gt;Node6 -->
<g id="edge4" class="edge">
<title>Node3&#45;&gt;Node6</title>
<path fill="none" stroke="midnightblue" d="M396.32,-228.61C416.49,-223.6 441.52,-217.38 463.1,-212.02"/>
<polygon fill="midnightblue" stroke="midnightblue" points="464.19,-215.36 473.05,-209.55 462.5,-208.56 464.19,-215.36"/>
</g>
<!-- Node44 -->
<g id="node8" class="node">
<title>Node44</title>
<g id="a_node8"><a xlink:href="quickjs_8h.html#a89b7c8686c7eee70b86be722ee4730ad" target="_top" xlink:title=" ">
<polygon fill="none" stroke="red" points="468,-0.5 468,-19.5 557,-19.5 557,-0.5 468,-0.5"/>
<text text-anchor="middle" x="512.5" y="-7.5" font-family="Helvetica,sans-Serif" font-size="10.00">JS_GetProperty</text>
</a>
</g>
</g>
<!-- Node43&#45;&gt;Node44 -->
<g id="edge7" class="edge">
<title>Node43&#45;&gt;Node44</title>
<path fill="none" stroke="midnightblue" d="M397.11,-38.41C417.21,-33.42 441.98,-27.27 463.32,-21.97"/>
<polygon fill="midnightblue" stroke="midnightblue" points="464.31,-25.33 473.17,-19.52 462.62,-18.53 464.31,-25.33"/>
</g>
<!-- Node43&#45;&gt;Node53 -->
<g id="edge8" class="edge">
<title>Node43&#45;&gt;Node53</title>
<path fill="none" stroke="midnightblue" d="M397.11,-57.59C417.21,-62.58 441.98,-68.73 463.32,-74.03"/>
<polygon fill="midnightblue" stroke="midnightblue" points="462.62,-77.47 473.17,-76.48 464.31,-70.67 462.62,-77.47"/>
</g>
<!-- Node425 -->
<g id="node10" class="node">
<title>Node425</title>
<g id="a_node10"><a xlink:href="quickjs_8c.html#abb4af1ff2252e70ad0e5a9c25550f548" target="_top" xlink:title=" ">
<polygon fill="none" stroke="red" points="465,-38.5 465,-57.5 560,-57.5 560,-38.5 465,-38.5"/>
<text text-anchor="middle" x="512.5" y="-45.5" font-family="Helvetica,sans-Serif" font-size="10.00">JS_ToUint32Free</text>
</a>
</g>
</g>
<!-- Node43&#45;&gt;Node425 -->
<g id="edge9" class="edge">
<title>Node43&#45;&gt;Node425</title>
<path fill="none" stroke="midnightblue" d="M404.82,-48C420.55,-48 438.31,-48 454.76,-48"/>
<polygon fill="midnightblue" stroke="midnightblue" points="454.81,-51.5 464.81,-48 454.81,-44.5 454.81,-51.5"/>
</g>
<!-- Node288 -->
<g id="node15" class="node">
<title>Node288</title>
<g id="a_node15"><a xlink:href="quickjs_8c.html#ad35594576a14c10812efaf958c99af8a" target="_top" xlink:title=" ">
<polygon fill="none" stroke="red" points="286,-190.5 286,-209.5 429,-209.5 429,-190.5 286,-190.5"/>
<text text-anchor="middle" x="357.5" y="-197.5" font-family="Helvetica,sans-Serif" font-size="10.00">JS_CallConstructorInternal</text>
</a>
</g>
</g>
<!-- Node434&#45;&gt;Node288 -->
<g id="edge16" class="edge">
<title>Node434&#45;&gt;Node288</title>
<path fill="none" stroke="midnightblue" d="M250.13,-200C258.4,-200 267.08,-200 275.75,-200"/>
<polygon fill="midnightblue" stroke="midnightblue" points="275.92,-203.5 285.92,-200 275.92,-196.5 275.92,-203.5"/>
</g>
<!-- Node288&#45;&gt;Node6 -->
<g id="edge17" class="edge">
<title>Node288&#45;&gt;Node6</title>
<path fill="none" stroke="midnightblue" d="M429.18,-200C440.45,-200 451.9,-200 462.52,-200"/>
<polygon fill="midnightblue" stroke="midnightblue" points="462.84,-203.5 472.84,-200 462.84,-196.5 462.84,-203.5"/>
</g>
<!-- Node288&#45;&gt;Node53 -->
<g id="edge18" class="edge">
<title>Node288&#45;&gt;Node53</title>
<path fill="none" stroke="midnightblue" d="M408.6,-190.49C415.74,-188.01 422.77,-184.9 429,-181 460.45,-161.31 486.48,-125.92 500.45,-104.34"/>
<polygon fill="midnightblue" stroke="midnightblue" points="503.48,-106.09 505.83,-95.76 497.55,-102.37 503.48,-106.09"/>
</g>
</g>
</svg>
