<?xml version="1.0" encoding="UTF-8" standalone="no"?>
<!DOCTYPE svg PUBLIC "-//W3C//DTD SVG 1.1//EN"
 "http://www.w3.org/Graphics/SVG/1.1/DTD/svg11.dtd">
<!-- Generated by graphviz version 2.43.0 (0)
 -->
<!-- Title: JS_FreeAtomRT Pages: 1 -->
<svg width="572pt" height="280pt"
 viewBox="0.00 0.00 572.00 279.50" xmlns="http://www.w3.org/2000/svg" xmlns:xlink="http://www.w3.org/1999/xlink">
<g id="graph0" class="graph" transform="scale(1 1) rotate(0) translate(4 275.5)">
<title>JS_FreeAtomRT</title>
<!-- Node1 -->
<g id="node1" class="node">
<title>Node1</title>
<g id="a_node1"><a xlink:title=" ">
<polygon fill="#bfbfbf" stroke="black" points="474,-176 474,-195 564,-195 564,-176 474,-176"/>
<text text-anchor="middle" x="519" y="-183" font-family="Helvetica,sans-Serif" font-size="10.00">JS_FreeAtomRT</text>
</a>
</g>
</g>
<!-- Node2 -->
<g id="node2" class="node">
<title>Node2</title>
<g id="a_node2"><a xlink:href="quickjs_8c.html#a3242b1f6e8d8ecc3c27ee7c2caa647a3" target="_top" xlink:title=" ">
<polygon fill="none" stroke="black" points="316,-214 316,-233 438,-233 438,-214 316,-214"/>
<text text-anchor="middle" x="377" y="-221" font-family="Helvetica,sans-Serif" font-size="10.00">free_bytecode_atoms</text>
</a>
</g>
</g>
<!-- Node1&#45;&gt;Node2 -->
<g id="edge1" class="edge">
<title>Node1&#45;&gt;Node2</title>
<path fill="none" stroke="midnightblue" d="M472.88,-197.75C453.59,-202.98 431.39,-209.01 413.32,-213.91"/>
<polygon fill="midnightblue" stroke="midnightblue" points="473.94,-201.09 482.67,-195.09 472.1,-194.33 473.94,-201.09"/>
</g>
<!-- Node3 -->
<g id="node3" class="node">
<title>Node3</title>
<g id="a_node3"><a xlink:href="quickjs_8c.html#adc4a49d7eb1cc1ec4b3a8c37ab8cb075" target="_top" xlink:title=" ">
<polygon fill="none" stroke="black" points="141,-252 141,-271 272,-271 272,-252 141,-252"/>
<text text-anchor="middle" x="206.5" y="-259" font-family="Helvetica,sans-Serif" font-size="10.00">free_function_bytecode</text>
</a>
</g>
</g>
<!-- Node1&#45;&gt;Node3 -->
<g id="edge6" class="edge">
<title>Node1&#45;&gt;Node3</title>
<path fill="none" stroke="midnightblue" d="M500.62,-202.15C485.42,-215.61 462.05,-233.7 438,-242.5 384.45,-262.09 319.39,-265.79 272.06,-265.2"/>
<polygon fill="midnightblue" stroke="midnightblue" points="503.16,-204.58 508.19,-195.25 498.44,-199.41 503.16,-204.58"/>
</g>
<!-- Node715 -->
<g id="node6" class="node">
<title>Node715</title>
<g id="a_node6"><a xlink:href="quickjs_8c.html#a6f921a6312ada5c7da7b485e24d37f54" target="_top" xlink:title=" ">
<polygon fill="none" stroke="red" points="332,-176 332,-195 422,-195 422,-176 332,-176"/>
<text text-anchor="middle" x="377" y="-183" font-family="Helvetica,sans-Serif" font-size="10.00">js_free_shape0</text>
</a>
</g>
</g>
<!-- Node1&#45;&gt;Node715 -->
<g id="edge7" class="edge">
<title>Node1&#45;&gt;Node715</title>
<path fill="none" stroke="midnightblue" d="M463.41,-185.5C449.69,-185.5 435.14,-185.5 422.01,-185.5"/>
<polygon fill="midnightblue" stroke="midnightblue" points="463.7,-189 473.7,-185.5 463.7,-182 463.7,-189"/>
</g>
<!-- Node739 -->
<g id="node7" class="node">
<title>Node739</title>
<g id="a_node7"><a xlink:href="quickjs_8c.html#ad80a65b72c3a346d8a0047858a5f0b13" target="_top" xlink:title=" ">
<polygon fill="none" stroke="red" points="330.5,-138 330.5,-157 423.5,-157 423.5,-138 330.5,-138"/>
<text text-anchor="middle" x="377" y="-145" font-family="Helvetica,sans-Serif" font-size="10.00">JS_FreeRuntime</text>
</a>
</g>
</g>
<!-- Node1&#45;&gt;Node739 -->
<g id="edge8" class="edge">
<title>Node1&#45;&gt;Node739</title>
<path fill="none" stroke="midnightblue" d="M472.88,-173.25C453.59,-168.02 431.39,-161.99 413.32,-157.09"/>
<polygon fill="midnightblue" stroke="midnightblue" points="472.1,-176.67 482.67,-175.91 473.94,-169.91 472.1,-176.67"/>
</g>
<!-- Node755 -->
<g id="node8" class="node">
<title>Node755</title>
<g id="a_node8"><a xlink:href="quickjs_8c.html#a9f0339d81c06451de278073572cc194e" target="_top" xlink:title=" ">
<polygon fill="none" stroke="black" points="337.5,-100 337.5,-119 416.5,-119 416.5,-100 337.5,-100"/>
<text text-anchor="middle" x="377" y="-107" font-family="Helvetica,sans-Serif" font-size="10.00">JS_NewClass</text>
</a>
</g>
</g>
<!-- Node1&#45;&gt;Node755 -->
<g id="edge9" class="edge">
<title>Node1&#45;&gt;Node755</title>
<path fill="none" stroke="midnightblue" d="M499.25,-169.55C483.69,-156.98 460.53,-139.74 438,-128.5 430.67,-124.84 422.48,-121.69 414.57,-119.08"/>
<polygon fill="midnightblue" stroke="midnightblue" points="497.12,-172.33 507.06,-175.99 501.57,-166.93 497.12,-172.33"/>
</g>
<!-- Node2&#45;&gt;Node3 -->
<g id="edge2" class="edge">
<title>Node2&#45;&gt;Node3</title>
<path fill="none" stroke="midnightblue" d="M323.57,-235.32C299.81,-240.68 272.1,-246.93 249.71,-251.98"/>
<polygon fill="midnightblue" stroke="midnightblue" points="324.5,-238.7 333.48,-233.09 322.96,-231.87 324.5,-238.7"/>
</g>
<!-- Node645 -->
<g id="node5" class="node">
<title>Node645</title>
<g id="a_node5"><a xlink:href="quickjs_8c.html#a1b660b405f6a69b35dd871279c780ef7" target="_top" xlink:title=" ">
<polygon fill="none" stroke="red" points="148.5,-196 148.5,-215 264.5,-215 264.5,-196 148.5,-196"/>
<text text-anchor="middle" x="206.5" y="-203" font-family="Helvetica,sans-Serif" font-size="10.00">js_free_function_def</text>
</a>
</g>
</g>
<!-- Node2&#45;&gt;Node645 -->
<g id="edge4" class="edge">
<title>Node2&#45;&gt;Node645</title>
<path fill="none" stroke="midnightblue" d="M305.37,-215.96C291.79,-214.5 277.71,-213 264.62,-211.6"/>
<polygon fill="midnightblue" stroke="midnightblue" points="305.33,-219.47 315.64,-217.05 306.07,-212.51 305.33,-219.47"/>
</g>
<!-- Node4 -->
<g id="node4" class="node">
<title>Node4</title>
<g id="a_node4"><a xlink:href="quickjs_8c.html#a3d1c7a8d6aa5a9ba8ea8ef2828db188a" target="_top" xlink:title=" ">
<polygon fill="none" stroke="red" points="4.5,-252 4.5,-271 92.5,-271 92.5,-252 4.5,-252"/>
<text text-anchor="middle" x="48.5" y="-259" font-family="Helvetica,sans-Serif" font-size="10.00">free_gc_object</text>
</a>
</g>
</g>
<!-- Node3&#45;&gt;Node4 -->
<g id="edge3" class="edge">
<title>Node3&#45;&gt;Node4</title>
<path fill="none" stroke="midnightblue" d="M130.34,-261.5C117.37,-261.5 104.29,-261.5 92.55,-261.5"/>
<polygon fill="midnightblue" stroke="midnightblue" points="130.7,-265 140.7,-261.5 130.7,-258 130.7,-265"/>
</g>
<!-- Node645&#45;&gt;Node645 -->
<g id="edge5" class="edge">
<title>Node645&#45;&gt;Node645</title>
<path fill="none" stroke="midnightblue" d="M235.99,-224.15C234.76,-229.44 224.93,-233.5 206.5,-233.5 178.42,-233.5 170.3,-224.07 182.15,-215.26"/>
<polygon fill="midnightblue" stroke="midnightblue" points="238.89,-222.16 230.85,-215.26 232.82,-225.67 238.89,-222.16"/>
</g>
<!-- Node33 -->
<g id="node9" class="node">
<title>Node33</title>
<g id="a_node9"><a xlink:href="quickjs-libc_8c.html#a066e7962ce24f22d5df20968a8baa346" target="_top" xlink:title=" ">
<polygon fill="none" stroke="red" points="175.5,-148 175.5,-167 237.5,-167 237.5,-148 175.5,-148"/>
<text text-anchor="middle" x="206.5" y="-155" font-family="Helvetica,sans-Serif" font-size="10.00">js_os_init</text>
</a>
</g>
</g>
<!-- Node755&#45;&gt;Node33 -->
<g id="edge10" class="edge">
<title>Node755&#45;&gt;Node33</title>
<path fill="none" stroke="midnightblue" d="M335.7,-122.04C318.57,-127.27 298.35,-133.33 280,-138.5 266.1,-142.42 250.62,-146.51 237.55,-149.89"/>
<polygon fill="midnightblue" stroke="midnightblue" points="336.86,-125.34 345.39,-119.06 334.8,-118.65 336.86,-125.34"/>
</g>
<!-- Node293 -->
<g id="node10" class="node">
<title>Node293</title>
<g id="a_node10"><a xlink:href="quickjs-libc_8c.html#a08cea1a0226b7603e6969e2208d99d55" target="_top" xlink:title=" ">
<polygon fill="none" stroke="red" points="173.5,-110 173.5,-129 239.5,-129 239.5,-110 173.5,-110"/>
<text text-anchor="middle" x="206.5" y="-117" font-family="Helvetica,sans-Serif" font-size="10.00">js_std_init</text>
</a>
</g>
</g>
<!-- Node755&#45;&gt;Node293 -->
<g id="edge11" class="edge">
<title>Node755&#45;&gt;Node293</title>
<path fill="none" stroke="midnightblue" d="M327.3,-112.39C299.15,-114.06 264.53,-116.12 239.75,-117.59"/>
<polygon fill="midnightblue" stroke="midnightblue" points="327.57,-115.88 337.34,-111.79 327.15,-108.89 327.57,-115.88"/>
</g>
<!-- Node687 -->
<g id="node11" class="node">
<title>Node687</title>
<g id="a_node11"><a xlink:href="structqjs_1_1js__traits_3_01std_1_1shared__ptr_3_01T_01_4_01_4.html#af3558afeef079826c58411353c8ccce0" target="_top" xlink:title="Register class in QuickJS context.">
<polygon fill="none" stroke="red" points="149.5,-50 149.5,-91 263.5,-91 263.5,-50 149.5,-50"/>
<text text-anchor="start" x="157.5" y="-79" font-family="Helvetica,sans-Serif" font-size="10.00">qjs::js_traits&lt; std</text>
<text text-anchor="start" x="157.5" y="-68" font-family="Helvetica,sans-Serif" font-size="10.00">::shared_ptr&lt; T &gt; &gt;</text>
<text text-anchor="middle" x="206.5" y="-57" font-family="Helvetica,sans-Serif" font-size="10.00">::register_class</text>
</a>
</g>
</g>
<!-- Node755&#45;&gt;Node687 -->
<g id="edge12" class="edge">
<title>Node755&#45;&gt;Node687</title>
<path fill="none" stroke="midnightblue" d="M327.52,-98.28C307.54,-93.65 284.26,-88.27 263.55,-83.47"/>
<polygon fill="midnightblue" stroke="midnightblue" points="326.81,-101.71 337.34,-100.55 328.39,-94.89 326.81,-101.71"/>
</g>
<!-- Node756 -->
<g id="node12" class="node">
<title>Node756</title>
<g id="a_node12"><a xlink:href="structqjs_1_1js__traits_3_01detail_1_1function_01_4.html#afe383c63f389edaf9f878cd30062d37f" target="_top" xlink:title=" ">
<polygon fill="none" stroke="black" points="133,-0.5 133,-30.5 280,-30.5 280,-0.5 133,-0.5"/>
<text text-anchor="start" x="141" y="-18.5" font-family="Helvetica,sans-Serif" font-size="10.00">qjs::js_traits&lt; detail</text>
<text text-anchor="middle" x="206.5" y="-7.5" font-family="Helvetica,sans-Serif" font-size="10.00">::function &gt;::register_class</text>
</a>
</g>
</g>
<!-- Node755&#45;&gt;Node756 -->
<g id="edge13" class="edge">
<title>Node755&#45;&gt;Node756</title>
<path fill="none" stroke="midnightblue" d="M357.17,-93.41C338.55,-78.15 308.77,-55.39 280,-40.5 272.91,-36.83 265.15,-33.5 257.44,-30.57"/>
<polygon fill="midnightblue" stroke="midnightblue" points="354.96,-96.13 364.89,-99.84 359.44,-90.75 354.96,-96.13"/>
</g>
<!-- Node757 -->
<g id="node13" class="node">
<title>Node757</title>
<g id="a_node13"><a xlink:href="classqjs_1_1Context.html#aae629cc551168d549a405db5c762b61e" target="_top" xlink:title=" ">
<polygon fill="none" stroke="red" points="0,-6 0,-25 97,-25 97,-6 0,-6"/>
<text text-anchor="middle" x="48.5" y="-13" font-family="Helvetica,sans-Serif" font-size="10.00">qjs::Context::init</text>
</a>
</g>
</g>
<!-- Node756&#45;&gt;Node757 -->
<g id="edge14" class="edge">
<title>Node756&#45;&gt;Node757</title>
<path fill="none" stroke="midnightblue" d="M122.76,-15.5C114.06,-15.5 105.44,-15.5 97.34,-15.5"/>
<polygon fill="midnightblue" stroke="midnightblue" points="122.98,-19 132.98,-15.5 122.98,-12 122.98,-19"/>
</g>
</g>
</svg>
