<?xml version="1.0" encoding="UTF-8" standalone="no"?>
<!DOCTYPE svg PUBLIC "-//W3C//DTD SVG 1.1//EN"
 "http://www.w3.org/Graphics/SVG/1.1/DTD/svg11.dtd">
<!-- Generated by graphviz version 2.43.0 (0)
 -->
<!-- Title: js_string_match Pages: 1 -->
<svg width="1040pt" height="665pt"
 viewBox="0.00 0.00 1040.00 665.42" xmlns="http://www.w3.org/2000/svg" xmlns:xlink="http://www.w3.org/1999/xlink">
<g id="graph0" class="graph" transform="scale(1 1) rotate(0) translate(4 661.42)">
<title>js_string_match</title>
<!-- Node1 -->
<g id="node1" class="node">
<title>Node1</title>
<g id="a_node1"><a xlink:title=" ">
<polygon fill="#bfbfbf" stroke="black" points="0,-304.5 0,-323.5 94,-323.5 94,-304.5 0,-304.5"/>
<text text-anchor="middle" x="47" y="-311.5" font-family="Helvetica,sans-Serif" font-size="10.00">js_string_match</text>
</a>
</g>
</g>
<!-- Node2 -->
<g id="node2" class="node">
<title>Node2</title>
<g id="a_node2"><a xlink:href="quickjs_8c.html#a93aaed931ba8fcbf558c02a846fc7844" target="_top" xlink:title=" ">
<polygon fill="none" stroke="black" points="130,-266.5 130,-285.5 249,-285.5 249,-266.5 130,-266.5"/>
<text text-anchor="middle" x="189.5" y="-273.5" font-family="Helvetica,sans-Serif" font-size="10.00">check_regexp_g_flag</text>
</a>
</g>
</g>
<!-- Node1&#45;&gt;Node2 -->
<g id="edge1" class="edge">
<title>Node1&#45;&gt;Node2</title>
<path fill="none" stroke="midnightblue" d="M83.45,-304.41C101.59,-299.51 123.87,-293.48 143.23,-288.24"/>
<polygon fill="midnightblue" stroke="midnightblue" points="144.32,-291.58 153.06,-285.59 142.49,-284.82 144.32,-291.58"/>
</g>
<!-- Node3 -->
<g id="node3" class="node">
<title>Node3</title>
<g id="a_node3"><a xlink:href="quickjs_8h.html#afaa20c47565bc704c6c85f3d77254e7d" target="_top" xlink:title=" ">
<polygon fill="none" stroke="black" points="828,-494.5 828,-513.5 907,-513.5 907,-494.5 828,-494.5"/>
<text text-anchor="middle" x="867.5" y="-501.5" font-family="Helvetica,sans-Serif" font-size="10.00">JS_FreeValue</text>
</a>
</g>
</g>
<!-- Node1&#45;&gt;Node3 -->
<g id="edge26" class="edge">
<title>Node1&#45;&gt;Node3</title>
<path fill="none" stroke="midnightblue" d="M47.56,-323.67C46.27,-364.24 46.94,-522.34 130,-603 199.05,-670.06 243.74,-656 340,-656 340,-656 340,-656 622.5,-656 704.35,-656 724.98,-630.98 792,-584 816.88,-566.56 839.78,-539.65 853.44,-521.93"/>
<polygon fill="midnightblue" stroke="midnightblue" points="856.49,-523.7 859.71,-513.6 850.9,-519.49 856.49,-523.7"/>
</g>
<!-- Node41 -->
<g id="node5" class="node">
<title>Node41</title>
<g id="a_node5"><a xlink:href="quickjs_8h.html#a89b7c8686c7eee70b86be722ee4730ad" target="_top" xlink:title=" ">
<polygon fill="none" stroke="black" points="433,-494.5 433,-513.5 522,-513.5 522,-494.5 433,-494.5"/>
<text text-anchor="middle" x="477.5" y="-501.5" font-family="Helvetica,sans-Serif" font-size="10.00">JS_GetProperty</text>
</a>
</g>
</g>
<!-- Node1&#45;&gt;Node41 -->
<g id="edge27" class="edge">
<title>Node1&#45;&gt;Node41</title>
<path fill="none" stroke="midnightblue" d="M57.18,-323.92C71.46,-338.83 100.44,-367.07 130,-384 226.49,-439.25 352.61,-474.97 423.01,-492.09"/>
<polygon fill="midnightblue" stroke="midnightblue" points="422.44,-495.55 432.98,-494.48 424.08,-488.74 422.44,-495.55"/>
</g>
<!-- Node103 -->
<g id="node7" class="node">
<title>Node103</title>
<g id="a_node7"><a xlink:href="quickjs_8c.html#a75f6ee5e4235a7dc99889f3d2eb2c147" target="_top" xlink:title=" ">
<polygon fill="none" stroke="red" points="721,-532.5 721,-551.5 792,-551.5 792,-532.5 721,-532.5"/>
<text text-anchor="middle" x="756.5" y="-539.5" font-family="Helvetica,sans-Serif" font-size="10.00">JS_CallFree</text>
</a>
</g>
</g>
<!-- Node1&#45;&gt;Node103 -->
<g id="edge25" class="edge">
<title>Node1&#45;&gt;Node103</title>
<path fill="none" stroke="midnightblue" d="M48.14,-323.73C49.21,-360.58 58.12,-493 130,-561 200.26,-627.46 243.29,-618 340,-618 340,-618 340,-618 478.5,-618 571.53,-618 676.08,-577.64 725.95,-555.74"/>
<polygon fill="midnightblue" stroke="midnightblue" points="727.47,-558.9 735.18,-551.63 724.62,-552.5 727.47,-558.9"/>
</g>
<!-- Node50 -->
<g id="node10" class="node">
<title>Node50</title>
<g id="a_node10"><a xlink:href="quickjs_8h.html#ad80a83d73e9b7d872b88fbf2943aebe9" target="_top" xlink:title=" ">
<polygon fill="none" stroke="black" points="434,-456.5 434,-475.5 521,-475.5 521,-456.5 434,-456.5"/>
<text text-anchor="middle" x="477.5" y="-463.5" font-family="Helvetica,sans-Serif" font-size="10.00">JS_IsException</text>
</a>
</g>
</g>
<!-- Node1&#45;&gt;Node50 -->
<g id="edge34" class="edge">
<title>Node1&#45;&gt;Node50</title>
<path fill="none" stroke="midnightblue" d="M71.02,-323.53C113.16,-340.83 205.65,-378.2 285,-406 335.71,-423.76 394.82,-441.9 433.8,-453.51"/>
<polygon fill="midnightblue" stroke="midnightblue" points="433.17,-456.98 443.75,-456.46 435.16,-450.26 433.17,-456.98"/>
</g>
<!-- Node209 -->
<g id="node12" class="node">
<title>Node209</title>
<g id="a_node12"><a xlink:href="quickjs_8h.html#a4e407128a9605afb77523e49e9a627fd" target="_top" xlink:title=" ">
<polygon fill="none" stroke="black" points="433,-304.5 433,-323.5 522,-323.5 522,-304.5 433,-304.5"/>
<text text-anchor="middle" x="477.5" y="-311.5" font-family="Helvetica,sans-Serif" font-size="10.00">JS_IsUndefined</text>
</a>
</g>
</g>
<!-- Node1&#45;&gt;Node209 -->
<g id="edge36" class="edge">
<title>Node1&#45;&gt;Node209</title>
<path fill="none" stroke="midnightblue" d="M94.26,-314C174.25,-314 337.93,-314 422.8,-314"/>
<polygon fill="midnightblue" stroke="midnightblue" points="422.99,-317.5 432.99,-314 422.99,-310.5 422.99,-317.5"/>
</g>
<!-- Node206 -->
<g id="node14" class="node">
<title>Node206</title>
<g id="a_node14"><a xlink:href="quickjs_8h.html#a149f24b67e745bad93573b3b4c80db4c" target="_top" xlink:title=" ">
<polygon fill="none" stroke="black" points="311.5,-114.5 311.5,-133.5 370.5,-133.5 370.5,-114.5 311.5,-114.5"/>
<text text-anchor="middle" x="341" y="-121.5" font-family="Helvetica,sans-Serif" font-size="10.00">JS_IsNull</text>
</a>
</g>
</g>
<!-- Node1&#45;&gt;Node206 -->
<g id="edge35" class="edge">
<title>Node1&#45;&gt;Node206</title>
<path fill="none" stroke="midnightblue" d="M59.05,-304.18C91.53,-275.71 190.43,-192.09 285,-143 290.28,-140.26 296.05,-137.77 301.8,-135.57"/>
<polygon fill="midnightblue" stroke="midnightblue" points="303.13,-138.81 311.36,-132.13 300.77,-132.22 303.13,-138.81"/>
</g>
<!-- Node74 -->
<g id="node16" class="node">
<title>Node74</title>
<g id="a_node16"><a xlink:href="quickjs_8c.html#a7bcb8e1a20cbc8374a5f9ba4a2088cec" target="_top" xlink:title=" ">
<polygon fill="none" stroke="red" points="442.5,-95.5 442.5,-114.5 512.5,-114.5 512.5,-95.5 442.5,-95.5"/>
<text text-anchor="middle" x="477.5" y="-102.5" font-family="Helvetica,sans-Serif" font-size="10.00">JS_ToString</text>
</a>
</g>
</g>
<!-- Node1&#45;&gt;Node74 -->
<g id="edge38" class="edge">
<title>Node1&#45;&gt;Node74</title>
<path fill="none" stroke="midnightblue" d="M50.6,-304.28C58.2,-277.66 82.88,-202.85 130,-162 215.73,-87.68 359.92,-91.29 432.28,-98.81"/>
<polygon fill="midnightblue" stroke="midnightblue" points="432.09,-102.31 442.42,-99.93 432.87,-95.35 432.09,-102.31"/>
</g>
<!-- Node374 -->
<g id="node18" class="node">
<title>Node374</title>
<g id="a_node18"><a xlink:href="quickjs_8c.html#a28704096ee67c5b0ab1bd60ce050e36a" target="_top" xlink:title=" ">
<polygon fill="none" stroke="red" points="136.5,-38.5 136.5,-57.5 242.5,-57.5 242.5,-38.5 136.5,-38.5"/>
<text text-anchor="middle" x="189.5" y="-45.5" font-family="Helvetica,sans-Serif" font-size="10.00">JS_CallConstructor</text>
</a>
</g>
</g>
<!-- Node1&#45;&gt;Node374 -->
<g id="edge24" class="edge">
<title>Node1&#45;&gt;Node374</title>
<path fill="none" stroke="midnightblue" d="M48.51,-304.25C50.88,-268.41 63.79,-142.49 130,-72 133.57,-68.2 137.83,-64.98 142.41,-62.26"/>
<polygon fill="midnightblue" stroke="midnightblue" points="144.17,-65.29 151.49,-57.62 140.99,-59.05 144.17,-65.29"/>
</g>
<!-- Node441 -->
<g id="node19" class="node">
<title>Node441</title>
<g id="a_node19"><a xlink:href="quickjs_8c.html#ad31f7a1d61971bfacede26cef8204a91" target="_top" xlink:title=" ">
<polygon fill="none" stroke="black" points="147.5,-532.5 147.5,-551.5 231.5,-551.5 231.5,-532.5 147.5,-532.5"/>
<text text-anchor="middle" x="189.5" y="-539.5" font-family="Helvetica,sans-Serif" font-size="10.00">JS_InvokeFree</text>
</a>
</g>
</g>
<!-- Node1&#45;&gt;Node441 -->
<g id="edge28" class="edge">
<title>Node1&#45;&gt;Node441</title>
<path fill="none" stroke="midnightblue" d="M49.19,-323.54C53.64,-355.46 72.18,-459.76 130,-518 133.87,-521.9 138.46,-525.18 143.34,-527.96"/>
<polygon fill="midnightblue" stroke="midnightblue" points="141.83,-531.11 152.34,-532.4 144.93,-524.84 141.83,-531.11"/>
</g>
<!-- Node78 -->
<g id="node21" class="node">
<title>Node78</title>
<g id="a_node21"><a xlink:href="quickjs_8c.html#a0ee6a3654a6016393fac5e1c108f403a" target="_top" xlink:title=" ">
<polygon fill="none" stroke="red" points="149,-0.5 149,-19.5 230,-19.5 230,-0.5 149,-0.5"/>
<text text-anchor="middle" x="189.5" y="-7.5" font-family="Helvetica,sans-Serif" font-size="10.00">JS_NewString</text>
</a>
</g>
</g>
<!-- Node1&#45;&gt;Node78 -->
<g id="edge37" class="edge">
<title>Node1&#45;&gt;Node78</title>
<path fill="none" stroke="midnightblue" d="M47.75,-304.33C47.25,-264.46 50.74,-110.99 130,-29 132.84,-26.06 136.14,-23.58 139.7,-21.48"/>
<polygon fill="midnightblue" stroke="midnightblue" points="141.47,-24.5 148.96,-17 138.43,-18.2 141.47,-24.5"/>
</g>
<!-- Node2&#45;&gt;Node3 -->
<g id="edge2" class="edge">
<title>Node2&#45;&gt;Node3</title>
<path fill="none" stroke="midnightblue" d="M211.52,-266.37C258.15,-245.92 374.26,-200 476.5,-200 476.5,-200 476.5,-200 622.5,-200 768.98,-200 842.19,-417.32 861.32,-484.47"/>
<polygon fill="midnightblue" stroke="midnightblue" points="857.98,-485.52 864.01,-494.23 864.72,-483.66 857.98,-485.52"/>
</g>
<!-- Node2&#45;&gt;Node41 -->
<g id="edge4" class="edge">
<title>Node2&#45;&gt;Node41</title>
<path fill="none" stroke="midnightblue" d="M195.48,-285.63C207.89,-308.86 242.28,-368.81 285,-406 331.42,-446.41 397.43,-475.4 438.57,-490.93"/>
<polygon fill="midnightblue" stroke="midnightblue" points="437.37,-494.22 447.96,-494.41 439.8,-487.65 437.37,-494.22"/>
</g>
<!-- Node437 -->
<g id="node8" class="node">
<title>Node437</title>
<g id="a_node8"><a xlink:href="quickjs_8c.html#a34780713146b6995321c8880802b7d9d" target="_top" xlink:title=" ">
<polygon fill="none" stroke="black" points="302.5,-342.5 302.5,-361.5 379.5,-361.5 379.5,-342.5 302.5,-342.5"/>
<text text-anchor="middle" x="341" y="-349.5" font-family="Helvetica,sans-Serif" font-size="10.00">js_is_regexp</text>
</a>
</g>
</g>
<!-- Node2&#45;&gt;Node437 -->
<g id="edge9" class="edge">
<title>Node2&#45;&gt;Node437</title>
<path fill="none" stroke="midnightblue" d="M209.43,-285.63C235.38,-298.82 282.18,-322.61 312.13,-337.83"/>
<polygon fill="midnightblue" stroke="midnightblue" points="310.72,-341.04 321.22,-342.45 313.89,-334.8 310.72,-341.04"/>
</g>
<!-- Node2&#45;&gt;Node50 -->
<g id="edge17" class="edge">
<title>Node2&#45;&gt;Node50</title>
<path fill="none" stroke="midnightblue" d="M197.79,-285.68C212.41,-304.51 247.18,-346.37 285,-371 329.68,-400.1 351.66,-385.94 397,-414 415.46,-425.42 414.81,-435.16 433,-447 435.61,-448.7 438.4,-450.31 441.25,-451.82"/>
<polygon fill="midnightblue" stroke="midnightblue" points="439.94,-455.08 450.47,-456.3 443,-448.78 439.94,-455.08"/>
</g>
<!-- Node2&#45;&gt;Node209 -->
<g id="edge19" class="edge">
<title>Node2&#45;&gt;Node209</title>
<path fill="none" stroke="midnightblue" d="M219,-266.42C259.56,-254.33 335.82,-237.33 397,-257 421.56,-264.89 444.96,-283.48 459.93,-297.3"/>
<polygon fill="midnightblue" stroke="midnightblue" points="457.69,-300 467.34,-304.39 462.53,-294.94 457.69,-300"/>
</g>
<!-- Node2&#45;&gt;Node206 -->
<g id="edge18" class="edge">
<title>Node2&#45;&gt;Node206</title>
<path fill="none" stroke="midnightblue" d="M197.59,-266.32C208.65,-251.17 230.67,-220.92 249,-195 265.23,-172.05 262.6,-159.99 285,-143 290.07,-139.15 295.98,-136.05 302,-133.56"/>
<polygon fill="midnightblue" stroke="midnightblue" points="303.25,-136.82 311.46,-130.12 300.86,-130.25 303.25,-136.82"/>
</g>
<!-- Node256 -->
<g id="node15" class="node">
<title>Node256</title>
<g id="a_node15"><a xlink:href="quickjs_8c.html#a38cad713b74c445668210ea8614bfb65" target="_top" xlink:title=" ">
<polygon fill="none" stroke="black" points="295.5,-152.5 295.5,-171.5 386.5,-171.5 386.5,-152.5 295.5,-152.5"/>
<text text-anchor="middle" x="341" y="-159.5" font-family="Helvetica,sans-Serif" font-size="10.00">JS_ToStringFree</text>
</a>
</g>
</g>
<!-- Node2&#45;&gt;Node256 -->
<g id="edge20" class="edge">
<title>Node2&#45;&gt;Node256</title>
<path fill="none" stroke="midnightblue" d="M198.47,-266.45C213.73,-248.66 248.76,-210.07 285,-186 290.77,-182.17 297.26,-178.7 303.7,-175.68"/>
<polygon fill="midnightblue" stroke="midnightblue" points="305.27,-178.81 313.01,-171.57 302.45,-172.41 305.27,-178.81"/>
</g>
<!-- Node440 -->
<g id="node17" class="node">
<title>Node440</title>
<g id="a_node17"><a xlink:href="quickjs_8c.html#a646c73cb7ff4b6af11529c2524d90a43" target="_top" xlink:title=" ">
<polygon fill="none" stroke="black" points="285,-266.5 285,-285.5 397,-285.5 397,-266.5 285,-266.5"/>
<text text-anchor="middle" x="341" y="-273.5" font-family="Helvetica,sans-Serif" font-size="10.00">string_indexof_char</text>
</a>
</g>
</g>
<!-- Node2&#45;&gt;Node440 -->
<g id="edge23" class="edge">
<title>Node2&#45;&gt;Node440</title>
<path fill="none" stroke="midnightblue" d="M249.16,-276C257.53,-276 266.19,-276 274.68,-276"/>
<polygon fill="midnightblue" stroke="midnightblue" points="274.93,-279.5 284.93,-276 274.93,-272.5 274.93,-279.5"/>
</g>
<!-- Node4 -->
<g id="node4" class="node">
<title>Node4</title>
<g id="a_node4"><a xlink:href="quickjs_8c.html#aa059f309c30fd5166d16c82a97973146" target="_top" xlink:title=" ">
<polygon fill="none" stroke="red" points="943,-494.5 943,-513.5 1032,-513.5 1032,-494.5 943,-494.5"/>
<text text-anchor="middle" x="987.5" y="-501.5" font-family="Helvetica,sans-Serif" font-size="10.00">__JS_FreeValue</text>
</a>
</g>
</g>
<!-- Node3&#45;&gt;Node4 -->
<g id="edge3" class="edge">
<title>Node3&#45;&gt;Node4</title>
<path fill="none" stroke="midnightblue" d="M907.14,-504C915.35,-504 924.16,-504 932.82,-504"/>
<polygon fill="midnightblue" stroke="midnightblue" points="932.87,-507.5 942.87,-504 932.87,-500.5 932.87,-507.5"/>
</g>
<!-- Node42 -->
<g id="node6" class="node">
<title>Node42</title>
<g id="a_node6"><a xlink:href="quickjs_8c.html#a5762c57ae0c9937e986040c01222833a" target="_top" xlink:title=" ">
<polygon fill="none" stroke="red" points="558,-494.5 558,-513.5 685,-513.5 685,-494.5 558,-494.5"/>
<text text-anchor="middle" x="621.5" y="-501.5" font-family="Helvetica,sans-Serif" font-size="10.00">JS_GetPropertyInternal</text>
</a>
</g>
</g>
<!-- Node41&#45;&gt;Node42 -->
<g id="edge5" class="edge">
<title>Node41&#45;&gt;Node42</title>
<path fill="none" stroke="midnightblue" d="M522.26,-504C530.35,-504 538.98,-504 547.66,-504"/>
<polygon fill="midnightblue" stroke="midnightblue" points="547.83,-507.5 557.83,-504 547.83,-500.5 547.83,-507.5"/>
</g>
<!-- Node42&#45;&gt;Node3 -->
<g id="edge8" class="edge">
<title>Node42&#45;&gt;Node3</title>
<path fill="none" stroke="midnightblue" d="M685.02,-504C726.19,-504 779.33,-504 817.45,-504"/>
<polygon fill="midnightblue" stroke="midnightblue" points="817.78,-507.5 827.78,-504 817.78,-500.5 817.78,-507.5"/>
</g>
<!-- Node42&#45;&gt;Node103 -->
<g id="edge6" class="edge">
<title>Node42&#45;&gt;Node103</title>
<path fill="none" stroke="midnightblue" d="M656.06,-513.59C673.07,-518.45 693.93,-524.41 712.14,-529.61"/>
<polygon fill="midnightblue" stroke="midnightblue" points="711.37,-533.03 721.95,-532.41 713.3,-526.3 711.37,-533.03"/>
</g>
<!-- Node103&#45;&gt;Node3 -->
<g id="edge7" class="edge">
<title>Node103&#45;&gt;Node3</title>
<path fill="none" stroke="midnightblue" d="M785.01,-532.41C798.43,-527.73 814.78,-522.03 829.3,-516.97"/>
<polygon fill="midnightblue" stroke="midnightblue" points="830.71,-520.18 839,-513.59 828.41,-513.57 830.71,-520.18"/>
</g>
<!-- Node437&#45;&gt;Node41 -->
<g id="edge11" class="edge">
<title>Node437&#45;&gt;Node41</title>
<path fill="none" stroke="midnightblue" d="M352.21,-361.86C363.96,-373.56 383.4,-394.01 397,-414 416.9,-443.25 407.27,-460.71 433,-485 434.48,-486.4 436.09,-487.71 437.77,-488.93"/>
<polygon fill="midnightblue" stroke="midnightblue" points="436.35,-492.15 446.72,-494.31 439.95,-486.15 436.35,-492.15"/>
</g>
<!-- Node438 -->
<g id="node9" class="node">
<title>Node438</title>
<g id="a_node9"><a xlink:href="quickjs_8c.html#a82de8d310598980dd9ab473ce2c8dd1c" target="_top" xlink:title=" ">
<polygon fill="none" stroke="red" points="435,-418.5 435,-437.5 520,-437.5 520,-418.5 435,-418.5"/>
<text text-anchor="middle" x="477.5" y="-425.5" font-family="Helvetica,sans-Serif" font-size="10.00">js_get_regexp</text>
</a>
</g>
</g>
<!-- Node437&#45;&gt;Node438 -->
<g id="edge10" class="edge">
<title>Node437&#45;&gt;Node438</title>
<path fill="none" stroke="midnightblue" d="M368.65,-361.55C377.96,-365.41 388.27,-370.32 397,-376 415.19,-387.83 414.81,-397.16 433,-409 435.61,-410.7 438.4,-412.31 441.25,-413.82"/>
<polygon fill="midnightblue" stroke="midnightblue" points="439.94,-417.08 450.47,-418.3 443,-410.78 439.94,-417.08"/>
</g>
<!-- Node437&#45;&gt;Node50 -->
<g id="edge12" class="edge">
<title>Node437&#45;&gt;Node50</title>
<path fill="none" stroke="midnightblue" d="M373.93,-361.56C382.14,-365.12 390.48,-369.85 397,-376 422.73,-400.28 407.27,-422.71 433,-447 434.48,-448.4 436.09,-449.71 437.77,-450.93"/>
<polygon fill="midnightblue" stroke="midnightblue" points="436.35,-454.15 446.72,-456.31 439.95,-448.15 436.35,-454.15"/>
</g>
<!-- Node281 -->
<g id="node11" class="node">
<title>Node281</title>
<g id="a_node11"><a xlink:href="quickjs_8h.html#a3d68fe446df2d9c7d1900b16371bff5b" target="_top" xlink:title=" ">
<polygon fill="none" stroke="black" points="442,-380.5 442,-399.5 513,-399.5 513,-380.5 442,-380.5"/>
<text text-anchor="middle" x="477.5" y="-387.5" font-family="Helvetica,sans-Serif" font-size="10.00">JS_IsObject</text>
</a>
</g>
</g>
<!-- Node437&#45;&gt;Node281 -->
<g id="edge13" class="edge">
<title>Node437&#45;&gt;Node281</title>
<path fill="none" stroke="midnightblue" d="M375.94,-361.59C393.22,-366.47 414.43,-372.46 432.91,-377.68"/>
<polygon fill="midnightblue" stroke="midnightblue" points="432,-381.06 442.57,-380.41 433.9,-374.33 432,-381.06"/>
</g>
<!-- Node437&#45;&gt;Node209 -->
<g id="edge14" class="edge">
<title>Node437&#45;&gt;Node209</title>
<path fill="none" stroke="midnightblue" d="M375.94,-342.41C393.22,-337.53 414.43,-331.54 432.91,-326.32"/>
<polygon fill="midnightblue" stroke="midnightblue" points="433.9,-329.67 442.57,-323.59 432,-322.94 433.9,-329.67"/>
</g>
<!-- Node210 -->
<g id="node13" class="node">
<title>Node210</title>
<g id="a_node13"><a xlink:href="quickjs_8c.html#a2bf30c9cddfe98a32535843202495069" target="_top" xlink:title=" ">
<polygon fill="none" stroke="black" points="579.5,-399.5 579.5,-418.5 663.5,-418.5 663.5,-399.5 579.5,-399.5"/>
<text text-anchor="middle" x="621.5" y="-406.5" font-family="Helvetica,sans-Serif" font-size="10.00">JS_ToBoolFree</text>
</a>
</g>
</g>
<!-- Node437&#45;&gt;Node210 -->
<g id="edge15" class="edge">
<title>Node437&#45;&gt;Node210</title>
<path fill="none" stroke="midnightblue" d="M379.72,-353.1C416.48,-354.85 473.73,-359.36 522,-371 545.93,-376.77 571.86,-386.95 591.11,-395.32"/>
<polygon fill="midnightblue" stroke="midnightblue" points="589.69,-398.52 600.25,-399.37 592.53,-392.12 589.69,-398.52"/>
</g>
<!-- Node210&#45;&gt;Node3 -->
<g id="edge16" class="edge">
<title>Node210&#45;&gt;Node3</title>
<path fill="none" stroke="midnightblue" d="M647.24,-418.63C691.2,-435.75 782.96,-471.47 832.7,-490.84"/>
<polygon fill="midnightblue" stroke="midnightblue" points="831.47,-494.12 842.06,-494.48 834.01,-487.59 831.47,-494.12"/>
</g>
<!-- Node256&#45;&gt;Node3 -->
<g id="edge21" class="edge">
<title>Node256&#45;&gt;Node3</title>
<path fill="none" stroke="midnightblue" d="M372.94,-152.47C452.87,-129.93 668.57,-82.67 792,-186 838.46,-224.89 859.27,-420.44 864.88,-484.01"/>
<polygon fill="midnightblue" stroke="midnightblue" points="861.41,-484.61 865.75,-494.27 868.39,-484.01 861.41,-484.61"/>
</g>
<!-- Node256&#45;&gt;Node74 -->
<g id="edge22" class="edge">
<title>Node256&#45;&gt;Node74</title>
<path fill="none" stroke="midnightblue" d="M371.63,-152.45C379.91,-149.6 388.87,-146.34 397,-143 414.53,-135.81 433.71,-126.68 448.84,-119.17"/>
<polygon fill="midnightblue" stroke="midnightblue" points="450.76,-122.12 458.13,-114.51 447.63,-115.86 450.76,-122.12"/>
</g>
<!-- Node441&#45;&gt;Node3 -->
<g id="edge29" class="edge">
<title>Node441&#45;&gt;Node3</title>
<path fill="none" stroke="midnightblue" d="M231.74,-551.22C248.24,-554.66 267.46,-558.37 285,-561 369.59,-573.67 390.97,-580 476.5,-580 476.5,-580 476.5,-580 622.5,-580 698.31,-580 721.67,-589.28 792,-561 814.48,-551.96 836,-534.17 850.08,-520.86"/>
<polygon fill="midnightblue" stroke="midnightblue" points="852.76,-523.13 857.46,-513.64 847.86,-518.13 852.76,-523.13"/>
</g>
<!-- Node442 -->
<g id="node20" class="node">
<title>Node442</title>
<g id="a_node20"><a xlink:href="quickjs_8c.html#ad09ec172570d05d2166ed3069f85c7b5" target="_top" xlink:title=" ">
<polygon fill="none" stroke="black" points="309.5,-532.5 309.5,-551.5 372.5,-551.5 372.5,-532.5 309.5,-532.5"/>
<text text-anchor="middle" x="341" y="-539.5" font-family="Helvetica,sans-Serif" font-size="10.00">JS_Invoke</text>
</a>
</g>
</g>
<!-- Node441&#45;&gt;Node442 -->
<g id="edge30" class="edge">
<title>Node441&#45;&gt;Node442</title>
<path fill="none" stroke="midnightblue" d="M231.75,-542C252.75,-542 278.19,-542 299.13,-542"/>
<polygon fill="midnightblue" stroke="midnightblue" points="299.32,-545.5 309.32,-542 299.32,-538.5 299.32,-545.5"/>
</g>
<!-- Node442&#45;&gt;Node41 -->
<g id="edge32" class="edge">
<title>Node442&#45;&gt;Node41</title>
<path fill="none" stroke="midnightblue" d="M372.52,-533.38C390.42,-528.32 413.33,-521.85 433.09,-516.26"/>
<polygon fill="midnightblue" stroke="midnightblue" points="434.12,-519.61 442.8,-513.52 432.22,-512.87 434.12,-519.61"/>
</g>
<!-- Node442&#45;&gt;Node103 -->
<g id="edge31" class="edge">
<title>Node442&#45;&gt;Node103</title>
<path fill="none" stroke="midnightblue" d="M372.74,-542C445.06,-542 626.21,-542 710.75,-542"/>
<polygon fill="midnightblue" stroke="midnightblue" points="710.8,-545.5 720.8,-542 710.8,-538.5 710.8,-545.5"/>
</g>
<!-- Node442&#45;&gt;Node50 -->
<g id="edge33" class="edge">
<title>Node442&#45;&gt;Node50</title>
<path fill="none" stroke="midnightblue" d="M355.8,-532.45C373.31,-520.55 404.64,-499.97 433,-485 436.33,-483.24 439.86,-481.51 443.4,-479.84"/>
<polygon fill="midnightblue" stroke="midnightblue" points="445.05,-482.94 452.72,-475.63 442.17,-476.56 445.05,-482.94"/>
</g>
</g>
</svg>
