<?xml version="1.0" encoding="UTF-8" standalone="no"?>
<!DOCTYPE svg PUBLIC "-//W3C//DTD SVG 1.1//EN"
 "http://www.w3.org/Graphics/SVG/1.1/DTD/svg11.dtd">
<!-- Generated by graphviz version 2.43.0 (0)
 -->
<!-- Title: JS_ThrowStackOverflow Pages: 1 -->
<svg width="1054pt" height="754pt"
 viewBox="0.00 0.00 1054.00 754.00" xmlns="http://www.w3.org/2000/svg" xmlns:xlink="http://www.w3.org/1999/xlink">
<g id="graph0" class="graph" transform="scale(1 1) rotate(0) translate(4 750)">
<title>JS_ThrowStackOverflow</title>
<!-- Node1 -->
<g id="node1" class="node">
<title>Node1</title>
<g id="a_node1"><a xlink:title=" ">
<polygon fill="#bfbfbf" stroke="black" points="915,-151.5 915,-170.5 1046,-170.5 1046,-151.5 915,-151.5"/>
<text text-anchor="middle" x="980.5" y="-158.5" font-family="Helvetica,sans-Serif" font-size="10.00">JS_ThrowStackOverflow</text>
</a>
</g>
</g>
<!-- Node2 -->
<g id="node2" class="node">
<title>Node2</title>
<g id="a_node2"><a xlink:href="quickjs_8c.html#ade71a22dc56e7371392393df663b28b3" target="_top" xlink:title=" ">
<polygon fill="none" stroke="black" points="569.5,-208.5 569.5,-227.5 682.5,-227.5 682.5,-208.5 569.5,-208.5"/>
<text text-anchor="middle" x="626" y="-215.5" font-family="Helvetica,sans-Serif" font-size="10.00">async_func_resume</text>
</a>
</g>
</g>
<!-- Node1&#45;&gt;Node2 -->
<g id="edge1" class="edge">
<title>Node1&#45;&gt;Node2</title>
<path fill="none" stroke="midnightblue" d="M969.54,-179.68C954.18,-206.25 921.94,-253.84 879,-273 822.18,-298.36 796.49,-296.81 739,-273 718.09,-264.34 722.69,-248.15 703,-237 696.14,-233.11 688.48,-230.01 680.75,-227.54"/>
<polygon fill="midnightblue" stroke="midnightblue" points="972.77,-181.07 974.59,-170.63 966.66,-177.66 972.77,-181.07"/>
</g>
<!-- Node21 -->
<g id="node11" class="node">
<title>Node21</title>
<g id="a_node11"><a xlink:href="quickjs_8c.html#a9e94551ddba8762d74eda5127445dbbd" target="_top" xlink:title=" ">
<polygon fill="none" stroke="black" points="755,-467.5 755,-486.5 863,-486.5 863,-467.5 755,-467.5"/>
<text text-anchor="middle" x="809" y="-474.5" font-family="Helvetica,sans-Serif" font-size="10.00">get_proxy_method</text>
</a>
</g>
</g>
<!-- Node1&#45;&gt;Node21 -->
<g id="edge12" class="edge">
<title>Node1&#45;&gt;Node21</title>
<path fill="none" stroke="midnightblue" d="M969.38,-179.87C937.35,-239.58 838.95,-423.04 815.2,-467.31"/>
<polygon fill="midnightblue" stroke="midnightblue" points="972.6,-181.27 974.24,-170.8 966.43,-177.96 972.6,-181.27"/>
</g>
<!-- Node36 -->
<g id="node25" class="node">
<title>Node36</title>
<g id="a_node25"><a xlink:href="quickjs_8c.html#a624282391413d4c5a030adbd8b77aa80" target="_top" xlink:title=" ">
<polygon fill="none" stroke="red" points="739,-226.5 739,-245.5 879,-245.5 879,-226.5 739,-226.5"/>
<text text-anchor="middle" x="809" y="-233.5" font-family="Helvetica,sans-Serif" font-size="10.00">internalize_json_property</text>
</a>
</g>
</g>
<!-- Node1&#45;&gt;Node36 -->
<g id="edge27" class="edge">
<title>Node1&#45;&gt;Node36</title>
<path fill="none" stroke="midnightblue" d="M956.42,-175.96C936.55,-188.33 906.77,-205.63 879,-217 870.15,-220.62 860.38,-223.79 851.04,-226.44"/>
<polygon fill="midnightblue" stroke="midnightblue" points="958.48,-178.8 965.07,-170.5 954.75,-172.88 958.48,-178.8"/>
</g>
<!-- Node47 -->
<g id="node26" class="node">
<title>Node47</title>
<g id="a_node26"><a xlink:href="quickjs_8c.html#afd4ef2d701fa0702f321925b61c57bbf" target="_top" xlink:title=" ">
<polygon fill="none" stroke="black" points="376,-132.5 376,-151.5 504,-151.5 504,-132.5 376,-132.5"/>
<text text-anchor="middle" x="440" y="-139.5" font-family="Helvetica,sans-Serif" font-size="10.00">js_call_bound_function</text>
</a>
</g>
</g>
<!-- Node1&#45;&gt;Node47 -->
<g id="edge29" class="edge">
<title>Node1&#45;&gt;Node47</title>
<path fill="none" stroke="midnightblue" d="M904.77,-158.36C798.1,-154.6 604.07,-147.75 504.17,-144.23"/>
<polygon fill="midnightblue" stroke="midnightblue" points="904.69,-161.86 914.81,-158.72 904.94,-154.87 904.69,-161.86"/>
</g>
<!-- Node238 -->
<g id="node27" class="node">
<title>Node238</title>
<g id="a_node27"><a xlink:href="quickjs_8c.html#a3486836f2ac17a9fa315904e14858e5a" target="_top" xlink:title=" ">
<polygon fill="none" stroke="black" points="757.5,-94.5 757.5,-113.5 860.5,-113.5 860.5,-94.5 757.5,-94.5"/>
<text text-anchor="middle" x="809" y="-101.5" font-family="Helvetica,sans-Serif" font-size="10.00">js_call_c_function</text>
</a>
</g>
</g>
<!-- Node1&#45;&gt;Node238 -->
<g id="edge31" class="edge">
<title>Node1&#45;&gt;Node238</title>
<path fill="none" stroke="midnightblue" d="M941.46,-148.21C910.24,-137.71 866.73,-123.08 838.46,-113.57"/>
<polygon fill="midnightblue" stroke="midnightblue" points="940.54,-151.59 951.13,-151.46 942.77,-144.95 940.54,-151.59"/>
</g>
<!-- Node32 -->
<g id="node28" class="node">
<title>Node32</title>
<g id="a_node28"><a xlink:href="quickjs_8c.html#ac2894ff4edcdb4e6841bcce9c76081e3" target="_top" xlink:title=" ">
<polygon fill="none" stroke="red" points="765.5,-170.5 765.5,-189.5 852.5,-189.5 852.5,-170.5 765.5,-170.5"/>
<text text-anchor="middle" x="809" y="-177.5" font-family="Helvetica,sans-Serif" font-size="10.00">JS_CallInternal</text>
</a>
</g>
</g>
<!-- Node1&#45;&gt;Node32 -->
<g id="edge33" class="edge">
<title>Node1&#45;&gt;Node32</title>
<path fill="none" stroke="midnightblue" d="M904.55,-169.4C886.76,-171.4 868.38,-173.46 852.62,-175.22"/>
<polygon fill="midnightblue" stroke="midnightblue" points="905.39,-172.83 914.94,-168.24 904.61,-165.87 905.39,-172.83"/>
</g>
<!-- Node62 -->
<g id="node29" class="node">
<title>Node62</title>
<g id="a_node29"><a xlink:href="quickjs_8c.html#a4b8ef2bb3b35e4a5f6ed8bd837a50e7c" target="_top" xlink:title=" ">
<polygon fill="none" stroke="red" points="756.5,-56.5 756.5,-75.5 861.5,-75.5 861.5,-56.5 756.5,-56.5"/>
<text text-anchor="middle" x="809" y="-63.5" font-family="Helvetica,sans-Serif" font-size="10.00">JS_ReadObjectRec</text>
</a>
</g>
</g>
<!-- Node1&#45;&gt;Node62 -->
<g id="edge36" class="edge">
<title>Node1&#45;&gt;Node62</title>
<path fill="none" stroke="midnightblue" d="M961.97,-144.41C942.94,-127.23 910.96,-100.76 879,-85 871.31,-81.21 862.75,-78.08 854.36,-75.53"/>
<polygon fill="midnightblue" stroke="midnightblue" points="959.8,-147.16 969.53,-151.36 964.54,-142.01 959.8,-147.16"/>
</g>
<!-- Node361 -->
<g id="node30" class="node">
<title>Node361</title>
<g id="a_node30"><a xlink:href="quickjs_8c.html#aa9342f7444c1c9f8743d43aa4d7f89e3" target="_top" xlink:title=" ">
<polygon fill="none" stroke="red" points="755.5,-0.5 755.5,-19.5 862.5,-19.5 862.5,-0.5 755.5,-0.5"/>
<text text-anchor="middle" x="809" y="-7.5" font-family="Helvetica,sans-Serif" font-size="10.00">JS_WriteObjectRec</text>
</a>
</g>
</g>
<!-- Node1&#45;&gt;Node361 -->
<g id="edge37" class="edge">
<title>Node1&#45;&gt;Node361</title>
<path fill="none" stroke="midnightblue" d="M966.99,-143.2C949.42,-119.13 915.49,-75.92 879,-47 864.83,-35.77 846.76,-26.22 832.67,-19.64"/>
<polygon fill="midnightblue" stroke="midnightblue" points="964.21,-145.33 972.89,-151.41 969.9,-141.25 964.21,-145.33"/>
</g>
<!-- Node3 -->
<g id="node3" class="node">
<title>Node3</title>
<g id="a_node3"><a xlink:href="quickjs_8c.html#a1bf6b62983e8fff99c0a5d5a9f486115" target="_top" xlink:title=" ">
<polygon fill="none" stroke="black" points="367,-246.5 367,-265.5 513,-265.5 513,-246.5 367,-246.5"/>
<text text-anchor="middle" x="440" y="-253.5" font-family="Helvetica,sans-Serif" font-size="10.00">js_async_function_resume</text>
</a>
</g>
</g>
<!-- Node2&#45;&gt;Node3 -->
<g id="edge2" class="edge">
<title>Node2&#45;&gt;Node3</title>
<path fill="none" stroke="midnightblue" d="M568.44,-229.68C542.35,-235.07 511.76,-241.39 487.1,-246.48"/>
<polygon fill="midnightblue" stroke="midnightblue" points="569.48,-233.04 578.57,-227.59 568.07,-226.18 569.48,-233.04"/>
</g>
<!-- Node11 -->
<g id="node7" class="node">
<title>Node11</title>
<g id="a_node7"><a xlink:href="quickjs_8c.html#ae19867da709929c072f05e90301835a4" target="_top" xlink:title=" ">
<polygon fill="none" stroke="black" points="192,-197 192,-227 303,-227 303,-197 192,-197"/>
<text text-anchor="start" x="200" y="-215" font-family="Helvetica,sans-Serif" font-size="10.00">js_async_generator</text>
<text text-anchor="middle" x="247.5" y="-204" font-family="Helvetica,sans-Serif" font-size="10.00">_function_call</text>
</a>
</g>
</g>
<!-- Node2&#45;&gt;Node11 -->
<g id="edge7" class="edge">
<title>Node2&#45;&gt;Node11</title>
<path fill="none" stroke="midnightblue" d="M559.05,-216.95C486.37,-215.79 370.83,-213.95 303.06,-212.87"/>
<polygon fill="midnightblue" stroke="midnightblue" points="559.39,-220.45 569.45,-217.11 559.5,-213.46 559.39,-220.45"/>
</g>
<!-- Node12 -->
<g id="node8" class="node">
<title>Node12</title>
<g id="a_node8"><a xlink:href="quickjs_8c.html#a89b019c704a2d2914bc30b30a72040b3" target="_top" xlink:title=" ">
<polygon fill="none" stroke="black" points="384.5,-285 384.5,-315 495.5,-315 495.5,-285 384.5,-285"/>
<text text-anchor="start" x="392.5" y="-303" font-family="Helvetica,sans-Serif" font-size="10.00">js_async_generator</text>
<text text-anchor="middle" x="440" y="-292" font-family="Helvetica,sans-Serif" font-size="10.00">_resume_next</text>
</a>
</g>
</g>
<!-- Node2&#45;&gt;Node12 -->
<g id="edge9" class="edge">
<title>Node2&#45;&gt;Node12</title>
<path fill="none" stroke="midnightblue" d="M561.27,-230.99C557,-232.75 552.87,-234.74 549,-237 528.91,-248.73 532.54,-262.38 513,-275 507.11,-278.8 500.57,-282.1 493.91,-284.95"/>
<polygon fill="midnightblue" stroke="midnightblue" points="562.58,-234.24 570.76,-227.51 560.17,-227.66 562.58,-234.24"/>
</g>
<!-- Node13 -->
<g id="node9" class="node">
<title>Node13</title>
<g id="a_node9"><a xlink:href="quickjs_8c.html#ac90552b1f1659acb3dae9a4c62479a30" target="_top" xlink:title=" ">
<polygon fill="none" stroke="black" points="367.5,-170.5 367.5,-189.5 512.5,-189.5 512.5,-170.5 367.5,-170.5"/>
<text text-anchor="middle" x="440" y="-177.5" font-family="Helvetica,sans-Serif" font-size="10.00">js_generator_function_call</text>
</a>
</g>
</g>
<!-- Node2&#45;&gt;Node13 -->
<g id="edge10" class="edge">
<title>Node2&#45;&gt;Node13</title>
<path fill="none" stroke="midnightblue" d="M568.44,-206.32C542.35,-200.93 511.76,-194.61 487.1,-189.52"/>
<polygon fill="midnightblue" stroke="midnightblue" points="568.07,-209.82 578.57,-208.41 569.48,-202.96 568.07,-209.82"/>
</g>
<!-- Node4 -->
<g id="node4" class="node">
<title>Node4</title>
<g id="a_node4"><a xlink:href="quickjs_8c.html#a8029b29b8458274699fbcb7ce42a7100" target="_top" xlink:title=" ">
<polygon fill="none" stroke="black" points="184.5,-284.5 184.5,-303.5 310.5,-303.5 310.5,-284.5 184.5,-284.5"/>
<text text-anchor="middle" x="247.5" y="-291.5" font-family="Helvetica,sans-Serif" font-size="10.00">js_async_function_call</text>
</a>
</g>
</g>
<!-- Node3&#45;&gt;Node4 -->
<g id="edge3" class="edge">
<title>Node3&#45;&gt;Node4</title>
<path fill="none" stroke="midnightblue" d="M380.8,-267.61C353.71,-273.01 321.87,-279.36 296.23,-284.48"/>
<polygon fill="midnightblue" stroke="midnightblue" points="381.81,-270.98 390.93,-265.59 380.44,-264.11 381.81,-270.98"/>
</g>
<!-- Node10 -->
<g id="node6" class="node">
<title>Node10</title>
<g id="a_node6"><a xlink:href="quickjs_8c.html#a2cf6c9a897a2a59d310f3cf18897b639" target="_top" xlink:title=" ">
<polygon fill="none" stroke="black" points="164,-246.5 164,-265.5 331,-265.5 331,-246.5 164,-246.5"/>
<text text-anchor="middle" x="247.5" y="-253.5" font-family="Helvetica,sans-Serif" font-size="10.00">js_async_function_resolve_call</text>
</a>
</g>
</g>
<!-- Node3&#45;&gt;Node10 -->
<g id="edge5" class="edge">
<title>Node3&#45;&gt;Node10</title>
<path fill="none" stroke="midnightblue" d="M356.73,-256C348.26,-256 339.64,-256 331.17,-256"/>
<polygon fill="midnightblue" stroke="midnightblue" points="356.98,-259.5 366.98,-256 356.98,-252.5 356.98,-259.5"/>
</g>
<!-- Node5 -->
<g id="node5" class="node">
<title>Node5</title>
<g id="a_node5"><a xlink:href="quickjs_8c.html#a2e66fcf1bc1d19f346317f10ee590621" target="_top" xlink:title=" ">
<polygon fill="none" stroke="red" points="0,-246.5 0,-265.5 128,-265.5 128,-246.5 0,-246.5"/>
<text text-anchor="middle" x="64" y="-253.5" font-family="Helvetica,sans-Serif" font-size="10.00">JS_AddIntrinsicPromise</text>
</a>
</g>
</g>
<!-- Node4&#45;&gt;Node5 -->
<g id="edge4" class="edge">
<title>Node4&#45;&gt;Node5</title>
<path fill="none" stroke="midnightblue" d="M190.71,-282.32C164.97,-276.93 134.8,-270.61 110.47,-265.52"/>
<polygon fill="midnightblue" stroke="midnightblue" points="190.19,-285.79 200.7,-284.41 191.63,-278.94 190.19,-285.79"/>
</g>
<!-- Node10&#45;&gt;Node5 -->
<g id="edge6" class="edge">
<title>Node10&#45;&gt;Node5</title>
<path fill="none" stroke="midnightblue" d="M153.76,-256C145.05,-256 136.36,-256 128.02,-256"/>
<polygon fill="midnightblue" stroke="midnightblue" points="153.98,-259.5 163.98,-256 153.98,-252.5 153.98,-259.5"/>
</g>
<!-- Node11&#45;&gt;Node5 -->
<g id="edge8" class="edge">
<title>Node11&#45;&gt;Node5</title>
<path fill="none" stroke="midnightblue" d="M181.79,-227.69C155.86,-233.97 126.84,-241.01 104.21,-246.49"/>
<polygon fill="midnightblue" stroke="midnightblue" points="182.66,-231.08 191.55,-225.32 181.01,-224.28 182.66,-231.08"/>
</g>
<!-- Node14 -->
<g id="node10" class="node">
<title>Node14</title>
<g id="a_node10"><a xlink:href="quickjs_8c.html#a27966451027feb455b5da12c1578771c" target="_top" xlink:title=" ">
<polygon fill="none" stroke="red" points="197.5,-132.5 197.5,-151.5 297.5,-151.5 297.5,-132.5 197.5,-132.5"/>
<text text-anchor="middle" x="247.5" y="-139.5" font-family="Helvetica,sans-Serif" font-size="10.00">JS_NewRuntime2</text>
</a>
</g>
</g>
<!-- Node13&#45;&gt;Node14 -->
<g id="edge11" class="edge">
<title>Node13&#45;&gt;Node14</title>
<path fill="none" stroke="midnightblue" d="M380.8,-168.39C353.71,-162.99 321.87,-156.64 296.23,-151.52"/>
<polygon fill="midnightblue" stroke="midnightblue" points="380.44,-171.89 390.93,-170.41 381.81,-165.02 380.44,-171.89"/>
</g>
<!-- Node22 -->
<g id="node12" class="node">
<title>Node22</title>
<g id="a_node12"><a xlink:href="quickjs_8c.html#ab9f916b6a1fda4cec1a1eb6d691ed89c" target="_top" xlink:title=" ">
<polygon fill="none" stroke="red" points="400,-593.5 400,-612.5 480,-612.5 480,-593.5 400,-593.5"/>
<text text-anchor="middle" x="440" y="-600.5" font-family="Helvetica,sans-Serif" font-size="10.00">js_proxy_call</text>
</a>
</g>
</g>
<!-- Node21&#45;&gt;Node22 -->
<g id="edge13" class="edge">
<title>Node21&#45;&gt;Node22</title>
<path fill="none" stroke="midnightblue" d="M799.08,-495.89C784.03,-525.24 750.52,-580.74 703,-603 629.68,-637.34 531.65,-623.93 478.73,-612.56"/>
<polygon fill="midnightblue" stroke="midnightblue" points="802.33,-497.21 803.63,-486.69 796.06,-494.11 802.33,-497.21"/>
</g>
<!-- Node24 -->
<g id="node13" class="node">
<title>Node24</title>
<g id="a_node13"><a xlink:href="quickjs_8c.html#af97646b66d6fcb8bd19543d93baeadd7" target="_top" xlink:title=" ">
<polygon fill="none" stroke="black" points="556,-574.5 556,-593.5 696,-593.5 696,-574.5 556,-574.5"/>
<text text-anchor="middle" x="626" y="-581.5" font-family="Helvetica,sans-Serif" font-size="10.00">js_proxy_call_constructor</text>
</a>
</g>
</g>
<!-- Node21&#45;&gt;Node24 -->
<g id="edge14" class="edge">
<title>Node21&#45;&gt;Node24</title>
<path fill="none" stroke="midnightblue" d="M792.11,-494.07C772.85,-513.75 738.53,-545.74 703,-564 694.63,-568.3 685.25,-571.74 676.01,-574.46"/>
<polygon fill="midnightblue" stroke="midnightblue" points="794.78,-496.34 799.17,-486.7 789.73,-491.49 794.78,-496.34"/>
</g>
<!-- Node25 -->
<g id="node14" class="node">
<title>Node25</title>
<g id="a_node14"><a xlink:href="quickjs_8c.html#a7e5b77a4851eee6f666581d051979392" target="_top" xlink:title=" ">
<polygon fill="none" stroke="black" points="566.5,-525 566.5,-555 685.5,-555 685.5,-525 566.5,-525"/>
<text text-anchor="start" x="574.5" y="-543" font-family="Helvetica,sans-Serif" font-size="10.00">js_proxy_define_own</text>
<text text-anchor="middle" x="626" y="-532" font-family="Helvetica,sans-Serif" font-size="10.00">_property</text>
</a>
</g>
</g>
<!-- Node21&#45;&gt;Node25 -->
<g id="edge16" class="edge">
<title>Node21&#45;&gt;Node25</title>
<path fill="none" stroke="midnightblue" d="M772.7,-490.07C752.37,-497.52 726.31,-506.95 703,-515 693.55,-518.26 683.4,-521.67 673.7,-524.88"/>
<polygon fill="midnightblue" stroke="midnightblue" points="774.01,-493.32 782.18,-486.58 771.59,-486.75 774.01,-493.32"/>
</g>
<!-- Node26 -->
<g id="node15" class="node">
<title>Node26</title>
<g id="a_node15"><a xlink:href="quickjs_8c.html#acffb121a8a0ee2b735f60c1db01e79e7" target="_top" xlink:title=" ">
<polygon fill="none" stroke="black" points="556,-486.5 556,-505.5 696,-505.5 696,-486.5 556,-486.5"/>
<text text-anchor="middle" x="626" y="-493.5" font-family="Helvetica,sans-Serif" font-size="10.00">js_proxy_delete_property</text>
</a>
</g>
</g>
<!-- Node21&#45;&gt;Node26 -->
<g id="edge17" class="edge">
<title>Node21&#45;&gt;Node26</title>
<path fill="none" stroke="midnightblue" d="M744.56,-483.66C728.88,-485.31 712.01,-487.08 696.07,-488.75"/>
<polygon fill="midnightblue" stroke="midnightblue" points="745.09,-487.12 754.67,-482.6 744.36,-480.16 745.09,-487.12"/>
</g>
<!-- Node27 -->
<g id="node16" class="node">
<title>Node27</title>
<g id="a_node16"><a xlink:href="quickjs_8c.html#a45df491949e8e055e732eb13c446d47b" target="_top" xlink:title=" ">
<polygon fill="none" stroke="black" points="586.5,-448.5 586.5,-467.5 665.5,-467.5 665.5,-448.5 586.5,-448.5"/>
<text text-anchor="middle" x="626" y="-455.5" font-family="Helvetica,sans-Serif" font-size="10.00">js_proxy_get</text>
</a>
</g>
</g>
<!-- Node21&#45;&gt;Node27 -->
<g id="edge18" class="edge">
<title>Node21&#45;&gt;Node27</title>
<path fill="none" stroke="midnightblue" d="M744.41,-470.32C718.12,-467.57 688.5,-464.46 665.59,-462.05"/>
<polygon fill="midnightblue" stroke="midnightblue" points="744.36,-473.84 754.67,-471.4 745.09,-466.88 744.36,-473.84"/>
</g>
<!-- Node28 -->
<g id="node17" class="node">
<title>Node28</title>
<g id="a_node17"><a xlink:href="quickjs_8c.html#ab9c2e9c8dab72f3c057efe4ffcced332" target="_top" xlink:title=" ">
<polygon fill="none" stroke="black" points="550.5,-410.5 550.5,-429.5 701.5,-429.5 701.5,-410.5 550.5,-410.5"/>
<text text-anchor="middle" x="626" y="-417.5" font-family="Helvetica,sans-Serif" font-size="10.00">js_proxy_get_own_property</text>
</a>
</g>
</g>
<!-- Node21&#45;&gt;Node28 -->
<g id="edge19" class="edge">
<title>Node21&#45;&gt;Node28</title>
<path fill="none" stroke="midnightblue" d="M774.14,-463.75C753.71,-456 727.06,-446.34 703,-439 691.94,-435.63 679.85,-432.4 668.63,-429.59"/>
<polygon fill="midnightblue" stroke="midnightblue" points="773.04,-467.07 783.63,-467.38 775.54,-460.54 773.04,-467.07"/>
</g>
<!-- Node29 -->
<g id="node18" class="node">
<title>Node29</title>
<g id="a_node18"><a xlink:href="quickjs_8c.html#a438b354d69a8f0674195b0cdc19dd686" target="_top" xlink:title=" ">
<polygon fill="none" stroke="black" points="550.5,-361 550.5,-391 701.5,-391 701.5,-361 550.5,-361"/>
<text text-anchor="start" x="558.5" y="-379" font-family="Helvetica,sans-Serif" font-size="10.00">js_proxy_get_own_property</text>
<text text-anchor="middle" x="626" y="-368" font-family="Helvetica,sans-Serif" font-size="10.00">_names</text>
</a>
</g>
</g>
<!-- Node21&#45;&gt;Node29 -->
<g id="edge20" class="edge">
<title>Node21&#45;&gt;Node29</title>
<path fill="none" stroke="midnightblue" d="M789.34,-460.72C769.2,-443.85 735.62,-417.66 703,-401 695.7,-397.27 687.73,-393.94 679.78,-391.01"/>
<polygon fill="midnightblue" stroke="midnightblue" points="787.22,-463.52 797.1,-467.33 791.75,-458.19 787.22,-463.52"/>
</g>
<!-- Node30 -->
<g id="node19" class="node">
<title>Node30</title>
<g id="a_node19"><a xlink:href="quickjs_8c.html#adda8732f2afb3bb7bd7e5f59e3ba022d" target="_top" xlink:title=" ">
<polygon fill="none" stroke="red" points="557.5,-322.5 557.5,-341.5 694.5,-341.5 694.5,-322.5 557.5,-322.5"/>
<text text-anchor="middle" x="626" y="-329.5" font-family="Helvetica,sans-Serif" font-size="10.00">js_proxy_getPrototypeOf</text>
</a>
</g>
</g>
<!-- Node21&#45;&gt;Node30 -->
<g id="edge21" class="edge">
<title>Node21&#45;&gt;Node30</title>
<path fill="none" stroke="midnightblue" d="M797.88,-458.63C781.63,-430.89 747.01,-378.62 703,-351 696.78,-347.1 689.8,-343.99 682.66,-341.53"/>
<polygon fill="midnightblue" stroke="midnightblue" points="794.86,-460.39 802.85,-467.34 800.94,-456.92 794.86,-460.39"/>
</g>
<!-- Node394 -->
<g id="node20" class="node">
<title>Node394</title>
<g id="a_node20"><a xlink:href="quickjs_8c.html#a1bddfeab11a7cfee6bd88781073b5972" target="_top" xlink:title=" ">
<polygon fill="none" stroke="black" points="586,-284.5 586,-303.5 666,-303.5 666,-284.5 586,-284.5"/>
<text text-anchor="middle" x="626" y="-291.5" font-family="Helvetica,sans-Serif" font-size="10.00">js_proxy_has</text>
</a>
</g>
</g>
<!-- Node21&#45;&gt;Node394 -->
<g id="edge22" class="edge">
<title>Node21&#45;&gt;Node394</title>
<path fill="none" stroke="midnightblue" d="M801.15,-457.61C787.87,-422.97 755.27,-350.56 703,-313 692.29,-305.3 678.78,-300.71 666.14,-297.97"/>
<polygon fill="midnightblue" stroke="midnightblue" points="798.03,-459.27 804.78,-467.44 804.59,-456.84 798.03,-459.27"/>
</g>
<!-- Node601 -->
<g id="node21" class="node">
<title>Node601</title>
<g id="a_node21"><a xlink:href="quickjs_8c.html#a89d3c8659c2a6a62d3528b6b6794b24f" target="_top" xlink:title=" ">
<polygon fill="none" stroke="red" points="565,-246.5 565,-265.5 687,-265.5 687,-246.5 565,-246.5"/>
<text text-anchor="middle" x="626" y="-253.5" font-family="Helvetica,sans-Serif" font-size="10.00">js_proxy_isExtensible</text>
</a>
</g>
</g>
<!-- Node21&#45;&gt;Node601 -->
<g id="edge23" class="edge">
<title>Node21&#45;&gt;Node601</title>
<path fill="none" stroke="midnightblue" d="M803.57,-457.41C793.33,-416.8 764.1,-323.23 703,-275 698.09,-271.12 692.49,-268.03 686.61,-265.55"/>
<polygon fill="midnightblue" stroke="midnightblue" points="800.17,-458.26 805.92,-467.17 806.98,-456.63 800.17,-458.26"/>
</g>
<!-- Node604 -->
<g id="node22" class="node">
<title>Node604</title>
<g id="a_node22"><a xlink:href="quickjs_8c.html#a7be64afafb067c71764032c0708d7aa3" target="_top" xlink:title=" ">
<polygon fill="none" stroke="red" points="549,-726.5 549,-745.5 703,-745.5 703,-726.5 549,-726.5"/>
<text text-anchor="middle" x="626" y="-733.5" font-family="Helvetica,sans-Serif" font-size="10.00">js_proxy_preventExtensions</text>
</a>
</g>
</g>
<!-- Node21&#45;&gt;Node604 -->
<g id="edge24" class="edge">
<title>Node21&#45;&gt;Node604</title>
<path fill="none" stroke="midnightblue" d="M805.31,-496.69C797.95,-542.68 773.13,-657.73 703,-717 698.43,-720.86 693.18,-723.96 687.63,-726.44"/>
<polygon fill="midnightblue" stroke="midnightblue" points="808.81,-496.97 806.82,-486.56 801.88,-495.94 808.81,-496.97"/>
</g>
<!-- Node133 -->
<g id="node23" class="node">
<title>Node133</title>
<g id="a_node23"><a xlink:href="quickjs_8c.html#ad38b16d301e8f3661cf4c115c86511b3" target="_top" xlink:title=" ">
<polygon fill="none" stroke="black" points="587,-688.5 587,-707.5 665,-707.5 665,-688.5 587,-688.5"/>
<text text-anchor="middle" x="626" y="-695.5" font-family="Helvetica,sans-Serif" font-size="10.00">js_proxy_set</text>
</a>
</g>
</g>
<!-- Node21&#45;&gt;Node133 -->
<g id="edge25" class="edge">
<title>Node21&#45;&gt;Node133</title>
<path fill="none" stroke="midnightblue" d="M803.57,-496.59C793.33,-537.2 764.1,-630.77 703,-679 692.32,-687.43 678.39,-692.17 665.38,-694.82"/>
<polygon fill="midnightblue" stroke="midnightblue" points="806.98,-497.37 805.92,-486.83 800.17,-495.74 806.98,-497.37"/>
</g>
<!-- Node607 -->
<g id="node24" class="node">
<title>Node607</title>
<g id="a_node24"><a xlink:href="quickjs_8c.html#ae8b32777df50bb192c19840adc4d32a1" target="_top" xlink:title=" ">
<polygon fill="none" stroke="red" points="557.5,-650.5 557.5,-669.5 694.5,-669.5 694.5,-650.5 557.5,-650.5"/>
<text text-anchor="middle" x="626" y="-657.5" font-family="Helvetica,sans-Serif" font-size="10.00">js_proxy_setPrototypeOf</text>
</a>
</g>
</g>
<!-- Node21&#45;&gt;Node607 -->
<g id="edge26" class="edge">
<title>Node21&#45;&gt;Node607</title>
<path fill="none" stroke="midnightblue" d="M800.55,-495.97C786.53,-529.26 753.03,-598.24 703,-636 694.61,-642.33 684.5,-647.02 674.43,-650.49"/>
<polygon fill="midnightblue" stroke="midnightblue" points="803.88,-497.08 804.42,-486.5 797.4,-494.44 803.88,-497.08"/>
</g>
<!-- Node24&#45;&gt;Node22 -->
<g id="edge15" class="edge">
<title>Node24&#45;&gt;Node22</title>
<path fill="none" stroke="midnightblue" d="M545.96,-592.16C523.22,-594.51 499.4,-596.97 480.21,-598.95"/>
<polygon fill="midnightblue" stroke="midnightblue" points="546.37,-595.64 555.96,-591.13 545.66,-588.67 546.37,-595.64"/>
</g>
<!-- Node36&#45;&gt;Node36 -->
<g id="edge28" class="edge">
<title>Node36&#45;&gt;Node36</title>
<path fill="none" stroke="midnightblue" d="M840.81,-254.27C839.9,-259.74 829.3,-264 809,-264 778.79,-264 770.05,-254.57 782.8,-245.76"/>
<polygon fill="midnightblue" stroke="midnightblue" points="843.63,-252.18 835.2,-245.76 837.78,-256.03 843.63,-252.18"/>
</g>
<!-- Node47&#45;&gt;Node14 -->
<g id="edge30" class="edge">
<title>Node47&#45;&gt;Node14</title>
<path fill="none" stroke="midnightblue" d="M365.53,-142C342.79,-142 318.3,-142 297.63,-142"/>
<polygon fill="midnightblue" stroke="midnightblue" points="365.83,-145.5 375.83,-142 365.83,-138.5 365.83,-145.5"/>
</g>
<!-- Node238&#45;&gt;Node14 -->
<g id="edge32" class="edge">
<title>Node238&#45;&gt;Node14</title>
<path fill="none" stroke="midnightblue" d="M747.25,-104.39C662.07,-105.45 502.36,-109.28 367,-123 344.09,-125.32 318.88,-129.18 297.63,-132.81"/>
<polygon fill="midnightblue" stroke="midnightblue" points="747.31,-107.89 757.27,-104.28 747.23,-100.89 747.31,-107.89"/>
</g>
<!-- Node32&#45;&gt;Node2 -->
<g id="edge34" class="edge">
<title>Node32&#45;&gt;Node2</title>
<path fill="none" stroke="midnightblue" d="M755.32,-191.06C729.06,-196.57 697.62,-203.17 672.43,-208.46"/>
<polygon fill="midnightblue" stroke="midnightblue" points="756.04,-194.49 765.11,-189.01 754.6,-187.63 756.04,-194.49"/>
</g>
<!-- Node32&#45;&gt;Node32 -->
<g id="edge35" class="edge">
<title>Node32&#45;&gt;Node32</title>
<path fill="none" stroke="midnightblue" d="M840.81,-198.27C839.9,-203.74 829.3,-208 809,-208 778.79,-208 770.05,-198.57 782.8,-189.76"/>
<polygon fill="midnightblue" stroke="midnightblue" points="843.63,-196.18 835.2,-189.76 837.78,-200.03 843.63,-196.18"/>
</g>
<!-- Node361&#45;&gt;Node361 -->
<g id="edge38" class="edge">
<title>Node361&#45;&gt;Node361</title>
<path fill="none" stroke="midnightblue" d="M840.81,-28.27C839.9,-33.74 829.3,-38 809,-38 778.79,-38 770.05,-28.57 782.8,-19.76"/>
<polygon fill="midnightblue" stroke="midnightblue" points="843.63,-26.18 835.2,-19.76 837.78,-30.03 843.63,-26.18"/>
</g>
</g>
</svg>
