<?xml version="1.0" encoding="UTF-8" standalone="no"?>
<!DOCTYPE svg PUBLIC "-//W3C//DTD SVG 1.1//EN"
 "http://www.w3.org/Graphics/SVG/1.1/DTD/svg11.dtd">
<!-- Generated by graphviz version 2.43.0 (0)
 -->
<!-- Title: add_var_this Pages: 1 -->
<svg width="445pt" height="104pt"
 viewBox="0.00 0.00 445.00 104.00" xmlns="http://www.w3.org/2000/svg" xmlns:xlink="http://www.w3.org/1999/xlink">
<g id="graph0" class="graph" transform="scale(1 1) rotate(0) translate(4 100)">
<title>add_var_this</title>
<!-- Node1 -->
<g id="node1" class="node">
<title>Node1</title>
<g id="a_node1"><a xlink:title=" ">
<polygon fill="#bfbfbf" stroke="black" points="0,-38.5 0,-57.5 79,-57.5 79,-38.5 0,-38.5"/>
<text text-anchor="middle" x="39.5" y="-45.5" font-family="Helvetica,sans-Serif" font-size="10.00">add_var_this</text>
</a>
</g>
</g>
<!-- Node2 -->
<g id="node2" class="node">
<title>Node2</title>
<g id="a_node2"><a xlink:href="quickjs_8c.html#ab2e0855c4317f8e3b05c0a091bc43a29" target="_top" xlink:title=" ">
<polygon fill="none" stroke="black" points="115,-38.5 115,-57.5 171,-57.5 171,-38.5 115,-38.5"/>
<text text-anchor="middle" x="143" y="-45.5" font-family="Helvetica,sans-Serif" font-size="10.00">add_var</text>
</a>
</g>
</g>
<!-- Node1&#45;&gt;Node2 -->
<g id="edge1" class="edge">
<title>Node1&#45;&gt;Node2</title>
<path fill="none" stroke="midnightblue" d="M79.16,-48C87.51,-48 96.33,-48 104.63,-48"/>
<polygon fill="midnightblue" stroke="midnightblue" points="104.79,-51.5 114.79,-48 104.79,-44.5 104.79,-51.5"/>
</g>
<!-- Node3 -->
<g id="node3" class="node">
<title>Node3</title>
<g id="a_node3"><a xlink:href="quickjs_8c.html#a853f0924d441ea4225488f37c8b69f9a" target="_top" xlink:title=" ">
<polygon fill="none" stroke="black" points="212,-76.5 212,-95.5 292,-95.5 292,-76.5 212,-76.5"/>
<text text-anchor="middle" x="252" y="-83.5" font-family="Helvetica,sans-Serif" font-size="10.00">__attribute__</text>
</a>
</g>
</g>
<!-- Node2&#45;&gt;Node3 -->
<g id="edge2" class="edge">
<title>Node2&#45;&gt;Node3</title>
<path fill="none" stroke="midnightblue" d="M171,-57.59C184.18,-62.27 200.23,-67.97 214.48,-73.03"/>
<polygon fill="midnightblue" stroke="midnightblue" points="213.41,-76.37 224.01,-76.41 215.76,-69.77 213.41,-76.37"/>
</g>
<!-- Node4 -->
<g id="node4" class="node">
<title>Node4</title>
<g id="a_node4"><a xlink:href="quickjs_8c.html#abbf44eaeace1104a6bef718fbf5700fe" target="_top" xlink:title=" ">
<polygon fill="none" stroke="black" points="213.5,-38.5 213.5,-57.5 290.5,-57.5 290.5,-38.5 213.5,-38.5"/>
<text text-anchor="middle" x="252" y="-45.5" font-family="Helvetica,sans-Serif" font-size="10.00">JS_DupAtom</text>
</a>
</g>
</g>
<!-- Node2&#45;&gt;Node4 -->
<g id="edge3" class="edge">
<title>Node2&#45;&gt;Node4</title>
<path fill="none" stroke="midnightblue" d="M171,-48C180.67,-48 191.87,-48 202.79,-48"/>
<polygon fill="midnightblue" stroke="midnightblue" points="203.1,-51.5 213.1,-48 203.1,-44.5 203.1,-51.5"/>
</g>
<!-- Node6 -->
<g id="node6" class="node">
<title>Node6</title>
<g id="a_node6"><a xlink:href="quickjs_8c.html#afa610f3175e9cb11fdceac95071099b5" target="_top" xlink:title=" ">
<polygon fill="none" stroke="black" points="207,-0.5 207,-19.5 297,-19.5 297,-0.5 207,-0.5"/>
<text text-anchor="middle" x="252" y="-7.5" font-family="Helvetica,sans-Serif" font-size="10.00">js_resize_array</text>
</a>
</g>
</g>
<!-- Node2&#45;&gt;Node6 -->
<g id="edge5" class="edge">
<title>Node2&#45;&gt;Node6</title>
<path fill="none" stroke="midnightblue" d="M171,-38.41C184.18,-33.73 200.23,-28.03 214.48,-22.97"/>
<polygon fill="midnightblue" stroke="midnightblue" points="215.76,-26.23 224.01,-19.59 213.41,-19.63 215.76,-26.23"/>
</g>
<!-- Node5 -->
<g id="node5" class="node">
<title>Node5</title>
<g id="a_node5"><a xlink:href="quickjs_8c.html#a7f6796ee7a195631366f57c713a33f65" target="_top" xlink:title=" ">
<polygon fill="none" stroke="black" points="333,-38.5 333,-57.5 437,-57.5 437,-38.5 333,-38.5"/>
<text text-anchor="middle" x="385" y="-45.5" font-family="Helvetica,sans-Serif" font-size="10.00">__JS_AtomIsConst</text>
</a>
</g>
</g>
<!-- Node4&#45;&gt;Node5 -->
<g id="edge4" class="edge">
<title>Node4&#45;&gt;Node5</title>
<path fill="none" stroke="midnightblue" d="M290.54,-48C300.61,-48 311.77,-48 322.77,-48"/>
<polygon fill="midnightblue" stroke="midnightblue" points="322.78,-51.5 332.78,-48 322.78,-44.5 322.78,-51.5"/>
</g>
<!-- Node7 -->
<g id="node7" class="node">
<title>Node7</title>
<g id="a_node7"><a xlink:href="quickjs_8c.html#a0eda61158c0a22ef337abc3a035bca33" target="_top" xlink:title=" ">
<polygon fill="none" stroke="red" points="338,-0.5 338,-19.5 432,-19.5 432,-0.5 338,-0.5"/>
<text text-anchor="middle" x="385" y="-7.5" font-family="Helvetica,sans-Serif" font-size="10.00">js_realloc_array</text>
</a>
</g>
</g>
<!-- Node6&#45;&gt;Node7 -->
<g id="edge6" class="edge">
<title>Node6&#45;&gt;Node7</title>
<path fill="none" stroke="midnightblue" d="M297.35,-10C307.15,-10 317.65,-10 327.85,-10"/>
<polygon fill="midnightblue" stroke="midnightblue" points="327.91,-13.5 337.91,-10 327.91,-6.5 327.91,-13.5"/>
</g>
</g>
</svg>
