<?xml version="1.0" encoding="UTF-8" standalone="no"?>
<!DOCTYPE svg PUBLIC "-//W3C//DTD SVG 1.1//EN"
 "http://www.w3.org/Graphics/SVG/1.1/DTD/svg11.dtd">
<!-- Generated by graphviz version 2.43.0 (0)
 -->
<!-- Title: get_label_pos Pages: 1 -->
<svg width="509pt" height="46pt"
 viewBox="0.00 0.00 509.00 46.00" xmlns="http://www.w3.org/2000/svg" xmlns:xlink="http://www.w3.org/1999/xlink">
<g id="graph0" class="graph" transform="scale(1 1) rotate(0) translate(4 42)">
<title>get_label_pos</title>
<!-- Node1 -->
<g id="node1" class="node">
<title>Node1</title>
<g id="a_node1"><a xlink:title=" ">
<polygon fill="#bfbfbf" stroke="black" points="417,-0.5 417,-19.5 501,-19.5 501,-0.5 417,-0.5"/>
<text text-anchor="middle" x="459" y="-7.5" font-family="Helvetica,sans-Serif" font-size="10.00">get_label_pos</text>
</a>
</g>
</g>
<!-- Node2 -->
<g id="node2" class="node">
<title>Node2</title>
<g id="a_node2"><a xlink:href="quickjs_8c.html#a7a4eedc4cc552a71e165f4d28ad43985" target="_top" xlink:title=" ">
<polygon fill="none" stroke="black" points="278,-0.5 278,-19.5 381,-19.5 381,-0.5 278,-0.5"/>
<text text-anchor="middle" x="329.5" y="-7.5" font-family="Helvetica,sans-Serif" font-size="10.00">resolve_variables</text>
</a>
</g>
</g>
<!-- Node1&#45;&gt;Node2 -->
<g id="edge1" class="edge">
<title>Node1&#45;&gt;Node2</title>
<path fill="none" stroke="midnightblue" d="M406.87,-10C398.45,-10 389.72,-10 381.3,-10"/>
<polygon fill="midnightblue" stroke="midnightblue" points="406.96,-13.5 416.96,-10 406.96,-6.5 406.96,-13.5"/>
</g>
<!-- Node3 -->
<g id="node3" class="node">
<title>Node3</title>
<g id="a_node3"><a xlink:href="quickjs_8c.html#a97fcc747d8b1c3644174745d2e2739be" target="_top" xlink:title=" ">
<polygon fill="none" stroke="black" points="136,-0.5 136,-19.5 242,-19.5 242,-0.5 136,-0.5"/>
<text text-anchor="middle" x="189" y="-7.5" font-family="Helvetica,sans-Serif" font-size="10.00">js_create_function</text>
</a>
</g>
</g>
<!-- Node2&#45;&gt;Node3 -->
<g id="edge2" class="edge">
<title>Node2&#45;&gt;Node3</title>
<path fill="none" stroke="midnightblue" d="M267.52,-10C259.07,-10 250.45,-10 242.17,-10"/>
<polygon fill="midnightblue" stroke="midnightblue" points="267.71,-13.5 277.71,-10 267.71,-6.5 267.71,-13.5"/>
</g>
<!-- Node3&#45;&gt;Node3 -->
<g id="edge4" class="edge">
<title>Node3&#45;&gt;Node3</title>
<path fill="none" stroke="midnightblue" d="M214.67,-29.03C213.27,-34.13 204.71,-38 189,-38 164.47,-38 157.38,-28.57 167.73,-19.76"/>
<polygon fill="midnightblue" stroke="midnightblue" points="217.72,-27.29 210.27,-19.76 211.39,-30.29 217.72,-27.29"/>
</g>
<!-- Node4 -->
<g id="node4" class="node">
<title>Node4</title>
<g id="a_node4"><a xlink:href="quickjs_8c.html#a46a8a7e155cfd0af984f6725f060f0d6" target="_top" xlink:title=" ">
<polygon fill="none" stroke="red" points="0,-0.5 0,-19.5 100,-19.5 100,-0.5 0,-0.5"/>
<text text-anchor="middle" x="50" y="-7.5" font-family="Helvetica,sans-Serif" font-size="10.00">__JS_EvalInternal</text>
</a>
</g>
</g>
<!-- Node3&#45;&gt;Node4 -->
<g id="edge3" class="edge">
<title>Node3&#45;&gt;Node4</title>
<path fill="none" stroke="midnightblue" d="M125.58,-10C117.12,-10 108.53,-10 100.33,-10"/>
<polygon fill="midnightblue" stroke="midnightblue" points="125.82,-13.5 135.82,-10 125.82,-6.5 125.82,-13.5"/>
</g>
</g>
</svg>
