<?xml version="1.0" encoding="UTF-8" standalone="no"?>
<!DOCTYPE svg PUBLIC "-//W3C//DTD SVG 1.1//EN"
 "http://www.w3.org/Graphics/SVG/1.1/DTD/svg11.dtd">
<!-- Generated by graphviz version 2.43.0 (0)
 -->
<!-- Title: js_proxy_get_own_property_names Pages: 1 -->
<svg width="1244pt" height="1104pt"
 viewBox="0.00 0.00 1244.00 1104.00" xmlns="http://www.w3.org/2000/svg" xmlns:xlink="http://www.w3.org/1999/xlink">
<g id="graph0" class="graph" transform="scale(1 1) rotate(0) translate(4 1100)">
<title>js_proxy_get_own_property_names</title>
<!-- Node1 -->
<g id="node1" class="node">
<title>Node1</title>
<g id="a_node1"><a xlink:title=" ">
<polygon fill="#bfbfbf" stroke="black" points="0,-413 0,-443 151,-443 151,-413 0,-413"/>
<text text-anchor="start" x="8" y="-431" font-family="Helvetica,sans-Serif" font-size="10.00">js_proxy_get_own_property</text>
<text text-anchor="middle" x="75.5" y="-420" font-family="Helvetica,sans-Serif" font-size="10.00">_names</text>
</a>
</g>
</g>
<!-- Node2 -->
<g id="node2" class="node">
<title>Node2</title>
<g id="a_node2"><a xlink:href="quickjs_8c.html#aca776171b05f57175c8b4949e38a9936" target="_top" xlink:title=" ">
<polygon fill="none" stroke="black" points="236.5,-1076.5 236.5,-1095.5 320.5,-1095.5 320.5,-1076.5 236.5,-1076.5"/>
<text text-anchor="middle" x="278.5" y="-1083.5" font-family="Helvetica,sans-Serif" font-size="10.00">find_prop_key</text>
</a>
</g>
</g>
<!-- Node1&#45;&gt;Node2 -->
<g id="edge1" class="edge">
<title>Node1&#45;&gt;Node2</title>
<path fill="none" stroke="midnightblue" d="M76.99,-443.08C80.12,-530.06 100.07,-967.19 187,-1062 197.18,-1073.1 211.83,-1079.31 226.4,-1082.71"/>
<polygon fill="midnightblue" stroke="midnightblue" points="225.93,-1086.19 236.42,-1084.65 227.26,-1079.31 225.93,-1086.19"/>
</g>
<!-- Node3 -->
<g id="node3" class="node">
<title>Node3</title>
<g id="a_node3"><a xlink:href="quickjs_8c.html#a9e94551ddba8762d74eda5127445dbbd" target="_top" xlink:title=" ">
<polygon fill="none" stroke="black" points="598,-779.5 598,-798.5 706,-798.5 706,-779.5 598,-779.5"/>
<text text-anchor="middle" x="652" y="-786.5" font-family="Helvetica,sans-Serif" font-size="10.00">get_proxy_method</text>
</a>
</g>
</g>
<!-- Node1&#45;&gt;Node3 -->
<g id="edge2" class="edge">
<title>Node1&#45;&gt;Node3</title>
<path fill="none" stroke="midnightblue" d="M93.49,-443.01C114.68,-461.4 152.33,-493.07 187,-517 345.49,-626.39 549.76,-736.06 623.19,-774.56"/>
<polygon fill="midnightblue" stroke="midnightblue" points="621.79,-777.78 632.27,-779.31 625.03,-771.58 621.79,-777.78"/>
</g>
<!-- Node6 -->
<g id="node5" class="node">
<title>Node6</title>
<g id="a_node5"><a xlink:href="quickjs_8h.html#ad80a83d73e9b7d872b88fbf2943aebe9" target="_top" xlink:title=" ">
<polygon fill="none" stroke="black" points="1130,-836.5 1130,-855.5 1217,-855.5 1217,-836.5 1130,-836.5"/>
<text text-anchor="middle" x="1173.5" y="-843.5" font-family="Helvetica,sans-Serif" font-size="10.00">JS_IsException</text>
</a>
</g>
</g>
<!-- Node1&#45;&gt;Node6 -->
<g id="edge60" class="edge">
<title>Node1&#45;&gt;Node6</title>
<path fill="none" stroke="midnightblue" d="M77.03,-443.18C80.3,-526.96 100.44,-932.1 187,-1013 282.66,-1102.4 348.57,-1048 479.5,-1048 479.5,-1048 479.5,-1048 847.5,-1048 956.57,-1048 989.99,-1024.32 1075,-956 1109.77,-928.06 1142.51,-886.99 1159.79,-863.75"/>
<polygon fill="midnightblue" stroke="midnightblue" points="1162.74,-865.64 1165.82,-855.51 1157.09,-861.51 1162.74,-865.64"/>
</g>
<!-- Node10 -->
<g id="node8" class="node">
<title>Node10</title>
<g id="a_node8"><a xlink:href="quickjs_8c.html#a199d64ccbee0a90d93e1ad12745417f6" target="_top" xlink:title=" ">
<polygon fill="none" stroke="black" points="772,-875 772,-905 921,-905 921,-875 772,-875"/>
<text text-anchor="start" x="780" y="-893" font-family="Helvetica,sans-Serif" font-size="10.00">JS_ThrowTypeErrorRevoked</text>
<text text-anchor="middle" x="846.5" y="-882" font-family="Helvetica,sans-Serif" font-size="10.00">Proxy</text>
</a>
</g>
</g>
<!-- Node1&#45;&gt;Node10 -->
<g id="edge65" class="edge">
<title>Node1&#45;&gt;Node10</title>
<path fill="none" stroke="midnightblue" d="M84.04,-443.37C99.7,-474.03 138.35,-543.66 187,-588 363.89,-749.22 641.65,-837.63 772.59,-872.39"/>
<polygon fill="midnightblue" stroke="midnightblue" points="771.95,-875.84 782.52,-875 773.73,-869.07 771.95,-875.84"/>
</g>
<!-- Node11 -->
<g id="node9" class="node">
<title>Node11</title>
<g id="a_node9"><a xlink:href="quickjs_8c.html#a75f6ee5e4235a7dc99889f3d2eb2c147" target="_top" xlink:title=" ">
<polygon fill="none" stroke="black" points="445,-532.5 445,-551.5 516,-551.5 516,-532.5 445,-532.5"/>
<text text-anchor="middle" x="480.5" y="-539.5" font-family="Helvetica,sans-Serif" font-size="10.00">JS_CallFree</text>
</a>
</g>
</g>
<!-- Node1&#45;&gt;Node11 -->
<g id="edge8" class="edge">
<title>Node1&#45;&gt;Node11</title>
<path fill="none" stroke="midnightblue" d="M103.92,-443.09C125.84,-454.61 157.66,-470.13 187,-480 272.41,-508.72 376.47,-526.99 434.62,-535.79"/>
<polygon fill="midnightblue" stroke="midnightblue" points="434.18,-539.26 444.59,-537.27 435.21,-532.34 434.18,-539.26"/>
</g>
<!-- Node65 -->
<g id="node14" class="node">
<title>Node65</title>
<g id="a_node14"><a xlink:href="quickjs_8h.html#afaa20c47565bc704c6c85f3d77254e7d" target="_top" xlink:title=" ">
<polygon fill="none" stroke="red" points="988,-418.5 988,-437.5 1067,-437.5 1067,-418.5 988,-418.5"/>
<text text-anchor="middle" x="1027.5" y="-425.5" font-family="Helvetica,sans-Serif" font-size="10.00">JS_FreeValue</text>
</a>
</g>
</g>
<!-- Node1&#45;&gt;Node65 -->
<g id="edge40" class="edge">
<title>Node1&#45;&gt;Node65</title>
<path fill="none" stroke="midnightblue" d="M151.15,-428C232.04,-428 364.93,-428 479.5,-428 479.5,-428 479.5,-428 653,-428 769.5,-428 906.44,-428 977.75,-428"/>
<polygon fill="midnightblue" stroke="midnightblue" points="977.79,-431.5 987.79,-428 977.79,-424.5 977.79,-431.5"/>
</g>
<!-- Node142 -->
<g id="node18" class="node">
<title>Node142</title>
<g id="a_node18"><a xlink:href="quickjs_8c.html#a859d5c989a2aaecef1653b3ac279e108" target="_top" xlink:title=" ">
<polygon fill="none" stroke="red" points="980,-608.5 980,-627.5 1075,-627.5 1075,-608.5 980,-608.5"/>
<text text-anchor="middle" x="1027.5" y="-615.5" font-family="Helvetica,sans-Serif" font-size="10.00">JS_ValueToAtom</text>
</a>
</g>
</g>
<!-- Node1&#45;&gt;Node142 -->
<g id="edge66" class="edge">
<title>Node1&#45;&gt;Node142</title>
<path fill="none" stroke="midnightblue" d="M79.63,-443.12C98.81,-530.98 208.58,-972 479.5,-972 479.5,-972 479.5,-972 653,-972 717.94,-972 897.17,-989.99 944,-945 987.65,-903.06 955.96,-730.55 980,-675 986.55,-659.87 998.32,-645.5 1008.38,-634.98"/>
<polygon fill="midnightblue" stroke="midnightblue" points="1011.03,-637.28 1015.62,-627.73 1006.07,-632.33 1011.03,-637.28"/>
</g>
<!-- Node132 -->
<g id="node19" class="node">
<title>Node132</title>
<g id="a_node19"><a xlink:href="quickjs_8h.html#a4e407128a9605afb77523e49e9a627fd" target="_top" xlink:title=" ">
<polygon fill="none" stroke="black" points="802,-456.5 802,-475.5 891,-475.5 891,-456.5 802,-456.5"/>
<text text-anchor="middle" x="846.5" y="-463.5" font-family="Helvetica,sans-Serif" font-size="10.00">JS_IsUndefined</text>
</a>
</g>
</g>
<!-- Node1&#45;&gt;Node132 -->
<g id="edge64" class="edge">
<title>Node1&#45;&gt;Node132</title>
<path fill="none" stroke="midnightblue" d="M151,-438.36C163.02,-439.77 175.34,-441.05 187,-442 411.18,-460.25 679.43,-464.62 791.82,-465.67"/>
<polygon fill="midnightblue" stroke="midnightblue" points="791.86,-469.17 801.89,-465.76 791.92,-462.17 791.86,-469.17"/>
</g>
<!-- Node319 -->
<g id="node22" class="node">
<title>Node319</title>
<g id="a_node22"><a xlink:href="quickjs_8c.html#adfe21c674d998ca6586b7f7400352dc4" target="_top" xlink:title=" ">
<polygon fill="none" stroke="black" points="442,-380.5 442,-399.5 519,-399.5 519,-380.5 442,-380.5"/>
<text text-anchor="middle" x="480.5" y="-387.5" font-family="Helvetica,sans-Serif" font-size="10.00">js_free_desc</text>
</a>
</g>
</g>
<!-- Node1&#45;&gt;Node319 -->
<g id="edge36" class="edge">
<title>Node1&#45;&gt;Node319</title>
<path fill="none" stroke="midnightblue" d="M151.04,-418.1C163.06,-416.64 175.36,-415.21 187,-414 272.87,-405.04 373.22,-397.43 431.26,-393.3"/>
<polygon fill="midnightblue" stroke="midnightblue" points="431.86,-396.77 441.59,-392.57 431.37,-389.79 431.86,-396.77"/>
</g>
<!-- Node316 -->
<g id="node23" class="node">
<title>Node316</title>
<g id="a_node23"><a xlink:href="quickjs_8c.html#a6b42cd922447e1eb6bfc52761895a174" target="_top" xlink:title=" ">
<polygon fill="none" stroke="red" points="425.5,-0.5 425.5,-19.5 535.5,-19.5 535.5,-0.5 425.5,-0.5"/>
<text text-anchor="middle" x="480.5" y="-7.5" font-family="Helvetica,sans-Serif" font-size="10.00">js_free_prop_enum</text>
</a>
</g>
</g>
<!-- Node1&#45;&gt;Node316 -->
<g id="edge38" class="edge">
<title>Node1&#45;&gt;Node316</title>
<path fill="none" stroke="midnightblue" d="M81.68,-412.77C94.05,-378.86 128.69,-296.97 187,-257 255.52,-210.03 311.63,-278.11 370,-219 428.86,-159.4 350.54,-96.77 406,-34 409.32,-30.24 413.25,-27.06 417.52,-24.38"/>
<polygon fill="midnightblue" stroke="midnightblue" points="419.49,-27.3 426.71,-19.55 416.23,-21.11 419.49,-27.3"/>
</g>
<!-- Node75 -->
<g id="node24" class="node">
<title>Node75</title>
<g id="a_node24"><a xlink:href="quickjs_8c.html#a718e904644ebc55548a5bdbd44f3adb9" target="_top" xlink:title=" ">
<polygon fill="none" stroke="red" points="799.5,-1000.5 799.5,-1019.5 893.5,-1019.5 893.5,-1000.5 799.5,-1000.5"/>
<text text-anchor="middle" x="846.5" y="-1007.5" font-family="Helvetica,sans-Serif" font-size="10.00">js_get_length32</text>
</a>
</g>
</g>
<!-- Node1&#45;&gt;Node75 -->
<g id="edge41" class="edge">
<title>Node1&#45;&gt;Node75</title>
<path fill="none" stroke="midnightblue" d="M77.07,-443.13C80.47,-524.87 101.04,-912.73 187,-986 232.22,-1024.55 637.77,-1016.33 788.99,-1011.87"/>
<polygon fill="midnightblue" stroke="midnightblue" points="789.54,-1015.36 799.43,-1011.56 789.33,-1008.36 789.54,-1015.36"/>
</g>
<!-- Node307 -->
<g id="node25" class="node">
<title>Node307</title>
<g id="a_node25"><a xlink:href="quickjs_8c.html#ad13892c0a0f11781b566808876658099" target="_top" xlink:title=" ">
<polygon fill="none" stroke="red" points="406,-266.5 406,-285.5 555,-285.5 555,-266.5 406,-266.5"/>
<text text-anchor="middle" x="480.5" y="-273.5" font-family="Helvetica,sans-Serif" font-size="10.00">JS_GetOwnPropertyInternal</text>
</a>
</g>
</g>
<!-- Node1&#45;&gt;Node307 -->
<g id="edge44" class="edge">
<title>Node1&#45;&gt;Node307</title>
<path fill="none" stroke="midnightblue" d="M90.29,-412.98C109.79,-392.69 147.49,-356.9 187,-338 207.66,-328.12 338.8,-302.4 418.31,-287.38"/>
<polygon fill="midnightblue" stroke="midnightblue" points="419.04,-290.8 428.21,-285.51 417.74,-283.92 419.04,-290.8"/>
</g>
<!-- Node139 -->
<g id="node26" class="node">
<title>Node139</title>
<g id="a_node26"><a xlink:href="quickjs_8c.html#aeb97957655d979e9fe56c955da2b2d4b" target="_top" xlink:title=" ">
<polygon fill="none" stroke="black" points="591,-342.5 591,-361.5 713,-361.5 713,-342.5 591,-342.5"/>
<text text-anchor="middle" x="652" y="-349.5" font-family="Helvetica,sans-Serif" font-size="10.00">JS_GetPropertyUint32</text>
</a>
</g>
</g>
<!-- Node1&#45;&gt;Node139 -->
<g id="edge59" class="edge">
<title>Node1&#45;&gt;Node139</title>
<path fill="none" stroke="midnightblue" d="M118.5,-412.97C138.93,-406.21 163.99,-398.7 187,-394 324.54,-365.89 488.86,-356.59 580.43,-353.52"/>
<polygon fill="midnightblue" stroke="midnightblue" points="580.8,-357.01 590.68,-353.19 580.58,-350.01 580.8,-357.01"/>
</g>
<!-- Node317 -->
<g id="node27" class="node">
<title>Node317</title>
<g id="a_node27"><a xlink:href="quickjs_8c.html#a176ac5ff56a118a0b1b2566798d28823" target="_top" xlink:title=" ">
<polygon fill="none" stroke="red" points="187,-266.5 187,-285.5 370,-285.5 370,-266.5 187,-266.5"/>
<text text-anchor="middle" x="278.5" y="-273.5" font-family="Helvetica,sans-Serif" font-size="10.00">JS_GetOwnPropertyNamesInternal</text>
</a>
</g>
</g>
<!-- Node1&#45;&gt;Node317 -->
<g id="edge51" class="edge">
<title>Node1&#45;&gt;Node317</title>
<path fill="none" stroke="midnightblue" d="M85.32,-412.76C101.75,-385.76 139.71,-329.58 187,-300 194.23,-295.48 202.3,-291.8 210.56,-288.81"/>
<polygon fill="midnightblue" stroke="midnightblue" points="211.89,-292.06 220.3,-285.61 209.71,-285.41 211.89,-292.06"/>
</g>
<!-- Node221 -->
<g id="node28" class="node">
<title>Node221</title>
<g id="a_node28"><a xlink:href="quickjs_8c.html#a17c92ef7fbad6a6029f6aa933d669624" target="_top" xlink:title=" ">
<polygon fill="none" stroke="red" points="233.5,-190.5 233.5,-209.5 323.5,-209.5 323.5,-190.5 233.5,-190.5"/>
<text text-anchor="middle" x="278.5" y="-197.5" font-family="Helvetica,sans-Serif" font-size="10.00">JS_IsExtensible</text>
</a>
</g>
</g>
<!-- Node1&#45;&gt;Node221 -->
<g id="edge61" class="edge">
<title>Node1&#45;&gt;Node221</title>
<path fill="none" stroke="midnightblue" d="M80.26,-412.74C90.44,-374.67 122.27,-274.94 187,-224 197.48,-215.75 210.55,-210.32 223.46,-206.75"/>
<polygon fill="midnightblue" stroke="midnightblue" points="224.37,-210.14 233.26,-204.37 222.72,-203.33 224.37,-210.14"/>
</g>
<!-- Node354 -->
<g id="node29" class="node">
<title>Node354</title>
<g id="a_node29"><a xlink:href="quickjs_8h.html#aa53b9197dc6d5770e3a080c1e335f7cb" target="_top" xlink:title=" ">
<polygon fill="none" stroke="black" points="244.5,-152.5 244.5,-171.5 312.5,-171.5 312.5,-152.5 244.5,-152.5"/>
<text text-anchor="middle" x="278.5" y="-159.5" font-family="Helvetica,sans-Serif" font-size="10.00">JS_IsString</text>
</a>
</g>
</g>
<!-- Node1&#45;&gt;Node354 -->
<g id="edge62" class="edge">
<title>Node1&#45;&gt;Node354</title>
<path fill="none" stroke="midnightblue" d="M78.48,-412.94C85.04,-369.46 110.2,-242.92 187,-181 200.12,-170.42 217.71,-165.32 233.88,-162.99"/>
<polygon fill="midnightblue" stroke="midnightblue" points="234.7,-166.42 244.25,-161.83 233.92,-159.46 234.7,-166.42"/>
</g>
<!-- Node437 -->
<g id="node30" class="node">
<title>Node437</title>
<g id="a_node30"><a xlink:href="quickjs_8h.html#a167c05ce136ce5f098b405563e3660b8" target="_top" xlink:title=" ">
<polygon fill="none" stroke="black" points="240.5,-114.5 240.5,-133.5 316.5,-133.5 316.5,-114.5 240.5,-114.5"/>
<text text-anchor="middle" x="278.5" y="-121.5" font-family="Helvetica,sans-Serif" font-size="10.00">JS_IsSymbol</text>
</a>
</g>
</g>
<!-- Node1&#45;&gt;Node437 -->
<g id="edge63" class="edge">
<title>Node1&#45;&gt;Node437</title>
<path fill="none" stroke="midnightblue" d="M77.51,-412.77C81.56,-364.88 100.83,-216.16 187,-143 198.93,-132.87 214.9,-127.7 230.11,-125.18"/>
<polygon fill="midnightblue" stroke="midnightblue" points="230.98,-128.6 240.45,-123.83 230.08,-121.65 230.98,-128.6"/>
</g>
<!-- Node4 -->
<g id="node4" class="node">
<title>Node4</title>
<g id="a_node4"><a xlink:href="quickjs_8c.html#af23ec7c9970ceb4671c59da7abd4b078" target="_top" xlink:title=" ">
<polygon fill="none" stroke="red" points="778,-760.5 778,-779.5 915,-779.5 915,-760.5 778,-760.5"/>
<text text-anchor="middle" x="846.5" y="-767.5" font-family="Helvetica,sans-Serif" font-size="10.00">js_check_stack_overflow</text>
</a>
</g>
</g>
<!-- Node3&#45;&gt;Node4 -->
<g id="edge3" class="edge">
<title>Node3&#45;&gt;Node4</title>
<path fill="none" stroke="midnightblue" d="M706.11,-783.76C725.14,-781.88 747.01,-779.72 767.7,-777.68"/>
<polygon fill="midnightblue" stroke="midnightblue" points="768.13,-781.15 777.74,-776.69 767.45,-774.19 768.13,-781.15"/>
</g>
<!-- Node3&#45;&gt;Node6 -->
<g id="edge4" class="edge">
<title>Node3&#45;&gt;Node6</title>
<path fill="none" stroke="midnightblue" d="M671.9,-798.66C690.85,-807.82 721.13,-821.03 749,-827 879.86,-855.01 1038.49,-852.82 1119.41,-849.19"/>
<polygon fill="midnightblue" stroke="midnightblue" points="1120.01,-852.67 1129.83,-848.7 1119.68,-845.68 1120.01,-852.67"/>
</g>
<!-- Node7 -->
<g id="node6" class="node">
<title>Node7</title>
<g id="a_node6"><a xlink:href="quickjs_8h.html#a149f24b67e745bad93573b3b4c80db4c" target="_top" xlink:title=" ">
<polygon fill="none" stroke="black" points="817,-722.5 817,-741.5 876,-741.5 876,-722.5 817,-722.5"/>
<text text-anchor="middle" x="846.5" y="-729.5" font-family="Helvetica,sans-Serif" font-size="10.00">JS_IsNull</text>
</a>
</g>
</g>
<!-- Node3&#45;&gt;Node7 -->
<g id="edge5" class="edge">
<title>Node3&#45;&gt;Node7</title>
<path fill="none" stroke="midnightblue" d="M673.96,-779.41C693.15,-770.95 722.51,-758.78 749,-751 767.76,-745.49 789.05,-741.11 806.85,-737.95"/>
<polygon fill="midnightblue" stroke="midnightblue" points="807.62,-741.37 816.88,-736.23 806.43,-734.47 807.62,-741.37"/>
</g>
<!-- Node8 -->
<g id="node7" class="node">
<title>Node8</title>
<g id="a_node7"><a xlink:href="quickjs_8c.html#a8353f635fb8a20553c08db8cf38c17e0" target="_top" xlink:title=" ">
<polygon fill="none" stroke="red" points="781,-798.5 781,-817.5 912,-817.5 912,-798.5 781,-798.5"/>
<text text-anchor="middle" x="846.5" y="-805.5" font-family="Helvetica,sans-Serif" font-size="10.00">JS_ThrowStackOverflow</text>
</a>
</g>
</g>
<!-- Node3&#45;&gt;Node8 -->
<g id="edge6" class="edge">
<title>Node3&#45;&gt;Node8</title>
<path fill="none" stroke="midnightblue" d="M706.11,-794.24C726.09,-796.21 749.2,-798.5 770.79,-800.63"/>
<polygon fill="midnightblue" stroke="midnightblue" points="770.62,-804.13 780.92,-801.63 771.31,-797.16 770.62,-804.13"/>
</g>
<!-- Node3&#45;&gt;Node10 -->
<g id="edge7" class="edge">
<title>Node3&#45;&gt;Node10</title>
<path fill="none" stroke="midnightblue" d="M665.59,-798.68C689.53,-817.02 740.03,-855.45 749,-860 757.69,-864.4 767.14,-868.31 776.62,-871.72"/>
<polygon fill="midnightblue" stroke="midnightblue" points="775.49,-875.03 786.09,-874.97 777.77,-868.41 775.49,-875.03"/>
</g>
<!-- Node12 -->
<g id="node10" class="node">
<title>Node12</title>
<g id="a_node10"><a xlink:href="quickjs_8c.html#ac2894ff4edcdb4e6841bcce9c76081e3" target="_top" xlink:title=" ">
<polygon fill="none" stroke="red" points="608.5,-532.5 608.5,-551.5 695.5,-551.5 695.5,-532.5 608.5,-532.5"/>
<text text-anchor="middle" x="652" y="-539.5" font-family="Helvetica,sans-Serif" font-size="10.00">JS_CallInternal</text>
</a>
</g>
</g>
<!-- Node11&#45;&gt;Node12 -->
<g id="edge9" class="edge">
<title>Node11&#45;&gt;Node12</title>
<path fill="none" stroke="midnightblue" d="M516.21,-536.43C539.72,-535.16 571.24,-534.92 597.89,-535.69"/>
<polygon fill="midnightblue" stroke="midnightblue" points="598.1,-539.2 608.22,-536.05 598.34,-532.2 598.1,-539.2"/>
</g>
<!-- Node11&#45;&gt;Node65 -->
<g id="edge35" class="edge">
<title>Node11&#45;&gt;Node65</title>
<path fill="none" stroke="midnightblue" d="M483.38,-551.75C490.91,-588.81 521.97,-723.17 591,-808 644.53,-873.78 667.92,-890.13 749,-915 831.86,-940.42 879.34,-972.71 944,-915 996.73,-867.94 966.69,-668.41 980,-599 990.73,-543.05 1010.27,-478.58 1020.25,-447.18"/>
<polygon fill="midnightblue" stroke="midnightblue" points="1023.63,-448.11 1023.36,-437.52 1016.97,-445.97 1023.63,-448.11"/>
</g>
<!-- Node12&#45;&gt;Node4 -->
<g id="edge13" class="edge">
<title>Node12&#45;&gt;Node4</title>
<path fill="none" stroke="midnightblue" d="M654.34,-551.8C659.49,-585.53 681.25,-697.62 749,-751 754.72,-755.5 761.21,-759.04 768.05,-761.79"/>
<polygon fill="midnightblue" stroke="midnightblue" points="766.97,-765.12 777.57,-765.09 769.26,-758.51 766.97,-765.12"/>
</g>
<!-- Node12&#45;&gt;Node6 -->
<g id="edge27" class="edge">
<title>Node12&#45;&gt;Node6</title>
<path fill="none" stroke="midnightblue" d="M661.41,-551.66C676.87,-568.74 711.66,-604.04 749,-621 882.72,-681.74 954.49,-591.06 1075,-675 1128.88,-712.53 1156.8,-790.04 1167.38,-826.38"/>
<polygon fill="midnightblue" stroke="midnightblue" points="1164.07,-827.55 1170.12,-836.25 1170.82,-825.68 1164.07,-827.55"/>
</g>
<!-- Node12&#45;&gt;Node7 -->
<g id="edge28" class="edge">
<title>Node12&#45;&gt;Node7</title>
<path fill="none" stroke="midnightblue" d="M655.65,-551.67C664.05,-580.38 692.87,-665.76 749,-708 765.53,-720.44 787.72,-726.49 806.66,-729.41"/>
<polygon fill="midnightblue" stroke="midnightblue" points="806.42,-732.91 816.79,-730.73 807.32,-725.97 806.42,-732.91"/>
</g>
<!-- Node12&#45;&gt;Node8 -->
<g id="edge33" class="edge">
<title>Node12&#45;&gt;Node8</title>
<path fill="none" stroke="midnightblue" d="M653.58,-551.68C656.35,-588.92 671.58,-724.16 749,-789 755.54,-794.48 763.2,-798.54 771.3,-801.53"/>
<polygon fill="midnightblue" stroke="midnightblue" points="770.37,-804.91 780.96,-804.57 772.47,-798.23 770.37,-804.91"/>
</g>
<!-- Node12&#45;&gt;Node11 -->
<g id="edge11" class="edge">
<title>Node12&#45;&gt;Node11</title>
<path fill="none" stroke="midnightblue" d="M608.22,-547.95C583.2,-548.99 551.66,-549.01 526.3,-548.03"/>
<polygon fill="midnightblue" stroke="midnightblue" points="526.36,-544.53 516.21,-547.57 526.04,-551.53 526.36,-544.53"/>
</g>
<!-- Node12&#45;&gt;Node12 -->
<g id="edge12" class="edge">
<title>Node12&#45;&gt;Node12</title>
<path fill="none" stroke="midnightblue" d="M625.8,-551.76C613.05,-560.57 621.79,-570 652,-570 672.3,-570 682.9,-565.74 683.81,-560.27"/>
<polygon fill="midnightblue" stroke="midnightblue" points="686.63,-558.18 678.2,-551.76 680.78,-562.03 686.63,-558.18"/>
</g>
<!-- Node13 -->
<g id="node11" class="node">
<title>Node13</title>
<g id="a_node11"><a xlink:href="quickjs_8c.html#a877fcb7651d95b411ce70e62b7f4a1f0" target="_top" xlink:title=" ">
<polygon fill="none" stroke="black" points="1111,-570.5 1111,-589.5 1236,-589.5 1236,-570.5 1111,-570.5"/>
<text text-anchor="middle" x="1173.5" y="-577.5" font-family="Helvetica,sans-Serif" font-size="10.00">__JS_AtomFromUInt32</text>
</a>
</g>
</g>
<!-- Node12&#45;&gt;Node13 -->
<g id="edge10" class="edge">
<title>Node12&#45;&gt;Node13</title>
<path fill="none" stroke="midnightblue" d="M695.51,-545.11C784.46,-551.62 991.01,-566.72 1100.84,-574.76"/>
<polygon fill="midnightblue" stroke="midnightblue" points="1100.6,-578.25 1110.83,-575.49 1101.11,-571.27 1100.6,-578.25"/>
</g>
<!-- Node44 -->
<g id="node12" class="node">
<title>Node44</title>
<g id="a_node12"><a xlink:href="quickjs_8h.html#a775522f2d084fc8fa0fcb33f390006b4" target="_top" xlink:title=" ">
<polygon fill="none" stroke="black" points="989,-266.5 989,-285.5 1066,-285.5 1066,-266.5 989,-266.5"/>
<text text-anchor="middle" x="1027.5" y="-273.5" font-family="Helvetica,sans-Serif" font-size="10.00">JS_DupValue</text>
</a>
</g>
</g>
<!-- Node12&#45;&gt;Node44 -->
<g id="edge14" class="edge">
<title>Node12&#45;&gt;Node44</title>
<path fill="none" stroke="midnightblue" d="M654.35,-532.22C659.55,-498.56 681.47,-386.65 749,-333 815.48,-280.18 918.49,-272.68 978.53,-273.39"/>
<polygon fill="midnightblue" stroke="midnightblue" points="978.8,-276.9 988.87,-273.6 978.94,-269.9 978.8,-276.9"/>
</g>
<!-- Node64 -->
<g id="node13" class="node">
<title>Node64</title>
<g id="a_node13"><a xlink:href="quickjs_8c.html#ab7fc45a99935a1c0ba50b0216d9401a9" target="_top" xlink:title=" ">
<polygon fill="none" stroke="red" points="988.5,-133.5 988.5,-152.5 1066.5,-152.5 1066.5,-133.5 988.5,-133.5"/>
<text text-anchor="middle" x="1027.5" y="-140.5" font-family="Helvetica,sans-Serif" font-size="10.00">JS_FreeAtom</text>
</a>
</g>
</g>
<!-- Node12&#45;&gt;Node64 -->
<g id="edge15" class="edge">
<title>Node12&#45;&gt;Node64</title>
<path fill="none" stroke="midnightblue" d="M656.37,-532.41C673.25,-484.38 747.81,-272.31 749,-271 749.28,-270.69 924.35,-190.04 996.24,-156.94"/>
<polygon fill="midnightblue" stroke="midnightblue" points="998.05,-159.96 1005.67,-152.59 995.12,-153.6 998.05,-159.96"/>
</g>
<!-- Node12&#45;&gt;Node65 -->
<g id="edge16" class="edge">
<title>Node12&#45;&gt;Node65</title>
<path fill="none" stroke="midnightblue" d="M695.51,-547.78C754.55,-553.82 863.2,-557.59 944,-518 976.35,-502.15 1002.11,-467.67 1015.77,-446.29"/>
<polygon fill="midnightblue" stroke="midnightblue" points="1018.92,-447.85 1021.18,-437.5 1012.96,-444.19 1018.92,-447.85"/>
</g>
<!-- Node76 -->
<g id="node15" class="node">
<title>Node76</title>
<g id="a_node15"><a xlink:href="quickjs_8h.html#a89b7c8686c7eee70b86be722ee4730ad" target="_top" xlink:title=" ">
<polygon fill="none" stroke="red" points="983,-684.5 983,-703.5 1072,-703.5 1072,-684.5 983,-684.5"/>
<text text-anchor="middle" x="1027.5" y="-691.5" font-family="Helvetica,sans-Serif" font-size="10.00">JS_GetProperty</text>
</a>
</g>
</g>
<!-- Node12&#45;&gt;Node76 -->
<g id="edge17" class="edge">
<title>Node12&#45;&gt;Node76</title>
<path fill="none" stroke="midnightblue" d="M656.83,-551.56C667.29,-576.27 698.97,-642.23 749,-670 818.8,-708.75 913.98,-707.5 972.77,-701.73"/>
<polygon fill="midnightblue" stroke="midnightblue" points="973.38,-705.18 982.96,-700.65 972.64,-698.22 973.38,-705.18"/>
</g>
<!-- Node140 -->
<g id="node16" class="node">
<title>Node140</title>
<g id="a_node16"><a xlink:href="quickjs_8c.html#a90d6e607f6917d817c1e997bd2e6ed07" target="_top" xlink:title=" ">
<polygon fill="none" stroke="red" points="788.5,-342.5 788.5,-361.5 904.5,-361.5 904.5,-342.5 788.5,-342.5"/>
<text text-anchor="middle" x="846.5" y="-349.5" font-family="Helvetica,sans-Serif" font-size="10.00">JS_GetPropertyValue</text>
</a>
</g>
</g>
<!-- Node12&#45;&gt;Node140 -->
<g id="edge18" class="edge">
<title>Node12&#45;&gt;Node140</title>
<path fill="none" stroke="midnightblue" d="M662.8,-532.28C680.16,-515.08 717.46,-478.13 749,-447 776.79,-419.57 809.15,-387.74 828.44,-368.77"/>
<polygon fill="midnightblue" stroke="midnightblue" points="830.95,-371.21 835.63,-361.7 826.04,-366.22 830.95,-371.21"/>
</g>
<!-- Node141 -->
<g id="node17" class="node">
<title>Node141</title>
<g id="a_node17"><a xlink:href="quickjs_8h.html#a88259aa0da61ac754402c64ccecee116" target="_top" xlink:title=" ">
<polygon fill="none" stroke="red" points="985,-342.5 985,-361.5 1070,-361.5 1070,-342.5 985,-342.5"/>
<text text-anchor="middle" x="1027.5" y="-349.5" font-family="Helvetica,sans-Serif" font-size="10.00">JS_NewUint32</text>
</a>
</g>
</g>
<!-- Node12&#45;&gt;Node141 -->
<g id="edge31" class="edge">
<title>Node12&#45;&gt;Node141</title>
<path fill="none" stroke="midnightblue" d="M688.41,-532.45C706.47,-527.76 728.82,-522.22 749,-518 835.03,-499.99 873.92,-538.06 944,-485 973.8,-462.44 960.04,-440.6 980,-409 989.02,-394.72 1001.14,-379.98 1010.74,-369.06"/>
<polygon fill="midnightblue" stroke="midnightblue" points="1013.42,-371.31 1017.5,-361.54 1008.21,-366.64 1013.42,-371.31"/>
</g>
<!-- Node12&#45;&gt;Node142 -->
<g id="edge34" class="edge">
<title>Node12&#45;&gt;Node142</title>
<path fill="none" stroke="midnightblue" d="M666.52,-551.67C684.41,-563.91 717.41,-584.53 749,-594 822.91,-616.16 912.5,-620.02 969.5,-619.78"/>
<polygon fill="midnightblue" stroke="midnightblue" points="969.79,-623.28 979.75,-619.7 969.72,-616.28 969.79,-623.28"/>
</g>
<!-- Node12&#45;&gt;Node132 -->
<g id="edge29" class="edge">
<title>Node12&#45;&gt;Node132</title>
<path fill="none" stroke="midnightblue" d="M667.73,-532.49C686.1,-520.99 718.78,-501.72 749,-490 762.47,-484.77 777.45,-480.4 791.5,-476.88"/>
<polygon fill="midnightblue" stroke="midnightblue" points="792.64,-480.21 801.54,-474.47 791,-473.4 792.64,-480.21"/>
</g>
<!-- Node156 -->
<g id="node20" class="node">
<title>Node156</title>
<g id="a_node20"><a xlink:href="quickjs_8h.html#aaab426b47c95d00479b7355b1cf7f56c" target="_top" xlink:title=" ">
<polygon fill="none" stroke="black" points="796,-152.5 796,-171.5 897,-171.5 897,-152.5 796,-152.5"/>
<text text-anchor="middle" x="846.5" y="-159.5" font-family="Helvetica,sans-Serif" font-size="10.00">JS_IsUninitialized</text>
</a>
</g>
</g>
<!-- Node12&#45;&gt;Node156 -->
<g id="edge30" class="edge">
<title>Node12&#45;&gt;Node156</title>
<path fill="none" stroke="midnightblue" d="M657.03,-532.14C667.52,-506.16 696.04,-433.55 713,-371 734.92,-290.16 691.32,-246.74 749,-186 758.76,-175.73 772.18,-169.57 785.91,-165.95"/>
<polygon fill="midnightblue" stroke="midnightblue" points="786.91,-169.32 795.92,-163.74 785.4,-162.48 786.91,-169.32"/>
</g>
<!-- Node163 -->
<g id="node21" class="node">
<title>Node163</title>
<g id="a_node21"><a xlink:href="quickjs_8c.html#a75ac132a3af4de01e1fadeb0bede6ee7" target="_top" xlink:title=" ">
<polygon fill="none" stroke="red" points="749,-114.5 749,-133.5 944,-133.5 944,-114.5 749,-114.5"/>
<text text-anchor="middle" x="846.5" y="-121.5" font-family="Helvetica,sans-Serif" font-size="10.00">JS_ThrowReferenceErrorUninitialized</text>
</a>
</g>
</g>
<!-- Node12&#45;&gt;Node163 -->
<g id="edge32" class="edge">
<title>Node12&#45;&gt;Node163</title>
<path fill="none" stroke="midnightblue" d="M657.16,-532.17C667.96,-506.27 697.15,-433.84 713,-371 725.54,-321.26 713.42,-179.95 749,-143 750.11,-141.85 751.27,-140.75 752.47,-139.71"/>
<polygon fill="midnightblue" stroke="midnightblue" points="754.86,-142.31 760.97,-133.65 750.8,-136.61 754.86,-142.31"/>
</g>
<!-- Node140&#45;&gt;Node44 -->
<g id="edge19" class="edge">
<title>Node140&#45;&gt;Node44</title>
<path fill="none" stroke="midnightblue" d="M870.17,-342.37C901.64,-329.01 958.73,-304.77 994.52,-289.58"/>
<polygon fill="midnightblue" stroke="midnightblue" points="996.18,-292.68 1004.01,-285.55 993.44,-286.23 996.18,-292.68"/>
</g>
<!-- Node140&#45;&gt;Node64 -->
<g id="edge20" class="edge">
<title>Node140&#45;&gt;Node64</title>
<path fill="none" stroke="midnightblue" d="M855.66,-342.48C883.55,-309.9 975.43,-202.62 1011.64,-160.35"/>
<polygon fill="midnightblue" stroke="midnightblue" points="1014.45,-162.45 1018.3,-152.58 1009.13,-157.9 1014.45,-162.45"/>
</g>
<!-- Node140&#45;&gt;Node65 -->
<g id="edge21" class="edge">
<title>Node140&#45;&gt;Node65</title>
<path fill="none" stroke="midnightblue" d="M899.08,-361.62C913.9,-365.24 929.87,-369.97 944,-376 966.47,-385.58 989.82,-400.88 1005.92,-412.41"/>
<polygon fill="midnightblue" stroke="midnightblue" points="1003.92,-415.29 1014.06,-418.36 1008.06,-409.64 1003.92,-415.29"/>
</g>
<!-- Node140&#45;&gt;Node76 -->
<g id="edge22" class="edge">
<title>Node140&#45;&gt;Node76</title>
<path fill="none" stroke="midnightblue" d="M861.62,-361.51C883.14,-376.81 923.74,-409.04 944,-447 984.47,-522.82 943.72,-559.09 980,-637 986.96,-651.95 998.72,-666.31 1008.68,-676.88"/>
<polygon fill="midnightblue" stroke="midnightblue" points="1006.33,-679.49 1015.83,-684.17 1011.33,-674.58 1006.33,-679.49"/>
</g>
<!-- Node140&#45;&gt;Node141 -->
<g id="edge23" class="edge">
<title>Node140&#45;&gt;Node141</title>
<path fill="none" stroke="midnightblue" d="M904.63,-352C927.15,-352 952.84,-352 974.8,-352"/>
<polygon fill="midnightblue" stroke="midnightblue" points="974.93,-355.5 984.93,-352 974.93,-348.5 974.93,-355.5"/>
</g>
<!-- Node140&#45;&gt;Node142 -->
<g id="edge24" class="edge">
<title>Node140&#45;&gt;Node142</title>
<path fill="none" stroke="midnightblue" d="M859.81,-361.71C879.56,-377.77 918.68,-411.64 944,-447 980.03,-497.32 1007.59,-565.82 1019.72,-598.76"/>
<polygon fill="midnightblue" stroke="midnightblue" points="1016.55,-600.27 1023.23,-608.49 1023.13,-597.89 1016.55,-600.27"/>
</g>
<!-- Node142&#45;&gt;Node6 -->
<g id="edge26" class="edge">
<title>Node142&#45;&gt;Node6</title>
<path fill="none" stroke="midnightblue" d="M1054.14,-627.54C1061.54,-631.21 1069.18,-636 1075,-642 1128.46,-697.12 1157.15,-787.11 1167.71,-826.5"/>
<polygon fill="midnightblue" stroke="midnightblue" points="1164.32,-827.39 1170.21,-836.2 1171.1,-825.64 1164.32,-827.39"/>
</g>
<!-- Node142&#45;&gt;Node13 -->
<g id="edge25" class="edge">
<title>Node142&#45;&gt;Node13</title>
<path fill="none" stroke="midnightblue" d="M1064.84,-608.41C1083.58,-603.46 1106.64,-597.38 1126.61,-592.11"/>
<polygon fill="midnightblue" stroke="midnightblue" points="1127.65,-595.46 1136.42,-589.52 1125.86,-588.69 1127.65,-595.46"/>
</g>
<!-- Node319&#45;&gt;Node65 -->
<g id="edge37" class="edge">
<title>Node319&#45;&gt;Node65</title>
<path fill="none" stroke="midnightblue" d="M519.09,-390.47C598.03,-391.79 786.76,-396.64 944,-414 954.95,-415.21 966.64,-416.93 977.68,-418.75"/>
<polygon fill="midnightblue" stroke="midnightblue" points="977.16,-422.21 987.6,-420.44 978.33,-415.31 977.16,-422.21"/>
</g>
<!-- Node316&#45;&gt;Node64 -->
<g id="edge39" class="edge">
<title>Node316&#45;&gt;Node64</title>
<path fill="none" stroke="midnightblue" d="M535.85,-7.52C625.16,-5.54 806.72,-10.37 944,-72 971.45,-84.32 996.67,-108.79 1011.82,-125.52"/>
<polygon fill="midnightblue" stroke="midnightblue" points="1009.55,-128.25 1018.78,-133.46 1014.82,-123.63 1009.55,-128.25"/>
</g>
<!-- Node75&#45;&gt;Node6 -->
<g id="edge43" class="edge">
<title>Node75&#45;&gt;Node6</title>
<path fill="none" stroke="midnightblue" d="M893.59,-1001.56C909.87,-997.79 928.08,-992.67 944,-986 1025.83,-951.72 1112.55,-890.82 1151.46,-861.98"/>
<polygon fill="midnightblue" stroke="midnightblue" points="1153.96,-864.49 1159.87,-855.7 1149.77,-858.88 1153.96,-864.49"/>
</g>
<!-- Node75&#45;&gt;Node76 -->
<g id="edge42" class="edge">
<title>Node75&#45;&gt;Node76</title>
<path fill="none" stroke="midnightblue" d="M893.54,-1008.22C911.34,-1005.27 930.61,-998.97 944,-986 984.07,-947.17 1014.32,-772.64 1023.56,-713.6"/>
<polygon fill="midnightblue" stroke="midnightblue" points="1027.02,-714.1 1025.08,-703.69 1020.1,-713.04 1027.02,-714.1"/>
</g>
<!-- Node307&#45;&gt;Node44 -->
<g id="edge45" class="edge">
<title>Node307&#45;&gt;Node44</title>
<path fill="none" stroke="midnightblue" d="M555.21,-273.34C646.5,-270.47 806.75,-266.84 944,-271 955.2,-271.34 967.25,-271.94 978.58,-272.6"/>
<polygon fill="midnightblue" stroke="midnightblue" points="978.54,-276.11 988.74,-273.23 978.97,-269.12 978.54,-276.11"/>
</g>
<!-- Node307&#45;&gt;Node156 -->
<g id="edge49" class="edge">
<title>Node307&#45;&gt;Node156</title>
<path fill="none" stroke="midnightblue" d="M542.87,-266.47C590.96,-257.41 658.6,-241.04 713,-214 731.15,-204.98 730.77,-194.86 749,-186 760.39,-180.46 773.19,-176.13 785.64,-172.76"/>
<polygon fill="midnightblue" stroke="midnightblue" points="786.68,-176.11 795.52,-170.26 784.96,-169.32 786.68,-176.11"/>
</g>
<!-- Node307&#45;&gt;Node163 -->
<g id="edge50" class="edge">
<title>Node307&#45;&gt;Node163</title>
<path fill="none" stroke="midnightblue" d="M496,-266.35C516.61,-252.85 555.81,-227.96 591,-210 658.94,-175.34 676.08,-165.38 749,-143 757.97,-140.25 767.53,-137.8 777.01,-135.66"/>
<polygon fill="midnightblue" stroke="midnightblue" points="777.81,-139.07 786.84,-133.53 776.33,-132.23 777.81,-139.07"/>
</g>
<!-- Node307&#45;&gt;Node139 -->
<g id="edge46" class="edge">
<title>Node307&#45;&gt;Node139</title>
<path fill="none" stroke="midnightblue" d="M502.97,-285.63C532.64,-298.93 586.37,-323.02 620.28,-338.23"/>
<polygon fill="midnightblue" stroke="midnightblue" points="619.15,-341.55 629.71,-342.45 622.01,-335.17 619.15,-341.55"/>
</g>
<!-- Node139&#45;&gt;Node140 -->
<g id="edge47" class="edge">
<title>Node139&#45;&gt;Node140</title>
<path fill="none" stroke="midnightblue" d="M713.12,-352C733.78,-352 757.05,-352 778.25,-352"/>
<polygon fill="midnightblue" stroke="midnightblue" points="778.47,-355.5 788.47,-352 778.47,-348.5 778.47,-355.5"/>
</g>
<!-- Node139&#45;&gt;Node141 -->
<g id="edge48" class="edge">
<title>Node139&#45;&gt;Node141</title>
<path fill="none" stroke="midnightblue" d="M691.98,-342.49C709.32,-338.72 730.06,-334.86 749,-333 835.25,-324.55 857.89,-323.21 944,-333 956.91,-334.47 970.73,-337.19 983.31,-340.12"/>
<polygon fill="midnightblue" stroke="midnightblue" points="982.54,-343.53 993.08,-342.49 984.19,-336.73 982.54,-343.53"/>
</g>
<!-- Node317&#45;&gt;Node13 -->
<g id="edge52" class="edge">
<title>Node317&#45;&gt;Node13</title>
<path fill="none" stroke="midnightblue" d="M348.18,-266.5C356.31,-262.99 363.88,-258.29 370,-252 418.43,-202.26 353.09,-144.95 406,-100 519.38,-3.69 973.65,-15.11 1075,-124 1135.85,-189.38 1164.24,-480.81 1170.92,-560.05"/>
<polygon fill="midnightblue" stroke="midnightblue" points="1167.44,-560.47 1171.75,-570.15 1174.42,-559.9 1167.44,-560.47"/>
</g>
<!-- Node317&#45;&gt;Node64 -->
<g id="edge55" class="edge">
<title>Node317&#45;&gt;Node64</title>
<path fill="none" stroke="midnightblue" d="M346.1,-266.33C354.85,-262.87 363.14,-258.23 370,-252 404.04,-221.08 370.4,-184.11 406,-155 498.95,-78.99 826.71,-79.29 944,-105 964.54,-109.5 986.06,-119.62 1001.97,-128.29"/>
<polygon fill="midnightblue" stroke="midnightblue" points="1000.66,-131.57 1011.09,-133.43 1004.1,-125.47 1000.66,-131.57"/>
</g>
<!-- Node317&#45;&gt;Node156 -->
<g id="edge57" class="edge">
<title>Node317&#45;&gt;Node156</title>
<path fill="none" stroke="midnightblue" d="M326.13,-266.48C410.48,-249.28 594.05,-211.93 749,-181 761.29,-178.55 774.46,-175.94 787,-173.47"/>
<polygon fill="midnightblue" stroke="midnightblue" points="787.76,-176.89 796.89,-171.52 786.41,-170.02 787.76,-176.89"/>
</g>
<!-- Node317&#45;&gt;Node163 -->
<g id="edge58" class="edge">
<title>Node317&#45;&gt;Node163</title>
<path fill="none" stroke="midnightblue" d="M333.37,-266.4C345.87,-262.92 358.78,-258.25 370,-252 389.23,-241.29 387.23,-229.5 406,-218 507.74,-155.65 644.77,-134.25 738.61,-127.12"/>
<polygon fill="midnightblue" stroke="midnightblue" points="738.97,-130.61 748.7,-126.4 738.47,-123.63 738.97,-130.61"/>
</g>
<!-- Node317&#45;&gt;Node319 -->
<g id="edge53" class="edge">
<title>Node317&#45;&gt;Node319</title>
<path fill="none" stroke="midnightblue" d="M296.21,-285.52C331.21,-305.47 412.42,-351.76 453.98,-375.46"/>
<polygon fill="midnightblue" stroke="midnightblue" points="452.28,-378.51 462.7,-380.42 455.74,-372.43 452.28,-378.51"/>
</g>
<!-- Node317&#45;&gt;Node316 -->
<g id="edge54" class="edge">
<title>Node317&#45;&gt;Node316</title>
<path fill="none" stroke="midnightblue" d="M349.49,-266.49C357.21,-262.96 364.32,-258.26 370,-252 436.04,-179.32 342.03,-108.51 406,-34 409.22,-30.25 413.03,-27.08 417.2,-24.41"/>
<polygon fill="midnightblue" stroke="midnightblue" points="419.03,-27.4 426.19,-19.58 415.72,-21.23 419.03,-27.4"/>
</g>
<!-- Node317&#45;&gt;Node307 -->
<g id="edge56" class="edge">
<title>Node317&#45;&gt;Node307</title>
<path fill="none" stroke="midnightblue" d="M370.14,-276C378.66,-276 387.28,-276 395.73,-276"/>
<polygon fill="midnightblue" stroke="midnightblue" points="395.95,-279.5 405.95,-276 395.95,-272.5 395.95,-279.5"/>
</g>
</g>
</svg>
