<?xml version="1.0" encoding="UTF-8" standalone="no"?>
<!DOCTYPE svg PUBLIC "-//W3C//DTD SVG 1.1//EN"
 "http://www.w3.org/Graphics/SVG/1.1/DTD/svg11.dtd">
<!-- Generated by graphviz version 2.43.0 (0)
 -->
<!-- Title: js_os_pipe Pages: 1 -->
<!--zoomable 256 -->
<svg id="main" version="1.1" xmlns="http://www.w3.org/2000/svg" xmlns:xlink="http://www.w3.org/1999/xlink" xml:space="preserve" onload="init(evt)">
<style type="text/css"><![CDATA[
.edge:hover path { stroke: red; }
.edge:hover polygon { stroke: red; fill: red; }
]]></style>
<script type="text/javascript"><![CDATA[
var edges = document.getElementsByTagName('g');
if (edges && edges.length) {
  for (var i=0;i<edges.length;i++) {
    if (edges[i].id.substr(0,4)=='edge') {
      edges[i].setAttribute('class','edge');
    }
  }
}
]]></script>
        <defs>
                <circle id="rim" cx="0" cy="0" r="7"/>
                <circle id="rim2" cx="0" cy="0" r="3.5"/>
                <g id="zoomPlus">
                        <use xlink:href="#rim" fill="#404040">
                                <set attributeName="fill" to="#808080" begin="zoomplus.mouseover" end="zoomplus.mouseout"/>
                        </use>
                        <path d="M-4,0h8M0,-4v8" fill="none" stroke="white" stroke-width="1.5" pointer-events="none"/>
                </g>
                <g id="zoomMin">
                        <use xlink:href="#rim" fill="#404040">
                                <set attributeName="fill" to="#808080" begin="zoomminus.mouseover" end="zoomminus.mouseout"/>
                        </use>
                        <path d="M-4,0h8" fill="none" stroke="white" stroke-width="1.5" pointer-events="none"/>
                </g>
                <g id="dirArrow">
                        <path fill="none" stroke="white" stroke-width="1.5" d="M0,-3.0v7 M-2.5,-0.5L0,-3.0L2.5,-0.5"/>
                </g>
               <g id="resetDef">
                       <use xlink:href="#rim2" fill="#404040">
                               <set attributeName="fill" to="#808080" begin="reset.mouseover" end="reset.mouseout"/>
                       </use>
               </g>
        </defs>

<script type="text/javascript">
var viewWidth = 759;
var viewHeight = 256;
var sectionId = 'dynsection-111';
</script>
<script xlink:href="svgpan.js"/>
<svg id="graph" class="graph">
<g id="viewport">
<title>js_os_pipe</title>
<!-- Node1 -->
<g id="node1" class="node">
<title>Node1</title>
<g id="a_node1"><a xlink:title=" ">
<polygon fill="#bfbfbf" stroke="black" points="0,-57.5 0,-76.5 68,-76.5 68,-57.5 0,-57.5"/>
<text text-anchor="middle" x="34" y="-64.5" font-family="Helvetica,sans-Serif" font-size="10.00">js_os_pipe</text>
</a>
</g>
</g>
<!-- Node2 -->
<g id="node2" class="node">
<title>Node2</title>
<g id="a_node2"><a xlink:href="quickjs_8c.html#a12aed667595f49667e0095f0a028e0d4" target="_top" xlink:title=" ">
<polygon fill="none" stroke="black" points="104,-114.5 104,-133.5 267,-133.5 267,-114.5 104,-114.5"/>
<text text-anchor="middle" x="185.5" y="-121.5" font-family="Helvetica,sans-Serif" font-size="10.00">JS_DefinePropertyValueUint32</text>
</a>
</g>
</g>
<!-- Node1&#45;&gt;Node2 -->
<g id="edge1" class="edge">
<title>Node1&#45;&gt;Node2</title>
<path fill="none" stroke="midnightblue" d="M53.11,-76.62C66.83,-83.67 86.28,-93.17 104,-100 114.95,-104.22 126.96,-108.16 138.29,-111.57"/>
<polygon fill="midnightblue" stroke="midnightblue" points="137.45,-114.97 148.03,-114.43 139.42,-108.26 137.45,-114.97"/>
</g>
<!-- Node69 -->
<g id="node8" class="node">
<title>Node69</title>
<g id="a_node8"><a xlink:href="quickjs_8h.html#ad80a83d73e9b7d872b88fbf2943aebe9" target="_top" xlink:title=" ">
<polygon fill="none" stroke="black" points="664,-95.5 664,-114.5 751,-114.5 751,-95.5 664,-95.5"/>
<text text-anchor="middle" x="707.5" y="-102.5" font-family="Helvetica,sans-Serif" font-size="10.00">JS_IsException</text>
</a>
</g>
</g>
<!-- Node1&#45;&gt;Node69 -->
<g id="edge11" class="edge">
<title>Node1&#45;&gt;Node69</title>
<path fill="none" stroke="midnightblue" d="M68.05,-61.84C158.93,-48.76 419.66,-18.62 628,-67 647.66,-71.57 668.14,-81.68 683.25,-90.33"/>
<polygon fill="midnightblue" stroke="midnightblue" points="681.52,-93.37 691.9,-95.46 685.08,-87.35 681.52,-93.37"/>
</g>
<!-- Node130 -->
<g id="node10" class="node">
<title>Node130</title>
<g id="a_node10"><a xlink:href="quickjs_8h.html#a2050bc428da1c65ac7eb87c3fa3b0392" target="_top" xlink:title=" ">
<polygon fill="none" stroke="black" points="524,-76.5 524,-95.5 601,-95.5 601,-76.5 524,-76.5"/>
<text text-anchor="middle" x="562.5" y="-83.5" font-family="Helvetica,sans-Serif" font-size="10.00">JS_NewInt32</text>
</a>
</g>
</g>
<!-- Node1&#45;&gt;Node130 -->
<g id="edge13" class="edge">
<title>Node1&#45;&gt;Node130</title>
<path fill="none" stroke="midnightblue" d="M68.33,-68.2C158.68,-71.46 408.51,-80.48 513.76,-84.28"/>
<polygon fill="midnightblue" stroke="midnightblue" points="513.67,-87.78 523.79,-84.64 513.92,-80.78 513.67,-87.78"/>
</g>
<!-- Node208 -->
<g id="node11" class="node">
<title>Node208</title>
<g id="a_node11"><a xlink:href="quickjs_8c.html#ad4ba09e4c7ab9f28c144182e1aacf1f6" target="_top" xlink:title=" ">
<polygon fill="none" stroke="red" points="146,-0.5 146,-19.5 225,-19.5 225,-0.5 146,-0.5"/>
<text text-anchor="middle" x="185.5" y="-7.5" font-family="Helvetica,sans-Serif" font-size="10.00">JS_NewArray</text>
</a>
</g>
</g>
<!-- Node1&#45;&gt;Node208 -->
<g id="edge12" class="edge">
<title>Node1&#45;&gt;Node208</title>
<path fill="none" stroke="midnightblue" d="M53.11,-57.38C66.83,-50.33 86.28,-40.83 104,-34 114.95,-29.78 126.96,-25.84 138.29,-22.43"/>
<polygon fill="midnightblue" stroke="midnightblue" points="139.42,-25.74 148.03,-19.57 137.45,-19.03 139.42,-25.74"/>
</g>
<!-- Node3 -->
<g id="node3" class="node">
<title>Node3</title>
<g id="a_node3"><a xlink:href="quickjs_8c.html#a0c61bd5a64c743e81188bb528b78e715" target="_top" xlink:title=" ">
<polygon fill="none" stroke="black" points="303,-152.5 303,-171.5 461,-171.5 461,-152.5 303,-152.5"/>
<text text-anchor="middle" x="382" y="-159.5" font-family="Helvetica,sans-Serif" font-size="10.00">JS_DefinePropertyValueValue</text>
</a>
</g>
</g>
<!-- Node2&#45;&gt;Node3 -->
<g id="edge2" class="edge">
<title>Node2&#45;&gt;Node3</title>
<path fill="none" stroke="midnightblue" d="M235.33,-133.54C261.69,-138.69 294.42,-145.08 322.17,-150.51"/>
<polygon fill="midnightblue" stroke="midnightblue" points="321.66,-153.97 332.15,-152.46 323.01,-147.1 321.66,-153.97"/>
</g>
<!-- Node154 -->
<g id="node9" class="node">
<title>Node154</title>
<g id="a_node9"><a xlink:href="quickjs_8h.html#a88259aa0da61ac754402c64ccecee116" target="_top" xlink:title=" ">
<polygon fill="none" stroke="red" points="339.5,-114.5 339.5,-133.5 424.5,-133.5 424.5,-114.5 339.5,-114.5"/>
<text text-anchor="middle" x="382" y="-121.5" font-family="Helvetica,sans-Serif" font-size="10.00">JS_NewUint32</text>
</a>
</g>
</g>
<!-- Node2&#45;&gt;Node154 -->
<g id="edge9" class="edge">
<title>Node2&#45;&gt;Node154</title>
<path fill="none" stroke="midnightblue" d="M267.01,-124C288,-124 310.06,-124 329.12,-124"/>
<polygon fill="midnightblue" stroke="midnightblue" points="329.38,-127.5 339.38,-124 329.38,-120.5 329.38,-127.5"/>
</g>
<!-- Node4 -->
<g id="node4" class="node">
<title>Node4</title>
<g id="a_node4"><a xlink:href="quickjs_8c.html#a0a8765bd4012467d9139bc24aabcb3ca" target="_top" xlink:title=" ">
<polygon fill="none" stroke="red" points="497,-190.5 497,-209.5 628,-209.5 628,-190.5 497,-190.5"/>
<text text-anchor="middle" x="562.5" y="-197.5" font-family="Helvetica,sans-Serif" font-size="10.00">JS_DefinePropertyValue</text>
</a>
</g>
</g>
<!-- Node3&#45;&gt;Node4 -->
<g id="edge3" class="edge">
<title>Node3&#45;&gt;Node4</title>
<path fill="none" stroke="midnightblue" d="M428.04,-171.59C452.02,-176.69 481.7,-183.01 506.97,-188.39"/>
<polygon fill="midnightblue" stroke="midnightblue" points="506.27,-191.82 516.78,-190.48 507.73,-184.97 506.27,-191.82"/>
</g>
<!-- Node33 -->
<g id="node5" class="node">
<title>Node33</title>
<g id="a_node5"><a xlink:href="quickjs_8h.html#afaa20c47565bc704c6c85f3d77254e7d" target="_top" xlink:title=" ">
<polygon fill="none" stroke="red" points="668,-171.5 668,-190.5 747,-190.5 747,-171.5 668,-171.5"/>
<text text-anchor="middle" x="707.5" y="-178.5" font-family="Helvetica,sans-Serif" font-size="10.00">JS_FreeValue</text>
</a>
</g>
</g>
<!-- Node3&#45;&gt;Node33 -->
<g id="edge6" class="edge">
<title>Node3&#45;&gt;Node33</title>
<path fill="none" stroke="midnightblue" d="M461.31,-166.6C522.36,-170.19 605.26,-175.05 657.31,-178.11"/>
<polygon fill="midnightblue" stroke="midnightblue" points="657.43,-181.62 667.61,-178.72 657.84,-174.64 657.43,-181.62"/>
</g>
<!-- Node55 -->
<g id="node6" class="node">
<title>Node55</title>
<g id="a_node6"><a xlink:href="quickjs_8c.html#ab7fc45a99935a1c0ba50b0216d9401a9" target="_top" xlink:title=" ">
<polygon fill="none" stroke="red" points="523.5,-228.5 523.5,-247.5 601.5,-247.5 601.5,-228.5 523.5,-228.5"/>
<text text-anchor="middle" x="562.5" y="-235.5" font-family="Helvetica,sans-Serif" font-size="10.00">JS_FreeAtom</text>
</a>
</g>
</g>
<!-- Node3&#45;&gt;Node55 -->
<g id="edge5" class="edge">
<title>Node3&#45;&gt;Node55</title>
<path fill="none" stroke="midnightblue" d="M399.95,-171.67C421.84,-183.88 461.38,-204.98 497,-219 502.85,-221.3 509.08,-223.47 515.29,-225.47"/>
<polygon fill="midnightblue" stroke="midnightblue" points="514.37,-228.85 524.96,-228.46 516.44,-222.16 514.37,-228.85"/>
</g>
<!-- Node155 -->
<g id="node7" class="node">
<title>Node155</title>
<g id="a_node7"><a xlink:href="quickjs_8c.html#a859d5c989a2aaecef1653b3ac279e108" target="_top" xlink:title=" ">
<polygon fill="none" stroke="red" points="515,-114.5 515,-133.5 610,-133.5 610,-114.5 515,-114.5"/>
<text text-anchor="middle" x="562.5" y="-121.5" font-family="Helvetica,sans-Serif" font-size="10.00">JS_ValueToAtom</text>
</a>
</g>
</g>
<!-- Node3&#45;&gt;Node155 -->
<g id="edge7" class="edge">
<title>Node3&#45;&gt;Node155</title>
<path fill="none" stroke="midnightblue" d="M428.04,-152.41C452.02,-147.31 481.7,-140.99 506.97,-135.61"/>
<polygon fill="midnightblue" stroke="midnightblue" points="507.73,-139.03 516.78,-133.52 506.27,-132.18 507.73,-139.03"/>
</g>
<!-- Node4&#45;&gt;Node33 -->
<g id="edge4" class="edge">
<title>Node4&#45;&gt;Node33</title>
<path fill="none" stroke="midnightblue" d="M628.31,-191.39C638.18,-190.08 648.23,-188.74 657.69,-187.49"/>
<polygon fill="midnightblue" stroke="midnightblue" points="658.23,-190.94 667.68,-186.16 657.31,-184.01 658.23,-190.94"/>
</g>
<!-- Node155&#45;&gt;Node69 -->
<g id="edge8" class="edge">
<title>Node155&#45;&gt;Node69</title>
<path fill="none" stroke="midnightblue" d="M610.32,-117.78C624.22,-115.93 639.53,-113.9 653.78,-112.01"/>
<polygon fill="midnightblue" stroke="midnightblue" points="654.47,-115.44 663.92,-110.66 653.55,-108.5 654.47,-115.44"/>
</g>
<!-- Node154&#45;&gt;Node130 -->
<g id="edge10" class="edge">
<title>Node154&#45;&gt;Node130</title>
<path fill="none" stroke="midnightblue" d="M424.85,-115.09C451.56,-109.41 486.24,-102.02 513.98,-96.12"/>
<polygon fill="midnightblue" stroke="midnightblue" points="514.81,-99.52 523.86,-94.01 513.35,-92.67 514.81,-99.52"/>
</g>
</g>
</svg>
        <g id="navigator" transform="translate(0 0)" fill="#404254">
                <rect fill="#f2f5e9" fill-opacity="0.5" stroke="#606060" stroke-width=".5" x="0" y="0" width="60" height="60"/>
                <use id="zoomplus" xlink:href="#zoomPlus" x="17" y="9" onmousedown="handleZoom(evt,'in')"/>
                <use id="zoomminus" xlink:href="#zoomMin" x="42" y="9" onmousedown="handleZoom(evt,'out')"/>
                <use id="reset" xlink:href="#resetDef" x="30" y="36" onmousedown="handleReset()"/>
                <g id="arrowUp" xlink:href="#dirArrow" transform="translate(30 24)" onmousedown="handlePan(0,-1)">
                  <use xlink:href="#rim" fill="#404040">
                        <set attributeName="fill" to="#808080" begin="arrowUp.mouseover" end="arrowUp.mouseout"/>
                  </use>
                  <path fill="none" stroke="white" stroke-width="1.5" d="M0,-3.0v7 M-2.5,-0.5L0,-3.0L2.5,-0.5"/>
                </g>
                <g id="arrowRight" xlink:href="#dirArrow" transform="rotate(90) translate(36 -43)" onmousedown="handlePan(1,0)">
                  <use xlink:href="#rim" fill="#404040">
                        <set attributeName="fill" to="#808080" begin="arrowRight.mouseover" end="arrowRight.mouseout"/>
                  </use>
                  <path fill="none" stroke="white" stroke-width="1.5" d="M0,-3.0v7 M-2.5,-0.5L0,-3.0L2.5,-0.5"/>
                </g>
                <g id="arrowDown" xlink:href="#dirArrow" transform="rotate(180) translate(-30 -48)" onmousedown="handlePan(0,1)">
                  <use xlink:href="#rim" fill="#404040">
                        <set attributeName="fill" to="#808080" begin="arrowDown.mouseover" end="arrowDown.mouseout"/>
                  </use>
                  <path fill="none" stroke="white" stroke-width="1.5" d="M0,-3.0v7 M-2.5,-0.5L0,-3.0L2.5,-0.5"/>
                </g>
                <g id="arrowLeft" xlink:href="#dirArrow" transform="rotate(270) translate(-36 17)" onmousedown="handlePan(-1,0)">
                  <use xlink:href="#rim" fill="#404040">
                        <set attributeName="fill" to="#808080" begin="arrowLeft.mouseover" end="arrowLeft.mouseout"/>
                  </use>
                  <path fill="none" stroke="white" stroke-width="1.5" d="M0,-3.0v7 M-2.5,-0.5L0,-3.0L2.5,-0.5"/>
                </g>
        </g>
        <svg viewBox="0 0 15 15" width="100%" height="30px" preserveAspectRatio="xMaxYMin meet">
         <g id="arrow_out" transform="scale(0.3 0.3)">
          <a xlink:href="quickjs-libc_8c_a6d1c957c402e5cda23a3b00762208185_cgraph_org.svg" target="_base">
           <rect id="button" ry="5" rx="5" y="6" x="6" height="38" width="38"
                fill="#f2f5e9" fill-opacity="0.5" stroke="#606060" stroke-width="1.0"/>
           <path id="arrow"
             d="M 11.500037,31.436501 C 11.940474,20.09759 22.043105,11.32322 32.158766,21.979434 L 37.068811,17.246167 C 37.068811,17.246167 37.088388,32 37.088388,32 L 22.160133,31.978069 C 22.160133,31.978069 26.997745,27.140456 26.997745,27.140456 C 18.528582,18.264221 13.291696,25.230495 11.500037,31.436501 z"
             style="fill:#404040;"/>
          </a>
         </g>
        </svg>
</svg>
