<?xml version="1.0" encoding="UTF-8" standalone="no"?>
<!DOCTYPE svg PUBLIC "-//W3C//DTD SVG 1.1//EN"
 "http://www.w3.org/Graphics/SVG/1.1/DTD/svg11.dtd">
<!-- Generated by graphviz version 2.43.0 (0)
 -->
<!-- Title: js_same_value Pages: 1 -->
<!--zoomable 828 -->
<svg id="main" version="1.1" xmlns="http://www.w3.org/2000/svg" xmlns:xlink="http://www.w3.org/1999/xlink" xml:space="preserve" onload="init(evt)">
<style type="text/css"><![CDATA[
.edge:hover path { stroke: red; }
.edge:hover polygon { stroke: red; fill: red; }
]]></style>
<script type="text/javascript"><![CDATA[
var edges = document.getElementsByTagName('g');
if (edges && edges.length) {
  for (var i=0;i<edges.length;i++) {
    if (edges[i].id.substr(0,4)=='edge') {
      edges[i].setAttribute('class','edge');
    }
  }
}
]]></script>
        <defs>
                <circle id="rim" cx="0" cy="0" r="7"/>
                <circle id="rim2" cx="0" cy="0" r="3.5"/>
                <g id="zoomPlus">
                        <use xlink:href="#rim" fill="#404040">
                                <set attributeName="fill" to="#808080" begin="zoomplus.mouseover" end="zoomplus.mouseout"/>
                        </use>
                        <path d="M-4,0h8M0,-4v8" fill="none" stroke="white" stroke-width="1.5" pointer-events="none"/>
                </g>
                <g id="zoomMin">
                        <use xlink:href="#rim" fill="#404040">
                                <set attributeName="fill" to="#808080" begin="zoomminus.mouseover" end="zoomminus.mouseout"/>
                        </use>
                        <path d="M-4,0h8" fill="none" stroke="white" stroke-width="1.5" pointer-events="none"/>
                </g>
                <g id="dirArrow">
                        <path fill="none" stroke="white" stroke-width="1.5" d="M0,-3.0v7 M-2.5,-0.5L0,-3.0L2.5,-0.5"/>
                </g>
               <g id="resetDef">
                       <use xlink:href="#rim2" fill="#404040">
                               <set attributeName="fill" to="#808080" begin="reset.mouseover" end="reset.mouseout"/>
                       </use>
               </g>
        </defs>

<script type="text/javascript">
var viewWidth = 1072;
var viewHeight = 828;
var sectionId = 'dynsection-30';
</script>
<script xlink:href="svgpan.js"/>
<svg id="graph" class="graph">
<g id="viewport">
<title>js_same_value</title>
<!-- Node1 -->
<g id="node1" class="node">
<title>Node1</title>
<g id="a_node1"><a xlink:title=" ">
<polygon fill="#bfbfbf" stroke="black" points="975,-297.5 975,-316.5 1064,-316.5 1064,-297.5 975,-297.5"/>
<text text-anchor="middle" x="1019.5" y="-304.5" font-family="Helvetica,sans-Serif" font-size="10.00">js_same_value</text>
</a>
</g>
</g>
<!-- Node2 -->
<g id="node2" class="node">
<title>Node2</title>
<g id="a_node2"><a xlink:href="quickjs_8c.html#a8160f52fd4197ade647faa287b34862e" target="_top" xlink:title=" ">
<polygon fill="none" stroke="black" points="809,-800.5 809,-819.5 926,-819.5 926,-800.5 809,-800.5"/>
<text text-anchor="middle" x="867.5" y="-807.5" font-family="Helvetica,sans-Serif" font-size="10.00">js_array_buffer_slice</text>
</a>
</g>
</g>
<!-- Node1&#45;&gt;Node2 -->
<g id="edge1" class="edge">
<title>Node1&#45;&gt;Node2</title>
<path fill="none" stroke="midnightblue" d="M1017.83,-327.29C1014.74,-409.26 999.3,-714.93 939,-786 933.65,-792.31 926.56,-796.96 918.95,-800.4"/>
<polygon fill="midnightblue" stroke="midnightblue" points="1021.35,-326.99 1018.2,-316.87 1014.35,-326.74 1021.35,-326.99"/>
</g>
<!-- Node3 -->
<g id="node3" class="node">
<title>Node3</title>
<g id="a_node3"><a xlink:href="quickjs_8c.html#a3b818b1ca9d2d4aaa9b55b1cc54c1bc4" target="_top" xlink:title=" ">
<polygon fill="none" stroke="black" points="804,-648.5 804,-667.5 931,-667.5 931,-648.5 804,-648.5"/>
<text text-anchor="middle" x="867.5" y="-655.5" font-family="Helvetica,sans-Serif" font-size="10.00">JS_ArraySpeciesCreate</text>
</a>
</g>
</g>
<!-- Node1&#45;&gt;Node3 -->
<g id="edge2" class="edge">
<title>Node1&#45;&gt;Node3</title>
<path fill="none" stroke="midnightblue" d="M1015.7,-326.93C1008.54,-373.39 986.68,-491.53 939,-578 923.09,-606.86 895.22,-634.26 879.72,-648.28"/>
<polygon fill="midnightblue" stroke="midnightblue" points="1019.17,-327.36 1017.18,-316.95 1012.25,-326.33 1019.17,-327.36"/>
</g>
<!-- Node8 -->
<g id="node8" class="node">
<title>Node8</title>
<g id="a_node8"><a xlink:href="quickjs_8c.html#afd4ef2d701fa0702f321925b61c57bbf" target="_top" xlink:title=" ">
<polygon fill="none" stroke="black" points="324,-716.5 324,-735.5 452,-735.5 452,-716.5 324,-716.5"/>
<text text-anchor="middle" x="388" y="-723.5" font-family="Helvetica,sans-Serif" font-size="10.00">js_call_bound_function</text>
</a>
</g>
</g>
<!-- Node1&#45;&gt;Node8 -->
<g id="edge7" class="edge">
<title>Node1&#45;&gt;Node8</title>
<path fill="none" stroke="midnightblue" d="M1016.64,-326.81C1009.83,-395.5 984.29,-622.17 939,-677 808.8,-834.61 513.87,-763.64 419,-735.54"/>
<polygon fill="midnightblue" stroke="midnightblue" points="1020.15,-326.83 1017.63,-316.54 1013.19,-326.16 1020.15,-326.83"/>
</g>
<!-- Node17 -->
<g id="node11" class="node">
<title>Node17</title>
<g id="a_node11"><a xlink:href="quickjs_8c.html#ac2894ff4edcdb4e6841bcce9c76081e3" target="_top" xlink:title=" ">
<polygon fill="none" stroke="black" points="670,-544.5 670,-563.5 757,-563.5 757,-544.5 670,-544.5"/>
<text text-anchor="middle" x="713.5" y="-551.5" font-family="Helvetica,sans-Serif" font-size="10.00">JS_CallInternal</text>
</a>
</g>
</g>
<!-- Node1&#45;&gt;Node17 -->
<g id="edge10" class="edge">
<title>Node1&#45;&gt;Node17</title>
<path fill="none" stroke="midnightblue" d="M1018.78,-326.7C1018.25,-373.61 1009.63,-491.94 939,-545 883.33,-586.82 796.15,-574.69 748.46,-563.52"/>
<polygon fill="midnightblue" stroke="midnightblue" points="1022.28,-326.63 1018.78,-316.63 1015.28,-326.63 1022.28,-326.63"/>
</g>
<!-- Node96 -->
<g id="node16" class="node">
<title>Node96</title>
<g id="a_node16"><a xlink:href="quickjs_8c.html#a192c7bd4fc5264ccdf89e13ed5bc0dcc" target="_top" xlink:title=" ">
<polygon fill="none" stroke="red" points="332.5,-528.5 332.5,-547.5 443.5,-547.5 443.5,-528.5 332.5,-528.5"/>
<text text-anchor="middle" x="388" y="-535.5" font-family="Helvetica,sans-Serif" font-size="10.00">js_promise_resolve</text>
</a>
</g>
</g>
<!-- Node1&#45;&gt;Node96 -->
<g id="edge37" class="edge">
<title>Node1&#45;&gt;Node96</title>
<path fill="none" stroke="midnightblue" d="M997.61,-322.73C981.95,-334.13 959.74,-349.5 939,-361 808.13,-433.56 774.31,-453.95 631,-497 568.15,-515.88 493.34,-526.88 443.71,-532.65"/>
<polygon fill="midnightblue" stroke="midnightblue" points="1000.04,-325.28 1006.01,-316.53 995.89,-319.65 1000.04,-325.28"/>
</g>
<!-- Node227 -->
<g id="node20" class="node">
<title>Node227</title>
<g id="a_node20"><a xlink:href="quickjs_8c.html#a7e5b77a4851eee6f666581d051979392" target="_top" xlink:title=" ">
<polygon fill="none" stroke="black" points="328.5,-387 328.5,-417 447.5,-417 447.5,-387 328.5,-387"/>
<text text-anchor="start" x="336.5" y="-405" font-family="Helvetica,sans-Serif" font-size="10.00">js_proxy_define_own</text>
<text text-anchor="middle" x="388" y="-394" font-family="Helvetica,sans-Serif" font-size="10.00">_property</text>
</a>
</g>
</g>
<!-- Node1&#45;&gt;Node227 -->
<g id="edge39" class="edge">
<title>Node1&#45;&gt;Node227</title>
<path fill="none" stroke="midnightblue" d="M981.75,-319.74C968.41,-324.05 953.13,-328.63 939,-332 804.04,-364.22 768.73,-366.22 631,-383 568.67,-390.59 496.91,-395.78 447.82,-398.8"/>
<polygon fill="midnightblue" stroke="midnightblue" points="983.13,-322.97 991.54,-316.52 980.94,-316.32 983.13,-322.97"/>
</g>
<!-- Node393 -->
<g id="node21" class="node">
<title>Node393</title>
<g id="a_node21"><a xlink:href="quickjs_8c.html#a45df491949e8e055e732eb13c446d47b" target="_top" xlink:title=" ">
<polygon fill="none" stroke="black" points="348.5,-340.5 348.5,-359.5 427.5,-359.5 427.5,-340.5 348.5,-340.5"/>
<text text-anchor="middle" x="388" y="-347.5" font-family="Helvetica,sans-Serif" font-size="10.00">js_proxy_get</text>
</a>
</g>
</g>
<!-- Node1&#45;&gt;Node393 -->
<g id="edge40" class="edge">
<title>Node1&#45;&gt;Node393</title>
<path fill="none" stroke="midnightblue" d="M964.68,-310.68C840.33,-319.17 535.47,-339.99 427.6,-347.36"/>
<polygon fill="midnightblue" stroke="midnightblue" points="965,-314.16 974.73,-309.99 964.52,-307.18 965,-314.16"/>
</g>
<!-- Node125 -->
<g id="node22" class="node">
<title>Node125</title>
<g id="a_node22"><a xlink:href="quickjs_8c.html#ad38b16d301e8f3661cf4c115c86511b3" target="_top" xlink:title=" ">
<polygon fill="none" stroke="black" points="349,-286.5 349,-305.5 427,-305.5 427,-286.5 349,-286.5"/>
<text text-anchor="middle" x="388" y="-293.5" font-family="Helvetica,sans-Serif" font-size="10.00">js_proxy_set</text>
</a>
</g>
</g>
<!-- Node1&#45;&gt;Node125 -->
<g id="edge41" class="edge">
<title>Node1&#45;&gt;Node125</title>
<path fill="none" stroke="midnightblue" d="M964.67,-306.06C840.16,-303.88 534.72,-298.55 427.2,-296.67"/>
<polygon fill="midnightblue" stroke="midnightblue" points="964.67,-309.56 974.73,-306.24 964.8,-302.56 964.67,-309.56"/>
</g>
<!-- Node161 -->
<g id="node23" class="node">
<title>Node161</title>
<g id="a_node23"><a xlink:href="quickjs_8c.html#ab50618f1bf78e444caa6da0e3e2785d7" target="_top" xlink:title=" ">
<polygon fill="none" stroke="red" points="815.5,-516.5 815.5,-535.5 919.5,-535.5 919.5,-516.5 815.5,-516.5"/>
<text text-anchor="middle" x="867.5" y="-523.5" font-family="Helvetica,sans-Serif" font-size="10.00">JS_DefineProperty</text>
</a>
</g>
</g>
<!-- Node1&#45;&gt;Node161 -->
<g id="edge32" class="edge">
<title>Node1&#45;&gt;Node161</title>
<path fill="none" stroke="midnightblue" d="M1015.92,-326.75C1009.8,-365.76 990.82,-453.16 939,-502 932.32,-508.3 923.92,-512.95 915.27,-516.38"/>
<polygon fill="midnightblue" stroke="midnightblue" points="1019.41,-327.09 1017.38,-316.69 1012.48,-326.09 1019.41,-327.09"/>
</g>
<!-- Node139 -->
<g id="node24" class="node">
<title>Node139</title>
<g id="a_node24"><a xlink:href="quickjs_8c.html#a55de0909f8b4c06625f67b2fdb670279" target="_top" xlink:title=" ">
<polygon fill="none" stroke="red" points="805,-240.5 805,-259.5 930,-259.5 930,-240.5 805,-240.5"/>
<text text-anchor="middle" x="867.5" y="-247.5" font-family="Helvetica,sans-Serif" font-size="10.00">js_is_standard_regexp</text>
</a>
</g>
</g>
<!-- Node1&#45;&gt;Node139 -->
<g id="edge35" class="edge">
<title>Node1&#45;&gt;Node139</title>
<path fill="none" stroke="midnightblue" d="M986.87,-293.31C972.37,-287.18 954.9,-280 939,-274 925.57,-268.93 910.53,-263.75 897.81,-259.5"/>
<polygon fill="midnightblue" stroke="midnightblue" points="985.81,-296.67 996.38,-297.36 988.55,-290.23 985.81,-296.67"/>
</g>
<!-- Node614 -->
<g id="node25" class="node">
<title>Node614</title>
<g id="a_node25"><a xlink:href="quickjs_8c.html#a92da278473611d4f0b73382fe0db113b" target="_top" xlink:title=" ">
<polygon fill="none" stroke="black" points="830.5,-202.5 830.5,-221.5 904.5,-221.5 904.5,-202.5 830.5,-202.5"/>
<text text-anchor="middle" x="867.5" y="-209.5" font-family="Helvetica,sans-Serif" font-size="10.00">js_object_is</text>
</a>
</g>
</g>
<!-- Node1&#45;&gt;Node614 -->
<g id="edge36" class="edge">
<title>Node1&#45;&gt;Node614</title>
<path fill="none" stroke="midnightblue" d="M1004.6,-289.31C990.05,-271.96 965.63,-246 939,-231 928.51,-225.09 916.09,-220.95 904.63,-218.08"/>
<polygon fill="midnightblue" stroke="midnightblue" points="1002.24,-291.95 1011.27,-297.49 1007.66,-287.53 1002.24,-291.95"/>
</g>
<!-- Node103 -->
<g id="node26" class="node">
<title>Node103</title>
<g id="a_node26"><a xlink:href="quickjs_8c.html#ac13d124ad5c7f1234cae3076077e782e" target="_top" xlink:title=" ">
<polygon fill="none" stroke="red" points="812,-153 812,-183 923,-183 923,-153 812,-153"/>
<text text-anchor="start" x="820" y="-171" font-family="Helvetica,sans-Serif" font-size="10.00">js_promise_resolve</text>
<text text-anchor="middle" x="867.5" y="-160" font-family="Helvetica,sans-Serif" font-size="10.00">_function_call</text>
</a>
</g>
</g>
<!-- Node1&#45;&gt;Node103 -->
<g id="edge38" class="edge">
<title>Node1&#45;&gt;Node103</title>
<path fill="none" stroke="midnightblue" d="M1009.91,-288.01C997.62,-262.86 972.73,-218.71 939,-193 933.94,-189.14 928.23,-185.85 922.31,-183.04"/>
<polygon fill="midnightblue" stroke="midnightblue" points="1006.83,-289.67 1014.26,-297.22 1013.16,-286.68 1006.83,-289.67"/>
</g>
<!-- Node287 -->
<g id="node27" class="node">
<title>Node287</title>
<g id="a_node27"><a xlink:href="quickjs_8c.html#a233052710c228313122c39c231a23ddf" target="_top" xlink:title=" ">
<polygon fill="none" stroke="red" points="805.5,-114.5 805.5,-133.5 929.5,-133.5 929.5,-114.5 805.5,-114.5"/>
<text text-anchor="middle" x="867.5" y="-121.5" font-family="Helvetica,sans-Serif" font-size="10.00">js_regexp_constructor</text>
</a>
</g>
</g>
<!-- Node1&#45;&gt;Node287 -->
<g id="edge42" class="edge">
<title>Node1&#45;&gt;Node287</title>
<path fill="none" stroke="midnightblue" d="M1014.54,-287.28C1006.56,-252.72 985.19,-181.23 939,-143 934.31,-139.12 928.9,-136.03 923.21,-133.56"/>
<polygon fill="midnightblue" stroke="midnightblue" points="1011.14,-288.09 1016.68,-297.12 1017.98,-286.61 1011.14,-288.09"/>
</g>
<!-- Node615 -->
<g id="node28" class="node">
<title>Node615</title>
<g id="a_node28"><a xlink:href="quickjs_8c.html#a84549917900dae51c15ad8f1bb92d8ea" target="_top" xlink:title=" ">
<polygon fill="none" stroke="black" points="813.5,-76.5 813.5,-95.5 921.5,-95.5 921.5,-76.5 813.5,-76.5"/>
<text text-anchor="middle" x="867.5" y="-83.5" font-family="Helvetica,sans-Serif" font-size="10.00">js_regexp_get_flag</text>
</a>
</g>
</g>
<!-- Node1&#45;&gt;Node615 -->
<g id="edge43" class="edge">
<title>Node1&#45;&gt;Node615</title>
<path fill="none" stroke="midnightblue" d="M1016.53,-287.09C1011.43,-246.59 994.1,-154.26 939,-105 933.99,-100.52 928.04,-97.08 921.74,-94.45"/>
<polygon fill="midnightblue" stroke="midnightblue" points="1013.08,-287.73 1017.68,-297.27 1020.03,-286.94 1013.08,-287.73"/>
</g>
<!-- Node616 -->
<g id="node29" class="node">
<title>Node616</title>
<g id="a_node29"><a xlink:href="quickjs_8c.html#a32ee6be61757664e4eea552e5508ad6e" target="_top" xlink:title=" ">
<polygon fill="none" stroke="black" points="806.5,-38.5 806.5,-57.5 928.5,-57.5 928.5,-38.5 806.5,-38.5"/>
<text text-anchor="middle" x="867.5" y="-45.5" font-family="Helvetica,sans-Serif" font-size="10.00">js_regexp_get_source</text>
</a>
</g>
</g>
<!-- Node1&#45;&gt;Node616 -->
<g id="edge44" class="edge">
<title>Node1&#45;&gt;Node616</title>
<path fill="none" stroke="midnightblue" d="M1017.95,-286.9C1015.56,-240.95 1003.12,-127.58 939,-67 934.95,-63.17 930.2,-60.09 925.13,-57.63"/>
<polygon fill="midnightblue" stroke="midnightblue" points="1014.46,-287.2 1018.36,-297.05 1021.45,-286.91 1014.46,-287.2"/>
</g>
<!-- Node143 -->
<g id="node30" class="node">
<title>Node143</title>
<g id="a_node30"><a xlink:href="quickjs_8c.html#af315d0f35b4b11e5957b904c98bf1c0d" target="_top" xlink:title=" ">
<polygon fill="none" stroke="black" points="796,-0.5 796,-19.5 939,-19.5 939,-0.5 796,-0.5"/>
<text text-anchor="middle" x="867.5" y="-7.5" font-family="Helvetica,sans-Serif" font-size="10.00">js_regexp_Symbol_search</text>
</a>
</g>
</g>
<!-- Node1&#45;&gt;Node143 -->
<g id="edge45" class="edge">
<title>Node1&#45;&gt;Node143</title>
<path fill="none" stroke="midnightblue" d="M1019.02,-287.26C1019.23,-236.69 1012.5,-101.38 939,-29 935.12,-25.18 930.55,-22.1 925.64,-19.63"/>
<polygon fill="midnightblue" stroke="midnightblue" points="1015.52,-287.42 1018.87,-297.46 1022.52,-287.52 1015.52,-287.42"/>
</g>
<!-- Node4 -->
<g id="node4" class="node">
<title>Node4</title>
<g id="a_node4"><a xlink:href="quickjs_8c.html#aaa85fa359f7aa8985f0299147272adef" target="_top" xlink:title=" ">
<polygon fill="none" stroke="black" points="667,-648.5 667,-667.5 760,-667.5 760,-648.5 667,-648.5"/>
<text text-anchor="middle" x="713.5" y="-655.5" font-family="Helvetica,sans-Serif" font-size="10.00">js_array_concat</text>
</a>
</g>
</g>
<!-- Node3&#45;&gt;Node4 -->
<g id="edge3" class="edge">
<title>Node3&#45;&gt;Node4</title>
<path fill="none" stroke="midnightblue" d="M793.48,-658C782.19,-658 770.81,-658 760.34,-658"/>
<polygon fill="midnightblue" stroke="midnightblue" points="793.8,-661.5 803.8,-658 793.8,-654.5 793.8,-661.5"/>
</g>
<!-- Node5 -->
<g id="node5" class="node">
<title>Node5</title>
<g id="a_node5"><a xlink:href="quickjs_8c.html#aa0bbf08a7e91459c68a312fba7016c6d" target="_top" xlink:title=" ">
<polygon fill="none" stroke="black" points="343.5,-642.5 343.5,-661.5 432.5,-661.5 432.5,-642.5 343.5,-642.5"/>
<text text-anchor="middle" x="388" y="-649.5" font-family="Helvetica,sans-Serif" font-size="10.00">js_array_every</text>
</a>
</g>
</g>
<!-- Node3&#45;&gt;Node5 -->
<g id="edge4" class="edge">
<title>Node3&#45;&gt;Node5</title>
<path fill="none" stroke="midnightblue" d="M812.98,-646.55C796.11,-643.45 777.35,-640.54 760,-639 641.88,-628.55 501.9,-639.84 432.5,-647.01"/>
<polygon fill="midnightblue" stroke="midnightblue" points="812.73,-650.06 823.21,-648.49 814.03,-643.19 812.73,-650.06"/>
</g>
<!-- Node6 -->
<g id="node6" class="node">
<title>Node6</title>
<g id="a_node6"><a xlink:href="quickjs_8c.html#a12e173fe76ae1141ef47318f9d0cbea7" target="_top" xlink:title=" ">
<polygon fill="none" stroke="black" points="667.5,-724.5 667.5,-743.5 759.5,-743.5 759.5,-724.5 667.5,-724.5"/>
<text text-anchor="middle" x="713.5" y="-731.5" font-family="Helvetica,sans-Serif" font-size="10.00">js_array_flatten</text>
</a>
</g>
</g>
<!-- Node3&#45;&gt;Node6 -->
<g id="edge5" class="edge">
<title>Node3&#45;&gt;Node6</title>
<path fill="none" stroke="midnightblue" d="M841.01,-672.53C819.65,-684.49 788.22,-701.6 760,-715 753.2,-718.23 745.69,-721.49 738.78,-724.37"/>
<polygon fill="midnightblue" stroke="midnightblue" points="842.79,-675.55 849.79,-667.59 839.36,-669.45 842.79,-675.55"/>
</g>
<!-- Node7 -->
<g id="node7" class="node">
<title>Node7</title>
<g id="a_node7"><a xlink:href="quickjs_8c.html#a70b7ec8358ab99b905686d5bf80950cc" target="_top" xlink:title=" ">
<polygon fill="none" stroke="black" points="672,-686.5 672,-705.5 755,-705.5 755,-686.5 672,-686.5"/>
<text text-anchor="middle" x="713.5" y="-693.5" font-family="Helvetica,sans-Serif" font-size="10.00">js_array_slice</text>
</a>
</g>
</g>
<!-- Node3&#45;&gt;Node7 -->
<g id="edge6" class="edge">
<title>Node3&#45;&gt;Node7</title>
<path fill="none" stroke="midnightblue" d="M818.34,-670.04C797.1,-675.35 772.5,-681.5 752.58,-686.48"/>
<polygon fill="midnightblue" stroke="midnightblue" points="819.29,-673.41 828.14,-667.59 817.59,-666.62 819.29,-673.41"/>
</g>
<!-- Node9 -->
<g id="node9" class="node">
<title>Node9</title>
<g id="a_node9"><a xlink:href="quickjs_8c.html#a27966451027feb455b5da12c1578771c" target="_top" xlink:title=" ">
<polygon fill="none" stroke="black" points="159,-716.5 159,-735.5 259,-735.5 259,-716.5 159,-716.5"/>
<text text-anchor="middle" x="209" y="-723.5" font-family="Helvetica,sans-Serif" font-size="10.00">JS_NewRuntime2</text>
</a>
</g>
</g>
<!-- Node8&#45;&gt;Node9 -->
<g id="edge8" class="edge">
<title>Node8&#45;&gt;Node9</title>
<path fill="none" stroke="midnightblue" d="M313.52,-726C295.16,-726 275.92,-726 259.08,-726"/>
<polygon fill="midnightblue" stroke="midnightblue" points="313.6,-729.5 323.6,-726 313.6,-722.5 313.6,-729.5"/>
</g>
<!-- Node10 -->
<g id="node10" class="node">
<title>Node10</title>
<g id="a_node10"><a xlink:href="quickjs_8c.html#afc1ca27a266094085ebb43e2eea0dda2" target="_top" xlink:title=" ">
<polygon fill="none" stroke="red" points="0,-716.5 0,-735.5 94,-735.5 94,-716.5 0,-716.5"/>
<text text-anchor="middle" x="47" y="-723.5" font-family="Helvetica,sans-Serif" font-size="10.00">JS_NewRuntime</text>
</a>
</g>
</g>
<!-- Node9&#45;&gt;Node10 -->
<g id="edge9" class="edge">
<title>Node9&#45;&gt;Node10</title>
<path fill="none" stroke="midnightblue" d="M148.59,-726C130.6,-726 111.13,-726 94.14,-726"/>
<polygon fill="midnightblue" stroke="midnightblue" points="148.69,-729.5 158.69,-726 148.69,-722.5 148.69,-729.5"/>
</g>
<!-- Node17&#45;&gt;Node17 -->
<g id="edge31" class="edge">
<title>Node17&#45;&gt;Node17</title>
<path fill="none" stroke="midnightblue" d="M742.25,-572.65C741.04,-577.94 731.46,-582 713.5,-582 686.13,-582 678.22,-572.57 689.76,-563.76"/>
<polygon fill="midnightblue" stroke="midnightblue" points="745.19,-570.75 737.24,-563.76 739.09,-574.19 745.19,-570.75"/>
</g>
<!-- Node18 -->
<g id="node12" class="node">
<title>Node18</title>
<g id="a_node12"><a xlink:href="quickjs_8c.html#ade71a22dc56e7371392393df663b28b3" target="_top" xlink:title=" ">
<polygon fill="none" stroke="red" points="503,-468.5 503,-487.5 616,-487.5 616,-468.5 503,-468.5"/>
<text text-anchor="middle" x="559.5" y="-475.5" font-family="Helvetica,sans-Serif" font-size="10.00">async_func_resume</text>
</a>
</g>
</g>
<!-- Node17&#45;&gt;Node18 -->
<g id="edge11" class="edge">
<title>Node17&#45;&gt;Node18</title>
<path fill="none" stroke="midnightblue" d="M683.99,-539.74C653.47,-524.48 605.89,-500.7 579.59,-487.55"/>
<polygon fill="midnightblue" stroke="midnightblue" points="682.74,-543.03 693.25,-544.37 685.87,-536.77 682.74,-543.03"/>
</g>
<!-- Node29 -->
<g id="node14" class="node">
<title>Node29</title>
<g id="a_node14"><a xlink:href="quickjs_8c.html#a1a4c02a29525d5cb2085dd8bca3af350" target="_top" xlink:title=" ">
<polygon fill="none" stroke="red" points="534.5,-582.5 534.5,-601.5 584.5,-601.5 584.5,-582.5 534.5,-582.5"/>
<text text-anchor="middle" x="559.5" y="-589.5" font-family="Helvetica,sans-Serif" font-size="10.00">JS_Call</text>
</a>
</g>
</g>
<!-- Node17&#45;&gt;Node29 -->
<g id="edge13" class="edge">
<title>Node17&#45;&gt;Node29</title>
<path fill="none" stroke="midnightblue" d="M659.81,-560.71C632.16,-566.92 599.96,-575.56 579.9,-582.46"/>
<polygon fill="midnightblue" stroke="midnightblue" points="660.73,-564.09 669.76,-558.55 659.24,-557.26 660.73,-564.09"/>
</g>
<!-- Node112 -->
<g id="node18" class="node">
<title>Node112</title>
<g id="a_node18"><a xlink:href="quickjs_8c.html#ad35594576a14c10812efaf958c99af8a" target="_top" xlink:title=" ">
<polygon fill="none" stroke="red" points="488,-544.5 488,-563.5 631,-563.5 631,-544.5 488,-544.5"/>
<text text-anchor="middle" x="559.5" y="-551.5" font-family="Helvetica,sans-Serif" font-size="10.00">JS_CallConstructorInternal</text>
</a>
</g>
</g>
<!-- Node17&#45;&gt;Node112 -->
<g id="edge24" class="edge">
<title>Node17&#45;&gt;Node112</title>
<path fill="none" stroke="midnightblue" d="M659.61,-547.54C650.41,-547.3 640.7,-547.21 631.11,-547.27"/>
<polygon fill="midnightblue" stroke="midnightblue" points="659.65,-551.04 669.76,-547.86 659.87,-544.04 659.65,-551.04"/>
</g>
<!-- Node122 -->
<g id="node19" class="node">
<title>Node122</title>
<g id="a_node19"><a xlink:href="quickjs_8c.html#a75f6ee5e4235a7dc99889f3d2eb2c147" target="_top" xlink:title=" ">
<polygon fill="none" stroke="red" points="524,-354.5 524,-373.5 595,-373.5 595,-354.5 524,-354.5"/>
<text text-anchor="middle" x="559.5" y="-361.5" font-family="Helvetica,sans-Serif" font-size="10.00">JS_CallFree</text>
</a>
</g>
</g>
<!-- Node17&#45;&gt;Node122 -->
<g id="edge26" class="edge">
<title>Node17&#45;&gt;Node122</title>
<path fill="none" stroke="midnightblue" d="M700.96,-535.79C672.43,-496.14 598.89,-404.25 571.23,-373.74"/>
<polygon fill="midnightblue" stroke="midnightblue" points="698.3,-538.09 706.91,-544.26 704.03,-534.06 698.3,-538.09"/>
</g>
<!-- Node19 -->
<g id="node13" class="node">
<title>Node19</title>
<g id="a_node13"><a xlink:href="quickjs_8c.html#a1bf6b62983e8fff99c0a5d5a9f486115" target="_top" xlink:title=" ">
<polygon fill="none" stroke="red" points="136,-490.5 136,-509.5 282,-509.5 282,-490.5 136,-490.5"/>
<text text-anchor="middle" x="209" y="-497.5" font-family="Helvetica,sans-Serif" font-size="10.00">js_async_function_resume</text>
</a>
</g>
</g>
<!-- Node18&#45;&gt;Node19 -->
<g id="edge12" class="edge">
<title>Node18&#45;&gt;Node19</title>
<path fill="none" stroke="midnightblue" d="M492.92,-478.69C445.85,-479.57 380.94,-481.54 324,-486 309.59,-487.13 294.19,-488.74 279.53,-490.47"/>
<polygon fill="midnightblue" stroke="midnightblue" points="493.05,-482.19 502.99,-478.52 492.93,-475.19 493.05,-482.19"/>
</g>
<!-- Node29&#45;&gt;Node5 -->
<g id="edge14" class="edge">
<title>Node29&#45;&gt;Node5</title>
<path fill="none" stroke="midnightblue" d="M524.55,-603.4C512.94,-607.34 499.89,-611.82 488,-616 463.16,-624.74 434.94,-635.04 415,-642.38"/>
<polygon fill="midnightblue" stroke="midnightblue" points="525.96,-606.62 534.31,-600.1 523.72,-599.99 525.96,-606.62"/>
</g>
<!-- Node29&#45;&gt;Node8 -->
<g id="edge17" class="edge">
<title>Node29&#45;&gt;Node8</title>
<path fill="none" stroke="midnightblue" d="M538.09,-608.14C502.41,-636.34 429.8,-693.75 401.08,-716.45"/>
<polygon fill="midnightblue" stroke="midnightblue" points="540.64,-610.58 546.31,-601.64 536.29,-605.09 540.64,-610.58"/>
</g>
<!-- Node29&#45;&gt;Node17 -->
<g id="edge18" class="edge">
<title>Node29&#45;&gt;Node17</title>
<path fill="none" stroke="midnightblue" d="M594.88,-589.16C625.16,-583.2 668.19,-572.1 692.94,-563.59"/>
<polygon fill="midnightblue" stroke="midnightblue" points="593.94,-585.77 584.75,-591.04 595.22,-592.66 593.94,-585.77"/>
</g>
<!-- Node29&#45;&gt;Node19 -->
<g id="edge16" class="edge">
<title>Node29&#45;&gt;Node19</title>
<path fill="none" stroke="midnightblue" d="M524.46,-587.93C512.12,-585.19 498.62,-580.63 488,-573 464.57,-556.17 476.88,-533.6 452,-519 398.02,-487.33 325.24,-486.01 273.63,-490.48"/>
<polygon fill="midnightblue" stroke="midnightblue" points="523.99,-591.4 534.47,-589.82 525.29,-584.52 523.99,-591.4"/>
</g>
<!-- Node37 -->
<g id="node15" class="node">
<title>Node37</title>
<g id="a_node15"><a xlink:href="quickjs_8c.html#aa45afa6d2861615f29444c9614ce766a" target="_top" xlink:title=" ">
<polygon fill="none" stroke="black" points="151.5,-536 151.5,-566 266.5,-566 266.5,-536 151.5,-536"/>
<text text-anchor="start" x="159.5" y="-554" font-family="Helvetica,sans-Serif" font-size="10.00">js_async_from_sync</text>
<text text-anchor="middle" x="209" y="-543" font-family="Helvetica,sans-Serif" font-size="10.00">_iterator_next</text>
</a>
</g>
</g>
<!-- Node29&#45;&gt;Node37 -->
<g id="edge15" class="edge">
<title>Node29&#45;&gt;Node37</title>
<path fill="none" stroke="midnightblue" d="M524.19,-587.96C464.18,-580.9 339.63,-566.25 266.66,-557.67"/>
<polygon fill="midnightblue" stroke="midnightblue" points="523.93,-591.46 534.27,-589.15 524.75,-584.5 523.93,-591.46"/>
</g>
<!-- Node29&#45;&gt;Node96 -->
<g id="edge19" class="edge">
<title>Node29&#45;&gt;Node96</title>
<path fill="none" stroke="midnightblue" d="M524.44,-583.39C512.83,-580.3 499.8,-576.67 488,-573 462.76,-565.15 434.35,-554.96 414.46,-547.61"/>
<polygon fill="midnightblue" stroke="midnightblue" points="523.66,-586.8 534.22,-585.95 525.44,-580.03 523.66,-586.8"/>
</g>
<!-- Node99 -->
<g id="node17" class="node">
<title>Node99</title>
<g id="a_node17"><a xlink:href="quickjs_8c.html#a976c7217666ebb9ef04fd8cba9ba2dd2" target="_top" xlink:title=" ">
<polygon fill="none" stroke="red" points="130,-591.5 130,-610.5 288,-610.5 288,-591.5 130,-591.5"/>
<text text-anchor="middle" x="209" y="-598.5" font-family="Helvetica,sans-Serif" font-size="10.00">js_promise_then_finally_func</text>
</a>
</g>
</g>
<!-- Node29&#45;&gt;Node99 -->
<g id="edge23" class="edge">
<title>Node29&#45;&gt;Node99</title>
<path fill="none" stroke="midnightblue" d="M524.11,-592.89C469.61,-594.3 362.04,-597.07 288.1,-598.98"/>
<polygon fill="midnightblue" stroke="midnightblue" points="524.36,-596.38 534.27,-592.63 524.18,-589.39 524.36,-596.38"/>
</g>
<!-- Node96&#45;&gt;Node19 -->
<g id="edge21" class="edge">
<title>Node96&#45;&gt;Node19</title>
<path fill="none" stroke="midnightblue" d="M332.26,-526.25C307.23,-520.87 277.97,-514.59 254.34,-509.52"/>
<polygon fill="midnightblue" stroke="midnightblue" points="331.82,-529.73 342.34,-528.41 333.29,-522.89 331.82,-529.73"/>
</g>
<!-- Node96&#45;&gt;Node37 -->
<g id="edge20" class="edge">
<title>Node96&#45;&gt;Node37</title>
<path fill="none" stroke="midnightblue" d="M322.44,-542.74C304.12,-544.09 284.32,-545.54 266.51,-546.85"/>
<polygon fill="midnightblue" stroke="midnightblue" points="322.73,-546.23 332.45,-542.01 322.22,-539.25 322.73,-546.23"/>
</g>
<!-- Node96&#45;&gt;Node99 -->
<g id="edge22" class="edge">
<title>Node96&#45;&gt;Node99</title>
<path fill="none" stroke="midnightblue" d="M353.67,-551.33C334.55,-558.84 310.04,-568.25 288,-576 272.71,-581.38 255.57,-586.93 241.26,-591.42"/>
<polygon fill="midnightblue" stroke="midnightblue" points="355.12,-554.52 363.13,-547.59 352.55,-548.01 355.12,-554.52"/>
</g>
<!-- Node112&#45;&gt;Node17 -->
<g id="edge25" class="edge">
<title>Node112&#45;&gt;Node17</title>
<path fill="none" stroke="midnightblue" d="M641.34,-560.74C651.14,-560.69 660.83,-560.49 669.76,-560.14"/>
<polygon fill="midnightblue" stroke="midnightblue" points="641.12,-557.24 631.11,-560.73 641.11,-564.24 641.12,-557.24"/>
</g>
<!-- Node122&#45;&gt;Node17 -->
<g id="edge27" class="edge">
<title>Node122&#45;&gt;Node17</title>
<path fill="none" stroke="midnightblue" d="M571.96,-382.1C600.45,-421.71 674.16,-513.82 701.81,-544.31"/>
<polygon fill="midnightblue" stroke="midnightblue" points="574.64,-379.82 566.03,-373.65 568.91,-383.84 574.64,-379.82"/>
</g>
<!-- Node122&#45;&gt;Node227 -->
<g id="edge28" class="edge">
<title>Node122&#45;&gt;Node227</title>
<path fill="none" stroke="midnightblue" d="M513.9,-374C493.64,-378.54 469.41,-383.97 447.7,-388.84"/>
<polygon fill="midnightblue" stroke="midnightblue" points="514.8,-377.38 523.79,-371.78 513.27,-370.55 514.8,-377.38"/>
</g>
<!-- Node122&#45;&gt;Node393 -->
<g id="edge29" class="edge">
<title>Node122&#45;&gt;Node393</title>
<path fill="none" stroke="midnightblue" d="M513.52,-360.28C486.72,-358.07 453.07,-355.29 427.51,-353.18"/>
<polygon fill="midnightblue" stroke="midnightblue" points="513.54,-363.8 523.79,-361.13 514.11,-356.82 513.54,-363.8"/>
</g>
<!-- Node122&#45;&gt;Node125 -->
<g id="edge30" class="edge">
<title>Node122&#45;&gt;Node125</title>
<path fill="none" stroke="midnightblue" d="M524.87,-350.51C491.76,-337.23 442.02,-317.27 412.8,-305.55"/>
<polygon fill="midnightblue" stroke="midnightblue" points="523.99,-353.93 534.57,-354.4 526.6,-347.43 523.99,-353.93"/>
</g>
<!-- Node161&#45;&gt;Node17 -->
<g id="edge33" class="edge">
<title>Node161&#45;&gt;Node17</title>
<path fill="none" stroke="midnightblue" d="M805.5,-537.24C789.26,-540.23 772.06,-543.4 757.05,-546.16"/>
<polygon fill="midnightblue" stroke="midnightblue" points="806.26,-540.66 815.46,-535.4 804.99,-533.77 806.26,-540.66"/>
</g>
<!-- Node161&#45;&gt;Node227 -->
<g id="edge34" class="edge">
<title>Node161&#45;&gt;Node227</title>
<path fill="none" stroke="midnightblue" d="M824.83,-513.52C777.88,-499.6 699.23,-476.73 631,-459 568.75,-442.82 496.99,-426.17 447.87,-415.07"/>
<polygon fill="midnightblue" stroke="midnightblue" points="824.05,-516.94 834.63,-516.43 826.04,-510.23 824.05,-516.94"/>
</g>
</g>
</svg>
        <g id="navigator" transform="translate(0 0)" fill="#404254">
                <rect fill="#f2f5e9" fill-opacity="0.5" stroke="#606060" stroke-width=".5" x="0" y="0" width="60" height="60"/>
                <use id="zoomplus" xlink:href="#zoomPlus" x="17" y="9" onmousedown="handleZoom(evt,'in')"/>
                <use id="zoomminus" xlink:href="#zoomMin" x="42" y="9" onmousedown="handleZoom(evt,'out')"/>
                <use id="reset" xlink:href="#resetDef" x="30" y="36" onmousedown="handleReset()"/>
                <g id="arrowUp" xlink:href="#dirArrow" transform="translate(30 24)" onmousedown="handlePan(0,-1)">
                  <use xlink:href="#rim" fill="#404040">
                        <set attributeName="fill" to="#808080" begin="arrowUp.mouseover" end="arrowUp.mouseout"/>
                  </use>
                  <path fill="none" stroke="white" stroke-width="1.5" d="M0,-3.0v7 M-2.5,-0.5L0,-3.0L2.5,-0.5"/>
                </g>
                <g id="arrowRight" xlink:href="#dirArrow" transform="rotate(90) translate(36 -43)" onmousedown="handlePan(1,0)">
                  <use xlink:href="#rim" fill="#404040">
                        <set attributeName="fill" to="#808080" begin="arrowRight.mouseover" end="arrowRight.mouseout"/>
                  </use>
                  <path fill="none" stroke="white" stroke-width="1.5" d="M0,-3.0v7 M-2.5,-0.5L0,-3.0L2.5,-0.5"/>
                </g>
                <g id="arrowDown" xlink:href="#dirArrow" transform="rotate(180) translate(-30 -48)" onmousedown="handlePan(0,1)">
                  <use xlink:href="#rim" fill="#404040">
                        <set attributeName="fill" to="#808080" begin="arrowDown.mouseover" end="arrowDown.mouseout"/>
                  </use>
                  <path fill="none" stroke="white" stroke-width="1.5" d="M0,-3.0v7 M-2.5,-0.5L0,-3.0L2.5,-0.5"/>
                </g>
                <g id="arrowLeft" xlink:href="#dirArrow" transform="rotate(270) translate(-36 17)" onmousedown="handlePan(-1,0)">
                  <use xlink:href="#rim" fill="#404040">
                        <set attributeName="fill" to="#808080" begin="arrowLeft.mouseover" end="arrowLeft.mouseout"/>
                  </use>
                  <path fill="none" stroke="white" stroke-width="1.5" d="M0,-3.0v7 M-2.5,-0.5L0,-3.0L2.5,-0.5"/>
                </g>
        </g>
        <svg viewBox="0 0 15 15" width="100%" height="30px" preserveAspectRatio="xMaxYMin meet">
         <g id="arrow_out" transform="scale(0.3 0.3)">
          <a xlink:href="quickjs_8c_a24be89a128d1cd7c0908604815b2b854_icgraph_org.svg" target="_base">
           <rect id="button" ry="5" rx="5" y="6" x="6" height="38" width="38"
                fill="#f2f5e9" fill-opacity="0.5" stroke="#606060" stroke-width="1.0"/>
           <path id="arrow"
             d="M 11.500037,31.436501 C 11.940474,20.09759 22.043105,11.32322 32.158766,21.979434 L 37.068811,17.246167 C 37.068811,17.246167 37.088388,32 37.088388,32 L 22.160133,31.978069 C 22.160133,31.978069 26.997745,27.140456 26.997745,27.140456 C 18.528582,18.264221 13.291696,25.230495 11.500037,31.436501 z"
             style="fill:#404040;"/>
          </a>
         </g>
        </svg>
</svg>
