<?xml version="1.0" encoding="UTF-8" standalone="no"?>
<!DOCTYPE svg PUBLIC "-//W3C//DTD SVG 1.1//EN"
 "http://www.w3.org/Graphics/SVG/1.1/DTD/svg11.dtd">
<!-- Generated by graphviz version 2.43.0 (0)
 -->
<!-- Title: JS_NewAtomStr Pages: 1 -->
<svg width="680pt" height="468pt"
 viewBox="0.00 0.00 680.00 468.40" xmlns="http://www.w3.org/2000/svg" xmlns:xlink="http://www.w3.org/1999/xlink">
<g id="graph0" class="graph" transform="scale(1 1) rotate(0) translate(4 464.4)">
<title>JS_NewAtomStr</title>
<!-- Node1 -->
<g id="node1" class="node">
<title>Node1</title>
<g id="a_node1"><a xlink:title=" ">
<polygon fill="#bfbfbf" stroke="black" points="0,-228.5 0,-247.5 92,-247.5 92,-228.5 0,-228.5"/>
<text text-anchor="middle" x="46" y="-235.5" font-family="Helvetica,sans-Serif" font-size="10.00">JS_NewAtomStr</text>
</a>
</g>
</g>
<!-- Node2 -->
<g id="node2" class="node">
<title>Node2</title>
<g id="a_node2"><a xlink:href="quickjs_8c.html#a877fcb7651d95b411ce70e62b7f4a1f0" target="_top" xlink:title=" ">
<polygon fill="none" stroke="black" points="128,-285.5 128,-304.5 253,-304.5 253,-285.5 128,-285.5"/>
<text text-anchor="middle" x="190.5" y="-292.5" font-family="Helvetica,sans-Serif" font-size="10.00">__JS_AtomFromUInt32</text>
</a>
</g>
</g>
<!-- Node1&#45;&gt;Node2 -->
<g id="edge1" class="edge">
<title>Node1&#45;&gt;Node2</title>
<path fill="none" stroke="midnightblue" d="M70.36,-247.62C86.52,-254.25 108.54,-263.24 128,-271 136.83,-274.52 146.4,-278.28 155.3,-281.76"/>
<polygon fill="midnightblue" stroke="midnightblue" points="154.04,-285.02 164.63,-285.39 156.58,-278.5 154.04,-285.02"/>
</g>
<!-- Node3 -->
<g id="node3" class="node">
<title>Node3</title>
<g id="a_node3"><a xlink:href="quickjs_8c.html#acd08798ec15cc37c60d2e7d70007c6a8" target="_top" xlink:title=" ">
<polygon fill="none" stroke="black" points="146,-209.5 146,-228.5 235,-228.5 235,-209.5 146,-209.5"/>
<text text-anchor="middle" x="190.5" y="-216.5" font-family="Helvetica,sans-Serif" font-size="10.00">__JS_NewAtom</text>
</a>
</g>
</g>
<!-- Node1&#45;&gt;Node3 -->
<g id="edge2" class="edge">
<title>Node1&#45;&gt;Node3</title>
<path fill="none" stroke="midnightblue" d="M92.09,-231.99C105.87,-230.15 121.16,-228.11 135.47,-226.2"/>
<polygon fill="midnightblue" stroke="midnightblue" points="136.23,-229.63 145.68,-224.84 135.3,-222.7 136.23,-229.63"/>
</g>
<!-- Node11 -->
<g id="node11" class="node">
<title>Node11</title>
<g id="a_node11"><a xlink:href="quickjs_8c.html#aa506aaf9df272c0e9e541bbf0138b483" target="_top" xlink:title=" ">
<polygon fill="none" stroke="black" points="302.5,-361.5 302.5,-380.5 385.5,-380.5 385.5,-361.5 302.5,-361.5"/>
<text text-anchor="middle" x="344" y="-368.5" font-family="Helvetica,sans-Serif" font-size="10.00">js_free_string</text>
</a>
</g>
</g>
<!-- Node1&#45;&gt;Node11 -->
<g id="edge24" class="edge">
<title>Node1&#45;&gt;Node11</title>
<path fill="none" stroke="midnightblue" d="M92.46,-242.12C144.96,-247.6 227.4,-258.67 253,-276 277.81,-292.79 268.35,-311.29 289,-333 297.14,-341.56 307.48,-349.39 316.93,-355.68"/>
<polygon fill="midnightblue" stroke="midnightblue" points="315.3,-358.8 325.61,-361.22 319.06,-352.89 315.3,-358.8"/>
</g>
<!-- Node19 -->
<g id="node19" class="node">
<title>Node19</title>
<g id="a_node19"><a xlink:href="quickjs_8c.html#a1eaea8fa2599700598076ea84f1afcf3" target="_top" xlink:title=" ">
<polygon fill="none" stroke="black" points="148,-95.5 148,-114.5 233,-114.5 233,-95.5 148,-95.5"/>
<text text-anchor="middle" x="190.5" y="-102.5" font-family="Helvetica,sans-Serif" font-size="10.00">is_num_string</text>
</a>
</g>
</g>
<!-- Node1&#45;&gt;Node19 -->
<g id="edge22" class="edge">
<title>Node1&#45;&gt;Node19</title>
<path fill="none" stroke="midnightblue" d="M57.25,-228.43C81.27,-206.02 141.44,-149.86 171.63,-121.68"/>
<polygon fill="midnightblue" stroke="midnightblue" points="174.04,-124.22 178.96,-114.84 169.26,-119.1 174.04,-124.22"/>
</g>
<!-- Node4 -->
<g id="node4" class="node">
<title>Node4</title>
<g id="a_node4"><a xlink:href="quickjs_8c.html#a7f6796ee7a195631366f57c713a33f65" target="_top" xlink:title=" ">
<polygon fill="none" stroke="black" points="292,-114.5 292,-133.5 396,-133.5 396,-114.5 292,-114.5"/>
<text text-anchor="middle" x="344" y="-121.5" font-family="Helvetica,sans-Serif" font-size="10.00">__JS_AtomIsConst</text>
</a>
</g>
</g>
<!-- Node3&#45;&gt;Node4 -->
<g id="edge3" class="edge">
<title>Node3&#45;&gt;Node4</title>
<path fill="none" stroke="midnightblue" d="M201.53,-209.35C218.37,-193.59 253.97,-162.15 289,-143 292.73,-140.96 296.72,-139.08 300.78,-137.35"/>
<polygon fill="midnightblue" stroke="midnightblue" points="302.26,-140.52 310.28,-133.6 299.7,-134.01 302.26,-140.52"/>
</g>
<!-- Node5 -->
<g id="node5" class="node">
<title>Node5</title>
<g id="a_node5"><a xlink:href="quickjs_8c.html#ad7824788e3ed6ecfd045f02398647753" target="_top" xlink:title=" ">
<polygon fill="none" stroke="black" points="300,-76.5 300,-95.5 388,-95.5 388,-76.5 300,-76.5"/>
<text text-anchor="middle" x="344" y="-83.5" font-family="Helvetica,sans-Serif" font-size="10.00">atom_get_free</text>
</a>
</g>
</g>
<!-- Node3&#45;&gt;Node5 -->
<g id="edge4" class="edge">
<title>Node3&#45;&gt;Node5</title>
<path fill="none" stroke="midnightblue" d="M197.29,-209.25C210.69,-187.46 246.03,-134.44 289,-105 291.87,-103.03 294.97,-101.24 298.18,-99.63"/>
<polygon fill="midnightblue" stroke="midnightblue" points="299.72,-102.78 307.43,-95.51 296.87,-96.38 299.72,-102.78"/>
</g>
<!-- Node6 -->
<g id="node6" class="node">
<title>Node6</title>
<g id="a_node6"><a xlink:href="quickjs_8c.html#aba70a7ff210dcedf19125863f2b12d4e" target="_top" xlink:title=" ">
<polygon fill="none" stroke="black" points="585,-437.5 585,-456.5 672,-456.5 672,-437.5 585,-437.5"/>
<text text-anchor="middle" x="628.5" y="-444.5" font-family="Helvetica,sans-Serif" font-size="10.00">atom_set_free</text>
</a>
</g>
</g>
<!-- Node3&#45;&gt;Node6 -->
<g id="edge5" class="edge">
<title>Node3&#45;&gt;Node6</title>
<path fill="none" stroke="midnightblue" d="M205.44,-228.54C219.37,-238.76 240.46,-256.2 253,-276 281.43,-320.89 252.7,-351.2 289,-390 362.11,-468.13 499.19,-464.7 574.53,-455.69"/>
<polygon fill="midnightblue" stroke="midnightblue" points="575.26,-459.12 584.74,-454.39 574.38,-452.18 575.26,-459.12"/>
</g>
<!-- Node7 -->
<g id="node7" class="node">
<title>Node7</title>
<g id="a_node7"><a xlink:href="quickjs_8c.html#a745328cb78cc898a3e105bc7bd7aee38" target="_top" xlink:title=" ">
<polygon fill="none" stroke="black" points="307.5,-190.5 307.5,-209.5 380.5,-209.5 380.5,-190.5 307.5,-190.5"/>
<text text-anchor="middle" x="344" y="-197.5" font-family="Helvetica,sans-Serif" font-size="10.00">hash_string</text>
</a>
</g>
</g>
<!-- Node3&#45;&gt;Node7 -->
<g id="edge6" class="edge">
<title>Node3&#45;&gt;Node7</title>
<path fill="none" stroke="midnightblue" d="M235.32,-213.5C254.82,-211.06 277.77,-208.18 297.46,-205.71"/>
<polygon fill="midnightblue" stroke="midnightblue" points="297.94,-209.18 307.43,-204.46 297.07,-202.23 297.94,-209.18"/>
</g>
<!-- Node10 -->
<g id="node10" class="node">
<title>Node10</title>
<g id="a_node10"><a xlink:href="quickjs_8c.html#a69e19dda8a93d613203e0baa06f0ed8d" target="_top" xlink:title=" ">
<polygon fill="none" stroke="black" points="597.5,-342.5 597.5,-361.5 659.5,-361.5 659.5,-342.5 597.5,-342.5"/>
<text text-anchor="middle" x="628.5" y="-349.5" font-family="Helvetica,sans-Serif" font-size="10.00">js_free_rt</text>
</a>
</g>
</g>
<!-- Node3&#45;&gt;Node10 -->
<g id="edge9" class="edge">
<title>Node3&#45;&gt;Node10</title>
<path fill="none" stroke="midnightblue" d="M230.81,-228.56C248.56,-232.8 269.81,-237.78 289,-242 404.18,-267.32 441.06,-247.5 549,-295 571.89,-305.07 594.64,-322.64 609.71,-335.62"/>
<polygon fill="midnightblue" stroke="midnightblue" points="607.43,-338.28 617.24,-342.28 612.07,-333.03 607.43,-338.28"/>
</g>
<!-- Node3&#45;&gt;Node11 -->
<g id="edge10" class="edge">
<title>Node3&#45;&gt;Node11</title>
<path fill="none" stroke="midnightblue" d="M230.14,-228.54C238.46,-232.02 246.65,-236.71 253,-243 283.59,-273.33 262.28,-299.21 289,-333 296.17,-342.06 306.06,-349.88 315.42,-356.03"/>
<polygon fill="midnightblue" stroke="midnightblue" points="313.78,-359.13 324.13,-361.4 317.45,-353.17 313.78,-359.13"/>
</g>
<!-- Node13 -->
<g id="node13" class="node">
<title>Node13</title>
<g id="a_node13"><a xlink:href="quickjs_8c.html#ab7f82c24ed28f06191bf5a51f78bb710" target="_top" xlink:title=" ">
<polygon fill="none" stroke="black" points="289.5,-152.5 289.5,-171.5 398.5,-171.5 398.5,-152.5 289.5,-152.5"/>
<text text-anchor="middle" x="344" y="-159.5" font-family="Helvetica,sans-Serif" font-size="10.00">js_get_atom_index</text>
</a>
</g>
</g>
<!-- Node3&#45;&gt;Node13 -->
<g id="edge15" class="edge">
<title>Node3&#45;&gt;Node13</title>
<path fill="none" stroke="midnightblue" d="M215.46,-209.41C235.14,-201.59 263.79,-190.35 289,-181 294.3,-179.04 299.91,-177.01 305.43,-175.04"/>
<polygon fill="midnightblue" stroke="midnightblue" points="306.93,-178.22 315.19,-171.59 304.59,-171.62 306.93,-178.22"/>
</g>
<!-- Node14 -->
<g id="node14" class="node">
<title>Node14</title>
<g id="a_node14"><a xlink:href="quickjs_8c.html#ac8b63cf5ecd077231532b9ad543aad23" target="_top" xlink:title=" ">
<polygon fill="none" stroke="black" points="435,-228.5 435,-247.5 549,-247.5 549,-228.5 435,-228.5"/>
<text text-anchor="middle" x="492" y="-235.5" font-family="Helvetica,sans-Serif" font-size="10.00">JS_ResizeAtomHash</text>
</a>
</g>
</g>
<!-- Node3&#45;&gt;Node14 -->
<g id="edge16" class="edge">
<title>Node3&#45;&gt;Node14</title>
<path fill="none" stroke="midnightblue" d="M235.05,-221.76C284.87,-224.92 366.99,-230.13 424.75,-233.8"/>
<polygon fill="midnightblue" stroke="midnightblue" points="424.68,-237.3 434.88,-234.44 425.12,-230.31 424.68,-237.3"/>
</g>
<!-- Node15 -->
<g id="node15" class="node">
<title>Node15</title>
<g id="a_node15"><a xlink:href="quickjs_8c.html#aa3b85ecf2f1fbd87cb38b78548286017" target="_top" xlink:title=" ">
<polygon fill="none" stroke="black" points="289,-304.5 289,-323.5 399,-323.5 399,-304.5 289,-304.5"/>
<text text-anchor="middle" x="344" y="-311.5" font-family="Helvetica,sans-Serif" font-size="10.00">js_string_memcmp</text>
</a>
</g>
</g>
<!-- Node3&#45;&gt;Node15 -->
<g id="edge18" class="edge">
<title>Node3&#45;&gt;Node15</title>
<path fill="none" stroke="midnightblue" d="M225.78,-228.61C235.15,-232.21 244.94,-236.94 253,-243 274.03,-258.81 268.34,-273.71 289,-290 293.8,-293.78 299.29,-297.11 304.89,-299.98"/>
<polygon fill="midnightblue" stroke="midnightblue" points="303.77,-303.32 314.31,-304.39 306.74,-296.98 303.77,-303.32"/>
</g>
<!-- Node18 -->
<g id="node18" class="node">
<title>Node18</title>
<g id="a_node18"><a xlink:href="cutils_8h.html#a94f155fcce337a2b9d4719ed8042cbbe" target="_top" xlink:title=" ">
<polygon fill="none" stroke="black" points="316,-38.5 316,-57.5 372,-57.5 372,-38.5 316,-38.5"/>
<text text-anchor="middle" x="344" y="-45.5" font-family="Helvetica,sans-Serif" font-size="10.00">max_int</text>
</a>
</g>
</g>
<!-- Node3&#45;&gt;Node18 -->
<g id="edge21" class="edge">
<title>Node3&#45;&gt;Node18</title>
<path fill="none" stroke="midnightblue" d="M197.82,-209.31C209.01,-192.16 233,-155.28 253,-124 269.14,-98.76 265.57,-85.67 289,-67 294.1,-62.94 300.13,-59.71 306.29,-57.15"/>
<polygon fill="midnightblue" stroke="midnightblue" points="307.72,-60.35 315.94,-53.67 305.35,-53.77 307.72,-60.35"/>
</g>
<!-- Node8 -->
<g id="node8" class="node">
<title>Node8</title>
<g id="a_node8"><a xlink:href="quickjs_8c.html#a8f1b36a26bf6d179e43696a67e8e0fff" target="_top" xlink:title=" ">
<polygon fill="none" stroke="black" points="449.5,-190.5 449.5,-209.5 534.5,-209.5 534.5,-190.5 449.5,-190.5"/>
<text text-anchor="middle" x="492" y="-197.5" font-family="Helvetica,sans-Serif" font-size="10.00">hash_string16</text>
</a>
</g>
</g>
<!-- Node7&#45;&gt;Node8 -->
<g id="edge7" class="edge">
<title>Node7&#45;&gt;Node8</title>
<path fill="none" stroke="midnightblue" d="M380.72,-200C398.32,-200 419.88,-200 439.25,-200"/>
<polygon fill="midnightblue" stroke="midnightblue" points="439.44,-203.5 449.44,-200 439.44,-196.5 439.44,-203.5"/>
</g>
<!-- Node9 -->
<g id="node9" class="node">
<title>Node9</title>
<g id="a_node9"><a xlink:href="quickjs_8c.html#a7f3a538c8f7ee373cfe88625181739ad" target="_top" xlink:title=" ">
<polygon fill="none" stroke="black" points="452.5,-152.5 452.5,-171.5 531.5,-171.5 531.5,-152.5 452.5,-152.5"/>
<text text-anchor="middle" x="492" y="-159.5" font-family="Helvetica,sans-Serif" font-size="10.00">hash_string8</text>
</a>
</g>
</g>
<!-- Node7&#45;&gt;Node9 -->
<g id="edge8" class="edge">
<title>Node7&#45;&gt;Node9</title>
<path fill="none" stroke="midnightblue" d="M380.72,-190.7C399.94,-185.7 423.88,-179.47 444.54,-174.09"/>
<polygon fill="midnightblue" stroke="midnightblue" points="445.59,-177.44 454.38,-171.53 443.82,-170.66 445.59,-177.44"/>
</g>
<!-- Node11&#45;&gt;Node10 -->
<g id="edge11" class="edge">
<title>Node11&#45;&gt;Node10</title>
<path fill="none" stroke="midnightblue" d="M385.81,-373.83C427.11,-376.03 492.73,-377.71 549,-371 561.62,-369.49 575.14,-366.67 587.34,-363.66"/>
<polygon fill="midnightblue" stroke="midnightblue" points="588.43,-366.99 597.24,-361.1 586.68,-360.21 588.43,-366.99"/>
</g>
<!-- Node12 -->
<g id="node12" class="node">
<title>Node12</title>
<g id="a_node12"><a xlink:href="quickjs_8c.html#a58c8965dad50b15b75918a09f3d9dc7c" target="_top" xlink:title=" ">
<polygon fill="none" stroke="black" points="438.5,-418.5 438.5,-437.5 545.5,-437.5 545.5,-418.5 438.5,-418.5"/>
<text text-anchor="middle" x="492" y="-425.5" font-family="Helvetica,sans-Serif" font-size="10.00">JS_FreeAtomStruct</text>
</a>
</g>
</g>
<!-- Node11&#45;&gt;Node12 -->
<g id="edge12" class="edge">
<title>Node11&#45;&gt;Node12</title>
<path fill="none" stroke="midnightblue" d="M369.44,-380.54C393.44,-389.91 430.26,-404.29 457.09,-414.76"/>
<polygon fill="midnightblue" stroke="midnightblue" points="455.9,-418.05 466.48,-418.43 458.44,-411.53 455.9,-418.05"/>
</g>
<!-- Node12&#45;&gt;Node6 -->
<g id="edge13" class="edge">
<title>Node12&#45;&gt;Node6</title>
<path fill="none" stroke="midnightblue" d="M545.77,-435.45C555.28,-436.8 565.2,-438.2 574.71,-439.54"/>
<polygon fill="midnightblue" stroke="midnightblue" points="574.45,-443.04 584.84,-440.97 575.43,-436.11 574.45,-443.04"/>
</g>
<!-- Node12&#45;&gt;Node10 -->
<g id="edge14" class="edge">
<title>Node12&#45;&gt;Node10</title>
<path fill="none" stroke="midnightblue" d="M517.99,-418.42C527.84,-414.36 539.13,-409.33 549,-404 569.2,-393.09 590.86,-378.51 606.3,-367.56"/>
<polygon fill="midnightblue" stroke="midnightblue" points="608.54,-370.26 614.62,-361.58 604.45,-364.58 608.54,-370.26"/>
</g>
<!-- Node14&#45;&gt;Node10 -->
<g id="edge17" class="edge">
<title>Node14&#45;&gt;Node10</title>
<path fill="none" stroke="midnightblue" d="M521.95,-247.52C531.07,-251.26 540.88,-256.09 549,-262 576.78,-282.22 601.5,-313.99 615.47,-333.87"/>
<polygon fill="midnightblue" stroke="midnightblue" points="612.73,-336.06 621.27,-342.33 618.5,-332.1 612.73,-336.06"/>
</g>
<!-- Node16 -->
<g id="node16" class="node">
<title>Node16</title>
<g id="a_node16"><a xlink:href="quickjs_8c.html#a98e9fec451d6851cae6d0d92ea860a26" target="_top" xlink:title=" ">
<polygon fill="none" stroke="black" points="454.5,-304.5 454.5,-323.5 529.5,-323.5 529.5,-304.5 454.5,-304.5"/>
<text text-anchor="middle" x="492" y="-311.5" font-family="Helvetica,sans-Serif" font-size="10.00">memcmp16</text>
</a>
</g>
</g>
<!-- Node15&#45;&gt;Node16 -->
<g id="edge19" class="edge">
<title>Node15&#45;&gt;Node16</title>
<path fill="none" stroke="midnightblue" d="M399.37,-314C414.11,-314 429.94,-314 444.23,-314"/>
<polygon fill="midnightblue" stroke="midnightblue" points="444.32,-317.5 454.32,-314 444.32,-310.5 444.32,-317.5"/>
</g>
<!-- Node17 -->
<g id="node17" class="node">
<title>Node17</title>
<g id="a_node17"><a xlink:href="quickjs_8c.html#add253cbbb280615066466e7fb8bef776" target="_top" xlink:title=" ">
<polygon fill="none" stroke="black" points="449,-342.5 449,-361.5 535,-361.5 535,-342.5 449,-342.5"/>
<text text-anchor="middle" x="492" y="-349.5" font-family="Helvetica,sans-Serif" font-size="10.00">memcmp16_8</text>
</a>
</g>
</g>
<!-- Node15&#45;&gt;Node17 -->
<g id="edge20" class="edge">
<title>Node15&#45;&gt;Node17</title>
<path fill="none" stroke="midnightblue" d="M381.84,-323.59C400.85,-328.54 424.23,-334.62 444.47,-339.89"/>
<polygon fill="midnightblue" stroke="midnightblue" points="443.86,-343.35 454.42,-342.48 445.63,-336.57 443.86,-343.35"/>
</g>
<!-- Node20 -->
<g id="node20" class="node">
<title>Node20</title>
<g id="a_node20"><a xlink:href="quickjs_8c.html#af7b310b780a36d5b1579d4f400e6a8ae" target="_top" xlink:title=" ">
<polygon fill="none" stroke="black" points="318,-0.5 318,-19.5 370,-19.5 370,-0.5 318,-0.5"/>
<text text-anchor="middle" x="344" y="-7.5" font-family="Helvetica,sans-Serif" font-size="10.00">is_num</text>
</a>
</g>
</g>
<!-- Node19&#45;&gt;Node20 -->
<g id="edge23" class="edge">
<title>Node19&#45;&gt;Node20</title>
<path fill="none" stroke="midnightblue" d="M201.53,-95.35C218.37,-79.59 253.97,-48.15 289,-29 295.04,-25.7 301.75,-22.8 308.34,-20.32"/>
<polygon fill="midnightblue" stroke="midnightblue" points="309.54,-23.61 317.82,-16.99 307.22,-17 309.54,-23.61"/>
</g>
</g>
</svg>
