<?xml version="1.0" encoding="UTF-8" standalone="no"?>
<!DOCTYPE svg PUBLIC "-//W3C//DTD SVG 1.1//EN"
 "http://www.w3.org/Graphics/SVG/1.1/DTD/svg11.dtd">
<!-- Generated by graphviz version 2.43.0 (0)
 -->
<!-- Title: js_create_module_bytecode_function Pages: 1 -->
<svg width="648pt" height="66pt"
 viewBox="0.00 0.00 648.00 66.00" xmlns="http://www.w3.org/2000/svg" xmlns:xlink="http://www.w3.org/1999/xlink">
<g id="graph0" class="graph" transform="scale(1 1) rotate(0) translate(4 62)">
<title>js_create_module_bytecode_function</title>
<!-- Node1 -->
<g id="node1" class="node">
<title>Node1</title>
<g id="a_node1"><a xlink:title=" ">
<polygon fill="#bfbfbf" stroke="black" points="487,-14 487,-44 640,-44 640,-14 487,-14"/>
<text text-anchor="start" x="495" y="-32" font-family="Helvetica,sans-Serif" font-size="10.00">js_create_module_bytecode</text>
<text text-anchor="middle" x="563.5" y="-21" font-family="Helvetica,sans-Serif" font-size="10.00">_function</text>
</a>
</g>
</g>
<!-- Node2 -->
<g id="node2" class="node">
<title>Node2</title>
<g id="a_node2"><a xlink:href="quickjs_8c.html#a2d91a9da16cf07ff3b9ec053b870c335" target="_top" xlink:title=" ">
<polygon fill="none" stroke="black" points="303,-19.5 303,-38.5 451,-38.5 451,-19.5 303,-19.5"/>
<text text-anchor="middle" x="377" y="-26.5" font-family="Helvetica,sans-Serif" font-size="10.00">js_create_module_function</text>
</a>
</g>
</g>
<!-- Node1&#45;&gt;Node2 -->
<g id="edge1" class="edge">
<title>Node1&#45;&gt;Node2</title>
<path fill="none" stroke="midnightblue" d="M476.86,-29C468.24,-29 459.55,-29 451.08,-29"/>
<polygon fill="midnightblue" stroke="midnightblue" points="476.92,-32.5 486.92,-29 476.92,-25.5 476.92,-32.5"/>
</g>
<!-- Node2&#45;&gt;Node2 -->
<g id="edge2" class="edge">
<title>Node2&#45;&gt;Node2</title>
<path fill="none" stroke="midnightblue" d="M409.56,-47.27C408.63,-52.74 397.78,-57 377,-57 346.07,-57 337.13,-47.57 350.18,-38.76"/>
<polygon fill="midnightblue" stroke="midnightblue" points="412.31,-45.09 403.82,-38.76 406.51,-49.01 412.31,-45.09"/>
</g>
<!-- Node3 -->
<g id="node3" class="node">
<title>Node3</title>
<g id="a_node3"><a xlink:href="quickjs_8c.html#a5d217acce00892ab2b50a1dcc1eb4cc8" target="_top" xlink:title=" ">
<polygon fill="none" stroke="black" points="136,-19.5 136,-38.5 267,-38.5 267,-19.5 136,-19.5"/>
<text text-anchor="middle" x="201.5" y="-26.5" font-family="Helvetica,sans-Serif" font-size="10.00">JS_EvalFunctionInternal</text>
</a>
</g>
</g>
<!-- Node2&#45;&gt;Node3 -->
<g id="edge3" class="edge">
<title>Node2&#45;&gt;Node3</title>
<path fill="none" stroke="midnightblue" d="M292.86,-29C284.25,-29 275.59,-29 267.23,-29"/>
<polygon fill="midnightblue" stroke="midnightblue" points="292.92,-32.5 302.92,-29 292.92,-25.5 292.92,-32.5"/>
</g>
<!-- Node4 -->
<g id="node4" class="node">
<title>Node4</title>
<g id="a_node4"><a xlink:href="quickjs_8c.html#a46a8a7e155cfd0af984f6725f060f0d6" target="_top" xlink:title=" ">
<polygon fill="none" stroke="red" points="0,-38.5 0,-57.5 100,-57.5 100,-38.5 0,-38.5"/>
<text text-anchor="middle" x="50" y="-45.5" font-family="Helvetica,sans-Serif" font-size="10.00">__JS_EvalInternal</text>
</a>
</g>
</g>
<!-- Node3&#45;&gt;Node4 -->
<g id="edge4" class="edge">
<title>Node3&#45;&gt;Node4</title>
<path fill="none" stroke="midnightblue" d="M125.62,-38.52C116.93,-39.62 108.24,-40.73 100.02,-41.77"/>
<polygon fill="midnightblue" stroke="midnightblue" points="126.32,-41.96 135.8,-37.22 125.44,-35.01 126.32,-41.96"/>
</g>
<!-- Node10 -->
<g id="node5" class="node">
<title>Node10</title>
<g id="a_node5"><a xlink:href="quickjs_8c.html#af38ab3d672d41db0fa7a75b5c24149e4" target="_top" xlink:title=" ">
<polygon fill="none" stroke="red" points="3.5,-0.5 3.5,-19.5 96.5,-19.5 96.5,-0.5 3.5,-0.5"/>
<text text-anchor="middle" x="50" y="-7.5" font-family="Helvetica,sans-Serif" font-size="10.00">JS_EvalFunction</text>
</a>
</g>
</g>
<!-- Node3&#45;&gt;Node10 -->
<g id="edge5" class="edge">
<title>Node3&#45;&gt;Node10</title>
<path fill="none" stroke="midnightblue" d="M125.61,-19.48C115.81,-18.24 106.01,-16.99 96.89,-15.83"/>
<polygon fill="midnightblue" stroke="midnightblue" points="125.44,-22.99 135.8,-20.78 126.32,-16.04 125.44,-22.99"/>
</g>
</g>
</svg>
