<?xml version="1.0" encoding="UTF-8" standalone="no"?>
<!DOCTYPE svg PUBLIC "-//W3C//DTD SVG 1.1//EN"
 "http://www.w3.org/Graphics/SVG/1.1/DTD/svg11.dtd">
<!-- Generated by graphviz version 2.43.0 (0)
 -->
<!-- Title: JS_ToPropertyKey Pages: 1 -->
<svg width="946pt" height="931pt"
 viewBox="0.00 0.00 946.00 931.24" xmlns="http://www.w3.org/2000/svg" xmlns:xlink="http://www.w3.org/1999/xlink">
<g id="graph0" class="graph" transform="scale(1 1) rotate(0) translate(4 927.24)">
<title>JS_ToPropertyKey</title>
<!-- Node1 -->
<g id="node1" class="node">
<title>Node1</title>
<g id="a_node1"><a xlink:title=" ">
<polygon fill="#bfbfbf" stroke="black" points="837,-661.5 837,-680.5 938,-680.5 938,-661.5 837,-661.5"/>
<text text-anchor="middle" x="887.5" y="-668.5" font-family="Helvetica,sans-Serif" font-size="10.00">JS_ToPropertyKey</text>
</a>
</g>
</g>
<!-- Node2 -->
<g id="node2" class="node">
<title>Node2</title>
<g id="a_node2"><a xlink:href="quickjs_8c.html#ac2894ff4edcdb4e6841bcce9c76081e3" target="_top" xlink:title=" ">
<polygon fill="none" stroke="black" points="370,-658.5 370,-677.5 457,-677.5 457,-658.5 370,-658.5"/>
<text text-anchor="middle" x="413.5" y="-665.5" font-family="Helvetica,sans-Serif" font-size="10.00">JS_CallInternal</text>
</a>
</g>
</g>
<!-- Node1&#45;&gt;Node2 -->
<g id="edge1" class="edge">
<title>Node1&#45;&gt;Node2</title>
<path fill="none" stroke="midnightblue" d="M876.1,-689.31C849.12,-734.69 771.82,-851.81 670,-895 599.22,-925.03 559.97,-939.12 497,-895 421.79,-842.31 414.88,-713.64 414.46,-677.55"/>
<polygon fill="midnightblue" stroke="midnightblue" points="879.2,-690.94 881.22,-680.53 873.16,-687.41 879.2,-690.94"/>
</g>
<!-- Node610 -->
<g id="node9" class="node">
<title>Node610</title>
<g id="a_node9"><a xlink:href="quickjs_8c.html#a859d5c989a2aaecef1653b3ac279e108" target="_top" xlink:title=" ">
<polygon fill="none" stroke="black" points="706,-440.5 706,-459.5 801,-459.5 801,-440.5 706,-440.5"/>
<text text-anchor="middle" x="753.5" y="-447.5" font-family="Helvetica,sans-Serif" font-size="10.00">JS_ValueToAtom</text>
</a>
</g>
</g>
<!-- Node1&#45;&gt;Node610 -->
<g id="edge13" class="edge">
<title>Node1&#45;&gt;Node610</title>
<path fill="none" stroke="midnightblue" d="M875.44,-652.48C848.56,-607.48 780.53,-493.58 760.27,-459.67"/>
<polygon fill="midnightblue" stroke="midnightblue" points="872.53,-654.43 880.66,-661.22 878.53,-650.84 872.53,-654.43"/>
</g>
<!-- Node2&#45;&gt;Node2 -->
<g id="edge12" class="edge">
<title>Node2&#45;&gt;Node2</title>
<path fill="none" stroke="midnightblue" d="M442.25,-686.65C441.04,-691.94 431.46,-696 413.5,-696 386.13,-696 378.22,-686.57 389.76,-677.76"/>
<polygon fill="midnightblue" stroke="midnightblue" points="445.19,-684.75 437.24,-677.76 439.09,-688.19 445.19,-684.75"/>
</g>
<!-- Node3 -->
<g id="node3" class="node">
<title>Node3</title>
<g id="a_node3"><a xlink:href="quickjs_8c.html#ade71a22dc56e7371392393df663b28b3" target="_top" xlink:title=" ">
<polygon fill="none" stroke="red" points="202,-677.5 202,-696.5 315,-696.5 315,-677.5 202,-677.5"/>
<text text-anchor="middle" x="258.5" y="-684.5" font-family="Helvetica,sans-Serif" font-size="10.00">async_func_resume</text>
</a>
</g>
</g>
<!-- Node2&#45;&gt;Node3 -->
<g id="edge2" class="edge">
<title>Node2&#45;&gt;Node3</title>
<path fill="none" stroke="midnightblue" d="M359.65,-674.56C345.25,-676.35 329.61,-678.29 315.06,-680.1"/>
<polygon fill="midnightblue" stroke="midnightblue" points="360.39,-678 369.88,-673.29 359.53,-671.05 360.39,-678"/>
</g>
<!-- Node22 -->
<g id="node5" class="node">
<title>Node22</title>
<g id="a_node5"><a xlink:href="quickjs_8c.html#a1a4c02a29525d5cb2085dd8bca3af350" target="_top" xlink:title=" ">
<polygon fill="none" stroke="red" points="233.5,-715.5 233.5,-734.5 283.5,-734.5 283.5,-715.5 233.5,-715.5"/>
<text text-anchor="middle" x="258.5" y="-722.5" font-family="Helvetica,sans-Serif" font-size="10.00">JS_Call</text>
</a>
</g>
</g>
<!-- Node2&#45;&gt;Node22 -->
<g id="edge4" class="edge">
<title>Node2&#45;&gt;Node22</title>
<path fill="none" stroke="midnightblue" d="M367.53,-681.69C355.51,-686.9 342.4,-692.51 330,-697 310.57,-704.04 287.3,-709.81 272.96,-715.41"/>
<polygon fill="midnightblue" stroke="midnightblue" points="369.12,-684.81 376.91,-677.63 366.34,-678.39 369.12,-684.81"/>
</g>
<!-- Node108 -->
<g id="node6" class="node">
<title>Node108</title>
<g id="a_node6"><a xlink:href="quickjs_8c.html#ad35594576a14c10812efaf958c99af8a" target="_top" xlink:title=" ">
<polygon fill="none" stroke="red" points="187,-601.5 187,-620.5 330,-620.5 330,-601.5 187,-601.5"/>
<text text-anchor="middle" x="258.5" y="-608.5" font-family="Helvetica,sans-Serif" font-size="10.00">JS_CallConstructorInternal</text>
</a>
</g>
</g>
<!-- Node2&#45;&gt;Node108 -->
<g id="edge7" class="edge">
<title>Node2&#45;&gt;Node108</title>
<path fill="none" stroke="midnightblue" d="M396.04,-652.57C379.63,-642.1 353.55,-629.53 330,-621 329.64,-620.87 329.28,-620.74 328.92,-620.61"/>
<polygon fill="midnightblue" stroke="midnightblue" points="394.28,-655.61 404.49,-658.44 398.28,-649.86 394.28,-655.61"/>
</g>
<!-- Node122 -->
<g id="node7" class="node">
<title>Node122</title>
<g id="a_node7"><a xlink:href="quickjs_8c.html#a75f6ee5e4235a7dc99889f3d2eb2c147" target="_top" xlink:title=" ">
<polygon fill="none" stroke="red" points="223,-639.5 223,-658.5 294,-658.5 294,-639.5 223,-639.5"/>
<text text-anchor="middle" x="258.5" y="-646.5" font-family="Helvetica,sans-Serif" font-size="10.00">JS_CallFree</text>
</a>
</g>
</g>
<!-- Node2&#45;&gt;Node122 -->
<g id="edge9" class="edge">
<title>Node2&#45;&gt;Node122</title>
<path fill="none" stroke="midnightblue" d="M370.88,-656.75C346.8,-652.77 316.86,-649.16 294.09,-647.54"/>
<polygon fill="midnightblue" stroke="midnightblue" points="370.35,-660.21 380.8,-658.47 371.54,-653.31 370.35,-660.21"/>
</g>
<!-- Node4 -->
<g id="node4" class="node">
<title>Node4</title>
<g id="a_node4"><a xlink:href="quickjs_8c.html#a1bf6b62983e8fff99c0a5d5a9f486115" target="_top" xlink:title=" ">
<polygon fill="none" stroke="red" points="2.5,-696.5 2.5,-715.5 148.5,-715.5 148.5,-696.5 2.5,-696.5"/>
<text text-anchor="middle" x="75.5" y="-703.5" font-family="Helvetica,sans-Serif" font-size="10.00">js_async_function_resume</text>
</a>
</g>
</g>
<!-- Node3&#45;&gt;Node4 -->
<g id="edge3" class="edge">
<title>Node3&#45;&gt;Node4</title>
<path fill="none" stroke="midnightblue" d="M191.73,-693.9C177.77,-695.37 162.96,-696.92 148.78,-698.41"/>
<polygon fill="midnightblue" stroke="midnightblue" points="192.14,-697.38 201.72,-692.86 191.41,-690.42 192.14,-697.38"/>
</g>
<!-- Node22&#45;&gt;Node2 -->
<g id="edge6" class="edge">
<title>Node22&#45;&gt;Node2</title>
<path fill="none" stroke="midnightblue" d="M293.49,-725.57C305.19,-723.02 318.29,-719.24 330,-715 358.17,-704.8 389.97,-688.81 404.49,-677.56"/>
<polygon fill="midnightblue" stroke="midnightblue" points="292.79,-722.14 283.63,-727.47 294.11,-729.01 292.79,-722.14"/>
</g>
<!-- Node22&#45;&gt;Node4 -->
<g id="edge5" class="edge">
<title>Node22&#45;&gt;Node4</title>
<path fill="none" stroke="midnightblue" d="M223.42,-721.42C202.37,-719.21 174.54,-716.29 148.77,-713.59"/>
<polygon fill="midnightblue" stroke="midnightblue" points="223.15,-724.91 233.46,-722.48 223.88,-717.95 223.15,-724.91"/>
</g>
<!-- Node108&#45;&gt;Node2 -->
<g id="edge8" class="edge">
<title>Node108&#45;&gt;Node2</title>
<path fill="none" stroke="midnightblue" d="M282.7,-624.03C296.6,-628.59 314.52,-633.39 330,-639 345.72,-644.69 362.56,-652.18 376.91,-658.37"/>
<polygon fill="midnightblue" stroke="midnightblue" points="283.56,-620.62 272.96,-620.59 281.22,-627.22 283.56,-620.62"/>
</g>
<!-- Node122&#45;&gt;Node2 -->
<g id="edge10" class="edge">
<title>Node122&#45;&gt;Node2</title>
<path fill="none" stroke="midnightblue" d="M301.27,-660.28C322.58,-663.79 348.45,-667.02 369.88,-668.83"/>
<polygon fill="midnightblue" stroke="midnightblue" points="301.67,-656.79 291.22,-658.53 300.47,-663.69 301.67,-656.79"/>
</g>
<!-- Node353 -->
<g id="node8" class="node">
<title>Node353</title>
<g id="a_node8"><a xlink:href="quickjs_8c.html#a438b354d69a8f0674195b0cdc19dd686" target="_top" xlink:title=" ">
<polygon fill="none" stroke="black" points="0,-473 0,-503 151,-503 151,-473 0,-473"/>
<text text-anchor="start" x="8" y="-491" font-family="Helvetica,sans-Serif" font-size="10.00">js_proxy_get_own_property</text>
<text text-anchor="middle" x="75.5" y="-480" font-family="Helvetica,sans-Serif" font-size="10.00">_names</text>
</a>
</g>
</g>
<!-- Node122&#45;&gt;Node353 -->
<g id="edge11" class="edge">
<title>Node122&#45;&gt;Node353</title>
<path fill="none" stroke="midnightblue" d="M213.18,-641.73C204.04,-638.99 194.83,-635.2 187,-630 136.52,-596.47 99.09,-532.21 83.92,-503.05"/>
<polygon fill="midnightblue" stroke="midnightblue" points="212.43,-645.16 222.99,-644.33 214.22,-638.39 212.43,-645.16"/>
</g>
<!-- Node610&#45;&gt;Node2 -->
<g id="edge14" class="edge">
<title>Node610&#45;&gt;Node2</title>
<path fill="none" stroke="midnightblue" d="M750.97,-469.95C745.29,-537.99 722.99,-759.02 670,-801 609.73,-848.75 564.19,-838.39 497,-801 447.85,-773.65 424.24,-703.57 417.01,-677.75"/>
<polygon fill="midnightblue" stroke="midnightblue" points="754.48,-469.99 751.79,-459.74 747.5,-469.43 754.48,-469.99"/>
</g>
<!-- Node610&#45;&gt;Node353 -->
<g id="edge36" class="edge">
<title>Node610&#45;&gt;Node353</title>
<path fill="none" stroke="midnightblue" d="M748.83,-430.57C741.14,-396.05 719.76,-324.88 670,-295 604.08,-255.41 572.12,-278.58 497,-295 335.34,-330.33 161.57,-433.77 99.86,-472.83"/>
<polygon fill="midnightblue" stroke="midnightblue" points="745.4,-431.3 750.86,-440.39 752.26,-429.88 745.4,-431.3"/>
</g>
<!-- Node533 -->
<g id="node10" class="node">
<title>Node533</title>
<g id="a_node10"><a xlink:href="quickjs_8c.html#a4da0393f32562bb05dff7ef63fff68f9" target="_top" xlink:title=" ">
<polygon fill="none" stroke="black" points="507,-734.5 507,-753.5 660,-753.5 660,-734.5 507,-734.5"/>
<text text-anchor="middle" x="583.5" y="-741.5" font-family="Helvetica,sans-Serif" font-size="10.00">js_date_Symbol_toPrimitive</text>
</a>
</g>
</g>
<!-- Node610&#45;&gt;Node533 -->
<g id="edge15" class="edge">
<title>Node610&#45;&gt;Node533</title>
<path fill="none" stroke="midnightblue" d="M752.89,-469.74C752.76,-520.29 745.02,-655.26 670,-725 665.88,-728.83 661.16,-731.95 656.11,-734.49"/>
<polygon fill="midnightblue" stroke="midnightblue" points="756.39,-469.51 752.81,-459.54 749.39,-469.57 756.39,-469.51"/>
</g>
<!-- Node234 -->
<g id="node11" class="node">
<title>Node234</title>
<g id="a_node11"><a xlink:href="quickjs_8c.html#a116b8bb41915b573650c477a55d8e46d" target="_top" xlink:title=" ">
<polygon fill="none" stroke="red" points="497,-772.5 497,-791.5 670,-791.5 670,-772.5 497,-772.5"/>
<text text-anchor="middle" x="583.5" y="-779.5" font-family="Helvetica,sans-Serif" font-size="10.00">JS_DefineObjectNameComputed</text>
</a>
</g>
</g>
<!-- Node610&#45;&gt;Node234 -->
<g id="edge16" class="edge">
<title>Node610&#45;&gt;Node234</title>
<path fill="none" stroke="midnightblue" d="M749.98,-469.81C741.67,-531.98 713.18,-721.47 670,-763 666.05,-766.79 661.53,-769.9 656.66,-772.43"/>
<polygon fill="midnightblue" stroke="midnightblue" points="753.47,-470.12 751.29,-459.75 746.53,-469.22 753.47,-470.12"/>
</g>
<!-- Node243 -->
<g id="node12" class="node">
<title>Node243</title>
<g id="a_node12"><a xlink:href="quickjs_8c.html#a0c61bd5a64c743e81188bb528b78e715" target="_top" xlink:title=" ">
<polygon fill="none" stroke="red" points="504.5,-696.5 504.5,-715.5 662.5,-715.5 662.5,-696.5 504.5,-696.5"/>
<text text-anchor="middle" x="583.5" y="-703.5" font-family="Helvetica,sans-Serif" font-size="10.00">JS_DefinePropertyValueValue</text>
</a>
</g>
</g>
<!-- Node610&#45;&gt;Node243 -->
<g id="edge18" class="edge">
<title>Node610&#45;&gt;Node243</title>
<path fill="none" stroke="midnightblue" d="M751.77,-470.08C748.96,-515.92 735.41,-628.79 670,-687 665.68,-690.84 660.76,-693.96 655.52,-696.49"/>
<polygon fill="midnightblue" stroke="midnightblue" points="755.27,-470.1 752.28,-459.94 748.28,-469.75 755.27,-470.1"/>
</g>
<!-- Node375 -->
<g id="node13" class="node">
<title>Node375</title>
<g id="a_node13"><a xlink:href="quickjs_8c.html#a90d6e607f6917d817c1e997bd2e6ed07" target="_top" xlink:title=" ">
<polygon fill="none" stroke="red" points="525.5,-658.5 525.5,-677.5 641.5,-677.5 641.5,-658.5 525.5,-658.5"/>
<text text-anchor="middle" x="583.5" y="-665.5" font-family="Helvetica,sans-Serif" font-size="10.00">JS_GetPropertyValue</text>
</a>
</g>
</g>
<!-- Node610&#45;&gt;Node375 -->
<g id="edge20" class="edge">
<title>Node610&#45;&gt;Node375</title>
<path fill="none" stroke="midnightblue" d="M750.29,-469.84C744.7,-510.16 726.18,-601.85 670,-649 661.96,-655.74 652.05,-660.23 641.85,-663.19"/>
<polygon fill="midnightblue" stroke="midnightblue" points="753.79,-470.06 751.57,-459.7 746.85,-469.18 753.79,-470.06"/>
</g>
<!-- Node308 -->
<g id="node14" class="node">
<title>Node308</title>
<g id="a_node14"><a xlink:href="quickjs_8c.html#ad47910027b4f50d5ff3239df19de556d" target="_top" xlink:title=" ">
<polygon fill="none" stroke="black" points="510,-582.5 510,-601.5 657,-601.5 657,-582.5 510,-582.5"/>
<text text-anchor="middle" x="583.5" y="-589.5" font-family="Helvetica,sans-Serif" font-size="10.00">js_object___defineGetter__</text>
</a>
</g>
</g>
<!-- Node610&#45;&gt;Node308 -->
<g id="edge22" class="edge">
<title>Node610&#45;&gt;Node308</title>
<path fill="none" stroke="midnightblue" d="M745.28,-468.78C733.73,-496.19 708.41,-546.76 670,-573 664.35,-576.86 658.04,-579.95 651.49,-582.42"/>
<polygon fill="midnightblue" stroke="midnightblue" points="748.53,-470.08 749.03,-459.5 742.04,-467.46 748.53,-470.08"/>
</g>
<!-- Node309 -->
<g id="node15" class="node">
<title>Node309</title>
<g id="a_node15"><a xlink:href="quickjs_8c.html#a26abea9136a3d8e9a861aefb51626b4e" target="_top" xlink:title=" ">
<polygon fill="none" stroke="black" points="509,-544.5 509,-563.5 658,-563.5 658,-544.5 509,-544.5"/>
<text text-anchor="middle" x="583.5" y="-551.5" font-family="Helvetica,sans-Serif" font-size="10.00">js_object___lookupGetter__</text>
</a>
</g>
</g>
<!-- Node610&#45;&gt;Node309 -->
<g id="edge23" class="edge">
<title>Node610&#45;&gt;Node309</title>
<path fill="none" stroke="midnightblue" d="M740.06,-468.05C725.57,-487.65 699.76,-518.37 670,-535 663.1,-538.86 655.47,-541.93 647.7,-544.38"/>
<polygon fill="midnightblue" stroke="midnightblue" points="743.09,-469.84 746.07,-459.67 737.4,-465.76 743.09,-469.84"/>
</g>
<!-- Node166 -->
<g id="node16" class="node">
<title>Node166</title>
<g id="a_node16"><a xlink:href="quickjs_8c.html#aca3b864ab833c3c9034cee730e49cedb" target="_top" xlink:title=" ">
<polygon fill="none" stroke="black" points="515,-506.5 515,-525.5 652,-525.5 652,-506.5 515,-506.5"/>
<text text-anchor="middle" x="583.5" y="-513.5" font-family="Helvetica,sans-Serif" font-size="10.00">js_object_defineProperty</text>
</a>
</g>
</g>
<!-- Node610&#45;&gt;Node166 -->
<g id="edge24" class="edge">
<title>Node610&#45;&gt;Node166</title>
<path fill="none" stroke="midnightblue" d="M729.87,-465.36C713.79,-475.65 691.34,-488.77 670,-497 660.21,-500.78 649.49,-503.9 639.05,-506.44"/>
<polygon fill="midnightblue" stroke="midnightblue" points="732.09,-468.09 738.55,-459.69 728.26,-462.23 732.09,-468.09"/>
</g>
<!-- Node284 -->
<g id="node17" class="node">
<title>Node284</title>
<g id="a_node17"><a xlink:href="quickjs_8c.html#a5f75fb513884286c86db6863663f262a" target="_top" xlink:title=" ">
<polygon fill="none" stroke="red" points="511.5,-457 511.5,-487 655.5,-487 655.5,-457 511.5,-457"/>
<text text-anchor="start" x="519.5" y="-475" font-family="Helvetica,sans-Serif" font-size="10.00">js_object_getOwnProperty</text>
<text text-anchor="middle" x="583.5" y="-464" font-family="Helvetica,sans-Serif" font-size="10.00">Descriptor</text>
</a>
</g>
</g>
<!-- Node610&#45;&gt;Node284 -->
<g id="edge25" class="edge">
<title>Node610&#45;&gt;Node284</title>
<path fill="none" stroke="midnightblue" d="M695.62,-457.45C682.75,-459.13 668.93,-460.94 655.56,-462.69"/>
<polygon fill="midnightblue" stroke="midnightblue" points="696.24,-460.9 705.7,-456.13 695.33,-453.96 696.24,-460.9"/>
</g>
<!-- Node312 -->
<g id="node18" class="node">
<title>Node312</title>
<g id="a_node18"><a xlink:href="quickjs_8c.html#ad61ef444b51b69a8a4cb9e3cac990c8d" target="_top" xlink:title=" ">
<polygon fill="none" stroke="black" points="510.5,-418.5 510.5,-437.5 656.5,-437.5 656.5,-418.5 510.5,-418.5"/>
<text text-anchor="middle" x="583.5" y="-425.5" font-family="Helvetica,sans-Serif" font-size="10.00">js_object_hasOwnProperty</text>
</a>
</g>
</g>
<!-- Node610&#45;&gt;Node312 -->
<g id="edge26" class="edge">
<title>Node610&#45;&gt;Node312</title>
<path fill="none" stroke="midnightblue" d="M695.43,-442.53C682.93,-440.89 669.53,-439.13 656.52,-437.43"/>
<polygon fill="midnightblue" stroke="midnightblue" points="695.33,-446.04 705.7,-443.87 696.24,-439.1 695.33,-446.04"/>
</g>
<!-- Node314 -->
<g id="node19" class="node">
<title>Node314</title>
<g id="a_node19"><a xlink:href="quickjs_8c.html#acc70b8dea6a26f839c651835b7104c92" target="_top" xlink:title=" ">
<polygon fill="none" stroke="black" points="497,-380.5 497,-399.5 670,-399.5 670,-380.5 497,-380.5"/>
<text text-anchor="middle" x="583.5" y="-387.5" font-family="Helvetica,sans-Serif" font-size="10.00">js_object_propertyIsEnumerable</text>
</a>
</g>
</g>
<!-- Node610&#45;&gt;Node314 -->
<g id="edge27" class="edge">
<title>Node610&#45;&gt;Node314</title>
<path fill="none" stroke="midnightblue" d="M727.52,-435.6C711.51,-426.87 690.04,-416.09 670,-409 659.53,-405.3 648.09,-402.16 637.07,-399.57"/>
<polygon fill="midnightblue" stroke="midnightblue" points="725.83,-438.66 736.27,-440.45 729.23,-432.54 725.83,-438.66"/>
</g>
<!-- Node305 -->
<g id="node20" class="node">
<title>Node305</title>
<g id="a_node20"><a xlink:href="quickjs_8c.html#a9b6302f1a5bc5d5d8f1951777433e516" target="_top" xlink:title=" ">
<polygon fill="none" stroke="black" points="530,-620.5 530,-639.5 637,-639.5 637,-620.5 530,-620.5"/>
<text text-anchor="middle" x="583.5" y="-627.5" font-family="Helvetica,sans-Serif" font-size="10.00">js_operator_delete</text>
</a>
</g>
</g>
<!-- Node610&#45;&gt;Node305 -->
<g id="edge28" class="edge">
<title>Node610&#45;&gt;Node305</title>
<path fill="none" stroke="midnightblue" d="M748.22,-469.58C739.67,-503.88 717.09,-574.61 670,-611 660.62,-618.25 649.01,-622.85 637.41,-625.74"/>
<polygon fill="midnightblue" stroke="midnightblue" points="751.64,-470.36 750.52,-459.82 744.82,-468.75 751.64,-470.36"/>
</g>
<!-- Node389 -->
<g id="node21" class="node">
<title>Node389</title>
<g id="a_node21"><a xlink:href="quickjs_8c.html#a3756e0f1dc63bd8e463e6d4febc6e503" target="_top" xlink:title=" ">
<polygon fill="none" stroke="black" points="540.5,-342.5 540.5,-361.5 626.5,-361.5 626.5,-342.5 540.5,-342.5"/>
<text text-anchor="middle" x="583.5" y="-349.5" font-family="Helvetica,sans-Serif" font-size="10.00">js_operator_in</text>
</a>
</g>
</g>
<!-- Node610&#45;&gt;Node389 -->
<g id="edge30" class="edge">
<title>Node610&#45;&gt;Node389</title>
<path fill="none" stroke="midnightblue" d="M739.11,-432.43C724.24,-414.2 698.55,-386.27 670,-371 656.73,-363.9 640.93,-359.45 626.55,-356.66"/>
<polygon fill="midnightblue" stroke="midnightblue" points="736.55,-434.83 745.5,-440.5 742.04,-430.49 736.55,-434.83"/>
</g>
<!-- Node611 -->
<g id="node22" class="node">
<title>Node611</title>
<g id="a_node22"><a xlink:href="quickjs_8c.html#a736435f0774c85e09f2817c97ec47bbf" target="_top" xlink:title=" ">
<polygon fill="none" stroke="red" points="522.5,-0.5 522.5,-19.5 644.5,-19.5 644.5,-0.5 522.5,-0.5"/>
<text text-anchor="middle" x="583.5" y="-7.5" font-family="Helvetica,sans-Serif" font-size="10.00">js_parse_from_clause</text>
</a>
</g>
</g>
<!-- Node610&#45;&gt;Node611 -->
<g id="edge32" class="edge">
<title>Node610&#45;&gt;Node611</title>
<path fill="none" stroke="midnightblue" d="M751.41,-430.07C746.88,-354.57 727,-87.46 670,-29 663.1,-21.92 654.19,-17.22 644.74,-14.13"/>
<polygon fill="midnightblue" stroke="midnightblue" points="747.92,-430.35 751.99,-440.13 754.91,-429.95 747.92,-430.35"/>
</g>
<!-- Node612 -->
<g id="node23" class="node">
<title>Node612</title>
<g id="a_node23"><a xlink:href="quickjs_8c.html#aa24f7964f6d938a05c3c3c03af5a01e9" target="_top" xlink:title=" ">
<polygon fill="none" stroke="red" points="366,-114.5 366,-133.5 461,-133.5 461,-114.5 366,-114.5"/>
<text text-anchor="middle" x="413.5" y="-121.5" font-family="Helvetica,sans-Serif" font-size="10.00">js_parse_import</text>
</a>
</g>
</g>
<!-- Node610&#45;&gt;Node612 -->
<g id="edge34" class="edge">
<title>Node610&#45;&gt;Node612</title>
<path fill="none" stroke="midnightblue" d="M749.71,-430.56C743.15,-392.23 723.08,-306.75 670,-262 609.43,-210.93 564.56,-260.39 497,-219 460.49,-196.63 431.53,-152.83 419.95,-133.52"/>
<polygon fill="midnightblue" stroke="midnightblue" points="746.25,-431.12 751.28,-440.45 753.17,-430.02 746.25,-431.12"/>
</g>
<!-- Node212 -->
<g id="node24" class="node">
<title>Node212</title>
<g id="a_node24"><a xlink:href="quickjs_8c.html#a42234753f3193f37ce45b3c0ca4c25cd" target="_top" xlink:title=" ">
<polygon fill="none" stroke="red" points="515,-190.5 515,-209.5 652,-209.5 652,-190.5 515,-190.5"/>
<text text-anchor="middle" x="583.5" y="-197.5" font-family="Helvetica,sans-Serif" font-size="10.00">js_parse_property_name</text>
</a>
</g>
</g>
<!-- Node610&#45;&gt;Node212 -->
<g id="edge35" class="edge">
<title>Node610&#45;&gt;Node212</title>
<path fill="none" stroke="midnightblue" d="M751.13,-429.91C747.04,-385.93 731.04,-280.54 670,-224 663.21,-217.71 654.91,-213.06 646.18,-209.61"/>
<polygon fill="midnightblue" stroke="midnightblue" points="747.67,-430.47 751.97,-440.15 754.64,-429.9 747.67,-430.47"/>
</g>
<!-- Node307 -->
<g id="node25" class="node">
<title>Node307</title>
<g id="a_node25"><a xlink:href="quickjs_8c.html#ae9c76f2d0eacc35d9df11d9f81039cde" target="_top" xlink:title=" ">
<polygon fill="none" stroke="black" points="514.5,-152.5 514.5,-171.5 652.5,-171.5 652.5,-152.5 514.5,-152.5"/>
<text text-anchor="middle" x="583.5" y="-159.5" font-family="Helvetica,sans-Serif" font-size="10.00">js_reflect_deleteProperty</text>
</a>
</g>
</g>
<!-- Node610&#45;&gt;Node307 -->
<g id="edge37" class="edge">
<title>Node610&#45;&gt;Node307</title>
<path fill="none" stroke="midnightblue" d="M752.74,-430.34C752.21,-380.61 743.56,-248.97 670,-181 664.97,-176.36 659.07,-172.76 652.76,-169.98"/>
<polygon fill="midnightblue" stroke="midnightblue" points="749.24,-430.4 752.74,-440.4 756.24,-430.4 749.24,-430.4"/>
</g>
<!-- Node593 -->
<g id="node26" class="node">
<title>Node593</title>
<g id="a_node26"><a xlink:href="quickjs_8c.html#a6730c3163c357445c0182c52d5a53ca4" target="_top" xlink:title=" ">
<polygon fill="none" stroke="black" points="542.5,-114.5 542.5,-133.5 624.5,-133.5 624.5,-114.5 542.5,-114.5"/>
<text text-anchor="middle" x="583.5" y="-121.5" font-family="Helvetica,sans-Serif" font-size="10.00">js_reflect_get</text>
</a>
</g>
</g>
<!-- Node610&#45;&gt;Node593 -->
<g id="edge38" class="edge">
<title>Node610&#45;&gt;Node593</title>
<path fill="none" stroke="midnightblue" d="M749.87,-430.18C741.32,-368.81 712.42,-183.6 670,-143 658.03,-131.54 640.75,-126.39 624.85,-124.26"/>
<polygon fill="midnightblue" stroke="midnightblue" points="746.45,-431 751.26,-440.43 753.38,-430.05 746.45,-431"/>
</g>
<!-- Node391 -->
<g id="node27" class="node">
<title>Node391</title>
<g id="a_node27"><a xlink:href="quickjs_8c.html#ab34237416a7483c22a564155a240224b" target="_top" xlink:title=" ">
<polygon fill="none" stroke="black" points="542,-76.5 542,-95.5 625,-95.5 625,-76.5 542,-76.5"/>
<text text-anchor="middle" x="583.5" y="-83.5" font-family="Helvetica,sans-Serif" font-size="10.00">js_reflect_has</text>
</a>
</g>
</g>
<!-- Node610&#45;&gt;Node391 -->
<g id="edge39" class="edge">
<title>Node610&#45;&gt;Node391</title>
<path fill="none" stroke="midnightblue" d="M750.47,-429.94C743.33,-363.38 717.21,-151.45 670,-105 658.19,-93.37 640.93,-88.2 625.01,-86.1"/>
<polygon fill="midnightblue" stroke="midnightblue" points="747.03,-430.71 751.55,-440.29 753.99,-429.98 747.03,-430.71"/>
</g>
<!-- Node126 -->
<g id="node28" class="node">
<title>Node126</title>
<g id="a_node28"><a xlink:href="quickjs_8c.html#af047bcc4352c7d76f5e85bb5985bcd97" target="_top" xlink:title=" ">
<polygon fill="none" stroke="black" points="543,-38.5 543,-57.5 624,-57.5 624,-38.5 543,-38.5"/>
<text text-anchor="middle" x="583.5" y="-45.5" font-family="Helvetica,sans-Serif" font-size="10.00">js_reflect_set</text>
</a>
</g>
</g>
<!-- Node610&#45;&gt;Node126 -->
<g id="edge40" class="edge">
<title>Node610&#45;&gt;Node126</title>
<path fill="none" stroke="midnightblue" d="M750.99,-430.08C745.21,-359.02 722.11,-119.45 670,-67 658.1,-55.03 640.45,-49.86 624.27,-47.86"/>
<polygon fill="midnightblue" stroke="midnightblue" points="747.52,-430.62 751.8,-440.32 754.5,-430.07 747.52,-430.62"/>
</g>
<!-- Node160 -->
<g id="node29" class="node">
<title>Node160</title>
<g id="a_node29"><a xlink:href="quickjs_8c.html#aee75cc1546e19479e3ccda58f3b50a96" target="_top" xlink:title=" ">
<polygon fill="none" stroke="red" points="526,-304.5 526,-323.5 641,-323.5 641,-304.5 526,-304.5"/>
<text text-anchor="middle" x="583.5" y="-311.5" font-family="Helvetica,sans-Serif" font-size="10.00">JS_SetPropertyValue</text>
</a>
</g>
</g>
<!-- Node610&#45;&gt;Node160 -->
<g id="edge41" class="edge">
<title>Node610&#45;&gt;Node160</title>
<path fill="none" stroke="midnightblue" d="M744.51,-431.01C732.42,-404.68 706.89,-357.57 670,-333 661.39,-327.27 651.33,-323.24 641.18,-320.42"/>
<polygon fill="midnightblue" stroke="midnightblue" points="741.37,-432.56 748.61,-440.29 747.77,-429.73 741.37,-432.56"/>
</g>
<!-- Node261 -->
<g id="node30" class="node">
<title>Node261</title>
<g id="a_node30"><a xlink:href="quickjs_8c.html#a756c1ab5dee9a6dd07723d7a075e2a53" target="_top" xlink:title=" ">
<polygon fill="none" stroke="red" points="533,-848.5 533,-867.5 634,-867.5 634,-848.5 533,-848.5"/>
<text text-anchor="middle" x="583.5" y="-855.5" font-family="Helvetica,sans-Serif" font-size="10.00">json_parse_value</text>
</a>
</g>
</g>
<!-- Node610&#45;&gt;Node261 -->
<g id="edge43" class="edge">
<title>Node610&#45;&gt;Node261</title>
<path fill="none" stroke="midnightblue" d="M750.9,-469.88C744.8,-540.79 720.76,-779.99 670,-834 660.6,-844 647.41,-849.95 634.19,-853.45"/>
<polygon fill="midnightblue" stroke="midnightblue" points="754.41,-469.92 751.75,-459.66 747.43,-469.33 754.41,-469.92"/>
</g>
<!-- Node234&#45;&gt;Node2 -->
<g id="edge17" class="edge">
<title>Node234&#45;&gt;Node2</title>
<path fill="none" stroke="midnightblue" d="M508.6,-768.84C504.57,-767.13 500.67,-765.19 497,-763 460.22,-741.09 431.4,-697.04 419.91,-677.6"/>
<polygon fill="midnightblue" stroke="midnightblue" points="507.61,-772.2 518.2,-772.45 510.07,-765.65 507.61,-772.2"/>
</g>
<!-- Node243&#45;&gt;Node2 -->
<g id="edge19" class="edge">
<title>Node243&#45;&gt;Node2</title>
<path fill="none" stroke="midnightblue" d="M529.34,-694.25C518.63,-691.87 507.45,-689.36 497,-687 483.52,-683.95 468.82,-680.58 455.61,-677.53"/>
<polygon fill="midnightblue" stroke="midnightblue" points="528.91,-697.74 539.43,-696.5 530.43,-690.91 528.91,-697.74"/>
</g>
<!-- Node375&#45;&gt;Node2 -->
<g id="edge21" class="edge">
<title>Node375&#45;&gt;Node2</title>
<path fill="none" stroke="midnightblue" d="M515.04,-668C495.45,-668 474.6,-668 457,-668"/>
<polygon fill="midnightblue" stroke="midnightblue" points="515.15,-671.5 525.15,-668 515.15,-664.5 515.15,-671.5"/>
</g>
<!-- Node305&#45;&gt;Node2 -->
<g id="edge29" class="edge">
<title>Node305&#45;&gt;Node2</title>
<path fill="none" stroke="midnightblue" d="M529.34,-641.75C518.63,-644.13 507.45,-646.64 497,-649 483.52,-652.05 468.82,-655.42 455.61,-658.47"/>
<polygon fill="midnightblue" stroke="midnightblue" points="530.43,-645.09 539.43,-639.5 528.91,-638.26 530.43,-645.09"/>
</g>
<!-- Node389&#45;&gt;Node2 -->
<g id="edge31" class="edge">
<title>Node389&#45;&gt;Node2</title>
<path fill="none" stroke="midnightblue" d="M530.61,-354.42C518.32,-357.28 506.14,-362.33 497,-371 453.14,-412.63 422.42,-612.23 415.83,-658.43"/>
<polygon fill="midnightblue" stroke="midnightblue" points="531.26,-357.85 540.44,-352.56 529.96,-350.98 531.26,-357.85"/>
</g>
<!-- Node611&#45;&gt;Node612 -->
<g id="edge33" class="edge">
<title>Node611&#45;&gt;Node612</title>
<path fill="none" stroke="midnightblue" d="M512.4,-21.62C507.02,-23.69 501.82,-26.13 497,-29 460.22,-50.91 431.4,-94.96 419.91,-114.4"/>
<polygon fill="midnightblue" stroke="midnightblue" points="513.88,-24.82 522.22,-18.28 511.63,-18.19 513.88,-24.82"/>
</g>
<!-- Node160&#45;&gt;Node2 -->
<g id="edge42" class="edge">
<title>Node160&#45;&gt;Node2</title>
<path fill="none" stroke="midnightblue" d="M515.86,-320.87C508.88,-323.8 502.38,-327.74 497,-333 448.28,-380.63 421,-608.17 415.53,-658.24"/>
<polygon fill="midnightblue" stroke="midnightblue" points="517.33,-324.07 525.62,-317.48 515.02,-317.46 517.33,-324.07"/>
</g>
<!-- Node261&#45;&gt;Node261 -->
<g id="edge44" class="edge">
<title>Node261&#45;&gt;Node261</title>
<path fill="none" stroke="midnightblue" d="M615.31,-876.27C614.4,-881.74 603.8,-886 583.5,-886 553.29,-886 544.55,-876.57 557.3,-867.76"/>
<polygon fill="midnightblue" stroke="midnightblue" points="618.13,-874.18 609.7,-867.76 612.28,-878.03 618.13,-874.18"/>
</g>
</g>
</svg>
