<?xml version="1.0" encoding="UTF-8" standalone="no"?>
<!DOCTYPE svg PUBLIC "-//W3C//DTD SVG 1.1//EN"
 "http://www.w3.org/Graphics/SVG/1.1/DTD/svg11.dtd">
<!-- Generated by graphviz version 2.43.0 (0)
 -->
<!-- Title: js_proxy_isArray Pages: 1 -->
<!--zoomable 567 -->
<svg id="main" version="1.1" xmlns="http://www.w3.org/2000/svg" xmlns:xlink="http://www.w3.org/1999/xlink" xml:space="preserve" onload="init(evt)">
<style type="text/css"><![CDATA[
.edge:hover path { stroke: red; }
.edge:hover polygon { stroke: red; fill: red; }
]]></style>
<script type="text/javascript"><![CDATA[
var edges = document.getElementsByTagName('g');
if (edges && edges.length) {
  for (var i=0;i<edges.length;i++) {
    if (edges[i].id.substr(0,4)=='edge') {
      edges[i].setAttribute('class','edge');
    }
  }
}
]]></script>
        <defs>
                <circle id="rim" cx="0" cy="0" r="7"/>
                <circle id="rim2" cx="0" cy="0" r="3.5"/>
                <g id="zoomPlus">
                        <use xlink:href="#rim" fill="#404040">
                                <set attributeName="fill" to="#808080" begin="zoomplus.mouseover" end="zoomplus.mouseout"/>
                        </use>
                        <path d="M-4,0h8M0,-4v8" fill="none" stroke="white" stroke-width="1.5" pointer-events="none"/>
                </g>
                <g id="zoomMin">
                        <use xlink:href="#rim" fill="#404040">
                                <set attributeName="fill" to="#808080" begin="zoomminus.mouseover" end="zoomminus.mouseout"/>
                        </use>
                        <path d="M-4,0h8" fill="none" stroke="white" stroke-width="1.5" pointer-events="none"/>
                </g>
                <g id="dirArrow">
                        <path fill="none" stroke="white" stroke-width="1.5" d="M0,-3.0v7 M-2.5,-0.5L0,-3.0L2.5,-0.5"/>
                </g>
               <g id="resetDef">
                       <use xlink:href="#rim2" fill="#404040">
                               <set attributeName="fill" to="#808080" begin="reset.mouseover" end="reset.mouseout"/>
                       </use>
               </g>
        </defs>

<script type="text/javascript">
var viewWidth = 518;
var viewHeight = 567;
var sectionId = 'dynsection-50';
</script>
<script xlink:href="svgpan.js"/>
<svg id="graph" class="graph">
<g id="viewport">
<title>js_proxy_isArray</title>
<!-- Node1 -->
<g id="node1" class="node">
<title>Node1</title>
<g id="a_node1"><a xlink:title=" ">
<polygon fill="#bfbfbf" stroke="black" points="412,-263.5 412,-282.5 510,-282.5 510,-263.5 412,-263.5"/>
<text text-anchor="middle" x="461" y="-270.5" font-family="Helvetica,sans-Serif" font-size="10.00">js_proxy_isArray</text>
</a>
</g>
</g>
<!-- Node2 -->
<g id="node2" class="node">
<title>Node2</title>
<g id="a_node2"><a xlink:href="quickjs_8c.html#a1fc2c29e89230a9792fd36ae50b270e4" target="_top" xlink:title=" ">
<polygon fill="none" stroke="black" points="311,-263.5 311,-282.5 376,-282.5 376,-263.5 311,-263.5"/>
<text text-anchor="middle" x="343.5" y="-270.5" font-family="Helvetica,sans-Serif" font-size="10.00">JS_IsArray</text>
</a>
</g>
</g>
<!-- Node1&#45;&gt;Node2 -->
<g id="edge1" class="edge">
<title>Node1&#45;&gt;Node2</title>
<path fill="none" stroke="midnightblue" d="M401.48,-273C392.76,-273 384.06,-273 376.18,-273"/>
<polygon fill="midnightblue" stroke="midnightblue" points="401.69,-276.5 411.69,-273 401.69,-269.5 401.69,-276.5"/>
</g>
<!-- Node3 -->
<g id="node3" class="node">
<title>Node3</title>
<g id="a_node3"><a xlink:href="quickjs_8c.html#a624282391413d4c5a030adbd8b77aa80" target="_top" xlink:title=" ">
<polygon fill="none" stroke="black" points="135,-521.5 135,-540.5 275,-540.5 275,-521.5 135,-521.5"/>
<text text-anchor="middle" x="205" y="-528.5" font-family="Helvetica,sans-Serif" font-size="10.00">internalize_json_property</text>
</a>
</g>
</g>
<!-- Node2&#45;&gt;Node3 -->
<g id="edge2" class="edge">
<title>Node2&#45;&gt;Node3</title>
<path fill="none" stroke="midnightblue" d="M343.01,-292.92C343.03,-338.45 336.47,-450.93 275,-512 271.12,-515.85 266.54,-518.94 261.61,-521.42"/>
<polygon fill="midnightblue" stroke="midnightblue" points="346.5,-292.81 342.89,-282.86 339.5,-292.9 346.5,-292.81"/>
</g>
<!-- Node5 -->
<g id="node5" class="node">
<title>Node5</title>
<g id="a_node5"><a xlink:href="structqjs_1_1js__traits_3_01std_1_1variant_3_01Ts_8_8_8_01_4_01_4.html#aab1e9e5434b52ebdfd0acacddefc47c1" target="_top" xlink:title=" ">
<polygon fill="none" stroke="black" points="150,-461.5 150,-502.5 260,-502.5 260,-461.5 150,-461.5"/>
<text text-anchor="start" x="158" y="-490.5" font-family="Helvetica,sans-Serif" font-size="10.00">qjs::js_traits&lt; std</text>
<text text-anchor="start" x="158" y="-479.5" font-family="Helvetica,sans-Serif" font-size="10.00">::variant&lt; Ts... &gt; &gt;</text>
<text text-anchor="middle" x="205" y="-468.5" font-family="Helvetica,sans-Serif" font-size="10.00">::isCompatible</text>
</a>
</g>
</g>
<!-- Node2&#45;&gt;Node5 -->
<g id="edge5" class="edge">
<title>Node2&#45;&gt;Node5</title>
<path fill="none" stroke="midnightblue" d="M340.14,-292.7C334.83,-328.78 318.8,-405.98 275,-452 270.68,-456.54 265.55,-460.44 260.07,-463.76"/>
<polygon fill="midnightblue" stroke="midnightblue" points="343.64,-292.9 341.51,-282.53 336.7,-291.97 343.64,-292.9"/>
</g>
<!-- Node6 -->
<g id="node6" class="node">
<title>Node6</title>
<g id="a_node6"><a xlink:href="quickjs_8c.html#a4f1b84557871cd95dd21e469e2b38efb" target="_top" xlink:title=" ">
<polygon fill="none" stroke="black" points="157.5,-423.5 157.5,-442.5 252.5,-442.5 252.5,-423.5 157.5,-423.5"/>
<text text-anchor="middle" x="205" y="-430.5" font-family="Helvetica,sans-Serif" font-size="10.00">js_array_isArray</text>
</a>
</g>
</g>
<!-- Node2&#45;&gt;Node6 -->
<g id="edge6" class="edge">
<title>Node2&#45;&gt;Node6</title>
<path fill="none" stroke="midnightblue" d="M338.62,-292.41C331.49,-322.91 313.38,-381.9 275,-414 268.61,-419.34 260.84,-423.19 252.85,-425.96"/>
<polygon fill="midnightblue" stroke="midnightblue" points="342.05,-293.07 340.76,-282.56 335.21,-291.58 342.05,-293.07"/>
</g>
<!-- Node7 -->
<g id="node7" class="node">
<title>Node7</title>
<g id="a_node7"><a xlink:href="quickjs_8c.html#a3b818b1ca9d2d4aaa9b55b1cc54c1bc4" target="_top" xlink:title=" ">
<polygon fill="none" stroke="black" points="141.5,-347.5 141.5,-366.5 268.5,-366.5 268.5,-347.5 141.5,-347.5"/>
<text text-anchor="middle" x="205" y="-354.5" font-family="Helvetica,sans-Serif" font-size="10.00">JS_ArraySpeciesCreate</text>
</a>
</g>
</g>
<!-- Node2&#45;&gt;Node7 -->
<g id="edge7" class="edge">
<title>Node2&#45;&gt;Node7</title>
<path fill="none" stroke="midnightblue" d="M328.39,-290.86C315.86,-305.56 296.27,-325.89 275,-338 268.2,-341.87 260.56,-344.99 252.92,-347.49"/>
<polygon fill="midnightblue" stroke="midnightblue" points="331.25,-292.89 334.91,-282.95 325.85,-288.44 331.25,-292.89"/>
</g>
<!-- Node12 -->
<g id="node12" class="node">
<title>Node12</title>
<g id="a_node12"><a xlink:href="quickjs_8c.html#ad90c33b4aae1181151bda4a98ac2ef23" target="_top" xlink:title=" ">
<polygon fill="none" stroke="black" points="150,-291.5 150,-310.5 260,-310.5 260,-291.5 150,-291.5"/>
<text text-anchor="middle" x="205" y="-298.5" font-family="Helvetica,sans-Serif" font-size="10.00">JS_FlattenIntoArray</text>
</a>
</g>
</g>
<!-- Node2&#45;&gt;Node12 -->
<g id="edge12" class="edge">
<title>Node2&#45;&gt;Node12</title>
<path fill="none" stroke="midnightblue" d="M300.67,-281.58C285.43,-284.71 268.12,-288.26 252.5,-291.46"/>
<polygon fill="midnightblue" stroke="midnightblue" points="301.75,-284.93 310.84,-279.49 300.34,-278.08 301.75,-284.93"/>
</g>
<!-- Node13 -->
<g id="node13" class="node">
<title>Node13</title>
<g id="a_node13"><a xlink:href="quickjs_8c.html#a8c41d5cf05e42294d414a1ac8b069874" target="_top" xlink:title=" ">
<polygon fill="none" stroke="black" points="141,-385.5 141,-404.5 269,-404.5 269,-385.5 141,-385.5"/>
<text text-anchor="middle" x="205" y="-392.5" font-family="Helvetica,sans-Serif" font-size="10.00">JS_isConcatSpreadable</text>
</a>
</g>
</g>
<!-- Node2&#45;&gt;Node13 -->
<g id="edge15" class="edge">
<title>Node2&#45;&gt;Node13</title>
<path fill="none" stroke="midnightblue" d="M335.01,-292.12C324.9,-315.43 304.67,-354.38 275,-376 269.68,-379.88 263.6,-382.96 257.31,-385.42"/>
<polygon fill="midnightblue" stroke="midnightblue" points="338.35,-293.2 338.94,-282.63 331.88,-290.53 338.35,-293.2"/>
</g>
<!-- Node14 -->
<g id="node14" class="node">
<title>Node14</title>
<g id="a_node14"><a xlink:href="quickjs_8c.html#a60d84dd116a9d7d912d08f298a4734dd" target="_top" xlink:title=" ">
<polygon fill="none" stroke="black" points="163.5,-235.5 163.5,-254.5 246.5,-254.5 246.5,-235.5 163.5,-235.5"/>
<text text-anchor="middle" x="205" y="-242.5" font-family="Helvetica,sans-Serif" font-size="10.00">js_json_to_str</text>
</a>
</g>
</g>
<!-- Node2&#45;&gt;Node14 -->
<g id="edge17" class="edge">
<title>Node2&#45;&gt;Node14</title>
<path fill="none" stroke="midnightblue" d="M301.02,-264.49C283.74,-260.95 263.74,-256.84 246.56,-253.32"/>
<polygon fill="midnightblue" stroke="midnightblue" points="300.34,-267.92 310.84,-266.51 301.75,-261.07 300.34,-267.92"/>
</g>
<!-- Node15 -->
<g id="node15" class="node">
<title>Node15</title>
<g id="a_node15"><a xlink:href="quickjs_8c.html#a343a343b16bc3c9875050e99ee0d2884" target="_top" xlink:title=" ">
<polygon fill="none" stroke="red" points="2,-225.5 2,-244.5 97,-244.5 97,-225.5 2,-225.5"/>
<text text-anchor="middle" x="49.5" y="-232.5" font-family="Helvetica,sans-Serif" font-size="10.00">JS_JSONStringify</text>
</a>
</g>
</g>
<!-- Node2&#45;&gt;Node15 -->
<g id="edge20" class="edge">
<title>Node2&#45;&gt;Node15</title>
<path fill="none" stroke="midnightblue" d="M325.08,-256.35C312.33,-245.38 294,-231.96 275,-226 212.85,-206.49 136.25,-216.27 90.5,-225.42"/>
<polygon fill="midnightblue" stroke="midnightblue" points="322.83,-259.03 332.61,-263.11 327.51,-253.83 322.83,-259.03"/>
</g>
<!-- Node17 -->
<g id="node16" class="node">
<title>Node17</title>
<g id="a_node16"><a xlink:href="quickjs_8c.html#ae69c38078aefed427b6c0d7b6870bd9c" target="_top" xlink:title=" ">
<polygon fill="none" stroke="black" points="153,-159.5 153,-178.5 257,-178.5 257,-159.5 153,-159.5"/>
<text text-anchor="middle" x="205" y="-166.5" font-family="Helvetica,sans-Serif" font-size="10.00">js_object_toString</text>
</a>
</g>
</g>
<!-- Node2&#45;&gt;Node17 -->
<g id="edge21" class="edge">
<title>Node2&#45;&gt;Node17</title>
<path fill="none" stroke="midnightblue" d="M331.46,-254.96C319.58,-236.93 299.1,-209.57 275,-193 266.01,-186.82 255.28,-182.08 244.98,-178.52"/>
<polygon fill="midnightblue" stroke="midnightblue" points="328.54,-256.88 336.87,-263.43 334.44,-253.11 328.54,-256.88"/>
</g>
<!-- Node19 -->
<g id="node18" class="node">
<title>Node19</title>
<g id="a_node18"><a xlink:href="structqjs_1_1js__traits_3_01std_1_1vector_3_01T_01_4_01_4.html#a9381fc53f1eaf830b702453ca29655f2" target="_top" xlink:title=" ">
<polygon fill="none" stroke="black" points="137.5,-110 137.5,-140 272.5,-140 272.5,-110 137.5,-110"/>
<text text-anchor="start" x="145.5" y="-128" font-family="Helvetica,sans-Serif" font-size="10.00">qjs::js_traits&lt; std</text>
<text text-anchor="middle" x="205" y="-117" font-family="Helvetica,sans-Serif" font-size="10.00">::vector&lt; T &gt; &gt;::unwrap</text>
</a>
</g>
</g>
<!-- Node2&#45;&gt;Node19 -->
<g id="edge23" class="edge">
<title>Node2&#45;&gt;Node19</title>
<path fill="none" stroke="midnightblue" d="M336.62,-253.35C327.6,-226.4 307.85,-178.13 275,-150 270.55,-146.19 265.47,-142.94 260.13,-140.17"/>
<polygon fill="midnightblue" stroke="midnightblue" points="333.38,-254.7 339.75,-263.16 340.05,-252.57 333.38,-254.7"/>
</g>
<!-- Node20 -->
<g id="node19" class="node">
<title>Node20</title>
<g id="a_node19"><a xlink:href="structqjs_1_1js__traits_3_01std_1_1pair_3_01U_00_01V_01_4_01_4.html#a3dc772998ef0f739b13e7ed8c3d5ac5f" target="_top" xlink:title=" ">
<polygon fill="none" stroke="black" points="136.5,-61 136.5,-91 273.5,-91 273.5,-61 136.5,-61"/>
<text text-anchor="start" x="144.5" y="-79" font-family="Helvetica,sans-Serif" font-size="10.00">qjs::js_traits&lt; std</text>
<text text-anchor="middle" x="205" y="-68" font-family="Helvetica,sans-Serif" font-size="10.00">::pair&lt; U, V &gt; &gt;::unwrap</text>
</a>
</g>
</g>
<!-- Node2&#45;&gt;Node20 -->
<g id="edge24" class="edge">
<title>Node2&#45;&gt;Node20</title>
<path fill="none" stroke="midnightblue" d="M340.18,-253.13C334.99,-217.52 319.21,-142.59 275,-100 271.44,-96.57 267.36,-93.62 263.01,-91.1"/>
<polygon fill="midnightblue" stroke="midnightblue" points="336.74,-253.76 341.52,-263.22 343.68,-252.85 336.74,-253.76"/>
</g>
<!-- Node21 -->
<g id="node20" class="node">
<title>Node21</title>
<g id="a_node20"><a xlink:href="structqjs_1_1js__traits_3_01std_1_1variant_3_01Ts_8_8_8_01_4_01_4.html#ad0acc455e15176f5fe805689db94930b" target="_top" xlink:title="Attempt to match class ID with type.">
<polygon fill="none" stroke="black" points="150,-0.5 150,-41.5 260,-41.5 260,-0.5 150,-0.5"/>
<text text-anchor="start" x="158" y="-29.5" font-family="Helvetica,sans-Serif" font-size="10.00">qjs::js_traits&lt; std</text>
<text text-anchor="start" x="158" y="-18.5" font-family="Helvetica,sans-Serif" font-size="10.00">::variant&lt; Ts... &gt; &gt;</text>
<text text-anchor="middle" x="205" y="-7.5" font-family="Helvetica,sans-Serif" font-size="10.00">::unwrapObj</text>
</a>
</g>
</g>
<!-- Node2&#45;&gt;Node21 -->
<g id="edge25" class="edge">
<title>Node2&#45;&gt;Node21</title>
<path fill="none" stroke="midnightblue" d="M341.84,-253.06C339.41,-210.64 328.03,-110.5 275,-51 270.74,-46.22 265.59,-42.17 260.03,-38.75"/>
<polygon fill="midnightblue" stroke="midnightblue" points="338.35,-253.36 342.31,-263.19 345.35,-253.04 338.35,-253.36"/>
</g>
<!-- Node3&#45;&gt;Node3 -->
<g id="edge3" class="edge">
<title>Node3&#45;&gt;Node3</title>
<path fill="none" stroke="midnightblue" d="M230.67,-550.03C229.27,-555.13 220.71,-559 205,-559 180.47,-559 173.38,-549.57 183.73,-540.76"/>
<polygon fill="midnightblue" stroke="midnightblue" points="233.72,-548.29 226.27,-540.76 227.39,-551.29 233.72,-548.29"/>
</g>
<!-- Node4 -->
<g id="node4" class="node">
<title>Node4</title>
<g id="a_node4"><a xlink:href="quickjs_8c.html#a8d95b2b91f50339b621237ad13f9cc47" target="_top" xlink:title=" ">
<polygon fill="none" stroke="black" points="8,-521.5 8,-540.5 91,-540.5 91,-521.5 8,-521.5"/>
<text text-anchor="middle" x="49.5" y="-528.5" font-family="Helvetica,sans-Serif" font-size="10.00">js_json_parse</text>
</a>
</g>
</g>
<!-- Node3&#45;&gt;Node4 -->
<g id="edge4" class="edge">
<title>Node3&#45;&gt;Node4</title>
<path fill="none" stroke="midnightblue" d="M124.68,-531C113.07,-531 101.53,-531 91.13,-531"/>
<polygon fill="midnightblue" stroke="midnightblue" points="124.88,-534.5 134.88,-531 124.88,-527.5 124.88,-534.5"/>
</g>
<!-- Node8 -->
<g id="node8" class="node">
<title>Node8</title>
<g id="a_node8"><a xlink:href="quickjs_8c.html#aaa85fa359f7aa8985f0299147272adef" target="_top" xlink:title=" ">
<polygon fill="none" stroke="black" points="3,-395.5 3,-414.5 96,-414.5 96,-395.5 3,-395.5"/>
<text text-anchor="middle" x="49.5" y="-402.5" font-family="Helvetica,sans-Serif" font-size="10.00">js_array_concat</text>
</a>
</g>
</g>
<!-- Node7&#45;&gt;Node8 -->
<g id="edge8" class="edge">
<title>Node7&#45;&gt;Node8</title>
<path fill="none" stroke="midnightblue" d="M157.82,-369.29C150.17,-371.45 142.35,-373.73 135,-376 115.44,-382.04 93.58,-389.56 77,-395.43"/>
<polygon fill="midnightblue" stroke="midnightblue" points="159.01,-372.59 167.71,-366.54 157.14,-365.85 159.01,-372.59"/>
</g>
<!-- Node9 -->
<g id="node9" class="node">
<title>Node9</title>
<g id="a_node9"><a xlink:href="quickjs_8c.html#aa0bbf08a7e91459c68a312fba7016c6d" target="_top" xlink:title=" ">
<polygon fill="none" stroke="black" points="5,-357.5 5,-376.5 94,-376.5 94,-357.5 5,-357.5"/>
<text text-anchor="middle" x="49.5" y="-364.5" font-family="Helvetica,sans-Serif" font-size="10.00">js_array_every</text>
</a>
</g>
</g>
<!-- Node7&#45;&gt;Node9 -->
<g id="edge9" class="edge">
<title>Node7&#45;&gt;Node9</title>
<path fill="none" stroke="midnightblue" d="M131.09,-361.75C118.5,-362.57 105.78,-363.4 94.28,-364.15"/>
<polygon fill="midnightblue" stroke="midnightblue" points="131.37,-365.24 141.12,-361.1 130.92,-358.25 131.37,-365.24"/>
</g>
<!-- Node10 -->
<g id="node10" class="node">
<title>Node10</title>
<g id="a_node10"><a xlink:href="quickjs_8c.html#a12e173fe76ae1141ef47318f9d0cbea7" target="_top" xlink:title=" ">
<polygon fill="none" stroke="black" points="3.5,-281.5 3.5,-300.5 95.5,-300.5 95.5,-281.5 3.5,-281.5"/>
<text text-anchor="middle" x="49.5" y="-288.5" font-family="Helvetica,sans-Serif" font-size="10.00">js_array_flatten</text>
</a>
</g>
</g>
<!-- Node7&#45;&gt;Node10 -->
<g id="edge10" class="edge">
<title>Node7&#45;&gt;Node10</title>
<path fill="none" stroke="midnightblue" d="M149.54,-344.2C144.52,-342.37 139.6,-340.31 135,-338 116.88,-328.91 116.62,-320.02 99,-310 92.71,-306.42 85.62,-303.23 78.83,-300.52"/>
<polygon fill="midnightblue" stroke="midnightblue" points="148.64,-347.59 159.24,-347.44 150.86,-340.95 148.64,-347.59"/>
</g>
<!-- Node11 -->
<g id="node11" class="node">
<title>Node11</title>
<g id="a_node11"><a xlink:href="quickjs_8c.html#a70b7ec8358ab99b905686d5bf80950cc" target="_top" xlink:title=" ">
<polygon fill="none" stroke="black" points="8,-319.5 8,-338.5 91,-338.5 91,-319.5 8,-319.5"/>
<text text-anchor="middle" x="49.5" y="-326.5" font-family="Helvetica,sans-Serif" font-size="10.00">js_array_slice</text>
</a>
</g>
</g>
<!-- Node7&#45;&gt;Node11 -->
<g id="edge11" class="edge">
<title>Node7&#45;&gt;Node11</title>
<path fill="none" stroke="midnightblue" d="M141.69,-345.63C124.61,-342.52 106.54,-339.22 91.03,-336.39"/>
<polygon fill="midnightblue" stroke="midnightblue" points="141.14,-349.09 151.6,-347.44 142.39,-342.2 141.14,-349.09"/>
</g>
<!-- Node12&#45;&gt;Node10 -->
<g id="edge13" class="edge">
<title>Node12&#45;&gt;Node10</title>
<path fill="none" stroke="midnightblue" d="M139.72,-296.81C124.85,-295.84 109.35,-294.83 95.51,-293.93"/>
<polygon fill="midnightblue" stroke="midnightblue" points="139.68,-300.32 149.88,-297.47 140.13,-293.33 139.68,-300.32"/>
</g>
<!-- Node12&#45;&gt;Node12 -->
<g id="edge14" class="edge">
<title>Node12&#45;&gt;Node12</title>
<path fill="none" stroke="midnightblue" d="M230.67,-320.03C229.27,-325.13 220.71,-329 205,-329 180.47,-329 173.38,-319.57 183.73,-310.76"/>
<polygon fill="midnightblue" stroke="midnightblue" points="233.72,-318.29 226.27,-310.76 227.39,-321.29 233.72,-318.29"/>
</g>
<!-- Node13&#45;&gt;Node8 -->
<g id="edge16" class="edge">
<title>Node13&#45;&gt;Node8</title>
<path fill="none" stroke="midnightblue" d="M130.5,-399.79C118.85,-400.55 107.1,-401.31 96.33,-402.01"/>
<polygon fill="midnightblue" stroke="midnightblue" points="130.93,-403.27 140.68,-399.13 130.47,-396.28 130.93,-403.27"/>
</g>
<!-- Node14&#45;&gt;Node14 -->
<g id="edge18" class="edge">
<title>Node14&#45;&gt;Node14</title>
<path fill="none" stroke="midnightblue" d="M230.67,-264.03C229.27,-269.13 220.71,-273 205,-273 180.47,-273 173.38,-263.57 183.73,-254.76"/>
<polygon fill="midnightblue" stroke="midnightblue" points="233.72,-262.29 226.27,-254.76 227.39,-265.29 233.72,-262.29"/>
</g>
<!-- Node14&#45;&gt;Node15 -->
<g id="edge19" class="edge">
<title>Node14&#45;&gt;Node15</title>
<path fill="none" stroke="midnightblue" d="M153.19,-241.69C135.11,-240.51 114.85,-239.19 97.13,-238.04"/>
<polygon fill="midnightblue" stroke="midnightblue" points="153.06,-245.19 163.27,-242.35 153.52,-238.2 153.06,-245.19"/>
</g>
<!-- Node18 -->
<g id="node17" class="node">
<title>Node18</title>
<g id="a_node17"><a xlink:href="quickjs_8c.html#a2b86c3fdfa95b86030c1cbbc5f0ba0f5" target="_top" xlink:title=" ">
<polygon fill="none" stroke="black" points="0,-159.5 0,-178.5 99,-178.5 99,-159.5 0,-159.5"/>
<text text-anchor="middle" x="49.5" y="-166.5" font-family="Helvetica,sans-Serif" font-size="10.00">js_array_toString</text>
</a>
</g>
</g>
<!-- Node17&#45;&gt;Node18 -->
<g id="edge22" class="edge">
<title>Node17&#45;&gt;Node18</title>
<path fill="none" stroke="midnightblue" d="M142.52,-169C128.06,-169 112.85,-169 99.05,-169"/>
<polygon fill="midnightblue" stroke="midnightblue" points="142.89,-172.5 152.89,-169 142.89,-165.5 142.89,-172.5"/>
</g>
</g>
</svg>
        <g id="navigator" transform="translate(0 0)" fill="#404254">
                <rect fill="#f2f5e9" fill-opacity="0.5" stroke="#606060" stroke-width=".5" x="0" y="0" width="60" height="60"/>
                <use id="zoomplus" xlink:href="#zoomPlus" x="17" y="9" onmousedown="handleZoom(evt,'in')"/>
                <use id="zoomminus" xlink:href="#zoomMin" x="42" y="9" onmousedown="handleZoom(evt,'out')"/>
                <use id="reset" xlink:href="#resetDef" x="30" y="36" onmousedown="handleReset()"/>
                <g id="arrowUp" xlink:href="#dirArrow" transform="translate(30 24)" onmousedown="handlePan(0,-1)">
                  <use xlink:href="#rim" fill="#404040">
                        <set attributeName="fill" to="#808080" begin="arrowUp.mouseover" end="arrowUp.mouseout"/>
                  </use>
                  <path fill="none" stroke="white" stroke-width="1.5" d="M0,-3.0v7 M-2.5,-0.5L0,-3.0L2.5,-0.5"/>
                </g>
                <g id="arrowRight" xlink:href="#dirArrow" transform="rotate(90) translate(36 -43)" onmousedown="handlePan(1,0)">
                  <use xlink:href="#rim" fill="#404040">
                        <set attributeName="fill" to="#808080" begin="arrowRight.mouseover" end="arrowRight.mouseout"/>
                  </use>
                  <path fill="none" stroke="white" stroke-width="1.5" d="M0,-3.0v7 M-2.5,-0.5L0,-3.0L2.5,-0.5"/>
                </g>
                <g id="arrowDown" xlink:href="#dirArrow" transform="rotate(180) translate(-30 -48)" onmousedown="handlePan(0,1)">
                  <use xlink:href="#rim" fill="#404040">
                        <set attributeName="fill" to="#808080" begin="arrowDown.mouseover" end="arrowDown.mouseout"/>
                  </use>
                  <path fill="none" stroke="white" stroke-width="1.5" d="M0,-3.0v7 M-2.5,-0.5L0,-3.0L2.5,-0.5"/>
                </g>
                <g id="arrowLeft" xlink:href="#dirArrow" transform="rotate(270) translate(-36 17)" onmousedown="handlePan(-1,0)">
                  <use xlink:href="#rim" fill="#404040">
                        <set attributeName="fill" to="#808080" begin="arrowLeft.mouseover" end="arrowLeft.mouseout"/>
                  </use>
                  <path fill="none" stroke="white" stroke-width="1.5" d="M0,-3.0v7 M-2.5,-0.5L0,-3.0L2.5,-0.5"/>
                </g>
        </g>
        <svg viewBox="0 0 15 15" width="100%" height="30px" preserveAspectRatio="xMaxYMin meet">
         <g id="arrow_out" transform="scale(0.3 0.3)">
          <a xlink:href="quickjs_8c_a91b2b06caf6cc28b1edf48334b95b51a_icgraph_org.svg" target="_base">
           <rect id="button" ry="5" rx="5" y="6" x="6" height="38" width="38"
                fill="#f2f5e9" fill-opacity="0.5" stroke="#606060" stroke-width="1.0"/>
           <path id="arrow"
             d="M 11.500037,31.436501 C 11.940474,20.09759 22.043105,11.32322 32.158766,21.979434 L 37.068811,17.246167 C 37.068811,17.246167 37.088388,32 37.088388,32 L 22.160133,31.978069 C 22.160133,31.978069 26.997745,27.140456 26.997745,27.140456 C 18.528582,18.264221 13.291696,25.230495 11.500037,31.436501 z"
             style="fill:#404040;"/>
          </a>
         </g>
        </svg>
</svg>
