<?xml version="1.0" encoding="UTF-8" standalone="no"?>
<!DOCTYPE svg PUBLIC "-//W3C//DTD SVG 1.1//EN"
 "http://www.w3.org/Graphics/SVG/1.1/DTD/svg11.dtd">
<!-- Generated by graphviz version 2.43.0 (0)
 -->
<!-- Title: remainingElementsCount_add Pages: 1 -->
<svg width="749pt" height="387pt"
 viewBox="0.00 0.00 749.00 387.48" xmlns="http://www.w3.org/2000/svg" xmlns:xlink="http://www.w3.org/1999/xlink">
<g id="graph0" class="graph" transform="scale(1 1) rotate(0) translate(4 383.48)">
<title>remainingElementsCount_add</title>
<!-- Node1 -->
<g id="node1" class="node">
<title>Node1</title>
<g id="a_node1"><a xlink:title=" ">
<polygon fill="#bfbfbf" stroke="black" points="0,-55.98 0,-74.98 164,-74.98 164,-55.98 0,-55.98"/>
<text text-anchor="middle" x="82" y="-62.98" font-family="Helvetica,sans-Serif" font-size="10.00">remainingElementsCount_add</text>
</a>
</g>
</g>
<!-- Node2 -->
<g id="node2" class="node">
<title>Node2</title>
<g id="a_node2"><a xlink:href="quickjs_8c.html#aeb97957655d979e9fe56c955da2b2d4b" target="_top" xlink:title=" ">
<polygon fill="none" stroke="black" points="200,-226.98 200,-245.98 322,-245.98 322,-226.98 200,-226.98"/>
<text text-anchor="middle" x="261" y="-233.98" font-family="Helvetica,sans-Serif" font-size="10.00">JS_GetPropertyUint32</text>
</a>
</g>
</g>
<!-- Node1&#45;&gt;Node2 -->
<g id="edge1" class="edge">
<title>Node1&#45;&gt;Node2</title>
<path fill="none" stroke="midnightblue" d="M93.02,-75.16C121.99,-103.15 206.05,-184.36 242.64,-219.71"/>
<polygon fill="midnightblue" stroke="midnightblue" points="240.46,-222.47 250.09,-226.9 245.33,-217.44 240.46,-222.47"/>
</g>
<!-- Node53 -->
<g id="node9" class="node">
<title>Node53</title>
<g id="a_node9"><a xlink:href="quickjs_8h.html#a2050bc428da1c65ac7eb87c3fa3b0392" target="_top" xlink:title=" ">
<polygon fill="none" stroke="black" points="652.5,-207.98 652.5,-226.98 729.5,-226.98 729.5,-207.98 652.5,-207.98"/>
<text text-anchor="middle" x="691" y="-214.98" font-family="Helvetica,sans-Serif" font-size="10.00">JS_NewInt32</text>
</a>
</g>
</g>
<!-- Node1&#45;&gt;Node53 -->
<g id="edge16" class="edge">
<title>Node1&#45;&gt;Node53</title>
<path fill="none" stroke="midnightblue" d="M164.12,-59.47C291.67,-51.48 532.12,-42.83 605,-84.48 648.86,-109.55 673.63,-167.49 684.06,-197.95"/>
<polygon fill="midnightblue" stroke="midnightblue" points="680.85,-199.39 687.26,-207.82 687.51,-197.23 680.85,-199.39"/>
</g>
<!-- Node52 -->
<g id="node12" class="node">
<title>Node52</title>
<g id="a_node12"><a xlink:href="quickjs_8h.html#ad80a83d73e9b7d872b88fbf2943aebe9" target="_top" xlink:title=" ">
<polygon fill="none" stroke="black" points="647.5,-17.98 647.5,-36.98 734.5,-36.98 734.5,-17.98 647.5,-17.98"/>
<text text-anchor="middle" x="691" y="-24.98" font-family="Helvetica,sans-Serif" font-size="10.00">JS_IsException</text>
</a>
</g>
</g>
<!-- Node1&#45;&gt;Node52 -->
<g id="edge15" class="edge">
<title>Node1&#45;&gt;Node52</title>
<path fill="none" stroke="midnightblue" d="M117.3,-55.92C140.48,-49.79 171.87,-42.14 200,-37.48 378.04,-8 425.63,11.32 605,-8.48 618.28,-9.95 632.52,-12.67 645.48,-15.6"/>
<polygon fill="midnightblue" stroke="midnightblue" points="645.01,-19.08 655.55,-17.97 646.62,-12.27 645.01,-19.08"/>
</g>
<!-- Node436 -->
<g id="node13" class="node">
<title>Node436</title>
<g id="a_node13"><a xlink:href="quickjs_8c.html#aae909eaec829081b270012adfcd717a4" target="_top" xlink:title=" ">
<polygon fill="none" stroke="black" points="201,-112.98 201,-131.98 321,-131.98 321,-112.98 201,-112.98"/>
<text text-anchor="middle" x="261" y="-119.98" font-family="Helvetica,sans-Serif" font-size="10.00">JS_SetPropertyUint32</text>
</a>
</g>
</g>
<!-- Node1&#45;&gt;Node436 -->
<g id="edge17" class="edge">
<title>Node1&#45;&gt;Node436</title>
<path fill="none" stroke="midnightblue" d="M112.63,-75.02C142.24,-84.56 187.94,-99.27 220.59,-109.79"/>
<polygon fill="midnightblue" stroke="midnightblue" points="219.69,-113.18 230.28,-112.91 221.83,-106.51 219.69,-113.18"/>
</g>
<!-- Node127 -->
<g id="node15" class="node">
<title>Node127</title>
<g id="a_node15"><a xlink:href="quickjs_8c.html#a643088ab23784b7f3c6ff94c37228256" target="_top" xlink:title=" ">
<polygon fill="none" stroke="red" points="514,-17.98 514,-36.98 601,-36.98 601,-17.98 514,-17.98"/>
<text text-anchor="middle" x="557.5" y="-24.98" font-family="Helvetica,sans-Serif" font-size="10.00">JS_ToInt32Free</text>
</a>
</g>
</g>
<!-- Node1&#45;&gt;Node127 -->
<g id="edge25" class="edge">
<title>Node1&#45;&gt;Node127</title>
<path fill="none" stroke="midnightblue" d="M157.52,-55.98C171.62,-54.35 186.25,-52.77 200,-51.48 307.66,-41.42 433.98,-33.94 503.64,-30.18"/>
<polygon fill="midnightblue" stroke="midnightblue" points="504.11,-33.66 513.91,-29.63 503.74,-26.67 504.11,-33.66"/>
</g>
<!-- Node3 -->
<g id="node3" class="node">
<title>Node3</title>
<g id="a_node3"><a xlink:href="quickjs_8c.html#a90d6e607f6917d817c1e997bd2e6ed07" target="_top" xlink:title=" ">
<polygon fill="none" stroke="black" points="358,-226.98 358,-245.98 474,-245.98 474,-226.98 358,-226.98"/>
<text text-anchor="middle" x="416" y="-233.98" font-family="Helvetica,sans-Serif" font-size="10.00">JS_GetPropertyValue</text>
</a>
</g>
</g>
<!-- Node2&#45;&gt;Node3 -->
<g id="edge2" class="edge">
<title>Node2&#45;&gt;Node3</title>
<path fill="none" stroke="midnightblue" d="M322.03,-236.48C330.36,-236.48 338.97,-236.48 347.43,-236.48"/>
<polygon fill="midnightblue" stroke="midnightblue" points="347.64,-239.98 357.64,-236.48 347.64,-232.98 347.64,-239.98"/>
</g>
<!-- Node198 -->
<g id="node10" class="node">
<title>Node198</title>
<g id="a_node10"><a xlink:href="quickjs_8h.html#a88259aa0da61ac754402c64ccecee116" target="_top" xlink:title=" ">
<polygon fill="none" stroke="black" points="515,-359.98 515,-378.98 600,-378.98 600,-359.98 515,-359.98"/>
<text text-anchor="middle" x="557.5" y="-366.98" font-family="Helvetica,sans-Serif" font-size="10.00">JS_NewUint32</text>
</a>
</g>
</g>
<!-- Node2&#45;&gt;Node198 -->
<g id="edge14" class="edge">
<title>Node2&#45;&gt;Node198</title>
<path fill="none" stroke="midnightblue" d="M270.8,-246.18C286.62,-263.01 321.59,-297.63 358,-316.48 404.67,-340.65 463.38,-354.56 504.81,-362.01"/>
<polygon fill="midnightblue" stroke="midnightblue" points="504.23,-365.46 514.68,-363.72 505.43,-358.56 504.23,-365.46"/>
</g>
<!-- Node4 -->
<g id="node4" class="node">
<title>Node4</title>
<g id="a_node4"><a xlink:href="quickjs_8h.html#a9bf98b18de88b4199910a43e933eb97d" target="_top" xlink:title=" ">
<polygon fill="none" stroke="black" points="641,-302.98 641,-321.98 741,-321.98 741,-302.98 641,-302.98"/>
<text text-anchor="middle" x="691" y="-309.98" font-family="Helvetica,sans-Serif" font-size="10.00">__JS_NewFloat64</text>
</a>
</g>
</g>
<!-- Node3&#45;&gt;Node4 -->
<g id="edge3" class="edge">
<title>Node3&#45;&gt;Node4</title>
<path fill="none" stroke="midnightblue" d="M474.19,-244.67C511.88,-250.88 562.03,-260.72 605,-274.48 624.95,-280.87 646.48,-290.53 662.88,-298.5"/>
<polygon fill="midnightblue" stroke="midnightblue" points="661.38,-301.67 671.89,-302.97 664.48,-295.4 661.38,-301.67"/>
</g>
<!-- Node5 -->
<g id="node5" class="node">
<title>Node5</title>
<g id="a_node5"><a xlink:href="quickjs_8h.html#a775522f2d084fc8fa0fcb33f390006b4" target="_top" xlink:title=" ">
<polygon fill="none" stroke="black" points="519,-321.98 519,-340.98 596,-340.98 596,-321.98 519,-321.98"/>
<text text-anchor="middle" x="557.5" y="-328.98" font-family="Helvetica,sans-Serif" font-size="10.00">JS_DupValue</text>
</a>
</g>
</g>
<!-- Node3&#45;&gt;Node5 -->
<g id="edge4" class="edge">
<title>Node3&#45;&gt;Node5</title>
<path fill="none" stroke="midnightblue" d="M426.84,-246.23C443.04,-261.85 476.85,-292.76 510,-312.48 513.19,-314.38 516.6,-316.16 520.07,-317.83"/>
<polygon fill="midnightblue" stroke="midnightblue" points="518.73,-321.07 529.29,-321.94 521.58,-314.67 518.73,-321.07"/>
</g>
<!-- Node6 -->
<g id="node6" class="node">
<title>Node6</title>
<g id="a_node6"><a xlink:href="quickjs_8c.html#ab7fc45a99935a1c0ba50b0216d9401a9" target="_top" xlink:title=" ">
<polygon fill="none" stroke="red" points="518.5,-93.98 518.5,-112.98 596.5,-112.98 596.5,-93.98 518.5,-93.98"/>
<text text-anchor="middle" x="557.5" y="-100.98" font-family="Helvetica,sans-Serif" font-size="10.00">JS_FreeAtom</text>
</a>
</g>
</g>
<!-- Node3&#45;&gt;Node6 -->
<g id="edge5" class="edge">
<title>Node3&#45;&gt;Node6</title>
<path fill="none" stroke="midnightblue" d="M422.51,-226.87C435.27,-205.36 468.94,-152.87 510,-122.48 512.44,-120.67 515.09,-119 517.83,-117.47"/>
<polygon fill="midnightblue" stroke="midnightblue" points="519.38,-120.6 526.79,-113.03 516.27,-114.33 519.38,-120.6"/>
</g>
<!-- Node12 -->
<g id="node7" class="node">
<title>Node12</title>
<g id="a_node7"><a xlink:href="quickjs_8h.html#afaa20c47565bc704c6c85f3d77254e7d" target="_top" xlink:title=" ">
<polygon fill="none" stroke="red" points="518,-169.98 518,-188.98 597,-188.98 597,-169.98 518,-169.98"/>
<text text-anchor="middle" x="557.5" y="-176.98" font-family="Helvetica,sans-Serif" font-size="10.00">JS_FreeValue</text>
</a>
</g>
</g>
<!-- Node3&#45;&gt;Node12 -->
<g id="edge6" class="edge">
<title>Node3&#45;&gt;Node12</title>
<path fill="none" stroke="midnightblue" d="M440.35,-226.94C463.18,-217.61 498.16,-203.32 523.76,-192.86"/>
<polygon fill="midnightblue" stroke="midnightblue" points="525.14,-196.08 533.07,-189.05 522.49,-189.6 525.14,-196.08"/>
</g>
<!-- Node44 -->
<g id="node8" class="node">
<title>Node44</title>
<g id="a_node8"><a xlink:href="quickjs_8h.html#a89b7c8686c7eee70b86be722ee4730ad" target="_top" xlink:title=" ">
<polygon fill="none" stroke="red" points="513,-283.98 513,-302.98 602,-302.98 602,-283.98 513,-283.98"/>
<text text-anchor="middle" x="557.5" y="-290.98" font-family="Helvetica,sans-Serif" font-size="10.00">JS_GetProperty</text>
</a>
</g>
</g>
<!-- Node3&#45;&gt;Node44 -->
<g id="edge7" class="edge">
<title>Node3&#45;&gt;Node44</title>
<path fill="none" stroke="midnightblue" d="M440.35,-246.02C463.18,-255.35 498.16,-269.64 523.76,-280.11"/>
<polygon fill="midnightblue" stroke="midnightblue" points="522.49,-283.37 533.07,-283.91 525.14,-276.89 522.49,-283.37"/>
</g>
<!-- Node3&#45;&gt;Node53 -->
<g id="edge8" class="edge">
<title>Node3&#45;&gt;Node53</title>
<path fill="none" stroke="midnightblue" d="M474.23,-232.5C523.94,-229.04 595.12,-224.08 641.94,-220.83"/>
<polygon fill="midnightblue" stroke="midnightblue" points="642.39,-224.3 652.12,-220.12 641.9,-217.32 642.39,-224.3"/>
</g>
<!-- Node3&#45;&gt;Node198 -->
<g id="edge9" class="edge">
<title>Node3&#45;&gt;Node198</title>
<path fill="none" stroke="midnightblue" d="M429.82,-246.27C442.12,-256.06 460.71,-272.01 474,-288.48 494,-313.28 485.97,-329.56 510,-350.48 511.76,-352.02 513.67,-353.44 515.66,-354.75"/>
<polygon fill="midnightblue" stroke="midnightblue" points="514.41,-358.06 524.85,-359.86 517.81,-351.95 514.41,-358.06"/>
</g>
<!-- Node233 -->
<g id="node11" class="node">
<title>Node233</title>
<g id="a_node11"><a xlink:href="quickjs_8c.html#a859d5c989a2aaecef1653b3ac279e108" target="_top" xlink:title=" ">
<polygon fill="none" stroke="red" points="510,-131.98 510,-150.98 605,-150.98 605,-131.98 510,-131.98"/>
<text text-anchor="middle" x="557.5" y="-138.98" font-family="Helvetica,sans-Serif" font-size="10.00">JS_ValueToAtom</text>
</a>
</g>
</g>
<!-- Node3&#45;&gt;Node233 -->
<g id="edge12" class="edge">
<title>Node3&#45;&gt;Node233</title>
<path fill="none" stroke="midnightblue" d="M426.84,-226.74C443.04,-211.11 476.85,-180.2 510,-160.48 513.19,-158.59 516.6,-156.8 520.07,-155.13"/>
<polygon fill="midnightblue" stroke="midnightblue" points="521.58,-158.29 529.29,-151.02 518.73,-151.9 521.58,-158.29"/>
</g>
<!-- Node198&#45;&gt;Node4 -->
<g id="edge10" class="edge">
<title>Node198&#45;&gt;Node4</title>
<path fill="none" stroke="midnightblue" d="M582.22,-359.96C589.54,-356.98 597.62,-353.64 605,-350.48 623.22,-342.69 643.47,-333.65 659.64,-326.34"/>
<polygon fill="midnightblue" stroke="midnightblue" points="661.46,-329.36 669.12,-322.04 658.57,-322.98 661.46,-329.36"/>
</g>
<!-- Node198&#45;&gt;Node53 -->
<g id="edge11" class="edge">
<title>Node198&#45;&gt;Node53</title>
<path fill="none" stroke="midnightblue" d="M589.55,-359.95C595.04,-357.42 600.46,-354.29 605,-350.48 627.96,-331.23 624.88,-318.74 641,-293.48 653.59,-273.75 668.13,-251.23 678.08,-235.86"/>
<polygon fill="midnightblue" stroke="midnightblue" points="681.13,-237.6 683.63,-227.3 675.25,-233.79 681.13,-237.6"/>
</g>
<!-- Node233&#45;&gt;Node52 -->
<g id="edge13" class="edge">
<title>Node233&#45;&gt;Node52</title>
<path fill="none" stroke="midnightblue" d="M587.59,-131.97C593.62,-129.36 599.73,-126.2 605,-122.48 635.56,-100.92 662.81,-66.43 677.81,-45.47"/>
<polygon fill="midnightblue" stroke="midnightblue" points="680.77,-47.34 683.63,-37.14 675.03,-43.33 680.77,-47.34"/>
</g>
<!-- Node436&#45;&gt;Node198 -->
<g id="edge18" class="edge">
<title>Node436&#45;&gt;Node198</title>
<path fill="none" stroke="midnightblue" d="M266.84,-132C279.22,-155.55 314.13,-217.4 358,-255.48 401.99,-293.66 426.61,-282.61 474,-316.48 491.91,-329.28 491.5,-338.56 510,-350.48 512.79,-352.28 515.77,-353.96 518.83,-355.52"/>
<polygon fill="midnightblue" stroke="midnightblue" points="517.58,-358.8 528.12,-359.83 520.53,-352.45 517.58,-358.8"/>
</g>
<!-- Node210 -->
<g id="node14" class="node">
<title>Node210</title>
<g id="a_node14"><a xlink:href="quickjs_8c.html#aee75cc1546e19479e3ccda58f3b50a96" target="_top" xlink:title=" ">
<polygon fill="none" stroke="red" points="358.5,-112.98 358.5,-131.98 473.5,-131.98 473.5,-112.98 358.5,-112.98"/>
<text text-anchor="middle" x="416" y="-119.98" font-family="Helvetica,sans-Serif" font-size="10.00">JS_SetPropertyValue</text>
</a>
</g>
</g>
<!-- Node436&#45;&gt;Node210 -->
<g id="edge19" class="edge">
<title>Node436&#45;&gt;Node210</title>
<path fill="none" stroke="midnightblue" d="M321.15,-122.48C330.01,-122.48 339.2,-122.48 348.2,-122.48"/>
<polygon fill="midnightblue" stroke="midnightblue" points="348.27,-125.98 358.27,-122.48 348.27,-118.98 348.27,-125.98"/>
</g>
<!-- Node210&#45;&gt;Node6 -->
<g id="edge20" class="edge">
<title>Node210&#45;&gt;Node6</title>
<path fill="none" stroke="midnightblue" d="M473.74,-114.75C485.18,-113.2 497.09,-111.57 508.21,-110.06"/>
<polygon fill="midnightblue" stroke="midnightblue" points="508.71,-113.52 518.15,-108.7 507.77,-106.59 508.71,-113.52"/>
</g>
<!-- Node210&#45;&gt;Node12 -->
<g id="edge21" class="edge">
<title>Node210&#45;&gt;Node12</title>
<path fill="none" stroke="midnightblue" d="M440.35,-132.02C463.18,-141.35 498.16,-155.64 523.76,-166.11"/>
<polygon fill="midnightblue" stroke="midnightblue" points="522.49,-169.37 533.07,-169.91 525.14,-162.89 522.49,-169.37"/>
</g>
<!-- Node210&#45;&gt;Node233 -->
<g id="edge24" class="edge">
<title>Node210&#45;&gt;Node233</title>
<path fill="none" stroke="midnightblue" d="M473.74,-130.21C482.21,-131.36 490.95,-132.55 499.43,-133.71"/>
<polygon fill="midnightblue" stroke="midnightblue" points="499.23,-137.21 509.61,-135.09 500.18,-130.28 499.23,-137.21"/>
</g>
<!-- Node210&#45;&gt;Node127 -->
<g id="edge22" class="edge">
<title>Node210&#45;&gt;Node127</title>
<path fill="none" stroke="midnightblue" d="M431.14,-112.85C455.37,-96.35 505.01,-62.55 534.03,-42.79"/>
<polygon fill="midnightblue" stroke="midnightblue" points="536.02,-45.66 542.32,-37.14 532.08,-39.87 536.02,-45.66"/>
</g>
<!-- Node127&#45;&gt;Node52 -->
<g id="edge23" class="edge">
<title>Node127&#45;&gt;Node52</title>
<path fill="none" stroke="midnightblue" d="M601.19,-27.48C612.56,-27.48 624.98,-27.48 636.84,-27.48"/>
<polygon fill="midnightblue" stroke="midnightblue" points="637.07,-30.98 647.07,-27.48 637.07,-23.98 637.07,-30.98"/>
</g>
</g>
</svg>
