<?xml version="1.0" encoding="UTF-8" standalone="no"?>
<!DOCTYPE svg PUBLIC "-//W3C//DTD SVG 1.1//EN"
 "http://www.w3.org/Graphics/SVG/1.1/DTD/svg11.dtd">
<!-- Generated by graphviz version 2.43.0 (0)
 -->
<!-- Title: js_object_toLocaleString Pages: 1 -->
<svg width="597pt" height="122pt"
 viewBox="0.00 0.00 597.00 122.00" xmlns="http://www.w3.org/2000/svg" xmlns:xlink="http://www.w3.org/1999/xlink">
<g id="graph0" class="graph" transform="scale(1 1) rotate(0) translate(4 118)">
<title>js_object_toLocaleString</title>
<!-- Node1 -->
<g id="node1" class="node">
<title>Node1</title>
<g id="a_node1"><a xlink:title=" ">
<polygon fill="#bfbfbf" stroke="black" points="0,-19.5 0,-38.5 135,-38.5 135,-19.5 0,-19.5"/>
<text text-anchor="middle" x="67.5" y="-26.5" font-family="Helvetica,sans-Serif" font-size="10.00">js_object_toLocaleString</text>
</a>
</g>
</g>
<!-- Node2 -->
<g id="node2" class="node">
<title>Node2</title>
<g id="a_node2"><a xlink:href="quickjs_8c.html#ad09ec172570d05d2166ed3069f85c7b5" target="_top" xlink:title=" ">
<polygon fill="none" stroke="black" points="171,-19.5 171,-38.5 234,-38.5 234,-19.5 171,-19.5"/>
<text text-anchor="middle" x="202.5" y="-26.5" font-family="Helvetica,sans-Serif" font-size="10.00">JS_Invoke</text>
</a>
</g>
</g>
<!-- Node1&#45;&gt;Node2 -->
<g id="edge1" class="edge">
<title>Node1&#45;&gt;Node2</title>
<path fill="none" stroke="midnightblue" d="M135.39,-29C144.03,-29 152.65,-29 160.69,-29"/>
<polygon fill="midnightblue" stroke="midnightblue" points="160.86,-32.5 170.86,-29 160.86,-25.5 160.86,-32.5"/>
</g>
<!-- Node3 -->
<g id="node3" class="node">
<title>Node3</title>
<g id="a_node3"><a xlink:href="quickjs_8c.html#a75f6ee5e4235a7dc99889f3d2eb2c147" target="_top" xlink:title=" ">
<polygon fill="none" stroke="black" points="270,-57.5 270,-76.5 341,-76.5 341,-57.5 270,-57.5"/>
<text text-anchor="middle" x="305.5" y="-64.5" font-family="Helvetica,sans-Serif" font-size="10.00">JS_CallFree</text>
</a>
</g>
</g>
<!-- Node2&#45;&gt;Node3 -->
<g id="edge2" class="edge">
<title>Node2&#45;&gt;Node3</title>
<path fill="none" stroke="midnightblue" d="M228.99,-38.59C241.31,-43.22 256.28,-48.86 269.64,-53.89"/>
<polygon fill="midnightblue" stroke="midnightblue" points="268.43,-57.17 279.02,-57.41 270.89,-50.62 268.43,-57.17"/>
</g>
<!-- Node69 -->
<g id="node6" class="node">
<title>Node69</title>
<g id="a_node6"><a xlink:href="quickjs_8h.html#a89b7c8686c7eee70b86be722ee4730ad" target="_top" xlink:title=" ">
<polygon fill="none" stroke="red" points="500,-38.5 500,-57.5 589,-57.5 589,-38.5 500,-38.5"/>
<text text-anchor="middle" x="544.5" y="-45.5" font-family="Helvetica,sans-Serif" font-size="10.00">JS_GetProperty</text>
</a>
</g>
</g>
<!-- Node2&#45;&gt;Node69 -->
<g id="edge10" class="edge">
<title>Node2&#45;&gt;Node69</title>
<path fill="none" stroke="midnightblue" d="M234.27,-30.72C292.08,-33.95 417.53,-40.96 489.62,-44.99"/>
<polygon fill="midnightblue" stroke="midnightblue" points="489.68,-48.5 499.86,-45.56 490.07,-41.51 489.68,-48.5"/>
</g>
<!-- Node76 -->
<g id="node7" class="node">
<title>Node76</title>
<g id="a_node7"><a xlink:href="quickjs_8h.html#ad80a83d73e9b7d872b88fbf2943aebe9" target="_top" xlink:title=" ">
<polygon fill="none" stroke="black" points="501,-0.5 501,-19.5 588,-19.5 588,-0.5 501,-0.5"/>
<text text-anchor="middle" x="544.5" y="-7.5" font-family="Helvetica,sans-Serif" font-size="10.00">JS_IsException</text>
</a>
</g>
</g>
<!-- Node2&#45;&gt;Node76 -->
<g id="edge11" class="edge">
<title>Node2&#45;&gt;Node76</title>
<path fill="none" stroke="midnightblue" d="M234.27,-27.28C292.39,-24.03 418.89,-16.96 490.79,-12.95"/>
<polygon fill="midnightblue" stroke="midnightblue" points="491.19,-16.43 500.98,-12.38 490.8,-9.44 491.19,-16.43"/>
</g>
<!-- Node4 -->
<g id="node4" class="node">
<title>Node4</title>
<g id="a_node4"><a xlink:href="quickjs_8c.html#ac2894ff4edcdb4e6841bcce9c76081e3" target="_top" xlink:title=" ">
<polygon fill="none" stroke="red" points="377,-57.5 377,-76.5 464,-76.5 464,-57.5 377,-57.5"/>
<text text-anchor="middle" x="420.5" y="-64.5" font-family="Helvetica,sans-Serif" font-size="10.00">JS_CallInternal</text>
</a>
</g>
</g>
<!-- Node3&#45;&gt;Node4 -->
<g id="edge3" class="edge">
<title>Node3&#45;&gt;Node4</title>
<path fill="none" stroke="midnightblue" d="M341.02,-60.73C349.13,-60.36 357.97,-60.2 366.69,-60.26"/>
<polygon fill="midnightblue" stroke="midnightblue" points="366.76,-63.76 376.81,-60.43 366.87,-56.77 366.76,-63.76"/>
</g>
<!-- Node58 -->
<g id="node5" class="node">
<title>Node58</title>
<g id="a_node5"><a xlink:href="quickjs_8h.html#afaa20c47565bc704c6c85f3d77254e7d" target="_top" xlink:title=" ">
<polygon fill="none" stroke="red" points="505,-94.5 505,-113.5 584,-113.5 584,-94.5 505,-94.5"/>
<text text-anchor="middle" x="544.5" y="-101.5" font-family="Helvetica,sans-Serif" font-size="10.00">JS_FreeValue</text>
</a>
</g>
</g>
<!-- Node3&#45;&gt;Node58 -->
<g id="edge9" class="edge">
<title>Node3&#45;&gt;Node58</title>
<path fill="none" stroke="midnightblue" d="M320,-76.65C333.63,-85.74 355.66,-98.74 377,-104 415.79,-113.56 461.22,-112.8 494.82,-110.07"/>
<polygon fill="midnightblue" stroke="midnightblue" points="495.2,-113.55 504.85,-109.17 494.58,-106.58 495.2,-113.55"/>
</g>
<!-- Node4&#45;&gt;Node3 -->
<g id="edge4" class="edge">
<title>Node4&#45;&gt;Node3</title>
<path fill="none" stroke="midnightblue" d="M376.81,-73.57C368.41,-73.79 359.57,-73.81 351.1,-73.62"/>
<polygon fill="midnightblue" stroke="midnightblue" points="351.13,-70.11 341.02,-73.27 350.89,-77.11 351.13,-70.11"/>
</g>
<!-- Node4&#45;&gt;Node4 -->
<g id="edge5" class="edge">
<title>Node4&#45;&gt;Node4</title>
<path fill="none" stroke="midnightblue" d="M402.93,-76.76C394.38,-85.57 400.24,-95 420.5,-95 433.16,-95 440.2,-91.31 441.61,-86.4"/>
<polygon fill="midnightblue" stroke="midnightblue" points="444.8,-84.94 438.07,-76.76 438.23,-87.35 444.8,-84.94"/>
</g>
<!-- Node4&#45;&gt;Node58 -->
<g id="edge6" class="edge">
<title>Node4&#45;&gt;Node58</title>
<path fill="none" stroke="midnightblue" d="M452.92,-76.53C467.89,-81.07 485.99,-86.56 502.06,-91.43"/>
<polygon fill="midnightblue" stroke="midnightblue" points="501.18,-94.82 511.76,-94.38 503.21,-88.12 501.18,-94.82"/>
</g>
<!-- Node4&#45;&gt;Node69 -->
<g id="edge7" class="edge">
<title>Node4&#45;&gt;Node69</title>
<path fill="none" stroke="midnightblue" d="M464.17,-60.35C472.47,-59.06 481.26,-57.69 489.86,-56.35"/>
<polygon fill="midnightblue" stroke="midnightblue" points="490.48,-59.8 499.82,-54.8 489.4,-52.88 490.48,-59.8"/>
</g>
<!-- Node4&#45;&gt;Node76 -->
<g id="edge8" class="edge">
<title>Node4&#45;&gt;Node76</title>
<path fill="none" stroke="midnightblue" d="M440.76,-57.42C456.59,-49.61 479.64,-38.37 500,-29 503.68,-27.3 507.56,-25.56 511.42,-23.84"/>
<polygon fill="midnightblue" stroke="midnightblue" points="513.1,-26.93 520.85,-19.69 510.29,-20.52 513.1,-26.93"/>
</g>
</g>
</svg>
