<?xml version="1.0" encoding="UTF-8" standalone="no"?>
<!DOCTYPE svg PUBLIC "-//W3C//DTD SVG 1.1//EN"
 "http://www.w3.org/Graphics/SVG/1.1/DTD/svg11.dtd">
<!-- Generated by graphviz version 2.43.0 (0)
 -->
<!-- Title: JS_ToString Pages: 1 -->
<svg width="876pt" height="304pt"
 viewBox="0.00 0.00 876.00 303.56" xmlns="http://www.w3.org/2000/svg" xmlns:xlink="http://www.w3.org/1999/xlink">
<g id="graph0" class="graph" transform="scale(1 1) rotate(0) translate(4 299.56)">
<title>JS_ToString</title>
<!-- Node1 -->
<g id="node1" class="node">
<title>Node1</title>
<g id="a_node1"><a xlink:title=" ">
<polygon fill="#bfbfbf" stroke="black" points="0,-128.29 0,-147.29 70,-147.29 70,-128.29 0,-128.29"/>
<text text-anchor="middle" x="35" y="-135.29" font-family="Helvetica,sans-Serif" font-size="10.00">JS_ToString</text>
</a>
</g>
</g>
<!-- Node2 -->
<g id="node2" class="node">
<title>Node2</title>
<g id="a_node2"><a xlink:href="quickjs_8c.html#a46d6ebdd8c73102fd9e02a89b1f1d09a" target="_top" xlink:title=" ">
<polygon fill="none" stroke="black" points="106,-128.29 106,-147.29 213,-147.29 213,-128.29 106,-128.29"/>
<text text-anchor="middle" x="159.5" y="-135.29" font-family="Helvetica,sans-Serif" font-size="10.00">JS_ToStringInternal</text>
</a>
</g>
</g>
<!-- Node1&#45;&gt;Node2 -->
<g id="edge1" class="edge">
<title>Node1&#45;&gt;Node2</title>
<path fill="none" stroke="midnightblue" d="M70.12,-137.79C78.06,-137.79 86.76,-137.79 95.51,-137.79"/>
<polygon fill="midnightblue" stroke="midnightblue" points="95.75,-141.29 105.75,-137.79 95.75,-134.29 95.75,-141.29"/>
</g>
<!-- Node2&#45;&gt;Node2 -->
<g id="edge20" class="edge">
<title>Node2&#45;&gt;Node2</title>
<path fill="none" stroke="midnightblue" d="M140.39,-147.54C131.09,-156.35 137.46,-165.79 159.5,-165.79 173.62,-165.79 181.31,-161.91 182.57,-156.81"/>
<polygon fill="midnightblue" stroke="midnightblue" points="185.75,-155.37 178.61,-147.54 179.31,-158.11 185.75,-155.37"/>
</g>
<!-- Node3 -->
<g id="node3" class="node">
<title>Node3</title>
<g id="a_node3"><a xlink:href="quickjs_8c.html#a260bfa297ff6cb5bd18e229afaa54663" target="_top" xlink:title=" ">
<polygon fill="none" stroke="black" points="514,-156.29 514,-175.29 610,-175.29 610,-156.29 514,-156.29"/>
<text text-anchor="middle" x="562" y="-163.29" font-family="Helvetica,sans-Serif" font-size="10.00">JS_AtomToString</text>
</a>
</g>
</g>
<!-- Node2&#45;&gt;Node3 -->
<g id="edge2" class="edge">
<title>Node2&#45;&gt;Node3</title>
<path fill="none" stroke="midnightblue" d="M213.08,-140.15C276.1,-143.17 384.87,-148.95 478,-156.79 486.3,-157.48 495.07,-158.32 503.66,-159.2"/>
<polygon fill="midnightblue" stroke="midnightblue" points="503.32,-162.69 513.63,-160.25 504.05,-155.73 503.32,-162.69"/>
</g>
<!-- Node7 -->
<g id="node5" class="node">
<title>Node7</title>
<g id="a_node5"><a xlink:href="quickjs_8h.html#a775522f2d084fc8fa0fcb33f390006b4" target="_top" xlink:title=" ">
<polygon fill="none" stroke="black" points="789,-242.29 789,-261.29 866,-261.29 866,-242.29 789,-242.29"/>
<text text-anchor="middle" x="827.5" y="-249.29" font-family="Helvetica,sans-Serif" font-size="10.00">JS_DupValue</text>
</a>
</g>
</g>
<!-- Node2&#45;&gt;Node7 -->
<g id="edge9" class="edge">
<title>Node2&#45;&gt;Node7</title>
<path fill="none" stroke="midnightblue" d="M163.72,-147.63C172.62,-173.08 200.17,-241.11 249,-270.79 315.67,-311.3 345.49,-289.79 423.5,-289.79 423.5,-289.79 423.5,-289.79 563,-289.79 639.05,-289.79 726.18,-274.09 778.75,-262.87"/>
<polygon fill="midnightblue" stroke="midnightblue" points="779.75,-266.24 788.78,-260.7 778.27,-259.39 779.75,-266.24"/>
</g>
<!-- Node8 -->
<g id="node6" class="node">
<title>Node8</title>
<g id="a_node6"><a xlink:href="quickjs_8c.html#a0ee6a3654a6016393fac5e1c108f403a" target="_top" xlink:title=" ">
<polygon fill="none" stroke="red" points="787,-52.29 787,-71.29 868,-71.29 868,-52.29 787,-52.29"/>
<text text-anchor="middle" x="827.5" y="-59.29" font-family="Helvetica,sans-Serif" font-size="10.00">JS_NewString</text>
</a>
</g>
</g>
<!-- Node2&#45;&gt;Node8 -->
<g id="edge13" class="edge">
<title>Node2&#45;&gt;Node8</title>
<path fill="none" stroke="midnightblue" d="M179.74,-128.16C222.46,-107.71 328.92,-61.79 423.5,-61.79 423.5,-61.79 423.5,-61.79 563,-61.79 637.41,-61.79 723.64,-61.79 776.63,-61.79"/>
<polygon fill="midnightblue" stroke="midnightblue" points="776.77,-65.29 786.77,-61.79 776.77,-58.29 776.77,-65.29"/>
</g>
<!-- Node31 -->
<g id="node7" class="node">
<title>Node31</title>
<g id="a_node7"><a xlink:href="quickjs_8c.html#a6508a2922531adcb280bbff485a9a44a" target="_top" xlink:title=" ">
<polygon fill="none" stroke="black" points="266,-14.29 266,-33.29 318,-33.29 318,-14.29 266,-14.29"/>
<text text-anchor="middle" x="292" y="-21.29" font-family="Helvetica,sans-Serif" font-size="10.00">js_dtoa</text>
</a>
</g>
</g>
<!-- Node2&#45;&gt;Node31 -->
<g id="edge6" class="edge">
<title>Node2&#45;&gt;Node31</title>
<path fill="none" stroke="midnightblue" d="M168.31,-128.27C182.9,-110.86 215.84,-73.33 249,-47.79 253.22,-44.54 257.92,-41.43 262.61,-38.58"/>
<polygon fill="midnightblue" stroke="midnightblue" points="264.56,-41.5 271.48,-33.48 261.07,-35.43 264.56,-41.5"/>
</g>
<!-- Node38 -->
<g id="node9" class="node">
<title>Node38</title>
<g id="a_node9"><a xlink:href="quickjs_8h.html#afaa20c47565bc704c6c85f3d77254e7d" target="_top" xlink:title=" ">
<polygon fill="none" stroke="black" points="522.5,-199.29 522.5,-218.29 601.5,-218.29 601.5,-199.29 522.5,-199.29"/>
<text text-anchor="middle" x="562" y="-206.29" font-family="Helvetica,sans-Serif" font-size="10.00">JS_FreeValue</text>
</a>
</g>
</g>
<!-- Node2&#45;&gt;Node38 -->
<g id="edge10" class="edge">
<title>Node2&#45;&gt;Node38</title>
<path fill="none" stroke="midnightblue" d="M189.05,-147.39C229.18,-160.45 304.75,-183.48 371,-194.79 418.39,-202.87 473.21,-206.29 511.75,-207.73"/>
<polygon fill="midnightblue" stroke="midnightblue" points="512.05,-211.24 522.17,-208.09 512.29,-204.25 512.05,-211.24"/>
</g>
<!-- Node74 -->
<g id="node11" class="node">
<title>Node74</title>
<g id="a_node11"><a xlink:href="quickjs_8h.html#ad80a83d73e9b7d872b88fbf2943aebe9" target="_top" xlink:title=" ">
<polygon fill="none" stroke="black" points="518.5,-109.29 518.5,-128.29 605.5,-128.29 605.5,-109.29 518.5,-109.29"/>
<text text-anchor="middle" x="562" y="-116.29" font-family="Helvetica,sans-Serif" font-size="10.00">JS_IsException</text>
</a>
</g>
</g>
<!-- Node2&#45;&gt;Node74 -->
<g id="edge12" class="edge">
<title>Node2&#45;&gt;Node74</title>
<path fill="none" stroke="midnightblue" d="M212.76,-128.27C224.64,-126.46 237.22,-124.81 249,-123.79 339.69,-115.93 445.74,-116.23 507.92,-117.37"/>
<polygon fill="midnightblue" stroke="midnightblue" points="508.19,-120.87 518.26,-117.57 508.33,-113.87 508.19,-120.87"/>
</g>
<!-- Node75 -->
<g id="node12" class="node">
<title>Node75</title>
<g id="a_node12"><a xlink:href="quickjs_8c.html#a2b8df609710fa689dd50b4bd18df2493" target="_top" xlink:title=" ">
<polygon fill="none" stroke="black" points="249,-242.29 249,-261.29 335,-261.29 335,-242.29 249,-242.29"/>
<text text-anchor="middle" x="292" y="-249.29" font-family="Helvetica,sans-Serif" font-size="10.00">JS_ToPrimitive</text>
</a>
</g>
</g>
<!-- Node2&#45;&gt;Node75 -->
<g id="edge14" class="edge">
<title>Node2&#45;&gt;Node75</title>
<path fill="none" stroke="midnightblue" d="M168.31,-147.31C182.9,-164.71 215.84,-202.24 249,-227.79 253.22,-231.03 257.92,-234.15 262.61,-236.99"/>
<polygon fill="midnightblue" stroke="midnightblue" points="261.07,-240.14 271.48,-242.09 264.56,-234.07 261.07,-240.14"/>
</g>
<!-- Node4 -->
<g id="node4" class="node">
<title>Node4</title>
<g id="a_node4"><a xlink:href="quickjs_8c.html#a06ff303a11e6641cbf1f6634e6a61811" target="_top" xlink:title=" ">
<polygon fill="none" stroke="red" points="646,-156.29 646,-175.29 751,-175.29 751,-156.29 646,-156.29"/>
<text text-anchor="middle" x="698.5" y="-163.29" font-family="Helvetica,sans-Serif" font-size="10.00">__JS_AtomToValue</text>
</a>
</g>
</g>
<!-- Node3&#45;&gt;Node4 -->
<g id="edge3" class="edge">
<title>Node3&#45;&gt;Node4</title>
<path fill="none" stroke="midnightblue" d="M610.04,-165.79C618.32,-165.79 627.04,-165.79 635.65,-165.79"/>
<polygon fill="midnightblue" stroke="midnightblue" points="635.67,-169.29 645.67,-165.79 635.67,-162.29 635.67,-169.29"/>
</g>
<!-- Node4&#45;&gt;Node7 -->
<g id="edge4" class="edge">
<title>Node4&#45;&gt;Node7</title>
<path fill="none" stroke="midnightblue" d="M723.23,-175.34C732.19,-179.34 742.32,-184.32 751,-189.79 772.32,-203.2 794.31,-221.92 809.02,-235.27"/>
<polygon fill="midnightblue" stroke="midnightblue" points="806.67,-237.86 816.39,-242.06 811.41,-232.71 806.67,-237.86"/>
</g>
<!-- Node4&#45;&gt;Node8 -->
<g id="edge5" class="edge">
<title>Node4&#45;&gt;Node8</title>
<path fill="none" stroke="midnightblue" d="M711.22,-156.19C733.05,-138.31 780.15,-99.74 806.9,-77.84"/>
<polygon fill="midnightblue" stroke="midnightblue" points="809.29,-80.4 814.81,-71.36 804.85,-74.99 809.29,-80.4"/>
</g>
<!-- Node31&#45;&gt;Node8 -->
<g id="edge8" class="edge">
<title>Node31&#45;&gt;Node8</title>
<path fill="none" stroke="midnightblue" d="M318.01,-16.08C333.18,-11.81 353.01,-6.95 371,-4.79 523.15,13.48 703.7,-27.85 784.16,-49.55"/>
<polygon fill="midnightblue" stroke="midnightblue" points="783.36,-52.96 793.93,-52.22 785.2,-46.21 783.36,-52.96"/>
</g>
<!-- Node32 -->
<g id="node8" class="node">
<title>Node32</title>
<g id="a_node8"><a xlink:href="quickjs_8c.html#a7ba39dd8c4124908e1c12e2d3267767c" target="_top" xlink:title=" ">
<polygon fill="none" stroke="red" points="395.5,-14.29 395.5,-33.29 453.5,-33.29 453.5,-14.29 395.5,-14.29"/>
<text text-anchor="middle" x="424.5" y="-21.29" font-family="Helvetica,sans-Serif" font-size="10.00">js_dtoa1</text>
</a>
</g>
</g>
<!-- Node31&#45;&gt;Node32 -->
<g id="edge7" class="edge">
<title>Node31&#45;&gt;Node32</title>
<path fill="none" stroke="midnightblue" d="M318.16,-23.79C337.13,-23.79 363.48,-23.79 385.08,-23.79"/>
<polygon fill="midnightblue" stroke="midnightblue" points="385.24,-27.29 395.24,-23.79 385.24,-20.29 385.24,-27.29"/>
</g>
<!-- Node39 -->
<g id="node10" class="node">
<title>Node39</title>
<g id="a_node10"><a xlink:href="quickjs_8c.html#aa059f309c30fd5166d16c82a97973146" target="_top" xlink:title=" ">
<polygon fill="none" stroke="red" points="654,-199.29 654,-218.29 743,-218.29 743,-199.29 654,-199.29"/>
<text text-anchor="middle" x="698.5" y="-206.29" font-family="Helvetica,sans-Serif" font-size="10.00">__JS_FreeValue</text>
</a>
</g>
</g>
<!-- Node38&#45;&gt;Node39 -->
<g id="edge11" class="edge">
<title>Node38&#45;&gt;Node39</title>
<path fill="none" stroke="midnightblue" d="M601.54,-208.79C614.66,-208.79 629.57,-208.79 643.66,-208.79"/>
<polygon fill="midnightblue" stroke="midnightblue" points="643.74,-212.29 653.74,-208.79 643.74,-205.29 643.74,-212.29"/>
</g>
<!-- Node75&#45;&gt;Node7 -->
<g id="edge15" class="edge">
<title>Node75&#45;&gt;Node7</title>
<path fill="none" stroke="midnightblue" d="M335.31,-251.79C433.36,-251.79 675.6,-251.79 778.75,-251.79"/>
<polygon fill="midnightblue" stroke="midnightblue" points="778.88,-255.29 788.88,-251.79 778.88,-248.29 778.88,-255.29"/>
</g>
<!-- Node76 -->
<g id="node13" class="node">
<title>Node76</title>
<g id="a_node13"><a xlink:href="quickjs_8c.html#abac33881bb91f8c31106f616d81b67e8" target="_top" xlink:title=" ">
<polygon fill="none" stroke="red" points="371,-166.29 371,-185.29 478,-185.29 478,-166.29 371,-166.29"/>
<text text-anchor="middle" x="424.5" y="-173.29" font-family="Helvetica,sans-Serif" font-size="10.00">JS_ToPrimitiveFree</text>
</a>
</g>
</g>
<!-- Node75&#45;&gt;Node76 -->
<g id="edge16" class="edge">
<title>Node75&#45;&gt;Node76</title>
<path fill="none" stroke="midnightblue" d="M309.53,-242.16C331.88,-229.14 371.97,-205.8 398.15,-190.55"/>
<polygon fill="midnightblue" stroke="midnightblue" points="400.23,-193.39 407.11,-185.33 396.7,-187.34 400.23,-193.39"/>
</g>
<!-- Node76&#45;&gt;Node3 -->
<g id="edge17" class="edge">
<title>Node76&#45;&gt;Node3</title>
<path fill="none" stroke="midnightblue" d="M478.28,-171.89C486.62,-171.27 495.29,-170.64 503.73,-170.01"/>
<polygon fill="midnightblue" stroke="midnightblue" points="504.17,-173.49 513.89,-169.26 503.65,-166.51 504.17,-173.49"/>
</g>
<!-- Node76&#45;&gt;Node38 -->
<g id="edge18" class="edge">
<title>Node76&#45;&gt;Node38</title>
<path fill="none" stroke="midnightblue" d="M464.69,-185.33C479.57,-188.95 496.69,-193.12 512.33,-196.93"/>
<polygon fill="midnightblue" stroke="midnightblue" points="511.82,-200.41 522.36,-199.38 513.48,-193.61 511.82,-200.41"/>
</g>
<!-- Node76&#45;&gt;Node74 -->
<g id="edge19" class="edge">
<title>Node76&#45;&gt;Node74</title>
<path fill="none" stroke="midnightblue" d="M448.18,-166.25C470.26,-156.96 504.03,-142.75 528.87,-132.3"/>
<polygon fill="midnightblue" stroke="midnightblue" points="530.39,-135.46 538.25,-128.36 527.67,-129.01 530.39,-135.46"/>
</g>
</g>
</svg>
