<?xml version="1.0" encoding="UTF-8" standalone="no"?>
<!DOCTYPE svg PUBLIC "-//W3C//DTD SVG 1.1//EN"
 "http://www.w3.org/Graphics/SVG/1.1/DTD/svg11.dtd">
<!-- Generated by graphviz version 2.43.0 (0)
 -->
<!-- Title: js_dbuf_init Pages: 1 -->
<svg width="726pt" height="427pt"
 viewBox="0.00 0.00 726.00 427.00" xmlns="http://www.w3.org/2000/svg" xmlns:xlink="http://www.w3.org/1999/xlink">
<g id="graph0" class="graph" transform="scale(1 1) rotate(0) translate(4 423)">
<title>js_dbuf_init</title>
<!-- Node1 -->
<g id="node1" class="node">
<title>Node1</title>
<g id="a_node1"><a xlink:title=" ">
<polygon fill="#bfbfbf" stroke="black" points="645,-126.5 645,-145.5 718,-145.5 718,-126.5 645,-126.5"/>
<text text-anchor="middle" x="681.5" y="-133.5" font-family="Helvetica,sans-Serif" font-size="10.00">js_dbuf_init</text>
</a>
</g>
</g>
<!-- Node2 -->
<g id="node2" class="node">
<title>Node2</title>
<g id="a_node2"><a xlink:href="quickjs_8c.html#a61c8dfb5e807af1b6ff7d8ca61576dda" target="_top" xlink:title=" ">
<polygon fill="none" stroke="black" points="500,-287.5 500,-306.5 594,-306.5 594,-287.5 500,-287.5"/>
<text text-anchor="middle" x="547" y="-294.5" font-family="Helvetica,sans-Serif" font-size="10.00">build_backtrace</text>
</a>
</g>
</g>
<!-- Node1&#45;&gt;Node2 -->
<g id="edge1" class="edge">
<title>Node1&#45;&gt;Node2</title>
<path fill="none" stroke="midnightblue" d="M666.87,-153.56C652.63,-171.82 629.54,-201.15 609,-226 590.57,-248.3 568.28,-273.91 556.41,-287.45"/>
<polygon fill="midnightblue" stroke="midnightblue" points="669.72,-155.6 673.1,-145.56 664.2,-151.3 669.72,-155.6"/>
</g>
<!-- Node614 -->
<g id="node11" class="node">
<title>Node614</title>
<g id="a_node11"><a xlink:href="quickjs_8c.html#ac8f4450aa771cc138f5fd25086f1c106" target="_top" xlink:title=" ">
<polygon fill="none" stroke="black" points="485,-164.5 485,-183.5 609,-183.5 609,-164.5 485,-164.5"/>
<text text-anchor="middle" x="547" y="-171.5" font-family="Helvetica,sans-Serif" font-size="10.00">compute_pc2line_info</text>
</a>
</g>
</g>
<!-- Node1&#45;&gt;Node614 -->
<g id="edge15" class="edge">
<title>Node1&#45;&gt;Node614</title>
<path fill="none" stroke="midnightblue" d="M637.3,-148.39C619.15,-153.59 598.37,-159.55 581.42,-164.41"/>
<polygon fill="midnightblue" stroke="midnightblue" points="638.42,-151.71 647.06,-145.59 636.49,-144.98 638.42,-151.71"/>
</g>
<!-- Node615 -->
<g id="node12" class="node">
<title>Node615</title>
<g id="a_node12"><a xlink:href="quickjs_8c.html#ad0d311d4ce409584384f835f1a3e185a" target="_top" xlink:title=" ">
<polygon fill="none" stroke="black" points="338.5,-202.5 338.5,-221.5 425.5,-221.5 425.5,-202.5 338.5,-202.5"/>
<text text-anchor="middle" x="382" y="-209.5" font-family="Helvetica,sans-Serif" font-size="10.00">resolve_labels</text>
</a>
</g>
</g>
<!-- Node1&#45;&gt;Node615 -->
<g id="edge28" class="edge">
<title>Node1&#45;&gt;Node615</title>
<path fill="none" stroke="midnightblue" d="M664.93,-153.02C651.54,-166.43 630.95,-184.27 609,-193 548.81,-216.93 472.66,-217.95 425.91,-215.63"/>
<polygon fill="midnightblue" stroke="midnightblue" points="667.53,-155.37 671.94,-145.74 662.49,-150.52 667.53,-155.37"/>
</g>
<!-- Node616 -->
<g id="node15" class="node">
<title>Node616</title>
<g id="a_node15"><a xlink:href="quickjs_8c.html#a8020fd59ed57f7f299216ec1ebfcda01" target="_top" xlink:title=" ">
<polygon fill="none" stroke="black" points="489,-88.5 489,-107.5 605,-107.5 605,-88.5 489,-88.5"/>
<text text-anchor="middle" x="547" y="-95.5" font-family="Helvetica,sans-Serif" font-size="10.00">js_new_function_def</text>
</a>
</g>
</g>
<!-- Node1&#45;&gt;Node616 -->
<g id="edge20" class="edge">
<title>Node1&#45;&gt;Node616</title>
<path fill="none" stroke="midnightblue" d="M637.3,-123.61C619.15,-118.41 598.37,-112.45 581.42,-107.59"/>
<polygon fill="midnightblue" stroke="midnightblue" points="636.49,-127.02 647.06,-126.41 638.42,-120.29 636.49,-127.02"/>
</g>
<!-- Node357 -->
<g id="node19" class="node">
<title>Node357</title>
<g id="a_node19"><a xlink:href="quickjs_8c.html#a431ceb41084feaa6af4e466b8b772ab1" target="_top" xlink:title=" ">
<polygon fill="none" stroke="red" points="334.5,-0.5 334.5,-19.5 429.5,-19.5 429.5,-0.5 334.5,-0.5"/>
<text text-anchor="middle" x="382" y="-7.5" font-family="Helvetica,sans-Serif" font-size="10.00">JS_WriteObject2</text>
</a>
</g>
</g>
<!-- Node1&#45;&gt;Node357 -->
<g id="edge25" class="edge">
<title>Node1&#45;&gt;Node357</title>
<path fill="none" stroke="midnightblue" d="M663.04,-118.99C649.32,-106.43 629.21,-89.72 609,-79 550.84,-48.13 476.77,-28.85 429.61,-18.76"/>
<polygon fill="midnightblue" stroke="midnightblue" points="661.02,-121.9 670.7,-126.19 665.81,-116.79 661.02,-121.9"/>
</g>
<!-- Node620 -->
<g id="node20" class="node">
<title>Node620</title>
<g id="a_node20"><a xlink:href="quickjs_8c.html#a91942742587df191fbf0f17a2ede99ef" target="_top" xlink:title=" ">
<polygon fill="none" stroke="black" points="487,-3.5 487,-22.5 607,-22.5 607,-3.5 487,-3.5"/>
<text text-anchor="middle" x="547" y="-10.5" font-family="Helvetica,sans-Serif" font-size="10.00">JS_WriteObjectAtoms</text>
</a>
</g>
</g>
<!-- Node1&#45;&gt;Node620 -->
<g id="edge26" class="edge">
<title>Node1&#45;&gt;Node620</title>
<path fill="none" stroke="midnightblue" d="M670.04,-117.77C657.62,-97.41 635.25,-64.5 609,-43 598.59,-34.48 585.36,-27.59 573.88,-22.58"/>
<polygon fill="midnightblue" stroke="midnightblue" points="667.05,-119.59 675.17,-126.4 673.07,-116.02 667.05,-119.59"/>
</g>
<!-- Node572 -->
<g id="node21" class="node">
<title>Node572</title>
<g id="a_node21"><a xlink:href="quickjs_8c.html#a7a4eedc4cc552a71e165f4d28ad43985" target="_top" xlink:title=" ">
<polygon fill="none" stroke="black" points="495.5,-126.5 495.5,-145.5 598.5,-145.5 598.5,-126.5 495.5,-126.5"/>
<text text-anchor="middle" x="547" y="-133.5" font-family="Helvetica,sans-Serif" font-size="10.00">resolve_variables</text>
</a>
</g>
</g>
<!-- Node1&#45;&gt;Node572 -->
<g id="edge29" class="edge">
<title>Node1&#45;&gt;Node572</title>
<path fill="none" stroke="midnightblue" d="M634.97,-136C623.23,-136 610.53,-136 598.55,-136"/>
<polygon fill="midnightblue" stroke="midnightblue" points="634.99,-139.5 644.99,-136 634.99,-132.5 634.99,-139.5"/>
</g>
<!-- Node3 -->
<g id="node3" class="node">
<title>Node3</title>
<g id="a_node3"><a xlink:href="quickjs_8c.html#ac2894ff4edcdb4e6841bcce9c76081e3" target="_top" xlink:title=" ">
<polygon fill="none" stroke="black" points="338.5,-287.5 338.5,-306.5 425.5,-306.5 425.5,-287.5 338.5,-287.5"/>
<text text-anchor="middle" x="382" y="-294.5" font-family="Helvetica,sans-Serif" font-size="10.00">JS_CallInternal</text>
</a>
</g>
</g>
<!-- Node2&#45;&gt;Node3 -->
<g id="edge2" class="edge">
<title>Node2&#45;&gt;Node3</title>
<path fill="none" stroke="midnightblue" d="M489.67,-297C468.71,-297 445.3,-297 425.76,-297"/>
<polygon fill="midnightblue" stroke="midnightblue" points="489.73,-300.5 499.73,-297 489.73,-293.5 489.73,-300.5"/>
</g>
<!-- Node66 -->
<g id="node8" class="node">
<title>Node66</title>
<g id="a_node8"><a xlink:href="quickjs_8c.html#ad25358fc5ae69ab218abde24d52b7767" target="_top" xlink:title=" ">
<polygon fill="none" stroke="red" points="325.5,-249.5 325.5,-268.5 438.5,-268.5 438.5,-249.5 325.5,-249.5"/>
<text text-anchor="middle" x="382" y="-256.5" font-family="Helvetica,sans-Serif" font-size="10.00">js_error_constructor</text>
</a>
</g>
</g>
<!-- Node2&#45;&gt;Node66 -->
<g id="edge11" class="edge">
<title>Node2&#45;&gt;Node66</title>
<path fill="none" stroke="midnightblue" d="M494.97,-285.1C472.06,-279.76 445.4,-273.55 423.84,-268.52"/>
<polygon fill="midnightblue" stroke="midnightblue" points="494.33,-288.55 504.87,-287.41 495.92,-281.73 494.33,-288.55"/>
</g>
<!-- Node226 -->
<g id="node9" class="node">
<title>Node226</title>
<g id="a_node9"><a xlink:href="quickjs_8c.html#a840642c87c5a82d4cc68333376a3b6de" target="_top" xlink:title=" ">
<polygon fill="none" stroke="red" points="321,-381.5 321,-400.5 443,-400.5 443,-381.5 321,-381.5"/>
<text text-anchor="middle" x="382" y="-388.5" font-family="Helvetica,sans-Serif" font-size="10.00">js_parse_postfix_expr</text>
</a>
</g>
</g>
<!-- Node2&#45;&gt;Node226 -->
<g id="edge12" class="edge">
<title>Node2&#45;&gt;Node226</title>
<path fill="none" stroke="midnightblue" d="M528.82,-313.6C510.44,-330.51 479.76,-356.4 449,-372 441.56,-375.77 433.25,-378.91 425.11,-381.46"/>
<polygon fill="midnightblue" stroke="midnightblue" points="531.23,-316.13 536.13,-306.74 526.44,-311.03 531.23,-316.13"/>
</g>
<!-- Node288 -->
<g id="node10" class="node">
<title>Node288</title>
<g id="a_node10"><a xlink:href="quickjs_8c.html#aeafb37b03b5560171754f8c4505b0f6b" target="_top" xlink:title=" ">
<polygon fill="none" stroke="red" points="337,-343.5 337,-362.5 427,-362.5 427,-343.5 337,-343.5"/>
<text text-anchor="middle" x="382" y="-350.5" font-family="Helvetica,sans-Serif" font-size="10.00">JS_ThrowError2</text>
</a>
</g>
</g>
<!-- Node2&#45;&gt;Node288 -->
<g id="edge14" class="edge">
<title>Node2&#45;&gt;Node288</title>
<path fill="none" stroke="midnightblue" d="M513.16,-310.32C494.49,-317.69 470.59,-326.79 449,-334 439.05,-337.32 428.14,-340.61 418.11,-343.49"/>
<polygon fill="midnightblue" stroke="midnightblue" points="514.68,-313.48 522.68,-306.53 512.09,-306.97 514.68,-313.48"/>
</g>
<!-- Node3&#45;&gt;Node3 -->
<g id="edge10" class="edge">
<title>Node3&#45;&gt;Node3</title>
<path fill="none" stroke="midnightblue" d="M412.69,-315.27C411.81,-320.74 401.58,-325 382,-325 352.85,-325 344.43,-315.57 356.72,-306.76"/>
<polygon fill="midnightblue" stroke="midnightblue" points="415.59,-313.32 407.28,-306.76 409.69,-317.07 415.59,-313.32"/>
</g>
<!-- Node4 -->
<g id="node4" class="node">
<title>Node4</title>
<g id="a_node4"><a xlink:href="quickjs_8c.html#ade71a22dc56e7371392393df663b28b3" target="_top" xlink:title=" ">
<polygon fill="none" stroke="red" points="151,-215.5 151,-234.5 264,-234.5 264,-215.5 151,-215.5"/>
<text text-anchor="middle" x="207.5" y="-222.5" font-family="Helvetica,sans-Serif" font-size="10.00">async_func_resume</text>
</a>
</g>
</g>
<!-- Node3&#45;&gt;Node4 -->
<g id="edge3" class="edge">
<title>Node3&#45;&gt;Node4</title>
<path fill="none" stroke="midnightblue" d="M328.51,-284.43C323.82,-282.55 319.24,-280.42 315,-278 295.89,-267.09 298.21,-254.74 279,-244 272.14,-240.16 264.47,-237.07 256.78,-234.59"/>
<polygon fill="midnightblue" stroke="midnightblue" points="327.64,-287.84 338.24,-287.92 330.01,-281.25 327.64,-287.84"/>
</g>
<!-- Node23 -->
<g id="node5" class="node">
<title>Node23</title>
<g id="a_node5"><a xlink:href="quickjs_8c.html#a1a4c02a29525d5cb2085dd8bca3af350" target="_top" xlink:title=" ">
<polygon fill="none" stroke="red" points="182.5,-329.5 182.5,-348.5 232.5,-348.5 232.5,-329.5 182.5,-329.5"/>
<text text-anchor="middle" x="207.5" y="-336.5" font-family="Helvetica,sans-Serif" font-size="10.00">JS_Call</text>
</a>
</g>
</g>
<!-- Node3&#45;&gt;Node23 -->
<g id="edge4" class="edge">
<title>Node3&#45;&gt;Node23</title>
<path fill="none" stroke="midnightblue" d="M328.28,-303.56C294.91,-310.69 253.61,-321.31 229.25,-329.37"/>
<polygon fill="midnightblue" stroke="midnightblue" points="329.28,-306.93 338.36,-301.47 327.86,-300.07 329.28,-306.93"/>
</g>
<!-- Node109 -->
<g id="node6" class="node">
<title>Node109</title>
<g id="a_node6"><a xlink:href="quickjs_8c.html#ad35594576a14c10812efaf958c99af8a" target="_top" xlink:title=" ">
<polygon fill="none" stroke="red" points="136,-291.5 136,-310.5 279,-310.5 279,-291.5 136,-291.5"/>
<text text-anchor="middle" x="207.5" y="-298.5" font-family="Helvetica,sans-Serif" font-size="10.00">JS_CallConstructorInternal</text>
</a>
</g>
</g>
<!-- Node3&#45;&gt;Node109 -->
<g id="edge6" class="edge">
<title>Node3&#45;&gt;Node109</title>
<path fill="none" stroke="midnightblue" d="M327.99,-291.95C312.58,-291.85 295.49,-292.12 279.18,-292.71"/>
<polygon fill="midnightblue" stroke="midnightblue" points="328.32,-295.45 338.36,-292.07 328.4,-288.45 328.32,-295.45"/>
</g>
<!-- Node123 -->
<g id="node7" class="node">
<title>Node123</title>
<g id="a_node7"><a xlink:href="quickjs_8c.html#a75f6ee5e4235a7dc99889f3d2eb2c147" target="_top" xlink:title=" ">
<polygon fill="none" stroke="red" points="172,-253.5 172,-272.5 243,-272.5 243,-253.5 172,-253.5"/>
<text text-anchor="middle" x="207.5" y="-260.5" font-family="Helvetica,sans-Serif" font-size="10.00">JS_CallFree</text>
</a>
</g>
</g>
<!-- Node3&#45;&gt;Node123 -->
<g id="edge8" class="edge">
<title>Node3&#45;&gt;Node123</title>
<path fill="none" stroke="midnightblue" d="M347.02,-284.8C317.04,-277.24 273.54,-268.65 243.31,-264.32"/>
<polygon fill="midnightblue" stroke="midnightblue" points="346.45,-288.27 357.01,-287.43 348.23,-281.5 346.45,-288.27"/>
</g>
<!-- Node23&#45;&gt;Node3 -->
<g id="edge5" class="edge">
<title>Node23&#45;&gt;Node3</title>
<path fill="none" stroke="midnightblue" d="M242.81,-336.16C277.98,-329.52 331.5,-316.17 360.53,-306.54"/>
<polygon fill="midnightblue" stroke="midnightblue" points="241.76,-332.79 232.53,-338 242.99,-339.69 241.76,-332.79"/>
</g>
<!-- Node109&#45;&gt;Node3 -->
<g id="edge7" class="edge">
<title>Node109&#45;&gt;Node3</title>
<path fill="none" stroke="midnightblue" d="M289.61,-305.86C306.46,-305.54 323.57,-304.87 338.36,-303.9"/>
<polygon fill="midnightblue" stroke="midnightblue" points="289.12,-302.37 279.18,-306.01 289.23,-309.36 289.12,-302.37"/>
</g>
<!-- Node123&#45;&gt;Node3 -->
<g id="edge9" class="edge">
<title>Node123&#45;&gt;Node3</title>
<path fill="none" stroke="midnightblue" d="M242.52,-275.21C270,-282.14 308.81,-289.92 338.36,-294.51"/>
<polygon fill="midnightblue" stroke="midnightblue" points="243.15,-271.75 232.59,-272.6 241.38,-278.52 243.15,-271.75"/>
</g>
<!-- Node226&#45;&gt;Node226 -->
<g id="edge13" class="edge">
<title>Node226&#45;&gt;Node226</title>
<path fill="none" stroke="midnightblue" d="M412.69,-409.27C411.81,-414.74 401.58,-419 382,-419 352.85,-419 344.43,-409.57 356.72,-400.76"/>
<polygon fill="midnightblue" stroke="midnightblue" points="415.59,-407.32 407.28,-400.76 409.69,-411.07 415.59,-407.32"/>
</g>
<!-- Node614&#45;&gt;Node615 -->
<g id="edge16" class="edge">
<title>Node614&#45;&gt;Node615</title>
<path fill="none" stroke="midnightblue" d="M494.97,-185.9C472.06,-191.24 445.4,-197.45 423.84,-202.48"/>
<polygon fill="midnightblue" stroke="midnightblue" points="495.92,-189.27 504.87,-183.59 494.33,-182.45 495.92,-189.27"/>
</g>
<!-- Node573 -->
<g id="node13" class="node">
<title>Node573</title>
<g id="a_node13"><a xlink:href="quickjs_8c.html#a97fcc747d8b1c3644174745d2e2739be" target="_top" xlink:title=" ">
<polygon fill="none" stroke="black" points="154.5,-159.5 154.5,-178.5 260.5,-178.5 260.5,-159.5 154.5,-159.5"/>
<text text-anchor="middle" x="207.5" y="-166.5" font-family="Helvetica,sans-Serif" font-size="10.00">js_create_function</text>
</a>
</g>
</g>
<!-- Node615&#45;&gt;Node573 -->
<g id="edge17" class="edge">
<title>Node615&#45;&gt;Node573</title>
<path fill="none" stroke="midnightblue" d="M332.99,-200.03C305.75,-193.24 272.11,-184.86 246.68,-178.52"/>
<polygon fill="midnightblue" stroke="midnightblue" points="332.17,-203.43 342.72,-202.46 333.86,-196.64 332.17,-203.43"/>
</g>
<!-- Node573&#45;&gt;Node573 -->
<g id="edge19" class="edge">
<title>Node573&#45;&gt;Node573</title>
<path fill="none" stroke="midnightblue" d="M236.62,-187.65C235.4,-192.94 225.7,-197 207.5,-197 179.77,-197 171.76,-187.57 183.46,-178.76"/>
<polygon fill="midnightblue" stroke="midnightblue" points="239.54,-185.71 231.54,-178.76 233.46,-189.18 239.54,-185.71"/>
</g>
<!-- Node85 -->
<g id="node14" class="node">
<title>Node85</title>
<g id="a_node14"><a xlink:href="quickjs_8c.html#a46a8a7e155cfd0af984f6725f060f0d6" target="_top" xlink:title=" ">
<polygon fill="none" stroke="red" points="0,-121.5 0,-140.5 100,-140.5 100,-121.5 0,-121.5"/>
<text text-anchor="middle" x="50" y="-128.5" font-family="Helvetica,sans-Serif" font-size="10.00">__JS_EvalInternal</text>
</a>
</g>
</g>
<!-- Node573&#45;&gt;Node85 -->
<g id="edge18" class="edge">
<title>Node573&#45;&gt;Node85</title>
<path fill="none" stroke="midnightblue" d="M157.53,-157.03C135.73,-151.71 110.43,-145.52 89.96,-140.52"/>
<polygon fill="midnightblue" stroke="midnightblue" points="156.72,-160.44 167.26,-159.41 158.38,-153.64 156.72,-160.44"/>
</g>
<!-- Node616&#45;&gt;Node85 -->
<g id="edge21" class="edge">
<title>Node616&#45;&gt;Node85</title>
<path fill="none" stroke="midnightblue" d="M478.65,-102.49C377.71,-109.22 189.55,-121.76 100.35,-127.71"/>
<polygon fill="midnightblue" stroke="midnightblue" points="478.99,-105.98 488.73,-101.82 478.52,-98.99 478.99,-105.98"/>
</g>
<!-- Node617 -->
<g id="node16" class="node">
<title>Node617</title>
<g id="a_node16"><a xlink:href="quickjs_8c.html#a63058dc37265af331214fa1eec1aebf8" target="_top" xlink:title=" ">
<polygon fill="none" stroke="black" points="316,-39 316,-69 448,-69 448,-39 316,-39"/>
<text text-anchor="start" x="324" y="-57" font-family="Helvetica,sans-Serif" font-size="10.00">js_parse_function_class</text>
<text text-anchor="middle" x="382" y="-46" font-family="Helvetica,sans-Serif" font-size="10.00">_fields_init</text>
</a>
</g>
</g>
<!-- Node616&#45;&gt;Node617 -->
<g id="edge22" class="edge">
<title>Node616&#45;&gt;Node617</title>
<path fill="none" stroke="midnightblue" d="M500.92,-85.83C481.7,-80.64 459.07,-74.54 438.81,-69.07"/>
<polygon fill="midnightblue" stroke="midnightblue" points="500.06,-89.23 510.63,-88.45 501.89,-82.47 500.06,-89.23"/>
</g>
<!-- Node231 -->
<g id="node18" class="node">
<title>Node231</title>
<g id="a_node18"><a xlink:href="quickjs_8c.html#acc9eb677cab8dfcf45f59381f8a19601" target="_top" xlink:title=" ">
<polygon fill="none" stroke="red" points="315,-126.5 315,-145.5 449,-145.5 449,-126.5 315,-126.5"/>
<text text-anchor="middle" x="382" y="-133.5" font-family="Helvetica,sans-Serif" font-size="10.00">js_parse_function_decl2</text>
</a>
</g>
</g>
<!-- Node616&#45;&gt;Node231 -->
<g id="edge24" class="edge">
<title>Node616&#45;&gt;Node231</title>
<path fill="none" stroke="midnightblue" d="M494.97,-109.9C472.06,-115.24 445.4,-121.45 423.84,-126.48"/>
<polygon fill="midnightblue" stroke="midnightblue" points="495.92,-113.27 504.87,-107.59 494.33,-106.45 495.92,-113.27"/>
</g>
<!-- Node618 -->
<g id="node17" class="node">
<title>Node618</title>
<g id="a_node17"><a xlink:href="quickjs_8c.html#a38e4107378b0d9abd638e4fe13541678" target="_top" xlink:title=" ">
<polygon fill="none" stroke="red" points="148.5,-44.5 148.5,-63.5 266.5,-63.5 266.5,-44.5 148.5,-44.5"/>
<text text-anchor="middle" x="207.5" y="-51.5" font-family="Helvetica,sans-Serif" font-size="10.00">emit_class_init_start</text>
</a>
</g>
</g>
<!-- Node617&#45;&gt;Node618 -->
<g id="edge23" class="edge">
<title>Node617&#45;&gt;Node618</title>
<path fill="none" stroke="midnightblue" d="M305.47,-54C292.48,-54 279.17,-54 266.73,-54"/>
<polygon fill="midnightblue" stroke="midnightblue" points="305.79,-57.5 315.79,-54 305.79,-50.5 305.79,-57.5"/>
</g>
<!-- Node620&#45;&gt;Node357 -->
<g id="edge27" class="edge">
<title>Node620&#45;&gt;Node357</title>
<path fill="none" stroke="midnightblue" d="M476.45,-11.72C460.68,-11.43 444.3,-11.13 429.75,-10.86"/>
<polygon fill="midnightblue" stroke="midnightblue" points="476.63,-15.22 486.69,-11.91 476.76,-8.22 476.63,-15.22"/>
</g>
<!-- Node572&#45;&gt;Node573 -->
<g id="edge30" class="edge">
<title>Node572&#45;&gt;Node573</title>
<path fill="none" stroke="midnightblue" d="M493.5,-147.63C479.13,-150.44 463.52,-153.16 449,-155 384.48,-163.16 309.6,-166.57 260.76,-167.99"/>
<polygon fill="midnightblue" stroke="midnightblue" points="494.59,-150.98 503.71,-145.57 493.21,-144.12 494.59,-150.98"/>
</g>
</g>
</svg>
