<?xml version="1.0" encoding="UTF-8" standalone="no"?>
<!DOCTYPE svg PUBLIC "-//W3C//DTD SVG 1.1//EN"
 "http://www.w3.org/Graphics/SVG/1.1/DTD/svg11.dtd">
<!-- Generated by graphviz version 2.43.0 (0)
 -->
<!-- Title: free_function_bytecode Pages: 1 -->
<svg width="544pt" height="66pt"
 viewBox="0.00 0.00 544.00 66.00" xmlns="http://www.w3.org/2000/svg" xmlns:xlink="http://www.w3.org/1999/xlink">
<g id="graph0" class="graph" transform="scale(1 1) rotate(0) translate(4 62)">
<title>free_function_bytecode</title>
<!-- Node1 -->
<g id="node1" class="node">
<title>Node1</title>
<g id="a_node1"><a xlink:title=" ">
<polygon fill="#bfbfbf" stroke="black" points="405,-19.5 405,-38.5 536,-38.5 536,-19.5 405,-19.5"/>
<text text-anchor="middle" x="470.5" y="-26.5" font-family="Helvetica,sans-Serif" font-size="10.00">free_function_bytecode</text>
</a>
</g>
</g>
<!-- Node2 -->
<g id="node2" class="node">
<title>Node2</title>
<g id="a_node2"><a xlink:href="quickjs_8c.html#a3d1c7a8d6aa5a9ba8ea8ef2828db188a" target="_top" xlink:title=" ">
<polygon fill="none" stroke="black" points="281,-19.5 281,-38.5 369,-38.5 369,-19.5 281,-19.5"/>
<text text-anchor="middle" x="325" y="-26.5" font-family="Helvetica,sans-Serif" font-size="10.00">free_gc_object</text>
</a>
</g>
</g>
<!-- Node1&#45;&gt;Node2 -->
<g id="edge1" class="edge">
<title>Node1&#45;&gt;Node2</title>
<path fill="none" stroke="midnightblue" d="M394.68,-29C385.99,-29 377.36,-29 369.3,-29"/>
<polygon fill="midnightblue" stroke="midnightblue" points="394.89,-32.5 404.89,-29 394.89,-25.5 394.89,-32.5"/>
</g>
<!-- Node3 -->
<g id="node3" class="node">
<title>Node3</title>
<g id="a_node3"><a xlink:href="quickjs_8c.html#a8defed3434f60d6b5d6a7ea202cc8f9d" target="_top" xlink:title=" ">
<polygon fill="none" stroke="black" points="137,-38.5 137,-57.5 245,-57.5 245,-38.5 137,-38.5"/>
<text text-anchor="middle" x="191" y="-45.5" font-family="Helvetica,sans-Serif" font-size="10.00">free_zero_refcount</text>
</a>
</g>
</g>
<!-- Node2&#45;&gt;Node3 -->
<g id="edge2" class="edge">
<title>Node2&#45;&gt;Node3</title>
<path fill="none" stroke="midnightblue" d="M270.65,-36.68C262.19,-37.9 253.45,-39.16 245,-40.37"/>
<polygon fill="midnightblue" stroke="midnightblue" points="271.38,-40.11 280.78,-35.22 270.38,-33.18 271.38,-40.11"/>
</g>
<!-- Node749 -->
<g id="node5" class="node">
<title>Node749</title>
<g id="a_node5"><a xlink:href="quickjs_8c.html#af7c53b26778d6b7e155fab5349a4585e" target="_top" xlink:title=" ">
<polygon fill="none" stroke="black" points="146.5,-0.5 146.5,-19.5 235.5,-19.5 235.5,-0.5 146.5,-0.5"/>
<text text-anchor="middle" x="191" y="-7.5" font-family="Helvetica,sans-Serif" font-size="10.00">gc_free_cycles</text>
</a>
</g>
</g>
<!-- Node2&#45;&gt;Node749 -->
<g id="edge4" class="edge">
<title>Node2&#45;&gt;Node749</title>
<path fill="none" stroke="midnightblue" d="M270.75,-21.34C259.13,-19.66 246.97,-17.91 235.77,-16.3"/>
<polygon fill="midnightblue" stroke="midnightblue" points="270.38,-24.82 280.78,-22.78 271.38,-17.89 270.38,-24.82"/>
</g>
<!-- Node4 -->
<g id="node4" class="node">
<title>Node4</title>
<g id="a_node4"><a xlink:href="quickjs_8c.html#ab1ea3fad7d138be12144a38be4d36423" target="_top" xlink:title=" ">
<polygon fill="none" stroke="red" points="0,-38.5 0,-57.5 101,-57.5 101,-38.5 0,-38.5"/>
<text text-anchor="middle" x="50.5" y="-45.5" font-family="Helvetica,sans-Serif" font-size="10.00">__JS_FreeValueRT</text>
</a>
</g>
</g>
<!-- Node3&#45;&gt;Node4 -->
<g id="edge3" class="edge">
<title>Node3&#45;&gt;Node4</title>
<path fill="none" stroke="midnightblue" d="M126.81,-48C118.19,-48 109.44,-48 101.1,-48"/>
<polygon fill="midnightblue" stroke="midnightblue" points="126.85,-51.5 136.85,-48 126.85,-44.5 126.85,-51.5"/>
</g>
<!-- Node750 -->
<g id="node6" class="node">
<title>Node750</title>
<g id="a_node6"><a xlink:href="quickjs_8c.html#aeeea589ee4cec4bbc3145210f4cf6e42" target="_top" xlink:title=" ">
<polygon fill="none" stroke="red" points="18.5,-0.5 18.5,-19.5 82.5,-19.5 82.5,-0.5 18.5,-0.5"/>
<text text-anchor="middle" x="50.5" y="-7.5" font-family="Helvetica,sans-Serif" font-size="10.00">JS_RunGC</text>
</a>
</g>
</g>
<!-- Node749&#45;&gt;Node750 -->
<g id="edge5" class="edge">
<title>Node749&#45;&gt;Node750</title>
<path fill="none" stroke="midnightblue" d="M136.05,-10C117.99,-10 98.48,-10 82.75,-10"/>
<polygon fill="midnightblue" stroke="midnightblue" points="136.18,-13.5 146.18,-10 136.18,-6.5 136.18,-13.5"/>
</g>
</g>
</svg>
