<?xml version="1.0" encoding="UTF-8" standalone="no"?>
<!DOCTYPE svg PUBLIC "-//W3C//DTD SVG 1.1//EN"
 "http://www.w3.org/Graphics/SVG/1.1/DTD/svg11.dtd">
<!-- Generated by graphviz version 2.43.0 (0)
 -->
<!-- Title: get_private_setter_name Pages: 1 -->
<svg width="690pt" height="394pt"
 viewBox="0.00 0.00 690.00 394.50" xmlns="http://www.w3.org/2000/svg" xmlns:xlink="http://www.w3.org/1999/xlink">
<g id="graph0" class="graph" transform="scale(1 1) rotate(0) translate(4 390.5)">
<title>get_private_setter_name</title>
<!-- Node1 -->
<g id="node1" class="node">
<title>Node1</title>
<g id="a_node1"><a xlink:title=" ">
<polygon fill="#bfbfbf" stroke="black" points="0,-253 0,-272 139,-272 139,-253 0,-253"/>
<text text-anchor="middle" x="69.5" y="-260" font-family="Helvetica,sans-Serif" font-size="10.00">get_private_setter_name</text>
</a>
</g>
</g>
<!-- Node2 -->
<g id="node2" class="node">
<title>Node2</title>
<g id="a_node2"><a xlink:href="quickjs_8c.html#aadfd9c31a6f69160c12e99b8d5eb5b3c" target="_top" xlink:title=" ">
<polygon fill="none" stroke="black" points="175,-253 175,-272 286,-272 286,-253 175,-253"/>
<text text-anchor="middle" x="230.5" y="-260" font-family="Helvetica,sans-Serif" font-size="10.00">js_atom_concat_str</text>
</a>
</g>
</g>
<!-- Node1&#45;&gt;Node2 -->
<g id="edge1" class="edge">
<title>Node1&#45;&gt;Node2</title>
<path fill="none" stroke="midnightblue" d="M139.31,-262.5C147.79,-262.5 156.43,-262.5 164.83,-262.5"/>
<polygon fill="midnightblue" stroke="midnightblue" points="164.95,-266 174.95,-262.5 164.95,-259 164.95,-266"/>
</g>
<!-- Node3 -->
<g id="node3" class="node">
<title>Node3</title>
<g id="a_node3"><a xlink:href="quickjs_8c.html#a260bfa297ff6cb5bd18e229afaa54663" target="_top" xlink:title=" ">
<polygon fill="none" stroke="black" points="322,-367 322,-386 418,-386 418,-367 322,-367"/>
<text text-anchor="middle" x="370" y="-374" font-family="Helvetica,sans-Serif" font-size="10.00">JS_AtomToString</text>
</a>
</g>
</g>
<!-- Node2&#45;&gt;Node3 -->
<g id="edge2" class="edge">
<title>Node2&#45;&gt;Node3</title>
<path fill="none" stroke="midnightblue" d="M238.42,-272.14C252.32,-290.91 285.45,-332.66 322,-357.5 324.69,-359.33 327.59,-361.03 330.57,-362.59"/>
<polygon fill="midnightblue" stroke="midnightblue" points="329.14,-365.79 339.68,-366.89 332.13,-359.46 329.14,-365.79"/>
</g>
<!-- Node16 -->
<g id="node5" class="node">
<title>Node16</title>
<g id="a_node5"><a xlink:href="quickjs_8c.html#a80e54dcf9ac687d4ccc2f90273565f30" target="_top" xlink:title=" ">
<polygon fill="none" stroke="red" points="345,-329 345,-348 395,-348 395,-329 345,-329"/>
<text text-anchor="middle" x="370" y="-336" font-family="Helvetica,sans-Serif" font-size="10.00">js_free</text>
</a>
</g>
</g>
<!-- Node2&#45;&gt;Node16 -->
<g id="edge4" class="edge">
<title>Node2&#45;&gt;Node16</title>
<path fill="none" stroke="midnightblue" d="M245.15,-272.18C262.49,-284.22 293.57,-304.94 322,-319.5 326.28,-321.69 330.87,-323.81 335.45,-325.79"/>
<polygon fill="midnightblue" stroke="midnightblue" points="334.14,-329.04 344.72,-329.64 336.83,-322.57 334.14,-329.04"/>
</g>
<!-- Node31 -->
<g id="node6" class="node">
<title>Node31</title>
<g id="a_node6"><a xlink:href="quickjs_8c.html#ae0bc4f65da64810facb2cb9e476eda2e" target="_top" xlink:title=" ">
<polygon fill="none" stroke="black" points="326.5,-291 326.5,-310 413.5,-310 413.5,-291 326.5,-291"/>
<text text-anchor="middle" x="370" y="-298" font-family="Helvetica,sans-Serif" font-size="10.00">JS_FreeCString</text>
</a>
</g>
</g>
<!-- Node2&#45;&gt;Node31 -->
<g id="edge5" class="edge">
<title>Node2&#45;&gt;Node31</title>
<path fill="none" stroke="midnightblue" d="M266.2,-272.09C283.87,-276.97 305.55,-282.96 324.44,-288.18"/>
<polygon fill="midnightblue" stroke="midnightblue" points="323.74,-291.62 334.31,-290.91 325.61,-284.87 323.74,-291.62"/>
</g>
<!-- Node32 -->
<g id="node7" class="node">
<title>Node32</title>
<g id="a_node7"><a xlink:href="quickjs_8h.html#afaa20c47565bc704c6c85f3d77254e7d" target="_top" xlink:title=" ">
<polygon fill="none" stroke="red" points="599,-253 599,-272 678,-272 678,-253 599,-253"/>
<text text-anchor="middle" x="638.5" y="-260" font-family="Helvetica,sans-Serif" font-size="10.00">JS_FreeValue</text>
</a>
</g>
</g>
<!-- Node2&#45;&gt;Node32 -->
<g id="edge7" class="edge">
<title>Node2&#45;&gt;Node32</title>
<path fill="none" stroke="midnightblue" d="M286.25,-262.5C365.84,-262.5 512.28,-262.5 588.5,-262.5"/>
<polygon fill="midnightblue" stroke="midnightblue" points="588.77,-266 598.77,-262.5 588.77,-259 588.77,-266"/>
</g>
<!-- Node68 -->
<g id="node8" class="node">
<title>Node68</title>
<g id="a_node8"><a xlink:href="quickjs_8h.html#ad80a83d73e9b7d872b88fbf2943aebe9" target="_top" xlink:title=" ">
<polygon fill="none" stroke="black" points="595,-177 595,-196 682,-196 682,-177 595,-177"/>
<text text-anchor="middle" x="638.5" y="-184" font-family="Helvetica,sans-Serif" font-size="10.00">JS_IsException</text>
</a>
</g>
</g>
<!-- Node2&#45;&gt;Node68 -->
<g id="edge8" class="edge">
<title>Node2&#45;&gt;Node68</title>
<path fill="none" stroke="midnightblue" d="M235.62,-252.7C246.7,-227.14 279.25,-157.13 322,-110.5 370.84,-57.22 385.21,-37.68 454,-15.5 498.41,-1.18 519.72,9.69 559,-15.5 612.08,-49.53 629.74,-129.47 635.22,-166.73"/>
<polygon fill="midnightblue" stroke="midnightblue" points="631.78,-167.37 636.56,-176.82 638.72,-166.45 631.78,-167.37"/>
</g>
<!-- Node69 -->
<g id="node9" class="node">
<title>Node69</title>
<g id="a_node9"><a xlink:href="quickjs_8c.html#a522741f41afb1d0da0aa55968cd8579e" target="_top" xlink:title=" ">
<polygon fill="none" stroke="black" points="322,-120 322,-139 418,-139 418,-120 322,-120"/>
<text text-anchor="middle" x="370" y="-127" font-family="Helvetica,sans-Serif" font-size="10.00">JS_NewAtomLen</text>
</a>
</g>
</g>
<!-- Node2&#45;&gt;Node69 -->
<g id="edge9" class="edge">
<title>Node2&#45;&gt;Node69</title>
<path fill="none" stroke="midnightblue" d="M241.39,-252.93C264.47,-230.61 322.13,-174.83 351.38,-146.54"/>
<polygon fill="midnightblue" stroke="midnightblue" points="354.08,-148.8 358.83,-139.33 349.21,-143.77 354.08,-148.8"/>
</g>
<!-- Node87 -->
<g id="node14" class="node">
<title>Node87</title>
<g id="a_node14"><a xlink:href="quickjs_8h.html#a1e7f56471f8608df9405987087a56070" target="_top" xlink:title=" ">
<polygon fill="none" stroke="black" points="323,-215 323,-234 417,-234 417,-215 323,-215"/>
<text text-anchor="middle" x="370" y="-222" font-family="Helvetica,sans-Serif" font-size="10.00">JS_ToCStringLen</text>
</a>
</g>
</g>
<!-- Node2&#45;&gt;Node87 -->
<g id="edge15" class="edge">
<title>Node2&#45;&gt;Node87</title>
<path fill="none" stroke="midnightblue" d="M266.2,-252.91C283.87,-248.02 305.55,-242.03 324.44,-236.81"/>
<polygon fill="midnightblue" stroke="midnightblue" points="325.61,-240.12 334.31,-234.08 323.74,-233.37 325.61,-240.12"/>
</g>
<!-- Node4 -->
<g id="node4" class="node">
<title>Node4</title>
<g id="a_node4"><a xlink:href="quickjs_8c.html#a06ff303a11e6641cbf1f6634e6a61811" target="_top" xlink:title=" ">
<polygon fill="none" stroke="red" points="454,-367 454,-386 559,-386 559,-367 454,-367"/>
<text text-anchor="middle" x="506.5" y="-374" font-family="Helvetica,sans-Serif" font-size="10.00">__JS_AtomToValue</text>
</a>
</g>
</g>
<!-- Node3&#45;&gt;Node4 -->
<g id="edge3" class="edge">
<title>Node3&#45;&gt;Node4</title>
<path fill="none" stroke="midnightblue" d="M418.04,-376.5C426.32,-376.5 435.04,-376.5 443.65,-376.5"/>
<polygon fill="midnightblue" stroke="midnightblue" points="443.67,-380 453.67,-376.5 443.67,-373 443.67,-380"/>
</g>
<!-- Node31&#45;&gt;Node32 -->
<g id="edge6" class="edge">
<title>Node31&#45;&gt;Node32</title>
<path fill="none" stroke="midnightblue" d="M413.64,-295.66C451.8,-291.19 509.24,-284.11 559,-276.5 568.65,-275.02 578.94,-273.3 588.78,-271.57"/>
<polygon fill="midnightblue" stroke="midnightblue" points="589.6,-274.98 598.83,-269.78 588.38,-268.09 589.6,-274.98"/>
</g>
<!-- Node69&#45;&gt;Node68 -->
<g id="edge12" class="edge">
<title>Node69&#45;&gt;Node68</title>
<path fill="none" stroke="midnightblue" d="M387.56,-139.04C403.89,-147.98 429.84,-160.91 454,-167.5 497.07,-179.24 547.64,-183.83 584.78,-185.57"/>
<polygon fill="midnightblue" stroke="midnightblue" points="584.74,-189.07 594.88,-185.99 585.03,-182.08 584.74,-189.07"/>
</g>
<!-- Node70 -->
<g id="node10" class="node">
<title>Node70</title>
<g id="a_node10"><a xlink:href="quickjs_8c.html#ac8c91ebeea0cf07e3079c49a16de739f" target="_top" xlink:title=" ">
<polygon fill="none" stroke="red" points="462.5,-139 462.5,-158 550.5,-158 550.5,-139 462.5,-139"/>
<text text-anchor="middle" x="506.5" y="-146" font-family="Helvetica,sans-Serif" font-size="10.00">__JS_FindAtom</text>
</a>
</g>
</g>
<!-- Node69&#45;&gt;Node70 -->
<g id="edge10" class="edge">
<title>Node69&#45;&gt;Node70</title>
<path fill="none" stroke="midnightblue" d="M418.04,-136.14C429.06,-137.7 440.88,-139.37 452.15,-140.96"/>
<polygon fill="midnightblue" stroke="midnightblue" points="451.92,-144.46 462.31,-142.4 452.9,-137.53 451.92,-144.46"/>
</g>
<!-- Node72 -->
<g id="node11" class="node">
<title>Node72</title>
<g id="a_node11"><a xlink:href="quickjs_8c.html#ab3ca6381d29dea396b12acd7f755c51a" target="_top" xlink:title=" ">
<polygon fill="none" stroke="black" points="480.5,-101 480.5,-120 532.5,-120 532.5,-101 480.5,-101"/>
<text text-anchor="middle" x="506.5" y="-108" font-family="Helvetica,sans-Serif" font-size="10.00">is_digit</text>
</a>
</g>
</g>
<!-- Node69&#45;&gt;Node72 -->
<g id="edge11" class="edge">
<title>Node69&#45;&gt;Node72</title>
<path fill="none" stroke="midnightblue" d="M418.04,-122.85C435.19,-120.43 454.28,-117.73 470.23,-115.48"/>
<polygon fill="midnightblue" stroke="midnightblue" points="470.8,-118.93 480.21,-114.07 469.82,-112 470.8,-118.93"/>
</g>
<!-- Node73 -->
<g id="node12" class="node">
<title>Node73</title>
<g id="a_node12"><a xlink:href="quickjs_8c.html#a33fd643aff7f70e649d246385cd99b00" target="_top" xlink:title=" ">
<polygon fill="none" stroke="red" points="460.5,-63 460.5,-82 552.5,-82 552.5,-63 460.5,-63"/>
<text text-anchor="middle" x="506.5" y="-70" font-family="Helvetica,sans-Serif" font-size="10.00">JS_NewAtomStr</text>
</a>
</g>
</g>
<!-- Node69&#45;&gt;Node73 -->
<g id="edge13" class="edge">
<title>Node69&#45;&gt;Node73</title>
<path fill="none" stroke="midnightblue" d="M390.94,-119.85C407.64,-111.9 432.17,-100.5 454,-91.5 458.78,-89.52 463.84,-87.54 468.86,-85.63"/>
<polygon fill="midnightblue" stroke="midnightblue" points="470.21,-88.85 478.36,-82.07 467.76,-82.3 470.21,-88.85"/>
</g>
<!-- Node9 -->
<g id="node13" class="node">
<title>Node9</title>
<g id="a_node13"><a xlink:href="quickjs_8c.html#ac34cc554aab1e98c45a7f845fff64385" target="_top" xlink:title=" ">
<polygon fill="none" stroke="red" points="457.5,-25 457.5,-44 555.5,-44 555.5,-25 457.5,-25"/>
<text text-anchor="middle" x="506.5" y="-32" font-family="Helvetica,sans-Serif" font-size="10.00">JS_NewStringLen</text>
</a>
</g>
</g>
<!-- Node69&#45;&gt;Node9 -->
<g id="edge14" class="edge">
<title>Node69&#45;&gt;Node9</title>
<path fill="none" stroke="midnightblue" d="M379.26,-119.8C393.22,-103.96 422.97,-72.41 454,-53.5 457.2,-51.55 460.63,-49.75 464.15,-48.1"/>
<polygon fill="midnightblue" stroke="midnightblue" points="465.73,-51.23 473.55,-44.09 462.98,-44.79 465.73,-51.23"/>
</g>
<!-- Node88 -->
<g id="node15" class="node">
<title>Node88</title>
<g id="a_node15"><a xlink:href="quickjs_8c.html#af49e67b73f845dc1f9c3ee648dd9f95c" target="_top" xlink:title=" ">
<polygon fill="none" stroke="red" points="456.5,-215 456.5,-234 556.5,-234 556.5,-215 456.5,-215"/>
<text text-anchor="middle" x="506.5" y="-222" font-family="Helvetica,sans-Serif" font-size="10.00">JS_ToCStringLen2</text>
</a>
</g>
</g>
<!-- Node87&#45;&gt;Node88 -->
<g id="edge16" class="edge">
<title>Node87&#45;&gt;Node88</title>
<path fill="none" stroke="midnightblue" d="M417.29,-224.5C426.65,-224.5 436.61,-224.5 446.35,-224.5"/>
<polygon fill="midnightblue" stroke="midnightblue" points="446.37,-228 456.37,-224.5 446.37,-221 446.37,-228"/>
</g>
<!-- Node88&#45;&gt;Node32 -->
<g id="edge17" class="edge">
<title>Node88&#45;&gt;Node32</title>
<path fill="none" stroke="midnightblue" d="M540.3,-234.09C556.78,-238.9 576.94,-244.8 594.63,-249.96"/>
<polygon fill="midnightblue" stroke="midnightblue" points="594.13,-253.46 604.71,-252.91 596.09,-246.75 594.13,-253.46"/>
</g>
<!-- Node88&#45;&gt;Node68 -->
<g id="edge18" class="edge">
<title>Node88&#45;&gt;Node68</title>
<path fill="none" stroke="midnightblue" d="M540.3,-214.91C556.78,-210.09 576.94,-204.2 594.63,-199.03"/>
<polygon fill="midnightblue" stroke="midnightblue" points="596.09,-202.25 604.71,-196.08 594.13,-195.53 596.09,-202.25"/>
</g>
</g>
</svg>
