<?xml version="1.0" encoding="UTF-8" standalone="no"?>
<!DOCTYPE svg PUBLIC "-//W3C//DTD SVG 1.1//EN"
 "http://www.w3.org/Graphics/SVG/1.1/DTD/svg11.dtd">
<!-- Generated by graphviz version 2.43.0 (0)
 -->
<!-- Title: peek_token Pages: 1 -->
<svg width="879pt" height="277pt"
 viewBox="0.00 0.00 879.00 277.00" xmlns="http://www.w3.org/2000/svg" xmlns:xlink="http://www.w3.org/1999/xlink">
<g id="graph0" class="graph" transform="scale(1 1) rotate(0) translate(4 273)">
<title>peek_token</title>
<!-- Node1 -->
<g id="node1" class="node">
<title>Node1</title>
<g id="a_node1"><a xlink:title=" ">
<polygon fill="#bfbfbf" stroke="black" points="798,-132.5 798,-151.5 871,-151.5 871,-132.5 798,-132.5"/>
<text text-anchor="middle" x="834.5" y="-139.5" font-family="Helvetica,sans-Serif" font-size="10.00">peek_token</text>
</a>
</g>
</g>
<!-- Node2 -->
<g id="node2" class="node">
<title>Node2</title>
<g id="a_node2"><a xlink:href="quickjs_8c.html#a48aae2fff87c2c80a0fe495d4dd4d9ab" target="_top" xlink:title=" ">
<polygon fill="none" stroke="black" points="666.5,-246.5 666.5,-265.5 720.5,-265.5 720.5,-246.5 666.5,-246.5"/>
<text text-anchor="middle" x="693.5" y="-253.5" font-family="Helvetica,sans-Serif" font-size="10.00">is_label</text>
</a>
</g>
</g>
<!-- Node1&#45;&gt;Node2 -->
<g id="edge1" class="edge">
<title>Node1&#45;&gt;Node2</title>
<path fill="none" stroke="midnightblue" d="M823.16,-160.46C810.98,-180.67 788.93,-212.75 762,-232 749.76,-240.75 734.01,-246.59 720.8,-250.32"/>
<polygon fill="midnightblue" stroke="midnightblue" points="826.32,-162 828.33,-151.6 820.27,-158.47 826.32,-162"/>
</g>
<!-- Node3 -->
<g id="node3" class="node">
<title>Node3</title>
<g id="a_node3"><a xlink:href="quickjs_8c.html#a9d844c16dcc71701436848074337d32c" target="_top" xlink:title=" ">
<polygon fill="none" stroke="black" points="476,-209 476,-239 589,-239 589,-209 476,-209"/>
<text text-anchor="start" x="484" y="-227" font-family="Helvetica,sans-Serif" font-size="10.00">js_parse_statement</text>
<text text-anchor="middle" x="532.5" y="-216" font-family="Helvetica,sans-Serif" font-size="10.00">_or_decl</text>
</a>
</g>
</g>
<!-- Node1&#45;&gt;Node3 -->
<g id="edge18" class="edge">
<title>Node1&#45;&gt;Node3</title>
<path fill="none" stroke="midnightblue" d="M816.23,-158.42C802.61,-170.36 782.54,-185.8 762,-194 706.07,-216.32 636.93,-222.76 589.44,-224.28"/>
<polygon fill="midnightblue" stroke="midnightblue" points="818.77,-160.85 823.83,-151.54 814.07,-155.66 818.77,-160.85"/>
</g>
<!-- Node5 -->
<g id="node5" class="node">
<title>Node5</title>
<g id="a_node5"><a xlink:href="quickjs_8c.html#ab59a3267a100decc9d2d81eb3297794a" target="_top" xlink:title=" ">
<polygon fill="none" stroke="red" points="300,-170.5 300,-189.5 440,-189.5 440,-170.5 300,-170.5"/>
<text text-anchor="middle" x="370" y="-177.5" font-family="Helvetica,sans-Serif" font-size="10.00">js_parse_source_element</text>
</a>
</g>
</g>
<!-- Node1&#45;&gt;Node5 -->
<g id="edge17" class="edge">
<title>Node1&#45;&gt;Node5</title>
<path fill="none" stroke="midnightblue" d="M787.81,-151.88C779.27,-153.46 770.39,-154.93 762,-156 649.85,-170.36 518.46,-176.19 440.12,-178.51"/>
<polygon fill="midnightblue" stroke="midnightblue" points="788.49,-155.31 797.64,-149.98 787.16,-148.44 788.49,-155.31"/>
</g>
<!-- Node6 -->
<g id="node6" class="node">
<title>Node6</title>
<g id="a_node6"><a xlink:href="quickjs_8c.html#acc9eb677cab8dfcf45f59381f8a19601" target="_top" xlink:title=" ">
<polygon fill="none" stroke="red" points="130,-132.5 130,-151.5 264,-151.5 264,-132.5 130,-132.5"/>
<text text-anchor="middle" x="197" y="-139.5" font-family="Helvetica,sans-Serif" font-size="10.00">js_parse_function_decl2</text>
</a>
</g>
</g>
<!-- Node1&#45;&gt;Node6 -->
<g id="edge13" class="edge">
<title>Node1&#45;&gt;Node6</title>
<path fill="none" stroke="midnightblue" d="M787.79,-142C676.92,-142 393.32,-142 264.03,-142"/>
<polygon fill="midnightblue" stroke="midnightblue" points="787.97,-145.5 797.97,-142 787.97,-138.5 787.97,-145.5"/>
</g>
<!-- Node8 -->
<g id="node7" class="node">
<title>Node8</title>
<g id="a_node7"><a xlink:href="quickjs_8c.html#a498e1d5c7de1b59c1630e9847cde1e41" target="_top" xlink:title=" ">
<polygon fill="none" stroke="black" points="0,-132.5 0,-151.5 94,-151.5 94,-132.5 0,-132.5"/>
<text text-anchor="middle" x="47" y="-139.5" font-family="Helvetica,sans-Serif" font-size="10.00">js_parse_export</text>
</a>
</g>
</g>
<!-- Node1&#45;&gt;Node8 -->
<g id="edge12" class="edge">
<title>Node1&#45;&gt;Node8</title>
<path fill="none" stroke="midnightblue" d="M787.61,-132.54C728.95,-121.28 624.13,-104 533.5,-104 533.5,-104 533.5,-104 369,-104 262.44,-104 235.3,-106.71 130,-123 114.84,-125.35 98.32,-128.96 84.1,-132.42"/>
<polygon fill="midnightblue" stroke="midnightblue" points="787.18,-136.02 797.67,-134.49 788.52,-129.15 787.18,-136.02"/>
</g>
<!-- Node9 -->
<g id="node9" class="node">
<title>Node9</title>
<g id="a_node9"><a xlink:href="quickjs_8c.html#a840642c87c5a82d4cc68333376a3b6de" target="_top" xlink:title=" ">
<polygon fill="none" stroke="red" points="632.5,-38.5 632.5,-57.5 754.5,-57.5 754.5,-38.5 632.5,-38.5"/>
<text text-anchor="middle" x="693.5" y="-45.5" font-family="Helvetica,sans-Serif" font-size="10.00">js_parse_postfix_expr</text>
</a>
</g>
</g>
<!-- Node1&#45;&gt;Node9 -->
<g id="edge14" class="edge">
<title>Node1&#45;&gt;Node9</title>
<path fill="none" stroke="midnightblue" d="M812.71,-126.27C798.59,-115.74 779.4,-101.72 762,-90 744.71,-78.36 724.34,-65.84 710.53,-57.53"/>
<polygon fill="midnightblue" stroke="midnightblue" points="810.68,-129.12 820.78,-132.32 814.88,-123.52 810.68,-129.12"/>
</g>
<!-- Node26 -->
<g id="node10" class="node">
<title>Node26</title>
<g id="a_node10"><a xlink:href="quickjs_8c.html#a42234753f3193f37ce45b3c0ca4c25cd" target="_top" xlink:title=" ">
<polygon fill="none" stroke="red" points="625,-0.5 625,-19.5 762,-19.5 762,-0.5 625,-0.5"/>
<text text-anchor="middle" x="693.5" y="-7.5" font-family="Helvetica,sans-Serif" font-size="10.00">js_parse_property_name</text>
</a>
</g>
</g>
<!-- Node1&#45;&gt;Node26 -->
<g id="edge16" class="edge">
<title>Node1&#45;&gt;Node26</title>
<path fill="none" stroke="midnightblue" d="M826.49,-122.89C816.24,-97.61 794.74,-53.4 762,-29 756.83,-25.14 750.9,-22.07 744.76,-19.62"/>
<polygon fill="midnightblue" stroke="midnightblue" points="823.32,-124.4 830.2,-132.46 829.85,-121.87 823.32,-124.4"/>
</g>
<!-- Node2&#45;&gt;Node3 -->
<g id="edge2" class="edge">
<title>Node2&#45;&gt;Node3</title>
<path fill="none" stroke="midnightblue" d="M656.38,-248.73C636.52,-244.73 611.46,-239.69 589.16,-235.2"/>
<polygon fill="midnightblue" stroke="midnightblue" points="655.75,-252.17 666.24,-250.72 657.13,-245.31 655.75,-252.17"/>
</g>
<!-- Node3&#45;&gt;Node3 -->
<g id="edge11" class="edge">
<title>Node3&#45;&gt;Node3</title>
<path fill="none" stroke="midnightblue" d="M560.93,-249.46C557.4,-254.18 547.92,-257.5 532.5,-257.5 507.19,-257.5 497.89,-248.56 504.62,-239.16"/>
<polygon fill="midnightblue" stroke="midnightblue" points="564.41,-248.96 560.38,-239.16 557.42,-249.33 564.41,-248.96"/>
</g>
<!-- Node4 -->
<g id="node4" class="node">
<title>Node4</title>
<g id="a_node4"><a xlink:href="quickjs_8c.html#acc0cac53be5317d9cab6a79afcd7da48" target="_top" xlink:title=" ">
<polygon fill="none" stroke="black" points="325.5,-249.5 325.5,-268.5 414.5,-268.5 414.5,-249.5 325.5,-249.5"/>
<text text-anchor="middle" x="370" y="-256.5" font-family="Helvetica,sans-Serif" font-size="10.00">js_parse_block</text>
</a>
</g>
</g>
<!-- Node3&#45;&gt;Node4 -->
<g id="edge3" class="edge">
<title>Node3&#45;&gt;Node4</title>
<path fill="none" stroke="midnightblue" d="M465.94,-231.65C439.83,-236.98 411.58,-243.76 392.74,-249.46"/>
<polygon fill="midnightblue" stroke="midnightblue" points="466.69,-235.07 475.82,-229.68 465.32,-228.2 466.69,-235.07"/>
</g>
<!-- Node3&#45;&gt;Node5 -->
<g id="edge5" class="edge">
<title>Node3&#45;&gt;Node5</title>
<path fill="none" stroke="midnightblue" d="M466.95,-206.3C446.11,-200.59 423.8,-194.47 405.94,-189.58"/>
<polygon fill="midnightblue" stroke="midnightblue" points="466.14,-209.71 476.71,-208.98 468,-202.96 466.14,-209.71"/>
</g>
<!-- Node38 -->
<g id="node8" class="node">
<title>Node38</title>
<g id="a_node8"><a xlink:href="quickjs_8c.html#a729d43e44d20f1ed655cd9f4843995d3" target="_top" xlink:title=" ">
<polygon fill="none" stroke="red" points="313.5,-211.5 313.5,-230.5 426.5,-230.5 426.5,-211.5 313.5,-211.5"/>
<text text-anchor="middle" x="370" y="-218.5" font-family="Helvetica,sans-Serif" font-size="10.00">js_parse_statement</text>
</a>
</g>
</g>
<!-- Node3&#45;&gt;Node38 -->
<g id="edge9" class="edge">
<title>Node3&#45;&gt;Node38</title>
<path fill="none" stroke="midnightblue" d="M465.57,-216.11C452.62,-215.7 439.16,-215.51 426.59,-215.58"/>
<polygon fill="midnightblue" stroke="midnightblue" points="465.69,-219.62 475.82,-216.5 465.95,-212.63 465.69,-219.62"/>
</g>
<!-- Node4&#45;&gt;Node3 -->
<g id="edge4" class="edge">
<title>Node4&#45;&gt;Node3</title>
<path fill="none" stroke="midnightblue" d="M424.63,-253.71C446,-249.62 470.2,-244.2 490.17,-239"/>
<polygon fill="midnightblue" stroke="midnightblue" points="423.91,-250.29 414.72,-255.55 425.19,-257.17 423.91,-250.29"/>
</g>
<!-- Node5&#45;&gt;Node6 -->
<g id="edge6" class="edge">
<title>Node5&#45;&gt;Node6</title>
<path fill="none" stroke="midnightblue" d="M315.79,-168.18C291.68,-162.82 263.56,-156.57 240.84,-151.52"/>
<polygon fill="midnightblue" stroke="midnightblue" points="315.33,-171.66 325.85,-170.41 316.85,-164.82 315.33,-171.66"/>
</g>
<!-- Node6&#45;&gt;Node8 -->
<g id="edge7" class="edge">
<title>Node6&#45;&gt;Node8</title>
<path fill="none" stroke="midnightblue" d="M119.62,-142C110.96,-142 102.33,-142 94.23,-142"/>
<polygon fill="midnightblue" stroke="midnightblue" points="119.79,-145.5 129.79,-142 119.79,-138.5 119.79,-145.5"/>
</g>
<!-- Node8&#45;&gt;Node5 -->
<g id="edge8" class="edge">
<title>Node8&#45;&gt;Node5</title>
<path fill="none" stroke="midnightblue" d="M94.08,-153.94C105.73,-156.61 118.27,-159.19 130,-161 186.87,-169.8 252.02,-174.64 299.92,-177.22"/>
<polygon fill="midnightblue" stroke="midnightblue" points="94.64,-150.48 84.1,-151.58 93.03,-157.29 94.64,-150.48"/>
</g>
<!-- Node38&#45;&gt;Node3 -->
<g id="edge10" class="edge">
<title>Node38&#45;&gt;Node3</title>
<path fill="none" stroke="midnightblue" d="M436.83,-228.88C449.78,-229.3 463.24,-229.49 475.82,-229.42"/>
<polygon fill="midnightblue" stroke="midnightblue" points="436.71,-225.38 426.59,-228.5 436.45,-232.37 436.71,-225.38"/>
</g>
<!-- Node9&#45;&gt;Node9 -->
<g id="edge15" class="edge">
<title>Node9&#45;&gt;Node9</title>
<path fill="none" stroke="midnightblue" d="M719.54,-67.03C718.12,-72.13 709.44,-76 693.5,-76 668.62,-76 661.42,-66.57 671.92,-57.76"/>
<polygon fill="midnightblue" stroke="midnightblue" points="722.57,-65.25 715.08,-57.76 716.26,-68.29 722.57,-65.25"/>
</g>
</g>
</svg>
