<?xml version="1.0" encoding="UTF-8" standalone="no"?>
<!DOCTYPE svg PUBLIC "-//W3C//DTD SVG 1.1//EN"
 "http://www.w3.org/Graphics/SVG/1.1/DTD/svg11.dtd">
<!-- Generated by graphviz version 2.43.0 (0)
 -->
<!-- Title: js_create_typed_array_iterator Pages: 1 -->
<!--zoomable 496 -->
<svg id="main" version="1.1" xmlns="http://www.w3.org/2000/svg" xmlns:xlink="http://www.w3.org/1999/xlink" xml:space="preserve" onload="init(evt)">
<style type="text/css"><![CDATA[
.edge:hover path { stroke: red; }
.edge:hover polygon { stroke: red; fill: red; }
]]></style>
<script type="text/javascript"><![CDATA[
var edges = document.getElementsByTagName('g');
if (edges && edges.length) {
  for (var i=0;i<edges.length;i++) {
    if (edges[i].id.substr(0,4)=='edge') {
      edges[i].setAttribute('class','edge');
    }
  }
}
]]></script>
        <defs>
                <circle id="rim" cx="0" cy="0" r="7"/>
                <circle id="rim2" cx="0" cy="0" r="3.5"/>
                <g id="zoomPlus">
                        <use xlink:href="#rim" fill="#404040">
                                <set attributeName="fill" to="#808080" begin="zoomplus.mouseover" end="zoomplus.mouseout"/>
                        </use>
                        <path d="M-4,0h8M0,-4v8" fill="none" stroke="white" stroke-width="1.5" pointer-events="none"/>
                </g>
                <g id="zoomMin">
                        <use xlink:href="#rim" fill="#404040">
                                <set attributeName="fill" to="#808080" begin="zoomminus.mouseover" end="zoomminus.mouseout"/>
                        </use>
                        <path d="M-4,0h8" fill="none" stroke="white" stroke-width="1.5" pointer-events="none"/>
                </g>
                <g id="dirArrow">
                        <path fill="none" stroke="white" stroke-width="1.5" d="M0,-3.0v7 M-2.5,-0.5L0,-3.0L2.5,-0.5"/>
                </g>
               <g id="resetDef">
                       <use xlink:href="#rim2" fill="#404040">
                               <set attributeName="fill" to="#808080" begin="reset.mouseover" end="reset.mouseout"/>
                       </use>
               </g>
        </defs>

<script type="text/javascript">
var viewWidth = 955;
var viewHeight = 496;
var sectionId = 'dynsection-1874';
</script>
<script xlink:href="svgpan.js"/>
<svg id="graph" class="graph">
<g id="viewport">
<title>js_create_typed_array_iterator</title>
<!-- Node1 -->
<g id="node1" class="node">
<title>Node1</title>
<g id="a_node1"><a xlink:title=" ">
<polygon fill="#bfbfbf" stroke="black" points="0,-194 0,-224 125,-224 125,-194 0,-194"/>
<text text-anchor="start" x="8" y="-212" font-family="Helvetica,sans-Serif" font-size="10.00">js_create_typed_array</text>
<text text-anchor="middle" x="62.5" y="-201" font-family="Helvetica,sans-Serif" font-size="10.00">_iterator</text>
</a>
</g>
</g>
<!-- Node2 -->
<g id="node2" class="node">
<title>Node2</title>
<g id="a_node2"><a xlink:href="quickjs_8c.html#a4e9176ba046f72bfa8c511cbe58242e8" target="_top" xlink:title=" ">
<polygon fill="none" stroke="black" points="161,-354.5 161,-373.5 294,-373.5 294,-354.5 161,-354.5"/>
<text text-anchor="middle" x="227.5" y="-361.5" font-family="Helvetica,sans-Serif" font-size="10.00">js_create_array_iterator</text>
</a>
</g>
</g>
<!-- Node1&#45;&gt;Node2 -->
<g id="edge1" class="edge">
<title>Node1&#45;&gt;Node2</title>
<path fill="none" stroke="midnightblue" d="M79.43,-224.14C110.15,-253.36 177.36,-317.27 209.16,-347.51"/>
<polygon fill="midnightblue" stroke="midnightblue" points="206.78,-350.08 216.44,-354.44 211.61,-345.01 206.78,-350.08"/>
</g>
<!-- Node436 -->
<g id="node16" class="node">
<title>Node436</title>
<g id="a_node16"><a xlink:href="quickjs_8c.html#a997c03968a234b51305ddb93c80a4b97" target="_top" xlink:title=" ">
<polygon fill="none" stroke="black" points="167.5,-66.5 167.5,-85.5 287.5,-85.5 287.5,-66.5 167.5,-66.5"/>
<text text-anchor="middle" x="227.5" y="-73.5" font-family="Helvetica,sans-Serif" font-size="10.00">validate_typed_array</text>
</a>
</g>
</g>
<!-- Node1&#45;&gt;Node436 -->
<g id="edge20" class="edge">
<title>Node1&#45;&gt;Node436</title>
<path fill="none" stroke="midnightblue" d="M82.2,-193.74C113.08,-168.55 174.48,-118.45 206.31,-92.47"/>
<polygon fill="midnightblue" stroke="midnightblue" points="208.92,-94.86 214.46,-85.83 204.5,-89.44 208.92,-94.86"/>
</g>
<!-- Node3 -->
<g id="node3" class="node">
<title>Node3</title>
<g id="a_node3"><a xlink:href="quickjs_8h.html#afaa20c47565bc704c6c85f3d77254e7d" target="_top" xlink:title=" ">
<polygon fill="none" stroke="black" points="714.5,-316.5 714.5,-335.5 793.5,-335.5 793.5,-316.5 714.5,-316.5"/>
<text text-anchor="middle" x="754" y="-323.5" font-family="Helvetica,sans-Serif" font-size="10.00">JS_FreeValue</text>
</a>
</g>
</g>
<!-- Node2&#45;&gt;Node3 -->
<g id="edge2" class="edge">
<title>Node2&#45;&gt;Node3</title>
<path fill="none" stroke="midnightblue" d="M294.07,-363.83C377.15,-362.97 524.64,-359.32 650,-345 667.65,-342.98 686.84,-339.74 703.81,-336.5"/>
<polygon fill="midnightblue" stroke="midnightblue" points="704.92,-339.85 714.06,-334.49 703.58,-332.98 704.92,-339.85"/>
</g>
<!-- Node41 -->
<g id="node5" class="node">
<title>Node41</title>
<g id="a_node5"><a xlink:href="quickjs_8h.html#ad80a83d73e9b7d872b88fbf2943aebe9" target="_top" xlink:title=" ">
<polygon fill="none" stroke="black" points="710.5,-164.5 710.5,-183.5 797.5,-183.5 797.5,-164.5 710.5,-164.5"/>
<text text-anchor="middle" x="754" y="-171.5" font-family="Helvetica,sans-Serif" font-size="10.00">JS_IsException</text>
</a>
</g>
</g>
<!-- Node2&#45;&gt;Node41 -->
<g id="edge4" class="edge">
<title>Node2&#45;&gt;Node41</title>
<path fill="none" stroke="midnightblue" d="M237.27,-354.34C270.02,-319.15 389.92,-198.17 519,-165 579.71,-149.4 652.18,-155.86 700.21,-163.46"/>
<polygon fill="midnightblue" stroke="midnightblue" points="699.94,-166.96 710.38,-165.14 701.08,-160.06 699.94,-166.96"/>
</g>
<!-- Node42 -->
<g id="node6" class="node">
<title>Node42</title>
<g id="a_node6"><a xlink:href="quickjs_8c.html#a659dc0db7e440fd6eb012d613627faa3" target="_top" xlink:title=" ">
<polygon fill="none" stroke="black" points="529.5,-392.5 529.5,-411.5 639.5,-411.5 639.5,-392.5 529.5,-392.5"/>
<text text-anchor="middle" x="584.5" y="-399.5" font-family="Helvetica,sans-Serif" font-size="10.00">JS_NewObjectClass</text>
</a>
</g>
</g>
<!-- Node2&#45;&gt;Node42 -->
<g id="edge5" class="edge">
<title>Node2&#45;&gt;Node42</title>
<path fill="none" stroke="midnightblue" d="M294.24,-373.48C306.13,-375.08 318.43,-376.65 330,-378 394.09,-385.45 467.49,-392.21 518.76,-396.64"/>
<polygon fill="midnightblue" stroke="midnightblue" points="518.77,-400.15 529.03,-397.52 519.37,-393.18 518.77,-400.15"/>
</g>
<!-- Node88 -->
<g id="node8" class="node">
<title>Node88</title>
<g id="a_node8"><a xlink:href="quickjs_8c.html#a0ddf716409e51648f0d59e7521150d19" target="_top" xlink:title=" ">
<polygon fill="none" stroke="black" points="364.5,-430.5 364.5,-449.5 448.5,-449.5 448.5,-430.5 364.5,-430.5"/>
<text text-anchor="middle" x="406.5" y="-437.5" font-family="Helvetica,sans-Serif" font-size="10.00">JS_SetOpaque</text>
</a>
</g>
</g>
<!-- Node2&#45;&gt;Node88 -->
<g id="edge7" class="edge">
<title>Node2&#45;&gt;Node88</title>
<path fill="none" stroke="midnightblue" d="M244.98,-373.52C264.74,-384.68 299.06,-403.26 330,-416 340.02,-420.13 351.03,-423.99 361.47,-427.36"/>
<polygon fill="midnightblue" stroke="midnightblue" points="360.66,-430.77 371.25,-430.42 362.75,-424.09 360.66,-430.77"/>
</g>
<!-- Node89 -->
<g id="node9" class="node">
<title>Node89</title>
<g id="a_node9"><a xlink:href="quickjs_8c.html#a710289a14c2810467e5b448d3c28bd55" target="_top" xlink:title=" ">
<polygon fill="none" stroke="black" points="370,-278.5 370,-297.5 443,-297.5 443,-278.5 370,-278.5"/>
<text text-anchor="middle" x="406.5" y="-285.5" font-family="Helvetica,sans-Serif" font-size="10.00">JS_ToObject</text>
</a>
</g>
</g>
<!-- Node2&#45;&gt;Node89 -->
<g id="edge8" class="edge">
<title>Node2&#45;&gt;Node89</title>
<path fill="none" stroke="midnightblue" d="M250.92,-354.37C282.04,-341.01 338.49,-316.77 373.88,-301.58"/>
<polygon fill="midnightblue" stroke="midnightblue" points="375.46,-304.71 383.26,-297.55 372.7,-298.28 375.46,-304.71"/>
</g>
<!-- Node435 -->
<g id="node14" class="node">
<title>Node435</title>
<g id="a_node14"><a xlink:href="quickjs_8c.html#a4d1d0760c9f9efcb8c0a8db414e46c8a" target="_top" xlink:title=" ">
<polygon fill="none" stroke="black" points="341,-468.5 341,-487.5 472,-487.5 472,-468.5 341,-468.5"/>
<text text-anchor="middle" x="406.5" y="-475.5" font-family="Helvetica,sans-Serif" font-size="10.00">JS_ToStringCheckObject</text>
</a>
</g>
</g>
<!-- Node2&#45;&gt;Node435 -->
<g id="edge18" class="edge">
<title>Node2&#45;&gt;Node435</title>
<path fill="none" stroke="midnightblue" d="M236,-373.77C251.42,-393.14 288.68,-436.46 330,-459 334.23,-461.31 338.74,-463.34 343.38,-465.13"/>
<polygon fill="midnightblue" stroke="midnightblue" points="342.42,-468.5 353.02,-468.47 344.72,-461.89 342.42,-468.5"/>
</g>
<!-- Node4 -->
<g id="node4" class="node">
<title>Node4</title>
<g id="a_node4"><a xlink:href="quickjs_8c.html#aa059f309c30fd5166d16c82a97973146" target="_top" xlink:title=" ">
<polygon fill="none" stroke="red" points="858,-316.5 858,-335.5 947,-335.5 947,-316.5 858,-316.5"/>
<text text-anchor="middle" x="902.5" y="-323.5" font-family="Helvetica,sans-Serif" font-size="10.00">__JS_FreeValue</text>
</a>
</g>
</g>
<!-- Node3&#45;&gt;Node4 -->
<g id="edge3" class="edge">
<title>Node3&#45;&gt;Node4</title>
<path fill="none" stroke="midnightblue" d="M793.87,-326C810.31,-326 829.74,-326 847.53,-326"/>
<polygon fill="midnightblue" stroke="midnightblue" points="847.79,-329.5 857.79,-326 847.79,-322.5 847.79,-329.5"/>
</g>
<!-- Node43 -->
<g id="node7" class="node">
<title>Node43</title>
<g id="a_node7"><a xlink:href="quickjs_8c.html#a73738c650f11459db0d7af3dcdf8316b" target="_top" xlink:title=" ">
<polygon fill="none" stroke="red" points="686,-392.5 686,-411.5 822,-411.5 822,-392.5 686,-392.5"/>
<text text-anchor="middle" x="754" y="-399.5" font-family="Helvetica,sans-Serif" font-size="10.00">JS_NewObjectProtoClass</text>
</a>
</g>
</g>
<!-- Node42&#45;&gt;Node43 -->
<g id="edge6" class="edge">
<title>Node42&#45;&gt;Node43</title>
<path fill="none" stroke="midnightblue" d="M639.88,-402C651.3,-402 663.55,-402 675.63,-402"/>
<polygon fill="midnightblue" stroke="midnightblue" points="675.71,-405.5 685.71,-402 675.71,-398.5 675.71,-405.5"/>
</g>
<!-- Node89&#45;&gt;Node41 -->
<g id="edge12" class="edge">
<title>Node89&#45;&gt;Node41</title>
<path fill="none" stroke="midnightblue" d="M415.16,-278.25C431.64,-258.11 472.73,-212.2 519,-193 577.52,-168.72 651.25,-166.92 700.14,-169.25"/>
<polygon fill="midnightblue" stroke="midnightblue" points="700,-172.75 710.18,-169.81 700.39,-165.76 700,-172.75"/>
</g>
<!-- Node89&#45;&gt;Node42 -->
<g id="edge14" class="edge">
<title>Node89&#45;&gt;Node42</title>
<path fill="none" stroke="midnightblue" d="M422.2,-297.52C452.67,-317.26 522.92,-362.76 559.84,-386.68"/>
<polygon fill="midnightblue" stroke="midnightblue" points="558.17,-389.76 568.47,-392.26 561.98,-383.89 558.17,-389.76"/>
</g>
<!-- Node90 -->
<g id="node10" class="node">
<title>Node90</title>
<g id="a_node10"><a xlink:href="quickjs_8c.html#a0a8765bd4012467d9139bc24aabcb3ca" target="_top" xlink:title=" ">
<polygon fill="none" stroke="red" points="519,-316.5 519,-335.5 650,-335.5 650,-316.5 519,-316.5"/>
<text text-anchor="middle" x="584.5" y="-323.5" font-family="Helvetica,sans-Serif" font-size="10.00">JS_DefinePropertyValue</text>
</a>
</g>
</g>
<!-- Node89&#45;&gt;Node90 -->
<g id="edge9" class="edge">
<title>Node89&#45;&gt;Node90</title>
<path fill="none" stroke="midnightblue" d="M443.12,-295.69C467.81,-301.02 501.15,-308.22 529.14,-314.26"/>
<polygon fill="midnightblue" stroke="midnightblue" points="528.67,-317.74 539.19,-316.43 530.15,-310.9 528.67,-317.74"/>
</g>
<!-- Node54 -->
<g id="node11" class="node">
<title>Node54</title>
<g id="a_node11"><a xlink:href="quickjs_8h.html#a775522f2d084fc8fa0fcb33f390006b4" target="_top" xlink:title=" ">
<polygon fill="none" stroke="black" points="546,-240.5 546,-259.5 623,-259.5 623,-240.5 546,-240.5"/>
<text text-anchor="middle" x="584.5" y="-247.5" font-family="Helvetica,sans-Serif" font-size="10.00">JS_DupValue</text>
</a>
</g>
</g>
<!-- Node89&#45;&gt;Node54 -->
<g id="edge11" class="edge">
<title>Node89&#45;&gt;Node54</title>
<path fill="none" stroke="midnightblue" d="M443.12,-280.31C469.8,-274.55 506.59,-266.61 535.82,-260.3"/>
<polygon fill="midnightblue" stroke="midnightblue" points="536.77,-263.67 545.81,-258.14 535.29,-256.83 536.77,-263.67"/>
</g>
<!-- Node72 -->
<g id="node12" class="node">
<title>Node72</title>
<g id="a_node12"><a xlink:href="quickjs_8h.html#a2050bc428da1c65ac7eb87c3fa3b0392" target="_top" xlink:title=" ">
<polygon fill="none" stroke="black" points="546,-278.5 546,-297.5 623,-297.5 623,-278.5 546,-278.5"/>
<text text-anchor="middle" x="584.5" y="-285.5" font-family="Helvetica,sans-Serif" font-size="10.00">JS_NewInt32</text>
</a>
</g>
</g>
<!-- Node89&#45;&gt;Node72 -->
<g id="edge13" class="edge">
<title>Node89&#45;&gt;Node72</title>
<path fill="none" stroke="midnightblue" d="M443.12,-288C469.69,-288 506.27,-288 535.43,-288"/>
<polygon fill="midnightblue" stroke="midnightblue" points="535.81,-291.5 545.81,-288 535.81,-284.5 535.81,-291.5"/>
</g>
<!-- Node434 -->
<g id="node13" class="node">
<title>Node434</title>
<g id="a_node13"><a xlink:href="quickjs_8c.html#a5cfd8b63940fcb5151b4df41e32dc68c" target="_top" xlink:title=" ">
<polygon fill="none" stroke="black" points="534,-202.5 534,-221.5 635,-221.5 635,-202.5 534,-202.5"/>
<text text-anchor="middle" x="584.5" y="-209.5" font-family="Helvetica,sans-Serif" font-size="10.00">JS_SetObjectData</text>
</a>
</g>
</g>
<!-- Node89&#45;&gt;Node434 -->
<g id="edge15" class="edge">
<title>Node89&#45;&gt;Node434</title>
<path fill="none" stroke="midnightblue" d="M424.05,-278.3C445.43,-266.07 484.07,-244.93 519,-231 524.76,-228.7 530.91,-226.54 537.04,-224.55"/>
<polygon fill="midnightblue" stroke="midnightblue" points="538.09,-227.89 546.6,-221.59 536.01,-221.21 538.09,-227.89"/>
</g>
<!-- Node90&#45;&gt;Node3 -->
<g id="edge10" class="edge">
<title>Node90&#45;&gt;Node3</title>
<path fill="none" stroke="midnightblue" d="M650.26,-326C668.1,-326 687.15,-326 703.94,-326"/>
<polygon fill="midnightblue" stroke="midnightblue" points="704.08,-329.5 714.08,-326 704.08,-322.5 704.08,-329.5"/>
</g>
<!-- Node434&#45;&gt;Node3 -->
<g id="edge16" class="edge">
<title>Node434&#45;&gt;Node3</title>
<path fill="none" stroke="midnightblue" d="M628.27,-221.58C635.76,-224.1 643.3,-227.2 650,-231 686.27,-251.56 720.14,-287.17 738.57,-308.46"/>
<polygon fill="midnightblue" stroke="midnightblue" points="736.14,-311.01 745.27,-316.37 741.48,-306.48 736.14,-311.01"/>
</g>
<!-- Node434&#45;&gt;Node41 -->
<g id="edge17" class="edge">
<title>Node434&#45;&gt;Node41</title>
<path fill="none" stroke="midnightblue" d="M627.77,-202.41C650.07,-197.35 677.62,-191.1 701.2,-185.75"/>
<polygon fill="midnightblue" stroke="midnightblue" points="702.06,-189.15 711.04,-183.52 700.51,-182.32 702.06,-189.15"/>
</g>
<!-- Node114 -->
<g id="node15" class="node">
<title>Node114</title>
<g id="a_node15"><a xlink:href="quickjs_8c.html#a7bcb8e1a20cbc8374a5f9ba4a2088cec" target="_top" xlink:title=" ">
<polygon fill="none" stroke="red" points="549.5,-468.5 549.5,-487.5 619.5,-487.5 619.5,-468.5 549.5,-468.5"/>
<text text-anchor="middle" x="584.5" y="-475.5" font-family="Helvetica,sans-Serif" font-size="10.00">JS_ToString</text>
</a>
</g>
</g>
<!-- Node435&#45;&gt;Node114 -->
<g id="edge19" class="edge">
<title>Node435&#45;&gt;Node114</title>
<path fill="none" stroke="midnightblue" d="M472.04,-478C494.26,-478 518.64,-478 538.91,-478"/>
<polygon fill="midnightblue" stroke="midnightblue" points="539.11,-481.5 549.11,-478 539.11,-474.5 539.11,-481.5"/>
</g>
<!-- Node437 -->
<g id="node17" class="node">
<title>Node437</title>
<g id="a_node17"><a xlink:href="quickjs_8c.html#af894945c3459f86096c1821a0a696934" target="_top" xlink:title=" ">
<polygon fill="none" stroke="black" points="358.5,-88.5 358.5,-107.5 454.5,-107.5 454.5,-88.5 358.5,-88.5"/>
<text text-anchor="middle" x="406.5" y="-95.5" font-family="Helvetica,sans-Serif" font-size="10.00">get_typed_array</text>
</a>
</g>
</g>
<!-- Node436&#45;&gt;Node437 -->
<g id="edge21" class="edge">
<title>Node436&#45;&gt;Node437</title>
<path fill="none" stroke="midnightblue" d="M287.93,-83.39C307.34,-85.8 328.85,-88.47 348.11,-90.87"/>
<polygon fill="midnightblue" stroke="midnightblue" points="347.89,-94.37 358.25,-92.13 348.75,-87.42 347.89,-94.37"/>
</g>
<!-- Node234 -->
<g id="node18" class="node">
<title>Node234</title>
<g id="a_node18"><a xlink:href="quickjs_8c.html#a033dd3ebd29c4eb9f0baff1dd0fec0b1" target="_top" xlink:title=" ">
<polygon fill="none" stroke="black" points="330,-39 330,-69 483,-69 483,-39 330,-39"/>
<text text-anchor="start" x="338" y="-57" font-family="Helvetica,sans-Serif" font-size="10.00">JS_ThrowTypeErrorDetached</text>
<text text-anchor="middle" x="406.5" y="-46" font-family="Helvetica,sans-Serif" font-size="10.00">ArrayBuffer</text>
</a>
</g>
</g>
<!-- Node436&#45;&gt;Node234 -->
<g id="edge22" class="edge">
<title>Node436&#45;&gt;Node234</title>
<path fill="none" stroke="midnightblue" d="M287.93,-68.61C298.13,-67.35 308.91,-66.01 319.63,-64.67"/>
<polygon fill="midnightblue" stroke="midnightblue" points="320.39,-68.11 329.88,-63.4 319.53,-61.16 320.39,-68.11"/>
</g>
<!-- Node235 -->
<g id="node19" class="node">
<title>Node235</title>
<g id="a_node19"><a xlink:href="quickjs_8c.html#a869fa88a646c0a1914ec2e559b193b5c" target="_top" xlink:title=" ">
<polygon fill="none" stroke="black" points="337,-0.5 337,-19.5 476,-19.5 476,-0.5 337,-0.5"/>
<text text-anchor="middle" x="406.5" y="-7.5" font-family="Helvetica,sans-Serif" font-size="10.00">typed_array_is_detached</text>
</a>
</g>
</g>
<!-- Node436&#45;&gt;Node235 -->
<g id="edge23" class="edge">
<title>Node436&#45;&gt;Node235</title>
<path fill="none" stroke="midnightblue" d="M246.41,-66.46C266.36,-56.12 299.79,-39.69 330,-29 336.92,-26.55 344.3,-24.29 351.64,-22.24"/>
<polygon fill="midnightblue" stroke="midnightblue" points="352.81,-25.55 361.57,-19.58 351,-18.78 352.81,-25.55"/>
</g>
</g>
</svg>
        <g id="navigator" transform="translate(0 0)" fill="#404254">
                <rect fill="#f2f5e9" fill-opacity="0.5" stroke="#606060" stroke-width=".5" x="0" y="0" width="60" height="60"/>
                <use id="zoomplus" xlink:href="#zoomPlus" x="17" y="9" onmousedown="handleZoom(evt,'in')"/>
                <use id="zoomminus" xlink:href="#zoomMin" x="42" y="9" onmousedown="handleZoom(evt,'out')"/>
                <use id="reset" xlink:href="#resetDef" x="30" y="36" onmousedown="handleReset()"/>
                <g id="arrowUp" xlink:href="#dirArrow" transform="translate(30 24)" onmousedown="handlePan(0,-1)">
                  <use xlink:href="#rim" fill="#404040">
                        <set attributeName="fill" to="#808080" begin="arrowUp.mouseover" end="arrowUp.mouseout"/>
                  </use>
                  <path fill="none" stroke="white" stroke-width="1.5" d="M0,-3.0v7 M-2.5,-0.5L0,-3.0L2.5,-0.5"/>
                </g>
                <g id="arrowRight" xlink:href="#dirArrow" transform="rotate(90) translate(36 -43)" onmousedown="handlePan(1,0)">
                  <use xlink:href="#rim" fill="#404040">
                        <set attributeName="fill" to="#808080" begin="arrowRight.mouseover" end="arrowRight.mouseout"/>
                  </use>
                  <path fill="none" stroke="white" stroke-width="1.5" d="M0,-3.0v7 M-2.5,-0.5L0,-3.0L2.5,-0.5"/>
                </g>
                <g id="arrowDown" xlink:href="#dirArrow" transform="rotate(180) translate(-30 -48)" onmousedown="handlePan(0,1)">
                  <use xlink:href="#rim" fill="#404040">
                        <set attributeName="fill" to="#808080" begin="arrowDown.mouseover" end="arrowDown.mouseout"/>
                  </use>
                  <path fill="none" stroke="white" stroke-width="1.5" d="M0,-3.0v7 M-2.5,-0.5L0,-3.0L2.5,-0.5"/>
                </g>
                <g id="arrowLeft" xlink:href="#dirArrow" transform="rotate(270) translate(-36 17)" onmousedown="handlePan(-1,0)">
                  <use xlink:href="#rim" fill="#404040">
                        <set attributeName="fill" to="#808080" begin="arrowLeft.mouseover" end="arrowLeft.mouseout"/>
                  </use>
                  <path fill="none" stroke="white" stroke-width="1.5" d="M0,-3.0v7 M-2.5,-0.5L0,-3.0L2.5,-0.5"/>
                </g>
        </g>
        <svg viewBox="0 0 15 15" width="100%" height="30px" preserveAspectRatio="xMaxYMin meet">
         <g id="arrow_out" transform="scale(0.3 0.3)">
          <a xlink:href="quickjs_8c_a1e80be77ffd5dbb921de62f804a26675_cgraph_org.svg" target="_base">
           <rect id="button" ry="5" rx="5" y="6" x="6" height="38" width="38"
                fill="#f2f5e9" fill-opacity="0.5" stroke="#606060" stroke-width="1.0"/>
           <path id="arrow"
             d="M 11.500037,31.436501 C 11.940474,20.09759 22.043105,11.32322 32.158766,21.979434 L 37.068811,17.246167 C 37.068811,17.246167 37.088388,32 37.088388,32 L 22.160133,31.978069 C 22.160133,31.978069 26.997745,27.140456 26.997745,27.140456 C 18.528582,18.264221 13.291696,25.230495 11.500037,31.436501 z"
             style="fill:#404040;"/>
          </a>
         </g>
        </svg>
</svg>
