<?xml version="1.0" encoding="UTF-8" standalone="no"?>
<!DOCTYPE svg PUBLIC "-//W3C//DTD SVG 1.1//EN"
 "http://www.w3.org/Graphics/SVG/1.1/DTD/svg11.dtd">
<!-- Generated by graphviz version 2.43.0 (0)
 -->
<!-- Title: js_regexp_compile Pages: 1 -->
<!--zoomable 674 -->
<svg id="main" version="1.1" xmlns="http://www.w3.org/2000/svg" xmlns:xlink="http://www.w3.org/1999/xlink" xml:space="preserve" onload="init(evt)">
<style type="text/css"><![CDATA[
.edge:hover path { stroke: red; }
.edge:hover polygon { stroke: red; fill: red; }
]]></style>
<script type="text/javascript"><![CDATA[
var edges = document.getElementsByTagName('g');
if (edges && edges.length) {
  for (var i=0;i<edges.length;i++) {
    if (edges[i].id.substr(0,4)=='edge') {
      edges[i].setAttribute('class','edge');
    }
  }
}
]]></script>
        <defs>
                <circle id="rim" cx="0" cy="0" r="7"/>
                <circle id="rim2" cx="0" cy="0" r="3.5"/>
                <g id="zoomPlus">
                        <use xlink:href="#rim" fill="#404040">
                                <set attributeName="fill" to="#808080" begin="zoomplus.mouseover" end="zoomplus.mouseout"/>
                        </use>
                        <path d="M-4,0h8M0,-4v8" fill="none" stroke="white" stroke-width="1.5" pointer-events="none"/>
                </g>
                <g id="zoomMin">
                        <use xlink:href="#rim" fill="#404040">
                                <set attributeName="fill" to="#808080" begin="zoomminus.mouseover" end="zoomminus.mouseout"/>
                        </use>
                        <path d="M-4,0h8" fill="none" stroke="white" stroke-width="1.5" pointer-events="none"/>
                </g>
                <g id="dirArrow">
                        <path fill="none" stroke="white" stroke-width="1.5" d="M0,-3.0v7 M-2.5,-0.5L0,-3.0L2.5,-0.5"/>
                </g>
               <g id="resetDef">
                       <use xlink:href="#rim2" fill="#404040">
                               <set attributeName="fill" to="#808080" begin="reset.mouseover" end="reset.mouseout"/>
                       </use>
               </g>
        </defs>

<script type="text/javascript">
var viewWidth = 888;
var viewHeight = 674;
var sectionId = 'dynsection-1605';
</script>
<script xlink:href="svgpan.js"/>
<svg id="graph" class="graph">
<g id="viewport">
<title>js_regexp_compile</title>
<!-- Node1 -->
<g id="node1" class="node">
<title>Node1</title>
<g id="a_node1"><a xlink:title=" ">
<polygon fill="#bfbfbf" stroke="black" points="0,-171.5 0,-190.5 108,-190.5 108,-171.5 0,-171.5"/>
<text text-anchor="middle" x="54" y="-178.5" font-family="Helvetica,sans-Serif" font-size="10.00">js_regexp_compile</text>
</a>
</g>
</g>
<!-- Node2 -->
<g id="node2" class="node">
<title>Node2</title>
<g id="a_node2"><a xlink:href="quickjs_8c.html#a260bfa297ff6cb5bd18e229afaa54663" target="_top" xlink:title=" ">
<polygon fill="none" stroke="black" points="474,-646.5 474,-665.5 570,-665.5 570,-646.5 474,-646.5"/>
<text text-anchor="middle" x="522" y="-653.5" font-family="Helvetica,sans-Serif" font-size="10.00">JS_AtomToString</text>
</a>
</g>
</g>
<!-- Node1&#45;&gt;Node2 -->
<g id="edge1" class="edge">
<title>Node1&#45;&gt;Node2</title>
<path fill="none" stroke="midnightblue" d="M55.81,-190.51C59.39,-227.23 76.74,-361.79 144,-443 235.67,-553.68 400.66,-617.83 478.35,-643.23"/>
<polygon fill="midnightblue" stroke="midnightblue" points="477.68,-646.69 488.27,-646.42 479.82,-640.03 477.68,-646.69"/>
</g>
<!-- Node6 -->
<g id="node6" class="node">
<title>Node6</title>
<g id="a_node6"><a xlink:href="quickjs_8h.html#a775522f2d084fc8fa0fcb33f390006b4" target="_top" xlink:title=" ">
<polygon fill="none" stroke="black" points="780,-228.5 780,-247.5 857,-247.5 857,-228.5 780,-228.5"/>
<text text-anchor="middle" x="818.5" y="-235.5" font-family="Helvetica,sans-Serif" font-size="10.00">JS_DupValue</text>
</a>
</g>
</g>
<!-- Node1&#45;&gt;Node6 -->
<g id="edge32" class="edge">
<title>Node1&#45;&gt;Node6</title>
<path fill="none" stroke="midnightblue" d="M85.08,-171.46C138.99,-155.23 255.89,-124 357,-124 357,-124 357,-124 523,-124 611.4,-124 640.89,-105.62 721,-143 757.89,-160.21 789.02,-197.6 805.31,-220"/>
<polygon fill="midnightblue" stroke="midnightblue" points="802.55,-222.15 811.17,-228.31 808.27,-218.12 802.55,-222.15"/>
</g>
<!-- Node30 -->
<g id="node8" class="node">
<title>Node30</title>
<g id="a_node8"><a xlink:href="quickjs_8c.html#ab0bd3fbfe9b7f004c067b103a6d60d03" target="_top" xlink:title=" ">
<polygon fill="none" stroke="black" points="144,-361.5 144,-380.5 252,-380.5 252,-361.5 144,-361.5"/>
<text text-anchor="middle" x="198" y="-368.5" font-family="Helvetica,sans-Serif" font-size="10.00">js_compile_regexp</text>
</a>
</g>
</g>
<!-- Node1&#45;&gt;Node30 -->
<g id="edge7" class="edge">
<title>Node1&#45;&gt;Node30</title>
<path fill="none" stroke="midnightblue" d="M62.24,-190.68C84.74,-220.79 153.72,-313.08 183.3,-352.66"/>
<polygon fill="midnightblue" stroke="midnightblue" points="180.82,-355.19 189.61,-361.11 186.42,-351 180.82,-355.19"/>
</g>
<!-- Node32 -->
<g id="node11" class="node">
<title>Node32</title>
<g id="a_node11"><a xlink:href="quickjs_8h.html#afaa20c47565bc704c6c85f3d77254e7d" target="_top" xlink:title=" ">
<polygon fill="none" stroke="red" points="629,-266.5 629,-285.5 708,-285.5 708,-266.5 629,-266.5"/>
<text text-anchor="middle" x="668.5" y="-273.5" font-family="Helvetica,sans-Serif" font-size="10.00">JS_FreeValue</text>
</a>
</g>
</g>
<!-- Node1&#45;&gt;Node32 -->
<g id="edge33" class="edge">
<title>Node1&#45;&gt;Node32</title>
<path fill="none" stroke="midnightblue" d="M101.16,-190.52C114.93,-193.31 130.07,-196.33 144,-199 285.95,-226.22 320.8,-237.37 464,-257 516.66,-264.22 577.38,-269.49 618.69,-272.63"/>
<polygon fill="midnightblue" stroke="midnightblue" points="618.52,-276.13 628.75,-273.38 619.04,-269.15 618.52,-276.13"/>
</g>
<!-- Node68 -->
<g id="node12" class="node">
<title>Node68</title>
<g id="a_node12"><a xlink:href="quickjs_8h.html#a4e407128a9605afb77523e49e9a627fd" target="_top" xlink:title=" ">
<polygon fill="none" stroke="black" points="313.5,-494.5 313.5,-513.5 402.5,-513.5 402.5,-494.5 313.5,-494.5"/>
<text text-anchor="middle" x="358" y="-501.5" font-family="Helvetica,sans-Serif" font-size="10.00">JS_IsUndefined</text>
</a>
</g>
</g>
<!-- Node1&#45;&gt;Node68 -->
<g id="edge37" class="edge">
<title>Node1&#45;&gt;Node68</title>
<path fill="none" stroke="midnightblue" d="M57.04,-190.8C64.07,-222.68 89.95,-325.18 144,-390 193.11,-448.88 218.18,-453.32 288,-485 293.29,-487.4 298.95,-489.56 304.67,-491.48"/>
<polygon fill="midnightblue" stroke="midnightblue" points="303.71,-494.85 314.29,-494.5 305.8,-488.17 303.71,-494.85"/>
</g>
<!-- Node71 -->
<g id="node16" class="node">
<title>Node71</title>
<g id="a_node16"><a xlink:href="quickjs_8h.html#ad80a83d73e9b7d872b88fbf2943aebe9" target="_top" xlink:title=" ">
<polygon fill="none" stroke="black" points="625,-190.5 625,-209.5 712,-209.5 712,-190.5 625,-190.5"/>
<text text-anchor="middle" x="668.5" y="-197.5" font-family="Helvetica,sans-Serif" font-size="10.00">JS_IsException</text>
</a>
</g>
</g>
<!-- Node1&#45;&gt;Node71 -->
<g id="edge36" class="edge">
<title>Node1&#45;&gt;Node71</title>
<path fill="none" stroke="midnightblue" d="M108.02,-182.64C223.96,-186.24 498.92,-194.77 614.68,-198.36"/>
<polygon fill="midnightblue" stroke="midnightblue" points="614.61,-201.86 624.72,-198.67 614.83,-194.86 614.61,-201.86"/>
</g>
<!-- Node72 -->
<g id="node17" class="node">
<title>Node72</title>
<g id="a_node17"><a xlink:href="quickjs_8c.html#a7bcb8e1a20cbc8374a5f9ba4a2088cec" target="_top" xlink:title=" ">
<polygon fill="none" stroke="red" points="633.5,-152.5 633.5,-171.5 703.5,-171.5 703.5,-152.5 633.5,-152.5"/>
<text text-anchor="middle" x="668.5" y="-159.5" font-family="Helvetica,sans-Serif" font-size="10.00">JS_ToString</text>
</a>
</g>
</g>
<!-- Node1&#45;&gt;Node72 -->
<g id="edge40" class="edge">
<title>Node1&#45;&gt;Node72</title>
<path fill="none" stroke="midnightblue" d="M108.02,-179.36C226.96,-175.67 513.28,-166.78 623.35,-163.37"/>
<polygon fill="midnightblue" stroke="midnightblue" points="623.56,-166.86 633.44,-163.06 623.34,-159.87 623.56,-166.86"/>
</g>
<!-- Node505 -->
<g id="node27" class="node">
<title>Node505</title>
<g id="a_node27"><a xlink:href="quickjs_8c.html#a82de8d310598980dd9ab473ce2c8dd1c" target="_top" xlink:title=" ">
<polygon fill="none" stroke="black" points="155.5,-76.5 155.5,-95.5 240.5,-95.5 240.5,-76.5 155.5,-76.5"/>
<text text-anchor="middle" x="198" y="-83.5" font-family="Helvetica,sans-Serif" font-size="10.00">js_get_regexp</text>
</a>
</g>
</g>
<!-- Node1&#45;&gt;Node505 -->
<g id="edge34" class="edge">
<title>Node1&#45;&gt;Node505</title>
<path fill="none" stroke="midnightblue" d="M65.32,-171.34C81.28,-156.74 113.32,-128.78 144,-110 150.02,-106.32 156.7,-102.85 163.24,-99.77"/>
<polygon fill="midnightblue" stroke="midnightblue" points="164.94,-102.84 172.61,-95.54 162.06,-96.46 164.94,-102.84"/>
</g>
<!-- Node112 -->
<g id="node29" class="node">
<title>Node112</title>
<g id="a_node29"><a xlink:href="quickjs_8h.html#a2050bc428da1c65ac7eb87c3fa3b0392" target="_top" xlink:title=" ">
<polygon fill="none" stroke="black" points="159.5,-38.5 159.5,-57.5 236.5,-57.5 236.5,-38.5 159.5,-38.5"/>
<text text-anchor="middle" x="198" y="-45.5" font-family="Helvetica,sans-Serif" font-size="10.00">JS_NewInt32</text>
</a>
</g>
</g>
<!-- Node1&#45;&gt;Node112 -->
<g id="edge38" class="edge">
<title>Node1&#45;&gt;Node112</title>
<path fill="none" stroke="midnightblue" d="M60.07,-171.25C71.88,-149.45 103.31,-96.43 144,-67 146.65,-65.08 149.52,-63.34 152.5,-61.76"/>
<polygon fill="midnightblue" stroke="midnightblue" points="154.07,-64.89 161.67,-57.5 151.12,-58.54 154.07,-64.89"/>
</g>
<!-- Node323 -->
<g id="node30" class="node">
<title>Node323</title>
<g id="a_node30"><a xlink:href="quickjs_8h.html#af763b173e78debf2075670ca2c128a30" target="_top" xlink:title=" ">
<polygon fill="none" stroke="red" points="154,-0.5 154,-19.5 242,-19.5 242,-0.5 154,-0.5"/>
<text text-anchor="middle" x="198" y="-7.5" font-family="Helvetica,sans-Serif" font-size="10.00">JS_SetProperty</text>
</a>
</g>
</g>
<!-- Node1&#45;&gt;Node323 -->
<g id="edge39" class="edge">
<title>Node1&#45;&gt;Node323</title>
<path fill="none" stroke="midnightblue" d="M58.05,-171.26C66.89,-144.58 95.05,-69.62 144,-29 146.04,-27.31 148.24,-25.76 150.55,-24.35"/>
<polygon fill="midnightblue" stroke="midnightblue" points="152.58,-27.23 159.86,-19.53 149.37,-21.02 152.58,-27.23"/>
</g>
<!-- Node3 -->
<g id="node3" class="node">
<title>Node3</title>
<g id="a_node3"><a xlink:href="quickjs_8c.html#a06ff303a11e6641cbf1f6634e6a61811" target="_top" xlink:title=" ">
<polygon fill="none" stroke="black" points="616,-551.5 616,-570.5 721,-570.5 721,-551.5 616,-551.5"/>
<text text-anchor="middle" x="668.5" y="-558.5" font-family="Helvetica,sans-Serif" font-size="10.00">__JS_AtomToValue</text>
</a>
</g>
</g>
<!-- Node2&#45;&gt;Node3 -->
<g id="edge2" class="edge">
<title>Node2&#45;&gt;Node3</title>
<path fill="none" stroke="midnightblue" d="M550.15,-646.39C559.86,-642.49 570.7,-637.58 580,-632 606.39,-616.18 633.37,-593 650.27,-577.48"/>
<polygon fill="midnightblue" stroke="midnightblue" points="652.78,-579.92 657.7,-570.54 648,-574.8 652.78,-579.92"/>
</g>
<!-- Node4 -->
<g id="node4" class="node">
<title>Node4</title>
<g id="a_node4"><a xlink:href="quickjs_8c.html#a288254c06a39c9fca740a7abdad2834e" target="_top" xlink:title=" ">
<polygon fill="none" stroke="black" points="757,-589.5 757,-608.5 880,-608.5 880,-589.5 757,-589.5"/>
<text text-anchor="middle" x="818.5" y="-596.5" font-family="Helvetica,sans-Serif" font-size="10.00">__JS_AtomIsTaggedInt</text>
</a>
</g>
</g>
<!-- Node3&#45;&gt;Node4 -->
<g id="edge3" class="edge">
<title>Node3&#45;&gt;Node4</title>
<path fill="none" stroke="midnightblue" d="M706.85,-570.59C726.2,-575.56 750.03,-581.68 770.61,-586.96"/>
<polygon fill="midnightblue" stroke="midnightblue" points="769.87,-590.38 780.42,-589.48 771.61,-583.6 769.87,-590.38"/>
</g>
<!-- Node5 -->
<g id="node5" class="node">
<title>Node5</title>
<g id="a_node5"><a xlink:href="quickjs_8c.html#a89f38938cee8077ce1fbba07946ed185" target="_top" xlink:title=" ">
<polygon fill="none" stroke="black" points="763.5,-551.5 763.5,-570.5 873.5,-570.5 873.5,-551.5 763.5,-551.5"/>
<text text-anchor="middle" x="818.5" y="-558.5" font-family="Helvetica,sans-Serif" font-size="10.00">__JS_AtomToUInt32</text>
</a>
</g>
</g>
<!-- Node3&#45;&gt;Node5 -->
<g id="edge4" class="edge">
<title>Node3&#45;&gt;Node5</title>
<path fill="none" stroke="midnightblue" d="M721.26,-561C731.56,-561 742.49,-561 753.15,-561"/>
<polygon fill="midnightblue" stroke="midnightblue" points="753.25,-564.5 763.25,-561 753.25,-557.5 753.25,-564.5"/>
</g>
<!-- Node3&#45;&gt;Node6 -->
<g id="edge5" class="edge">
<title>Node3&#45;&gt;Node6</title>
<path fill="none" stroke="midnightblue" d="M673.93,-551.33C694.53,-506.38 781.1,-317.44 808.88,-256.81"/>
<polygon fill="midnightblue" stroke="midnightblue" points="812.1,-258.18 813.09,-247.63 805.74,-255.26 812.1,-258.18"/>
</g>
<!-- Node7 -->
<g id="node7" class="node">
<title>Node7</title>
<g id="a_node7"><a xlink:href="quickjs_8c.html#a0ee6a3654a6016393fac5e1c108f403a" target="_top" xlink:title=" ">
<polygon fill="none" stroke="red" points="778,-513.5 778,-532.5 859,-532.5 859,-513.5 778,-513.5"/>
<text text-anchor="middle" x="818.5" y="-520.5" font-family="Helvetica,sans-Serif" font-size="10.00">JS_NewString</text>
</a>
</g>
</g>
<!-- Node3&#45;&gt;Node7 -->
<g id="edge6" class="edge">
<title>Node3&#45;&gt;Node7</title>
<path fill="none" stroke="midnightblue" d="M706.85,-551.41C726.2,-546.44 750.03,-540.32 770.61,-535.04"/>
<polygon fill="midnightblue" stroke="midnightblue" points="771.61,-538.4 780.42,-532.52 769.87,-531.62 771.61,-538.4"/>
</g>
<!-- Node15 -->
<g id="node9" class="node">
<title>Node15</title>
<g id="a_node9"><a xlink:href="quickjs_8c.html#a80e54dcf9ac687d4ccc2f90273565f30" target="_top" xlink:title=" ">
<polygon fill="none" stroke="red" points="333,-380.5 333,-399.5 383,-399.5 383,-380.5 333,-380.5"/>
<text text-anchor="middle" x="358" y="-387.5" font-family="Helvetica,sans-Serif" font-size="10.00">js_free</text>
</a>
</g>
</g>
<!-- Node30&#45;&gt;Node15 -->
<g id="edge8" class="edge">
<title>Node30&#45;&gt;Node15</title>
<path fill="none" stroke="midnightblue" d="M252.05,-377.38C275.26,-380.17 301.83,-383.37 322.43,-385.84"/>
<polygon fill="midnightblue" stroke="midnightblue" points="322.26,-389.35 332.6,-387.07 323.09,-382.4 322.26,-389.35"/>
</g>
<!-- Node31 -->
<g id="node10" class="node">
<title>Node31</title>
<g id="a_node10"><a xlink:href="quickjs_8c.html#ae0bc4f65da64810facb2cb9e476eda2e" target="_top" xlink:title=" ">
<polygon fill="none" stroke="black" points="314.5,-342.5 314.5,-361.5 401.5,-361.5 401.5,-342.5 314.5,-342.5"/>
<text text-anchor="middle" x="358" y="-349.5" font-family="Helvetica,sans-Serif" font-size="10.00">JS_FreeCString</text>
</a>
</g>
</g>
<!-- Node30&#45;&gt;Node31 -->
<g id="edge9" class="edge">
<title>Node30&#45;&gt;Node31</title>
<path fill="none" stroke="midnightblue" d="M252.05,-364.62C268.83,-362.6 287.37,-360.37 304.13,-358.36"/>
<polygon fill="midnightblue" stroke="midnightblue" points="304.8,-361.8 314.31,-357.13 303.96,-354.85 304.8,-361.8"/>
</g>
<!-- Node30&#45;&gt;Node68 -->
<g id="edge11" class="edge">
<title>Node30&#45;&gt;Node68</title>
<path fill="none" stroke="midnightblue" d="M207.95,-380.83C218.76,-392.85 237.31,-413.93 252,-433 269.15,-455.27 265.07,-468.74 288,-485 292.8,-488.41 298.2,-491.21 303.79,-493.5"/>
<polygon fill="midnightblue" stroke="midnightblue" points="302.74,-496.84 313.33,-496.91 305.1,-490.25 302.74,-496.84"/>
</g>
<!-- Node10 -->
<g id="node13" class="node">
<title>Node10</title>
<g id="a_node13"><a xlink:href="quickjs_8c.html#aa923510185fe24e3083baf7405b09f51" target="_top" xlink:title=" ">
<polygon fill="none" stroke="red" points="313.5,-456.5 313.5,-475.5 402.5,-475.5 402.5,-456.5 313.5,-456.5"/>
<text text-anchor="middle" x="358" y="-463.5" font-family="Helvetica,sans-Serif" font-size="10.00">js_new_string8</text>
</a>
</g>
</g>
<!-- Node30&#45;&gt;Node10 -->
<g id="edge12" class="edge">
<title>Node30&#45;&gt;Node10</title>
<path fill="none" stroke="midnightblue" d="M207.6,-380.71C222.42,-396.85 254.43,-429.19 288,-447 292.87,-449.58 298.13,-451.84 303.49,-453.81"/>
<polygon fill="midnightblue" stroke="midnightblue" points="302.59,-457.2 313.19,-457.05 304.81,-450.56 302.59,-457.2"/>
</g>
<!-- Node69 -->
<g id="node14" class="node">
<title>Node69</title>
<g id="a_node14"><a xlink:href="quickjs_8h.html#a1e7f56471f8608df9405987087a56070" target="_top" xlink:title=" ">
<polygon fill="none" stroke="black" points="311,-304.5 311,-323.5 405,-323.5 405,-304.5 311,-304.5"/>
<text text-anchor="middle" x="358" y="-311.5" font-family="Helvetica,sans-Serif" font-size="10.00">JS_ToCStringLen</text>
</a>
</g>
</g>
<!-- Node30&#45;&gt;Node69 -->
<g id="edge14" class="edge">
<title>Node30&#45;&gt;Node69</title>
<path fill="none" stroke="midnightblue" d="M219.19,-361.45C237.04,-353.24 263.89,-341.42 288,-333 294.62,-330.69 301.67,-328.47 308.65,-326.42"/>
<polygon fill="midnightblue" stroke="midnightblue" points="310.1,-329.65 318.75,-323.54 308.18,-322.92 310.1,-329.65"/>
</g>
<!-- Node70 -->
<g id="node15" class="node">
<title>Node70</title>
<g id="a_node15"><a xlink:href="quickjs_8c.html#af49e67b73f845dc1f9c3ee648dd9f95c" target="_top" xlink:title=" ">
<polygon fill="none" stroke="red" points="472,-228.5 472,-247.5 572,-247.5 572,-228.5 472,-228.5"/>
<text text-anchor="middle" x="522" y="-235.5" font-family="Helvetica,sans-Serif" font-size="10.00">JS_ToCStringLen2</text>
</a>
</g>
</g>
<!-- Node30&#45;&gt;Node70 -->
<g id="edge20" class="edge">
<title>Node30&#45;&gt;Node70</title>
<path fill="none" stroke="midnightblue" d="M207.31,-361.45C221.94,-345.24 254,-312.41 288,-295 343.19,-266.73 413.01,-252.06 461.77,-244.74"/>
<polygon fill="midnightblue" stroke="midnightblue" points="462.44,-248.18 471.84,-243.28 461.44,-241.25 462.44,-248.18"/>
</g>
<!-- Node437 -->
<g id="node18" class="node">
<title>Node437</title>
<g id="a_node18"><a xlink:href="libregexp_8h.html#a9f2d004d841acbf42a7cf0490258b5ab" target="_top" xlink:title=" ">
<polygon fill="none" stroke="red" points="321,-418.5 321,-437.5 395,-437.5 395,-418.5 321,-418.5"/>
<text text-anchor="middle" x="358" y="-425.5" font-family="Helvetica,sans-Serif" font-size="10.00">lre_compile</text>
</a>
</g>
</g>
<!-- Node30&#45;&gt;Node437 -->
<g id="edge21" class="edge">
<title>Node30&#45;&gt;Node437</title>
<path fill="none" stroke="midnightblue" d="M219.19,-380.55C237.04,-388.76 263.89,-400.58 288,-409 295.42,-411.59 303.39,-414.07 311.18,-416.32"/>
<polygon fill="midnightblue" stroke="midnightblue" points="310.33,-419.71 320.9,-419.05 312.22,-412.97 310.33,-419.71"/>
</g>
<!-- Node31&#45;&gt;Node32 -->
<g id="edge10" class="edge">
<title>Node31&#45;&gt;Node32</title>
<path fill="none" stroke="midnightblue" d="M397.76,-342.45C453.87,-328.63 557.67,-303.06 618.85,-287.98"/>
<polygon fill="midnightblue" stroke="midnightblue" points="619.78,-291.36 628.66,-285.57 618.11,-284.56 619.78,-291.36"/>
</g>
<!-- Node10&#45;&gt;Node2 -->
<g id="edge13" class="edge">
<title>Node10&#45;&gt;Node2</title>
<path fill="none" stroke="midnightblue" d="M402.53,-470.59C411.97,-473.46 421.16,-477.96 428,-485 474.88,-533.24 420.35,-580.82 464,-632 467.19,-635.73 471.05,-638.9 475.25,-641.58"/>
<polygon fill="midnightblue" stroke="midnightblue" points="473.78,-644.76 484.24,-646.43 477.1,-638.6 473.78,-644.76"/>
</g>
<!-- Node69&#45;&gt;Node70 -->
<g id="edge15" class="edge">
<title>Node69&#45;&gt;Node70</title>
<path fill="none" stroke="midnightblue" d="M379.52,-304.37C407.76,-291.13 458.79,-267.19 491.22,-251.97"/>
<polygon fill="midnightblue" stroke="midnightblue" points="493.08,-254.96 500.65,-247.55 490.11,-248.63 493.08,-254.96"/>
</g>
<!-- Node70&#45;&gt;Node6 -->
<g id="edge16" class="edge">
<title>Node70&#45;&gt;Node6</title>
<path fill="none" stroke="midnightblue" d="M572.29,-238C627.21,-238 715.4,-238 769.7,-238"/>
<polygon fill="midnightblue" stroke="midnightblue" points="769.76,-241.5 779.76,-238 769.76,-234.5 769.76,-241.5"/>
</g>
<!-- Node70&#45;&gt;Node32 -->
<g id="edge17" class="edge">
<title>Node70&#45;&gt;Node32</title>
<path fill="none" stroke="midnightblue" d="M559.46,-247.59C578.27,-252.54 601.41,-258.62 621.45,-263.89"/>
<polygon fill="midnightblue" stroke="midnightblue" points="620.74,-267.32 631.3,-266.48 622.52,-260.55 620.74,-267.32"/>
</g>
<!-- Node70&#45;&gt;Node71 -->
<g id="edge18" class="edge">
<title>Node70&#45;&gt;Node71</title>
<path fill="none" stroke="midnightblue" d="M559.46,-228.41C578.27,-223.46 601.41,-217.38 621.45,-212.11"/>
<polygon fill="midnightblue" stroke="midnightblue" points="622.52,-215.45 631.3,-209.52 620.74,-208.68 622.52,-215.45"/>
</g>
<!-- Node70&#45;&gt;Node72 -->
<g id="edge19" class="edge">
<title>Node70&#45;&gt;Node72</title>
<path fill="none" stroke="midnightblue" d="M536.69,-228.42C554.42,-216.3 586.52,-195.3 616,-181 620.11,-179 624.5,-177.09 628.9,-175.29"/>
<polygon fill="midnightblue" stroke="midnightblue" points="630.43,-178.46 638.48,-171.57 627.89,-171.93 630.43,-178.46"/>
</g>
<!-- Node438 -->
<g id="node19" class="node">
<title>Node438</title>
<g id="a_node19"><a xlink:href="libregexp_8c.html#a0a619a0b3bf0d0ec3aa0a9a59d610e1c" target="_top" xlink:title=" ">
<polygon fill="none" stroke="black" points="482,-342.5 482,-361.5 562,-361.5 562,-342.5 482,-342.5"/>
<text text-anchor="middle" x="522" y="-349.5" font-family="Helvetica,sans-Serif" font-size="10.00">__attribute__</text>
</a>
</g>
</g>
<!-- Node437&#45;&gt;Node438 -->
<g id="edge22" class="edge">
<title>Node437&#45;&gt;Node438</title>
<path fill="none" stroke="midnightblue" d="M395.25,-421.93C406.28,-419.08 418.09,-414.95 428,-409 447.95,-397.03 444.38,-383.5 464,-371 467.18,-368.98 470.59,-367.14 474.12,-365.49"/>
<polygon fill="midnightblue" stroke="midnightblue" points="475.73,-368.61 483.61,-361.53 473.03,-362.15 475.73,-368.61"/>
</g>
<!-- Node439 -->
<g id="node20" class="node">
<title>Node439</title>
<g id="a_node20"><a xlink:href="libregexp_8c.html#a09c49010ae229bc3a53575addc5f7c40" target="_top" xlink:title=" ">
<polygon fill="none" stroke="red" points="464,-570.5 464,-589.5 580,-589.5 580,-570.5 464,-570.5"/>
<text text-anchor="middle" x="522" y="-577.5" font-family="Helvetica,sans-Serif" font-size="10.00">compute_stack_size</text>
</a>
</g>
</g>
<!-- Node437&#45;&gt;Node439 -->
<g id="edge23" class="edge">
<title>Node437&#45;&gt;Node439</title>
<path fill="none" stroke="midnightblue" d="M395.03,-431.04C406.82,-433.69 419.14,-438.47 428,-447 466.26,-483.87 426.73,-523.13 464,-561 465.43,-562.45 466.97,-563.79 468.6,-565.03"/>
<polygon fill="midnightblue" stroke="midnightblue" points="466.99,-568.15 477.35,-570.4 470.66,-562.18 466.99,-568.15"/>
</g>
<!-- Node161 -->
<g id="node21" class="node">
<title>Node161</title>
<g id="a_node21"><a xlink:href="cutils_8h.html#a1fed0a329cb7bb0e04283285037921a4" target="_top" xlink:title=" ">
<polygon fill="none" stroke="black" points="488.5,-532.5 488.5,-551.5 555.5,-551.5 555.5,-532.5 488.5,-532.5"/>
<text text-anchor="middle" x="522" y="-539.5" font-family="Helvetica,sans-Serif" font-size="10.00">dbuf_error</text>
</a>
</g>
</g>
<!-- Node437&#45;&gt;Node161 -->
<g id="edge24" class="edge">
<title>Node437&#45;&gt;Node161</title>
<path fill="none" stroke="midnightblue" d="M395.11,-431.91C406.63,-434.64 418.77,-439.25 428,-447 456.62,-471.04 436.03,-498.21 464,-523 468.4,-526.9 473.63,-530 479.1,-532.47"/>
<polygon fill="midnightblue" stroke="midnightblue" points="477.86,-535.74 488.45,-536.06 480.37,-529.21 477.86,-535.74"/>
</g>
<!-- Node162 -->
<g id="node22" class="node">
<title>Node162</title>
<g id="a_node22"><a xlink:href="cutils_8h.html#a8a3b715fc2146312b777c4e3db546b55" target="_top" xlink:title=" ">
<polygon fill="none" stroke="black" points="490.5,-494.5 490.5,-513.5 553.5,-513.5 553.5,-494.5 490.5,-494.5"/>
<text text-anchor="middle" x="522" y="-501.5" font-family="Helvetica,sans-Serif" font-size="10.00">dbuf_free</text>
</a>
</g>
</g>
<!-- Node437&#45;&gt;Node162 -->
<g id="edge25" class="edge">
<title>Node437&#45;&gt;Node162</title>
<path fill="none" stroke="midnightblue" d="M395.25,-434.07C406.28,-436.92 418.09,-441.05 428,-447 447.95,-458.97 444.38,-472.5 464,-485 469.13,-488.27 474.88,-491.03 480.7,-493.35"/>
<polygon fill="midnightblue" stroke="midnightblue" points="479.87,-496.77 490.46,-496.85 482.23,-490.18 479.87,-496.77"/>
</g>
<!-- Node174 -->
<g id="node23" class="node">
<title>Node174</title>
<g id="a_node23"><a xlink:href="cutils_8h.html#a04e3983476063eb6fbab2fd74fc49fc6" target="_top" xlink:title=" ">
<polygon fill="none" stroke="red" points="489.5,-456.5 489.5,-475.5 554.5,-475.5 554.5,-456.5 489.5,-456.5"/>
<text text-anchor="middle" x="522" y="-463.5" font-family="Helvetica,sans-Serif" font-size="10.00">dbuf_init2</text>
</a>
</g>
</g>
<!-- Node437&#45;&gt;Node174 -->
<g id="edge26" class="edge">
<title>Node437&#45;&gt;Node174</title>
<path fill="none" stroke="midnightblue" d="M395.36,-436.53C420.31,-442.38 453.48,-450.16 479.48,-456.26"/>
<polygon fill="midnightblue" stroke="midnightblue" points="478.88,-459.71 489.41,-458.59 480.48,-452.9 478.88,-459.71"/>
</g>
<!-- Node164 -->
<g id="node24" class="node">
<title>Node164</title>
<g id="a_node24"><a xlink:href="cutils_8h.html#ad1cfaae47347ae771136b5a9bbda49aa" target="_top" xlink:title=" ">
<polygon fill="none" stroke="red" points="639,-418.5 639,-437.5 698,-437.5 698,-418.5 639,-418.5"/>
<text text-anchor="middle" x="668.5" y="-425.5" font-family="Helvetica,sans-Serif" font-size="10.00">dbuf_put</text>
</a>
</g>
</g>
<!-- Node437&#45;&gt;Node164 -->
<g id="edge27" class="edge">
<title>Node437&#45;&gt;Node164</title>
<path fill="none" stroke="midnightblue" d="M395.03,-430.6C406.96,-433.2 419.37,-438.06 428,-447 476.2,-496.97 409.55,-555.94 464,-599 504.44,-630.98 536.02,-625.9 580,-599 594.32,-590.24 640.26,-489.43 659.21,-446.83"/>
<polygon fill="midnightblue" stroke="midnightblue" points="662.47,-448.12 663.31,-437.56 656.06,-445.28 662.47,-448.12"/>
</g>
<!-- Node440 -->
<g id="node25" class="node">
<title>Node440</title>
<g id="a_node25"><a xlink:href="cutils_8h.html#a8ba08f82c43549fcb3c939229498354d" target="_top" xlink:title=" ">
<polygon fill="none" stroke="black" points="480.5,-418.5 480.5,-437.5 563.5,-437.5 563.5,-418.5 480.5,-418.5"/>
<text text-anchor="middle" x="522" y="-425.5" font-family="Helvetica,sans-Serif" font-size="10.00">dbuf_put_u32</text>
</a>
</g>
</g>
<!-- Node437&#45;&gt;Node440 -->
<g id="edge28" class="edge">
<title>Node437&#45;&gt;Node440</title>
<path fill="none" stroke="midnightblue" d="M395.36,-428C417.48,-428 446.06,-428 470.37,-428"/>
<polygon fill="midnightblue" stroke="midnightblue" points="470.5,-431.5 480.5,-428 470.5,-424.5 470.5,-431.5"/>
</g>
<!-- Node163 -->
<g id="node26" class="node">
<title>Node163</title>
<g id="a_node26"><a xlink:href="cutils_8h.html#aeed81d4787ccdbd55baa9b5fd6717e88" target="_top" xlink:title=" ">
<polygon fill="none" stroke="black" points="489.5,-380.5 489.5,-399.5 554.5,-399.5 554.5,-380.5 489.5,-380.5"/>
<text text-anchor="middle" x="522" y="-387.5" font-family="Helvetica,sans-Serif" font-size="10.00">dbuf_putc</text>
</a>
</g>
</g>
<!-- Node437&#45;&gt;Node163 -->
<g id="edge30" class="edge">
<title>Node437&#45;&gt;Node163</title>
<path fill="none" stroke="midnightblue" d="M395.36,-419.47C420.31,-413.62 453.48,-405.84 479.48,-399.74"/>
<polygon fill="midnightblue" stroke="midnightblue" points="480.48,-403.1 489.41,-397.41 478.88,-396.29 480.48,-403.1"/>
</g>
<!-- Node440&#45;&gt;Node164 -->
<g id="edge29" class="edge">
<title>Node440&#45;&gt;Node164</title>
<path fill="none" stroke="midnightblue" d="M563.64,-428C583.97,-428 608.46,-428 628.55,-428"/>
<polygon fill="midnightblue" stroke="midnightblue" points="628.61,-431.5 638.61,-428 628.61,-424.5 628.61,-431.5"/>
</g>
<!-- Node163&#45;&gt;Node164 -->
<g id="edge31" class="edge">
<title>Node163&#45;&gt;Node164</title>
<path fill="none" stroke="midnightblue" d="M554.71,-398.34C576.57,-404.09 605.74,-411.76 628.94,-417.86"/>
<polygon fill="midnightblue" stroke="midnightblue" points="628.24,-421.3 638.8,-420.45 630.02,-414.53 628.24,-421.3"/>
</g>
<!-- Node506 -->
<g id="node28" class="node">
<title>Node506</title>
<g id="a_node28"><a xlink:href="quickjs_8c.html#ab0f713d7a2440dbb2673810323a9a78d" target="_top" xlink:title=" ">
<polygon fill="none" stroke="black" points="288,-65 288,-95 428,-95 428,-65 288,-65"/>
<text text-anchor="start" x="296" y="-83" font-family="Helvetica,sans-Serif" font-size="10.00">JS_ThrowTypeErrorInvalid</text>
<text text-anchor="middle" x="358" y="-72" font-family="Helvetica,sans-Serif" font-size="10.00">Class</text>
</a>
</g>
</g>
<!-- Node505&#45;&gt;Node506 -->
<g id="edge35" class="edge">
<title>Node505&#45;&gt;Node506</title>
<path fill="none" stroke="midnightblue" d="M240.51,-84.42C251.98,-83.99 264.83,-83.5 277.68,-83.01"/>
<polygon fill="midnightblue" stroke="midnightblue" points="278.11,-86.5 287.97,-82.62 277.84,-79.5 278.11,-86.5"/>
</g>
</g>
</svg>
        <g id="navigator" transform="translate(0 0)" fill="#404254">
                <rect fill="#f2f5e9" fill-opacity="0.5" stroke="#606060" stroke-width=".5" x="0" y="0" width="60" height="60"/>
                <use id="zoomplus" xlink:href="#zoomPlus" x="17" y="9" onmousedown="handleZoom(evt,'in')"/>
                <use id="zoomminus" xlink:href="#zoomMin" x="42" y="9" onmousedown="handleZoom(evt,'out')"/>
                <use id="reset" xlink:href="#resetDef" x="30" y="36" onmousedown="handleReset()"/>
                <g id="arrowUp" xlink:href="#dirArrow" transform="translate(30 24)" onmousedown="handlePan(0,-1)">
                  <use xlink:href="#rim" fill="#404040">
                        <set attributeName="fill" to="#808080" begin="arrowUp.mouseover" end="arrowUp.mouseout"/>
                  </use>
                  <path fill="none" stroke="white" stroke-width="1.5" d="M0,-3.0v7 M-2.5,-0.5L0,-3.0L2.5,-0.5"/>
                </g>
                <g id="arrowRight" xlink:href="#dirArrow" transform="rotate(90) translate(36 -43)" onmousedown="handlePan(1,0)">
                  <use xlink:href="#rim" fill="#404040">
                        <set attributeName="fill" to="#808080" begin="arrowRight.mouseover" end="arrowRight.mouseout"/>
                  </use>
                  <path fill="none" stroke="white" stroke-width="1.5" d="M0,-3.0v7 M-2.5,-0.5L0,-3.0L2.5,-0.5"/>
                </g>
                <g id="arrowDown" xlink:href="#dirArrow" transform="rotate(180) translate(-30 -48)" onmousedown="handlePan(0,1)">
                  <use xlink:href="#rim" fill="#404040">
                        <set attributeName="fill" to="#808080" begin="arrowDown.mouseover" end="arrowDown.mouseout"/>
                  </use>
                  <path fill="none" stroke="white" stroke-width="1.5" d="M0,-3.0v7 M-2.5,-0.5L0,-3.0L2.5,-0.5"/>
                </g>
                <g id="arrowLeft" xlink:href="#dirArrow" transform="rotate(270) translate(-36 17)" onmousedown="handlePan(-1,0)">
                  <use xlink:href="#rim" fill="#404040">
                        <set attributeName="fill" to="#808080" begin="arrowLeft.mouseover" end="arrowLeft.mouseout"/>
                  </use>
                  <path fill="none" stroke="white" stroke-width="1.5" d="M0,-3.0v7 M-2.5,-0.5L0,-3.0L2.5,-0.5"/>
                </g>
        </g>
        <svg viewBox="0 0 15 15" width="100%" height="30px" preserveAspectRatio="xMaxYMin meet">
         <g id="arrow_out" transform="scale(0.3 0.3)">
          <a xlink:href="quickjs_8c_af55de7fe1d3513a7230dfbfc1cbeec62_cgraph_org.svg" target="_base">
           <rect id="button" ry="5" rx="5" y="6" x="6" height="38" width="38"
                fill="#f2f5e9" fill-opacity="0.5" stroke="#606060" stroke-width="1.0"/>
           <path id="arrow"
             d="M 11.500037,31.436501 C 11.940474,20.09759 22.043105,11.32322 32.158766,21.979434 L 37.068811,17.246167 C 37.068811,17.246167 37.088388,32 37.088388,32 L 22.160133,31.978069 C 22.160133,31.978069 26.997745,27.140456 26.997745,27.140456 C 18.528582,18.264221 13.291696,25.230495 11.500037,31.436501 z"
             style="fill:#404040;"/>
          </a>
         </g>
        </svg>
</svg>
