<?xml version="1.0" encoding="UTF-8" standalone="no"?>
<!DOCTYPE svg PUBLIC "-//W3C//DTD SVG 1.1//EN"
 "http://www.w3.org/Graphics/SVG/1.1/DTD/svg11.dtd">
<!-- Generated by graphviz version 2.43.0 (0)
 -->
<!-- Title: js_parse_string Pages: 1 -->
<svg width="1221pt" height="1257pt"
 viewBox="0.00 0.00 1221.00 1256.57" xmlns="http://www.w3.org/2000/svg" xmlns:xlink="http://www.w3.org/1999/xlink">
<g id="graph0" class="graph" transform="scale(1 1) rotate(0) translate(4 1252.57)">
<title>js_parse_string</title>
<!-- Node1 -->
<g id="node1" class="node">
<title>Node1</title>
<g id="a_node1"><a xlink:title=" ">
<polygon fill="#bfbfbf" stroke="black" points="1123,-655.09 1123,-674.09 1213,-674.09 1213,-655.09 1123,-655.09"/>
<text text-anchor="middle" x="1168" y="-662.09" font-family="Helvetica,sans-Serif" font-size="10.00">js_parse_string</text>
</a>
</g>
</g>
<!-- Node2 -->
<g id="node2" class="node">
<title>Node2</title>
<g id="a_node2"><a xlink:href="quickjs_8c.html#a035daca514f14aacc1e0cff81d8e423a" target="_top" xlink:title=" ">
<polygon fill="none" stroke="black" points="651,-36.09 651,-55.09 758,-55.09 758,-36.09 651,-36.09"/>
<text text-anchor="middle" x="704.5" y="-43.09" font-family="Helvetica,sans-Serif" font-size="10.00">js_parse_template</text>
</a>
</g>
</g>
<!-- Node1&#45;&gt;Node2 -->
<g id="edge1" class="edge">
<title>Node1&#45;&gt;Node2</title>
<path fill="none" stroke="midnightblue" d="M1163.6,-644.82C1146.1,-545.47 1062.71,-102.37 955,-24.59 884.17,26.56 770.75,-15.55 725.29,-36.01"/>
<polygon fill="midnightblue" stroke="midnightblue" points="1160.21,-645.71 1165.37,-654.96 1167.1,-644.51 1160.21,-645.71"/>
</g>
<!-- Node38 -->
<g id="node4" class="node">
<title>Node38</title>
<g id="a_node4"><a xlink:href="quickjs_8c.html#a7fbd31397bde22dfa2b876b945f9afb4" target="_top" xlink:title=" ">
<polygon fill="none" stroke="black" points="991,-1185.09 991,-1204.09 1087,-1204.09 1087,-1185.09 991,-1185.09"/>
<text text-anchor="middle" x="1039" y="-1192.09" font-family="Helvetica,sans-Serif" font-size="10.00">json_next_token</text>
</a>
</g>
</g>
<!-- Node1&#45;&gt;Node38 -->
<g id="edge4" class="edge">
<title>Node1&#45;&gt;Node38</title>
<path fill="none" stroke="midnightblue" d="M1162.32,-684.11C1141.49,-771.03 1057.53,-1121.43 1042.36,-1184.76"/>
<polygon fill="midnightblue" stroke="midnightblue" points="1165.76,-684.78 1164.69,-674.24 1158.95,-683.15 1165.76,-684.78"/>
</g>
<!-- Node46 -->
<g id="node8" class="node">
<title>Node46</title>
<g id="a_node8"><a xlink:href="quickjs_8c.html#a75a3798e2045f6e403c1ef467126d1fb" target="_top" xlink:title=" ">
<polygon fill="none" stroke="red" points="1003.5,-655.09 1003.5,-674.09 1074.5,-674.09 1074.5,-655.09 1003.5,-655.09"/>
<text text-anchor="middle" x="1039" y="-662.09" font-family="Helvetica,sans-Serif" font-size="10.00">next_token</text>
</a>
</g>
</g>
<!-- Node1&#45;&gt;Node46 -->
<g id="edge11" class="edge">
<title>Node1&#45;&gt;Node46</title>
<path fill="none" stroke="midnightblue" d="M1112.77,-664.59C1099.9,-664.59 1086.51,-664.59 1074.78,-664.59"/>
<polygon fill="midnightblue" stroke="midnightblue" points="1112.94,-668.09 1122.94,-664.59 1112.94,-661.09 1112.94,-668.09"/>
</g>
<!-- Node3 -->
<g id="node3" class="node">
<title>Node3</title>
<g id="a_node3"><a xlink:href="quickjs_8c.html#a840642c87c5a82d4cc68333376a3b6de" target="_top" xlink:title=" ">
<polygon fill="none" stroke="red" points="0,-169.09 0,-188.09 122,-188.09 122,-169.09 0,-169.09"/>
<text text-anchor="middle" x="61" y="-176.09" font-family="Helvetica,sans-Serif" font-size="10.00">js_parse_postfix_expr</text>
</a>
</g>
</g>
<!-- Node2&#45;&gt;Node3 -->
<g id="edge2" class="edge">
<title>Node2&#45;&gt;Node3</title>
<path fill="none" stroke="midnightblue" d="M647.27,-34.3C544.34,-16.51 321.23,8.53 158,-69.59 112.05,-91.58 78.84,-146.73 66.88,-169.02"/>
<polygon fill="midnightblue" stroke="midnightblue" points="646.69,-37.75 657.15,-36.05 647.91,-30.86 646.69,-37.75"/>
</g>
<!-- Node3&#45;&gt;Node3 -->
<g id="edge3" class="edge">
<title>Node3&#45;&gt;Node3</title>
<path fill="none" stroke="midnightblue" d="M87.04,-197.62C85.62,-202.72 76.94,-206.59 61,-206.59 36.12,-206.59 28.92,-197.15 39.42,-188.35"/>
<polygon fill="midnightblue" stroke="midnightblue" points="90.07,-195.84 82.58,-188.35 83.76,-198.87 90.07,-195.84"/>
</g>
<!-- Node39 -->
<g id="node5" class="node">
<title>Node39</title>
<g id="a_node5"><a xlink:href="quickjs_8c.html#a2ce39fc64f8e4a7a0e19bf5527df730f" target="_top" xlink:title=" ">
<polygon fill="none" stroke="red" points="491.5,-1214.09 491.5,-1233.09 578.5,-1233.09 578.5,-1214.09 491.5,-1214.09"/>
<text text-anchor="middle" x="535" y="-1221.09" font-family="Helvetica,sans-Serif" font-size="10.00">JS_ParseJSON2</text>
</a>
</g>
</g>
<!-- Node38&#45;&gt;Node39 -->
<g id="edge5" class="edge">
<title>Node38&#45;&gt;Node39</title>
<path fill="none" stroke="midnightblue" d="M1013.76,-1209.06C997.71,-1217.78 975.84,-1228.05 955,-1232.59 820.11,-1262 654.99,-1242.87 578.56,-1230.99"/>
<polygon fill="midnightblue" stroke="midnightblue" points="1015.48,-1212.11 1022.49,-1204.16 1012.06,-1206 1015.48,-1212.11"/>
</g>
<!-- Node44 -->
<g id="node6" class="node">
<title>Node44</title>
<g id="a_node6"><a xlink:href="quickjs_8c.html#ae66a7542eaaa25e85eeb8427eca70eae" target="_top" xlink:title=" ">
<polygon fill="none" stroke="black" points="827.5,-1204.09 827.5,-1223.09 934.5,-1223.09 934.5,-1204.09 827.5,-1204.09"/>
<text text-anchor="middle" x="881" y="-1211.09" font-family="Helvetica,sans-Serif" font-size="10.00">json_parse_expect</text>
</a>
</g>
</g>
<!-- Node38&#45;&gt;Node44 -->
<g id="edge6" class="edge">
<title>Node38&#45;&gt;Node44</title>
<path fill="none" stroke="midnightblue" d="M980.55,-1201.59C965.48,-1203.42 949.31,-1205.39 934.52,-1207.19"/>
<polygon fill="midnightblue" stroke="midnightblue" points="981.27,-1205.03 990.77,-1200.34 980.42,-1198.08 981.27,-1205.03"/>
</g>
<!-- Node45 -->
<g id="node7" class="node">
<title>Node45</title>
<g id="a_node7"><a xlink:href="quickjs_8c.html#a756c1ab5dee9a6dd07723d7a075e2a53" target="_top" xlink:title=" ">
<polygon fill="none" stroke="black" points="654,-1186.09 654,-1205.09 755,-1205.09 755,-1186.09 654,-1186.09"/>
<text text-anchor="middle" x="704.5" y="-1193.09" font-family="Helvetica,sans-Serif" font-size="10.00">json_parse_value</text>
</a>
</g>
</g>
<!-- Node38&#45;&gt;Node45 -->
<g id="edge10" class="edge">
<title>Node38&#45;&gt;Node45</title>
<path fill="none" stroke="midnightblue" d="M980.43,-1194.43C933.69,-1194.34 866.09,-1194.3 807,-1194.59 790.08,-1194.67 771.58,-1194.83 755.06,-1195"/>
<polygon fill="midnightblue" stroke="midnightblue" points="980.65,-1197.93 990.66,-1194.45 980.67,-1190.93 980.65,-1197.93"/>
</g>
<!-- Node44&#45;&gt;Node45 -->
<g id="edge7" class="edge">
<title>Node44&#45;&gt;Node45</title>
<path fill="none" stroke="midnightblue" d="M817.04,-1207.1C796.69,-1205 774.42,-1202.7 755.17,-1200.71"/>
<polygon fill="midnightblue" stroke="midnightblue" points="816.86,-1210.6 827.17,-1208.14 817.58,-1203.63 816.86,-1210.6"/>
</g>
<!-- Node45&#45;&gt;Node39 -->
<g id="edge8" class="edge">
<title>Node45&#45;&gt;Node39</title>
<path fill="none" stroke="midnightblue" d="M643.66,-1205.59C622.13,-1209.19 598.29,-1213.18 578.53,-1216.48"/>
<polygon fill="midnightblue" stroke="midnightblue" points="644.41,-1209.02 653.7,-1203.91 643.26,-1202.11 644.41,-1209.02"/>
</g>
<!-- Node45&#45;&gt;Node45 -->
<g id="edge9" class="edge">
<title>Node45&#45;&gt;Node45</title>
<path fill="none" stroke="midnightblue" d="M735.94,-1213.86C735.04,-1219.33 724.56,-1223.59 704.5,-1223.59 674.64,-1223.59 666.01,-1214.15 678.61,-1205.35"/>
<polygon fill="midnightblue" stroke="midnightblue" points="738.78,-1211.82 730.39,-1205.35 732.92,-1215.64 738.78,-1211.82"/>
</g>
<!-- Node46&#45;&gt;Node2 -->
<g id="edge76" class="edge">
<title>Node46&#45;&gt;Node2</title>
<path fill="none" stroke="midnightblue" d="M1038.36,-644.84C1039.63,-550.97 1039.94,-150.98 955,-69.59 898.91,-15.85 799.74,-25.38 744.83,-36.08"/>
<polygon fill="midnightblue" stroke="midnightblue" points="1034.86,-644.89 1038.2,-654.95 1041.86,-645 1034.86,-644.89"/>
</g>
<!-- Node46&#45;&gt;Node3 -->
<g id="edge75" class="edge">
<title>Node46&#45;&gt;Node3</title>
<path fill="none" stroke="midnightblue" d="M1037.84,-644.6C1036.71,-556.86 1027.66,-206.88 955,-131.59 876.58,-50.33 818.42,-83.59 705.5,-83.59 705.5,-83.59 705.5,-83.59 355.5,-83.59 245.44,-83.59 122.95,-144.81 78.91,-168.96"/>
<polygon fill="midnightblue" stroke="midnightblue" points="1034.34,-644.82 1037.95,-654.78 1041.34,-644.75 1034.34,-644.82"/>
</g>
<!-- Node47 -->
<g id="node9" class="node">
<title>Node47</title>
<g id="a_node9"><a xlink:href="quickjs_8c.html#a08f5927b79691c477c726fc5d309cfef" target="_top" xlink:title=" ">
<polygon fill="none" stroke="red" points="683,-826.09 683,-845.09 726,-845.09 726,-826.09 683,-826.09"/>
<text text-anchor="middle" x="704.5" y="-833.09" font-family="Helvetica,sans-Serif" font-size="10.00">is_let</text>
</a>
</g>
</g>
<!-- Node46&#45;&gt;Node47 -->
<g id="edge12" class="edge">
<title>Node46&#45;&gt;Node47</title>
<path fill="none" stroke="midnightblue" d="M1028.95,-683.22C1016.03,-707.8 989.93,-750.61 955,-773.59 916.68,-798.79 779.11,-823.48 726.32,-832.25"/>
<polygon fill="midnightblue" stroke="midnightblue" points="1032.12,-684.7 1033.53,-674.2 1025.88,-681.53 1032.12,-684.7"/>
</g>
<!-- Node15 -->
<g id="node10" class="node">
<title>Node15</title>
<g id="a_node10"><a xlink:href="quickjs_8c.html#ac188b916dd086803591a67de7e7a85f6" target="_top" xlink:title=" ">
<polygon fill="none" stroke="red" points="482.5,-788.09 482.5,-807.09 587.5,-807.09 587.5,-788.09 482.5,-788.09"/>
<text text-anchor="middle" x="535" y="-795.09" font-family="Helvetica,sans-Serif" font-size="10.00">js_parse_for_in_of</text>
</a>
</g>
</g>
<!-- Node46&#45;&gt;Node15 -->
<g id="edge68" class="edge">
<title>Node46&#45;&gt;Node15</title>
<path fill="none" stroke="midnightblue" d="M1024.24,-681.99C1009.21,-699.71 983.44,-726.52 955,-740.59 880.53,-777.43 853.27,-762.03 771,-773.59 708.25,-782.41 635.65,-789.32 587.94,-793.42"/>
<polygon fill="midnightblue" stroke="midnightblue" points="1027.07,-684.06 1030.72,-674.12 1021.66,-679.61 1027.07,-684.06"/>
</g>
<!-- Node32 -->
<g id="node11" class="node">
<title>Node32</title>
<g id="a_node11"><a xlink:href="quickjs_8c.html#a253917187cfb6b3db09d355b31edb3d5" target="_top" xlink:title=" ">
<polygon fill="none" stroke="black" points="643.5,-150.09 643.5,-169.09 765.5,-169.09 765.5,-150.09 643.5,-150.09"/>
<text text-anchor="middle" x="704.5" y="-157.09" font-family="Helvetica,sans-Serif" font-size="10.00">js_parse_array_literal</text>
</a>
</g>
</g>
<!-- Node46&#45;&gt;Node32 -->
<g id="edge14" class="edge">
<title>Node46&#45;&gt;Node32</title>
<path fill="none" stroke="midnightblue" d="M1037.65,-644.84C1035.74,-562.46 1023.98,-247.58 955,-183.59 898.53,-131.21 800.88,-139.79 745.98,-150.07"/>
<polygon fill="midnightblue" stroke="midnightblue" points="1034.15,-644.94 1037.86,-654.87 1041.15,-644.8 1034.15,-644.94"/>
</g>
<!-- Node30 -->
<g id="node12" class="node">
<title>Node30</title>
<g id="a_node12"><a xlink:href="quickjs_8c.html#afa1bc2743b3cf892d36544a708453736" target="_top" xlink:title=" ">
<polygon fill="none" stroke="red" points="641,-1034.09 641,-1053.09 768,-1053.09 768,-1034.09 641,-1034.09"/>
<text text-anchor="middle" x="704.5" y="-1041.09" font-family="Helvetica,sans-Serif" font-size="10.00">js_parse_assign_expr2</text>
</a>
</g>
</g>
<!-- Node46&#45;&gt;Node30 -->
<g id="edge16" class="edge">
<title>Node46&#45;&gt;Node30</title>
<path fill="none" stroke="midnightblue" d="M1036.32,-684.58C1030.17,-752.79 1006.46,-974.59 955,-1019.59 898,-1069.43 803.22,-1062.61 748.35,-1053.12"/>
<polygon fill="midnightblue" stroke="midnightblue" points="1039.83,-684.62 1037.22,-674.35 1032.86,-684.01 1039.83,-684.62"/>
</g>
<!-- Node29 -->
<g id="node13" class="node">
<title>Node29</title>
<g id="a_node13"><a xlink:href="quickjs_8c.html#a6686f5baeecd532b043761b6c24ed431" target="_top" xlink:title=" ">
<polygon fill="none" stroke="black" points="300,-1034.09 300,-1053.09 413,-1053.09 413,-1034.09 300,-1034.09"/>
<text text-anchor="middle" x="356.5" y="-1041.09" font-family="Helvetica,sans-Serif" font-size="10.00">js_parse_cond_expr</text>
</a>
</g>
</g>
<!-- Node46&#45;&gt;Node29 -->
<g id="edge30" class="edge">
<title>Node46&#45;&gt;Node29</title>
<path fill="none" stroke="midnightblue" d="M1036.69,-684.54C1031.54,-756.79 1010.14,-1003.15 955,-1054.59 875.85,-1128.44 575.14,-1082.09 468,-1066.59 444.44,-1063.18 418.35,-1057.83 397.44,-1053.14"/>
<polygon fill="midnightblue" stroke="midnightblue" points="1040.21,-684.38 1037.41,-674.16 1033.23,-683.9 1040.21,-684.38"/>
</g>
<!-- Node33 -->
<g id="node14" class="node">
<title>Node33</title>
<g id="a_node14"><a xlink:href="quickjs_8c.html#a9fc8ae779f77a7886fc7cfa48cc487fb" target="_top" xlink:title=" ">
<polygon fill="none" stroke="red" points="490,-987.09 490,-1006.09 580,-1006.09 580,-987.09 490,-987.09"/>
<text text-anchor="middle" x="535" y="-994.09" font-family="Helvetica,sans-Serif" font-size="10.00">js_parse_expr2</text>
</a>
</g>
</g>
<!-- Node46&#45;&gt;Node33 -->
<g id="edge61" class="edge">
<title>Node46&#45;&gt;Node33</title>
<path fill="none" stroke="midnightblue" d="M1035.95,-684.49C1028.91,-748.66 1003.41,-948.14 955,-986.59 898.23,-1031.67 676.01,-1012.64 580.27,-1001.98"/>
<polygon fill="midnightblue" stroke="midnightblue" points="1039.48,-684.47 1037.05,-674.15 1032.52,-683.73 1039.48,-684.47"/>
</g>
<!-- Node13 -->
<g id="node15" class="node">
<title>Node13</title>
<g id="a_node15"><a xlink:href="quickjs_8c.html#acc0cac53be5317d9cab6a79afcd7da48" target="_top" xlink:title=" ">
<polygon fill="none" stroke="red" points="660,-302.09 660,-321.09 749,-321.09 749,-302.09 660,-302.09"/>
<text text-anchor="middle" x="704.5" y="-309.09" font-family="Helvetica,sans-Serif" font-size="10.00">js_parse_block</text>
</a>
</g>
</g>
<!-- Node46&#45;&gt;Node13 -->
<g id="edge22" class="edge">
<title>Node46&#45;&gt;Node13</title>
<path fill="none" stroke="midnightblue" d="M1036.16,-644.47C1031.08,-599.82 1013.15,-491.22 955,-425.59 900.2,-363.75 805.08,-333.37 749.46,-320.21"/>
<polygon fill="midnightblue" stroke="midnightblue" points="1032.7,-645.02 1037.21,-654.61 1039.66,-644.3 1032.7,-645.02"/>
</g>
<!-- Node5 -->
<g id="node16" class="node">
<title>Node5</title>
<g id="a_node16"><a xlink:href="quickjs_8c.html#a00eb789430243c24dab4a63ad6a79653" target="_top" xlink:title=" ">
<polygon fill="none" stroke="red" points="158,-378.09 158,-397.09 245,-397.09 245,-378.09 158,-378.09"/>
<text text-anchor="middle" x="201.5" y="-385.09" font-family="Helvetica,sans-Serif" font-size="10.00">js_parse_class</text>
</a>
</g>
</g>
<!-- Node46&#45;&gt;Node5 -->
<g id="edge23" class="edge">
<title>Node46&#45;&gt;Node5</title>
<path fill="none" stroke="midnightblue" d="M1037.54,-645.03C1035.25,-566.08 1022.24,-272.51 955,-216.59 838.21,-119.45 417.23,-263.38 281,-330.59 254.57,-343.63 227.59,-365.48 213.16,-378"/>
<polygon fill="midnightblue" stroke="midnightblue" points="1034.04,-645.16 1037.81,-655.06 1041.04,-644.97 1034.04,-645.16"/>
</g>
<!-- Node6 -->
<g id="node17" class="node">
<title>Node6</title>
<g id="a_node17"><a xlink:href="quickjs_8c.html#a498e1d5c7de1b59c1630e9847cde1e41" target="_top" xlink:title=" ">
<polygon fill="none" stroke="red" points="14,-621.09 14,-640.09 108,-640.09 108,-621.09 14,-621.09"/>
<text text-anchor="middle" x="61" y="-628.09" font-family="Helvetica,sans-Serif" font-size="10.00">js_parse_export</text>
</a>
</g>
</g>
<!-- Node46&#45;&gt;Node6 -->
<g id="edge60" class="edge">
<title>Node46&#45;&gt;Node6</title>
<path fill="none" stroke="midnightblue" d="M1036.98,-684.21C1032.65,-759.73 1013.25,-1030.3 955,-1088.59 875.12,-1168.52 818.51,-1137.59 705.5,-1137.59 705.5,-1137.59 705.5,-1137.59 355.5,-1137.59 116.49,-1137.59 68.97,-710.36 62.78,-640.26"/>
<polygon fill="midnightblue" stroke="midnightblue" points="1040.48,-684.35 1037.53,-674.18 1033.49,-683.97 1040.48,-684.35"/>
</g>
<!-- Node9 -->
<g id="node18" class="node">
<title>Node9</title>
<g id="a_node18"><a xlink:href="quickjs_8c.html#adf95ddf430ef93fd9efea1cc2f8a2fbe" target="_top" xlink:title=" ">
<polygon fill="none" stroke="black" points="281,-340.09 281,-359.09 432,-359.09 432,-340.09 281,-340.09"/>
<text text-anchor="middle" x="356.5" y="-347.09" font-family="Helvetica,sans-Serif" font-size="10.00">js_parse_class_default_ctor</text>
</a>
</g>
</g>
<!-- Node46&#45;&gt;Node9 -->
<g id="edge26" class="edge">
<title>Node46&#45;&gt;Node9</title>
<path fill="none" stroke="midnightblue" d="M1036.37,-644.66C1028.65,-552.69 994.51,-172.36 955,-138.59 947.5,-132.18 649.46,-136.71 638,-140.59 512.59,-183 397.36,-304.74 365.92,-339.94"/>
<polygon fill="midnightblue" stroke="midnightblue" points="1032.9,-645.15 1037.21,-654.83 1039.88,-644.57 1032.9,-645.15"/>
</g>
<!-- Node28 -->
<g id="node19" class="node">
<title>Node28</title>
<g id="a_node19"><a xlink:href="quickjs_8c.html#a93b69939f7af67646a177249bf2deb4d" target="_top" xlink:title=" ">
<polygon fill="none" stroke="black" points="469,-925.09 469,-944.09 601,-944.09 601,-925.09 469,-925.09"/>
<text text-anchor="middle" x="535" y="-932.09" font-family="Helvetica,sans-Serif" font-size="10.00">js_parse_coalesce_expr</text>
</a>
</g>
</g>
<!-- Node46&#45;&gt;Node28 -->
<g id="edge28" class="edge">
<title>Node46&#45;&gt;Node28</title>
<path fill="none" stroke="midnightblue" d="M1032.39,-683.8C1022.26,-715.07 997.85,-776.78 955,-809.59 926.09,-831.73 672.52,-881.02 638,-892.59 609.31,-902.2 577.18,-915.95 556.79,-925.06"/>
<polygon fill="midnightblue" stroke="midnightblue" points="1035.78,-684.69 1035.39,-674.1 1029.09,-682.62 1035.78,-684.69"/>
</g>
<!-- Node26 -->
<g id="node20" class="node">
<title>Node26</title>
<g id="a_node20"><a xlink:href="quickjs_8c.html#a2ecfb6abb190101748202a8aa5821fba" target="_top" xlink:title=" ">
<polygon fill="none" stroke="red" points="834.5,-864.09 834.5,-883.09 927.5,-883.09 927.5,-864.09 834.5,-864.09"/>
<text text-anchor="middle" x="881" y="-871.09" font-family="Helvetica,sans-Serif" font-size="10.00">js_parse_delete</text>
</a>
</g>
</g>
<!-- Node46&#45;&gt;Node26 -->
<g id="edge31" class="edge">
<title>Node46&#45;&gt;Node26</title>
<path fill="none" stroke="midnightblue" d="M1034.57,-684.41C1027.03,-722.03 1005.48,-804.11 955,-849.59 947.27,-856.55 937.47,-861.5 927.59,-865.02"/>
<polygon fill="midnightblue" stroke="midnightblue" points="1038.07,-684.72 1036.48,-674.25 1031.19,-683.43 1038.07,-684.72"/>
</g>
<!-- Node23 -->
<g id="node21" class="node">
<title>Node23</title>
<g id="a_node21"><a xlink:href="quickjs_8c.html#a26be546cf89c4580ba9020e8fc43a759" target="_top" xlink:title=" ">
<polygon fill="none" stroke="red" points="641,-530.59 641,-560.59 768,-560.59 768,-530.59 641,-530.59"/>
<text text-anchor="start" x="649" y="-548.59" font-family="Helvetica,sans-Serif" font-size="10.00">js_parse_destructuring</text>
<text text-anchor="middle" x="704.5" y="-537.59" font-family="Helvetica,sans-Serif" font-size="10.00">_element</text>
</a>
</g>
</g>
<!-- Node46&#45;&gt;Node23 -->
<g id="edge32" class="edge">
<title>Node46&#45;&gt;Node23</title>
<path fill="none" stroke="midnightblue" d="M1026.53,-646.28C1012.45,-625.55 986.51,-592.56 955,-576.59 896.5,-546.94 820.73,-541.41 768.1,-541.91"/>
<polygon fill="midnightblue" stroke="midnightblue" points="1023.74,-648.4 1032.15,-654.85 1029.59,-644.56 1023.74,-648.4"/>
</g>
<!-- Node8 -->
<g id="node22" class="node">
<title>Node8</title>
<g id="a_node22"><a xlink:href="quickjs_8c.html#acc9eb677cab8dfcf45f59381f8a19601" target="_top" xlink:title=" ">
<polygon fill="none" stroke="red" points="468,-378.09 468,-397.09 602,-397.09 602,-378.09 468,-378.09"/>
<text text-anchor="middle" x="535" y="-385.09" font-family="Helvetica,sans-Serif" font-size="10.00">js_parse_function_decl2</text>
</a>
</g>
</g>
<!-- Node46&#45;&gt;Node8 -->
<g id="edge72" class="edge">
<title>Node46&#45;&gt;Node8</title>
<path fill="none" stroke="midnightblue" d="M1035.73,-645.05C1027.91,-581.14 1000.09,-379.89 955,-335.59 904.29,-285.76 704.15,-266.56 638,-292.59 593.41,-310.14 556.78,-357.37 542.47,-377.87"/>
<polygon fill="midnightblue" stroke="midnightblue" points="1032.26,-645.5 1036.92,-655.01 1039.21,-644.67 1032.26,-645.5"/>
</g>
<!-- Node48 -->
<g id="node23" class="node">
<title>Node48</title>
<g id="a_node23"><a xlink:href="quickjs_8c.html#ab10609a91c359ea5d3051f7bb646af83" target="_top" xlink:title=" ">
<polygon fill="none" stroke="black" points="807,-586.09 807,-605.09 955,-605.09 955,-586.09 807,-586.09"/>
<text text-anchor="middle" x="881" y="-593.09" font-family="Helvetica,sans-Serif" font-size="10.00">js_parse_destructuring_var</text>
</a>
</g>
</g>
<!-- Node46&#45;&gt;Node48 -->
<g id="edge40" class="edge">
<title>Node46&#45;&gt;Node48</title>
<path fill="none" stroke="midnightblue" d="M1008.34,-650.77C992.55,-643.47 972.77,-634.43 955,-626.59 938.37,-619.25 919.48,-611.24 905.09,-605.2"/>
<polygon fill="midnightblue" stroke="midnightblue" points="1007.06,-654.03 1017.61,-655.06 1010,-647.68 1007.06,-654.03"/>
</g>
<!-- Node49 -->
<g id="node24" class="node">
<title>Node49</title>
<g id="a_node24"><a xlink:href="quickjs_8c.html#a64f81788f15df1683a1f8c3919cfd6fd" target="_top" xlink:title=" ">
<polygon fill="none" stroke="red" points="826,-226.09 826,-245.09 936,-245.09 936,-226.09 826,-226.09"/>
<text text-anchor="middle" x="881" y="-233.09" font-family="Helvetica,sans-Serif" font-size="10.00">js_parse_directives</text>
</a>
</g>
</g>
<!-- Node46&#45;&gt;Node49 -->
<g id="edge42" class="edge">
<title>Node46&#45;&gt;Node49</title>
<path fill="none" stroke="midnightblue" d="M1036.52,-644.65C1030.71,-571.36 1007.11,-318.1 955,-259.59 949.41,-253.31 942.15,-248.67 934.38,-245.24"/>
<polygon fill="midnightblue" stroke="midnightblue" points="1033.05,-645.11 1037.3,-654.81 1040.03,-644.57 1033.05,-645.11"/>
</g>
<!-- Node50 -->
<g id="node25" class="node">
<title>Node50</title>
<g id="a_node25"><a xlink:href="quickjs_8c.html#aeca8ed71e1eef8ec809afab744958c28" target="_top" xlink:title=" ">
<polygon fill="none" stroke="red" points="833.5,-435.09 833.5,-454.09 928.5,-454.09 928.5,-435.09 833.5,-435.09"/>
<text text-anchor="middle" x="881" y="-442.09" font-family="Helvetica,sans-Serif" font-size="10.00">js_parse_expect</text>
</a>
</g>
</g>
<!-- Node46&#45;&gt;Node50 -->
<g id="edge44" class="edge">
<title>Node46&#45;&gt;Node50</title>
<path fill="none" stroke="midnightblue" d="M1026.58,-646.03C1011.01,-620.99 981.97,-575.19 955,-537.59 932.51,-506.23 903.68,-470.78 889.96,-454.15"/>
<polygon fill="midnightblue" stroke="midnightblue" points="1023.79,-648.18 1032.03,-654.84 1029.74,-644.49 1023.79,-648.18"/>
</g>
<!-- Node51 -->
<g id="node26" class="node">
<title>Node51</title>
<g id="a_node26"><a xlink:href="quickjs_8c.html#aa24f7964f6d938a05c3c3c03af5a01e9" target="_top" xlink:title=" ">
<polygon fill="none" stroke="red" points="657,-712.09 657,-731.09 752,-731.09 752,-712.09 657,-712.09"/>
<text text-anchor="middle" x="704.5" y="-719.09" font-family="Helvetica,sans-Serif" font-size="10.00">js_parse_import</text>
</a>
</g>
</g>
<!-- Node46&#45;&gt;Node51 -->
<g id="edge73" class="edge">
<title>Node46&#45;&gt;Node51</title>
<path fill="none" stroke="midnightblue" d="M993.06,-671.68C946.48,-679.1 871.57,-691.24 807,-702.59 789.08,-705.74 769.41,-709.38 752.2,-712.62"/>
<polygon fill="midnightblue" stroke="midnightblue" points="993.8,-675.11 1003.13,-670.08 992.7,-668.19 993.8,-675.11"/>
</g>
<!-- Node52 -->
<g id="node27" class="node">
<title>Node52</title>
<g id="a_node27"><a xlink:href="quickjs_8c.html#a02cbd69384985a4e904190810cf45641" target="_top" xlink:title=" ">
<polygon fill="none" stroke="red" points="818.5,-636.09 818.5,-655.09 943.5,-655.09 943.5,-636.09 818.5,-636.09"/>
<text text-anchor="middle" x="881" y="-643.09" font-family="Helvetica,sans-Serif" font-size="10.00">js_parse_expect_semi</text>
</a>
</g>
</g>
<!-- Node46&#45;&gt;Node52 -->
<g id="edge56" class="edge">
<title>Node46&#45;&gt;Node52</title>
<path fill="none" stroke="midnightblue" d="M993.07,-659.12C977.62,-657.24 960.06,-655.1 943.53,-653.08"/>
<polygon fill="midnightblue" stroke="midnightblue" points="993.03,-662.64 1003.38,-660.37 993.88,-655.69 993.03,-662.64"/>
</g>
<!-- Node27 -->
<g id="node28" class="node">
<title>Node27</title>
<g id="a_node28"><a xlink:href="quickjs_8c.html#ad70b14684de2ed3babfd7c2264249437" target="_top" xlink:title=" ">
<polygon fill="none" stroke="black" points="821,-940.09 821,-959.09 941,-959.09 941,-940.09 821,-940.09"/>
<text text-anchor="middle" x="881" y="-947.09" font-family="Helvetica,sans-Serif" font-size="10.00">js_parse_expr_binary</text>
</a>
</g>
</g>
<!-- Node46&#45;&gt;Node27 -->
<g id="edge62" class="edge">
<title>Node46&#45;&gt;Node27</title>
<path fill="none" stroke="midnightblue" d="M1037.56,-684.22C1035.39,-732.25 1023.14,-856.78 955,-925.59 948.71,-931.94 940.71,-936.61 932.33,-940.05"/>
<polygon fill="midnightblue" stroke="midnightblue" points="1041.05,-684.33 1037.9,-674.21 1034.06,-684.08 1041.05,-684.33"/>
</g>
<!-- Node37 -->
<g id="node29" class="node">
<title>Node37</title>
<g id="a_node29"><a xlink:href="quickjs_8c.html#aae2d76e4aa080c7737119ef079a9b97d" target="_top" xlink:title=" ">
<polygon fill="none" stroke="black" points="638,-902.09 638,-921.09 771,-921.09 771,-902.09 638,-902.09"/>
<text text-anchor="middle" x="704.5" y="-909.09" font-family="Helvetica,sans-Serif" font-size="10.00">js_parse_logical_and_or</text>
</a>
</g>
</g>
<!-- Node46&#45;&gt;Node37 -->
<g id="edge74" class="edge">
<title>Node46&#45;&gt;Node37</title>
<path fill="none" stroke="midnightblue" d="M1037.49,-684.58C1035.15,-730.08 1022.45,-841.43 955,-892.59 894.95,-938.13 801.69,-930.67 747.82,-921.13"/>
<polygon fill="midnightblue" stroke="midnightblue" points="1040.99,-684.63 1037.89,-674.5 1034,-684.35 1040.99,-684.63"/>
</g>
<!-- Node53 -->
<g id="node30" class="node">
<title>Node53</title>
<g id="a_node30"><a xlink:href="quickjs_8c.html#a736435f0774c85e09f2817c97ec47bbf" target="_top" xlink:title=" ">
<polygon fill="none" stroke="black" points="820,-712.09 820,-731.09 942,-731.09 942,-712.09 820,-712.09"/>
<text text-anchor="middle" x="881" y="-719.09" font-family="Helvetica,sans-Serif" font-size="10.00">js_parse_from_clause</text>
</a>
</g>
</g>
<!-- Node46&#45;&gt;Node53 -->
<g id="edge69" class="edge">
<title>Node46&#45;&gt;Node53</title>
<path fill="none" stroke="midnightblue" d="M1005.39,-678.08C990.17,-684.25 971.74,-691.52 955,-697.59 941.08,-702.64 925.51,-707.82 912.33,-712.07"/>
<polygon fill="midnightblue" stroke="midnightblue" points="1006.95,-681.23 1014.89,-674.22 1004.31,-674.75 1006.95,-681.23"/>
</g>
<!-- Node47&#45;&gt;Node15 -->
<g id="edge13" class="edge">
<title>Node47&#45;&gt;Node15</title>
<path fill="none" stroke="midnightblue" d="M673.06,-828.68C646.43,-822.64 607.49,-813.81 577.92,-807.1"/>
<polygon fill="midnightblue" stroke="midnightblue" points="672.43,-832.13 682.96,-830.93 673.98,-825.3 672.43,-832.13"/>
</g>
<!-- Node32&#45;&gt;Node3 -->
<g id="edge15" class="edge">
<title>Node32&#45;&gt;Node3</title>
<path fill="none" stroke="midnightblue" d="M633.07,-161.68C506.18,-165.43 241.33,-173.28 122.26,-176.8"/>
<polygon fill="midnightblue" stroke="midnightblue" points="633.55,-165.16 643.44,-161.37 633.34,-158.17 633.55,-165.16"/>
</g>
<!-- Node30&#45;&gt;Node15 -->
<g id="edge21" class="edge">
<title>Node30&#45;&gt;Node15</title>
<path fill="none" stroke="midnightblue" d="M690.99,-1025.56C677.78,-1006.48 656.34,-975.47 638,-948.59 601.62,-895.28 558.45,-831.05 542.41,-807.15"/>
<polygon fill="midnightblue" stroke="midnightblue" points="688.2,-1027.68 696.77,-1033.9 693.95,-1023.69 688.2,-1027.68"/>
</g>
<!-- Node30&#45;&gt;Node30 -->
<g id="edge17" class="edge">
<title>Node30&#45;&gt;Node30</title>
<path fill="none" stroke="midnightblue" d="M735.94,-1061.86C735.04,-1067.33 724.56,-1071.59 704.5,-1071.59 674.64,-1071.59 666.01,-1062.15 678.61,-1053.35"/>
<polygon fill="midnightblue" stroke="midnightblue" points="738.78,-1059.82 730.39,-1053.35 732.92,-1063.64 738.78,-1059.82"/>
</g>
<!-- Node30&#45;&gt;Node29 -->
<g id="edge18" class="edge">
<title>Node30&#45;&gt;Node29</title>
<path fill="none" stroke="midnightblue" d="M630.68,-1037.97C565.78,-1036.31 472.18,-1036.48 413.12,-1038.47"/>
<polygon fill="midnightblue" stroke="midnightblue" points="630.75,-1041.47 640.84,-1038.25 630.94,-1034.47 630.75,-1041.47"/>
</g>
<!-- Node30&#45;&gt;Node33 -->
<g id="edge20" class="edge">
<title>Node30&#45;&gt;Node33</title>
<path fill="none" stroke="midnightblue" d="M659.68,-1031.29C631.72,-1023.45 595.99,-1013.42 570.13,-1006.17"/>
<polygon fill="midnightblue" stroke="midnightblue" points="659.03,-1034.75 669.6,-1034.08 660.92,-1028.01 659.03,-1034.75"/>
</g>
<!-- Node29&#45;&gt;Node30 -->
<g id="edge19" class="edge">
<title>Node29&#45;&gt;Node30</title>
<path fill="none" stroke="midnightblue" d="M423.27,-1049.02C485.85,-1050.81 579.32,-1050.78 640.84,-1048.93"/>
<polygon fill="midnightblue" stroke="midnightblue" points="423.23,-1045.52 413.12,-1048.71 423.01,-1052.51 423.23,-1045.52"/>
</g>
<!-- Node5&#45;&gt;Node3 -->
<g id="edge25" class="edge">
<title>Node5&#45;&gt;Node3</title>
<path fill="none" stroke="midnightblue" d="M188.52,-369.52C160.2,-326.77 89.85,-220.62 68.35,-188.17"/>
<polygon fill="midnightblue" stroke="midnightblue" points="185.75,-371.66 194.19,-378.07 191.58,-367.8 185.75,-371.66"/>
</g>
<!-- Node5&#45;&gt;Node6 -->
<g id="edge24" class="edge">
<title>Node5&#45;&gt;Node6</title>
<path fill="none" stroke="midnightblue" d="M190.07,-405.89C162.5,-454.25 88.42,-584.24 67.54,-620.87"/>
<polygon fill="midnightblue" stroke="midnightblue" points="193.16,-407.54 195.07,-397.12 187.08,-404.07 193.16,-407.54"/>
</g>
<!-- Node9&#45;&gt;Node5 -->
<g id="edge27" class="edge">
<title>Node9&#45;&gt;Node5</title>
<path fill="none" stroke="midnightblue" d="M307.02,-361.63C285.65,-366.94 260.89,-373.09 240.83,-378.07"/>
<polygon fill="midnightblue" stroke="midnightblue" points="308.03,-364.99 316.89,-359.18 306.34,-358.19 308.03,-364.99"/>
</g>
<!-- Node28&#45;&gt;Node29 -->
<g id="edge29" class="edge">
<title>Node28&#45;&gt;Node29</title>
<path fill="none" stroke="midnightblue" d="M509.71,-949.59C472.89,-972.33 403.98,-1014.89 373.13,-1033.94"/>
<polygon fill="midnightblue" stroke="midnightblue" points="511.67,-952.49 518.34,-944.26 507.99,-946.54 511.67,-952.49"/>
</g>
<!-- Node23&#45;&gt;Node3 -->
<g id="edge39" class="edge">
<title>Node23&#45;&gt;Node3</title>
<path fill="none" stroke="midnightblue" d="M630.56,-546.63C516.33,-544.39 294.23,-523.89 158,-406.59 87.05,-345.5 67.32,-223.12 63.03,-188.13"/>
<polygon fill="midnightblue" stroke="midnightblue" points="630.55,-550.13 640.61,-546.79 630.66,-543.13 630.55,-550.13"/>
</g>
<!-- Node23&#45;&gt;Node15 -->
<g id="edge34" class="edge">
<title>Node23&#45;&gt;Node15</title>
<path fill="none" stroke="midnightblue" d="M684.64,-569.03C671.18,-586.06 652.91,-609.84 638,-631.59 598.41,-689.34 556.15,-762.23 541.43,-788.02"/>
<polygon fill="midnightblue" stroke="midnightblue" points="687.71,-570.79 691.19,-560.78 682.23,-566.43 687.71,-570.79"/>
</g>
<!-- Node23&#45;&gt;Node23 -->
<g id="edge33" class="edge">
<title>Node23&#45;&gt;Node23</title>
<path fill="none" stroke="midnightblue" d="M734.35,-571.05C730.65,-575.77 720.7,-579.09 704.5,-579.09 677.92,-579.09 668.16,-570.15 675.22,-560.75"/>
<polygon fill="midnightblue" stroke="midnightblue" points="737.83,-570.54 733.78,-560.75 730.84,-570.93 737.83,-570.54"/>
</g>
<!-- Node23&#45;&gt;Node8 -->
<g id="edge35" class="edge">
<title>Node23&#45;&gt;Node8</title>
<path fill="none" stroke="midnightblue" d="M680.09,-523.51C643.15,-488.66 572.81,-422.31 546.38,-397.38"/>
<polygon fill="midnightblue" stroke="midnightblue" points="677.76,-526.12 687.44,-530.44 682.57,-521.03 677.76,-526.12"/>
</g>
<!-- Node8&#45;&gt;Node5 -->
<g id="edge36" class="edge">
<title>Node8&#45;&gt;Node5</title>
<path fill="none" stroke="midnightblue" d="M457.36,-387.59C391.35,-387.59 298.5,-387.59 245.01,-387.59"/>
<polygon fill="midnightblue" stroke="midnightblue" points="457.71,-391.09 467.71,-387.59 457.71,-384.09 457.71,-391.09"/>
</g>
<!-- Node8&#45;&gt;Node6 -->
<g id="edge38" class="edge">
<title>Node8&#45;&gt;Node6</title>
<path fill="none" stroke="midnightblue" d="M500.36,-401.04C433.4,-428.31 279.42,-493.5 158,-563.59 126.49,-581.78 92.11,-607.29 74.28,-620.99"/>
<polygon fill="midnightblue" stroke="midnightblue" points="502.02,-404.15 509.97,-397.14 499.39,-397.66 502.02,-404.15"/>
</g>
<!-- Node8&#45;&gt;Node9 -->
<g id="edge37" class="edge">
<title>Node8&#45;&gt;Node9</title>
<path fill="none" stroke="midnightblue" d="M479.41,-375.84C454.46,-370.46 425.27,-364.18 401.72,-359.11"/>
<polygon fill="midnightblue" stroke="midnightblue" points="478.95,-379.32 489.46,-378 480.42,-372.47 478.95,-379.32"/>
</g>
<!-- Node48&#45;&gt;Node23 -->
<g id="edge41" class="edge">
<title>Node48&#45;&gt;Node23</title>
<path fill="none" stroke="midnightblue" d="M836.96,-583.26C813.15,-576.43 783.36,-567.9 758.17,-560.68"/>
<polygon fill="midnightblue" stroke="midnightblue" points="836.19,-586.68 846.77,-586.07 838.12,-579.95 836.19,-586.68"/>
</g>
<!-- Node49&#45;&gt;Node8 -->
<g id="edge43" class="edge">
<title>Node49&#45;&gt;Node8</title>
<path fill="none" stroke="midnightblue" d="M815.27,-228.8C764.1,-226.42 692.47,-229.95 638,-259.59 611.79,-273.85 559.95,-350.85 542.16,-378.06"/>
<polygon fill="midnightblue" stroke="midnightblue" points="815.36,-232.31 825.54,-229.36 815.75,-225.32 815.36,-232.31"/>
</g>
<!-- Node50&#45;&gt;Node2 -->
<g id="edge55" class="edge">
<title>Node50&#45;&gt;Node2</title>
<path fill="none" stroke="midnightblue" d="M872.06,-425.09C858.2,-390.83 828.99,-317.5 807,-254.59 789.46,-204.43 794.34,-188.32 771,-140.59 754.55,-106.93 727.18,-71.76 713.62,-55.24"/>
<polygon fill="midnightblue" stroke="midnightblue" points="868.98,-426.83 875.99,-434.78 875.47,-424.2 868.98,-426.83"/>
</g>
<!-- Node50&#45;&gt;Node3 -->
<g id="edge54" class="edge">
<title>Node50&#45;&gt;Node3</title>
<path fill="none" stroke="midnightblue" d="M854.12,-430.21C832.38,-418.51 800.27,-402.12 771,-390.59 523.26,-293 211.97,-214.48 102.39,-188.11"/>
<polygon fill="midnightblue" stroke="midnightblue" points="852.58,-433.36 863.04,-435.06 855.93,-427.21 852.58,-433.36"/>
</g>
<!-- Node50&#45;&gt;Node15 -->
<g id="edge51" class="edge">
<title>Node50&#45;&gt;Node15</title>
<path fill="none" stroke="midnightblue" d="M868.1,-462.56C849.13,-490.61 810.19,-545.91 771,-587.59 717.47,-644.52 696.16,-650.4 638,-702.59 603.78,-733.3 564.17,-770.75 546.02,-788.03"/>
<polygon fill="midnightblue" stroke="midnightblue" points="871.07,-464.41 873.73,-454.15 865.26,-460.51 871.07,-464.41"/>
</g>
<!-- Node50&#45;&gt;Node32 -->
<g id="edge45" class="edge">
<title>Node50&#45;&gt;Node32</title>
<path fill="none" stroke="midnightblue" d="M868.67,-426.09C835.08,-371.22 736.76,-210.65 711.48,-169.36"/>
<polygon fill="midnightblue" stroke="midnightblue" points="865.79,-428.08 873.99,-434.78 871.76,-424.42 865.79,-428.08"/>
</g>
<!-- Node50&#45;&gt;Node29 -->
<g id="edge48" class="edge">
<title>Node50&#45;&gt;Node29</title>
<path fill="none" stroke="midnightblue" d="M838.95,-457.04C770.94,-477.72 641.95,-517.24 638,-520.59 611.01,-543.46 620.36,-561.34 602,-591.59 548.95,-679 517.77,-689.28 468,-778.59 415.1,-873.51 372.17,-998.94 360.58,-1034.08"/>
<polygon fill="midnightblue" stroke="midnightblue" points="839.96,-460.39 848.51,-454.13 837.93,-453.69 839.96,-460.39"/>
</g>
<!-- Node50&#45;&gt;Node13 -->
<g id="edge46" class="edge">
<title>Node50&#45;&gt;Node13</title>
<path fill="none" stroke="midnightblue" d="M858.91,-428.65C843.74,-416.73 823.19,-399.61 807,-382.59 788.87,-363.52 792.2,-351.18 771,-335.59 762.61,-329.42 752.46,-324.68 742.69,-321.12"/>
<polygon fill="midnightblue" stroke="midnightblue" points="857.1,-431.67 867.15,-435.03 861.38,-426.14 857.1,-431.67"/>
</g>
<!-- Node50&#45;&gt;Node5 -->
<g id="edge47" class="edge">
<title>Node50&#45;&gt;Node5</title>
<path fill="none" stroke="midnightblue" d="M823.02,-442.49C716.32,-438.12 479.25,-426.31 281,-401.59 269.32,-400.13 256.75,-398.1 245.15,-396.03"/>
<polygon fill="midnightblue" stroke="midnightblue" points="823.1,-446 833.24,-442.9 823.39,-439 823.1,-446"/>
</g>
<!-- Node50&#45;&gt;Node6 -->
<g id="edge50" class="edge">
<title>Node50&#45;&gt;Node6</title>
<path fill="none" stroke="midnightblue" d="M823.18,-450.32C773.93,-455.77 700.88,-465 638,-477.59 426.72,-519.89 178.02,-594.61 92.59,-621.02"/>
<polygon fill="midnightblue" stroke="midnightblue" points="823.76,-453.78 833.32,-449.22 823,-446.82 823.76,-453.78"/>
</g>
<!-- Node50&#45;&gt;Node23 -->
<g id="edge49" class="edge">
<title>Node50&#45;&gt;Node23</title>
<path fill="none" stroke="midnightblue" d="M858.2,-460.16C836.61,-475.26 802.33,-498.33 771,-515.59 761.47,-520.84 750.85,-525.99 740.99,-530.49"/>
<polygon fill="midnightblue" stroke="midnightblue" points="860.48,-462.84 866.63,-454.22 856.44,-457.12 860.48,-462.84"/>
</g>
<!-- Node50&#45;&gt;Node8 -->
<g id="edge52" class="edge">
<title>Node50&#45;&gt;Node8</title>
<path fill="none" stroke="midnightblue" d="M843.99,-431.78C822.96,-424.78 795.77,-416.56 771,-411.59 714.6,-400.28 649.47,-394.16 602.1,-390.94"/>
<polygon fill="midnightblue" stroke="midnightblue" points="842.89,-435.1 853.49,-435 845.14,-428.47 842.89,-435.1"/>
</g>
<!-- Node50&#45;&gt;Node51 -->
<g id="edge53" class="edge">
<title>Node50&#45;&gt;Node51</title>
<path fill="none" stroke="midnightblue" d="M868.95,-463.23C854.12,-488.52 827.31,-535.31 807,-576.59 789.25,-612.67 794.07,-626.66 771,-659.59 756,-681.01 732.7,-700.87 718.31,-712.08"/>
<polygon fill="midnightblue" stroke="midnightblue" points="872.12,-464.75 874.18,-454.35 866.08,-461.19 872.12,-464.75"/>
</g>
<!-- Node52&#45;&gt;Node5 -->
<g id="edge57" class="edge">
<title>Node52&#45;&gt;Node5</title>
<path fill="none" stroke="midnightblue" d="M817.32,-634.07C767.89,-624.16 697.59,-608.19 638,-587.59 469.73,-529.41 278.46,-428.74 220.23,-397.28"/>
<polygon fill="midnightblue" stroke="midnightblue" points="816.74,-637.52 827.23,-636.03 818.1,-630.66 816.74,-637.52"/>
</g>
<!-- Node52&#45;&gt;Node6 -->
<g id="edge58" class="edge">
<title>Node52&#45;&gt;Node6</title>
<path fill="none" stroke="midnightblue" d="M816.63,-656.82C747.78,-668.02 634.44,-683.59 536,-683.59 536,-683.59 536,-683.59 355.5,-683.59 258.93,-683.59 147.3,-655.46 93.8,-640.19"/>
<polygon fill="midnightblue" stroke="midnightblue" points="817.57,-660.21 826.87,-655.13 816.43,-653.3 817.57,-660.21"/>
</g>
<!-- Node52&#45;&gt;Node51 -->
<g id="edge59" class="edge">
<title>Node52&#45;&gt;Node51</title>
<path fill="none" stroke="midnightblue" d="M833.07,-658.37C824.18,-661.52 815.13,-665.26 807,-669.59 789.11,-679.12 788.73,-687.76 771,-697.59 760.62,-703.34 748.59,-708.21 737.69,-712.02"/>
<polygon fill="midnightblue" stroke="midnightblue" points="834.23,-661.67 842.6,-655.18 832,-655.03 834.23,-661.67"/>
</g>
<!-- Node27&#45;&gt;Node28 -->
<g id="edge63" class="edge">
<title>Node27&#45;&gt;Node28</title>
<path fill="none" stroke="midnightblue" d="M810.69,-951.73C762.25,-952.63 696.1,-952.68 638,-948.59 624.18,-947.62 609.38,-945.95 595.46,-944.1"/>
<polygon fill="midnightblue" stroke="midnightblue" points="810.82,-955.23 820.74,-951.53 810.67,-948.23 810.82,-955.23"/>
</g>
<!-- Node27&#45;&gt;Node27 -->
<g id="edge64" class="edge">
<title>Node27&#45;&gt;Node27</title>
<path fill="none" stroke="midnightblue" d="M910.49,-968.24C909.26,-973.53 899.43,-977.59 881,-977.59 852.92,-977.59 844.8,-968.15 856.65,-959.35"/>
<polygon fill="midnightblue" stroke="midnightblue" points="913.39,-966.25 905.35,-959.35 907.32,-969.76 913.39,-966.25"/>
</g>
<!-- Node27&#45;&gt;Node37 -->
<g id="edge65" class="edge">
<title>Node27&#45;&gt;Node37</title>
<path fill="none" stroke="midnightblue" d="M826.03,-937.84C801.36,-932.46 772.51,-926.18 749.22,-921.11"/>
<polygon fill="midnightblue" stroke="midnightblue" points="825.45,-941.29 835.97,-940 826.94,-934.45 825.45,-941.29"/>
</g>
<!-- Node37&#45;&gt;Node28 -->
<g id="edge66" class="edge">
<title>Node37&#45;&gt;Node28</title>
<path fill="none" stroke="midnightblue" d="M627.84,-921.98C618.96,-923.2 609.97,-924.43 601.26,-925.63"/>
<polygon fill="midnightblue" stroke="midnightblue" points="628.35,-925.44 637.78,-920.61 627.4,-918.51 628.35,-925.44"/>
</g>
<!-- Node37&#45;&gt;Node37 -->
<g id="edge67" class="edge">
<title>Node37&#45;&gt;Node37</title>
<path fill="none" stroke="midnightblue" d="M735.94,-929.86C735.04,-935.33 724.56,-939.59 704.5,-939.59 674.64,-939.59 666.01,-930.15 678.61,-921.35"/>
<polygon fill="midnightblue" stroke="midnightblue" points="738.78,-927.82 730.39,-921.35 732.92,-931.64 738.78,-927.82"/>
</g>
<!-- Node53&#45;&gt;Node6 -->
<g id="edge70" class="edge">
<title>Node53&#45;&gt;Node6</title>
<path fill="none" stroke="midnightblue" d="M821.15,-732.87C804.95,-735.69 787.33,-738.51 771,-740.59 667.05,-753.82 640.79,-759.59 536,-759.59 536,-759.59 536,-759.59 355.5,-759.59 236.95,-759.59 112.49,-670.29 74.03,-640.29"/>
<polygon fill="midnightblue" stroke="midnightblue" points="821.81,-736.31 831.04,-731.11 820.58,-729.41 821.81,-736.31"/>
</g>
<!-- Node53&#45;&gt;Node51 -->
<g id="edge71" class="edge">
<title>Node53&#45;&gt;Node51</title>
<path fill="none" stroke="midnightblue" d="M809.92,-721.59C790.49,-721.59 769.89,-721.59 752.16,-721.59"/>
<polygon fill="midnightblue" stroke="midnightblue" points="809.95,-725.09 819.95,-721.59 809.95,-718.09 809.95,-725.09"/>
</g>
</g>
</svg>
