<?xml version="1.0" encoding="UTF-8" standalone="no"?>
<!DOCTYPE svg PUBLIC "-//W3C//DTD SVG 1.1//EN"
 "http://www.w3.org/Graphics/SVG/1.1/DTD/svg11.dtd">
<!-- Generated by graphviz version 2.43.0 (0)
 -->
<!-- Title: js_regexp_get_flag Pages: 1 -->
<svg width="638pt" height="218pt"
 viewBox="0.00 0.00 638.00 218.00" xmlns="http://www.w3.org/2000/svg" xmlns:xlink="http://www.w3.org/1999/xlink">
<g id="graph0" class="graph" transform="scale(1 1) rotate(0) translate(4 214)">
<title>js_regexp_get_flag</title>
<!-- Node1 -->
<g id="node1" class="node">
<title>Node1</title>
<g id="a_node1"><a xlink:title=" ">
<polygon fill="#bfbfbf" stroke="black" points="0,-95.5 0,-114.5 108,-114.5 108,-95.5 0,-95.5"/>
<text text-anchor="middle" x="54" y="-102.5" font-family="Helvetica,sans-Serif" font-size="10.00">js_regexp_get_flag</text>
</a>
</g>
</g>
<!-- Node2 -->
<g id="node2" class="node">
<title>Node2</title>
<g id="a_node2"><a xlink:href="quickjs_8c.html#a82de8d310598980dd9ab473ce2c8dd1c" target="_top" xlink:title=" ">
<polygon fill="none" stroke="black" points="185.5,-190.5 185.5,-209.5 270.5,-209.5 270.5,-190.5 185.5,-190.5"/>
<text text-anchor="middle" x="228" y="-197.5" font-family="Helvetica,sans-Serif" font-size="10.00">js_get_regexp</text>
</a>
</g>
</g>
<!-- Node1&#45;&gt;Node2 -->
<g id="edge1" class="edge">
<title>Node1&#45;&gt;Node2</title>
<path fill="none" stroke="midnightblue" d="M64.49,-114.72C79.85,-129.92 111.7,-159.29 144,-176 153.79,-181.07 164.8,-185.2 175.53,-188.52"/>
<polygon fill="midnightblue" stroke="midnightblue" points="174.67,-191.92 185.25,-191.35 176.62,-185.2 174.67,-191.92"/>
</g>
<!-- Node3 -->
<g id="node3" class="node">
<title>Node3</title>
<g id="a_node3"><a xlink:href="quickjs_8c.html#ab0f713d7a2440dbb2673810323a9a78d" target="_top" xlink:title=" ">
<polygon fill="none" stroke="black" points="348,-166 348,-196 488,-196 488,-166 348,-166"/>
<text text-anchor="start" x="356" y="-184" font-family="Helvetica,sans-Serif" font-size="10.00">JS_ThrowTypeErrorInvalid</text>
<text text-anchor="middle" x="418" y="-173" font-family="Helvetica,sans-Serif" font-size="10.00">Class</text>
</a>
</g>
</g>
<!-- Node1&#45;&gt;Node3 -->
<g id="edge9" class="edge">
<title>Node1&#45;&gt;Node3</title>
<path fill="none" stroke="midnightblue" d="M73.57,-114.65C91.22,-123.41 118.75,-135.99 144,-143 207.91,-160.75 282.66,-170.42 337.76,-175.56"/>
<polygon fill="midnightblue" stroke="midnightblue" points="337.54,-179.05 347.82,-176.46 338.17,-172.08 337.54,-179.05"/>
</g>
<!-- Node4 -->
<g id="node4" class="node">
<title>Node4</title>
<g id="a_node4"><a xlink:href="quickjs_8h.html#a93abffa925714e249a6aa2f4ae7900f6" target="_top" xlink:title=" ">
<polygon fill="none" stroke="black" points="191,-114.5 191,-133.5 265,-133.5 265,-114.5 191,-114.5"/>
<text text-anchor="middle" x="228" y="-121.5" font-family="Helvetica,sans-Serif" font-size="10.00">JS_NewBool</text>
</a>
</g>
</g>
<!-- Node1&#45;&gt;Node4 -->
<g id="edge3" class="edge">
<title>Node1&#45;&gt;Node4</title>
<path fill="none" stroke="midnightblue" d="M108.01,-110.86C131.29,-113.43 158.38,-116.42 180.82,-118.9"/>
<polygon fill="midnightblue" stroke="midnightblue" points="180.45,-122.38 190.77,-120 181.22,-115.42 180.45,-122.38"/>
</g>
<!-- Node5 -->
<g id="node5" class="node">
<title>Node5</title>
<g id="a_node5"><a xlink:href="quickjs_8c.html#a24be89a128d1cd7c0908604815b2b854" target="_top" xlink:title=" ">
<polygon fill="none" stroke="black" points="183.5,-76.5 183.5,-95.5 272.5,-95.5 272.5,-76.5 183.5,-76.5"/>
<text text-anchor="middle" x="228" y="-83.5" font-family="Helvetica,sans-Serif" font-size="10.00">js_same_value</text>
</a>
</g>
</g>
<!-- Node1&#45;&gt;Node5 -->
<g id="edge4" class="edge">
<title>Node1&#45;&gt;Node5</title>
<path fill="none" stroke="midnightblue" d="M108.01,-99.14C128.79,-96.85 152.6,-94.22 173.44,-91.92"/>
<polygon fill="midnightblue" stroke="midnightblue" points="173.85,-95.39 183.4,-90.82 173.08,-88.44 173.85,-95.39"/>
</g>
<!-- Node51 -->
<g id="node10" class="node">
<title>Node51</title>
<g id="a_node10"><a xlink:href="quickjs_8c.html#a726b00d108e0a0f4d958c36c2e426a64" target="_top" xlink:title=" ">
<polygon fill="none" stroke="black" points="144,-38.5 144,-57.5 312,-57.5 312,-38.5 144,-38.5"/>
<text text-anchor="middle" x="228" y="-45.5" font-family="Helvetica,sans-Serif" font-size="10.00">JS_ThrowTypeErrorNotAnObject</text>
</a>
</g>
</g>
<!-- Node1&#45;&gt;Node51 -->
<g id="edge10" class="edge">
<title>Node1&#45;&gt;Node51</title>
<path fill="none" stroke="midnightblue" d="M74.76,-95.35C92.54,-86.97 119.55,-74.95 144,-67 151.98,-64.41 160.51,-62.03 168.94,-59.9"/>
<polygon fill="midnightblue" stroke="midnightblue" points="169.87,-63.27 178.76,-57.51 168.22,-56.47 169.87,-63.27"/>
</g>
<!-- Node52 -->
<g id="node11" class="node">
<title>Node52</title>
<g id="a_node11"><a xlink:href="libregexp_8h.html#a3bf39330d9dde9c1c41f1a73504a7386" target="_top" xlink:title=" ">
<polygon fill="none" stroke="black" points="188.5,-0.5 188.5,-19.5 267.5,-19.5 267.5,-0.5 188.5,-0.5"/>
<text text-anchor="middle" x="228" y="-7.5" font-family="Helvetica,sans-Serif" font-size="10.00">lre_get_flags</text>
</a>
</g>
</g>
<!-- Node1&#45;&gt;Node52 -->
<g id="edge11" class="edge">
<title>Node1&#45;&gt;Node52</title>
<path fill="none" stroke="midnightblue" d="M63.28,-95.39C77.87,-79.1 109.87,-46.16 144,-29 154.62,-23.66 166.77,-19.8 178.42,-17.01"/>
<polygon fill="midnightblue" stroke="midnightblue" points="179.46,-20.37 188.49,-14.84 177.98,-13.53 179.46,-20.37"/>
</g>
<!-- Node2&#45;&gt;Node3 -->
<g id="edge2" class="edge">
<title>Node2&#45;&gt;Node3</title>
<path fill="none" stroke="midnightblue" d="M270.72,-195.78C290.42,-193.79 314.6,-191.35 337.59,-189.03"/>
<polygon fill="midnightblue" stroke="midnightblue" points="338.1,-192.49 347.7,-188 337.4,-185.53 338.1,-192.49"/>
</g>
<!-- Node6 -->
<g id="node6" class="node">
<title>Node6</title>
<g id="a_node6"><a xlink:href="quickjs_8h.html#a775522f2d084fc8fa0fcb33f390006b4" target="_top" xlink:title=" ">
<polygon fill="none" stroke="black" points="379.5,-92.5 379.5,-111.5 456.5,-111.5 456.5,-92.5 379.5,-92.5"/>
<text text-anchor="middle" x="418" y="-99.5" font-family="Helvetica,sans-Serif" font-size="10.00">JS_DupValue</text>
</a>
</g>
</g>
<!-- Node5&#45;&gt;Node6 -->
<g id="edge5" class="edge">
<title>Node5&#45;&gt;Node6</title>
<path fill="none" stroke="midnightblue" d="M272.6,-89.71C301.52,-92.17 339.47,-95.4 369.2,-97.93"/>
<polygon fill="midnightblue" stroke="midnightblue" points="369.09,-101.44 379.35,-98.8 369.68,-94.46 369.09,-101.44"/>
</g>
<!-- Node7 -->
<g id="node7" class="node">
<title>Node7</title>
<g id="a_node7"><a xlink:href="quickjs_8c.html#a6b7e8c810c238daa5ac20c70c2f22b24" target="_top" xlink:title=" ">
<polygon fill="none" stroke="black" points="379,-54.5 379,-73.5 457,-73.5 457,-54.5 379,-54.5"/>
<text text-anchor="middle" x="418" y="-61.5" font-family="Helvetica,sans-Serif" font-size="10.00">js_strict_eq2</text>
</a>
</g>
</g>
<!-- Node5&#45;&gt;Node7 -->
<g id="edge6" class="edge">
<title>Node5&#45;&gt;Node7</title>
<path fill="none" stroke="midnightblue" d="M272.6,-80.9C301.32,-77.54 338.96,-73.13 368.6,-69.66"/>
<polygon fill="midnightblue" stroke="midnightblue" points="369.2,-73.12 378.73,-68.48 368.39,-66.16 369.2,-73.12"/>
</g>
<!-- Node8 -->
<g id="node8" class="node">
<title>Node8</title>
<g id="a_node8"><a xlink:href="quickjs_8h.html#afaa20c47565bc704c6c85f3d77254e7d" target="_top" xlink:title=" ">
<polygon fill="none" stroke="red" points="537.5,-73.5 537.5,-92.5 616.5,-92.5 616.5,-73.5 537.5,-73.5"/>
<text text-anchor="middle" x="577" y="-80.5" font-family="Helvetica,sans-Serif" font-size="10.00">JS_FreeValue</text>
</a>
</g>
</g>
<!-- Node7&#45;&gt;Node8 -->
<g id="edge7" class="edge">
<title>Node7&#45;&gt;Node8</title>
<path fill="none" stroke="midnightblue" d="M457.01,-68.6C478.1,-71.15 504.56,-74.35 527.17,-77.09"/>
<polygon fill="midnightblue" stroke="midnightblue" points="526.91,-80.58 537.25,-78.31 527.75,-73.63 526.91,-80.58"/>
</g>
<!-- Node46 -->
<g id="node9" class="node">
<title>Node46</title>
<g id="a_node9"><a xlink:href="quickjs_8c.html#a3d9b165d4274aa43e051caba9bcbbe9f" target="_top" xlink:title=" ">
<polygon fill="none" stroke="red" points="524,-35.5 524,-54.5 630,-54.5 630,-35.5 524,-35.5"/>
<text text-anchor="middle" x="577" y="-42.5" font-family="Helvetica,sans-Serif" font-size="10.00">js_string_compare</text>
</a>
</g>
</g>
<!-- Node7&#45;&gt;Node46 -->
<g id="edge8" class="edge">
<title>Node7&#45;&gt;Node46</title>
<path fill="none" stroke="midnightblue" d="M457.01,-59.4C474.01,-57.34 494.5,-54.86 513.65,-52.55"/>
<polygon fill="midnightblue" stroke="midnightblue" points="514.31,-55.99 523.81,-51.32 513.47,-49.04 514.31,-55.99"/>
</g>
</g>
</svg>
