<?xml version="1.0" encoding="UTF-8" standalone="no"?>
<!DOCTYPE svg PUBLIC "-//W3C//DTD SVG 1.1//EN"
 "http://www.w3.org/Graphics/SVG/1.1/DTD/svg11.dtd">
<!-- Generated by graphviz version 2.43.0 (0)
 -->
<!-- Title: JS_SetPropertyInternal Pages: 1 -->
<!--zoomable 199 -->
<svg id="main" version="1.1" xmlns="http://www.w3.org/2000/svg" xmlns:xlink="http://www.w3.org/1999/xlink" xml:space="preserve" onload="init(evt)">
<style type="text/css"><![CDATA[
.edge:hover path { stroke: red; }
.edge:hover polygon { stroke: red; fill: red; }
]]></style>
<script type="text/javascript"><![CDATA[
var edges = document.getElementsByTagName('g');
if (edges && edges.length) {
  for (var i=0;i<edges.length;i++) {
    if (edges[i].id.substr(0,4)=='edge') {
      edges[i].setAttribute('class','edge');
    }
  }
}
]]></script>
        <defs>
                <circle id="rim" cx="0" cy="0" r="7"/>
                <circle id="rim2" cx="0" cy="0" r="3.5"/>
                <g id="zoomPlus">
                        <use xlink:href="#rim" fill="#404040">
                                <set attributeName="fill" to="#808080" begin="zoomplus.mouseover" end="zoomplus.mouseout"/>
                        </use>
                        <path d="M-4,0h8M0,-4v8" fill="none" stroke="white" stroke-width="1.5" pointer-events="none"/>
                </g>
                <g id="zoomMin">
                        <use xlink:href="#rim" fill="#404040">
                                <set attributeName="fill" to="#808080" begin="zoomminus.mouseover" end="zoomminus.mouseout"/>
                        </use>
                        <path d="M-4,0h8" fill="none" stroke="white" stroke-width="1.5" pointer-events="none"/>
                </g>
                <g id="dirArrow">
                        <path fill="none" stroke="white" stroke-width="1.5" d="M0,-3.0v7 M-2.5,-0.5L0,-3.0L2.5,-0.5"/>
                </g>
               <g id="resetDef">
                       <use xlink:href="#rim2" fill="#404040">
                               <set attributeName="fill" to="#808080" begin="reset.mouseover" end="reset.mouseout"/>
                       </use>
               </g>
        </defs>

<script type="text/javascript">
var viewWidth = 558;
var viewHeight = 199;
var sectionId = 'dynsection-173';
</script>
<script xlink:href="svgpan.js"/>
<svg id="graph" class="graph">
<g id="viewport">
<title>JS_SetPropertyInternal</title>
<!-- Node1 -->
<g id="node1" class="node">
<title>Node1</title>
<g id="a_node1"><a xlink:title=" ">
<polygon fill="#bfbfbf" stroke="black" points="425,-76.82 425,-95.82 550,-95.82 550,-76.82 425,-76.82"/>
<text text-anchor="middle" x="487.5" y="-83.82" font-family="Helvetica,sans-Serif" font-size="10.00">JS_SetPropertyInternal</text>
</a>
</g>
</g>
<!-- Node2 -->
<g id="node2" class="node">
<title>Node2</title>
<g id="a_node2"><a xlink:href="quickjs_8c.html#aa40a5354bee3b56e05a71244910bcc78" target="_top" xlink:title=" ">
<polygon fill="none" stroke="black" points="274,-171.82 274,-190.82 389,-190.82 389,-171.82 274,-171.82"/>
<text text-anchor="middle" x="331.5" y="-178.82" font-family="Helvetica,sans-Serif" font-size="10.00">build_for_in_iterator</text>
</a>
</g>
</g>
<!-- Node1&#45;&gt;Node2 -->
<g id="edge1" class="edge">
<title>Node1&#45;&gt;Node2</title>
<path fill="none" stroke="midnightblue" d="M467.17,-102.45C448.11,-117.84 417.75,-141.03 389,-157.32 379.36,-162.79 368.22,-167.77 358.4,-171.77"/>
<polygon fill="midnightblue" stroke="midnightblue" points="469.55,-105.02 475.08,-95.98 465.12,-99.6 469.55,-105.02"/>
</g>
<!-- Node4 -->
<g id="node4" class="node">
<title>Node4</title>
<g id="a_node4"><a xlink:href="quickjs_8c.html#ac2894ff4edcdb4e6841bcce9c76081e3" target="_top" xlink:title=" ">
<polygon fill="none" stroke="red" points="0,-114.82 0,-133.82 87,-133.82 87,-114.82 0,-114.82"/>
<text text-anchor="middle" x="43.5" y="-121.82" font-family="Helvetica,sans-Serif" font-size="10.00">JS_CallInternal</text>
</a>
</g>
</g>
<!-- Node1&#45;&gt;Node4 -->
<g id="edge5" class="edge">
<title>Node1&#45;&gt;Node4</title>
<path fill="none" stroke="midnightblue" d="M441.22,-98.32C424.86,-102.31 406.19,-106.46 389,-109.32 322.48,-120.42 305.36,-120.99 238,-124.32 186.16,-126.89 126.41,-126.36 87.19,-125.54"/>
<polygon fill="midnightblue" stroke="midnightblue" points="442.21,-101.69 451.07,-95.88 440.52,-94.89 442.21,-101.69"/>
</g>
<!-- Node130 -->
<g id="node5" class="node">
<title>Node130</title>
<g id="a_node5"><a xlink:href="quickjs_8c.html#ad50f89a3ee5e8b29b31bb62cf8ea0d82" target="_top" xlink:title=" ">
<polygon fill="none" stroke="black" points="133.5,-95.82 133.5,-114.82 227.5,-114.82 227.5,-95.82 133.5,-95.82"/>
<text text-anchor="middle" x="180.5" y="-102.82" font-family="Helvetica,sans-Serif" font-size="10.00">JS_SetGlobalVar</text>
</a>
</g>
</g>
<!-- Node1&#45;&gt;Node130 -->
<g id="edge6" class="edge">
<title>Node1&#45;&gt;Node130</title>
<path fill="none" stroke="midnightblue" d="M414.61,-90.8C356.81,-94.4 277.33,-99.35 227.71,-102.45"/>
<polygon fill="midnightblue" stroke="midnightblue" points="415.02,-94.28 424.78,-90.17 414.58,-87.3 415.02,-94.28"/>
</g>
<!-- Node131 -->
<g id="node6" class="node">
<title>Node131</title>
<g id="a_node6"><a xlink:href="quickjs_8h.html#af763b173e78debf2075670ca2c128a30" target="_top" xlink:title=" ">
<polygon fill="none" stroke="red" points="287.5,-57.82 287.5,-76.82 375.5,-76.82 375.5,-57.82 287.5,-57.82"/>
<text text-anchor="middle" x="331.5" y="-64.82" font-family="Helvetica,sans-Serif" font-size="10.00">JS_SetProperty</text>
</a>
</g>
</g>
<!-- Node1&#45;&gt;Node131 -->
<g id="edge8" class="edge">
<title>Node1&#45;&gt;Node131</title>
<path fill="none" stroke="midnightblue" d="M414.66,-77.46C401.38,-75.82 387.9,-74.16 375.8,-72.67"/>
<polygon fill="midnightblue" stroke="midnightblue" points="414.4,-80.96 424.75,-78.71 415.25,-74.01 414.4,-80.96"/>
</g>
<!-- Node152 -->
<g id="node7" class="node">
<title>Node152</title>
<g id="a_node7"><a xlink:href="quickjs_8c.html#a62617fe11025d2e5a545db069fc28e64" target="_top" xlink:title=" ">
<polygon fill="none" stroke="red" points="281,-19.82 281,-38.82 382,-38.82 382,-19.82 281,-19.82"/>
<text text-anchor="middle" x="331.5" y="-26.82" font-family="Helvetica,sans-Serif" font-size="10.00">JS_SetPropertyStr</text>
</a>
</g>
</g>
<!-- Node1&#45;&gt;Node152 -->
<g id="edge9" class="edge">
<title>Node1&#45;&gt;Node152</title>
<path fill="none" stroke="midnightblue" d="M453.65,-73.08C434.81,-65.59 410.67,-56.19 389,-48.32 380.15,-45.11 370.45,-41.78 361.62,-38.83"/>
<polygon fill="midnightblue" stroke="midnightblue" points="452.39,-76.34 462.98,-76.8 454.98,-69.84 452.39,-76.34"/>
</g>
<!-- Node160 -->
<g id="node8" class="node">
<title>Node160</title>
<g id="a_node8"><a xlink:href="quickjs_8c.html#aee75cc1546e19479e3ccda58f3b50a96" target="_top" xlink:title=" ">
<polygon fill="none" stroke="red" points="123,-19.82 123,-38.82 238,-38.82 238,-19.82 123,-19.82"/>
<text text-anchor="middle" x="180.5" y="-26.82" font-family="Helvetica,sans-Serif" font-size="10.00">JS_SetPropertyValue</text>
</a>
</g>
</g>
<!-- Node1&#45;&gt;Node160 -->
<g id="edge10" class="edge">
<title>Node1&#45;&gt;Node160</title>
<path fill="none" stroke="midnightblue" d="M471.43,-69.17C453.83,-50.55 422.77,-21.93 389,-10.32 327.25,10.9 249.42,-7.25 208.89,-19.8"/>
<polygon fill="midnightblue" stroke="midnightblue" points="468.99,-71.69 478.33,-76.69 474.15,-66.96 468.99,-71.69"/>
</g>
<!-- Node3 -->
<g id="node3" class="node">
<title>Node3</title>
<g id="a_node3"><a xlink:href="quickjs_8c.html#a3472bcc4762be7f7de1dcf4c1e0c5ff1" target="_top" xlink:title=" ">
<polygon fill="none" stroke="black" points="137.5,-171.82 137.5,-190.82 223.5,-190.82 223.5,-171.82 137.5,-171.82"/>
<text text-anchor="middle" x="180.5" y="-178.82" font-family="Helvetica,sans-Serif" font-size="10.00">js_for_in_start</text>
</a>
</g>
</g>
<!-- Node2&#45;&gt;Node3 -->
<g id="edge2" class="edge">
<title>Node2&#45;&gt;Node3</title>
<path fill="none" stroke="midnightblue" d="M263.5,-181.32C249.97,-181.32 236.11,-181.32 223.73,-181.32"/>
<polygon fill="midnightblue" stroke="midnightblue" points="263.74,-184.82 273.74,-181.32 263.74,-177.82 263.74,-184.82"/>
</g>
<!-- Node3&#45;&gt;Node4 -->
<g id="edge3" class="edge">
<title>Node3&#45;&gt;Node4</title>
<path fill="none" stroke="midnightblue" d="M147.58,-167.85C122.85,-157.4 89.2,-143.2 67.17,-133.9"/>
<polygon fill="midnightblue" stroke="midnightblue" points="146.33,-171.12 156.9,-171.78 149.05,-164.67 146.33,-171.12"/>
</g>
<!-- Node4&#45;&gt;Node4 -->
<g id="edge4" class="edge">
<title>Node4&#45;&gt;Node4</title>
<path fill="none" stroke="midnightblue" d="M68.8,-143.35C67.42,-148.45 58.99,-152.32 43.5,-152.32 19.33,-152.32 12.34,-142.89 22.54,-134.08"/>
<polygon fill="midnightblue" stroke="midnightblue" points="71.87,-141.66 64.46,-134.08 65.53,-144.62 71.87,-141.66"/>
</g>
<!-- Node130&#45;&gt;Node4 -->
<g id="edge7" class="edge">
<title>Node130&#45;&gt;Node4</title>
<path fill="none" stroke="midnightblue" d="M123.4,-113.22C111.3,-114.92 98.69,-116.7 87.19,-118.32"/>
<polygon fill="midnightblue" stroke="midnightblue" points="124,-116.67 133.42,-111.81 123.03,-109.74 124,-116.67"/>
</g>
<!-- Node160&#45;&gt;Node4 -->
<g id="edge11" class="edge">
<title>Node160&#45;&gt;Node4</title>
<path fill="none" stroke="midnightblue" d="M157.43,-44.85C129.32,-64.63 81.6,-98.22 58.22,-114.67"/>
<polygon fill="midnightblue" stroke="midnightblue" points="159.65,-47.57 165.81,-38.96 155.62,-41.85 159.65,-47.57"/>
</g>
</g>
</svg>
        <g id="navigator" transform="translate(0 0)" fill="#404254">
                <rect fill="#f2f5e9" fill-opacity="0.5" stroke="#606060" stroke-width=".5" x="0" y="0" width="60" height="60"/>
                <use id="zoomplus" xlink:href="#zoomPlus" x="17" y="9" onmousedown="handleZoom(evt,'in')"/>
                <use id="zoomminus" xlink:href="#zoomMin" x="42" y="9" onmousedown="handleZoom(evt,'out')"/>
                <use id="reset" xlink:href="#resetDef" x="30" y="36" onmousedown="handleReset()"/>
                <g id="arrowUp" xlink:href="#dirArrow" transform="translate(30 24)" onmousedown="handlePan(0,-1)">
                  <use xlink:href="#rim" fill="#404040">
                        <set attributeName="fill" to="#808080" begin="arrowUp.mouseover" end="arrowUp.mouseout"/>
                  </use>
                  <path fill="none" stroke="white" stroke-width="1.5" d="M0,-3.0v7 M-2.5,-0.5L0,-3.0L2.5,-0.5"/>
                </g>
                <g id="arrowRight" xlink:href="#dirArrow" transform="rotate(90) translate(36 -43)" onmousedown="handlePan(1,0)">
                  <use xlink:href="#rim" fill="#404040">
                        <set attributeName="fill" to="#808080" begin="arrowRight.mouseover" end="arrowRight.mouseout"/>
                  </use>
                  <path fill="none" stroke="white" stroke-width="1.5" d="M0,-3.0v7 M-2.5,-0.5L0,-3.0L2.5,-0.5"/>
                </g>
                <g id="arrowDown" xlink:href="#dirArrow" transform="rotate(180) translate(-30 -48)" onmousedown="handlePan(0,1)">
                  <use xlink:href="#rim" fill="#404040">
                        <set attributeName="fill" to="#808080" begin="arrowDown.mouseover" end="arrowDown.mouseout"/>
                  </use>
                  <path fill="none" stroke="white" stroke-width="1.5" d="M0,-3.0v7 M-2.5,-0.5L0,-3.0L2.5,-0.5"/>
                </g>
                <g id="arrowLeft" xlink:href="#dirArrow" transform="rotate(270) translate(-36 17)" onmousedown="handlePan(-1,0)">
                  <use xlink:href="#rim" fill="#404040">
                        <set attributeName="fill" to="#808080" begin="arrowLeft.mouseover" end="arrowLeft.mouseout"/>
                  </use>
                  <path fill="none" stroke="white" stroke-width="1.5" d="M0,-3.0v7 M-2.5,-0.5L0,-3.0L2.5,-0.5"/>
                </g>
        </g>
        <svg viewBox="0 0 15 15" width="100%" height="30px" preserveAspectRatio="xMaxYMin meet">
         <g id="arrow_out" transform="scale(0.3 0.3)">
          <a xlink:href="quickjs_8h_ad7f03358a8088ca920ab308225c6b2e6_icgraph_org.svg" target="_base">
           <rect id="button" ry="5" rx="5" y="6" x="6" height="38" width="38"
                fill="#f2f5e9" fill-opacity="0.5" stroke="#606060" stroke-width="1.0"/>
           <path id="arrow"
             d="M 11.500037,31.436501 C 11.940474,20.09759 22.043105,11.32322 32.158766,21.979434 L 37.068811,17.246167 C 37.068811,17.246167 37.088388,32 37.088388,32 L 22.160133,31.978069 C 22.160133,31.978069 26.997745,27.140456 26.997745,27.140456 C 18.528582,18.264221 13.291696,25.230495 11.500037,31.436501 z"
             style="fill:#404040;"/>
          </a>
         </g>
        </svg>
</svg>
