<?xml version="1.0" encoding="UTF-8" standalone="no"?>
<!DOCTYPE svg PUBLIC "-//W3C//DTD SVG 1.1//EN"
 "http://www.w3.org/Graphics/SVG/1.1/DTD/svg11.dtd">
<!-- Generated by graphviz version 2.43.0 (0)
 -->
<!-- Title: js_typed_array_get_byteOffset Pages: 1 -->
<svg width="307pt" height="154pt"
 viewBox="0.00 0.00 307.00 154.00" xmlns="http://www.w3.org/2000/svg" xmlns:xlink="http://www.w3.org/1999/xlink">
<g id="graph0" class="graph" transform="scale(1 1) rotate(0) translate(4 150)">
<title>js_typed_array_get_byteOffset</title>
<!-- Node1 -->
<g id="node1" class="node">
<title>Node1</title>
<g id="a_node1"><a xlink:title=" ">
<polygon fill="#bfbfbf" stroke="black" points="0,-61 0,-91 110,-91 110,-61 0,-61"/>
<text text-anchor="start" x="8" y="-79" font-family="Helvetica,sans-Serif" font-size="10.00">js_typed_array_get</text>
<text text-anchor="middle" x="55" y="-68" font-family="Helvetica,sans-Serif" font-size="10.00">_byteOffset</text>
</a>
</g>
</g>
<!-- Node2 -->
<g id="node2" class="node">
<title>Node2</title>
<g id="a_node2"><a xlink:href="quickjs_8c.html#af894945c3459f86096c1821a0a696934" target="_top" xlink:title=" ">
<polygon fill="none" stroke="black" points="174.5,-126.5 174.5,-145.5 270.5,-145.5 270.5,-126.5 174.5,-126.5"/>
<text text-anchor="middle" x="222.5" y="-133.5" font-family="Helvetica,sans-Serif" font-size="10.00">get_typed_array</text>
</a>
</g>
</g>
<!-- Node1&#45;&gt;Node2 -->
<g id="edge1" class="edge">
<title>Node1&#45;&gt;Node2</title>
<path fill="none" stroke="midnightblue" d="M85.44,-91.05C102.76,-99.48 125.26,-109.73 146,-117 153.1,-119.49 160.67,-121.79 168.19,-123.87"/>
<polygon fill="midnightblue" stroke="midnightblue" points="167.42,-127.29 177.98,-126.48 169.22,-120.52 167.42,-127.29"/>
</g>
<!-- Node3 -->
<g id="node3" class="node">
<title>Node3</title>
<g id="a_node3"><a xlink:href="quickjs_8h.html#a2050bc428da1c65ac7eb87c3fa3b0392" target="_top" xlink:title=" ">
<polygon fill="none" stroke="black" points="184,-88.5 184,-107.5 261,-107.5 261,-88.5 184,-88.5"/>
<text text-anchor="middle" x="222.5" y="-95.5" font-family="Helvetica,sans-Serif" font-size="10.00">JS_NewInt32</text>
</a>
</g>
</g>
<!-- Node1&#45;&gt;Node3 -->
<g id="edge2" class="edge">
<title>Node1&#45;&gt;Node3</title>
<path fill="none" stroke="midnightblue" d="M110.19,-83.2C130.74,-85.94 153.97,-89.02 173.87,-91.67"/>
<polygon fill="midnightblue" stroke="midnightblue" points="173.57,-95.16 183.95,-93.01 174.49,-88.22 173.57,-95.16"/>
</g>
<!-- Node4 -->
<g id="node4" class="node">
<title>Node4</title>
<g id="a_node4"><a xlink:href="quickjs_8c.html#a033dd3ebd29c4eb9f0baff1dd0fec0b1" target="_top" xlink:title=" ">
<polygon fill="none" stroke="black" points="146,-39 146,-69 299,-69 299,-39 146,-39"/>
<text text-anchor="start" x="154" y="-57" font-family="Helvetica,sans-Serif" font-size="10.00">JS_ThrowTypeErrorDetached</text>
<text text-anchor="middle" x="222.5" y="-46" font-family="Helvetica,sans-Serif" font-size="10.00">ArrayBuffer</text>
</a>
</g>
</g>
<!-- Node1&#45;&gt;Node4 -->
<g id="edge3" class="edge">
<title>Node1&#45;&gt;Node4</title>
<path fill="none" stroke="midnightblue" d="M110.19,-68.8C118.39,-67.71 127.01,-66.56 135.68,-65.41"/>
<polygon fill="midnightblue" stroke="midnightblue" points="136.41,-68.84 145.86,-64.05 135.49,-61.9 136.41,-68.84"/>
</g>
<!-- Node5 -->
<g id="node5" class="node">
<title>Node5</title>
<g id="a_node5"><a xlink:href="quickjs_8c.html#a869fa88a646c0a1914ec2e559b193b5c" target="_top" xlink:title=" ">
<polygon fill="none" stroke="black" points="153,-0.5 153,-19.5 292,-19.5 292,-0.5 153,-0.5"/>
<text text-anchor="middle" x="222.5" y="-7.5" font-family="Helvetica,sans-Serif" font-size="10.00">typed_array_is_detached</text>
</a>
</g>
</g>
<!-- Node1&#45;&gt;Node5 -->
<g id="edge4" class="edge">
<title>Node1&#45;&gt;Node5</title>
<path fill="none" stroke="midnightblue" d="M81.71,-60.99C99.35,-51.17 123.55,-38.6 146,-30 153.39,-27.17 161.33,-24.59 169.2,-22.3"/>
<polygon fill="midnightblue" stroke="midnightblue" points="170.37,-25.6 179.06,-19.54 168.49,-18.86 170.37,-25.6"/>
</g>
</g>
</svg>
