<?xml version="1.0" encoding="UTF-8" standalone="no"?>
<!DOCTYPE svg PUBLIC "-//W3C//DTD SVG 1.1//EN"
 "http://www.w3.org/Graphics/SVG/1.1/DTD/svg11.dtd">
<!-- Generated by graphviz version 2.43.0 (0)
 -->
<!-- Title: js_parse_assign_expr2 Pages: 1 -->
<!--zoomable 1054 -->
<svg id="main" version="1.1" xmlns="http://www.w3.org/2000/svg" xmlns:xlink="http://www.w3.org/1999/xlink" xml:space="preserve" onload="init(evt)">
<style type="text/css"><![CDATA[
.edge:hover path { stroke: red; }
.edge:hover polygon { stroke: red; fill: red; }
]]></style>
<script type="text/javascript"><![CDATA[
var edges = document.getElementsByTagName('g');
if (edges && edges.length) {
  for (var i=0;i<edges.length;i++) {
    if (edges[i].id.substr(0,4)=='edge') {
      edges[i].setAttribute('class','edge');
    }
  }
}
]]></script>
        <defs>
                <circle id="rim" cx="0" cy="0" r="7"/>
                <circle id="rim2" cx="0" cy="0" r="3.5"/>
                <g id="zoomPlus">
                        <use xlink:href="#rim" fill="#404040">
                                <set attributeName="fill" to="#808080" begin="zoomplus.mouseover" end="zoomplus.mouseout"/>
                        </use>
                        <path d="M-4,0h8M0,-4v8" fill="none" stroke="white" stroke-width="1.5" pointer-events="none"/>
                </g>
                <g id="zoomMin">
                        <use xlink:href="#rim" fill="#404040">
                                <set attributeName="fill" to="#808080" begin="zoomminus.mouseover" end="zoomminus.mouseout"/>
                        </use>
                        <path d="M-4,0h8" fill="none" stroke="white" stroke-width="1.5" pointer-events="none"/>
                </g>
                <g id="dirArrow">
                        <path fill="none" stroke="white" stroke-width="1.5" d="M0,-3.0v7 M-2.5,-0.5L0,-3.0L2.5,-0.5"/>
                </g>
               <g id="resetDef">
                       <use xlink:href="#rim2" fill="#404040">
                               <set attributeName="fill" to="#808080" begin="reset.mouseover" end="reset.mouseout"/>
                       </use>
               </g>
        </defs>

<script type="text/javascript">
var viewWidth = 834;
var viewHeight = 1054;
var sectionId = 'dynsection-998';
</script>
<script xlink:href="svgpan.js"/>
<svg id="graph" class="graph">
<g id="viewport">
<title>js_parse_assign_expr2</title>
<!-- Node1 -->
<g id="node1" class="node">
<title>Node1</title>
<g id="a_node1"><a xlink:title=" ">
<polygon fill="#bfbfbf" stroke="black" points="0,-627.5 0,-646.5 127,-646.5 127,-627.5 0,-627.5"/>
<text text-anchor="middle" x="63.5" y="-634.5" font-family="Helvetica,sans-Serif" font-size="10.00">js_parse_assign_expr2</text>
</a>
</g>
</g>
<!-- Node1&#45;&gt;Node1 -->
<g id="edge41" class="edge">
<title>Node1&#45;&gt;Node1</title>
<path fill="none" stroke="midnightblue" d="M39.46,-646.76C27.76,-655.57 35.77,-665 63.5,-665 81.7,-665 91.4,-660.94 92.62,-655.65"/>
<polygon fill="midnightblue" stroke="midnightblue" points="95.54,-653.71 87.54,-646.76 89.46,-657.18 95.54,-653.71"/>
</g>
<!-- Node2 -->
<g id="node2" class="node">
<title>Node2</title>
<g id="a_node2"><a xlink:href="quickjs_8c.html#aa57b449a878287663249bb7ab23ed8e9" target="_top" xlink:title=" ">
<polygon fill="none" stroke="black" points="485,-228.5 485,-247.5 555,-247.5 555,-228.5 485,-228.5"/>
<text text-anchor="middle" x="520" y="-235.5" font-family="Helvetica,sans-Serif" font-size="10.00">emit_atom</text>
</a>
</g>
</g>
<!-- Node1&#45;&gt;Node2 -->
<g id="edge1" class="edge">
<title>Node1&#45;&gt;Node2</title>
<path fill="none" stroke="midnightblue" d="M63.99,-627.39C62.15,-582.46 60.75,-391.4 163,-300 250.49,-221.79 400.19,-224.77 474.48,-232.05"/>
<polygon fill="midnightblue" stroke="midnightblue" points="474.56,-235.58 484.87,-233.15 475.3,-228.62 474.56,-235.58"/>
</g>
<!-- Node3 -->
<g id="node3" class="node">
<title>Node3</title>
<g id="a_node3"><a xlink:href="quickjs_8c.html#aa4ce3850b0d5830d9a617fbbdaddfa79" target="_top" xlink:title=" ">
<polygon fill="none" stroke="black" points="610,-456.5 610,-475.5 672,-475.5 672,-456.5 610,-456.5"/>
<text text-anchor="middle" x="641" y="-463.5" font-family="Helvetica,sans-Serif" font-size="10.00">emit_u32</text>
</a>
</g>
</g>
<!-- Node1&#45;&gt;Node3 -->
<g id="edge25" class="edge">
<title>Node1&#45;&gt;Node3</title>
<path fill="none" stroke="midnightblue" d="M68.11,-627.11C78.72,-599.2 112.27,-518.74 163,-470 217.21,-417.93 241.22,-415.3 312,-390 416.7,-352.57 460.8,-306.76 560,-357 597.18,-375.83 621.27,-420.97 632.54,-446.87"/>
<polygon fill="midnightblue" stroke="midnightblue" points="629.41,-448.46 636.47,-456.36 635.88,-445.78 629.41,-448.46"/>
</g>
<!-- Node9 -->
<g id="node7" class="node">
<title>Node9</title>
<g id="a_node7"><a xlink:href="quickjs_8c.html#a6b3c67655a0facc68b271ce3d401deb3" target="_top" xlink:title=" ">
<polygon fill="none" stroke="black" points="487,-760.5 487,-779.5 553,-779.5 553,-760.5 487,-760.5"/>
<text text-anchor="middle" x="520" y="-767.5" font-family="Helvetica,sans-Serif" font-size="10.00">emit_goto</text>
</a>
</g>
</g>
<!-- Node1&#45;&gt;Node9 -->
<g id="edge6" class="edge">
<title>Node1&#45;&gt;Node9</title>
<path fill="none" stroke="midnightblue" d="M91.98,-646.61C111.67,-653.4 138.87,-662.57 163,-670 275.93,-704.75 410.49,-741.22 477.21,-758.98"/>
<polygon fill="midnightblue" stroke="midnightblue" points="476.37,-762.38 486.93,-761.56 478.17,-755.61 476.37,-762.38"/>
</g>
<!-- Node10 -->
<g id="node8" class="node">
<title>Node10</title>
<g id="a_node8"><a xlink:href="quickjs_8c.html#a832fb9c17eacb588e93f333cf8b76522" target="_top" xlink:title=" ">
<polygon fill="none" stroke="black" points="613,-684.5 613,-703.5 669,-703.5 669,-684.5 613,-684.5"/>
<text text-anchor="middle" x="641" y="-691.5" font-family="Helvetica,sans-Serif" font-size="10.00">emit_op</text>
</a>
</g>
</g>
<!-- Node1&#45;&gt;Node10 -->
<g id="edge18" class="edge">
<title>Node1&#45;&gt;Node10</title>
<path fill="none" stroke="midnightblue" d="M127.11,-645.88C169.29,-652.08 226.1,-660.86 276,-670 367.14,-686.7 387.84,-703.39 480,-713 515.36,-716.69 524.69,-717.14 560,-713 574.24,-711.33 589.61,-708.05 603.04,-704.68"/>
<polygon fill="midnightblue" stroke="midnightblue" points="604.09,-708.02 612.88,-702.1 602.32,-701.25 604.09,-708.02"/>
</g>
<!-- Node14 -->
<g id="node12" class="node">
<title>Node14</title>
<g id="a_node12"><a xlink:href="quickjs_8c.html#a0dd0929b9f2ff5983b0027b7cce5c447" target="_top" xlink:title=" ">
<polygon fill="none" stroke="black" points="608,-760.5 608,-779.5 674,-779.5 674,-760.5 608,-760.5"/>
<text text-anchor="middle" x="641" y="-767.5" font-family="Helvetica,sans-Serif" font-size="10.00">new_label</text>
</a>
</g>
</g>
<!-- Node1&#45;&gt;Node14 -->
<g id="edge57" class="edge">
<title>Node1&#45;&gt;Node14</title>
<path fill="none" stroke="midnightblue" d="M64.98,-646.73C67.46,-686.19 82.08,-835.9 163,-915 212.85,-963.73 243.17,-952.97 312,-964 424.08,-981.96 477.47,-980.93 560,-903 595.44,-869.54 620.74,-816.96 632.53,-788.99"/>
<polygon fill="midnightblue" stroke="midnightblue" points="635.84,-790.14 636.39,-779.56 629.36,-787.49 635.84,-790.14"/>
</g>
<!-- Node16 -->
<g id="node14" class="node">
<title>Node16</title>
<g id="a_node14"><a xlink:href="quickjs_8c.html#a555f0d4061c655933eb187026d0796af" target="_top" xlink:title=" ">
<polygon fill="none" stroke="black" points="486,-684.5 486,-703.5 554,-703.5 554,-684.5 486,-684.5"/>
<text text-anchor="middle" x="520" y="-691.5" font-family="Helvetica,sans-Serif" font-size="10.00">emit_label</text>
</a>
</g>
</g>
<!-- Node1&#45;&gt;Node16 -->
<g id="edge15" class="edge">
<title>Node1&#45;&gt;Node16</title>
<path fill="none" stroke="midnightblue" d="M122.43,-627.5C198.34,-617.33 334.65,-607.01 444,-642 455.74,-645.76 480.9,-664.14 498.84,-678"/>
<polygon fill="midnightblue" stroke="midnightblue" points="496.94,-680.96 506.98,-684.35 501.25,-675.44 496.94,-680.96"/>
</g>
<!-- Node17 -->
<g id="node15" class="node">
<title>Node17</title>
<g id="a_node15"><a xlink:href="quickjs_8c.html#acea69d5aa6481a035d0833b8bce455f5" target="_top" xlink:title=" ">
<polygon fill="none" stroke="black" points="341,-570.5 341,-589.5 415,-589.5 415,-570.5 341,-570.5"/>
<text text-anchor="middle" x="378" y="-577.5" font-family="Helvetica,sans-Serif" font-size="10.00">emit_return</text>
</a>
</g>
</g>
<!-- Node1&#45;&gt;Node17 -->
<g id="edge19" class="edge">
<title>Node1&#45;&gt;Node17</title>
<path fill="none" stroke="midnightblue" d="M88.39,-627.41C108.09,-619.89 136.94,-609.76 163,-604 219.95,-591.42 286.95,-585.26 330.61,-582.37"/>
<polygon fill="midnightblue" stroke="midnightblue" points="330.89,-585.85 340.65,-581.73 330.45,-578.87 330.89,-585.85"/>
</g>
<!-- Node20 -->
<g id="node17" class="node">
<title>Node20</title>
<g id="a_node17"><a xlink:href="quickjs_8c.html#addf02d1c6b3438644c021b2b6d593b7c" target="_top" xlink:title=" ">
<polygon fill="none" stroke="black" points="191.5,-1026.5 191.5,-1045.5 247.5,-1045.5 247.5,-1026.5 191.5,-1026.5"/>
<text text-anchor="middle" x="219.5" y="-1033.5" font-family="Helvetica,sans-Serif" font-size="10.00">emit_u8</text>
</a>
</g>
</g>
<!-- Node1&#45;&gt;Node20 -->
<g id="edge26" class="edge">
<title>Node1&#45;&gt;Node20</title>
<path fill="none" stroke="midnightblue" d="M64.15,-646.8C63,-693.6 64.09,-896.86 163,-1012 168.03,-1017.86 174.76,-1022.33 181.78,-1025.73"/>
<polygon fill="midnightblue" stroke="midnightblue" points="180.84,-1029.13 191.42,-1029.73 183.53,-1022.67 180.84,-1029.13"/>
</g>
<!-- Node21 -->
<g id="node18" class="node">
<title>Node21</title>
<g id="a_node18"><a xlink:href="quickjs_8c.html#a069baa06a1214006c4ec473875de010e" target="_top" xlink:title=" ">
<polygon fill="none" stroke="black" points="344,-399.5 344,-418.5 412,-418.5 412,-399.5 344,-399.5"/>
<text text-anchor="middle" x="378" y="-406.5" font-family="Helvetica,sans-Serif" font-size="10.00">get_lvalue</text>
</a>
</g>
</g>
<!-- Node1&#45;&gt;Node21 -->
<g id="edge28" class="edge">
<title>Node1&#45;&gt;Node21</title>
<path fill="none" stroke="midnightblue" d="M74.48,-627.5C91.85,-611.13 129.07,-576.89 163,-551 228.77,-500.81 311.62,-448.78 352.24,-423.94"/>
<polygon fill="midnightblue" stroke="midnightblue" points="354.22,-426.84 360.94,-418.65 350.58,-420.86 354.22,-426.84"/>
</g>
<!-- Node25 -->
<g id="node22" class="node">
<title>Node25</title>
<g id="a_node22"><a xlink:href="quickjs_8c.html#ab7fc45a99935a1c0ba50b0216d9401a9" target="_top" xlink:title=" ">
<polygon fill="none" stroke="black" points="481,-38.5 481,-57.5 559,-57.5 559,-38.5 481,-38.5"/>
<text text-anchor="middle" x="520" y="-45.5" font-family="Helvetica,sans-Serif" font-size="10.00">JS_FreeAtom</text>
</a>
</g>
</g>
<!-- Node1&#45;&gt;Node25 -->
<g id="edge38" class="edge">
<title>Node1&#45;&gt;Node25</title>
<path fill="none" stroke="midnightblue" d="M65.29,-627.49C70.39,-568.02 100.54,-247.49 163,-176 242.96,-84.47 393.33,-58.39 470.54,-50.95"/>
<polygon fill="midnightblue" stroke="midnightblue" points="471.29,-54.4 480.94,-50.03 470.67,-47.43 471.29,-54.4"/>
</g>
<!-- Node30 -->
<g id="node24" class="node">
<title>Node30</title>
<g id="a_node24"><a xlink:href="quickjs_8c.html#a6686f5baeecd532b043761b6c24ed431" target="_top" xlink:title=" ">
<polygon fill="none" stroke="black" points="163,-779.5 163,-798.5 276,-798.5 276,-779.5 163,-779.5"/>
<text text-anchor="middle" x="219.5" y="-786.5" font-family="Helvetica,sans-Serif" font-size="10.00">js_parse_cond_expr</text>
</a>
</g>
</g>
<!-- Node1&#45;&gt;Node30 -->
<g id="edge42" class="edge">
<title>Node1&#45;&gt;Node30</title>
<path fill="none" stroke="midnightblue" d="M77.09,-646.62C95.09,-665.49 129.71,-706.13 163,-737 176.52,-749.54 193.44,-762.27 205.03,-772.45"/>
<polygon fill="midnightblue" stroke="midnightblue" points="202.71,-775.07 212.39,-779.37 207.5,-769.97 202.71,-775.07"/>
</g>
<!-- Node111 -->
<g id="node27" class="node">
<title>Node111</title>
<g id="a_node27"><a xlink:href="quickjs_8c.html#a75a3798e2045f6e403c1ef467126d1fb" target="_top" xlink:title=" ">
<polygon fill="none" stroke="red" points="484.5,-874.5 484.5,-893.5 555.5,-893.5 555.5,-874.5 484.5,-874.5"/>
<text text-anchor="middle" x="520" y="-881.5" font-family="Helvetica,sans-Serif" font-size="10.00">next_token</text>
</a>
</g>
</g>
<!-- Node1&#45;&gt;Node111 -->
<g id="edge58" class="edge">
<title>Node1&#45;&gt;Node111</title>
<path fill="none" stroke="midnightblue" d="M66.48,-646.6C73.74,-679.75 101.76,-791.05 163,-858 250.9,-954.09 320.59,-982.57 444,-941 467.32,-933.14 489.14,-914.83 503.16,-901.07"/>
<polygon fill="midnightblue" stroke="midnightblue" points="505.98,-903.2 510.47,-893.6 500.97,-898.3 505.98,-903.2"/>
</g>
<!-- Node531 -->
<g id="node29" class="node">
<title>Node531</title>
<g id="a_node29"><a xlink:href="quickjs_8c.html#a24d4ada6c0c50e82c89955a9300708a9" target="_top" xlink:title=" ">
<polygon fill="none" stroke="black" points="344,-532.5 344,-551.5 412,-551.5 412,-532.5 344,-532.5"/>
<text text-anchor="middle" x="378" y="-539.5" font-family="Helvetica,sans-Serif" font-size="10.00">put_lvalue</text>
</a>
</g>
</g>
<!-- Node1&#45;&gt;Node531 -->
<g id="edge59" class="edge">
<title>Node1&#45;&gt;Node531</title>
<path fill="none" stroke="midnightblue" d="M78.52,-627.46C97.04,-615.31 131.07,-594.49 163,-583 220.17,-562.43 289.85,-551.53 333.83,-546.27"/>
<polygon fill="midnightblue" stroke="midnightblue" points="334.36,-549.73 343.89,-545.11 333.56,-542.77 334.36,-549.73"/>
</g>
<!-- Node532 -->
<g id="node30" class="node">
<title>Node532</title>
<g id="a_node30"><a xlink:href="quickjs_8c.html#ab87db7e4e299e811a54acab5fe3620a7" target="_top" xlink:title=" ">
<polygon fill="none" stroke="red" points="328,-152.5 328,-171.5 428,-171.5 428,-152.5 328,-152.5"/>
<text text-anchor="middle" x="378" y="-159.5" font-family="Helvetica,sans-Serif" font-size="10.00">set_object_name</text>
</a>
</g>
</g>
<!-- Node1&#45;&gt;Node532 -->
<g id="edge65" class="edge">
<title>Node1&#45;&gt;Node532</title>
<path fill="none" stroke="midnightblue" d="M65.72,-627.15C72.7,-572.17 109.23,-303.45 163,-243 202.56,-198.52 269.13,-178.36 317.53,-169.29"/>
<polygon fill="midnightblue" stroke="midnightblue" points="318.33,-172.7 327.57,-167.52 317.11,-165.81 318.33,-172.7"/>
</g>
<!-- Node2&#45;&gt;Node3 -->
<g id="edge2" class="edge">
<title>Node2&#45;&gt;Node3</title>
<path fill="none" stroke="midnightblue" d="M527.7,-247.89C535.77,-259.95 549.54,-281.08 560,-300 588.8,-352.06 617.98,-416.09 631.78,-447.22"/>
<polygon fill="midnightblue" stroke="midnightblue" points="628.62,-448.71 635.85,-456.45 635.02,-445.89 628.62,-448.71"/>
</g>
<!-- Node7 -->
<g id="node5" class="node">
<title>Node7</title>
<g id="a_node5"><a xlink:href="quickjs_8c.html#abbf44eaeace1104a6bef718fbf5700fe" target="_top" xlink:title=" ">
<polygon fill="none" stroke="black" points="602.5,-76.5 602.5,-95.5 679.5,-95.5 679.5,-76.5 602.5,-76.5"/>
<text text-anchor="middle" x="641" y="-83.5" font-family="Helvetica,sans-Serif" font-size="10.00">JS_DupAtom</text>
</a>
</g>
</g>
<!-- Node2&#45;&gt;Node7 -->
<g id="edge4" class="edge">
<title>Node2&#45;&gt;Node7</title>
<path fill="none" stroke="midnightblue" d="M546.28,-228.34C551.17,-225.77 556,-222.66 560,-219 595.95,-186.09 621.04,-133.28 632.67,-105.13"/>
<polygon fill="midnightblue" stroke="midnightblue" points="636,-106.22 636.46,-95.64 629.5,-103.63 636,-106.22"/>
</g>
<!-- Node4 -->
<g id="node4" class="node">
<title>Node4</title>
<g id="a_node4"><a xlink:href="cutils_8h.html#a8ba08f82c43549fcb3c939229498354d" target="_top" xlink:title=" ">
<polygon fill="none" stroke="red" points="732.5,-551.5 732.5,-570.5 815.5,-570.5 815.5,-551.5 732.5,-551.5"/>
<text text-anchor="middle" x="774" y="-558.5" font-family="Helvetica,sans-Serif" font-size="10.00">dbuf_put_u32</text>
</a>
</g>
</g>
<!-- Node3&#45;&gt;Node4 -->
<g id="edge3" class="edge">
<title>Node3&#45;&gt;Node4</title>
<path fill="none" stroke="midnightblue" d="M655.53,-475.81C678.3,-492.32 724.45,-525.79 751.64,-545.51"/>
<polygon fill="midnightblue" stroke="midnightblue" points="749.59,-548.35 759.74,-551.39 753.7,-542.68 749.59,-548.35"/>
</g>
<!-- Node8 -->
<g id="node6" class="node">
<title>Node8</title>
<g id="a_node6"><a xlink:href="quickjs_8c.html#a7f6796ee7a195631366f57c713a33f65" target="_top" xlink:title=" ">
<polygon fill="none" stroke="black" points="722,-57.5 722,-76.5 826,-76.5 826,-57.5 722,-57.5"/>
<text text-anchor="middle" x="774" y="-64.5" font-family="Helvetica,sans-Serif" font-size="10.00">__JS_AtomIsConst</text>
</a>
</g>
</g>
<!-- Node7&#45;&gt;Node8 -->
<g id="edge5" class="edge">
<title>Node7&#45;&gt;Node8</title>
<path fill="none" stroke="midnightblue" d="M679.54,-80.56C689.61,-79.09 700.77,-77.48 711.77,-75.88"/>
<polygon fill="midnightblue" stroke="midnightblue" points="712.39,-79.33 721.78,-74.43 711.39,-72.4 712.39,-79.33"/>
</g>
<!-- Node9&#45;&gt;Node3 -->
<g id="edge10" class="edge">
<title>Node9&#45;&gt;Node3</title>
<path fill="none" stroke="midnightblue" d="M528.82,-760.44C537.43,-749.53 551.22,-730.86 560,-713 599.41,-632.78 625.76,-528.65 635.64,-485.77"/>
<polygon fill="midnightblue" stroke="midnightblue" points="639.11,-486.33 637.9,-475.81 632.28,-484.79 639.11,-486.33"/>
</g>
<!-- Node9&#45;&gt;Node10 -->
<g id="edge7" class="edge">
<title>Node9&#45;&gt;Node10</title>
<path fill="none" stroke="midnightblue" d="M538.16,-760.4C545.14,-756.25 553.15,-751.17 560,-746 577.32,-732.92 577.78,-724.8 596,-713 598.72,-711.24 601.64,-709.57 604.62,-708.01"/>
<polygon fill="midnightblue" stroke="midnightblue" points="606.17,-711.15 613.67,-703.67 603.14,-704.84 606.17,-711.15"/>
</g>
<!-- Node12 -->
<g id="node10" class="node">
<title>Node12</title>
<g id="a_node10"><a xlink:href="quickjs_8c.html#ac9b65f8f0ed192fa6be0984d92550f34" target="_top" xlink:title=" ">
<polygon fill="none" stroke="black" points="596,-722.5 596,-741.5 686,-741.5 686,-722.5 596,-722.5"/>
<text text-anchor="middle" x="641" y="-729.5" font-family="Helvetica,sans-Serif" font-size="10.00">js_is_live_code</text>
</a>
</g>
</g>
<!-- Node9&#45;&gt;Node12 -->
<g id="edge11" class="edge">
<title>Node9&#45;&gt;Node12</title>
<path fill="none" stroke="midnightblue" d="M551.03,-760.41C565.97,-755.64 584.22,-749.81 600.3,-744.68"/>
<polygon fill="midnightblue" stroke="midnightblue" points="601.52,-747.96 609.98,-741.59 599.39,-741.29 601.52,-747.96"/>
</g>
<!-- Node9&#45;&gt;Node14 -->
<g id="edge13" class="edge">
<title>Node9&#45;&gt;Node14</title>
<path fill="none" stroke="midnightblue" d="M553.2,-770C566.83,-770 582.89,-770 597.47,-770"/>
<polygon fill="midnightblue" stroke="midnightblue" points="597.77,-773.5 607.77,-770 597.77,-766.5 597.77,-773.5"/>
</g>
<!-- Node10&#45;&gt;Node4 -->
<g id="edge8" class="edge">
<title>Node10&#45;&gt;Node4</title>
<path fill="none" stroke="midnightblue" d="M651.42,-684.43C673.41,-662.11 728.35,-606.34 756.22,-578.04"/>
<polygon fill="midnightblue" stroke="midnightblue" points="758.79,-580.42 763.31,-570.84 753.8,-575.51 758.79,-580.42"/>
</g>
<!-- Node11 -->
<g id="node9" class="node">
<title>Node11</title>
<g id="a_node9"><a xlink:href="cutils_8h.html#aeed81d4787ccdbd55baa9b5fd6717e88" target="_top" xlink:title=" ">
<polygon fill="none" stroke="red" points="741.5,-703.5 741.5,-722.5 806.5,-722.5 806.5,-703.5 741.5,-703.5"/>
<text text-anchor="middle" x="774" y="-710.5" font-family="Helvetica,sans-Serif" font-size="10.00">dbuf_putc</text>
</a>
</g>
</g>
<!-- Node10&#45;&gt;Node11 -->
<g id="edge9" class="edge">
<title>Node10&#45;&gt;Node11</title>
<path fill="none" stroke="midnightblue" d="M669.14,-697.94C687.09,-700.54 710.98,-704 731.32,-706.95"/>
<polygon fill="midnightblue" stroke="midnightblue" points="730.88,-710.43 741.28,-708.4 731.88,-703.5 730.88,-710.43"/>
</g>
<!-- Node13 -->
<g id="node11" class="node">
<title>Node13</title>
<g id="a_node11"><a xlink:href="quickjs_8c.html#a54ae8eded33038911c0fde73470ed951" target="_top" xlink:title=" ">
<polygon fill="none" stroke="black" points="724,-266.5 724,-285.5 824,-285.5 824,-266.5 724,-266.5"/>
<text text-anchor="middle" x="774" y="-273.5" font-family="Helvetica,sans-Serif" font-size="10.00">get_prev_opcode</text>
</a>
</g>
</g>
<!-- Node12&#45;&gt;Node13 -->
<g id="edge12" class="edge">
<title>Node12&#45;&gt;Node13</title>
<path fill="none" stroke="midnightblue" d="M674.36,-722.47C678.78,-719.99 682.86,-716.88 686,-713 689.39,-708.81 752.88,-380.36 769.2,-295.72"/>
<polygon fill="midnightblue" stroke="midnightblue" points="772.65,-296.32 771.11,-285.84 765.78,-295 772.65,-296.32"/>
</g>
<!-- Node15 -->
<g id="node13" class="node">
<title>Node15</title>
<g id="a_node13"><a xlink:href="quickjs_8c.html#a217c750ab1ff788ada118a7f6736cb6e" target="_top" xlink:title=" ">
<polygon fill="none" stroke="black" points="733.5,-760.5 733.5,-779.5 814.5,-779.5 814.5,-760.5 733.5,-760.5"/>
<text text-anchor="middle" x="774" y="-767.5" font-family="Helvetica,sans-Serif" font-size="10.00">new_label_fd</text>
</a>
</g>
</g>
<!-- Node14&#45;&gt;Node15 -->
<g id="edge14" class="edge">
<title>Node14&#45;&gt;Node15</title>
<path fill="none" stroke="midnightblue" d="M674.05,-770C688.85,-770 706.77,-770 723.27,-770"/>
<polygon fill="midnightblue" stroke="midnightblue" points="723.32,-773.5 733.32,-770 723.32,-766.5 723.32,-773.5"/>
</g>
<!-- Node16&#45;&gt;Node3 -->
<g id="edge17" class="edge">
<title>Node16&#45;&gt;Node3</title>
<path fill="none" stroke="midnightblue" d="M525.96,-684.49C543.99,-649.95 606.25,-530.66 630.36,-484.47"/>
<polygon fill="midnightblue" stroke="midnightblue" points="633.49,-486.03 635.02,-475.55 627.29,-482.79 633.49,-486.03"/>
</g>
<!-- Node16&#45;&gt;Node10 -->
<g id="edge16" class="edge">
<title>Node16&#45;&gt;Node10</title>
<path fill="none" stroke="midnightblue" d="M554.15,-694C569.12,-694 586.89,-694 602.36,-694"/>
<polygon fill="midnightblue" stroke="midnightblue" points="602.65,-697.5 612.65,-694 602.65,-690.5 602.65,-697.5"/>
</g>
<!-- Node17&#45;&gt;Node2 -->
<g id="edge20" class="edge">
<title>Node17&#45;&gt;Node2</title>
<path fill="none" stroke="midnightblue" d="M415.22,-576.64C425.84,-573.92 436.57,-569.18 444,-561 501.75,-497.35 459.88,-454.56 480,-371 489.86,-330.06 504.46,-282.94 512.72,-257.22"/>
<polygon fill="midnightblue" stroke="midnightblue" points="516.09,-258.18 515.83,-247.59 509.43,-256.03 516.09,-258.18"/>
</g>
<!-- Node17&#45;&gt;Node9 -->
<g id="edge21" class="edge">
<title>Node17&#45;&gt;Node9</title>
<path fill="none" stroke="midnightblue" d="M386.14,-589.68C408.32,-619.79 476.33,-712.08 505.49,-751.66"/>
<polygon fill="midnightblue" stroke="midnightblue" points="502.96,-754.13 511.71,-760.11 508.6,-749.98 502.96,-754.13"/>
</g>
<!-- Node17&#45;&gt;Node10 -->
<g id="edge23" class="edge">
<title>Node17&#45;&gt;Node10</title>
<path fill="none" stroke="midnightblue" d="M410.94,-589.6C421.76,-593.41 433.7,-598.27 444,-604 461.72,-613.85 462.36,-622.01 480,-632 519.93,-654.62 569.75,-672.47 603.09,-683.1"/>
<polygon fill="midnightblue" stroke="midnightblue" points="602.29,-686.51 612.88,-686.16 604.38,-679.83 602.29,-686.51"/>
</g>
<!-- Node17&#45;&gt;Node16 -->
<g id="edge22" class="edge">
<title>Node17&#45;&gt;Node16</title>
<path fill="none" stroke="midnightblue" d="M415.21,-588.26C425.34,-591.85 435.81,-596.92 444,-604 469.28,-625.85 457,-645.76 480,-670 483.02,-673.18 486.54,-676.1 490.22,-678.73"/>
<polygon fill="midnightblue" stroke="midnightblue" points="488.6,-681.85 498.9,-684.32 492.38,-675.96 488.6,-681.85"/>
</g>
<!-- Node18 -->
<g id="node16" class="node">
<title>Node18</title>
<g id="a_node16"><a xlink:href="quickjs_8c.html#a50b5ef50e38aaeb8cba27214601474c7" target="_top" xlink:title=" ">
<polygon fill="none" stroke="red" points="489,-570.5 489,-589.5 551,-589.5 551,-570.5 489,-570.5"/>
<text text-anchor="middle" x="520" y="-577.5" font-family="Helvetica,sans-Serif" font-size="10.00">emit_u16</text>
</a>
</g>
</g>
<!-- Node17&#45;&gt;Node18 -->
<g id="edge24" class="edge">
<title>Node17&#45;&gt;Node18</title>
<path fill="none" stroke="midnightblue" d="M415.05,-580C434.51,-580 458.58,-580 478.66,-580"/>
<polygon fill="midnightblue" stroke="midnightblue" points="478.75,-583.5 488.75,-580 478.75,-576.5 478.75,-583.5"/>
</g>
<!-- Node20&#45;&gt;Node11 -->
<g id="edge27" class="edge">
<title>Node20&#45;&gt;Node11</title>
<path fill="none" stroke="midnightblue" d="M247.61,-1034.54C308.52,-1030.08 458.82,-1012.41 560,-944 652.77,-881.27 640.55,-827.86 722,-751 730.52,-742.96 740.74,-735.06 749.78,-728.56"/>
<polygon fill="midnightblue" stroke="midnightblue" points="751.82,-731.41 758,-722.8 747.8,-725.67 751.82,-731.41"/>
</g>
<!-- Node21&#45;&gt;Node2 -->
<g id="edge29" class="edge">
<title>Node21&#45;&gt;Node2</title>
<path fill="none" stroke="midnightblue" d="M383.76,-399.4C396.54,-374.36 433.78,-305.95 480,-262 483.4,-258.77 487.3,-255.75 491.29,-253.03"/>
<polygon fill="midnightblue" stroke="midnightblue" points="493.42,-255.82 500.02,-247.54 489.69,-249.9 493.42,-255.82"/>
</g>
<!-- Node21&#45;&gt;Node3 -->
<g id="edge32" class="edge">
<title>Node21&#45;&gt;Node3</title>
<path fill="none" stroke="midnightblue" d="M394.76,-399.34C427.15,-380.83 502.94,-344.45 560,-371 593.72,-386.69 618.32,-424.36 630.78,-447.27"/>
<polygon fill="midnightblue" stroke="midnightblue" points="627.78,-449.1 635.5,-456.35 633.99,-445.87 627.78,-449.1"/>
</g>
<!-- Node21&#45;&gt;Node10 -->
<g id="edge30" class="edge">
<title>Node21&#45;&gt;Node10</title>
<path fill="none" stroke="midnightblue" d="M400.97,-418.61C438.05,-435.77 513.55,-474.95 560,-528 599.57,-573.2 624.13,-641.4 634.41,-674.54"/>
<polygon fill="midnightblue" stroke="midnightblue" points="631.13,-675.78 637.35,-684.36 637.84,-673.77 631.13,-675.78"/>
</g>
<!-- Node21&#45;&gt;Node13 -->
<g id="edge33" class="edge">
<title>Node21&#45;&gt;Node13</title>
<path fill="none" stroke="midnightblue" d="M394.96,-399.47C414.48,-388.13 448.77,-369.2 480,-357 560.39,-325.58 657.64,-301.25 717.4,-287.77"/>
<polygon fill="midnightblue" stroke="midnightblue" points="718.39,-291.14 727.39,-285.54 716.87,-284.3 718.39,-291.14"/>
</g>
<!-- Node21&#45;&gt;Node14 -->
<g id="edge36" class="edge">
<title>Node21&#45;&gt;Node14</title>
<path fill="none" stroke="midnightblue" d="M387.6,-418.76C404.34,-437.45 442.92,-479.11 480,-509 513.02,-535.61 536.38,-525.78 560,-561 607.88,-632.38 542.28,-683.91 596,-751 596.98,-752.22 598.04,-753.36 599.19,-754.43"/>
<polygon fill="midnightblue" stroke="midnightblue" points="597.45,-757.49 607.61,-760.49 601.54,-751.81 597.45,-757.49"/>
</g>
<!-- Node21&#45;&gt;Node18 -->
<g id="edge31" class="edge">
<title>Node21&#45;&gt;Node18</title>
<path fill="none" stroke="midnightblue" d="M383.76,-418.6C396.54,-443.64 433.78,-512.05 480,-556 483.4,-559.23 487.3,-562.25 491.29,-564.97"/>
<polygon fill="midnightblue" stroke="midnightblue" points="489.69,-568.1 500.02,-570.46 493.42,-562.18 489.69,-568.1"/>
</g>
<!-- Node22 -->
<g id="node19" class="node">
<title>Node22</title>
<g id="a_node19"><a xlink:href="cutils_8h.html#ad587834d17e95461893d59661e5e9676" target="_top" xlink:title=" ">
<polygon fill="none" stroke="black" points="492,-418.5 492,-437.5 548,-437.5 548,-418.5 492,-418.5"/>
<text text-anchor="middle" x="520" y="-425.5" font-family="Helvetica,sans-Serif" font-size="10.00">get_u16</text>
</a>
</g>
</g>
<!-- Node21&#45;&gt;Node22 -->
<g id="edge34" class="edge">
<title>Node21&#45;&gt;Node22</title>
<path fill="none" stroke="midnightblue" d="M412.18,-413.5C433.02,-416.33 459.96,-419.99 481.57,-422.92"/>
<polygon fill="midnightblue" stroke="midnightblue" points="481.32,-426.42 491.7,-424.3 482.26,-419.48 481.32,-426.42"/>
</g>
<!-- Node23 -->
<g id="node20" class="node">
<title>Node23</title>
<g id="a_node20"><a xlink:href="cutils_8h.html#a941262a5f72fda2ec43ae7911e97a0dc" target="_top" xlink:title=" ">
<polygon fill="none" stroke="black" points="492,-190.5 492,-209.5 548,-209.5 548,-190.5 492,-190.5"/>
<text text-anchor="middle" x="520" y="-197.5" font-family="Helvetica,sans-Serif" font-size="10.00">get_u32</text>
</a>
</g>
</g>
<!-- Node21&#45;&gt;Node23 -->
<g id="edge35" class="edge">
<title>Node21&#45;&gt;Node23</title>
<path fill="none" stroke="midnightblue" d="M381.75,-399.4C390.85,-369.1 422.75,-274.26 480,-219 481.42,-217.63 482.96,-216.34 484.58,-215.12"/>
<polygon fill="midnightblue" stroke="midnightblue" points="486.57,-218.01 493.16,-209.72 482.83,-212.09 486.57,-218.01"/>
</g>
<!-- Node24 -->
<g id="node21" class="node">
<title>Node24</title>
<g id="a_node21"><a xlink:href="quickjs_8c.html#a337071c33fd0684a2b132b17f536f35c" target="_top" xlink:title=" ">
<polygon fill="none" stroke="black" points="480,-380.5 480,-399.5 560,-399.5 560,-380.5 480,-380.5"/>
<text text-anchor="middle" x="520" y="-387.5" font-family="Helvetica,sans-Serif" font-size="10.00">update_label</text>
</a>
</g>
</g>
<!-- Node21&#45;&gt;Node24 -->
<g id="edge37" class="edge">
<title>Node21&#45;&gt;Node24</title>
<path fill="none" stroke="midnightblue" d="M412.18,-404.5C429.38,-402.16 450.73,-399.26 469.82,-396.68"/>
<polygon fill="midnightblue" stroke="midnightblue" points="470.41,-400.13 479.85,-395.31 469.47,-393.19 470.41,-400.13"/>
</g>
<!-- Node25&#45;&gt;Node8 -->
<g id="edge39" class="edge">
<title>Node25&#45;&gt;Node8</title>
<path fill="none" stroke="midnightblue" d="M559.27,-50.89C599.68,-53.93 663.98,-58.78 711.51,-62.36"/>
<polygon fill="midnightblue" stroke="midnightblue" points="711.45,-65.87 721.69,-63.13 711.98,-58.89 711.45,-65.87"/>
</g>
<!-- Node26 -->
<g id="node23" class="node">
<title>Node26</title>
<g id="a_node23"><a xlink:href="quickjs_8c.html#a0bbd9e3ecd55e3ea6c9d44bfda382095" target="_top" xlink:title=" ">
<polygon fill="none" stroke="red" points="596.5,-0.5 596.5,-19.5 685.5,-19.5 685.5,-0.5 596.5,-0.5"/>
<text text-anchor="middle" x="641" y="-7.5" font-family="Helvetica,sans-Serif" font-size="10.00">__JS_FreeAtom</text>
</a>
</g>
</g>
<!-- Node25&#45;&gt;Node26 -->
<g id="edge40" class="edge">
<title>Node25&#45;&gt;Node26</title>
<path fill="none" stroke="midnightblue" d="M551.03,-38.41C565.97,-33.64 584.22,-27.81 600.3,-22.68"/>
<polygon fill="midnightblue" stroke="midnightblue" points="601.52,-25.96 609.98,-19.59 599.39,-19.29 601.52,-25.96"/>
</g>
<!-- Node30&#45;&gt;Node1 -->
<g id="edge47" class="edge">
<title>Node30&#45;&gt;Node1</title>
<path fill="none" stroke="midnightblue" d="M193.43,-779.42C183.62,-772.67 172.48,-763.78 163,-755 128.17,-722.71 91.89,-679.72 74.7,-655.22"/>
<polygon fill="midnightblue" stroke="midnightblue" points="77.55,-653.18 69.09,-646.8 71.72,-657.06 77.55,-653.18"/>
</g>
<!-- Node30&#45;&gt;Node9 -->
<g id="edge43" class="edge">
<title>Node30&#45;&gt;Node9</title>
<path fill="none" stroke="midnightblue" d="M276.3,-785.45C334.39,-781.75 424.1,-776.04 476.63,-772.7"/>
<polygon fill="midnightblue" stroke="midnightblue" points="477.18,-776.17 486.94,-772.04 476.74,-769.18 477.18,-776.17"/>
</g>
<!-- Node30&#45;&gt;Node16 -->
<g id="edge44" class="edge">
<title>Node30&#45;&gt;Node16</title>
<path fill="none" stroke="midnightblue" d="M250.49,-779.46C304.69,-762.21 418.93,-725.85 479.44,-706.59"/>
<polygon fill="midnightblue" stroke="midnightblue" points="480.56,-709.91 489.03,-703.54 478.44,-703.24 480.56,-709.91"/>
</g>
<!-- Node31 -->
<g id="node25" class="node">
<title>Node31</title>
<g id="a_node25"><a xlink:href="quickjs_8c.html#a4b2edcb56737c91ad1f7fd7561199dc9" target="_top" xlink:title=" ">
<polygon fill="none" stroke="black" points="317.5,-912.5 317.5,-931.5 438.5,-931.5 438.5,-912.5 317.5,-912.5"/>
<text text-anchor="middle" x="378" y="-919.5" font-family="Helvetica,sans-Serif" font-size="10.00">js_parse_assign_expr</text>
</a>
</g>
</g>
<!-- Node30&#45;&gt;Node31 -->
<g id="edge45" class="edge">
<title>Node30&#45;&gt;Node31</title>
<path fill="none" stroke="midnightblue" d="M227.48,-798.52C245.07,-822.3 291.29,-883.43 312,-898 317.95,-902.19 324.72,-905.74 331.59,-908.71"/>
<polygon fill="midnightblue" stroke="midnightblue" points="330.36,-911.99 340.95,-912.43 332.94,-905.49 330.36,-911.99"/>
</g>
<!-- Node32 -->
<g id="node26" class="node">
<title>Node32</title>
<g id="a_node26"><a xlink:href="quickjs_8c.html#a93b69939f7af67646a177249bf2deb4d" target="_top" xlink:title=" ">
<polygon fill="none" stroke="red" points="312,-798.5 312,-817.5 444,-817.5 444,-798.5 312,-798.5"/>
<text text-anchor="middle" x="378" y="-805.5" font-family="Helvetica,sans-Serif" font-size="10.00">js_parse_coalesce_expr</text>
</a>
</g>
</g>
<!-- Node30&#45;&gt;Node32 -->
<g id="edge48" class="edge">
<title>Node30&#45;&gt;Node32</title>
<path fill="none" stroke="midnightblue" d="M276.12,-795.75C284.45,-796.76 293.16,-797.82 301.82,-798.87"/>
<polygon fill="midnightblue" stroke="midnightblue" points="301.59,-802.37 311.94,-800.1 302.43,-795.42 301.59,-802.37"/>
</g>
<!-- Node30&#45;&gt;Node111 -->
<g id="edge56" class="edge">
<title>Node30&#45;&gt;Node111</title>
<path fill="none" stroke="midnightblue" d="M228.38,-798.56C242.9,-815.4 275.75,-850 312,-865 364.53,-886.73 430.78,-888.92 473.98,-887.38"/>
<polygon fill="midnightblue" stroke="midnightblue" points="474.34,-890.87 484.18,-886.93 474.04,-883.87 474.34,-890.87"/>
</g>
<!-- Node482 -->
<g id="node28" class="node">
<title>Node482</title>
<g id="a_node28"><a xlink:href="quickjs_8c.html#aeca8ed71e1eef8ec809afab744958c28" target="_top" xlink:title=" ">
<polygon fill="none" stroke="black" points="330.5,-836.5 330.5,-855.5 425.5,-855.5 425.5,-836.5 330.5,-836.5"/>
<text text-anchor="middle" x="378" y="-843.5" font-family="Helvetica,sans-Serif" font-size="10.00">js_parse_expect</text>
</a>
</g>
</g>
<!-- Node30&#45;&gt;Node482 -->
<g id="edge54" class="edge">
<title>Node30&#45;&gt;Node482</title>
<path fill="none" stroke="midnightblue" d="M241.69,-798.57C260.07,-806.69 287.5,-818.36 312,-827 318.41,-829.26 325.23,-831.47 331.96,-833.53"/>
<polygon fill="midnightblue" stroke="midnightblue" points="331.11,-836.93 341.69,-836.44 333.12,-830.22 331.11,-836.93"/>
</g>
<!-- Node31&#45;&gt;Node1 -->
<g id="edge46" class="edge">
<title>Node31&#45;&gt;Node1</title>
<path fill="none" stroke="midnightblue" d="M347.41,-912.38C302.79,-896.63 217.7,-861.64 163,-808 116.65,-762.54 84.95,-690.69 71.6,-656.42"/>
<polygon fill="midnightblue" stroke="midnightblue" points="74.74,-654.81 67.92,-646.7 68.19,-657.29 74.74,-654.81"/>
</g>
<!-- Node32&#45;&gt;Node9 -->
<g id="edge49" class="edge">
<title>Node32&#45;&gt;Node9</title>
<path fill="none" stroke="midnightblue" d="M414.33,-798.41C433.32,-793.26 456.86,-786.87 476.8,-781.45"/>
<polygon fill="midnightblue" stroke="midnightblue" points="477.83,-784.8 486.56,-778.8 475.99,-778.05 477.83,-784.8"/>
</g>
<!-- Node32&#45;&gt;Node10 -->
<g id="edge51" class="edge">
<title>Node32&#45;&gt;Node10</title>
<path fill="none" stroke="midnightblue" d="M444.32,-816.02C481.4,-817.17 526.87,-812.48 560,-789 590.49,-767.39 569.12,-738.97 596,-713 598.39,-710.69 601.11,-708.63 604,-706.82"/>
<polygon fill="midnightblue" stroke="midnightblue" points="605.81,-709.82 612.99,-702.04 602.52,-703.64 605.81,-709.82"/>
</g>
<!-- Node32&#45;&gt;Node14 -->
<g id="edge52" class="edge">
<title>Node32&#45;&gt;Node14</title>
<path fill="none" stroke="midnightblue" d="M412.12,-817.57C448.99,-826.63 509.99,-836.83 560,-822 583.58,-815.01 606.73,-798.63 622,-786.11"/>
<polygon fill="midnightblue" stroke="midnightblue" points="624.27,-788.77 629.63,-779.63 619.75,-783.43 624.27,-788.77"/>
</g>
<!-- Node32&#45;&gt;Node16 -->
<g id="edge50" class="edge">
<title>Node32&#45;&gt;Node16</title>
<path fill="none" stroke="midnightblue" d="M390.94,-798.28C415.01,-778.68 469.6,-734.23 499.13,-710.18"/>
<polygon fill="midnightblue" stroke="midnightblue" points="501.55,-712.72 507.09,-703.69 497.13,-707.3 501.55,-712.72"/>
</g>
<!-- Node32&#45;&gt;Node111 -->
<g id="edge53" class="edge">
<title>Node32&#45;&gt;Node111</title>
<path fill="none" stroke="midnightblue" d="M422.1,-817.57C429.65,-820.08 437.24,-823.19 444,-827 462.91,-837.66 462.68,-846.92 480,-860 484.07,-863.07 488.55,-866.11 492.97,-868.94"/>
<polygon fill="midnightblue" stroke="midnightblue" points="491.49,-872.14 501.84,-874.4 495.16,-866.18 491.49,-872.14"/>
</g>
<!-- Node482&#45;&gt;Node111 -->
<g id="edge55" class="edge">
<title>Node482&#45;&gt;Node111</title>
<path fill="none" stroke="midnightblue" d="M414.33,-855.59C432.54,-860.53 454.94,-866.61 474.34,-871.88"/>
<polygon fill="midnightblue" stroke="midnightblue" points="473.6,-875.3 484.17,-874.55 475.43,-868.55 473.6,-875.3"/>
</g>
<!-- Node531&#45;&gt;Node3 -->
<g id="edge63" class="edge">
<title>Node531&#45;&gt;Node3</title>
<path fill="none" stroke="midnightblue" d="M411.79,-532.45C459.67,-518.51 548.6,-492.62 600.17,-477.6"/>
<polygon fill="midnightblue" stroke="midnightblue" points="601.34,-480.9 609.96,-474.75 599.39,-474.18 601.34,-480.9"/>
</g>
<!-- Node531&#45;&gt;Node10 -->
<g id="edge61" class="edge">
<title>Node531&#45;&gt;Node10</title>
<path fill="none" stroke="midnightblue" d="M412.15,-548.09C422.82,-550.97 434.37,-555.12 444,-561 463.85,-573.13 460.82,-585.83 480,-599 511.7,-620.78 526.72,-612.71 560,-632 582.58,-645.08 605.88,-663.85 621.47,-677.31"/>
<polygon fill="midnightblue" stroke="midnightblue" points="619.46,-680.2 629.28,-684.16 624.08,-674.94 619.46,-680.2"/>
</g>
<!-- Node531&#45;&gt;Node16 -->
<g id="edge60" class="edge">
<title>Node531&#45;&gt;Node16</title>
<path fill="none" stroke="midnightblue" d="M412.25,-546.28C423.3,-549.04 435.05,-553.56 444,-561 471.22,-583.6 462.56,-601.22 480,-632 488.49,-646.99 498.92,-663.48 506.85,-675.68"/>
<polygon fill="midnightblue" stroke="midnightblue" points="503.95,-677.64 512.36,-684.08 509.8,-673.8 503.95,-677.64"/>
</g>
<!-- Node531&#45;&gt;Node18 -->
<g id="edge62" class="edge">
<title>Node531&#45;&gt;Node18</title>
<path fill="none" stroke="midnightblue" d="M412.18,-551.01C432.28,-556.46 458.05,-563.46 479.24,-569.21"/>
<polygon fill="midnightblue" stroke="midnightblue" points="478.36,-572.59 488.92,-571.84 480.19,-565.84 478.36,-572.59"/>
</g>
<!-- Node531&#45;&gt;Node25 -->
<g id="edge64" class="edge">
<title>Node531&#45;&gt;Node25</title>
<path fill="none" stroke="midnightblue" d="M386.27,-532.24C400.01,-513.26 429.69,-469.58 444,-428 480.1,-323.1 456.33,-289.38 480,-181 488.98,-139.86 503.91,-92.82 512.46,-67.16"/>
<polygon fill="midnightblue" stroke="midnightblue" points="515.82,-68.15 515.69,-57.56 509.18,-65.92 515.82,-68.15"/>
</g>
<!-- Node532&#45;&gt;Node2 -->
<g id="edge66" class="edge">
<title>Node532&#45;&gt;Node2</title>
<path fill="none" stroke="midnightblue" d="M395.28,-171.59C415.1,-183.17 449.7,-203.09 480,-219 483.09,-220.63 486.35,-222.29 489.6,-223.91"/>
<polygon fill="midnightblue" stroke="midnightblue" points="488.12,-227.09 498.64,-228.37 491.22,-220.81 488.12,-227.09"/>
</g>
<!-- Node532&#45;&gt;Node7 -->
<g id="edge70" class="edge">
<title>Node532&#45;&gt;Node7</title>
<path fill="none" stroke="midnightblue" d="M393.73,-152.45C412.82,-140.54 447.53,-120.48 480,-110 516.66,-98.17 559.97,-92.13 592.27,-89.06"/>
<polygon fill="midnightblue" stroke="midnightblue" points="592.7,-92.54 602.35,-88.17 592.08,-85.57 592.7,-92.54"/>
</g>
<!-- Node532&#45;&gt;Node10 -->
<g id="edge67" class="edge">
<title>Node532&#45;&gt;Node10</title>
<path fill="none" stroke="midnightblue" d="M425.01,-152.48C466.14,-146.89 525.14,-146.6 560,-181 608.42,-228.78 584.98,-417.87 596,-485 607.54,-555.3 626.54,-637.8 635.3,-674.59"/>
<polygon fill="midnightblue" stroke="midnightblue" points="631.94,-675.57 637.68,-684.47 638.75,-673.93 631.94,-675.57"/>
</g>
<!-- Node532&#45;&gt;Node13 -->
<g id="edge68" class="edge">
<title>Node532&#45;&gt;Node13</title>
<path fill="none" stroke="midnightblue" d="M412.02,-152.44C448.82,-143.35 509.74,-132.97 560,-147 639.46,-169.19 718.81,-229.98 754.06,-259.49"/>
<polygon fill="midnightblue" stroke="midnightblue" points="752.16,-262.47 762.05,-266.28 756.7,-257.13 752.16,-262.47"/>
</g>
<!-- Node532&#45;&gt;Node23 -->
<g id="edge69" class="edge">
<title>Node532&#45;&gt;Node23</title>
<path fill="none" stroke="midnightblue" d="M414.33,-171.59C434.93,-177.18 460.9,-184.23 481.82,-189.91"/>
<polygon fill="midnightblue" stroke="midnightblue" points="481.06,-193.33 491.63,-192.57 482.9,-186.57 481.06,-193.33"/>
</g>
<!-- Node532&#45;&gt;Node25 -->
<g id="edge71" class="edge">
<title>Node532&#45;&gt;Node25</title>
<path fill="none" stroke="midnightblue" d="M396.69,-152.47C410.45,-144.57 429.56,-132.48 444,-119 463.24,-101.05 460.47,-89.63 480,-72 483.48,-68.86 487.43,-65.89 491.44,-63.18"/>
<polygon fill="midnightblue" stroke="midnightblue" points="493.56,-65.98 500.17,-57.71 489.84,-60.05 493.56,-65.98"/>
</g>
</g>
</svg>
        <g id="navigator" transform="translate(0 0)" fill="#404254">
                <rect fill="#f2f5e9" fill-opacity="0.5" stroke="#606060" stroke-width=".5" x="0" y="0" width="60" height="60"/>
                <use id="zoomplus" xlink:href="#zoomPlus" x="17" y="9" onmousedown="handleZoom(evt,'in')"/>
                <use id="zoomminus" xlink:href="#zoomMin" x="42" y="9" onmousedown="handleZoom(evt,'out')"/>
                <use id="reset" xlink:href="#resetDef" x="30" y="36" onmousedown="handleReset()"/>
                <g id="arrowUp" xlink:href="#dirArrow" transform="translate(30 24)" onmousedown="handlePan(0,-1)">
                  <use xlink:href="#rim" fill="#404040">
                        <set attributeName="fill" to="#808080" begin="arrowUp.mouseover" end="arrowUp.mouseout"/>
                  </use>
                  <path fill="none" stroke="white" stroke-width="1.5" d="M0,-3.0v7 M-2.5,-0.5L0,-3.0L2.5,-0.5"/>
                </g>
                <g id="arrowRight" xlink:href="#dirArrow" transform="rotate(90) translate(36 -43)" onmousedown="handlePan(1,0)">
                  <use xlink:href="#rim" fill="#404040">
                        <set attributeName="fill" to="#808080" begin="arrowRight.mouseover" end="arrowRight.mouseout"/>
                  </use>
                  <path fill="none" stroke="white" stroke-width="1.5" d="M0,-3.0v7 M-2.5,-0.5L0,-3.0L2.5,-0.5"/>
                </g>
                <g id="arrowDown" xlink:href="#dirArrow" transform="rotate(180) translate(-30 -48)" onmousedown="handlePan(0,1)">
                  <use xlink:href="#rim" fill="#404040">
                        <set attributeName="fill" to="#808080" begin="arrowDown.mouseover" end="arrowDown.mouseout"/>
                  </use>
                  <path fill="none" stroke="white" stroke-width="1.5" d="M0,-3.0v7 M-2.5,-0.5L0,-3.0L2.5,-0.5"/>
                </g>
                <g id="arrowLeft" xlink:href="#dirArrow" transform="rotate(270) translate(-36 17)" onmousedown="handlePan(-1,0)">
                  <use xlink:href="#rim" fill="#404040">
                        <set attributeName="fill" to="#808080" begin="arrowLeft.mouseover" end="arrowLeft.mouseout"/>
                  </use>
                  <path fill="none" stroke="white" stroke-width="1.5" d="M0,-3.0v7 M-2.5,-0.5L0,-3.0L2.5,-0.5"/>
                </g>
        </g>
        <svg viewBox="0 0 15 15" width="100%" height="30px" preserveAspectRatio="xMaxYMin meet">
         <g id="arrow_out" transform="scale(0.3 0.3)">
          <a xlink:href="quickjs_8c_afa1bc2743b3cf892d36544a708453736_cgraph_org.svg" target="_base">
           <rect id="button" ry="5" rx="5" y="6" x="6" height="38" width="38"
                fill="#f2f5e9" fill-opacity="0.5" stroke="#606060" stroke-width="1.0"/>
           <path id="arrow"
             d="M 11.500037,31.436501 C 11.940474,20.09759 22.043105,11.32322 32.158766,21.979434 L 37.068811,17.246167 C 37.068811,17.246167 37.088388,32 37.088388,32 L 22.160133,31.978069 C 22.160133,31.978069 26.997745,27.140456 26.997745,27.140456 C 18.528582,18.264221 13.291696,25.230495 11.500037,31.436501 z"
             style="fill:#404040;"/>
          </a>
         </g>
        </svg>
</svg>
