<?xml version="1.0" encoding="UTF-8" standalone="no"?>
<!DOCTYPE svg PUBLIC "-//W3C//DTD SVG 1.1//EN"
 "http://www.w3.org/Graphics/SVG/1.1/DTD/svg11.dtd">
<!-- Generated by graphviz version 2.43.0 (0)
 -->
<!-- Title: js_module_loader Pages: 1 -->
<!--zoomable 669 -->
<svg id="main" version="1.1" xmlns="http://www.w3.org/2000/svg" xmlns:xlink="http://www.w3.org/1999/xlink" xml:space="preserve" onload="init(evt)">
<style type="text/css"><![CDATA[
.edge:hover path { stroke: red; }
.edge:hover polygon { stroke: red; fill: red; }
]]></style>
<script type="text/javascript"><![CDATA[
var edges = document.getElementsByTagName('g');
if (edges && edges.length) {
  for (var i=0;i<edges.length;i++) {
    if (edges[i].id.substr(0,4)=='edge') {
      edges[i].setAttribute('class','edge');
    }
  }
}
]]></script>
        <defs>
                <circle id="rim" cx="0" cy="0" r="7"/>
                <circle id="rim2" cx="0" cy="0" r="3.5"/>
                <g id="zoomPlus">
                        <use xlink:href="#rim" fill="#404040">
                                <set attributeName="fill" to="#808080" begin="zoomplus.mouseover" end="zoomplus.mouseout"/>
                        </use>
                        <path d="M-4,0h8M0,-4v8" fill="none" stroke="white" stroke-width="1.5" pointer-events="none"/>
                </g>
                <g id="zoomMin">
                        <use xlink:href="#rim" fill="#404040">
                                <set attributeName="fill" to="#808080" begin="zoomminus.mouseover" end="zoomminus.mouseout"/>
                        </use>
                        <path d="M-4,0h8" fill="none" stroke="white" stroke-width="1.5" pointer-events="none"/>
                </g>
                <g id="dirArrow">
                        <path fill="none" stroke="white" stroke-width="1.5" d="M0,-3.0v7 M-2.5,-0.5L0,-3.0L2.5,-0.5"/>
                </g>
               <g id="resetDef">
                       <use xlink:href="#rim2" fill="#404040">
                               <set attributeName="fill" to="#808080" begin="reset.mouseover" end="reset.mouseout"/>
                       </use>
               </g>
        </defs>

<script type="text/javascript">
var viewWidth = 1124;
var viewHeight = 669;
var sectionId = 'dynsection-15';
</script>
<script xlink:href="svgpan.js"/>
<svg id="graph" class="graph">
<g id="viewport">
<title>js_module_loader</title>
<!-- Node1 -->
<g id="node1" class="node">
<title>Node1</title>
<g id="a_node1"><a xlink:title=" ">
<polygon fill="#bfbfbf" stroke="black" points="0,-508.88 0,-527.88 103,-527.88 103,-508.88 0,-508.88"/>
<text text-anchor="middle" x="51.5" y="-515.88" font-family="Helvetica,sans-Serif" font-size="10.00">js_module_loader</text>
</a>
</g>
</g>
<!-- Node2 -->
<g id="node2" class="node">
<title>Node2</title>
<g id="a_node2"><a xlink:href="cutils_8h.html#a6ba0ed81ba200dfb3deaaff79932a5b0" target="_top" xlink:title=" ">
<polygon fill="none" stroke="black" points="183.5,-641.88 183.5,-660.88 249.5,-660.88 249.5,-641.88 183.5,-641.88"/>
<text text-anchor="middle" x="216.5" y="-648.88" font-family="Helvetica,sans-Serif" font-size="10.00">has_suffix</text>
</a>
</g>
</g>
<!-- Node1&#45;&gt;Node2 -->
<g id="edge1" class="edge">
<title>Node1&#45;&gt;Node2</title>
<path fill="none" stroke="midnightblue" d="M56.99,-528.1C67.76,-550.3 97.3,-604.91 139,-632.38 149.16,-639.08 161.5,-643.41 173.27,-646.22"/>
<polygon fill="midnightblue" stroke="midnightblue" points="172.9,-649.72 183.4,-648.32 174.32,-642.87 172.9,-649.72"/>
</g>
<!-- Node3 -->
<g id="node3" class="node">
<title>Node3</title>
<g id="a_node3"><a xlink:href="quickjs_8c.html#a8f9200abd5af97fd0411fe053cb021e0" target="_top" xlink:title=" ">
<polygon fill="none" stroke="black" points="190.5,-603.88 190.5,-622.88 242.5,-622.88 242.5,-603.88 190.5,-603.88"/>
<text text-anchor="middle" x="216.5" y="-610.88" font-family="Helvetica,sans-Serif" font-size="10.00">JS_Eval</text>
</a>
</g>
</g>
<!-- Node1&#45;&gt;Node3 -->
<g id="edge2" class="edge">
<title>Node1&#45;&gt;Node3</title>
<path fill="none" stroke="midnightblue" d="M60.52,-527.93C74.66,-544.14 105.7,-576.95 139,-594.38 151.75,-601.06 166.94,-605.45 180.41,-608.32"/>
<polygon fill="midnightblue" stroke="midnightblue" points="179.83,-611.77 190.31,-610.22 181.15,-604.9 179.83,-611.77"/>
</g>
<!-- Node6 -->
<g id="node6" class="node">
<title>Node6</title>
<g id="a_node6"><a xlink:href="quickjs_8c.html#a80e54dcf9ac687d4ccc2f90273565f30" target="_top" xlink:title=" ">
<polygon fill="none" stroke="black" points="377,-565.88 377,-584.88 427,-584.88 427,-565.88 377,-565.88"/>
<text text-anchor="middle" x="402" y="-572.88" font-family="Helvetica,sans-Serif" font-size="10.00">js_free</text>
</a>
</g>
</g>
<!-- Node1&#45;&gt;Node6 -->
<g id="edge5" class="edge">
<title>Node1&#45;&gt;Node6</title>
<path fill="none" stroke="midnightblue" d="M103.43,-526.1C152.34,-533.58 228.28,-545.38 294,-556.38 318.36,-560.46 345.78,-565.33 366.76,-569.12"/>
<polygon fill="midnightblue" stroke="midnightblue" points="366.34,-572.6 376.8,-570.94 367.59,-565.72 366.34,-572.6"/>
</g>
<!-- Node8 -->
<g id="node8" class="node">
<title>Node8</title>
<g id="a_node8"><a xlink:href="quickjs_8h.html#afaa20c47565bc704c6c85f3d77254e7d" target="_top" xlink:title=" ">
<polygon fill="none" stroke="black" points="677,-394.88 677,-413.88 756,-413.88 756,-394.88 677,-394.88"/>
<text text-anchor="middle" x="716.5" y="-401.88" font-family="Helvetica,sans-Serif" font-size="10.00">JS_FreeValue</text>
</a>
</g>
</g>
<!-- Node1&#45;&gt;Node8 -->
<g id="edge7" class="edge">
<title>Node1&#45;&gt;Node8</title>
<path fill="none" stroke="midnightblue" d="M52.13,-508.68C50.94,-464.04 51.49,-275.74 139,-163.38 198,-87.62 238.14,-90.37 330,-62.38 462.47,-22.01 533.64,44.09 641,-43.38 694.7,-87.13 710.85,-315.03 714.56,-384.35"/>
<polygon fill="midnightblue" stroke="midnightblue" points="711.08,-384.91 715.08,-394.73 718.08,-384.56 711.08,-384.91"/>
</g>
<!-- Node44 -->
<g id="node11" class="node">
<title>Node44</title>
<g id="a_node11"><a xlink:href="quickjs_8h.html#ad80a83d73e9b7d872b88fbf2943aebe9" target="_top" xlink:title=" ">
<polygon fill="none" stroke="black" points="532,-166.88 532,-185.88 619,-185.88 619,-166.88 532,-166.88"/>
<text text-anchor="middle" x="575.5" y="-173.88" font-family="Helvetica,sans-Serif" font-size="10.00">JS_IsException</text>
</a>
</g>
</g>
<!-- Node1&#45;&gt;Node44 -->
<g id="edge11" class="edge">
<title>Node1&#45;&gt;Node44</title>
<path fill="none" stroke="midnightblue" d="M55.44,-508.59C64.53,-479.28 94.32,-390.45 139,-328.38 206.79,-234.21 222.03,-192.89 330,-150.38 401.38,-122.28 493.04,-146.44 541.32,-163.34"/>
<polygon fill="midnightblue" stroke="midnightblue" points="540.35,-166.71 550.95,-166.82 542.73,-160.13 540.35,-166.71"/>
</g>
<!-- Node45 -->
<g id="node12" class="node">
<title>Node45</title>
<g id="a_node12"><a xlink:href="quickjs-libc_8c.html#a529207225a77f71253f17893e1e6dffb" target="_top" xlink:title=" ">
<polygon fill="none" stroke="black" points="181,-489.88 181,-508.88 252,-508.88 252,-489.88 181,-489.88"/>
<text text-anchor="middle" x="216.5" y="-496.88" font-family="Helvetica,sans-Serif" font-size="10.00">js_load_file</text>
</a>
</g>
</g>
<!-- Node1&#45;&gt;Node45 -->
<g id="edge12" class="edge">
<title>Node1&#45;&gt;Node45</title>
<path fill="none" stroke="midnightblue" d="M103.18,-512.47C124.77,-509.96 149.74,-507.05 170.64,-504.61"/>
<polygon fill="midnightblue" stroke="midnightblue" points="171.33,-508.05 180.85,-503.42 170.52,-501.1 171.33,-508.05"/>
</g>
<!-- Node46 -->
<g id="node13" class="node">
<title>Node46</title>
<g id="a_node13"><a xlink:href="quickjs-libc_8c.html#a403f4287b78b0e8e88e39e1d9cffa463" target="_top" xlink:title=" ">
<polygon fill="none" stroke="black" points="157,-565.88 157,-584.88 276,-584.88 276,-565.88 157,-565.88"/>
<text text-anchor="middle" x="216.5" y="-572.88" font-family="Helvetica,sans-Serif" font-size="10.00">js_module_loader_so</text>
</a>
</g>
</g>
<!-- Node1&#45;&gt;Node46 -->
<g id="edge14" class="edge">
<title>Node1&#45;&gt;Node46</title>
<path fill="none" stroke="midnightblue" d="M76.59,-528.02C93.87,-534.82 117.74,-544 139,-551.38 150.19,-555.27 162.39,-559.22 173.69,-562.77"/>
<polygon fill="midnightblue" stroke="midnightblue" points="172.76,-566.14 183.35,-565.77 174.84,-559.46 172.76,-566.14"/>
</g>
<!-- Node47 -->
<g id="node14" class="node">
<title>Node47</title>
<g id="a_node14"><a xlink:href="quickjs-libc_8c.html#a5cc3e22713f1916d49867f60a7375505" target="_top" xlink:title=" ">
<polygon fill="none" stroke="black" points="139,-337.88 139,-356.88 294,-356.88 294,-337.88 139,-337.88"/>
<text text-anchor="middle" x="216.5" y="-344.88" font-family="Helvetica,sans-Serif" font-size="10.00">js_module_set_import_meta</text>
</a>
</g>
</g>
<!-- Node1&#45;&gt;Node47 -->
<g id="edge16" class="edge">
<title>Node1&#45;&gt;Node47</title>
<path fill="none" stroke="midnightblue" d="M61.73,-508.7C88.29,-480.83 165.17,-400.18 199.09,-364.6"/>
<polygon fill="midnightblue" stroke="midnightblue" points="202,-366.61 206.37,-356.96 196.94,-361.78 202,-366.61"/>
</g>
<!-- Node4 -->
<g id="node4" class="node">
<title>Node4</title>
<g id="a_node4"><a xlink:href="quickjs_8c.html#a99d6f8b4fcb9989546e5fb13d65aaf55" target="_top" xlink:title=" ">
<polygon fill="none" stroke="black" points="366,-603.88 366,-622.88 438,-622.88 438,-603.88 366,-603.88"/>
<text text-anchor="middle" x="402" y="-610.88" font-family="Helvetica,sans-Serif" font-size="10.00">JS_EvalThis</text>
</a>
</g>
</g>
<!-- Node3&#45;&gt;Node4 -->
<g id="edge3" class="edge">
<title>Node3&#45;&gt;Node4</title>
<path fill="none" stroke="midnightblue" d="M242.63,-613.38C271.66,-613.38 320.01,-613.38 355.66,-613.38"/>
<polygon fill="midnightblue" stroke="midnightblue" points="355.82,-616.88 365.82,-613.38 355.82,-609.88 355.82,-616.88"/>
</g>
<!-- Node5 -->
<g id="node5" class="node">
<title>Node5</title>
<g id="a_node5"><a xlink:href="quickjs_8c.html#a0800e3e7b9763c0dddb2f3f85df25635" target="_top" xlink:title=" ">
<polygon fill="none" stroke="black" points="531,-603.88 531,-622.88 620,-622.88 620,-603.88 531,-603.88"/>
<text text-anchor="middle" x="575.5" y="-610.88" font-family="Helvetica,sans-Serif" font-size="10.00">JS_EvalInternal</text>
</a>
</g>
</g>
<!-- Node4&#45;&gt;Node5 -->
<g id="edge4" class="edge">
<title>Node4&#45;&gt;Node5</title>
<path fill="none" stroke="midnightblue" d="M438.12,-613.38C461.93,-613.38 493.85,-613.38 520.83,-613.38"/>
<polygon fill="midnightblue" stroke="midnightblue" points="520.9,-616.88 530.9,-613.38 520.9,-609.88 520.9,-616.88"/>
</g>
<!-- Node7 -->
<g id="node7" class="node">
<title>Node7</title>
<g id="a_node7"><a xlink:href="quickjs_8c.html#a69e19dda8a93d613203e0baa06f0ed8d" target="_top" xlink:title=" ">
<polygon fill="none" stroke="black" points="1054,-508.88 1054,-527.88 1116,-527.88 1116,-508.88 1054,-508.88"/>
<text text-anchor="middle" x="1085" y="-515.88" font-family="Helvetica,sans-Serif" font-size="10.00">js_free_rt</text>
</a>
</g>
</g>
<!-- Node6&#45;&gt;Node7 -->
<g id="edge6" class="edge">
<title>Node6&#45;&gt;Node7</title>
<path fill="none" stroke="midnightblue" d="M427.31,-575.38C479.89,-575.38 608.08,-575.38 715.5,-575.38 715.5,-575.38 715.5,-575.38 837.5,-575.38 915.05,-575.38 1002.87,-548.27 1049.91,-531.44"/>
<polygon fill="midnightblue" stroke="midnightblue" points="1051.39,-534.63 1059.59,-527.92 1049,-528.05 1051.39,-534.63"/>
</g>
<!-- Node9 -->
<g id="node9" class="node">
<title>Node9</title>
<g id="a_node9"><a xlink:href="quickjs_8c.html#aa059f309c30fd5166d16c82a97973146" target="_top" xlink:title=" ">
<polygon fill="none" stroke="black" points="792,-413.88 792,-432.88 881,-432.88 881,-413.88 792,-413.88"/>
<text text-anchor="middle" x="836.5" y="-420.88" font-family="Helvetica,sans-Serif" font-size="10.00">__JS_FreeValue</text>
</a>
</g>
</g>
<!-- Node8&#45;&gt;Node9 -->
<g id="edge8" class="edge">
<title>Node8&#45;&gt;Node9</title>
<path fill="none" stroke="midnightblue" d="M756.14,-410.6C764.35,-411.92 773.16,-413.34 781.82,-414.74"/>
<polygon fill="midnightblue" stroke="midnightblue" points="781.44,-418.22 791.87,-416.36 782.55,-411.31 781.44,-418.22"/>
</g>
<!-- Node10 -->
<g id="node10" class="node">
<title>Node10</title>
<g id="a_node10"><a xlink:href="quickjs_8c.html#ab1ea3fad7d138be12144a38be4d36423" target="_top" xlink:title=" ">
<polygon fill="none" stroke="red" points="917,-489.88 917,-508.88 1018,-508.88 1018,-489.88 917,-489.88"/>
<text text-anchor="middle" x="967.5" y="-496.88" font-family="Helvetica,sans-Serif" font-size="10.00">__JS_FreeValueRT</text>
</a>
</g>
</g>
<!-- Node9&#45;&gt;Node10 -->
<g id="edge9" class="edge">
<title>Node9&#45;&gt;Node10</title>
<path fill="none" stroke="midnightblue" d="M853.84,-433.01C875.94,-446.03 915.56,-469.37 941.44,-484.62"/>
<polygon fill="midnightblue" stroke="midnightblue" points="939.9,-487.77 950.29,-489.83 943.46,-481.74 939.9,-487.77"/>
</g>
<!-- Node10&#45;&gt;Node7 -->
<g id="edge10" class="edge">
<title>Node10&#45;&gt;Node7</title>
<path fill="none" stroke="midnightblue" d="M1018.15,-507.55C1026.66,-508.95 1035.42,-510.39 1043.65,-511.74"/>
<polygon fill="midnightblue" stroke="midnightblue" points="1043.3,-515.23 1053.74,-513.4 1044.44,-508.33 1043.3,-515.23"/>
</g>
<!-- Node45&#45;&gt;Node6 -->
<g id="edge13" class="edge">
<title>Node45&#45;&gt;Node6</title>
<path fill="none" stroke="midnightblue" d="M252.05,-507.39C265.57,-511.24 280.93,-516.53 294,-523.38 311.96,-532.79 312.15,-541.78 330,-551.38 341.55,-557.59 355.01,-562.63 367.08,-566.46"/>
<polygon fill="midnightblue" stroke="midnightblue" points="366.25,-569.86 376.83,-569.39 368.26,-563.16 366.25,-569.86"/>
</g>
<!-- Node46&#45;&gt;Node6 -->
<g id="edge15" class="edge">
<title>Node46&#45;&gt;Node6</title>
<path fill="none" stroke="midnightblue" d="M276.07,-575.38C305.8,-575.38 340.91,-575.38 366.33,-575.38"/>
<polygon fill="midnightblue" stroke="midnightblue" points="366.58,-578.88 376.58,-575.38 366.58,-571.88 366.58,-578.88"/>
</g>
<!-- Node47&#45;&gt;Node8 -->
<g id="edge30" class="edge">
<title>Node47&#45;&gt;Node8</title>
<path fill="none" stroke="midnightblue" d="M231.22,-357.05C251.62,-370.76 291.67,-395.22 330,-404.38 330.25,-404.44 562.87,-404.41 666.59,-404.39"/>
<polygon fill="midnightblue" stroke="midnightblue" points="666.8,-407.89 676.8,-404.39 666.8,-400.89 666.8,-407.89"/>
</g>
<!-- Node47&#45;&gt;Node44 -->
<g id="edge35" class="edge">
<title>Node47&#45;&gt;Node44</title>
<path fill="none" stroke="midnightblue" d="M220.32,-337.57C229.74,-306.83 263.37,-212.3 330,-176.38 393.05,-142.39 479.22,-153.21 530.63,-164.54"/>
<polygon fill="midnightblue" stroke="midnightblue" points="529.9,-167.96 540.43,-166.79 531.47,-161.14 529.9,-167.96"/>
</g>
<!-- Node48 -->
<g id="node15" class="node">
<title>Node48</title>
<g id="a_node15"><a xlink:href="quickjs_8c.html#a4b66ebf3abee5d29490343fbe360ec5a" target="_top" xlink:title=" ">
<polygon fill="none" stroke="black" points="350.5,-71.88 350.5,-90.88 453.5,-90.88 453.5,-71.88 350.5,-71.88"/>
<text text-anchor="middle" x="402" y="-78.88" font-family="Helvetica,sans-Serif" font-size="10.00">JS_AtomToCString</text>
</a>
</g>
</g>
<!-- Node47&#45;&gt;Node48 -->
<g id="edge17" class="edge">
<title>Node47&#45;&gt;Node48</title>
<path fill="none" stroke="midnightblue" d="M221.38,-337.72C233.96,-307.14 275.93,-210.45 330,-143.38 344.34,-125.6 364.15,-108.77 379.21,-97.15"/>
<polygon fill="midnightblue" stroke="midnightblue" points="381.56,-99.75 387.44,-90.94 377.35,-94.16 381.56,-99.75"/>
</g>
<!-- Node442 -->
<g id="node18" class="node">
<title>Node442</title>
<g id="a_node18"><a xlink:href="quickjs_8c.html#a841f4cb887e4d9e03e94a0697255e578" target="_top" xlink:title=" ">
<polygon fill="none" stroke="black" points="330,-451.88 330,-470.88 474,-470.88 474,-451.88 330,-451.88"/>
<text text-anchor="middle" x="402" y="-458.88" font-family="Helvetica,sans-Serif" font-size="10.00">JS_DefinePropertyValueStr</text>
</a>
</g>
</g>
<!-- Node47&#45;&gt;Node442 -->
<g id="edge22" class="edge">
<title>Node47&#45;&gt;Node442</title>
<path fill="none" stroke="midnightblue" d="M227.18,-357.12C245.65,-375.24 287.86,-414.34 330,-437.38 337.88,-441.69 346.67,-445.42 355.31,-448.57"/>
<polygon fill="midnightblue" stroke="midnightblue" points="354.35,-451.94 364.94,-451.88 356.63,-445.32 354.35,-451.94"/>
</g>
<!-- Node28 -->
<g id="node20" class="node">
<title>Node28</title>
<g id="a_node20"><a xlink:href="quickjs_8c.html#ab7fc45a99935a1c0ba50b0216d9401a9" target="_top" xlink:title=" ">
<polygon fill="none" stroke="red" points="536.5,-489.88 536.5,-508.88 614.5,-508.88 614.5,-489.88 536.5,-489.88"/>
<text text-anchor="middle" x="575.5" y="-496.88" font-family="Helvetica,sans-Serif" font-size="10.00">JS_FreeAtom</text>
</a>
</g>
</g>
<!-- Node47&#45;&gt;Node28 -->
<g id="edge27" class="edge">
<title>Node47&#45;&gt;Node28</title>
<path fill="none" stroke="midnightblue" d="M222.16,-357C235.11,-382.5 274.27,-451.85 330,-480.38 392.05,-512.14 474.73,-511.05 526.28,-506.14"/>
<polygon fill="midnightblue" stroke="midnightblue" points="526.89,-509.59 536.48,-505.08 526.17,-502.63 526.89,-509.59"/>
</g>
<!-- Node131 -->
<g id="node22" class="node">
<title>Node131</title>
<g id="a_node22"><a xlink:href="quickjs_8c.html#ae0bc4f65da64810facb2cb9e476eda2e" target="_top" xlink:title=" ">
<polygon fill="none" stroke="black" points="532,-527.88 532,-546.88 619,-546.88 619,-527.88 532,-527.88"/>
<text text-anchor="middle" x="575.5" y="-534.88" font-family="Helvetica,sans-Serif" font-size="10.00">JS_FreeCString</text>
</a>
</g>
</g>
<!-- Node47&#45;&gt;Node131 -->
<g id="edge28" class="edge">
<title>Node47&#45;&gt;Node131</title>
<path fill="none" stroke="midnightblue" d="M220.98,-357.13C231.87,-386.01 268.27,-471.42 330,-508.38 388.62,-543.48 469.36,-546.05 521.74,-543.04"/>
<polygon fill="midnightblue" stroke="midnightblue" points="522.08,-546.52 531.82,-542.37 521.61,-539.54 522.08,-546.52"/>
</g>
<!-- Node412 -->
<g id="node23" class="node">
<title>Node412</title>
<g id="a_node23"><a xlink:href="quickjs_8c.html#a44504e6de8f6e13870e695d360d9cd3e" target="_top" xlink:title=" ">
<polygon fill="none" stroke="red" points="349.5,-185.88 349.5,-204.88 454.5,-204.88 454.5,-185.88 349.5,-185.88"/>
<text text-anchor="middle" x="402" y="-192.88" font-family="Helvetica,sans-Serif" font-size="10.00">JS_GetImportMeta</text>
</a>
</g>
</g>
<!-- Node47&#45;&gt;Node412 -->
<g id="edge31" class="edge">
<title>Node47&#45;&gt;Node412</title>
<path fill="none" stroke="midnightblue" d="M222.88,-337.6C237,-312.9 277.64,-247.58 330,-214.38 333.36,-212.25 336.95,-210.36 340.67,-208.68"/>
<polygon fill="midnightblue" stroke="midnightblue" points="342.13,-211.86 350.13,-204.91 339.54,-205.36 342.13,-211.86"/>
</g>
<!-- Node443 -->
<g id="node24" class="node">
<title>Node443</title>
<g id="a_node24"><a xlink:href="quickjs_8c.html#a59db307289b1a0f8c16278c121fc43c1" target="_top" xlink:title=" ">
<polygon fill="none" stroke="black" points="345.5,-375.88 345.5,-394.88 458.5,-394.88 458.5,-375.88 345.5,-375.88"/>
<text text-anchor="middle" x="402" y="-382.88" font-family="Helvetica,sans-Serif" font-size="10.00">JS_GetModuleName</text>
</a>
</g>
</g>
<!-- Node47&#45;&gt;Node443 -->
<g id="edge33" class="edge">
<title>Node47&#45;&gt;Node443</title>
<path fill="none" stroke="midnightblue" d="M263.8,-356.97C288.46,-362.07 318.96,-368.39 344.94,-373.77"/>
<polygon fill="midnightblue" stroke="midnightblue" points="344.53,-377.26 355.03,-375.86 345.95,-370.41 344.53,-377.26"/>
</g>
<!-- Node393 -->
<g id="node26" class="node">
<title>Node393</title>
<g id="a_node26"><a xlink:href="quickjs_8h.html#a93abffa925714e249a6aa2f4ae7900f6" target="_top" xlink:title=" ">
<polygon fill="none" stroke="black" points="365,-299.88 365,-318.88 439,-318.88 439,-299.88 365,-299.88"/>
<text text-anchor="middle" x="402" y="-306.88" font-family="Helvetica,sans-Serif" font-size="10.00">JS_NewBool</text>
</a>
</g>
</g>
<!-- Node47&#45;&gt;Node393 -->
<g id="edge36" class="edge">
<title>Node47&#45;&gt;Node393</title>
<path fill="none" stroke="midnightblue" d="M263.8,-337.79C291.7,-332.02 327.09,-324.69 354.94,-318.92"/>
<polygon fill="midnightblue" stroke="midnightblue" points="355.75,-322.33 364.84,-316.87 354.33,-315.47 355.75,-322.33"/>
</g>
<!-- Node54 -->
<g id="node27" class="node">
<title>Node54</title>
<g id="a_node27"><a xlink:href="quickjs_8c.html#a0ee6a3654a6016393fac5e1c108f403a" target="_top" xlink:title=" ">
<polygon fill="none" stroke="red" points="361.5,-261.88 361.5,-280.88 442.5,-280.88 442.5,-261.88 361.5,-261.88"/>
<text text-anchor="middle" x="402" y="-268.88" font-family="Helvetica,sans-Serif" font-size="10.00">JS_NewString</text>
</a>
</g>
</g>
<!-- Node47&#45;&gt;Node54 -->
<g id="edge37" class="edge">
<title>Node47&#45;&gt;Node54</title>
<path fill="none" stroke="midnightblue" d="M233.78,-337.77C255.23,-325.43 294.42,-303.99 330,-290.38 336.88,-287.75 344.27,-285.34 351.59,-283.18"/>
<polygon fill="midnightblue" stroke="midnightblue" points="352.8,-286.48 361.47,-280.4 350.9,-279.74 352.8,-286.48"/>
</g>
<!-- Node444 -->
<g id="node28" class="node">
<title>Node444</title>
<g id="a_node28"><a xlink:href="cutils_8h.html#a2f9f8437694c53829c7d6b5f3d02ae85" target="_top" xlink:title=" ">
<polygon fill="none" stroke="black" points="377,-223.88 377,-242.88 427,-242.88 427,-223.88 377,-223.88"/>
<text text-anchor="middle" x="402" y="-230.88" font-family="Helvetica,sans-Serif" font-size="10.00">pstrcat</text>
</a>
</g>
</g>
<!-- Node47&#45;&gt;Node444 -->
<g id="edge38" class="edge">
<title>Node47&#45;&gt;Node444</title>
<path fill="none" stroke="midnightblue" d="M226.09,-337.7C243.67,-318.5 285.82,-275.46 330,-252.38 341.4,-246.43 354.83,-242.22 366.92,-239.3"/>
<polygon fill="midnightblue" stroke="midnightblue" points="367.68,-242.72 376.69,-237.14 366.17,-235.88 367.68,-242.72"/>
</g>
<!-- Node445 -->
<g id="node29" class="node">
<title>Node445</title>
<g id="a_node29"><a xlink:href="cutils_8h.html#adbfc0638ae78ec4076886d7cbc03d0e4" target="_top" xlink:title=" ">
<polygon fill="none" stroke="black" points="549,-261.88 549,-280.88 602,-280.88 602,-261.88 549,-261.88"/>
<text text-anchor="middle" x="575.5" y="-268.88" font-family="Helvetica,sans-Serif" font-size="10.00">pstrcpy</text>
</a>
</g>
</g>
<!-- Node47&#45;&gt;Node445 -->
<g id="edge40" class="edge">
<title>Node47&#45;&gt;Node445</title>
<path fill="none" stroke="midnightblue" d="M294.02,-350.41C345.87,-350.37 415.36,-346.2 474,-328.38 503.66,-319.37 534.13,-300.47 553.63,-286.9"/>
<polygon fill="midnightblue" stroke="midnightblue" points="555.91,-289.57 562.02,-280.92 551.84,-283.87 555.91,-289.57"/>
</g>
<!-- Node48&#45;&gt;Node8 -->
<g id="edge19" class="edge">
<title>Node48&#45;&gt;Node8</title>
<path fill="none" stroke="midnightblue" d="M432.12,-90.9C445,-95.19 460.3,-100.41 474,-105.38 490.14,-111.24 493.74,-113.87 510,-119.38 567.42,-138.83 597.91,-114.74 641,-157.38 705.28,-220.98 714.51,-337.89 715.54,-384.47"/>
<polygon fill="midnightblue" stroke="midnightblue" points="712.04,-384.76 715.65,-394.72 719.04,-384.68 712.04,-384.76"/>
</g>
<!-- Node48&#45;&gt;Node44 -->
<g id="edge20" class="edge">
<title>Node48&#45;&gt;Node44</title>
<path fill="none" stroke="midnightblue" d="M444.79,-90.96C454.92,-94.47 465.33,-99.17 474,-105.38 495.39,-120.7 488.84,-136.74 510,-152.38 515.55,-156.49 521.88,-159.96 528.36,-162.88"/>
<polygon fill="midnightblue" stroke="midnightblue" points="527.3,-166.23 537.88,-166.77 529.94,-159.75 527.3,-166.23"/>
</g>
<!-- Node49 -->
<g id="node16" class="node">
<title>Node49</title>
<g id="a_node16"><a xlink:href="quickjs_8c.html#a260bfa297ff6cb5bd18e229afaa54663" target="_top" xlink:title=" ">
<polygon fill="none" stroke="red" points="527.5,-52.88 527.5,-71.88 623.5,-71.88 623.5,-52.88 527.5,-52.88"/>
<text text-anchor="middle" x="575.5" y="-59.88" font-family="Helvetica,sans-Serif" font-size="10.00">JS_AtomToString</text>
</a>
</g>
</g>
<!-- Node48&#45;&gt;Node49 -->
<g id="edge18" class="edge">
<title>Node48&#45;&gt;Node49</title>
<path fill="none" stroke="midnightblue" d="M453.53,-75.78C473.48,-73.57 496.5,-71.02 517.08,-68.74"/>
<polygon fill="midnightblue" stroke="midnightblue" points="517.71,-72.19 527.27,-67.61 516.94,-65.24 517.71,-72.19"/>
</g>
<!-- Node75 -->
<g id="node17" class="node">
<title>Node75</title>
<g id="a_node17"><a xlink:href="quickjs_8h.html#af931f06630ab719b5f82a16eb27effd1" target="_top" xlink:title=" ">
<polygon fill="none" stroke="red" points="537,-90.88 537,-109.88 614,-109.88 614,-90.88 537,-90.88"/>
<text text-anchor="middle" x="575.5" y="-97.88" font-family="Helvetica,sans-Serif" font-size="10.00">JS_ToCString</text>
</a>
</g>
</g>
<!-- Node48&#45;&gt;Node75 -->
<g id="edge21" class="edge">
<title>Node48&#45;&gt;Node75</title>
<path fill="none" stroke="midnightblue" d="M453.53,-86.98C476.66,-89.54 503.94,-92.56 526.73,-95.09"/>
<polygon fill="midnightblue" stroke="midnightblue" points="526.53,-98.59 536.85,-96.21 527.3,-91.63 526.53,-98.59"/>
</g>
<!-- Node182 -->
<g id="node19" class="node">
<title>Node182</title>
<g id="a_node19"><a xlink:href="quickjs_8c.html#a0a8765bd4012467d9139bc24aabcb3ca" target="_top" xlink:title=" ">
<polygon fill="none" stroke="red" points="510,-413.88 510,-432.88 641,-432.88 641,-413.88 510,-413.88"/>
<text text-anchor="middle" x="575.5" y="-420.88" font-family="Helvetica,sans-Serif" font-size="10.00">JS_DefinePropertyValue</text>
</a>
</g>
</g>
<!-- Node442&#45;&gt;Node182 -->
<g id="edge23" class="edge">
<title>Node442&#45;&gt;Node182</title>
<path fill="none" stroke="midnightblue" d="M446.28,-451.79C469.11,-446.73 497.32,-440.48 521.46,-435.13"/>
<polygon fill="midnightblue" stroke="midnightblue" points="522.53,-438.48 531.53,-432.9 521.01,-431.65 522.53,-438.48"/>
</g>
<!-- Node442&#45;&gt;Node28 -->
<g id="edge25" class="edge">
<title>Node442&#45;&gt;Node28</title>
<path fill="none" stroke="midnightblue" d="M446.28,-470.97C470.7,-476.38 501.26,-483.15 526.43,-488.73"/>
<polygon fill="midnightblue" stroke="midnightblue" points="525.97,-492.21 536.49,-490.96 527.49,-485.38 525.97,-492.21"/>
</g>
<!-- Node374 -->
<g id="node21" class="node">
<title>Node374</title>
<g id="a_node21"><a xlink:href="quickjs_8c.html#aa2ef5af1544a3012f91a80c98c326b8f" target="_top" xlink:title=" ">
<polygon fill="none" stroke="red" points="536,-451.88 536,-470.88 615,-470.88 615,-451.88 536,-451.88"/>
<text text-anchor="middle" x="575.5" y="-458.88" font-family="Helvetica,sans-Serif" font-size="10.00">JS_NewAtom</text>
</a>
</g>
</g>
<!-- Node442&#45;&gt;Node374 -->
<g id="edge26" class="edge">
<title>Node442&#45;&gt;Node374</title>
<path fill="none" stroke="midnightblue" d="M474.24,-461.38C491.45,-461.38 509.47,-461.38 525.41,-461.38"/>
<polygon fill="midnightblue" stroke="midnightblue" points="525.55,-464.88 535.55,-461.38 525.55,-457.88 525.55,-464.88"/>
</g>
<!-- Node182&#45;&gt;Node8 -->
<g id="edge24" class="edge">
<title>Node182&#45;&gt;Node8</title>
<path fill="none" stroke="midnightblue" d="M641.12,-414.55C649.69,-413.38 658.36,-412.19 666.61,-411.06"/>
<polygon fill="midnightblue" stroke="midnightblue" points="667.36,-414.49 676.79,-409.67 666.41,-407.56 667.36,-414.49"/>
</g>
<!-- Node131&#45;&gt;Node8 -->
<g id="edge29" class="edge">
<title>Node131&#45;&gt;Node8</title>
<path fill="none" stroke="midnightblue" d="M619.12,-529.47C626.87,-526.78 634.54,-523.19 641,-518.38 674.52,-493.46 697.26,-448.65 708.13,-423.26"/>
<polygon fill="midnightblue" stroke="midnightblue" points="711.38,-424.56 711.94,-413.98 704.9,-421.9 711.38,-424.56"/>
</g>
<!-- Node412&#45;&gt;Node44 -->
<g id="edge32" class="edge">
<title>Node412&#45;&gt;Node44</title>
<path fill="none" stroke="midnightblue" d="M454.92,-189.63C476.1,-187.28 500.56,-184.57 521.82,-182.22"/>
<polygon fill="midnightblue" stroke="midnightblue" points="522.42,-185.67 531.97,-181.09 521.65,-178.72 522.42,-185.67"/>
</g>
<!-- Node94 -->
<g id="node25" class="node">
<title>Node94</title>
<g id="a_node25"><a xlink:href="quickjs_8c.html#abbf44eaeace1104a6bef718fbf5700fe" target="_top" xlink:title=" ">
<polygon fill="none" stroke="red" points="537,-337.88 537,-356.88 614,-356.88 614,-337.88 537,-337.88"/>
<text text-anchor="middle" x="575.5" y="-344.88" font-family="Helvetica,sans-Serif" font-size="10.00">JS_DupAtom</text>
</a>
</g>
</g>
<!-- Node443&#45;&gt;Node94 -->
<g id="edge34" class="edge">
<title>Node443&#45;&gt;Node94</title>
<path fill="none" stroke="midnightblue" d="M446.28,-375.79C470.78,-370.36 501.48,-363.56 526.7,-357.97"/>
<polygon fill="midnightblue" stroke="midnightblue" points="527.77,-361.32 536.78,-355.74 526.26,-354.49 527.77,-361.32"/>
</g>
<!-- Node444&#45;&gt;Node445 -->
<g id="edge39" class="edge">
<title>Node444&#45;&gt;Node445</title>
<path fill="none" stroke="midnightblue" d="M427.21,-238.74C456.33,-245.2 505.46,-256.08 538.9,-263.49"/>
<polygon fill="midnightblue" stroke="midnightblue" points="538.21,-266.93 548.73,-265.67 539.73,-260.09 538.21,-266.93"/>
</g>
</g>
</svg>
        <g id="navigator" transform="translate(0 0)" fill="#404254">
                <rect fill="#f2f5e9" fill-opacity="0.5" stroke="#606060" stroke-width=".5" x="0" y="0" width="60" height="60"/>
                <use id="zoomplus" xlink:href="#zoomPlus" x="17" y="9" onmousedown="handleZoom(evt,'in')"/>
                <use id="zoomminus" xlink:href="#zoomMin" x="42" y="9" onmousedown="handleZoom(evt,'out')"/>
                <use id="reset" xlink:href="#resetDef" x="30" y="36" onmousedown="handleReset()"/>
                <g id="arrowUp" xlink:href="#dirArrow" transform="translate(30 24)" onmousedown="handlePan(0,-1)">
                  <use xlink:href="#rim" fill="#404040">
                        <set attributeName="fill" to="#808080" begin="arrowUp.mouseover" end="arrowUp.mouseout"/>
                  </use>
                  <path fill="none" stroke="white" stroke-width="1.5" d="M0,-3.0v7 M-2.5,-0.5L0,-3.0L2.5,-0.5"/>
                </g>
                <g id="arrowRight" xlink:href="#dirArrow" transform="rotate(90) translate(36 -43)" onmousedown="handlePan(1,0)">
                  <use xlink:href="#rim" fill="#404040">
                        <set attributeName="fill" to="#808080" begin="arrowRight.mouseover" end="arrowRight.mouseout"/>
                  </use>
                  <path fill="none" stroke="white" stroke-width="1.5" d="M0,-3.0v7 M-2.5,-0.5L0,-3.0L2.5,-0.5"/>
                </g>
                <g id="arrowDown" xlink:href="#dirArrow" transform="rotate(180) translate(-30 -48)" onmousedown="handlePan(0,1)">
                  <use xlink:href="#rim" fill="#404040">
                        <set attributeName="fill" to="#808080" begin="arrowDown.mouseover" end="arrowDown.mouseout"/>
                  </use>
                  <path fill="none" stroke="white" stroke-width="1.5" d="M0,-3.0v7 M-2.5,-0.5L0,-3.0L2.5,-0.5"/>
                </g>
                <g id="arrowLeft" xlink:href="#dirArrow" transform="rotate(270) translate(-36 17)" onmousedown="handlePan(-1,0)">
                  <use xlink:href="#rim" fill="#404040">
                        <set attributeName="fill" to="#808080" begin="arrowLeft.mouseover" end="arrowLeft.mouseout"/>
                  </use>
                  <path fill="none" stroke="white" stroke-width="1.5" d="M0,-3.0v7 M-2.5,-0.5L0,-3.0L2.5,-0.5"/>
                </g>
        </g>
        <svg viewBox="0 0 15 15" width="100%" height="30px" preserveAspectRatio="xMaxYMin meet">
         <g id="arrow_out" transform="scale(0.3 0.3)">
          <a xlink:href="quickjs-libc_8c_ad61d60681847f324c5ba4ad88c546f1e_cgraph_org.svg" target="_base">
           <rect id="button" ry="5" rx="5" y="6" x="6" height="38" width="38"
                fill="#f2f5e9" fill-opacity="0.5" stroke="#606060" stroke-width="1.0"/>
           <path id="arrow"
             d="M 11.500037,31.436501 C 11.940474,20.09759 22.043105,11.32322 32.158766,21.979434 L 37.068811,17.246167 C 37.068811,17.246167 37.088388,32 37.088388,32 L 22.160133,31.978069 C 22.160133,31.978069 26.997745,27.140456 26.997745,27.140456 C 18.528582,18.264221 13.291696,25.230495 11.500037,31.436501 z"
             style="fill:#404040;"/>
          </a>
         </g>
        </svg>
</svg>
