<?xml version="1.0" encoding="UTF-8" standalone="no"?>
<!DOCTYPE svg PUBLIC "-//W3C//DTD SVG 1.1//EN"
 "http://www.w3.org/Graphics/SVG/1.1/DTD/svg11.dtd">
<!-- Generated by graphviz version 2.43.0 (0)
 -->
<!-- Title: JS_ReadString Pages: 1 -->
<svg width="570pt" height="313pt"
 viewBox="0.00 0.00 570.00 313.00" xmlns="http://www.w3.org/2000/svg" xmlns:xlink="http://www.w3.org/1999/xlink">
<g id="graph0" class="graph" transform="scale(1 1) rotate(0) translate(4 309)">
<title>JS_ReadString</title>
<!-- Node1 -->
<g id="node1" class="node">
<title>Node1</title>
<g id="a_node1"><a xlink:title=" ">
<polygon fill="#bfbfbf" stroke="black" points="478,-152.5 478,-171.5 562,-171.5 562,-152.5 478,-152.5"/>
<text text-anchor="middle" x="520" y="-159.5" font-family="Helvetica,sans-Serif" font-size="10.00">JS_ReadString</text>
</a>
</g>
</g>
<!-- Node2 -->
<g id="node2" class="node">
<title>Node2</title>
<g id="a_node2"><a xlink:href="quickjs_8c.html#ad54b242d774ba44b2ac39fe8161aaf9c" target="_top" xlink:title=" ">
<polygon fill="none" stroke="black" points="323,-218.5 323,-237.5 442,-237.5 442,-218.5 323,-218.5"/>
<text text-anchor="middle" x="382.5" y="-225.5" font-family="Helvetica,sans-Serif" font-size="10.00">JS_ReadObjectAtoms</text>
</a>
</g>
</g>
<!-- Node1&#45;&gt;Node2 -->
<g id="edge1" class="edge">
<title>Node1&#45;&gt;Node2</title>
<path fill="none" stroke="midnightblue" d="M490.24,-176.01C464.06,-188.76 426.12,-207.24 403.23,-218.39"/>
<polygon fill="midnightblue" stroke="midnightblue" points="491.84,-179.12 499.3,-171.6 488.77,-172.83 491.84,-179.12"/>
</g>
<!-- Node6 -->
<g id="node6" class="node">
<title>Node6</title>
<g id="a_node6"><a xlink:href="quickjs_8c.html#a4b8ef2bb3b35e4a5f6ed8bd837a50e7c" target="_top" xlink:title=" ">
<polygon fill="none" stroke="black" points="330,-133.5 330,-152.5 435,-152.5 435,-133.5 330,-133.5"/>
<text text-anchor="middle" x="382.5" y="-140.5" font-family="Helvetica,sans-Serif" font-size="10.00">JS_ReadObjectRec</text>
</a>
</g>
</g>
<!-- Node1&#45;&gt;Node6 -->
<g id="edge5" class="edge">
<title>Node1&#45;&gt;Node6</title>
<path fill="none" stroke="midnightblue" d="M467.99,-154.85C457.34,-153.35 446.11,-151.78 435.43,-150.28"/>
<polygon fill="midnightblue" stroke="midnightblue" points="467.59,-158.33 477.98,-156.25 468.56,-151.39 467.59,-158.33"/>
</g>
<!-- Node3 -->
<g id="node3" class="node">
<title>Node3</title>
<g id="a_node3"><a xlink:href="quickjs_8c.html#a12be2ea9c010752715072489497594e9" target="_top" xlink:title=" ">
<polygon fill="none" stroke="black" points="186.5,-266.5 186.5,-285.5 273.5,-285.5 273.5,-266.5 186.5,-266.5"/>
<text text-anchor="middle" x="230" y="-273.5" font-family="Helvetica,sans-Serif" font-size="10.00">JS_ReadObject</text>
</a>
</g>
</g>
<!-- Node2&#45;&gt;Node3 -->
<g id="edge2" class="edge">
<title>Node2&#45;&gt;Node3</title>
<path fill="none" stroke="midnightblue" d="M341.74,-240.68C316.44,-248.75 284.2,-259.03 261.04,-266.42"/>
<polygon fill="midnightblue" stroke="midnightblue" points="342.94,-243.97 351.41,-237.6 340.82,-237.3 342.94,-243.97"/>
</g>
<!-- Node4 -->
<g id="node4" class="node">
<title>Node4</title>
<g id="a_node4"><a xlink:href="quickjs-libc_8c.html#a9fa4c190ba56314c7ed9b00bbc7ad0f9" target="_top" xlink:title=" ">
<polygon fill="none" stroke="black" points="0,-285.5 0,-304.5 137,-304.5 137,-285.5 0,-285.5"/>
<text text-anchor="middle" x="68.5" y="-292.5" font-family="Helvetica,sans-Serif" font-size="10.00">handle_posted_message</text>
</a>
</g>
</g>
<!-- Node3&#45;&gt;Node4 -->
<g id="edge3" class="edge">
<title>Node3&#45;&gt;Node4</title>
<path fill="none" stroke="midnightblue" d="M176.03,-282.31C163.54,-283.8 150.06,-285.4 137.02,-286.96"/>
<polygon fill="midnightblue" stroke="midnightblue" points="176.74,-285.75 186.26,-281.09 175.91,-278.8 176.74,-285.75"/>
</g>
<!-- Node5 -->
<g id="node5" class="node">
<title>Node5</title>
<g id="a_node5"><a xlink:href="quickjs-libc_8c.html#ab1b439d304c2125490b47ef262b5df67" target="_top" xlink:title=" ">
<polygon fill="none" stroke="black" points="15,-247.5 15,-266.5 122,-266.5 122,-247.5 15,-247.5"/>
<text text-anchor="middle" x="68.5" y="-254.5" font-family="Helvetica,sans-Serif" font-size="10.00">js_std_eval_binary</text>
</a>
</g>
</g>
<!-- Node3&#45;&gt;Node5 -->
<g id="edge4" class="edge">
<title>Node3&#45;&gt;Node5</title>
<path fill="none" stroke="midnightblue" d="M176.25,-269.72C158.83,-267.64 139.46,-265.33 122.05,-263.26"/>
<polygon fill="midnightblue" stroke="midnightblue" points="175.91,-273.2 186.26,-270.91 176.74,-266.25 175.91,-273.2"/>
</g>
<!-- Node6&#45;&gt;Node3 -->
<g id="edge14" class="edge">
<title>Node6&#45;&gt;Node3</title>
<path fill="none" stroke="midnightblue" d="M365.73,-160.01C353.73,-173.14 336.95,-191.91 323,-209 306.14,-229.66 308.59,-241.35 287,-257 281.68,-260.86 275.52,-263.97 269.27,-266.48"/>
<polygon fill="midnightblue" stroke="midnightblue" points="368.33,-162.35 372.52,-152.62 363.18,-157.62 368.33,-162.35"/>
</g>
<!-- Node7 -->
<g id="node7" class="node">
<title>Node7</title>
<g id="a_node7"><a xlink:href="quickjs_8c.html#a18da561cb430d36d47200cd3ab394984" target="_top" xlink:title=" ">
<polygon fill="none" stroke="black" points="189,-228.5 189,-247.5 271,-247.5 271,-228.5 189,-228.5"/>
<text text-anchor="middle" x="230" y="-235.5" font-family="Helvetica,sans-Serif" font-size="10.00">JS_ReadArray</text>
</a>
</g>
</g>
<!-- Node6&#45;&gt;Node7 -->
<g id="edge6" class="edge">
<title>Node6&#45;&gt;Node7</title>
<path fill="none" stroke="midnightblue" d="M357.31,-158.97C339.17,-174 313.09,-195.67 287,-210 272.78,-217.81 254.78,-223.22 243.09,-228.33"/>
<polygon fill="midnightblue" stroke="midnightblue" points="359.57,-161.65 365.06,-152.59 355.11,-156.25 359.57,-161.65"/>
</g>
<!-- Node8 -->
<g id="node8" class="node">
<title>Node8</title>
<g id="a_node8"><a xlink:href="quickjs_8c.html#a8fce6f70a6fc880eabcdb9883e3753f2" target="_top" xlink:title=" ">
<polygon fill="none" stroke="black" points="190.5,-190.5 190.5,-209.5 269.5,-209.5 269.5,-190.5 190.5,-190.5"/>
<text text-anchor="middle" x="230" y="-197.5" font-family="Helvetica,sans-Serif" font-size="10.00">JS_ReadDate</text>
</a>
</g>
</g>
<!-- Node6&#45;&gt;Node8 -->
<g id="edge8" class="edge">
<title>Node6&#45;&gt;Node8</title>
<path fill="none" stroke="midnightblue" d="M328.36,-156.25C314.92,-161.36 300.48,-167.01 287,-172 270.83,-177.99 251.76,-184.3 240.57,-190.48"/>
<polygon fill="midnightblue" stroke="midnightblue" points="329.81,-159.45 337.94,-152.65 327.35,-152.9 329.81,-159.45"/>
</g>
<!-- Node9 -->
<g id="node9" class="node">
<title>Node9</title>
<g id="a_node9"><a xlink:href="quickjs_8c.html#a367627778ac537f4bb1f0fd07a2dee1b" target="_top" xlink:title=" ">
<polygon fill="none" stroke="black" points="173.5,-152.5 173.5,-171.5 286.5,-171.5 286.5,-152.5 173.5,-152.5"/>
<text text-anchor="middle" x="230" y="-159.5" font-family="Helvetica,sans-Serif" font-size="10.00">JS_ReadFunctionTag</text>
</a>
</g>
</g>
<!-- Node6&#45;&gt;Node9 -->
<g id="edge10" class="edge">
<title>Node6&#45;&gt;Node9</title>
<path fill="none" stroke="midnightblue" d="M319.54,-144.17C299.81,-146.37 278.83,-149.38 262.24,-152.46"/>
<polygon fill="midnightblue" stroke="midnightblue" points="320.13,-147.62 329.71,-143.09 319.39,-140.66 320.13,-147.62"/>
</g>
<!-- Node10 -->
<g id="node10" class="node">
<title>Node10</title>
<g id="a_node10"><a xlink:href="quickjs_8c.html#a21c7b14be807f7ce7f71c19e2e80380c" target="_top" xlink:title=" ">
<polygon fill="none" stroke="black" points="184,-114.5 184,-133.5 276,-133.5 276,-114.5 184,-114.5"/>
<text text-anchor="middle" x="230" y="-121.5" font-family="Helvetica,sans-Serif" font-size="10.00">JS_ReadModule</text>
</a>
</g>
</g>
<!-- Node6&#45;&gt;Node10 -->
<g id="edge12" class="edge">
<title>Node6&#45;&gt;Node10</title>
<path fill="none" stroke="midnightblue" d="M340.32,-131.71C320.43,-128.38 296.52,-125.31 276.13,-123.45"/>
<polygon fill="midnightblue" stroke="midnightblue" points="339.86,-135.18 350.32,-133.47 341.08,-128.29 339.86,-135.18"/>
</g>
<!-- Node11 -->
<g id="node11" class="node">
<title>Node11</title>
<g id="a_node11"><a xlink:href="quickjs_8c.html#ad0e3230c3896c2048283a9302f184fb4" target="_top" xlink:title=" ">
<polygon fill="none" stroke="black" points="178,-76.5 178,-95.5 282,-95.5 282,-76.5 178,-76.5"/>
<text text-anchor="middle" x="230" y="-83.5" font-family="Helvetica,sans-Serif" font-size="10.00">JS_ReadObjectTag</text>
</a>
</g>
</g>
<!-- Node6&#45;&gt;Node11 -->
<g id="edge15" class="edge">
<title>Node6&#45;&gt;Node11</title>
<path fill="none" stroke="midnightblue" d="M362.83,-128.34C343.85,-118.23 313.55,-105.83 287,-96 285.36,-95.39 283.7,-94.78 282.01,-94.18"/>
<polygon fill="midnightblue" stroke="midnightblue" points="361.22,-131.45 371.64,-133.39 364.7,-125.38 361.22,-131.45"/>
</g>
<!-- Node12 -->
<g id="node12" class="node">
<title>Node12</title>
<g id="a_node12"><a xlink:href="quickjs_8c.html#aa329df3dbab623ec017b77cb77bcce2f" target="_top" xlink:title=" ">
<polygon fill="none" stroke="black" points="173,-38.5 173,-57.5 287,-57.5 287,-38.5 173,-38.5"/>
<text text-anchor="middle" x="230" y="-45.5" font-family="Helvetica,sans-Serif" font-size="10.00">JS_ReadObjectValue</text>
</a>
</g>
</g>
<!-- Node6&#45;&gt;Node12 -->
<g id="edge17" class="edge">
<title>Node6&#45;&gt;Node12</title>
<path fill="none" stroke="midnightblue" d="M369.84,-125.37C352.92,-105.93 319.95,-76.1 287,-58 286.73,-57.85 286.46,-57.7 286.19,-57.56"/>
<polygon fill="midnightblue" stroke="midnightblue" points="367.22,-127.7 376.25,-133.25 372.65,-123.28 367.22,-127.7"/>
</g>
<!-- Node13 -->
<g id="node13" class="node">
<title>Node13</title>
<g id="a_node13"><a xlink:href="quickjs_8c.html#a00910faacc776e3c2c225aa117aab450" target="_top" xlink:title=" ">
<polygon fill="none" stroke="black" points="175,-0.5 175,-19.5 285,-19.5 285,-0.5 175,-0.5"/>
<text text-anchor="middle" x="230" y="-7.5" font-family="Helvetica,sans-Serif" font-size="10.00">JS_ReadTypedArray</text>
</a>
</g>
</g>
<!-- Node6&#45;&gt;Node13 -->
<g id="edge19" class="edge">
<title>Node6&#45;&gt;Node13</title>
<path fill="none" stroke="midnightblue" d="M373.66,-123.89C359.41,-96.49 326.99,-47.53 287,-20 286.41,-19.59 285.81,-19.19 285.2,-18.8"/>
<polygon fill="midnightblue" stroke="midnightblue" points="370.69,-125.78 378.21,-133.24 376.99,-122.72 370.69,-125.78"/>
</g>
<!-- Node7&#45;&gt;Node6 -->
<g id="edge7" class="edge">
<title>Node7&#45;&gt;Node6</title>
<path fill="none" stroke="midnightblue" d="M280.77,-231.16C282.9,-230.16 284.99,-229.1 287,-228 324.83,-207.22 362.67,-170.99 376.25,-152.75"/>
<polygon fill="midnightblue" stroke="midnightblue" points="279.06,-228.08 271.2,-235.19 281.78,-234.54 279.06,-228.08"/>
</g>
<!-- Node8&#45;&gt;Node6 -->
<g id="edge9" class="edge">
<title>Node8&#45;&gt;Node6</title>
<path fill="none" stroke="midnightblue" d="M279.24,-192.81C281.87,-191.88 284.47,-190.94 287,-190 318.17,-178.45 354.53,-163.37 371.64,-152.61"/>
<polygon fill="midnightblue" stroke="midnightblue" points="277.99,-189.54 269.66,-196.09 280.25,-196.17 277.99,-189.54"/>
</g>
<!-- Node9&#45;&gt;Node6 -->
<g id="edge11" class="edge">
<title>Node9&#45;&gt;Node6</title>
<path fill="none" stroke="midnightblue" d="M296.72,-160.4C315.35,-158.24 334.77,-155.42 350.32,-152.53"/>
<polygon fill="midnightblue" stroke="midnightblue" points="296.34,-156.93 286.79,-161.5 297.11,-163.88 296.34,-156.93"/>
</g>
<!-- Node10&#45;&gt;Node6 -->
<g id="edge13" class="edge">
<title>Node10&#45;&gt;Node6</title>
<path fill="none" stroke="midnightblue" d="M272.28,-135.31C290.02,-138.28 310.94,-141.04 329.71,-142.91"/>
<polygon fill="midnightblue" stroke="midnightblue" points="272.7,-131.83 262.24,-133.54 271.48,-138.72 272.7,-131.83"/>
</g>
<!-- Node11&#45;&gt;Node6 -->
<g id="edge16" class="edge">
<title>Node11&#45;&gt;Node6</title>
<path fill="none" stroke="midnightblue" d="M249.6,-99.88C260.54,-104.64 274.62,-109.41 287,-114 303.75,-120.2 321.99,-127.43 337.94,-133.35"/>
<polygon fill="midnightblue" stroke="midnightblue" points="251.1,-96.72 240.57,-95.52 248.05,-103.02 251.1,-96.72"/>
</g>
<!-- Node12&#45;&gt;Node6 -->
<g id="edge18" class="edge">
<title>Node12&#45;&gt;Node6</title>
<path fill="none" stroke="midnightblue" d="M252.55,-61.47C263.28,-65.54 276.23,-70.08 287,-76 317.08,-92.52 347.17,-118.81 365.06,-133.41"/>
<polygon fill="midnightblue" stroke="midnightblue" points="253.67,-58.15 243.09,-57.67 251.06,-64.64 253.67,-58.15"/>
</g>
<!-- Node13&#45;&gt;Node6 -->
<g id="edge20" class="edge">
<title>Node13&#45;&gt;Node6</title>
<path fill="none" stroke="midnightblue" d="M254.35,-23.02C264.95,-26.78 277.26,-31.29 287,-38 326.17,-64.97 358.08,-112.49 372.77,-133.38"/>
<polygon fill="midnightblue" stroke="midnightblue" points="255.45,-19.69 244.85,-19.59 253.07,-26.28 255.45,-19.69"/>
</g>
</g>
</svg>
