<?xml version="1.0" encoding="UTF-8" standalone="no"?>
<!DOCTYPE svg PUBLIC "-//W3C//DTD SVG 1.1//EN"
 "http://www.w3.org/Graphics/SVG/1.1/DTD/svg11.dtd">
<!-- Generated by graphviz version 2.43.0 (0)
 -->
<!-- Title: async_func_free Pages: 1 -->
<svg width="1027pt" height="230pt"
 viewBox="0.00 0.00 1027.00 230.00" xmlns="http://www.w3.org/2000/svg" xmlns:xlink="http://www.w3.org/1999/xlink">
<g id="graph0" class="graph" transform="scale(1 1) rotate(0) translate(4 226)">
<title>async_func_free</title>
<!-- Node1 -->
<g id="node1" class="node">
<title>Node1</title>
<g id="a_node1"><a xlink:title=" ">
<polygon fill="#bfbfbf" stroke="black" points="923,-66.5 923,-85.5 1019,-85.5 1019,-66.5 923,-66.5"/>
<text text-anchor="middle" x="971" y="-73.5" font-family="Helvetica,sans-Serif" font-size="10.00">async_func_free</text>
</a>
</g>
</g>
<!-- Node2 -->
<g id="node2" class="node">
<title>Node2</title>
<g id="a_node2"><a xlink:href="quickjs_8c.html#a79e765cc00783901041f08e060c14287" target="_top" xlink:title=" ">
<polygon fill="none" stroke="black" points="742,-164.5 742,-183.5 875,-183.5 875,-164.5 742,-164.5"/>
<text text-anchor="middle" x="808.5" y="-171.5" font-family="Helvetica,sans-Serif" font-size="10.00">free_generator_stack_rt</text>
</a>
</g>
</g>
<!-- Node1&#45;&gt;Node2 -->
<g id="edge1" class="edge">
<title>Node1&#45;&gt;Node2</title>
<path fill="none" stroke="midnightblue" d="M945.66,-90.86C912.4,-111.17 853.68,-147.03 825.48,-164.24"/>
<polygon fill="midnightblue" stroke="midnightblue" points="947.61,-93.77 954.32,-85.58 943.96,-87.8 947.61,-93.77"/>
</g>
<!-- Node13 -->
<g id="node6" class="node">
<title>Node13</title>
<g id="a_node6"><a xlink:href="quickjs_8c.html#a4b282353917b10409ca38b279b0b1dce" target="_top" xlink:title=" ">
<polygon fill="none" stroke="black" points="730,-88.5 730,-107.5 887,-107.5 887,-88.5 730,-88.5"/>
<text text-anchor="middle" x="808.5" y="-95.5" font-family="Helvetica,sans-Serif" font-size="10.00">js_async_function_terminate</text>
</a>
</g>
</g>
<!-- Node1&#45;&gt;Node13 -->
<g id="edge5" class="edge">
<title>Node1&#45;&gt;Node13</title>
<path fill="none" stroke="midnightblue" d="M912.53,-83.88C901.68,-85.37 890.22,-86.94 879.05,-88.47"/>
<polygon fill="midnightblue" stroke="midnightblue" points="913.28,-87.31 922.71,-82.48 912.33,-80.37 913.28,-87.31"/>
</g>
<!-- Node24 -->
<g id="node13" class="node">
<title>Node24</title>
<g id="a_node13"><a xlink:href="quickjs_8c.html#ad753838f0911b2c87c2117e0d424e916" target="_top" xlink:title=" ">
<polygon fill="none" stroke="black" points="753,-39 753,-69 864,-69 864,-39 753,-39"/>
<text text-anchor="start" x="761" y="-57" font-family="Helvetica,sans-Serif" font-size="10.00">js_async_generator</text>
<text text-anchor="middle" x="808.5" y="-46" font-family="Helvetica,sans-Serif" font-size="10.00">_complete</text>
</a>
</g>
</g>
<!-- Node1&#45;&gt;Node24 -->
<g id="edge14" class="edge">
<title>Node1&#45;&gt;Node24</title>
<path fill="none" stroke="midnightblue" d="M912.55,-68.13C896.76,-65.96 879.69,-63.62 864.07,-61.48"/>
<polygon fill="midnightblue" stroke="midnightblue" points="912.33,-71.63 922.71,-69.52 913.28,-64.69 912.33,-71.63"/>
</g>
<!-- Node26 -->
<g id="node15" class="node">
<title>Node26</title>
<g id="a_node15"><a xlink:href="quickjs_8c.html#a0cf9a02011216d38f2e96ca71f8f274f" target="_top" xlink:title=" ">
<polygon fill="none" stroke="black" points="740.5,-0.5 740.5,-19.5 876.5,-19.5 876.5,-0.5 740.5,-0.5"/>
<text text-anchor="middle" x="808.5" y="-7.5" font-family="Helvetica,sans-Serif" font-size="10.00">js_async_generator_free</text>
</a>
</g>
</g>
<!-- Node1&#45;&gt;Node26 -->
<g id="edge16" class="edge">
<title>Node1&#45;&gt;Node26</title>
<path fill="none" stroke="midnightblue" d="M946.49,-60.86C930.29,-50.96 907.98,-38.36 887,-30 876.67,-25.88 865.23,-22.39 854.38,-19.52"/>
<polygon fill="midnightblue" stroke="midnightblue" points="944.93,-64.01 955.27,-66.32 948.63,-58.07 944.93,-64.01"/>
</g>
<!-- Node3 -->
<g id="node3" class="node">
<title>Node3</title>
<g id="a_node3"><a xlink:href="quickjs_8c.html#a211c884373a0c469d9d3e2f5e8c538e1" target="_top" xlink:title=" ">
<polygon fill="none" stroke="black" points="561.5,-202.5 561.5,-221.5 681.5,-221.5 681.5,-202.5 561.5,-202.5"/>
<text text-anchor="middle" x="621.5" y="-209.5" font-family="Helvetica,sans-Serif" font-size="10.00">free_generator_stack</text>
</a>
</g>
</g>
<!-- Node2&#45;&gt;Node3 -->
<g id="edge2" class="edge">
<title>Node2&#45;&gt;Node3</title>
<path fill="none" stroke="midnightblue" d="M750.98,-185.61C724.67,-191.01 693.76,-197.36 668.85,-202.48"/>
<polygon fill="midnightblue" stroke="midnightblue" points="751.73,-189.03 760.82,-183.59 750.32,-182.17 751.73,-189.03"/>
</g>
<!-- Node4 -->
<g id="node4" class="node">
<title>Node4</title>
<g id="a_node4"><a xlink:href="quickjs_8c.html#ac90552b1f1659acb3dae9a4c62479a30" target="_top" xlink:title=" ">
<polygon fill="none" stroke="black" points="549,-164.5 549,-183.5 694,-183.5 694,-164.5 549,-164.5"/>
<text text-anchor="middle" x="621.5" y="-171.5" font-family="Helvetica,sans-Serif" font-size="10.00">js_generator_function_call</text>
</a>
</g>
</g>
<!-- Node2&#45;&gt;Node4 -->
<g id="edge3" class="edge">
<title>Node2&#45;&gt;Node4</title>
<path fill="none" stroke="midnightblue" d="M731.53,-174C719.23,-174 706.52,-174 694.32,-174"/>
<polygon fill="midnightblue" stroke="midnightblue" points="731.76,-177.5 741.76,-174 731.75,-170.5 731.76,-177.5"/>
</g>
<!-- Node5 -->
<g id="node5" class="node">
<title>Node5</title>
<g id="a_node5"><a xlink:href="quickjs_8c.html#a27966451027feb455b5da12c1578771c" target="_top" xlink:title=" ">
<polygon fill="none" stroke="red" points="390,-164.5 390,-183.5 490,-183.5 490,-164.5 390,-164.5"/>
<text text-anchor="middle" x="440" y="-171.5" font-family="Helvetica,sans-Serif" font-size="10.00">JS_NewRuntime2</text>
</a>
</g>
</g>
<!-- Node4&#45;&gt;Node5 -->
<g id="edge4" class="edge">
<title>Node4&#45;&gt;Node5</title>
<path fill="none" stroke="midnightblue" d="M538.58,-174C522.08,-174 505.22,-174 490.27,-174"/>
<polygon fill="midnightblue" stroke="midnightblue" points="538.78,-177.5 548.78,-174 538.78,-170.5 538.78,-177.5"/>
</g>
<!-- Node14 -->
<g id="node7" class="node">
<title>Node14</title>
<g id="a_node7"><a xlink:href="quickjs_8c.html#a0272417de9a1be37e1fcc3fdccdb859a" target="_top" xlink:title=" ">
<polygon fill="none" stroke="black" points="554.5,-126.5 554.5,-145.5 688.5,-145.5 688.5,-126.5 554.5,-126.5"/>
<text text-anchor="middle" x="621.5" y="-133.5" font-family="Helvetica,sans-Serif" font-size="10.00">js_async_function_free0</text>
</a>
</g>
</g>
<!-- Node13&#45;&gt;Node14 -->
<g id="edge6" class="edge">
<title>Node13&#45;&gt;Node14</title>
<path fill="none" stroke="midnightblue" d="M750.98,-109.61C724.67,-115.01 693.76,-121.36 668.85,-126.48"/>
<polygon fill="midnightblue" stroke="midnightblue" points="751.73,-113.03 760.82,-107.59 750.32,-106.17 751.73,-113.03"/>
</g>
<!-- Node22 -->
<g id="node11" class="node">
<title>Node22</title>
<g id="a_node11"><a xlink:href="quickjs_8c.html#a1bf6b62983e8fff99c0a5d5a9f486115" target="_top" xlink:title=" ">
<polygon fill="none" stroke="black" points="367,-88.5 367,-107.5 513,-107.5 513,-88.5 367,-88.5"/>
<text text-anchor="middle" x="440" y="-95.5" font-family="Helvetica,sans-Serif" font-size="10.00">js_async_function_resume</text>
</a>
</g>
</g>
<!-- Node13&#45;&gt;Node22 -->
<g id="edge10" class="edge">
<title>Node13&#45;&gt;Node22</title>
<path fill="none" stroke="midnightblue" d="M719.43,-98C656.25,-98 572.18,-98 513.01,-98"/>
<polygon fill="midnightblue" stroke="midnightblue" points="719.77,-101.5 729.77,-98 719.77,-94.5 719.77,-101.5"/>
</g>
<!-- Node15 -->
<g id="node8" class="node">
<title>Node15</title>
<g id="a_node8"><a xlink:href="quickjs_8c.html#aee58f0488d619274e9d72be864626298" target="_top" xlink:title=" ">
<polygon fill="none" stroke="red" points="376,-126.5 376,-145.5 504,-145.5 504,-126.5 376,-126.5"/>
<text text-anchor="middle" x="440" y="-133.5" font-family="Helvetica,sans-Serif" font-size="10.00">js_async_function_free</text>
</a>
</g>
</g>
<!-- Node14&#45;&gt;Node15 -->
<g id="edge7" class="edge">
<title>Node14&#45;&gt;Node15</title>
<path fill="none" stroke="midnightblue" d="M544.32,-136C530.96,-136 517.2,-136 504.25,-136"/>
<polygon fill="midnightblue" stroke="midnightblue" points="544.43,-139.5 554.43,-136 544.43,-132.5 544.43,-139.5"/>
</g>
<!-- Node16 -->
<g id="node9" class="node">
<title>Node16</title>
<g id="a_node9"><a xlink:href="quickjs_8c.html#a8029b29b8458274699fbcb7ce42a7100" target="_top" xlink:title=" ">
<polygon fill="none" stroke="black" points="184.5,-115.5 184.5,-134.5 310.5,-134.5 310.5,-115.5 184.5,-115.5"/>
<text text-anchor="middle" x="247.5" y="-122.5" font-family="Helvetica,sans-Serif" font-size="10.00">js_async_function_call</text>
</a>
</g>
</g>
<!-- Node15&#45;&gt;Node16 -->
<g id="edge8" class="edge">
<title>Node15&#45;&gt;Node16</title>
<path fill="none" stroke="midnightblue" d="M365.83,-131.77C347.58,-130.72 328.18,-129.6 310.53,-128.58"/>
<polygon fill="midnightblue" stroke="midnightblue" points="365.65,-135.27 375.83,-132.35 366.05,-128.28 365.65,-135.27"/>
</g>
<!-- Node17 -->
<g id="node10" class="node">
<title>Node17</title>
<g id="a_node10"><a xlink:href="quickjs_8c.html#a2e66fcf1bc1d19f346317f10ee590621" target="_top" xlink:title=" ">
<polygon fill="none" stroke="red" points="0,-77.5 0,-96.5 128,-96.5 128,-77.5 0,-77.5"/>
<text text-anchor="middle" x="64" y="-84.5" font-family="Helvetica,sans-Serif" font-size="10.00">JS_AddIntrinsicPromise</text>
</a>
</g>
</g>
<!-- Node16&#45;&gt;Node17 -->
<g id="edge9" class="edge">
<title>Node16&#45;&gt;Node17</title>
<path fill="none" stroke="midnightblue" d="M190.71,-113.32C164.97,-107.93 134.8,-101.61 110.47,-96.52"/>
<polygon fill="midnightblue" stroke="midnightblue" points="190.19,-116.79 200.7,-115.41 191.63,-109.94 190.19,-116.79"/>
</g>
<!-- Node22&#45;&gt;Node16 -->
<g id="edge11" class="edge">
<title>Node22&#45;&gt;Node16</title>
<path fill="none" stroke="midnightblue" d="M361.9,-108.93C344.84,-111.35 326.97,-113.88 310.6,-116.2"/>
<polygon fill="midnightblue" stroke="midnightblue" points="362.43,-112.39 371.84,-107.52 361.44,-105.46 362.43,-112.39"/>
</g>
<!-- Node23 -->
<g id="node12" class="node">
<title>Node23</title>
<g id="a_node12"><a xlink:href="quickjs_8c.html#a2cf6c9a897a2a59d310f3cf18897b639" target="_top" xlink:title=" ">
<polygon fill="none" stroke="black" points="164,-77.5 164,-96.5 331,-96.5 331,-77.5 164,-77.5"/>
<text text-anchor="middle" x="247.5" y="-84.5" font-family="Helvetica,sans-Serif" font-size="10.00">js_async_function_resolve_call</text>
</a>
</g>
</g>
<!-- Node22&#45;&gt;Node23 -->
<g id="edge12" class="edge">
<title>Node22&#45;&gt;Node23</title>
<path fill="none" stroke="midnightblue" d="M356.73,-93.25C348.26,-92.76 339.64,-92.26 331.17,-91.77"/>
<polygon fill="midnightblue" stroke="midnightblue" points="356.79,-96.76 366.98,-93.84 357.2,-89.77 356.79,-96.76"/>
</g>
<!-- Node23&#45;&gt;Node17 -->
<g id="edge13" class="edge">
<title>Node23&#45;&gt;Node17</title>
<path fill="none" stroke="midnightblue" d="M153.76,-87C145.05,-87 136.36,-87 128.02,-87"/>
<polygon fill="midnightblue" stroke="midnightblue" points="153.98,-90.5 163.98,-87 153.98,-83.5 153.98,-90.5"/>
</g>
<!-- Node25 -->
<g id="node14" class="node">
<title>Node25</title>
<g id="a_node14"><a xlink:href="quickjs_8c.html#a89b019c704a2d2914bc30b30a72040b3" target="_top" xlink:title=" ">
<polygon fill="none" stroke="black" points="566,-39 566,-69 677,-69 677,-39 566,-39"/>
<text text-anchor="start" x="574" y="-57" font-family="Helvetica,sans-Serif" font-size="10.00">js_async_generator</text>
<text text-anchor="middle" x="621.5" y="-46" font-family="Helvetica,sans-Serif" font-size="10.00">_resume_next</text>
</a>
</g>
</g>
<!-- Node24&#45;&gt;Node25 -->
<g id="edge15" class="edge">
<title>Node24&#45;&gt;Node25</title>
<path fill="none" stroke="midnightblue" d="M742.99,-54C721.55,-54 697.89,-54 677.26,-54"/>
<polygon fill="midnightblue" stroke="midnightblue" points="742.99,-57.5 752.99,-54 742.99,-50.5 742.99,-57.5"/>
</g>
<!-- Node27 -->
<g id="node16" class="node">
<title>Node27</title>
<g id="a_node16"><a xlink:href="quickjs_8c.html#ae19867da709929c072f05e90301835a4" target="_top" xlink:title=" ">
<polygon fill="none" stroke="black" points="192,-6 192,-36 303,-36 303,-6 192,-6"/>
<text text-anchor="start" x="200" y="-24" font-family="Helvetica,sans-Serif" font-size="10.00">js_async_generator</text>
<text text-anchor="middle" x="247.5" y="-13" font-family="Helvetica,sans-Serif" font-size="10.00">_function_call</text>
</a>
</g>
</g>
<!-- Node26&#45;&gt;Node27 -->
<g id="edge17" class="edge">
<title>Node26&#45;&gt;Node27</title>
<path fill="none" stroke="midnightblue" d="M730.24,-11.52C615.6,-13.78 403.24,-17.96 303.26,-19.92"/>
<polygon fill="midnightblue" stroke="midnightblue" points="730.42,-15.02 740.35,-11.32 730.28,-8.02 730.42,-15.02"/>
</g>
<!-- Node27&#45;&gt;Node17 -->
<g id="edge18" class="edge">
<title>Node27&#45;&gt;Node17</title>
<path fill="none" stroke="midnightblue" d="M195.13,-39.68C161.28,-51.99 118.36,-67.59 91.28,-77.44"/>
<polygon fill="midnightblue" stroke="midnightblue" points="196.66,-42.85 204.86,-36.14 194.27,-36.27 196.66,-42.85"/>
</g>
</g>
</svg>
