<?xml version="1.0" encoding="UTF-8" standalone="no"?>
<!DOCTYPE svg PUBLIC "-//W3C//DTD SVG 1.1//EN"
 "http://www.w3.org/Graphics/SVG/1.1/DTD/svg11.dtd">
<!-- Generated by graphviz version 2.43.0 (0)
 -->
<!-- Title: JS_ToUint32 Pages: 1 -->
<svg width="444pt" height="85pt"
 viewBox="0.00 0.00 444.00 85.00" xmlns="http://www.w3.org/2000/svg" xmlns:xlink="http://www.w3.org/1999/xlink">
<g id="graph0" class="graph" transform="scale(1 1) rotate(0) translate(4 81)">
<title>JS_ToUint32</title>
<!-- Node1 -->
<g id="node1" class="node">
<title>Node1</title>
<g id="a_node1"><a xlink:title=" ">
<polygon fill="#bfbfbf" stroke="black" points="0,-38.5 0,-57.5 74,-57.5 74,-38.5 0,-38.5"/>
<text text-anchor="middle" x="37" y="-45.5" font-family="Helvetica,sans-Serif" font-size="10.00">JS_ToUint32</text>
</a>
</g>
</g>
<!-- Node2 -->
<g id="node2" class="node">
<title>Node2</title>
<g id="a_node2"><a xlink:href="quickjs_8c.html#a4073bd2b4f247bf6077cd956759193b9" target="_top" xlink:title=" ">
<polygon fill="none" stroke="black" points="110,-38.5 110,-57.5 176,-57.5 176,-38.5 110,-38.5"/>
<text text-anchor="middle" x="143" y="-45.5" font-family="Helvetica,sans-Serif" font-size="10.00">JS_ToInt32</text>
</a>
</g>
</g>
<!-- Node1&#45;&gt;Node2 -->
<g id="edge1" class="edge">
<title>Node1&#45;&gt;Node2</title>
<path fill="none" stroke="midnightblue" d="M74.08,-48C82.34,-48 91.19,-48 99.69,-48"/>
<polygon fill="midnightblue" stroke="midnightblue" points="99.8,-51.5 109.8,-48 99.8,-44.5 99.8,-51.5"/>
</g>
<!-- Node3 -->
<g id="node3" class="node">
<title>Node3</title>
<g id="a_node3"><a xlink:href="quickjs_8h.html#a775522f2d084fc8fa0fcb33f390006b4" target="_top" xlink:title=" ">
<polygon fill="none" stroke="black" points="217,-57.5 217,-76.5 294,-76.5 294,-57.5 217,-57.5"/>
<text text-anchor="middle" x="255.5" y="-64.5" font-family="Helvetica,sans-Serif" font-size="10.00">JS_DupValue</text>
</a>
</g>
</g>
<!-- Node2&#45;&gt;Node3 -->
<g id="edge2" class="edge">
<title>Node2&#45;&gt;Node3</title>
<path fill="none" stroke="midnightblue" d="M176.26,-53.55C185.81,-55.19 196.49,-57.02 206.8,-58.8"/>
<polygon fill="midnightblue" stroke="midnightblue" points="206.49,-62.3 216.94,-60.54 207.68,-55.4 206.49,-62.3"/>
</g>
<!-- Node4 -->
<g id="node4" class="node">
<title>Node4</title>
<g id="a_node4"><a xlink:href="quickjs_8c.html#a643088ab23784b7f3c6ff94c37228256" target="_top" xlink:title=" ">
<polygon fill="none" stroke="black" points="212,-19.5 212,-38.5 299,-38.5 299,-19.5 212,-19.5"/>
<text text-anchor="middle" x="255.5" y="-26.5" font-family="Helvetica,sans-Serif" font-size="10.00">JS_ToInt32Free</text>
</a>
</g>
</g>
<!-- Node2&#45;&gt;Node4 -->
<g id="edge3" class="edge">
<title>Node2&#45;&gt;Node4</title>
<path fill="none" stroke="midnightblue" d="M176.26,-42.45C184.22,-41.08 192.97,-39.58 201.63,-38.09"/>
<polygon fill="midnightblue" stroke="midnightblue" points="202.46,-41.5 211.72,-36.36 201.27,-34.6 202.46,-41.5"/>
</g>
<!-- Node5 -->
<g id="node5" class="node">
<title>Node5</title>
<g id="a_node5"><a xlink:href="quickjs_8h.html#ad80a83d73e9b7d872b88fbf2943aebe9" target="_top" xlink:title=" ">
<polygon fill="none" stroke="black" points="342,-38.5 342,-57.5 429,-57.5 429,-38.5 342,-38.5"/>
<text text-anchor="middle" x="385.5" y="-45.5" font-family="Helvetica,sans-Serif" font-size="10.00">JS_IsException</text>
</a>
</g>
</g>
<!-- Node4&#45;&gt;Node5 -->
<g id="edge4" class="edge">
<title>Node4&#45;&gt;Node5</title>
<path fill="none" stroke="midnightblue" d="M299.12,-35.33C309.48,-36.86 320.69,-38.53 331.47,-40.13"/>
<polygon fill="midnightblue" stroke="midnightblue" points="331.22,-43.63 341.63,-41.64 332.25,-36.71 331.22,-43.63"/>
</g>
<!-- Node6 -->
<g id="node6" class="node">
<title>Node6</title>
<g id="a_node6"><a xlink:href="quickjs_8c.html#ae738291483438efefca5c9fa4d269504" target="_top" xlink:title=" ">
<polygon fill="none" stroke="red" points="335,-0.5 335,-19.5 436,-19.5 436,-0.5 335,-0.5"/>
<text text-anchor="middle" x="385.5" y="-7.5" font-family="Helvetica,sans-Serif" font-size="10.00">JS_ToNumberFree</text>
</a>
</g>
</g>
<!-- Node4&#45;&gt;Node6 -->
<g id="edge5" class="edge">
<title>Node4&#45;&gt;Node6</title>
<path fill="none" stroke="midnightblue" d="M299.12,-22.67C307.38,-21.45 316.18,-20.14 324.86,-18.85"/>
<polygon fill="midnightblue" stroke="midnightblue" points="325.6,-22.28 334.97,-17.35 324.57,-15.36 325.6,-22.28"/>
</g>
</g>
</svg>
