<?xml version="1.0" encoding="UTF-8" standalone="no"?>
<!DOCTYPE svg PUBLIC "-//W3C//DTD SVG 1.1//EN"
 "http://www.w3.org/Graphics/SVG/1.1/DTD/svg11.dtd">
<!-- Generated by graphviz version 2.43.0 (0)
 -->
<!-- Title: JS_NewCatchOffset Pages: 1 -->
<svg width="753pt" height="991pt"
 viewBox="0.00 0.00 753.00 990.50" xmlns="http://www.w3.org/2000/svg" xmlns:xlink="http://www.w3.org/1999/xlink">
<g id="graph0" class="graph" transform="scale(1 1) rotate(0) translate(4 986.5)">
<title>JS_NewCatchOffset</title>
<!-- Node1 -->
<g id="node1" class="node">
<title>Node1</title>
<g id="a_node1"><a xlink:title=" ">
<polygon fill="#bfbfbf" stroke="black" points="635,-362.5 635,-381.5 745,-381.5 745,-362.5 635,-362.5"/>
<text text-anchor="middle" x="690" y="-369.5" font-family="Helvetica,sans-Serif" font-size="10.00">JS_NewCatchOffset</text>
</a>
</g>
</g>
<!-- Node2 -->
<g id="node2" class="node">
<title>Node2</title>
<g id="a_node2"><a xlink:href="quickjs_8c.html#ac2894ff4edcdb4e6841bcce9c76081e3" target="_top" xlink:title=" ">
<polygon fill="none" stroke="black" points="512,-362.5 512,-381.5 599,-381.5 599,-362.5 512,-362.5"/>
<text text-anchor="middle" x="555.5" y="-369.5" font-family="Helvetica,sans-Serif" font-size="10.00">JS_CallInternal</text>
</a>
</g>
</g>
<!-- Node1&#45;&gt;Node2 -->
<g id="edge1" class="edge">
<title>Node1&#45;&gt;Node2</title>
<path fill="none" stroke="midnightblue" d="M624.62,-372C615.97,-372 607.28,-372 599.13,-372"/>
<polygon fill="midnightblue" stroke="midnightblue" points="624.72,-375.5 634.72,-372 624.72,-368.5 624.72,-375.5"/>
</g>
<!-- Node2&#45;&gt;Node2 -->
<g id="edge40" class="edge">
<title>Node2&#45;&gt;Node2</title>
<path fill="none" stroke="midnightblue" d="M580.43,-391.03C579.07,-396.13 570.76,-400 555.5,-400 531.68,-400 524.8,-390.57 534.85,-381.76"/>
<polygon fill="midnightblue" stroke="midnightblue" points="583.52,-389.37 576.15,-381.76 577.16,-392.3 583.52,-389.37"/>
</g>
<!-- Node3 -->
<g id="node3" class="node">
<title>Node3</title>
<g id="a_node3"><a xlink:href="quickjs_8c.html#ade71a22dc56e7371392393df663b28b3" target="_top" xlink:title=" ">
<polygon fill="none" stroke="black" points="348,-864.5 348,-883.5 461,-883.5 461,-864.5 348,-864.5"/>
<text text-anchor="middle" x="404.5" y="-871.5" font-family="Helvetica,sans-Serif" font-size="10.00">async_func_resume</text>
</a>
</g>
</g>
<!-- Node2&#45;&gt;Node3 -->
<g id="edge2" class="edge">
<title>Node2&#45;&gt;Node3</title>
<path fill="none" stroke="midnightblue" d="M548.77,-391.3C523.99,-474.81 426.4,-803.57 408.37,-864.32"/>
<polygon fill="midnightblue" stroke="midnightblue" points="552.17,-392.16 551.66,-381.58 545.46,-390.17 552.17,-392.16"/>
</g>
<!-- Node22 -->
<g id="node8" class="node">
<title>Node22</title>
<g id="a_node8"><a xlink:href="quickjs_8c.html#a1a4c02a29525d5cb2085dd8bca3af350" target="_top" xlink:title=" ">
<polygon fill="none" stroke="red" points="379.5,-400.5 379.5,-419.5 429.5,-419.5 429.5,-400.5 379.5,-400.5"/>
<text text-anchor="middle" x="404.5" y="-407.5" font-family="Helvetica,sans-Serif" font-size="10.00">JS_Call</text>
</a>
</g>
</g>
<!-- Node2&#45;&gt;Node22 -->
<g id="edge7" class="edge">
<title>Node2&#45;&gt;Node22</title>
<path fill="none" stroke="midnightblue" d="M501.78,-378.96C475,-385.12 444.11,-393.59 424.7,-400.4"/>
<polygon fill="midnightblue" stroke="midnightblue" points="502.81,-382.32 511.8,-376.72 501.28,-375.48 502.81,-382.32"/>
</g>
<!-- Node108 -->
<g id="node29" class="node">
<title>Node108</title>
<g id="a_node29"><a xlink:href="quickjs_8c.html#ad35594576a14c10812efaf958c99af8a" target="_top" xlink:title=" ">
<polygon fill="none" stroke="red" points="333,-362.5 333,-381.5 476,-381.5 476,-362.5 333,-362.5"/>
<text text-anchor="middle" x="404.5" y="-369.5" font-family="Helvetica,sans-Serif" font-size="10.00">JS_CallConstructorInternal</text>
</a>
</g>
</g>
<!-- Node2&#45;&gt;Node108 -->
<g id="edge35" class="edge">
<title>Node2&#45;&gt;Node108</title>
<path fill="none" stroke="midnightblue" d="M501.57,-365.51C493.3,-365.3 484.64,-365.22 476.05,-365.26"/>
<polygon fill="midnightblue" stroke="midnightblue" points="501.7,-369.01 511.8,-365.83 501.92,-362.02 501.7,-369.01"/>
</g>
<!-- Node122 -->
<g id="node30" class="node">
<title>Node122</title>
<g id="a_node30"><a xlink:href="quickjs_8c.html#a75f6ee5e4235a7dc99889f3d2eb2c147" target="_top" xlink:title=" ">
<polygon fill="none" stroke="red" points="369,-286.5 369,-305.5 440,-305.5 440,-286.5 369,-286.5"/>
<text text-anchor="middle" x="404.5" y="-293.5" font-family="Helvetica,sans-Serif" font-size="10.00">JS_CallFree</text>
</a>
</g>
</g>
<!-- Node2&#45;&gt;Node122 -->
<g id="edge37" class="edge">
<title>Node2&#45;&gt;Node122</title>
<path fill="none" stroke="midnightblue" d="M541.08,-354.97C525.94,-341.14 500.27,-322.92 476,-311 464.74,-305.47 451.9,-300.69 440.28,-297.36"/>
<polygon fill="midnightblue" stroke="midnightblue" points="538.75,-357.6 548.32,-362.14 543.67,-352.62 538.75,-357.6"/>
</g>
<!-- Node4 -->
<g id="node4" class="node">
<title>Node4</title>
<g id="a_node4"><a xlink:href="quickjs_8c.html#a1bf6b62983e8fff99c0a5d5a9f486115" target="_top" xlink:title=" ">
<polygon fill="none" stroke="red" points="151,-826.5 151,-845.5 297,-845.5 297,-826.5 151,-826.5"/>
<text text-anchor="middle" x="224" y="-833.5" font-family="Helvetica,sans-Serif" font-size="10.00">js_async_function_resume</text>
</a>
</g>
</g>
<!-- Node3&#45;&gt;Node4 -->
<g id="edge3" class="edge">
<title>Node3&#45;&gt;Node4</title>
<path fill="none" stroke="midnightblue" d="M348.63,-862.32C323.32,-856.93 293.65,-850.61 269.72,-845.52"/>
<polygon fill="midnightblue" stroke="midnightblue" points="347.95,-865.75 358.46,-864.41 349.4,-858.91 347.95,-865.75"/>
</g>
<!-- Node12 -->
<g id="node5" class="node">
<title>Node12</title>
<g id="a_node5"><a xlink:href="quickjs_8c.html#ae19867da709929c072f05e90301835a4" target="_top" xlink:title=" ">
<polygon fill="none" stroke="red" points="168.5,-952 168.5,-982 279.5,-982 279.5,-952 168.5,-952"/>
<text text-anchor="start" x="176.5" y="-970" font-family="Helvetica,sans-Serif" font-size="10.00">js_async_generator</text>
<text text-anchor="middle" x="224" y="-959" font-family="Helvetica,sans-Serif" font-size="10.00">_function_call</text>
</a>
</g>
</g>
<!-- Node3&#45;&gt;Node12 -->
<g id="edge4" class="edge">
<title>Node3&#45;&gt;Node12</title>
<path fill="none" stroke="midnightblue" d="M382.91,-889.6C362.11,-904.8 328.62,-927.79 297,-943 290.23,-946.26 282.91,-949.25 275.61,-951.94"/>
<polygon fill="midnightblue" stroke="midnightblue" points="385.05,-892.37 391.01,-883.61 380.89,-886.74 385.05,-892.37"/>
</g>
<!-- Node13 -->
<g id="node6" class="node">
<title>Node13</title>
<g id="a_node6"><a xlink:href="quickjs_8c.html#a89b019c704a2d2914bc30b30a72040b3" target="_top" xlink:title=" ">
<polygon fill="none" stroke="black" points="168.5,-903 168.5,-933 279.5,-933 279.5,-903 168.5,-903"/>
<text text-anchor="start" x="176.5" y="-921" font-family="Helvetica,sans-Serif" font-size="10.00">js_async_generator</text>
<text text-anchor="middle" x="224" y="-910" font-family="Helvetica,sans-Serif" font-size="10.00">_resume_next</text>
</a>
</g>
</g>
<!-- Node3&#45;&gt;Node13 -->
<g id="edge5" class="edge">
<title>Node3&#45;&gt;Node13</title>
<path fill="none" stroke="midnightblue" d="M354.77,-886.01C331.5,-891.75 303.55,-898.64 279.57,-904.55"/>
<polygon fill="midnightblue" stroke="midnightblue" points="355.9,-889.34 364.77,-883.55 354.22,-882.54 355.9,-889.34"/>
</g>
<!-- Node14 -->
<g id="node7" class="node">
<title>Node14</title>
<g id="a_node7"><a xlink:href="quickjs_8c.html#ac90552b1f1659acb3dae9a4c62479a30" target="_top" xlink:title=" ">
<polygon fill="none" stroke="red" points="151.5,-864.5 151.5,-883.5 296.5,-883.5 296.5,-864.5 151.5,-864.5"/>
<text text-anchor="middle" x="224" y="-871.5" font-family="Helvetica,sans-Serif" font-size="10.00">js_generator_function_call</text>
</a>
</g>
</g>
<!-- Node3&#45;&gt;Node14 -->
<g id="edge6" class="edge">
<title>Node3&#45;&gt;Node14</title>
<path fill="none" stroke="midnightblue" d="M337.89,-874C324.44,-874 310.22,-874 296.58,-874"/>
<polygon fill="midnightblue" stroke="midnightblue" points="338,-877.5 348,-874 338,-870.5 338,-877.5"/>
</g>
<!-- Node22&#45;&gt;Node2 -->
<g id="edge21" class="edge">
<title>Node22&#45;&gt;Node2</title>
<path fill="none" stroke="midnightblue" d="M439.46,-407.11C469.13,-401.14 511.14,-390.07 535.33,-381.59"/>
<polygon fill="midnightblue" stroke="midnightblue" points="438.7,-403.69 429.53,-408.99 440,-410.57 438.7,-403.69"/>
</g>
<!-- Node22&#45;&gt;Node4 -->
<g id="edge17" class="edge">
<title>Node22&#45;&gt;Node4</title>
<path fill="none" stroke="midnightblue" d="M400.98,-429.71C391.2,-503.26 353.44,-760.44 297,-817 293.16,-820.84 288.65,-823.94 283.78,-826.42"/>
<polygon fill="midnightblue" stroke="midnightblue" points="404.49,-429.91 402.31,-419.54 397.54,-429 404.49,-429.91"/>
</g>
<!-- Node23 -->
<g id="node9" class="node">
<title>Node23</title>
<g id="a_node9"><a xlink:href="quickjs-libc_8c.html#abb1cbe3fdf905e81f603a3a0bfce475a" target="_top" xlink:title=" ">
<polygon fill="none" stroke="black" points="186,-788.5 186,-807.5 262,-807.5 262,-788.5 186,-788.5"/>
<text text-anchor="middle" x="224" y="-795.5" font-family="Helvetica,sans-Serif" font-size="10.00">call_handler</text>
</a>
</g>
</g>
<!-- Node22&#45;&gt;Node23 -->
<g id="edge8" class="edge">
<title>Node22&#45;&gt;Node23</title>
<path fill="none" stroke="midnightblue" d="M404.1,-429.92C404.81,-491.42 398.25,-680.05 297,-779 287.75,-788.04 274.75,-792.91 262.32,-795.5"/>
<polygon fill="midnightblue" stroke="midnightblue" points="407.59,-429.6 403.9,-419.68 400.6,-429.74 407.59,-429.6"/>
</g>
<!-- Node24 -->
<g id="node10" class="node">
<title>Node24</title>
<g id="a_node10"><a xlink:href="quickjs-libc_8c.html#a9fa4c190ba56314c7ed9b00bbc7ad0f9" target="_top" xlink:title=" ">
<polygon fill="none" stroke="black" points="155.5,-750.5 155.5,-769.5 292.5,-769.5 292.5,-750.5 155.5,-750.5"/>
<text text-anchor="middle" x="224" y="-757.5" font-family="Helvetica,sans-Serif" font-size="10.00">handle_posted_message</text>
</a>
</g>
</g>
<!-- Node22&#45;&gt;Node24 -->
<g id="edge9" class="edge">
<title>Node22&#45;&gt;Node24</title>
<path fill="none" stroke="midnightblue" d="M403.33,-429.75C401.73,-486.87 389.01,-653.77 297,-741 292.97,-744.82 288.26,-747.9 283.21,-750.37"/>
<polygon fill="midnightblue" stroke="midnightblue" points="406.83,-429.63 403.53,-419.57 399.84,-429.5 406.83,-429.63"/>
</g>
<!-- Node25 -->
<g id="node11" class="node">
<title>Node25</title>
<g id="a_node11"><a xlink:href="quickjs_8c.html#a624282391413d4c5a030adbd8b77aa80" target="_top" xlink:title=" ">
<polygon fill="none" stroke="red" points="154,-694.5 154,-713.5 294,-713.5 294,-694.5 154,-694.5"/>
<text text-anchor="middle" x="224" y="-701.5" font-family="Helvetica,sans-Serif" font-size="10.00">internalize_json_property</text>
</a>
</g>
</g>
<!-- Node22&#45;&gt;Node25 -->
<g id="edge10" class="edge">
<title>Node22&#45;&gt;Node25</title>
<path fill="none" stroke="midnightblue" d="M401.86,-429.7C396.57,-480.13 375.42,-614.87 297,-685 292.66,-688.88 287.63,-691.98 282.27,-694.46"/>
<polygon fill="midnightblue" stroke="midnightblue" points="405.36,-429.8 402.82,-419.52 398.39,-429.14 405.36,-429.8"/>
</g>
<!-- Node27 -->
<g id="node12" class="node">
<title>Node27</title>
<g id="a_node12"><a xlink:href="quickjs_8c.html#aa0bbf08a7e91459c68a312fba7016c6d" target="_top" xlink:title=" ">
<polygon fill="none" stroke="black" points="179.5,-656.5 179.5,-675.5 268.5,-675.5 268.5,-656.5 179.5,-656.5"/>
<text text-anchor="middle" x="224" y="-663.5" font-family="Helvetica,sans-Serif" font-size="10.00">js_array_every</text>
</a>
</g>
</g>
<!-- Node22&#45;&gt;Node27 -->
<g id="edge12" class="edge">
<title>Node22&#45;&gt;Node27</title>
<path fill="none" stroke="midnightblue" d="M400.44,-430.02C392.36,-475.74 366.15,-588.37 297,-647 289.01,-653.77 278.87,-658.16 268.74,-661"/>
<polygon fill="midnightblue" stroke="midnightblue" points="403.93,-430.35 402.11,-419.91 397.03,-429.2 403.93,-430.35"/>
</g>
<!-- Node28 -->
<g id="node13" class="node">
<title>Node28</title>
<g id="a_node13"><a xlink:href="quickjs_8c.html#a9dd41b086da4e13b3487cc9c6e2af2b8" target="_top" xlink:title=" ">
<polygon fill="none" stroke="black" points="184.5,-618.5 184.5,-637.5 263.5,-637.5 263.5,-618.5 184.5,-618.5"/>
<text text-anchor="middle" x="224" y="-625.5" font-family="Helvetica,sans-Serif" font-size="10.00">js_array_find</text>
</a>
</g>
</g>
<!-- Node22&#45;&gt;Node28 -->
<g id="edge13" class="edge">
<title>Node22&#45;&gt;Node28</title>
<path fill="none" stroke="midnightblue" d="M398.71,-429.5C387.84,-469.54 357.42,-561.26 297,-609 287.47,-616.53 275.22,-621.1 263.55,-623.85"/>
<polygon fill="midnightblue" stroke="midnightblue" points="402.14,-430.22 401.27,-419.66 395.36,-428.46 402.14,-430.22"/>
</g>
<!-- Node29 -->
<g id="node14" class="node">
<title>Node29</title>
<g id="a_node14"><a xlink:href="quickjs_8c.html#a5e32da9a43002cb96dcbd62a1a340144" target="_top" xlink:title=" ">
<polygon fill="none" stroke="black" points="182,-580.5 182,-599.5 266,-599.5 266,-580.5 182,-580.5"/>
<text text-anchor="middle" x="224" y="-587.5" font-family="Helvetica,sans-Serif" font-size="10.00">js_array_from</text>
</a>
</g>
</g>
<!-- Node22&#45;&gt;Node29 -->
<g id="edge14" class="edge">
<title>Node22&#45;&gt;Node29</title>
<path fill="none" stroke="midnightblue" d="M396.12,-429.46C382.16,-463.56 348.6,-533.99 297,-571 287.97,-577.48 276.88,-581.75 266.13,-584.56"/>
<polygon fill="midnightblue" stroke="midnightblue" points="399.53,-430.34 399.96,-419.75 393.03,-427.76 399.53,-430.34"/>
</g>
<!-- Node30 -->
<g id="node15" class="node">
<title>Node30</title>
<g id="a_node15"><a xlink:href="quickjs_8c.html#a36c1692489542a86dd79a7d39ab8ff95" target="_top" xlink:title=" ">
<polygon fill="none" stroke="black" points="177,-542.5 177,-561.5 271,-561.5 271,-542.5 177,-542.5"/>
<text text-anchor="middle" x="224" y="-549.5" font-family="Helvetica,sans-Serif" font-size="10.00">js_array_reduce</text>
</a>
</g>
</g>
<!-- Node22&#45;&gt;Node30 -->
<g id="edge15" class="edge">
<title>Node22&#45;&gt;Node30</title>
<path fill="none" stroke="midnightblue" d="M391.62,-428.26C373.94,-454.04 338.34,-500.96 297,-528 287.63,-534.13 276.54,-538.84 265.91,-542.39"/>
<polygon fill="midnightblue" stroke="midnightblue" points="394.63,-430.05 397.29,-419.8 388.82,-426.15 394.63,-430.05"/>
</g>
<!-- Node31 -->
<g id="node16" class="node">
<title>Node31</title>
<g id="a_node16"><a xlink:href="quickjs_8c.html#aa45afa6d2861615f29444c9614ce766a" target="_top" xlink:title=" ">
<polygon fill="none" stroke="black" points="0,-332 0,-362 115,-362 115,-332 0,-332"/>
<text text-anchor="start" x="8" y="-350" font-family="Helvetica,sans-Serif" font-size="10.00">js_async_from_sync</text>
<text text-anchor="middle" x="57.5" y="-339" font-family="Helvetica,sans-Serif" font-size="10.00">_iterator_next</text>
</a>
</g>
</g>
<!-- Node22&#45;&gt;Node31 -->
<g id="edge16" class="edge">
<title>Node22&#45;&gt;Node31</title>
<path fill="none" stroke="midnightblue" d="M388.83,-427.33C370.03,-448.05 335.27,-481.6 297,-495 235.76,-516.44 207.75,-526.46 151,-495 98.79,-466.06 72.16,-394.02 62.66,-362.35"/>
<polygon fill="midnightblue" stroke="midnightblue" points="391.67,-429.4 395.66,-419.58 386.42,-424.77 391.67,-429.4"/>
</g>
<!-- Node32 -->
<g id="node17" class="node">
<title>Node32</title>
<g id="a_node17"><a xlink:href="quickjs_8c.html#a2355fabf91f59212ea65baba1b0b7c1b" target="_top" xlink:title=" ">
<polygon fill="none" stroke="black" points="155,-466.5 155,-485.5 293,-485.5 293,-466.5 155,-466.5"/>
<text text-anchor="middle" x="224" y="-473.5" font-family="Helvetica,sans-Serif" font-size="10.00">js_async_generator_next</text>
</a>
</g>
</g>
<!-- Node22&#45;&gt;Node32 -->
<g id="edge18" class="edge">
<title>Node22&#45;&gt;Node32</title>
<path fill="none" stroke="midnightblue" d="M375.16,-423.97C353.98,-434.05 324.13,-447.5 297,-457 286.99,-460.5 276.01,-463.71 265.7,-466.45"/>
<polygon fill="midnightblue" stroke="midnightblue" points="376.75,-427.09 384.24,-419.6 373.71,-420.78 376.75,-427.09"/>
</g>
<!-- Node33 -->
<g id="node18" class="node">
<title>Node33</title>
<g id="a_node18"><a xlink:href="quickjs_8c.html#a3e852026d167fa03c673f86697dd3e67" target="_top" xlink:title=" ">
<polygon fill="none" stroke="red" points="168.5,-417 168.5,-447 279.5,-447 279.5,-417 168.5,-417"/>
<text text-anchor="start" x="176.5" y="-435" font-family="Helvetica,sans-Serif" font-size="10.00">js_async_generator</text>
<text text-anchor="middle" x="224" y="-424" font-family="Helvetica,sans-Serif" font-size="10.00">_resolve_or_reject</text>
</a>
</g>
</g>
<!-- Node22&#45;&gt;Node33 -->
<g id="edge19" class="edge">
<title>Node22&#45;&gt;Node33</title>
<path fill="none" stroke="midnightblue" d="M369.22,-414.23C343.91,-417.34 308.95,-421.65 279.79,-425.25"/>
<polygon fill="midnightblue" stroke="midnightblue" points="369.93,-417.66 379.43,-412.97 369.07,-410.72 369.93,-417.66"/>
</g>
<!-- Node36 -->
<g id="node19" class="node">
<title>Node36</title>
<g id="a_node19"><a xlink:href="quickjs_8c.html#afd4ef2d701fa0702f321925b61c57bbf" target="_top" xlink:title=" ">
<polygon fill="none" stroke="red" points="160,-378.5 160,-397.5 288,-397.5 288,-378.5 160,-378.5"/>
<text text-anchor="middle" x="224" y="-385.5" font-family="Helvetica,sans-Serif" font-size="10.00">js_call_bound_function</text>
</a>
</g>
</g>
<!-- Node22&#45;&gt;Node36 -->
<g id="edge20" class="edge">
<title>Node22&#45;&gt;Node36</title>
<path fill="none" stroke="midnightblue" d="M369.49,-405.81C346.54,-402.98 315.56,-399.16 288.17,-395.79"/>
<polygon fill="midnightblue" stroke="midnightblue" points="369.07,-409.28 379.43,-407.03 369.93,-402.34 369.07,-409.28"/>
</g>
<!-- Node37 -->
<g id="node20" class="node">
<title>Node37</title>
<g id="a_node20"><a xlink:href="quickjs_8c.html#a6357b7fdae71c70c140e78e6c20cb5c2" target="_top" xlink:title=" ">
<polygon fill="none" stroke="red" points="159,-340.5 159,-359.5 289,-359.5 289,-340.5 159,-340.5"/>
<text text-anchor="middle" x="224" y="-347.5" font-family="Helvetica,sans-Serif" font-size="10.00">js_dynamic_import_job</text>
</a>
</g>
</g>
<!-- Node22&#45;&gt;Node37 -->
<g id="edge22" class="edge">
<title>Node22&#45;&gt;Node37</title>
<path fill="none" stroke="midnightblue" d="M369.49,-402.92C357.69,-399.92 344.53,-395.96 333,-391 315.77,-383.6 314.25,-376.36 297,-369 288.32,-365.3 278.74,-362.16 269.47,-359.57"/>
<polygon fill="midnightblue" stroke="midnightblue" points="368.89,-406.37 379.43,-405.3 370.52,-399.57 368.89,-406.37"/>
</g>
<!-- Node39 -->
<g id="node21" class="node">
<title>Node39</title>
<g id="a_node21"><a xlink:href="quickjs_8c.html#ad90c33b4aae1181151bda4a98ac2ef23" target="_top" xlink:title=" ">
<polygon fill="none" stroke="red" points="169,-284.5 169,-303.5 279,-303.5 279,-284.5 169,-284.5"/>
<text text-anchor="middle" x="224" y="-291.5" font-family="Helvetica,sans-Serif" font-size="10.00">JS_FlattenIntoArray</text>
</a>
</g>
</g>
<!-- Node22&#45;&gt;Node39 -->
<g id="edge23" class="edge">
<title>Node22&#45;&gt;Node39</title>
<path fill="none" stroke="midnightblue" d="M369.26,-406.19C356.9,-403.49 343.43,-398.88 333,-391 308.18,-372.26 319.7,-352.26 297,-331 284.07,-318.9 266.43,-309.74 251.84,-303.57"/>
<polygon fill="midnightblue" stroke="midnightblue" points="368.83,-409.67 379.3,-408.04 370.1,-402.79 368.83,-409.67"/>
</g>
<!-- Node41 -->
<g id="node22" class="node">
<title>Node41</title>
<g id="a_node22"><a xlink:href="quickjs_8c.html#a8d4b24969540aff427939eeda47f451d" target="_top" xlink:title=" ">
<polygon fill="none" stroke="red" points="173,-38.5 173,-57.5 275,-57.5 275,-38.5 173,-38.5"/>
<text text-anchor="middle" x="224" y="-45.5" font-family="Helvetica,sans-Serif" font-size="10.00">js_function_apply</text>
</a>
</g>
</g>
<!-- Node22&#45;&gt;Node41 -->
<g id="edge25" class="edge">
<title>Node22&#45;&gt;Node41</title>
<path fill="none" stroke="midnightblue" d="M369.03,-408.72C355.88,-406.4 341.92,-401.4 333,-391 238.66,-281.04 391.63,-176.71 297,-67 291.26,-60.34 283.49,-55.88 275.17,-52.92"/>
<polygon fill="midnightblue" stroke="midnightblue" points="368.93,-412.23 379.29,-410.04 369.82,-405.29 368.93,-412.23"/>
</g>
<!-- Node44 -->
<g id="node23" class="node">
<title>Node44</title>
<g id="a_node23"><a xlink:href="quickjs_8c.html#a677ad630a103e1f3d5129e0549112b50" target="_top" xlink:title=" ">
<polygon fill="none" stroke="black" points="178,-246.5 178,-265.5 270,-265.5 270,-246.5 178,-246.5"/>
<text text-anchor="middle" x="224" y="-253.5" font-family="Helvetica,sans-Serif" font-size="10.00">js_function_call</text>
</a>
</g>
</g>
<!-- Node22&#45;&gt;Node44 -->
<g id="edge27" class="edge">
<title>Node22&#45;&gt;Node44</title>
<path fill="none" stroke="midnightblue" d="M369.41,-407.71C356.57,-405.23 342.73,-400.37 333,-391 294.12,-353.56 335.98,-312.34 297,-275 289.63,-267.93 279.95,-263.42 270.09,-260.56"/>
<polygon fill="midnightblue" stroke="midnightblue" points="368.99,-411.19 379.4,-409.23 370.04,-404.27 368.99,-411.19"/>
</g>
<!-- Node45 -->
<g id="node24" class="node">
<title>Node45</title>
<g id="a_node24"><a xlink:href="quickjs_8c.html#aa049793cc8648d35fe81876a2543ca4e" target="_top" xlink:title=" ">
<polygon fill="none" stroke="red" points="179,-208.5 179,-227.5 269,-227.5 269,-208.5 179,-208.5"/>
<text text-anchor="middle" x="224" y="-215.5" font-family="Helvetica,sans-Serif" font-size="10.00">JS_GetIterator2</text>
</a>
</g>
</g>
<!-- Node22&#45;&gt;Node45 -->
<g id="edge28" class="edge">
<title>Node22&#45;&gt;Node45</title>
<path fill="none" stroke="midnightblue" d="M369.35,-408.11C356.37,-405.7 342.46,-400.78 333,-391 284.14,-340.47 345.99,-287.4 297,-237 289.61,-229.4 279.57,-224.72 269.33,-221.87"/>
<polygon fill="midnightblue" stroke="midnightblue" points="369.05,-411.61 379.45,-409.56 370.05,-404.68 369.05,-411.61"/>
</g>
<!-- Node75 -->
<g id="node25" class="node">
<title>Node75</title>
<g id="a_node25"><a xlink:href="quickjs_8c.html#ad6303fbd3add4afa0cb64b0aa6d431ce" target="_top" xlink:title=" ">
<polygon fill="none" stroke="red" points="176,-170.5 176,-189.5 272,-189.5 272,-170.5 176,-170.5"/>
<text text-anchor="middle" x="224" y="-177.5" font-family="Helvetica,sans-Serif" font-size="10.00">JS_IteratorNext2</text>
</a>
</g>
</g>
<!-- Node22&#45;&gt;Node75 -->
<g id="edge29" class="edge">
<title>Node22&#45;&gt;Node75</title>
<path fill="none" stroke="midnightblue" d="M369.13,-408.32C356.12,-405.94 342.24,-400.99 333,-391 274.05,-327.26 356.12,-262.58 297,-199 290.4,-191.9 281.48,-187.33 272.18,-184.41"/>
<polygon fill="midnightblue" stroke="midnightblue" points="368.88,-411.82 379.27,-409.73 369.84,-404.89 368.88,-411.82"/>
</g>
<!-- Node78 -->
<g id="node26" class="node">
<title>Node78</title>
<g id="a_node26"><a xlink:href="quickjs_8c.html#a0da6493b4bc0edb7ddddfab807241d0b" target="_top" xlink:title=" ">
<polygon fill="none" stroke="red" points="182,-0.5 182,-19.5 266,-19.5 266,-0.5 182,-0.5"/>
<text text-anchor="middle" x="224" y="-7.5" font-family="Helvetica,sans-Serif" font-size="10.00">js_json_check</text>
</a>
</g>
</g>
<!-- Node22&#45;&gt;Node78 -->
<g id="edge31" class="edge">
<title>Node22&#45;&gt;Node78</title>
<path fill="none" stroke="midnightblue" d="M368.97,-408.77C355.81,-406.46 341.86,-401.45 333,-391 228.43,-267.69 401.89,-152.04 297,-29 289.28,-19.95 277.81,-14.95 266.29,-12.26"/>
<polygon fill="midnightblue" stroke="midnightblue" points="368.88,-412.28 379.24,-410.09 369.77,-405.34 368.88,-412.28"/>
</g>
<!-- Node82 -->
<g id="node27" class="node">
<title>Node82</title>
<g id="a_node27"><a xlink:href="quickjs_8c.html#adc0280beaa04d2b8fcaf05a82ab26c74" target="_top" xlink:title=" ">
<polygon fill="none" stroke="red" points="179,-114.5 179,-133.5 269,-133.5 269,-114.5 179,-114.5"/>
<text text-anchor="middle" x="224" y="-121.5" font-family="Helvetica,sans-Serif" font-size="10.00">js_link_module</text>
</a>
</g>
</g>
<!-- Node22&#45;&gt;Node82 -->
<g id="edge32" class="edge">
<title>Node22&#45;&gt;Node82</title>
<path fill="none" stroke="midnightblue" d="M369.26,-408.51C356.15,-406.17 342.15,-401.2 333,-391 263.89,-314 357.6,-244.87 297,-161 287.62,-148.01 272.31,-139.26 258.22,-133.54"/>
<polygon fill="midnightblue" stroke="midnightblue" points="369.11,-412.02 379.48,-409.88 370.03,-405.09 369.11,-412.02"/>
</g>
<!-- Node70 -->
<g id="node28" class="node">
<title>Node70</title>
<g id="a_node28"><a xlink:href="quickjs_8c.html#a27dcb5e2923cd6c0201c70546d704748" target="_top" xlink:title=" ">
<polygon fill="none" stroke="red" points="168,-76.5 168,-95.5 280,-95.5 280,-76.5 168,-76.5"/>
<text text-anchor="middle" x="224" y="-83.5" font-family="Helvetica,sans-Serif" font-size="10.00">js_map_constructor</text>
</a>
</g>
</g>
<!-- Node22&#45;&gt;Node70 -->
<g id="edge34" class="edge">
<title>Node22&#45;&gt;Node70</title>
<path fill="none" stroke="midnightblue" d="M369.11,-408.65C355.97,-406.33 342,-401.33 333,-391 248.87,-294.38 381.38,-201.4 297,-105 292.4,-99.75 286.54,-95.86 280.15,-93.01"/>
<polygon fill="midnightblue" stroke="midnightblue" points="368.98,-412.16 379.35,-409.99 369.89,-405.22 368.98,-412.16"/>
</g>
<!-- Node25&#45;&gt;Node25 -->
<g id="edge11" class="edge">
<title>Node25&#45;&gt;Node25</title>
<path fill="none" stroke="midnightblue" d="M255.06,-722.27C254.18,-727.74 243.82,-732 224,-732 194.5,-732 185.97,-722.57 198.41,-713.76"/>
<polygon fill="midnightblue" stroke="midnightblue" points="257.94,-720.27 249.59,-713.76 252.05,-724.06 257.94,-720.27"/>
</g>
<!-- Node39&#45;&gt;Node39 -->
<g id="edge24" class="edge">
<title>Node39&#45;&gt;Node39</title>
<path fill="none" stroke="midnightblue" d="M255.06,-312.27C254.18,-317.74 243.82,-322 224,-322 194.5,-322 185.97,-312.57 198.41,-303.76"/>
<polygon fill="midnightblue" stroke="midnightblue" points="257.94,-310.27 249.59,-303.76 252.05,-314.06 257.94,-310.27"/>
</g>
<!-- Node41&#45;&gt;Node2 -->
<g id="edge26" class="edge">
<title>Node41&#45;&gt;Node2</title>
<path fill="none" stroke="midnightblue" d="M284.64,-57.36C289.26,-59.9 293.49,-63.06 297,-67 371.15,-150.11 258.6,-232.12 333,-315 336.09,-318.44 452.24,-347.12 515.07,-362.44"/>
<polygon fill="midnightblue" stroke="midnightblue" points="285.92,-54.09 275.36,-53.21 283.06,-60.48 285.92,-54.09"/>
</g>
<!-- Node75&#45;&gt;Node31 -->
<g id="edge30" class="edge">
<title>Node75&#45;&gt;Node31</title>
<path fill="none" stroke="midnightblue" d="M165.98,-190.61C160.65,-192.88 155.55,-195.64 151,-199 103.44,-234.05 74.66,-301.58 63.65,-331.77"/>
<polygon fill="midnightblue" stroke="midnightblue" points="167.57,-193.75 175.74,-187.01 165.15,-187.18 167.57,-193.75"/>
</g>
<!-- Node82&#45;&gt;Node82 -->
<g id="edge33" class="edge">
<title>Node82&#45;&gt;Node82</title>
<path fill="none" stroke="midnightblue" d="M255.06,-142.27C254.18,-147.74 243.82,-152 224,-152 194.5,-152 185.97,-142.57 198.41,-133.76"/>
<polygon fill="midnightblue" stroke="midnightblue" points="257.94,-140.27 249.59,-133.76 252.05,-144.06 257.94,-140.27"/>
</g>
<!-- Node108&#45;&gt;Node2 -->
<g id="edge36" class="edge">
<title>Node108&#45;&gt;Node2</title>
<path fill="none" stroke="midnightblue" d="M486.08,-378.73C494.94,-378.67 503.68,-378.49 511.8,-378.17"/>
<polygon fill="midnightblue" stroke="midnightblue" points="486.05,-375.23 476.05,-378.74 486.06,-382.23 486.05,-375.23"/>
</g>
<!-- Node122&#45;&gt;Node2 -->
<g id="edge38" class="edge">
<title>Node122&#45;&gt;Node2</title>
<path fill="none" stroke="midnightblue" d="M427.05,-309.42C441.31,-314.96 460.22,-321.25 476,-329 495.81,-338.73 516.56,-352.66 531.74,-362.33"/>
<polygon fill="midnightblue" stroke="midnightblue" points="428.18,-306.1 417.6,-305.5 425.5,-312.56 428.18,-306.1"/>
</g>
<!-- Node122&#45;&gt;Node78 -->
<g id="edge39" class="edge">
<title>Node122&#45;&gt;Node78</title>
<path fill="none" stroke="midnightblue" d="M401.63,-276.53C395.82,-227.27 373.61,-96.82 297,-29 288.48,-21.46 277.31,-16.86 266.32,-14.07"/>
<polygon fill="midnightblue" stroke="midnightblue" points="398.15,-276.93 402.7,-286.49 405.11,-276.17 398.15,-276.93"/>
</g>
</g>
</svg>
