<?xml version="1.0" encoding="UTF-8" standalone="no"?>
<!DOCTYPE svg PUBLIC "-//W3C//DTD SVG 1.1//EN"
 "http://www.w3.org/Graphics/SVG/1.1/DTD/svg11.dtd">
<!-- Generated by graphviz version 2.43.0 (0)
 -->
<!-- Title: js_operator_delete Pages: 1 -->
<!--zoomable 721 -->
<svg id="main" version="1.1" xmlns="http://www.w3.org/2000/svg" xmlns:xlink="http://www.w3.org/1999/xlink" xml:space="preserve" onload="init(evt)">
<style type="text/css"><![CDATA[
.edge:hover path { stroke: red; }
.edge:hover polygon { stroke: red; fill: red; }
]]></style>
<script type="text/javascript"><![CDATA[
var edges = document.getElementsByTagName('g');
if (edges && edges.length) {
  for (var i=0;i<edges.length;i++) {
    if (edges[i].id.substr(0,4)=='edge') {
      edges[i].setAttribute('class','edge');
    }
  }
}
]]></script>
        <defs>
                <circle id="rim" cx="0" cy="0" r="7"/>
                <circle id="rim2" cx="0" cy="0" r="3.5"/>
                <g id="zoomPlus">
                        <use xlink:href="#rim" fill="#404040">
                                <set attributeName="fill" to="#808080" begin="zoomplus.mouseover" end="zoomplus.mouseout"/>
                        </use>
                        <path d="M-4,0h8M0,-4v8" fill="none" stroke="white" stroke-width="1.5" pointer-events="none"/>
                </g>
                <g id="zoomMin">
                        <use xlink:href="#rim" fill="#404040">
                                <set attributeName="fill" to="#808080" begin="zoomminus.mouseover" end="zoomminus.mouseout"/>
                        </use>
                        <path d="M-4,0h8" fill="none" stroke="white" stroke-width="1.5" pointer-events="none"/>
                </g>
                <g id="dirArrow">
                        <path fill="none" stroke="white" stroke-width="1.5" d="M0,-3.0v7 M-2.5,-0.5L0,-3.0L2.5,-0.5"/>
                </g>
               <g id="resetDef">
                       <use xlink:href="#rim2" fill="#404040">
                               <set attributeName="fill" to="#808080" begin="reset.mouseover" end="reset.mouseout"/>
                       </use>
               </g>
        </defs>

<script type="text/javascript">
var viewWidth = 859;
var viewHeight = 721;
var sectionId = 'dynsection-787';
</script>
<script xlink:href="svgpan.js"/>
<svg id="graph" class="graph">
<g id="viewport">
<title>js_operator_delete</title>
<!-- Node1 -->
<g id="node1" class="node">
<title>Node1</title>
<g id="a_node1"><a xlink:title=" ">
<polygon fill="#bfbfbf" stroke="black" points="0,-354.5 0,-373.5 107,-373.5 107,-354.5 0,-354.5"/>
<text text-anchor="middle" x="53.5" y="-361.5" font-family="Helvetica,sans-Serif" font-size="10.00">js_operator_delete</text>
</a>
</g>
</g>
<!-- Node2 -->
<g id="node2" class="node">
<title>Node2</title>
<g id="a_node2"><a xlink:href="quickjs_8c.html#a2b88ed25233c441cbed7b0a027c9ee2f" target="_top" xlink:title=" ">
<polygon fill="none" stroke="black" points="143,-449.5 143,-468.5 247,-468.5 247,-449.5 143,-449.5"/>
<text text-anchor="middle" x="195" y="-456.5" font-family="Helvetica,sans-Serif" font-size="10.00">JS_DeleteProperty</text>
</a>
</g>
</g>
<!-- Node1&#45;&gt;Node2 -->
<g id="edge1" class="edge">
<title>Node1&#45;&gt;Node2</title>
<path fill="none" stroke="midnightblue" d="M68.64,-373.63C92.87,-390.13 142.51,-423.94 171.53,-443.7"/>
<polygon fill="midnightblue" stroke="midnightblue" points="169.58,-446.61 179.82,-449.34 173.52,-440.82 169.58,-446.61"/>
</g>
<!-- Node57 -->
<g id="node11" class="node">
<title>Node57</title>
<g id="a_node11"><a xlink:href="quickjs_8c.html#ab7fc45a99935a1c0ba50b0216d9401a9" target="_top" xlink:title=" ">
<polygon fill="none" stroke="red" points="439.5,-0.5 439.5,-19.5 517.5,-19.5 517.5,-0.5 439.5,-0.5"/>
<text text-anchor="middle" x="478.5" y="-7.5" font-family="Helvetica,sans-Serif" font-size="10.00">JS_FreeAtom</text>
</a>
</g>
</g>
<!-- Node1&#45;&gt;Node57 -->
<g id="edge28" class="edge">
<title>Node1&#45;&gt;Node57</title>
<path fill="none" stroke="midnightblue" d="M63.1,-354.47C100.97,-312.92 257.84,-145.05 413,-41 422.72,-34.48 434.01,-28.57 444.41,-23.69"/>
<polygon fill="midnightblue" stroke="midnightblue" points="445.97,-26.83 453.64,-19.52 443.09,-20.45 445.97,-26.83"/>
</g>
<!-- Node58 -->
<g id="node12" class="node">
<title>Node58</title>
<g id="a_node12"><a xlink:href="quickjs_8h.html#afaa20c47565bc704c6c85f3d77254e7d" target="_top" xlink:title=" ">
<polygon fill="none" stroke="red" points="611,-392.5 611,-411.5 690,-411.5 690,-392.5 611,-392.5"/>
<text text-anchor="middle" x="650.5" y="-399.5" font-family="Helvetica,sans-Serif" font-size="10.00">JS_FreeValue</text>
</a>
</g>
</g>
<!-- Node1&#45;&gt;Node58 -->
<g id="edge29" class="edge">
<title>Node1&#45;&gt;Node58</title>
<path fill="none" stroke="midnightblue" d="M107.04,-367.36C221.08,-374.64 489.9,-391.81 600.58,-398.88"/>
<polygon fill="midnightblue" stroke="midnightblue" points="600.58,-402.38 610.78,-399.53 601.03,-395.4 600.58,-402.38"/>
</g>
<!-- Node373 -->
<g id="node21" class="node">
<title>Node373</title>
<g id="a_node21"><a xlink:href="quickjs_8h.html#a93abffa925714e249a6aa2f4ae7900f6" target="_top" xlink:title=" ">
<polygon fill="none" stroke="black" points="158,-126.5 158,-145.5 232,-145.5 232,-126.5 158,-126.5"/>
<text text-anchor="middle" x="195" y="-133.5" font-family="Helvetica,sans-Serif" font-size="10.00">JS_NewBool</text>
</a>
</g>
</g>
<!-- Node1&#45;&gt;Node373 -->
<g id="edge30" class="edge">
<title>Node1&#45;&gt;Node373</title>
<path fill="none" stroke="midnightblue" d="M56.22,-354.12C62.28,-322.01 85.48,-219.3 143,-160 146.61,-156.28 150.92,-153.07 155.47,-150.31"/>
<polygon fill="midnightblue" stroke="midnightblue" points="157.22,-153.35 164.42,-145.58 153.94,-147.16 157.22,-153.35"/>
</g>
<!-- Node160 -->
<g id="node22" class="node">
<title>Node160</title>
<g id="a_node22"><a xlink:href="quickjs_8c.html#a859d5c989a2aaecef1653b3ac279e108" target="_top" xlink:title=" ">
<polygon fill="none" stroke="red" points="147.5,-629.5 147.5,-648.5 242.5,-648.5 242.5,-629.5 147.5,-629.5"/>
<text text-anchor="middle" x="195" y="-636.5" font-family="Helvetica,sans-Serif" font-size="10.00">JS_ValueToAtom</text>
</a>
</g>
</g>
<!-- Node1&#45;&gt;Node160 -->
<g id="edge31" class="edge">
<title>Node1&#45;&gt;Node160</title>
<path fill="none" stroke="midnightblue" d="M59.46,-373.79C79.85,-413.97 157.3,-566.65 184.49,-620.26"/>
<polygon fill="midnightblue" stroke="midnightblue" points="181.45,-622 189.09,-629.33 187.69,-618.83 181.45,-622"/>
</g>
<!-- Node3 -->
<g id="node3" class="node">
<title>Node3</title>
<g id="a_node3"><a xlink:href="quickjs_8c.html#a2b9a2014cb970af5b5b7dde00afbdffa" target="_top" xlink:title=" ">
<polygon fill="none" stroke="black" points="283,-202.5 283,-221.5 377,-221.5 377,-202.5 283,-202.5"/>
<text text-anchor="middle" x="330" y="-209.5" font-family="Helvetica,sans-Serif" font-size="10.00">delete_property</text>
</a>
</g>
</g>
<!-- Node2&#45;&gt;Node3 -->
<g id="edge2" class="edge">
<title>Node2&#45;&gt;Node3</title>
<path fill="none" stroke="midnightblue" d="M201.21,-449.32C221.12,-412.35 292.53,-279.73 319.02,-230.54"/>
<polygon fill="midnightblue" stroke="midnightblue" points="322.16,-232.08 323.82,-221.62 316,-228.76 322.16,-232.08"/>
</g>
<!-- Node2&#45;&gt;Node58 -->
<g id="edge16" class="edge">
<title>Node2&#45;&gt;Node58</title>
<path fill="none" stroke="midnightblue" d="M243.22,-449.42C287.05,-440.84 354.19,-428.49 413,-421 477.71,-412.75 552.88,-407.44 600.79,-404.58"/>
<polygon fill="midnightblue" stroke="midnightblue" points="601.1,-408.07 610.88,-403.99 600.69,-401.08 601.1,-408.07"/>
</g>
<!-- Node71 -->
<g id="node13" class="node">
<title>Node71</title>
<g id="a_node13"><a xlink:href="quickjs_8c.html#a686cf78f8b0361621ee2ba6182195c31" target="_top" xlink:title=" ">
<polygon fill="none" stroke="black" points="286,-677.5 286,-696.5 374,-696.5 374,-677.5 286,-677.5"/>
<text text-anchor="middle" x="330" y="-684.5" font-family="Helvetica,sans-Serif" font-size="10.00">is_strict_mode</text>
</a>
</g>
</g>
<!-- Node2&#45;&gt;Node71 -->
<g id="edge15" class="edge">
<title>Node2&#45;&gt;Node71</title>
<path fill="none" stroke="midnightblue" d="M197.74,-468.79C203.85,-500.6 227.05,-602.52 283,-663 286.27,-666.53 290.18,-669.64 294.32,-672.34"/>
<polygon fill="midnightblue" stroke="midnightblue" points="292.59,-675.38 303,-677.32 296.07,-669.31 292.59,-675.38"/>
</g>
<!-- Node72 -->
<g id="node14" class="node">
<title>Node72</title>
<g id="a_node14"><a xlink:href="quickjs_8h.html#ad80a83d73e9b7d872b88fbf2943aebe9" target="_top" xlink:title=" ">
<polygon fill="none" stroke="black" points="607,-582.5 607,-601.5 694,-601.5 694,-582.5 607,-582.5"/>
<text text-anchor="middle" x="650.5" y="-589.5" font-family="Helvetica,sans-Serif" font-size="10.00">JS_IsException</text>
</a>
</g>
</g>
<!-- Node2&#45;&gt;Node72 -->
<g id="edge17" class="edge">
<title>Node2&#45;&gt;Node72</title>
<path fill="none" stroke="midnightblue" d="M202.82,-468.68C226.88,-501.84 311.76,-610.94 413,-649 467.5,-669.49 487.55,-663.27 544,-649 575.65,-641 608.1,-621.41 628.51,-607.44"/>
<polygon fill="midnightblue" stroke="midnightblue" points="630.56,-610.27 636.73,-601.66 626.54,-604.55 630.56,-610.27"/>
</g>
<!-- Node73 -->
<g id="node15" class="node">
<title>Node73</title>
<g id="a_node15"><a xlink:href="quickjs_8c.html#a710289a14c2810467e5b448d3c28bd55" target="_top" xlink:title=" ">
<polygon fill="none" stroke="black" points="293.5,-506.5 293.5,-525.5 366.5,-525.5 366.5,-506.5 293.5,-506.5"/>
<text text-anchor="middle" x="330" y="-513.5" font-family="Helvetica,sans-Serif" font-size="10.00">JS_ToObject</text>
</a>
</g>
</g>
<!-- Node2&#45;&gt;Node73 -->
<g id="edge18" class="edge">
<title>Node2&#45;&gt;Node73</title>
<path fill="none" stroke="midnightblue" d="M218.26,-468.54C239.94,-477.83 273.08,-492.04 297.47,-502.49"/>
<polygon fill="midnightblue" stroke="midnightblue" points="296.1,-505.71 306.67,-506.43 298.85,-499.27 296.1,-505.71"/>
</g>
<!-- Node4 -->
<g id="node4" class="node">
<title>Node4</title>
<g id="a_node4"><a xlink:href="quickjs_8c.html#ab638a184d14e8b02ab3ea38b393c7cad" target="_top" xlink:title=" ">
<polygon fill="none" stroke="red" points="422,-164.5 422,-183.5 535,-183.5 535,-164.5 422,-164.5"/>
<text text-anchor="middle" x="478.5" y="-171.5" font-family="Helvetica,sans-Serif" font-size="10.00">compact_properties</text>
</a>
</g>
</g>
<!-- Node3&#45;&gt;Node4 -->
<g id="edge3" class="edge">
<title>Node3&#45;&gt;Node4</title>
<path fill="none" stroke="midnightblue" d="M367.97,-202.41C387.13,-197.44 410.71,-191.32 431.09,-186.04"/>
<polygon fill="midnightblue" stroke="midnightblue" points="432,-189.42 440.8,-183.52 430.24,-182.64 432,-189.42"/>
</g>
<!-- Node6 -->
<g id="node5" class="node">
<title>Node6</title>
<g id="a_node5"><a xlink:href="quickjs_8c.html#acab22c2945c4d609e57a2484feb68a96" target="_top" xlink:title=" ">
<polygon fill="none" stroke="black" points="605.5,-183.5 605.5,-202.5 695.5,-202.5 695.5,-183.5 605.5,-183.5"/>
<text text-anchor="middle" x="650.5" y="-190.5" font-family="Helvetica,sans-Serif" font-size="10.00">prop_hash_end</text>
</a>
</g>
</g>
<!-- Node3&#45;&gt;Node6 -->
<g id="edge14" class="edge">
<title>Node3&#45;&gt;Node6</title>
<path fill="none" stroke="midnightblue" d="M377.31,-209.24C435.13,-205.79 533.87,-199.9 595.19,-196.24"/>
<polygon fill="midnightblue" stroke="midnightblue" points="595.67,-199.72 605.44,-195.63 595.25,-192.73 595.67,-199.72"/>
</g>
<!-- Node19 -->
<g id="node6" class="node">
<title>Node19</title>
<g id="a_node6"><a xlink:href="quickjs_8c.html#ac93c982cb636a5430b191d104083af3e" target="_top" xlink:title=" ">
<polygon fill="none" stroke="red" points="424.5,-77 424.5,-107 532.5,-107 532.5,-77 424.5,-77"/>
<text text-anchor="start" x="432.5" y="-95" font-family="Helvetica,sans-Serif" font-size="10.00">convert_fast_array</text>
<text text-anchor="middle" x="478.5" y="-84" font-family="Helvetica,sans-Serif" font-size="10.00">_to_array</text>
</a>
</g>
</g>
<!-- Node3&#45;&gt;Node19 -->
<g id="edge5" class="edge">
<title>Node3&#45;&gt;Node19</title>
<path fill="none" stroke="midnightblue" d="M355.69,-202.46C363.15,-198.74 370.96,-193.93 377,-188 400.84,-164.59 388.63,-144.86 413,-122 416.84,-118.4 421.19,-115.16 425.78,-112.27"/>
<polygon fill="midnightblue" stroke="midnightblue" points="427.85,-115.12 434.82,-107.13 424.39,-109.03 427.85,-115.12"/>
</g>
<!-- Node66 -->
<g id="node7" class="node">
<title>Node66</title>
<g id="a_node7"><a xlink:href="quickjs_8c.html#a3dd8e78607dbc729614deacf55901b95" target="_top" xlink:title=" ">
<polygon fill="none" stroke="red" points="580,-82.5 580,-101.5 721,-101.5 721,-82.5 580,-82.5"/>
<text text-anchor="middle" x="650.5" y="-89.5" font-family="Helvetica,sans-Serif" font-size="10.00">js_shape_prepare_update</text>
</a>
</g>
</g>
<!-- Node3&#45;&gt;Node66 -->
<g id="edge13" class="edge">
<title>Node3&#45;&gt;Node66</title>
<path fill="none" stroke="midnightblue" d="M352.28,-202.35C360.3,-198.35 369.33,-193.38 377,-188 394.77,-175.54 393.96,-165.43 413,-155 429.4,-146.01 535.13,-119.58 599.54,-103.96"/>
<polygon fill="midnightblue" stroke="midnightblue" points="600.61,-107.3 609.5,-101.55 598.96,-100.5 600.61,-107.3"/>
</g>
<!-- Node24 -->
<g id="node8" class="node">
<title>Node24</title>
<g id="a_node8"><a xlink:href="quickjs_8c.html#a643df594b75933007bcdbb071b5ea8c5" target="_top" xlink:title=" ">
<polygon fill="none" stroke="black" points="757,-60.5 757,-79.5 851,-79.5 851,-60.5 757,-60.5"/>
<text text-anchor="middle" x="804" y="-67.5" font-family="Helvetica,sans-Serif" font-size="10.00">get_shape_prop</text>
</a>
</g>
</g>
<!-- Node3&#45;&gt;Node24 -->
<g id="edge9" class="edge">
<title>Node3&#45;&gt;Node24</title>
<path fill="none" stroke="midnightblue" d="M357.91,-202.46C364.95,-198.86 371.96,-194.12 377,-188 412.69,-144.71 368.02,-100.54 413,-67 464.19,-28.82 651.68,-48.53 746.82,-61.55"/>
<polygon fill="midnightblue" stroke="midnightblue" points="746.45,-65.04 756.84,-62.95 747.42,-58.1 746.45,-65.04"/>
</g>
<!-- Node62 -->
<g id="node9" class="node">
<title>Node62</title>
<g id="a_node9"><a xlink:href="quickjs_8c.html#af4274494e2e45f9018154ffcbb7e89e4" target="_top" xlink:title=" ">
<polygon fill="none" stroke="red" points="437,-278.5 437,-297.5 520,-297.5 520,-278.5 437,-278.5"/>
<text text-anchor="middle" x="478.5" y="-285.5" font-family="Helvetica,sans-Serif" font-size="10.00">free_property</text>
</a>
</g>
</g>
<!-- Node3&#45;&gt;Node62 -->
<g id="edge8" class="edge">
<title>Node3&#45;&gt;Node62</title>
<path fill="none" stroke="midnightblue" d="M342.22,-221.57C357.37,-234.07 385.64,-255.89 413,-269 417.68,-271.24 422.69,-273.28 427.76,-275.12"/>
<polygon fill="midnightblue" stroke="midnightblue" points="426.93,-278.53 437.52,-278.4 429.16,-271.9 426.93,-278.53"/>
</g>
<!-- Node67 -->
<g id="node10" class="node">
<title>Node67</title>
<g id="a_node10"><a xlink:href="quickjs_8c.html#aae16c5cdefab4e9dd9866993a7f0150e" target="_top" xlink:title=" ">
<polygon fill="none" stroke="red" points="419,-240.5 419,-259.5 538,-259.5 538,-240.5 419,-240.5"/>
<text text-anchor="middle" x="478.5" y="-247.5" font-family="Helvetica,sans-Serif" font-size="10.00">JS_AtomIsArrayIndex</text>
</a>
</g>
</g>
<!-- Node3&#45;&gt;Node67 -->
<g id="edge10" class="edge">
<title>Node3&#45;&gt;Node67</title>
<path fill="none" stroke="midnightblue" d="M367.97,-221.59C387.13,-226.56 410.71,-232.68 431.09,-237.96"/>
<polygon fill="midnightblue" stroke="midnightblue" points="430.24,-241.36 440.8,-240.48 432,-234.58 430.24,-241.36"/>
</g>
<!-- Node3&#45;&gt;Node57 -->
<g id="edge11" class="edge">
<title>Node3&#45;&gt;Node57</title>
<path fill="none" stroke="midnightblue" d="M358.63,-202.4C365.5,-198.84 372.25,-194.12 377,-188 420.08,-132.46 366.54,-86.75 413,-34 417.62,-28.76 423.49,-24.66 429.8,-21.46"/>
<polygon fill="midnightblue" stroke="midnightblue" points="431.47,-24.55 439.27,-17.37 428.7,-18.12 431.47,-24.55"/>
</g>
<!-- Node3&#45;&gt;Node58 -->
<g id="edge12" class="edge">
<title>Node3&#45;&gt;Node58</title>
<path fill="none" stroke="midnightblue" d="M336.73,-221.6C348.58,-240.65 377.65,-283.44 413,-307 463.99,-340.99 487.27,-326.84 544,-350 571.54,-361.24 601.9,-376.53 622.96,-387.62"/>
<polygon fill="midnightblue" stroke="midnightblue" points="621.46,-390.78 631.93,-392.39 624.74,-384.6 621.46,-390.78"/>
</g>
<!-- Node4&#45;&gt;Node6 -->
<g id="edge4" class="edge">
<title>Node4&#45;&gt;Node6</title>
<path fill="none" stroke="midnightblue" d="M535.16,-180.22C554.45,-182.38 576.04,-184.79 595.22,-186.93"/>
<polygon fill="midnightblue" stroke="midnightblue" points="594.97,-190.43 605.3,-188.06 595.75,-183.47 594.97,-190.43"/>
</g>
<!-- Node19&#45;&gt;Node66 -->
<g id="edge6" class="edge">
<title>Node19&#45;&gt;Node66</title>
<path fill="none" stroke="midnightblue" d="M532.82,-92C544.58,-92 557.28,-92 569.82,-92"/>
<polygon fill="midnightblue" stroke="midnightblue" points="569.83,-95.5 579.83,-92 569.83,-88.5 569.83,-95.5"/>
</g>
<!-- Node66&#45;&gt;Node24 -->
<g id="edge7" class="edge">
<title>Node66&#45;&gt;Node24</title>
<path fill="none" stroke="midnightblue" d="M717.07,-82.48C727.04,-81.03 737.25,-79.55 746.99,-78.13"/>
<polygon fill="midnightblue" stroke="midnightblue" points="747.55,-81.59 756.95,-76.69 746.55,-74.66 747.55,-81.59"/>
</g>
<!-- Node73&#45;&gt;Node72 -->
<g id="edge22" class="edge">
<title>Node73&#45;&gt;Node72</title>
<path fill="none" stroke="midnightblue" d="M366.5,-514.84C409.46,-514.41 483.56,-516.82 544,-535 574.91,-544.3 607.08,-563.24 627.64,-576.74"/>
<polygon fill="midnightblue" stroke="midnightblue" points="625.71,-579.66 635.97,-582.32 629.61,-573.84 625.71,-579.66"/>
</g>
<!-- Node74 -->
<g id="node16" class="node">
<title>Node74</title>
<g id="a_node16"><a xlink:href="quickjs_8c.html#a0a8765bd4012467d9139bc24aabcb3ca" target="_top" xlink:title=" ">
<polygon fill="none" stroke="red" points="413,-430.5 413,-449.5 544,-449.5 544,-430.5 413,-430.5"/>
<text text-anchor="middle" x="478.5" y="-437.5" font-family="Helvetica,sans-Serif" font-size="10.00">JS_DefinePropertyValue</text>
</a>
</g>
</g>
<!-- Node73&#45;&gt;Node74 -->
<g id="edge19" class="edge">
<title>Node73&#45;&gt;Node74</title>
<path fill="none" stroke="midnightblue" d="M342.22,-506.43C357.37,-493.93 385.64,-472.11 413,-459 417.68,-456.76 422.69,-454.72 427.76,-452.88"/>
<polygon fill="midnightblue" stroke="midnightblue" points="429.16,-456.1 437.52,-449.6 426.93,-449.47 429.16,-456.1"/>
</g>
<!-- Node37 -->
<g id="node17" class="node">
<title>Node37</title>
<g id="a_node17"><a xlink:href="quickjs_8h.html#a775522f2d084fc8fa0fcb33f390006b4" target="_top" xlink:title=" ">
<polygon fill="none" stroke="black" points="440,-582.5 440,-601.5 517,-601.5 517,-582.5 440,-582.5"/>
<text text-anchor="middle" x="478.5" y="-589.5" font-family="Helvetica,sans-Serif" font-size="10.00">JS_DupValue</text>
</a>
</g>
</g>
<!-- Node73&#45;&gt;Node37 -->
<g id="edge21" class="edge">
<title>Node73&#45;&gt;Node37</title>
<path fill="none" stroke="midnightblue" d="M342.22,-525.57C357.37,-538.07 385.64,-559.89 413,-573 418.4,-575.59 424.21,-577.9 430.07,-579.94"/>
<polygon fill="midnightblue" stroke="midnightblue" points="429.31,-583.37 439.9,-583.13 431.47,-576.72 429.31,-583.37"/>
</g>
<!-- Node136 -->
<g id="node18" class="node">
<title>Node136</title>
<g id="a_node18"><a xlink:href="quickjs_8h.html#a2050bc428da1c65ac7eb87c3fa3b0392" target="_top" xlink:title=" ">
<polygon fill="none" stroke="black" points="440,-544.5 440,-563.5 517,-563.5 517,-544.5 440,-544.5"/>
<text text-anchor="middle" x="478.5" y="-551.5" font-family="Helvetica,sans-Serif" font-size="10.00">JS_NewInt32</text>
</a>
</g>
</g>
<!-- Node73&#45;&gt;Node136 -->
<g id="edge23" class="edge">
<title>Node73&#45;&gt;Node136</title>
<path fill="none" stroke="midnightblue" d="M366.84,-525.3C386.13,-530.3 410.15,-536.53 430.88,-541.91"/>
<polygon fill="midnightblue" stroke="midnightblue" points="430.2,-545.35 440.76,-544.47 431.96,-538.57 430.2,-545.35"/>
</g>
<!-- Node232 -->
<g id="node19" class="node">
<title>Node232</title>
<g id="a_node19"><a xlink:href="quickjs_8c.html#a659dc0db7e440fd6eb012d613627faa3" target="_top" xlink:title=" ">
<polygon fill="none" stroke="red" points="423.5,-620.5 423.5,-639.5 533.5,-639.5 533.5,-620.5 423.5,-620.5"/>
<text text-anchor="middle" x="478.5" y="-627.5" font-family="Helvetica,sans-Serif" font-size="10.00">JS_NewObjectClass</text>
</a>
</g>
</g>
<!-- Node73&#45;&gt;Node232 -->
<g id="edge24" class="edge">
<title>Node73&#45;&gt;Node232</title>
<path fill="none" stroke="midnightblue" d="M336.67,-525.69C348.4,-544.91 377.29,-587.98 413,-611 416.18,-613.05 419.59,-614.88 423.12,-616.53"/>
<polygon fill="midnightblue" stroke="midnightblue" points="422.08,-619.88 432.66,-620.44 424.73,-613.41 422.08,-619.88"/>
</g>
<!-- Node434 -->
<g id="node20" class="node">
<title>Node434</title>
<g id="a_node20"><a xlink:href="quickjs_8c.html#a5cfd8b63940fcb5151b4df41e32dc68c" target="_top" xlink:title=" ">
<polygon fill="none" stroke="black" points="428,-468.5 428,-487.5 529,-487.5 529,-468.5 428,-468.5"/>
<text text-anchor="middle" x="478.5" y="-475.5" font-family="Helvetica,sans-Serif" font-size="10.00">JS_SetObjectData</text>
</a>
</g>
</g>
<!-- Node73&#45;&gt;Node434 -->
<g id="edge25" class="edge">
<title>Node73&#45;&gt;Node434</title>
<path fill="none" stroke="midnightblue" d="M366.84,-506.7C386.13,-501.7 410.15,-495.47 430.88,-490.09"/>
<polygon fill="midnightblue" stroke="midnightblue" points="431.96,-493.43 440.76,-487.53 430.2,-486.65 431.96,-493.43"/>
</g>
<!-- Node74&#45;&gt;Node58 -->
<g id="edge20" class="edge">
<title>Node74&#45;&gt;Node58</title>
<path fill="none" stroke="midnightblue" d="M522.4,-430.41C546.34,-425.06 576.26,-418.37 601.05,-412.83"/>
<polygon fill="midnightblue" stroke="midnightblue" points="601.98,-416.21 610.97,-410.61 600.45,-409.38 601.98,-416.21"/>
</g>
<!-- Node434&#45;&gt;Node58 -->
<g id="edge26" class="edge">
<title>Node434&#45;&gt;Node58</title>
<path fill="none" stroke="midnightblue" d="M516.8,-468.45C525.83,-465.75 535.37,-462.56 544,-459 573.04,-447.03 604.5,-429.37 625.44,-416.88"/>
<polygon fill="midnightblue" stroke="midnightblue" points="627.52,-419.71 634.27,-411.55 623.9,-413.72 627.52,-419.71"/>
</g>
<!-- Node434&#45;&gt;Node72 -->
<g id="edge27" class="edge">
<title>Node434&#45;&gt;Node72</title>
<path fill="none" stroke="midnightblue" d="M512,-487.6C522.57,-491.36 534.11,-496.19 544,-502 579.03,-522.58 613.72,-555.14 633.3,-574.94"/>
<polygon fill="midnightblue" stroke="midnightblue" points="631.01,-577.6 640.49,-582.33 636.02,-572.72 631.01,-577.6"/>
</g>
<!-- Node160&#45;&gt;Node72 -->
<g id="edge32" class="edge">
<title>Node160&#45;&gt;Node72</title>
<path fill="none" stroke="midnightblue" d="M204.43,-648.73C218.72,-664.38 249.43,-694.57 283,-706 322.55,-719.46 335.33,-708.98 377,-706 451.79,-700.65 475.67,-712.88 544,-682 581.6,-665.01 616.14,-630.43 634.87,-609.43"/>
<polygon fill="midnightblue" stroke="midnightblue" points="637.75,-611.44 641.67,-601.6 632.47,-606.85 637.75,-611.44"/>
</g>
</g>
</svg>
        <g id="navigator" transform="translate(0 0)" fill="#404254">
                <rect fill="#f2f5e9" fill-opacity="0.5" stroke="#606060" stroke-width=".5" x="0" y="0" width="60" height="60"/>
                <use id="zoomplus" xlink:href="#zoomPlus" x="17" y="9" onmousedown="handleZoom(evt,'in')"/>
                <use id="zoomminus" xlink:href="#zoomMin" x="42" y="9" onmousedown="handleZoom(evt,'out')"/>
                <use id="reset" xlink:href="#resetDef" x="30" y="36" onmousedown="handleReset()"/>
                <g id="arrowUp" xlink:href="#dirArrow" transform="translate(30 24)" onmousedown="handlePan(0,-1)">
                  <use xlink:href="#rim" fill="#404040">
                        <set attributeName="fill" to="#808080" begin="arrowUp.mouseover" end="arrowUp.mouseout"/>
                  </use>
                  <path fill="none" stroke="white" stroke-width="1.5" d="M0,-3.0v7 M-2.5,-0.5L0,-3.0L2.5,-0.5"/>
                </g>
                <g id="arrowRight" xlink:href="#dirArrow" transform="rotate(90) translate(36 -43)" onmousedown="handlePan(1,0)">
                  <use xlink:href="#rim" fill="#404040">
                        <set attributeName="fill" to="#808080" begin="arrowRight.mouseover" end="arrowRight.mouseout"/>
                  </use>
                  <path fill="none" stroke="white" stroke-width="1.5" d="M0,-3.0v7 M-2.5,-0.5L0,-3.0L2.5,-0.5"/>
                </g>
                <g id="arrowDown" xlink:href="#dirArrow" transform="rotate(180) translate(-30 -48)" onmousedown="handlePan(0,1)">
                  <use xlink:href="#rim" fill="#404040">
                        <set attributeName="fill" to="#808080" begin="arrowDown.mouseover" end="arrowDown.mouseout"/>
                  </use>
                  <path fill="none" stroke="white" stroke-width="1.5" d="M0,-3.0v7 M-2.5,-0.5L0,-3.0L2.5,-0.5"/>
                </g>
                <g id="arrowLeft" xlink:href="#dirArrow" transform="rotate(270) translate(-36 17)" onmousedown="handlePan(-1,0)">
                  <use xlink:href="#rim" fill="#404040">
                        <set attributeName="fill" to="#808080" begin="arrowLeft.mouseover" end="arrowLeft.mouseout"/>
                  </use>
                  <path fill="none" stroke="white" stroke-width="1.5" d="M0,-3.0v7 M-2.5,-0.5L0,-3.0L2.5,-0.5"/>
                </g>
        </g>
        <svg viewBox="0 0 15 15" width="100%" height="30px" preserveAspectRatio="xMaxYMin meet">
         <g id="arrow_out" transform="scale(0.3 0.3)">
          <a xlink:href="quickjs_8c_a9b6302f1a5bc5d5d8f1951777433e516_cgraph_org.svg" target="_base">
           <rect id="button" ry="5" rx="5" y="6" x="6" height="38" width="38"
                fill="#f2f5e9" fill-opacity="0.5" stroke="#606060" stroke-width="1.0"/>
           <path id="arrow"
             d="M 11.500037,31.436501 C 11.940474,20.09759 22.043105,11.32322 32.158766,21.979434 L 37.068811,17.246167 C 37.068811,17.246167 37.088388,32 37.088388,32 L 22.160133,31.978069 C 22.160133,31.978069 26.997745,27.140456 26.997745,27.140456 C 18.528582,18.264221 13.291696,25.230495 11.500037,31.436501 z"
             style="fill:#404040;"/>
          </a>
         </g>
        </svg>
</svg>
