<?xml version="1.0" encoding="UTF-8" standalone="no"?>
<!DOCTYPE svg PUBLIC "-//W3C//DTD SVG 1.1//EN"
 "http://www.w3.org/Graphics/SVG/1.1/DTD/svg11.dtd">
<!-- Generated by graphviz version 2.43.0 (0)
 -->
<!-- Title: js_malloc_usable_size_unknown Pages: 1 -->
<svg width="560pt" height="66pt"
 viewBox="0.00 0.00 560.00 66.00" xmlns="http://www.w3.org/2000/svg" xmlns:xlink="http://www.w3.org/1999/xlink">
<g id="graph0" class="graph" transform="scale(1 1) rotate(0) translate(4 62)">
<title>js_malloc_usable_size_unknown</title>
<!-- Node1 -->
<g id="node1" class="node">
<title>Node1</title>
<g id="a_node1"><a xlink:title=" ">
<polygon fill="#bfbfbf" stroke="black" points="427,-14 427,-44 552,-44 552,-14 427,-14"/>
<text text-anchor="start" x="435" y="-32" font-family="Helvetica,sans-Serif" font-size="10.00">js_malloc_usable_size</text>
<text text-anchor="middle" x="489.5" y="-21" font-family="Helvetica,sans-Serif" font-size="10.00">_unknown</text>
</a>
</g>
</g>
<!-- Node2 -->
<g id="node2" class="node">
<title>Node2</title>
<g id="a_node2"><a xlink:href="quickjs_8c.html#a27966451027feb455b5da12c1578771c" target="_top" xlink:title=" ">
<polygon fill="none" stroke="black" points="291,-19.5 291,-38.5 391,-38.5 391,-19.5 291,-19.5"/>
<text text-anchor="middle" x="341" y="-26.5" font-family="Helvetica,sans-Serif" font-size="10.00">JS_NewRuntime2</text>
</a>
</g>
</g>
<!-- Node1&#45;&gt;Node2 -->
<g id="edge1" class="edge">
<title>Node1&#45;&gt;Node2</title>
<path fill="none" stroke="midnightblue" d="M416.7,-29C408.06,-29 399.39,-29 391.18,-29"/>
<polygon fill="midnightblue" stroke="midnightblue" points="416.8,-32.5 426.8,-29 416.8,-25.5 416.8,-32.5"/>
</g>
<!-- Node3 -->
<g id="node3" class="node">
<title>Node3</title>
<g id="a_node3"><a xlink:href="quickjs_8c.html#afc1ca27a266094085ebb43e2eea0dda2" target="_top" xlink:title=" ">
<polygon fill="none" stroke="black" points="161,-19.5 161,-38.5 255,-38.5 255,-19.5 161,-19.5"/>
<text text-anchor="middle" x="208" y="-26.5" font-family="Helvetica,sans-Serif" font-size="10.00">JS_NewRuntime</text>
</a>
</g>
</g>
<!-- Node2&#45;&gt;Node3 -->
<g id="edge2" class="edge">
<title>Node2&#45;&gt;Node3</title>
<path fill="none" stroke="midnightblue" d="M280.63,-29C272.16,-29 263.56,-29 255.39,-29"/>
<polygon fill="midnightblue" stroke="midnightblue" points="280.85,-32.5 290.85,-29 280.85,-25.5 280.85,-32.5"/>
</g>
<!-- Node4 -->
<g id="node4" class="node">
<title>Node4</title>
<g id="a_node4"><a xlink:href="classqjs_1_1Runtime.html#a0860a1339ff567f9f603c7bed4d670f9" target="_top" xlink:title=" ">
<polygon fill="none" stroke="black" points="0,-38.5 0,-57.5 125,-57.5 125,-38.5 0,-38.5"/>
<text text-anchor="middle" x="62.5" y="-45.5" font-family="Helvetica,sans-Serif" font-size="10.00">qjs::Runtime::Runtime</text>
</a>
</g>
</g>
<!-- Node3&#45;&gt;Node4 -->
<g id="edge3" class="edge">
<title>Node3&#45;&gt;Node4</title>
<path fill="none" stroke="midnightblue" d="M150.72,-36.45C142.29,-37.57 133.57,-38.72 125.05,-39.85"/>
<polygon fill="midnightblue" stroke="midnightblue" points="151.35,-39.9 160.81,-35.12 150.43,-32.96 151.35,-39.9"/>
</g>
<!-- Node5 -->
<g id="node5" class="node">
<title>Node5</title>
<g id="a_node5"><a xlink:href="quickjs-libc_8c.html#a1fbb3adc15e7b967479fc1940e99b67a" target="_top" xlink:title=" ">
<polygon fill="none" stroke="red" points="24.5,-0.5 24.5,-19.5 100.5,-19.5 100.5,-0.5 24.5,-0.5"/>
<text text-anchor="middle" x="62.5" y="-7.5" font-family="Helvetica,sans-Serif" font-size="10.00">worker_func</text>
</a>
</g>
</g>
<!-- Node3&#45;&gt;Node5 -->
<g id="edge4" class="edge">
<title>Node3&#45;&gt;Node5</title>
<path fill="none" stroke="midnightblue" d="M150.53,-21.52C133.73,-19.3 115.75,-16.92 100.52,-14.9"/>
<polygon fill="midnightblue" stroke="midnightblue" points="150.43,-25.04 160.81,-22.88 151.35,-18.1 150.43,-25.04"/>
</g>
</g>
</svg>
