<?xml version="1.0" encoding="UTF-8" standalone="no"?>
<!DOCTYPE svg PUBLIC "-//W3C//DTD SVG 1.1//EN"
 "http://www.w3.org/Graphics/SVG/1.1/DTD/svg11.dtd">
<!-- Generated by graphviz version 2.43.0 (0)
 -->
<!-- Title: JS_IsArray Pages: 1 -->
<svg width="515pt" height="567pt"
 viewBox="0.00 0.00 515.00 567.00" xmlns="http://www.w3.org/2000/svg" xmlns:xlink="http://www.w3.org/1999/xlink">
<g id="graph0" class="graph" transform="scale(1 1) rotate(0) translate(4 563)">
<title>JS_IsArray</title>
<!-- Node1 -->
<g id="node1" class="node">
<title>Node1</title>
<g id="a_node1"><a xlink:title=" ">
<polygon fill="#bfbfbf" stroke="black" points="442,-263.5 442,-282.5 507,-282.5 507,-263.5 442,-263.5"/>
<text text-anchor="middle" x="474.5" y="-270.5" font-family="Helvetica,sans-Serif" font-size="10.00">JS_IsArray</text>
</a>
</g>
</g>
<!-- Node2 -->
<g id="node2" class="node">
<title>Node2</title>
<g id="a_node2"><a xlink:href="quickjs_8c.html#a624282391413d4c5a030adbd8b77aa80" target="_top" xlink:title=" ">
<polygon fill="none" stroke="black" points="266,-521.5 266,-540.5 406,-540.5 406,-521.5 266,-521.5"/>
<text text-anchor="middle" x="336" y="-528.5" font-family="Helvetica,sans-Serif" font-size="10.00">internalize_json_property</text>
</a>
</g>
</g>
<!-- Node1&#45;&gt;Node2 -->
<g id="edge1" class="edge">
<title>Node1&#45;&gt;Node2</title>
<path fill="none" stroke="midnightblue" d="M474.01,-292.92C474.03,-338.45 467.47,-450.93 406,-512 402.12,-515.85 397.54,-518.94 392.61,-521.42"/>
<polygon fill="midnightblue" stroke="midnightblue" points="477.5,-292.81 473.89,-282.86 470.5,-292.9 477.5,-292.81"/>
</g>
<!-- Node4 -->
<g id="node4" class="node">
<title>Node4</title>
<g id="a_node4"><a xlink:href="structqjs_1_1js__traits_3_01std_1_1variant_3_01Ts_8_8_8_01_4_01_4.html#aab1e9e5434b52ebdfd0acacddefc47c1" target="_top" xlink:title=" ">
<polygon fill="none" stroke="black" points="281,-461.5 281,-502.5 391,-502.5 391,-461.5 281,-461.5"/>
<text text-anchor="start" x="289" y="-490.5" font-family="Helvetica,sans-Serif" font-size="10.00">qjs::js_traits&lt; std</text>
<text text-anchor="start" x="289" y="-479.5" font-family="Helvetica,sans-Serif" font-size="10.00">::variant&lt; Ts... &gt; &gt;</text>
<text text-anchor="middle" x="336" y="-468.5" font-family="Helvetica,sans-Serif" font-size="10.00">::isCompatible</text>
</a>
</g>
</g>
<!-- Node1&#45;&gt;Node4 -->
<g id="edge4" class="edge">
<title>Node1&#45;&gt;Node4</title>
<path fill="none" stroke="midnightblue" d="M471.14,-292.7C465.83,-328.78 449.8,-405.98 406,-452 401.68,-456.54 396.55,-460.44 391.07,-463.76"/>
<polygon fill="midnightblue" stroke="midnightblue" points="474.64,-292.9 472.51,-282.53 467.7,-291.97 474.64,-292.9"/>
</g>
<!-- Node5 -->
<g id="node5" class="node">
<title>Node5</title>
<g id="a_node5"><a xlink:href="quickjs_8c.html#a4f1b84557871cd95dd21e469e2b38efb" target="_top" xlink:title=" ">
<polygon fill="none" stroke="black" points="288.5,-423.5 288.5,-442.5 383.5,-442.5 383.5,-423.5 288.5,-423.5"/>
<text text-anchor="middle" x="336" y="-430.5" font-family="Helvetica,sans-Serif" font-size="10.00">js_array_isArray</text>
</a>
</g>
</g>
<!-- Node1&#45;&gt;Node5 -->
<g id="edge5" class="edge">
<title>Node1&#45;&gt;Node5</title>
<path fill="none" stroke="midnightblue" d="M469.62,-292.41C462.49,-322.91 444.38,-381.9 406,-414 399.61,-419.34 391.84,-423.19 383.85,-425.96"/>
<polygon fill="midnightblue" stroke="midnightblue" points="473.05,-293.07 471.76,-282.56 466.21,-291.58 473.05,-293.07"/>
</g>
<!-- Node6 -->
<g id="node6" class="node">
<title>Node6</title>
<g id="a_node6"><a xlink:href="quickjs_8c.html#a3b818b1ca9d2d4aaa9b55b1cc54c1bc4" target="_top" xlink:title=" ">
<polygon fill="none" stroke="black" points="272.5,-347.5 272.5,-366.5 399.5,-366.5 399.5,-347.5 272.5,-347.5"/>
<text text-anchor="middle" x="336" y="-354.5" font-family="Helvetica,sans-Serif" font-size="10.00">JS_ArraySpeciesCreate</text>
</a>
</g>
</g>
<!-- Node1&#45;&gt;Node6 -->
<g id="edge6" class="edge">
<title>Node1&#45;&gt;Node6</title>
<path fill="none" stroke="midnightblue" d="M459.39,-290.86C446.86,-305.56 427.27,-325.89 406,-338 399.2,-341.87 391.56,-344.99 383.92,-347.49"/>
<polygon fill="midnightblue" stroke="midnightblue" points="462.25,-292.89 465.91,-282.95 456.85,-288.44 462.25,-292.89"/>
</g>
<!-- Node11 -->
<g id="node11" class="node">
<title>Node11</title>
<g id="a_node11"><a xlink:href="quickjs_8c.html#ad90c33b4aae1181151bda4a98ac2ef23" target="_top" xlink:title=" ">
<polygon fill="none" stroke="black" points="281,-291.5 281,-310.5 391,-310.5 391,-291.5 281,-291.5"/>
<text text-anchor="middle" x="336" y="-298.5" font-family="Helvetica,sans-Serif" font-size="10.00">JS_FlattenIntoArray</text>
</a>
</g>
</g>
<!-- Node1&#45;&gt;Node11 -->
<g id="edge11" class="edge">
<title>Node1&#45;&gt;Node11</title>
<path fill="none" stroke="midnightblue" d="M431.67,-281.58C416.43,-284.71 399.12,-288.26 383.5,-291.46"/>
<polygon fill="midnightblue" stroke="midnightblue" points="432.75,-284.93 441.84,-279.49 431.34,-278.08 432.75,-284.93"/>
</g>
<!-- Node12 -->
<g id="node12" class="node">
<title>Node12</title>
<g id="a_node12"><a xlink:href="quickjs_8c.html#a8c41d5cf05e42294d414a1ac8b069874" target="_top" xlink:title=" ">
<polygon fill="none" stroke="black" points="272,-385.5 272,-404.5 400,-404.5 400,-385.5 272,-385.5"/>
<text text-anchor="middle" x="336" y="-392.5" font-family="Helvetica,sans-Serif" font-size="10.00">JS_isConcatSpreadable</text>
</a>
</g>
</g>
<!-- Node1&#45;&gt;Node12 -->
<g id="edge14" class="edge">
<title>Node1&#45;&gt;Node12</title>
<path fill="none" stroke="midnightblue" d="M466.01,-292.12C455.9,-315.43 435.67,-354.38 406,-376 400.68,-379.88 394.6,-382.96 388.31,-385.42"/>
<polygon fill="midnightblue" stroke="midnightblue" points="469.35,-293.2 469.94,-282.63 462.88,-290.53 469.35,-293.2"/>
</g>
<!-- Node13 -->
<g id="node13" class="node">
<title>Node13</title>
<g id="a_node13"><a xlink:href="quickjs_8c.html#a60d84dd116a9d7d912d08f298a4734dd" target="_top" xlink:title=" ">
<polygon fill="none" stroke="black" points="294.5,-235.5 294.5,-254.5 377.5,-254.5 377.5,-235.5 294.5,-235.5"/>
<text text-anchor="middle" x="336" y="-242.5" font-family="Helvetica,sans-Serif" font-size="10.00">js_json_to_str</text>
</a>
</g>
</g>
<!-- Node1&#45;&gt;Node13 -->
<g id="edge16" class="edge">
<title>Node1&#45;&gt;Node13</title>
<path fill="none" stroke="midnightblue" d="M432.02,-264.49C414.74,-260.95 394.74,-256.84 377.56,-253.32"/>
<polygon fill="midnightblue" stroke="midnightblue" points="431.34,-267.92 441.84,-266.51 432.75,-261.07 431.34,-267.92"/>
</g>
<!-- Node14 -->
<g id="node14" class="node">
<title>Node14</title>
<g id="a_node14"><a xlink:href="quickjs_8c.html#a343a343b16bc3c9875050e99ee0d2884" target="_top" xlink:title=" ">
<polygon fill="none" stroke="black" points="133,-225.5 133,-244.5 228,-244.5 228,-225.5 133,-225.5"/>
<text text-anchor="middle" x="180.5" y="-232.5" font-family="Helvetica,sans-Serif" font-size="10.00">JS_JSONStringify</text>
</a>
</g>
</g>
<!-- Node1&#45;&gt;Node14 -->
<g id="edge20" class="edge">
<title>Node1&#45;&gt;Node14</title>
<path fill="none" stroke="midnightblue" d="M456.08,-256.35C443.33,-245.38 425,-231.96 406,-226 343.85,-206.49 267.25,-216.27 221.5,-225.42"/>
<polygon fill="midnightblue" stroke="midnightblue" points="453.83,-259.03 463.61,-263.11 458.51,-253.83 453.83,-259.03"/>
</g>
<!-- Node16 -->
<g id="node16" class="node">
<title>Node16</title>
<g id="a_node16"><a xlink:href="quickjs_8c.html#ae69c38078aefed427b6c0d7b6870bd9c" target="_top" xlink:title=" ">
<polygon fill="none" stroke="black" points="284,-159.5 284,-178.5 388,-178.5 388,-159.5 284,-159.5"/>
<text text-anchor="middle" x="336" y="-166.5" font-family="Helvetica,sans-Serif" font-size="10.00">js_object_toString</text>
</a>
</g>
</g>
<!-- Node1&#45;&gt;Node16 -->
<g id="edge21" class="edge">
<title>Node1&#45;&gt;Node16</title>
<path fill="none" stroke="midnightblue" d="M462.46,-254.96C450.58,-236.93 430.1,-209.57 406,-193 397.01,-186.82 386.28,-182.08 375.98,-178.52"/>
<polygon fill="midnightblue" stroke="midnightblue" points="459.54,-256.88 467.87,-263.43 465.44,-253.11 459.54,-256.88"/>
</g>
<!-- Node18 -->
<g id="node18" class="node">
<title>Node18</title>
<g id="a_node18"><a xlink:href="structqjs_1_1js__traits_3_01std_1_1vector_3_01T_01_4_01_4.html#a9381fc53f1eaf830b702453ca29655f2" target="_top" xlink:title=" ">
<polygon fill="none" stroke="black" points="268.5,-110 268.5,-140 403.5,-140 403.5,-110 268.5,-110"/>
<text text-anchor="start" x="276.5" y="-128" font-family="Helvetica,sans-Serif" font-size="10.00">qjs::js_traits&lt; std</text>
<text text-anchor="middle" x="336" y="-117" font-family="Helvetica,sans-Serif" font-size="10.00">::vector&lt; T &gt; &gt;::unwrap</text>
</a>
</g>
</g>
<!-- Node1&#45;&gt;Node18 -->
<g id="edge23" class="edge">
<title>Node1&#45;&gt;Node18</title>
<path fill="none" stroke="midnightblue" d="M467.62,-253.35C458.6,-226.4 438.85,-178.13 406,-150 401.55,-146.19 396.47,-142.94 391.13,-140.17"/>
<polygon fill="midnightblue" stroke="midnightblue" points="464.38,-254.7 470.75,-263.16 471.05,-252.57 464.38,-254.7"/>
</g>
<!-- Node19 -->
<g id="node19" class="node">
<title>Node19</title>
<g id="a_node19"><a xlink:href="structqjs_1_1js__traits_3_01std_1_1pair_3_01U_00_01V_01_4_01_4.html#a3dc772998ef0f739b13e7ed8c3d5ac5f" target="_top" xlink:title=" ">
<polygon fill="none" stroke="black" points="267.5,-61 267.5,-91 404.5,-91 404.5,-61 267.5,-61"/>
<text text-anchor="start" x="275.5" y="-79" font-family="Helvetica,sans-Serif" font-size="10.00">qjs::js_traits&lt; std</text>
<text text-anchor="middle" x="336" y="-68" font-family="Helvetica,sans-Serif" font-size="10.00">::pair&lt; U, V &gt; &gt;::unwrap</text>
</a>
</g>
</g>
<!-- Node1&#45;&gt;Node19 -->
<g id="edge24" class="edge">
<title>Node1&#45;&gt;Node19</title>
<path fill="none" stroke="midnightblue" d="M471.18,-253.13C465.99,-217.52 450.21,-142.59 406,-100 402.44,-96.57 398.36,-93.62 394.01,-91.1"/>
<polygon fill="midnightblue" stroke="midnightblue" points="467.74,-253.76 472.52,-263.22 474.68,-252.85 467.74,-253.76"/>
</g>
<!-- Node20 -->
<g id="node20" class="node">
<title>Node20</title>
<g id="a_node20"><a xlink:href="structqjs_1_1js__traits_3_01std_1_1variant_3_01Ts_8_8_8_01_4_01_4.html#ad0acc455e15176f5fe805689db94930b" target="_top" xlink:title="Attempt to match class ID with type.">
<polygon fill="none" stroke="black" points="281,-0.5 281,-41.5 391,-41.5 391,-0.5 281,-0.5"/>
<text text-anchor="start" x="289" y="-29.5" font-family="Helvetica,sans-Serif" font-size="10.00">qjs::js_traits&lt; std</text>
<text text-anchor="start" x="289" y="-18.5" font-family="Helvetica,sans-Serif" font-size="10.00">::variant&lt; Ts... &gt; &gt;</text>
<text text-anchor="middle" x="336" y="-7.5" font-family="Helvetica,sans-Serif" font-size="10.00">::unwrapObj</text>
</a>
</g>
</g>
<!-- Node1&#45;&gt;Node20 -->
<g id="edge25" class="edge">
<title>Node1&#45;&gt;Node20</title>
<path fill="none" stroke="midnightblue" d="M472.84,-253.06C470.41,-210.64 459.03,-110.5 406,-51 401.74,-46.22 396.59,-42.17 391.03,-38.75"/>
<polygon fill="midnightblue" stroke="midnightblue" points="469.35,-253.36 473.31,-263.19 476.35,-253.04 469.35,-253.36"/>
</g>
<!-- Node2&#45;&gt;Node2 -->
<g id="edge2" class="edge">
<title>Node2&#45;&gt;Node2</title>
<path fill="none" stroke="midnightblue" d="M361.67,-550.03C360.27,-555.13 351.71,-559 336,-559 311.47,-559 304.38,-549.57 314.73,-540.76"/>
<polygon fill="midnightblue" stroke="midnightblue" points="364.72,-548.29 357.27,-540.76 358.39,-551.29 364.72,-548.29"/>
</g>
<!-- Node3 -->
<g id="node3" class="node">
<title>Node3</title>
<g id="a_node3"><a xlink:href="quickjs_8c.html#a8d95b2b91f50339b621237ad13f9cc47" target="_top" xlink:title=" ">
<polygon fill="none" stroke="black" points="139,-521.5 139,-540.5 222,-540.5 222,-521.5 139,-521.5"/>
<text text-anchor="middle" x="180.5" y="-528.5" font-family="Helvetica,sans-Serif" font-size="10.00">js_json_parse</text>
</a>
</g>
</g>
<!-- Node2&#45;&gt;Node3 -->
<g id="edge3" class="edge">
<title>Node2&#45;&gt;Node3</title>
<path fill="none" stroke="midnightblue" d="M255.68,-531C244.07,-531 232.53,-531 222.13,-531"/>
<polygon fill="midnightblue" stroke="midnightblue" points="255.88,-534.5 265.88,-531 255.88,-527.5 255.88,-534.5"/>
</g>
<!-- Node7 -->
<g id="node7" class="node">
<title>Node7</title>
<g id="a_node7"><a xlink:href="quickjs_8c.html#aaa85fa359f7aa8985f0299147272adef" target="_top" xlink:title=" ">
<polygon fill="none" stroke="black" points="134,-395.5 134,-414.5 227,-414.5 227,-395.5 134,-395.5"/>
<text text-anchor="middle" x="180.5" y="-402.5" font-family="Helvetica,sans-Serif" font-size="10.00">js_array_concat</text>
</a>
</g>
</g>
<!-- Node6&#45;&gt;Node7 -->
<g id="edge7" class="edge">
<title>Node6&#45;&gt;Node7</title>
<path fill="none" stroke="midnightblue" d="M288.82,-369.29C281.17,-371.45 273.35,-373.73 266,-376 246.44,-382.04 224.58,-389.56 208,-395.43"/>
<polygon fill="midnightblue" stroke="midnightblue" points="290.01,-372.59 298.71,-366.54 288.14,-365.85 290.01,-372.59"/>
</g>
<!-- Node8 -->
<g id="node8" class="node">
<title>Node8</title>
<g id="a_node8"><a xlink:href="quickjs_8c.html#aa0bbf08a7e91459c68a312fba7016c6d" target="_top" xlink:title=" ">
<polygon fill="none" stroke="black" points="136,-357.5 136,-376.5 225,-376.5 225,-357.5 136,-357.5"/>
<text text-anchor="middle" x="180.5" y="-364.5" font-family="Helvetica,sans-Serif" font-size="10.00">js_array_every</text>
</a>
</g>
</g>
<!-- Node6&#45;&gt;Node8 -->
<g id="edge8" class="edge">
<title>Node6&#45;&gt;Node8</title>
<path fill="none" stroke="midnightblue" d="M262.09,-361.75C249.5,-362.57 236.78,-363.4 225.28,-364.15"/>
<polygon fill="midnightblue" stroke="midnightblue" points="262.37,-365.24 272.12,-361.1 261.92,-358.25 262.37,-365.24"/>
</g>
<!-- Node9 -->
<g id="node9" class="node">
<title>Node9</title>
<g id="a_node9"><a xlink:href="quickjs_8c.html#a12e173fe76ae1141ef47318f9d0cbea7" target="_top" xlink:title=" ">
<polygon fill="none" stroke="black" points="134.5,-281.5 134.5,-300.5 226.5,-300.5 226.5,-281.5 134.5,-281.5"/>
<text text-anchor="middle" x="180.5" y="-288.5" font-family="Helvetica,sans-Serif" font-size="10.00">js_array_flatten</text>
</a>
</g>
</g>
<!-- Node6&#45;&gt;Node9 -->
<g id="edge9" class="edge">
<title>Node6&#45;&gt;Node9</title>
<path fill="none" stroke="midnightblue" d="M280.54,-344.2C275.52,-342.37 270.6,-340.31 266,-338 247.88,-328.91 247.62,-320.02 230,-310 223.71,-306.42 216.62,-303.23 209.83,-300.52"/>
<polygon fill="midnightblue" stroke="midnightblue" points="279.64,-347.59 290.24,-347.44 281.86,-340.95 279.64,-347.59"/>
</g>
<!-- Node10 -->
<g id="node10" class="node">
<title>Node10</title>
<g id="a_node10"><a xlink:href="quickjs_8c.html#a70b7ec8358ab99b905686d5bf80950cc" target="_top" xlink:title=" ">
<polygon fill="none" stroke="black" points="139,-319.5 139,-338.5 222,-338.5 222,-319.5 139,-319.5"/>
<text text-anchor="middle" x="180.5" y="-326.5" font-family="Helvetica,sans-Serif" font-size="10.00">js_array_slice</text>
</a>
</g>
</g>
<!-- Node6&#45;&gt;Node10 -->
<g id="edge10" class="edge">
<title>Node6&#45;&gt;Node10</title>
<path fill="none" stroke="midnightblue" d="M272.69,-345.63C255.61,-342.52 237.54,-339.22 222.03,-336.39"/>
<polygon fill="midnightblue" stroke="midnightblue" points="272.14,-349.09 282.6,-347.44 273.39,-342.2 272.14,-349.09"/>
</g>
<!-- Node11&#45;&gt;Node9 -->
<g id="edge12" class="edge">
<title>Node11&#45;&gt;Node9</title>
<path fill="none" stroke="midnightblue" d="M270.72,-296.81C255.85,-295.84 240.35,-294.83 226.51,-293.93"/>
<polygon fill="midnightblue" stroke="midnightblue" points="270.68,-300.32 280.88,-297.47 271.13,-293.33 270.68,-300.32"/>
</g>
<!-- Node11&#45;&gt;Node11 -->
<g id="edge13" class="edge">
<title>Node11&#45;&gt;Node11</title>
<path fill="none" stroke="midnightblue" d="M361.67,-320.03C360.27,-325.13 351.71,-329 336,-329 311.47,-329 304.38,-319.57 314.73,-310.76"/>
<polygon fill="midnightblue" stroke="midnightblue" points="364.72,-318.29 357.27,-310.76 358.39,-321.29 364.72,-318.29"/>
</g>
<!-- Node12&#45;&gt;Node7 -->
<g id="edge15" class="edge">
<title>Node12&#45;&gt;Node7</title>
<path fill="none" stroke="midnightblue" d="M261.5,-399.79C249.85,-400.55 238.1,-401.31 227.33,-402.01"/>
<polygon fill="midnightblue" stroke="midnightblue" points="261.93,-403.27 271.68,-399.13 261.47,-396.28 261.93,-403.27"/>
</g>
<!-- Node13&#45;&gt;Node13 -->
<g id="edge17" class="edge">
<title>Node13&#45;&gt;Node13</title>
<path fill="none" stroke="midnightblue" d="M361.67,-264.03C360.27,-269.13 351.71,-273 336,-273 311.47,-273 304.38,-263.57 314.73,-254.76"/>
<polygon fill="midnightblue" stroke="midnightblue" points="364.72,-262.29 357.27,-254.76 358.39,-265.29 364.72,-262.29"/>
</g>
<!-- Node13&#45;&gt;Node14 -->
<g id="edge18" class="edge">
<title>Node13&#45;&gt;Node14</title>
<path fill="none" stroke="midnightblue" d="M284.19,-241.69C266.11,-240.51 245.85,-239.19 228.13,-238.04"/>
<polygon fill="midnightblue" stroke="midnightblue" points="284.06,-245.19 294.27,-242.35 284.52,-238.2 284.06,-245.19"/>
</g>
<!-- Node15 -->
<g id="node15" class="node">
<title>Node15</title>
<g id="a_node15"><a xlink:href="quickjs_8c.html#ad2e4811daaaacb846df56bc88bd84e03" target="_top" xlink:title=" ">
<polygon fill="none" stroke="black" points="0,-225.5 0,-244.5 95,-244.5 95,-225.5 0,-225.5"/>
<text text-anchor="middle" x="47.5" y="-232.5" font-family="Helvetica,sans-Serif" font-size="10.00">js_json_stringify</text>
</a>
</g>
</g>
<!-- Node14&#45;&gt;Node15 -->
<g id="edge19" class="edge">
<title>Node14&#45;&gt;Node15</title>
<path fill="none" stroke="midnightblue" d="M122.75,-235C113.61,-235 104.23,-235 95.35,-235"/>
<polygon fill="midnightblue" stroke="midnightblue" points="122.95,-238.5 132.95,-235 122.95,-231.5 122.95,-238.5"/>
</g>
<!-- Node17 -->
<g id="node17" class="node">
<title>Node17</title>
<g id="a_node17"><a xlink:href="quickjs_8c.html#a2b86c3fdfa95b86030c1cbbc5f0ba0f5" target="_top" xlink:title=" ">
<polygon fill="none" stroke="black" points="131,-159.5 131,-178.5 230,-178.5 230,-159.5 131,-159.5"/>
<text text-anchor="middle" x="180.5" y="-166.5" font-family="Helvetica,sans-Serif" font-size="10.00">js_array_toString</text>
</a>
</g>
</g>
<!-- Node16&#45;&gt;Node17 -->
<g id="edge22" class="edge">
<title>Node16&#45;&gt;Node17</title>
<path fill="none" stroke="midnightblue" d="M273.52,-169C259.06,-169 243.85,-169 230.05,-169"/>
<polygon fill="midnightblue" stroke="midnightblue" points="273.89,-172.5 283.89,-169 273.89,-165.5 273.89,-172.5"/>
</g>
</g>
</svg>
