<?xml version="1.0" encoding="UTF-8" standalone="no"?>
<!DOCTYPE svg PUBLIC "-//W3C//DTD SVG 1.1//EN"
 "http://www.w3.org/Graphics/SVG/1.1/DTD/svg11.dtd">
<!-- Generated by graphviz version 2.43.0 (0)
 -->
<!-- Title: js_function_set_properties Pages: 1 -->
<!--zoomable 1038 -->
<svg id="main" version="1.1" xmlns="http://www.w3.org/2000/svg" xmlns:xlink="http://www.w3.org/1999/xlink" xml:space="preserve" onload="init(evt)">
<style type="text/css"><![CDATA[
.edge:hover path { stroke: red; }
.edge:hover polygon { stroke: red; fill: red; }
]]></style>
<script type="text/javascript"><![CDATA[
var edges = document.getElementsByTagName('g');
if (edges && edges.length) {
  for (var i=0;i<edges.length;i++) {
    if (edges[i].id.substr(0,4)=='edge') {
      edges[i].setAttribute('class','edge');
    }
  }
}
]]></script>
        <defs>
                <circle id="rim" cx="0" cy="0" r="7"/>
                <circle id="rim2" cx="0" cy="0" r="3.5"/>
                <g id="zoomPlus">
                        <use xlink:href="#rim" fill="#404040">
                                <set attributeName="fill" to="#808080" begin="zoomplus.mouseover" end="zoomplus.mouseout"/>
                        </use>
                        <path d="M-4,0h8M0,-4v8" fill="none" stroke="white" stroke-width="1.5" pointer-events="none"/>
                </g>
                <g id="zoomMin">
                        <use xlink:href="#rim" fill="#404040">
                                <set attributeName="fill" to="#808080" begin="zoomminus.mouseover" end="zoomminus.mouseout"/>
                        </use>
                        <path d="M-4,0h8" fill="none" stroke="white" stroke-width="1.5" pointer-events="none"/>
                </g>
                <g id="dirArrow">
                        <path fill="none" stroke="white" stroke-width="1.5" d="M0,-3.0v7 M-2.5,-0.5L0,-3.0L2.5,-0.5"/>
                </g>
               <g id="resetDef">
                       <use xlink:href="#rim2" fill="#404040">
                               <set attributeName="fill" to="#808080" begin="reset.mouseover" end="reset.mouseout"/>
                       </use>
               </g>
        </defs>

<script type="text/javascript">
var viewWidth = 1147;
var viewHeight = 1038;
var sectionId = 'dynsection-411';
</script>
<script xlink:href="svgpan.js"/>
<svg id="graph" class="graph">
<g id="viewport">
<title>js_function_set_properties</title>
<!-- Node1 -->
<g id="node1" class="node">
<title>Node1</title>
<g id="a_node1"><a xlink:title=" ">
<polygon fill="#bfbfbf" stroke="black" points="0,-218.52 0,-237.52 145,-237.52 145,-218.52 0,-218.52"/>
<text text-anchor="middle" x="72.5" y="-225.52" font-family="Helvetica,sans-Serif" font-size="10.00">js_function_set_properties</text>
</a>
</g>
</g>
<!-- Node2 -->
<g id="node2" class="node">
<title>Node2</title>
<g id="a_node2"><a xlink:href="quickjs_8c.html#a260bfa297ff6cb5bd18e229afaa54663" target="_top" xlink:title=" ">
<polygon fill="none" stroke="black" points="198.5,-484.52 198.5,-503.52 294.5,-503.52 294.5,-484.52 198.5,-484.52"/>
<text text-anchor="middle" x="246.5" y="-491.52" font-family="Helvetica,sans-Serif" font-size="10.00">JS_AtomToString</text>
</a>
</g>
</g>
<!-- Node1&#45;&gt;Node2 -->
<g id="edge1" class="edge">
<title>Node1&#45;&gt;Node2</title>
<path fill="none" stroke="midnightblue" d="M79.83,-237.81C105.27,-277.16 200.4,-424.27 233.81,-475.94"/>
<polygon fill="midnightblue" stroke="midnightblue" points="230.93,-477.93 239.3,-484.43 236.81,-474.13 230.93,-477.93"/>
</g>
<!-- Node30 -->
<g id="node8" class="node">
<title>Node30</title>
<g id="a_node8"><a xlink:href="quickjs_8c.html#a0a8765bd4012467d9139bc24aabcb3ca" target="_top" xlink:title=" ">
<polygon fill="none" stroke="black" points="181,-218.52 181,-237.52 312,-237.52 312,-218.52 181,-218.52"/>
<text text-anchor="middle" x="246.5" y="-225.52" font-family="Helvetica,sans-Serif" font-size="10.00">JS_DefinePropertyValue</text>
</a>
</g>
</g>
<!-- Node1&#45;&gt;Node30 -->
<g id="edge7" class="edge">
<title>Node1&#45;&gt;Node30</title>
<path fill="none" stroke="midnightblue" d="M145.45,-228.02C153.82,-228.02 162.38,-228.02 170.8,-228.02"/>
<polygon fill="midnightblue" stroke="midnightblue" points="170.96,-231.52 180.96,-228.02 170.96,-224.52 170.96,-231.52"/>
</g>
<!-- Node128 -->
<g id="node21" class="node">
<title>Node128</title>
<g id="a_node21"><a xlink:href="quickjs_8h.html#a2050bc428da1c65ac7eb87c3fa3b0392" target="_top" xlink:title=" ">
<polygon fill="none" stroke="black" points="900,-294.52 900,-313.52 977,-313.52 977,-294.52 900,-294.52"/>
<text text-anchor="middle" x="938.5" y="-301.52" font-family="Helvetica,sans-Serif" font-size="10.00">JS_NewInt32</text>
</a>
</g>
</g>
<!-- Node1&#45;&gt;Node128 -->
<g id="edge57" class="edge">
<title>Node1&#45;&gt;Node128</title>
<path fill="none" stroke="midnightblue" d="M80.04,-218.52C110.56,-175.37 244.11,-0.02 399,-0.02 399,-0.02 399,-0.02 581.5,-0.02 697.84,-0.02 744.22,0.34 832,-76.02 897.69,-133.17 925.08,-239.83 933.96,-284.04"/>
<polygon fill="midnightblue" stroke="midnightblue" points="930.57,-284.92 935.87,-294.09 937.44,-283.61 930.57,-284.92"/>
</g>
<!-- Node3 -->
<g id="node3" class="node">
<title>Node3</title>
<g id="a_node3"><a xlink:href="quickjs_8c.html#a06ff303a11e6641cbf1f6634e6a61811" target="_top" xlink:title=" ">
<polygon fill="none" stroke="black" points="528,-826.52 528,-845.52 633,-845.52 633,-826.52 528,-826.52"/>
<text text-anchor="middle" x="580.5" y="-833.52" font-family="Helvetica,sans-Serif" font-size="10.00">__JS_AtomToValue</text>
</a>
</g>
</g>
<!-- Node2&#45;&gt;Node3 -->
<g id="edge2" class="edge">
<title>Node2&#45;&gt;Node3</title>
<path fill="none" stroke="midnightblue" d="M251.79,-503.64C271.66,-546.99 359.15,-725.77 488,-812.02 496.99,-818.04 507.4,-822.55 517.92,-825.93"/>
<polygon fill="midnightblue" stroke="midnightblue" points="516.99,-829.3 527.57,-828.72 518.94,-822.58 516.99,-829.3"/>
</g>
<!-- Node4 -->
<g id="node4" class="node">
<title>Node4</title>
<g id="a_node4"><a xlink:href="quickjs_8c.html#a288254c06a39c9fca740a7abdad2834e" target="_top" xlink:title=" ">
<polygon fill="none" stroke="black" points="709,-674.52 709,-693.52 832,-693.52 832,-674.52 709,-674.52"/>
<text text-anchor="middle" x="770.5" y="-681.52" font-family="Helvetica,sans-Serif" font-size="10.00">__JS_AtomIsTaggedInt</text>
</a>
</g>
</g>
<!-- Node3&#45;&gt;Node4 -->
<g id="edge3" class="edge">
<title>Node3&#45;&gt;Node4</title>
<path fill="none" stroke="midnightblue" d="M592.62,-826.5C614.61,-807.73 665.29,-764.78 709,-730.02 721.84,-719.81 736.47,-708.67 748.13,-699.91"/>
<polygon fill="midnightblue" stroke="midnightblue" points="750.48,-702.53 756.39,-693.73 746.29,-696.92 750.48,-702.53"/>
</g>
<!-- Node5 -->
<g id="node5" class="node">
<title>Node5</title>
<g id="a_node5"><a xlink:href="quickjs_8c.html#a89f38938cee8077ce1fbba07946ed185" target="_top" xlink:title=" ">
<polygon fill="none" stroke="black" points="715.5,-636.52 715.5,-655.52 825.5,-655.52 825.5,-636.52 715.5,-636.52"/>
<text text-anchor="middle" x="770.5" y="-643.52" font-family="Helvetica,sans-Serif" font-size="10.00">__JS_AtomToUInt32</text>
</a>
</g>
</g>
<!-- Node3&#45;&gt;Node5 -->
<g id="edge4" class="edge">
<title>Node3&#45;&gt;Node5</title>
<path fill="none" stroke="midnightblue" d="M592.85,-826.46C611.46,-810.34 648.79,-776.07 673,-741.02 694.24,-710.27 680.81,-689.57 709,-665.02 710.96,-663.31 713.08,-661.76 715.3,-660.35"/>
<polygon fill="midnightblue" stroke="midnightblue" points="717.13,-663.34 724.32,-655.55 713.84,-657.16 717.13,-663.34"/>
</g>
<!-- Node6 -->
<g id="node6" class="node">
<title>Node6</title>
<g id="a_node6"><a xlink:href="quickjs_8h.html#a775522f2d084fc8fa0fcb33f390006b4" target="_top" xlink:title=" ">
<polygon fill="none" stroke="black" points="732,-864.52 732,-883.52 809,-883.52 809,-864.52 732,-864.52"/>
<text text-anchor="middle" x="770.5" y="-871.52" font-family="Helvetica,sans-Serif" font-size="10.00">JS_DupValue</text>
</a>
</g>
</g>
<!-- Node3&#45;&gt;Node6 -->
<g id="edge5" class="edge">
<title>Node3&#45;&gt;Node6</title>
<path fill="none" stroke="midnightblue" d="M628.94,-845.61C657.33,-851.35 693.29,-858.62 721.73,-864.37"/>
<polygon fill="midnightblue" stroke="midnightblue" points="721.35,-867.86 731.84,-866.41 722.74,-861 721.35,-867.86"/>
</g>
<!-- Node7 -->
<g id="node7" class="node">
<title>Node7</title>
<g id="a_node7"><a xlink:href="quickjs_8c.html#a0ee6a3654a6016393fac5e1c108f403a" target="_top" xlink:title=" ">
<polygon fill="none" stroke="red" points="730,-826.52 730,-845.52 811,-845.52 811,-826.52 730,-826.52"/>
<text text-anchor="middle" x="770.5" y="-833.52" font-family="Helvetica,sans-Serif" font-size="10.00">JS_NewString</text>
</a>
</g>
</g>
<!-- Node3&#45;&gt;Node7 -->
<g id="edge6" class="edge">
<title>Node3&#45;&gt;Node7</title>
<path fill="none" stroke="midnightblue" d="M633.37,-836.02C660.24,-836.02 692.89,-836.02 719.48,-836.02"/>
<polygon fill="midnightblue" stroke="midnightblue" points="719.72,-839.52 729.72,-836.02 719.72,-832.52 719.72,-839.52"/>
</g>
<!-- Node31 -->
<g id="node9" class="node">
<title>Node31</title>
<g id="a_node9"><a xlink:href="quickjs_8c.html#ab50618f1bf78e444caa6da0e3e2785d7" target="_top" xlink:title=" ">
<polygon fill="none" stroke="red" points="348,-484.52 348,-503.52 452,-503.52 452,-484.52 348,-484.52"/>
<text text-anchor="middle" x="400" y="-491.52" font-family="Helvetica,sans-Serif" font-size="10.00">JS_DefineProperty</text>
</a>
</g>
</g>
<!-- Node30&#45;&gt;Node31 -->
<g id="edge8" class="edge">
<title>Node30&#45;&gt;Node31</title>
<path fill="none" stroke="midnightblue" d="M253.07,-237.81C275.44,-277.08 358.93,-423.66 388.52,-475.62"/>
<polygon fill="midnightblue" stroke="midnightblue" points="385.55,-477.47 393.54,-484.43 391.63,-474.01 385.55,-477.47"/>
</g>
<!-- Node54 -->
<g id="node19" class="node">
<title>Node54</title>
<g id="a_node19"><a xlink:href="quickjs_8h.html#afaa20c47565bc704c6c85f3d77254e7d" target="_top" xlink:title=" ">
<polygon fill="none" stroke="red" points="731,-85.52 731,-104.52 810,-104.52 810,-85.52 731,-85.52"/>
<text text-anchor="middle" x="770.5" y="-92.52" font-family="Helvetica,sans-Serif" font-size="10.00">JS_FreeValue</text>
</a>
</g>
</g>
<!-- Node30&#45;&gt;Node54 -->
<g id="edge56" class="edge">
<title>Node30&#45;&gt;Node54</title>
<path fill="none" stroke="midnightblue" d="M256.36,-218.42C285.67,-187.46 383.56,-90.37 488,-57.02 566.33,-32.02 592.22,-41.69 673,-57.02 697.25,-61.63 723.21,-72.2 742.08,-81.02"/>
<polygon fill="midnightblue" stroke="midnightblue" points="740.73,-84.26 751.26,-85.44 743.77,-77.95 740.73,-84.26"/>
</g>
<!-- Node31&#45;&gt;Node4 -->
<g id="edge10" class="edge">
<title>Node31&#45;&gt;Node4</title>
<path fill="none" stroke="midnightblue" d="M402.79,-503.53C408.79,-532.53 431.13,-620.14 488,-658.02 551.62,-700.4 642.01,-700.83 703.06,-694.68"/>
<polygon fill="midnightblue" stroke="midnightblue" points="703.79,-698.12 713.35,-693.55 703.03,-691.16 703.79,-698.12"/>
</g>
<!-- Node31&#45;&gt;Node5 -->
<g id="edge11" class="edge">
<title>Node31&#45;&gt;Node5</title>
<path fill="none" stroke="midnightblue" d="M403.92,-503.6C412.25,-529.02 438.71,-598.18 488,-627.02 555.24,-666.37 647.59,-664.16 707.89,-656.84"/>
<polygon fill="midnightblue" stroke="midnightblue" points="708.56,-660.28 718.02,-655.53 707.66,-653.34 708.56,-660.28"/>
</g>
<!-- Node31&#45;&gt;Node6 -->
<g id="edge41" class="edge">
<title>Node31&#45;&gt;Node6</title>
<path fill="none" stroke="midnightblue" d="M401.52,-503.59C404.79,-559.34 424.36,-841.77 488,-893.02 561.59,-952.3 684.13,-911.45 740.05,-887.71"/>
<polygon fill="midnightblue" stroke="midnightblue" points="741.61,-890.85 749.38,-883.65 738.81,-884.44 741.61,-890.85"/>
</g>
<!-- Node32 -->
<g id="node10" class="node">
<title>Node32</title>
<g id="a_node10"><a xlink:href="quickjs_8c.html#a014abd680db53ab89cb133345742a59c" target="_top" xlink:title=" ">
<polygon fill="none" stroke="red" points="730.5,-142.52 730.5,-161.52 810.5,-161.52 810.5,-142.52 730.5,-142.52"/>
<text text-anchor="middle" x="770.5" y="-149.52" font-family="Helvetica,sans-Serif" font-size="10.00">__attribute__</text>
</a>
</g>
</g>
<!-- Node31&#45;&gt;Node32 -->
<g id="edge9" class="edge">
<title>Node31&#45;&gt;Node32</title>
<path fill="none" stroke="midnightblue" d="M402.2,-484.41C408.42,-436.08 438.69,-220.43 488,-179.02 553,-124.44 658.58,-131.27 720.3,-141.45"/>
<polygon fill="midnightblue" stroke="midnightblue" points="719.73,-144.9 730.18,-143.17 720.93,-138.01 719.73,-144.9"/>
</g>
<!-- Node428 -->
<g id="node11" class="node">
<title>Node428</title>
<g id="a_node11"><a xlink:href="quickjs_8c.html#a68c7ae36cec3bf8bbf6cc0868a71cc4b" target="_top" xlink:title=" ">
<polygon fill="none" stroke="black" points="512.5,-332.52 512.5,-351.52 648.5,-351.52 648.5,-332.52 512.5,-332.52"/>
<text text-anchor="middle" x="580.5" y="-339.52" font-family="Helvetica,sans-Serif" font-size="10.00">check_define_prop_flags</text>
</a>
</g>
</g>
<!-- Node31&#45;&gt;Node428 -->
<g id="edge12" class="edge">
<title>Node31&#45;&gt;Node428</title>
<path fill="none" stroke="midnightblue" d="M404.77,-484.24C414.57,-460.15 443.24,-397.66 488,-366.02 494.32,-361.56 501.41,-357.92 508.78,-354.97"/>
<polygon fill="midnightblue" stroke="midnightblue" points="509.99,-358.25 518.22,-351.57 507.62,-351.66 509.99,-358.25"/>
</g>
<!-- Node293 -->
<g id="node12" class="node">
<title>Node293</title>
<g id="a_node12"><a xlink:href="quickjs_8c.html#ac93c982cb636a5430b191d104083af3e" target="_top" xlink:title=" ">
<polygon fill="none" stroke="red" points="716.5,-739.02 716.5,-769.02 824.5,-769.02 824.5,-739.02 716.5,-739.02"/>
<text text-anchor="start" x="724.5" y="-757.02" font-family="Helvetica,sans-Serif" font-size="10.00">convert_fast_array</text>
<text text-anchor="middle" x="770.5" y="-746.02" font-family="Helvetica,sans-Serif" font-size="10.00">_to_array</text>
</a>
</g>
</g>
<!-- Node31&#45;&gt;Node293 -->
<g id="edge13" class="edge">
<title>Node31&#45;&gt;Node293</title>
<path fill="none" stroke="midnightblue" d="M403.7,-503.63C416.05,-547.32 467.52,-725.8 488,-741.02 550.58,-787.53 644.35,-781.17 706.21,-769.74"/>
<polygon fill="midnightblue" stroke="midnightblue" points="707.09,-773.14 716.24,-767.79 705.75,-766.27 707.09,-773.14"/>
</g>
<!-- Node149 -->
<g id="node13" class="node">
<title>Node149</title>
<g id="a_node13"><a xlink:href="quickjs_8c.html#a3dd8e78607dbc729614deacf55901b95" target="_top" xlink:title=" ">
<polygon fill="none" stroke="red" points="868,-766.52 868,-785.52 1009,-785.52 1009,-766.52 868,-766.52"/>
<text text-anchor="middle" x="938.5" y="-773.52" font-family="Helvetica,sans-Serif" font-size="10.00">js_shape_prepare_update</text>
</a>
</g>
</g>
<!-- Node31&#45;&gt;Node149 -->
<g id="edge55" class="edge">
<title>Node31&#45;&gt;Node149</title>
<path fill="none" stroke="midnightblue" d="M403.88,-503.79C418.29,-552.67 482.26,-768.68 488,-773.02 544.1,-815.48 744.16,-799.62 857.56,-786.53"/>
<polygon fill="midnightblue" stroke="midnightblue" points="858.06,-789.99 867.59,-785.35 857.25,-783.04 858.06,-789.99"/>
</g>
<!-- Node50 -->
<g id="node14" class="node">
<title>Node50</title>
<g id="a_node14"><a xlink:href="quickjs_8c.html#a643df594b75933007bcdbb071b5ea8c5" target="_top" xlink:title=" ">
<polygon fill="none" stroke="black" points="1045,-864.52 1045,-883.52 1139,-883.52 1139,-864.52 1045,-864.52"/>
<text text-anchor="middle" x="1092" y="-871.52" font-family="Helvetica,sans-Serif" font-size="10.00">get_shape_prop</text>
</a>
</g>
</g>
<!-- Node31&#45;&gt;Node50 -->
<g id="edge20" class="edge">
<title>Node31&#45;&gt;Node50</title>
<path fill="none" stroke="midnightblue" d="M401.39,-503.89C403.92,-562.71 420.19,-866.61 488,-922.02 572.32,-990.93 915.75,-916.69 1043.14,-886.01"/>
<polygon fill="midnightblue" stroke="midnightblue" points="1044.11,-889.38 1053.01,-883.62 1042.46,-882.58 1044.11,-889.38"/>
</g>
<!-- Node49 -->
<g id="node15" class="node">
<title>Node49</title>
<g id="a_node15"><a xlink:href="quickjs_8c.html#a06b76f5124fd985e35f4c652fd018d6d" target="_top" xlink:title=" ">
<polygon fill="none" stroke="red" points="885,-978.52 885,-997.52 992,-997.52 992,-978.52 885,-978.52"/>
<text text-anchor="middle" x="938.5" y="-985.52" font-family="Helvetica,sans-Serif" font-size="10.00">find_own_property</text>
</a>
</g>
</g>
<!-- Node31&#45;&gt;Node49 -->
<g id="edge16" class="edge">
<title>Node31&#45;&gt;Node49</title>
<path fill="none" stroke="midnightblue" d="M401.23,-503.57C402.93,-564.67 415.51,-900.37 488,-964.02 604.79,-1066.57 811.4,-1024.27 897.79,-1000.29"/>
<polygon fill="midnightblue" stroke="midnightblue" points="898.81,-1003.64 907.47,-997.54 896.9,-996.9 898.81,-1003.64"/>
</g>
<!-- Node70 -->
<g id="node16" class="node">
<title>Node70</title>
<g id="a_node16"><a xlink:href="quickjs_8c.html#a9e7b4bccf927d811b0f99b40b08c0472" target="_top" xlink:title=" ">
<polygon fill="none" stroke="red" points="542.5,-218.52 542.5,-237.52 618.5,-237.52 618.5,-218.52 542.5,-218.52"/>
<text text-anchor="middle" x="580.5" y="-225.52" font-family="Helvetica,sans-Serif" font-size="10.00">free_var_ref</text>
</a>
</g>
</g>
<!-- Node31&#45;&gt;Node70 -->
<g id="edge18" class="edge">
<title>Node31&#45;&gt;Node70</title>
<path fill="none" stroke="midnightblue" d="M401.22,-484.4C402.62,-447.34 412.87,-312.71 488,-247.02 500.12,-236.42 516.6,-231.19 532.23,-228.75"/>
<polygon fill="midnightblue" stroke="midnightblue" points="532.83,-232.2 542.33,-227.52 531.98,-225.25 532.83,-232.2"/>
</g>
<!-- Node294 -->
<g id="node17" class="node">
<title>Node294</title>
<g id="a_node17"><a xlink:href="quickjs_8c.html#a6df3ef223d7e76a0db2c14d972dbfa77" target="_top" xlink:title=" ">
<polygon fill="none" stroke="black" points="726.5,-551.52 726.5,-570.52 814.5,-570.52 814.5,-551.52 726.5,-551.52"/>
<text text-anchor="middle" x="770.5" y="-558.52" font-family="Helvetica,sans-Serif" font-size="10.00">get_prop_flags</text>
</a>
</g>
</g>
<!-- Node31&#45;&gt;Node294 -->
<g id="edge19" class="edge">
<title>Node31&#45;&gt;Node294</title>
<path fill="none" stroke="midnightblue" d="M445.65,-503.54C459.23,-506.36 474.21,-509.4 488,-512.02 567.13,-527.09 659.15,-542.76 715.85,-552.2"/>
<polygon fill="midnightblue" stroke="midnightblue" points="715.58,-555.71 726.02,-553.89 716.73,-548.8 715.58,-555.71"/>
</g>
<!-- Node126 -->
<g id="node18" class="node">
<title>Node126</title>
<g id="a_node18"><a xlink:href="quickjs_8c.html#ab4e100a9cde5f7ec87c92f5e766dbbab" target="_top" xlink:title=" ">
<polygon fill="none" stroke="red" points="510.5,-256.52 510.5,-275.52 650.5,-275.52 650.5,-256.52 510.5,-256.52"/>
<text text-anchor="middle" x="580.5" y="-263.52" font-family="Helvetica,sans-Serif" font-size="10.00">JS_AtomIsNumericIndex1</text>
</a>
</g>
</g>
<!-- Node31&#45;&gt;Node126 -->
<g id="edge21" class="edge">
<title>Node31&#45;&gt;Node126</title>
<path fill="none" stroke="midnightblue" d="M402.16,-484.16C406.56,-451.24 425.34,-344.11 488,-290.02 492.81,-285.87 498.26,-282.42 504.05,-279.56"/>
<polygon fill="midnightblue" stroke="midnightblue" points="505.58,-282.72 513.37,-275.54 502.8,-276.29 505.58,-282.72"/>
</g>
<!-- Node31&#45;&gt;Node54 -->
<g id="edge42" class="edge">
<title>Node31&#45;&gt;Node54</title>
<path fill="none" stroke="midnightblue" d="M401.52,-484.46C404.79,-428.7 424.36,-146.28 488,-95.02 558.88,-37.93 675.6,-63.9 733.96,-82.3"/>
<polygon fill="midnightblue" stroke="midnightblue" points="732.89,-85.63 743.48,-85.4 735.06,-78.98 732.89,-85.63"/>
</g>
<!-- Node88 -->
<g id="node20" class="node">
<title>Node88</title>
<g id="a_node20"><a xlink:href="quickjs_8h.html#ad80a83d73e9b7d872b88fbf2943aebe9" target="_top" xlink:title=" ">
<polygon fill="none" stroke="black" points="727,-237.52 727,-256.52 814,-256.52 814,-237.52 727,-237.52"/>
<text text-anchor="middle" x="770.5" y="-244.52" font-family="Helvetica,sans-Serif" font-size="10.00">JS_IsException</text>
</a>
</g>
</g>
<!-- Node31&#45;&gt;Node88 -->
<g id="edge43" class="edge">
<title>Node31&#45;&gt;Node88</title>
<path fill="none" stroke="midnightblue" d="M402.41,-484.33C409.32,-438.43 441.12,-243.73 488,-209.02 565.98,-151.29 690.38,-204.75 743.78,-232.58"/>
<polygon fill="midnightblue" stroke="midnightblue" points="742.43,-235.83 752.9,-237.45 745.72,-229.65 742.43,-235.83"/>
</g>
<!-- Node31&#45;&gt;Node128 -->
<g id="edge46" class="edge">
<title>Node31&#45;&gt;Node128</title>
<path fill="none" stroke="midnightblue" d="M406.75,-484.26C418.94,-464.5 449.46,-419.91 488,-399.02 556.12,-362.09 757.02,-361.57 832,-342.02 857.09,-335.48 884.64,-325.46 905.29,-317.35"/>
<polygon fill="midnightblue" stroke="midnightblue" points="906.84,-320.5 914.83,-313.55 904.24,-314 906.84,-320.5"/>
</g>
<!-- Node147 -->
<g id="node22" class="node">
<title>Node147</title>
<g id="a_node22"><a xlink:href="quickjs_8c.html#a8aac7988cf0c6f3c2b629a6662fd7ec8" target="_top" xlink:title=" ">
<polygon fill="none" stroke="red" points="525.5,-408.52 525.5,-427.52 635.5,-427.52 635.5,-408.52 525.5,-408.52"/>
<text text-anchor="middle" x="580.5" y="-415.52" font-family="Helvetica,sans-Serif" font-size="10.00">JS_AutoInitProperty</text>
</a>
</g>
</g>
<!-- Node31&#45;&gt;Node147 -->
<g id="edge27" class="edge">
<title>Node31&#45;&gt;Node147</title>
<path fill="none" stroke="midnightblue" d="M412.58,-484.36C428.53,-471.56 458.63,-449.18 488,-437.02 496.68,-433.43 506.11,-430.49 515.51,-428.09"/>
<polygon fill="midnightblue" stroke="midnightblue" points="516.34,-431.5 525.27,-425.79 514.73,-424.68 516.34,-431.5"/>
</g>
<!-- Node292 -->
<g id="node23" class="node">
<title>Node292</title>
<g id="a_node23"><a xlink:href="quickjs_8c.html#ad5565bb5cfd5321f181573257f3b0c91" target="_top" xlink:title=" ">
<polygon fill="none" stroke="red" points="528.5,-598.52 528.5,-617.52 632.5,-617.52 632.5,-598.52 528.5,-598.52"/>
<text text-anchor="middle" x="580.5" y="-605.52" font-family="Helvetica,sans-Serif" font-size="10.00">JS_CreateProperty</text>
</a>
</g>
</g>
<!-- Node31&#45;&gt;Node292 -->
<g id="edge30" class="edge">
<title>Node31&#45;&gt;Node292</title>
<path fill="none" stroke="midnightblue" d="M406.82,-503.66C419.14,-523.18 449.9,-567.36 488,-589.02 497.19,-594.25 507.63,-598.05 518.09,-600.8"/>
<polygon fill="midnightblue" stroke="midnightblue" points="517.55,-604.27 528.09,-603.14 519.15,-597.45 517.55,-604.27"/>
</g>
<!-- Node245 -->
<g id="node24" class="node">
<title>Node245</title>
<g id="a_node24"><a xlink:href="quickjs_8c.html#a1ca9cdb1fa2ffc3e6506e92b200e490f" target="_top" xlink:title=" ">
<polygon fill="none" stroke="black" points="730.5,-494.52 730.5,-513.52 810.5,-513.52 810.5,-494.52 730.5,-494.52"/>
<text text-anchor="middle" x="770.5" y="-501.52" font-family="Helvetica,sans-Serif" font-size="10.00">JS_IsFunction</text>
</a>
</g>
</g>
<!-- Node31&#45;&gt;Node245 -->
<g id="edge44" class="edge">
<title>Node31&#45;&gt;Node245</title>
<path fill="none" stroke="midnightblue" d="M452.24,-495.41C523.06,-497.34 650.02,-500.78 719.94,-502.68"/>
<polygon fill="midnightblue" stroke="midnightblue" points="720.15,-506.18 730.24,-502.96 720.34,-499.19 720.15,-506.18"/>
</g>
<!-- Node152 -->
<g id="node25" class="node">
<title>Node152</title>
<g id="a_node25"><a xlink:href="quickjs_8h.html#a88259aa0da61ac754402c64ccecee116" target="_top" xlink:title=" ">
<polygon fill="none" stroke="red" points="728,-313.52 728,-332.52 813,-332.52 813,-313.52 728,-313.52"/>
<text text-anchor="middle" x="770.5" y="-320.52" font-family="Helvetica,sans-Serif" font-size="10.00">JS_NewUint32</text>
</a>
</g>
</g>
<!-- Node31&#45;&gt;Node152 -->
<g id="edge47" class="edge">
<title>Node31&#45;&gt;Node152</title>
<path fill="none" stroke="midnightblue" d="M402.42,-484.31C407.45,-453.86 427.52,-360.11 488,-323.02 562.87,-277.11 671.35,-295.66 729.35,-310.79"/>
<polygon fill="midnightblue" stroke="midnightblue" points="728.67,-314.23 739.23,-313.46 730.49,-307.47 728.67,-314.23"/>
</g>
<!-- Node146 -->
<g id="node26" class="node">
<title>Node146</title>
<g id="a_node26"><a xlink:href="quickjs_8h.html#a4e407128a9605afb77523e49e9a627fd" target="_top" xlink:title=" ">
<polygon fill="none" stroke="black" points="536,-712.52 536,-731.52 625,-731.52 625,-712.52 536,-712.52"/>
<text text-anchor="middle" x="580.5" y="-719.52" font-family="Helvetica,sans-Serif" font-size="10.00">JS_IsUndefined</text>
</a>
</g>
</g>
<!-- Node31&#45;&gt;Node146 -->
<g id="edge45" class="edge">
<title>Node31&#45;&gt;Node146</title>
<path fill="none" stroke="midnightblue" d="M402.16,-503.88C406.56,-536.81 425.34,-643.93 488,-698.02 498.6,-707.18 512.3,-712.89 525.85,-716.45"/>
<polygon fill="midnightblue" stroke="midnightblue" points="525.12,-719.87 535.64,-718.68 526.67,-713.05 525.12,-719.87"/>
</g>
<!-- Node429 -->
<g id="node27" class="node">
<title>Node429</title>
<g id="a_node27"><a xlink:href="quickjs_8c.html#af2333dd9d30e60437b73af383477188c" target="_top" xlink:title=" ">
<polygon fill="none" stroke="red" points="524,-560.52 524,-579.52 637,-579.52 637,-560.52 524,-560.52"/>
<text text-anchor="middle" x="580.5" y="-567.52" font-family="Helvetica,sans-Serif" font-size="10.00">JS_NumberIsInteger</text>
</a>
</g>
</g>
<!-- Node31&#45;&gt;Node429 -->
<g id="edge48" class="edge">
<title>Node31&#45;&gt;Node429</title>
<path fill="none" stroke="midnightblue" d="M414.23,-503.56C430.76,-515.08 460.26,-534.37 488,-546.02 499,-550.64 511.13,-554.57 522.86,-557.83"/>
<polygon fill="midnightblue" stroke="midnightblue" points="522.02,-561.23 532.58,-560.42 523.81,-554.47 522.02,-561.23"/>
</g>
<!-- Node432 -->
<g id="node28" class="node">
<title>Node432</title>
<g id="a_node28"><a xlink:href="quickjs_8c.html#aced4796120beed3ba63dc0b234b399ab" target="_top" xlink:title=" ">
<polygon fill="none" stroke="black" points="488,-446.52 488,-465.52 673,-465.52 673,-446.52 488,-446.52"/>
<text text-anchor="middle" x="580.5" y="-453.52" font-family="Helvetica,sans-Serif" font-size="10.00">JS_NumberIsNegativeOrMinusZero</text>
</a>
</g>
</g>
<!-- Node31&#45;&gt;Node432 -->
<g id="edge49" class="edge">
<title>Node31&#45;&gt;Node432</title>
<path fill="none" stroke="midnightblue" d="M446.04,-484.43C470.02,-479.33 499.7,-473.01 524.97,-467.63"/>
<polygon fill="midnightblue" stroke="midnightblue" points="525.73,-471.05 534.78,-465.54 524.27,-464.2 525.73,-471.05"/>
</g>
<!-- Node414 -->
<g id="node29" class="node">
<title>Node414</title>
<g id="a_node29"><a xlink:href="quickjs_8c.html#a24be89a128d1cd7c0908604815b2b854" target="_top" xlink:title=" ">
<polygon fill="none" stroke="red" points="536,-864.52 536,-883.52 625,-883.52 625,-864.52 536,-864.52"/>
<text text-anchor="middle" x="580.5" y="-871.52" font-family="Helvetica,sans-Serif" font-size="10.00">js_same_value</text>
</a>
</g>
</g>
<!-- Node31&#45;&gt;Node414 -->
<g id="edge50" class="edge">
<title>Node31&#45;&gt;Node414</title>
<path fill="none" stroke="midnightblue" d="M401.96,-503.85C407.32,-556.41 435.1,-803.77 488,-855.02 498.13,-864.83 511.92,-870.17 525.73,-872.95"/>
<polygon fill="midnightblue" stroke="midnightblue" points="525.31,-876.42 535.73,-874.54 526.41,-869.51 525.31,-876.42"/>
</g>
<!-- Node302 -->
<g id="node30" class="node">
<title>Node302</title>
<g id="a_node30"><a xlink:href="quickjs_8c.html#aee75cc1546e19479e3ccda58f3b50a96" target="_top" xlink:title=" ">
<polygon fill="none" stroke="red" points="523,-104.52 523,-123.52 638,-123.52 638,-104.52 523,-104.52"/>
<text text-anchor="middle" x="580.5" y="-111.52" font-family="Helvetica,sans-Serif" font-size="10.00">JS_SetPropertyValue</text>
</a>
</g>
</g>
<!-- Node31&#45;&gt;Node302 -->
<g id="edge52" class="edge">
<title>Node31&#45;&gt;Node302</title>
<path fill="none" stroke="midnightblue" d="M402.03,-484.38C407.74,-432.78 437.03,-189.85 488,-138.02 495,-130.91 503.82,-125.82 513.22,-122.2"/>
<polygon fill="midnightblue" stroke="midnightblue" points="514.37,-125.5 522.76,-119.04 512.17,-118.86 514.37,-125.5"/>
</g>
<!-- Node293&#45;&gt;Node149 -->
<g id="edge14" class="edge">
<title>Node293&#45;&gt;Node149</title>
<path fill="none" stroke="midnightblue" d="M824.94,-761.1C835.39,-762.49 846.56,-763.97 857.65,-765.44"/>
<polygon fill="midnightblue" stroke="midnightblue" points="857.42,-768.94 867.79,-766.78 858.34,-762 857.42,-768.94"/>
</g>
<!-- Node149&#45;&gt;Node50 -->
<g id="edge15" class="edge">
<title>Node149&#45;&gt;Node50</title>
<path fill="none" stroke="midnightblue" d="M954.3,-785.6C980.6,-802.61 1035.65,-838.22 1067.28,-858.68"/>
<polygon fill="midnightblue" stroke="midnightblue" points="1065.62,-861.77 1075.91,-864.26 1069.42,-855.89 1065.62,-861.77"/>
</g>
<!-- Node49&#45;&gt;Node50 -->
<g id="edge17" class="edge">
<title>Node49&#45;&gt;Node50</title>
<path fill="none" stroke="midnightblue" d="M978.25,-978.44C988.73,-974.86 999.72,-970.13 1009,-964.02 1038.55,-944.57 1064.51,-912.08 1078.94,-891.92"/>
<polygon fill="midnightblue" stroke="midnightblue" points="1081.89,-893.82 1084.74,-883.62 1076.15,-889.82 1081.89,-893.82"/>
</g>
<!-- Node126&#45;&gt;Node4 -->
<g id="edge22" class="edge">
<title>Node126&#45;&gt;Node4</title>
<path fill="none" stroke="midnightblue" d="M609.2,-275.54C630.4,-284.37 658.4,-299.7 673,-323.02 754.09,-452.58 612.22,-546.73 709,-665.02 709.98,-666.22 711.04,-667.34 712.15,-668.4"/>
<polygon fill="midnightblue" stroke="midnightblue" points="710.21,-671.31 720.34,-674.39 714.34,-665.66 710.21,-671.31"/>
</g>
<!-- Node126&#45;&gt;Node5 -->
<g id="edge23" class="edge">
<title>Node126&#45;&gt;Node5</title>
<path fill="none" stroke="midnightblue" d="M608.98,-275.68C630.06,-284.59 658.01,-299.96 673,-323.02 735.86,-419.72 659.81,-475.7 709,-580.02 718.22,-599.58 735.29,-617.38 748.95,-629.55"/>
<polygon fill="midnightblue" stroke="midnightblue" points="747.04,-632.52 756.92,-636.36 751.59,-627.2 747.04,-632.52"/>
</g>
<!-- Node126&#45;&gt;Node54 -->
<g id="edge24" class="edge">
<title>Node126&#45;&gt;Node54</title>
<path fill="none" stroke="midnightblue" d="M650.82,-260C658.96,-256.98 666.62,-252.79 673,-247.02 712.42,-211.4 676.51,-175.06 709,-133.02 716.51,-123.31 727.26,-115.42 737.62,-109.41"/>
<polygon fill="midnightblue" stroke="midnightblue" points="739.39,-112.43 746.53,-104.6 736.07,-106.27 739.39,-112.43"/>
</g>
<!-- Node126&#45;&gt;Node88 -->
<g id="edge25" class="edge">
<title>Node126&#45;&gt;Node88</title>
<path fill="none" stroke="midnightblue" d="M650.7,-259.03C672.56,-256.82 696.34,-254.42 716.84,-252.34"/>
<polygon fill="midnightblue" stroke="midnightblue" points="717.33,-255.81 726.93,-251.33 716.62,-248.85 717.33,-255.81"/>
</g>
<!-- Node126&#45;&gt;Node128 -->
<g id="edge26" class="edge">
<title>Node126&#45;&gt;Node128</title>
<path fill="none" stroke="midnightblue" d="M650.56,-273.39C720.9,-280.9 828.12,-292.35 889.63,-298.91"/>
<polygon fill="midnightblue" stroke="midnightblue" points="889.52,-302.42 899.83,-300 890.26,-295.46 889.52,-302.42"/>
</g>
<!-- Node147&#45;&gt;Node149 -->
<g id="edge29" class="edge">
<title>Node147&#45;&gt;Node149</title>
<path fill="none" stroke="midnightblue" d="M635.56,-418.15C691.73,-421.2 778.72,-434.57 832,-485.02 912.54,-561.28 931.79,-703.72 936.22,-756.07"/>
<polygon fill="midnightblue" stroke="midnightblue" points="932.76,-756.62 937,-766.33 939.74,-756.09 932.76,-756.62"/>
</g>
<!-- Node147&#45;&gt;Node88 -->
<g id="edge28" class="edge">
<title>Node147&#45;&gt;Node88</title>
<path fill="none" stroke="midnightblue" d="M602.62,-408.34C622.47,-398.48 652.16,-381.74 673,-361.02 694.25,-339.9 689.94,-327.15 709,-304.02 721.23,-289.18 737.12,-274.35 749.54,-263.53"/>
<polygon fill="midnightblue" stroke="midnightblue" points="752.17,-265.89 757.51,-256.74 747.63,-260.57 752.17,-265.89"/>
</g>
<!-- Node292&#45;&gt;Node4 -->
<g id="edge32" class="edge">
<title>Node292&#45;&gt;Node4</title>
<path fill="none" stroke="midnightblue" d="M601.08,-617.63C625.85,-629.59 670,-650.24 709,-665.02 714.67,-667.17 720.7,-669.28 726.68,-671.26"/>
<polygon fill="midnightblue" stroke="midnightblue" points="726.02,-674.72 736.61,-674.45 728.16,-668.06 726.02,-674.72"/>
</g>
<!-- Node292&#45;&gt;Node5 -->
<g id="edge33" class="edge">
<title>Node292&#45;&gt;Node5</title>
<path fill="none" stroke="midnightblue" d="M628.94,-617.61C654.31,-622.74 685.73,-629.09 712.42,-634.49"/>
<polygon fill="midnightblue" stroke="midnightblue" points="711.91,-637.95 722.4,-636.5 713.29,-631.09 711.91,-637.95"/>
</g>
<!-- Node292&#45;&gt;Node6 -->
<g id="edge37" class="edge">
<title>Node292&#45;&gt;Node6</title>
<path fill="none" stroke="midnightblue" d="M594.35,-617.56C614.38,-633.14 652.81,-666.04 673,-703.02 706.26,-763.96 661.7,-804.2 709,-855.02 712.8,-859.1 717.46,-862.31 722.49,-864.84"/>
<polygon fill="midnightblue" stroke="midnightblue" points="721.27,-868.12 731.85,-868.68 723.93,-861.64 721.27,-868.12"/>
</g>
<!-- Node292&#45;&gt;Node32 -->
<g id="edge31" class="edge">
<title>Node292&#45;&gt;Node32</title>
<path fill="none" stroke="midnightblue" d="M632.79,-608.45C647.75,-605.93 662.8,-600.36 673,-589.02 726.93,-529.09 678.66,-302.72 709,-228.02 718.43,-204.82 737.27,-182.96 751.44,-168.7"/>
<polygon fill="midnightblue" stroke="midnightblue" points="754.02,-171.08 758.74,-161.59 749.13,-166.06 754.02,-171.08"/>
</g>
<!-- Node292&#45;&gt;Node293 -->
<g id="edge34" class="edge">
<title>Node292&#45;&gt;Node293</title>
<path fill="none" stroke="midnightblue" d="M593.84,-617.6C623.72,-640.81 700.57,-700.49 742.02,-732.68"/>
<polygon fill="midnightblue" stroke="midnightblue" points="740.01,-735.55 750.06,-738.92 744.3,-730.02 740.01,-735.55"/>
</g>
<!-- Node292&#45;&gt;Node50 -->
<g id="edge36" class="edge">
<title>Node292&#45;&gt;Node50</title>
<path fill="none" stroke="midnightblue" d="M632.67,-603.84C684.56,-601.42 766.35,-602.72 832,-627.02 923.53,-660.91 940.75,-687.24 1009,-757.02 1039.33,-788.04 1066.5,-831.29 1080.66,-855.58"/>
<polygon fill="midnightblue" stroke="midnightblue" points="1077.74,-857.52 1085.75,-864.45 1083.81,-854.04 1077.74,-857.52"/>
</g>
<!-- Node292&#45;&gt;Node294 -->
<g id="edge35" class="edge">
<title>Node292&#45;&gt;Node294</title>
<path fill="none" stroke="midnightblue" d="M631.05,-598.47C644.69,-595.64 659.46,-592.39 673,-589.02 691.54,-584.42 711.88,-578.63 729.08,-573.51"/>
<polygon fill="midnightblue" stroke="midnightblue" points="730.24,-576.82 738.81,-570.59 728.22,-570.11 730.24,-576.82"/>
</g>
<!-- Node292&#45;&gt;Node245 -->
<g id="edge38" class="edge">
<title>Node292&#45;&gt;Node245</title>
<path fill="none" stroke="midnightblue" d="M632.85,-603.93C646.65,-601.13 661.05,-596.53 673,-589.02 695.28,-575.02 689.55,-559.75 709,-542.02 718.81,-533.08 731,-524.97 741.85,-518.57"/>
<polygon fill="midnightblue" stroke="midnightblue" points="743.62,-521.59 750.58,-513.6 740.15,-515.51 743.62,-521.59"/>
</g>
<!-- Node292&#45;&gt;Node152 -->
<g id="edge39" class="edge">
<title>Node292&#45;&gt;Node152</title>
<path fill="none" stroke="midnightblue" d="M632.72,-606.67C647.14,-603.99 661.91,-598.77 673,-589.02 709.74,-556.73 692.44,-531.05 709,-485.02 727.64,-433.22 750.62,-372.51 762.16,-342.23"/>
<polygon fill="midnightblue" stroke="midnightblue" points="765.44,-343.44 765.73,-332.85 758.9,-340.95 765.44,-343.44"/>
</g>
<!-- Node152&#45;&gt;Node128 -->
<g id="edge40" class="edge">
<title>Node152&#45;&gt;Node128</title>
<path fill="none" stroke="midnightblue" d="M813.39,-318.23C836.67,-315.56 865.72,-312.24 889.86,-309.48"/>
<polygon fill="midnightblue" stroke="midnightblue" points="890.34,-312.94 899.88,-308.33 889.54,-305.99 890.34,-312.94"/>
</g>
<!-- Node414&#45;&gt;Node6 -->
<g id="edge51" class="edge">
<title>Node414&#45;&gt;Node6</title>
<path fill="none" stroke="midnightblue" d="M625.1,-874.02C654.02,-874.02 691.97,-874.02 721.7,-874.02"/>
<polygon fill="midnightblue" stroke="midnightblue" points="721.85,-877.52 731.85,-874.02 721.85,-870.52 721.85,-877.52"/>
</g>
<!-- Node302&#45;&gt;Node32 -->
<g id="edge53" class="edge">
<title>Node302&#45;&gt;Node32</title>
<path fill="none" stroke="midnightblue" d="M628.94,-123.61C656.84,-129.25 692.06,-136.37 720.27,-142.07"/>
<polygon fill="midnightblue" stroke="midnightblue" points="719.82,-145.55 730.32,-144.1 721.21,-138.69 719.82,-145.55"/>
</g>
<!-- Node302&#45;&gt;Node54 -->
<g id="edge54" class="edge">
<title>Node302&#45;&gt;Node54</title>
<path fill="none" stroke="midnightblue" d="M638.16,-108.3C664.48,-105.64 695.47,-102.5 720.73,-99.95"/>
<polygon fill="midnightblue" stroke="midnightblue" points="721.22,-103.42 730.82,-98.93 720.52,-96.46 721.22,-103.42"/>
</g>
</g>
</svg>
        <g id="navigator" transform="translate(0 0)" fill="#404254">
                <rect fill="#f2f5e9" fill-opacity="0.5" stroke="#606060" stroke-width=".5" x="0" y="0" width="60" height="60"/>
                <use id="zoomplus" xlink:href="#zoomPlus" x="17" y="9" onmousedown="handleZoom(evt,'in')"/>
                <use id="zoomminus" xlink:href="#zoomMin" x="42" y="9" onmousedown="handleZoom(evt,'out')"/>
                <use id="reset" xlink:href="#resetDef" x="30" y="36" onmousedown="handleReset()"/>
                <g id="arrowUp" xlink:href="#dirArrow" transform="translate(30 24)" onmousedown="handlePan(0,-1)">
                  <use xlink:href="#rim" fill="#404040">
                        <set attributeName="fill" to="#808080" begin="arrowUp.mouseover" end="arrowUp.mouseout"/>
                  </use>
                  <path fill="none" stroke="white" stroke-width="1.5" d="M0,-3.0v7 M-2.5,-0.5L0,-3.0L2.5,-0.5"/>
                </g>
                <g id="arrowRight" xlink:href="#dirArrow" transform="rotate(90) translate(36 -43)" onmousedown="handlePan(1,0)">
                  <use xlink:href="#rim" fill="#404040">
                        <set attributeName="fill" to="#808080" begin="arrowRight.mouseover" end="arrowRight.mouseout"/>
                  </use>
                  <path fill="none" stroke="white" stroke-width="1.5" d="M0,-3.0v7 M-2.5,-0.5L0,-3.0L2.5,-0.5"/>
                </g>
                <g id="arrowDown" xlink:href="#dirArrow" transform="rotate(180) translate(-30 -48)" onmousedown="handlePan(0,1)">
                  <use xlink:href="#rim" fill="#404040">
                        <set attributeName="fill" to="#808080" begin="arrowDown.mouseover" end="arrowDown.mouseout"/>
                  </use>
                  <path fill="none" stroke="white" stroke-width="1.5" d="M0,-3.0v7 M-2.5,-0.5L0,-3.0L2.5,-0.5"/>
                </g>
                <g id="arrowLeft" xlink:href="#dirArrow" transform="rotate(270) translate(-36 17)" onmousedown="handlePan(-1,0)">
                  <use xlink:href="#rim" fill="#404040">
                        <set attributeName="fill" to="#808080" begin="arrowLeft.mouseover" end="arrowLeft.mouseout"/>
                  </use>
                  <path fill="none" stroke="white" stroke-width="1.5" d="M0,-3.0v7 M-2.5,-0.5L0,-3.0L2.5,-0.5"/>
                </g>
        </g>
        <svg viewBox="0 0 15 15" width="100%" height="30px" preserveAspectRatio="xMaxYMin meet">
         <g id="arrow_out" transform="scale(0.3 0.3)">
          <a xlink:href="quickjs_8c_a5d963b1e3acf275363fedd4bfdd8a57f_cgraph_org.svg" target="_base">
           <rect id="button" ry="5" rx="5" y="6" x="6" height="38" width="38"
                fill="#f2f5e9" fill-opacity="0.5" stroke="#606060" stroke-width="1.0"/>
           <path id="arrow"
             d="M 11.500037,31.436501 C 11.940474,20.09759 22.043105,11.32322 32.158766,21.979434 L 37.068811,17.246167 C 37.068811,17.246167 37.088388,32 37.088388,32 L 22.160133,31.978069 C 22.160133,31.978069 26.997745,27.140456 26.997745,27.140456 C 18.528582,18.264221 13.291696,25.230495 11.500037,31.436501 z"
             style="fill:#404040;"/>
          </a>
         </g>
        </svg>
</svg>
