<?xml version="1.0" encoding="UTF-8" standalone="no"?>
<!DOCTYPE svg PUBLIC "-//W3C//DTD SVG 1.1//EN"
 "http://www.w3.org/Graphics/SVG/1.1/DTD/svg11.dtd">
<!-- Generated by graphviz version 2.43.0 (0)
 -->
<!-- Title: js_promise_resolve_thenable_job Pages: 1 -->
<svg width="557pt" height="39pt"
 viewBox="0.00 0.00 557.00 39.00" xmlns="http://www.w3.org/2000/svg" xmlns:xlink="http://www.w3.org/1999/xlink">
<g id="graph0" class="graph" transform="scale(1 1) rotate(0) translate(4 35)">
<title>js_promise_resolve_thenable_job</title>
<!-- Node1 -->
<g id="node1" class="node">
<title>Node1</title>
<g id="a_node1"><a xlink:title=" ">
<polygon fill="#bfbfbf" stroke="black" points="438,-0.5 438,-30.5 549,-30.5 549,-0.5 438,-0.5"/>
<text text-anchor="start" x="446" y="-18.5" font-family="Helvetica,sans-Serif" font-size="10.00">js_promise_resolve</text>
<text text-anchor="middle" x="493.5" y="-7.5" font-family="Helvetica,sans-Serif" font-size="10.00">_thenable_job</text>
</a>
</g>
</g>
<!-- Node2 -->
<g id="node2" class="node">
<title>Node2</title>
<g id="a_node2"><a xlink:href="quickjs_8c.html#ac13d124ad5c7f1234cae3076077e782e" target="_top" xlink:title=" ">
<polygon fill="none" stroke="black" points="291,-0.5 291,-30.5 402,-30.5 402,-0.5 291,-0.5"/>
<text text-anchor="start" x="299" y="-18.5" font-family="Helvetica,sans-Serif" font-size="10.00">js_promise_resolve</text>
<text text-anchor="middle" x="346.5" y="-7.5" font-family="Helvetica,sans-Serif" font-size="10.00">_function_call</text>
</a>
</g>
</g>
<!-- Node1&#45;&gt;Node2 -->
<g id="edge1" class="edge">
<title>Node1&#45;&gt;Node2</title>
<path fill="none" stroke="midnightblue" d="M427.54,-15.5C419.14,-15.5 410.61,-15.5 402.4,-15.5"/>
<polygon fill="midnightblue" stroke="midnightblue" points="427.68,-19 437.68,-15.5 427.68,-12 427.68,-19"/>
</g>
<!-- Node3 -->
<g id="node3" class="node">
<title>Node3</title>
<g id="a_node3"><a xlink:href="quickjs_8c.html#a2e66fcf1bc1d19f346317f10ee590621" target="_top" xlink:title=" ">
<polygon fill="none" stroke="black" points="127,-6 127,-25 255,-25 255,-6 127,-6"/>
<text text-anchor="middle" x="191" y="-13" font-family="Helvetica,sans-Serif" font-size="10.00">JS_AddIntrinsicPromise</text>
</a>
</g>
</g>
<!-- Node2&#45;&gt;Node3 -->
<g id="edge2" class="edge">
<title>Node2&#45;&gt;Node3</title>
<path fill="none" stroke="midnightblue" d="M280.7,-15.5C272.2,-15.5 263.49,-15.5 255.02,-15.5"/>
<polygon fill="midnightblue" stroke="midnightblue" points="280.95,-19 290.95,-15.5 280.95,-12 280.95,-19"/>
</g>
<!-- Node4 -->
<g id="node4" class="node">
<title>Node4</title>
<g id="a_node4"><a xlink:href="quickjs_8c.html#ad8aedb643b8753b7a15f6cb2df61945e" target="_top" xlink:title=" ">
<polygon fill="none" stroke="red" points="0,-6 0,-25 91,-25 91,-6 0,-6"/>
<text text-anchor="middle" x="45.5" y="-13" font-family="Helvetica,sans-Serif" font-size="10.00">JS_NewContext</text>
</a>
</g>
</g>
<!-- Node3&#45;&gt;Node4 -->
<g id="edge3" class="edge">
<title>Node3&#45;&gt;Node4</title>
<path fill="none" stroke="midnightblue" d="M116.46,-15.5C107.78,-15.5 99.13,-15.5 91.02,-15.5"/>
<polygon fill="midnightblue" stroke="midnightblue" points="116.64,-19 126.64,-15.5 116.64,-12 116.64,-19"/>
</g>
</g>
</svg>
