<?xml version="1.0" encoding="UTF-8" standalone="no"?>
<!DOCTYPE svg PUBLIC "-//W3C//DTD SVG 1.1//EN"
 "http://www.w3.org/Graphics/SVG/1.1/DTD/svg11.dtd">
<!-- Generated by graphviz version 2.43.0 (0)
 -->
<!-- Title: JS_NewCFunctionMagic Pages: 1 -->
<!--zoomable 218 -->
<svg id="main" version="1.1" xmlns="http://www.w3.org/2000/svg" xmlns:xlink="http://www.w3.org/1999/xlink" xml:space="preserve" onload="init(evt)">
<style type="text/css"><![CDATA[
.edge:hover path { stroke: red; }
.edge:hover polygon { stroke: red; fill: red; }
]]></style>
<script type="text/javascript"><![CDATA[
var edges = document.getElementsByTagName('g');
if (edges && edges.length) {
  for (var i=0;i<edges.length;i++) {
    if (edges[i].id.substr(0,4)=='edge') {
      edges[i].setAttribute('class','edge');
    }
  }
}
]]></script>
        <defs>
                <circle id="rim" cx="0" cy="0" r="7"/>
                <circle id="rim2" cx="0" cy="0" r="3.5"/>
                <g id="zoomPlus">
                        <use xlink:href="#rim" fill="#404040">
                                <set attributeName="fill" to="#808080" begin="zoomplus.mouseover" end="zoomplus.mouseout"/>
                        </use>
                        <path d="M-4,0h8M0,-4v8" fill="none" stroke="white" stroke-width="1.5" pointer-events="none"/>
                </g>
                <g id="zoomMin">
                        <use xlink:href="#rim" fill="#404040">
                                <set attributeName="fill" to="#808080" begin="zoomminus.mouseover" end="zoomminus.mouseout"/>
                        </use>
                        <path d="M-4,0h8" fill="none" stroke="white" stroke-width="1.5" pointer-events="none"/>
                </g>
                <g id="dirArrow">
                        <path fill="none" stroke="white" stroke-width="1.5" d="M0,-3.0v7 M-2.5,-0.5L0,-3.0L2.5,-0.5"/>
                </g>
               <g id="resetDef">
                       <use xlink:href="#rim2" fill="#404040">
                               <set attributeName="fill" to="#808080" begin="reset.mouseover" end="reset.mouseout"/>
                       </use>
               </g>
        </defs>

<script type="text/javascript">
var viewWidth = 605;
var viewHeight = 218;
var sectionId = 'dynsection-267';
</script>
<script xlink:href="svgpan.js"/>
<svg id="graph" class="graph">
<g id="viewport">
<title>JS_NewCFunctionMagic</title>
<!-- Node1 -->
<g id="node1" class="node">
<title>Node1</title>
<g id="a_node1"><a xlink:title=" ">
<polygon fill="#bfbfbf" stroke="black" points="0,-95.5 0,-114.5 130,-114.5 130,-95.5 0,-95.5"/>
<text text-anchor="middle" x="65" y="-102.5" font-family="Helvetica,sans-Serif" font-size="10.00">JS_NewCFunctionMagic</text>
</a>
</g>
</g>
<!-- Node2 -->
<g id="node2" class="node">
<title>Node2</title>
<g id="a_node2"><a xlink:href="quickjs_8c.html#a76d4772691a319f48dc636a0e7f6c1ed" target="_top" xlink:title=" ">
<polygon fill="none" stroke="black" points="166,-95.5 166,-114.5 273,-114.5 273,-95.5 166,-95.5"/>
<text text-anchor="middle" x="219.5" y="-102.5" font-family="Helvetica,sans-Serif" font-size="10.00">JS_NewCFunction2</text>
</a>
</g>
</g>
<!-- Node1&#45;&gt;Node2 -->
<g id="edge1" class="edge">
<title>Node1&#45;&gt;Node2</title>
<path fill="none" stroke="midnightblue" d="M130.23,-105C138.68,-105 147.33,-105 155.76,-105"/>
<polygon fill="midnightblue" stroke="midnightblue" points="155.89,-108.5 165.89,-105 155.89,-101.5 155.89,-108.5"/>
</g>
<!-- Node3 -->
<g id="node3" class="node">
<title>Node3</title>
<g id="a_node3"><a xlink:href="quickjs_8c.html#a21cfe4c4fc9372dc0b95b37667cff0c9" target="_top" xlink:title=" ">
<polygon fill="none" stroke="black" points="309,-95.5 309,-114.5 416,-114.5 416,-95.5 309,-95.5"/>
<text text-anchor="middle" x="362.5" y="-102.5" font-family="Helvetica,sans-Serif" font-size="10.00">JS_NewCFunction3</text>
</a>
</g>
</g>
<!-- Node2&#45;&gt;Node3 -->
<g id="edge2" class="edge">
<title>Node2&#45;&gt;Node3</title>
<path fill="none" stroke="midnightblue" d="M273,-105C281.44,-105 290.26,-105 298.9,-105"/>
<polygon fill="midnightblue" stroke="midnightblue" points="298.95,-108.5 308.95,-105 298.95,-101.5 298.95,-108.5"/>
</g>
<!-- Node4 -->
<g id="node4" class="node">
<title>Node4</title>
<g id="a_node4"><a xlink:href="quickjs_8c.html#a2814982d965920b44b14bef36ba18bba" target="_top" xlink:title=" ">
<polygon fill="none" stroke="black" points="480,-190.5 480,-209.5 569,-209.5 569,-190.5 480,-190.5"/>
<text text-anchor="middle" x="524.5" y="-197.5" font-family="Helvetica,sans-Serif" font-size="10.00">JS_DupContext</text>
</a>
</g>
</g>
<!-- Node3&#45;&gt;Node4 -->
<g id="edge3" class="edge">
<title>Node3&#45;&gt;Node4</title>
<path fill="none" stroke="midnightblue" d="M372.02,-114.74C386.71,-130.94 418.49,-163.36 452,-181 457.67,-183.98 463.84,-186.53 470.11,-188.69"/>
<polygon fill="midnightblue" stroke="midnightblue" points="469.38,-192.13 479.97,-191.77 471.48,-185.45 469.38,-192.13"/>
</g>
<!-- Node5 -->
<g id="node5" class="node">
<title>Node5</title>
<g id="a_node5"><a xlink:href="quickjs_8c.html#ab7fc45a99935a1c0ba50b0216d9401a9" target="_top" xlink:title=" ">
<polygon fill="none" stroke="red" points="485.5,-152.5 485.5,-171.5 563.5,-171.5 563.5,-152.5 485.5,-152.5"/>
<text text-anchor="middle" x="524.5" y="-159.5" font-family="Helvetica,sans-Serif" font-size="10.00">JS_FreeAtom</text>
</a>
</g>
</g>
<!-- Node3&#45;&gt;Node5 -->
<g id="edge4" class="edge">
<title>Node3&#45;&gt;Node5</title>
<path fill="none" stroke="midnightblue" d="M383.56,-114.61C401.28,-122.86 427.98,-134.7 452,-143 459.51,-145.6 467.57,-148.05 475.47,-150.27"/>
<polygon fill="midnightblue" stroke="midnightblue" points="474.77,-153.71 485.34,-152.96 476.61,-146.95 474.77,-153.71"/>
</g>
<!-- Node11 -->
<g id="node6" class="node">
<title>Node11</title>
<g id="a_node6"><a xlink:href="quickjs_8c.html#a5d963b1e3acf275363fedd4bfdd8a57f" target="_top" xlink:title=" ">
<polygon fill="none" stroke="red" points="452,-114.5 452,-133.5 597,-133.5 597,-114.5 452,-114.5"/>
<text text-anchor="middle" x="524.5" y="-121.5" font-family="Helvetica,sans-Serif" font-size="10.00">js_function_set_properties</text>
</a>
</g>
</g>
<!-- Node3&#45;&gt;Node11 -->
<g id="edge5" class="edge">
<title>Node3&#45;&gt;Node11</title>
<path fill="none" stroke="midnightblue" d="M416.33,-111.27C424.51,-112.25 433.12,-113.27 441.75,-114.29"/>
<polygon fill="midnightblue" stroke="midnightblue" points="441.54,-117.79 451.88,-115.5 442.36,-110.84 441.54,-117.79"/>
</g>
<!-- Node92 -->
<g id="node7" class="node">
<title>Node92</title>
<g id="a_node7"><a xlink:href="quickjs_8h.html#ad80a83d73e9b7d872b88fbf2943aebe9" target="_top" xlink:title=" ">
<polygon fill="none" stroke="black" points="481,-76.5 481,-95.5 568,-95.5 568,-76.5 481,-76.5"/>
<text text-anchor="middle" x="524.5" y="-83.5" font-family="Helvetica,sans-Serif" font-size="10.00">JS_IsException</text>
</a>
</g>
</g>
<!-- Node3&#45;&gt;Node92 -->
<g id="edge6" class="edge">
<title>Node3&#45;&gt;Node92</title>
<path fill="none" stroke="midnightblue" d="M416.33,-98.73C433.83,-96.65 453.3,-94.34 470.79,-92.26"/>
<polygon fill="midnightblue" stroke="midnightblue" points="471.32,-95.72 480.83,-91.07 470.49,-88.77 471.32,-95.72"/>
</g>
<!-- Node356 -->
<g id="node8" class="node">
<title>Node356</title>
<g id="a_node8"><a xlink:href="quickjs_8c.html#aa2ef5af1544a3012f91a80c98c326b8f" target="_top" xlink:title=" ">
<polygon fill="none" stroke="red" points="485,-38.5 485,-57.5 564,-57.5 564,-38.5 485,-38.5"/>
<text text-anchor="middle" x="524.5" y="-45.5" font-family="Helvetica,sans-Serif" font-size="10.00">JS_NewAtom</text>
</a>
</g>
</g>
<!-- Node3&#45;&gt;Node356 -->
<g id="edge7" class="edge">
<title>Node3&#45;&gt;Node356</title>
<path fill="none" stroke="midnightblue" d="M383.56,-95.39C401.28,-87.14 427.98,-75.3 452,-67 459.43,-64.43 467.39,-62.01 475.2,-59.81"/>
<polygon fill="midnightblue" stroke="midnightblue" points="476.24,-63.15 484.97,-57.14 474.4,-56.4 476.24,-63.15"/>
</g>
<!-- Node231 -->
<g id="node9" class="node">
<title>Node231</title>
<g id="a_node9"><a xlink:href="quickjs_8c.html#a73738c650f11459db0d7af3dcdf8316b" target="_top" xlink:title=" ">
<polygon fill="none" stroke="red" points="456.5,-0.5 456.5,-19.5 592.5,-19.5 592.5,-0.5 456.5,-0.5"/>
<text text-anchor="middle" x="524.5" y="-7.5" font-family="Helvetica,sans-Serif" font-size="10.00">JS_NewObjectProtoClass</text>
</a>
</g>
</g>
<!-- Node3&#45;&gt;Node231 -->
<g id="edge8" class="edge">
<title>Node3&#45;&gt;Node231</title>
<path fill="none" stroke="midnightblue" d="M372.02,-95.26C386.71,-79.06 418.49,-46.64 452,-29 456.32,-26.73 460.93,-24.71 465.65,-22.92"/>
<polygon fill="midnightblue" stroke="midnightblue" points="467.12,-26.12 475.45,-19.57 464.85,-19.5 467.12,-26.12"/>
</g>
</g>
</svg>
        <g id="navigator" transform="translate(0 0)" fill="#404254">
                <rect fill="#f2f5e9" fill-opacity="0.5" stroke="#606060" stroke-width=".5" x="0" y="0" width="60" height="60"/>
                <use id="zoomplus" xlink:href="#zoomPlus" x="17" y="9" onmousedown="handleZoom(evt,'in')"/>
                <use id="zoomminus" xlink:href="#zoomMin" x="42" y="9" onmousedown="handleZoom(evt,'out')"/>
                <use id="reset" xlink:href="#resetDef" x="30" y="36" onmousedown="handleReset()"/>
                <g id="arrowUp" xlink:href="#dirArrow" transform="translate(30 24)" onmousedown="handlePan(0,-1)">
                  <use xlink:href="#rim" fill="#404040">
                        <set attributeName="fill" to="#808080" begin="arrowUp.mouseover" end="arrowUp.mouseout"/>
                  </use>
                  <path fill="none" stroke="white" stroke-width="1.5" d="M0,-3.0v7 M-2.5,-0.5L0,-3.0L2.5,-0.5"/>
                </g>
                <g id="arrowRight" xlink:href="#dirArrow" transform="rotate(90) translate(36 -43)" onmousedown="handlePan(1,0)">
                  <use xlink:href="#rim" fill="#404040">
                        <set attributeName="fill" to="#808080" begin="arrowRight.mouseover" end="arrowRight.mouseout"/>
                  </use>
                  <path fill="none" stroke="white" stroke-width="1.5" d="M0,-3.0v7 M-2.5,-0.5L0,-3.0L2.5,-0.5"/>
                </g>
                <g id="arrowDown" xlink:href="#dirArrow" transform="rotate(180) translate(-30 -48)" onmousedown="handlePan(0,1)">
                  <use xlink:href="#rim" fill="#404040">
                        <set attributeName="fill" to="#808080" begin="arrowDown.mouseover" end="arrowDown.mouseout"/>
                  </use>
                  <path fill="none" stroke="white" stroke-width="1.5" d="M0,-3.0v7 M-2.5,-0.5L0,-3.0L2.5,-0.5"/>
                </g>
                <g id="arrowLeft" xlink:href="#dirArrow" transform="rotate(270) translate(-36 17)" onmousedown="handlePan(-1,0)">
                  <use xlink:href="#rim" fill="#404040">
                        <set attributeName="fill" to="#808080" begin="arrowLeft.mouseover" end="arrowLeft.mouseout"/>
                  </use>
                  <path fill="none" stroke="white" stroke-width="1.5" d="M0,-3.0v7 M-2.5,-0.5L0,-3.0L2.5,-0.5"/>
                </g>
        </g>
        <svg viewBox="0 0 15 15" width="100%" height="30px" preserveAspectRatio="xMaxYMin meet">
         <g id="arrow_out" transform="scale(0.3 0.3)">
          <a xlink:href="quickjs_8h_ae75598e7954a062f9890bc2ecf435fa1_cgraph_org.svg" target="_base">
           <rect id="button" ry="5" rx="5" y="6" x="6" height="38" width="38"
                fill="#f2f5e9" fill-opacity="0.5" stroke="#606060" stroke-width="1.0"/>
           <path id="arrow"
             d="M 11.500037,31.436501 C 11.940474,20.09759 22.043105,11.32322 32.158766,21.979434 L 37.068811,17.246167 C 37.068811,17.246167 37.088388,32 37.088388,32 L 22.160133,31.978069 C 22.160133,31.978069 26.997745,27.140456 26.997745,27.140456 C 18.528582,18.264221 13.291696,25.230495 11.500037,31.436501 z"
             style="fill:#404040;"/>
          </a>
         </g>
        </svg>
</svg>
