<?xml version="1.0" encoding="UTF-8" standalone="no"?>
<!DOCTYPE svg PUBLIC "-//W3C//DTD SVG 1.1//EN"
 "http://www.w3.org/Graphics/SVG/1.1/DTD/svg11.dtd">
<!-- Generated by graphviz version 2.43.0 (0)
 -->
<!-- Title: js_os_readdir Pages: 1 -->
<svg width="900pt" height="385pt"
 viewBox="0.00 0.00 900.00 384.65" xmlns="http://www.w3.org/2000/svg" xmlns:xlink="http://www.w3.org/1999/xlink">
<g id="graph0" class="graph" transform="scale(1 1) rotate(0) translate(4 380.65)">
<title>js_os_readdir</title>
<!-- Node1 -->
<g id="node1" class="node">
<title>Node1</title>
<g id="a_node1"><a xlink:title=" ">
<polygon fill="#bfbfbf" stroke="black" points="0,-114.5 0,-133.5 81,-133.5 81,-114.5 0,-114.5"/>
<text text-anchor="middle" x="40.5" y="-121.5" font-family="Helvetica,sans-Serif" font-size="10.00">js_os_readdir</text>
</a>
</g>
</g>
<!-- Node2 -->
<g id="node2" class="node">
<title>Node2</title>
<g id="a_node2"><a xlink:href="quickjs_8c.html#a12aed667595f49667e0095f0a028e0d4" target="_top" xlink:title=" ">
<polygon fill="none" stroke="black" points="245,-228.5 245,-247.5 408,-247.5 408,-228.5 245,-228.5"/>
<text text-anchor="middle" x="326.5" y="-235.5" font-family="Helvetica,sans-Serif" font-size="10.00">JS_DefinePropertyValueUint32</text>
</a>
</g>
</g>
<!-- Node1&#45;&gt;Node2 -->
<g id="edge1" class="edge">
<title>Node1&#45;&gt;Node2</title>
<path fill="none" stroke="midnightblue" d="M51.88,-133.92C65.69,-146.59 91.35,-168.4 117,-181 161.74,-202.99 216.2,-217.5 258.23,-226.38"/>
<polygon fill="midnightblue" stroke="midnightblue" points="257.59,-229.83 268.09,-228.41 259,-222.97 257.59,-229.83"/>
</g>
<!-- Node69 -->
<g id="node8" class="node">
<title>Node69</title>
<g id="a_node8"><a xlink:href="quickjs_8h.html#ad80a83d73e9b7d872b88fbf2943aebe9" target="_top" xlink:title=" ">
<polygon fill="none" stroke="black" points="805,-152.5 805,-171.5 892,-171.5 892,-152.5 805,-152.5"/>
<text text-anchor="middle" x="848.5" y="-159.5" font-family="Helvetica,sans-Serif" font-size="10.00">JS_IsException</text>
</a>
</g>
</g>
<!-- Node1&#45;&gt;Node69 -->
<g id="edge13" class="edge">
<title>Node1&#45;&gt;Node69</title>
<path fill="none" stroke="midnightblue" d="M81.25,-115.28C135.97,-104.06 237.7,-86 325.5,-86 325.5,-86 325.5,-86 524,-86 632.53,-86 756.24,-127.04 814.22,-148.8"/>
<polygon fill="midnightblue" stroke="midnightblue" points="813.01,-152.09 823.6,-152.37 815.5,-145.55 813.01,-152.09"/>
</g>
<!-- Node144 -->
<g id="node11" class="node">
<title>Node144</title>
<g id="a_node11"><a xlink:href="quickjs_8c.html#ae0bc4f65da64810facb2cb9e476eda2e" target="_top" xlink:title=" ">
<polygon fill="none" stroke="black" points="283,-275.5 283,-294.5 370,-294.5 370,-275.5 283,-275.5"/>
<text text-anchor="middle" x="326.5" y="-282.5" font-family="Helvetica,sans-Serif" font-size="10.00">JS_FreeCString</text>
</a>
</g>
</g>
<!-- Node1&#45;&gt;Node144 -->
<g id="edge11" class="edge">
<title>Node1&#45;&gt;Node144</title>
<path fill="none" stroke="midnightblue" d="M47.36,-133.53C58.69,-151.21 85.32,-189.3 117,-211 164.77,-243.72 228.59,-263.57 272.98,-274.35"/>
<polygon fill="midnightblue" stroke="midnightblue" points="272.45,-277.82 282.99,-276.71 274.05,-271.01 272.45,-277.82"/>
</g>
<!-- Node208 -->
<g id="node12" class="node">
<title>Node208</title>
<g id="a_node12"><a xlink:href="quickjs_8c.html#ad4ba09e4c7ab9f28c144182e1aacf1f6" target="_top" xlink:title=" ">
<polygon fill="none" stroke="red" points="287,-114.5 287,-133.5 366,-133.5 366,-114.5 287,-114.5"/>
<text text-anchor="middle" x="326.5" y="-121.5" font-family="Helvetica,sans-Serif" font-size="10.00">JS_NewArray</text>
</a>
</g>
</g>
<!-- Node1&#45;&gt;Node208 -->
<g id="edge14" class="edge">
<title>Node1&#45;&gt;Node208</title>
<path fill="none" stroke="midnightblue" d="M81.29,-124C132.49,-124 221.4,-124 276.65,-124"/>
<polygon fill="midnightblue" stroke="midnightblue" points="276.89,-127.5 286.89,-124 276.89,-120.5 276.89,-127.5"/>
</g>
<!-- Node76 -->
<g id="node13" class="node">
<title>Node76</title>
<g id="a_node13"><a xlink:href="quickjs_8c.html#a0ee6a3654a6016393fac5e1c108f403a" target="_top" xlink:title=" ">
<polygon fill="none" stroke="red" points="122.5,-38.5 122.5,-57.5 203.5,-57.5 203.5,-38.5 122.5,-38.5"/>
<text text-anchor="middle" x="163" y="-45.5" font-family="Helvetica,sans-Serif" font-size="10.00">JS_NewString</text>
</a>
</g>
</g>
<!-- Node1&#45;&gt;Node76 -->
<g id="edge15" class="edge">
<title>Node1&#45;&gt;Node76</title>
<path fill="none" stroke="midnightblue" d="M54.56,-114.33C69.38,-103.52 94.43,-85.73 117,-72 122.33,-68.76 128.14,-65.48 133.75,-62.44"/>
<polygon fill="midnightblue" stroke="midnightblue" points="135.71,-65.36 142.9,-57.58 132.43,-59.17 135.71,-65.36"/>
</g>
<!-- Node26 -->
<g id="node14" class="node">
<title>Node26</title>
<g id="a_node14"><a xlink:href="quickjs_8h.html#af931f06630ab719b5f82a16eb27effd1" target="_top" xlink:title=" ">
<polygon fill="none" stroke="red" points="124.5,-0.5 124.5,-19.5 201.5,-19.5 201.5,-0.5 124.5,-0.5"/>
<text text-anchor="middle" x="163" y="-7.5" font-family="Helvetica,sans-Serif" font-size="10.00">JS_ToCString</text>
</a>
</g>
</g>
<!-- Node1&#45;&gt;Node26 -->
<g id="edge16" class="edge">
<title>Node1&#45;&gt;Node26</title>
<path fill="none" stroke="midnightblue" d="M46.91,-114.33C57.87,-95.53 84.45,-53.71 117,-29 119.28,-27.27 121.74,-25.66 124.29,-24.18"/>
<polygon fill="midnightblue" stroke="midnightblue" points="125.91,-27.29 133.21,-19.61 122.72,-21.06 125.91,-27.29"/>
</g>
<!-- Node436 -->
<g id="node15" class="node">
<title>Node436</title>
<g id="a_node15"><a xlink:href="quickjs-libc_8c.html#a0210b73e16d177f7668621a6573576aa" target="_top" xlink:title=" ">
<polygon fill="none" stroke="black" points="117,-152.5 117,-171.5 209,-171.5 209,-152.5 117,-152.5"/>
<text text-anchor="middle" x="163" y="-159.5" font-family="Helvetica,sans-Serif" font-size="10.00">make_obj_error</text>
</a>
</g>
</g>
<!-- Node1&#45;&gt;Node436 -->
<g id="edge17" class="edge">
<title>Node1&#45;&gt;Node436</title>
<path fill="none" stroke="midnightblue" d="M71.91,-133.59C87.03,-138.36 105.52,-144.19 121.8,-149.32"/>
<polygon fill="midnightblue" stroke="midnightblue" points="121.01,-152.74 131.6,-152.41 123.12,-146.07 121.01,-152.74"/>
</g>
<!-- Node3 -->
<g id="node3" class="node">
<title>Node3</title>
<g id="a_node3"><a xlink:href="quickjs_8c.html#a0c61bd5a64c743e81188bb528b78e715" target="_top" xlink:title=" ">
<polygon fill="none" stroke="black" points="444,-266.5 444,-285.5 602,-285.5 602,-266.5 444,-266.5"/>
<text text-anchor="middle" x="523" y="-273.5" font-family="Helvetica,sans-Serif" font-size="10.00">JS_DefinePropertyValueValue</text>
</a>
</g>
</g>
<!-- Node2&#45;&gt;Node3 -->
<g id="edge2" class="edge">
<title>Node2&#45;&gt;Node3</title>
<path fill="none" stroke="midnightblue" d="M376.33,-247.54C402.69,-252.69 435.42,-259.08 463.17,-264.51"/>
<polygon fill="midnightblue" stroke="midnightblue" points="462.66,-267.97 473.15,-266.46 464.01,-261.1 462.66,-267.97"/>
</g>
<!-- Node154 -->
<g id="node9" class="node">
<title>Node154</title>
<g id="a_node9"><a xlink:href="quickjs_8h.html#a88259aa0da61ac754402c64ccecee116" target="_top" xlink:title=" ">
<polygon fill="none" stroke="red" points="480.5,-228.5 480.5,-247.5 565.5,-247.5 565.5,-228.5 480.5,-228.5"/>
<text text-anchor="middle" x="523" y="-235.5" font-family="Helvetica,sans-Serif" font-size="10.00">JS_NewUint32</text>
</a>
</g>
</g>
<!-- Node2&#45;&gt;Node154 -->
<g id="edge9" class="edge">
<title>Node2&#45;&gt;Node154</title>
<path fill="none" stroke="midnightblue" d="M408.01,-238C429,-238 451.06,-238 470.12,-238"/>
<polygon fill="midnightblue" stroke="midnightblue" points="470.38,-241.5 480.38,-238 470.38,-234.5 470.38,-241.5"/>
</g>
<!-- Node4 -->
<g id="node4" class="node">
<title>Node4</title>
<g id="a_node4"><a xlink:href="quickjs_8c.html#a0a8765bd4012467d9139bc24aabcb3ca" target="_top" xlink:title=" ">
<polygon fill="none" stroke="red" points="638,-342.5 638,-361.5 769,-361.5 769,-342.5 638,-342.5"/>
<text text-anchor="middle" x="703.5" y="-349.5" font-family="Helvetica,sans-Serif" font-size="10.00">JS_DefinePropertyValue</text>
</a>
</g>
</g>
<!-- Node3&#45;&gt;Node4 -->
<g id="edge3" class="edge">
<title>Node3&#45;&gt;Node4</title>
<path fill="none" stroke="midnightblue" d="M543.99,-285.65C566.6,-296.43 604.63,-314.2 638,-328 646.92,-331.69 656.63,-335.44 665.75,-338.84"/>
<polygon fill="midnightblue" stroke="midnightblue" points="664.75,-342.21 675.34,-342.39 667.17,-335.64 664.75,-342.21"/>
</g>
<!-- Node33 -->
<g id="node5" class="node">
<title>Node33</title>
<g id="a_node5"><a xlink:href="quickjs_8h.html#afaa20c47565bc704c6c85f3d77254e7d" target="_top" xlink:title=" ">
<polygon fill="none" stroke="red" points="809,-342.5 809,-361.5 888,-361.5 888,-342.5 809,-342.5"/>
<text text-anchor="middle" x="848.5" y="-349.5" font-family="Helvetica,sans-Serif" font-size="10.00">JS_FreeValue</text>
</a>
</g>
</g>
<!-- Node3&#45;&gt;Node33 -->
<g id="edge6" class="edge">
<title>Node3&#45;&gt;Node33</title>
<path fill="none" stroke="midnightblue" d="M565.64,-285.57C614.41,-296.8 697.62,-316.06 769,-333 778.72,-335.31 789.11,-337.8 799.05,-340.2"/>
<polygon fill="midnightblue" stroke="midnightblue" points="798.24,-343.61 808.79,-342.56 799.89,-336.8 798.24,-343.61"/>
</g>
<!-- Node55 -->
<g id="node6" class="node">
<title>Node55</title>
<g id="a_node6"><a xlink:href="quickjs_8c.html#ab7fc45a99935a1c0ba50b0216d9401a9" target="_top" xlink:title=" ">
<polygon fill="none" stroke="red" points="664.5,-266.5 664.5,-285.5 742.5,-285.5 742.5,-266.5 664.5,-266.5"/>
<text text-anchor="middle" x="703.5" y="-273.5" font-family="Helvetica,sans-Serif" font-size="10.00">JS_FreeAtom</text>
</a>
</g>
</g>
<!-- Node3&#45;&gt;Node55 -->
<g id="edge5" class="edge">
<title>Node3&#45;&gt;Node55</title>
<path fill="none" stroke="midnightblue" d="M602.03,-276C619.73,-276 638.03,-276 654.08,-276"/>
<polygon fill="midnightblue" stroke="midnightblue" points="654.28,-279.5 664.28,-276 654.28,-272.5 654.28,-279.5"/>
</g>
<!-- Node155 -->
<g id="node7" class="node">
<title>Node155</title>
<g id="a_node7"><a xlink:href="quickjs_8c.html#a859d5c989a2aaecef1653b3ac279e108" target="_top" xlink:title=" ">
<polygon fill="none" stroke="red" points="656,-228.5 656,-247.5 751,-247.5 751,-228.5 656,-228.5"/>
<text text-anchor="middle" x="703.5" y="-235.5" font-family="Helvetica,sans-Serif" font-size="10.00">JS_ValueToAtom</text>
</a>
</g>
</g>
<!-- Node3&#45;&gt;Node155 -->
<g id="edge7" class="edge">
<title>Node3&#45;&gt;Node155</title>
<path fill="none" stroke="midnightblue" d="M569.04,-266.41C593.02,-261.31 622.7,-254.99 647.97,-249.61"/>
<polygon fill="midnightblue" stroke="midnightblue" points="648.73,-253.03 657.78,-247.52 647.27,-246.18 648.73,-253.03"/>
</g>
<!-- Node4&#45;&gt;Node33 -->
<g id="edge4" class="edge">
<title>Node4&#45;&gt;Node33</title>
<path fill="none" stroke="midnightblue" d="M769.31,-352C779.08,-352 789.02,-352 798.39,-352"/>
<polygon fill="midnightblue" stroke="midnightblue" points="798.68,-355.5 808.68,-352 798.68,-348.5 798.68,-355.5"/>
</g>
<!-- Node155&#45;&gt;Node69 -->
<g id="edge8" class="edge">
<title>Node155&#45;&gt;Node69</title>
<path fill="none" stroke="midnightblue" d="M744.88,-228.41C753.06,-225.84 761.46,-222.71 769,-219 791.31,-208.02 814,-190.74 829.21,-178.09"/>
<polygon fill="midnightblue" stroke="midnightblue" points="831.49,-180.74 836.84,-171.6 826.95,-175.41 831.49,-180.74"/>
</g>
<!-- Node130 -->
<g id="node10" class="node">
<title>Node130</title>
<g id="a_node10"><a xlink:href="quickjs_8h.html#a2050bc428da1c65ac7eb87c3fa3b0392" target="_top" xlink:title=" ">
<polygon fill="none" stroke="black" points="665,-190.5 665,-209.5 742,-209.5 742,-190.5 665,-190.5"/>
<text text-anchor="middle" x="703.5" y="-197.5" font-family="Helvetica,sans-Serif" font-size="10.00">JS_NewInt32</text>
</a>
</g>
</g>
<!-- Node154&#45;&gt;Node130 -->
<g id="edge10" class="edge">
<title>Node154&#45;&gt;Node130</title>
<path fill="none" stroke="midnightblue" d="M565.85,-229.09C592.56,-223.41 627.24,-216.02 654.98,-210.12"/>
<polygon fill="midnightblue" stroke="midnightblue" points="655.81,-213.52 664.86,-208.01 654.35,-206.67 655.81,-213.52"/>
</g>
<!-- Node144&#45;&gt;Node33 -->
<g id="edge12" class="edge">
<title>Node144&#45;&gt;Node33</title>
<path fill="none" stroke="midnightblue" d="M352.77,-294.52C405.07,-313.67 529.36,-356.23 638,-371 695.69,-378.84 711.19,-377.9 769,-371 781.06,-369.56 793.95,-366.92 805.72,-364.06"/>
<polygon fill="midnightblue" stroke="midnightblue" points="806.9,-367.37 815.73,-361.51 805.18,-360.58 806.9,-367.37"/>
</g>
<!-- Node436&#45;&gt;Node2 -->
<g id="edge18" class="edge">
<title>Node436&#45;&gt;Node2</title>
<path fill="none" stroke="midnightblue" d="M176.54,-171.65C191.93,-183.11 219.18,-202.15 245,-214 254.64,-218.43 265.31,-222.27 275.63,-225.52"/>
<polygon fill="midnightblue" stroke="midnightblue" points="274.8,-228.92 285.38,-228.44 276.81,-222.21 274.8,-228.92"/>
</g>
<!-- Node436&#45;&gt;Node69 -->
<g id="edge19" class="edge">
<title>Node436&#45;&gt;Node69</title>
<path fill="none" stroke="midnightblue" d="M209.11,-162C330.65,-162 664.53,-162 794.63,-162"/>
<polygon fill="midnightblue" stroke="midnightblue" points="794.74,-165.5 804.74,-162 794.74,-158.5 794.74,-165.5"/>
</g>
<!-- Node436&#45;&gt;Node130 -->
<g id="edge21" class="edge">
<title>Node436&#45;&gt;Node130</title>
<path fill="none" stroke="midnightblue" d="M209.27,-170.8C220.88,-172.79 233.37,-174.69 245,-176 393.75,-192.7 571.05,-197.82 654.53,-199.35"/>
<polygon fill="midnightblue" stroke="midnightblue" points="654.66,-202.86 664.72,-199.53 654.78,-195.86 654.66,-202.86"/>
</g>
<!-- Node436&#45;&gt;Node208 -->
<g id="edge20" class="edge">
<title>Node436&#45;&gt;Node208</title>
<path fill="none" stroke="midnightblue" d="M204.75,-152.41C226.73,-147.24 254,-140.82 277.05,-135.4"/>
<polygon fill="midnightblue" stroke="midnightblue" points="278.05,-138.76 286.98,-133.06 276.45,-131.95 278.05,-138.76"/>
</g>
</g>
</svg>
