<?xml version="1.0" encoding="UTF-8" standalone="no"?>
<!DOCTYPE svg PUBLIC "-//W3C//DTD SVG 1.1//EN"
 "http://www.w3.org/Graphics/SVG/1.1/DTD/svg11.dtd">
<!-- Generated by graphviz version 2.43.0 (0)
 -->
<!-- Title: js_proxy_revoke_constructor Pages: 1 -->
<!--zoomable 237 -->
<svg id="main" version="1.1" xmlns="http://www.w3.org/2000/svg" xmlns:xlink="http://www.w3.org/1999/xlink" xml:space="preserve" onload="init(evt)">
<style type="text/css"><![CDATA[
.edge:hover path { stroke: red; }
.edge:hover polygon { stroke: red; fill: red; }
]]></style>
<script type="text/javascript"><![CDATA[
var edges = document.getElementsByTagName('g');
if (edges && edges.length) {
  for (var i=0;i<edges.length;i++) {
    if (edges[i].id.substr(0,4)=='edge') {
      edges[i].setAttribute('class','edge');
    }
  }
}
]]></script>
        <defs>
                <circle id="rim" cx="0" cy="0" r="7"/>
                <circle id="rim2" cx="0" cy="0" r="3.5"/>
                <g id="zoomPlus">
                        <use xlink:href="#rim" fill="#404040">
                                <set attributeName="fill" to="#808080" begin="zoomplus.mouseover" end="zoomplus.mouseout"/>
                        </use>
                        <path d="M-4,0h8M0,-4v8" fill="none" stroke="white" stroke-width="1.5" pointer-events="none"/>
                </g>
                <g id="zoomMin">
                        <use xlink:href="#rim" fill="#404040">
                                <set attributeName="fill" to="#808080" begin="zoomminus.mouseover" end="zoomminus.mouseout"/>
                        </use>
                        <path d="M-4,0h8" fill="none" stroke="white" stroke-width="1.5" pointer-events="none"/>
                </g>
                <g id="dirArrow">
                        <path fill="none" stroke="white" stroke-width="1.5" d="M0,-3.0v7 M-2.5,-0.5L0,-3.0L2.5,-0.5"/>
                </g>
               <g id="resetDef">
                       <use xlink:href="#rim2" fill="#404040">
                               <set attributeName="fill" to="#808080" begin="reset.mouseover" end="reset.mouseout"/>
                       </use>
               </g>
        </defs>

<script type="text/javascript">
var viewWidth = 912;
var viewHeight = 237;
var sectionId = 'dynsection-1687';
</script>
<script xlink:href="svgpan.js"/>
<svg id="graph" class="graph">
<g id="viewport">
<title>js_proxy_revoke_constructor</title>
<!-- Node1 -->
<g id="node1" class="node">
<title>Node1</title>
<g id="a_node1"><a xlink:title=" ">
<polygon fill="#bfbfbf" stroke="black" points="0,-38.68 0,-57.68 156,-57.68 156,-38.68 0,-38.68"/>
<text text-anchor="middle" x="78" y="-45.68" font-family="Helvetica,sans-Serif" font-size="10.00">js_proxy_revoke_constructor</text>
</a>
</g>
</g>
<!-- Node2 -->
<g id="node2" class="node">
<title>Node2</title>
<g id="a_node2"><a xlink:href="quickjs_8c.html#ac048b0ff95f3f0cb7c189e87f74df753" target="_top" xlink:title=" ">
<polygon fill="none" stroke="black" points="192,-95.68 192,-114.68 316,-114.68 316,-95.68 192,-95.68"/>
<text text-anchor="middle" x="254" y="-102.68" font-family="Helvetica,sans-Serif" font-size="10.00">JS_NewCFunctionData</text>
</a>
</g>
</g>
<!-- Node1&#45;&gt;Node2 -->
<g id="edge1" class="edge">
<title>Node1&#45;&gt;Node2</title>
<path fill="none" stroke="midnightblue" d="M108.12,-57.72C137.23,-67.26 182.16,-81.98 214.26,-92.49"/>
<polygon fill="midnightblue" stroke="midnightblue" points="213.19,-95.82 223.78,-95.61 215.37,-89.17 213.19,-95.82"/>
</g>
<!-- Node436 -->
<g id="node13" class="node">
<title>Node436</title>
<g id="a_node13"><a xlink:href="quickjs_8c.html#aebf4ad4c244ba0b95736434ff6cf812b" target="_top" xlink:title=" ">
<polygon fill="none" stroke="black" points="206,-19.68 206,-38.68 302,-38.68 302,-19.68 206,-19.68"/>
<text text-anchor="middle" x="254" y="-26.68" font-family="Helvetica,sans-Serif" font-size="10.00">js_proxy_revoke</text>
</a>
</g>
</g>
<!-- Node1&#45;&gt;Node436 -->
<g id="edge13" class="edge">
<title>Node1&#45;&gt;Node436</title>
<path fill="none" stroke="midnightblue" d="M156.08,-39.77C169.42,-38.31 183.08,-36.82 195.77,-35.43"/>
<polygon fill="midnightblue" stroke="midnightblue" points="196.16,-38.91 205.72,-34.35 195.4,-31.95 196.16,-38.91"/>
</g>
<!-- Node3 -->
<g id="node3" class="node">
<title>Node3</title>
<g id="a_node3"><a xlink:href="quickjs_8h.html#a775522f2d084fc8fa0fcb33f390006b4" target="_top" xlink:title=" ">
<polygon fill="none" stroke="black" points="386,-209.68 386,-228.68 463,-228.68 463,-209.68 386,-209.68"/>
<text text-anchor="middle" x="424.5" y="-216.68" font-family="Helvetica,sans-Serif" font-size="10.00">JS_DupValue</text>
</a>
</g>
</g>
<!-- Node2&#45;&gt;Node3 -->
<g id="edge2" class="edge">
<title>Node2&#45;&gt;Node3</title>
<path fill="none" stroke="midnightblue" d="M262.81,-114.74C278.1,-132.89 313.88,-172.54 352,-195.18 359.44,-199.6 367.81,-203.34 376.13,-206.46"/>
<polygon fill="midnightblue" stroke="midnightblue" points="375.22,-209.84 385.82,-209.83 377.52,-203.23 375.22,-209.84"/>
</g>
<!-- Node4 -->
<g id="node4" class="node">
<title>Node4</title>
<g id="a_node4"><a xlink:href="quickjs_8h.html#afaa20c47565bc704c6c85f3d77254e7d" target="_top" xlink:title=" ">
<polygon fill="none" stroke="black" points="700,-95.68 700,-114.68 779,-114.68 779,-95.68 700,-95.68"/>
<text text-anchor="middle" x="739.5" y="-102.68" font-family="Helvetica,sans-Serif" font-size="10.00">JS_FreeValue</text>
</a>
</g>
</g>
<!-- Node2&#45;&gt;Node4 -->
<g id="edge3" class="edge">
<title>Node2&#45;&gt;Node4</title>
<path fill="none" stroke="midnightblue" d="M266.6,-114.83C283.9,-128.52 318.07,-152.95 352,-162.18 485.8,-198.59 532.66,-206.66 664,-162.18 687.21,-154.32 708.87,-136.01 722.79,-122.25"/>
<polygon fill="midnightblue" stroke="midnightblue" points="725.58,-124.4 730.04,-114.78 720.56,-119.52 725.58,-124.4"/>
</g>
<!-- Node42 -->
<g id="node6" class="node">
<title>Node42</title>
<g id="a_node6"><a xlink:href="quickjs_8c.html#a5d963b1e3acf275363fedd4bfdd8a57f" target="_top" xlink:title=" ">
<polygon fill="none" stroke="black" points="352,-133.68 352,-152.68 497,-152.68 497,-133.68 352,-133.68"/>
<text text-anchor="middle" x="424.5" y="-140.68" font-family="Helvetica,sans-Serif" font-size="10.00">js_function_set_properties</text>
</a>
</g>
</g>
<!-- Node2&#45;&gt;Node42 -->
<g id="edge5" class="edge">
<title>Node2&#45;&gt;Node42</title>
<path fill="none" stroke="midnightblue" d="M297.52,-114.77C319.96,-119.83 347.67,-126.08 371.39,-131.43"/>
<polygon fill="midnightblue" stroke="midnightblue" points="370.76,-134.88 381.29,-133.66 372.3,-128.05 370.76,-134.88"/>
</g>
<!-- Node90 -->
<g id="node10" class="node">
<title>Node90</title>
<g id="a_node10"><a xlink:href="quickjs_8h.html#ad80a83d73e9b7d872b88fbf2943aebe9" target="_top" xlink:title=" ">
<polygon fill="none" stroke="black" points="381,-95.68 381,-114.68 468,-114.68 468,-95.68 381,-95.68"/>
<text text-anchor="middle" x="424.5" y="-102.68" font-family="Helvetica,sans-Serif" font-size="10.00">JS_IsException</text>
</a>
</g>
</g>
<!-- Node2&#45;&gt;Node90 -->
<g id="edge10" class="edge">
<title>Node2&#45;&gt;Node90</title>
<path fill="none" stroke="midnightblue" d="M316.31,-105.18C334.08,-105.18 353.32,-105.18 370.53,-105.18"/>
<polygon fill="midnightblue" stroke="midnightblue" points="370.95,-108.68 380.95,-105.18 370.95,-101.68 370.95,-108.68"/>
</g>
<!-- Node229 -->
<g id="node11" class="node">
<title>Node229</title>
<g id="a_node11"><a xlink:href="quickjs_8c.html#a73738c650f11459db0d7af3dcdf8316b" target="_top" xlink:title=" ">
<polygon fill="none" stroke="red" points="356.5,-57.68 356.5,-76.68 492.5,-76.68 492.5,-57.68 356.5,-57.68"/>
<text text-anchor="middle" x="424.5" y="-64.68" font-family="Helvetica,sans-Serif" font-size="10.00">JS_NewObjectProtoClass</text>
</a>
</g>
</g>
<!-- Node2&#45;&gt;Node229 -->
<g id="edge11" class="edge">
<title>Node2&#45;&gt;Node229</title>
<path fill="none" stroke="midnightblue" d="M297.52,-95.59C319.96,-90.53 347.67,-84.28 371.39,-78.93"/>
<polygon fill="midnightblue" stroke="midnightblue" points="372.3,-82.32 381.29,-76.7 370.76,-75.49 372.3,-82.32"/>
</g>
<!-- Node236 -->
<g id="node12" class="node">
<title>Node236</title>
<g id="a_node12"><a xlink:href="quickjs_8c.html#a0ddf716409e51648f0d59e7521150d19" target="_top" xlink:title=" ">
<polygon fill="none" stroke="black" points="382.5,-19.68 382.5,-38.68 466.5,-38.68 466.5,-19.68 382.5,-19.68"/>
<text text-anchor="middle" x="424.5" y="-26.68" font-family="Helvetica,sans-Serif" font-size="10.00">JS_SetOpaque</text>
</a>
</g>
</g>
<!-- Node2&#45;&gt;Node236 -->
<g id="edge12" class="edge">
<title>Node2&#45;&gt;Node236</title>
<path fill="none" stroke="midnightblue" d="M268.51,-95.63C286.71,-83.15 320.46,-61.35 352,-48.18 358.45,-45.49 365.39,-43.08 372.32,-40.96"/>
<polygon fill="midnightblue" stroke="midnightblue" points="373.76,-44.19 382.4,-38.06 371.83,-37.46 373.76,-44.19"/>
</g>
<!-- Node5 -->
<g id="node5" class="node">
<title>Node5</title>
<g id="a_node5"><a xlink:href="quickjs_8c.html#aa059f309c30fd5166d16c82a97973146" target="_top" xlink:title=" ">
<polygon fill="none" stroke="red" points="815,-95.68 815,-114.68 904,-114.68 904,-95.68 815,-95.68"/>
<text text-anchor="middle" x="859.5" y="-102.68" font-family="Helvetica,sans-Serif" font-size="10.00">__JS_FreeValue</text>
</a>
</g>
</g>
<!-- Node4&#45;&gt;Node5 -->
<g id="edge4" class="edge">
<title>Node4&#45;&gt;Node5</title>
<path fill="none" stroke="midnightblue" d="M779.14,-105.18C787.35,-105.18 796.16,-105.18 804.82,-105.18"/>
<polygon fill="midnightblue" stroke="midnightblue" points="804.87,-108.68 814.87,-105.18 804.87,-101.68 804.87,-108.68"/>
</g>
<!-- Node43 -->
<g id="node7" class="node">
<title>Node43</title>
<g id="a_node7"><a xlink:href="quickjs_8c.html#a260bfa297ff6cb5bd18e229afaa54663" target="_top" xlink:title=" ">
<polygon fill="none" stroke="red" points="550.5,-133.68 550.5,-152.68 646.5,-152.68 646.5,-133.68 550.5,-133.68"/>
<text text-anchor="middle" x="598.5" y="-140.68" font-family="Helvetica,sans-Serif" font-size="10.00">JS_AtomToString</text>
</a>
</g>
</g>
<!-- Node42&#45;&gt;Node43 -->
<g id="edge6" class="edge">
<title>Node42&#45;&gt;Node43</title>
<path fill="none" stroke="midnightblue" d="M497.45,-143.18C511.68,-143.18 526.44,-143.18 540.11,-143.18"/>
<polygon fill="midnightblue" stroke="midnightblue" points="540.32,-146.68 550.32,-143.18 540.32,-139.68 540.32,-146.68"/>
</g>
<!-- Node68 -->
<g id="node8" class="node">
<title>Node68</title>
<g id="a_node8"><a xlink:href="quickjs_8c.html#a0a8765bd4012467d9139bc24aabcb3ca" target="_top" xlink:title=" ">
<polygon fill="none" stroke="red" points="533,-95.68 533,-114.68 664,-114.68 664,-95.68 533,-95.68"/>
<text text-anchor="middle" x="598.5" y="-102.68" font-family="Helvetica,sans-Serif" font-size="10.00">JS_DefinePropertyValue</text>
</a>
</g>
</g>
<!-- Node42&#45;&gt;Node68 -->
<g id="edge7" class="edge">
<title>Node42&#45;&gt;Node68</title>
<path fill="none" stroke="midnightblue" d="M468.9,-133.59C491.91,-128.51 520.35,-122.23 544.63,-116.86"/>
<polygon fill="midnightblue" stroke="midnightblue" points="545.4,-120.28 554.41,-114.7 543.89,-113.44 545.4,-120.28"/>
</g>
<!-- Node130 -->
<g id="node9" class="node">
<title>Node130</title>
<g id="a_node9"><a xlink:href="quickjs_8h.html#a2050bc428da1c65ac7eb87c3fa3b0392" target="_top" xlink:title=" ">
<polygon fill="none" stroke="black" points="560,-57.68 560,-76.68 637,-76.68 637,-57.68 560,-57.68"/>
<text text-anchor="middle" x="598.5" y="-64.68" font-family="Helvetica,sans-Serif" font-size="10.00">JS_NewInt32</text>
</a>
</g>
</g>
<!-- Node42&#45;&gt;Node130 -->
<g id="edge9" class="edge">
<title>Node42&#45;&gt;Node130</title>
<path fill="none" stroke="midnightblue" d="M475.78,-133.62C483.18,-131.15 490.49,-128.05 497,-124.18 517,-112.3 513.16,-98.33 533,-86.18 538.36,-82.9 544.31,-80.16 550.38,-77.88"/>
<polygon fill="midnightblue" stroke="midnightblue" points="551.57,-81.17 559.93,-74.66 549.33,-74.54 551.57,-81.17"/>
</g>
<!-- Node68&#45;&gt;Node4 -->
<g id="edge8" class="edge">
<title>Node68&#45;&gt;Node4</title>
<path fill="none" stroke="midnightblue" d="M664.12,-105.18C672.69,-105.18 681.36,-105.18 689.61,-105.18"/>
<polygon fill="midnightblue" stroke="midnightblue" points="689.79,-108.68 699.79,-105.18 689.79,-101.68 689.79,-108.68"/>
</g>
<!-- Node436&#45;&gt;Node4 -->
<g id="edge14" class="edge">
<title>Node436&#45;&gt;Node4</title>
<path fill="none" stroke="midnightblue" d="M294.39,-19.67C311.91,-15.91 332.87,-12.04 352,-10.18 491.04,3.31 537.52,11.12 664,-48.18 685.69,-58.35 707.06,-75.66 721.31,-88.54"/>
<polygon fill="midnightblue" stroke="midnightblue" points="719.12,-91.28 728.82,-95.53 723.88,-86.16 719.12,-91.28"/>
</g>
</g>
</svg>
        <g id="navigator" transform="translate(0 0)" fill="#404254">
                <rect fill="#f2f5e9" fill-opacity="0.5" stroke="#606060" stroke-width=".5" x="0" y="0" width="60" height="60"/>
                <use id="zoomplus" xlink:href="#zoomPlus" x="17" y="9" onmousedown="handleZoom(evt,'in')"/>
                <use id="zoomminus" xlink:href="#zoomMin" x="42" y="9" onmousedown="handleZoom(evt,'out')"/>
                <use id="reset" xlink:href="#resetDef" x="30" y="36" onmousedown="handleReset()"/>
                <g id="arrowUp" xlink:href="#dirArrow" transform="translate(30 24)" onmousedown="handlePan(0,-1)">
                  <use xlink:href="#rim" fill="#404040">
                        <set attributeName="fill" to="#808080" begin="arrowUp.mouseover" end="arrowUp.mouseout"/>
                  </use>
                  <path fill="none" stroke="white" stroke-width="1.5" d="M0,-3.0v7 M-2.5,-0.5L0,-3.0L2.5,-0.5"/>
                </g>
                <g id="arrowRight" xlink:href="#dirArrow" transform="rotate(90) translate(36 -43)" onmousedown="handlePan(1,0)">
                  <use xlink:href="#rim" fill="#404040">
                        <set attributeName="fill" to="#808080" begin="arrowRight.mouseover" end="arrowRight.mouseout"/>
                  </use>
                  <path fill="none" stroke="white" stroke-width="1.5" d="M0,-3.0v7 M-2.5,-0.5L0,-3.0L2.5,-0.5"/>
                </g>
                <g id="arrowDown" xlink:href="#dirArrow" transform="rotate(180) translate(-30 -48)" onmousedown="handlePan(0,1)">
                  <use xlink:href="#rim" fill="#404040">
                        <set attributeName="fill" to="#808080" begin="arrowDown.mouseover" end="arrowDown.mouseout"/>
                  </use>
                  <path fill="none" stroke="white" stroke-width="1.5" d="M0,-3.0v7 M-2.5,-0.5L0,-3.0L2.5,-0.5"/>
                </g>
                <g id="arrowLeft" xlink:href="#dirArrow" transform="rotate(270) translate(-36 17)" onmousedown="handlePan(-1,0)">
                  <use xlink:href="#rim" fill="#404040">
                        <set attributeName="fill" to="#808080" begin="arrowLeft.mouseover" end="arrowLeft.mouseout"/>
                  </use>
                  <path fill="none" stroke="white" stroke-width="1.5" d="M0,-3.0v7 M-2.5,-0.5L0,-3.0L2.5,-0.5"/>
                </g>
        </g>
        <svg viewBox="0 0 15 15" width="100%" height="30px" preserveAspectRatio="xMaxYMin meet">
         <g id="arrow_out" transform="scale(0.3 0.3)">
          <a xlink:href="quickjs_8c_adf2952dd52aa03ebcd2e60880eb1b05c_cgraph_org.svg" target="_base">
           <rect id="button" ry="5" rx="5" y="6" x="6" height="38" width="38"
                fill="#f2f5e9" fill-opacity="0.5" stroke="#606060" stroke-width="1.0"/>
           <path id="arrow"
             d="M 11.500037,31.436501 C 11.940474,20.09759 22.043105,11.32322 32.158766,21.979434 L 37.068811,17.246167 C 37.068811,17.246167 37.088388,32 37.088388,32 L 22.160133,31.978069 C 22.160133,31.978069 26.997745,27.140456 26.997745,27.140456 C 18.528582,18.264221 13.291696,25.230495 11.500037,31.436501 z"
             style="fill:#404040;"/>
          </a>
         </g>
        </svg>
</svg>
