<?xml version="1.0" encoding="UTF-8" standalone="no"?>
<!DOCTYPE svg PUBLIC "-//W3C//DTD SVG 1.1//EN"
 "http://www.w3.org/Graphics/SVG/1.1/DTD/svg11.dtd">
<!-- Generated by graphviz version 2.43.0 (0)
 -->
<!-- Title: JS_GetOwnPropertyInternal Pages: 1 -->
<svg width="1022pt" height="861pt"
 viewBox="0.00 0.00 1022.00 861.00" xmlns="http://www.w3.org/2000/svg" xmlns:xlink="http://www.w3.org/1999/xlink">
<g id="graph0" class="graph" transform="scale(1 1) rotate(0) translate(4 857)">
<title>JS_GetOwnPropertyInternal</title>
<!-- Node1 -->
<g id="node1" class="node">
<title>Node1</title>
<g id="a_node1"><a xlink:title=" ">
<polygon fill="#bfbfbf" stroke="black" points="865,-354.5 865,-373.5 1014,-373.5 1014,-354.5 865,-354.5"/>
<text text-anchor="middle" x="939.5" y="-361.5" font-family="Helvetica,sans-Serif" font-size="10.00">JS_GetOwnPropertyInternal</text>
</a>
</g>
</g>
<!-- Node2 -->
<g id="node2" class="node">
<title>Node2</title>
<g id="a_node2"><a xlink:href="quickjs_8c.html#a3b754d750c7f3123e85f4a2e748de023" target="_top" xlink:title=" ">
<polygon fill="none" stroke="black" points="470,-833.5 470,-852.5 598,-852.5 598,-833.5 470,-833.5"/>
<text text-anchor="middle" x="534" y="-840.5" font-family="Helvetica,sans-Serif" font-size="10.00">JS_CopyDataProperties</text>
</a>
</g>
</g>
<!-- Node1&#45;&gt;Node2 -->
<g id="edge1" class="edge">
<title>Node1&#45;&gt;Node2</title>
<path fill="none" stroke="midnightblue" d="M938.53,-383.76C937.54,-444.85 926.34,-632.89 829,-739 768.88,-804.53 664.88,-828.78 598.06,-837.75"/>
<polygon fill="midnightblue" stroke="midnightblue" points="942.03,-383.62 938.61,-373.59 935.03,-383.56 942.03,-383.62"/>
</g>
<!-- Node610 -->
<g id="node8" class="node">
<title>Node610</title>
<g id="a_node8"><a xlink:href="quickjs_8c.html#ac3d351dbdf57be84bab3d5c40009df53" target="_top" xlink:title=" ">
<polygon fill="none" stroke="black" points="682,-278.5 682,-297.5 793,-297.5 793,-278.5 682,-278.5"/>
<text text-anchor="middle" x="737.5" y="-285.5" font-family="Helvetica,sans-Serif" font-size="10.00">JS_GetOwnProperty</text>
</a>
</g>
</g>
<!-- Node1&#45;&gt;Node610 -->
<g id="edge10" class="edge">
<title>Node1&#45;&gt;Node610</title>
<path fill="none" stroke="midnightblue" d="M911.74,-349.59C889.93,-338.26 858.09,-322.66 829,-312 813.59,-306.35 796.25,-301.42 780.9,-297.53"/>
<polygon fill="midnightblue" stroke="midnightblue" points="910.25,-352.75 920.73,-354.31 913.5,-346.56 910.25,-352.75"/>
</g>
<!-- Node247 -->
<g id="node10" class="node">
<title>Node247</title>
<g id="a_node10"><a xlink:href="quickjs_8c.html#a79c9d633e8f9d5fd70546406b9e6f176" target="_top" xlink:title=" ">
<polygon fill="none" stroke="red" points="458,-795.5 458,-814.5 610,-814.5 610,-795.5 458,-795.5"/>
<text text-anchor="middle" x="534" y="-802.5" font-family="Helvetica,sans-Serif" font-size="10.00">JS_GetOwnPropertyNames2</text>
</a>
</g>
</g>
<!-- Node1&#45;&gt;Node247 -->
<g id="edge12" class="edge">
<title>Node1&#45;&gt;Node247</title>
<path fill="none" stroke="midnightblue" d="M936.5,-383.57C930.19,-436.29 906.23,-583.27 829,-672 765,-745.53 652.18,-780.55 586.47,-795.44"/>
<polygon fill="midnightblue" stroke="midnightblue" points="939.99,-383.88 937.62,-373.55 933.04,-383.1 939.99,-383.88"/>
</g>
<!-- Node611 -->
<g id="node11" class="node">
<title>Node611</title>
<g id="a_node11"><a xlink:href="quickjs_8c.html#a176ac5ff56a118a0b1b2566798d28823" target="_top" xlink:title=" ">
<polygon fill="none" stroke="black" points="646,-643.5 646,-662.5 829,-662.5 829,-643.5 646,-643.5"/>
<text text-anchor="middle" x="737.5" y="-650.5" font-family="Helvetica,sans-Serif" font-size="10.00">JS_GetOwnPropertyNamesInternal</text>
</a>
</g>
</g>
<!-- Node1&#45;&gt;Node611 -->
<g id="edge13" class="edge">
<title>Node1&#45;&gt;Node611</title>
<path fill="none" stroke="midnightblue" d="M936.6,-383.82C930.7,-433.91 908.01,-566.33 829,-633 823.96,-637.25 818.21,-640.66 812.11,-643.38"/>
<polygon fill="midnightblue" stroke="midnightblue" points="940.1,-384 937.7,-373.68 933.14,-383.25 940.1,-384"/>
</g>
<!-- Node606 -->
<g id="node15" class="node">
<title>Node606</title>
<g id="a_node15"><a xlink:href="quickjs_8c.html#a43a4ecde0329def8ff22e9341c7b109d" target="_top" xlink:title=" ">
<polygon fill="none" stroke="black" points="480.5,-555.5 480.5,-574.5 587.5,-574.5 587.5,-555.5 480.5,-555.5"/>
<text text-anchor="middle" x="534" y="-562.5" font-family="Helvetica,sans-Serif" font-size="10.00">js_object_isSealed</text>
</a>
</g>
</g>
<!-- Node1&#45;&gt;Node606 -->
<g id="edge31" class="edge">
<title>Node1&#45;&gt;Node606</title>
<path fill="none" stroke="midnightblue" d="M931.48,-382.91C917.66,-417.2 883.48,-489.24 829,-523 754.71,-569.04 649.91,-572.52 587.57,-569.62"/>
<polygon fill="midnightblue" stroke="midnightblue" points="934.75,-384.15 935.11,-373.56 928.23,-381.61 934.75,-384.15"/>
</g>
<!-- Node321 -->
<g id="node16" class="node">
<title>Node321</title>
<g id="a_node16"><a xlink:href="quickjs_8c.html#a3b1f61e0c2e39eb52d8b1c5c8713873e" target="_top" xlink:title=" ">
<polygon fill="none" stroke="red" points="491,-517.5 491,-536.5 577,-536.5 577,-517.5 491,-517.5"/>
<text text-anchor="middle" x="534" y="-524.5" font-family="Helvetica,sans-Serif" font-size="10.00">js_object_seal</text>
</a>
</g>
</g>
<!-- Node1&#45;&gt;Node321 -->
<g id="edge33" class="edge">
<title>Node1&#45;&gt;Node321</title>
<path fill="none" stroke="midnightblue" d="M928.28,-382.29C911.56,-410.32 875.48,-463.23 829,-488 747.89,-531.23 636.95,-533.13 577.22,-530.33"/>
<polygon fill="midnightblue" stroke="midnightblue" points="931.39,-383.91 933.38,-373.51 925.34,-380.4 931.39,-383.91"/>
</g>
<!-- Node353 -->
<g id="node18" class="node">
<title>Node353</title>
<g id="a_node18"><a xlink:href="quickjs_8c.html#a438b354d69a8f0674195b0cdc19dd686" target="_top" xlink:title=" ">
<polygon fill="none" stroke="black" points="458.5,-468 458.5,-498 609.5,-498 609.5,-468 458.5,-468"/>
<text text-anchor="start" x="466.5" y="-486" font-family="Helvetica,sans-Serif" font-size="10.00">js_proxy_get_own_property</text>
<text text-anchor="middle" x="534" y="-475" font-family="Helvetica,sans-Serif" font-size="10.00">_names</text>
</a>
</g>
</g>
<!-- Node1&#45;&gt;Node353 -->
<g id="edge38" class="edge">
<title>Node1&#45;&gt;Node353</title>
<path fill="none" stroke="midnightblue" d="M924.64,-381.51C905.73,-403.94 869.53,-441.96 829,-459 758.78,-488.53 670.9,-491.84 609.59,-489.44"/>
<polygon fill="midnightblue" stroke="midnightblue" points="927.37,-383.7 931.02,-373.75 921.96,-379.25 927.37,-383.7"/>
</g>
<!-- Node516 -->
<g id="node19" class="node">
<title>Node516</title>
<g id="a_node19"><a xlink:href="quickjs_8c.html#a9d6d0a9704951d01c128975e0d2213f8" target="_top" xlink:title=" ">
<polygon fill="none" stroke="red" points="692,-354.5 692,-373.5 783,-373.5 783,-354.5 692,-354.5"/>
<text text-anchor="middle" x="737.5" y="-361.5" font-family="Helvetica,sans-Serif" font-size="10.00">JS_HasProperty</text>
</a>
</g>
</g>
<!-- Node1&#45;&gt;Node516 -->
<g id="edge24" class="edge">
<title>Node1&#45;&gt;Node516</title>
<path fill="none" stroke="midnightblue" d="M854.82,-364C830.25,-364 804.32,-364 783.2,-364"/>
<polygon fill="midnightblue" stroke="midnightblue" points="854.88,-367.5 864.88,-364 854.88,-360.5 854.88,-367.5"/>
</g>
<!-- Node521 -->
<g id="node20" class="node">
<title>Node521</title>
<g id="a_node20"><a xlink:href="quickjs_8c.html#a1bddfeab11a7cfee6bd88781073b5972" target="_top" xlink:title=" ">
<polygon fill="none" stroke="black" points="494,-315.5 494,-334.5 574,-334.5 574,-315.5 494,-315.5"/>
<text text-anchor="middle" x="534" y="-322.5" font-family="Helvetica,sans-Serif" font-size="10.00">js_proxy_has</text>
</a>
</g>
</g>
<!-- Node1&#45;&gt;Node521 -->
<g id="edge39" class="edge">
<title>Node1&#45;&gt;Node521</title>
<path fill="none" stroke="midnightblue" d="M880.11,-352.71C863.63,-349.84 845.66,-347.01 829,-345 738.08,-334.05 630.57,-328.63 574.12,-326.37"/>
<polygon fill="midnightblue" stroke="midnightblue" points="879.69,-356.19 890.15,-354.5 880.91,-349.3 879.69,-356.19"/>
</g>
<!-- Node308 -->
<g id="node21" class="node">
<title>Node308</title>
<g id="a_node21"><a xlink:href="quickjs_8c.html#a26abea9136a3d8e9a861aefb51626b4e" target="_top" xlink:title=" ">
<polygon fill="none" stroke="black" points="663,-240.5 663,-259.5 812,-259.5 812,-240.5 663,-240.5"/>
<text text-anchor="middle" x="737.5" y="-247.5" font-family="Helvetica,sans-Serif" font-size="10.00">js_object___lookupGetter__</text>
</a>
</g>
</g>
<!-- Node1&#45;&gt;Node308 -->
<g id="edge27" class="edge">
<title>Node1&#45;&gt;Node308</title>
<path fill="none" stroke="midnightblue" d="M923.74,-346.63C904.31,-324.95 868.01,-288.36 829,-269 821.23,-265.15 812.72,-262.07 804.11,-259.62"/>
<polygon fill="midnightblue" stroke="midnightblue" points="921.33,-349.19 930.56,-354.41 926.59,-344.58 921.33,-349.19"/>
</g>
<!-- Node283 -->
<g id="node22" class="node">
<title>Node283</title>
<g id="a_node22"><a xlink:href="quickjs_8c.html#a5f75fb513884286c86db6863663f262a" target="_top" xlink:title=" ">
<polygon fill="none" stroke="black" points="665.5,-593 665.5,-623 809.5,-623 809.5,-593 665.5,-593"/>
<text text-anchor="start" x="673.5" y="-611" font-family="Helvetica,sans-Serif" font-size="10.00">js_object_getOwnProperty</text>
<text text-anchor="middle" x="737.5" y="-600" font-family="Helvetica,sans-Serif" font-size="10.00">Descriptor</text>
</a>
</g>
</g>
<!-- Node1&#45;&gt;Node283 -->
<g id="edge28" class="edge">
<title>Node1&#45;&gt;Node283</title>
<path fill="none" stroke="midnightblue" d="M933.68,-383.5C922.47,-424.9 890.79,-522.14 829,-576 820.96,-583.01 811.28,-588.51 801.29,-592.83"/>
<polygon fill="midnightblue" stroke="midnightblue" points="937.13,-384.16 936.26,-373.6 930.35,-382.4 937.13,-384.16"/>
</g>
<!-- Node312 -->
<g id="node23" class="node">
<title>Node312</title>
<g id="a_node23"><a xlink:href="quickjs_8c.html#ad61ef444b51b69a8a4cb9e3cac990c8d" target="_top" xlink:title=" ">
<polygon fill="none" stroke="black" points="664.5,-202.5 664.5,-221.5 810.5,-221.5 810.5,-202.5 664.5,-202.5"/>
<text text-anchor="middle" x="737.5" y="-209.5" font-family="Helvetica,sans-Serif" font-size="10.00">js_object_hasOwnProperty</text>
</a>
</g>
</g>
<!-- Node1&#45;&gt;Node312 -->
<g id="edge30" class="edge">
<title>Node1&#45;&gt;Node312</title>
<path fill="none" stroke="midnightblue" d="M928.63,-345.25C912.15,-315.91 876.15,-259.55 829,-231 822.68,-227.17 815.71,-224.11 808.53,-221.66"/>
<polygon fill="midnightblue" stroke="midnightblue" points="925.77,-347.31 933.63,-354.41 931.91,-343.96 925.77,-347.31"/>
</g>
<!-- Node314 -->
<g id="node24" class="node">
<title>Node314</title>
<g id="a_node24"><a xlink:href="quickjs_8c.html#acc70b8dea6a26f839c651835b7104c92" target="_top" xlink:title=" ">
<polygon fill="none" stroke="black" points="651,-164.5 651,-183.5 824,-183.5 824,-164.5 651,-164.5"/>
<text text-anchor="middle" x="737.5" y="-171.5" font-family="Helvetica,sans-Serif" font-size="10.00">js_object_propertyIsEnumerable</text>
</a>
</g>
</g>
<!-- Node1&#45;&gt;Node314 -->
<g id="edge32" class="edge">
<title>Node1&#45;&gt;Node314</title>
<path fill="none" stroke="midnightblue" d="M931.86,-344.56C918.49,-308.51 884.74,-231.47 829,-193 823.45,-189.17 817.29,-186.09 810.86,-183.6"/>
<polygon fill="midnightblue" stroke="midnightblue" points="928.7,-346.11 935.36,-354.34 935.29,-343.75 928.7,-346.11"/>
</g>
<!-- Node226 -->
<g id="node25" class="node">
<title>Node226</title>
<g id="a_node25"><a xlink:href="quickjs_8c.html#a7e5b77a4851eee6f666581d051979392" target="_top" xlink:title=" ">
<polygon fill="none" stroke="black" points="678,-115 678,-145 797,-145 797,-115 678,-115"/>
<text text-anchor="start" x="686" y="-133" font-family="Helvetica,sans-Serif" font-size="10.00">js_proxy_define_own</text>
<text text-anchor="middle" x="737.5" y="-122" font-family="Helvetica,sans-Serif" font-size="10.00">_property</text>
</a>
</g>
</g>
<!-- Node1&#45;&gt;Node226 -->
<g id="edge34" class="edge">
<title>Node1&#45;&gt;Node226</title>
<path fill="none" stroke="midnightblue" d="M933.88,-344.43C923.06,-302.96 892.08,-205.89 829,-155 819.87,-147.63 808.71,-142.43 797.39,-138.76"/>
<polygon fill="midnightblue" stroke="midnightblue" points="930.54,-345.5 936.36,-354.36 937.33,-343.81 930.54,-345.5"/>
</g>
<!-- Node305 -->
<g id="node26" class="node">
<title>Node305</title>
<g id="a_node26"><a xlink:href="quickjs_8c.html#acffb121a8a0ee2b735f60c1db01e79e7" target="_top" xlink:title=" ">
<polygon fill="none" stroke="black" points="667.5,-76.5 667.5,-95.5 807.5,-95.5 807.5,-76.5 667.5,-76.5"/>
<text text-anchor="middle" x="737.5" y="-83.5" font-family="Helvetica,sans-Serif" font-size="10.00">js_proxy_delete_property</text>
</a>
</g>
</g>
<!-- Node1&#45;&gt;Node305 -->
<g id="edge35" class="edge">
<title>Node1&#45;&gt;Node305</title>
<path fill="none" stroke="midnightblue" d="M936.31,-344.22C929.8,-295.35 905.93,-168.35 829,-105 822.8,-99.9 815.57,-96.06 807.95,-93.2"/>
<polygon fill="midnightblue" stroke="midnightblue" points="932.87,-344.89 937.56,-354.39 939.81,-344.03 932.87,-344.89"/>
</g>
<!-- Node592 -->
<g id="node27" class="node">
<title>Node592</title>
<g id="a_node27"><a xlink:href="quickjs_8c.html#a45df491949e8e055e732eb13c446d47b" target="_top" xlink:title=" ">
<polygon fill="none" stroke="black" points="698,-38.5 698,-57.5 777,-57.5 777,-38.5 698,-38.5"/>
<text text-anchor="middle" x="737.5" y="-45.5" font-family="Helvetica,sans-Serif" font-size="10.00">js_proxy_get</text>
</a>
</g>
</g>
<!-- Node1&#45;&gt;Node592 -->
<g id="edge36" class="edge">
<title>Node1&#45;&gt;Node592</title>
<path fill="none" stroke="midnightblue" d="M937.51,-344.28C933.69,-290.73 915.42,-141.62 829,-67 814.9,-54.83 795,-49.79 777.45,-47.91"/>
<polygon fill="midnightblue" stroke="midnightblue" points="934.02,-344.69 938.13,-354.46 941.01,-344.26 934.02,-344.69"/>
</g>
<!-- Node398 -->
<g id="node28" class="node">
<title>Node398</title>
<g id="a_node28"><a xlink:href="quickjs_8c.html#ab9c2e9c8dab72f3c057efe4ffcced332" target="_top" xlink:title=" ">
<polygon fill="none" stroke="black" points="662,-0.5 662,-19.5 813,-19.5 813,-0.5 662,-0.5"/>
<text text-anchor="middle" x="737.5" y="-7.5" font-family="Helvetica,sans-Serif" font-size="10.00">js_proxy_get_own_property</text>
</a>
</g>
</g>
<!-- Node1&#45;&gt;Node398 -->
<g id="edge37" class="edge">
<title>Node1&#45;&gt;Node398</title>
<path fill="none" stroke="midnightblue" d="M938.44,-344.16C937.12,-286.06 924.9,-114.98 829,-29 824.34,-24.82 819,-21.47 813.29,-18.8"/>
<polygon fill="midnightblue" stroke="midnightblue" points="934.95,-344.54 938.58,-354.5 941.94,-344.45 934.95,-344.54"/>
</g>
<!-- Node126 -->
<g id="node29" class="node">
<title>Node126</title>
<g id="a_node29"><a xlink:href="quickjs_8c.html#ad38b16d301e8f3661cf4c115c86511b3" target="_top" xlink:title=" ">
<polygon fill="none" stroke="black" points="495,-391.5 495,-410.5 573,-410.5 573,-391.5 495,-391.5"/>
<text text-anchor="middle" x="534" y="-398.5" font-family="Helvetica,sans-Serif" font-size="10.00">js_proxy_set</text>
</a>
</g>
</g>
<!-- Node1&#45;&gt;Node126 -->
<g id="edge40" class="edge">
<title>Node1&#45;&gt;Node126</title>
<path fill="none" stroke="midnightblue" d="M880.35,-375.32C863.81,-378.21 845.74,-381.04 829,-383 737.58,-393.7 629.37,-398.25 573.18,-400.01"/>
<polygon fill="midnightblue" stroke="midnightblue" points="881.19,-378.73 890.43,-373.53 879.97,-371.83 881.19,-378.73"/>
</g>
<!-- Node125 -->
<g id="node30" class="node">
<title>Node125</title>
<g id="a_node30"><a xlink:href="quickjs_8c.html#a638e637d492ee889691691baba33c4bd" target="_top" xlink:title=" ">
<polygon fill="none" stroke="red" points="675,-430.5 675,-449.5 800,-449.5 800,-430.5 675,-430.5"/>
<text text-anchor="middle" x="737.5" y="-437.5" font-family="Helvetica,sans-Serif" font-size="10.00">JS_SetPropertyGeneric</text>
</a>
</g>
</g>
<!-- Node1&#45;&gt;Node125 -->
<g id="edge41" class="edge">
<title>Node1&#45;&gt;Node125</title>
<path fill="none" stroke="midnightblue" d="M911.74,-378.41C889.93,-389.74 858.09,-405.34 829,-416 813.59,-421.65 796.25,-426.58 780.9,-430.47"/>
<polygon fill="midnightblue" stroke="midnightblue" points="913.5,-381.44 920.73,-373.69 910.25,-375.25 913.5,-381.44"/>
</g>
<!-- Node3 -->
<g id="node3" class="node">
<title>Node3</title>
<g id="a_node3"><a xlink:href="quickjs_8c.html#ac2894ff4edcdb4e6841bcce9c76081e3" target="_top" xlink:title=" ">
<polygon fill="none" stroke="red" points="330,-503.5 330,-522.5 417,-522.5 417,-503.5 330,-503.5"/>
<text text-anchor="middle" x="373.5" y="-510.5" font-family="Helvetica,sans-Serif" font-size="10.00">JS_CallInternal</text>
</a>
</g>
</g>
<!-- Node2&#45;&gt;Node3 -->
<g id="edge2" class="edge">
<title>Node2&#45;&gt;Node3</title>
<path fill="none" stroke="midnightblue" d="M462.68,-828.04C461.04,-826.79 459.47,-825.45 458,-824 412.91,-779.55 382.24,-570.3 375.77,-522.67"/>
<polygon fill="midnightblue" stroke="midnightblue" points="461.11,-831.19 471.45,-833.49 464.8,-825.24 461.11,-831.19"/>
</g>
<!-- Node309 -->
<g id="node7" class="node">
<title>Node309</title>
<g id="a_node7"><a xlink:href="quickjs_8c.html#ae69502aeeec991fb0bf5a9657aaa7453" target="_top" xlink:title=" ">
<polygon fill="none" stroke="black" points="325,-833.5 325,-852.5 422,-852.5 422,-833.5 325,-833.5"/>
<text text-anchor="middle" x="373.5" y="-840.5" font-family="Helvetica,sans-Serif" font-size="10.00">js_object_assign</text>
</a>
</g>
</g>
<!-- Node2&#45;&gt;Node309 -->
<g id="edge9" class="edge">
<title>Node2&#45;&gt;Node309</title>
<path fill="none" stroke="midnightblue" d="M459.75,-843C447.01,-843 434.07,-843 422.24,-843"/>
<polygon fill="midnightblue" stroke="midnightblue" points="459.9,-846.5 469.9,-843 459.9,-839.5 459.9,-846.5"/>
</g>
<!-- Node3&#45;&gt;Node3 -->
<g id="edge8" class="edge">
<title>Node3&#45;&gt;Node3</title>
<path fill="none" stroke="midnightblue" d="M399.54,-532.03C398.12,-537.13 389.44,-541 373.5,-541 348.62,-541 341.42,-531.57 351.92,-522.76"/>
<polygon fill="midnightblue" stroke="midnightblue" points="402.57,-530.25 395.08,-522.76 396.26,-533.29 402.57,-530.25"/>
</g>
<!-- Node4 -->
<g id="node4" class="node">
<title>Node4</title>
<g id="a_node4"><a xlink:href="quickjs_8c.html#ade71a22dc56e7371392393df663b28b3" target="_top" xlink:title=" ">
<polygon fill="none" stroke="red" points="176,-493.5 176,-512.5 289,-512.5 289,-493.5 176,-493.5"/>
<text text-anchor="middle" x="232.5" y="-500.5" font-family="Helvetica,sans-Serif" font-size="10.00">async_func_resume</text>
</a>
</g>
</g>
<!-- Node3&#45;&gt;Node4 -->
<g id="edge3" class="edge">
<title>Node3&#45;&gt;Node4</title>
<path fill="none" stroke="midnightblue" d="M319.48,-509.19C309.51,-508.47 299.05,-507.72 289.01,-506.99"/>
<polygon fill="midnightblue" stroke="midnightblue" points="319.44,-512.69 329.66,-509.92 319.94,-505.71 319.44,-512.69"/>
</g>
<!-- Node23 -->
<g id="node5" class="node">
<title>Node23</title>
<g id="a_node5"><a xlink:href="quickjs_8c.html#a1a4c02a29525d5cb2085dd8bca3af350" target="_top" xlink:title=" ">
<polygon fill="none" stroke="red" points="207.5,-531.5 207.5,-550.5 257.5,-550.5 257.5,-531.5 207.5,-531.5"/>
<text text-anchor="middle" x="232.5" y="-538.5" font-family="Helvetica,sans-Serif" font-size="10.00">JS_Call</text>
</a>
</g>
</g>
<!-- Node3&#45;&gt;Node23 -->
<g id="edge4" class="edge">
<title>Node3&#45;&gt;Node23</title>
<path fill="none" stroke="midnightblue" d="M319.7,-517.06C297.57,-521.05 273.03,-526.47 255.82,-531.39"/>
<polygon fill="midnightblue" stroke="midnightblue" points="320.4,-520.49 329.66,-515.34 319.21,-513.59 320.4,-520.49"/>
</g>
<!-- Node23&#45;&gt;Node3 -->
<g id="edge7" class="edge">
<title>Node23&#45;&gt;Node3</title>
<path fill="none" stroke="midnightblue" d="M267.87,-539.99C293.69,-536.13 328.27,-528.89 350.48,-522.53"/>
<polygon fill="midnightblue" stroke="midnightblue" points="267.19,-536.55 257.76,-541.38 268.14,-543.49 267.19,-536.55"/>
</g>
<!-- Node26 -->
<g id="node6" class="node">
<title>Node26</title>
<g id="a_node6"><a xlink:href="quickjs_8c.html#a624282391413d4c5a030adbd8b77aa80" target="_top" xlink:title=" ">
<polygon fill="none" stroke="red" points="0,-587.5 0,-606.5 140,-606.5 140,-587.5 0,-587.5"/>
<text text-anchor="middle" x="70" y="-594.5" font-family="Helvetica,sans-Serif" font-size="10.00">internalize_json_property</text>
</a>
</g>
</g>
<!-- Node23&#45;&gt;Node26 -->
<g id="edge5" class="edge">
<title>Node23&#45;&gt;Node26</title>
<path fill="none" stroke="midnightblue" d="M197.99,-552.69C168.47,-562.99 125.97,-577.82 98.42,-587.43"/>
<polygon fill="midnightblue" stroke="midnightblue" points="199.18,-555.98 207.47,-549.38 196.88,-549.37 199.18,-555.98"/>
</g>
<!-- Node26&#45;&gt;Node26 -->
<g id="edge6" class="edge">
<title>Node26&#45;&gt;Node26</title>
<path fill="none" stroke="midnightblue" d="M100.31,-615.27C99.45,-620.74 89.35,-625 70,-625 41.21,-625 32.88,-615.57 45.03,-606.76"/>
<polygon fill="midnightblue" stroke="midnightblue" points="103.25,-613.37 94.97,-606.76 97.32,-617.09 103.25,-613.37"/>
</g>
<!-- Node270 -->
<g id="node9" class="node">
<title>Node270</title>
<g id="a_node9"><a xlink:href="quickjs_8c.html#ac6d5606ba25525b3a03981eefbe98e13" target="_top" xlink:title=" ">
<polygon fill="none" stroke="black" points="486,-277.5 486,-296.5 582,-296.5 582,-277.5 486,-277.5"/>
<text text-anchor="middle" x="534" y="-284.5" font-family="Helvetica,sans-Serif" font-size="10.00">js_function_bind</text>
</a>
</g>
</g>
<!-- Node610&#45;&gt;Node270 -->
<g id="edge11" class="edge">
<title>Node610&#45;&gt;Node270</title>
<path fill="none" stroke="midnightblue" d="M671.85,-287.68C642.65,-287.53 608.78,-287.37 582.04,-287.23"/>
<polygon fill="midnightblue" stroke="midnightblue" points="671.95,-291.18 681.97,-287.73 671.99,-284.18 671.95,-291.18"/>
</g>
<!-- Node611&#45;&gt;Node2 -->
<g id="edge16" class="edge">
<title>Node611&#45;&gt;Node2</title>
<path fill="none" stroke="midnightblue" d="M728.03,-671.78C711.01,-707.3 669.17,-784.3 610,-824 604.2,-827.89 597.66,-830.99 590.92,-833.45"/>
<polygon fill="midnightblue" stroke="midnightblue" points="731.28,-673.09 732.34,-662.55 724.93,-670.13 731.28,-673.09"/>
</g>
<!-- Node611&#45;&gt;Node26 -->
<g id="edge15" class="edge">
<title>Node611&#45;&gt;Node26</title>
<path fill="none" stroke="midnightblue" d="M635.76,-646.79C582.83,-643.36 516.88,-638.82 458,-634 346.67,-624.88 217.54,-612.09 140.16,-604.18"/>
<polygon fill="midnightblue" stroke="midnightblue" points="635.63,-650.29 645.83,-647.44 636.08,-643.3 635.63,-650.29"/>
</g>
<!-- Node611&#45;&gt;Node247 -->
<g id="edge18" class="edge">
<title>Node611&#45;&gt;Node247</title>
<path fill="none" stroke="midnightblue" d="M716.12,-668.9C696.91,-684.4 667.88,-709.21 646,-734 627.4,-755.07 633.09,-769.97 610,-786 604.37,-789.91 598.01,-793.01 591.43,-795.48"/>
<polygon fill="midnightblue" stroke="midnightblue" points="718.31,-671.62 723.95,-662.65 713.95,-666.15 718.31,-671.62"/>
</g>
<!-- Node129 -->
<g id="node12" class="node">
<title>Node129</title>
<g id="a_node12"><a xlink:href="quickjs_8c.html#aa40a5354bee3b56e05a71244910bcc78" target="_top" xlink:title=" ">
<polygon fill="none" stroke="red" points="476.5,-719.5 476.5,-738.5 591.5,-738.5 591.5,-719.5 476.5,-719.5"/>
<text text-anchor="middle" x="534" y="-726.5" font-family="Helvetica,sans-Serif" font-size="10.00">build_for_in_iterator</text>
</a>
</g>
</g>
<!-- Node611&#45;&gt;Node129 -->
<g id="edge14" class="edge">
<title>Node611&#45;&gt;Node129</title>
<path fill="none" stroke="midnightblue" d="M709.08,-667.04C683.83,-679.57 645.09,-697.76 610,-710 599.85,-713.54 588.73,-716.72 578.22,-719.43"/>
<polygon fill="midnightblue" stroke="midnightblue" points="710.68,-670.16 718.06,-662.55 707.55,-663.9 710.68,-670.16"/>
</g>
<!-- Node612 -->
<g id="node13" class="node">
<title>Node612</title>
<g id="a_node13"><a xlink:href="quickjs_8c.html#a160229a9daaaf70e287d6dadb69bc609" target="_top" xlink:title=" ">
<polygon fill="none" stroke="red" points="461,-681.5 461,-700.5 607,-700.5 607,-681.5 461,-681.5"/>
<text text-anchor="middle" x="534" y="-688.5" font-family="Helvetica,sans-Serif" font-size="10.00">JS_GetOwnPropertyNames</text>
</a>
</g>
</g>
<!-- Node611&#45;&gt;Node612 -->
<g id="edge17" class="edge">
<title>Node611&#45;&gt;Node612</title>
<path fill="none" stroke="midnightblue" d="M675.95,-664.42C647.12,-669.86 613.04,-676.28 585.61,-681.46"/>
<polygon fill="midnightblue" stroke="midnightblue" points="676.73,-667.83 685.91,-662.54 675.44,-660.95 676.73,-667.83"/>
</g>
<!-- Node284 -->
<g id="node14" class="node">
<title>Node284</title>
<g id="a_node14"><a xlink:href="quickjs_8c.html#ad4eec5e88dc04d884c28e0f09d9a81f5" target="_top" xlink:title=" ">
<polygon fill="none" stroke="black" points="462,-594 462,-624 606,-624 606,-594 462,-594"/>
<text text-anchor="start" x="470" y="-612" font-family="Helvetica,sans-Serif" font-size="10.00">js_object_getOwnProperty</text>
<text text-anchor="middle" x="534" y="-601" font-family="Helvetica,sans-Serif" font-size="10.00">Descriptors</text>
</a>
</g>
</g>
<!-- Node611&#45;&gt;Node284 -->
<g id="edge19" class="edge">
<title>Node611&#45;&gt;Node284</title>
<path fill="none" stroke="midnightblue" d="M682.73,-641.26C658.55,-635.98 629.73,-629.69 603.99,-624.07"/>
<polygon fill="midnightblue" stroke="midnightblue" points="682.26,-644.74 692.78,-643.45 683.75,-637.9 682.26,-644.74"/>
</g>
<!-- Node611&#45;&gt;Node606 -->
<g id="edge20" class="edge">
<title>Node611&#45;&gt;Node606</title>
<path fill="none" stroke="midnightblue" d="M658.78,-639.81C654.32,-637.84 650.02,-635.59 646,-633 623.58,-618.56 632.1,-599.92 610,-585 603.3,-580.48 595.62,-576.97 587.79,-574.26"/>
<polygon fill="midnightblue" stroke="midnightblue" points="657.56,-643.09 668.15,-643.46 660.1,-636.57 657.56,-643.09"/>
</g>
<!-- Node611&#45;&gt;Node321 -->
<g id="edge21" class="edge">
<title>Node611&#45;&gt;Node321</title>
<path fill="none" stroke="midnightblue" d="M653.8,-638.58C651.06,-636.91 648.45,-635.05 646,-633 613.94,-606.11 641.64,-573.38 610,-546 600.86,-538.09 588.87,-533.39 577.18,-530.63"/>
<polygon fill="midnightblue" stroke="midnightblue" points="652.43,-641.82 662.92,-643.35 655.67,-635.61 652.43,-641.82"/>
</g>
<!-- Node166 -->
<g id="node17" class="node">
<title>Node166</title>
<g id="a_node17"><a xlink:href="quickjs_8c.html#ab2de4cc7a9e58c7a6220acf9e4769d62" target="_top" xlink:title=" ">
<polygon fill="none" stroke="red" points="462.5,-757.5 462.5,-776.5 605.5,-776.5 605.5,-757.5 462.5,-757.5"/>
<text text-anchor="middle" x="534" y="-764.5" font-family="Helvetica,sans-Serif" font-size="10.00">JS_ObjectDefineProperties</text>
</a>
</g>
</g>
<!-- Node611&#45;&gt;Node166 -->
<g id="edge22" class="edge">
<title>Node611&#45;&gt;Node166</title>
<path fill="none" stroke="midnightblue" d="M719.02,-669.77C695.9,-691.04 653.03,-727.42 610,-748 602,-751.83 593.14,-754.94 584.4,-757.46"/>
<polygon fill="midnightblue" stroke="midnightblue" points="721.69,-672.06 726.61,-662.68 716.91,-666.95 721.69,-672.06"/>
</g>
<!-- Node611&#45;&gt;Node353 -->
<g id="edge23" class="edge">
<title>Node611&#45;&gt;Node353</title>
<path fill="none" stroke="midnightblue" d="M652.21,-638.05C650.03,-636.51 647.95,-634.83 646,-633 603.85,-593.43 650.03,-549.72 610,-508 606.29,-504.14 601.98,-500.87 597.32,-498.11"/>
<polygon fill="midnightblue" stroke="midnightblue" points="650.7,-641.22 661.09,-643.3 654.26,-635.19 650.7,-641.22"/>
</g>
<!-- Node516&#45;&gt;Node3 -->
<g id="edge25" class="edge">
<title>Node516&#45;&gt;Node3</title>
<path fill="none" stroke="midnightblue" d="M681.91,-361.8C611.74,-359.93 494.57,-360.38 458,-382 410.17,-410.28 385.25,-477.87 377.34,-503.2"/>
<polygon fill="midnightblue" stroke="midnightblue" points="681.81,-365.3 691.91,-362.09 682.01,-358.3 681.81,-365.3"/>
</g>
<!-- Node516&#45;&gt;Node521 -->
<g id="edge26" class="edge">
<title>Node516&#45;&gt;Node521</title>
<path fill="none" stroke="midnightblue" d="M681.54,-353.36C647.54,-346.78 604.71,-338.49 574.15,-332.58"/>
<polygon fill="midnightblue" stroke="midnightblue" points="681.3,-356.88 691.78,-355.34 682.63,-350.01 681.3,-356.88"/>
</g>
<!-- Node283&#45;&gt;Node284 -->
<g id="edge29" class="edge">
<title>Node283&#45;&gt;Node284</title>
<path fill="none" stroke="midnightblue" d="M655.4,-608.4C639.08,-608.48 622.03,-608.57 606.08,-608.65"/>
<polygon fill="midnightblue" stroke="midnightblue" points="655.48,-611.9 665.46,-608.35 655.44,-604.9 655.48,-611.9"/>
</g>
<!-- Node125&#45;&gt;Node3 -->
<g id="edge42" class="edge">
<title>Node125&#45;&gt;Node3</title>
<path fill="none" stroke="midnightblue" d="M664.71,-435.17C607.31,-433.59 525.57,-436.53 458,-459 429.17,-468.59 400.51,-490.52 385.42,-503.28"/>
<polygon fill="midnightblue" stroke="midnightblue" points="664.67,-438.67 674.77,-435.5 664.89,-431.67 664.67,-438.67"/>
</g>
<!-- Node125&#45;&gt;Node126 -->
<g id="edge43" class="edge">
<title>Node125&#45;&gt;Node126</title>
<path fill="none" stroke="midnightblue" d="M677.03,-428.49C643.4,-421.98 602.36,-414.04 573.05,-408.37"/>
<polygon fill="midnightblue" stroke="midnightblue" points="676.72,-432 687.21,-430.46 678.05,-425.12 676.72,-432"/>
</g>
</g>
</svg>
