<?xml version="1.0" encoding="UTF-8" standalone="no"?>
<!DOCTYPE svg PUBLIC "-//W3C//DTD SVG 1.1//EN"
 "http://www.w3.org/Graphics/SVG/1.1/DTD/svg11.dtd">
<!-- Generated by graphviz version 2.43.0 (0)
 -->
<!-- Title: js_parse_expr Pages: 1 -->
<svg width="1181pt" height="342pt"
 viewBox="0.00 0.00 1181.00 342.00" xmlns="http://www.w3.org/2000/svg" xmlns:xlink="http://www.w3.org/1999/xlink">
<g id="graph0" class="graph" transform="scale(1 1) rotate(0) translate(4 338)">
<title>js_parse_expr</title>
<!-- Node1 -->
<g id="node1" class="node">
<title>Node1</title>
<g id="a_node1"><a xlink:title=" ">
<polygon fill="#bfbfbf" stroke="black" points="1089,-161.5 1089,-180.5 1173,-180.5 1173,-161.5 1089,-161.5"/>
<text text-anchor="middle" x="1131" y="-168.5" font-family="Helvetica,sans-Serif" font-size="10.00">js_parse_expr</text>
</a>
</g>
</g>
<!-- Node2 -->
<g id="node2" class="node">
<title>Node2</title>
<g id="a_node2"><a xlink:href="quickjs_8c.html#afb5f2af95f877adc2bb9b9ec60d23759" target="_top" xlink:title=" ">
<polygon fill="none" stroke="black" points="758.5,-218.5 758.5,-237.5 875.5,-237.5 875.5,-218.5 758.5,-218.5"/>
<text text-anchor="middle" x="817" y="-225.5" font-family="Helvetica,sans-Serif" font-size="10.00">js_parse_expr_paren</text>
</a>
</g>
</g>
<!-- Node1&#45;&gt;Node2 -->
<g id="edge1" class="edge">
<title>Node1&#45;&gt;Node2</title>
<path fill="none" stroke="midnightblue" d="M1102.58,-185.16C1088.19,-191.97 1070.05,-199.59 1053,-204 993.84,-219.32 923.94,-224.93 875.84,-226.95"/>
<polygon fill="midnightblue" stroke="midnightblue" points="1104.43,-188.16 1111.88,-180.63 1101.36,-181.86 1104.43,-188.16"/>
</g>
<!-- Node3 -->
<g id="node3" class="node">
<title>Node3</title>
<g id="a_node3"><a xlink:href="quickjs_8c.html#a840642c87c5a82d4cc68333376a3b6de" target="_top" xlink:title=" ">
<polygon fill="none" stroke="black" points="596,-164.5 596,-183.5 718,-183.5 718,-164.5 596,-164.5"/>
<text text-anchor="middle" x="657" y="-171.5" font-family="Helvetica,sans-Serif" font-size="10.00">js_parse_postfix_expr</text>
</a>
</g>
</g>
<!-- Node1&#45;&gt;Node3 -->
<g id="edge20" class="edge">
<title>Node1&#45;&gt;Node3</title>
<path fill="none" stroke="midnightblue" d="M1078.84,-172.32C1028.32,-173.56 948.84,-175.31 880,-176 824,-176.56 810,-176.58 754,-176 742.41,-175.88 730.04,-175.68 718.17,-175.45"/>
<polygon fill="midnightblue" stroke="midnightblue" points="1078.95,-175.82 1088.86,-172.07 1078.78,-168.82 1078.95,-175.82"/>
</g>
<!-- Node12 -->
<g id="node6" class="node">
<title>Node12</title>
<g id="a_node6"><a xlink:href="quickjs_8c.html#a9d844c16dcc71701436848074337d32c" target="_top" xlink:title=" ">
<polygon fill="none" stroke="red" points="0,-184 0,-214 113,-214 113,-184 0,-184"/>
<text text-anchor="start" x="8" y="-202" font-family="Helvetica,sans-Serif" font-size="10.00">js_parse_statement</text>
<text text-anchor="middle" x="56.5" y="-191" font-family="Helvetica,sans-Serif" font-size="10.00">_or_decl</text>
</a>
</g>
</g>
<!-- Node1&#45;&gt;Node12 -->
<g id="edge26" class="edge">
<title>Node1&#45;&gt;Node12</title>
<path fill="none" stroke="midnightblue" d="M1112.85,-187.69C1068.26,-229.24 943.42,-334 818,-334 818,-334 818,-334 352.5,-334 258.69,-334 231.75,-322.18 149,-278 117.53,-261.2 87.5,-231.87 70.88,-214.07"/>
<polygon fill="midnightblue" stroke="midnightblue" points="1115.37,-190.13 1120.22,-180.71 1110.56,-185.04 1115.37,-190.13"/>
</g>
<!-- Node15 -->
<g id="node8" class="node">
<title>Node15</title>
<g id="a_node8"><a xlink:href="quickjs_8c.html#ac188b916dd086803591a67de7e7a85f6" target="_top" xlink:title=" ">
<polygon fill="none" stroke="black" points="149,-139.5 149,-158.5 254,-158.5 254,-139.5 149,-139.5"/>
<text text-anchor="middle" x="201.5" y="-146.5" font-family="Helvetica,sans-Serif" font-size="10.00">js_parse_for_in_of</text>
</a>
</g>
</g>
<!-- Node1&#45;&gt;Node15 -->
<g id="edge19" class="edge">
<title>Node1&#45;&gt;Node15</title>
<path fill="none" stroke="midnightblue" d="M1119.64,-152.61C1106.7,-131.24 1082.61,-96.31 1053,-76 962.48,-13.91 927.77,0 818,0 818,0 818,0 505.5,0 404.23,0 377.9,-23.71 290,-74 257.7,-92.48 226.14,-123.7 211.3,-139.39"/>
<polygon fill="midnightblue" stroke="midnightblue" points="1116.7,-154.52 1124.78,-161.38 1122.74,-150.98 1116.7,-154.52"/>
</g>
<!-- Node35 -->
<g id="node10" class="node">
<title>Node35</title>
<g id="a_node10"><a xlink:href="quickjs_8c.html#a42234753f3193f37ce45b3c0ca4c25cd" target="_top" xlink:title=" ">
<polygon fill="none" stroke="black" points="916,-85.5 916,-104.5 1053,-104.5 1053,-85.5 916,-85.5"/>
<text text-anchor="middle" x="984.5" y="-92.5" font-family="Helvetica,sans-Serif" font-size="10.00">js_parse_property_name</text>
</a>
</g>
</g>
<!-- Node1&#45;&gt;Node35 -->
<g id="edge21" class="edge">
<title>Node1&#45;&gt;Node35</title>
<path fill="none" stroke="midnightblue" d="M1102.52,-156.54C1073.49,-141.28 1028.55,-117.64 1003.65,-104.55"/>
<polygon fill="midnightblue" stroke="midnightblue" points="1101.22,-159.82 1111.7,-161.37 1104.48,-153.62 1101.22,-159.82"/>
</g>
<!-- Node36 -->
<g id="node12" class="node">
<title>Node36</title>
<g id="a_node12"><a xlink:href="quickjs_8c.html#a035daca514f14aacc1e0cff81d8e423a" target="_top" xlink:title=" ">
<polygon fill="none" stroke="black" points="931,-142.5 931,-161.5 1038,-161.5 1038,-142.5 931,-142.5"/>
<text text-anchor="middle" x="984.5" y="-149.5" font-family="Helvetica,sans-Serif" font-size="10.00">js_parse_template</text>
</a>
</g>
</g>
<!-- Node1&#45;&gt;Node36 -->
<g id="edge27" class="edge">
<title>Node1&#45;&gt;Node36</title>
<path fill="none" stroke="midnightblue" d="M1078.71,-164.26C1065.59,-162.53 1051.45,-160.67 1038.26,-158.94"/>
<polygon fill="midnightblue" stroke="midnightblue" points="1078.61,-167.77 1088.98,-165.61 1079.52,-160.83 1078.61,-167.77"/>
</g>
<!-- Node2&#45;&gt;Node3 -->
<g id="edge2" class="edge">
<title>Node2&#45;&gt;Node3</title>
<path fill="none" stroke="midnightblue" d="M778.51,-215.19C750.08,-205.47 711.62,-192.33 685.87,-183.53"/>
<polygon fill="midnightblue" stroke="midnightblue" points="777.52,-218.55 788.12,-218.47 779.79,-211.92 777.52,-218.55"/>
</g>
<!-- Node2&#45;&gt;Node12 -->
<g id="edge18" class="edge">
<title>Node2&#45;&gt;Node12</title>
<path fill="none" stroke="midnightblue" d="M780.86,-240.97C724.17,-260.71 608.65,-296 507.5,-296 507.5,-296 507.5,-296 352.5,-296 248.99,-296 134.81,-241.44 84.19,-214.16"/>
<polygon fill="midnightblue" stroke="midnightblue" points="782.15,-244.23 790.42,-237.6 779.82,-237.63 782.15,-244.23"/>
</g>
<!-- Node3&#45;&gt;Node3 -->
<g id="edge15" class="edge">
<title>Node3&#45;&gt;Node3</title>
<path fill="none" stroke="midnightblue" d="M685,-192.65C683.83,-197.94 674.5,-202 657,-202 630.34,-202 622.63,-192.57 633.88,-183.76"/>
<polygon fill="midnightblue" stroke="midnightblue" points="688,-190.84 680.12,-183.76 681.86,-194.21 688,-190.84"/>
</g>
<!-- Node4 -->
<g id="node4" class="node">
<title>Node4</title>
<g id="a_node4"><a xlink:href="quickjs_8c.html#a12b48ce2b1f247b494fdde07dbe7f232" target="_top" xlink:title=" ">
<polygon fill="none" stroke="black" points="453,-143 453,-173 560,-173 560,-143 453,-143"/>
<text text-anchor="start" x="461" y="-161" font-family="Helvetica,sans-Serif" font-size="10.00">js_parse_left_hand</text>
<text text-anchor="middle" x="506.5" y="-150" font-family="Helvetica,sans-Serif" font-size="10.00">_side_expr</text>
</a>
</g>
</g>
<!-- Node3&#45;&gt;Node4 -->
<g id="edge3" class="edge">
<title>Node3&#45;&gt;Node4</title>
<path fill="none" stroke="midnightblue" d="M585.62,-166.42C577.07,-165.5 568.45,-164.57 560.22,-163.68"/>
<polygon fill="midnightblue" stroke="midnightblue" points="585.28,-169.9 595.6,-167.49 586.03,-162.94 585.28,-169.9"/>
</g>
<!-- Node25 -->
<g id="node9" class="node">
<title>Node25</title>
<g id="a_node9"><a xlink:href="quickjs_8c.html#a9f26c765171d977db1796791f035f1f9" target="_top" xlink:title=" ">
<polygon fill="none" stroke="red" points="461.5,-230.5 461.5,-249.5 551.5,-249.5 551.5,-230.5 461.5,-230.5"/>
<text text-anchor="middle" x="506.5" y="-237.5" font-family="Helvetica,sans-Serif" font-size="10.00">js_parse_unary</text>
</a>
</g>
</g>
<!-- Node3&#45;&gt;Node25 -->
<g id="edge16" class="edge">
<title>Node3&#45;&gt;Node25</title>
<path fill="none" stroke="midnightblue" d="M625.23,-187.68C596.52,-200.44 554.43,-219.14 529.12,-230.39"/>
<polygon fill="midnightblue" stroke="midnightblue" points="626.69,-190.86 634.41,-183.6 623.85,-184.46 626.69,-190.86"/>
</g>
<!-- Node5 -->
<g id="node5" class="node">
<title>Node5</title>
<g id="a_node5"><a xlink:href="quickjs_8c.html#a00eb789430243c24dab4a63ad6a79653" target="_top" xlink:title=" ">
<polygon fill="none" stroke="red" points="310,-189.5 310,-208.5 397,-208.5 397,-189.5 310,-189.5"/>
<text text-anchor="middle" x="353.5" y="-196.5" font-family="Helvetica,sans-Serif" font-size="10.00">js_parse_class</text>
</a>
</g>
</g>
<!-- Node4&#45;&gt;Node5 -->
<g id="edge4" class="edge">
<title>Node4&#45;&gt;Node5</title>
<path fill="none" stroke="midnightblue" d="M442.97,-174.98C424.72,-179.93 405.43,-185.17 389.53,-189.49"/>
<polygon fill="midnightblue" stroke="midnightblue" points="443.95,-178.34 452.69,-172.34 442.12,-171.58 443.95,-178.34"/>
</g>
<!-- Node23 -->
<g id="node7" class="node">
<title>Node23</title>
<g id="a_node7"><a xlink:href="quickjs_8c.html#a26be546cf89c4580ba9020e8fc43a759" target="_top" xlink:title=" ">
<polygon fill="none" stroke="red" points="290,-84 290,-114 417,-114 417,-84 290,-84"/>
<text text-anchor="start" x="298" y="-102" font-family="Helvetica,sans-Serif" font-size="10.00">js_parse_destructuring</text>
<text text-anchor="middle" x="353.5" y="-91" font-family="Helvetica,sans-Serif" font-size="10.00">_element</text>
</a>
</g>
</g>
<!-- Node4&#45;&gt;Node23 -->
<g id="edge8" class="edge">
<title>Node4&#45;&gt;Node23</title>
<path fill="none" stroke="midnightblue" d="M457.67,-139.31C436.78,-131.15 412.61,-121.71 392.92,-114.01"/>
<polygon fill="midnightblue" stroke="midnightblue" points="456.42,-142.58 467.01,-142.96 458.97,-136.06 456.42,-142.58"/>
</g>
<!-- Node4&#45;&gt;Node15 -->
<g id="edge14" class="edge">
<title>Node4&#45;&gt;Node15</title>
<path fill="none" stroke="midnightblue" d="M442.6,-156.13C386.8,-154.47 306.28,-152.08 254.17,-150.53"/>
<polygon fill="midnightblue" stroke="midnightblue" points="442.62,-159.63 452.72,-156.43 442.83,-152.64 442.62,-159.63"/>
</g>
<!-- Node5&#45;&gt;Node3 -->
<g id="edge5" class="edge">
<title>Node5&#45;&gt;Node3</title>
<path fill="none" stroke="midnightblue" d="M407.16,-194.65C448.68,-191.22 508.04,-186.31 560,-182 571.58,-181.04 583.95,-180.01 595.83,-179.02"/>
<polygon fill="midnightblue" stroke="midnightblue" points="406.68,-191.18 397.01,-195.49 407.26,-198.16 406.68,-191.18"/>
</g>
<!-- Node5&#45;&gt;Node12 -->
<g id="edge6" class="edge">
<title>Node5&#45;&gt;Node12</title>
<path fill="none" stroke="midnightblue" d="M299.79,-199C247.22,-199 166.76,-199 113.17,-199"/>
<polygon fill="midnightblue" stroke="midnightblue" points="299.92,-202.5 309.92,-199 299.92,-195.5 299.92,-202.5"/>
</g>
<!-- Node12&#45;&gt;Node12 -->
<g id="edge7" class="edge">
<title>Node12&#45;&gt;Node12</title>
<path fill="none" stroke="midnightblue" d="M82.09,-224.46C78.91,-229.18 70.38,-232.5 56.5,-232.5 33.72,-232.5 25.35,-223.56 31.41,-214.16"/>
<polygon fill="midnightblue" stroke="midnightblue" points="85.57,-223.98 81.59,-214.16 78.58,-224.31 85.57,-223.98"/>
</g>
<!-- Node23&#45;&gt;Node3 -->
<g id="edge12" class="edge">
<title>Node23&#45;&gt;Node3</title>
<path fill="none" stroke="midnightblue" d="M427.55,-106.76C467.24,-112.05 516.89,-120.43 560,-133 587.84,-141.12 618.38,-155.11 637.37,-164.45"/>
<polygon fill="midnightblue" stroke="midnightblue" points="427.79,-103.26 417.42,-105.45 426.89,-110.2 427.79,-103.26"/>
</g>
<!-- Node23&#45;&gt;Node12 -->
<g id="edge13" class="edge">
<title>Node23&#45;&gt;Node12</title>
<path fill="none" stroke="midnightblue" d="M279.62,-101.41C239.74,-104.85 190.2,-112.64 149,-130 118.75,-142.74 89.48,-167.72 72.5,-183.87"/>
<polygon fill="midnightblue" stroke="midnightblue" points="280.11,-104.89 289.8,-100.61 279.56,-97.91 280.11,-104.89"/>
</g>
<!-- Node23&#45;&gt;Node23 -->
<g id="edge9" class="edge">
<title>Node23&#45;&gt;Node23</title>
<path fill="none" stroke="midnightblue" d="M380.51,-124.46C377.16,-129.18 368.15,-132.5 353.5,-132.5 329.45,-132.5 320.62,-123.56 327.01,-114.16"/>
<polygon fill="midnightblue" stroke="midnightblue" points="383.99,-123.97 379.99,-114.16 377,-124.32 383.99,-123.97"/>
</g>
<!-- Node23&#45;&gt;Node15 -->
<g id="edge10" class="edge">
<title>Node23&#45;&gt;Node15</title>
<path fill="none" stroke="midnightblue" d="M297.72,-117.26C275.25,-124.75 250.17,-133.11 231.39,-139.37"/>
<polygon fill="midnightblue" stroke="midnightblue" points="299.12,-120.48 307.5,-114 296.9,-113.84 299.12,-120.48"/>
</g>
<!-- Node15&#45;&gt;Node12 -->
<g id="edge11" class="edge">
<title>Node15&#45;&gt;Node12</title>
<path fill="none" stroke="midnightblue" d="M163.65,-161.88C144.41,-168.61 120.75,-176.88 100.66,-183.91"/>
<polygon fill="midnightblue" stroke="midnightblue" points="164.98,-165.13 173.27,-158.52 162.67,-158.52 164.98,-165.13"/>
</g>
<!-- Node25&#45;&gt;Node25 -->
<g id="edge17" class="edge">
<title>Node25&#45;&gt;Node25</title>
<path fill="none" stroke="midnightblue" d="M534.5,-258.65C533.33,-263.94 524,-268 506.5,-268 479.84,-268 472.13,-258.57 483.38,-249.76"/>
<polygon fill="midnightblue" stroke="midnightblue" points="537.5,-256.84 529.62,-249.76 531.36,-260.21 537.5,-256.84"/>
</g>
<!-- Node35&#45;&gt;Node5 -->
<g id="edge22" class="edge">
<title>Node35&#45;&gt;Node5</title>
<path fill="none" stroke="midnightblue" d="M905.62,-87.17C799.56,-79.46 605.48,-75.96 453,-133 417.53,-146.27 382.16,-174.56 365.07,-189.42"/>
<polygon fill="midnightblue" stroke="midnightblue" points="905.37,-90.66 915.6,-87.93 905.89,-83.68 905.37,-90.66"/>
</g>
<!-- Node35&#45;&gt;Node23 -->
<g id="edge23" class="edge">
<title>Node35&#45;&gt;Node23</title>
<path fill="none" stroke="midnightblue" d="M950.98,-81.78C930.9,-74.34 904.39,-65.79 880,-62 692.48,-32.83 639.72,-28.09 453,-62 429.81,-66.21 404.98,-75.57 386.05,-83.83"/>
<polygon fill="midnightblue" stroke="midnightblue" points="949.97,-85.14 960.57,-85.43 952.46,-78.6 949.97,-85.14"/>
</g>
<!-- Node11 -->
<g id="node11" class="node">
<title>Node11</title>
<g id="a_node11"><a xlink:href="quickjs_8c.html#aee6d0acd87f136d43f157ae1426436e6" target="_top" xlink:title=" ">
<polygon fill="none" stroke="black" points="754,-104.5 754,-123.5 880,-123.5 880,-104.5 754,-104.5"/>
<text text-anchor="middle" x="817" y="-111.5" font-family="Helvetica,sans-Serif" font-size="10.00">js_parse_object_literal</text>
</a>
</g>
</g>
<!-- Node35&#45;&gt;Node11 -->
<g id="edge24" class="edge">
<title>Node35&#45;&gt;Node11</title>
<path fill="none" stroke="midnightblue" d="M905.69,-103.93C897.11,-104.92 888.45,-105.91 880.1,-106.87"/>
<polygon fill="midnightblue" stroke="midnightblue" points="906.17,-107.4 915.71,-102.78 905.37,-100.45 906.17,-107.4"/>
</g>
<!-- Node11&#45;&gt;Node3 -->
<g id="edge25" class="edge">
<title>Node11&#45;&gt;Node3</title>
<path fill="none" stroke="midnightblue" d="M781.42,-127.13C751.77,-138.39 709.74,-154.35 683.18,-164.44"/>
<polygon fill="midnightblue" stroke="midnightblue" points="782.86,-130.33 790.96,-123.51 780.37,-123.79 782.86,-130.33"/>
</g>
<!-- Node36&#45;&gt;Node3 -->
<g id="edge28" class="edge">
<title>Node36&#45;&gt;Node3</title>
<path fill="none" stroke="midnightblue" d="M920.62,-156.25C862.14,-160.2 775.6,-166.05 718.05,-169.94"/>
<polygon fill="midnightblue" stroke="midnightblue" points="921.1,-159.73 930.84,-155.56 920.63,-152.74 921.1,-159.73"/>
</g>
</g>
</svg>
