<?xml version="1.0" encoding="UTF-8" standalone="no"?>
<!DOCTYPE svg PUBLIC "-//W3C//DTD SVG 1.1//EN"
 "http://www.w3.org/Graphics/SVG/1.1/DTD/svg11.dtd">
<!-- Generated by graphviz version 2.43.0 (0)
 -->
<!-- Title: js_async_function_free Pages: 1 -->
<svg width="758pt" height="126pt"
 viewBox="0.00 0.00 758.00 126.18" xmlns="http://www.w3.org/2000/svg" xmlns:xlink="http://www.w3.org/1999/xlink">
<g id="graph0" class="graph" transform="scale(1 1) rotate(0) translate(4 122.18)">
<title>js_async_function_free</title>
<!-- Node1 -->
<g id="node1" class="node">
<title>Node1</title>
<g id="a_node1"><a xlink:title=" ">
<polygon fill="#bfbfbf" stroke="black" points="0,-57.5 0,-76.5 128,-76.5 128,-57.5 0,-57.5"/>
<text text-anchor="middle" x="64" y="-64.5" font-family="Helvetica,sans-Serif" font-size="10.00">js_async_function_free</text>
</a>
</g>
</g>
<!-- Node2 -->
<g id="node2" class="node">
<title>Node2</title>
<g id="a_node2"><a xlink:href="quickjs_8c.html#a0272417de9a1be37e1fcc3fdccdb859a" target="_top" xlink:title=" ">
<polygon fill="none" stroke="black" points="164,-57.5 164,-76.5 298,-76.5 298,-57.5 164,-57.5"/>
<text text-anchor="middle" x="231" y="-64.5" font-family="Helvetica,sans-Serif" font-size="10.00">js_async_function_free0</text>
</a>
</g>
</g>
<!-- Node1&#45;&gt;Node2 -->
<g id="edge1" class="edge">
<title>Node1&#45;&gt;Node2</title>
<path fill="none" stroke="midnightblue" d="M128.32,-67C136.59,-67 145.13,-67 153.59,-67"/>
<polygon fill="midnightblue" stroke="midnightblue" points="153.84,-70.5 163.84,-67 153.84,-63.5 153.84,-70.5"/>
</g>
<!-- Node3 -->
<g id="node3" class="node">
<title>Node3</title>
<g id="a_node3"><a xlink:href="quickjs_8c.html#a4b282353917b10409ca38b279b0b1dce" target="_top" xlink:title=" ">
<polygon fill="none" stroke="black" points="334,-76.5 334,-95.5 491,-95.5 491,-76.5 334,-76.5"/>
<text text-anchor="middle" x="412.5" y="-83.5" font-family="Helvetica,sans-Serif" font-size="10.00">js_async_function_terminate</text>
</a>
</g>
</g>
<!-- Node2&#45;&gt;Node3 -->
<g id="edge2" class="edge">
<title>Node2&#45;&gt;Node3</title>
<path fill="none" stroke="midnightblue" d="M298.07,-73.99C306.41,-74.88 315.04,-75.79 323.64,-76.7"/>
<polygon fill="midnightblue" stroke="midnightblue" points="323.4,-80.19 333.71,-77.77 324.14,-73.23 323.4,-80.19"/>
</g>
<!-- Node10 -->
<g id="node5" class="node">
<title>Node10</title>
<g id="a_node5"><a xlink:href="quickjs_8c.html#a69e19dda8a93d613203e0baa06f0ed8d" target="_top" xlink:title=" ">
<polygon fill="none" stroke="black" points="673.5,-95.5 673.5,-114.5 735.5,-114.5 735.5,-95.5 673.5,-95.5"/>
<text text-anchor="middle" x="704.5" y="-102.5" font-family="Helvetica,sans-Serif" font-size="10.00">js_free_rt</text>
</a>
</g>
</g>
<!-- Node2&#45;&gt;Node10 -->
<g id="edge6" class="edge">
<title>Node2&#45;&gt;Node10</title>
<path fill="none" stroke="midnightblue" d="M251.34,-76.59C271.43,-85.97 304.06,-99.6 334,-105 452.05,-126.28 594.79,-116.47 663.17,-109.64"/>
<polygon fill="midnightblue" stroke="midnightblue" points="663.9,-113.08 673.49,-108.57 663.18,-106.12 663.9,-113.08"/>
</g>
<!-- Node11 -->
<g id="node6" class="node">
<title>Node11</title>
<g id="a_node6"><a xlink:href="quickjs_8h.html#ab8db583fa5e7c2b1935854a42859daed" target="_top" xlink:title=" ">
<polygon fill="none" stroke="red" points="659,-57.5 659,-76.5 750,-76.5 750,-57.5 659,-57.5"/>
<text text-anchor="middle" x="704.5" y="-64.5" font-family="Helvetica,sans-Serif" font-size="10.00">JS_FreeValueRT</text>
</a>
</g>
</g>
<!-- Node2&#45;&gt;Node11 -->
<g id="edge7" class="edge">
<title>Node2&#45;&gt;Node11</title>
<path fill="none" stroke="midnightblue" d="M298.06,-67C391.7,-67 561.33,-67 648.51,-67"/>
<polygon fill="midnightblue" stroke="midnightblue" points="648.72,-70.5 658.72,-67 648.72,-63.5 648.72,-70.5"/>
</g>
<!-- Node28 -->
<g id="node7" class="node">
<title>Node28</title>
<g id="a_node7"><a xlink:href="quickjs_8c.html#adfb3133f30938e2db9b525ade5fc09cf" target="_top" xlink:title=" ">
<polygon fill="none" stroke="red" points="359.5,-0.5 359.5,-19.5 465.5,-19.5 465.5,-0.5 359.5,-0.5"/>
<text text-anchor="middle" x="412.5" y="-7.5" font-family="Helvetica,sans-Serif" font-size="10.00">remove_gc_object</text>
</a>
</g>
</g>
<!-- Node2&#45;&gt;Node28 -->
<g id="edge8" class="edge">
<title>Node2&#45;&gt;Node28</title>
<path fill="none" stroke="midnightblue" d="M261.43,-57.37C281.79,-50.74 309.51,-41.75 334,-34 345.85,-30.25 358.75,-26.23 370.56,-22.57"/>
<polygon fill="midnightblue" stroke="midnightblue" points="371.65,-25.9 380.17,-19.6 369.59,-19.21 371.65,-25.9"/>
</g>
<!-- Node4 -->
<g id="node4" class="node">
<title>Node4</title>
<g id="a_node4"><a xlink:href="quickjs_8c.html#ab3180b5caf3b66ac6db634e41e56a4ef" target="_top" xlink:title=" ">
<polygon fill="none" stroke="red" points="527,-76.5 527,-95.5 623,-95.5 623,-76.5 527,-76.5"/>
<text text-anchor="middle" x="575" y="-83.5" font-family="Helvetica,sans-Serif" font-size="10.00">async_func_free</text>
</a>
</g>
</g>
<!-- Node3&#45;&gt;Node4 -->
<g id="edge3" class="edge">
<title>Node3&#45;&gt;Node4</title>
<path fill="none" stroke="midnightblue" d="M491.4,-86C499.94,-86 508.51,-86 516.73,-86"/>
<polygon fill="midnightblue" stroke="midnightblue" points="516.92,-89.5 526.92,-86 516.92,-82.5 516.92,-89.5"/>
</g>
<!-- Node4&#45;&gt;Node10 -->
<g id="edge4" class="edge">
<title>Node4&#45;&gt;Node10</title>
<path fill="none" stroke="midnightblue" d="M623.11,-93.02C636.19,-94.97 650.28,-97.07 662.95,-98.96"/>
<polygon fill="midnightblue" stroke="midnightblue" points="662.79,-102.47 673.2,-100.48 663.83,-95.55 662.79,-102.47"/>
</g>
<!-- Node4&#45;&gt;Node11 -->
<g id="edge5" class="edge">
<title>Node4&#45;&gt;Node11</title>
<path fill="none" stroke="midnightblue" d="M623.11,-78.98C631.48,-77.73 640.25,-76.43 648.8,-75.15"/>
<polygon fill="midnightblue" stroke="midnightblue" points="649.32,-78.61 658.7,-73.68 648.29,-71.69 649.32,-78.61"/>
</g>
</g>
</svg>
