<?xml version="1.0" encoding="UTF-8" standalone="no"?>
<!DOCTYPE svg PUBLIC "-//W3C//DTD SVG 1.1//EN"
 "http://www.w3.org/Graphics/SVG/1.1/DTD/svg11.dtd">
<!-- Generated by graphviz version 2.43.0 (0)
 -->
<!-- Title: JS_AtomSymbolHasDescription Pages: 1 -->
<svg width="847pt" height="84pt"
 viewBox="0.00 0.00 847.00 84.00" xmlns="http://www.w3.org/2000/svg" xmlns:xlink="http://www.w3.org/1999/xlink">
<g id="graph0" class="graph" transform="scale(1 1) rotate(0) translate(4 80)">
<title>JS_AtomSymbolHasDescription</title>
<!-- Node1 -->
<g id="node1" class="node">
<title>Node1</title>
<g id="a_node1"><a xlink:title=" ">
<polygon fill="#bfbfbf" stroke="black" points="671,-19.5 671,-38.5 839,-38.5 839,-19.5 671,-19.5"/>
<text text-anchor="middle" x="755" y="-26.5" font-family="Helvetica,sans-Serif" font-size="10.00">JS_AtomSymbolHasDescription</text>
</a>
</g>
</g>
<!-- Node2 -->
<g id="node2" class="node">
<title>Node2</title>
<g id="a_node2"><a xlink:href="quickjs_8c.html#adadf01adc112b1f79ced7b2884a5738b" target="_top" xlink:title=" ">
<polygon fill="none" stroke="black" points="511,-19.5 511,-38.5 635,-38.5 635,-19.5 511,-19.5"/>
<text text-anchor="middle" x="573" y="-26.5" font-family="Helvetica,sans-Serif" font-size="10.00">js_get_function_name</text>
</a>
</g>
</g>
<!-- Node1&#45;&gt;Node2 -->
<g id="edge1" class="edge">
<title>Node1&#45;&gt;Node2</title>
<path fill="none" stroke="midnightblue" d="M660.65,-29C651.96,-29 643.31,-29 635.03,-29"/>
<polygon fill="midnightblue" stroke="midnightblue" points="660.85,-32.5 670.85,-29 660.85,-25.5 660.85,-32.5"/>
</g>
<!-- Node3 -->
<g id="node3" class="node">
<title>Node3</title>
<g id="a_node3"><a xlink:href="quickjs_8c.html#a116b8bb41915b573650c477a55d8e46d" target="_top" xlink:title=" ">
<polygon fill="none" stroke="black" points="302,-38.5 302,-57.5 475,-57.5 475,-38.5 302,-38.5"/>
<text text-anchor="middle" x="388.5" y="-45.5" font-family="Helvetica,sans-Serif" font-size="10.00">JS_DefineObjectNameComputed</text>
</a>
</g>
</g>
<!-- Node2&#45;&gt;Node3 -->
<g id="edge2" class="edge">
<title>Node2&#45;&gt;Node3</title>
<path fill="none" stroke="midnightblue" d="M500.84,-36.41C492.42,-37.29 483.75,-38.19 475.16,-39.08"/>
<polygon fill="midnightblue" stroke="midnightblue" points="501.39,-39.87 510.98,-35.35 500.67,-32.91 501.39,-39.87"/>
</g>
<!-- Node284 -->
<g id="node6" class="node">
<title>Node284</title>
<g id="a_node6"><a xlink:href="quickjs_8c.html#a44d4e574b5bd12a89f8389ca79e587a0" target="_top" xlink:title=" ">
<polygon fill="none" stroke="black" points="123,-0.5 123,-19.5 266,-19.5 266,-0.5 123,-0.5"/>
<text text-anchor="middle" x="194.5" y="-7.5" font-family="Helvetica,sans-Serif" font-size="10.00">js_method_set_properties</text>
</a>
</g>
</g>
<!-- Node2&#45;&gt;Node284 -->
<g id="edge7" class="edge">
<title>Node2&#45;&gt;Node284</title>
<path fill="none" stroke="midnightblue" d="M500.58,-25.4C433.31,-22 333.11,-16.94 266.1,-13.56"/>
<polygon fill="midnightblue" stroke="midnightblue" points="500.51,-28.9 510.67,-25.91 500.86,-21.91 500.51,-28.9"/>
</g>
<!-- Node4 -->
<g id="node4" class="node">
<title>Node4</title>
<g id="a_node4"><a xlink:href="quickjs_8c.html#ac2894ff4edcdb4e6841bcce9c76081e3" target="_top" xlink:title=" ">
<polygon fill="none" stroke="red" points="0,-38.5 0,-57.5 87,-57.5 87,-38.5 0,-38.5"/>
<text text-anchor="middle" x="43.5" y="-45.5" font-family="Helvetica,sans-Serif" font-size="10.00">JS_CallInternal</text>
</a>
</g>
</g>
<!-- Node3&#45;&gt;Node4 -->
<g id="edge3" class="edge">
<title>Node3&#45;&gt;Node4</title>
<path fill="none" stroke="midnightblue" d="M328,-59.19C308.34,-62.38 286.3,-65.42 266,-67 202.64,-71.92 186.11,-74.53 123,-67 107.41,-65.14 90.43,-61.27 76.27,-57.51"/>
<polygon fill="midnightblue" stroke="midnightblue" points="328.76,-62.61 338.05,-57.51 327.61,-55.71 328.76,-62.61"/>
</g>
<!-- Node235 -->
<g id="node5" class="node">
<title>Node235</title>
<g id="a_node5"><a xlink:href="quickjs_8c.html#a36322a209de4ef17f939e6d128578d7f" target="_top" xlink:title=" ">
<polygon fill="none" stroke="black" points="141,-38.5 141,-57.5 248,-57.5 248,-38.5 141,-38.5"/>
<text text-anchor="middle" x="194.5" y="-45.5" font-family="Helvetica,sans-Serif" font-size="10.00">js_op_define_class</text>
</a>
</g>
</g>
<!-- Node3&#45;&gt;Node235 -->
<g id="edge5" class="edge">
<title>Node3&#45;&gt;Node235</title>
<path fill="none" stroke="midnightblue" d="M291.56,-48C276.61,-48 261.66,-48 248.16,-48"/>
<polygon fill="midnightblue" stroke="midnightblue" points="291.89,-51.5 301.89,-48 291.89,-44.5 291.89,-51.5"/>
</g>
<!-- Node4&#45;&gt;Node4 -->
<g id="edge4" class="edge">
<title>Node4&#45;&gt;Node4</title>
<path fill="none" stroke="midnightblue" d="M71.5,-66.65C70.33,-71.94 61,-76 43.5,-76 16.84,-76 9.13,-66.57 20.38,-57.76"/>
<polygon fill="midnightblue" stroke="midnightblue" points="74.5,-64.84 66.62,-57.76 68.36,-68.21 74.5,-64.84"/>
</g>
<!-- Node235&#45;&gt;Node4 -->
<g id="edge6" class="edge">
<title>Node235&#45;&gt;Node4</title>
<path fill="none" stroke="midnightblue" d="M130.91,-48C116.19,-48 100.84,-48 87.23,-48"/>
<polygon fill="midnightblue" stroke="midnightblue" points="130.97,-51.5 140.97,-48 130.97,-44.5 130.97,-51.5"/>
</g>
<!-- Node284&#45;&gt;Node4 -->
<g id="edge8" class="edge">
<title>Node284&#45;&gt;Node4</title>
<path fill="none" stroke="midnightblue" d="M146.01,-22.11C125.26,-27.4 101.27,-33.52 81.83,-38.48"/>
<polygon fill="midnightblue" stroke="midnightblue" points="147.08,-25.45 155.9,-19.59 145.35,-18.67 147.08,-25.45"/>
</g>
</g>
</svg>
