<?xml version="1.0" encoding="UTF-8" standalone="no"?>
<!DOCTYPE svg PUBLIC "-//W3C//DTD SVG 1.1//EN"
 "http://www.w3.org/Graphics/SVG/1.1/DTD/svg11.dtd">
<!-- Generated by graphviz version 2.43.0 (0)
 -->
<!-- Title: JS_ConcatString1 Pages: 1 -->
<svg width="511pt" height="85pt"
 viewBox="0.00 0.00 511.00 84.93" xmlns="http://www.w3.org/2000/svg" xmlns:xlink="http://www.w3.org/1999/xlink">
<g id="graph0" class="graph" transform="scale(1 1) rotate(0) translate(4 80.93)">
<title>JS_ConcatString1</title>
<!-- Node1 -->
<g id="node1" class="node">
<title>Node1</title>
<g id="a_node1"><a xlink:title=" ">
<polygon fill="#bfbfbf" stroke="black" points="0,-38.5 0,-57.5 99,-57.5 99,-38.5 0,-38.5"/>
<text text-anchor="middle" x="49.5" y="-45.5" font-family="Helvetica,sans-Serif" font-size="10.00">JS_ConcatString1</text>
</a>
</g>
</g>
<!-- Node2 -->
<g id="node2" class="node">
<title>Node2</title>
<g id="a_node2"><a xlink:href="quickjs_8c.html#a853f0924d441ea4225488f37c8b69f9a" target="_top" xlink:title=" ">
<polygon fill="none" stroke="black" points="423,-38.5 423,-57.5 503,-57.5 503,-38.5 423,-38.5"/>
<text text-anchor="middle" x="463" y="-45.5" font-family="Helvetica,sans-Serif" font-size="10.00">__attribute__</text>
</a>
</g>
</g>
<!-- Node1&#45;&gt;Node2 -->
<g id="edge1" class="edge">
<title>Node1&#45;&gt;Node2</title>
<path fill="none" stroke="midnightblue" d="M84.74,-57.51C100,-61.27 118.26,-65.14 135,-67 246.32,-79.36 275.86,-80.86 387,-67 398.43,-65.57 410.62,-62.97 421.77,-60.14"/>
<polygon fill="midnightblue" stroke="midnightblue" points="422.91,-63.46 431.68,-57.5 421.11,-56.7 422.91,-63.46"/>
</g>
<!-- Node3 -->
<g id="node3" class="node">
<title>Node3</title>
<g id="a_node3"><a xlink:href="quickjs_8c.html#a17da89ffe34d5b094b306c7668990cb1" target="_top" xlink:title=" ">
<polygon fill="none" stroke="black" points="143,-38.5 143,-57.5 213,-57.5 213,-38.5 143,-38.5"/>
<text text-anchor="middle" x="178" y="-45.5" font-family="Helvetica,sans-Serif" font-size="10.00">copy_str16</text>
</a>
</g>
</g>
<!-- Node1&#45;&gt;Node3 -->
<g id="edge2" class="edge">
<title>Node1&#45;&gt;Node3</title>
<path fill="none" stroke="midnightblue" d="M99.05,-48C110.13,-48 121.86,-48 132.76,-48"/>
<polygon fill="midnightblue" stroke="midnightblue" points="132.9,-51.5 142.9,-48 132.9,-44.5 132.9,-51.5"/>
</g>
<!-- Node4 -->
<g id="node4" class="node">
<title>Node4</title>
<g id="a_node4"><a xlink:href="quickjs_8c.html#ad303a9bc56766627b5fca41574933930" target="_top" xlink:title=" ">
<polygon fill="none" stroke="black" points="135,-0.5 135,-19.5 221,-19.5 221,-0.5 135,-0.5"/>
<text text-anchor="middle" x="178" y="-7.5" font-family="Helvetica,sans-Serif" font-size="10.00">js_alloc_string</text>
</a>
</g>
</g>
<!-- Node1&#45;&gt;Node4 -->
<g id="edge3" class="edge">
<title>Node1&#45;&gt;Node4</title>
<path fill="none" stroke="midnightblue" d="M82.42,-38.41C98.45,-33.6 118.07,-27.7 135.28,-22.53"/>
<polygon fill="midnightblue" stroke="midnightblue" points="136.52,-25.81 145.09,-19.59 134.5,-19.11 136.52,-25.81"/>
</g>
<!-- Node5 -->
<g id="node5" class="node">
<title>Node5</title>
<g id="a_node5"><a xlink:href="quickjs_8c.html#a5837dfc67b8f09e0579a28c827b39d93" target="_top" xlink:title=" ">
<polygon fill="none" stroke="black" points="272.5,-38.5 272.5,-57.5 371.5,-57.5 371.5,-38.5 272.5,-38.5"/>
<text text-anchor="middle" x="322" y="-45.5" font-family="Helvetica,sans-Serif" font-size="10.00">js_alloc_string_rt</text>
</a>
</g>
</g>
<!-- Node4&#45;&gt;Node5 -->
<g id="edge4" class="edge">
<title>Node4&#45;&gt;Node5</title>
<path fill="none" stroke="midnightblue" d="M214.83,-19.59C233.16,-24.49 255.68,-30.52 275.25,-35.76"/>
<polygon fill="midnightblue" stroke="midnightblue" points="274.61,-39.21 285.18,-38.41 276.42,-32.45 274.61,-39.21"/>
</g>
<!-- Node6 -->
<g id="node6" class="node">
<title>Node6</title>
<g id="a_node6"><a xlink:href="quickjs_8c.html#a344d6c0e45d9bf3861fd9269724045a2" target="_top" xlink:title=" ">
<polygon fill="none" stroke="black" points="257,-0.5 257,-19.5 387,-19.5 387,-0.5 257,-0.5"/>
<text text-anchor="middle" x="322" y="-7.5" font-family="Helvetica,sans-Serif" font-size="10.00">JS_ThrowOutOfMemory</text>
</a>
</g>
</g>
<!-- Node4&#45;&gt;Node6 -->
<g id="edge5" class="edge">
<title>Node4&#45;&gt;Node6</title>
<path fill="none" stroke="midnightblue" d="M221.22,-10C229.27,-10 237.91,-10 246.63,-10"/>
<polygon fill="midnightblue" stroke="midnightblue" points="246.85,-13.5 256.85,-10 246.85,-6.5 246.85,-13.5"/>
</g>
<!-- Node6&#45;&gt;Node2 -->
<g id="edge6" class="edge">
<title>Node6&#45;&gt;Node2</title>
<path fill="none" stroke="midnightblue" d="M358.08,-19.59C376.02,-24.49 398.06,-30.52 417.22,-35.76"/>
<polygon fill="midnightblue" stroke="midnightblue" points="416.37,-39.15 426.94,-38.41 418.21,-32.4 416.37,-39.15"/>
</g>
</g>
</svg>
