<?xml version="1.0" encoding="UTF-8" standalone="no"?>
<!DOCTYPE svg PUBLIC "-//W3C//DTD SVG 1.1//EN"
 "http://www.w3.org/Graphics/SVG/1.1/DTD/svg11.dtd">
<!-- Generated by graphviz version 2.43.0 (0)
 -->
<!-- Title: js_promise_catch Pages: 1 -->
<svg width="563pt" height="122pt"
 viewBox="0.00 0.00 563.00 122.00" xmlns="http://www.w3.org/2000/svg" xmlns:xlink="http://www.w3.org/1999/xlink">
<g id="graph0" class="graph" transform="scale(1 1) rotate(0) translate(4 118)">
<title>js_promise_catch</title>
<!-- Node1 -->
<g id="node1" class="node">
<title>Node1</title>
<g id="a_node1"><a xlink:title=" ">
<polygon fill="#bfbfbf" stroke="black" points="0,-19.5 0,-38.5 101,-38.5 101,-19.5 0,-19.5"/>
<text text-anchor="middle" x="50.5" y="-26.5" font-family="Helvetica,sans-Serif" font-size="10.00">js_promise_catch</text>
</a>
</g>
</g>
<!-- Node2 -->
<g id="node2" class="node">
<title>Node2</title>
<g id="a_node2"><a xlink:href="quickjs_8c.html#ad09ec172570d05d2166ed3069f85c7b5" target="_top" xlink:title=" ">
<polygon fill="none" stroke="black" points="137,-19.5 137,-38.5 200,-38.5 200,-19.5 137,-19.5"/>
<text text-anchor="middle" x="168.5" y="-26.5" font-family="Helvetica,sans-Serif" font-size="10.00">JS_Invoke</text>
</a>
</g>
</g>
<!-- Node1&#45;&gt;Node2 -->
<g id="edge1" class="edge">
<title>Node1&#45;&gt;Node2</title>
<path fill="none" stroke="midnightblue" d="M101.03,-29C109.6,-29 118.43,-29 126.74,-29"/>
<polygon fill="midnightblue" stroke="midnightblue" points="126.92,-32.5 136.92,-29 126.92,-25.5 126.92,-32.5"/>
</g>
<!-- Node3 -->
<g id="node3" class="node">
<title>Node3</title>
<g id="a_node3"><a xlink:href="quickjs_8c.html#a75f6ee5e4235a7dc99889f3d2eb2c147" target="_top" xlink:title=" ">
<polygon fill="none" stroke="black" points="236,-57.5 236,-76.5 307,-76.5 307,-57.5 236,-57.5"/>
<text text-anchor="middle" x="271.5" y="-64.5" font-family="Helvetica,sans-Serif" font-size="10.00">JS_CallFree</text>
</a>
</g>
</g>
<!-- Node2&#45;&gt;Node3 -->
<g id="edge2" class="edge">
<title>Node2&#45;&gt;Node3</title>
<path fill="none" stroke="midnightblue" d="M194.99,-38.59C207.31,-43.22 222.28,-48.86 235.64,-53.89"/>
<polygon fill="midnightblue" stroke="midnightblue" points="234.43,-57.17 245.02,-57.41 236.89,-50.62 234.43,-57.17"/>
</g>
<!-- Node69 -->
<g id="node6" class="node">
<title>Node69</title>
<g id="a_node6"><a xlink:href="quickjs_8h.html#a89b7c8686c7eee70b86be722ee4730ad" target="_top" xlink:title=" ">
<polygon fill="none" stroke="red" points="466,-38.5 466,-57.5 555,-57.5 555,-38.5 466,-38.5"/>
<text text-anchor="middle" x="510.5" y="-45.5" font-family="Helvetica,sans-Serif" font-size="10.00">JS_GetProperty</text>
</a>
</g>
</g>
<!-- Node2&#45;&gt;Node69 -->
<g id="edge10" class="edge">
<title>Node2&#45;&gt;Node69</title>
<path fill="none" stroke="midnightblue" d="M200.27,-30.72C258.08,-33.95 383.53,-40.96 455.62,-44.99"/>
<polygon fill="midnightblue" stroke="midnightblue" points="455.68,-48.5 465.86,-45.56 456.07,-41.51 455.68,-48.5"/>
</g>
<!-- Node76 -->
<g id="node7" class="node">
<title>Node76</title>
<g id="a_node7"><a xlink:href="quickjs_8h.html#ad80a83d73e9b7d872b88fbf2943aebe9" target="_top" xlink:title=" ">
<polygon fill="none" stroke="black" points="467,-0.5 467,-19.5 554,-19.5 554,-0.5 467,-0.5"/>
<text text-anchor="middle" x="510.5" y="-7.5" font-family="Helvetica,sans-Serif" font-size="10.00">JS_IsException</text>
</a>
</g>
</g>
<!-- Node2&#45;&gt;Node76 -->
<g id="edge11" class="edge">
<title>Node2&#45;&gt;Node76</title>
<path fill="none" stroke="midnightblue" d="M200.27,-27.28C258.39,-24.03 384.89,-16.96 456.79,-12.95"/>
<polygon fill="midnightblue" stroke="midnightblue" points="457.19,-16.43 466.98,-12.38 456.8,-9.44 457.19,-16.43"/>
</g>
<!-- Node4 -->
<g id="node4" class="node">
<title>Node4</title>
<g id="a_node4"><a xlink:href="quickjs_8c.html#ac2894ff4edcdb4e6841bcce9c76081e3" target="_top" xlink:title=" ">
<polygon fill="none" stroke="red" points="343,-57.5 343,-76.5 430,-76.5 430,-57.5 343,-57.5"/>
<text text-anchor="middle" x="386.5" y="-64.5" font-family="Helvetica,sans-Serif" font-size="10.00">JS_CallInternal</text>
</a>
</g>
</g>
<!-- Node3&#45;&gt;Node4 -->
<g id="edge3" class="edge">
<title>Node3&#45;&gt;Node4</title>
<path fill="none" stroke="midnightblue" d="M307.02,-60.73C315.13,-60.36 323.97,-60.2 332.69,-60.26"/>
<polygon fill="midnightblue" stroke="midnightblue" points="332.76,-63.76 342.81,-60.43 332.87,-56.77 332.76,-63.76"/>
</g>
<!-- Node58 -->
<g id="node5" class="node">
<title>Node58</title>
<g id="a_node5"><a xlink:href="quickjs_8h.html#afaa20c47565bc704c6c85f3d77254e7d" target="_top" xlink:title=" ">
<polygon fill="none" stroke="red" points="471,-94.5 471,-113.5 550,-113.5 550,-94.5 471,-94.5"/>
<text text-anchor="middle" x="510.5" y="-101.5" font-family="Helvetica,sans-Serif" font-size="10.00">JS_FreeValue</text>
</a>
</g>
</g>
<!-- Node3&#45;&gt;Node58 -->
<g id="edge9" class="edge">
<title>Node3&#45;&gt;Node58</title>
<path fill="none" stroke="midnightblue" d="M286,-76.65C299.63,-85.74 321.66,-98.74 343,-104 381.79,-113.56 427.22,-112.8 460.82,-110.07"/>
<polygon fill="midnightblue" stroke="midnightblue" points="461.2,-113.55 470.85,-109.17 460.58,-106.58 461.2,-113.55"/>
</g>
<!-- Node4&#45;&gt;Node3 -->
<g id="edge4" class="edge">
<title>Node4&#45;&gt;Node3</title>
<path fill="none" stroke="midnightblue" d="M342.81,-73.57C334.41,-73.79 325.57,-73.81 317.1,-73.62"/>
<polygon fill="midnightblue" stroke="midnightblue" points="317.13,-70.11 307.02,-73.27 316.89,-77.11 317.13,-70.11"/>
</g>
<!-- Node4&#45;&gt;Node4 -->
<g id="edge5" class="edge">
<title>Node4&#45;&gt;Node4</title>
<path fill="none" stroke="midnightblue" d="M368.93,-76.76C360.38,-85.57 366.24,-95 386.5,-95 399.16,-95 406.2,-91.31 407.61,-86.4"/>
<polygon fill="midnightblue" stroke="midnightblue" points="410.8,-84.94 404.07,-76.76 404.23,-87.35 410.8,-84.94"/>
</g>
<!-- Node4&#45;&gt;Node58 -->
<g id="edge6" class="edge">
<title>Node4&#45;&gt;Node58</title>
<path fill="none" stroke="midnightblue" d="M418.92,-76.53C433.89,-81.07 451.99,-86.56 468.06,-91.43"/>
<polygon fill="midnightblue" stroke="midnightblue" points="467.18,-94.82 477.76,-94.38 469.21,-88.12 467.18,-94.82"/>
</g>
<!-- Node4&#45;&gt;Node69 -->
<g id="edge7" class="edge">
<title>Node4&#45;&gt;Node69</title>
<path fill="none" stroke="midnightblue" d="M430.17,-60.35C438.47,-59.06 447.26,-57.69 455.86,-56.35"/>
<polygon fill="midnightblue" stroke="midnightblue" points="456.48,-59.8 465.82,-54.8 455.4,-52.88 456.48,-59.8"/>
</g>
<!-- Node4&#45;&gt;Node76 -->
<g id="edge8" class="edge">
<title>Node4&#45;&gt;Node76</title>
<path fill="none" stroke="midnightblue" d="M406.76,-57.42C422.59,-49.61 445.64,-38.37 466,-29 469.68,-27.3 473.56,-25.56 477.42,-23.84"/>
<polygon fill="midnightblue" stroke="midnightblue" points="479.1,-26.93 486.85,-19.69 476.29,-20.52 479.1,-26.93"/>
</g>
</g>
</svg>
