<?xml version="1.0" encoding="UTF-8" standalone="no"?>
<!DOCTYPE svg PUBLIC "-//W3C//DTD SVG 1.1//EN"
 "http://www.w3.org/Graphics/SVG/1.1/DTD/svg11.dtd">
<!-- Generated by graphviz version 2.43.0 (0)
 -->
<!-- Title: js_fcvt1 Pages: 1 -->
<svg width="330pt" height="28pt"
 viewBox="0.00 0.00 330.00 28.00" xmlns="http://www.w3.org/2000/svg" xmlns:xlink="http://www.w3.org/1999/xlink">
<g id="graph0" class="graph" transform="scale(1 1) rotate(0) translate(4 24)">
<title>js_fcvt1</title>
<!-- Node1 -->
<g id="node1" class="node">
<title>Node1</title>
<g id="a_node1"><a xlink:title=" ">
<polygon fill="#bfbfbf" stroke="black" points="267,-0.5 267,-19.5 322,-19.5 322,-0.5 267,-0.5"/>
<text text-anchor="middle" x="294.5" y="-7.5" font-family="Helvetica,sans-Serif" font-size="10.00">js_fcvt1</text>
</a>
</g>
</g>
<!-- Node2 -->
<g id="node2" class="node">
<title>Node2</title>
<g id="a_node2"><a xlink:href="quickjs_8c.html#a982972948d4f4a4a0fe7306056c44a92" target="_top" xlink:title=" ">
<polygon fill="none" stroke="black" points="182,-0.5 182,-19.5 231,-19.5 231,-0.5 182,-0.5"/>
<text text-anchor="middle" x="206.5" y="-7.5" font-family="Helvetica,sans-Serif" font-size="10.00">js_fcvt</text>
</a>
</g>
</g>
<!-- Node1&#45;&gt;Node2 -->
<g id="edge1" class="edge">
<title>Node1&#45;&gt;Node2</title>
<path fill="none" stroke="midnightblue" d="M256.49,-10C247.85,-10 238.88,-10 231.02,-10"/>
<polygon fill="midnightblue" stroke="midnightblue" points="256.76,-13.5 266.76,-10 256.76,-6.5 256.76,-13.5"/>
</g>
<!-- Node3 -->
<g id="node3" class="node">
<title>Node3</title>
<g id="a_node3"><a xlink:href="quickjs_8c.html#a7ba39dd8c4124908e1c12e2d3267767c" target="_top" xlink:title=" ">
<polygon fill="none" stroke="black" points="88,-0.5 88,-19.5 146,-19.5 146,-0.5 88,-0.5"/>
<text text-anchor="middle" x="117" y="-7.5" font-family="Helvetica,sans-Serif" font-size="10.00">js_dtoa1</text>
</a>
</g>
</g>
<!-- Node2&#45;&gt;Node3 -->
<g id="edge2" class="edge">
<title>Node2&#45;&gt;Node3</title>
<path fill="none" stroke="midnightblue" d="M171.4,-10C163.07,-10 154.25,-10 146.23,-10"/>
<polygon fill="midnightblue" stroke="midnightblue" points="171.59,-13.5 181.59,-10 171.59,-6.5 171.59,-13.5"/>
</g>
<!-- Node4 -->
<g id="node4" class="node">
<title>Node4</title>
<g id="a_node4"><a xlink:href="quickjs_8c.html#a6508a2922531adcb280bbff485a9a44a" target="_top" xlink:title=" ">
<polygon fill="none" stroke="red" points="0,-0.5 0,-19.5 52,-19.5 52,-0.5 0,-0.5"/>
<text text-anchor="middle" x="26" y="-7.5" font-family="Helvetica,sans-Serif" font-size="10.00">js_dtoa</text>
</a>
</g>
</g>
<!-- Node3&#45;&gt;Node4 -->
<g id="edge3" class="edge">
<title>Node3&#45;&gt;Node4</title>
<path fill="none" stroke="midnightblue" d="M77.62,-10C69.04,-10 60.15,-10 52.27,-10"/>
<polygon fill="midnightblue" stroke="midnightblue" points="77.84,-13.5 87.84,-10 77.84,-6.5 77.84,-13.5"/>
</g>
</g>
</svg>
