<?xml version="1.0" encoding="UTF-8" standalone="no"?>
<!DOCTYPE svg PUBLIC "-//W3C//DTD SVG 1.1//EN"
 "http://www.w3.org/Graphics/SVG/1.1/DTD/svg11.dtd">
<!-- Generated by graphviz version 2.43.0 (0)
 -->
<!-- Title: JS_ToNumberFree Pages: 1 -->
<svg width="686pt" height="541pt"
 viewBox="0.00 0.00 686.00 541.00" xmlns="http://www.w3.org/2000/svg" xmlns:xlink="http://www.w3.org/1999/xlink">
<g id="graph0" class="graph" transform="scale(1 1) rotate(0) translate(4 537)">
<title>JS_ToNumberFree</title>
<!-- Node1 -->
<g id="node1" class="node">
<title>Node1</title>
<g id="a_node1"><a xlink:title=" ">
<polygon fill="#bfbfbf" stroke="black" points="0,-152.5 0,-171.5 101,-171.5 101,-152.5 0,-152.5"/>
<text text-anchor="middle" x="50.5" y="-159.5" font-family="Helvetica,sans-Serif" font-size="10.00">JS_ToNumberFree</text>
</a>
</g>
</g>
<!-- Node2 -->
<g id="node2" class="node">
<title>Node2</title>
<g id="a_node2"><a xlink:href="quickjs_8c.html#a0315f23b9804563f376c47edef2967fd" target="_top" xlink:title=" ">
<polygon fill="none" stroke="black" points="137,-152.5 137,-171.5 259,-171.5 259,-152.5 137,-152.5"/>
<text text-anchor="middle" x="198" y="-159.5" font-family="Helvetica,sans-Serif" font-size="10.00">JS_ToNumberHintFree</text>
</a>
</g>
</g>
<!-- Node1&#45;&gt;Node2 -->
<g id="edge1" class="edge">
<title>Node1&#45;&gt;Node2</title>
<path fill="none" stroke="midnightblue" d="M101.17,-162C109.45,-162 118.18,-162 126.86,-162"/>
<polygon fill="midnightblue" stroke="midnightblue" points="127,-165.5 137,-162 127,-158.5 127,-165.5"/>
</g>
<!-- Node3 -->
<g id="node3" class="node">
<title>Node3</title>
<g id="a_node3"><a xlink:href="quickjs_8c.html#a40bcef4994dba57dfb34b6eed66daef0" target="_top" xlink:title=" ">
<polygon fill="none" stroke="black" points="317,-380.5 317,-399.5 367,-399.5 367,-380.5 317,-380.5"/>
<text text-anchor="middle" x="342" y="-387.5" font-family="Helvetica,sans-Serif" font-size="10.00">js_atof</text>
</a>
</g>
</g>
<!-- Node2&#45;&gt;Node3 -->
<g id="edge2" class="edge">
<title>Node2&#45;&gt;Node3</title>
<path fill="none" stroke="midnightblue" d="M204.92,-171.51C226.48,-206.13 301.04,-325.84 329.68,-371.82"/>
<polygon fill="midnightblue" stroke="midnightblue" points="326.8,-373.81 335.05,-380.45 332.74,-370.11 326.8,-373.81"/>
</g>
<!-- Node13 -->
<g id="node11" class="node">
<title>Node13</title>
<g id="a_node11"><a xlink:href="quickjs_8c.html#ae0bc4f65da64810facb2cb9e476eda2e" target="_top" xlink:title=" ">
<polygon fill="none" stroke="black" points="298.5,-209.5 298.5,-228.5 385.5,-228.5 385.5,-209.5 298.5,-209.5"/>
<text text-anchor="middle" x="342" y="-216.5" font-family="Helvetica,sans-Serif" font-size="10.00">JS_FreeCString</text>
</a>
</g>
</g>
<!-- Node2&#45;&gt;Node13 -->
<g id="edge11" class="edge">
<title>Node2&#45;&gt;Node13</title>
<path fill="none" stroke="midnightblue" d="M222.77,-171.54C246.01,-180.87 281.61,-195.16 307.68,-205.62"/>
<polygon fill="midnightblue" stroke="midnightblue" points="306.57,-208.95 317.15,-209.43 309.18,-202.46 306.57,-208.95"/>
</g>
<!-- Node14 -->
<g id="node12" class="node">
<title>Node14</title>
<g id="a_node12"><a xlink:href="quickjs_8h.html#afaa20c47565bc704c6c85f3d77254e7d" target="_top" xlink:title=" ">
<polygon fill="none" stroke="red" points="595,-190.5 595,-209.5 674,-209.5 674,-190.5 595,-190.5"/>
<text text-anchor="middle" x="634.5" y="-197.5" font-family="Helvetica,sans-Serif" font-size="10.00">JS_FreeValue</text>
</a>
</g>
</g>
<!-- Node2&#45;&gt;Node14 -->
<g id="edge13" class="edge">
<title>Node2&#45;&gt;Node14</title>
<path fill="none" stroke="midnightblue" d="M207.01,-171.63C222.09,-188.92 256.65,-224.66 295,-238 401.87,-275.18 538.1,-235.55 600.08,-213.16"/>
<polygon fill="midnightblue" stroke="midnightblue" points="601.56,-216.35 609.73,-209.6 599.14,-209.78 601.56,-216.35"/>
</g>
<!-- Node51 -->
<g id="node13" class="node">
<title>Node51</title>
<g id="a_node13"><a xlink:href="quickjs_8h.html#ad80a83d73e9b7d872b88fbf2943aebe9" target="_top" xlink:title=" ">
<polygon fill="none" stroke="black" points="591,-133.5 591,-152.5 678,-152.5 678,-133.5 591,-133.5"/>
<text text-anchor="middle" x="634.5" y="-140.5" font-family="Helvetica,sans-Serif" font-size="10.00">JS_IsException</text>
</a>
</g>
</g>
<!-- Node2&#45;&gt;Node51 -->
<g id="edge14" class="edge">
<title>Node2&#45;&gt;Node51</title>
<path fill="none" stroke="midnightblue" d="M236.45,-152.45C301.36,-137.14 438.97,-110.16 555,-124 567.06,-125.44 579.95,-128.08 591.72,-130.94"/>
<polygon fill="midnightblue" stroke="midnightblue" points="591.18,-134.42 601.73,-133.49 592.9,-127.63 591.18,-134.42"/>
</g>
<!-- Node52 -->
<g id="node14" class="node">
<title>Node52</title>
<g id="a_node14"><a xlink:href="quickjs_8h.html#a2050bc428da1c65ac7eb87c3fa3b0392" target="_top" xlink:title=" ">
<polygon fill="none" stroke="black" points="303.5,-57.5 303.5,-76.5 380.5,-76.5 380.5,-57.5 303.5,-57.5"/>
<text text-anchor="middle" x="342" y="-64.5" font-family="Helvetica,sans-Serif" font-size="10.00">JS_NewInt32</text>
</a>
</g>
</g>
<!-- Node2&#45;&gt;Node52 -->
<g id="edge15" class="edge">
<title>Node2&#45;&gt;Node52</title>
<path fill="none" stroke="midnightblue" d="M210.7,-152.41C228.37,-138.15 263.19,-110.89 295,-91 300.28,-87.7 306.07,-84.42 311.71,-81.41"/>
<polygon fill="midnightblue" stroke="midnightblue" points="313.67,-84.34 320.92,-76.62 310.44,-78.12 313.67,-84.34"/>
</g>
<!-- Node53 -->
<g id="node15" class="node">
<title>Node53</title>
<g id="a_node15"><a xlink:href="quickjs_8h.html#a1e7f56471f8608df9405987087a56070" target="_top" xlink:title=" ">
<polygon fill="none" stroke="black" points="295,-171.5 295,-190.5 389,-190.5 389,-171.5 295,-171.5"/>
<text text-anchor="middle" x="342" y="-178.5" font-family="Helvetica,sans-Serif" font-size="10.00">JS_ToCStringLen</text>
</a>
</g>
</g>
<!-- Node2&#45;&gt;Node53 -->
<g id="edge16" class="edge">
<title>Node2&#45;&gt;Node53</title>
<path fill="none" stroke="midnightblue" d="M259.22,-170.06C267.71,-171.19 276.41,-172.36 284.82,-173.48"/>
<polygon fill="midnightblue" stroke="midnightblue" points="284.53,-176.98 294.91,-174.83 285.46,-170.04 284.53,-176.98"/>
</g>
<!-- Node89 -->
<g id="node17" class="node">
<title>Node89</title>
<g id="a_node17"><a xlink:href="quickjs_8c.html#abac33881bb91f8c31106f616d81b67e8" target="_top" xlink:title=" ">
<polygon fill="none" stroke="red" points="436.5,-133.5 436.5,-152.5 543.5,-152.5 543.5,-133.5 436.5,-133.5"/>
<text text-anchor="middle" x="490" y="-140.5" font-family="Helvetica,sans-Serif" font-size="10.00">JS_ToPrimitiveFree</text>
</a>
</g>
</g>
<!-- Node2&#45;&gt;Node89 -->
<g id="edge20" class="edge">
<title>Node2&#45;&gt;Node89</title>
<path fill="none" stroke="midnightblue" d="M259.09,-158.06C307.88,-154.87 376.47,-150.37 426.02,-147.13"/>
<polygon fill="midnightblue" stroke="midnightblue" points="426.54,-150.6 436.29,-146.45 426.08,-143.61 426.54,-150.6"/>
</g>
<!-- Node433 -->
<g id="node18" class="node">
<title>Node433</title>
<g id="a_node18"><a xlink:href="quickjs_8c.html#a55c008c257c5802e77f5fec646e3ebf1" target="_top" xlink:title=" ">
<polygon fill="none" stroke="black" points="304,-19.5 304,-38.5 380,-38.5 380,-19.5 304,-19.5"/>
<text text-anchor="middle" x="342" y="-26.5" font-family="Helvetica,sans-Serif" font-size="10.00">skip_spaces</text>
</a>
</g>
</g>
<!-- Node2&#45;&gt;Node433 -->
<g id="edge23" class="edge">
<title>Node2&#45;&gt;Node433</title>
<path fill="none" stroke="midnightblue" d="M204.77,-152.41C218.13,-130.94 253.23,-78.54 295,-48 297.35,-46.28 299.89,-44.68 302.51,-43.2"/>
<polygon fill="midnightblue" stroke="midnightblue" points="304.27,-46.24 311.65,-38.65 301.14,-39.98 304.27,-46.24"/>
</g>
<!-- Node4 -->
<g id="node4" class="node">
<title>Node4</title>
<g id="a_node4"><a xlink:href="quickjs_8c.html#ab3ca6381d29dea396b12acd7f755c51a" target="_top" xlink:title=" ">
<polygon fill="none" stroke="black" points="464,-513.5 464,-532.5 516,-532.5 516,-513.5 464,-513.5"/>
<text text-anchor="middle" x="490" y="-520.5" font-family="Helvetica,sans-Serif" font-size="10.00">is_digit</text>
</a>
</g>
</g>
<!-- Node3&#45;&gt;Node4 -->
<g id="edge3" class="edge">
<title>Node3&#45;&gt;Node4</title>
<path fill="none" stroke="midnightblue" d="M347.2,-399.59C357.29,-421.52 385.06,-475.61 425,-504 433.57,-510.09 444.11,-514.25 454.14,-517.09"/>
<polygon fill="midnightblue" stroke="midnightblue" points="453.37,-520.5 463.91,-519.5 455.04,-513.7 453.37,-520.5"/>
</g>
<!-- Node5 -->
<g id="node5" class="node">
<title>Node5</title>
<g id="a_node5"><a xlink:href="quickjs_8c.html#a69e19dda8a93d613203e0baa06f0ed8d" target="_top" xlink:title=" ">
<polygon fill="none" stroke="black" points="459,-475.5 459,-494.5 521,-494.5 521,-475.5 459,-475.5"/>
<text text-anchor="middle" x="490" y="-482.5" font-family="Helvetica,sans-Serif" font-size="10.00">js_free_rt</text>
</a>
</g>
</g>
<!-- Node3&#45;&gt;Node5 -->
<g id="edge4" class="edge">
<title>Node3&#45;&gt;Node5</title>
<path fill="none" stroke="midnightblue" d="M350.79,-399.67C364.25,-415.76 393.46,-448.03 425,-466 432.37,-470.2 440.77,-473.56 448.99,-476.2"/>
<polygon fill="midnightblue" stroke="midnightblue" points="448.28,-479.64 458.86,-479.09 450.24,-472.92 448.28,-479.64"/>
</g>
<!-- Node6 -->
<g id="node6" class="node">
<title>Node6</title>
<g id="a_node6"><a xlink:href="quickjs_8h.html#ae91f44bd7249613050c18c7133702c67" target="_top" xlink:title=" ">
<polygon fill="none" stroke="red" points="445.5,-437.5 445.5,-456.5 534.5,-456.5 534.5,-437.5 445.5,-437.5"/>
<text text-anchor="middle" x="490" y="-444.5" font-family="Helvetica,sans-Serif" font-size="10.00">JS_NewFloat64</text>
</a>
</g>
</g>
<!-- Node3&#45;&gt;Node6 -->
<g id="edge5" class="edge">
<title>Node3&#45;&gt;Node6</title>
<path fill="none" stroke="midnightblue" d="M366.27,-399.54C382.65,-406.21 405.12,-415.27 425,-423 434.28,-426.61 444.34,-430.42 453.69,-433.93"/>
<polygon fill="midnightblue" stroke="midnightblue" points="452.51,-437.23 463.1,-437.45 454.96,-430.67 452.51,-437.23"/>
</g>
<!-- Node8 -->
<g id="node7" class="node">
<title>Node8</title>
<g id="a_node7"><a xlink:href="quickjs_8c.html#afe15bf5b8db2df1ac795c3803a1f67a6" target="_top" xlink:title=" ">
<polygon fill="none" stroke="black" points="460.5,-361.5 460.5,-380.5 519.5,-380.5 519.5,-361.5 460.5,-361.5"/>
<text text-anchor="middle" x="490" y="-368.5" font-family="Helvetica,sans-Serif" font-size="10.00">js_strtod</text>
</a>
</g>
</g>
<!-- Node3&#45;&gt;Node8 -->
<g id="edge6" class="edge">
<title>Node3&#45;&gt;Node8</title>
<path fill="none" stroke="midnightblue" d="M367.11,-386.86C389.7,-383.92 423.86,-379.48 450.28,-376.04"/>
<polygon fill="midnightblue" stroke="midnightblue" points="450.88,-379.49 460.34,-374.73 449.97,-372.55 450.88,-379.49"/>
</g>
<!-- Node9 -->
<g id="node8" class="node">
<title>Node9</title>
<g id="a_node8"><a xlink:href="quickjs_8c.html#aee06949e4c5ec85b3da174509b93dc65" target="_top" xlink:title=" ">
<polygon fill="none" stroke="black" points="608,-380.5 608,-399.5 661,-399.5 661,-380.5 608,-380.5"/>
<text text-anchor="middle" x="634.5" y="-387.5" font-family="Helvetica,sans-Serif" font-size="10.00">to_digit</text>
</a>
</g>
</g>
<!-- Node3&#45;&gt;Node9 -->
<g id="edge10" class="edge">
<title>Node3&#45;&gt;Node9</title>
<path fill="none" stroke="midnightblue" d="M367.27,-390C418.47,-390 537.74,-390 597.72,-390"/>
<polygon fill="midnightblue" stroke="midnightblue" points="597.85,-393.5 607.85,-390 597.85,-386.5 597.85,-393.5"/>
</g>
<!-- Node10 -->
<g id="node9" class="node">
<title>Node10</title>
<g id="a_node9"><a xlink:href="quickjs_8c.html#a344d6c0e45d9bf3861fd9269724045a2" target="_top" xlink:title=" ">
<polygon fill="none" stroke="red" points="425,-323.5 425,-342.5 555,-342.5 555,-323.5 425,-323.5"/>
<text text-anchor="middle" x="490" y="-330.5" font-family="Helvetica,sans-Serif" font-size="10.00">JS_ThrowOutOfMemory</text>
</a>
</g>
</g>
<!-- Node3&#45;&gt;Node10 -->
<g id="edge8" class="edge">
<title>Node3&#45;&gt;Node10</title>
<path fill="none" stroke="midnightblue" d="M361.56,-380.45C377.96,-372.25 402.69,-360.43 425,-352 430.98,-349.74 437.35,-347.57 443.66,-345.57"/>
<polygon fill="midnightblue" stroke="midnightblue" points="444.95,-348.83 453.48,-342.55 442.9,-342.14 444.95,-348.83"/>
</g>
<!-- Node12 -->
<g id="node10" class="node">
<title>Node12</title>
<g id="a_node10"><a xlink:href="cutils_8h.html#ac86d2d258aae26d8f600c60e9953c9cc" target="_top" xlink:title=" ">
<polygon fill="none" stroke="black" points="464,-285.5 464,-304.5 516,-304.5 516,-285.5 464,-285.5"/>
<text text-anchor="middle" x="490" y="-292.5" font-family="Helvetica,sans-Serif" font-size="10.00">strstart</text>
</a>
</g>
</g>
<!-- Node3&#45;&gt;Node12 -->
<g id="edge9" class="edge">
<title>Node3&#45;&gt;Node12</title>
<path fill="none" stroke="midnightblue" d="M350.79,-380.33C364.25,-364.24 393.46,-331.97 425,-314 433.89,-308.93 444.27,-305.1 454.04,-302.25"/>
<polygon fill="midnightblue" stroke="midnightblue" points="455.16,-305.58 463.93,-299.63 453.36,-298.81 455.16,-305.58"/>
</g>
<!-- Node8&#45;&gt;Node9 -->
<g id="edge7" class="edge">
<title>Node8&#45;&gt;Node9</title>
<path fill="none" stroke="midnightblue" d="M519.84,-374.84C542.22,-377.83 573.39,-381.99 597.43,-385.19"/>
<polygon fill="midnightblue" stroke="midnightblue" points="597.21,-388.69 607.58,-386.54 598.13,-381.75 597.21,-388.69"/>
</g>
<!-- Node13&#45;&gt;Node14 -->
<g id="edge12" class="edge">
<title>Node13&#45;&gt;Node14</title>
<path fill="none" stroke="midnightblue" d="M385.55,-216.22C438.52,-212.75 528.78,-206.85 584.56,-203.2"/>
<polygon fill="midnightblue" stroke="midnightblue" points="584.81,-206.69 594.56,-202.55 584.35,-199.71 584.81,-206.69"/>
</g>
<!-- Node54 -->
<g id="node16" class="node">
<title>Node54</title>
<g id="a_node16"><a xlink:href="quickjs_8c.html#af49e67b73f845dc1f9c3ee648dd9f95c" target="_top" xlink:title=" ">
<polygon fill="none" stroke="red" points="440,-171.5 440,-190.5 540,-190.5 540,-171.5 440,-171.5"/>
<text text-anchor="middle" x="490" y="-178.5" font-family="Helvetica,sans-Serif" font-size="10.00">JS_ToCStringLen2</text>
</a>
</g>
</g>
<!-- Node53&#45;&gt;Node54 -->
<g id="edge17" class="edge">
<title>Node53&#45;&gt;Node54</title>
<path fill="none" stroke="midnightblue" d="M389.2,-181C402.04,-181 416.18,-181 429.67,-181"/>
<polygon fill="midnightblue" stroke="midnightblue" points="429.83,-184.5 439.83,-181 429.83,-177.5 429.83,-184.5"/>
</g>
<!-- Node54&#45;&gt;Node14 -->
<g id="edge18" class="edge">
<title>Node54&#45;&gt;Node14</title>
<path fill="none" stroke="midnightblue" d="M540.04,-187.54C554.42,-189.46 570.15,-191.55 584.52,-193.47"/>
<polygon fill="midnightblue" stroke="midnightblue" points="584.34,-196.98 594.72,-194.83 585.27,-190.04 584.34,-196.98"/>
</g>
<!-- Node54&#45;&gt;Node51 -->
<g id="edge19" class="edge">
<title>Node54&#45;&gt;Node51</title>
<path fill="none" stroke="midnightblue" d="M526.96,-171.41C545.44,-166.48 568.16,-160.43 587.86,-155.17"/>
<polygon fill="midnightblue" stroke="midnightblue" points="588.79,-158.54 597.55,-152.59 586.99,-151.78 588.79,-158.54"/>
</g>
<!-- Node89&#45;&gt;Node14 -->
<g id="edge21" class="edge">
<title>Node89&#45;&gt;Node14</title>
<path fill="none" stroke="midnightblue" d="M526.89,-152.54C536.15,-155.3 546.03,-158.52 555,-162 572.6,-168.82 591.68,-178.01 606.62,-185.65"/>
<polygon fill="midnightblue" stroke="midnightblue" points="605.3,-188.9 615.78,-190.4 608.52,-182.69 605.3,-188.9"/>
</g>
<!-- Node89&#45;&gt;Node51 -->
<g id="edge22" class="edge">
<title>Node89&#45;&gt;Node51</title>
<path fill="none" stroke="midnightblue" d="M543.66,-143C555.68,-143 568.45,-143 580.49,-143"/>
<polygon fill="midnightblue" stroke="midnightblue" points="580.83,-146.5 590.83,-143 580.83,-139.5 580.83,-146.5"/>
</g>
<!-- Node434 -->
<g id="node19" class="node">
<title>Node434</title>
<g id="a_node19"><a xlink:href="libregexp_8h.html#a542d834d69607ea57c3ca53757c86c43" target="_top" xlink:title=" ">
<polygon fill="none" stroke="black" points="451.5,-38.5 451.5,-57.5 528.5,-57.5 528.5,-38.5 451.5,-38.5"/>
<text text-anchor="middle" x="490" y="-45.5" font-family="Helvetica,sans-Serif" font-size="10.00">lre_is_space</text>
</a>
</g>
</g>
<!-- Node433&#45;&gt;Node434 -->
<g id="edge24" class="edge">
<title>Node433&#45;&gt;Node434</title>
<path fill="none" stroke="midnightblue" d="M380.22,-33.84C398.78,-36.26 421.44,-39.21 441.27,-41.79"/>
<polygon fill="midnightblue" stroke="midnightblue" points="440.97,-45.28 451.34,-43.1 441.88,-38.34 440.97,-45.28"/>
</g>
<!-- Node80 -->
<g id="node20" class="node">
<title>Node80</title>
<g id="a_node20"><a xlink:href="cutils_8h.html#a69529af6d6911dd0ead90eef221b2e10" target="_top" xlink:title=" ">
<polygon fill="none" stroke="black" points="436,-0.5 436,-19.5 544,-19.5 544,-0.5 436,-0.5"/>
<text text-anchor="middle" x="490" y="-7.5" font-family="Helvetica,sans-Serif" font-size="10.00">unicode_from_utf8</text>
</a>
</g>
</g>
<!-- Node433&#45;&gt;Node80 -->
<g id="edge25" class="edge">
<title>Node433&#45;&gt;Node80</title>
<path fill="none" stroke="midnightblue" d="M380.22,-24.16C394.08,-22.35 410.23,-20.25 425.77,-18.23"/>
<polygon fill="midnightblue" stroke="midnightblue" points="426.41,-21.68 435.87,-16.91 425.5,-14.73 426.41,-21.68"/>
</g>
</g>
</svg>
