<?xml version="1.0" encoding="UTF-8" standalone="no"?>
<!DOCTYPE svg PUBLIC "-//W3C//DTD SVG 1.1//EN"
 "http://www.w3.org/Graphics/SVG/1.1/DTD/svg11.dtd">
<!-- Generated by graphviz version 2.43.0 (0)
 -->
<!-- Title: add_property Pages: 1 -->
<svg width="1158pt" height="811pt"
 viewBox="0.00 0.00 1158.00 811.00" xmlns="http://www.w3.org/2000/svg" xmlns:xlink="http://www.w3.org/1999/xlink">
<g id="graph0" class="graph" transform="scale(1 1) rotate(0) translate(4 807)">
<title>add_property</title>
<!-- Node1 -->
<g id="node1" class="node">
<title>Node1</title>
<g id="a_node1"><a xlink:title=" ">
<polygon fill="#bfbfbf" stroke="black" points="1069,-361.5 1069,-380.5 1150,-380.5 1150,-361.5 1069,-361.5"/>
<text text-anchor="middle" x="1109.5" y="-368.5" font-family="Helvetica,sans-Serif" font-size="10.00">add_property</text>
</a>
</g>
</g>
<!-- Node2 -->
<g id="node2" class="node">
<title>Node2</title>
<g id="a_node2"><a xlink:href="quickjs_8c.html#ac93c982cb636a5430b191d104083af3e" target="_top" xlink:title=" ">
<polygon fill="none" stroke="black" points="908,-484 908,-514 1016,-514 1016,-484 908,-484"/>
<text text-anchor="start" x="916" y="-502" font-family="Helvetica,sans-Serif" font-size="10.00">convert_fast_array</text>
<text text-anchor="middle" x="962" y="-491" font-family="Helvetica,sans-Serif" font-size="10.00">_to_array</text>
</a>
</g>
</g>
<!-- Node1&#45;&gt;Node2 -->
<g id="edge1" class="edge">
<title>Node1&#45;&gt;Node2</title>
<path fill="none" stroke="midnightblue" d="M1089.95,-387.32C1061.57,-412.28 1007.77,-459.61 980.21,-483.86"/>
<polygon fill="midnightblue" stroke="midnightblue" points="1092.37,-389.85 1097.56,-380.62 1087.74,-384.6 1092.37,-389.85"/>
</g>
<!-- Node7 -->
<g id="node5" class="node">
<title>Node7</title>
<g id="a_node5"><a xlink:href="quickjs_8c.html#ac2894ff4edcdb4e6841bcce9c76081e3" target="_top" xlink:title=" ">
<polygon fill="none" stroke="red" points="14,-337.5 14,-356.5 101,-356.5 101,-337.5 14,-337.5"/>
<text text-anchor="middle" x="57.5" y="-344.5" font-family="Helvetica,sans-Serif" font-size="10.00">JS_CallInternal</text>
</a>
</g>
</g>
<!-- Node1&#45;&gt;Node7 -->
<g id="edge28" class="edge">
<title>Node1&#45;&gt;Node7</title>
<path fill="none" stroke="midnightblue" d="M1099.2,-352.63C1086.96,-330.23 1063.39,-292.68 1033,-271 932.48,-199.31 508.01,-140.77 480,-138 437.83,-133.82 152.5,-140.01 151,-141 79.94,-187.77 62.89,-303.27 59.34,-337.37"/>
<polygon fill="midnightblue" stroke="midnightblue" points="1096.11,-354.27 1103.88,-361.48 1102.3,-351 1096.11,-354.27"/>
</g>
<!-- Node166 -->
<g id="node10" class="node">
<title>Node166</title>
<g id="a_node10"><a xlink:href="quickjs_8c.html#a04d312757919ff6b4d79cd0c2c3e5bb2" target="_top" xlink:title=" ">
<polygon fill="none" stroke="black" points="173.5,-729.5 173.5,-748.5 285.5,-748.5 285.5,-729.5 173.5,-729.5"/>
<text text-anchor="middle" x="229.5" y="-736.5" font-family="Helvetica,sans-Serif" font-size="10.00">js_build_arguments</text>
</a>
</g>
</g>
<!-- Node1&#45;&gt;Node166 -->
<g id="edge24" class="edge">
<title>Node1&#45;&gt;Node166</title>
<path fill="none" stroke="midnightblue" d="M1108.01,-390.85C1105.8,-435.78 1094.09,-546.09 1033,-607 947.49,-692.25 894.74,-689 774,-689 774,-689 774,-689 584.5,-689 469.98,-689 336.66,-714.97 271.12,-729.48"/>
<polygon fill="midnightblue" stroke="midnightblue" points="1111.51,-390.81 1108.39,-380.68 1104.52,-390.54 1111.51,-390.81"/>
</g>
<!-- Node130 -->
<g id="node11" class="node">
<title>Node130</title>
<g id="a_node11"><a xlink:href="quickjs_8c.html#ad7f03358a8088ca920ab308225c6b2e6" target="_top" xlink:title=" ">
<polygon fill="none" stroke="red" points="167,-767.5 167,-786.5 292,-786.5 292,-767.5 167,-767.5"/>
<text text-anchor="middle" x="229.5" y="-774.5" font-family="Helvetica,sans-Serif" font-size="10.00">JS_SetPropertyInternal</text>
</a>
</g>
</g>
<!-- Node1&#45;&gt;Node130 -->
<g id="edge54" class="edge">
<title>Node1&#45;&gt;Node130</title>
<path fill="none" stroke="midnightblue" d="M1108.44,-390.75C1107.3,-440.92 1097.97,-575.27 1033,-659 952.26,-763.06 905.71,-803 774,-803 774,-803 774,-803 584.5,-803 481.74,-803 362.66,-791.97 292.11,-784.28"/>
<polygon fill="midnightblue" stroke="midnightblue" points="1111.94,-390.66 1108.58,-380.62 1104.94,-390.57 1111.94,-390.66"/>
</g>
<!-- Node221 -->
<g id="node13" class="node">
<title>Node221</title>
<g id="a_node13"><a xlink:href="quickjs_8c.html#ad5565bb5cfd5321f181573257f3b0c91" target="_top" xlink:title=" ">
<polygon fill="none" stroke="red" points="533.5,-641.5 533.5,-660.5 637.5,-660.5 637.5,-641.5 533.5,-641.5"/>
<text text-anchor="middle" x="585.5" y="-648.5" font-family="Helvetica,sans-Serif" font-size="10.00">JS_CreateProperty</text>
</a>
</g>
</g>
<!-- Node1&#45;&gt;Node221 -->
<g id="edge29" class="edge">
<title>Node1&#45;&gt;Node221</title>
<path fill="none" stroke="midnightblue" d="M1106.53,-390.96C1101.59,-429.57 1085.1,-514.45 1033,-558 917.72,-654.35 728.03,-658.96 637.57,-654.9"/>
<polygon fill="midnightblue" stroke="midnightblue" points="1110.06,-390.9 1107.71,-380.57 1103.1,-390.11 1110.06,-390.9"/>
</g>
<!-- Node616 -->
<g id="node14" class="node">
<title>Node616</title>
<g id="a_node14"><a xlink:href="quickjs_8c.html#a6a21784a40b8684f2e779bd460dd13b2" target="_top" xlink:title=" ">
<polygon fill="none" stroke="black" points="546.5,-266.5 546.5,-285.5 624.5,-285.5 624.5,-266.5 546.5,-266.5"/>
<text text-anchor="middle" x="585.5" y="-273.5" font-family="Helvetica,sans-Serif" font-size="10.00">JS_AddBrand</text>
</a>
</g>
</g>
<!-- Node1&#45;&gt;Node616 -->
<g id="edge22" class="edge">
<title>Node1&#45;&gt;Node616</title>
<path fill="none" stroke="midnightblue" d="M1058.94,-361.98C955.3,-343.12 717.58,-299.86 624.69,-282.95"/>
<polygon fill="midnightblue" stroke="midnightblue" points="1058.37,-365.43 1068.84,-363.78 1059.63,-358.55 1058.37,-365.43"/>
</g>
<!-- Node225 -->
<g id="node15" class="node">
<title>Node225</title>
<g id="a_node15"><a xlink:href="quickjs_8c.html#a1c459034f2971c4abc3a8d6d4693ef5f" target="_top" xlink:title=" ">
<polygon fill="none" stroke="black" points="151,-527.5 151,-546.5 308,-546.5 308,-527.5 151,-527.5"/>
<text text-anchor="middle" x="229.5" y="-534.5" font-family="Helvetica,sans-Serif" font-size="10.00">js_build_mapped_arguments</text>
</a>
</g>
</g>
<!-- Node1&#45;&gt;Node225 -->
<g id="edge25" class="edge">
<title>Node1&#45;&gt;Node225</title>
<path fill="none" stroke="midnightblue" d="M1061.83,-382.92C997.5,-398.27 877.76,-423 774,-423 774,-423 774,-423 584.5,-423 474.23,-423 445.63,-441.21 344,-484 326.72,-491.28 324.76,-497.6 308,-506 291.68,-514.18 272.65,-521.82 257.53,-527.47"/>
<polygon fill="midnightblue" stroke="midnightblue" points="1062.77,-386.29 1071.67,-380.54 1061.12,-379.49 1062.77,-386.29"/>
</g>
<!-- Node226 -->
<g id="node16" class="node">
<title>Node226</title>
<g id="a_node16"><a xlink:href="quickjs_8c.html#ad12b6863ca31850fc39d208bb865420e" target="_top" xlink:title=" ">
<polygon fill="none" stroke="red" points="716.5,-33.5 716.5,-52.5 829.5,-52.5 829.5,-33.5 716.5,-33.5"/>
<text text-anchor="middle" x="773" y="-40.5" font-family="Helvetica,sans-Serif" font-size="10.00">js_build_module_ns</text>
</a>
</g>
</g>
<!-- Node1&#45;&gt;Node226 -->
<g id="edge27" class="edge">
<title>Node1&#45;&gt;Node226</title>
<path fill="none" stroke="midnightblue" d="M1105.81,-351.3C1097.63,-294.24 1071.22,-130.67 1033,-95 978.18,-43.83 887.74,-36.81 829.54,-38.42"/>
<polygon fill="midnightblue" stroke="midnightblue" points="1102.35,-351.8 1107.2,-361.22 1109.28,-350.83 1102.35,-351.8"/>
</g>
<!-- Node617 -->
<g id="node17" class="node">
<title>Node617</title>
<g id="a_node17"><a xlink:href="quickjs_8c.html#a7128998511654840928b9df9d4c55b3c" target="_top" xlink:title=" ">
<polygon fill="none" stroke="black" points="891,-104.5 891,-123.5 1033,-123.5 1033,-104.5 891,-104.5"/>
<text text-anchor="middle" x="962" y="-111.5" font-family="Helvetica,sans-Serif" font-size="10.00">JS_DefineAutoInitProperty</text>
</a>
</g>
</g>
<!-- Node1&#45;&gt;Node617 -->
<g id="edge30" class="edge">
<title>Node1&#45;&gt;Node617</title>
<path fill="none" stroke="midnightblue" d="M1107.35,-351.29C1103.81,-308.04 1089.55,-203.84 1033,-143 1024.76,-134.14 1013.4,-127.9 1002.23,-123.54"/>
<polygon fill="midnightblue" stroke="midnightblue" points="1103.87,-351.63 1108.07,-361.35 1110.85,-351.13 1103.87,-351.63"/>
</g>
<!-- Node618 -->
<g id="node20" class="node">
<title>Node618</title>
<g id="a_node20"><a xlink:href="quickjs_8c.html#a4e5684e94183b342edf8cf73f1c23d65" target="_top" xlink:title=" ">
<polygon fill="none" stroke="black" points="357,-147.5 357,-166.5 467,-166.5 467,-147.5 357,-147.5"/>
<text text-anchor="middle" x="412" y="-154.5" font-family="Helvetica,sans-Serif" font-size="10.00">JS_DefineGlobalVar</text>
</a>
</g>
</g>
<!-- Node1&#45;&gt;Node618 -->
<g id="edge35" class="edge">
<title>Node1&#45;&gt;Node618</title>
<path fill="none" stroke="midnightblue" d="M1086.22,-355.94C1071.6,-346.59 1051.77,-334.88 1033,-327 830.79,-242.07 573.72,-187.36 465.14,-166.52"/>
<polygon fill="midnightblue" stroke="midnightblue" points="1084.32,-358.88 1094.6,-361.41 1088.14,-353.01 1084.32,-358.88"/>
</g>
<!-- Node619 -->
<g id="node21" class="node">
<title>Node619</title>
<g id="a_node21"><a xlink:href="quickjs_8c.html#a3865abec9986277dbff58ea314f3d82e" target="_top" xlink:title=" ">
<polygon fill="none" stroke="black" points="902,-0.5 902,-19.5 1022,-19.5 1022,-0.5 902,-0.5"/>
<text text-anchor="middle" x="962" y="-7.5" font-family="Helvetica,sans-Serif" font-size="10.00">JS_DefinePrivateField</text>
</a>
</g>
</g>
<!-- Node1&#45;&gt;Node619 -->
<g id="edge37" class="edge">
<title>Node1&#45;&gt;Node619</title>
<path fill="none" stroke="midnightblue" d="M1108.83,-351.19C1108.75,-297.76 1101.97,-148.28 1033,-53 1021.88,-37.63 1003.42,-26.63 988.25,-19.6"/>
<polygon fill="midnightblue" stroke="midnightblue" points="1105.33,-351.32 1108.76,-361.34 1112.33,-351.37 1105.33,-351.32"/>
</g>
<!-- Node620 -->
<g id="node22" class="node">
<title>Node620</title>
<g id="a_node22"><a xlink:href="quickjs_8c.html#a030c2e98b1775a7e3bdd13be1400b1fe" target="_top" xlink:title=" ">
<polygon fill="none" stroke="black" points="516,-489.5 516,-508.5 655,-508.5 655,-489.5 516,-489.5"/>
<text text-anchor="middle" x="585.5" y="-496.5" font-family="Helvetica,sans-Serif" font-size="10.00">JS_NewObjectFromShape</text>
</a>
</g>
</g>
<!-- Node1&#45;&gt;Node620 -->
<g id="edge39" class="edge">
<title>Node1&#45;&gt;Node620</title>
<path fill="none" stroke="midnightblue" d="M1105.43,-391.06C1098.97,-425.38 1080.46,-494.49 1033,-524 893.22,-610.9 678.74,-536.73 609.15,-508.66"/>
<polygon fill="midnightblue" stroke="midnightblue" points="1108.94,-391.31 1107.18,-380.86 1102.04,-390.13 1108.94,-391.31"/>
</g>
<!-- Node3 -->
<g id="node3" class="node">
<title>Node3</title>
<g id="a_node3"><a xlink:href="quickjs_8c.html#a2b9a2014cb970af5b5b7dde00afbdffa" target="_top" xlink:title=" ">
<polygon fill="none" stroke="black" points="726,-489.5 726,-508.5 820,-508.5 820,-489.5 726,-489.5"/>
<text text-anchor="middle" x="773" y="-496.5" font-family="Helvetica,sans-Serif" font-size="10.00">delete_property</text>
</a>
</g>
</g>
<!-- Node2&#45;&gt;Node3 -->
<g id="edge2" class="edge">
<title>Node2&#45;&gt;Node3</title>
<path fill="none" stroke="midnightblue" d="M897.64,-499C872.26,-499 843.58,-499 820.22,-499"/>
<polygon fill="midnightblue" stroke="midnightblue" points="897.91,-502.5 907.91,-499 897.91,-495.5 897.91,-502.5"/>
</g>
<!-- Node164 -->
<g id="node7" class="node">
<title>Node164</title>
<g id="a_node7"><a xlink:href="quickjs_8c.html#ab50618f1bf78e444caa6da0e3e2785d7" target="_top" xlink:title=" ">
<polygon fill="none" stroke="red" points="360,-641.5 360,-660.5 464,-660.5 464,-641.5 360,-641.5"/>
<text text-anchor="middle" x="412" y="-648.5" font-family="Helvetica,sans-Serif" font-size="10.00">JS_DefineProperty</text>
</a>
</g>
</g>
<!-- Node2&#45;&gt;Node164 -->
<g id="edge21" class="edge">
<title>Node2&#45;&gt;Node164</title>
<path fill="none" stroke="midnightblue" d="M897.54,-510.28C782.6,-531.05 548.77,-574.94 516,-594 495.89,-605.69 499.9,-619.95 480,-632 473.59,-635.88 466.35,-639 459.07,-641.49"/>
<polygon fill="midnightblue" stroke="midnightblue" points="898.39,-513.69 907.61,-508.47 897.15,-506.8 898.39,-513.69"/>
</g>
<!-- Node165 -->
<g id="node9" class="node">
<title>Node165</title>
<g id="a_node9"><a xlink:href="quickjs_8c.html#a9105ee38f5a557a7922fe6cfee0f9bb2" target="_top" xlink:title=" ">
<polygon fill="none" stroke="black" points="170.5,-566 170.5,-596 288.5,-596 288.5,-566 170.5,-566"/>
<text text-anchor="start" x="178.5" y="-584" font-family="Helvetica,sans-Serif" font-size="10.00">js_arguments_define</text>
<text text-anchor="middle" x="229.5" y="-573" font-family="Helvetica,sans-Serif" font-size="10.00">_own_property</text>
</a>
</g>
</g>
<!-- Node2&#45;&gt;Node165 -->
<g id="edge17" class="edge">
<title>Node2&#45;&gt;Node165</title>
<path fill="none" stroke="midnightblue" d="M897.82,-485.78C883.78,-483.38 868.94,-481.24 855,-480 704.93,-466.66 664.36,-453.74 516,-480 419.08,-497.15 401.07,-524 308,-556 298.37,-559.31 288.03,-562.74 278.14,-565.95"/>
<polygon fill="midnightblue" stroke="midnightblue" points="897.41,-489.27 907.87,-487.57 898.64,-482.37 897.41,-489.27"/>
</g>
<!-- Node2&#45;&gt;Node221 -->
<g id="edge18" class="edge">
<title>Node2&#45;&gt;Node221</title>
<path fill="none" stroke="midnightblue" d="M922.48,-518.72C902.5,-528.73 877.62,-540.89 855,-551 767.45,-590.14 745.8,-601.13 655,-632 645.07,-635.38 634.18,-638.61 624.07,-641.41"/>
<polygon fill="midnightblue" stroke="midnightblue" points="924.21,-521.76 931.57,-514.14 921.06,-515.51 924.21,-521.76"/>
</g>
<!-- Node4 -->
<g id="node4" class="node">
<title>Node4</title>
<g id="a_node4"><a xlink:href="quickjs_8c.html#a2b88ed25233c441cbed7b0a027c9ee2f" target="_top" xlink:title=" ">
<polygon fill="none" stroke="red" points="360,-280.5 360,-299.5 464,-299.5 464,-280.5 360,-280.5"/>
<text text-anchor="middle" x="412" y="-287.5" font-family="Helvetica,sans-Serif" font-size="10.00">JS_DeleteProperty</text>
</a>
</g>
</g>
<!-- Node3&#45;&gt;Node4 -->
<g id="edge3" class="edge">
<title>Node3&#45;&gt;Node4</title>
<path fill="none" stroke="midnightblue" d="M746.72,-484.28C677.59,-444.03 486.72,-332.92 429.45,-299.58"/>
<polygon fill="midnightblue" stroke="midnightblue" points="745.24,-487.47 755.64,-489.48 748.76,-481.42 745.24,-487.47"/>
</g>
<!-- Node223 -->
<g id="node6" class="node">
<title>Node223</title>
<g id="a_node6"><a xlink:href="quickjs_8c.html#ad55fe6f65ecb58e327ac9e9b4ab475f5" target="_top" xlink:title=" ">
<polygon fill="none" stroke="black" points="536.5,-603.5 536.5,-622.5 634.5,-622.5 634.5,-603.5 536.5,-603.5"/>
<text text-anchor="middle" x="585.5" y="-610.5" font-family="Helvetica,sans-Serif" font-size="10.00">set_array_length</text>
</a>
</g>
</g>
<!-- Node3&#45;&gt;Node223 -->
<g id="edge6" class="edge">
<title>Node3&#45;&gt;Node223</title>
<path fill="none" stroke="midnightblue" d="M747.95,-513.78C709.32,-537.52 634.48,-583.51 602.08,-603.42"/>
<polygon fill="midnightblue" stroke="midnightblue" points="749.82,-516.74 756.5,-508.52 746.15,-510.78 749.82,-516.74"/>
</g>
<!-- Node4&#45;&gt;Node7 -->
<g id="edge4" class="edge">
<title>Node4&#45;&gt;Node7</title>
<path fill="none" stroke="midnightblue" d="M382.1,-276.18C332.73,-254.62 229.84,-218.73 151,-252 109.01,-269.72 76.64,-316.86 64.13,-337.31"/>
<polygon fill="midnightblue" stroke="midnightblue" points="380.96,-279.5 391.52,-280.4 383.83,-273.11 380.96,-279.5"/>
</g>
<!-- Node7&#45;&gt;Node7 -->
<g id="edge5" class="edge">
<title>Node7&#45;&gt;Node7</title>
<path fill="none" stroke="midnightblue" d="M89.69,-365.27C88.77,-370.74 78.04,-375 57.5,-375 26.93,-375 18.09,-365.57 30.99,-356.76"/>
<polygon fill="midnightblue" stroke="midnightblue" points="92.47,-363.14 84.01,-356.76 86.64,-367.02 92.47,-363.14"/>
</g>
<!-- Node223&#45;&gt;Node164 -->
<g id="edge7" class="edge">
<title>Node223&#45;&gt;Node164</title>
<path fill="none" stroke="midnightblue" d="M531.46,-624.75C507.21,-630.13 478.85,-636.41 455.97,-641.48"/>
<polygon fill="midnightblue" stroke="midnightblue" points="532.22,-628.17 541.22,-622.59 530.7,-621.34 532.22,-628.17"/>
</g>
<!-- Node223&#45;&gt;Node130 -->
<g id="edge16" class="edge">
<title>Node223&#45;&gt;Node130</title>
<path fill="none" stroke="midnightblue" d="M527.53,-626.16C523.52,-627.88 519.63,-629.82 516,-632 496.06,-643.99 498.62,-656.06 480,-670 471.41,-676.43 318.06,-754.25 308,-758 298.13,-761.68 287.3,-764.84 276.93,-767.48"/>
<polygon fill="midnightblue" stroke="midnightblue" points="528.95,-629.36 537.04,-622.52 526.45,-622.82 528.95,-629.36"/>
</g>
<!-- Node164&#45;&gt;Node7 -->
<g id="edge12" class="edge">
<title>Node164&#45;&gt;Node7</title>
<path fill="none" stroke="midnightblue" d="M370.64,-663.08C315.14,-677.04 214.89,-692.36 151,-644 102.34,-607.17 67.5,-403.9 60.01,-356.76"/>
<polygon fill="midnightblue" stroke="midnightblue" points="371.67,-666.43 380.46,-660.51 369.9,-659.66 371.67,-666.43"/>
</g>
<!-- Node69 -->
<g id="node8" class="node">
<title>Node69</title>
<g id="a_node8"><a xlink:href="quickjs_8c.html#a4c9489297c684663f30e517204a9ec14" target="_top" xlink:title=" ">
<polygon fill="none" stroke="red" points="155,-615.5 155,-634.5 304,-634.5 304,-615.5 155,-615.5"/>
<text text-anchor="middle" x="229.5" y="-622.5" font-family="Helvetica,sans-Serif" font-size="10.00">JS_AddIntrinsicBaseObjects</text>
</a>
</g>
</g>
<!-- Node164&#45;&gt;Node69 -->
<g id="edge8" class="edge">
<title>Node164&#45;&gt;Node69</title>
<path fill="none" stroke="midnightblue" d="M349.41,-642.13C332.44,-639.68 313.96,-637.02 296.73,-634.54"/>
<polygon fill="midnightblue" stroke="midnightblue" points="349.36,-645.66 359.76,-643.62 350.36,-638.73 349.36,-645.66"/>
</g>
<!-- Node164&#45;&gt;Node165 -->
<g id="edge9" class="edge">
<title>Node164&#45;&gt;Node165</title>
<path fill="none" stroke="midnightblue" d="M358.85,-638.17C353.74,-636.33 348.71,-634.28 344,-632 326.24,-623.4 325.61,-614.92 308,-606 300.68,-602.3 292.71,-598.99 284.74,-596.08"/>
<polygon fill="midnightblue" stroke="midnightblue" points="358.11,-641.61 368.71,-641.43 360.32,-634.97 358.11,-641.61"/>
</g>
<!-- Node164&#45;&gt;Node166 -->
<g id="edge10" class="edge">
<title>Node164&#45;&gt;Node166</title>
<path fill="none" stroke="midnightblue" d="M364.32,-664.33C357.22,-667.3 350.21,-670.84 344,-675 324.14,-688.33 328.15,-702.11 308,-715 298.27,-721.22 286.82,-725.92 275.76,-729.44"/>
<polygon fill="midnightblue" stroke="midnightblue" points="365.89,-667.47 373.97,-660.61 363.38,-660.93 365.89,-667.47"/>
</g>
<!-- Node164&#45;&gt;Node130 -->
<g id="edge13" class="edge">
<title>Node164&#45;&gt;Node130</title>
<path fill="none" stroke="midnightblue" d="M391.74,-667.45C377.94,-679.55 359.2,-696.67 344,-713 326.55,-731.75 329.59,-744.22 308,-758 301.93,-761.88 295.13,-764.96 288.14,-767.42"/>
<polygon fill="midnightblue" stroke="midnightblue" points="394.35,-669.81 399.61,-660.61 389.76,-664.52 394.35,-669.81"/>
</g>
<!-- Node166&#45;&gt;Node7 -->
<g id="edge11" class="edge">
<title>Node166&#45;&gt;Node7</title>
<path fill="none" stroke="midnightblue" d="M202.16,-723.95C185.21,-712.98 164,-696.64 151,-677 77.77,-566.36 61.93,-398.07 59.06,-356.52"/>
<polygon fill="midnightblue" stroke="midnightblue" points="200.72,-727.17 211.06,-729.48 204.41,-721.23 200.72,-727.17"/>
</g>
<!-- Node130&#45;&gt;Node7 -->
<g id="edge15" class="edge">
<title>Node130&#45;&gt;Node7</title>
<path fill="none" stroke="midnightblue" d="M157.98,-763.86C155.48,-762.12 153.14,-760.18 151,-758 91.97,-697.83 64.25,-412.81 59.31,-356.63"/>
<polygon fill="midnightblue" stroke="midnightblue" points="156.57,-767.08 167,-768.98 160.03,-761 156.57,-767.08"/>
</g>
<!-- Node131 -->
<g id="node12" class="node">
<title>Node131</title>
<g id="a_node12"><a xlink:href="quickjs_8c.html#aa40a5354bee3b56e05a71244910bcc78" target="_top" xlink:title=" ">
<polygon fill="none" stroke="red" points="0,-729.5 0,-748.5 115,-748.5 115,-729.5 0,-729.5"/>
<text text-anchor="middle" x="57.5" y="-736.5" font-family="Helvetica,sans-Serif" font-size="10.00">build_for_in_iterator</text>
</a>
</g>
</g>
<!-- Node130&#45;&gt;Node131 -->
<g id="edge14" class="edge">
<title>Node130&#45;&gt;Node131</title>
<path fill="none" stroke="midnightblue" d="M175.6,-765.18C151.63,-759.82 123.68,-753.57 101.09,-748.52"/>
<polygon fill="midnightblue" stroke="midnightblue" points="175.08,-768.65 185.6,-767.41 176.61,-761.81 175.08,-768.65"/>
</g>
<!-- Node221&#45;&gt;Node164 -->
<g id="edge19" class="edge">
<title>Node221&#45;&gt;Node164</title>
<path fill="none" stroke="midnightblue" d="M522.86,-651C503.6,-651 482.58,-651 464.12,-651"/>
<polygon fill="midnightblue" stroke="midnightblue" points="523.04,-654.5 533.04,-651 523.04,-647.5 523.04,-654.5"/>
</g>
<!-- Node221&#45;&gt;Node130 -->
<g id="edge20" class="edge">
<title>Node221&#45;&gt;Node130</title>
<path fill="none" stroke="midnightblue" d="M570.04,-668.43C551.53,-689.42 517.35,-724 480,-741 420.05,-768.29 344.36,-775.93 292.15,-777.6"/>
<polygon fill="midnightblue" stroke="midnightblue" points="572.9,-670.46 576.77,-660.6 567.59,-665.9 572.9,-670.46"/>
</g>
<!-- Node616&#45;&gt;Node7 -->
<g id="edge23" class="edge">
<title>Node616&#45;&gt;Node7</title>
<path fill="none" stroke="midnightblue" d="M553.2,-262.45C479.14,-232.56 289.03,-168.61 151,-234 104.49,-256.03 73.58,-314.18 62.77,-337.31"/>
<polygon fill="midnightblue" stroke="midnightblue" points="552.28,-265.86 562.86,-266.43 554.94,-259.39 552.28,-265.86"/>
</g>
<!-- Node225&#45;&gt;Node7 -->
<g id="edge26" class="edge">
<title>Node225&#45;&gt;Node7</title>
<path fill="none" stroke="midnightblue" d="M168.44,-523.59C162.18,-520.72 156.22,-517.23 151,-513 96.93,-469.15 69.15,-384.82 61.06,-356.52"/>
<polygon fill="midnightblue" stroke="midnightblue" points="167.16,-526.86 177.75,-527.38 169.8,-520.37 167.16,-526.86"/>
</g>
<!-- Node617&#45;&gt;Node226 -->
<g id="edge31" class="edge">
<title>Node617&#45;&gt;Node226</title>
<path fill="none" stroke="midnightblue" d="M930.64,-100.05C918.28,-94.28 903.9,-87.44 891,-81 874.81,-72.92 871.94,-68.34 855,-62 845.12,-58.31 834.29,-55.17 823.86,-52.58"/>
<polygon fill="midnightblue" stroke="midnightblue" points="929.51,-103.39 940.05,-104.43 932.46,-97.04 929.51,-103.39"/>
</g>
<!-- Node228 -->
<g id="node18" class="node">
<title>Node228</title>
<g id="a_node18"><a xlink:href="quickjs_8c.html#aab4130a4c3108a127681be821818528a" target="_top" xlink:title=" ">
<polygon fill="none" stroke="red" points="740.5,-109.5 740.5,-128.5 805.5,-128.5 805.5,-109.5 740.5,-109.5"/>
<text text-anchor="middle" x="773" y="-116.5" font-family="Helvetica,sans-Serif" font-size="10.00">js_closure</text>
</a>
</g>
</g>
<!-- Node617&#45;&gt;Node228 -->
<g id="edge32" class="edge">
<title>Node617&#45;&gt;Node228</title>
<path fill="none" stroke="midnightblue" d="M880.8,-116.14C854.37,-116.85 826.5,-117.6 805.86,-118.15"/>
<polygon fill="midnightblue" stroke="midnightblue" points="880.93,-119.64 890.84,-115.88 880.75,-112.64 880.93,-119.64"/>
</g>
<!-- Node174 -->
<g id="node19" class="node">
<title>Node174</title>
<g id="a_node19"><a xlink:href="quickjs_8c.html#a6ee4e2edda1f223a5a40e2c48b41d618" target="_top" xlink:title=" ">
<polygon fill="none" stroke="red" points="691,-71.5 691,-90.5 855,-90.5 855,-71.5 691,-71.5"/>
<text text-anchor="middle" x="773" y="-78.5" font-family="Helvetica,sans-Serif" font-size="10.00">JS_InstantiateFunctionListItem</text>
</a>
</g>
</g>
<!-- Node617&#45;&gt;Node174 -->
<g id="edge34" class="edge">
<title>Node617&#45;&gt;Node174</title>
<path fill="none" stroke="midnightblue" d="M897.05,-102.72C874.62,-98.76 849.65,-94.35 828.1,-90.55"/>
<polygon fill="midnightblue" stroke="midnightblue" points="896.71,-106.21 907.16,-104.5 897.92,-99.31 896.71,-106.21"/>
</g>
<!-- Node228&#45;&gt;Node7 -->
<g id="edge33" class="edge">
<title>Node228&#45;&gt;Node7</title>
<path fill="none" stroke="midnightblue" d="M730.04,-111.9C606.15,-91.88 244.76,-40.46 151,-105 69.49,-161.11 59.76,-299.5 58.64,-337.32"/>
<polygon fill="midnightblue" stroke="midnightblue" points="729.82,-115.41 740.25,-113.57 730.95,-108.5 729.82,-115.41"/>
</g>
<!-- Node618&#45;&gt;Node7 -->
<g id="edge36" class="edge">
<title>Node618&#45;&gt;Node7</title>
<path fill="none" stroke="midnightblue" d="M346.8,-147.15C290.61,-141.97 209.11,-143.16 151,-181 92.39,-219.17 67.42,-307.96 60.56,-337.36"/>
<polygon fill="midnightblue" stroke="midnightblue" points="346.69,-150.65 356.99,-148.18 347.39,-143.69 346.69,-150.65"/>
</g>
<!-- Node619&#45;&gt;Node7 -->
<g id="edge38" class="edge">
<title>Node619&#45;&gt;Node7</title>
<path fill="none" stroke="midnightblue" d="M891.7,-8.52C816.53,-7.05 693.01,-5 586.5,-5 586.5,-5 586.5,-5 411,-5 291.78,-5 238.39,10.09 151,-71 68.94,-147.14 59.64,-298.14 58.62,-337.46"/>
<polygon fill="midnightblue" stroke="midnightblue" points="891.91,-12.03 901.98,-8.73 892.05,-5.03 891.91,-12.03"/>
</g>
<!-- Node621 -->
<g id="node23" class="node">
<title>Node621</title>
<g id="a_node23"><a xlink:href="quickjs_8c.html#ad4ba09e4c7ab9f28c144182e1aacf1f6" target="_top" xlink:title=" ">
<polygon fill="none" stroke="red" points="372.5,-375.5 372.5,-394.5 451.5,-394.5 451.5,-375.5 372.5,-375.5"/>
<text text-anchor="middle" x="412" y="-382.5" font-family="Helvetica,sans-Serif" font-size="10.00">JS_NewArray</text>
</a>
</g>
</g>
<!-- Node620&#45;&gt;Node621 -->
<g id="edge40" class="edge">
<title>Node620&#45;&gt;Node621</title>
<path fill="none" stroke="midnightblue" d="M561.83,-483.93C526.09,-460.17 457.61,-414.66 427.65,-394.74"/>
<polygon fill="midnightblue" stroke="midnightblue" points="559.91,-486.86 570.17,-489.48 563.78,-481.03 559.91,-486.86"/>
</g>
<!-- Node624 -->
<g id="node30" class="node">
<title>Node624</title>
<g id="a_node30"><a xlink:href="quickjs_8c.html#a73738c650f11459db0d7af3dcdf8316b" target="_top" xlink:title=" ">
<polygon fill="none" stroke="red" points="344,-603.5 344,-622.5 480,-622.5 480,-603.5 344,-603.5"/>
<text text-anchor="middle" x="412" y="-610.5" font-family="Helvetica,sans-Serif" font-size="10.00">JS_NewObjectProtoClass</text>
</a>
</g>
</g>
<!-- Node620&#45;&gt;Node624 -->
<g id="edge49" class="edge">
<title>Node620&#45;&gt;Node624</title>
<path fill="none" stroke="midnightblue" d="M539.75,-511.9C531.6,-515.02 523.36,-518.71 516,-523 476.61,-545.95 438.37,-585.1 421.71,-603.24"/>
<polygon fill="midnightblue" stroke="midnightblue" points="540.99,-515.18 549.22,-508.5 538.63,-508.59 540.99,-515.18"/>
</g>
<!-- Node621&#45;&gt;Node7 -->
<g id="edge48" class="edge">
<title>Node621&#45;&gt;Node7</title>
<path fill="none" stroke="midnightblue" d="M363.03,-397.07C356.15,-400.2 349.54,-404.11 344,-409 317.47,-432.4 338.15,-461.48 308,-480 248.54,-516.52 212.84,-512.32 151,-480 99.4,-453.04 70.77,-382.72 61.7,-356.79"/>
<polygon fill="midnightblue" stroke="midnightblue" points="364.52,-400.24 372.5,-393.27 361.91,-393.75 364.52,-400.24"/>
</g>
<!-- Node67 -->
<g id="node24" class="node">
<title>Node67</title>
<g id="a_node24"><a xlink:href="quickjs_8c.html#a9f70dbefcf33550d6f9e588c05c9ffef" target="_top" xlink:title=" ">
<polygon fill="none" stroke="red" points="180.5,-413.5 180.5,-432.5 278.5,-432.5 278.5,-413.5 180.5,-413.5"/>
<text text-anchor="middle" x="229.5" y="-420.5" font-family="Helvetica,sans-Serif" font-size="10.00">iterator_to_array</text>
</a>
</g>
</g>
<!-- Node621&#45;&gt;Node67 -->
<g id="edge41" class="edge">
<title>Node621&#45;&gt;Node67</title>
<path fill="none" stroke="midnightblue" d="M362.3,-395.25C335.4,-400.92 302.2,-407.9 275.85,-413.45"/>
<polygon fill="midnightblue" stroke="midnightblue" points="363.21,-398.64 372.28,-393.15 361.77,-391.79 363.21,-398.64"/>
</g>
<!-- Node30 -->
<g id="node25" class="node">
<title>Node30</title>
<g id="a_node25"><a xlink:href="quickjs_8c.html#aa0bbf08a7e91459c68a312fba7016c6d" target="_top" xlink:title=" ">
<polygon fill="none" stroke="black" points="185,-375.5 185,-394.5 274,-394.5 274,-375.5 185,-375.5"/>
<text text-anchor="middle" x="229.5" y="-382.5" font-family="Helvetica,sans-Serif" font-size="10.00">js_array_every</text>
</a>
</g>
</g>
<!-- Node621&#45;&gt;Node30 -->
<g id="edge42" class="edge">
<title>Node621&#45;&gt;Node30</title>
<path fill="none" stroke="midnightblue" d="M362.12,-385C334.69,-385 300.77,-385 274.23,-385"/>
<polygon fill="midnightblue" stroke="midnightblue" points="362.28,-388.5 372.28,-385 362.28,-381.5 362.28,-388.5"/>
</g>
<!-- Node32 -->
<g id="node26" class="node">
<title>Node32</title>
<g id="a_node26"><a xlink:href="quickjs_8c.html#a5e32da9a43002cb96dcbd62a1a340144" target="_top" xlink:title=" ">
<polygon fill="none" stroke="black" points="187.5,-337.5 187.5,-356.5 271.5,-356.5 271.5,-337.5 187.5,-337.5"/>
<text text-anchor="middle" x="229.5" y="-344.5" font-family="Helvetica,sans-Serif" font-size="10.00">js_array_from</text>
</a>
</g>
</g>
<!-- Node621&#45;&gt;Node32 -->
<g id="edge43" class="edge">
<title>Node621&#45;&gt;Node32</title>
<path fill="none" stroke="midnightblue" d="M362.19,-374.72C333.86,-368.76 298.58,-361.33 271.67,-355.67"/>
<polygon fill="midnightblue" stroke="midnightblue" points="361.77,-378.21 372.28,-376.85 363.21,-371.36 361.77,-378.21"/>
</g>
<!-- Node49 -->
<g id="node27" class="node">
<title>Node49</title>
<g id="a_node27"><a xlink:href="quickjs_8c.html#a54596af885c45bf0281d53985349e9ef" target="_top" xlink:title=" ">
<polygon fill="none" stroke="red" points="167,-299.5 167,-318.5 292,-318.5 292,-299.5 167,-299.5"/>
<text text-anchor="middle" x="229.5" y="-306.5" font-family="Helvetica,sans-Serif" font-size="10.00">js_array_from_iterator</text>
</a>
</g>
</g>
<!-- Node621&#45;&gt;Node49 -->
<g id="edge44" class="edge">
<title>Node621&#45;&gt;Node49</title>
<path fill="none" stroke="midnightblue" d="M388.04,-369.96C367.72,-357.23 336.88,-339.3 308,-328 298.58,-324.32 288.23,-321.19 278.25,-318.6"/>
<polygon fill="midnightblue" stroke="midnightblue" points="386.28,-372.99 396.59,-375.41 390.03,-367.09 386.28,-372.99"/>
</g>
<!-- Node114 -->
<g id="node28" class="node">
<title>Node114</title>
<g id="a_node28"><a xlink:href="quickjs_8c.html#aed64f4c93145310216f62d7548856b8d" target="_top" xlink:title=" ">
<polygon fill="none" stroke="black" points="194,-261.5 194,-280.5 265,-280.5 265,-261.5 194,-261.5"/>
<text text-anchor="middle" x="229.5" y="-268.5" font-family="Helvetica,sans-Serif" font-size="10.00">js_array_of</text>
</a>
</g>
</g>
<!-- Node621&#45;&gt;Node114 -->
<g id="edge45" class="edge">
<title>Node621&#45;&gt;Node114</title>
<path fill="none" stroke="midnightblue" d="M396.96,-367.48C378.75,-345.94 344.9,-309.81 308,-290 294.82,-282.92 278.97,-278.44 265.04,-275.61"/>
<polygon fill="midnightblue" stroke="midnightblue" points="394.29,-369.74 403.36,-375.21 399.68,-365.27 394.29,-369.74"/>
</g>
<!-- Node259 -->
<g id="node29" class="node">
<title>Node259</title>
<g id="a_node29"><a xlink:href="quickjs_8c.html#a72f4829a5b32f5445fe3f2a59efeb8ea" target="_top" xlink:title=" ">
<polygon fill="none" stroke="black" points="190.5,-451.5 190.5,-470.5 268.5,-470.5 268.5,-451.5 190.5,-451.5"/>
<text text-anchor="middle" x="229.5" y="-458.5" font-family="Helvetica,sans-Serif" font-size="10.00">js_build_rest</text>
</a>
</g>
</g>
<!-- Node621&#45;&gt;Node259 -->
<g id="edge46" class="edge">
<title>Node621&#45;&gt;Node259</title>
<path fill="none" stroke="midnightblue" d="M366.64,-398.06C358.85,-401.14 350.99,-404.78 344,-409 325.42,-420.21 327.14,-431.76 308,-442 295.91,-448.47 281.58,-452.78 268.55,-455.63"/>
<polygon fill="midnightblue" stroke="midnightblue" points="367.9,-401.33 376.07,-394.58 365.47,-394.76 367.9,-401.33"/>
</g>
<!-- Node259&#45;&gt;Node7 -->
<g id="edge47" class="edge">
<title>Node259&#45;&gt;Node7</title>
<path fill="none" stroke="midnightblue" d="M180.28,-453.59C170.2,-450.85 159.93,-447.11 151,-442 111.84,-419.6 78.42,-375.81 64.91,-356.52"/>
<polygon fill="midnightblue" stroke="midnightblue" points="179.7,-457.05 190.24,-456.01 181.35,-450.25 179.7,-457.05"/>
</g>
<!-- Node624&#45;&gt;Node69 -->
<g id="edge51" class="edge">
<title>Node624&#45;&gt;Node69</title>
<path fill="none" stroke="midnightblue" d="M333.67,-618.14C323.88,-618.79 313.87,-619.46 304.13,-620.1"/>
<polygon fill="midnightblue" stroke="midnightblue" points="334.04,-621.62 343.79,-617.47 333.58,-614.64 334.04,-621.62"/>
</g>
<!-- Node624&#45;&gt;Node166 -->
<g id="edge52" class="edge">
<title>Node624&#45;&gt;Node166</title>
<path fill="none" stroke="midnightblue" d="M350.24,-627.32C348.04,-628.74 345.95,-630.29 344,-632 313.74,-658.48 337.94,-688.16 308,-715 300.97,-721.3 292.32,-725.95 283.36,-729.37"/>
<polygon fill="midnightblue" stroke="midnightblue" points="352.02,-630.34 359.17,-622.53 348.7,-624.18 352.02,-630.34"/>
</g>
<!-- Node624&#45;&gt;Node131 -->
<g id="edge50" class="edge">
<title>Node624&#45;&gt;Node131</title>
<path fill="none" stroke="midnightblue" d="M365.62,-625.32C358.36,-627.45 350.95,-629.72 344,-632 245.44,-664.38 130.44,-709.9 81.95,-729.46"/>
<polygon fill="midnightblue" stroke="midnightblue" points="366.73,-628.65 375.37,-622.52 364.79,-621.92 366.73,-628.65"/>
</g>
<!-- Node624&#45;&gt;Node225 -->
<g id="edge53" class="edge">
<title>Node624&#45;&gt;Node225</title>
<path fill="none" stroke="midnightblue" d="M387.62,-598.12C367.25,-585.7 336.57,-568.26 308,-557 297.66,-552.93 286.21,-549.44 275.36,-546.58"/>
<polygon fill="midnightblue" stroke="midnightblue" points="385.86,-601.15 396.21,-603.44 389.55,-595.2 385.86,-601.15"/>
</g>
</g>
</svg>
