<?xml version="1.0" encoding="UTF-8" standalone="no"?>
<!DOCTYPE svg PUBLIC "-//W3C//DTD SVG 1.1//EN"
 "http://www.w3.org/Graphics/SVG/1.1/DTD/svg11.dtd">
<!-- Generated by graphviz version 2.43.0 (0)
 -->
<!-- Title: js_std_gc Pages: 1 -->
<!--zoomable 389 -->
<svg id="main" version="1.1" xmlns="http://www.w3.org/2000/svg" xmlns:xlink="http://www.w3.org/1999/xlink" xml:space="preserve" onload="init(evt)">
<style type="text/css"><![CDATA[
.edge:hover path { stroke: red; }
.edge:hover polygon { stroke: red; fill: red; }
]]></style>
<script type="text/javascript"><![CDATA[
var edges = document.getElementsByTagName('g');
if (edges && edges.length) {
  for (var i=0;i<edges.length;i++) {
    if (edges[i].id.substr(0,4)=='edge') {
      edges[i].setAttribute('class','edge');
    }
  }
}
]]></script>
        <defs>
                <circle id="rim" cx="0" cy="0" r="7"/>
                <circle id="rim2" cx="0" cy="0" r="3.5"/>
                <g id="zoomPlus">
                        <use xlink:href="#rim" fill="#404040">
                                <set attributeName="fill" to="#808080" begin="zoomplus.mouseover" end="zoomplus.mouseout"/>
                        </use>
                        <path d="M-4,0h8M0,-4v8" fill="none" stroke="white" stroke-width="1.5" pointer-events="none"/>
                </g>
                <g id="zoomMin">
                        <use xlink:href="#rim" fill="#404040">
                                <set attributeName="fill" to="#808080" begin="zoomminus.mouseover" end="zoomminus.mouseout"/>
                        </use>
                        <path d="M-4,0h8" fill="none" stroke="white" stroke-width="1.5" pointer-events="none"/>
                </g>
                <g id="dirArrow">
                        <path fill="none" stroke="white" stroke-width="1.5" d="M0,-3.0v7 M-2.5,-0.5L0,-3.0L2.5,-0.5"/>
                </g>
               <g id="resetDef">
                       <use xlink:href="#rim2" fill="#404040">
                               <set attributeName="fill" to="#808080" begin="reset.mouseover" end="reset.mouseout"/>
                       </use>
               </g>
        </defs>

<script type="text/javascript">
var viewWidth = 591;
var viewHeight = 389;
var sectionId = 'dynsection-22';
</script>
<script xlink:href="svgpan.js"/>
<svg id="graph" class="graph">
<g id="viewport">
<title>js_std_gc</title>
<!-- Node1 -->
<g id="node1" class="node">
<title>Node1</title>
<g id="a_node1"><a xlink:title=" ">
<polygon fill="#bfbfbf" stroke="black" points="0,-201.27 0,-220.27 62,-220.27 62,-201.27 0,-201.27"/>
<text text-anchor="middle" x="31" y="-208.27" font-family="Helvetica,sans-Serif" font-size="10.00">js_std_gc</text>
</a>
</g>
</g>
<!-- Node2 -->
<g id="node2" class="node">
<title>Node2</title>
<g id="a_node2"><a xlink:href="quickjs_8c.html#af1866c7f8a91153f11602a2b521d9399" target="_top" xlink:title=" ">
<polygon fill="none" stroke="black" points="98,-220.27 98,-239.27 187,-239.27 187,-220.27 98,-220.27"/>
<text text-anchor="middle" x="142.5" y="-227.27" font-family="Helvetica,sans-Serif" font-size="10.00">JS_GetRuntime</text>
</a>
</g>
</g>
<!-- Node1&#45;&gt;Node2 -->
<g id="edge1" class="edge">
<title>Node1&#45;&gt;Node2</title>
<path fill="none" stroke="midnightblue" d="M62.21,-216.02C70.21,-217.4 79.1,-218.95 87.94,-220.48"/>
<polygon fill="midnightblue" stroke="midnightblue" points="87.41,-223.94 97.86,-222.2 88.61,-217.04 87.41,-223.94"/>
</g>
<!-- Node3 -->
<g id="node3" class="node">
<title>Node3</title>
<g id="a_node3"><a xlink:href="quickjs_8c.html#aeeea589ee4cec4bbc3145210f4cf6e42" target="_top" xlink:title=" ">
<polygon fill="none" stroke="black" points="110.5,-182.27 110.5,-201.27 174.5,-201.27 174.5,-182.27 110.5,-182.27"/>
<text text-anchor="middle" x="142.5" y="-189.27" font-family="Helvetica,sans-Serif" font-size="10.00">JS_RunGC</text>
</a>
</g>
</g>
<!-- Node1&#45;&gt;Node3 -->
<g id="edge2" class="edge">
<title>Node1&#45;&gt;Node3</title>
<path fill="none" stroke="midnightblue" d="M62.21,-205.53C74,-203.49 87.7,-201.11 100.37,-198.91"/>
<polygon fill="midnightblue" stroke="midnightblue" points="100.99,-202.36 110.24,-197.2 99.79,-195.46 100.99,-202.36"/>
</g>
<!-- Node4 -->
<g id="node4" class="node">
<title>Node4</title>
<g id="a_node4"><a xlink:href="quickjs_8c.html#ae09ca4f159971d3c1f1dafc8682ba04b" target="_top" xlink:title=" ">
<polygon fill="none" stroke="black" points="235.5,-277.27 235.5,-296.27 299.5,-296.27 299.5,-277.27 235.5,-277.27"/>
<text text-anchor="middle" x="267.5" y="-284.27" font-family="Helvetica,sans-Serif" font-size="10.00">gc_decref</text>
</a>
</g>
</g>
<!-- Node3&#45;&gt;Node4 -->
<g id="edge3" class="edge">
<title>Node3&#45;&gt;Node4</title>
<path fill="none" stroke="midnightblue" d="M169.59,-201.39C175.52,-204.06 181.65,-207.21 187,-210.77 212.18,-227.53 236.63,-252.65 251.62,-269.36"/>
<polygon fill="midnightblue" stroke="midnightblue" points="249.32,-272.05 258.55,-277.25 254.58,-267.43 249.32,-272.05"/>
</g>
<!-- Node18 -->
<g id="node10" class="node">
<title>Node18</title>
<g id="a_node10"><a xlink:href="quickjs_8c.html#af7c53b26778d6b7e155fab5349a4585e" target="_top" xlink:title=" ">
<polygon fill="none" stroke="black" points="223,-106.27 223,-125.27 312,-125.27 312,-106.27 223,-106.27"/>
<text text-anchor="middle" x="267.5" y="-113.27" font-family="Helvetica,sans-Serif" font-size="10.00">gc_free_cycles</text>
</a>
</g>
</g>
<!-- Node3&#45;&gt;Node18 -->
<g id="edge11" class="edge">
<title>Node3&#45;&gt;Node18</title>
<path fill="none" stroke="midnightblue" d="M159.08,-182.15C180.06,-169.19 217.6,-145.99 242.28,-130.74"/>
<polygon fill="midnightblue" stroke="midnightblue" points="244.38,-133.55 251.05,-125.32 240.7,-127.6 244.38,-133.55"/>
</g>
<!-- Node52 -->
<g id="node13" class="node">
<title>Node52</title>
<g id="a_node13"><a xlink:href="quickjs_8c.html#adee2db09b659dd2c1a1a3c408658a753" target="_top" xlink:title=" ">
<polygon fill="none" stroke="black" points="239.5,-182.27 239.5,-201.27 295.5,-201.27 295.5,-182.27 239.5,-182.27"/>
<text text-anchor="middle" x="267.5" y="-189.27" font-family="Helvetica,sans-Serif" font-size="10.00">gc_scan</text>
</a>
</g>
</g>
<!-- Node3&#45;&gt;Node52 -->
<g id="edge17" class="edge">
<title>Node3&#45;&gt;Node52</title>
<path fill="none" stroke="midnightblue" d="M174.54,-191.77C191.04,-191.77 211.46,-191.77 228.86,-191.77"/>
<polygon fill="midnightblue" stroke="midnightblue" points="229.24,-195.27 239.24,-191.77 229.24,-188.27 229.24,-195.27"/>
</g>
<!-- Node5 -->
<g id="node5" class="node">
<title>Node5</title>
<g id="a_node5"><a xlink:href="quickjs_8c.html#a765db9341ea8163ebb7b0b61c7127752" target="_top" xlink:title=" ">
<polygon fill="none" stroke="black" points="363.5,-334.27 363.5,-353.27 455.5,-353.27 455.5,-334.27 363.5,-334.27"/>
<text text-anchor="middle" x="409.5" y="-341.27" font-family="Helvetica,sans-Serif" font-size="10.00">gc_decref_child</text>
</a>
</g>
</g>
<!-- Node4&#45;&gt;Node5 -->
<g id="edge4" class="edge">
<title>Node4&#45;&gt;Node5</title>
<path fill="none" stroke="midnightblue" d="M291.42,-296.4C307.28,-303.03 328.89,-312.02 348,-319.77 356.6,-323.26 365.9,-326.98 374.58,-330.43"/>
<polygon fill="midnightblue" stroke="midnightblue" points="373.45,-333.74 384.03,-334.17 376.02,-327.23 373.45,-333.74"/>
</g>
<!-- Node6 -->
<g id="node6" class="node">
<title>Node6</title>
<g id="a_node6"><a xlink:href="list_8h.html#a3a5d0733570b2fafc18f4c71a2968ea5" target="_top" xlink:title=" ">
<polygon fill="none" stroke="red" points="507,-201.27 507,-220.27 583,-220.27 583,-201.27 507,-201.27"/>
<text text-anchor="middle" x="545" y="-208.27" font-family="Helvetica,sans-Serif" font-size="10.00">list_add_tail</text>
</a>
</g>
</g>
<!-- Node4&#45;&gt;Node6 -->
<g id="edge8" class="edge">
<title>Node4&#45;&gt;Node6</title>
<path fill="none" stroke="midnightblue" d="M299.59,-295.52C341.42,-305.44 416.81,-316.64 471,-286.77 497.24,-272.31 484.89,-250 507,-229.77 508.48,-228.42 510.07,-227.14 511.74,-225.93"/>
<polygon fill="midnightblue" stroke="midnightblue" points="513.85,-228.73 520.47,-220.46 510.13,-222.8 513.85,-228.73"/>
</g>
<!-- Node8 -->
<g id="node7" class="node">
<title>Node8</title>
<g id="a_node7"><a xlink:href="list_8h.html#ab60d5d18869ebeb5d6ab694289576fa7" target="_top" xlink:title=" ">
<polygon fill="none" stroke="black" points="519,-239.27 519,-258.27 571,-258.27 571,-239.27 519,-239.27"/>
<text text-anchor="middle" x="545" y="-246.27" font-family="Helvetica,sans-Serif" font-size="10.00">list_del</text>
</a>
</g>
</g>
<!-- Node4&#45;&gt;Node8 -->
<g id="edge9" class="edge">
<title>Node4&#45;&gt;Node8</title>
<path fill="none" stroke="midnightblue" d="M274.73,-296.36C286.56,-313.57 314.15,-349.2 348,-362.77 398.74,-383.12 423.04,-389.01 471,-362.77 507.79,-342.65 528.75,-295.2 538.09,-268.29"/>
<polygon fill="midnightblue" stroke="midnightblue" points="541.52,-269.06 541.29,-258.46 534.86,-266.89 541.52,-269.06"/>
</g>
<!-- Node9 -->
<g id="node8" class="node">
<title>Node9</title>
<g id="a_node8"><a xlink:href="list_8h.html#a663527a4d757540b2177bef0db1ce5c0" target="_top" xlink:title=" ">
<polygon fill="none" stroke="black" points="368.5,-220.27 368.5,-239.27 450.5,-239.27 450.5,-220.27 368.5,-220.27"/>
<text text-anchor="middle" x="409.5" y="-227.27" font-family="Helvetica,sans-Serif" font-size="10.00">init_list_head</text>
</a>
</g>
</g>
<!-- Node4&#45;&gt;Node9 -->
<g id="edge7" class="edge">
<title>Node4&#45;&gt;Node9</title>
<path fill="none" stroke="midnightblue" d="M286.49,-277.27C302.39,-269.09 326.36,-257.29 348,-248.77 353.58,-246.58 359.52,-244.46 365.42,-242.48"/>
<polygon fill="midnightblue" stroke="midnightblue" points="366.8,-245.71 375.24,-239.29 364.64,-239.05 366.8,-245.71"/>
</g>
<!-- Node10 -->
<g id="node9" class="node">
<title>Node10</title>
<g id="a_node9"><a xlink:href="quickjs_8c.html#aa863a9d565bac49a2a76d10009eabd5c" target="_top" xlink:title=" ">
<polygon fill="none" stroke="red" points="366.5,-258.27 366.5,-277.27 452.5,-277.27 452.5,-258.27 366.5,-258.27"/>
<text text-anchor="middle" x="409.5" y="-265.27" font-family="Helvetica,sans-Serif" font-size="10.00">mark_children</text>
</a>
</g>
</g>
<!-- Node4&#45;&gt;Node10 -->
<g id="edge10" class="edge">
<title>Node4&#45;&gt;Node10</title>
<path fill="none" stroke="midnightblue" d="M299.57,-282.56C316.23,-280.3 337.21,-277.45 356.29,-274.86"/>
<polygon fill="midnightblue" stroke="midnightblue" points="356.93,-278.31 366.36,-273.49 355.99,-271.37 356.93,-278.31"/>
</g>
<!-- Node5&#45;&gt;Node6 -->
<g id="edge5" class="edge">
<title>Node5&#45;&gt;Node6</title>
<path fill="none" stroke="midnightblue" d="M448.21,-334.26C456.5,-330.78 464.68,-326.08 471,-319.77 501.51,-289.35 478,-261.63 507,-229.77 508.17,-228.49 509.45,-227.28 510.8,-226.14"/>
<polygon fill="midnightblue" stroke="midnightblue" points="512.92,-228.92 519.17,-220.37 508.95,-223.16 512.92,-228.92"/>
</g>
<!-- Node5&#45;&gt;Node8 -->
<g id="edge6" class="edge">
<title>Node5&#45;&gt;Node8</title>
<path fill="none" stroke="midnightblue" d="M441.5,-334.16C451.33,-330.42 461.99,-325.61 471,-319.77 493.91,-304.94 515.74,-282.17 529.46,-266.43"/>
<polygon fill="midnightblue" stroke="midnightblue" points="532.39,-268.4 536.2,-258.51 527.06,-263.86 532.39,-268.4"/>
</g>
<!-- Node18&#45;&gt;Node6 -->
<g id="edge15" class="edge">
<title>Node18&#45;&gt;Node6</title>
<path fill="none" stroke="midnightblue" d="M272.95,-106.13C282.96,-85.77 309.42,-38.8 348,-20.77 397.53,2.36 425.94,10.18 471,-20.77 528.12,-60.02 540.56,-150.63 543.26,-190.88"/>
<polygon fill="midnightblue" stroke="midnightblue" points="539.77,-191.22 543.8,-201.02 546.76,-190.85 539.77,-191.22"/>
</g>
<!-- Node18&#45;&gt;Node8 -->
<g id="edge16" class="edge">
<title>Node18&#45;&gt;Node8</title>
<path fill="none" stroke="midnightblue" d="M308.42,-125.38C363.59,-138.89 457.86,-162.97 471,-172.77 495.02,-190.69 484.89,-209.55 507,-229.77 508.48,-231.13 510.07,-232.41 511.74,-233.62"/>
<polygon fill="midnightblue" stroke="midnightblue" points="510.13,-236.75 520.47,-239.09 513.85,-230.81 510.13,-236.75"/>
</g>
<!-- Node18&#45;&gt;Node9 -->
<g id="edge13" class="edge">
<title>Node18&#45;&gt;Node9</title>
<path fill="none" stroke="midnightblue" d="M276.14,-125.52C294.25,-148.53 338.93,-204.71 348,-210.77 351.35,-213.01 354.99,-215 358.75,-216.77"/>
<polygon fill="midnightblue" stroke="midnightblue" points="357.71,-220.12 368.29,-220.7 360.38,-213.65 357.71,-220.12"/>
</g>
<!-- Node19 -->
<g id="node11" class="node">
<title>Node19</title>
<g id="a_node11"><a xlink:href="quickjs_8c.html#a3d1c7a8d6aa5a9ba8ea8ef2828db188a" target="_top" xlink:title=" ">
<polygon fill="none" stroke="red" points="365.5,-68.27 365.5,-87.27 453.5,-87.27 453.5,-68.27 365.5,-68.27"/>
<text text-anchor="middle" x="409.5" y="-75.27" font-family="Helvetica,sans-Serif" font-size="10.00">free_gc_object</text>
</a>
</g>
</g>
<!-- Node18&#45;&gt;Node19 -->
<g id="edge12" class="edge">
<title>Node18&#45;&gt;Node19</title>
<path fill="none" stroke="midnightblue" d="M303.83,-106.18C321.9,-101.28 344.1,-95.25 363.39,-90.02"/>
<polygon fill="midnightblue" stroke="midnightblue" points="364.45,-93.36 373.18,-87.36 362.62,-86.6 364.45,-93.36"/>
</g>
<!-- Node28 -->
<g id="node12" class="node">
<title>Node28</title>
<g id="a_node12"><a xlink:href="quickjs_8c.html#a69e19dda8a93d613203e0baa06f0ed8d" target="_top" xlink:title=" ">
<polygon fill="none" stroke="black" points="378.5,-30.27 378.5,-49.27 440.5,-49.27 440.5,-30.27 378.5,-30.27"/>
<text text-anchor="middle" x="409.5" y="-37.27" font-family="Helvetica,sans-Serif" font-size="10.00">js_free_rt</text>
</a>
</g>
</g>
<!-- Node18&#45;&gt;Node28 -->
<g id="edge14" class="edge">
<title>Node18&#45;&gt;Node28</title>
<path fill="none" stroke="midnightblue" d="M279.35,-106.25C294.02,-93.81 321.41,-72.05 348,-58.77 354.35,-55.6 361.35,-52.82 368.25,-50.44"/>
<polygon fill="midnightblue" stroke="midnightblue" points="369.78,-53.62 378.22,-47.23 367.63,-46.96 369.78,-53.62"/>
</g>
<!-- Node52&#45;&gt;Node10 -->
<g id="edge22" class="edge">
<title>Node52&#45;&gt;Node10</title>
<path fill="none" stroke="midnightblue" d="M279.35,-201.29C294.02,-213.73 321.41,-235.5 348,-248.77 352.39,-250.96 357.08,-252.97 361.83,-254.78"/>
<polygon fill="midnightblue" stroke="midnightblue" points="361.02,-258.21 371.61,-258.24 363.35,-251.61 361.02,-258.21"/>
</g>
<!-- Node53 -->
<g id="node14" class="node">
<title>Node53</title>
<g id="a_node14"><a xlink:href="quickjs_8c.html#abc20b88e7a87b45b51a6dc6ff24f9a9a" target="_top" xlink:title=" ">
<polygon fill="none" stroke="black" points="351,-106.27 351,-125.27 468,-125.27 468,-106.27 351,-106.27"/>
<text text-anchor="middle" x="409.5" y="-113.27" font-family="Helvetica,sans-Serif" font-size="10.00">gc_scan_incref_child</text>
</a>
</g>
</g>
<!-- Node52&#45;&gt;Node53 -->
<g id="edge18" class="edge">
<title>Node52&#45;&gt;Node53</title>
<path fill="none" stroke="midnightblue" d="M286.23,-182.15C310.43,-169.01 353.98,-145.37 382.04,-130.14"/>
<polygon fill="midnightblue" stroke="midnightblue" points="383.79,-133.17 390.91,-125.32 380.45,-127.02 383.79,-133.17"/>
</g>
<!-- Node54 -->
<g id="node15" class="node">
<title>Node54</title>
<g id="a_node15"><a xlink:href="quickjs_8c.html#aa76a7a61c337651e4cadfcac05db5cb6" target="_top" xlink:title=" ">
<polygon fill="none" stroke="black" points="348,-182.27 348,-201.27 471,-201.27 471,-182.27 348,-182.27"/>
<text text-anchor="middle" x="409.5" y="-189.27" font-family="Helvetica,sans-Serif" font-size="10.00">gc_scan_incref_child2</text>
</a>
</g>
</g>
<!-- Node52&#45;&gt;Node54 -->
<g id="edge21" class="edge">
<title>Node52&#45;&gt;Node54</title>
<path fill="none" stroke="midnightblue" d="M295.83,-191.77C307.92,-191.77 322.75,-191.77 337.64,-191.77"/>
<polygon fill="midnightblue" stroke="midnightblue" points="337.92,-195.27 347.92,-191.77 337.92,-188.27 337.92,-195.27"/>
</g>
<!-- Node53&#45;&gt;Node6 -->
<g id="edge19" class="edge">
<title>Node53&#45;&gt;Node6</title>
<path fill="none" stroke="midnightblue" d="M441.5,-125.39C451.33,-129.13 461.99,-133.94 471,-139.77 493.91,-154.61 515.74,-177.38 529.46,-193.11"/>
<polygon fill="midnightblue" stroke="midnightblue" points="527.06,-195.69 536.2,-201.04 532.39,-191.15 527.06,-195.69"/>
</g>
<!-- Node53&#45;&gt;Node8 -->
<g id="edge20" class="edge">
<title>Node53&#45;&gt;Node8</title>
<path fill="none" stroke="midnightblue" d="M448.21,-125.29C456.5,-128.77 464.68,-133.47 471,-139.77 501.51,-170.19 478,-197.91 507,-229.77 508.17,-231.06 509.45,-232.27 510.8,-233.41"/>
<polygon fill="midnightblue" stroke="midnightblue" points="508.95,-236.39 519.17,-239.18 512.92,-230.62 508.95,-236.39"/>
</g>
</g>
</svg>
        <g id="navigator" transform="translate(0 0)" fill="#404254">
                <rect fill="#f2f5e9" fill-opacity="0.5" stroke="#606060" stroke-width=".5" x="0" y="0" width="60" height="60"/>
                <use id="zoomplus" xlink:href="#zoomPlus" x="17" y="9" onmousedown="handleZoom(evt,'in')"/>
                <use id="zoomminus" xlink:href="#zoomMin" x="42" y="9" onmousedown="handleZoom(evt,'out')"/>
                <use id="reset" xlink:href="#resetDef" x="30" y="36" onmousedown="handleReset()"/>
                <g id="arrowUp" xlink:href="#dirArrow" transform="translate(30 24)" onmousedown="handlePan(0,-1)">
                  <use xlink:href="#rim" fill="#404040">
                        <set attributeName="fill" to="#808080" begin="arrowUp.mouseover" end="arrowUp.mouseout"/>
                  </use>
                  <path fill="none" stroke="white" stroke-width="1.5" d="M0,-3.0v7 M-2.5,-0.5L0,-3.0L2.5,-0.5"/>
                </g>
                <g id="arrowRight" xlink:href="#dirArrow" transform="rotate(90) translate(36 -43)" onmousedown="handlePan(1,0)">
                  <use xlink:href="#rim" fill="#404040">
                        <set attributeName="fill" to="#808080" begin="arrowRight.mouseover" end="arrowRight.mouseout"/>
                  </use>
                  <path fill="none" stroke="white" stroke-width="1.5" d="M0,-3.0v7 M-2.5,-0.5L0,-3.0L2.5,-0.5"/>
                </g>
                <g id="arrowDown" xlink:href="#dirArrow" transform="rotate(180) translate(-30 -48)" onmousedown="handlePan(0,1)">
                  <use xlink:href="#rim" fill="#404040">
                        <set attributeName="fill" to="#808080" begin="arrowDown.mouseover" end="arrowDown.mouseout"/>
                  </use>
                  <path fill="none" stroke="white" stroke-width="1.5" d="M0,-3.0v7 M-2.5,-0.5L0,-3.0L2.5,-0.5"/>
                </g>
                <g id="arrowLeft" xlink:href="#dirArrow" transform="rotate(270) translate(-36 17)" onmousedown="handlePan(-1,0)">
                  <use xlink:href="#rim" fill="#404040">
                        <set attributeName="fill" to="#808080" begin="arrowLeft.mouseover" end="arrowLeft.mouseout"/>
                  </use>
                  <path fill="none" stroke="white" stroke-width="1.5" d="M0,-3.0v7 M-2.5,-0.5L0,-3.0L2.5,-0.5"/>
                </g>
        </g>
        <svg viewBox="0 0 15 15" width="100%" height="30px" preserveAspectRatio="xMaxYMin meet">
         <g id="arrow_out" transform="scale(0.3 0.3)">
          <a xlink:href="quickjs-libc_8c_a9d1d581951398643c2791e45231f87db_cgraph_org.svg" target="_base">
           <rect id="button" ry="5" rx="5" y="6" x="6" height="38" width="38"
                fill="#f2f5e9" fill-opacity="0.5" stroke="#606060" stroke-width="1.0"/>
           <path id="arrow"
             d="M 11.500037,31.436501 C 11.940474,20.09759 22.043105,11.32322 32.158766,21.979434 L 37.068811,17.246167 C 37.068811,17.246167 37.088388,32 37.088388,32 L 22.160133,31.978069 C 22.160133,31.978069 26.997745,27.140456 26.997745,27.140456 C 18.528582,18.264221 13.291696,25.230495 11.500037,31.436501 z"
             style="fill:#404040;"/>
          </a>
         </g>
        </svg>
</svg>
