<?xml version="1.0" encoding="UTF-8" standalone="no"?>
<!DOCTYPE svg PUBLIC "-//W3C//DTD SVG 1.1//EN"
 "http://www.w3.org/Graphics/SVG/1.1/DTD/svg11.dtd">
<!-- Generated by graphviz version 2.43.0 (0)
 -->
<!-- Title: js_async_generator_await Pages: 1 -->
<!--zoomable 1054 -->
<svg id="main" version="1.1" xmlns="http://www.w3.org/2000/svg" xmlns:xlink="http://www.w3.org/1999/xlink" xml:space="preserve" onload="init(evt)">
<style type="text/css"><![CDATA[
.edge:hover path { stroke: red; }
.edge:hover polygon { stroke: red; fill: red; }
]]></style>
<script type="text/javascript"><![CDATA[
var edges = document.getElementsByTagName('g');
if (edges && edges.length) {
  for (var i=0;i<edges.length;i++) {
    if (edges[i].id.substr(0,4)=='edge') {
      edges[i].setAttribute('class','edge');
    }
  }
}
]]></script>
        <defs>
                <circle id="rim" cx="0" cy="0" r="7"/>
                <circle id="rim2" cx="0" cy="0" r="3.5"/>
                <g id="zoomPlus">
                        <use xlink:href="#rim" fill="#404040">
                                <set attributeName="fill" to="#808080" begin="zoomplus.mouseover" end="zoomplus.mouseout"/>
                        </use>
                        <path d="M-4,0h8M0,-4v8" fill="none" stroke="white" stroke-width="1.5" pointer-events="none"/>
                </g>
                <g id="zoomMin">
                        <use xlink:href="#rim" fill="#404040">
                                <set attributeName="fill" to="#808080" begin="zoomminus.mouseover" end="zoomminus.mouseout"/>
                        </use>
                        <path d="M-4,0h8" fill="none" stroke="white" stroke-width="1.5" pointer-events="none"/>
                </g>
                <g id="dirArrow">
                        <path fill="none" stroke="white" stroke-width="1.5" d="M0,-3.0v7 M-2.5,-0.5L0,-3.0L2.5,-0.5"/>
                </g>
               <g id="resetDef">
                       <use xlink:href="#rim2" fill="#404040">
                               <set attributeName="fill" to="#808080" begin="reset.mouseover" end="reset.mouseout"/>
                       </use>
               </g>
        </defs>

<script type="text/javascript">
var viewWidth = 868;
var viewHeight = 1054;
var sectionId = 'dynsection-886';
</script>
<script xlink:href="svgpan.js"/>
<svg id="graph" class="graph">
<g id="viewport">
<title>js_async_generator_await</title>
<!-- Node1 -->
<g id="node1" class="node">
<title>Node1</title>
<g id="a_node1"><a xlink:title=" ">
<polygon fill="#bfbfbf" stroke="black" points="0,-831 0,-861 111,-861 111,-831 0,-831"/>
<text text-anchor="start" x="8" y="-849" font-family="Helvetica,sans-Serif" font-size="10.00">js_async_generator</text>
<text text-anchor="middle" x="55.5" y="-838" font-family="Helvetica,sans-Serif" font-size="10.00">_await</text>
</a>
</g>
</g>
<!-- Node2 -->
<g id="node2" class="node">
<title>Node2</title>
<g id="a_node2"><a xlink:href="quickjs_8c.html#aa4b0672b30fbf661af60cf49cfadbe8f" target="_top" xlink:title=" ">
<polygon fill="none" stroke="black" points="147,-875 147,-905 286,-905 286,-875 147,-875"/>
<text text-anchor="start" x="155" y="-893" font-family="Helvetica,sans-Serif" font-size="10.00">js_async_generator</text>
<text text-anchor="middle" x="216.5" y="-882" font-family="Helvetica,sans-Serif" font-size="10.00">_resolve_function_create</text>
</a>
</g>
</g>
<!-- Node1&#45;&gt;Node2 -->
<g id="edge1" class="edge">
<title>Node1&#45;&gt;Node2</title>
<path fill="none" stroke="midnightblue" d="M110.77,-861.02C123.88,-864.65 138,-868.55 151.5,-872.29"/>
<polygon fill="midnightblue" stroke="midnightblue" points="150.63,-875.68 161.2,-874.97 152.5,-868.93 150.63,-875.68"/>
</g>
<!-- Node6 -->
<g id="node6" class="node">
<title>Node6</title>
<g id="a_node6"><a xlink:href="quickjs_8h.html#afaa20c47565bc704c6c85f3d77254e7d" target="_top" xlink:title=" ">
<polygon fill="none" stroke="red" points="748,-722.5 748,-741.5 827,-741.5 827,-722.5 748,-722.5"/>
<text text-anchor="middle" x="787.5" y="-729.5" font-family="Helvetica,sans-Serif" font-size="10.00">JS_FreeValue</text>
</a>
</g>
</g>
<!-- Node1&#45;&gt;Node6 -->
<g id="edge15" class="edge">
<title>Node1&#45;&gt;Node6</title>
<path fill="none" stroke="midnightblue" d="M111.14,-848.12C221.16,-850.86 476.18,-849.4 679,-789 710.39,-779.65 743.19,-760.72 764.18,-747.24"/>
<polygon fill="midnightblue" stroke="midnightblue" points="766.24,-750.07 772.68,-741.66 762.4,-744.22 766.24,-750.07"/>
</g>
<!-- Node44 -->
<g id="node7" class="node">
<title>Node44</title>
<g id="a_node7"><a xlink:href="quickjs_8h.html#ad80a83d73e9b7d872b88fbf2943aebe9" target="_top" xlink:title=" ">
<polygon fill="none" stroke="black" points="744,-855.5 744,-874.5 831,-874.5 831,-855.5 744,-855.5"/>
<text text-anchor="middle" x="787.5" y="-862.5" font-family="Helvetica,sans-Serif" font-size="10.00">JS_IsException</text>
</a>
</g>
</g>
<!-- Node1&#45;&gt;Node44 -->
<g id="edge16" class="edge">
<title>Node1&#45;&gt;Node44</title>
<path fill="none" stroke="midnightblue" d="M70.42,-861.26C86.84,-878.05 115.86,-904.09 147,-915 370.14,-993.21 448.79,-970.94 679,-917 709.95,-909.75 742.38,-892.53 763.42,-879.89"/>
<polygon fill="midnightblue" stroke="midnightblue" points="765.3,-882.85 771.98,-874.62 761.62,-876.89 765.3,-882.85"/>
</g>
<!-- Node438 -->
<g id="node12" class="node">
<title>Node438</title>
<g id="a_node12"><a xlink:href="quickjs_8c.html#a192c7bd4fc5264ccdf89e13ed5bc0dcc" target="_top" xlink:title=" ">
<polygon fill="none" stroke="black" points="343,-646.5 343,-665.5 454,-665.5 454,-646.5 343,-646.5"/>
<text text-anchor="middle" x="398.5" y="-653.5" font-family="Helvetica,sans-Serif" font-size="10.00">js_promise_resolve</text>
</a>
</g>
</g>
<!-- Node1&#45;&gt;Node438 -->
<g id="edge17" class="edge">
<title>Node1&#45;&gt;Node438</title>
<path fill="none" stroke="midnightblue" d="M83.54,-830.93C147.67,-795.2 308.31,-705.7 371.44,-670.52"/>
<polygon fill="midnightblue" stroke="midnightblue" points="373.33,-673.47 380.37,-665.55 369.93,-667.36 373.33,-673.47"/>
</g>
<!-- Node440 -->
<g id="node21" class="node">
<title>Node440</title>
<g id="a_node21"><a xlink:href="quickjs_8c.html#a944c09a3f1ce23a5760b6ed6e83e3644" target="_top" xlink:title=" ">
<polygon fill="none" stroke="black" points="152.5,-244.5 152.5,-263.5 280.5,-263.5 280.5,-244.5 152.5,-244.5"/>
<text text-anchor="middle" x="216.5" y="-251.5" font-family="Helvetica,sans-Serif" font-size="10.00">perform_promise_then</text>
</a>
</g>
</g>
<!-- Node1&#45;&gt;Node440 -->
<g id="edge33" class="edge">
<title>Node1&#45;&gt;Node440</title>
<path fill="none" stroke="midnightblue" d="M60.59,-830.77C82.47,-749.29 185.65,-365.13 210.23,-273.61"/>
<polygon fill="midnightblue" stroke="midnightblue" points="213.67,-274.29 212.89,-263.73 206.91,-272.48 213.67,-274.29"/>
</g>
<!-- Node3 -->
<g id="node3" class="node">
<title>Node3</title>
<g id="a_node3"><a xlink:href="quickjs_8c.html#aa24b27761647485ad206339ca8e707ee" target="_top" xlink:title=" ">
<polygon fill="none" stroke="black" points="343,-375 343,-405 454,-405 454,-375 343,-375"/>
<text text-anchor="start" x="351" y="-393" font-family="Helvetica,sans-Serif" font-size="10.00">js_async_generator</text>
<text text-anchor="middle" x="398.5" y="-382" font-family="Helvetica,sans-Serif" font-size="10.00">_resolve_function</text>
</a>
</g>
</g>
<!-- Node2&#45;&gt;Node3 -->
<g id="edge2" class="edge">
<title>Node2&#45;&gt;Node3</title>
<path fill="none" stroke="midnightblue" d="M222.99,-874.76C248.6,-803.6 356.56,-503.73 388.54,-414.9"/>
<polygon fill="midnightblue" stroke="midnightblue" points="391.87,-415.96 391.97,-405.36 385.29,-413.59 391.87,-415.96"/>
</g>
<!-- Node2&#45;&gt;Node6 -->
<g id="edge6" class="edge">
<title>Node2&#45;&gt;Node6</title>
<path fill="none" stroke="midnightblue" d="M286.3,-892.04C397.79,-894.28 612.2,-893.81 679,-860 726.71,-835.85 761.44,-780.15 777.15,-750.83"/>
<polygon fill="midnightblue" stroke="midnightblue" points="780.41,-752.14 781.9,-741.65 774.19,-748.92 780.41,-752.14"/>
</g>
<!-- Node2&#45;&gt;Node44 -->
<g id="edge7" class="edge">
<title>Node2&#45;&gt;Node44</title>
<path fill="none" stroke="midnightblue" d="M286.38,-898.26C376.99,-907.53 540.91,-918.72 679,-898 704.5,-894.17 732.3,-885.51 753.25,-878.02"/>
<polygon fill="midnightblue" stroke="midnightblue" points="754.46,-881.3 762.64,-874.58 752.05,-874.73 754.46,-881.3"/>
</g>
<!-- Node45 -->
<g id="node8" class="node">
<title>Node45</title>
<g id="a_node8"><a xlink:href="quickjs_8c.html#ac048b0ff95f3f0cb7c189e87f74df753" target="_top" xlink:title=" ">
<polygon fill="none" stroke="black" points="533,-988.5 533,-1007.5 657,-1007.5 657,-988.5 533,-988.5"/>
<text text-anchor="middle" x="595" y="-995.5" font-family="Helvetica,sans-Serif" font-size="10.00">JS_NewCFunctionData</text>
</a>
</g>
</g>
<!-- Node2&#45;&gt;Node45 -->
<g id="edge8" class="edge">
<title>Node2&#45;&gt;Node45</title>
<path fill="none" stroke="midnightblue" d="M247.53,-905.05C268.1,-914.9 296.22,-927.47 322,-936 390.83,-958.76 472.16,-976.1 527.84,-986.58"/>
<polygon fill="midnightblue" stroke="midnightblue" points="527.46,-990.07 537.93,-988.46 528.74,-983.19 527.46,-990.07"/>
</g>
<!-- Node4 -->
<g id="node4" class="node">
<title>Node4</title>
<g id="a_node4"><a xlink:href="quickjs_8h.html#a775522f2d084fc8fa0fcb33f390006b4" target="_top" xlink:title=" ">
<polygon fill="none" stroke="black" points="749,-342.5 749,-361.5 826,-361.5 826,-342.5 749,-342.5"/>
<text text-anchor="middle" x="787.5" y="-349.5" font-family="Helvetica,sans-Serif" font-size="10.00">JS_DupValue</text>
</a>
</g>
</g>
<!-- Node3&#45;&gt;Node4 -->
<g id="edge3" class="edge">
<title>Node3&#45;&gt;Node4</title>
<path fill="none" stroke="midnightblue" d="M454.07,-379.58C472.13,-376.43 492.38,-373.22 511,-371 590.61,-361.5 683.77,-356.3 738.8,-353.84"/>
<polygon fill="midnightblue" stroke="midnightblue" points="739.12,-357.33 748.96,-353.4 738.81,-350.34 739.12,-357.33"/>
</g>
<!-- Node5 -->
<g id="node5" class="node">
<title>Node5</title>
<g id="a_node5"><a xlink:href="quickjs_8c.html#a3ae8a83da71ef07d6e858d172d9c5a81" target="_top" xlink:title=" ">
<polygon fill="none" stroke="black" points="564.5,-380.5 564.5,-399.5 625.5,-399.5 625.5,-380.5 564.5,-380.5"/>
<text text-anchor="middle" x="595" y="-387.5" font-family="Helvetica,sans-Serif" font-size="10.00">JS_Throw</text>
</a>
</g>
</g>
<!-- Node3&#45;&gt;Node5 -->
<g id="edge4" class="edge">
<title>Node3&#45;&gt;Node5</title>
<path fill="none" stroke="midnightblue" d="M454.2,-390C486.02,-390 525.41,-390 554.27,-390"/>
<polygon fill="midnightblue" stroke="midnightblue" points="554.39,-393.5 564.39,-390 554.39,-386.5 554.39,-393.5"/>
</g>
<!-- Node5&#45;&gt;Node6 -->
<g id="edge5" class="edge">
<title>Node5&#45;&gt;Node6</title>
<path fill="none" stroke="midnightblue" d="M625.79,-389.85C643.27,-391.31 664.66,-395.98 679,-409 702.63,-430.46 762.92,-645.66 781.18,-712.38"/>
<polygon fill="midnightblue" stroke="midnightblue" points="777.9,-713.68 783.91,-722.4 784.66,-711.84 777.9,-713.68"/>
</g>
<!-- Node45&#45;&gt;Node4 -->
<g id="edge9" class="edge">
<title>Node45&#45;&gt;Node4</title>
<path fill="none" stroke="midnightblue" d="M600.97,-988.31C615.69,-959.1 659.3,-868.99 679,-789 715.55,-640.59 659.01,-589.22 715,-447 727.13,-416.19 752.14,-386.68 769.12,-368.95"/>
<polygon fill="midnightblue" stroke="midnightblue" points="771.76,-371.25 776.28,-361.67 766.77,-366.34 771.76,-371.25"/>
</g>
<!-- Node45&#45;&gt;Node6 -->
<g id="edge10" class="edge">
<title>Node45&#45;&gt;Node6</title>
<path fill="none" stroke="midnightblue" d="M604.64,-988.38C620.19,-970.9 653.62,-932.54 679,-898 698.97,-870.82 751.59,-787.61 775,-750.36"/>
<polygon fill="midnightblue" stroke="midnightblue" points="778.17,-751.88 780.53,-741.55 772.25,-748.16 778.17,-751.88"/>
</g>
<!-- Node45&#45;&gt;Node44 -->
<g id="edge12" class="edge">
<title>Node45&#45;&gt;Node44</title>
<path fill="none" stroke="midnightblue" d="M644.69,-988.4C656.42,-984.9 668.56,-980.21 679,-974 689.8,-967.57 743.36,-911.1 770.57,-882.07"/>
<polygon fill="midnightblue" stroke="midnightblue" points="773.22,-884.37 777.49,-874.68 768.1,-879.59 773.22,-884.37"/>
</g>
<!-- Node46 -->
<g id="node9" class="node">
<title>Node46</title>
<g id="a_node9"><a xlink:href="quickjs_8c.html#a5d963b1e3acf275363fedd4bfdd8a57f" target="_top" xlink:title=" ">
<polygon fill="none" stroke="red" points="715,-988.5 715,-1007.5 860,-1007.5 860,-988.5 715,-988.5"/>
<text text-anchor="middle" x="787.5" y="-995.5" font-family="Helvetica,sans-Serif" font-size="10.00">js_function_set_properties</text>
</a>
</g>
</g>
<!-- Node45&#45;&gt;Node46 -->
<g id="edge11" class="edge">
<title>Node45&#45;&gt;Node46</title>
<path fill="none" stroke="midnightblue" d="M657.06,-998C672.15,-998 688.56,-998 704.46,-998"/>
<polygon fill="midnightblue" stroke="midnightblue" points="704.82,-1001.5 714.82,-998 704.82,-994.5 704.82,-1001.5"/>
</g>
<!-- Node232 -->
<g id="node10" class="node">
<title>Node232</title>
<g id="a_node10"><a xlink:href="quickjs_8c.html#a73738c650f11459db0d7af3dcdf8316b" target="_top" xlink:title=" ">
<polygon fill="none" stroke="red" points="719.5,-950.5 719.5,-969.5 855.5,-969.5 855.5,-950.5 719.5,-950.5"/>
<text text-anchor="middle" x="787.5" y="-957.5" font-family="Helvetica,sans-Serif" font-size="10.00">JS_NewObjectProtoClass</text>
</a>
</g>
</g>
<!-- Node45&#45;&gt;Node232 -->
<g id="edge13" class="edge">
<title>Node45&#45;&gt;Node232</title>
<path fill="none" stroke="midnightblue" d="M644.07,-988.41C669.78,-983.28 701.61,-976.93 728.66,-971.54"/>
<polygon fill="midnightblue" stroke="midnightblue" points="729.65,-974.91 738.77,-969.52 728.28,-968.04 729.65,-974.91"/>
</g>
<!-- Node239 -->
<g id="node11" class="node">
<title>Node239</title>
<g id="a_node11"><a xlink:href="quickjs_8c.html#a0ddf716409e51648f0d59e7521150d19" target="_top" xlink:title=" ">
<polygon fill="none" stroke="black" points="745.5,-1026.5 745.5,-1045.5 829.5,-1045.5 829.5,-1026.5 745.5,-1026.5"/>
<text text-anchor="middle" x="787.5" y="-1033.5" font-family="Helvetica,sans-Serif" font-size="10.00">JS_SetOpaque</text>
</a>
</g>
</g>
<!-- Node45&#45;&gt;Node239 -->
<g id="edge14" class="edge">
<title>Node45&#45;&gt;Node239</title>
<path fill="none" stroke="midnightblue" d="M644.07,-1007.59C671.85,-1013.13 706.8,-1020.1 735.12,-1025.75"/>
<polygon fill="midnightblue" stroke="midnightblue" points="734.74,-1029.24 745.23,-1027.77 736.11,-1022.38 734.74,-1029.24"/>
</g>
<!-- Node438&#45;&gt;Node4 -->
<g id="edge19" class="edge">
<title>Node438&#45;&gt;Node4</title>
<path fill="none" stroke="midnightblue" d="M404.53,-646.46C418.1,-621.75 458.01,-555.33 511,-523 576.35,-483.13 614.01,-525.45 679,-485 691.26,-477.37 747.01,-404.48 773.03,-369.96"/>
<polygon fill="midnightblue" stroke="midnightblue" points="776.03,-371.79 779.25,-361.7 770.44,-367.59 776.03,-371.79"/>
</g>
<!-- Node438&#45;&gt;Node6 -->
<g id="edge20" class="edge">
<title>Node438&#45;&gt;Node6</title>
<path fill="none" stroke="midnightblue" d="M413.52,-665.54C433.93,-678.87 473.5,-702.59 511,-713 588.04,-734.38 681.61,-735.97 737.48,-734.48"/>
<polygon fill="midnightblue" stroke="midnightblue" points="737.92,-737.97 747.8,-734.16 737.7,-730.97 737.92,-737.97"/>
</g>
<!-- Node438&#45;&gt;Node44 -->
<g id="edge23" class="edge">
<title>Node438&#45;&gt;Node44</title>
<path fill="none" stroke="midnightblue" d="M404.83,-665.76C418.8,-690.41 459.03,-755.61 511,-789 580.11,-833.41 675.05,-852.16 733.52,-859.87"/>
<polygon fill="midnightblue" stroke="midnightblue" points="733.28,-863.37 743.64,-861.15 734.15,-856.43 733.28,-863.37"/>
</g>
<!-- Node248 -->
<g id="node13" class="node">
<title>Node248</title>
<g id="a_node13"><a xlink:href="quickjs_8c.html#a1a4c02a29525d5cb2085dd8bca3af350" target="_top" xlink:title=" ">
<polygon fill="none" stroke="red" points="570,-418.5 570,-437.5 620,-437.5 620,-418.5 570,-418.5"/>
<text text-anchor="middle" x="595" y="-425.5" font-family="Helvetica,sans-Serif" font-size="10.00">JS_Call</text>
</a>
</g>
</g>
<!-- Node438&#45;&gt;Node248 -->
<g id="edge18" class="edge">
<title>Node438&#45;&gt;Node248</title>
<path fill="none" stroke="midnightblue" d="M401.65,-646.24C409.57,-612.65 440.44,-500.96 511,-447 524.87,-436.39 543.61,-431.53 559.78,-429.37"/>
<polygon fill="midnightblue" stroke="midnightblue" points="560.37,-432.82 569.95,-428.3 559.64,-425.86 560.37,-432.82"/>
</g>
<!-- Node439 -->
<g id="node14" class="node">
<title>Node439</title>
<g id="a_node14"><a xlink:href="quickjs_8c.html#a5644dc5dba0d760dcc06cc1a79e256cc" target="_top" xlink:title=" ">
<polygon fill="none" stroke="black" points="552,-684.5 552,-703.5 638,-703.5 638,-684.5 552,-684.5"/>
<text text-anchor="middle" x="595" y="-691.5" font-family="Helvetica,sans-Serif" font-size="10.00">JS_GetOpaque</text>
</a>
</g>
</g>
<!-- Node438&#45;&gt;Node439 -->
<g id="edge21" class="edge">
<title>Node438&#45;&gt;Node439</title>
<path fill="none" stroke="midnightblue" d="M448.33,-665.54C476.82,-671.11 512.75,-678.13 541.79,-683.8"/>
<polygon fill="midnightblue" stroke="midnightblue" points="541.27,-687.26 551.76,-685.75 542.61,-680.39 541.27,-687.26"/>
</g>
<!-- Node128 -->
<g id="node15" class="node">
<title>Node128</title>
<g id="a_node15"><a xlink:href="quickjs_8h.html#a89b7c8686c7eee70b86be722ee4730ad" target="_top" xlink:title=" ">
<polygon fill="none" stroke="red" points="550.5,-646.5 550.5,-665.5 639.5,-665.5 639.5,-646.5 550.5,-646.5"/>
<text text-anchor="middle" x="595" y="-653.5" font-family="Helvetica,sans-Serif" font-size="10.00">JS_GetProperty</text>
</a>
</g>
</g>
<!-- Node438&#45;&gt;Node128 -->
<g id="edge22" class="edge">
<title>Node438&#45;&gt;Node128</title>
<path fill="none" stroke="midnightblue" d="M454.2,-656C481.08,-656 513.36,-656 540.13,-656"/>
<polygon fill="midnightblue" stroke="midnightblue" points="540.47,-659.5 550.47,-656 540.47,-652.5 540.47,-659.5"/>
</g>
<!-- Node249 -->
<g id="node16" class="node">
<title>Node249</title>
<g id="a_node16"><a xlink:href="quickjs_8h.html#a3d68fe446df2d9c7d1900b16371bff5b" target="_top" xlink:title=" ">
<polygon fill="none" stroke="black" points="559.5,-608.5 559.5,-627.5 630.5,-627.5 630.5,-608.5 559.5,-608.5"/>
<text text-anchor="middle" x="595" y="-615.5" font-family="Helvetica,sans-Serif" font-size="10.00">JS_IsObject</text>
</a>
</g>
</g>
<!-- Node438&#45;&gt;Node249 -->
<g id="edge24" class="edge">
<title>Node438&#45;&gt;Node249</title>
<path fill="none" stroke="midnightblue" d="M448.33,-646.46C479.37,-640.4 519.24,-632.61 549.42,-626.71"/>
<polygon fill="midnightblue" stroke="midnightblue" points="550.11,-630.14 559.26,-624.79 548.77,-623.27 550.11,-630.14"/>
</g>
<!-- Node366 -->
<g id="node17" class="node">
<title>Node366</title>
<g id="a_node17"><a xlink:href="quickjs_8c.html#a28c0ccdd26317bc38d0a693f1dffe4dc" target="_top" xlink:title=" ">
<polygon fill="none" stroke="red" points="520.5,-532.5 520.5,-551.5 669.5,-551.5 669.5,-532.5 520.5,-532.5"/>
<text text-anchor="middle" x="595" y="-539.5" font-family="Helvetica,sans-Serif" font-size="10.00">js_new_promise_capability</text>
</a>
</g>
</g>
<!-- Node438&#45;&gt;Node366 -->
<g id="edge25" class="edge">
<title>Node438&#45;&gt;Node366</title>
<path fill="none" stroke="midnightblue" d="M415.75,-646.48C449.71,-626.57 528.43,-580.43 568.93,-556.69"/>
<polygon fill="midnightblue" stroke="midnightblue" points="570.8,-559.65 577.66,-551.58 567.26,-553.61 570.8,-559.65"/>
</g>
<!-- Node417 -->
<g id="node19" class="node">
<title>Node417</title>
<g id="a_node19"><a xlink:href="quickjs_8c.html#a24be89a128d1cd7c0908604815b2b854" target="_top" xlink:title=" ">
<polygon fill="none" stroke="red" points="550.5,-456.5 550.5,-475.5 639.5,-475.5 639.5,-456.5 550.5,-456.5"/>
<text text-anchor="middle" x="595" y="-463.5" font-family="Helvetica,sans-Serif" font-size="10.00">js_same_value</text>
</a>
</g>
</g>
<!-- Node438&#45;&gt;Node417 -->
<g id="edge30" class="edge">
<title>Node438&#45;&gt;Node417</title>
<path fill="none" stroke="midnightblue" d="M403.14,-646.42C414.45,-617.95 451.83,-533.18 511,-490 519.81,-483.57 530.32,-478.85 540.84,-475.4"/>
<polygon fill="midnightblue" stroke="midnightblue" points="541.86,-478.75 550.47,-472.57 539.88,-472.03 541.86,-478.75"/>
</g>
<!-- Node205 -->
<g id="node20" class="node">
<title>Node205</title>
<g id="a_node20"><a xlink:href="quickjs_8c.html#a726b00d108e0a0f4d958c36c2e426a64" target="_top" xlink:title=" ">
<polygon fill="none" stroke="black" points="511,-760.5 511,-779.5 679,-779.5 679,-760.5 511,-760.5"/>
<text text-anchor="middle" x="595" y="-767.5" font-family="Helvetica,sans-Serif" font-size="10.00">JS_ThrowTypeErrorNotAnObject</text>
</a>
</g>
</g>
<!-- Node438&#45;&gt;Node205 -->
<g id="edge32" class="edge">
<title>Node438&#45;&gt;Node205</title>
<path fill="none" stroke="midnightblue" d="M408.7,-665.64C426.67,-683.93 468.42,-723.82 511,-746 519.78,-750.57 529.55,-754.39 539.21,-757.52"/>
<polygon fill="midnightblue" stroke="midnightblue" points="538.22,-760.88 548.8,-760.44 540.26,-754.18 538.22,-760.88"/>
</g>
<!-- Node366&#45;&gt;Node4 -->
<g id="edge26" class="edge">
<title>Node366&#45;&gt;Node4</title>
<path fill="none" stroke="midnightblue" d="M652.69,-532.4C662.16,-528.97 671.37,-524.31 679,-518 706.25,-495.44 696.29,-477.03 715,-447 732.72,-418.57 756.71,-388 771.9,-369.44"/>
<polygon fill="midnightblue" stroke="midnightblue" points="774.72,-371.51 778.39,-361.58 769.32,-367.06 774.72,-371.51"/>
</g>
<!-- Node366&#45;&gt;Node6 -->
<g id="edge27" class="edge">
<title>Node366&#45;&gt;Node6</title>
<path fill="none" stroke="midnightblue" d="M649.99,-551.54C660.26,-554.98 670.45,-559.65 679,-566 731.71,-605.15 765.65,-678.43 779.46,-713.01"/>
<polygon fill="midnightblue" stroke="midnightblue" points="776.22,-714.35 783.09,-722.42 782.75,-711.83 776.22,-714.35"/>
</g>
<!-- Node366&#45;&gt;Node44 -->
<g id="edge28" class="edge">
<title>Node366&#45;&gt;Node44</title>
<path fill="none" stroke="midnightblue" d="M658.03,-551.52C665.91,-555 673.23,-559.69 679,-566 735.53,-627.81 684.23,-673.09 715,-751 729.49,-787.69 755.98,-825.58 772.33,-847.13"/>
<polygon fill="midnightblue" stroke="midnightblue" points="769.77,-849.53 778.65,-855.31 775.3,-845.25 769.77,-849.53"/>
</g>
<!-- Node151 -->
<g id="node18" class="node">
<title>Node151</title>
<g id="a_node18"><a xlink:href="quickjs_8h.html#a4e407128a9605afb77523e49e9a627fd" target="_top" xlink:title=" ">
<polygon fill="none" stroke="black" points="743,-456.5 743,-475.5 832,-475.5 832,-456.5 743,-456.5"/>
<text text-anchor="middle" x="787.5" y="-463.5" font-family="Helvetica,sans-Serif" font-size="10.00">JS_IsUndefined</text>
</a>
</g>
</g>
<!-- Node366&#45;&gt;Node151 -->
<g id="edge29" class="edge">
<title>Node366&#45;&gt;Node151</title>
<path fill="none" stroke="midnightblue" d="M634.04,-532.45C648.32,-528.49 664.57,-523.53 679,-518 707.37,-507.13 738.49,-491.66 759.91,-480.42"/>
<polygon fill="midnightblue" stroke="midnightblue" points="761.83,-483.37 769.03,-475.59 758.55,-477.18 761.83,-483.37"/>
</g>
<!-- Node417&#45;&gt;Node4 -->
<g id="edge31" class="edge">
<title>Node417&#45;&gt;Node4</title>
<path fill="none" stroke="midnightblue" d="M639.65,-460.25C652.78,-457.41 666.9,-453.21 679,-447 717.34,-427.31 752.96,-390.84 772.02,-369.26"/>
<polygon fill="midnightblue" stroke="midnightblue" points="774.82,-371.39 778.71,-361.53 769.52,-366.81 774.82,-371.39"/>
</g>
<!-- Node440&#45;&gt;Node4 -->
<g id="edge34" class="edge">
<title>Node440&#45;&gt;Node4</title>
<path fill="none" stroke="midnightblue" d="M230.32,-244.45C287.32,-203.25 521.78,-47.07 679,-143 748.53,-185.43 774.99,-288.77 783.27,-332.23"/>
<polygon fill="midnightblue" stroke="midnightblue" points="779.84,-332.91 785.04,-342.14 786.73,-331.68 779.84,-332.91"/>
</g>
<!-- Node363 -->
<g id="node22" class="node">
<title>Node363</title>
<g id="a_node22"><a xlink:href="quickjs_8c.html#a39d815a00b3ec1aed21699396fb43869" target="_top" xlink:title=" ">
<polygon fill="none" stroke="red" points="354.5,-76.5 354.5,-95.5 442.5,-95.5 442.5,-76.5 354.5,-76.5"/>
<text text-anchor="middle" x="398.5" y="-83.5" font-family="Helvetica,sans-Serif" font-size="10.00">JS_EnqueueJob</text>
</a>
</g>
</g>
<!-- Node440&#45;&gt;Node363 -->
<g id="edge35" class="edge">
<title>Node440&#45;&gt;Node363</title>
<path fill="none" stroke="midnightblue" d="M221.82,-244.31C233.83,-218.48 270.16,-147.43 322,-110 328.81,-105.08 336.67,-101.14 344.69,-98"/>
<polygon fill="midnightblue" stroke="midnightblue" points="345.87,-101.29 354.13,-94.66 343.54,-94.69 345.87,-101.29"/>
</g>
<!-- Node250 -->
<g id="node23" class="node">
<title>Node250</title>
<g id="a_node23"><a xlink:href="quickjs_8c.html#a1ca9cdb1fa2ffc3e6506e92b200e490f" target="_top" xlink:title=" ">
<polygon fill="none" stroke="black" points="358.5,-320.5 358.5,-339.5 438.5,-339.5 438.5,-320.5 358.5,-320.5"/>
<text text-anchor="middle" x="398.5" y="-327.5" font-family="Helvetica,sans-Serif" font-size="10.00">JS_IsFunction</text>
</a>
</g>
</g>
<!-- Node440&#45;&gt;Node250 -->
<g id="edge37" class="edge">
<title>Node440&#45;&gt;Node250</title>
<path fill="none" stroke="midnightblue" d="M232.15,-263.55C251.85,-276.03 288.32,-297.82 322,-311 330.32,-314.26 339.38,-317.1 348.24,-319.52"/>
<polygon fill="midnightblue" stroke="midnightblue" points="347.55,-322.96 358.11,-322.08 349.31,-316.18 347.55,-322.96"/>
</g>
<!-- Node376 -->
<g id="node24" class="node">
<title>Node376</title>
<g id="a_node24"><a xlink:href="quickjs_8h.html#a93abffa925714e249a6aa2f4ae7900f6" target="_top" xlink:title=" ">
<polygon fill="none" stroke="black" points="361.5,-282.5 361.5,-301.5 435.5,-301.5 435.5,-282.5 361.5,-282.5"/>
<text text-anchor="middle" x="398.5" y="-289.5" font-family="Helvetica,sans-Serif" font-size="10.00">JS_NewBool</text>
</a>
</g>
</g>
<!-- Node440&#45;&gt;Node376 -->
<g id="edge38" class="edge">
<title>Node440&#45;&gt;Node376</title>
<path fill="none" stroke="midnightblue" d="M262.92,-263.59C289.98,-269.3 324.23,-276.53 351.41,-282.27"/>
<polygon fill="midnightblue" stroke="midnightblue" points="350.94,-285.75 361.45,-284.39 352.38,-278.9 350.94,-285.75"/>
</g>
<!-- Node441 -->
<g id="node25" class="node">
<title>Node441</title>
<g id="a_node25"><a xlink:href="quickjs_8c.html#a24b69b04d5b252c4ddb9d85b659b9129" target="_top" xlink:title=" ">
<polygon fill="none" stroke="black" points="322,-38.5 322,-57.5 475,-57.5 475,-38.5 322,-38.5"/>
<text text-anchor="middle" x="398.5" y="-45.5" font-family="Helvetica,sans-Serif" font-size="10.00">promise_reaction_data_free</text>
</a>
</g>
</g>
<!-- Node440&#45;&gt;Node441 -->
<g id="edge39" class="edge">
<title>Node440&#45;&gt;Node441</title>
<path fill="none" stroke="midnightblue" d="M219.91,-244.46C228.25,-213.56 258.83,-115.41 322,-67 324.44,-65.13 327.05,-63.44 329.77,-61.92"/>
<polygon fill="midnightblue" stroke="midnightblue" points="331.28,-65.07 338.78,-57.59 328.25,-58.76 331.28,-65.07"/>
</g>
<!-- Node442 -->
<g id="node28" class="node">
<title>Node442</title>
<g id="a_node28"><a xlink:href="quickjs_8c.html#aa69ea100389cd387befe76998dc9fffa" target="_top" xlink:title=" ">
<polygon fill="none" stroke="black" points="337.5,-244.5 337.5,-263.5 459.5,-263.5 459.5,-244.5 337.5,-244.5"/>
<text text-anchor="middle" x="398.5" y="-251.5" font-family="Helvetica,sans-Serif" font-size="10.00">promise_reaction_job</text>
</a>
</g>
</g>
<!-- Node440&#45;&gt;Node442 -->
<g id="edge42" class="edge">
<title>Node440&#45;&gt;Node442</title>
<path fill="none" stroke="midnightblue" d="M280.71,-254C295.69,-254 311.76,-254 327.04,-254"/>
<polygon fill="midnightblue" stroke="midnightblue" points="327.47,-257.5 337.47,-254 327.47,-250.5 327.47,-257.5"/>
</g>
<!-- Node363&#45;&gt;Node4 -->
<g id="edge36" class="edge">
<title>Node363&#45;&gt;Node4</title>
<path fill="none" stroke="midnightblue" d="M442.62,-77.19C501.76,-67.67 608.7,-59.9 679,-110 755.09,-164.23 778.12,-284.88 784.38,-332.31"/>
<polygon fill="midnightblue" stroke="midnightblue" points="780.93,-332.96 785.61,-342.47 787.88,-332.12 780.93,-332.96"/>
</g>
<!-- Node19 -->
<g id="node26" class="node">
<title>Node19</title>
<g id="a_node26"><a xlink:href="quickjs_8c.html#a69e19dda8a93d613203e0baa06f0ed8d" target="_top" xlink:title=" ">
<polygon fill="none" stroke="black" points="564,-0.5 564,-19.5 626,-19.5 626,-0.5 564,-0.5"/>
<text text-anchor="middle" x="595" y="-7.5" font-family="Helvetica,sans-Serif" font-size="10.00">js_free_rt</text>
</a>
</g>
</g>
<!-- Node441&#45;&gt;Node19 -->
<g id="edge40" class="edge">
<title>Node441&#45;&gt;Node19</title>
<path fill="none" stroke="midnightblue" d="M448.33,-38.46C480.98,-32.08 523.42,-23.79 554.06,-17.8"/>
<polygon fill="midnightblue" stroke="midnightblue" points="554.82,-21.22 563.96,-15.87 553.48,-14.35 554.82,-21.22"/>
</g>
<!-- Node24 -->
<g id="node27" class="node">
<title>Node24</title>
<g id="a_node27"><a xlink:href="quickjs_8h.html#ab8db583fa5e7c2b1935854a42859daed" target="_top" xlink:title=" ">
<polygon fill="none" stroke="red" points="549.5,-38.5 549.5,-57.5 640.5,-57.5 640.5,-38.5 549.5,-38.5"/>
<text text-anchor="middle" x="595" y="-45.5" font-family="Helvetica,sans-Serif" font-size="10.00">JS_FreeValueRT</text>
</a>
</g>
</g>
<!-- Node441&#45;&gt;Node24 -->
<g id="edge41" class="edge">
<title>Node441&#45;&gt;Node24</title>
<path fill="none" stroke="midnightblue" d="M475.26,-48C496.6,-48 519.4,-48 539.26,-48"/>
<polygon fill="midnightblue" stroke="midnightblue" points="539.35,-51.5 549.35,-48 539.35,-44.5 539.35,-51.5"/>
</g>
<!-- Node442&#45;&gt;Node4 -->
<g id="edge44" class="edge">
<title>Node442&#45;&gt;Node4</title>
<path fill="none" stroke="midnightblue" d="M421.07,-244.4C469.7,-224.27 590.53,-182.77 679,-224 727.68,-246.69 762.16,-303.47 777.53,-333.2"/>
<polygon fill="midnightblue" stroke="midnightblue" points="774.4,-334.77 782,-342.15 780.66,-331.64 774.4,-334.77"/>
</g>
<!-- Node442&#45;&gt;Node5 -->
<g id="edge49" class="edge">
<title>Node442&#45;&gt;Node5</title>
<path fill="none" stroke="midnightblue" d="M457.18,-263.64C463.51,-266.09 469.61,-269.16 475,-273 498.8,-289.95 490.99,-306.71 511,-328 528.41,-346.53 551.9,-363.5 569.45,-374.98"/>
<polygon fill="midnightblue" stroke="midnightblue" points="567.71,-378.02 578.02,-380.47 571.48,-372.13 567.71,-378.02"/>
</g>
<!-- Node442&#45;&gt;Node6 -->
<g id="edge45" class="edge">
<title>Node442&#45;&gt;Node6</title>
<path fill="none" stroke="midnightblue" d="M446.94,-263.61C456.4,-266.17 466.15,-269.28 475,-273 492.29,-280.26 494.43,-286.23 511,-295 583.44,-333.33 625.1,-309.26 679,-371 684.89,-377.75 759.54,-637.72 780.85,-712.23"/>
<polygon fill="midnightblue" stroke="midnightblue" points="777.58,-713.53 783.7,-722.18 784.31,-711.6 777.58,-713.53"/>
</g>
<!-- Node442&#45;&gt;Node44 -->
<g id="edge47" class="edge">
<title>Node442&#45;&gt;Node44</title>
<path fill="none" stroke="midnightblue" d="M459.52,-261.62C465.36,-264.44 470.7,-268.14 475,-273 560.48,-369.61 424.37,-465.42 511,-561 562.41,-617.72 624.6,-545.14 679,-599 728.34,-647.84 688.2,-686.96 715,-751 730.23,-787.39 756.48,-825.38 772.58,-847.02"/>
<polygon fill="midnightblue" stroke="midnightblue" points="769.98,-849.38 778.8,-855.24 775.56,-845.16 769.98,-849.38"/>
</g>
<!-- Node442&#45;&gt;Node248 -->
<g id="edge43" class="edge">
<title>Node442&#45;&gt;Node248</title>
<path fill="none" stroke="midnightblue" d="M459.63,-262.56C465.31,-265.22 470.58,-268.63 475,-273 519.48,-316.94 466.05,-365.54 511,-409 523.85,-421.42 543.08,-426.35 559.79,-428.09"/>
<polygon fill="midnightblue" stroke="midnightblue" points="559.57,-431.58 569.79,-428.8 560.06,-424.6 559.57,-431.58"/>
</g>
<!-- Node442&#45;&gt;Node151 -->
<g id="edge48" class="edge">
<title>Node442&#45;&gt;Node151</title>
<path fill="none" stroke="midnightblue" d="M459.51,-246.7C531.16,-239.32 645.52,-232.19 679,-257 721.69,-288.64 690.68,-323.76 715,-371 730.19,-400.49 754.48,-430.39 770.47,-448.57"/>
<polygon fill="midnightblue" stroke="midnightblue" points="768.29,-451.38 777.57,-456.5 773.5,-446.71 768.29,-451.38"/>
</g>
<!-- Node342 -->
<g id="node29" class="node">
<title>Node342</title>
<g id="a_node29"><a xlink:href="quickjs_8c.html#a8551eaac7ef616910807cebdc515760d" target="_top" xlink:title=" ">
<polygon fill="none" stroke="black" points="547,-266.5 547,-285.5 643,-285.5 643,-266.5 547,-266.5"/>
<text text-anchor="middle" x="595" y="-273.5" font-family="Helvetica,sans-Serif" font-size="10.00">JS_GetException</text>
</a>
</g>
</g>
<!-- Node442&#45;&gt;Node342 -->
<g id="edge46" class="edge">
<title>Node442&#45;&gt;Node342</title>
<path fill="none" stroke="midnightblue" d="M459.71,-260.81C484.21,-263.58 512.4,-266.77 536.61,-269.51"/>
<polygon fill="midnightblue" stroke="midnightblue" points="536.39,-273.01 546.72,-270.65 537.18,-266.05 536.39,-273.01"/>
</g>
<!-- Node443 -->
<g id="node30" class="node">
<title>Node443</title>
<g id="a_node30"><a xlink:href="quickjs_8c.html#a525bb5bdbab2566313d9bcd876838d9d" target="_top" xlink:title=" ">
<polygon fill="none" stroke="red" points="563.5,-152.5 563.5,-171.5 626.5,-171.5 626.5,-152.5 563.5,-152.5"/>
<text text-anchor="middle" x="595" y="-159.5" font-family="Helvetica,sans-Serif" font-size="10.00">JS_ToBool</text>
</a>
</g>
</g>
<!-- Node442&#45;&gt;Node443 -->
<g id="edge50" class="edge">
<title>Node442&#45;&gt;Node443</title>
<path fill="none" stroke="midnightblue" d="M412.6,-244.41C432.81,-229.98 473.23,-202.62 511,-186 524.48,-180.07 539.83,-175.16 553.63,-171.36"/>
<polygon fill="midnightblue" stroke="midnightblue" points="554.58,-174.72 563.35,-168.78 552.79,-167.96 554.58,-174.72"/>
</g>
<!-- Node443&#45;&gt;Node4 -->
<g id="edge51" class="edge">
<title>Node443&#45;&gt;Node4</title>
<path fill="none" stroke="midnightblue" d="M626.73,-165.56C643.48,-168.74 663.83,-174.73 679,-186 731.71,-225.15 765.65,-298.43 779.46,-333.01"/>
<polygon fill="midnightblue" stroke="midnightblue" points="776.22,-334.35 783.09,-342.42 782.75,-331.83 776.22,-334.35"/>
</g>
</g>
</svg>
        <g id="navigator" transform="translate(0 0)" fill="#404254">
                <rect fill="#f2f5e9" fill-opacity="0.5" stroke="#606060" stroke-width=".5" x="0" y="0" width="60" height="60"/>
                <use id="zoomplus" xlink:href="#zoomPlus" x="17" y="9" onmousedown="handleZoom(evt,'in')"/>
                <use id="zoomminus" xlink:href="#zoomMin" x="42" y="9" onmousedown="handleZoom(evt,'out')"/>
                <use id="reset" xlink:href="#resetDef" x="30" y="36" onmousedown="handleReset()"/>
                <g id="arrowUp" xlink:href="#dirArrow" transform="translate(30 24)" onmousedown="handlePan(0,-1)">
                  <use xlink:href="#rim" fill="#404040">
                        <set attributeName="fill" to="#808080" begin="arrowUp.mouseover" end="arrowUp.mouseout"/>
                  </use>
                  <path fill="none" stroke="white" stroke-width="1.5" d="M0,-3.0v7 M-2.5,-0.5L0,-3.0L2.5,-0.5"/>
                </g>
                <g id="arrowRight" xlink:href="#dirArrow" transform="rotate(90) translate(36 -43)" onmousedown="handlePan(1,0)">
                  <use xlink:href="#rim" fill="#404040">
                        <set attributeName="fill" to="#808080" begin="arrowRight.mouseover" end="arrowRight.mouseout"/>
                  </use>
                  <path fill="none" stroke="white" stroke-width="1.5" d="M0,-3.0v7 M-2.5,-0.5L0,-3.0L2.5,-0.5"/>
                </g>
                <g id="arrowDown" xlink:href="#dirArrow" transform="rotate(180) translate(-30 -48)" onmousedown="handlePan(0,1)">
                  <use xlink:href="#rim" fill="#404040">
                        <set attributeName="fill" to="#808080" begin="arrowDown.mouseover" end="arrowDown.mouseout"/>
                  </use>
                  <path fill="none" stroke="white" stroke-width="1.5" d="M0,-3.0v7 M-2.5,-0.5L0,-3.0L2.5,-0.5"/>
                </g>
                <g id="arrowLeft" xlink:href="#dirArrow" transform="rotate(270) translate(-36 17)" onmousedown="handlePan(-1,0)">
                  <use xlink:href="#rim" fill="#404040">
                        <set attributeName="fill" to="#808080" begin="arrowLeft.mouseover" end="arrowLeft.mouseout"/>
                  </use>
                  <path fill="none" stroke="white" stroke-width="1.5" d="M0,-3.0v7 M-2.5,-0.5L0,-3.0L2.5,-0.5"/>
                </g>
        </g>
        <svg viewBox="0 0 15 15" width="100%" height="30px" preserveAspectRatio="xMaxYMin meet">
         <g id="arrow_out" transform="scale(0.3 0.3)">
          <a xlink:href="quickjs_8c_a0950cebccf1347ea44a3c6927d3a5fa6_cgraph_org.svg" target="_base">
           <rect id="button" ry="5" rx="5" y="6" x="6" height="38" width="38"
                fill="#f2f5e9" fill-opacity="0.5" stroke="#606060" stroke-width="1.0"/>
           <path id="arrow"
             d="M 11.500037,31.436501 C 11.940474,20.09759 22.043105,11.32322 32.158766,21.979434 L 37.068811,17.246167 C 37.068811,17.246167 37.088388,32 37.088388,32 L 22.160133,31.978069 C 22.160133,31.978069 26.997745,27.140456 26.997745,27.140456 C 18.528582,18.264221 13.291696,25.230495 11.500037,31.436501 z"
             style="fill:#404040;"/>
          </a>
         </g>
        </svg>
</svg>
