<?xml version="1.0" encoding="UTF-8" standalone="no"?>
<!DOCTYPE svg PUBLIC "-//W3C//DTD SVG 1.1//EN"
 "http://www.w3.org/Graphics/SVG/1.1/DTD/svg11.dtd">
<!-- Generated by graphviz version 2.43.0 (0)
 -->
<!-- Title: string_buffer_puts8 Pages: 1 -->
<svg width="596pt" height="151pt"
 viewBox="0.00 0.00 596.00 151.00" xmlns="http://www.w3.org/2000/svg" xmlns:xlink="http://www.w3.org/1999/xlink">
<g id="graph0" class="graph" transform="scale(1 1) rotate(0) translate(4 147)">
<title>string_buffer_puts8</title>
<!-- Node1 -->
<g id="node1" class="node">
<title>Node1</title>
<g id="a_node1"><a xlink:title=" ">
<polygon fill="#bfbfbf" stroke="black" points="478,-57.5 478,-76.5 588,-76.5 588,-57.5 478,-57.5"/>
<text text-anchor="middle" x="533" y="-64.5" font-family="Helvetica,sans-Serif" font-size="10.00">string_buffer_puts8</text>
</a>
</g>
</g>
<!-- Node2 -->
<g id="node2" class="node">
<title>Node2</title>
<g id="a_node2"><a xlink:href="quickjs_8c.html#a43064473b2e303ee40f4c1c7a87e85da" target="_top" xlink:title=" ">
<polygon fill="none" stroke="black" points="312,-95.5 312,-114.5 442,-114.5 442,-95.5 312,-95.5"/>
<text text-anchor="middle" x="377" y="-102.5" font-family="Helvetica,sans-Serif" font-size="10.00">js_function_constructor</text>
</a>
</g>
</g>
<!-- Node1&#45;&gt;Node2 -->
<g id="edge1" class="edge">
<title>Node1&#45;&gt;Node2</title>
<path fill="none" stroke="midnightblue" d="M483.21,-79.04C461.69,-84.35 436.77,-90.5 416.58,-95.48"/>
<polygon fill="midnightblue" stroke="midnightblue" points="484.27,-82.38 493.14,-76.59 482.59,-75.59 484.27,-82.38"/>
</g>
<!-- Node9 -->
<g id="node6" class="node">
<title>Node9</title>
<g id="a_node6"><a xlink:href="quickjs_8c.html#a82cb999c219dbe6148c7df47ad6bb262" target="_top" xlink:title=" ">
<polygon fill="none" stroke="black" points="315.5,-57.5 315.5,-76.5 438.5,-76.5 438.5,-57.5 315.5,-57.5"/>
<text text-anchor="middle" x="377" y="-64.5" font-family="Helvetica,sans-Serif" font-size="10.00">js_string_CreateHTML</text>
</a>
</g>
</g>
<!-- Node1&#45;&gt;Node9 -->
<g id="edge6" class="edge">
<title>Node1&#45;&gt;Node9</title>
<path fill="none" stroke="midnightblue" d="M467.47,-67C457.91,-67 448.1,-67 438.62,-67"/>
<polygon fill="midnightblue" stroke="midnightblue" points="467.71,-70.5 477.71,-67 467.71,-63.5 467.71,-70.5"/>
</g>
<!-- Node10 -->
<g id="node7" class="node">
<title>Node10</title>
<g id="a_node7"><a xlink:href="quickjs_8c.html#ae5057ca2d025c62cc64ba12541f7925b" target="_top" xlink:title=" ">
<polygon fill="none" stroke="black" points="324.5,-19.5 324.5,-38.5 429.5,-38.5 429.5,-19.5 324.5,-19.5"/>
<text text-anchor="middle" x="377" y="-26.5" font-family="Helvetica,sans-Serif" font-size="10.00">JS_ToQuotedString</text>
</a>
</g>
</g>
<!-- Node1&#45;&gt;Node10 -->
<g id="edge7" class="edge">
<title>Node1&#45;&gt;Node10</title>
<path fill="none" stroke="midnightblue" d="M483.21,-54.96C461.69,-49.65 436.77,-43.5 416.58,-38.52"/>
<polygon fill="midnightblue" stroke="midnightblue" points="482.59,-58.41 493.14,-57.41 484.27,-51.62 482.59,-58.41"/>
</g>
<!-- Node3 -->
<g id="node3" class="node">
<title>Node3</title>
<g id="a_node3"><a xlink:href="quickjs_8c.html#a4c9489297c684663f30e517204a9ec14" target="_top" xlink:title=" ">
<polygon fill="none" stroke="black" points="127,-123.5 127,-142.5 276,-142.5 276,-123.5 127,-123.5"/>
<text text-anchor="middle" x="201.5" y="-130.5" font-family="Helvetica,sans-Serif" font-size="10.00">JS_AddIntrinsicBaseObjects</text>
</a>
</g>
</g>
<!-- Node2&#45;&gt;Node3 -->
<g id="edge2" class="edge">
<title>Node2&#45;&gt;Node3</title>
<path fill="none" stroke="midnightblue" d="M306.57,-116.21C291.62,-118.62 275.96,-121.14 261.46,-123.49"/>
<polygon fill="midnightblue" stroke="midnightblue" points="307.46,-119.61 316.78,-114.56 306.35,-112.7 307.46,-119.61"/>
</g>
<!-- Node8 -->
<g id="node5" class="node">
<title>Node8</title>
<g id="a_node5"><a xlink:href="quickjs_8c.html#a2e66fcf1bc1d19f346317f10ee590621" target="_top" xlink:title=" ">
<polygon fill="none" stroke="black" points="137.5,-85.5 137.5,-104.5 265.5,-104.5 265.5,-85.5 137.5,-85.5"/>
<text text-anchor="middle" x="201.5" y="-92.5" font-family="Helvetica,sans-Serif" font-size="10.00">JS_AddIntrinsicPromise</text>
</a>
</g>
</g>
<!-- Node2&#45;&gt;Node8 -->
<g id="edge4" class="edge">
<title>Node2&#45;&gt;Node8</title>
<path fill="none" stroke="midnightblue" d="M301.89,-100.73C289.86,-100.04 277.51,-99.32 265.77,-98.65"/>
<polygon fill="midnightblue" stroke="midnightblue" points="301.7,-104.22 311.89,-101.3 302.11,-97.24 301.7,-104.22"/>
</g>
<!-- Node4 -->
<g id="node4" class="node">
<title>Node4</title>
<g id="a_node4"><a xlink:href="quickjs_8c.html#ad8aedb643b8753b7a15f6cb2df61945e" target="_top" xlink:title=" ">
<polygon fill="none" stroke="red" points="0,-104.5 0,-123.5 91,-123.5 91,-104.5 0,-104.5"/>
<text text-anchor="middle" x="45.5" y="-111.5" font-family="Helvetica,sans-Serif" font-size="10.00">JS_NewContext</text>
</a>
</g>
</g>
<!-- Node3&#45;&gt;Node4 -->
<g id="edge3" class="edge">
<title>Node3&#45;&gt;Node4</title>
<path fill="none" stroke="midnightblue" d="M116.5,-122.64C107.87,-121.57 99.36,-120.52 91.4,-119.54"/>
<polygon fill="midnightblue" stroke="midnightblue" points="116.3,-126.14 126.66,-123.89 117.16,-119.19 116.3,-126.14"/>
</g>
<!-- Node8&#45;&gt;Node4 -->
<g id="edge5" class="edge">
<title>Node8&#45;&gt;Node4</title>
<path fill="none" stroke="midnightblue" d="M127.2,-104.04C114.96,-105.55 102.6,-107.08 91.35,-108.47"/>
<polygon fill="midnightblue" stroke="midnightblue" points="127.92,-107.48 137.42,-102.78 127.06,-100.53 127.92,-107.48"/>
</g>
<!-- Node11 -->
<g id="node8" class="node">
<title>Node11</title>
<g id="a_node8"><a xlink:href="quickjs_8c.html#ac35792540c2fe73eb3ca6c6a69593e26" target="_top" xlink:title=" ">
<polygon fill="none" stroke="black" points="151,-38.5 151,-57.5 252,-57.5 252,-38.5 151,-38.5"/>
<text text-anchor="middle" x="201.5" y="-45.5" font-family="Helvetica,sans-Serif" font-size="10.00">js_string___quote</text>
</a>
</g>
</g>
<!-- Node10&#45;&gt;Node11 -->
<g id="edge8" class="edge">
<title>Node10&#45;&gt;Node11</title>
<path fill="none" stroke="midnightblue" d="M314.27,-35.76C293.88,-37.99 271.47,-40.45 252.1,-42.57"/>
<polygon fill="midnightblue" stroke="midnightblue" points="314.85,-39.22 324.41,-34.65 314.09,-32.26 314.85,-39.22"/>
</g>
<!-- Node12 -->
<g id="node9" class="node">
<title>Node12</title>
<g id="a_node9"><a xlink:href="quickjs_8c.html#ac5732685af4e38c0c0122b2ab25908e1" target="_top" xlink:title=" ">
<polygon fill="none" stroke="black" points="138.5,-0.5 138.5,-19.5 264.5,-19.5 264.5,-0.5 138.5,-0.5"/>
<text text-anchor="middle" x="201.5" y="-7.5" font-family="Helvetica,sans-Serif" font-size="10.00">JS_ToQuotedStringFree</text>
</a>
</g>
</g>
<!-- Node10&#45;&gt;Node12 -->
<g id="edge9" class="edge">
<title>Node10&#45;&gt;Node12</title>
<path fill="none" stroke="midnightblue" d="M314.06,-22.22C297.99,-20.46 280.69,-18.56 264.61,-16.8"/>
<polygon fill="midnightblue" stroke="midnightblue" points="314.09,-25.74 324.41,-23.35 314.85,-18.78 314.09,-25.74"/>
</g>
<!-- Node13 -->
<g id="node10" class="node">
<title>Node13</title>
<g id="a_node10"><a xlink:href="quickjs_8c.html#a60d84dd116a9d7d912d08f298a4734dd" target="_top" xlink:title=" ">
<polygon fill="none" stroke="red" points="4,-0.5 4,-19.5 87,-19.5 87,-0.5 4,-0.5"/>
<text text-anchor="middle" x="45.5" y="-7.5" font-family="Helvetica,sans-Serif" font-size="10.00">js_json_to_str</text>
</a>
</g>
</g>
<!-- Node12&#45;&gt;Node13 -->
<g id="edge10" class="edge">
<title>Node12&#45;&gt;Node13</title>
<path fill="none" stroke="midnightblue" d="M128.14,-10C114.09,-10 99.84,-10 87.25,-10"/>
<polygon fill="midnightblue" stroke="midnightblue" points="128.31,-13.5 138.31,-10 128.31,-6.5 128.31,-13.5"/>
</g>
<!-- Node13&#45;&gt;Node13 -->
<g id="edge11" class="edge">
<title>Node13&#45;&gt;Node13</title>
<path fill="none" stroke="midnightblue" d="M74.62,-28.65C73.4,-33.94 63.7,-38 45.5,-38 17.77,-38 9.76,-28.57 21.46,-19.76"/>
<polygon fill="midnightblue" stroke="midnightblue" points="77.54,-26.71 69.54,-19.76 71.46,-30.18 77.54,-26.71"/>
</g>
</g>
</svg>
