<?xml version="1.0" encoding="UTF-8" standalone="no"?>
<!DOCTYPE svg PUBLIC "-//W3C//DTD SVG 1.1//EN"
 "http://www.w3.org/Graphics/SVG/1.1/DTD/svg11.dtd">
<!-- Generated by graphviz version 2.43.0 (0)
 -->
<!-- Title: js_proxy_get_own_property Pages: 1 -->
<!--zoomable 897 -->
<svg id="main" version="1.1" xmlns="http://www.w3.org/2000/svg" xmlns:xlink="http://www.w3.org/1999/xlink" xml:space="preserve" onload="init(evt)">
<style type="text/css"><![CDATA[
.edge:hover path { stroke: red; }
.edge:hover polygon { stroke: red; fill: red; }
]]></style>
<script type="text/javascript"><![CDATA[
var edges = document.getElementsByTagName('g');
if (edges && edges.length) {
  for (var i=0;i<edges.length;i++) {
    if (edges[i].id.substr(0,4)=='edge') {
      edges[i].setAttribute('class','edge');
    }
  }
}
]]></script>
        <defs>
                <circle id="rim" cx="0" cy="0" r="7"/>
                <circle id="rim2" cx="0" cy="0" r="3.5"/>
                <g id="zoomPlus">
                        <use xlink:href="#rim" fill="#404040">
                                <set attributeName="fill" to="#808080" begin="zoomplus.mouseover" end="zoomplus.mouseout"/>
                        </use>
                        <path d="M-4,0h8M0,-4v8" fill="none" stroke="white" stroke-width="1.5" pointer-events="none"/>
                </g>
                <g id="zoomMin">
                        <use xlink:href="#rim" fill="#404040">
                                <set attributeName="fill" to="#808080" begin="zoomminus.mouseover" end="zoomminus.mouseout"/>
                        </use>
                        <path d="M-4,0h8" fill="none" stroke="white" stroke-width="1.5" pointer-events="none"/>
                </g>
                <g id="dirArrow">
                        <path fill="none" stroke="white" stroke-width="1.5" d="M0,-3.0v7 M-2.5,-0.5L0,-3.0L2.5,-0.5"/>
                </g>
               <g id="resetDef">
                       <use xlink:href="#rim2" fill="#404040">
                               <set attributeName="fill" to="#808080" begin="reset.mouseover" end="reset.mouseout"/>
                       </use>
               </g>
        </defs>

<script type="text/javascript">
var viewWidth = 1095;
var viewHeight = 897;
var sectionId = 'dynsection-1674';
</script>
<script xlink:href="svgpan.js"/>
<svg id="graph" class="graph">
<g id="viewport">
<title>js_proxy_get_own_property</title>
<!-- Node1 -->
<g id="node1" class="node">
<title>Node1</title>
<g id="a_node1"><a xlink:title=" ">
<polygon fill="#bfbfbf" stroke="black" points="0,-391.96 0,-410.96 151,-410.96 151,-391.96 0,-391.96"/>
<text text-anchor="middle" x="75.5" y="-398.96" font-family="Helvetica,sans-Serif" font-size="10.00">js_proxy_get_own_property</text>
</a>
</g>
</g>
<!-- Node2 -->
<g id="node2" class="node">
<title>Node2</title>
<g id="a_node2"><a xlink:href="quickjs_8c.html#a68c7ae36cec3bf8bbf6cc0868a71cc4b" target="_top" xlink:title=" ">
<polygon fill="none" stroke="black" points="187,-869.96 187,-888.96 323,-888.96 323,-869.96 187,-869.96"/>
<text text-anchor="middle" x="255" y="-876.96" font-family="Helvetica,sans-Serif" font-size="10.00">check_define_prop_flags</text>
</a>
</g>
</g>
<!-- Node1&#45;&gt;Node2 -->
<g id="edge1" class="edge">
<title>Node1&#45;&gt;Node2</title>
<path fill="none" stroke="midnightblue" d="M77.62,-411.22C84.62,-470.84 124.19,-785.67 187,-855.46 190.48,-859.32 194.62,-862.57 199.11,-865.28"/>
<polygon fill="midnightblue" stroke="midnightblue" points="197.61,-868.45 208.11,-869.9 200.81,-862.22 197.61,-868.45"/>
</g>
<!-- Node3 -->
<g id="node3" class="node">
<title>Node3</title>
<g id="a_node3"><a xlink:href="quickjs_8c.html#a9e94551ddba8762d74eda5127445dbbd" target="_top" xlink:title=" ">
<polygon fill="none" stroke="black" points="359,-648.96 359,-667.96 467,-667.96 467,-648.96 359,-648.96"/>
<text text-anchor="middle" x="413" y="-655.96" font-family="Helvetica,sans-Serif" font-size="10.00">get_proxy_method</text>
</a>
</g>
</g>
<!-- Node1&#45;&gt;Node3 -->
<g id="edge2" class="edge">
<title>Node1&#45;&gt;Node3</title>
<path fill="none" stroke="midnightblue" d="M80.46,-411.17C92.39,-439.25 130.65,-521.53 187,-567.46 237.57,-608.68 309.27,-633.33 358.05,-646.37"/>
<polygon fill="midnightblue" stroke="midnightblue" points="357.23,-649.78 367.79,-648.91 358.99,-643 357.23,-649.78"/>
</g>
<!-- Node6 -->
<g id="node6" class="node">
<title>Node6</title>
<g id="a_node6"><a xlink:href="quickjs_8h.html#ad80a83d73e9b7d872b88fbf2943aebe9" target="_top" xlink:title=" ">
<polygon fill="none" stroke="black" points="543.5,-591.96 543.5,-610.96 630.5,-610.96 630.5,-591.96 543.5,-591.96"/>
<text text-anchor="middle" x="587" y="-598.96" font-family="Helvetica,sans-Serif" font-size="10.00">JS_IsException</text>
</a>
</g>
</g>
<!-- Node1&#45;&gt;Node6 -->
<g id="edge47" class="edge">
<title>Node1&#45;&gt;Node6</title>
<path fill="none" stroke="midnightblue" d="M100.73,-410.98C183.63,-443.51 456.04,-550.45 552.1,-588.16"/>
<polygon fill="midnightblue" stroke="midnightblue" points="551.03,-591.5 561.62,-591.89 553.59,-584.98 551.03,-591.5"/>
</g>
<!-- Node11 -->
<g id="node10" class="node">
<title>Node11</title>
<g id="a_node10"><a xlink:href="quickjs_8c.html#afa67965c1017685fc6783776d6d0d4d7" target="_top" xlink:title=" ">
<polygon fill="none" stroke="black" points="539.5,-831.96 539.5,-850.96 634.5,-850.96 634.5,-831.96 539.5,-831.96"/>
<text text-anchor="middle" x="587" y="-838.96" font-family="Helvetica,sans-Serif" font-size="10.00">JS_AtomToValue</text>
</a>
</g>
</g>
<!-- Node1&#45;&gt;Node11 -->
<g id="edge9" class="edge">
<title>Node1&#45;&gt;Node11</title>
<path fill="none" stroke="midnightblue" d="M77.54,-411.03C83.98,-468.07 120.19,-762.82 187,-817.46 237.84,-859.05 431.66,-852.26 529.21,-845.89"/>
<polygon fill="midnightblue" stroke="midnightblue" points="529.45,-849.39 539.2,-845.22 528.98,-842.4 529.45,-849.39"/>
</g>
<!-- Node39 -->
<g id="node15" class="node">
<title>Node39</title>
<g id="a_node15"><a xlink:href="quickjs_8c.html#a75f6ee5e4235a7dc99889f3d2eb2c147" target="_top" xlink:title=" ">
<polygon fill="none" stroke="black" points="219.5,-401.96 219.5,-420.96 290.5,-420.96 290.5,-401.96 219.5,-401.96"/>
<text text-anchor="middle" x="255" y="-408.96" font-family="Helvetica,sans-Serif" font-size="10.00">JS_CallFree</text>
</a>
</g>
</g>
<!-- Node1&#45;&gt;Node39 -->
<g id="edge14" class="edge">
<title>Node1&#45;&gt;Node39</title>
<path fill="none" stroke="midnightblue" d="M151,-405.66C170.83,-406.78 191.63,-407.95 209.31,-408.95"/>
<polygon fill="midnightblue" stroke="midnightblue" points="209.14,-412.44 219.32,-409.51 209.54,-405.45 209.14,-412.44"/>
</g>
<!-- Node87 -->
<g id="node17" class="node">
<title>Node87</title>
<g id="a_node17"><a xlink:href="quickjs_8h.html#afaa20c47565bc704c6c85f3d77254e7d" target="_top" xlink:title=" ">
<polygon fill="none" stroke="red" points="742,-249.96 742,-268.96 821,-268.96 821,-249.96 742,-249.96"/>
<text text-anchor="middle" x="781.5" y="-256.96" font-family="Helvetica,sans-Serif" font-size="10.00">JS_FreeValue</text>
</a>
</g>
</g>
<!-- Node1&#45;&gt;Node87 -->
<g id="edge45" class="edge">
<title>Node1&#45;&gt;Node87</title>
<path fill="none" stroke="midnightblue" d="M78.01,-391.68C86.32,-339.38 128.15,-93.64 187,-50.46 252.9,-2.12 503.37,38.24 671,-64.46 736.51,-104.6 766.16,-199.18 776.26,-240.07"/>
<polygon fill="midnightblue" stroke="midnightblue" points="772.87,-240.94 778.55,-249.88 779.68,-239.34 772.87,-240.94"/>
</g>
<!-- Node306 -->
<g id="node20" class="node">
<title>Node306</title>
<g id="a_node20"><a xlink:href="quickjs_8c.html#ad13892c0a0f11781b566808876658099" target="_top" xlink:title=" ">
<polygon fill="none" stroke="red" points="707,-591.96 707,-610.96 856,-610.96 856,-591.96 707,-591.96"/>
<text text-anchor="middle" x="781.5" y="-598.96" font-family="Helvetica,sans-Serif" font-size="10.00">JS_GetOwnPropertyInternal</text>
</a>
</g>
</g>
<!-- Node1&#45;&gt;Node306 -->
<g id="edge46" class="edge">
<title>Node1&#45;&gt;Node306</title>
<path fill="none" stroke="midnightblue" d="M79.26,-411.19C88.93,-443.79 124.14,-550.66 187,-614.46 298.92,-728.07 348.35,-745.51 503,-784.46 575.4,-802.7 612.82,-831.26 671,-784.46 729.15,-737.69 655.21,-674.19 707,-620.46 708.26,-619.16 709.59,-617.94 710.99,-616.8"/>
<polygon fill="midnightblue" stroke="midnightblue" points="713.21,-619.53 719.64,-611.11 709.36,-613.68 713.21,-619.53"/>
</g>
<!-- Node287 -->
<g id="node23" class="node">
<title>Node287</title>
<g id="a_node23"><a xlink:href="quickjs_8h.html#a3d68fe446df2d9c7d1900b16371bff5b" target="_top" xlink:title=" ">
<polygon fill="none" stroke="black" points="551.5,-211.96 551.5,-230.96 622.5,-230.96 622.5,-211.96 551.5,-211.96"/>
<text text-anchor="middle" x="587" y="-218.96" font-family="Helvetica,sans-Serif" font-size="10.00">JS_IsObject</text>
</a>
</g>
</g>
<!-- Node1&#45;&gt;Node287 -->
<g id="edge49" class="edge">
<title>Node1&#45;&gt;Node287</title>
<path fill="none" stroke="midnightblue" d="M87.99,-391.86C107.27,-376.21 147.87,-345.17 187,-327.46 309.08,-272.23 465.65,-241.14 541.23,-228.38"/>
<polygon fill="midnightblue" stroke="midnightblue" points="542.05,-231.79 551.34,-226.7 540.9,-224.89 542.05,-231.79"/>
</g>
<!-- Node133 -->
<g id="node24" class="node">
<title>Node133</title>
<g id="a_node24"><a xlink:href="quickjs_8h.html#a4e407128a9605afb77523e49e9a627fd" target="_top" xlink:title=" ">
<polygon fill="none" stroke="black" points="542.5,-135.96 542.5,-154.96 631.5,-154.96 631.5,-135.96 542.5,-135.96"/>
<text text-anchor="middle" x="587" y="-142.96" font-family="Helvetica,sans-Serif" font-size="10.00">JS_IsUndefined</text>
</a>
</g>
</g>
<!-- Node1&#45;&gt;Node133 -->
<g id="edge50" class="edge">
<title>Node1&#45;&gt;Node133</title>
<path fill="none" stroke="midnightblue" d="M82.46,-391.75C97.26,-368.39 138.06,-308.54 187,-275.46 296.69,-201.33 451.71,-166.94 532.43,-153.22"/>
<polygon fill="midnightblue" stroke="midnightblue" points="533.08,-156.66 542.37,-151.57 531.93,-149.76 533.08,-156.66"/>
</g>
<!-- Node318 -->
<g id="node27" class="node">
<title>Node318</title>
<g id="a_node27"><a xlink:href="quickjs_8c.html#adfe21c674d998ca6586b7f7400352dc4" target="_top" xlink:title=" ">
<polygon fill="none" stroke="black" points="374.5,-78.96 374.5,-97.96 451.5,-97.96 451.5,-78.96 374.5,-78.96"/>
<text text-anchor="middle" x="413" y="-85.96" font-family="Helvetica,sans-Serif" font-size="10.00">js_free_desc</text>
</a>
</g>
</g>
<!-- Node1&#45;&gt;Node318 -->
<g id="edge43" class="edge">
<title>Node1&#45;&gt;Node318</title>
<path fill="none" stroke="midnightblue" d="M77.25,-391.94C80.87,-352.74 100.16,-202.49 187,-131.46 213.57,-109.73 306.63,-97.75 364.41,-92.26"/>
<polygon fill="midnightblue" stroke="midnightblue" points="364.78,-95.74 374.42,-91.34 364.14,-88.77 364.78,-95.74"/>
</g>
<!-- Node221 -->
<g id="node28" class="node">
<title>Node221</title>
<g id="a_node28"><a xlink:href="quickjs_8c.html#a17c92ef7fbad6a6029f6aa933d669624" target="_top" xlink:title=" ">
<polygon fill="none" stroke="red" points="210,-59.96 210,-78.96 300,-78.96 300,-59.96 210,-59.96"/>
<text text-anchor="middle" x="255" y="-66.96" font-family="Helvetica,sans-Serif" font-size="10.00">JS_IsExtensible</text>
</a>
</g>
</g>
<!-- Node1&#45;&gt;Node221 -->
<g id="edge48" class="edge">
<title>Node1&#45;&gt;Node221</title>
<path fill="none" stroke="midnightblue" d="M77.07,-391.89C80.05,-350.26 97.4,-183.02 187,-93.46 190.93,-89.53 195.55,-86.24 200.5,-83.49"/>
<polygon fill="midnightblue" stroke="midnightblue" points="202.17,-86.57 209.67,-79.09 199.14,-80.26 202.17,-86.57"/>
</g>
<!-- Node436 -->
<g id="node29" class="node">
<title>Node436</title>
<g id="a_node29"><a xlink:href="quickjs_8c.html#a26ceb6b90296d2572803b252df73cded" target="_top" xlink:title=" ">
<polygon fill="none" stroke="black" points="369,-296.96 369,-315.96 457,-315.96 457,-296.96 369,-296.96"/>
<text text-anchor="middle" x="413" y="-303.96" font-family="Helvetica,sans-Serif" font-size="10.00">js_obj_to_desc</text>
</a>
</g>
</g>
<!-- Node1&#45;&gt;Node436 -->
<g id="edge51" class="edge">
<title>Node1&#45;&gt;Node436</title>
<path fill="none" stroke="midnightblue" d="M110.21,-391.92C171.37,-374.6 300.58,-338.01 368.38,-318.81"/>
<polygon fill="midnightblue" stroke="midnightblue" points="369.65,-322.09 378.32,-316 367.74,-315.36 369.65,-322.09"/>
</g>
<!-- Node4 -->
<g id="node4" class="node">
<title>Node4</title>
<g id="a_node4"><a xlink:href="quickjs_8c.html#af23ec7c9970ceb4671c59da7abd4b078" target="_top" xlink:title=" ">
<polygon fill="none" stroke="black" points="518.5,-629.96 518.5,-648.96 655.5,-648.96 655.5,-629.96 518.5,-629.96"/>
<text text-anchor="middle" x="587" y="-636.96" font-family="Helvetica,sans-Serif" font-size="10.00">js_check_stack_overflow</text>
</a>
</g>
</g>
<!-- Node3&#45;&gt;Node4 -->
<g id="edge3" class="edge">
<title>Node3&#45;&gt;Node4</title>
<path fill="none" stroke="midnightblue" d="M467.01,-652.61C480.04,-651.17 494.25,-649.6 508.18,-648.06"/>
<polygon fill="midnightblue" stroke="midnightblue" points="508.69,-651.52 518.25,-646.95 507.92,-644.57 508.69,-651.52"/>
</g>
<!-- Node3&#45;&gt;Node6 -->
<g id="edge5" class="edge">
<title>Node3&#45;&gt;Node6</title>
<path fill="none" stroke="midnightblue" d="M433.76,-648.82C451.54,-640.43 478.55,-628.41 503,-620.46 512.7,-617.31 523.2,-614.48 533.37,-612.02"/>
<polygon fill="midnightblue" stroke="midnightblue" points="534.43,-615.36 543.38,-609.69 532.84,-608.55 534.43,-615.36"/>
</g>
<!-- Node7 -->
<g id="node7" class="node">
<title>Node7</title>
<g id="a_node7"><a xlink:href="quickjs_8h.html#a149f24b67e745bad93573b3b4c80db4c" target="_top" xlink:title=" ">
<polygon fill="none" stroke="black" points="557.5,-705.96 557.5,-724.96 616.5,-724.96 616.5,-705.96 557.5,-705.96"/>
<text text-anchor="middle" x="587" y="-712.96" font-family="Helvetica,sans-Serif" font-size="10.00">JS_IsNull</text>
</a>
</g>
</g>
<!-- Node3&#45;&gt;Node7 -->
<g id="edge6" class="edge">
<title>Node3&#45;&gt;Node7</title>
<path fill="none" stroke="midnightblue" d="M433.76,-668.11C451.54,-676.5 478.55,-688.52 503,-696.46 517.25,-701.1 533.24,-705.04 547.34,-708.11"/>
<polygon fill="midnightblue" stroke="midnightblue" points="546.72,-711.56 557.23,-710.2 548.17,-704.71 546.72,-711.56"/>
</g>
<!-- Node8 -->
<g id="node8" class="node">
<title>Node8</title>
<g id="a_node8"><a xlink:href="quickjs_8c.html#a8353f635fb8a20553c08db8cf38c17e0" target="_top" xlink:title=" ">
<polygon fill="none" stroke="red" points="521.5,-667.96 521.5,-686.96 652.5,-686.96 652.5,-667.96 521.5,-667.96"/>
<text text-anchor="middle" x="587" y="-674.96" font-family="Helvetica,sans-Serif" font-size="10.00">JS_ThrowStackOverflow</text>
</a>
</g>
</g>
<!-- Node3&#45;&gt;Node8 -->
<g id="edge7" class="edge">
<title>Node3&#45;&gt;Node8</title>
<path fill="none" stroke="midnightblue" d="M467.01,-664.32C480.96,-665.86 496.28,-667.55 511.15,-669.2"/>
<polygon fill="midnightblue" stroke="midnightblue" points="511.03,-672.7 521.35,-670.32 511.8,-665.74 511.03,-672.7"/>
</g>
<!-- Node10 -->
<g id="node9" class="node">
<title>Node10</title>
<g id="a_node9"><a xlink:href="quickjs_8c.html#a199d64ccbee0a90d93e1ad12745417f6" target="_top" xlink:title=" ">
<polygon fill="none" stroke="black" points="512.5,-744.46 512.5,-774.46 661.5,-774.46 661.5,-744.46 512.5,-744.46"/>
<text text-anchor="start" x="520.5" y="-762.46" font-family="Helvetica,sans-Serif" font-size="10.00">JS_ThrowTypeErrorRevoked</text>
<text text-anchor="middle" x="587" y="-751.46" font-family="Helvetica,sans-Serif" font-size="10.00">Proxy</text>
</a>
</g>
</g>
<!-- Node3&#45;&gt;Node10 -->
<g id="edge8" class="edge">
<title>Node3&#45;&gt;Node10</title>
<path fill="none" stroke="midnightblue" d="M422.64,-668.08C437.53,-684.1 469.65,-716.26 503,-734.46 507.16,-736.73 511.55,-738.82 516.05,-740.74"/>
<polygon fill="midnightblue" stroke="midnightblue" points="514.82,-744.02 525.41,-744.44 517.4,-737.51 514.82,-744.02"/>
</g>
<!-- Node5 -->
<g id="node5" class="node">
<title>Node5</title>
<g id="a_node5"><a xlink:href="quickjs_8c.html#acad70023f36797496683e579a4d60461" target="_top" xlink:title=" ">
<polygon fill="none" stroke="black" points="723,-629.96 723,-648.96 840,-648.96 840,-629.96 723,-629.96"/>
<text text-anchor="middle" x="781.5" y="-636.96" font-family="Helvetica,sans-Serif" font-size="10.00">js_get_stack_pointer</text>
</a>
</g>
</g>
<!-- Node4&#45;&gt;Node5 -->
<g id="edge4" class="edge">
<title>Node4&#45;&gt;Node5</title>
<path fill="none" stroke="midnightblue" d="M655.6,-639.46C674.15,-639.46 694.27,-639.46 712.83,-639.46"/>
<polygon fill="midnightblue" stroke="midnightblue" points="712.96,-642.96 722.96,-639.46 712.96,-635.96 712.96,-642.96"/>
</g>
<!-- Node12 -->
<g id="node11" class="node">
<title>Node12</title>
<g id="a_node11"><a xlink:href="quickjs_8c.html#a06ff303a11e6641cbf1f6634e6a61811" target="_top" xlink:title=" ">
<polygon fill="none" stroke="red" points="729,-667.96 729,-686.96 834,-686.96 834,-667.96 729,-667.96"/>
<text text-anchor="middle" x="781.5" y="-674.96" font-family="Helvetica,sans-Serif" font-size="10.00">__JS_AtomToValue</text>
</a>
</g>
</g>
<!-- Node11&#45;&gt;Node12 -->
<g id="edge10" class="edge">
<title>Node11&#45;&gt;Node12</title>
<path fill="none" stroke="midnightblue" d="M634.62,-833.45C647.14,-829.88 660.19,-824.77 671,-817.46 718.32,-785.49 754.45,-726.57 770.84,-696.38"/>
<polygon fill="midnightblue" stroke="midnightblue" points="774.05,-697.8 775.63,-687.33 767.86,-694.53 774.05,-697.8"/>
</g>
<!-- Node13 -->
<g id="node12" class="node">
<title>Node13</title>
<g id="a_node12"><a xlink:href="quickjs_8c.html#a288254c06a39c9fca740a7abdad2834e" target="_top" xlink:title=" ">
<polygon fill="none" stroke="black" points="928,-662.96 928,-681.96 1051,-681.96 1051,-662.96 928,-662.96"/>
<text text-anchor="middle" x="989.5" y="-669.96" font-family="Helvetica,sans-Serif" font-size="10.00">__JS_AtomIsTaggedInt</text>
</a>
</g>
</g>
<!-- Node12&#45;&gt;Node13 -->
<g id="edge11" class="edge">
<title>Node12&#45;&gt;Node13</title>
<path fill="none" stroke="midnightblue" d="M834.22,-676.21C859.47,-675.59 890.26,-674.85 917.66,-674.18"/>
<polygon fill="midnightblue" stroke="midnightblue" points="918.07,-677.67 927.98,-673.93 917.9,-670.68 918.07,-677.67"/>
</g>
<!-- Node14 -->
<g id="node13" class="node">
<title>Node14</title>
<g id="a_node13"><a xlink:href="quickjs_8c.html#a89f38938cee8077ce1fbba07946ed185" target="_top" xlink:title=" ">
<polygon fill="none" stroke="black" points="934.5,-615.96 934.5,-634.96 1044.5,-634.96 1044.5,-615.96 934.5,-615.96"/>
<text text-anchor="middle" x="989.5" y="-622.96" font-family="Helvetica,sans-Serif" font-size="10.00">__JS_AtomToUInt32</text>
</a>
</g>
</g>
<!-- Node12&#45;&gt;Node14 -->
<g id="edge12" class="edge">
<title>Node12&#45;&gt;Node14</title>
<path fill="none" stroke="midnightblue" d="M820.28,-667.93C854.15,-659.38 904,-646.79 940.65,-637.54"/>
<polygon fill="midnightblue" stroke="midnightblue" points="941.77,-640.87 950.61,-635.03 940.06,-634.08 941.77,-640.87"/>
</g>
<!-- Node15 -->
<g id="node14" class="node">
<title>Node15</title>
<g id="a_node14"><a xlink:href="quickjs_8h.html#a775522f2d084fc8fa0fcb33f390006b4" target="_top" xlink:title=" ">
<polygon fill="none" stroke="black" points="951,-517.96 951,-536.96 1028,-536.96 1028,-517.96 951,-517.96"/>
<text text-anchor="middle" x="989.5" y="-524.96" font-family="Helvetica,sans-Serif" font-size="10.00">JS_DupValue</text>
</a>
</g>
</g>
<!-- Node12&#45;&gt;Node15 -->
<g id="edge13" class="edge">
<title>Node12&#45;&gt;Node15</title>
<path fill="none" stroke="midnightblue" d="M834.12,-671.16C842.17,-668.3 849.84,-664.23 856,-658.46 893.25,-623.6 854.26,-583.79 892,-549.46 905.05,-537.59 923.16,-531.7 940.17,-528.91"/>
<polygon fill="midnightblue" stroke="midnightblue" points="941.1,-532.32 950.56,-527.54 940.19,-525.38 941.1,-532.32"/>
</g>
<!-- Node40 -->
<g id="node16" class="node">
<title>Node40</title>
<g id="a_node16"><a xlink:href="quickjs_8c.html#ac2894ff4edcdb4e6841bcce9c76081e3" target="_top" xlink:title=" ">
<polygon fill="none" stroke="red" points="369.5,-439.96 369.5,-458.96 456.5,-458.96 456.5,-439.96 369.5,-439.96"/>
<text text-anchor="middle" x="413" y="-446.96" font-family="Helvetica,sans-Serif" font-size="10.00">JS_CallInternal</text>
</a>
</g>
</g>
<!-- Node39&#45;&gt;Node40 -->
<g id="edge15" class="edge">
<title>Node39&#45;&gt;Node40</title>
<path fill="none" stroke="midnightblue" d="M290.62,-414.18C318.04,-419.4 355.94,-428.72 382.06,-436.72"/>
<polygon fill="midnightblue" stroke="midnightblue" points="381.2,-440.12 391.79,-439.83 383.33,-433.45 381.2,-440.12"/>
</g>
<!-- Node39&#45;&gt;Node87 -->
<g id="edge42" class="edge">
<title>Node39&#45;&gt;Node87</title>
<path fill="none" stroke="midnightblue" d="M260.47,-401.74C280.82,-358.86 369.41,-186.21 503,-126.46 571.16,-95.98 603.48,-94.59 671,-126.46 721.3,-150.21 756.31,-209.64 771.69,-240.38"/>
<polygon fill="midnightblue" stroke="midnightblue" points="768.65,-242.13 776.15,-249.62 774.96,-239.09 768.65,-242.13"/>
</g>
<!-- Node40&#45;&gt;Node4 -->
<g id="edge19" class="edge">
<title>Node40&#45;&gt;Node4</title>
<path fill="none" stroke="midnightblue" d="M416.01,-459.04C422.67,-488.28 446.86,-577.08 503,-620.46 505.3,-622.24 507.74,-623.86 510.28,-625.33"/>
<polygon fill="midnightblue" stroke="midnightblue" points="508.75,-628.48 519.27,-629.79 511.86,-622.21 508.75,-628.48"/>
</g>
<!-- Node40&#45;&gt;Node6 -->
<g id="edge32" class="edge">
<title>Node40&#45;&gt;Node6</title>
<path fill="none" stroke="midnightblue" d="M419.57,-459.16C435.24,-486.09 480.02,-560.98 503,-577.46 512.05,-583.96 522.84,-588.7 533.59,-592.17"/>
<polygon fill="midnightblue" stroke="midnightblue" points="532.82,-595.59 543.4,-595 534.76,-588.87 532.82,-595.59"/>
</g>
<!-- Node40&#45;&gt;Node7 -->
<g id="edge33" class="edge">
<title>Node40&#45;&gt;Node7</title>
<path fill="none" stroke="midnightblue" d="M416.16,-459.04C425.66,-500.35 464.96,-662.76 503,-696.46 514.96,-707.06 531.61,-712.09 546.86,-714.37"/>
<polygon fill="midnightblue" stroke="midnightblue" points="546.79,-717.89 557.12,-715.55 547.59,-710.93 546.79,-717.89"/>
</g>
<!-- Node40&#45;&gt;Node8 -->
<g id="edge38" class="edge">
<title>Node40&#45;&gt;Node8</title>
<path fill="none" stroke="midnightblue" d="M415.05,-459.17C419.22,-492.59 437.66,-603.81 503,-658.46 505.89,-660.88 509.03,-663.01 512.34,-664.87"/>
<polygon fill="midnightblue" stroke="midnightblue" points="510.91,-668.07 521.44,-669.23 513.93,-661.76 510.91,-668.07"/>
</g>
<!-- Node40&#45;&gt;Node11 -->
<g id="edge16" class="edge">
<title>Node40&#45;&gt;Node11</title>
<path fill="none" stroke="midnightblue" d="M416.86,-459.33C424.98,-487.41 448.76,-570.25 467,-639.46 483.92,-703.67 465.17,-729.89 503,-784.46 515.98,-803.18 537.24,-817.61 555,-827.27"/>
<polygon fill="midnightblue" stroke="midnightblue" points="553.41,-830.39 563.9,-831.88 556.63,-824.17 553.41,-830.39"/>
</g>
<!-- Node40&#45;&gt;Node15 -->
<g id="edge20" class="edge">
<title>Node40&#45;&gt;Node15</title>
<path fill="none" stroke="midnightblue" d="M430.76,-459.11C448.19,-468.63 476.58,-482.71 503,-489.46 659.44,-529.45 852.68,-530.92 940.74,-529.09"/>
<polygon fill="midnightblue" stroke="midnightblue" points="941.03,-532.59 950.94,-528.86 940.87,-525.59 941.03,-532.59"/>
</g>
<!-- Node40&#45;&gt;Node39 -->
<g id="edge17" class="edge">
<title>Node40&#45;&gt;Node39</title>
<path fill="none" stroke="midnightblue" d="M369.37,-445.17C342.9,-439.78 309.55,-431.44 285.89,-424.19"/>
<polygon fill="midnightblue" stroke="midnightblue" points="286.67,-420.76 276.07,-421.06 284.54,-427.43 286.67,-420.76"/>
</g>
<!-- Node40&#45;&gt;Node40 -->
<g id="edge18" class="edge">
<title>Node40&#45;&gt;Node40</title>
<path fill="none" stroke="midnightblue" d="M388.65,-459.22C376.8,-468.03 384.92,-477.46 413,-477.46 431.43,-477.46 441.26,-473.4 442.49,-468.12"/>
<polygon fill="midnightblue" stroke="midnightblue" points="445.39,-466.13 437.35,-459.22 439.32,-469.63 445.39,-466.13"/>
</g>
<!-- Node40&#45;&gt;Node87 -->
<g id="edge21" class="edge">
<title>Node40&#45;&gt;Node87</title>
<path fill="none" stroke="midnightblue" d="M456.65,-440.37C528.51,-425.01 666.4,-395.29 671,-392.46 717.98,-363.65 754.06,-307.4 770.59,-278.15"/>
<polygon fill="midnightblue" stroke="midnightblue" points="773.86,-279.47 775.61,-269.02 767.73,-276.1 773.86,-279.47"/>
</g>
<!-- Node98 -->
<g id="node18" class="node">
<title>Node98</title>
<g id="a_node18"><a xlink:href="quickjs_8h.html#a89b7c8686c7eee70b86be722ee4730ad" target="_top" xlink:title=" ">
<polygon fill="none" stroke="red" points="542.5,-325.96 542.5,-344.96 631.5,-344.96 631.5,-325.96 542.5,-325.96"/>
<text text-anchor="middle" x="587" y="-332.96" font-family="Helvetica,sans-Serif" font-size="10.00">JS_GetProperty</text>
</a>
</g>
</g>
<!-- Node40&#45;&gt;Node98 -->
<g id="edge22" class="edge">
<title>Node40&#45;&gt;Node98</title>
<path fill="none" stroke="midnightblue" d="M420.05,-439.89C432.83,-420.49 464.59,-376.53 503,-354.46 512.03,-349.27 522.38,-345.5 532.64,-342.76"/>
<polygon fill="midnightblue" stroke="midnightblue" points="533.48,-346.16 542.4,-340.43 531.86,-339.35 533.48,-346.16"/>
</g>
<!-- Node305 -->
<g id="node19" class="node">
<title>Node305</title>
<g id="a_node19"><a xlink:href="quickjs_8c.html#a9d6d0a9704951d01c128975e0d2213f8" target="_top" xlink:title=" ">
<polygon fill="none" stroke="red" points="541.5,-439.96 541.5,-458.96 632.5,-458.96 632.5,-439.96 541.5,-439.96"/>
<text text-anchor="middle" x="587" y="-446.96" font-family="Helvetica,sans-Serif" font-size="10.00">JS_HasProperty</text>
</a>
</g>
</g>
<!-- Node40&#45;&gt;Node305 -->
<g id="edge23" class="edge">
<title>Node40&#45;&gt;Node305</title>
<path fill="none" stroke="midnightblue" d="M456.52,-449.46C479.06,-449.46 507.02,-449.46 531.18,-449.46"/>
<polygon fill="midnightblue" stroke="midnightblue" points="531.27,-452.96 541.27,-449.46 531.27,-445.96 531.27,-452.96"/>
</g>
<!-- Node157 -->
<g id="node21" class="node">
<title>Node157</title>
<g id="a_node21"><a xlink:href="quickjs_8h.html#aaab426b47c95d00479b7355b1cf7f56c" target="_top" xlink:title=" ">
<polygon fill="none" stroke="black" points="939,-479.96 939,-498.96 1040,-498.96 1040,-479.96 939,-479.96"/>
<text text-anchor="middle" x="989.5" y="-486.96" font-family="Helvetica,sans-Serif" font-size="10.00">JS_IsUninitialized</text>
</a>
</g>
</g>
<!-- Node40&#45;&gt;Node157 -->
<g id="edge36" class="edge">
<title>Node40&#45;&gt;Node157</title>
<path fill="none" stroke="midnightblue" d="M451.87,-459.01C467.59,-462.59 486.07,-466.31 503,-468.46 655.51,-487.9 836.9,-490.31 928.78,-490.08"/>
<polygon fill="midnightblue" stroke="midnightblue" points="929.01,-493.58 938.99,-490.04 928.98,-486.58 929.01,-493.58"/>
</g>
<!-- Node164 -->
<g id="node22" class="node">
<title>Node164</title>
<g id="a_node22"><a xlink:href="quickjs_8c.html#a75ac132a3af4de01e1fadeb0bede6ee7" target="_top" xlink:title=" ">
<polygon fill="none" stroke="red" points="892,-558.96 892,-577.96 1087,-577.96 1087,-558.96 892,-558.96"/>
<text text-anchor="middle" x="989.5" y="-565.96" font-family="Helvetica,sans-Serif" font-size="10.00">JS_ThrowReferenceErrorUninitialized</text>
</a>
</g>
</g>
<!-- Node40&#45;&gt;Node164 -->
<g id="edge37" class="edge">
<title>Node40&#45;&gt;Node164</title>
<path fill="none" stroke="midnightblue" d="M423.27,-459.43C438.33,-474.87 469.77,-504.19 503,-517.46 626.27,-566.69 780.43,-574.77 881.54,-573.63"/>
<polygon fill="midnightblue" stroke="midnightblue" points="881.82,-577.13 891.77,-573.48 881.72,-570.13 881.82,-577.13"/>
</g>
<!-- Node40&#45;&gt;Node287 -->
<g id="edge34" class="edge">
<title>Node40&#45;&gt;Node287</title>
<path fill="none" stroke="midnightblue" d="M417.21,-439.58C426.66,-411.67 456.64,-330.84 503,-278.46 518.44,-261.01 540.31,-246.28 557.72,-236.17"/>
<polygon fill="midnightblue" stroke="midnightblue" points="559.86,-238.98 566.87,-231.03 556.44,-232.87 559.86,-238.98"/>
</g>
<!-- Node40&#45;&gt;Node133 -->
<g id="edge35" class="edge">
<title>Node40&#45;&gt;Node133</title>
<path fill="none" stroke="midnightblue" d="M418.89,-439.73C429.09,-419.13 452.84,-369.36 467,-325.46 489.5,-255.68 451.28,-216.44 503,-164.46 510.9,-156.52 521.4,-151.62 532.27,-148.65"/>
<polygon fill="midnightblue" stroke="midnightblue" points="533.28,-152.01 542.28,-146.43 531.76,-145.17 533.28,-152.01"/>
</g>
<!-- Node244 -->
<g id="node25" class="node">
<title>Node244</title>
<g id="a_node25"><a xlink:href="quickjs_8c.html#a726b00d108e0a0f4d958c36c2e426a64" target="_top" xlink:title=" ">
<polygon fill="none" stroke="black" points="503,-363.96 503,-382.96 671,-382.96 671,-363.96 503,-363.96"/>
<text text-anchor="middle" x="587" y="-370.96" font-family="Helvetica,sans-Serif" font-size="10.00">JS_ThrowTypeErrorNotAnObject</text>
</a>
</g>
</g>
<!-- Node40&#45;&gt;Node244 -->
<g id="edge39" class="edge">
<title>Node40&#45;&gt;Node244</title>
<path fill="none" stroke="midnightblue" d="M427.92,-439.86C444.97,-428.45 475.04,-409.45 503,-397.46 513.34,-393.03 524.75,-389.13 535.72,-385.84"/>
<polygon fill="midnightblue" stroke="midnightblue" points="536.98,-389.12 545.62,-382.98 535.04,-382.39 536.98,-389.12"/>
</g>
<!-- Node223 -->
<g id="node26" class="node">
<title>Node223</title>
<g id="a_node26"><a xlink:href="quickjs_8c.html#a2bf30c9cddfe98a32535843202495069" target="_top" xlink:title=" ">
<polygon fill="none" stroke="black" points="545,-287.96 545,-306.96 629,-306.96 629,-287.96 545,-287.96"/>
<text text-anchor="middle" x="587" y="-294.96" font-family="Helvetica,sans-Serif" font-size="10.00">JS_ToBoolFree</text>
</a>
</g>
</g>
<!-- Node40&#45;&gt;Node223 -->
<g id="edge40" class="edge">
<title>Node40&#45;&gt;Node223</title>
<path fill="none" stroke="midnightblue" d="M417.46,-439.94C426.96,-415.26 455.86,-348.92 503,-316.46 512.32,-310.04 523.49,-305.77 534.57,-302.92"/>
<polygon fill="midnightblue" stroke="midnightblue" points="535.65,-306.27 544.66,-300.69 534.14,-299.43 535.65,-306.27"/>
</g>
<!-- Node305&#45;&gt;Node15 -->
<g id="edge24" class="edge">
<title>Node305&#45;&gt;Node15</title>
<path fill="none" stroke="midnightblue" d="M632.78,-458.18C708.86,-473 862.72,-502.97 940.77,-518.17"/>
<polygon fill="midnightblue" stroke="midnightblue" points="940.32,-521.65 950.81,-520.12 941.66,-514.78 940.32,-521.65"/>
</g>
<!-- Node305&#45;&gt;Node87 -->
<g id="edge25" class="edge">
<title>Node305&#45;&gt;Node87</title>
<path fill="none" stroke="midnightblue" d="M632.86,-442.61C646.04,-439.04 659.89,-433.64 671,-425.46 724.17,-386.33 759,-313.04 773.23,-278.45"/>
<polygon fill="midnightblue" stroke="midnightblue" points="776.53,-279.63 776.98,-269.04 770.02,-277.04 776.53,-279.63"/>
</g>
<!-- Node305&#45;&gt;Node306 -->
<g id="edge26" class="edge">
<title>Node305&#45;&gt;Node306</title>
<path fill="none" stroke="midnightblue" d="M600.04,-458.97C632.25,-484.4 720.63,-554.19 760.51,-585.68"/>
<polygon fill="midnightblue" stroke="midnightblue" points="758.45,-588.51 768.46,-591.96 762.78,-583.01 758.45,-588.51"/>
</g>
<!-- Node306&#45;&gt;Node13 -->
<g id="edge27" class="edge">
<title>Node306&#45;&gt;Node13</title>
<path fill="none" stroke="midnightblue" d="M829.18,-611.01C838.27,-613.57 847.58,-616.7 856,-620.46 873.55,-628.31 874.56,-636.36 892,-644.46 905.62,-650.8 921,-656.04 935.41,-660.21"/>
<polygon fill="midnightblue" stroke="midnightblue" points="934.63,-663.62 945.2,-662.92 936.5,-656.87 934.63,-663.62"/>
</g>
<!-- Node306&#45;&gt;Node14 -->
<g id="edge28" class="edge">
<title>Node306&#45;&gt;Node14</title>
<path fill="none" stroke="midnightblue" d="M856.29,-610.06C878.51,-612.65 902.72,-615.47 924.27,-617.98"/>
<polygon fill="midnightblue" stroke="midnightblue" points="923.95,-621.47 934.29,-619.15 924.76,-614.51 923.95,-621.47"/>
</g>
<!-- Node306&#45;&gt;Node15 -->
<g id="edge29" class="edge">
<title>Node306&#45;&gt;Node15</title>
<path fill="none" stroke="midnightblue" d="M799.83,-591.77C821,-580.27 858.2,-561.18 892,-549.46 907.58,-544.06 925.04,-539.62 940.79,-536.17"/>
<polygon fill="midnightblue" stroke="midnightblue" points="941.78,-539.54 950.85,-534.05 940.34,-532.69 941.78,-539.54"/>
</g>
<!-- Node306&#45;&gt;Node157 -->
<g id="edge30" class="edge">
<title>Node306&#45;&gt;Node157</title>
<path fill="none" stroke="midnightblue" d="M790.73,-591.74C807.59,-572.49 848.19,-529.59 892,-508.46 903.41,-502.96 916.31,-499.05 928.87,-496.28"/>
<polygon fill="midnightblue" stroke="midnightblue" points="929.73,-499.68 938.85,-494.29 928.35,-492.81 929.73,-499.68"/>
</g>
<!-- Node306&#45;&gt;Node164 -->
<g id="edge31" class="edge">
<title>Node306&#45;&gt;Node164</title>
<path fill="none" stroke="midnightblue" d="M841.81,-591.96C865.83,-588.11 893.76,-583.64 918.75,-579.64"/>
<polygon fill="midnightblue" stroke="midnightblue" points="919.58,-583.05 928.9,-578.01 918.47,-576.14 919.58,-583.05"/>
</g>
<!-- Node223&#45;&gt;Node87 -->
<g id="edge41" class="edge">
<title>Node223&#45;&gt;Node87</title>
<path fill="none" stroke="midnightblue" d="M629.3,-289.31C659.4,-283.37 700.29,-275.3 731.96,-269.04"/>
<polygon fill="midnightblue" stroke="midnightblue" points="732.76,-272.45 741.89,-267.08 731.41,-265.59 732.76,-272.45"/>
</g>
<!-- Node318&#45;&gt;Node87 -->
<g id="edge44" class="edge">
<title>Node318&#45;&gt;Node87</title>
<path fill="none" stroke="midnightblue" d="M451.66,-78.9C504.35,-67.69 601.43,-55.13 671,-93.46 729.35,-125.61 761.95,-203.6 774.46,-240.07"/>
<polygon fill="midnightblue" stroke="midnightblue" points="771.14,-241.16 777.59,-249.57 777.79,-238.97 771.14,-241.16"/>
</g>
<!-- Node436&#45;&gt;Node6 -->
<g id="edge55" class="edge">
<title>Node436&#45;&gt;Node6</title>
<path fill="none" stroke="midnightblue" d="M419.03,-316.06C432.31,-341.29 469.57,-411.43 503,-468.46 527.41,-510.11 557.83,-557.88 574.22,-583.31"/>
<polygon fill="midnightblue" stroke="midnightblue" points="571.41,-585.4 579.77,-591.9 577.28,-581.6 571.41,-585.4"/>
</g>
<!-- Node436&#45;&gt;Node87 -->
<g id="edge52" class="edge">
<title>Node436&#45;&gt;Node87</title>
<path fill="none" stroke="midnightblue" d="M438.91,-296.88C456.54,-290.54 480.88,-282.64 503,-278.46 582.13,-263.53 675.91,-259.99 731.69,-259.33"/>
<polygon fill="midnightblue" stroke="midnightblue" points="732.01,-262.83 741.98,-259.24 731.95,-255.83 732.01,-262.83"/>
</g>
<!-- Node436&#45;&gt;Node98 -->
<g id="edge53" class="edge">
<title>Node436&#45;&gt;Node98</title>
<path fill="none" stroke="midnightblue" d="M457.4,-313.78C480.13,-317.61 508.17,-322.34 532.26,-326.4"/>
<polygon fill="midnightblue" stroke="midnightblue" points="531.87,-329.89 542.31,-328.1 533.03,-322.98 531.87,-329.89"/>
</g>
<!-- Node436&#45;&gt;Node305 -->
<g id="edge54" class="edge">
<title>Node436&#45;&gt;Node305</title>
<path fill="none" stroke="midnightblue" d="M422.88,-316.03C438.38,-332.51 471.72,-366.91 503,-392.46 521.85,-407.86 544.74,-423.37 561.71,-434.31"/>
<polygon fill="midnightblue" stroke="midnightblue" points="560.15,-437.47 570.46,-439.89 563.91,-431.57 560.15,-437.47"/>
</g>
<!-- Node436&#45;&gt;Node287 -->
<g id="edge57" class="edge">
<title>Node436&#45;&gt;Node287</title>
<path fill="none" stroke="midnightblue" d="M425.35,-296.89C441.6,-283.63 472.85,-259.7 503,-245.46 514.99,-239.8 528.59,-235.19 541.26,-231.58"/>
<polygon fill="midnightblue" stroke="midnightblue" points="542.44,-234.88 551.18,-228.89 540.61,-228.13 542.44,-234.88"/>
</g>
<!-- Node436&#45;&gt;Node133 -->
<g id="edge58" class="edge">
<title>Node436&#45;&gt;Node133</title>
<path fill="none" stroke="midnightblue" d="M417.14,-296.68C426.02,-270.66 453.91,-199.36 503,-164.46 511.67,-158.3 522.03,-154.1 532.44,-151.24"/>
<polygon fill="midnightblue" stroke="midnightblue" points="533.46,-154.6 542.39,-148.9 531.85,-147.79 533.46,-154.6"/>
</g>
<!-- Node436&#45;&gt;Node244 -->
<g id="edge59" class="edge">
<title>Node436&#45;&gt;Node244</title>
<path fill="none" stroke="midnightblue" d="M428.84,-316.09C446.05,-326.86 475.56,-344.14 503,-354.46 509.85,-357.04 517.15,-359.33 524.48,-361.35"/>
<polygon fill="midnightblue" stroke="midnightblue" points="523.88,-364.81 534.44,-363.93 525.64,-358.03 523.88,-364.81"/>
</g>
<!-- Node436&#45;&gt;Node223 -->
<g id="edge60" class="edge">
<title>Node436&#45;&gt;Node223</title>
<path fill="none" stroke="midnightblue" d="M457.4,-304.19C480.91,-302.96 510.11,-301.43 534.73,-300.15"/>
<polygon fill="midnightblue" stroke="midnightblue" points="535.18,-303.63 544.98,-299.61 534.81,-296.64 535.18,-303.63"/>
</g>
<!-- Node132 -->
<g id="node30" class="node">
<title>Node132</title>
<g id="a_node30"><a xlink:href="quickjs_8c.html#a1ca9cdb1fa2ffc3e6506e92b200e490f" target="_top" xlink:title=" ">
<polygon fill="none" stroke="black" points="547,-173.96 547,-192.96 627,-192.96 627,-173.96 547,-173.96"/>
<text text-anchor="middle" x="587" y="-180.96" font-family="Helvetica,sans-Serif" font-size="10.00">JS_IsFunction</text>
</a>
</g>
</g>
<!-- Node436&#45;&gt;Node132 -->
<g id="edge56" class="edge">
<title>Node436&#45;&gt;Node132</title>
<path fill="none" stroke="midnightblue" d="M419.25,-296.93C431.2,-276.21 462.54,-226.94 503,-202.46 513.17,-196.31 525.15,-192.15 536.79,-189.33"/>
<polygon fill="midnightblue" stroke="midnightblue" points="537.82,-192.69 546.88,-187.19 536.37,-185.84 537.82,-192.69"/>
</g>
</g>
</svg>
        <g id="navigator" transform="translate(0 0)" fill="#404254">
                <rect fill="#f2f5e9" fill-opacity="0.5" stroke="#606060" stroke-width=".5" x="0" y="0" width="60" height="60"/>
                <use id="zoomplus" xlink:href="#zoomPlus" x="17" y="9" onmousedown="handleZoom(evt,'in')"/>
                <use id="zoomminus" xlink:href="#zoomMin" x="42" y="9" onmousedown="handleZoom(evt,'out')"/>
                <use id="reset" xlink:href="#resetDef" x="30" y="36" onmousedown="handleReset()"/>
                <g id="arrowUp" xlink:href="#dirArrow" transform="translate(30 24)" onmousedown="handlePan(0,-1)">
                  <use xlink:href="#rim" fill="#404040">
                        <set attributeName="fill" to="#808080" begin="arrowUp.mouseover" end="arrowUp.mouseout"/>
                  </use>
                  <path fill="none" stroke="white" stroke-width="1.5" d="M0,-3.0v7 M-2.5,-0.5L0,-3.0L2.5,-0.5"/>
                </g>
                <g id="arrowRight" xlink:href="#dirArrow" transform="rotate(90) translate(36 -43)" onmousedown="handlePan(1,0)">
                  <use xlink:href="#rim" fill="#404040">
                        <set attributeName="fill" to="#808080" begin="arrowRight.mouseover" end="arrowRight.mouseout"/>
                  </use>
                  <path fill="none" stroke="white" stroke-width="1.5" d="M0,-3.0v7 M-2.5,-0.5L0,-3.0L2.5,-0.5"/>
                </g>
                <g id="arrowDown" xlink:href="#dirArrow" transform="rotate(180) translate(-30 -48)" onmousedown="handlePan(0,1)">
                  <use xlink:href="#rim" fill="#404040">
                        <set attributeName="fill" to="#808080" begin="arrowDown.mouseover" end="arrowDown.mouseout"/>
                  </use>
                  <path fill="none" stroke="white" stroke-width="1.5" d="M0,-3.0v7 M-2.5,-0.5L0,-3.0L2.5,-0.5"/>
                </g>
                <g id="arrowLeft" xlink:href="#dirArrow" transform="rotate(270) translate(-36 17)" onmousedown="handlePan(-1,0)">
                  <use xlink:href="#rim" fill="#404040">
                        <set attributeName="fill" to="#808080" begin="arrowLeft.mouseover" end="arrowLeft.mouseout"/>
                  </use>
                  <path fill="none" stroke="white" stroke-width="1.5" d="M0,-3.0v7 M-2.5,-0.5L0,-3.0L2.5,-0.5"/>
                </g>
        </g>
        <svg viewBox="0 0 15 15" width="100%" height="30px" preserveAspectRatio="xMaxYMin meet">
         <g id="arrow_out" transform="scale(0.3 0.3)">
          <a xlink:href="quickjs_8c_ab9c2e9c8dab72f3c057efe4ffcced332_cgraph_org.svg" target="_base">
           <rect id="button" ry="5" rx="5" y="6" x="6" height="38" width="38"
                fill="#f2f5e9" fill-opacity="0.5" stroke="#606060" stroke-width="1.0"/>
           <path id="arrow"
             d="M 11.500037,31.436501 C 11.940474,20.09759 22.043105,11.32322 32.158766,21.979434 L 37.068811,17.246167 C 37.068811,17.246167 37.088388,32 37.088388,32 L 22.160133,31.978069 C 22.160133,31.978069 26.997745,27.140456 26.997745,27.140456 C 18.528582,18.264221 13.291696,25.230495 11.500037,31.436501 z"
             style="fill:#404040;"/>
          </a>
         </g>
        </svg>
</svg>
