<?xml version="1.0" encoding="UTF-8" standalone="no"?>
<!DOCTYPE svg PUBLIC "-//W3C//DTD SVG 1.1//EN"
 "http://www.w3.org/Graphics/SVG/1.1/DTD/svg11.dtd">
<!-- Generated by graphviz version 2.43.0 (0)
 -->
<!-- Title: JS_NewPromiseCapability Pages: 1 -->
<!--zoomable 623 -->
<svg id="main" version="1.1" xmlns="http://www.w3.org/2000/svg" xmlns:xlink="http://www.w3.org/1999/xlink" xml:space="preserve" onload="init(evt)">
<style type="text/css"><![CDATA[
.edge:hover path { stroke: red; }
.edge:hover polygon { stroke: red; fill: red; }
]]></style>
<script type="text/javascript"><![CDATA[
var edges = document.getElementsByTagName('g');
if (edges && edges.length) {
  for (var i=0;i<edges.length;i++) {
    if (edges[i].id.substr(0,4)=='edge') {
      edges[i].setAttribute('class','edge');
    }
  }
}
]]></script>
        <defs>
                <circle id="rim" cx="0" cy="0" r="7"/>
                <circle id="rim2" cx="0" cy="0" r="3.5"/>
                <g id="zoomPlus">
                        <use xlink:href="#rim" fill="#404040">
                                <set attributeName="fill" to="#808080" begin="zoomplus.mouseover" end="zoomplus.mouseout"/>
                        </use>
                        <path d="M-4,0h8M0,-4v8" fill="none" stroke="white" stroke-width="1.5" pointer-events="none"/>
                </g>
                <g id="zoomMin">
                        <use xlink:href="#rim" fill="#404040">
                                <set attributeName="fill" to="#808080" begin="zoomminus.mouseover" end="zoomminus.mouseout"/>
                        </use>
                        <path d="M-4,0h8" fill="none" stroke="white" stroke-width="1.5" pointer-events="none"/>
                </g>
                <g id="dirArrow">
                        <path fill="none" stroke="white" stroke-width="1.5" d="M0,-3.0v7 M-2.5,-0.5L0,-3.0L2.5,-0.5"/>
                </g>
               <g id="resetDef">
                       <use xlink:href="#rim2" fill="#404040">
                               <set attributeName="fill" to="#808080" begin="reset.mouseover" end="reset.mouseout"/>
                       </use>
               </g>
        </defs>

<script type="text/javascript">
var viewWidth = 941;
var viewHeight = 623;
var sectionId = 'dynsection-237';
</script>
<script xlink:href="svgpan.js"/>
<svg id="graph" class="graph">
<g id="viewport">
<title>JS_NewPromiseCapability</title>
<!-- Node1 -->
<g id="node1" class="node">
<title>Node1</title>
<g id="a_node1"><a xlink:title=" ">
<polygon fill="#bfbfbf" stroke="black" points="0,-403.41 0,-422.41 142,-422.41 142,-403.41 0,-403.41"/>
<text text-anchor="middle" x="71" y="-410.41" font-family="Helvetica,sans-Serif" font-size="10.00">JS_NewPromiseCapability</text>
</a>
</g>
</g>
<!-- Node2 -->
<g id="node2" class="node">
<title>Node2</title>
<g id="a_node2"><a xlink:href="quickjs_8c.html#a28c0ccdd26317bc38d0a693f1dffe4dc" target="_top" xlink:title=" ">
<polygon fill="none" stroke="black" points="178,-403.41 178,-422.41 327,-422.41 327,-403.41 178,-403.41"/>
<text text-anchor="middle" x="252.5" y="-410.41" font-family="Helvetica,sans-Serif" font-size="10.00">js_new_promise_capability</text>
</a>
</g>
</g>
<!-- Node1&#45;&gt;Node2 -->
<g id="edge1" class="edge">
<title>Node1&#45;&gt;Node2</title>
<path fill="none" stroke="midnightblue" d="M142.17,-412.91C150.58,-412.91 159.23,-412.91 167.81,-412.91"/>
<polygon fill="midnightblue" stroke="midnightblue" points="167.83,-416.41 177.83,-412.91 167.83,-409.41 167.83,-416.41"/>
</g>
<!-- Node3 -->
<g id="node3" class="node">
<title>Node3</title>
<g id="a_node3"><a xlink:href="quickjs_8c.html#a59a7e992f228759bf0a56f0aae4f3cc3" target="_top" xlink:title=" ">
<polygon fill="none" stroke="black" points="701,-571.41 701,-590.41 791,-590.41 791,-571.41 701,-571.41"/>
<text text-anchor="middle" x="746" y="-578.41" font-family="Helvetica,sans-Serif" font-size="10.00">check_function</text>
</a>
</g>
</g>
<!-- Node2&#45;&gt;Node3 -->
<g id="edge2" class="edge">
<title>Node2&#45;&gt;Node3</title>
<path fill="none" stroke="midnightblue" d="M264.86,-422.45C283.94,-437.99 324.13,-468.74 363,-485.91 473.9,-534.89 614.55,-561.61 690.45,-573.4"/>
<polygon fill="midnightblue" stroke="midnightblue" points="690.31,-576.91 700.72,-574.96 691.36,-569.99 690.31,-576.91"/>
</g>
<!-- Node5 -->
<g id="node5" class="node">
<title>Node5</title>
<g id="a_node5"><a xlink:href="quickjs_8c.html#a28704096ee67c5b0ab1bd60ce050e36a" target="_top" xlink:title=" ">
<polygon fill="none" stroke="black" points="363,-457.41 363,-476.41 469,-476.41 469,-457.41 363,-457.41"/>
<text text-anchor="middle" x="416" y="-464.41" font-family="Helvetica,sans-Serif" font-size="10.00">JS_CallConstructor</text>
</a>
</g>
</g>
<!-- Node2&#45;&gt;Node5 -->
<g id="edge4" class="edge">
<title>Node2&#45;&gt;Node5</title>
<path fill="none" stroke="midnightblue" d="M282,-422.44C308.33,-431.24 347.64,-444.39 376.7,-454.1"/>
<polygon fill="midnightblue" stroke="midnightblue" points="375.92,-457.53 386.51,-457.39 378.14,-450.9 375.92,-457.53"/>
</g>
<!-- Node40 -->
<g id="node8" class="node">
<title>Node40</title>
<g id="a_node8"><a xlink:href="quickjs_8h.html#a775522f2d084fc8fa0fcb33f390006b4" target="_top" xlink:title=" ">
<polygon fill="none" stroke="black" points="850,-103.41 850,-122.41 927,-122.41 927,-103.41 850,-103.41"/>
<text text-anchor="middle" x="888.5" y="-110.41" font-family="Helvetica,sans-Serif" font-size="10.00">JS_DupValue</text>
</a>
</g>
</g>
<!-- Node2&#45;&gt;Node40 -->
<g id="edge13" class="edge">
<title>Node2&#45;&gt;Node40</title>
<path fill="none" stroke="midnightblue" d="M257.42,-403.09C269.79,-372.86 310.31,-279.4 363,-214.91 415.47,-150.71 430.61,-130.53 505,-93.91 626.77,-33.97 683.32,-2.28 808,-55.91 829.37,-65.1 824.96,-80.54 844,-93.91 846.4,-95.6 848.98,-97.18 851.63,-98.66"/>
<polygon fill="midnightblue" stroke="midnightblue" points="850.32,-101.92 860.83,-103.28 853.46,-95.66 850.32,-101.92"/>
</g>
<!-- Node61 -->
<g id="node9" class="node">
<title>Node61</title>
<g id="a_node9"><a xlink:href="quickjs_8h.html#afaa20c47565bc704c6c85f3d77254e7d" target="_top" xlink:title=" ">
<polygon fill="none" stroke="red" points="849,-435.41 849,-454.41 928,-454.41 928,-435.41 849,-435.41"/>
<text text-anchor="middle" x="888.5" y="-442.41" font-family="Helvetica,sans-Serif" font-size="10.00">JS_FreeValue</text>
</a>
</g>
</g>
<!-- Node2&#45;&gt;Node61 -->
<g id="edge14" class="edge">
<title>Node2&#45;&gt;Node61</title>
<path fill="none" stroke="midnightblue" d="M260.92,-422.52C277.21,-442.97 318.24,-491.15 363,-517.91 489.38,-593.47 537.48,-585.32 684,-599.91 738.84,-605.37 760.97,-628.64 808,-599.91 833.24,-584.49 866.32,-502.14 880.53,-464.14"/>
<polygon fill="midnightblue" stroke="midnightblue" points="883.84,-465.29 884.01,-454.7 877.27,-462.87 883.84,-465.29"/>
</g>
<!-- Node79 -->
<g id="node10" class="node">
<title>Node79</title>
<g id="a_node10"><a xlink:href="quickjs_8h.html#ad80a83d73e9b7d872b88fbf2943aebe9" target="_top" xlink:title=" ">
<polygon fill="none" stroke="black" points="845,-359.41 845,-378.41 932,-378.41 932,-359.41 845,-359.41"/>
<text text-anchor="middle" x="888.5" y="-366.41" font-family="Helvetica,sans-Serif" font-size="10.00">JS_IsException</text>
</a>
</g>
</g>
<!-- Node2&#45;&gt;Node79 -->
<g id="edge15" class="edge">
<title>Node2&#45;&gt;Node79</title>
<path fill="none" stroke="midnightblue" d="M327.05,-414.46C433.66,-415.63 637.09,-413.84 808,-388.91 820.43,-387.1 833.74,-384.16 845.85,-381.08"/>
<polygon fill="midnightblue" stroke="midnightblue" points="846.91,-384.42 855.69,-378.49 845.13,-377.65 846.91,-384.42"/>
</g>
<!-- Node130 -->
<g id="node11" class="node">
<title>Node130</title>
<g id="a_node11"><a xlink:href="quickjs_8h.html#a4e407128a9605afb77523e49e9a627fd" target="_top" xlink:title=" ">
<polygon fill="none" stroke="black" points="844,-65.41 844,-84.41 933,-84.41 933,-65.41 844,-65.41"/>
<text text-anchor="middle" x="888.5" y="-72.41" font-family="Helvetica,sans-Serif" font-size="10.00">JS_IsUndefined</text>
</a>
</g>
</g>
<!-- Node2&#45;&gt;Node130 -->
<g id="edge16" class="edge">
<title>Node2&#45;&gt;Node130</title>
<path fill="none" stroke="midnightblue" d="M254.52,-403.3C259.28,-362.89 282.54,-204.49 363,-109.91 409.8,-54.9 435.41,-50.22 505,-30.91 634.79,5.09 678.58,12.4 808,-24.91 830.79,-31.48 853.35,-46.73 868.58,-58.67"/>
<polygon fill="midnightblue" stroke="midnightblue" points="866.68,-61.63 876.65,-65.23 871.09,-56.2 866.68,-61.63"/>
</g>
<!-- Node430 -->
<g id="node12" class="node">
<title>Node430</title>
<g id="a_node12"><a xlink:href="quickjs_8c.html#a96f03a78375e0f29d9445c3fb2d5d60e" target="_top" xlink:title=" ">
<polygon fill="none" stroke="black" points="511.5,-309.41 511.5,-328.41 641.5,-328.41 641.5,-309.41 511.5,-309.41"/>
<text text-anchor="middle" x="576.5" y="-316.41" font-family="Helvetica,sans-Serif" font-size="10.00">js_promise_constructor</text>
</a>
</g>
</g>
<!-- Node2&#45;&gt;Node430 -->
<g id="edge17" class="edge">
<title>Node2&#45;&gt;Node430</title>
<path fill="none" stroke="midnightblue" d="M286.15,-403.38C344.73,-386.28 467.65,-350.4 532.82,-331.37"/>
<polygon fill="midnightblue" stroke="midnightblue" points="534.15,-334.63 542.77,-328.47 532.19,-327.91 534.15,-334.63"/>
</g>
<!-- Node433 -->
<g id="node18" class="node">
<title>Node433</title>
<g id="a_node18"><a xlink:href="quickjs_8c.html#ae8438ccbdb642a5efe75ee5553040c64" target="_top" xlink:title=" ">
<polygon fill="none" stroke="black" points="505,-103.41 505,-122.41 648,-122.41 648,-103.41 505,-103.41"/>
<text text-anchor="middle" x="576.5" y="-110.41" font-family="Helvetica,sans-Serif" font-size="10.00">js_promise_executor_new</text>
</a>
</g>
</g>
<!-- Node2&#45;&gt;Node433 -->
<g id="edge31" class="edge">
<title>Node2&#45;&gt;Node433</title>
<path fill="none" stroke="midnightblue" d="M263.85,-403.27C310.11,-360.17 498.31,-184.83 557.55,-129.63"/>
<polygon fill="midnightblue" stroke="midnightblue" points="560.1,-132.05 565.03,-122.67 555.33,-126.92 560.1,-132.05"/>
</g>
<!-- Node4 -->
<g id="node4" class="node">
<title>Node4</title>
<g id="a_node4"><a xlink:href="quickjs_8c.html#a1ca9cdb1fa2ffc3e6506e92b200e490f" target="_top" xlink:title=" ">
<polygon fill="none" stroke="black" points="848.5,-571.41 848.5,-590.41 928.5,-590.41 928.5,-571.41 848.5,-571.41"/>
<text text-anchor="middle" x="888.5" y="-578.41" font-family="Helvetica,sans-Serif" font-size="10.00">JS_IsFunction</text>
</a>
</g>
</g>
<!-- Node3&#45;&gt;Node4 -->
<g id="edge3" class="edge">
<title>Node3&#45;&gt;Node4</title>
<path fill="none" stroke="midnightblue" d="M791.07,-580.91C805.98,-580.91 822.72,-580.91 838.02,-580.91"/>
<polygon fill="midnightblue" stroke="midnightblue" points="838.34,-584.41 848.34,-580.91 838.34,-577.41 838.34,-584.41"/>
</g>
<!-- Node6 -->
<g id="node6" class="node">
<title>Node6</title>
<g id="a_node6"><a xlink:href="quickjs_8c.html#ad35594576a14c10812efaf958c99af8a" target="_top" xlink:title=" ">
<polygon fill="none" stroke="red" points="505,-457.41 505,-476.41 648,-476.41 648,-457.41 505,-457.41"/>
<text text-anchor="middle" x="576.5" y="-464.41" font-family="Helvetica,sans-Serif" font-size="10.00">JS_CallConstructorInternal</text>
</a>
</g>
</g>
<!-- Node5&#45;&gt;Node6 -->
<g id="edge5" class="edge">
<title>Node5&#45;&gt;Node6</title>
<path fill="none" stroke="midnightblue" d="M469.34,-466.91C477.5,-466.91 486.1,-466.91 494.73,-466.91"/>
<polygon fill="midnightblue" stroke="midnightblue" points="494.83,-470.41 504.83,-466.91 494.83,-463.41 494.83,-470.41"/>
</g>
<!-- Node418 -->
<g id="node7" class="node">
<title>Node418</title>
<g id="a_node7"><a xlink:href="quickjs_8c.html#a93dbf502b17d1328c524401335f60499" target="_top" xlink:title=" ">
<polygon fill="none" stroke="red" points="689.5,-293.41 689.5,-312.41 802.5,-312.41 802.5,-293.41 689.5,-293.41"/>
<text text-anchor="middle" x="746" y="-300.41" font-family="Helvetica,sans-Serif" font-size="10.00">js_create_from_ctor</text>
</a>
</g>
</g>
<!-- Node6&#45;&gt;Node418 -->
<g id="edge6" class="edge">
<title>Node6&#45;&gt;Node418</title>
<path fill="none" stroke="midnightblue" d="M581.93,-457.13C594.22,-431.09 631.36,-359.46 684,-321.91 686.71,-319.98 689.62,-318.24 692.65,-316.67"/>
<polygon fill="midnightblue" stroke="midnightblue" points="694.32,-319.76 702.01,-312.47 691.45,-313.37 694.32,-319.76"/>
</g>
<!-- Node6&#45;&gt;Node61 -->
<g id="edge11" class="edge">
<title>Node6&#45;&gt;Node61</title>
<path fill="none" stroke="midnightblue" d="M612.89,-476.41C624.43,-480.17 637.08,-485.02 648,-490.91 665.84,-500.53 664.83,-512.33 684,-518.91 736.13,-536.8 756.71,-539.09 808,-518.91 836.65,-507.64 861.1,-480.64 875.04,-462.57"/>
<polygon fill="midnightblue" stroke="midnightblue" points="877.87,-464.63 881.02,-454.52 872.25,-460.46 877.87,-464.63"/>
</g>
<!-- Node6&#45;&gt;Node79 -->
<g id="edge12" class="edge">
<title>Node6&#45;&gt;Node79</title>
<path fill="none" stroke="midnightblue" d="M648.09,-470.96C695.34,-470.99 757.82,-465.72 808,-442.91 835.63,-430.35 859.94,-404.34 874.18,-386.75"/>
<polygon fill="midnightblue" stroke="midnightblue" points="877.28,-388.47 880.68,-378.43 871.77,-384.16 877.28,-388.47"/>
</g>
<!-- Node418&#45;&gt;Node40 -->
<g id="edge7" class="edge">
<title>Node418&#45;&gt;Node40</title>
<path fill="none" stroke="midnightblue" d="M795.18,-293.37C799.95,-290.91 804.37,-287.8 808,-283.91 855.36,-233.15 799.5,-185.2 844,-131.91 844.99,-130.72 846.07,-129.61 847.22,-128.56"/>
<polygon fill="midnightblue" stroke="midnightblue" points="849.5,-131.24 855.62,-122.59 845.44,-125.53 849.5,-131.24"/>
</g>
<!-- Node418&#45;&gt;Node61 -->
<g id="edge8" class="edge">
<title>Node418&#45;&gt;Node61</title>
<path fill="none" stroke="midnightblue" d="M792.04,-312.5C797.78,-314.96 803.28,-318.04 808,-321.91 833.84,-343.09 825.81,-359.88 844,-387.91 852.88,-401.59 864.06,-416.19 872.86,-427.19"/>
<polygon fill="midnightblue" stroke="midnightblue" points="870.3,-429.6 879.32,-435.16 875.74,-425.19 870.3,-429.6"/>
</g>
<!-- Node418&#45;&gt;Node79 -->
<g id="edge9" class="edge">
<title>Node418&#45;&gt;Node79</title>
<path fill="none" stroke="midnightblue" d="M782.67,-312.5C791.12,-315.18 799.99,-318.35 808,-321.91 828.21,-330.89 849.72,-343.83 865.26,-353.87"/>
<polygon fill="midnightblue" stroke="midnightblue" points="863.39,-356.82 873.67,-359.39 867.23,-350.97 863.39,-356.82"/>
</g>
<!-- Node418&#45;&gt;Node130 -->
<g id="edge10" class="edge">
<title>Node418&#45;&gt;Node130</title>
<path fill="none" stroke="midnightblue" d="M795.65,-293.38C800.28,-290.91 804.53,-287.8 808,-283.91 865.19,-219.75 790.42,-161.11 844,-93.91 844.96,-92.7 846.02,-91.57 847.15,-90.51"/>
<polygon fill="midnightblue" stroke="midnightblue" points="849.43,-93.18 855.47,-84.47 845.32,-87.51 849.43,-93.18"/>
</g>
<!-- Node430&#45;&gt;Node3 -->
<g id="edge18" class="edge">
<title>Node430&#45;&gt;Node3</title>
<path fill="none" stroke="midnightblue" d="M582.91,-328.57C594.86,-349.95 624.33,-402.97 648,-447.91 664.49,-479.22 663.35,-490.18 684,-518.91 696.15,-535.81 712.89,-552.48 725.77,-564.27"/>
<polygon fill="midnightblue" stroke="midnightblue" points="723.8,-567.21 733.58,-571.27 728.47,-561.99 723.8,-567.21"/>
</g>
<!-- Node430&#45;&gt;Node418 -->
<g id="edge21" class="edge">
<title>Node430&#45;&gt;Node418</title>
<path fill="none" stroke="midnightblue" d="M641.78,-312.77C654.03,-311.6 666.88,-310.37 679.18,-309.2"/>
<polygon fill="midnightblue" stroke="midnightblue" points="679.73,-312.66 689.36,-308.23 679.07,-305.69 679.73,-312.66"/>
</g>
<!-- Node430&#45;&gt;Node61 -->
<g id="edge27" class="edge">
<title>Node430&#45;&gt;Node61</title>
<path fill="none" stroke="midnightblue" d="M589.23,-328.42C608.12,-343.31 646.91,-372.12 684,-388.91 734.58,-411.8 796.57,-427.21 838.74,-435.98"/>
<polygon fill="midnightblue" stroke="midnightblue" points="838.26,-439.45 848.76,-438.01 839.65,-432.59 838.26,-439.45"/>
</g>
<!-- Node430&#45;&gt;Node79 -->
<g id="edge29" class="edge">
<title>Node430&#45;&gt;Node79</title>
<path fill="none" stroke="midnightblue" d="M591.86,-328.58C611.61,-341.24 648.72,-362.76 684,-370.91 734.14,-382.5 793.1,-380.25 834.62,-376.16"/>
<polygon fill="midnightblue" stroke="midnightblue" points="835.2,-379.62 844.78,-375.09 834.47,-372.66 835.2,-379.62"/>
</g>
<!-- Node200 -->
<g id="node13" class="node">
<title>Node200</title>
<g id="a_node13"><a xlink:href="list_8h.html#a663527a4d757540b2177bef0db1ce5c0" target="_top" xlink:title=" ">
<polygon fill="none" stroke="black" points="705,-217.41 705,-236.41 787,-236.41 787,-217.41 705,-217.41"/>
<text text-anchor="middle" x="746" y="-224.41" font-family="Helvetica,sans-Serif" font-size="10.00">init_list_head</text>
</a>
</g>
</g>
<!-- Node430&#45;&gt;Node200 -->
<g id="edge19" class="edge">
<title>Node430&#45;&gt;Node200</title>
<path fill="none" stroke="midnightblue" d="M588.92,-309.35C607.68,-294.07 646.68,-264 684,-245.91 688.62,-243.67 693.57,-241.62 698.57,-239.76"/>
<polygon fill="midnightblue" stroke="midnightblue" points="699.88,-243.01 708.19,-236.43 697.59,-236.39 699.88,-243.01"/>
</g>
<!-- Node289 -->
<g id="node14" class="node">
<title>Node289</title>
<g id="a_node14"><a xlink:href="quickjs_8c.html#a1a4c02a29525d5cb2085dd8bca3af350" target="_top" xlink:title=" ">
<polygon fill="none" stroke="red" points="721,-179.41 721,-198.41 771,-198.41 771,-179.41 721,-179.41"/>
<text text-anchor="middle" x="746" y="-186.41" font-family="Helvetica,sans-Serif" font-size="10.00">JS_Call</text>
</a>
</g>
</g>
<!-- Node430&#45;&gt;Node289 -->
<g id="edge20" class="edge">
<title>Node430&#45;&gt;Node289</title>
<path fill="none" stroke="midnightblue" d="M584.04,-309.33C599.12,-287.95 638.58,-236.01 684,-207.91 692.24,-202.81 701.97,-198.98 711.2,-196.14"/>
<polygon fill="midnightblue" stroke="midnightblue" points="712.23,-199.49 720.93,-193.44 710.36,-192.74 712.23,-199.49"/>
</g>
<!-- Node431 -->
<g id="node15" class="node">
<title>Node431</title>
<g id="a_node15"><a xlink:href="quickjs_8c.html#a37cac335cb6abd3c24e162ad57f418f1" target="_top" xlink:title=" ">
<polygon fill="none" stroke="red" points="690.5,-331.91 690.5,-361.91 801.5,-361.91 801.5,-331.91 690.5,-331.91"/>
<text text-anchor="start" x="698.5" y="-349.91" font-family="Helvetica,sans-Serif" font-size="10.00">js_create_resolving</text>
<text text-anchor="middle" x="746" y="-338.91" font-family="Helvetica,sans-Serif" font-size="10.00">_functions</text>
</a>
</g>
</g>
<!-- Node430&#45;&gt;Node431 -->
<g id="edge22" class="edge">
<title>Node430&#45;&gt;Node431</title>
<path fill="none" stroke="midnightblue" d="M634.68,-328.47C649.31,-330.91 665.14,-333.56 680.13,-336.07"/>
<polygon fill="midnightblue" stroke="midnightblue" points="679.9,-339.58 690.34,-337.77 681.06,-332.67 679.9,-339.58"/>
</g>
<!-- Node280 -->
<g id="node16" class="node">
<title>Node280</title>
<g id="a_node16"><a xlink:href="quickjs_8c.html#a0ddf716409e51648f0d59e7521150d19" target="_top" xlink:title=" ">
<polygon fill="none" stroke="black" points="846.5,-141.41 846.5,-160.41 930.5,-160.41 930.5,-141.41 846.5,-141.41"/>
<text text-anchor="middle" x="888.5" y="-148.41" font-family="Helvetica,sans-Serif" font-size="10.00">JS_SetOpaque</text>
</a>
</g>
</g>
<!-- Node430&#45;&gt;Node280 -->
<g id="edge30" class="edge">
<title>Node430&#45;&gt;Node280</title>
<path fill="none" stroke="midnightblue" d="M581.13,-309.04C591.86,-281.38 626.38,-203.03 684,-169.91 730.42,-143.23 792.83,-141.4 836.24,-144.4"/>
<polygon fill="midnightblue" stroke="midnightblue" points="836.05,-147.89 846.3,-145.2 836.61,-140.92 836.05,-147.89"/>
</g>
<!-- Node350 -->
<g id="node17" class="node">
<title>Node350</title>
<g id="a_node17"><a xlink:href="quickjs_8c.html#a8551eaac7ef616910807cebdc515760d" target="_top" xlink:title=" ">
<polygon fill="none" stroke="black" points="698,-255.41 698,-274.41 794,-274.41 794,-255.41 698,-255.41"/>
<text text-anchor="middle" x="746" y="-262.41" font-family="Helvetica,sans-Serif" font-size="10.00">JS_GetException</text>
</a>
</g>
</g>
<!-- Node430&#45;&gt;Node350 -->
<g id="edge28" class="edge">
<title>Node430&#45;&gt;Node350</title>
<path fill="none" stroke="midnightblue" d="M606.39,-309.28C627.79,-302.18 657.68,-292.33 684,-283.91 690.53,-281.82 697.46,-279.63 704.22,-277.52"/>
<polygon fill="midnightblue" stroke="midnightblue" points="705.44,-280.8 713.94,-274.48 703.35,-274.12 705.44,-280.8"/>
</g>
<!-- Node431&#45;&gt;Node40 -->
<g id="edge23" class="edge">
<title>Node431&#45;&gt;Node40</title>
<path fill="none" stroke="midnightblue" d="M796.66,-331.9C800.92,-329.11 804.82,-325.81 808,-321.91 862.35,-255.33 790.42,-199.11 844,-131.91 844.96,-130.7 846.02,-129.57 847.15,-128.51"/>
<polygon fill="midnightblue" stroke="midnightblue" points="849.43,-131.18 855.47,-122.47 845.32,-125.51 849.43,-131.18"/>
</g>
<!-- Node431&#45;&gt;Node61 -->
<g id="edge24" class="edge">
<title>Node431&#45;&gt;Node61</title>
<path fill="none" stroke="midnightblue" d="M768.65,-362.01C794.93,-380.34 839,-411.08 865.46,-429.54"/>
<polygon fill="midnightblue" stroke="midnightblue" points="863.5,-432.44 873.71,-435.29 867.51,-426.7 863.5,-432.44"/>
</g>
<!-- Node431&#45;&gt;Node79 -->
<g id="edge25" class="edge">
<title>Node431&#45;&gt;Node79</title>
<path fill="none" stroke="midnightblue" d="M801.72,-355.48C812.58,-357.18 823.97,-358.96 834.76,-360.65"/>
<polygon fill="midnightblue" stroke="midnightblue" points="834.47,-364.15 844.89,-362.24 835.55,-357.23 834.47,-364.15"/>
</g>
<!-- Node431&#45;&gt;Node280 -->
<g id="edge26" class="edge">
<title>Node431&#45;&gt;Node280</title>
<path fill="none" stroke="midnightblue" d="M794.2,-331.9C799.21,-329.09 803.94,-325.78 808,-321.91 853.08,-278.87 875.08,-205.26 883.4,-170.37"/>
<polygon fill="midnightblue" stroke="midnightblue" points="886.84,-171.01 885.63,-160.48 880.01,-169.47 886.84,-171.01"/>
</g>
<!-- Node434 -->
<g id="node19" class="node">
<title>Node434</title>
<g id="a_node19"><a xlink:href="quickjs_8c.html#ac048b0ff95f3f0cb7c189e87f74df753" target="_top" xlink:title=" ">
<polygon fill="none" stroke="red" points="684,-103.41 684,-122.41 808,-122.41 808,-103.41 684,-103.41"/>
<text text-anchor="middle" x="746" y="-110.41" font-family="Helvetica,sans-Serif" font-size="10.00">JS_NewCFunctionData</text>
</a>
</g>
</g>
<!-- Node433&#45;&gt;Node434 -->
<g id="edge32" class="edge">
<title>Node433&#45;&gt;Node434</title>
<path fill="none" stroke="midnightblue" d="M648.05,-112.91C656.5,-112.91 665.14,-112.91 673.61,-112.91"/>
<polygon fill="midnightblue" stroke="midnightblue" points="673.82,-116.41 683.82,-112.91 673.82,-109.41 673.82,-116.41"/>
</g>
<!-- Node435 -->
<g id="node20" class="node">
<title>Node435</title>
<g id="a_node20"><a xlink:href="quickjs_8c.html#aed99ec153927810be5f51c59ecdbb5ab" target="_top" xlink:title=" ">
<polygon fill="none" stroke="black" points="687.5,-65.41 687.5,-84.41 804.5,-84.41 804.5,-65.41 687.5,-65.41"/>
<text text-anchor="middle" x="746" y="-72.41" font-family="Helvetica,sans-Serif" font-size="10.00">js_promise_executor</text>
</a>
</g>
</g>
<!-- Node433&#45;&gt;Node435 -->
<g id="edge37" class="edge">
<title>Node433&#45;&gt;Node435</title>
<path fill="none" stroke="midnightblue" d="M619.77,-103.32C642.07,-98.26 669.62,-92.01 693.2,-86.66"/>
<polygon fill="midnightblue" stroke="midnightblue" points="694.06,-90.06 703.04,-84.43 692.51,-83.23 694.06,-90.06"/>
</g>
<!-- Node434&#45;&gt;Node40 -->
<g id="edge33" class="edge">
<title>Node434&#45;&gt;Node40</title>
<path fill="none" stroke="midnightblue" d="M808.22,-112.91C818.75,-112.91 829.57,-112.91 839.69,-112.91"/>
<polygon fill="midnightblue" stroke="midnightblue" points="839.94,-116.41 849.94,-112.91 839.94,-109.41 839.94,-116.41"/>
</g>
<!-- Node434&#45;&gt;Node61 -->
<g id="edge34" class="edge">
<title>Node434&#45;&gt;Node61</title>
<path fill="none" stroke="midnightblue" d="M761.95,-122.51C776.23,-132.53 797.12,-149.59 808,-169.91 854.34,-256.49 805.06,-297.76 844,-387.91 850.39,-402.7 861.43,-417.1 870.79,-427.73"/>
<polygon fill="midnightblue" stroke="midnightblue" points="868.48,-430.38 877.82,-435.38 873.63,-425.65 868.48,-430.38"/>
</g>
<!-- Node434&#45;&gt;Node79 -->
<g id="edge35" class="edge">
<title>Node434&#45;&gt;Node79</title>
<path fill="none" stroke="midnightblue" d="M760.27,-122.48C773.84,-132.85 794.75,-150.53 808,-169.91 848.34,-228.92 872.91,-311.44 882.66,-348.95"/>
<polygon fill="midnightblue" stroke="midnightblue" points="879.37,-350.22 885.21,-359.07 886.16,-348.51 879.37,-350.22"/>
</g>
<!-- Node434&#45;&gt;Node280 -->
<g id="edge36" class="edge">
<title>Node434&#45;&gt;Node280</title>
<path fill="none" stroke="midnightblue" d="M782.45,-122.5C800.59,-127.41 822.87,-133.43 842.23,-138.67"/>
<polygon fill="midnightblue" stroke="midnightblue" points="841.49,-142.09 852.06,-141.33 843.32,-135.34 841.49,-142.09"/>
</g>
<!-- Node435&#45;&gt;Node40 -->
<g id="edge38" class="edge">
<title>Node435&#45;&gt;Node40</title>
<path fill="none" stroke="midnightblue" d="M782.45,-84.5C800.59,-89.41 822.87,-95.43 842.23,-100.67"/>
<polygon fill="midnightblue" stroke="midnightblue" points="841.49,-104.09 852.06,-103.33 843.32,-97.34 841.49,-104.09"/>
</g>
<!-- Node435&#45;&gt;Node130 -->
<g id="edge39" class="edge">
<title>Node435&#45;&gt;Node130</title>
<path fill="none" stroke="midnightblue" d="M804.55,-74.91C814.12,-74.91 824.02,-74.91 833.5,-74.91"/>
<polygon fill="midnightblue" stroke="midnightblue" points="833.59,-78.41 843.59,-74.91 833.59,-71.41 833.59,-78.41"/>
</g>
</g>
</svg>
        <g id="navigator" transform="translate(0 0)" fill="#404254">
                <rect fill="#f2f5e9" fill-opacity="0.5" stroke="#606060" stroke-width=".5" x="0" y="0" width="60" height="60"/>
                <use id="zoomplus" xlink:href="#zoomPlus" x="17" y="9" onmousedown="handleZoom(evt,'in')"/>
                <use id="zoomminus" xlink:href="#zoomMin" x="42" y="9" onmousedown="handleZoom(evt,'out')"/>
                <use id="reset" xlink:href="#resetDef" x="30" y="36" onmousedown="handleReset()"/>
                <g id="arrowUp" xlink:href="#dirArrow" transform="translate(30 24)" onmousedown="handlePan(0,-1)">
                  <use xlink:href="#rim" fill="#404040">
                        <set attributeName="fill" to="#808080" begin="arrowUp.mouseover" end="arrowUp.mouseout"/>
                  </use>
                  <path fill="none" stroke="white" stroke-width="1.5" d="M0,-3.0v7 M-2.5,-0.5L0,-3.0L2.5,-0.5"/>
                </g>
                <g id="arrowRight" xlink:href="#dirArrow" transform="rotate(90) translate(36 -43)" onmousedown="handlePan(1,0)">
                  <use xlink:href="#rim" fill="#404040">
                        <set attributeName="fill" to="#808080" begin="arrowRight.mouseover" end="arrowRight.mouseout"/>
                  </use>
                  <path fill="none" stroke="white" stroke-width="1.5" d="M0,-3.0v7 M-2.5,-0.5L0,-3.0L2.5,-0.5"/>
                </g>
                <g id="arrowDown" xlink:href="#dirArrow" transform="rotate(180) translate(-30 -48)" onmousedown="handlePan(0,1)">
                  <use xlink:href="#rim" fill="#404040">
                        <set attributeName="fill" to="#808080" begin="arrowDown.mouseover" end="arrowDown.mouseout"/>
                  </use>
                  <path fill="none" stroke="white" stroke-width="1.5" d="M0,-3.0v7 M-2.5,-0.5L0,-3.0L2.5,-0.5"/>
                </g>
                <g id="arrowLeft" xlink:href="#dirArrow" transform="rotate(270) translate(-36 17)" onmousedown="handlePan(-1,0)">
                  <use xlink:href="#rim" fill="#404040">
                        <set attributeName="fill" to="#808080" begin="arrowLeft.mouseover" end="arrowLeft.mouseout"/>
                  </use>
                  <path fill="none" stroke="white" stroke-width="1.5" d="M0,-3.0v7 M-2.5,-0.5L0,-3.0L2.5,-0.5"/>
                </g>
        </g>
        <svg viewBox="0 0 15 15" width="100%" height="30px" preserveAspectRatio="xMaxYMin meet">
         <g id="arrow_out" transform="scale(0.3 0.3)">
          <a xlink:href="quickjs_8h_a2287eaf81466a0d408341cdae08ed673_cgraph_org.svg" target="_base">
           <rect id="button" ry="5" rx="5" y="6" x="6" height="38" width="38"
                fill="#f2f5e9" fill-opacity="0.5" stroke="#606060" stroke-width="1.0"/>
           <path id="arrow"
             d="M 11.500037,31.436501 C 11.940474,20.09759 22.043105,11.32322 32.158766,21.979434 L 37.068811,17.246167 C 37.068811,17.246167 37.088388,32 37.088388,32 L 22.160133,31.978069 C 22.160133,31.978069 26.997745,27.140456 26.997745,27.140456 C 18.528582,18.264221 13.291696,25.230495 11.500037,31.436501 z"
             style="fill:#404040;"/>
          </a>
         </g>
        </svg>
</svg>
