<?xml version="1.0" encoding="UTF-8" standalone="no"?>
<!DOCTYPE svg PUBLIC "-//W3C//DTD SVG 1.1//EN"
 "http://www.w3.org/Graphics/SVG/1.1/DTD/svg11.dtd">
<!-- Generated by graphviz version 2.43.0 (0)
 -->
<!-- Title: js_typed_array_constructor_obj Pages: 1 -->
<svg width="1071pt" height="811pt"
 viewBox="0.00 0.00 1071.00 811.47" xmlns="http://www.w3.org/2000/svg" xmlns:xlink="http://www.w3.org/1999/xlink">
<g id="graph0" class="graph" transform="scale(1 1) rotate(0) translate(4 807.47)">
<title>js_typed_array_constructor_obj</title>
<!-- Node1 -->
<g id="node1" class="node">
<title>Node1</title>
<g id="a_node1"><a xlink:title=" ">
<polygon fill="#bfbfbf" stroke="black" points="0,-370.73 0,-389.73 169,-389.73 169,-370.73 0,-370.73"/>
<text text-anchor="middle" x="84.5" y="-377.73" font-family="Helvetica,sans-Serif" font-size="10.00">js_typed_array_constructor_obj</text>
</a>
</g>
</g>
<!-- Node2 -->
<g id="node2" class="node">
<title>Node2</title>
<g id="a_node2"><a xlink:href="quickjs_8c.html#aca93646daffcd067d273c79efa6dda37" target="_top" xlink:title=" ">
<polygon fill="none" stroke="black" points="205,-636.73 205,-655.73 360,-655.73 360,-636.73 205,-636.73"/>
<text text-anchor="middle" x="282.5" y="-643.73" font-family="Helvetica,sans-Serif" font-size="10.00">js_array_buffer_constructor1</text>
</a>
</g>
</g>
<!-- Node1&#45;&gt;Node2 -->
<g id="edge1" class="edge">
<title>Node1&#45;&gt;Node2</title>
<path fill="none" stroke="midnightblue" d="M87.38,-389.75C95.01,-425.84 127.05,-555.49 205,-622.23 209.86,-626.39 215.43,-629.83 221.32,-632.67"/>
<polygon fill="midnightblue" stroke="midnightblue" points="220.18,-635.99 230.75,-636.67 222.91,-629.55 220.18,-635.99"/>
</g>
<!-- Node6 -->
<g id="node5" class="node">
<title>Node6</title>
<g id="a_node5"><a xlink:href="quickjs_8c.html#a93dbf502b17d1328c524401335f60499" target="_top" xlink:title=" ">
<polygon fill="none" stroke="red" points="801.5,-712.73 801.5,-731.73 914.5,-731.73 914.5,-712.73 801.5,-712.73"/>
<text text-anchor="middle" x="858" y="-719.73" font-family="Helvetica,sans-Serif" font-size="10.00">js_create_from_ctor</text>
</a>
</g>
</g>
<!-- Node1&#45;&gt;Node6 -->
<g id="edge26" class="edge">
<title>Node1&#45;&gt;Node6</title>
<path fill="none" stroke="midnightblue" d="M86.17,-389.95C89.6,-431.37 109,-594.28 205,-665.23 296.58,-732.91 644.45,-729.55 791.14,-724.91"/>
<polygon fill="midnightblue" stroke="midnightblue" points="791.47,-728.4 801.34,-724.57 791.24,-721.4 791.47,-728.4"/>
</g>
<!-- Node7 -->
<g id="node6" class="node">
<title>Node7</title>
<g id="a_node6"><a xlink:href="quickjs_8h.html#a775522f2d084fc8fa0fcb33f390006b4" target="_top" xlink:title=" ">
<polygon fill="none" stroke="black" points="980,-712.73 980,-731.73 1057,-731.73 1057,-712.73 980,-712.73"/>
<text text-anchor="middle" x="1018.5" y="-719.73" font-family="Helvetica,sans-Serif" font-size="10.00">JS_DupValue</text>
</a>
</g>
</g>
<!-- Node1&#45;&gt;Node7 -->
<g id="edge27" class="edge">
<title>Node1&#45;&gt;Node7</title>
<path fill="none" stroke="midnightblue" d="M85.92,-389.93C88.38,-433.61 104.48,-613.83 205,-701.23 296.87,-781.12 350.75,-760.23 472.5,-760.23 472.5,-760.23 472.5,-760.23 665.5,-760.23 786.91,-760.23 818,-759.63 938,-741.23 949.5,-739.47 961.79,-736.89 973.18,-734.19"/>
<polygon fill="midnightblue" stroke="midnightblue" points="974.03,-737.58 982.92,-731.81 972.37,-730.78 974.03,-737.58"/>
</g>
<!-- Node8 -->
<g id="node7" class="node">
<title>Node8</title>
<g id="a_node7"><a xlink:href="quickjs_8h.html#afaa20c47565bc704c6c85f3d77254e7d" target="_top" xlink:title=" ">
<polygon fill="none" stroke="red" points="979,-294.73 979,-313.73 1058,-313.73 1058,-294.73 979,-294.73"/>
<text text-anchor="middle" x="1018.5" y="-301.73" font-family="Helvetica,sans-Serif" font-size="10.00">JS_FreeValue</text>
</a>
</g>
</g>
<!-- Node1&#45;&gt;Node8 -->
<g id="edge28" class="edge">
<title>Node1&#45;&gt;Node8</title>
<path fill="none" stroke="midnightblue" d="M85.39,-370.49C85.43,-324.12 92.33,-124.38 205,-38.23 299.68,34.16 353.31,-19.23 472.5,-19.23 472.5,-19.23 472.5,-19.23 665.5,-19.23 787.25,-19.23 843.84,29.95 938,-47.23 1011.74,-107.67 1018.43,-235.13 1018.11,-284.3"/>
<polygon fill="midnightblue" stroke="midnightblue" points="1014.61,-284.48 1017.93,-294.54 1021.61,-284.61 1014.61,-284.48"/>
</g>
<!-- Node48 -->
<g id="node8" class="node">
<title>Node48</title>
<g id="a_node8"><a xlink:href="quickjs_8h.html#a89b7c8686c7eee70b86be722ee4730ad" target="_top" xlink:title=" ">
<polygon fill="none" stroke="red" points="974,-446.73 974,-465.73 1063,-465.73 1063,-446.73 974,-446.73"/>
<text text-anchor="middle" x="1018.5" y="-453.73" font-family="Helvetica,sans-Serif" font-size="10.00">JS_GetProperty</text>
</a>
</g>
</g>
<!-- Node1&#45;&gt;Node48 -->
<g id="edge36" class="edge">
<title>Node1&#45;&gt;Node48</title>
<path fill="none" stroke="midnightblue" d="M109.7,-370.57C233.91,-321.68 799.5,-107.73 938,-209.23 980.86,-240.64 957.74,-272.65 974,-323.23 987.01,-363.71 1002.56,-411 1011.1,-436.87"/>
<polygon fill="midnightblue" stroke="midnightblue" points="1007.84,-438.17 1014.3,-446.56 1014.49,-435.97 1007.84,-438.17"/>
</g>
<!-- Node57 -->
<g id="node9" class="node">
<title>Node57</title>
<g id="a_node9"><a xlink:href="quickjs_8h.html#ad80a83d73e9b7d872b88fbf2943aebe9" target="_top" xlink:title=" ">
<polygon fill="none" stroke="black" points="975,-560.73 975,-579.73 1062,-579.73 1062,-560.73 975,-560.73"/>
<text text-anchor="middle" x="1018.5" y="-567.73" font-family="Helvetica,sans-Serif" font-size="10.00">JS_IsException</text>
</a>
</g>
</g>
<!-- Node1&#45;&gt;Node57 -->
<g id="edge39" class="edge">
<title>Node1&#45;&gt;Node57</title>
<path fill="none" stroke="midnightblue" d="M93.68,-389.74C131.8,-432.89 297.43,-608.23 472.5,-608.23 472.5,-608.23 472.5,-608.23 665.5,-608.23 787.01,-608.23 817.68,-603.14 938,-586.23 946.71,-585.01 955.91,-583.43 964.83,-581.74"/>
<polygon fill="midnightblue" stroke="midnightblue" points="965.61,-585.15 974.75,-579.8 964.26,-578.28 965.61,-585.15"/>
</g>
<!-- Node213 -->
<g id="node10" class="node">
<title>Node213</title>
<g id="a_node10"><a xlink:href="quickjs_8h.html#a4e407128a9605afb77523e49e9a627fd" target="_top" xlink:title=" ">
<polygon fill="none" stroke="black" points="974,-769.73 974,-788.73 1063,-788.73 1063,-769.73 974,-769.73"/>
<text text-anchor="middle" x="1018.5" y="-776.73" font-family="Helvetica,sans-Serif" font-size="10.00">JS_IsUndefined</text>
</a>
</g>
</g>
<!-- Node1&#45;&gt;Node213 -->
<g id="edge41" class="edge">
<title>Node1&#45;&gt;Node213</title>
<path fill="none" stroke="midnightblue" d="M85.39,-389.98C85.43,-437.35 92.21,-645.3 205,-745.23 295.72,-825.6 351.3,-798.23 472.5,-798.23 472.5,-798.23 472.5,-798.23 665.5,-798.23 771.3,-798.23 894.73,-789.57 963.73,-783.94"/>
<polygon fill="midnightblue" stroke="midnightblue" points="964.24,-787.41 973.91,-783.1 963.66,-780.43 964.24,-787.41"/>
</g>
<!-- Node440 -->
<g id="node12" class="node">
<title>Node440</title>
<g id="a_node12"><a xlink:href="quickjs_8c.html#a54596af885c45bf0281d53985349e9ef" target="_top" xlink:title=" ">
<polygon fill="none" stroke="black" points="602,-370.73 602,-389.73 727,-389.73 727,-370.73 602,-370.73"/>
<text text-anchor="middle" x="664.5" y="-377.73" font-family="Helvetica,sans-Serif" font-size="10.00">js_array_from_iterator</text>
</a>
</g>
</g>
<!-- Node1&#45;&gt;Node440 -->
<g id="edge13" class="edge">
<title>Node1&#45;&gt;Node440</title>
<path fill="none" stroke="midnightblue" d="M169.24,-380.23C283.05,-380.23 484.63,-380.23 591.82,-380.23"/>
<polygon fill="midnightblue" stroke="midnightblue" points="591.89,-383.73 601.89,-380.23 591.89,-376.73 591.89,-383.73"/>
</g>
<!-- Node441 -->
<g id="node17" class="node">
<title>Node441</title>
<g id="a_node17"><a xlink:href="quickjs_8c.html#a5f848f76409193212a44e6221e430919" target="_top" xlink:title=" ">
<polygon fill="none" stroke="black" points="426.5,-503.73 426.5,-522.73 520.5,-522.73 520.5,-503.73 426.5,-503.73"/>
<text text-anchor="middle" x="473.5" y="-510.73" font-family="Helvetica,sans-Serif" font-size="10.00">js_get_length64</text>
</a>
</g>
</g>
<!-- Node1&#45;&gt;Node441 -->
<g id="edge29" class="edge">
<title>Node1&#45;&gt;Node441</title>
<path fill="none" stroke="midnightblue" d="M113.33,-389.8C181.59,-413.25 357.34,-473.65 434.83,-500.29"/>
<polygon fill="midnightblue" stroke="midnightblue" points="434.07,-503.72 444.66,-503.66 436.34,-497.1 434.07,-503.72"/>
</g>
<!-- Node133 -->
<g id="node20" class="node">
<title>Node133</title>
<g id="a_node20"><a xlink:href="quickjs_8c.html#aeb97957655d979e9fe56c955da2b2d4b" target="_top" xlink:title=" ">
<polygon fill="none" stroke="red" points="221.5,-123.73 221.5,-142.73 343.5,-142.73 343.5,-123.73 221.5,-123.73"/>
<text text-anchor="middle" x="282.5" y="-130.73" font-family="Helvetica,sans-Serif" font-size="10.00">JS_GetPropertyUint32</text>
</a>
</g>
</g>
<!-- Node1&#45;&gt;Node133 -->
<g id="edge37" class="edge">
<title>Node1&#45;&gt;Node133</title>
<path fill="none" stroke="midnightblue" d="M87.55,-370.63C95.6,-335.43 128.38,-212.41 205,-152.23 207.32,-150.41 209.79,-148.76 212.38,-147.26"/>
<polygon fill="midnightblue" stroke="midnightblue" points="214.09,-150.32 221.52,-142.76 211,-144.04 214.09,-150.32"/>
</g>
<!-- Node211 -->
<g id="node22" class="node">
<title>Node211</title>
<g id="a_node22"><a xlink:href="quickjs_8h.html#a149f24b67e745bad93573b3b4c80db4c" target="_top" xlink:title=" ">
<polygon fill="none" stroke="black" points="253,-85.73 253,-104.73 312,-104.73 312,-85.73 253,-85.73"/>
<text text-anchor="middle" x="282.5" y="-92.73" font-family="Helvetica,sans-Serif" font-size="10.00">JS_IsNull</text>
</a>
</g>
</g>
<!-- Node1&#45;&gt;Node211 -->
<g id="edge40" class="edge">
<title>Node1&#45;&gt;Node211</title>
<path fill="none" stroke="midnightblue" d="M86.78,-370.7C92.46,-332.08 119.14,-185.97 205,-114.23 215.63,-105.35 229.81,-100.52 243.07,-97.93"/>
<polygon fill="midnightblue" stroke="midnightblue" points="243.64,-101.39 252.96,-96.35 242.54,-94.47 243.64,-101.39"/>
</g>
<!-- Node445 -->
<g id="node23" class="node">
<title>Node445</title>
<g id="a_node23"><a xlink:href="quickjs_8c.html#aae909eaec829081b270012adfcd717a4" target="_top" xlink:title=" ">
<polygon fill="none" stroke="black" points="222.5,-47.73 222.5,-66.73 342.5,-66.73 342.5,-47.73 222.5,-47.73"/>
<text text-anchor="middle" x="282.5" y="-54.73" font-family="Helvetica,sans-Serif" font-size="10.00">JS_SetPropertyUint32</text>
</a>
</g>
</g>
<!-- Node1&#45;&gt;Node445 -->
<g id="edge42" class="edge">
<title>Node1&#45;&gt;Node445</title>
<path fill="none" stroke="midnightblue" d="M86.21,-370.54C89.81,-328.4 109.91,-159.6 205,-76.23 207.52,-74.02 210.26,-72.06 213.15,-70.32"/>
<polygon fill="midnightblue" stroke="midnightblue" points="214.88,-73.37 222.22,-65.74 211.72,-67.12 214.88,-73.37"/>
</g>
<!-- Node446 -->
<g id="node25" class="node">
<title>Node446</title>
<g id="a_node25"><a xlink:href="quickjs_8c.html#aa74340c43f57c6a6d9210a7cbb191e71" target="_top" xlink:title=" ">
<polygon fill="none" stroke="black" points="234.5,-161.73 234.5,-180.73 330.5,-180.73 330.5,-161.73 234.5,-161.73"/>
<text text-anchor="middle" x="282.5" y="-168.73" font-family="Helvetica,sans-Serif" font-size="10.00">typed_array_init</text>
</a>
</g>
</g>
<!-- Node1&#45;&gt;Node446 -->
<g id="edge46" class="edge">
<title>Node1&#45;&gt;Node446</title>
<path fill="none" stroke="midnightblue" d="M89,-370.5C100.5,-339.87 140.2,-244.56 205,-195.23 210.86,-190.77 217.57,-187.13 224.53,-184.15"/>
<polygon fill="midnightblue" stroke="midnightblue" points="226.01,-187.33 234.11,-180.5 223.52,-180.79 226.01,-187.33"/>
</g>
<!-- Node3 -->
<g id="node3" class="node">
<title>Node3</title>
<g id="a_node3"><a xlink:href="quickjs_8c.html#a26d438ccdb07d84370683eb01eda3013" target="_top" xlink:title=" ">
<polygon fill="none" stroke="black" points="396,-636.73 396,-655.73 551,-655.73 551,-636.73 396,-636.73"/>
<text text-anchor="middle" x="473.5" y="-643.73" font-family="Helvetica,sans-Serif" font-size="10.00">js_array_buffer_constructor2</text>
</a>
</g>
</g>
<!-- Node2&#45;&gt;Node3 -->
<g id="edge2" class="edge">
<title>Node2&#45;&gt;Node3</title>
<path fill="none" stroke="midnightblue" d="M360.1,-646.23C368.56,-646.23 377.22,-646.23 385.79,-646.23"/>
<polygon fill="midnightblue" stroke="midnightblue" points="385.79,-649.73 395.79,-646.23 385.79,-642.73 385.79,-649.73"/>
</g>
<!-- Node4 -->
<g id="node4" class="node">
<title>Node4</title>
<g id="a_node4"><a xlink:href="quickjs_8c.html#a06f84cf8ea00e2baf1a9b94f1a319b18" target="_top" xlink:title=" ">
<polygon fill="none" stroke="red" points="587,-636.73 587,-655.73 742,-655.73 742,-636.73 587,-636.73"/>
<text text-anchor="middle" x="664.5" y="-643.73" font-family="Helvetica,sans-Serif" font-size="10.00">js_array_buffer_constructor3</text>
</a>
</g>
</g>
<!-- Node3&#45;&gt;Node4 -->
<g id="edge3" class="edge">
<title>Node3&#45;&gt;Node4</title>
<path fill="none" stroke="midnightblue" d="M551.1,-646.23C559.56,-646.23 568.22,-646.23 576.79,-646.23"/>
<polygon fill="midnightblue" stroke="midnightblue" points="576.79,-649.73 586.79,-646.23 576.79,-642.73 576.79,-649.73"/>
</g>
<!-- Node439 -->
<g id="node11" class="node">
<title>Node439</title>
<g id="a_node11"><a xlink:href="quickjs_8c.html#a4e2ed26457b779e5bd73472de8be124c" target="_top" xlink:title=" ">
<polygon fill="none" stroke="red" points="607.5,-674.73 607.5,-693.73 721.5,-693.73 721.5,-674.73 607.5,-674.73"/>
<text text-anchor="middle" x="664.5" y="-681.73" font-family="Helvetica,sans-Serif" font-size="10.00">js_array_buffer_free</text>
</a>
</g>
</g>
<!-- Node3&#45;&gt;Node439 -->
<g id="edge12" class="edge">
<title>Node3&#45;&gt;Node439</title>
<path fill="none" stroke="midnightblue" d="M522.19,-655.82C547.7,-660.95 579.28,-667.3 606.12,-672.7"/>
<polygon fill="midnightblue" stroke="midnightblue" points="605.66,-676.17 616.15,-674.71 607.04,-669.31 605.66,-676.17"/>
</g>
<!-- Node4&#45;&gt;Node6 -->
<g id="edge4" class="edge">
<title>Node4&#45;&gt;Node6</title>
<path fill="none" stroke="midnightblue" d="M720.5,-655.83C728,-658.29 735.38,-661.37 742,-665.23 762.1,-676.95 757.86,-691.59 778,-703.23 782.39,-705.77 787.11,-707.97 791.97,-709.88"/>
<polygon fill="midnightblue" stroke="midnightblue" points="790.86,-713.2 801.45,-713.2 793.17,-706.59 790.86,-713.2"/>
</g>
<!-- Node4&#45;&gt;Node8 -->
<g id="edge10" class="edge">
<title>Node4&#45;&gt;Node8</title>
<path fill="none" stroke="midnightblue" d="M676.1,-636.57C692.94,-620.57 725.58,-586.8 742,-551.23 778.03,-473.2 718.27,-423.03 778,-361.23 828.66,-308.82 867.2,-342.54 938,-325.23 949.26,-322.48 961.38,-319.36 972.68,-316.38"/>
<polygon fill="midnightblue" stroke="midnightblue" points="973.58,-319.76 982.35,-313.82 971.79,-313 973.58,-319.76"/>
</g>
<!-- Node4&#45;&gt;Node57 -->
<g id="edge11" class="edge">
<title>Node4&#45;&gt;Node57</title>
<path fill="none" stroke="midnightblue" d="M742.17,-649.33C797.95,-649.25 874.5,-644.23 938,-622.23 960.67,-614.38 983.24,-598.66 998.51,-586.55"/>
<polygon fill="midnightblue" stroke="midnightblue" points="1001.08,-588.97 1006.6,-579.93 996.65,-583.56 1001.08,-588.97"/>
</g>
<!-- Node6&#45;&gt;Node7 -->
<g id="edge5" class="edge">
<title>Node6&#45;&gt;Node7</title>
<path fill="none" stroke="midnightblue" d="M914.88,-722.23C932.74,-722.23 952.34,-722.23 969.59,-722.23"/>
<polygon fill="midnightblue" stroke="midnightblue" points="969.98,-725.73 979.98,-722.23 969.98,-718.73 969.98,-725.73"/>
</g>
<!-- Node6&#45;&gt;Node8 -->
<g id="edge6" class="edge">
<title>Node6&#45;&gt;Node8</title>
<path fill="none" stroke="midnightblue" d="M914.64,-717.79C923.49,-714.75 931.76,-710.14 938,-703.23 977.98,-658.97 960.67,-495.37 974,-437.23 983.5,-395.79 1000.34,-348.86 1010.04,-323.31"/>
<polygon fill="midnightblue" stroke="midnightblue" points="1013.4,-324.33 1013.72,-313.74 1006.87,-321.82 1013.4,-324.33"/>
</g>
<!-- Node6&#45;&gt;Node48 -->
<g id="edge7" class="edge">
<title>Node6&#45;&gt;Node48</title>
<path fill="none" stroke="midnightblue" d="M914.9,-716.99C923.5,-714.01 931.63,-709.63 938,-703.23 987.01,-654.06 951.44,-616.89 974,-551.23 983.39,-523.89 997.95,-493.78 1007.6,-474.94"/>
<polygon fill="midnightblue" stroke="midnightblue" points="1010.76,-476.44 1012.27,-465.95 1004.55,-473.21 1010.76,-476.44"/>
</g>
<!-- Node6&#45;&gt;Node57 -->
<g id="edge8" class="edge">
<title>Node6&#45;&gt;Node57</title>
<path fill="none" stroke="midnightblue" d="M914.61,-714.83C922.95,-712.08 931.07,-708.33 938,-703.23 977.57,-674.14 1001.13,-618.89 1011.4,-589.6"/>
<polygon fill="midnightblue" stroke="midnightblue" points="1014.73,-590.67 1014.58,-580.07 1008.09,-588.45 1014.73,-590.67"/>
</g>
<!-- Node6&#45;&gt;Node213 -->
<g id="edge9" class="edge">
<title>Node6&#45;&gt;Node213</title>
<path fill="none" stroke="midnightblue" d="M885.53,-731.77C911.82,-741.23 952.27,-755.77 981.45,-766.27"/>
<polygon fill="midnightblue" stroke="midnightblue" points="980.29,-769.57 990.88,-769.66 982.66,-762.98 980.29,-769.57"/>
</g>
<!-- Node440&#45;&gt;Node8 -->
<g id="edge15" class="edge">
<title>Node440&#45;&gt;Node8</title>
<path fill="none" stroke="midnightblue" d="M668.32,-370.42C677.74,-339.68 711.37,-245.15 778,-209.23 840.59,-175.49 873.57,-179.14 938,-209.23 971.61,-224.93 996.02,-262.6 1008.37,-285.51"/>
<polygon fill="midnightblue" stroke="midnightblue" points="1005.35,-287.3 1013.05,-294.59 1011.58,-284.1 1005.35,-287.3"/>
</g>
<!-- Node440&#45;&gt;Node48 -->
<g id="edge19" class="edge">
<title>Node440&#45;&gt;Node48</title>
<path fill="none" stroke="midnightblue" d="M680.02,-389.94C700.75,-403.25 740.48,-426.68 778,-437.23 840.04,-454.67 914.44,-457.98 963.67,-457.87"/>
<polygon fill="midnightblue" stroke="midnightblue" points="963.81,-461.36 973.78,-457.79 963.76,-454.36 963.81,-461.36"/>
</g>
<!-- Node440&#45;&gt;Node57 -->
<g id="edge20" class="edge">
<title>Node440&#45;&gt;Node57</title>
<path fill="none" stroke="midnightblue" d="M677.13,-389.79C696.99,-405.84 739.07,-438.65 778,-461.23 847.73,-501.67 935.12,-538.15 982.69,-556.91"/>
<polygon fill="midnightblue" stroke="midnightblue" points="981.63,-560.26 992.22,-560.64 984.18,-553.74 981.63,-560.26"/>
</g>
<!-- Node267 -->
<g id="node13" class="node">
<title>Node267</title>
<g id="a_node13"><a xlink:href="quickjs_8c.html#aa44ddb5f94a842c9c5152a17032de580" target="_top" xlink:title=" ">
<polygon fill="none" stroke="red" points="778,-218.73 778,-237.73 938,-237.73 938,-218.73 778,-218.73"/>
<text text-anchor="middle" x="858" y="-225.73" font-family="Helvetica,sans-Serif" font-size="10.00">JS_CreateDataPropertyUint32</text>
</a>
</g>
</g>
<!-- Node440&#45;&gt;Node267 -->
<g id="edge14" class="edge">
<title>Node440&#45;&gt;Node267</title>
<path fill="none" stroke="midnightblue" d="M670.83,-370.37C684.83,-345.48 725.22,-279.76 778,-247.23 781.41,-245.13 785.05,-243.26 788.8,-241.59"/>
<polygon fill="midnightblue" stroke="midnightblue" points="790.31,-244.76 798.35,-237.87 787.76,-238.24 790.31,-244.76"/>
</g>
<!-- Node283 -->
<g id="node14" class="node">
<title>Node283</title>
<g id="a_node14"><a xlink:href="quickjs_8c.html#aa049793cc8648d35fe81876a2543ca4e" target="_top" xlink:title=" ">
<polygon fill="none" stroke="red" points="813,-370.73 813,-389.73 903,-389.73 903,-370.73 813,-370.73"/>
<text text-anchor="middle" x="858" y="-377.73" font-family="Helvetica,sans-Serif" font-size="10.00">JS_GetIterator2</text>
</a>
</g>
</g>
<!-- Node440&#45;&gt;Node283 -->
<g id="edge16" class="edge">
<title>Node440&#45;&gt;Node283</title>
<path fill="none" stroke="midnightblue" d="M727.15,-380.23C751.43,-380.23 779.09,-380.23 802.62,-380.23"/>
<polygon fill="midnightblue" stroke="midnightblue" points="802.77,-383.73 812.77,-380.23 802.77,-376.73 802.77,-383.73"/>
</g>
<!-- Node288 -->
<g id="node15" class="node">
<title>Node288</title>
<g id="a_node15"><a xlink:href="quickjs_8c.html#a44f6eee98516c994a594533cfa8618ed" target="_top" xlink:title=" ">
<polygon fill="none" stroke="red" points="813,-408.73 813,-427.73 903,-427.73 903,-408.73 813,-408.73"/>
<text text-anchor="middle" x="858" y="-415.73" font-family="Helvetica,sans-Serif" font-size="10.00">JS_IteratorNext</text>
</a>
</g>
</g>
<!-- Node440&#45;&gt;Node288 -->
<g id="edge21" class="edge">
<title>Node440&#45;&gt;Node288</title>
<path fill="none" stroke="midnightblue" d="M713.82,-389.82C740.96,-395.21 774.9,-401.94 802.92,-407.5"/>
<polygon fill="midnightblue" stroke="midnightblue" points="802.46,-410.98 812.95,-409.49 803.83,-404.11 802.46,-410.98"/>
</g>
<!-- Node270 -->
<g id="node16" class="node">
<title>Node270</title>
<g id="a_node16"><a xlink:href="quickjs_8c.html#ad4ba09e4c7ab9f28c144182e1aacf1f6" target="_top" xlink:title=" ">
<polygon fill="none" stroke="red" points="818.5,-256.73 818.5,-275.73 897.5,-275.73 897.5,-256.73 818.5,-256.73"/>
<text text-anchor="middle" x="858" y="-263.73" font-family="Helvetica,sans-Serif" font-size="10.00">JS_NewArray</text>
</a>
</g>
</g>
<!-- Node440&#45;&gt;Node270 -->
<g id="edge25" class="edge">
<title>Node440&#45;&gt;Node270</title>
<path fill="none" stroke="midnightblue" d="M674.83,-370.65C693.04,-352.46 735.29,-312.73 778,-290.23 787.51,-285.22 798.24,-281.08 808.64,-277.74"/>
<polygon fill="midnightblue" stroke="midnightblue" points="809.91,-281.02 818.47,-274.78 807.89,-274.31 809.91,-281.02"/>
</g>
<!-- Node283&#45;&gt;Node8 -->
<g id="edge17" class="edge">
<title>Node283&#45;&gt;Node8</title>
<path fill="none" stroke="midnightblue" d="M898.39,-370.65C911.31,-366.89 925.53,-362.06 938,-356.23 959.23,-346.31 981.39,-331.38 996.9,-320.06"/>
<polygon fill="midnightblue" stroke="midnightblue" points="999.28,-322.65 1005.21,-313.88 995.1,-317.04 999.28,-322.65"/>
</g>
<!-- Node283&#45;&gt;Node57 -->
<g id="edge18" class="edge">
<title>Node283&#45;&gt;Node57</title>
<path fill="none" stroke="midnightblue" d="M903.18,-383.7C915.49,-386.46 928.17,-391.19 938,-399.23 939.61,-400.55 988.53,-507.03 1008.82,-551.28"/>
<polygon fill="midnightblue" stroke="midnightblue" points="1005.76,-553 1013.11,-560.64 1012.12,-550.09 1005.76,-553"/>
</g>
<!-- Node288&#45;&gt;Node8 -->
<g id="edge22" class="edge">
<title>Node288&#45;&gt;Node8</title>
<path fill="none" stroke="midnightblue" d="M903.19,-412.78C915.1,-409.96 927.57,-405.7 938,-399.23 969.07,-379.97 993.93,-344.41 1007.13,-322.68"/>
<polygon fill="midnightblue" stroke="midnightblue" points="1010.31,-324.18 1012.35,-313.78 1004.27,-320.63 1010.31,-324.18"/>
</g>
<!-- Node288&#45;&gt;Node48 -->
<g id="edge23" class="edge">
<title>Node288&#45;&gt;Node48</title>
<path fill="none" stroke="midnightblue" d="M899,-427.82C919.91,-432.84 945.71,-439.02 967.89,-444.34"/>
<polygon fill="midnightblue" stroke="midnightblue" points="967.25,-447.78 977.79,-446.71 968.88,-440.98 967.25,-447.78"/>
</g>
<!-- Node288&#45;&gt;Node57 -->
<g id="edge24" class="edge">
<title>Node288&#45;&gt;Node57</title>
<path fill="none" stroke="midnightblue" d="M872.75,-427.84C889,-439.47 916.57,-460.01 938,-480.23 962.74,-503.58 988.24,-533.72 1003.48,-552.52"/>
<polygon fill="midnightblue" stroke="midnightblue" points="1000.91,-554.91 1009.9,-560.52 1006.37,-550.53 1000.91,-554.91"/>
</g>
<!-- Node441&#45;&gt;Node48 -->
<g id="edge30" class="edge">
<title>Node441&#45;&gt;Node48</title>
<path fill="none" stroke="midnightblue" d="M520.8,-508.37C620.95,-497.86 857.26,-473.05 963.78,-461.87"/>
<polygon fill="midnightblue" stroke="midnightblue" points="964.4,-465.33 973.98,-460.8 963.67,-458.36 964.4,-465.33"/>
</g>
<!-- Node441&#45;&gt;Node57 -->
<g id="edge31" class="edge">
<title>Node441&#45;&gt;Node57</title>
<path fill="none" stroke="midnightblue" d="M496.84,-522.87C519.19,-532.01 554.78,-545.2 587,-551.23 721.34,-576.36 883.18,-575.3 964.86,-572.63"/>
<polygon fill="midnightblue" stroke="midnightblue" points="965.01,-576.13 974.89,-572.28 964.77,-569.13 965.01,-576.13"/>
</g>
<!-- Node442 -->
<g id="node18" class="node">
<title>Node442</title>
<g id="a_node18"><a xlink:href="quickjs_8c.html#a07acd485a57197356906928a788a0644" target="_top" xlink:title=" ">
<polygon fill="none" stroke="black" points="617,-522.73 617,-541.73 712,-541.73 712,-522.73 617,-522.73"/>
<text text-anchor="middle" x="664.5" y="-529.73" font-family="Helvetica,sans-Serif" font-size="10.00">JS_ToLengthFree</text>
</a>
</g>
</g>
<!-- Node441&#45;&gt;Node442 -->
<g id="edge32" class="edge">
<title>Node441&#45;&gt;Node442</title>
<path fill="none" stroke="midnightblue" d="M520.73,-517.88C546.61,-520.48 579.08,-523.75 606.52,-526.5"/>
<polygon fill="midnightblue" stroke="midnightblue" points="606.46,-530.02 616.76,-527.53 607.16,-523.05 606.46,-530.02"/>
</g>
<!-- Node442&#45;&gt;Node8 -->
<g id="edge33" class="edge">
<title>Node442&#45;&gt;Node8</title>
<path fill="none" stroke="midnightblue" d="M671.24,-522.65C684.22,-500.91 716.66,-446.1 742,-399.23 758.83,-368.11 748.81,-348.23 778,-328.23 834.56,-289.48 916.99,-290.54 968.9,-296.3"/>
<polygon fill="midnightblue" stroke="midnightblue" points="968.51,-299.78 978.86,-297.51 969.35,-292.83 968.51,-299.78"/>
</g>
<!-- Node443 -->
<g id="node19" class="node">
<title>Node443</title>
<g id="a_node19"><a xlink:href="quickjs_8c.html#a537e88d38784e3df2a19c72f8bd1d77e" target="_top" xlink:title=" ">
<polygon fill="none" stroke="red" points="809,-674.73 809,-693.73 907,-693.73 907,-674.73 809,-674.73"/>
<text text-anchor="middle" x="858" y="-681.73" font-family="Helvetica,sans-Serif" font-size="10.00">JS_ToInt64Clamp</text>
</a>
</g>
</g>
<!-- Node442&#45;&gt;Node443 -->
<g id="edge34" class="edge">
<title>Node442&#45;&gt;Node443</title>
<path fill="none" stroke="midnightblue" d="M677.48,-541.74C709.45,-567.12 797.07,-636.66 836.86,-668.25"/>
<polygon fill="midnightblue" stroke="midnightblue" points="835.02,-671.25 845.03,-674.73 839.37,-665.77 835.02,-671.25"/>
</g>
<!-- Node443&#45;&gt;Node7 -->
<g id="edge35" class="edge">
<title>Node443&#45;&gt;Node7</title>
<path fill="none" stroke="midnightblue" d="M899,-693.82C920.65,-699.01 947.52,-705.46 970.21,-710.89"/>
<polygon fill="midnightblue" stroke="midnightblue" points="969.43,-714.31 979.97,-713.23 971.06,-707.5 969.43,-714.31"/>
</g>
<!-- Node135 -->
<g id="node21" class="node">
<title>Node135</title>
<g id="a_node21"><a xlink:href="quickjs_8h.html#a88259aa0da61ac754402c64ccecee116" target="_top" xlink:title=" ">
<polygon fill="none" stroke="red" points="431,-85.73 431,-104.73 516,-104.73 516,-85.73 431,-85.73"/>
<text text-anchor="middle" x="473.5" y="-92.73" font-family="Helvetica,sans-Serif" font-size="10.00">JS_NewUint32</text>
</a>
</g>
</g>
<!-- Node133&#45;&gt;Node135 -->
<g id="edge38" class="edge">
<title>Node133&#45;&gt;Node135</title>
<path fill="none" stroke="midnightblue" d="M331.19,-123.64C358.56,-118.14 392.94,-111.23 420.93,-105.6"/>
<polygon fill="midnightblue" stroke="midnightblue" points="421.81,-108.99 430.93,-103.59 420.43,-102.13 421.81,-108.99"/>
</g>
<!-- Node445&#45;&gt;Node135 -->
<g id="edge43" class="edge">
<title>Node445&#45;&gt;Node135</title>
<path fill="none" stroke="midnightblue" d="M331.19,-66.82C358.56,-72.32 392.94,-79.23 420.93,-84.86"/>
<polygon fill="midnightblue" stroke="midnightblue" points="420.43,-88.33 430.93,-86.87 421.81,-81.47 420.43,-88.33"/>
</g>
<!-- Node227 -->
<g id="node24" class="node">
<title>Node227</title>
<g id="a_node24"><a xlink:href="quickjs_8c.html#aee75cc1546e19479e3ccda58f3b50a96" target="_top" xlink:title=" ">
<polygon fill="none" stroke="red" points="607,-47.73 607,-66.73 722,-66.73 722,-47.73 607,-47.73"/>
<text text-anchor="middle" x="664.5" y="-54.73" font-family="Helvetica,sans-Serif" font-size="10.00">JS_SetPropertyValue</text>
</a>
</g>
</g>
<!-- Node445&#45;&gt;Node227 -->
<g id="edge44" class="edge">
<title>Node445&#45;&gt;Node227</title>
<path fill="none" stroke="midnightblue" d="M342.88,-57.23C411.61,-57.23 524.56,-57.23 596.42,-57.23"/>
<polygon fill="midnightblue" stroke="midnightblue" points="596.71,-60.73 606.71,-57.23 596.71,-53.73 596.71,-60.73"/>
</g>
<!-- Node227&#45;&gt;Node8 -->
<g id="edge45" class="edge">
<title>Node227&#45;&gt;Node8</title>
<path fill="none" stroke="midnightblue" d="M722.08,-50.82C782.19,-47.18 876.82,-50.97 938,-100.23 996.46,-147.3 1012.03,-243.11 1016.1,-284.48"/>
<polygon fill="midnightblue" stroke="midnightblue" points="1012.63,-284.95 1016.97,-294.62 1019.6,-284.36 1012.63,-284.95"/>
</g>
<!-- Node446&#45;&gt;Node8 -->
<g id="edge47" class="edge">
<title>Node446&#45;&gt;Node8</title>
<path fill="none" stroke="midnightblue" d="M330.57,-167.91C445.46,-159.83 734.09,-139.7 778,-138.23 849.07,-135.86 877.83,-100.33 938,-138.23 989.95,-170.95 1008.7,-248.06 1014.82,-284.5"/>
<polygon fill="midnightblue" stroke="midnightblue" points="1011.37,-285.05 1016.34,-294.41 1018.29,-283.99 1011.37,-285.05"/>
</g>
<!-- Node39 -->
<g id="node26" class="node">
<title>Node39</title>
<g id="a_node26"><a xlink:href="list_8h.html#a3a5d0733570b2fafc18f4c71a2968ea5" target="_top" xlink:title=" ">
<polygon fill="none" stroke="red" points="435.5,-123.73 435.5,-142.73 511.5,-142.73 511.5,-123.73 435.5,-123.73"/>
<text text-anchor="middle" x="473.5" y="-130.73" font-family="Helvetica,sans-Serif" font-size="10.00">list_add_tail</text>
</a>
</g>
</g>
<!-- Node446&#45;&gt;Node39 -->
<g id="edge48" class="edge">
<title>Node446&#45;&gt;Node39</title>
<path fill="none" stroke="midnightblue" d="M330.71,-161.74C359.66,-155.92 396.58,-148.5 425.5,-142.68"/>
<polygon fill="midnightblue" stroke="midnightblue" points="426.25,-146.1 435.36,-140.7 424.87,-139.24 426.25,-146.1"/>
</g>
</g>
</svg>
