<?xml version="1.0" encoding="UTF-8" standalone="no"?>
<!DOCTYPE svg PUBLIC "-//W3C//DTD SVG 1.1//EN"
 "http://www.w3.org/Graphics/SVG/1.1/DTD/svg11.dtd">
<!-- Generated by graphviz version 2.43.0 (0)
 -->
<!-- Title: js_parseInt Pages: 1 -->
<svg width="755pt" height="522pt"
 viewBox="0.00 0.00 755.00 522.00" xmlns="http://www.w3.org/2000/svg" xmlns:xlink="http://www.w3.org/1999/xlink">
<g id="graph0" class="graph" transform="scale(1 1) rotate(0) translate(4 518)">
<title>js_parseInt</title>
<!-- Node1 -->
<g id="node1" class="node">
<title>Node1</title>
<g id="a_node1"><a xlink:title=" ">
<polygon fill="#bfbfbf" stroke="black" points="0,-76.5 0,-95.5 70,-95.5 70,-76.5 0,-76.5"/>
<text text-anchor="middle" x="35" y="-83.5" font-family="Helvetica,sans-Serif" font-size="10.00">js_parseInt</text>
</a>
</g>
</g>
<!-- Node2 -->
<g id="node2" class="node">
<title>Node2</title>
<g id="a_node2"><a xlink:href="quickjs_8c.html#a40bcef4994dba57dfb34b6eed66daef0" target="_top" xlink:title=" ">
<polygon fill="none" stroke="black" points="124.5,-361.5 124.5,-380.5 174.5,-380.5 174.5,-361.5 124.5,-361.5"/>
<text text-anchor="middle" x="149.5" y="-368.5" font-family="Helvetica,sans-Serif" font-size="10.00">js_atof</text>
</a>
</g>
</g>
<!-- Node1&#45;&gt;Node2 -->
<g id="edge1" class="edge">
<title>Node1&#45;&gt;Node2</title>
<path fill="none" stroke="midnightblue" d="M39.87,-95.81C56.13,-137.01 119.06,-296.43 140.95,-351.87"/>
<polygon fill="midnightblue" stroke="midnightblue" points="137.72,-353.21 144.64,-361.23 144.23,-350.64 137.72,-353.21"/>
</g>
<!-- Node12 -->
<g id="node12" class="node">
<title>Node12</title>
<g id="a_node12"><a xlink:href="quickjs_8c.html#ae0bc4f65da64810facb2cb9e476eda2e" target="_top" xlink:title=" ">
<polygon fill="none" stroke="black" points="106,-76.5 106,-95.5 193,-95.5 193,-76.5 106,-76.5"/>
<text text-anchor="middle" x="149.5" y="-83.5" font-family="Helvetica,sans-Serif" font-size="10.00">JS_FreeCString</text>
</a>
</g>
</g>
<!-- Node1&#45;&gt;Node12 -->
<g id="edge12" class="edge">
<title>Node1&#45;&gt;Node12</title>
<path fill="none" stroke="midnightblue" d="M70.06,-86C78.15,-86 86.96,-86 95.67,-86"/>
<polygon fill="midnightblue" stroke="midnightblue" points="95.79,-89.5 105.79,-86 95.79,-82.5 95.79,-89.5"/>
</g>
<!-- Node50 -->
<g id="node15" class="node">
<title>Node50</title>
<g id="a_node15"><a xlink:href="quickjs_8h.html#af931f06630ab719b5f82a16eb27effd1" target="_top" xlink:title=" ">
<polygon fill="none" stroke="black" points="111,-114.5 111,-133.5 188,-133.5 188,-114.5 111,-114.5"/>
<text text-anchor="middle" x="149.5" y="-121.5" font-family="Helvetica,sans-Serif" font-size="10.00">JS_ToCString</text>
</a>
</g>
</g>
<!-- Node1&#45;&gt;Node50 -->
<g id="edge15" class="edge">
<title>Node1&#45;&gt;Node50</title>
<path fill="none" stroke="midnightblue" d="M64.39,-95.59C78.38,-100.31 95.44,-106.08 110.54,-111.18"/>
<polygon fill="midnightblue" stroke="midnightblue" points="109.53,-114.53 120.12,-114.41 111.77,-107.9 109.53,-114.53"/>
</g>
<!-- Node224 -->
<g id="node22" class="node">
<title>Node224</title>
<g id="a_node22"><a xlink:href="quickjs_8c.html#a4073bd2b4f247bf6077cd956759193b9" target="_top" xlink:title=" ">
<polygon fill="none" stroke="red" points="116.5,-38.5 116.5,-57.5 182.5,-57.5 182.5,-38.5 116.5,-38.5"/>
<text text-anchor="middle" x="149.5" y="-45.5" font-family="Helvetica,sans-Serif" font-size="10.00">JS_ToInt32</text>
</a>
</g>
</g>
<!-- Node1&#45;&gt;Node224 -->
<g id="edge24" class="edge">
<title>Node1&#45;&gt;Node224</title>
<path fill="none" stroke="midnightblue" d="M64.39,-76.41C78.38,-71.69 95.44,-65.92 110.54,-60.82"/>
<polygon fill="midnightblue" stroke="midnightblue" points="111.77,-64.1 120.12,-57.59 109.53,-57.47 111.77,-64.1"/>
</g>
<!-- Node125 -->
<g id="node23" class="node">
<title>Node125</title>
<g id="a_node23"><a xlink:href="quickjs_8c.html#a55c008c257c5802e77f5fec646e3ebf1" target="_top" xlink:title=" ">
<polygon fill="none" stroke="red" points="111.5,-0.5 111.5,-19.5 187.5,-19.5 187.5,-0.5 111.5,-0.5"/>
<text text-anchor="middle" x="149.5" y="-7.5" font-family="Helvetica,sans-Serif" font-size="10.00">skip_spaces</text>
</a>
</g>
</g>
<!-- Node1&#45;&gt;Node125 -->
<g id="edge26" class="edge">
<title>Node1&#45;&gt;Node125</title>
<path fill="none" stroke="midnightblue" d="M46.25,-76.18C59.34,-64.01 83.05,-43.13 106,-29 108.82,-27.26 111.83,-25.59 114.89,-24.02"/>
<polygon fill="midnightblue" stroke="midnightblue" points="116.61,-27.07 124.11,-19.58 113.58,-20.76 116.61,-27.07"/>
</g>
<!-- Node3 -->
<g id="node3" class="node">
<title>Node3</title>
<g id="a_node3"><a xlink:href="quickjs_8c.html#ab3ca6381d29dea396b12acd7f755c51a" target="_top" xlink:title=" ">
<polygon fill="none" stroke="black" points="253,-418.5 253,-437.5 305,-437.5 305,-418.5 253,-418.5"/>
<text text-anchor="middle" x="279" y="-425.5" font-family="Helvetica,sans-Serif" font-size="10.00">is_digit</text>
</a>
</g>
</g>
<!-- Node2&#45;&gt;Node3 -->
<g id="edge2" class="edge">
<title>Node2&#45;&gt;Node3</title>
<path fill="none" stroke="midnightblue" d="M169.34,-380.65C185.11,-388.6 208.31,-400 229,-409 233.69,-411.04 238.68,-413.1 243.6,-415.07"/>
<polygon fill="midnightblue" stroke="midnightblue" points="242.33,-418.33 252.91,-418.72 244.88,-411.81 242.33,-418.33"/>
</g>
<!-- Node4 -->
<g id="node4" class="node">
<title>Node4</title>
<g id="a_node4"><a xlink:href="quickjs_8c.html#a69e19dda8a93d613203e0baa06f0ed8d" target="_top" xlink:title=" ">
<polygon fill="none" stroke="black" points="248,-380.5 248,-399.5 310,-399.5 310,-380.5 248,-380.5"/>
<text text-anchor="middle" x="279" y="-387.5" font-family="Helvetica,sans-Serif" font-size="10.00">js_free_rt</text>
</a>
</g>
</g>
<!-- Node2&#45;&gt;Node4 -->
<g id="edge3" class="edge">
<title>Node2&#45;&gt;Node4</title>
<path fill="none" stroke="midnightblue" d="M174.78,-374.62C192.58,-377.27 217.15,-380.93 237.86,-384.02"/>
<polygon fill="midnightblue" stroke="midnightblue" points="237.56,-387.51 247.97,-385.52 238.59,-380.59 237.56,-387.51"/>
</g>
<!-- Node5 -->
<g id="node5" class="node">
<title>Node5</title>
<g id="a_node5"><a xlink:href="quickjs_8h.html#ae91f44bd7249613050c18c7133702c67" target="_top" xlink:title=" ">
<polygon fill="none" stroke="black" points="234.5,-494.5 234.5,-513.5 323.5,-513.5 323.5,-494.5 234.5,-494.5"/>
<text text-anchor="middle" x="279" y="-501.5" font-family="Helvetica,sans-Serif" font-size="10.00">JS_NewFloat64</text>
</a>
</g>
</g>
<!-- Node2&#45;&gt;Node5 -->
<g id="edge4" class="edge">
<title>Node2&#45;&gt;Node5</title>
<path fill="none" stroke="midnightblue" d="M154.71,-380.7C164.59,-402.38 191.29,-455.2 229,-485 231.25,-486.78 233.68,-488.4 236.22,-489.89"/>
<polygon fill="midnightblue" stroke="midnightblue" points="234.65,-493.02 245.15,-494.42 237.82,-486.78 234.65,-493.02"/>
</g>
<!-- Node7 -->
<g id="node7" class="node">
<title>Node7</title>
<g id="a_node7"><a xlink:href="quickjs_8c.html#afe15bf5b8db2df1ac795c3803a1f67a6" target="_top" xlink:title=" ">
<polygon fill="none" stroke="black" points="249.5,-342.5 249.5,-361.5 308.5,-361.5 308.5,-342.5 249.5,-342.5"/>
<text text-anchor="middle" x="279" y="-349.5" font-family="Helvetica,sans-Serif" font-size="10.00">js_strtod</text>
</a>
</g>
</g>
<!-- Node2&#45;&gt;Node7 -->
<g id="edge6" class="edge">
<title>Node2&#45;&gt;Node7</title>
<path fill="none" stroke="midnightblue" d="M174.78,-367.38C193.04,-364.66 218.41,-360.88 239.43,-357.75"/>
<polygon fill="midnightblue" stroke="midnightblue" points="239.98,-361.21 249.35,-356.27 238.94,-354.28 239.98,-361.21"/>
</g>
<!-- Node8 -->
<g id="node8" class="node">
<title>Node8</title>
<g id="a_node8"><a xlink:href="quickjs_8c.html#aee06949e4c5ec85b3da174509b93dc65" target="_top" xlink:title=" ">
<polygon fill="none" stroke="black" points="388.5,-323.5 388.5,-342.5 441.5,-342.5 441.5,-323.5 388.5,-323.5"/>
<text text-anchor="middle" x="415" y="-330.5" font-family="Helvetica,sans-Serif" font-size="10.00">to_digit</text>
</a>
</g>
</g>
<!-- Node2&#45;&gt;Node8 -->
<g id="edge11" class="edge">
<title>Node2&#45;&gt;Node8</title>
<path fill="none" stroke="midnightblue" d="M165.09,-361.44C180.32,-352.07 205.24,-338.45 229,-333 279.94,-321.32 340.85,-324.49 378.49,-328.35"/>
<polygon fill="midnightblue" stroke="midnightblue" points="378.14,-331.83 388.46,-329.44 378.9,-324.87 378.14,-331.83"/>
</g>
<!-- Node9 -->
<g id="node9" class="node">
<title>Node9</title>
<g id="a_node9"><a xlink:href="quickjs_8c.html#a344d6c0e45d9bf3861fd9269724045a2" target="_top" xlink:title=" ">
<polygon fill="none" stroke="black" points="501,-247.5 501,-266.5 631,-266.5 631,-247.5 501,-247.5"/>
<text text-anchor="middle" x="566" y="-254.5" font-family="Helvetica,sans-Serif" font-size="10.00">JS_ThrowOutOfMemory</text>
</a>
</g>
</g>
<!-- Node2&#45;&gt;Node9 -->
<g id="edge8" class="edge">
<title>Node2&#45;&gt;Node9</title>
<path fill="none" stroke="midnightblue" d="M161.93,-361.49C176.53,-349.84 203.05,-330.39 229,-320 315,-285.58 421.02,-269.71 490.69,-262.57"/>
<polygon fill="midnightblue" stroke="midnightblue" points="491.09,-266.05 500.7,-261.58 490.4,-259.08 491.09,-266.05"/>
</g>
<!-- Node11 -->
<g id="node11" class="node">
<title>Node11</title>
<g id="a_node11"><a xlink:href="cutils_8h.html#ac86d2d258aae26d8f600c60e9953c9cc" target="_top" xlink:title=" ">
<polygon fill="none" stroke="black" points="253,-456.5 253,-475.5 305,-475.5 305,-456.5 253,-456.5"/>
<text text-anchor="middle" x="279" y="-463.5" font-family="Helvetica,sans-Serif" font-size="10.00">strstart</text>
</a>
</g>
</g>
<!-- Node2&#45;&gt;Node11 -->
<g id="edge10" class="edge">
<title>Node2&#45;&gt;Node11</title>
<path fill="none" stroke="midnightblue" d="M158.23,-380.67C171.31,-396.47 199.29,-427.97 229,-447 233.45,-449.85 238.39,-452.38 243.38,-454.59"/>
<polygon fill="midnightblue" stroke="midnightblue" points="242.31,-457.94 252.9,-458.45 244.95,-451.45 242.31,-457.94"/>
</g>
<!-- Node6 -->
<g id="node6" class="node">
<title>Node6</title>
<g id="a_node6"><a xlink:href="quickjs_8h.html#a9bf98b18de88b4199910a43e933eb97d" target="_top" xlink:title=" ">
<polygon fill="none" stroke="black" points="365,-494.5 365,-513.5 465,-513.5 465,-494.5 365,-494.5"/>
<text text-anchor="middle" x="415" y="-501.5" font-family="Helvetica,sans-Serif" font-size="10.00">__JS_NewFloat64</text>
</a>
</g>
</g>
<!-- Node5&#45;&gt;Node6 -->
<g id="edge5" class="edge">
<title>Node5&#45;&gt;Node6</title>
<path fill="none" stroke="midnightblue" d="M323.51,-504C333.36,-504 344,-504 354.39,-504"/>
<polygon fill="midnightblue" stroke="midnightblue" points="354.67,-507.5 364.67,-504 354.67,-500.5 354.67,-507.5"/>
</g>
<!-- Node7&#45;&gt;Node8 -->
<g id="edge7" class="edge">
<title>Node7&#45;&gt;Node8</title>
<path fill="none" stroke="midnightblue" d="M308.75,-347.92C329.1,-345.04 356.54,-341.15 378.3,-338.06"/>
<polygon fill="midnightblue" stroke="midnightblue" points="379.06,-341.49 388.47,-336.62 378.08,-334.56 379.06,-341.49"/>
</g>
<!-- Node10 -->
<g id="node10" class="node">
<title>Node10</title>
<g id="a_node10"><a xlink:href="quickjs_8c.html#a853f0924d441ea4225488f37c8b69f9a" target="_top" xlink:title=" ">
<polygon fill="none" stroke="black" points="667,-247.5 667,-266.5 747,-266.5 747,-247.5 667,-247.5"/>
<text text-anchor="middle" x="707" y="-254.5" font-family="Helvetica,sans-Serif" font-size="10.00">__attribute__</text>
</a>
</g>
</g>
<!-- Node9&#45;&gt;Node10 -->
<g id="edge9" class="edge">
<title>Node9&#45;&gt;Node10</title>
<path fill="none" stroke="midnightblue" d="M631.21,-257C639.71,-257 648.32,-257 656.52,-257"/>
<polygon fill="midnightblue" stroke="midnightblue" points="656.66,-260.5 666.66,-257 656.66,-253.5 656.66,-260.5"/>
</g>
<!-- Node13 -->
<g id="node13" class="node">
<title>Node13</title>
<g id="a_node13"><a xlink:href="quickjs_8h.html#afaa20c47565bc704c6c85f3d77254e7d" target="_top" xlink:title=" ">
<polygon fill="none" stroke="black" points="375.5,-76.5 375.5,-95.5 454.5,-95.5 454.5,-76.5 375.5,-76.5"/>
<text text-anchor="middle" x="415" y="-83.5" font-family="Helvetica,sans-Serif" font-size="10.00">JS_FreeValue</text>
</a>
</g>
</g>
<!-- Node12&#45;&gt;Node13 -->
<g id="edge13" class="edge">
<title>Node12&#45;&gt;Node13</title>
<path fill="none" stroke="midnightblue" d="M193.13,-86C240.18,-86 315.78,-86 365.17,-86"/>
<polygon fill="midnightblue" stroke="midnightblue" points="365.3,-89.5 375.3,-86 365.3,-82.5 365.3,-89.5"/>
</g>
<!-- Node14 -->
<g id="node14" class="node">
<title>Node14</title>
<g id="a_node14"><a xlink:href="quickjs_8c.html#aa059f309c30fd5166d16c82a97973146" target="_top" xlink:title=" ">
<polygon fill="none" stroke="red" points="521.5,-76.5 521.5,-95.5 610.5,-95.5 610.5,-76.5 521.5,-76.5"/>
<text text-anchor="middle" x="566" y="-83.5" font-family="Helvetica,sans-Serif" font-size="10.00">__JS_FreeValue</text>
</a>
</g>
</g>
<!-- Node13&#45;&gt;Node14 -->
<g id="edge14" class="edge">
<title>Node13&#45;&gt;Node14</title>
<path fill="none" stroke="midnightblue" d="M454.76,-86C472,-86 492.59,-86 511.28,-86"/>
<polygon fill="midnightblue" stroke="midnightblue" points="511.44,-89.5 521.44,-86 511.44,-82.5 511.44,-89.5"/>
</g>
<!-- Node51 -->
<g id="node16" class="node">
<title>Node51</title>
<g id="a_node16"><a xlink:href="quickjs_8c.html#af49e67b73f845dc1f9c3ee648dd9f95c" target="_top" xlink:title=" ">
<polygon fill="none" stroke="black" points="229,-114.5 229,-133.5 329,-133.5 329,-114.5 229,-114.5"/>
<text text-anchor="middle" x="279" y="-121.5" font-family="Helvetica,sans-Serif" font-size="10.00">JS_ToCStringLen2</text>
</a>
</g>
</g>
<!-- Node50&#45;&gt;Node51 -->
<g id="edge16" class="edge">
<title>Node50&#45;&gt;Node51</title>
<path fill="none" stroke="midnightblue" d="M188.06,-124C197.65,-124 208.19,-124 218.58,-124"/>
<polygon fill="midnightblue" stroke="midnightblue" points="218.88,-127.5 228.88,-124 218.88,-120.5 218.88,-127.5"/>
</g>
<!-- Node51&#45;&gt;Node13 -->
<g id="edge20" class="edge">
<title>Node51&#45;&gt;Node13</title>
<path fill="none" stroke="midnightblue" d="M313.81,-114.41C331.03,-109.53 352.16,-103.54 370.57,-98.32"/>
<polygon fill="midnightblue" stroke="midnightblue" points="371.53,-101.68 380.2,-95.59 369.62,-94.95 371.53,-101.68"/>
</g>
<!-- Node52 -->
<g id="node17" class="node">
<title>Node52</title>
<g id="a_node17"><a xlink:href="quickjs_8c.html#ad303a9bc56766627b5fca41574933930" target="_top" xlink:title=" ">
<polygon fill="none" stroke="red" points="372,-228.5 372,-247.5 458,-247.5 458,-228.5 372,-228.5"/>
<text text-anchor="middle" x="415" y="-235.5" font-family="Helvetica,sans-Serif" font-size="10.00">js_alloc_string</text>
</a>
</g>
</g>
<!-- Node51&#45;&gt;Node52 -->
<g id="edge17" class="edge">
<title>Node51&#45;&gt;Node52</title>
<path fill="none" stroke="midnightblue" d="M286.33,-133.72C299.09,-152.61 329.7,-194.57 365,-219 367.7,-220.87 370.61,-222.59 373.62,-224.16"/>
<polygon fill="midnightblue" stroke="midnightblue" points="372.28,-227.4 382.82,-228.46 375.24,-221.06 372.28,-227.4"/>
</g>
<!-- Node54 -->
<g id="node18" class="node">
<title>Node54</title>
<g id="a_node18"><a xlink:href="quickjs_8h.html#a775522f2d084fc8fa0fcb33f390006b4" target="_top" xlink:title=" ">
<polygon fill="none" stroke="black" points="376.5,-38.5 376.5,-57.5 453.5,-57.5 453.5,-38.5 376.5,-38.5"/>
<text text-anchor="middle" x="415" y="-45.5" font-family="Helvetica,sans-Serif" font-size="10.00">JS_DupValue</text>
</a>
</g>
</g>
<!-- Node51&#45;&gt;Node54 -->
<g id="edge19" class="edge">
<title>Node51&#45;&gt;Node54</title>
<path fill="none" stroke="midnightblue" d="M292.41,-114.39C308.51,-102.24 337.74,-81.2 365,-67 368.78,-65.03 372.81,-63.15 376.87,-61.39"/>
<polygon fill="midnightblue" stroke="midnightblue" points="378.39,-64.55 386.31,-57.51 375.73,-58.07 378.39,-64.55"/>
</g>
<!-- Node55 -->
<g id="node19" class="node">
<title>Node55</title>
<g id="a_node19"><a xlink:href="quickjs_8h.html#ad80a83d73e9b7d872b88fbf2943aebe9" target="_top" xlink:title=" ">
<polygon fill="none" stroke="black" points="371.5,-190.5 371.5,-209.5 458.5,-209.5 458.5,-190.5 371.5,-190.5"/>
<text text-anchor="middle" x="415" y="-197.5" font-family="Helvetica,sans-Serif" font-size="10.00">JS_IsException</text>
</a>
</g>
</g>
<!-- Node51&#45;&gt;Node55 -->
<g id="edge21" class="edge">
<title>Node51&#45;&gt;Node55</title>
<path fill="none" stroke="midnightblue" d="M292.41,-133.61C308.51,-145.76 337.74,-166.8 365,-181 368.78,-182.97 372.81,-184.85 376.87,-186.61"/>
<polygon fill="midnightblue" stroke="midnightblue" points="375.73,-189.93 386.31,-190.49 378.39,-183.45 375.73,-189.93"/>
</g>
<!-- Node56 -->
<g id="node20" class="node">
<title>Node56</title>
<g id="a_node20"><a xlink:href="quickjs_8c.html#a7bcb8e1a20cbc8374a5f9ba4a2088cec" target="_top" xlink:title=" ">
<polygon fill="none" stroke="red" points="380,-152.5 380,-171.5 450,-171.5 450,-152.5 380,-152.5"/>
<text text-anchor="middle" x="415" y="-159.5" font-family="Helvetica,sans-Serif" font-size="10.00">JS_ToString</text>
</a>
</g>
</g>
<!-- Node51&#45;&gt;Node56 -->
<g id="edge22" class="edge">
<title>Node51&#45;&gt;Node56</title>
<path fill="none" stroke="midnightblue" d="M313.81,-133.59C331.03,-138.47 352.16,-144.46 370.57,-149.68"/>
<polygon fill="midnightblue" stroke="midnightblue" points="369.62,-153.05 380.2,-152.41 371.53,-146.32 369.62,-153.05"/>
</g>
<!-- Node155 -->
<g id="node21" class="node">
<title>Node155</title>
<g id="a_node21"><a xlink:href="cutils_8h.html#aad4e0decb15ab19e9f45b0ee69542a28" target="_top" xlink:title=" ">
<polygon fill="none" stroke="black" points="367.5,-114.5 367.5,-133.5 462.5,-133.5 462.5,-114.5 367.5,-114.5"/>
<text text-anchor="middle" x="415" y="-121.5" font-family="Helvetica,sans-Serif" font-size="10.00">unicode_to_utf8</text>
</a>
</g>
</g>
<!-- Node51&#45;&gt;Node155 -->
<g id="edge23" class="edge">
<title>Node51&#45;&gt;Node155</title>
<path fill="none" stroke="midnightblue" d="M329.14,-124C338.14,-124 347.62,-124 356.84,-124"/>
<polygon fill="midnightblue" stroke="midnightblue" points="357.1,-127.5 367.1,-124 357.1,-120.5 357.1,-127.5"/>
</g>
<!-- Node52&#45;&gt;Node9 -->
<g id="edge18" class="edge">
<title>Node52&#45;&gt;Node9</title>
<path fill="none" stroke="midnightblue" d="M458.3,-243.39C468.44,-244.69 479.57,-246.11 490.7,-247.53"/>
<polygon fill="midnightblue" stroke="midnightblue" points="490.52,-251.03 500.89,-248.82 491.41,-244.09 490.52,-251.03"/>
</g>
<!-- Node224&#45;&gt;Node54 -->
<g id="edge25" class="edge">
<title>Node224&#45;&gt;Node54</title>
<path fill="none" stroke="midnightblue" d="M182.55,-48C228.32,-48 312.77,-48 366.02,-48"/>
<polygon fill="midnightblue" stroke="midnightblue" points="366.23,-51.5 376.23,-48 366.23,-44.5 366.23,-51.5"/>
</g>
</g>
</svg>
