<?xml version="1.0" encoding="UTF-8" standalone="no"?>
<!DOCTYPE svg PUBLIC "-//W3C//DTD SVG 1.1//EN"
 "http://www.w3.org/Graphics/SVG/1.1/DTD/svg11.dtd">
<!-- Generated by graphviz version 2.43.0 (0)
 -->
<!-- Title: js_evalScript Pages: 1 -->
<svg width="798pt" height="442pt"
 viewBox="0.00 0.00 798.00 442.35" xmlns="http://www.w3.org/2000/svg" xmlns:xlink="http://www.w3.org/1999/xlink">
<g id="graph0" class="graph" transform="scale(1 1) rotate(0) translate(4 438.35)">
<title>js_evalScript</title>
<!-- Node1 -->
<g id="node1" class="node">
<title>Node1</title>
<g id="a_node1"><a xlink:title=" ">
<polygon fill="#bfbfbf" stroke="black" points="0,-152.5 0,-171.5 79,-171.5 79,-152.5 0,-152.5"/>
<text text-anchor="middle" x="39.5" y="-159.5" font-family="Helvetica,sans-Serif" font-size="10.00">js_evalScript</text>
</a>
</g>
</g>
<!-- Node2 -->
<g id="node2" class="node">
<title>Node2</title>
<g id="a_node2"><a xlink:href="quickjs-libc_8c.html#ad94572b16428965bd7780a285c188c77" target="_top" xlink:title=" ">
<polygon fill="none" stroke="black" points="139,-304.5 139,-323.5 234,-323.5 234,-304.5 139,-304.5"/>
<text text-anchor="middle" x="186.5" y="-311.5" font-family="Helvetica,sans-Serif" font-size="10.00">get_bool_option</text>
</a>
</g>
</g>
<!-- Node1&#45;&gt;Node2 -->
<g id="edge1" class="edge">
<title>Node1&#45;&gt;Node2</title>
<path fill="none" stroke="midnightblue" d="M43.45,-171.59C51.2,-195.22 74.41,-256.78 115,-290 120.06,-294.14 125.86,-297.58 131.93,-300.43"/>
<polygon fill="midnightblue" stroke="midnightblue" points="131.02,-303.85 141.6,-304.46 133.71,-297.38 131.02,-303.85"/>
</g>
<!-- Node51 -->
<g id="node9" class="node">
<title>Node51</title>
<g id="a_node9"><a xlink:href="quickjs_8h.html#ad80a83d73e9b7d872b88fbf2943aebe9" target="_top" xlink:title=" ">
<polygon fill="none" stroke="black" points="316,-228.5 316,-247.5 403,-247.5 403,-228.5 316,-228.5"/>
<text text-anchor="middle" x="359.5" y="-235.5" font-family="Helvetica,sans-Serif" font-size="10.00">JS_IsException</text>
</a>
</g>
</g>
<!-- Node1&#45;&gt;Node51 -->
<g id="edge21" class="edge">
<title>Node1&#45;&gt;Node51</title>
<path fill="none" stroke="midnightblue" d="M44.49,-171.62C53.52,-191.94 77.68,-238.84 115,-257 172.15,-284.81 194.72,-262.93 258,-257 274.24,-255.48 291.77,-252.6 307.57,-249.54"/>
<polygon fill="midnightblue" stroke="midnightblue" points="308.56,-252.91 317.67,-247.51 307.18,-246.05 308.56,-252.91"/>
</g>
<!-- Node439 -->
<g id="node14" class="node">
<title>Node439</title>
<g id="a_node14"><a xlink:href="quickjs-libc_8c.html#af2fadf4855b14f52fc834dfb86811fe3" target="_top" xlink:title=" ">
<polygon fill="none" stroke="black" points="136,-228.5 136,-247.5 237,-247.5 237,-228.5 136,-228.5"/>
<text text-anchor="middle" x="186.5" y="-235.5" font-family="Helvetica,sans-Serif" font-size="10.00">interrupt_handler</text>
</a>
</g>
</g>
<!-- Node1&#45;&gt;Node439 -->
<g id="edge14" class="edge">
<title>Node1&#45;&gt;Node439</title>
<path fill="none" stroke="midnightblue" d="M50.25,-171.51C63.72,-184.14 89.29,-206.32 115,-219 119.83,-221.38 125,-223.5 130.27,-225.37"/>
<polygon fill="midnightblue" stroke="midnightblue" points="129.2,-228.7 139.79,-228.48 131.37,-222.05 129.2,-228.7"/>
</g>
<!-- Node440 -->
<g id="node15" class="node">
<title>Node440</title>
<g id="a_node15"><a xlink:href="quickjs_8c.html#a8f9200abd5af97fd0411fe053cb021e0" target="_top" xlink:title=" ">
<polygon fill="none" stroke="black" points="160.5,-190.5 160.5,-209.5 212.5,-209.5 212.5,-190.5 160.5,-190.5"/>
<text text-anchor="middle" x="186.5" y="-197.5" font-family="Helvetica,sans-Serif" font-size="10.00">JS_Eval</text>
</a>
</g>
</g>
<!-- Node1&#45;&gt;Node440 -->
<g id="edge15" class="edge">
<title>Node1&#45;&gt;Node440</title>
<path fill="none" stroke="midnightblue" d="M77.09,-171.59C99.64,-177.5 128.4,-185.04 150.63,-190.86"/>
<polygon fill="midnightblue" stroke="midnightblue" points="149.78,-194.26 160.34,-193.41 151.55,-187.48 149.78,-194.26"/>
</g>
<!-- Node70 -->
<g id="node18" class="node">
<title>Node70</title>
<g id="a_node18"><a xlink:href="quickjs_8c.html#ae0bc4f65da64810facb2cb9e476eda2e" target="_top" xlink:title=" ">
<polygon fill="none" stroke="black" points="316,-152.5 316,-171.5 403,-171.5 403,-152.5 316,-152.5"/>
<text text-anchor="middle" x="359.5" y="-159.5" font-family="Helvetica,sans-Serif" font-size="10.00">JS_FreeCString</text>
</a>
</g>
</g>
<!-- Node1&#45;&gt;Node70 -->
<g id="edge18" class="edge">
<title>Node1&#45;&gt;Node70</title>
<path fill="none" stroke="midnightblue" d="M79.18,-162C135.86,-162 241.67,-162 305.53,-162"/>
<polygon fill="midnightblue" stroke="midnightblue" points="305.79,-165.5 315.79,-162 305.79,-158.5 305.79,-165.5"/>
</g>
<!-- Node442 -->
<g id="node19" class="node">
<title>Node442</title>
<g id="a_node19"><a xlink:href="quickjs_8c.html#af1866c7f8a91153f11602a2b521d9399" target="_top" xlink:title=" ">
<polygon fill="none" stroke="black" points="142,-114.5 142,-133.5 231,-133.5 231,-114.5 142,-114.5"/>
<text text-anchor="middle" x="186.5" y="-121.5" font-family="Helvetica,sans-Serif" font-size="10.00">JS_GetRuntime</text>
</a>
</g>
</g>
<!-- Node1&#45;&gt;Node442 -->
<g id="edge20" class="edge">
<title>Node1&#45;&gt;Node442</title>
<path fill="none" stroke="midnightblue" d="M77.09,-152.41C95.97,-147.46 119.19,-141.38 139.29,-136.11"/>
<polygon fill="midnightblue" stroke="midnightblue" points="140.39,-139.44 149.17,-133.52 138.61,-132.67 140.39,-139.44"/>
</g>
<!-- Node443 -->
<g id="node20" class="node">
<title>Node443</title>
<g id="a_node20"><a xlink:href="quickjs_8c.html#afa964cd85085a7b6a3242d8226b2274a" target="_top" xlink:title=" ">
<polygon fill="none" stroke="black" points="115,-76.5 115,-95.5 258,-95.5 258,-76.5 115,-76.5"/>
<text text-anchor="middle" x="186.5" y="-83.5" font-family="Helvetica,sans-Serif" font-size="10.00">JS_ResetUncatchableError</text>
</a>
</g>
</g>
<!-- Node1&#45;&gt;Node443 -->
<g id="edge22" class="edge">
<title>Node1&#45;&gt;Node443</title>
<path fill="none" stroke="midnightblue" d="M50.25,-152.49C63.72,-139.86 89.29,-117.68 115,-105 119.83,-102.62 125,-100.5 130.27,-98.63"/>
<polygon fill="midnightblue" stroke="midnightblue" points="131.37,-101.95 139.79,-95.52 129.2,-95.3 131.37,-101.95"/>
</g>
<!-- Node444 -->
<g id="node22" class="node">
<title>Node444</title>
<g id="a_node22"><a xlink:href="quickjs_8c.html#a2d1dc12b1691b07e42163b3d98549eb4" target="_top" xlink:title=" ">
<polygon fill="none" stroke="black" points="123,-38.5 123,-57.5 250,-57.5 250,-38.5 123,-38.5"/>
<text text-anchor="middle" x="186.5" y="-45.5" font-family="Helvetica,sans-Serif" font-size="10.00">JS_SetInterruptHandler</text>
</a>
</g>
</g>
<!-- Node1&#45;&gt;Node444 -->
<g id="edge24" class="edge">
<title>Node1&#45;&gt;Node444</title>
<path fill="none" stroke="midnightblue" d="M45.37,-152.23C55.53,-132.87 80.91,-89.55 115,-67 118.09,-64.96 121.39,-63.13 124.82,-61.5"/>
<polygon fill="midnightblue" stroke="midnightblue" points="126.23,-64.71 134.12,-57.63 123.54,-58.24 126.23,-64.71"/>
</g>
<!-- Node71 -->
<g id="node23" class="node">
<title>Node71</title>
<g id="a_node23"><a xlink:href="quickjs_8h.html#a1e7f56471f8608df9405987087a56070" target="_top" xlink:title=" ">
<polygon fill="none" stroke="red" points="139.5,-0.5 139.5,-19.5 233.5,-19.5 233.5,-0.5 139.5,-0.5"/>
<text text-anchor="middle" x="186.5" y="-7.5" font-family="Helvetica,sans-Serif" font-size="10.00">JS_ToCStringLen</text>
</a>
</g>
</g>
<!-- Node1&#45;&gt;Node71 -->
<g id="edge25" class="edge">
<title>Node1&#45;&gt;Node71</title>
<path fill="none" stroke="midnightblue" d="M43.1,-152.24C50.17,-127.57 72.2,-62.34 115,-29 119.44,-25.54 124.46,-22.71 129.72,-20.4"/>
<polygon fill="midnightblue" stroke="midnightblue" points="131.26,-23.56 139.38,-16.76 128.79,-17.01 131.26,-23.56"/>
</g>
<!-- Node3 -->
<g id="node3" class="node">
<title>Node3</title>
<g id="a_node3"><a xlink:href="quickjs_8h.html#afaa20c47565bc704c6c85f3d77254e7d" target="_top" xlink:title=" ">
<polygon fill="none" stroke="black" points="586,-228.5 586,-247.5 665,-247.5 665,-228.5 586,-228.5"/>
<text text-anchor="middle" x="625.5" y="-235.5" font-family="Helvetica,sans-Serif" font-size="10.00">JS_FreeValue</text>
</a>
</g>
</g>
<!-- Node2&#45;&gt;Node3 -->
<g id="edge2" class="edge">
<title>Node2&#45;&gt;Node3</title>
<path fill="none" stroke="midnightblue" d="M199.56,-323.51C247.79,-360.32 430,-487.61 550,-409 602.29,-374.75 618.08,-294.93 622.69,-257.73"/>
<polygon fill="midnightblue" stroke="midnightblue" points="626.18,-257.97 623.78,-247.65 619.22,-257.22 626.18,-257.97"/>
</g>
<!-- Node41 -->
<g id="node5" class="node">
<title>Node41</title>
<g id="a_node5"><a xlink:href="quickjs_8c.html#a04f589361a4fbc30d997402e92a50de2" target="_top" xlink:title=" ">
<polygon fill="none" stroke="black" points="308,-342.5 308,-361.5 411,-361.5 411,-342.5 308,-342.5"/>
<text text-anchor="middle" x="359.5" y="-349.5" font-family="Helvetica,sans-Serif" font-size="10.00">JS_GetPropertyStr</text>
</a>
</g>
</g>
<!-- Node2&#45;&gt;Node41 -->
<g id="edge4" class="edge">
<title>Node2&#45;&gt;Node41</title>
<path fill="none" stroke="midnightblue" d="M230.65,-323.59C253.42,-328.65 281.55,-334.9 305.62,-340.25"/>
<polygon fill="midnightblue" stroke="midnightblue" points="305.14,-343.73 315.66,-342.48 306.66,-336.89 305.14,-343.73"/>
</g>
<!-- Node2&#45;&gt;Node51 -->
<g id="edge8" class="edge">
<title>Node2&#45;&gt;Node51</title>
<path fill="none" stroke="midnightblue" d="M224.99,-304.42C236.04,-300.77 247.88,-296 258,-290 276.67,-278.93 275.1,-267.68 294,-257 297.88,-254.81 302.03,-252.85 306.3,-251.1"/>
<polygon fill="midnightblue" stroke="midnightblue" points="307.58,-254.36 315.74,-247.6 305.14,-247.8 307.58,-254.36"/>
</g>
<!-- Node210 -->
<g id="node10" class="node">
<title>Node210</title>
<g id="a_node10"><a xlink:href="quickjs_8h.html#a4e407128a9605afb77523e49e9a627fd" target="_top" xlink:title=" ">
<polygon fill="none" stroke="black" points="315,-304.5 315,-323.5 404,-323.5 404,-304.5 315,-304.5"/>
<text text-anchor="middle" x="359.5" y="-311.5" font-family="Helvetica,sans-Serif" font-size="10.00">JS_IsUndefined</text>
</a>
</g>
</g>
<!-- Node2&#45;&gt;Node210 -->
<g id="edge9" class="edge">
<title>Node2&#45;&gt;Node210</title>
<path fill="none" stroke="midnightblue" d="M234.23,-314C256.01,-314 282.05,-314 304.65,-314"/>
<polygon fill="midnightblue" stroke="midnightblue" points="304.77,-317.5 314.77,-314 304.77,-310.5 304.77,-317.5"/>
</g>
<!-- Node438 -->
<g id="node11" class="node">
<title>Node438</title>
<g id="a_node11"><a xlink:href="quickjs_8c.html#a525bb5bdbab2566313d9bcd876838d9d" target="_top" xlink:title=" ">
<polygon fill="none" stroke="black" points="328,-266.5 328,-285.5 391,-285.5 391,-266.5 328,-266.5"/>
<text text-anchor="middle" x="359.5" y="-273.5" font-family="Helvetica,sans-Serif" font-size="10.00">JS_ToBool</text>
</a>
</g>
</g>
<!-- Node2&#45;&gt;Node438 -->
<g id="edge10" class="edge">
<title>Node2&#45;&gt;Node438</title>
<path fill="none" stroke="midnightblue" d="M230.65,-304.41C257.38,-298.47 291.49,-290.89 317.76,-285.05"/>
<polygon fill="midnightblue" stroke="midnightblue" points="318.77,-288.42 327.77,-282.83 317.25,-281.58 318.77,-288.42"/>
</g>
<!-- Node4 -->
<g id="node4" class="node">
<title>Node4</title>
<g id="a_node4"><a xlink:href="quickjs_8c.html#aa059f309c30fd5166d16c82a97973146" target="_top" xlink:title=" ">
<polygon fill="none" stroke="red" points="701,-228.5 701,-247.5 790,-247.5 790,-228.5 701,-228.5"/>
<text text-anchor="middle" x="745.5" y="-235.5" font-family="Helvetica,sans-Serif" font-size="10.00">__JS_FreeValue</text>
</a>
</g>
</g>
<!-- Node3&#45;&gt;Node4 -->
<g id="edge3" class="edge">
<title>Node3&#45;&gt;Node4</title>
<path fill="none" stroke="midnightblue" d="M665.14,-238C673.35,-238 682.16,-238 690.82,-238"/>
<polygon fill="midnightblue" stroke="midnightblue" points="690.87,-241.5 700.87,-238 690.87,-234.5 690.87,-241.5"/>
</g>
<!-- Node25 -->
<g id="node6" class="node">
<title>Node25</title>
<g id="a_node6"><a xlink:href="quickjs_8c.html#ab7fc45a99935a1c0ba50b0216d9401a9" target="_top" xlink:title=" ">
<polygon fill="none" stroke="red" points="466.5,-380.5 466.5,-399.5 544.5,-399.5 544.5,-380.5 466.5,-380.5"/>
<text text-anchor="middle" x="505.5" y="-387.5" font-family="Helvetica,sans-Serif" font-size="10.00">JS_FreeAtom</text>
</a>
</g>
</g>
<!-- Node41&#45;&gt;Node25 -->
<g id="edge5" class="edge">
<title>Node41&#45;&gt;Node25</title>
<path fill="none" stroke="midnightblue" d="M396.84,-361.59C415.58,-366.54 438.64,-372.62 458.61,-377.89"/>
<polygon fill="midnightblue" stroke="midnightblue" points="457.86,-381.31 468.42,-380.48 459.65,-374.54 457.86,-381.31"/>
</g>
<!-- Node42 -->
<g id="node7" class="node">
<title>Node42</title>
<g id="a_node7"><a xlink:href="quickjs_8h.html#a89b7c8686c7eee70b86be722ee4730ad" target="_top" xlink:title=" ">
<polygon fill="none" stroke="red" points="461,-342.5 461,-361.5 550,-361.5 550,-342.5 461,-342.5"/>
<text text-anchor="middle" x="505.5" y="-349.5" font-family="Helvetica,sans-Serif" font-size="10.00">JS_GetProperty</text>
</a>
</g>
</g>
<!-- Node41&#45;&gt;Node42 -->
<g id="edge6" class="edge">
<title>Node41&#45;&gt;Node42</title>
<path fill="none" stroke="midnightblue" d="M411.27,-352C424.05,-352 437.81,-352 450.73,-352"/>
<polygon fill="midnightblue" stroke="midnightblue" points="450.87,-355.5 460.87,-352 450.87,-348.5 450.87,-355.5"/>
</g>
<!-- Node365 -->
<g id="node8" class="node">
<title>Node365</title>
<g id="a_node8"><a xlink:href="quickjs_8c.html#aa2ef5af1544a3012f91a80c98c326b8f" target="_top" xlink:title=" ">
<polygon fill="none" stroke="red" points="466,-304.5 466,-323.5 545,-323.5 545,-304.5 466,-304.5"/>
<text text-anchor="middle" x="505.5" y="-311.5" font-family="Helvetica,sans-Serif" font-size="10.00">JS_NewAtom</text>
</a>
</g>
</g>
<!-- Node41&#45;&gt;Node365 -->
<g id="edge7" class="edge">
<title>Node41&#45;&gt;Node365</title>
<path fill="none" stroke="midnightblue" d="M396.84,-342.41C415.58,-337.46 438.64,-331.38 458.61,-326.11"/>
<polygon fill="midnightblue" stroke="midnightblue" points="459.65,-329.46 468.42,-323.52 457.86,-322.69 459.65,-329.46"/>
</g>
<!-- Node59 -->
<g id="node12" class="node">
<title>Node59</title>
<g id="a_node12"><a xlink:href="quickjs_8h.html#a775522f2d084fc8fa0fcb33f390006b4" target="_top" xlink:title=" ">
<polygon fill="none" stroke="black" points="467,-266.5 467,-285.5 544,-285.5 544,-266.5 467,-266.5"/>
<text text-anchor="middle" x="505.5" y="-273.5" font-family="Helvetica,sans-Serif" font-size="10.00">JS_DupValue</text>
</a>
</g>
</g>
<!-- Node438&#45;&gt;Node59 -->
<g id="edge11" class="edge">
<title>Node438&#45;&gt;Node59</title>
<path fill="none" stroke="midnightblue" d="M391.04,-276C410.14,-276 435.15,-276 456.82,-276"/>
<polygon fill="midnightblue" stroke="midnightblue" points="456.83,-279.5 466.83,-276 456.83,-272.5 456.83,-279.5"/>
</g>
<!-- Node211 -->
<g id="node13" class="node">
<title>Node211</title>
<g id="a_node13"><a xlink:href="quickjs_8c.html#a2bf30c9cddfe98a32535843202495069" target="_top" xlink:title=" ">
<polygon fill="none" stroke="black" points="463.5,-228.5 463.5,-247.5 547.5,-247.5 547.5,-228.5 463.5,-228.5"/>
<text text-anchor="middle" x="505.5" y="-235.5" font-family="Helvetica,sans-Serif" font-size="10.00">JS_ToBoolFree</text>
</a>
</g>
</g>
<!-- Node438&#45;&gt;Node211 -->
<g id="edge12" class="edge">
<title>Node438&#45;&gt;Node211</title>
<path fill="none" stroke="midnightblue" d="M391.04,-267.94C410.66,-262.76 436.5,-255.94 458.57,-250.12"/>
<polygon fill="midnightblue" stroke="midnightblue" points="459.63,-253.46 468.41,-247.52 457.84,-246.69 459.63,-253.46"/>
</g>
<!-- Node211&#45;&gt;Node3 -->
<g id="edge13" class="edge">
<title>Node211&#45;&gt;Node3</title>
<path fill="none" stroke="midnightblue" d="M547.77,-238C556.75,-238 566.34,-238 575.58,-238"/>
<polygon fill="midnightblue" stroke="midnightblue" points="575.83,-241.5 585.83,-238 575.83,-234.5 575.83,-241.5"/>
</g>
<!-- Node441 -->
<g id="node16" class="node">
<title>Node441</title>
<g id="a_node16"><a xlink:href="quickjs_8c.html#a99d6f8b4fcb9989546e5fb13d65aaf55" target="_top" xlink:title=" ">
<polygon fill="none" stroke="black" points="323.5,-190.5 323.5,-209.5 395.5,-209.5 395.5,-190.5 323.5,-190.5"/>
<text text-anchor="middle" x="359.5" y="-197.5" font-family="Helvetica,sans-Serif" font-size="10.00">JS_EvalThis</text>
</a>
</g>
</g>
<!-- Node440&#45;&gt;Node441 -->
<g id="edge16" class="edge">
<title>Node440&#45;&gt;Node441</title>
<path fill="none" stroke="midnightblue" d="M212.73,-200C239.14,-200 281.15,-200 313.3,-200"/>
<polygon fill="midnightblue" stroke="midnightblue" points="313.36,-203.5 323.36,-200 313.36,-196.5 313.36,-203.5"/>
</g>
<!-- Node387 -->
<g id="node17" class="node">
<title>Node387</title>
<g id="a_node17"><a xlink:href="quickjs_8c.html#a0800e3e7b9763c0dddb2f3f85df25635" target="_top" xlink:title=" ">
<polygon fill="none" stroke="black" points="461,-190.5 461,-209.5 550,-209.5 550,-190.5 461,-190.5"/>
<text text-anchor="middle" x="505.5" y="-197.5" font-family="Helvetica,sans-Serif" font-size="10.00">JS_EvalInternal</text>
</a>
</g>
</g>
<!-- Node441&#45;&gt;Node387 -->
<g id="edge17" class="edge">
<title>Node441&#45;&gt;Node387</title>
<path fill="none" stroke="midnightblue" d="M395.73,-200C412.31,-200 432.44,-200 450.86,-200"/>
<polygon fill="midnightblue" stroke="midnightblue" points="450.88,-203.5 460.88,-200 450.88,-196.5 450.88,-203.5"/>
</g>
<!-- Node70&#45;&gt;Node3 -->
<g id="edge19" class="edge">
<title>Node70&#45;&gt;Node3</title>
<path fill="none" stroke="midnightblue" d="M403.08,-159.75C442.54,-159.15 502.19,-162.1 550,-181 572.53,-189.91 594.04,-207.72 608.1,-221.07"/>
<polygon fill="midnightblue" stroke="midnightblue" points="605.89,-223.8 615.47,-228.32 610.8,-218.81 605.89,-223.8"/>
</g>
<!-- Node296 -->
<g id="node21" class="node">
<title>Node296</title>
<g id="a_node21"><a xlink:href="quickjs_8c.html#a43f6c409b913e06895215979576547aa" target="_top" xlink:title=" ">
<polygon fill="none" stroke="black" points="294,-76.5 294,-95.5 425,-95.5 425,-76.5 294,-76.5"/>
<text text-anchor="middle" x="359.5" y="-83.5" font-family="Helvetica,sans-Serif" font-size="10.00">JS_SetUncatchableError</text>
</a>
</g>
</g>
<!-- Node443&#45;&gt;Node296 -->
<g id="edge23" class="edge">
<title>Node443&#45;&gt;Node296</title>
<path fill="none" stroke="midnightblue" d="M258.04,-86C266.48,-86 275.11,-86 283.61,-86"/>
<polygon fill="midnightblue" stroke="midnightblue" points="283.88,-89.5 293.88,-86 283.88,-82.5 283.88,-89.5"/>
</g>
</g>
</svg>
