<?xml version="1.0" encoding="UTF-8" standalone="no"?>
<!DOCTYPE svg PUBLIC "-//W3C//DTD SVG 1.1//EN"
 "http://www.w3.org/Graphics/SVG/1.1/DTD/svg11.dtd">
<!-- Generated by graphviz version 2.43.0 (0)
 -->
<!-- Title: find_global_var Pages: 1 -->
<!--zoomable 388 -->
<svg id="main" version="1.1" xmlns="http://www.w3.org/2000/svg" xmlns:xlink="http://www.w3.org/1999/xlink" xml:space="preserve" onload="init(evt)">
<style type="text/css"><![CDATA[
.edge:hover path { stroke: red; }
.edge:hover polygon { stroke: red; fill: red; }
]]></style>
<script type="text/javascript"><![CDATA[
var edges = document.getElementsByTagName('g');
if (edges && edges.length) {
  for (var i=0;i<edges.length;i++) {
    if (edges[i].id.substr(0,4)=='edge') {
      edges[i].setAttribute('class','edge');
    }
  }
}
]]></script>
        <defs>
                <circle id="rim" cx="0" cy="0" r="7"/>
                <circle id="rim2" cx="0" cy="0" r="3.5"/>
                <g id="zoomPlus">
                        <use xlink:href="#rim" fill="#404040">
                                <set attributeName="fill" to="#808080" begin="zoomplus.mouseover" end="zoomplus.mouseout"/>
                        </use>
                        <path d="M-4,0h8M0,-4v8" fill="none" stroke="white" stroke-width="1.5" pointer-events="none"/>
                </g>
                <g id="zoomMin">
                        <use xlink:href="#rim" fill="#404040">
                                <set attributeName="fill" to="#808080" begin="zoomminus.mouseover" end="zoomminus.mouseout"/>
                        </use>
                        <path d="M-4,0h8" fill="none" stroke="white" stroke-width="1.5" pointer-events="none"/>
                </g>
                <g id="dirArrow">
                        <path fill="none" stroke="white" stroke-width="1.5" d="M0,-3.0v7 M-2.5,-0.5L0,-3.0L2.5,-0.5"/>
                </g>
               <g id="resetDef">
                       <use xlink:href="#rim2" fill="#404040">
                               <set attributeName="fill" to="#808080" begin="reset.mouseover" end="reset.mouseout"/>
                       </use>
               </g>
        </defs>

<script type="text/javascript">
var viewWidth = 1223;
var viewHeight = 388;
var sectionId = 'dynsection-961';
</script>
<script xlink:href="svgpan.js"/>
<svg id="graph" class="graph">
<g id="viewport">
<title>find_global_var</title>
<!-- Node1 -->
<g id="node1" class="node">
<title>Node1</title>
<g id="a_node1"><a xlink:title=" ">
<polygon fill="#bfbfbf" stroke="black" points="1124,-37.5 1124,-56.5 1215,-56.5 1215,-37.5 1124,-37.5"/>
<text text-anchor="middle" x="1169.5" y="-44.5" font-family="Helvetica,sans-Serif" font-size="10.00">find_global_var</text>
</a>
</g>
</g>
<!-- Node2 -->
<g id="node2" class="node">
<title>Node2</title>
<g id="a_node2"><a xlink:href="quickjs_8c.html#a99125693fff3fd8277f544b15109354b" target="_top" xlink:title=" ">
<polygon fill="none" stroke="black" points="722,-104.5 722,-123.5 790,-123.5 790,-104.5 722,-104.5"/>
<text text-anchor="middle" x="756" y="-111.5" font-family="Helvetica,sans-Serif" font-size="10.00">define_var</text>
</a>
</g>
</g>
<!-- Node1&#45;&gt;Node2 -->
<g id="edge1" class="edge">
<title>Node1&#45;&gt;Node2</title>
<path fill="none" stroke="midnightblue" d="M1121.21,-58.89C1110.34,-61.42 1098.8,-63.95 1088,-66 979.62,-86.61 849.79,-103.07 790.05,-110.18"/>
<polygon fill="midnightblue" stroke="midnightblue" points="1122.05,-62.29 1130.97,-56.58 1120.43,-55.48 1122.05,-62.29"/>
</g>
<!-- Node9 -->
<g id="node7" class="node">
<title>Node9</title>
<g id="a_node7"><a xlink:href="quickjs_8c.html#acc9eb677cab8dfcf45f59381f8a19601" target="_top" xlink:title=" ">
<polygon fill="none" stroke="red" points="272,-66.5 272,-85.5 406,-85.5 406,-66.5 272,-66.5"/>
<text text-anchor="middle" x="339" y="-73.5" font-family="Helvetica,sans-Serif" font-size="10.00">js_parse_function_decl2</text>
</a>
</g>
</g>
<!-- Node1&#45;&gt;Node9 -->
<g id="edge28" class="edge">
<title>Node1&#45;&gt;Node9</title>
<path fill="none" stroke="midnightblue" d="M1122.96,-35.06C1065.73,-21.14 964.31,0 876,0 876,0 876,0 644.5,0 536.07,0 412.22,-45.92 362.44,-66.37"/>
<polygon fill="midnightblue" stroke="midnightblue" points="1122.23,-38.49 1132.77,-37.49 1123.9,-31.69 1122.23,-38.49"/>
</g>
<!-- Node40 -->
<g id="node11" class="node">
<title>Node40</title>
<g id="a_node11"><a xlink:href="quickjs_8c.html#a928ebc27e3c6cd81cef3ae8cd95acdcf" target="_top" xlink:title=" ">
<polygon fill="none" stroke="black" points="960,-37.5 960,-56.5 1088,-56.5 1088,-37.5 960,-37.5"/>
<text text-anchor="middle" x="1024" y="-44.5" font-family="Helvetica,sans-Serif" font-size="10.00">find_lexical_global_var</text>
</a>
</g>
</g>
<!-- Node1&#45;&gt;Node40 -->
<g id="edge24" class="edge">
<title>Node1&#45;&gt;Node40</title>
<path fill="none" stroke="midnightblue" d="M1113.8,-47C1105.38,-47 1096.62,-47 1088.03,-47"/>
<polygon fill="midnightblue" stroke="midnightblue" points="1113.88,-50.5 1123.88,-47 1113.88,-43.5 1113.88,-50.5"/>
</g>
<!-- Node3 -->
<g id="node3" class="node">
<title>Node3</title>
<g id="a_node3"><a xlink:href="quickjs_8c.html#a53e971ab3c46da0b7d48481b0696e138" target="_top" xlink:title=" ">
<polygon fill="none" stroke="black" points="605,-226.5 605,-245.5 686,-245.5 686,-226.5 605,-226.5"/>
<text text-anchor="middle" x="645.5" y="-233.5" font-family="Helvetica,sans-Serif" font-size="10.00">js_define_var</text>
</a>
</g>
</g>
<!-- Node2&#45;&gt;Node3 -->
<g id="edge2" class="edge">
<title>Node2&#45;&gt;Node3</title>
<path fill="none" stroke="midnightblue" d="M739.72,-131.18C716.54,-157.25 673.24,-205.93 654.97,-226.47"/>
<polygon fill="midnightblue" stroke="midnightblue" points="742.46,-133.37 746.49,-123.57 737.23,-128.72 742.46,-133.37"/>
</g>
<!-- Node6 -->
<g id="node6" class="node">
<title>Node6</title>
<g id="a_node6"><a xlink:href="quickjs_8c.html#a9d844c16dcc71701436848074337d32c" target="_top" xlink:title=" ">
<polygon fill="none" stroke="red" points="0,-270 0,-300 113,-300 113,-270 0,-270"/>
<text text-anchor="start" x="8" y="-288" font-family="Helvetica,sans-Serif" font-size="10.00">js_parse_statement</text>
<text text-anchor="middle" x="56.5" y="-277" font-family="Helvetica,sans-Serif" font-size="10.00">_or_decl</text>
</a>
</g>
</g>
<!-- Node2&#45;&gt;Node6 -->
<g id="edge23" class="edge">
<title>Node2&#45;&gt;Node6</title>
<path fill="none" stroke="midnightblue" d="M747.94,-133.41C724.27,-194.69 641.53,-380 506.5,-380 506.5,-380 506.5,-380 338,-380 251.55,-380 229.75,-364.88 149,-334 125.1,-324.86 99.56,-310.78 81.56,-300.06"/>
<polygon fill="midnightblue" stroke="midnightblue" points="751.32,-134.37 751.56,-123.78 744.77,-131.91 751.32,-134.37"/>
</g>
<!-- Node2&#45;&gt;Node9 -->
<g id="edge22" class="edge">
<title>Node2&#45;&gt;Node9</title>
<path fill="none" stroke="midnightblue" d="M711.98,-104.37C703.41,-102.7 694.44,-101.14 686,-100 589.19,-86.88 476.11,-80.75 406.27,-78.02"/>
<polygon fill="midnightblue" stroke="midnightblue" points="711.31,-107.8 721.81,-106.35 712.7,-100.94 711.31,-107.8"/>
</g>
<!-- Node10 -->
<g id="node8" class="node">
<title>Node10</title>
<g id="a_node8"><a xlink:href="quickjs_8c.html#a00eb789430243c24dab4a63ad6a79653" target="_top" xlink:title=" ">
<polygon fill="none" stroke="red" points="149,-142.5 149,-161.5 236,-161.5 236,-142.5 149,-142.5"/>
<text text-anchor="middle" x="192.5" y="-149.5" font-family="Helvetica,sans-Serif" font-size="10.00">js_parse_class</text>
</a>
</g>
</g>
<!-- Node2&#45;&gt;Node10 -->
<g id="edge20" class="edge">
<title>Node2&#45;&gt;Node10</title>
<path fill="none" stroke="midnightblue" d="M712,-123.77C703.42,-125.42 694.46,-126.94 686,-128 520.57,-148.69 321.82,-151.79 236.18,-152.09"/>
<polygon fill="midnightblue" stroke="midnightblue" points="712.72,-127.2 721.83,-121.79 711.33,-120.33 712.72,-127.2"/>
</g>
<!-- Node11 -->
<g id="node9" class="node">
<title>Node11</title>
<g id="a_node9"><a xlink:href="quickjs_8c.html#a498e1d5c7de1b59c1630e9847cde1e41" target="_top" xlink:title=" ">
<polygon fill="none" stroke="red" points="9.5,-123.5 9.5,-142.5 103.5,-142.5 103.5,-123.5 9.5,-123.5"/>
<text text-anchor="middle" x="56.5" y="-130.5" font-family="Helvetica,sans-Serif" font-size="10.00">js_parse_export</text>
</a>
</g>
</g>
<!-- Node2&#45;&gt;Node11 -->
<g id="edge21" class="edge">
<title>Node2&#45;&gt;Node11</title>
<path fill="none" stroke="midnightblue" d="M711.59,-114C661.99,-114 578.4,-114 506.5,-114 506.5,-114 506.5,-114 338,-114 255.27,-114 159.12,-122.33 103.6,-127.96"/>
<polygon fill="midnightblue" stroke="midnightblue" points="711.64,-117.5 721.64,-114 711.64,-110.5 711.64,-117.5"/>
</g>
<!-- Node4 -->
<g id="node4" class="node">
<title>Node4</title>
<g id="a_node4"><a xlink:href="quickjs_8c.html#a26be546cf89c4580ba9020e8fc43a759" target="_top" xlink:title=" ">
<polygon fill="none" stroke="red" points="442,-221 442,-251 569,-251 569,-221 442,-221"/>
<text text-anchor="start" x="450" y="-239" font-family="Helvetica,sans-Serif" font-size="10.00">js_parse_destructuring</text>
<text text-anchor="middle" x="505.5" y="-228" font-family="Helvetica,sans-Serif" font-size="10.00">_element</text>
</a>
</g>
</g>
<!-- Node3&#45;&gt;Node4 -->
<g id="edge3" class="edge">
<title>Node3&#45;&gt;Node4</title>
<path fill="none" stroke="midnightblue" d="M594.73,-236C586.46,-236 577.78,-236 569.24,-236"/>
<polygon fill="midnightblue" stroke="midnightblue" points="594.95,-239.5 604.95,-236 594.95,-232.5 594.95,-239.5"/>
</g>
<!-- Node5 -->
<g id="node5" class="node">
<title>Node5</title>
<g id="a_node5"><a xlink:href="quickjs_8c.html#ac188b916dd086803591a67de7e7a85f6" target="_top" xlink:title=" ">
<polygon fill="none" stroke="black" points="286.5,-294.5 286.5,-313.5 391.5,-313.5 391.5,-294.5 286.5,-294.5"/>
<text text-anchor="middle" x="339" y="-301.5" font-family="Helvetica,sans-Serif" font-size="10.00">js_parse_for_in_of</text>
</a>
</g>
</g>
<!-- Node3&#45;&gt;Node5 -->
<g id="edge17" class="edge">
<title>Node3&#45;&gt;Node5</title>
<path fill="none" stroke="midnightblue" d="M623.35,-251.18C608.79,-260.83 588.61,-272.65 569,-279 510.22,-298.04 438.98,-303.2 391.73,-304.31"/>
<polygon fill="midnightblue" stroke="midnightblue" points="625.35,-254.06 631.64,-245.53 621.41,-248.28 625.35,-254.06"/>
</g>
<!-- Node3&#45;&gt;Node6 -->
<g id="edge18" class="edge">
<title>Node3&#45;&gt;Node6</title>
<path fill="none" stroke="midnightblue" d="M630.22,-254.06C616.41,-270.11 593.95,-292.72 569,-304 411.51,-375.2 198.07,-327.24 104.61,-300.09"/>
<polygon fill="midnightblue" stroke="midnightblue" points="633.27,-255.87 636.96,-245.94 627.88,-251.4 633.27,-255.87"/>
</g>
<!-- Node28 -->
<g id="node10" class="node">
<title>Node28</title>
<g id="a_node10"><a xlink:href="quickjs_8c.html#a9660cf21845352b14655d423389d6620" target="_top" xlink:title=" ">
<polygon fill="none" stroke="black" points="153.5,-199.5 153.5,-218.5 231.5,-218.5 231.5,-199.5 153.5,-199.5"/>
<text text-anchor="middle" x="192.5" y="-206.5" font-family="Helvetica,sans-Serif" font-size="10.00">js_parse_var</text>
</a>
</g>
</g>
<!-- Node3&#45;&gt;Node28 -->
<g id="edge19" class="edge">
<title>Node3&#45;&gt;Node28</title>
<path fill="none" stroke="midnightblue" d="M611.34,-223.09C598.35,-218.66 583.18,-214.26 569,-212 447,-192.58 299.86,-200.26 231.65,-205.57"/>
<polygon fill="midnightblue" stroke="midnightblue" points="610.21,-226.4 620.8,-226.45 612.55,-219.81 610.21,-226.4"/>
</g>
<!-- Node4&#45;&gt;Node4 -->
<g id="edge4" class="edge">
<title>Node4&#45;&gt;Node4</title>
<path fill="none" stroke="midnightblue" d="M530.38,-261.46C527.29,-266.18 519,-269.5 505.5,-269.5 483.35,-269.5 475.22,-260.56 481.1,-251.16"/>
<polygon fill="midnightblue" stroke="midnightblue" points="533.86,-260.99 529.9,-251.16 526.87,-261.31 533.86,-260.99"/>
</g>
<!-- Node4&#45;&gt;Node5 -->
<g id="edge5" class="edge">
<title>Node4&#45;&gt;Node5</title>
<path fill="none" stroke="midnightblue" d="M463.01,-255.32C445.53,-263.26 424.9,-272.35 406,-280 393.57,-285.03 379.63,-290.17 367.78,-294.39"/>
<polygon fill="midnightblue" stroke="midnightblue" points="464.72,-258.39 472.36,-251.05 461.81,-252.02 464.72,-258.39"/>
</g>
<!-- Node4&#45;&gt;Node6 -->
<g id="edge13" class="edge">
<title>Node4&#45;&gt;Node6</title>
<path fill="none" stroke="midnightblue" d="M431.84,-243.96C342.69,-253.74 193.5,-270.09 113.02,-278.91"/>
<polygon fill="midnightblue" stroke="midnightblue" points="432.32,-247.43 441.88,-242.86 431.55,-240.48 432.32,-247.43"/>
</g>
<!-- Node4&#45;&gt;Node9 -->
<g id="edge8" class="edge">
<title>Node4&#45;&gt;Node9</title>
<path fill="none" stroke="midnightblue" d="M481.8,-213.92C445.43,-178.55 375.59,-110.62 349.84,-85.57"/>
<polygon fill="midnightblue" stroke="midnightblue" points="479.42,-216.48 489.02,-220.95 484.3,-211.47 479.42,-216.48"/>
</g>
<!-- Node4&#45;&gt;Node28 -->
<g id="edge14" class="edge">
<title>Node4&#45;&gt;Node28</title>
<path fill="none" stroke="midnightblue" d="M431.75,-229.68C369.27,-224.26 281.65,-216.65 231.94,-212.34"/>
<polygon fill="midnightblue" stroke="midnightblue" points="431.67,-233.19 441.94,-230.57 432.28,-226.22 431.67,-233.19"/>
</g>
<!-- Node5&#45;&gt;Node6 -->
<g id="edge6" class="edge">
<title>Node5&#45;&gt;Node6</title>
<path fill="none" stroke="midnightblue" d="M276.14,-299.81C227.49,-296.51 160.31,-291.96 113.3,-288.78"/>
<polygon fill="midnightblue" stroke="midnightblue" points="276.01,-303.31 286.23,-300.49 276.48,-296.33 276.01,-303.31"/>
</g>
<!-- Node6&#45;&gt;Node6 -->
<g id="edge7" class="edge">
<title>Node6&#45;&gt;Node6</title>
<path fill="none" stroke="midnightblue" d="M80.67,-310.46C77.67,-315.18 69.61,-318.5 56.5,-318.5 34.98,-318.5 27.08,-309.56 32.8,-300.16"/>
<polygon fill="midnightblue" stroke="midnightblue" points="84.15,-309.99 80.2,-300.16 77.16,-310.31 84.15,-309.99"/>
</g>
<!-- Node9&#45;&gt;Node10 -->
<g id="edge9" class="edge">
<title>Node9&#45;&gt;Node10</title>
<path fill="none" stroke="midnightblue" d="M310.52,-90.46C281.49,-105.72 236.55,-129.36 211.65,-142.45"/>
<polygon fill="midnightblue" stroke="midnightblue" points="312.48,-93.38 319.7,-85.63 309.22,-87.18 312.48,-93.38"/>
</g>
<!-- Node9&#45;&gt;Node11 -->
<g id="edge12" class="edge">
<title>Node9&#45;&gt;Node11</title>
<path fill="none" stroke="midnightblue" d="M261.69,-81.84C226.98,-85.47 185.59,-91.19 149,-100 124.7,-105.85 97.92,-115.96 79.64,-123.46"/>
<polygon fill="midnightblue" stroke="midnightblue" points="262.16,-85.31 271.76,-80.82 261.45,-78.34 262.16,-85.31"/>
</g>
<!-- Node10&#45;&gt;Node6 -->
<g id="edge11" class="edge">
<title>Node10&#45;&gt;Node6</title>
<path fill="none" stroke="midnightblue" d="M172.55,-168.4C165.1,-174.99 156.54,-182.74 149,-190 120.64,-217.33 89.08,-250.82 71.43,-269.85"/>
<polygon fill="midnightblue" stroke="midnightblue" points="174.89,-171 180.11,-161.78 170.28,-165.74 174.89,-171"/>
</g>
<!-- Node10&#45;&gt;Node11 -->
<g id="edge10" class="edge">
<title>Node10&#45;&gt;Node11</title>
<path fill="none" stroke="midnightblue" d="M138.72,-144.52C127.1,-142.87 114.89,-141.14 103.57,-139.53"/>
<polygon fill="midnightblue" stroke="midnightblue" points="138.34,-148 148.73,-145.94 139.32,-141.07 138.34,-148"/>
</g>
<!-- Node28&#45;&gt;Node6 -->
<g id="edge16" class="edge">
<title>Node28&#45;&gt;Node6</title>
<path fill="none" stroke="midnightblue" d="M165.82,-223.57C142.34,-236.88 107.76,-256.5 84.02,-269.96"/>
<polygon fill="midnightblue" stroke="midnightblue" points="167.56,-226.6 174.53,-218.63 164.1,-220.51 167.56,-226.6"/>
</g>
<!-- Node28&#45;&gt;Node11 -->
<g id="edge15" class="edge">
<title>Node28&#45;&gt;Node11</title>
<path fill="none" stroke="midnightblue" d="M165.66,-194.35C138.73,-179.07 97.32,-155.58 74.33,-142.55"/>
<polygon fill="midnightblue" stroke="midnightblue" points="164.1,-197.49 174.53,-199.37 167.56,-191.4 164.1,-197.49"/>
</g>
<!-- Node41 -->
<g id="node12" class="node">
<title>Node41</title>
<g id="a_node12"><a xlink:href="quickjs_8c.html#a83749bc9db22260434eed3a360edc6c0" target="_top" xlink:title=" ">
<polygon fill="none" stroke="black" points="826,-37.5 826,-56.5 924,-56.5 924,-37.5 826,-37.5"/>
<text text-anchor="middle" x="875" y="-44.5" font-family="Helvetica,sans-Serif" font-size="10.00">find_lexical_decl</text>
</a>
</g>
</g>
<!-- Node40&#45;&gt;Node41 -->
<g id="edge25" class="edge">
<title>Node40&#45;&gt;Node41</title>
<path fill="none" stroke="midnightblue" d="M949.64,-47C940.95,-47 932.25,-47 924.04,-47"/>
<polygon fill="midnightblue" stroke="midnightblue" points="949.81,-50.5 959.81,-47 949.81,-43.5 949.81,-50.5"/>
</g>
<!-- Node41&#45;&gt;Node2 -->
<g id="edge26" class="edge">
<title>Node41&#45;&gt;Node2</title>
<path fill="none" stroke="midnightblue" d="M848.48,-61.62C825.79,-74.61 793.27,-93.23 773.73,-104.42"/>
<polygon fill="midnightblue" stroke="midnightblue" points="850.3,-64.61 857.24,-56.6 846.82,-58.53 850.3,-64.61"/>
</g>
<!-- Node41&#45;&gt;Node9 -->
<g id="edge27" class="edge">
<title>Node41&#45;&gt;Node9</title>
<path fill="none" stroke="midnightblue" d="M815.43,-50.18C715.24,-55.62 511.61,-66.68 406.34,-72.4"/>
<polygon fill="midnightblue" stroke="midnightblue" points="815.87,-53.66 825.67,-49.62 815.49,-46.67 815.87,-53.66"/>
</g>
</g>
</svg>
        <g id="navigator" transform="translate(0 0)" fill="#404254">
                <rect fill="#f2f5e9" fill-opacity="0.5" stroke="#606060" stroke-width=".5" x="0" y="0" width="60" height="60"/>
                <use id="zoomplus" xlink:href="#zoomPlus" x="17" y="9" onmousedown="handleZoom(evt,'in')"/>
                <use id="zoomminus" xlink:href="#zoomMin" x="42" y="9" onmousedown="handleZoom(evt,'out')"/>
                <use id="reset" xlink:href="#resetDef" x="30" y="36" onmousedown="handleReset()"/>
                <g id="arrowUp" xlink:href="#dirArrow" transform="translate(30 24)" onmousedown="handlePan(0,-1)">
                  <use xlink:href="#rim" fill="#404040">
                        <set attributeName="fill" to="#808080" begin="arrowUp.mouseover" end="arrowUp.mouseout"/>
                  </use>
                  <path fill="none" stroke="white" stroke-width="1.5" d="M0,-3.0v7 M-2.5,-0.5L0,-3.0L2.5,-0.5"/>
                </g>
                <g id="arrowRight" xlink:href="#dirArrow" transform="rotate(90) translate(36 -43)" onmousedown="handlePan(1,0)">
                  <use xlink:href="#rim" fill="#404040">
                        <set attributeName="fill" to="#808080" begin="arrowRight.mouseover" end="arrowRight.mouseout"/>
                  </use>
                  <path fill="none" stroke="white" stroke-width="1.5" d="M0,-3.0v7 M-2.5,-0.5L0,-3.0L2.5,-0.5"/>
                </g>
                <g id="arrowDown" xlink:href="#dirArrow" transform="rotate(180) translate(-30 -48)" onmousedown="handlePan(0,1)">
                  <use xlink:href="#rim" fill="#404040">
                        <set attributeName="fill" to="#808080" begin="arrowDown.mouseover" end="arrowDown.mouseout"/>
                  </use>
                  <path fill="none" stroke="white" stroke-width="1.5" d="M0,-3.0v7 M-2.5,-0.5L0,-3.0L2.5,-0.5"/>
                </g>
                <g id="arrowLeft" xlink:href="#dirArrow" transform="rotate(270) translate(-36 17)" onmousedown="handlePan(-1,0)">
                  <use xlink:href="#rim" fill="#404040">
                        <set attributeName="fill" to="#808080" begin="arrowLeft.mouseover" end="arrowLeft.mouseout"/>
                  </use>
                  <path fill="none" stroke="white" stroke-width="1.5" d="M0,-3.0v7 M-2.5,-0.5L0,-3.0L2.5,-0.5"/>
                </g>
        </g>
        <svg viewBox="0 0 15 15" width="100%" height="30px" preserveAspectRatio="xMaxYMin meet">
         <g id="arrow_out" transform="scale(0.3 0.3)">
          <a xlink:href="quickjs_8c_a87911bf8f73f022d21edeaca80361ce2_icgraph_org.svg" target="_base">
           <rect id="button" ry="5" rx="5" y="6" x="6" height="38" width="38"
                fill="#f2f5e9" fill-opacity="0.5" stroke="#606060" stroke-width="1.0"/>
           <path id="arrow"
             d="M 11.500037,31.436501 C 11.940474,20.09759 22.043105,11.32322 32.158766,21.979434 L 37.068811,17.246167 C 37.068811,17.246167 37.088388,32 37.088388,32 L 22.160133,31.978069 C 22.160133,31.978069 26.997745,27.140456 26.997745,27.140456 C 18.528582,18.264221 13.291696,25.230495 11.500037,31.436501 z"
             style="fill:#404040;"/>
          </a>
         </g>
        </svg>
</svg>
