<?xml version="1.0" encoding="UTF-8" standalone="no"?>
<!DOCTYPE svg PUBLIC "-//W3C//DTD SVG 1.1//EN"
 "http://www.w3.org/Graphics/SVG/1.1/DTD/svg11.dtd">
<!-- Generated by graphviz version 2.43.0 (0)
 -->
<!-- Title: JS_NewGlobalCConstructor Pages: 1 -->
<!--zoomable 352 -->
<svg id="main" version="1.1" xmlns="http://www.w3.org/2000/svg" xmlns:xlink="http://www.w3.org/1999/xlink" xml:space="preserve" onload="init(evt)">
<style type="text/css"><![CDATA[
.edge:hover path { stroke: red; }
.edge:hover polygon { stroke: red; fill: red; }
]]></style>
<script type="text/javascript"><![CDATA[
var edges = document.getElementsByTagName('g');
if (edges && edges.length) {
  for (var i=0;i<edges.length;i++) {
    if (edges[i].id.substr(0,4)=='edge') {
      edges[i].setAttribute('class','edge');
    }
  }
}
]]></script>
        <defs>
                <circle id="rim" cx="0" cy="0" r="7"/>
                <circle id="rim2" cx="0" cy="0" r="3.5"/>
                <g id="zoomPlus">
                        <use xlink:href="#rim" fill="#404040">
                                <set attributeName="fill" to="#808080" begin="zoomplus.mouseover" end="zoomplus.mouseout"/>
                        </use>
                        <path d="M-4,0h8M0,-4v8" fill="none" stroke="white" stroke-width="1.5" pointer-events="none"/>
                </g>
                <g id="zoomMin">
                        <use xlink:href="#rim" fill="#404040">
                                <set attributeName="fill" to="#808080" begin="zoomminus.mouseover" end="zoomminus.mouseout"/>
                        </use>
                        <path d="M-4,0h8" fill="none" stroke="white" stroke-width="1.5" pointer-events="none"/>
                </g>
                <g id="dirArrow">
                        <path fill="none" stroke="white" stroke-width="1.5" d="M0,-3.0v7 M-2.5,-0.5L0,-3.0L2.5,-0.5"/>
                </g>
               <g id="resetDef">
                       <use xlink:href="#rim2" fill="#404040">
                               <set attributeName="fill" to="#808080" begin="reset.mouseover" end="reset.mouseout"/>
                       </use>
               </g>
        </defs>

<script type="text/javascript">
var viewWidth = 987;
var viewHeight = 352;
var sectionId = 'dynsection-1398';
</script>
<script xlink:href="svgpan.js"/>
<svg id="graph" class="graph">
<g id="viewport">
<title>JS_NewGlobalCConstructor</title>
<!-- Node1 -->
<g id="node1" class="node">
<title>Node1</title>
<g id="a_node1"><a xlink:title=" ">
<polygon fill="#bfbfbf" stroke="black" points="0,-77.39 0,-96.39 147,-96.39 147,-77.39 0,-77.39"/>
<text text-anchor="middle" x="73.5" y="-84.39" font-family="Helvetica,sans-Serif" font-size="10.00">JS_NewGlobalCConstructor</text>
</a>
</g>
</g>
<!-- Node2 -->
<g id="node2" class="node">
<title>Node2</title>
<g id="a_node2"><a xlink:href="quickjs_8c.html#a76d4772691a319f48dc636a0e7f6c1ed" target="_top" xlink:title=" ">
<polygon fill="none" stroke="black" points="206,-153.39 206,-172.39 313,-172.39 313,-153.39 206,-153.39"/>
<text text-anchor="middle" x="259.5" y="-160.39" font-family="Helvetica,sans-Serif" font-size="10.00">JS_NewCFunction2</text>
</a>
</g>
</g>
<!-- Node1&#45;&gt;Node2 -->
<g id="edge1" class="edge">
<title>Node1&#45;&gt;Node2</title>
<path fill="none" stroke="midnightblue" d="M97.8,-96.51C130.29,-109.93 189.34,-134.32 226.1,-149.51"/>
<polygon fill="midnightblue" stroke="midnightblue" points="224.81,-152.76 235.39,-153.34 227.48,-146.29 224.81,-152.76"/>
</g>
<!-- Node438 -->
<g id="node12" class="node">
<title>Node438</title>
<g id="a_node12"><a xlink:href="quickjs_8c.html#acd5457d29e9641ae5e3a1d778f94bd0e" target="_top" xlink:title=" ">
<polygon fill="none" stroke="black" points="183,-58.39 183,-77.39 336,-77.39 336,-58.39 183,-58.39"/>
<text text-anchor="middle" x="259.5" y="-65.39" font-family="Helvetica,sans-Serif" font-size="10.00">JS_NewGlobalCConstructor2</text>
</a>
</g>
</g>
<!-- Node1&#45;&gt;Node438 -->
<g id="edge11" class="edge">
<title>Node1&#45;&gt;Node438</title>
<path fill="none" stroke="midnightblue" d="M147.22,-79.38C155.67,-78.51 164.34,-77.61 172.94,-76.72"/>
<polygon fill="midnightblue" stroke="midnightblue" points="173.4,-80.19 182.98,-75.69 172.68,-73.23 173.4,-80.19"/>
</g>
<!-- Node3 -->
<g id="node3" class="node">
<title>Node3</title>
<g id="a_node3"><a xlink:href="quickjs_8c.html#a21cfe4c4fc9372dc0b95b37667cff0c9" target="_top" xlink:title=" ">
<polygon fill="none" stroke="black" points="390.5,-210.39 390.5,-229.39 497.5,-229.39 497.5,-210.39 390.5,-210.39"/>
<text text-anchor="middle" x="444" y="-217.39" font-family="Helvetica,sans-Serif" font-size="10.00">JS_NewCFunction3</text>
</a>
</g>
</g>
<!-- Node2&#45;&gt;Node3 -->
<g id="edge2" class="edge">
<title>Node2&#45;&gt;Node3</title>
<path fill="none" stroke="midnightblue" d="M291.05,-172.43C321.71,-182.01 369.11,-196.81 402.8,-207.33"/>
<polygon fill="midnightblue" stroke="midnightblue" points="401.77,-210.68 412.35,-210.32 403.85,-203.99 401.77,-210.68"/>
</g>
<!-- Node4 -->
<g id="node4" class="node">
<title>Node4</title>
<g id="a_node4"><a xlink:href="quickjs_8c.html#a2814982d965920b44b14bef36ba18bba" target="_top" xlink:title=" ">
<polygon fill="none" stroke="black" points="580,-324.39 580,-343.39 669,-343.39 669,-324.39 580,-324.39"/>
<text text-anchor="middle" x="624.5" y="-331.39" font-family="Helvetica,sans-Serif" font-size="10.00">JS_DupContext</text>
</a>
</g>
</g>
<!-- Node3&#45;&gt;Node4 -->
<g id="edge3" class="edge">
<title>Node3&#45;&gt;Node4</title>
<path fill="none" stroke="midnightblue" d="M453.06,-229.6C469.58,-248.84 509.33,-291.97 552,-314.89 557.64,-317.92 563.8,-320.49 570.06,-322.67"/>
<polygon fill="midnightblue" stroke="midnightblue" points="569.33,-326.1 579.92,-325.77 571.43,-319.43 569.33,-326.1"/>
</g>
<!-- Node5 -->
<g id="node5" class="node">
<title>Node5</title>
<g id="a_node5"><a xlink:href="quickjs_8c.html#ab7fc45a99935a1c0ba50b0216d9401a9" target="_top" xlink:title=" ">
<polygon fill="none" stroke="red" points="585.5,-172.39 585.5,-191.39 663.5,-191.39 663.5,-172.39 585.5,-172.39"/>
<text text-anchor="middle" x="624.5" y="-179.39" font-family="Helvetica,sans-Serif" font-size="10.00">JS_FreeAtom</text>
</a>
</g>
</g>
<!-- Node3&#45;&gt;Node5 -->
<g id="edge4" class="edge">
<title>Node3&#45;&gt;Node5</title>
<path fill="none" stroke="midnightblue" d="M490.04,-210.3C516.14,-204.74 548.99,-197.75 575.57,-192.09"/>
<polygon fill="midnightblue" stroke="midnightblue" points="576.37,-195.5 585.42,-190 574.91,-188.65 576.37,-195.5"/>
</g>
<!-- Node11 -->
<g id="node6" class="node">
<title>Node11</title>
<g id="a_node6"><a xlink:href="quickjs_8c.html#a5d963b1e3acf275363fedd4bfdd8a57f" target="_top" xlink:title=" ">
<polygon fill="none" stroke="red" points="552,-286.39 552,-305.39 697,-305.39 697,-286.39 552,-286.39"/>
<text text-anchor="middle" x="624.5" y="-293.39" font-family="Helvetica,sans-Serif" font-size="10.00">js_function_set_properties</text>
</a>
</g>
</g>
<!-- Node3&#45;&gt;Node11 -->
<g id="edge5" class="edge">
<title>Node3&#45;&gt;Node11</title>
<path fill="none" stroke="midnightblue" d="M460.41,-229.56C480.73,-241.97 517.92,-263.49 552,-276.89 558.18,-279.32 564.79,-281.54 571.39,-283.55"/>
<polygon fill="midnightblue" stroke="midnightblue" points="570.44,-286.91 581.01,-286.32 572.37,-280.19 570.44,-286.91"/>
</g>
<!-- Node92 -->
<g id="node9" class="node">
<title>Node92</title>
<g id="a_node9"><a xlink:href="quickjs_8h.html#ad80a83d73e9b7d872b88fbf2943aebe9" target="_top" xlink:title=" ">
<polygon fill="none" stroke="black" points="581,-248.39 581,-267.39 668,-267.39 668,-248.39 581,-248.39"/>
<text text-anchor="middle" x="624.5" y="-255.39" font-family="Helvetica,sans-Serif" font-size="10.00">JS_IsException</text>
</a>
</g>
</g>
<!-- Node3&#45;&gt;Node92 -->
<g id="edge8" class="edge">
<title>Node3&#45;&gt;Node92</title>
<path fill="none" stroke="midnightblue" d="M490.04,-229.48C514.66,-234.72 545.28,-241.24 570.98,-246.71"/>
<polygon fill="midnightblue" stroke="midnightblue" points="570.42,-250.17 580.93,-248.83 571.88,-243.32 570.42,-250.17"/>
</g>
<!-- Node356 -->
<g id="node10" class="node">
<title>Node356</title>
<g id="a_node10"><a xlink:href="quickjs_8c.html#aa2ef5af1544a3012f91a80c98c326b8f" target="_top" xlink:title=" ">
<polygon fill="none" stroke="red" points="585,-134.39 585,-153.39 664,-153.39 664,-134.39 585,-134.39"/>
<text text-anchor="middle" x="624.5" y="-141.39" font-family="Helvetica,sans-Serif" font-size="10.00">JS_NewAtom</text>
</a>
</g>
</g>
<!-- Node3&#45;&gt;Node356 -->
<g id="edge9" class="edge">
<title>Node3&#45;&gt;Node356</title>
<path fill="none" stroke="midnightblue" d="M460.41,-210.21C480.73,-197.81 517.92,-176.29 552,-162.89 559.31,-160.01 567.21,-157.43 575,-155.16"/>
<polygon fill="midnightblue" stroke="midnightblue" points="576.06,-158.5 584.76,-152.45 574.19,-151.75 576.06,-158.5"/>
</g>
<!-- Node231 -->
<g id="node11" class="node">
<title>Node231</title>
<g id="a_node11"><a xlink:href="quickjs_8c.html#a73738c650f11459db0d7af3dcdf8316b" target="_top" xlink:title=" ">
<polygon fill="none" stroke="red" points="556.5,-210.39 556.5,-229.39 692.5,-229.39 692.5,-210.39 556.5,-210.39"/>
<text text-anchor="middle" x="624.5" y="-217.39" font-family="Helvetica,sans-Serif" font-size="10.00">JS_NewObjectProtoClass</text>
</a>
</g>
</g>
<!-- Node3&#45;&gt;Node231 -->
<g id="edge10" class="edge">
<title>Node3&#45;&gt;Node231</title>
<path fill="none" stroke="midnightblue" d="M497.59,-219.89C512.83,-219.89 529.81,-219.89 546.23,-219.89"/>
<polygon fill="midnightblue" stroke="midnightblue" points="546.36,-223.39 556.36,-219.89 546.36,-216.39 546.36,-223.39"/>
</g>
<!-- Node39 -->
<g id="node7" class="node">
<title>Node39</title>
<g id="a_node7"><a xlink:href="quickjs_8c.html#a0a8765bd4012467d9139bc24aabcb3ca" target="_top" xlink:title=" ">
<polygon fill="none" stroke="red" points="733,-86.39 733,-105.39 864,-105.39 864,-86.39 733,-86.39"/>
<text text-anchor="middle" x="798.5" y="-93.39" font-family="Helvetica,sans-Serif" font-size="10.00">JS_DefinePropertyValue</text>
</a>
</g>
</g>
<!-- Node11&#45;&gt;Node39 -->
<g id="edge6" class="edge">
<title>Node11&#45;&gt;Node39</title>
<path fill="none" stroke="midnightblue" d="M680.41,-286.3C686.35,-283.84 692.04,-280.76 697,-276.89 751.97,-234.07 781.32,-152.3 792.33,-115.13"/>
<polygon fill="midnightblue" stroke="midnightblue" points="795.69,-116.09 795.06,-105.51 788.96,-114.17 795.69,-116.09"/>
</g>
<!-- Node63 -->
<g id="node8" class="node">
<title>Node63</title>
<g id="a_node8"><a xlink:href="quickjs_8h.html#afaa20c47565bc704c6c85f3d77254e7d" target="_top" xlink:title=" ">
<polygon fill="none" stroke="red" points="900,-34.39 900,-53.39 979,-53.39 979,-34.39 900,-34.39"/>
<text text-anchor="middle" x="939.5" y="-41.39" font-family="Helvetica,sans-Serif" font-size="10.00">JS_FreeValue</text>
</a>
</g>
</g>
<!-- Node39&#45;&gt;Node63 -->
<g id="edge7" class="edge">
<title>Node39&#45;&gt;Node63</title>
<path fill="none" stroke="midnightblue" d="M824.99,-86.35C846.9,-78.16 878.71,-66.25 903.09,-57.14"/>
<polygon fill="midnightblue" stroke="midnightblue" points="904.56,-60.32 912.7,-53.54 902.1,-53.77 904.56,-60.32"/>
</g>
<!-- Node438&#45;&gt;Node63 -->
<g id="edge17" class="edge">
<title>Node438&#45;&gt;Node63</title>
<path fill="none" stroke="midnightblue" d="M286.21,-58.31C308.54,-50.47 341.93,-39.88 372,-34.89 587.81,0.97 647.88,14.06 864,-19.89 877.88,-22.07 892.69,-26.4 905.43,-30.79"/>
<polygon fill="midnightblue" stroke="midnightblue" points="904.54,-34.19 915.14,-34.29 906.91,-27.61 904.54,-34.19"/>
</g>
<!-- Node439 -->
<g id="node13" class="node">
<title>Node439</title>
<g id="a_node13"><a xlink:href="quickjs_8c.html#a841f4cb887e4d9e03e94a0697255e578" target="_top" xlink:title=" ">
<polygon fill="none" stroke="black" points="372,-115.39 372,-134.39 516,-134.39 516,-115.39 372,-115.39"/>
<text text-anchor="middle" x="444" y="-122.39" font-family="Helvetica,sans-Serif" font-size="10.00">JS_DefinePropertyValueStr</text>
</a>
</g>
</g>
<!-- Node438&#45;&gt;Node439 -->
<g id="edge12" class="edge">
<title>Node438&#45;&gt;Node439</title>
<path fill="none" stroke="midnightblue" d="M291.05,-77.43C321.71,-87.01 369.11,-101.81 402.8,-112.33"/>
<polygon fill="midnightblue" stroke="midnightblue" points="401.77,-115.68 412.35,-115.32 403.85,-108.99 401.77,-115.68"/>
</g>
<!-- Node16 -->
<g id="node14" class="node">
<title>Node16</title>
<g id="a_node14"><a xlink:href="quickjs_8h.html#a775522f2d084fc8fa0fcb33f390006b4" target="_top" xlink:title=" ">
<polygon fill="none" stroke="black" points="760,-29.39 760,-48.39 837,-48.39 837,-29.39 760,-29.39"/>
<text text-anchor="middle" x="798.5" y="-36.39" font-family="Helvetica,sans-Serif" font-size="10.00">JS_DupValue</text>
</a>
</g>
</g>
<!-- Node438&#45;&gt;Node16 -->
<g id="edge16" class="edge">
<title>Node438&#45;&gt;Node16</title>
<path fill="none" stroke="midnightblue" d="M307.22,-58.37C327.1,-54.73 350.6,-50.95 372,-48.89 508.56,-35.72 670.85,-36.39 749.72,-37.76"/>
<polygon fill="midnightblue" stroke="midnightblue" points="749.76,-41.26 759.82,-37.94 749.89,-34.26 749.76,-41.26"/>
</g>
<!-- Node440 -->
<g id="node15" class="node">
<title>Node440</title>
<g id="a_node15"><a xlink:href="quickjs_8c.html#ad4850b99c142ea2d6d1b276efebb62e0" target="_top" xlink:title=" ">
<polygon fill="none" stroke="black" points="392.5,-58.39 392.5,-77.39 495.5,-77.39 495.5,-58.39 392.5,-58.39"/>
<text text-anchor="middle" x="444" y="-65.39" font-family="Helvetica,sans-Serif" font-size="10.00">JS_SetConstructor</text>
</a>
</g>
</g>
<!-- Node438&#45;&gt;Node440 -->
<g id="edge18" class="edge">
<title>Node438&#45;&gt;Node440</title>
<path fill="none" stroke="midnightblue" d="M336.05,-67.89C351.5,-67.89 367.58,-67.89 382.43,-67.89"/>
<polygon fill="midnightblue" stroke="midnightblue" points="382.49,-71.39 392.49,-67.89 382.49,-64.39 382.49,-71.39"/>
</g>
<!-- Node439&#45;&gt;Node5 -->
<g id="edge14" class="edge">
<title>Node439&#45;&gt;Node5</title>
<path fill="none" stroke="midnightblue" d="M470.32,-134.54C491.87,-142.59 523.76,-154.14 552,-162.89 559.59,-165.24 567.69,-167.57 575.61,-169.74"/>
<polygon fill="midnightblue" stroke="midnightblue" points="574.92,-173.18 585.49,-172.4 576.74,-166.42 574.92,-173.18"/>
</g>
<!-- Node439&#45;&gt;Node39 -->
<g id="edge13" class="edge">
<title>Node439&#45;&gt;Node39</title>
<path fill="none" stroke="midnightblue" d="M516.33,-119.02C576.24,-114.09 661.57,-107.07 722.48,-102.06"/>
<polygon fill="midnightblue" stroke="midnightblue" points="723.12,-105.52 732.8,-101.21 722.55,-98.54 723.12,-105.52"/>
</g>
<!-- Node439&#45;&gt;Node356 -->
<g id="edge15" class="edge">
<title>Node439&#45;&gt;Node356</title>
<path fill="none" stroke="midnightblue" d="M516.06,-132.45C535.66,-134.54 556.48,-136.75 574.52,-138.67"/>
<polygon fill="midnightblue" stroke="midnightblue" points="574.19,-142.16 584.51,-139.74 574.93,-135.2 574.19,-142.16"/>
</g>
<!-- Node441 -->
<g id="node16" class="node">
<title>Node441</title>
<g id="a_node16"><a xlink:href="quickjs_8c.html#a945738a975fc3235a1d7858d48d9b274" target="_top" xlink:title=" ">
<polygon fill="none" stroke="red" points="570,-58.39 570,-77.39 679,-77.39 679,-58.39 570,-58.39"/>
<text text-anchor="middle" x="624.5" y="-65.39" font-family="Helvetica,sans-Serif" font-size="10.00">JS_SetConstructor2</text>
</a>
</g>
</g>
<!-- Node440&#45;&gt;Node441 -->
<g id="edge19" class="edge">
<title>Node440&#45;&gt;Node441</title>
<path fill="none" stroke="midnightblue" d="M495.67,-67.89C515.6,-67.89 538.71,-67.89 559.75,-67.89"/>
<polygon fill="midnightblue" stroke="midnightblue" points="559.9,-71.39 569.89,-67.89 559.89,-64.39 559.9,-71.39"/>
</g>
<!-- Node441&#45;&gt;Node39 -->
<g id="edge20" class="edge">
<title>Node441&#45;&gt;Node39</title>
<path fill="none" stroke="midnightblue" d="M679.45,-76.67C695.11,-79.22 712.43,-82.04 728.87,-84.72"/>
<polygon fill="midnightblue" stroke="midnightblue" points="728.54,-88.21 738.97,-86.36 729.66,-81.3 728.54,-88.21"/>
</g>
<!-- Node441&#45;&gt;Node16 -->
<g id="edge21" class="edge">
<title>Node441&#45;&gt;Node16</title>
<path fill="none" stroke="midnightblue" d="M679.45,-58.79C701.99,-54.99 727.95,-50.61 749.78,-46.93"/>
<polygon fill="midnightblue" stroke="midnightblue" points="750.54,-50.36 759.81,-45.24 749.37,-43.45 750.54,-50.36"/>
</g>
</g>
</svg>
        <g id="navigator" transform="translate(0 0)" fill="#404254">
                <rect fill="#f2f5e9" fill-opacity="0.5" stroke="#606060" stroke-width=".5" x="0" y="0" width="60" height="60"/>
                <use id="zoomplus" xlink:href="#zoomPlus" x="17" y="9" onmousedown="handleZoom(evt,'in')"/>
                <use id="zoomminus" xlink:href="#zoomMin" x="42" y="9" onmousedown="handleZoom(evt,'out')"/>
                <use id="reset" xlink:href="#resetDef" x="30" y="36" onmousedown="handleReset()"/>
                <g id="arrowUp" xlink:href="#dirArrow" transform="translate(30 24)" onmousedown="handlePan(0,-1)">
                  <use xlink:href="#rim" fill="#404040">
                        <set attributeName="fill" to="#808080" begin="arrowUp.mouseover" end="arrowUp.mouseout"/>
                  </use>
                  <path fill="none" stroke="white" stroke-width="1.5" d="M0,-3.0v7 M-2.5,-0.5L0,-3.0L2.5,-0.5"/>
                </g>
                <g id="arrowRight" xlink:href="#dirArrow" transform="rotate(90) translate(36 -43)" onmousedown="handlePan(1,0)">
                  <use xlink:href="#rim" fill="#404040">
                        <set attributeName="fill" to="#808080" begin="arrowRight.mouseover" end="arrowRight.mouseout"/>
                  </use>
                  <path fill="none" stroke="white" stroke-width="1.5" d="M0,-3.0v7 M-2.5,-0.5L0,-3.0L2.5,-0.5"/>
                </g>
                <g id="arrowDown" xlink:href="#dirArrow" transform="rotate(180) translate(-30 -48)" onmousedown="handlePan(0,1)">
                  <use xlink:href="#rim" fill="#404040">
                        <set attributeName="fill" to="#808080" begin="arrowDown.mouseover" end="arrowDown.mouseout"/>
                  </use>
                  <path fill="none" stroke="white" stroke-width="1.5" d="M0,-3.0v7 M-2.5,-0.5L0,-3.0L2.5,-0.5"/>
                </g>
                <g id="arrowLeft" xlink:href="#dirArrow" transform="rotate(270) translate(-36 17)" onmousedown="handlePan(-1,0)">
                  <use xlink:href="#rim" fill="#404040">
                        <set attributeName="fill" to="#808080" begin="arrowLeft.mouseover" end="arrowLeft.mouseout"/>
                  </use>
                  <path fill="none" stroke="white" stroke-width="1.5" d="M0,-3.0v7 M-2.5,-0.5L0,-3.0L2.5,-0.5"/>
                </g>
        </g>
        <svg viewBox="0 0 15 15" width="100%" height="30px" preserveAspectRatio="xMaxYMin meet">
         <g id="arrow_out" transform="scale(0.3 0.3)">
          <a xlink:href="quickjs_8c_a293feb2179c9a722b2bd410bc2c5c173_cgraph_org.svg" target="_base">
           <rect id="button" ry="5" rx="5" y="6" x="6" height="38" width="38"
                fill="#f2f5e9" fill-opacity="0.5" stroke="#606060" stroke-width="1.0"/>
           <path id="arrow"
             d="M 11.500037,31.436501 C 11.940474,20.09759 22.043105,11.32322 32.158766,21.979434 L 37.068811,17.246167 C 37.068811,17.246167 37.088388,32 37.088388,32 L 22.160133,31.978069 C 22.160133,31.978069 26.997745,27.140456 26.997745,27.140456 C 18.528582,18.264221 13.291696,25.230495 11.500037,31.436501 z"
             style="fill:#404040;"/>
          </a>
         </g>
        </svg>
</svg>
