<?xml version="1.0" encoding="UTF-8" standalone="no"?>
<!DOCTYPE svg PUBLIC "-//W3C//DTD SVG 1.1//EN"
 "http://www.w3.org/Graphics/SVG/1.1/DTD/svg11.dtd">
<!-- Generated by graphviz version 2.43.0 (0)
 -->
<!-- Title: js_worker_ctor Pages: 1 -->
<!--zoomable 850 -->
<svg id="main" version="1.1" xmlns="http://www.w3.org/2000/svg" xmlns:xlink="http://www.w3.org/1999/xlink" xml:space="preserve" onload="init(evt)">
<style type="text/css"><![CDATA[
.edge:hover path { stroke: red; }
.edge:hover polygon { stroke: red; fill: red; }
]]></style>
<script type="text/javascript"><![CDATA[
var edges = document.getElementsByTagName('g');
if (edges && edges.length) {
  for (var i=0;i<edges.length;i++) {
    if (edges[i].id.substr(0,4)=='edge') {
      edges[i].setAttribute('class','edge');
    }
  }
}
]]></script>
        <defs>
                <circle id="rim" cx="0" cy="0" r="7"/>
                <circle id="rim2" cx="0" cy="0" r="3.5"/>
                <g id="zoomPlus">
                        <use xlink:href="#rim" fill="#404040">
                                <set attributeName="fill" to="#808080" begin="zoomplus.mouseover" end="zoomplus.mouseout"/>
                        </use>
                        <path d="M-4,0h8M0,-4v8" fill="none" stroke="white" stroke-width="1.5" pointer-events="none"/>
                </g>
                <g id="zoomMin">
                        <use xlink:href="#rim" fill="#404040">
                                <set attributeName="fill" to="#808080" begin="zoomminus.mouseover" end="zoomminus.mouseout"/>
                        </use>
                        <path d="M-4,0h8" fill="none" stroke="white" stroke-width="1.5" pointer-events="none"/>
                </g>
                <g id="dirArrow">
                        <path fill="none" stroke="white" stroke-width="1.5" d="M0,-3.0v7 M-2.5,-0.5L0,-3.0L2.5,-0.5"/>
                </g>
               <g id="resetDef">
                       <use xlink:href="#rim2" fill="#404040">
                               <set attributeName="fill" to="#808080" begin="reset.mouseover" end="reset.mouseout"/>
                       </use>
               </g>
        </defs>

<script type="text/javascript">
var viewWidth = 865;
var viewHeight = 850;
var sectionId = 'dynsection-134';
</script>
<script xlink:href="svgpan.js"/>
<svg id="graph" class="graph">
<g id="viewport">
<title>js_worker_ctor</title>
<!-- Node1 -->
<g id="node1" class="node">
<title>Node1</title>
<g id="a_node1"><a xlink:title=" ">
<polygon fill="#bfbfbf" stroke="black" points="0,-290.11 0,-309.11 87,-309.11 87,-290.11 0,-290.11"/>
<text text-anchor="middle" x="43.5" y="-297.11" font-family="Helvetica,sans-Serif" font-size="10.00">js_worker_ctor</text>
</a>
</g>
</g>
<!-- Node2 -->
<g id="node2" class="node">
<title>Node2</title>
<g id="a_node2"><a xlink:href="quickjs-libc_8c.html#ae718f3538904348259f621249512c8e5" target="_top" xlink:title=" ">
<polygon fill="none" stroke="black" points="153,-822.11 153,-841.11 245,-841.11 245,-822.11 153,-822.11"/>
<text text-anchor="middle" x="199" y="-829.11" font-family="Helvetica,sans-Serif" font-size="10.00">is_main_thread</text>
</a>
</g>
</g>
<!-- Node1&#45;&gt;Node2 -->
<g id="edge1" class="edge">
<title>Node1&#45;&gt;Node2</title>
<path fill="none" stroke="midnightblue" d="M44.65,-309.26C45.83,-372.59 55.45,-728.58 123,-807.61 128.43,-813.97 135.55,-818.65 143.23,-822.11"/>
<polygon fill="midnightblue" stroke="midnightblue" points="142.22,-825.47 152.81,-825.74 144.7,-818.92 142.22,-825.47"/>
</g>
<!-- Node3 -->
<g id="node3" class="node">
<title>Node3</title>
<g id="a_node3"><a xlink:href="quickjs_8c.html#a4b66ebf3abee5d29490343fbe360ec5a" target="_top" xlink:title=" ">
<polygon fill="none" stroke="black" points="147.5,-670.11 147.5,-689.11 250.5,-689.11 250.5,-670.11 147.5,-670.11"/>
<text text-anchor="middle" x="199" y="-677.11" font-family="Helvetica,sans-Serif" font-size="10.00">JS_AtomToCString</text>
</a>
</g>
</g>
<!-- Node1&#45;&gt;Node3 -->
<g id="edge2" class="edge">
<title>Node1&#45;&gt;Node3</title>
<path fill="none" stroke="midnightblue" d="M45.34,-309.2C49.99,-360.51 74.29,-602.17 123,-655.61 127.29,-660.32 132.5,-664.11 138.16,-667.16"/>
<polygon fill="midnightblue" stroke="midnightblue" points="136.8,-670.39 147.35,-671.37 139.72,-664.02 136.8,-670.39"/>
</g>
<!-- Node32 -->
<g id="node5" class="node">
<title>Node32</title>
<g id="a_node5"><a xlink:href="quickjs_8h.html#afaa20c47565bc704c6c85f3d77254e7d" target="_top" xlink:title=" ">
<polygon fill="none" stroke="black" points="649,-214.11 649,-233.11 728,-233.11 728,-214.11 649,-214.11"/>
<text text-anchor="middle" x="688.5" y="-221.11" font-family="Helvetica,sans-Serif" font-size="10.00">JS_FreeValue</text>
</a>
</g>
</g>
<!-- Node1&#45;&gt;Node32 -->
<g id="edge17" class="edge">
<title>Node1&#45;&gt;Node32</title>
<path fill="none" stroke="midnightblue" d="M82.98,-290.07C174.69,-267.54 404.31,-212.32 483,-204.61 538.73,-199.16 553.39,-197.98 609,-204.61 621.06,-206.05 633.95,-208.69 645.72,-211.56"/>
<polygon fill="midnightblue" stroke="midnightblue" points="645.18,-215.03 655.73,-214.11 646.9,-208.25 645.18,-215.03"/>
</g>
<!-- Node68 -->
<g id="node7" class="node">
<title>Node68</title>
<g id="a_node7"><a xlink:href="quickjs_8h.html#ad80a83d73e9b7d872b88fbf2943aebe9" target="_top" xlink:title=" ">
<polygon fill="none" stroke="black" points="645,-670.11 645,-689.11 732,-689.11 732,-670.11 645,-670.11"/>
<text text-anchor="middle" x="688.5" y="-677.11" font-family="Helvetica,sans-Serif" font-size="10.00">JS_IsException</text>
</a>
</g>
</g>
<!-- Node1&#45;&gt;Node68 -->
<g id="edge20" class="edge">
<title>Node1&#45;&gt;Node68</title>
<path fill="none" stroke="midnightblue" d="M45.07,-309.26C48.54,-364.34 68.39,-638.54 123,-698.61 268.76,-858.96 407,-816.06 609,-737.61 632.72,-728.4 655.63,-710.03 670.51,-696.43"/>
<polygon fill="midnightblue" stroke="midnightblue" points="673.04,-698.85 677.91,-689.44 668.23,-693.76 673.04,-698.85"/>
</g>
<!-- Node69 -->
<g id="node8" class="node">
<title>Node69</title>
<g id="a_node8"><a xlink:href="quickjs_8h.html#af931f06630ab719b5f82a16eb27effd1" target="_top" xlink:title=" ">
<polygon fill="none" stroke="black" points="340.5,-670.11 340.5,-689.11 417.5,-689.11 417.5,-670.11 340.5,-670.11"/>
<text text-anchor="middle" x="379" y="-677.11" font-family="Helvetica,sans-Serif" font-size="10.00">JS_ToCString</text>
</a>
</g>
</g>
<!-- Node1&#45;&gt;Node69 -->
<g id="edge24" class="edge">
<title>Node1&#45;&gt;Node69</title>
<path fill="none" stroke="midnightblue" d="M45.53,-309.18C50.92,-357.26 77.28,-572.05 123,-617.61 137.71,-632.27 260.76,-657.49 330.41,-670.8"/>
<polygon fill="midnightblue" stroke="midnightblue" points="329.8,-674.24 340.27,-672.67 331.1,-667.37 329.8,-674.24"/>
</g>
<!-- Node437 -->
<g id="node10" class="node">
<title>Node437</title>
<g id="a_node10"><a xlink:href="quickjs-libc_8c.html#a2c8234980adfda2a29db3b01cbdc8362" target="_top" xlink:title=" ">
<polygon fill="none" stroke="black" points="136.5,-518.11 136.5,-537.11 261.5,-537.11 261.5,-518.11 136.5,-518.11"/>
<text text-anchor="middle" x="199" y="-525.11" font-family="Helvetica,sans-Serif" font-size="10.00">js_free_message_pipe</text>
</a>
</g>
</g>
<!-- Node1&#45;&gt;Node437 -->
<g id="edge11" class="edge">
<title>Node1&#45;&gt;Node437</title>
<path fill="none" stroke="midnightblue" d="M50.9,-309.12C74.26,-343.81 155.14,-463.95 185.95,-509.72"/>
<polygon fill="midnightblue" stroke="midnightblue" points="183.08,-511.72 191.57,-518.07 188.89,-507.82 183.08,-511.72"/>
</g>
<!-- Node52 -->
<g id="node13" class="node">
<title>Node52</title>
<g id="a_node13"><a xlink:href="quickjs_8c.html#ab7fc45a99935a1c0ba50b0216d9401a9" target="_top" xlink:title=" ">
<polygon fill="none" stroke="red" points="507,-537.11 507,-556.11 585,-556.11 585,-537.11 507,-537.11"/>
<text text-anchor="middle" x="546" y="-544.11" font-family="Helvetica,sans-Serif" font-size="10.00">JS_FreeAtom</text>
</a>
</g>
</g>
<!-- Node1&#45;&gt;Node52 -->
<g id="edge14" class="edge">
<title>Node1&#45;&gt;Node52</title>
<path fill="none" stroke="midnightblue" d="M44.35,-309.22C44.33,-346.22 49.49,-480.66 123,-546.61 230.92,-643.44 304.49,-611.28 447,-584.61 471.7,-579.99 498.19,-569.34 517.4,-560.49"/>
<polygon fill="midnightblue" stroke="midnightblue" points="518.92,-563.64 526.46,-556.2 515.92,-557.31 518.92,-563.64"/>
</g>
<!-- Node125 -->
<g id="node14" class="node">
<title>Node125</title>
<g id="a_node14"><a xlink:href="quickjs_8c.html#ae0bc4f65da64810facb2cb9e476eda2e" target="_top" xlink:title=" ">
<polygon fill="none" stroke="black" points="502.5,-138.11 502.5,-157.11 589.5,-157.11 589.5,-138.11 502.5,-138.11"/>
<text text-anchor="middle" x="546" y="-145.11" font-family="Helvetica,sans-Serif" font-size="10.00">JS_FreeCString</text>
</a>
</g>
</g>
<!-- Node1&#45;&gt;Node125 -->
<g id="edge15" class="edge">
<title>Node1&#45;&gt;Node125</title>
<path fill="none" stroke="midnightblue" d="M46.8,-290C53.47,-264.52 75.43,-195.21 123,-166.61 183.71,-130.12 393.06,-137.88 492.18,-143.89"/>
<polygon fill="midnightblue" stroke="midnightblue" points="492.08,-147.39 502.28,-144.52 492.51,-140.4 492.08,-147.39"/>
</g>
<!-- Node441 -->
<g id="node15" class="node">
<title>Node441</title>
<g id="a_node15"><a xlink:href="quickjs_8c.html#af1866c7f8a91153f11602a2b521d9399" target="_top" xlink:title=" ">
<polygon fill="none" stroke="black" points="154.5,-214.11 154.5,-233.11 243.5,-233.11 243.5,-214.11 154.5,-214.11"/>
<text text-anchor="middle" x="199" y="-221.11" font-family="Helvetica,sans-Serif" font-size="10.00">JS_GetRuntime</text>
</a>
</g>
</g>
<!-- Node1&#45;&gt;Node441 -->
<g id="edge18" class="edge">
<title>Node1&#45;&gt;Node441</title>
<path fill="none" stroke="midnightblue" d="M56.64,-290.02C71.55,-278.62 97.94,-259.64 123,-247.61 132.06,-243.27 142.1,-239.44 151.81,-236.19"/>
<polygon fill="midnightblue" stroke="midnightblue" points="152.9,-239.51 161.36,-233.13 150.77,-232.84 152.9,-239.51"/>
</g>
<!-- Node374 -->
<g id="node16" class="node">
<title>Node374</title>
<g id="a_node16"><a xlink:href="quickjs_8c.html#a3d9d43172bb33e53a4843dd3a770e889" target="_top" xlink:title=" ">
<polygon fill="none" stroke="red" points="123,-176.11 123,-195.11 275,-195.11 275,-176.11 123,-176.11"/>
<text text-anchor="middle" x="199" y="-183.11" font-family="Helvetica,sans-Serif" font-size="10.00">JS_GetScriptOrModuleName</text>
</a>
</g>
</g>
<!-- Node1&#45;&gt;Node374 -->
<g id="edge19" class="edge">
<title>Node1&#45;&gt;Node374</title>
<path fill="none" stroke="midnightblue" d="M49.58,-290.1C60.37,-270.81 87.56,-227.04 123,-204.61 126.35,-202.49 129.93,-200.61 133.63,-198.93"/>
<polygon fill="midnightblue" stroke="midnightblue" points="135.05,-202.14 143.05,-195.19 132.47,-195.63 135.05,-202.14"/>
</g>
<!-- Node442 -->
<g id="node17" class="node">
<title>Node442</title>
<g id="a_node17"><a xlink:href="quickjs-libc_8c.html#af5b54bf809f84a3bac14031e5a3edd33" target="_top" xlink:title=" ">
<polygon fill="none" stroke="black" points="483,-24.11 483,-43.11 609,-43.11 609,-24.11 483,-24.11"/>
<text text-anchor="middle" x="546" y="-31.11" font-family="Helvetica,sans-Serif" font-size="10.00">js_new_message_pipe</text>
</a>
</g>
</g>
<!-- Node1&#45;&gt;Node442 -->
<g id="edge21" class="edge">
<title>Node1&#45;&gt;Node442</title>
<path fill="none" stroke="midnightblue" d="M44.17,-289.91C43.49,-252.62 46.55,-117.64 123,-58.61 235.09,27.94 417.94,-1.78 501.21,-21.67"/>
<polygon fill="midnightblue" stroke="midnightblue" points="500.56,-25.11 511.1,-24.09 502.23,-18.31 500.56,-25.11"/>
</g>
<!-- Node15 -->
<g id="node19" class="node">
<title>Node15</title>
<g id="a_node19"><a xlink:href="quickjs_8c.html#a344d6c0e45d9bf3861fd9269724045a2" target="_top" xlink:title=" ">
<polygon fill="none" stroke="red" points="134,-100.11 134,-119.11 264,-119.11 264,-100.11 134,-100.11"/>
<text text-anchor="middle" x="199" y="-107.11" font-family="Helvetica,sans-Serif" font-size="10.00">JS_ThrowOutOfMemory</text>
</a>
</g>
</g>
<!-- Node1&#45;&gt;Node15 -->
<g id="edge23" class="edge">
<title>Node1&#45;&gt;Node15</title>
<path fill="none" stroke="midnightblue" d="M46.32,-289.73C52.08,-261.17 72.64,-177.73 123,-133.61 127.72,-129.47 133.17,-126.05 138.92,-123.21"/>
<polygon fill="midnightblue" stroke="midnightblue" points="140.36,-126.4 148.16,-119.22 137.59,-119.98 140.36,-126.4"/>
</g>
<!-- Node443 -->
<g id="node20" class="node">
<title>Node443</title>
<g id="a_node20"><a xlink:href="quickjs-libc_8c.html#a8129754877bdfb4d22f64dae5ba8e778" target="_top" xlink:title=" ">
<polygon fill="none" stroke="black" points="134,-328.11 134,-347.11 264,-347.11 264,-328.11 134,-328.11"/>
<text text-anchor="middle" x="199" y="-335.11" font-family="Helvetica,sans-Serif" font-size="10.00">js_worker_ctor_internal</text>
</a>
</g>
</g>
<!-- Node1&#45;&gt;Node443 -->
<g id="edge25" class="edge">
<title>Node1&#45;&gt;Node443</title>
<path fill="none" stroke="midnightblue" d="M83.23,-309.2C103.4,-314.19 128.25,-320.35 149.66,-325.65"/>
<polygon fill="midnightblue" stroke="midnightblue" points="149,-329.09 159.54,-328.09 150.68,-322.29 149,-329.09"/>
</g>
<!-- Node447 -->
<g id="node27" class="node">
<title>Node447</title>
<g id="a_node27"><a xlink:href="quickjs-libc_8c.html#a1fbb3adc15e7b967479fc1940e99b67a" target="_top" xlink:title=" ">
<polygon fill="none" stroke="red" points="341,-81.11 341,-100.11 417,-100.11 417,-81.11 341,-81.11"/>
<text text-anchor="middle" x="379" y="-88.11" font-family="Helvetica,sans-Serif" font-size="10.00">worker_func</text>
</a>
</g>
</g>
<!-- Node1&#45;&gt;Node447 -->
<g id="edge36" class="edge">
<title>Node1&#45;&gt;Node447</title>
<path fill="none" stroke="midnightblue" d="M44.6,-289.87C45.53,-255.38 53.86,-138.5 123,-90.61 187.96,-45.62 286.3,-63.37 339.9,-78.24"/>
<polygon fill="midnightblue" stroke="midnightblue" points="339.1,-81.65 349.68,-81.06 341.04,-74.93 339.1,-81.65"/>
</g>
<!-- Node4 -->
<g id="node4" class="node">
<title>Node4</title>
<g id="a_node4"><a xlink:href="quickjs_8c.html#a260bfa297ff6cb5bd18e229afaa54663" target="_top" xlink:title=" ">
<polygon fill="none" stroke="red" points="331,-708.11 331,-727.11 427,-727.11 427,-708.11 331,-708.11"/>
<text text-anchor="middle" x="379" y="-715.11" font-family="Helvetica,sans-Serif" font-size="10.00">JS_AtomToString</text>
</a>
</g>
</g>
<!-- Node3&#45;&gt;Node4 -->
<g id="edge3" class="edge">
<title>Node3&#45;&gt;Node4</title>
<path fill="none" stroke="midnightblue" d="M244.92,-689.2C268.83,-694.31 298.42,-700.62 323.62,-706"/>
<polygon fill="midnightblue" stroke="midnightblue" points="322.9,-709.43 333.41,-708.09 324.36,-702.58 322.9,-709.43"/>
</g>
<!-- Node3&#45;&gt;Node32 -->
<g id="edge4" class="edge">
<title>Node3&#45;&gt;Node32</title>
<path fill="none" stroke="midnightblue" d="M243.86,-670.05C344.1,-647.81 583.32,-592.5 609,-565.61 654.24,-518.23 678.87,-309.05 685.59,-243.4"/>
<polygon fill="midnightblue" stroke="midnightblue" points="689.1,-243.49 686.61,-233.19 682.14,-242.79 689.1,-243.49"/>
</g>
<!-- Node3&#45;&gt;Node68 -->
<g id="edge6" class="edge">
<title>Node3&#45;&gt;Node68</title>
<path fill="none" stroke="midnightblue" d="M213.52,-689.28C233.62,-702.99 273.1,-727.45 311,-736.61 436.6,-766.98 589.9,-717.74 655.37,-692.76"/>
<polygon fill="midnightblue" stroke="midnightblue" points="656.69,-696 664.74,-689.12 654.15,-689.48 656.69,-696"/>
</g>
<!-- Node3&#45;&gt;Node69 -->
<g id="edge7" class="edge">
<title>Node3&#45;&gt;Node69</title>
<path fill="none" stroke="midnightblue" d="M250.53,-679.61C275.53,-679.61 305.55,-679.61 330.17,-679.61"/>
<polygon fill="midnightblue" stroke="midnightblue" points="330.37,-683.11 340.37,-679.61 330.37,-676.11 330.37,-683.11"/>
</g>
<!-- Node33 -->
<g id="node6" class="node">
<title>Node33</title>
<g id="a_node6"><a xlink:href="quickjs_8c.html#aa059f309c30fd5166d16c82a97973146" target="_top" xlink:title=" ">
<polygon fill="none" stroke="red" points="768,-214.11 768,-233.11 857,-233.11 857,-214.11 768,-214.11"/>
<text text-anchor="middle" x="812.5" y="-221.11" font-family="Helvetica,sans-Serif" font-size="10.00">__JS_FreeValue</text>
</a>
</g>
</g>
<!-- Node32&#45;&gt;Node33 -->
<g id="edge5" class="edge">
<title>Node32&#45;&gt;Node33</title>
<path fill="none" stroke="midnightblue" d="M728.1,-223.61C737.43,-223.61 747.56,-223.61 757.45,-223.61"/>
<polygon fill="midnightblue" stroke="midnightblue" points="757.63,-227.11 767.63,-223.61 757.63,-220.11 757.63,-227.11"/>
</g>
<!-- Node70 -->
<g id="node9" class="node">
<title>Node70</title>
<g id="a_node9"><a xlink:href="quickjs_8c.html#af49e67b73f845dc1f9c3ee648dd9f95c" target="_top" xlink:title=" ">
<polygon fill="none" stroke="red" points="496,-670.11 496,-689.11 596,-689.11 596,-670.11 496,-670.11"/>
<text text-anchor="middle" x="546" y="-677.11" font-family="Helvetica,sans-Serif" font-size="10.00">JS_ToCStringLen2</text>
</a>
</g>
</g>
<!-- Node69&#45;&gt;Node70 -->
<g id="edge8" class="edge">
<title>Node69&#45;&gt;Node70</title>
<path fill="none" stroke="midnightblue" d="M417.85,-679.61C437.9,-679.61 462.99,-679.61 485.56,-679.61"/>
<polygon fill="midnightblue" stroke="midnightblue" points="485.73,-683.11 495.73,-679.61 485.73,-676.11 485.73,-683.11"/>
</g>
<!-- Node70&#45;&gt;Node32 -->
<g id="edge9" class="edge">
<title>Node70&#45;&gt;Node32</title>
<path fill="none" stroke="midnightblue" d="M589.16,-670.02C596.69,-666.59 603.78,-661.93 609,-655.61 662.35,-591.06 681.95,-319.08 686.43,-243.29"/>
<polygon fill="midnightblue" stroke="midnightblue" points="689.93,-243.41 687,-233.23 682.94,-243.01 689.93,-243.41"/>
</g>
<!-- Node70&#45;&gt;Node68 -->
<g id="edge10" class="edge">
<title>Node70&#45;&gt;Node68</title>
<path fill="none" stroke="midnightblue" d="M596.14,-679.61C608.5,-679.61 621.83,-679.61 634.38,-679.61"/>
<polygon fill="midnightblue" stroke="midnightblue" points="634.7,-683.11 644.7,-679.61 634.7,-676.11 634.7,-683.11"/>
</g>
<!-- Node438 -->
<g id="node11" class="node">
<title>Node438</title>
<g id="a_node11"><a xlink:href="quickjs-libc_8c.html#aa790fd732a5386c363726ddb72bb20e2" target="_top" xlink:title=" ">
<polygon fill="none" stroke="black" points="500,-347.11 500,-366.11 592,-366.11 592,-347.11 500,-347.11"/>
<text text-anchor="middle" x="546" y="-354.11" font-family="Helvetica,sans-Serif" font-size="10.00">atomic_add_int</text>
</a>
</g>
</g>
<!-- Node437&#45;&gt;Node438 -->
<g id="edge12" class="edge">
<title>Node437&#45;&gt;Node438</title>
<path fill="none" stroke="midnightblue" d="M259.29,-537.12C312.28,-542.51 390.1,-542.52 447,-508.61 498.11,-478.15 527.25,-409.51 538.94,-375.89"/>
<polygon fill="midnightblue" stroke="midnightblue" points="542.3,-376.9 542.13,-366.3 535.65,-374.69 542.3,-376.9"/>
</g>
<!-- Node439 -->
<g id="node12" class="node">
<title>Node439</title>
<g id="a_node12"><a xlink:href="quickjs-libc_8c.html#a787c84066ba712c7487df7459615276f" target="_top" xlink:title=" ">
<polygon fill="none" stroke="red" points="329.5,-556.11 329.5,-575.11 428.5,-575.11 428.5,-556.11 329.5,-556.11"/>
<text text-anchor="middle" x="379" y="-563.11" font-family="Helvetica,sans-Serif" font-size="10.00">js_free_message</text>
</a>
</g>
</g>
<!-- Node437&#45;&gt;Node439 -->
<g id="edge13" class="edge">
<title>Node437&#45;&gt;Node439</title>
<path fill="none" stroke="midnightblue" d="M244.92,-537.2C268.83,-542.31 298.42,-548.62 323.62,-554"/>
<polygon fill="midnightblue" stroke="midnightblue" points="322.9,-557.43 333.41,-556.09 324.36,-550.58 322.9,-557.43"/>
</g>
<!-- Node125&#45;&gt;Node32 -->
<g id="edge16" class="edge">
<title>Node125&#45;&gt;Node32</title>
<path fill="none" stroke="midnightblue" d="M575.34,-157.12C586.11,-161.1 598.34,-166.1 609,-171.61 629.51,-182.22 651.29,-196.96 666.69,-208.03"/>
<polygon fill="midnightblue" stroke="midnightblue" points="664.83,-211 674.97,-214.07 668.95,-205.35 664.83,-211"/>
</g>
<!-- Node195 -->
<g id="node18" class="node">
<title>Node195</title>
<g id="a_node18"><a xlink:href="list_8h.html#a663527a4d757540b2177bef0db1ce5c0" target="_top" xlink:title=" ">
<polygon fill="none" stroke="black" points="647.5,-43.11 647.5,-62.11 729.5,-62.11 729.5,-43.11 647.5,-43.11"/>
<text text-anchor="middle" x="688.5" y="-50.11" font-family="Helvetica,sans-Serif" font-size="10.00">init_list_head</text>
</a>
</g>
</g>
<!-- Node442&#45;&gt;Node195 -->
<g id="edge22" class="edge">
<title>Node442&#45;&gt;Node195</title>
<path fill="none" stroke="midnightblue" d="M609.03,-42C618.43,-43.27 628.03,-44.57 637.15,-45.8"/>
<polygon fill="midnightblue" stroke="midnightblue" points="636.81,-49.29 647.19,-47.16 637.75,-42.35 636.81,-49.29"/>
</g>
<!-- Node443&#45;&gt;Node32 -->
<g id="edge28" class="edge">
<title>Node443&#45;&gt;Node32</title>
<path fill="none" stroke="midnightblue" d="M212.11,-327.92C227.07,-315.87 253.21,-294.58 275,-275.61 291.37,-261.36 290.77,-250.48 311,-242.61 311,-242.61 609,-242.61 609,-242.61 621.06,-241.17 633.95,-238.53 645.72,-235.67"/>
<polygon fill="midnightblue" stroke="midnightblue" points="646.9,-238.98 655.73,-233.12 645.18,-232.2 646.9,-238.98"/>
</g>
<!-- Node443&#45;&gt;Node68 -->
<g id="edge32" class="edge">
<title>Node443&#45;&gt;Node68</title>
<path fill="none" stroke="midnightblue" d="M208.47,-347.26C225.8,-366.4 267.36,-409.33 311,-432.61 433.64,-498.06 504.14,-436.35 609,-527.61 650.68,-563.89 673.24,-627.73 682.46,-659.9"/>
<polygon fill="midnightblue" stroke="midnightblue" points="679.17,-661.13 685.17,-669.86 685.92,-659.29 679.17,-661.13"/>
</g>
<!-- Node444 -->
<g id="node21" class="node">
<title>Node444</title>
<g id="a_node21"><a xlink:href="quickjs-libc_8c.html#ac1cc0fd3553ada828be687d09505cb4f" target="_top" xlink:title=" ">
<polygon fill="none" stroke="black" points="317,-290.11 317,-309.11 441,-309.11 441,-290.11 317,-290.11"/>
<text text-anchor="middle" x="379" y="-297.11" font-family="Helvetica,sans-Serif" font-size="10.00">js_dup_message_pipe</text>
</a>
</g>
</g>
<!-- Node443&#45;&gt;Node444 -->
<g id="edge26" class="edge">
<title>Node443&#45;&gt;Node444</title>
<path fill="none" stroke="midnightblue" d="M244.92,-328.02C268.83,-322.92 298.42,-316.6 323.62,-311.22"/>
<polygon fill="midnightblue" stroke="midnightblue" points="324.36,-314.64 333.41,-309.13 322.9,-307.8 324.36,-314.64"/>
</g>
<!-- Node445 -->
<g id="node22" class="node">
<title>Node445</title>
<g id="a_node22"><a xlink:href="quickjs_8c.html#a3938cae1c86a528a74d6710290d706e5" target="_top" xlink:title=" ">
<polygon fill="none" stroke="red" points="329,-252.11 329,-271.11 429,-271.11 429,-252.11 329,-252.11"/>
<text text-anchor="middle" x="379" y="-259.11" font-family="Helvetica,sans-Serif" font-size="10.00">JS_GetClassProto</text>
</a>
</g>
</g>
<!-- Node443&#45;&gt;Node445 -->
<g id="edge29" class="edge">
<title>Node443&#45;&gt;Node445</title>
<path fill="none" stroke="midnightblue" d="M216.08,-328.07C237.25,-315.8 275.93,-294.43 311,-280.61 316.91,-278.29 323.21,-276.11 329.49,-274.13"/>
<polygon fill="midnightblue" stroke="midnightblue" points="330.73,-277.41 339.3,-271.18 328.72,-270.71 330.73,-277.41"/>
</g>
<!-- Node446 -->
<g id="node23" class="node">
<title>Node446</title>
<g id="a_node23"><a xlink:href="quickjs_8c.html#a04f589361a4fbc30d997402e92a50de2" target="_top" xlink:title=" ">
<polygon fill="none" stroke="red" points="327.5,-480.11 327.5,-499.11 430.5,-499.11 430.5,-480.11 327.5,-480.11"/>
<text text-anchor="middle" x="379" y="-487.11" font-family="Helvetica,sans-Serif" font-size="10.00">JS_GetPropertyStr</text>
</a>
</g>
</g>
<!-- Node443&#45;&gt;Node446 -->
<g id="edge30" class="edge">
<title>Node443&#45;&gt;Node446</title>
<path fill="none" stroke="midnightblue" d="M205.75,-347.12C220.4,-370.56 261.48,-431.72 311,-465.61 317.17,-469.83 324.16,-473.4 331.25,-476.39"/>
<polygon fill="midnightblue" stroke="midnightblue" points="330.31,-479.78 340.9,-480.11 332.83,-473.24 330.31,-479.78"/>
</g>
<!-- Node129 -->
<g id="node24" class="node">
<title>Node129</title>
<g id="a_node24"><a xlink:href="quickjs_8h.html#a4e407128a9605afb77523e49e9a627fd" target="_top" xlink:title=" ">
<polygon fill="none" stroke="black" points="334.5,-404.11 334.5,-423.11 423.5,-423.11 423.5,-404.11 334.5,-404.11"/>
<text text-anchor="middle" x="379" y="-411.11" font-family="Helvetica,sans-Serif" font-size="10.00">JS_IsUndefined</text>
</a>
</g>
</g>
<!-- Node443&#45;&gt;Node129 -->
<g id="edge33" class="edge">
<title>Node443&#45;&gt;Node129</title>
<path fill="none" stroke="midnightblue" d="M216.08,-347.16C237.25,-359.43 275.93,-380.79 311,-394.61 316.91,-396.94 323.21,-399.11 329.49,-401.09"/>
<polygon fill="midnightblue" stroke="midnightblue" points="328.72,-404.51 339.3,-404.05 330.73,-397.81 328.72,-404.51"/>
</g>
<!-- Node183 -->
<g id="node25" class="node">
<title>Node183</title>
<g id="a_node25"><a xlink:href="quickjs_8c.html#a73738c650f11459db0d7af3dcdf8316b" target="_top" xlink:title=" ">
<polygon fill="none" stroke="red" points="311,-366.11 311,-385.11 447,-385.11 447,-366.11 311,-366.11"/>
<text text-anchor="middle" x="379" y="-373.11" font-family="Helvetica,sans-Serif" font-size="10.00">JS_NewObjectProtoClass</text>
</a>
</g>
</g>
<!-- Node443&#45;&gt;Node183 -->
<g id="edge34" class="edge">
<title>Node443&#45;&gt;Node183</title>
<path fill="none" stroke="midnightblue" d="M244.92,-347.2C268.83,-352.31 298.42,-358.62 323.62,-364"/>
<polygon fill="midnightblue" stroke="midnightblue" points="322.9,-367.43 333.41,-366.09 324.36,-360.58 322.9,-367.43"/>
</g>
<!-- Node277 -->
<g id="node26" class="node">
<title>Node277</title>
<g id="a_node26"><a xlink:href="quickjs_8c.html#a0ddf716409e51648f0d59e7521150d19" target="_top" xlink:title=" ">
<polygon fill="none" stroke="black" points="337,-328.11 337,-347.11 421,-347.11 421,-328.11 337,-328.11"/>
<text text-anchor="middle" x="379" y="-335.11" font-family="Helvetica,sans-Serif" font-size="10.00">JS_SetOpaque</text>
</a>
</g>
</g>
<!-- Node443&#45;&gt;Node277 -->
<g id="edge35" class="edge">
<title>Node443&#45;&gt;Node277</title>
<path fill="none" stroke="midnightblue" d="M264.01,-337.61C284.63,-337.61 307.19,-337.61 326.76,-337.61"/>
<polygon fill="midnightblue" stroke="midnightblue" points="326.99,-341.11 336.99,-337.61 326.99,-334.11 326.99,-341.11"/>
</g>
<!-- Node444&#45;&gt;Node438 -->
<g id="edge27" class="edge">
<title>Node444&#45;&gt;Node438</title>
<path fill="none" stroke="midnightblue" d="M416,-309.15C426.09,-312.01 437.03,-315.27 447,-318.61 469.25,-326.06 493.87,-335.62 512.87,-343.28"/>
<polygon fill="midnightblue" stroke="midnightblue" points="511.67,-346.57 522.25,-347.09 514.31,-340.09 511.67,-346.57"/>
</g>
<!-- Node446&#45;&gt;Node52 -->
<g id="edge31" class="edge">
<title>Node446&#45;&gt;Node52</title>
<path fill="none" stroke="midnightblue" d="M407.62,-499.15C434.98,-508.61 477.09,-523.15 507.48,-533.65"/>
<polygon fill="midnightblue" stroke="midnightblue" points="506.7,-537.08 517.29,-537.04 508.98,-530.47 506.7,-537.08"/>
</g>
<!-- Node45 -->
<g id="node28" class="node">
<title>Node45</title>
<g id="a_node28"><a xlink:href="quickjs_8c.html#a1b4fe6eb1b7bcaec6713bd5ac2921f1b" target="_top" xlink:title=" ">
<polygon fill="none" stroke="red" points="501,-100.11 501,-119.11 591,-119.11 591,-100.11 501,-100.11"/>
<text text-anchor="middle" x="546" y="-107.11" font-family="Helvetica,sans-Serif" font-size="10.00">JS_FreeContext</text>
</a>
</g>
</g>
<!-- Node447&#45;&gt;Node45 -->
<g id="edge37" class="edge">
<title>Node447&#45;&gt;Node45</title>
<path fill="none" stroke="midnightblue" d="M417.03,-94.88C438.73,-97.38 466.53,-100.58 490.67,-103.36"/>
<polygon fill="midnightblue" stroke="midnightblue" points="490.43,-106.85 500.77,-104.52 491.23,-99.9 490.43,-106.85"/>
</g>
<!-- Node448 -->
<g id="node29" class="node">
<title>Node448</title>
<g id="a_node29"><a xlink:href="quickjs_8c.html#ad80a65b72c3a346d8a0047858a5f0b13" target="_top" xlink:title=" ">
<polygon fill="none" stroke="red" points="499.5,-62.11 499.5,-81.11 592.5,-81.11 592.5,-62.11 499.5,-62.11"/>
<text text-anchor="middle" x="546" y="-69.11" font-family="Helvetica,sans-Serif" font-size="10.00">JS_FreeRuntime</text>
</a>
</g>
</g>
<!-- Node447&#45;&gt;Node448 -->
<g id="edge39" class="edge">
<title>Node447&#45;&gt;Node448</title>
<path fill="none" stroke="midnightblue" d="M417.03,-86.35C438.31,-83.9 465.47,-80.77 489.28,-78.03"/>
<polygon fill="midnightblue" stroke="midnightblue" points="489.72,-81.5 499.26,-76.88 488.92,-74.55 489.72,-81.5"/>
</g>
<!-- Node449 -->
<g id="node30" class="node">
<title>Node449</title>
<g id="a_node30"><a xlink:href="quickjs-libc_8c.html#ad61d60681847f324c5ba4ad88c546f1e" target="_top" xlink:title=" ">
<polygon fill="none" stroke="red" points="494.5,-214.11 494.5,-233.11 597.5,-233.11 597.5,-214.11 494.5,-214.11"/>
<text text-anchor="middle" x="546" y="-221.11" font-family="Helvetica,sans-Serif" font-size="10.00">js_module_loader</text>
</a>
</g>
</g>
<!-- Node447&#45;&gt;Node449 -->
<g id="edge41" class="edge">
<title>Node447&#45;&gt;Node449</title>
<path fill="none" stroke="midnightblue" d="M391.87,-100.18C419.8,-122.69 489.94,-179.23 524.75,-207.29"/>
<polygon fill="midnightblue" stroke="midnightblue" points="522.81,-210.22 532.8,-213.78 527.21,-204.77 522.81,-210.22"/>
</g>
<!-- Node45&#45;&gt;Node32 -->
<g id="edge38" class="edge">
<title>Node45&#45;&gt;Node32</title>
<path fill="none" stroke="midnightblue" d="M589.85,-119.13C596.57,-121.62 603.2,-124.74 609,-128.61 639.09,-148.71 663.68,-183.7 676.91,-205.15"/>
<polygon fill="midnightblue" stroke="midnightblue" points="674.03,-207.16 682.16,-213.95 680.04,-203.57 674.03,-207.16"/>
</g>
<!-- Node448&#45;&gt;Node195 -->
<g id="edge40" class="edge">
<title>Node448&#45;&gt;Node195</title>
<path fill="none" stroke="midnightblue" d="M592.62,-65.44C606.8,-63.53 622.52,-61.4 637.02,-59.44"/>
<polygon fill="midnightblue" stroke="midnightblue" points="637.88,-62.86 647.32,-58.05 636.94,-55.92 637.88,-62.86"/>
</g>
<!-- Node449&#45;&gt;Node32 -->
<g id="edge42" class="edge">
<title>Node449&#45;&gt;Node32</title>
<path fill="none" stroke="midnightblue" d="M597.72,-223.61C611,-223.61 625.28,-223.61 638.46,-223.61"/>
<polygon fill="midnightblue" stroke="midnightblue" points="638.76,-227.11 648.76,-223.61 638.76,-220.11 638.76,-227.11"/>
</g>
<!-- Node449&#45;&gt;Node68 -->
<g id="edge43" class="edge">
<title>Node449&#45;&gt;Node68</title>
<path fill="none" stroke="midnightblue" d="M553.43,-233.24C565.9,-252.35 593.53,-296.74 609,-337.61 653.71,-455.71 677.48,-606.79 684.91,-660.01"/>
<polygon fill="midnightblue" stroke="midnightblue" points="681.47,-660.65 686.28,-670.09 688.4,-659.71 681.47,-660.65"/>
</g>
</g>
</svg>
        <g id="navigator" transform="translate(0 0)" fill="#404254">
                <rect fill="#f2f5e9" fill-opacity="0.5" stroke="#606060" stroke-width=".5" x="0" y="0" width="60" height="60"/>
                <use id="zoomplus" xlink:href="#zoomPlus" x="17" y="9" onmousedown="handleZoom(evt,'in')"/>
                <use id="zoomminus" xlink:href="#zoomMin" x="42" y="9" onmousedown="handleZoom(evt,'out')"/>
                <use id="reset" xlink:href="#resetDef" x="30" y="36" onmousedown="handleReset()"/>
                <g id="arrowUp" xlink:href="#dirArrow" transform="translate(30 24)" onmousedown="handlePan(0,-1)">
                  <use xlink:href="#rim" fill="#404040">
                        <set attributeName="fill" to="#808080" begin="arrowUp.mouseover" end="arrowUp.mouseout"/>
                  </use>
                  <path fill="none" stroke="white" stroke-width="1.5" d="M0,-3.0v7 M-2.5,-0.5L0,-3.0L2.5,-0.5"/>
                </g>
                <g id="arrowRight" xlink:href="#dirArrow" transform="rotate(90) translate(36 -43)" onmousedown="handlePan(1,0)">
                  <use xlink:href="#rim" fill="#404040">
                        <set attributeName="fill" to="#808080" begin="arrowRight.mouseover" end="arrowRight.mouseout"/>
                  </use>
                  <path fill="none" stroke="white" stroke-width="1.5" d="M0,-3.0v7 M-2.5,-0.5L0,-3.0L2.5,-0.5"/>
                </g>
                <g id="arrowDown" xlink:href="#dirArrow" transform="rotate(180) translate(-30 -48)" onmousedown="handlePan(0,1)">
                  <use xlink:href="#rim" fill="#404040">
                        <set attributeName="fill" to="#808080" begin="arrowDown.mouseover" end="arrowDown.mouseout"/>
                  </use>
                  <path fill="none" stroke="white" stroke-width="1.5" d="M0,-3.0v7 M-2.5,-0.5L0,-3.0L2.5,-0.5"/>
                </g>
                <g id="arrowLeft" xlink:href="#dirArrow" transform="rotate(270) translate(-36 17)" onmousedown="handlePan(-1,0)">
                  <use xlink:href="#rim" fill="#404040">
                        <set attributeName="fill" to="#808080" begin="arrowLeft.mouseover" end="arrowLeft.mouseout"/>
                  </use>
                  <path fill="none" stroke="white" stroke-width="1.5" d="M0,-3.0v7 M-2.5,-0.5L0,-3.0L2.5,-0.5"/>
                </g>
        </g>
        <svg viewBox="0 0 15 15" width="100%" height="30px" preserveAspectRatio="xMaxYMin meet">
         <g id="arrow_out" transform="scale(0.3 0.3)">
          <a xlink:href="quickjs-libc_8c_aff1e6131e8bf8b7eb25307623ad669e7_cgraph_org.svg" target="_base">
           <rect id="button" ry="5" rx="5" y="6" x="6" height="38" width="38"
                fill="#f2f5e9" fill-opacity="0.5" stroke="#606060" stroke-width="1.0"/>
           <path id="arrow"
             d="M 11.500037,31.436501 C 11.940474,20.09759 22.043105,11.32322 32.158766,21.979434 L 37.068811,17.246167 C 37.068811,17.246167 37.088388,32 37.088388,32 L 22.160133,31.978069 C 22.160133,31.978069 26.997745,27.140456 26.997745,27.140456 C 18.528582,18.264221 13.291696,25.230495 11.500037,31.436501 z"
             style="fill:#404040;"/>
          </a>
         </g>
        </svg>
</svg>
