<?xml version="1.0" encoding="UTF-8" standalone="no"?>
<!DOCTYPE svg PUBLIC "-//W3C//DTD SVG 1.1//EN"
 "http://www.w3.org/Graphics/SVG/1.1/DTD/svg11.dtd">
<!-- Generated by graphviz version 2.43.0 (0)
 -->
<!-- Title: JS_ToCString Pages: 1 -->
<svg width="766pt" height="274pt"
 viewBox="0.00 0.00 766.00 274.00" xmlns="http://www.w3.org/2000/svg" xmlns:xlink="http://www.w3.org/1999/xlink">
<g id="graph0" class="graph" transform="scale(1 1) rotate(0) translate(4 270)">
<title>JS_ToCString</title>
<!-- Node1 -->
<g id="node1" class="node">
<title>Node1</title>
<g id="a_node1"><a xlink:title=" ">
<polygon fill="#bfbfbf" stroke="black" points="0,-95.5 0,-114.5 77,-114.5 77,-95.5 0,-95.5"/>
<text text-anchor="middle" x="38.5" y="-102.5" font-family="Helvetica,sans-Serif" font-size="10.00">JS_ToCString</text>
</a>
</g>
</g>
<!-- Node2 -->
<g id="node2" class="node">
<title>Node2</title>
<g id="a_node2"><a xlink:href="quickjs_8c.html#af49e67b73f845dc1f9c3ee648dd9f95c" target="_top" xlink:title=" ">
<polygon fill="none" stroke="black" points="113,-95.5 113,-114.5 213,-114.5 213,-95.5 113,-95.5"/>
<text text-anchor="middle" x="163" y="-102.5" font-family="Helvetica,sans-Serif" font-size="10.00">JS_ToCStringLen2</text>
</a>
</g>
</g>
<!-- Node1&#45;&gt;Node2 -->
<g id="edge1" class="edge">
<title>Node1&#45;&gt;Node2</title>
<path fill="none" stroke="midnightblue" d="M77.25,-105C85.34,-105 94.07,-105 102.74,-105"/>
<polygon fill="midnightblue" stroke="midnightblue" points="102.86,-108.5 112.86,-105 102.86,-101.5 102.86,-108.5"/>
</g>
<!-- Node3 -->
<g id="node3" class="node">
<title>Node3</title>
<g id="a_node3"><a xlink:href="quickjs_8c.html#ad303a9bc56766627b5fca41574933930" target="_top" xlink:title=" ">
<polygon fill="none" stroke="black" points="253.5,-208.5 253.5,-227.5 339.5,-227.5 339.5,-208.5 253.5,-208.5"/>
<text text-anchor="middle" x="296.5" y="-215.5" font-family="Helvetica,sans-Serif" font-size="10.00">js_alloc_string</text>
</a>
</g>
</g>
<!-- Node2&#45;&gt;Node3 -->
<g id="edge2" class="edge">
<title>Node2&#45;&gt;Node3</title>
<path fill="none" stroke="midnightblue" d="M171.34,-114.57C185.09,-132.04 216.33,-169.55 249,-194 253.64,-197.47 258.85,-200.7 264.06,-203.59"/>
<polygon fill="midnightblue" stroke="midnightblue" points="262.83,-206.9 273.32,-208.42 266.07,-200.69 262.83,-206.9"/>
</g>
<!-- Node7 -->
<g id="node6" class="node">
<title>Node7</title>
<g id="a_node6"><a xlink:href="quickjs_8h.html#a775522f2d084fc8fa0fcb33f390006b4" target="_top" xlink:title=" ">
<polygon fill="none" stroke="black" points="551,-151.5 551,-170.5 628,-170.5 628,-151.5 551,-151.5"/>
<text text-anchor="middle" x="589.5" y="-158.5" font-family="Helvetica,sans-Serif" font-size="10.00">JS_DupValue</text>
</a>
</g>
</g>
<!-- Node2&#45;&gt;Node7 -->
<g id="edge5" class="edge">
<title>Node2&#45;&gt;Node7</title>
<path fill="none" stroke="midnightblue" d="M181.36,-114.52C198.16,-123.31 224.6,-136.02 249,-143 349.73,-171.8 474,-169.32 540.73,-165.08"/>
<polygon fill="midnightblue" stroke="midnightblue" points="541.19,-168.56 550.93,-164.39 540.72,-161.58 541.19,-168.56"/>
</g>
<!-- Node8 -->
<g id="node7" class="node">
<title>Node8</title>
<g id="a_node7"><a xlink:href="quickjs_8h.html#afaa20c47565bc704c6c85f3d77254e7d" target="_top" xlink:title=" ">
<polygon fill="none" stroke="black" points="550,-95.5 550,-114.5 629,-114.5 629,-95.5 550,-95.5"/>
<text text-anchor="middle" x="589.5" y="-102.5" font-family="Helvetica,sans-Serif" font-size="10.00">JS_FreeValue</text>
</a>
</g>
</g>
<!-- Node2&#45;&gt;Node8 -->
<g id="edge6" class="edge">
<title>Node2&#45;&gt;Node8</title>
<path fill="none" stroke="midnightblue" d="M213.11,-105C294.94,-105 458.25,-105 539.81,-105"/>
<polygon fill="midnightblue" stroke="midnightblue" points="539.81,-108.5 549.81,-105 539.81,-101.5 539.81,-108.5"/>
</g>
<!-- Node46 -->
<g id="node9" class="node">
<title>Node46</title>
<g id="a_node9"><a xlink:href="quickjs_8h.html#ad80a83d73e9b7d872b88fbf2943aebe9" target="_top" xlink:title=" ">
<polygon fill="none" stroke="black" points="546,-57.5 546,-76.5 633,-76.5 633,-57.5 546,-57.5"/>
<text text-anchor="middle" x="589.5" y="-64.5" font-family="Helvetica,sans-Serif" font-size="10.00">JS_IsException</text>
</a>
</g>
</g>
<!-- Node2&#45;&gt;Node46 -->
<g id="edge8" class="edge">
<title>Node2&#45;&gt;Node46</title>
<path fill="none" stroke="midnightblue" d="M213.11,-100.6C293.58,-93.4 452.84,-79.14 535.67,-71.73"/>
<polygon fill="midnightblue" stroke="midnightblue" points="536.22,-75.19 545.87,-70.82 535.6,-68.22 536.22,-75.19"/>
</g>
<!-- Node47 -->
<g id="node10" class="node">
<title>Node47</title>
<g id="a_node10"><a xlink:href="quickjs_8c.html#a7bcb8e1a20cbc8374a5f9ba4a2088cec" target="_top" xlink:title=" ">
<polygon fill="none" stroke="black" points="261.5,-114.5 261.5,-133.5 331.5,-133.5 331.5,-114.5 261.5,-114.5"/>
<text text-anchor="middle" x="296.5" y="-121.5" font-family="Helvetica,sans-Serif" font-size="10.00">JS_ToString</text>
</a>
</g>
</g>
<!-- Node2&#45;&gt;Node47 -->
<g id="edge9" class="edge">
<title>Node2&#45;&gt;Node47</title>
<path fill="none" stroke="midnightblue" d="M213.34,-112.13C225.87,-113.94 239.24,-115.87 251.48,-117.64"/>
<polygon fill="midnightblue" stroke="midnightblue" points="251.06,-121.12 261.46,-119.08 252.06,-114.19 251.06,-121.12"/>
</g>
<!-- Node154 -->
<g id="node12" class="node">
<title>Node154</title>
<g id="a_node12"><a xlink:href="cutils_8h.html#aad4e0decb15ab19e9f45b0ee69542a28" target="_top" xlink:title=" ">
<polygon fill="none" stroke="black" points="249,-0.5 249,-19.5 344,-19.5 344,-0.5 249,-0.5"/>
<text text-anchor="middle" x="296.5" y="-7.5" font-family="Helvetica,sans-Serif" font-size="10.00">unicode_to_utf8</text>
</a>
</g>
</g>
<!-- Node2&#45;&gt;Node154 -->
<g id="edge15" class="edge">
<title>Node2&#45;&gt;Node154</title>
<path fill="none" stroke="midnightblue" d="M173.89,-95.48C189.18,-81.08 219.85,-53.36 249,-34 254.14,-30.59 259.82,-27.3 265.4,-24.3"/>
<polygon fill="midnightblue" stroke="midnightblue" points="267.29,-27.27 274.58,-19.58 264.08,-21.04 267.29,-27.27"/>
</g>
<!-- Node4 -->
<g id="node4" class="node">
<title>Node4</title>
<g id="a_node4"><a xlink:href="quickjs_8c.html#a5837dfc67b8f09e0579a28c827b39d93" target="_top" xlink:title=" ">
<polygon fill="none" stroke="black" points="395.5,-246.5 395.5,-265.5 494.5,-265.5 494.5,-246.5 395.5,-246.5"/>
<text text-anchor="middle" x="445" y="-253.5" font-family="Helvetica,sans-Serif" font-size="10.00">js_alloc_string_rt</text>
</a>
</g>
</g>
<!-- Node3&#45;&gt;Node4 -->
<g id="edge3" class="edge">
<title>Node3&#45;&gt;Node4</title>
<path fill="none" stroke="midnightblue" d="M334.47,-227.59C353.63,-232.56 377.21,-238.68 397.59,-243.96"/>
<polygon fill="midnightblue" stroke="midnightblue" points="396.74,-247.36 407.3,-246.48 398.5,-240.58 396.74,-247.36"/>
</g>
<!-- Node5 -->
<g id="node5" class="node">
<title>Node5</title>
<g id="a_node5"><a xlink:href="quickjs_8c.html#a344d6c0e45d9bf3861fd9269724045a2" target="_top" xlink:title=" ">
<polygon fill="none" stroke="red" points="380,-208.5 380,-227.5 510,-227.5 510,-208.5 380,-208.5"/>
<text text-anchor="middle" x="445" y="-215.5" font-family="Helvetica,sans-Serif" font-size="10.00">JS_ThrowOutOfMemory</text>
</a>
</g>
</g>
<!-- Node3&#45;&gt;Node5 -->
<g id="edge4" class="edge">
<title>Node3&#45;&gt;Node5</title>
<path fill="none" stroke="midnightblue" d="M339.87,-218C349.25,-218 359.46,-218 369.7,-218"/>
<polygon fill="midnightblue" stroke="midnightblue" points="369.91,-221.5 379.91,-218 369.91,-214.5 369.91,-221.5"/>
</g>
<!-- Node9 -->
<g id="node8" class="node">
<title>Node9</title>
<g id="a_node8"><a xlink:href="quickjs_8c.html#aa059f309c30fd5166d16c82a97973146" target="_top" xlink:title=" ">
<polygon fill="none" stroke="red" points="669,-95.5 669,-114.5 758,-114.5 758,-95.5 669,-95.5"/>
<text text-anchor="middle" x="713.5" y="-102.5" font-family="Helvetica,sans-Serif" font-size="10.00">__JS_FreeValue</text>
</a>
</g>
</g>
<!-- Node8&#45;&gt;Node9 -->
<g id="edge7" class="edge">
<title>Node8&#45;&gt;Node9</title>
<path fill="none" stroke="midnightblue" d="M629.1,-105C638.43,-105 648.56,-105 658.45,-105"/>
<polygon fill="midnightblue" stroke="midnightblue" points="658.63,-108.5 668.63,-105 658.63,-101.5 658.63,-108.5"/>
</g>
<!-- Node48 -->
<g id="node11" class="node">
<title>Node48</title>
<g id="a_node11"><a xlink:href="quickjs_8c.html#a46d6ebdd8c73102fd9e02a89b1f1d09a" target="_top" xlink:title=" ">
<polygon fill="none" stroke="red" points="391.5,-114.5 391.5,-133.5 498.5,-133.5 498.5,-114.5 391.5,-114.5"/>
<text text-anchor="middle" x="445" y="-121.5" font-family="Helvetica,sans-Serif" font-size="10.00">JS_ToStringInternal</text>
</a>
</g>
</g>
<!-- Node47&#45;&gt;Node48 -->
<g id="edge10" class="edge">
<title>Node47&#45;&gt;Node48</title>
<path fill="none" stroke="midnightblue" d="M331.85,-124C346.49,-124 364.04,-124 380.87,-124"/>
<polygon fill="midnightblue" stroke="midnightblue" points="381.23,-127.5 391.23,-124 381.23,-120.5 381.23,-127.5"/>
</g>
<!-- Node48&#45;&gt;Node7 -->
<g id="edge11" class="edge">
<title>Node48&#45;&gt;Node7</title>
<path fill="none" stroke="midnightblue" d="M482.7,-133.53C500.67,-138.2 522.52,-143.87 541.69,-148.85"/>
<polygon fill="midnightblue" stroke="midnightblue" points="540.87,-152.25 551.43,-151.38 542.63,-145.47 540.87,-152.25"/>
</g>
<!-- Node48&#45;&gt;Node8 -->
<g id="edge12" class="edge">
<title>Node48&#45;&gt;Node8</title>
<path fill="none" stroke="midnightblue" d="M498.66,-116.98C512.04,-115.19 526.37,-113.28 539.57,-111.52"/>
<polygon fill="midnightblue" stroke="midnightblue" points="540.42,-114.94 549.87,-110.15 539.49,-108 540.42,-114.94"/>
</g>
<!-- Node48&#45;&gt;Node46 -->
<g id="edge13" class="edge">
<title>Node48&#45;&gt;Node46</title>
<path fill="none" stroke="midnightblue" d="M469.85,-114.46C493.18,-105.13 528.9,-90.84 555.06,-80.38"/>
<polygon fill="midnightblue" stroke="midnightblue" points="556.59,-83.54 564.57,-76.57 553.99,-77.04 556.59,-83.54"/>
</g>
<!-- Node48&#45;&gt;Node48 -->
<g id="edge14" class="edge">
<title>Node48&#45;&gt;Node48</title>
<path fill="none" stroke="midnightblue" d="M422.81,-133.76C412.01,-142.57 419.41,-152 445,-152 461.8,-152 470.76,-147.94 471.88,-142.65"/>
<polygon fill="midnightblue" stroke="midnightblue" points="474.95,-140.97 467.19,-133.76 468.76,-144.24 474.95,-140.97"/>
</g>
</g>
</svg>
