<?xml version="1.0" encoding="UTF-8" standalone="no"?>
<!DOCTYPE svg PUBLIC "-//W3C//DTD SVG 1.1//EN"
 "http://www.w3.org/Graphics/SVG/1.1/DTD/svg11.dtd">
<!-- Generated by graphviz version 2.43.0 (0)
 -->
<!-- Title: JS_DefineObjectName Pages: 1 -->
<svg width="943pt" height="890pt"
 viewBox="0.00 0.00 943.00 890.03" xmlns="http://www.w3.org/2000/svg" xmlns:xlink="http://www.w3.org/1999/xlink">
<g id="graph0" class="graph" transform="scale(1 1) rotate(0) translate(4 886.03)">
<title>JS_DefineObjectName</title>
<!-- Node1 -->
<g id="node1" class="node">
<title>Node1</title>
<g id="a_node1"><a xlink:title=" ">
<polygon fill="#bfbfbf" stroke="black" points="0,-513.5 0,-532.5 123,-532.5 123,-513.5 0,-513.5"/>
<text text-anchor="middle" x="61.5" y="-520.5" font-family="Helvetica,sans-Serif" font-size="10.00">JS_DefineObjectName</text>
</a>
</g>
</g>
<!-- Node2 -->
<g id="node2" class="node">
<title>Node2</title>
<g id="a_node2"><a xlink:href="quickjs_8c.html#a260bfa297ff6cb5bd18e229afaa54663" target="_top" xlink:title=" ">
<polygon fill="none" stroke="black" points="176.5,-798.5 176.5,-817.5 272.5,-817.5 272.5,-798.5 176.5,-798.5"/>
<text text-anchor="middle" x="224.5" y="-805.5" font-family="Helvetica,sans-Serif" font-size="10.00">JS_AtomToString</text>
</a>
</g>
</g>
<!-- Node1&#45;&gt;Node2 -->
<g id="edge1" class="edge">
<title>Node1&#45;&gt;Node2</title>
<path fill="none" stroke="midnightblue" d="M68.04,-532.81C91.36,-574.09 181.75,-734.09 212.89,-789.21"/>
<polygon fill="midnightblue" stroke="midnightblue" points="210.02,-791.25 217.98,-798.23 216.11,-787.8 210.02,-791.25"/>
</g>
<!-- Node30 -->
<g id="node8" class="node">
<title>Node30</title>
<g id="a_node8"><a xlink:href="quickjs_8c.html#a0a8765bd4012467d9139bc24aabcb3ca" target="_top" xlink:title=" ">
<polygon fill="none" stroke="black" points="159,-532.5 159,-551.5 290,-551.5 290,-532.5 159,-532.5"/>
<text text-anchor="middle" x="224.5" y="-539.5" font-family="Helvetica,sans-Serif" font-size="10.00">JS_DefinePropertyValue</text>
</a>
</g>
</g>
<!-- Node1&#45;&gt;Node30 -->
<g id="edge7" class="edge">
<title>Node1&#45;&gt;Node30</title>
<path fill="none" stroke="midnightblue" d="M123.37,-530.18C131.69,-531.16 140.31,-532.18 148.84,-533.19"/>
<polygon fill="midnightblue" stroke="midnightblue" points="148.45,-536.67 158.79,-534.36 149.27,-529.72 148.45,-536.67"/>
</g>
<!-- Node244 -->
<g id="node29" class="node">
<title>Node244</title>
<g id="a_node29"><a xlink:href="quickjs_8h.html#a3d68fe446df2d9c7d1900b16371bff5b" target="_top" xlink:title=" ">
<polygon fill="none" stroke="black" points="189,-456.5 189,-475.5 260,-475.5 260,-456.5 189,-456.5"/>
<text text-anchor="middle" x="224.5" y="-463.5" font-family="Helvetica,sans-Serif" font-size="10.00">JS_IsObject</text>
</a>
</g>
</g>
<!-- Node1&#45;&gt;Node244 -->
<g id="edge50" class="edge">
<title>Node1&#45;&gt;Node244</title>
<path fill="none" stroke="midnightblue" d="M89.45,-513.46C116.15,-504.01 157.24,-489.46 186.89,-478.96"/>
<polygon fill="midnightblue" stroke="midnightblue" points="188.21,-482.21 196.46,-475.57 185.87,-475.61 188.21,-482.21"/>
</g>
<!-- Node318 -->
<g id="node30" class="node">
<title>Node318</title>
<g id="a_node30"><a xlink:href="quickjs_8c.html#a03feb143bf5c7905bc161a16b8f99a13" target="_top" xlink:title=" ">
<polygon fill="none" stroke="black" points="326,-190.5 326,-209.5 442,-209.5 442,-190.5 326,-190.5"/>
<text text-anchor="middle" x="384" y="-197.5" font-family="Helvetica,sans-Serif" font-size="10.00">js_object_has_name</text>
</a>
</g>
</g>
<!-- Node1&#45;&gt;Node318 -->
<g id="edge51" class="edge">
<title>Node1&#45;&gt;Node318</title>
<path fill="none" stroke="midnightblue" d="M123.14,-519.87C181.88,-515.63 265.56,-506.02 290,-485 311.03,-466.91 361.55,-281.23 377.84,-219.69"/>
<polygon fill="midnightblue" stroke="midnightblue" points="381.31,-220.28 380.47,-209.72 374.54,-218.49 381.31,-220.28"/>
</g>
<!-- Node3 -->
<g id="node3" class="node">
<title>Node3</title>
<g id="a_node3"><a xlink:href="quickjs_8c.html#a06ff303a11e6641cbf1f6634e6a61811" target="_top" xlink:title=" ">
<polygon fill="none" stroke="black" points="518,-798.5 518,-817.5 623,-817.5 623,-798.5 518,-798.5"/>
<text text-anchor="middle" x="570.5" y="-805.5" font-family="Helvetica,sans-Serif" font-size="10.00">__JS_AtomToValue</text>
</a>
</g>
</g>
<!-- Node2&#45;&gt;Node3 -->
<g id="edge2" class="edge">
<title>Node2&#45;&gt;Node3</title>
<path fill="none" stroke="midnightblue" d="M272.61,-808C333.69,-808 440.37,-808 507.84,-808"/>
<polygon fill="midnightblue" stroke="midnightblue" points="507.91,-811.5 517.91,-808 507.91,-804.5 507.91,-811.5"/>
</g>
<!-- Node4 -->
<g id="node4" class="node">
<title>Node4</title>
<g id="a_node4"><a xlink:href="quickjs_8c.html#a288254c06a39c9fca740a7abdad2834e" target="_top" xlink:title=" ">
<polygon fill="none" stroke="black" points="699,-689.5 699,-708.5 822,-708.5 822,-689.5 699,-689.5"/>
<text text-anchor="middle" x="760.5" y="-696.5" font-family="Helvetica,sans-Serif" font-size="10.00">__JS_AtomIsTaggedInt</text>
</a>
</g>
</g>
<!-- Node3&#45;&gt;Node4 -->
<g id="edge3" class="edge">
<title>Node3&#45;&gt;Node4</title>
<path fill="none" stroke="midnightblue" d="M623.42,-798.84C636.79,-795.3 650.82,-790.48 663,-784 696.11,-766.37 727.32,-735.27 744.87,-715.98"/>
<polygon fill="midnightblue" stroke="midnightblue" points="747.48,-718.3 751.52,-708.5 742.25,-713.65 747.48,-718.3"/>
</g>
<!-- Node5 -->
<g id="node5" class="node">
<title>Node5</title>
<g id="a_node5"><a xlink:href="quickjs_8c.html#a89f38938cee8077ce1fbba07946ed185" target="_top" xlink:title=" ">
<polygon fill="none" stroke="black" points="705.5,-580.5 705.5,-599.5 815.5,-599.5 815.5,-580.5 705.5,-580.5"/>
<text text-anchor="middle" x="760.5" y="-587.5" font-family="Helvetica,sans-Serif" font-size="10.00">__JS_AtomToUInt32</text>
</a>
</g>
</g>
<!-- Node3&#45;&gt;Node5 -->
<g id="edge4" class="edge">
<title>Node3&#45;&gt;Node5</title>
<path fill="none" stroke="midnightblue" d="M593.84,-798.37C614,-788.78 643.41,-772.39 663,-751 686.89,-724.91 681.1,-710.52 699,-680 714.09,-654.28 733.67,-625.93 746.4,-608.06"/>
<polygon fill="midnightblue" stroke="midnightblue" points="749.39,-609.9 752.38,-599.73 743.7,-605.81 749.39,-609.9"/>
</g>
<!-- Node6 -->
<g id="node6" class="node">
<title>Node6</title>
<g id="a_node6"><a xlink:href="quickjs_8h.html#a775522f2d084fc8fa0fcb33f390006b4" target="_top" xlink:title=" ">
<polygon fill="none" stroke="black" points="722,-323.5 722,-342.5 799,-342.5 799,-323.5 722,-323.5"/>
<text text-anchor="middle" x="760.5" y="-330.5" font-family="Helvetica,sans-Serif" font-size="10.00">JS_DupValue</text>
</a>
</g>
</g>
<!-- Node3&#45;&gt;Node6 -->
<g id="edge5" class="edge">
<title>Node3&#45;&gt;Node6</title>
<path fill="none" stroke="midnightblue" d="M599.2,-798.48C620.4,-789.65 648.4,-774.32 663,-751 744.09,-621.45 641.09,-550.44 699,-409 708.49,-385.82 727.33,-363.96 741.47,-349.69"/>
<polygon fill="midnightblue" stroke="midnightblue" points="744.05,-352.07 748.76,-342.58 739.16,-347.06 744.05,-352.07"/>
</g>
<!-- Node7 -->
<g id="node7" class="node">
<title>Node7</title>
<g id="a_node7"><a xlink:href="quickjs_8c.html#a0ee6a3654a6016393fac5e1c108f403a" target="_top" xlink:title=" ">
<polygon fill="none" stroke="red" points="720,-798.5 720,-817.5 801,-817.5 801,-798.5 720,-798.5"/>
<text text-anchor="middle" x="760.5" y="-805.5" font-family="Helvetica,sans-Serif" font-size="10.00">JS_NewString</text>
</a>
</g>
</g>
<!-- Node3&#45;&gt;Node7 -->
<g id="edge6" class="edge">
<title>Node3&#45;&gt;Node7</title>
<path fill="none" stroke="midnightblue" d="M623.37,-808C650.24,-808 682.89,-808 709.48,-808"/>
<polygon fill="midnightblue" stroke="midnightblue" points="709.72,-811.5 719.72,-808 709.72,-804.5 709.72,-811.5"/>
</g>
<!-- Node31 -->
<g id="node9" class="node">
<title>Node31</title>
<g id="a_node9"><a xlink:href="quickjs_8c.html#ab50618f1bf78e444caa6da0e3e2785d7" target="_top" xlink:title=" ">
<polygon fill="none" stroke="red" points="332,-418.5 332,-437.5 436,-437.5 436,-418.5 332,-418.5"/>
<text text-anchor="middle" x="384" y="-425.5" font-family="Helvetica,sans-Serif" font-size="10.00">JS_DefineProperty</text>
</a>
</g>
</g>
<!-- Node30&#45;&gt;Node31 -->
<g id="edge8" class="edge">
<title>Node30&#45;&gt;Node31</title>
<path fill="none" stroke="midnightblue" d="M259.22,-532.41C269.52,-528.71 280.6,-523.93 290,-518 321.93,-497.87 352,-465.4 368.91,-445.46"/>
<polygon fill="midnightblue" stroke="midnightblue" points="371.61,-447.68 375.31,-437.75 366.23,-443.2 371.61,-447.68"/>
</g>
<!-- Node54 -->
<g id="node18" class="node">
<title>Node54</title>
<g id="a_node18"><a xlink:href="quickjs_8h.html#afaa20c47565bc704c6c85f3d77254e7d" target="_top" xlink:title=" ">
<polygon fill="none" stroke="red" points="721,-836.5 721,-855.5 800,-855.5 800,-836.5 721,-836.5"/>
<text text-anchor="middle" x="760.5" y="-843.5" font-family="Helvetica,sans-Serif" font-size="10.00">JS_FreeValue</text>
</a>
</g>
</g>
<!-- Node30&#45;&gt;Node54 -->
<g id="edge49" class="edge">
<title>Node30&#45;&gt;Node54</title>
<path fill="none" stroke="midnightblue" d="M229.29,-551.55C247.92,-596.95 334.62,-791.63 478,-861 558.25,-899.83 666.83,-875.8 722.78,-858.71"/>
<polygon fill="midnightblue" stroke="midnightblue" points="724.11,-861.96 732.6,-855.62 722.01,-855.29 724.11,-861.96"/>
</g>
<!-- Node31&#45;&gt;Node4 -->
<g id="edge10" class="edge">
<title>Node31&#45;&gt;Node4</title>
<path fill="none" stroke="midnightblue" d="M386.23,-437.63C392.75,-487.03 424.97,-711.08 478,-751 557.25,-810.65 684.02,-745.69 736.05,-714.16"/>
<polygon fill="midnightblue" stroke="midnightblue" points="738.21,-716.94 744.87,-708.7 734.53,-710.99 738.21,-716.94"/>
</g>
<!-- Node31&#45;&gt;Node5 -->
<g id="edge11" class="edge">
<title>Node31&#45;&gt;Node5</title>
<path fill="none" stroke="midnightblue" d="M386.75,-437.74C392.83,-468.26 416.13,-562.22 478,-599 555.32,-644.96 666.87,-620.22 723.53,-602.66"/>
<polygon fill="midnightblue" stroke="midnightblue" points="724.67,-605.97 733.13,-599.59 722.54,-599.3 724.67,-605.97"/>
</g>
<!-- Node31&#45;&gt;Node6 -->
<g id="edge38" class="edge">
<title>Node31&#45;&gt;Node6</title>
<path fill="none" stroke="midnightblue" d="M396.8,-418.5C413.69,-405.45 446.24,-382.31 478,-371 556.73,-342.97 654.57,-335.4 711.73,-333.48"/>
<polygon fill="midnightblue" stroke="midnightblue" points="712.02,-336.98 721.91,-333.19 711.81,-329.98 712.02,-336.98"/>
</g>
<!-- Node32 -->
<g id="node10" class="node">
<title>Node32</title>
<g id="a_node10"><a xlink:href="quickjs_8c.html#a014abd680db53ab89cb133345742a59c" target="_top" xlink:title=" ">
<polygon fill="none" stroke="red" points="720.5,-222.5 720.5,-241.5 800.5,-241.5 800.5,-222.5 720.5,-222.5"/>
<text text-anchor="middle" x="760.5" y="-229.5" font-family="Helvetica,sans-Serif" font-size="10.00">__attribute__</text>
</a>
</g>
</g>
<!-- Node31&#45;&gt;Node32 -->
<g id="edge9" class="edge">
<title>Node31&#45;&gt;Node32</title>
<path fill="none" stroke="midnightblue" d="M385.79,-418.19C389.16,-383.47 405.73,-265.95 478,-219 555.02,-168.97 670.46,-199.31 726.55,-219.04"/>
<polygon fill="midnightblue" stroke="midnightblue" points="725.4,-222.35 735.99,-222.47 727.78,-215.77 725.4,-222.35"/>
</g>
<!-- Node428 -->
<g id="node11" class="node">
<title>Node428</title>
<g id="a_node11"><a xlink:href="quickjs_8c.html#a68c7ae36cec3bf8bbf6cc0868a71cc4b" target="_top" xlink:title=" ">
<polygon fill="none" stroke="black" points="502.5,-722.5 502.5,-741.5 638.5,-741.5 638.5,-722.5 502.5,-722.5"/>
<text text-anchor="middle" x="570.5" y="-729.5" font-family="Helvetica,sans-Serif" font-size="10.00">check_define_prop_flags</text>
</a>
</g>
</g>
<!-- Node31&#45;&gt;Node428 -->
<g id="edge12" class="edge">
<title>Node31&#45;&gt;Node428</title>
<path fill="none" stroke="midnightblue" d="M384.93,-437.67C385.19,-478.21 391.9,-635.94 478,-713 482.41,-716.95 487.43,-720.16 492.79,-722.76"/>
<polygon fill="midnightblue" stroke="midnightblue" points="491.5,-726.02 502.08,-726.59 494.17,-719.54 491.5,-726.02"/>
</g>
<!-- Node294 -->
<g id="node12" class="node">
<title>Node294</title>
<g id="a_node12"><a xlink:href="quickjs_8c.html#ac93c982cb636a5430b191d104083af3e" target="_top" xlink:title=" ">
<polygon fill="none" stroke="red" points="706.5,-160 706.5,-190 814.5,-190 814.5,-160 706.5,-160"/>
<text text-anchor="start" x="714.5" y="-178" font-family="Helvetica,sans-Serif" font-size="10.00">convert_fast_array</text>
<text text-anchor="middle" x="760.5" y="-167" font-family="Helvetica,sans-Serif" font-size="10.00">_to_array</text>
</a>
</g>
</g>
<!-- Node31&#45;&gt;Node294 -->
<g id="edge13" class="edge">
<title>Node31&#45;&gt;Node294</title>
<path fill="none" stroke="midnightblue" d="M385.24,-418.46C386.77,-381.17 397.85,-244.53 478,-187 541.24,-141.61 634.64,-148.01 696.26,-159.36"/>
<polygon fill="midnightblue" stroke="midnightblue" points="695.76,-162.83 706.25,-161.29 697.09,-155.96 695.76,-162.83"/>
</g>
<!-- Node49 -->
<g id="node13" class="node">
<title>Node49</title>
<g id="a_node13"><a xlink:href="quickjs_8c.html#a06b76f5124fd985e35f4c652fd018d6d" target="_top" xlink:title=" ">
<polygon fill="none" stroke="red" points="517,-0.5 517,-19.5 624,-19.5 624,-0.5 517,-0.5"/>
<text text-anchor="middle" x="570.5" y="-7.5" font-family="Helvetica,sans-Serif" font-size="10.00">find_own_property</text>
</a>
</g>
</g>
<!-- Node31&#45;&gt;Node49 -->
<g id="edge14" class="edge">
<title>Node31&#45;&gt;Node49</title>
<path fill="none" stroke="midnightblue" d="M387.87,-418.48C396.68,-389.02 423.88,-296.65 442,-219 461.03,-137.43 420.7,-95.1 478,-34 485.82,-25.66 496.15,-20.08 507.05,-16.38"/>
<polygon fill="midnightblue" stroke="midnightblue" points="508.09,-19.72 516.73,-13.59 506.15,-13 508.09,-19.72"/>
</g>
<!-- Node50 -->
<g id="node14" class="node">
<title>Node50</title>
<g id="a_node14"><a xlink:href="quickjs_8c.html#a643df594b75933007bcdbb071b5ea8c5" target="_top" xlink:title=" ">
<polygon fill="none" stroke="black" points="713.5,-38.5 713.5,-57.5 807.5,-57.5 807.5,-38.5 713.5,-38.5"/>
<text text-anchor="middle" x="760.5" y="-45.5" font-family="Helvetica,sans-Serif" font-size="10.00">get_shape_prop</text>
</a>
</g>
</g>
<!-- Node31&#45;&gt;Node50 -->
<g id="edge18" class="edge">
<title>Node31&#45;&gt;Node50</title>
<path fill="none" stroke="midnightblue" d="M387.75,-418.45C396.24,-388.91 422.6,-296.34 442,-219 459.42,-149.56 423.13,-107.98 478,-62 510.89,-34.44 630.82,-38.07 703.11,-43.09"/>
<polygon fill="midnightblue" stroke="midnightblue" points="703.18,-46.6 713.41,-43.84 703.69,-39.62 703.18,-46.6"/>
</g>
<!-- Node70 -->
<g id="node15" class="node">
<title>Node70</title>
<g id="a_node15"><a xlink:href="quickjs_8c.html#a9e7b4bccf927d811b0f99b40b08c0472" target="_top" xlink:title=" ">
<polygon fill="none" stroke="red" points="532.5,-684.5 532.5,-703.5 608.5,-703.5 608.5,-684.5 532.5,-684.5"/>
<text text-anchor="middle" x="570.5" y="-691.5" font-family="Helvetica,sans-Serif" font-size="10.00">free_var_ref</text>
</a>
</g>
</g>
<!-- Node31&#45;&gt;Node70 -->
<g id="edge16" class="edge">
<title>Node31&#45;&gt;Node70</title>
<path fill="none" stroke="midnightblue" d="M385.47,-437.64C387.84,-474.77 401.58,-609.61 478,-675 490.24,-685.47 506.74,-690.68 522.36,-693.13"/>
<polygon fill="midnightblue" stroke="midnightblue" points="522.09,-696.62 532.45,-694.37 522.95,-689.67 522.09,-696.62"/>
</g>
<!-- Node295 -->
<g id="node16" class="node">
<title>Node295</title>
<g id="a_node16"><a xlink:href="quickjs_8c.html#a6df3ef223d7e76a0db2c14d972dbfa77" target="_top" xlink:title=" ">
<polygon fill="none" stroke="black" points="716.5,-117.5 716.5,-136.5 804.5,-136.5 804.5,-117.5 716.5,-117.5"/>
<text text-anchor="middle" x="760.5" y="-124.5" font-family="Helvetica,sans-Serif" font-size="10.00">get_prop_flags</text>
</a>
</g>
</g>
<!-- Node31&#45;&gt;Node295 -->
<g id="edge17" class="edge">
<title>Node31&#45;&gt;Node295</title>
<path fill="none" stroke="midnightblue" d="M387.51,-418.38C399.91,-371.09 455.03,-164.86 478,-147 544.72,-95.11 649.36,-104.07 710.5,-115.44"/>
<polygon fill="midnightblue" stroke="midnightblue" points="710.18,-118.94 720.66,-117.42 711.52,-112.07 710.18,-118.94"/>
</g>
<!-- Node126 -->
<g id="node17" class="node">
<title>Node126</title>
<g id="a_node17"><a xlink:href="quickjs_8c.html#ab4e100a9cde5f7ec87c92f5e766dbbab" target="_top" xlink:title=" ">
<polygon fill="none" stroke="red" points="500.5,-532.5 500.5,-551.5 640.5,-551.5 640.5,-532.5 500.5,-532.5"/>
<text text-anchor="middle" x="570.5" y="-539.5" font-family="Helvetica,sans-Serif" font-size="10.00">JS_AtomIsNumericIndex1</text>
</a>
</g>
</g>
<!-- Node31&#45;&gt;Node126 -->
<g id="edge19" class="edge">
<title>Node31&#45;&gt;Node126</title>
<path fill="none" stroke="midnightblue" d="M391.39,-437.63C404.88,-457.14 438.31,-501.3 478,-523 482.23,-525.31 486.7,-527.34 491.31,-529.13"/>
<polygon fill="midnightblue" stroke="midnightblue" points="490.34,-532.49 500.93,-532.45 492.63,-525.88 490.34,-532.49"/>
</g>
<!-- Node31&#45;&gt;Node54 -->
<g id="edge39" class="edge">
<title>Node31&#45;&gt;Node54</title>
<path fill="none" stroke="midnightblue" d="M385.73,-437.51C390.16,-492.95 415.55,-773.9 478,-827 543.97,-883.09 653.06,-870.77 714.26,-857.78"/>
<polygon fill="midnightblue" stroke="midnightblue" points="715.38,-861.12 724.38,-855.53 713.86,-854.29 715.38,-861.12"/>
</g>
<!-- Node88 -->
<g id="node19" class="node">
<title>Node88</title>
<g id="a_node19"><a xlink:href="quickjs_8h.html#ad80a83d73e9b7d872b88fbf2943aebe9" target="_top" xlink:title=" ">
<polygon fill="none" stroke="black" points="717,-418.5 717,-437.5 804,-437.5 804,-418.5 717,-418.5"/>
<text text-anchor="middle" x="760.5" y="-425.5" font-family="Helvetica,sans-Serif" font-size="10.00">JS_IsException</text>
</a>
</g>
</g>
<!-- Node31&#45;&gt;Node88 -->
<g id="edge40" class="edge">
<title>Node31&#45;&gt;Node88</title>
<path fill="none" stroke="midnightblue" d="M436.29,-428C507.31,-428 634.97,-428 706.76,-428"/>
<polygon fill="midnightblue" stroke="midnightblue" points="706.93,-431.5 716.93,-428 706.93,-424.5 706.93,-431.5"/>
</g>
<!-- Node128 -->
<g id="node20" class="node">
<title>Node128</title>
<g id="a_node20"><a xlink:href="quickjs_8h.html#a2050bc428da1c65ac7eb87c3fa3b0392" target="_top" xlink:title=" ">
<polygon fill="none" stroke="black" points="858,-456.5 858,-475.5 935,-475.5 935,-456.5 858,-456.5"/>
<text text-anchor="middle" x="896.5" y="-463.5" font-family="Helvetica,sans-Serif" font-size="10.00">JS_NewInt32</text>
</a>
</g>
</g>
<!-- Node31&#45;&gt;Node128 -->
<g id="edge43" class="edge">
<title>Node31&#45;&gt;Node128</title>
<path fill="none" stroke="midnightblue" d="M436.06,-436.55C449.66,-438.59 464.36,-440.58 478,-442 611.46,-455.85 769.81,-462.21 847.56,-464.68"/>
<polygon fill="midnightblue" stroke="midnightblue" points="847.88,-468.19 857.98,-465 848.1,-461.19 847.88,-468.19"/>
</g>
<!-- Node147 -->
<g id="node21" class="node">
<title>Node147</title>
<g id="a_node21"><a xlink:href="quickjs_8c.html#a8aac7988cf0c6f3c2b629a6662fd7ec8" target="_top" xlink:title=" ">
<polygon fill="none" stroke="red" points="515.5,-380.5 515.5,-399.5 625.5,-399.5 625.5,-380.5 515.5,-380.5"/>
<text text-anchor="middle" x="570.5" y="-387.5" font-family="Helvetica,sans-Serif" font-size="10.00">JS_AutoInitProperty</text>
</a>
</g>
</g>
<!-- Node31&#45;&gt;Node147 -->
<g id="edge25" class="edge">
<title>Node31&#45;&gt;Node147</title>
<path fill="none" stroke="midnightblue" d="M431.56,-418.41C456.34,-413.31 487.02,-406.99 513.14,-401.61"/>
<polygon fill="midnightblue" stroke="midnightblue" points="514.19,-404.97 523.28,-399.52 512.78,-398.11 514.19,-404.97"/>
</g>
<!-- Node293 -->
<g id="node22" class="node">
<title>Node293</title>
<g id="a_node22"><a xlink:href="quickjs_8c.html#ad5565bb5cfd5321f181573257f3b0c91" target="_top" xlink:title=" ">
<polygon fill="none" stroke="red" points="518.5,-228.5 518.5,-247.5 622.5,-247.5 622.5,-228.5 518.5,-228.5"/>
<text text-anchor="middle" x="570.5" y="-235.5" font-family="Helvetica,sans-Serif" font-size="10.00">JS_CreateProperty</text>
</a>
</g>
</g>
<!-- Node31&#45;&gt;Node293 -->
<g id="edge27" class="edge">
<title>Node31&#45;&gt;Node293</title>
<path fill="none" stroke="midnightblue" d="M387.5,-418.37C395.44,-389.76 422.86,-304.64 478,-262 486.94,-255.08 497.69,-250.15 508.63,-246.64"/>
<polygon fill="midnightblue" stroke="midnightblue" points="509.59,-250 518.25,-243.9 507.67,-243.27 509.59,-250"/>
</g>
<!-- Node245 -->
<g id="node23" class="node">
<title>Node245</title>
<g id="a_node23"><a xlink:href="quickjs_8c.html#a1ca9cdb1fa2ffc3e6506e92b200e490f" target="_top" xlink:title=" ">
<polygon fill="none" stroke="black" points="720.5,-76.5 720.5,-95.5 800.5,-95.5 800.5,-76.5 720.5,-76.5"/>
<text text-anchor="middle" x="760.5" y="-83.5" font-family="Helvetica,sans-Serif" font-size="10.00">JS_IsFunction</text>
</a>
</g>
</g>
<!-- Node31&#45;&gt;Node245 -->
<g id="edge41" class="edge">
<title>Node31&#45;&gt;Node245</title>
<path fill="none" stroke="midnightblue" d="M387.57,-418.44C401.9,-365.29 471.43,-108.27 478,-103 545.32,-48.98 653.43,-61.3 714.21,-74.21"/>
<polygon fill="midnightblue" stroke="midnightblue" points="713.75,-77.69 724.27,-76.44 715.27,-70.86 713.75,-77.69"/>
</g>
<!-- Node152 -->
<g id="node24" class="node">
<title>Node152</title>
<g id="a_node24"><a xlink:href="quickjs_8h.html#a88259aa0da61ac754402c64ccecee116" target="_top" xlink:title=" ">
<polygon fill="none" stroke="red" points="718,-266.5 718,-285.5 803,-285.5 803,-266.5 718,-266.5"/>
<text text-anchor="middle" x="760.5" y="-273.5" font-family="Helvetica,sans-Serif" font-size="10.00">JS_NewUint32</text>
</a>
</g>
</g>
<!-- Node31&#45;&gt;Node152 -->
<g id="edge44" class="edge">
<title>Node31&#45;&gt;Node152</title>
<path fill="none" stroke="midnightblue" d="M388.34,-418.4C397.75,-392.94 427.21,-323.67 478,-295 549.57,-254.59 648.25,-258.99 707.76,-266.82"/>
<polygon fill="midnightblue" stroke="midnightblue" points="707.29,-270.29 717.68,-268.21 708.26,-263.36 707.29,-270.29"/>
</g>
<!-- Node146 -->
<g id="node25" class="node">
<title>Node146</title>
<g id="a_node25"><a xlink:href="quickjs_8h.html#a4e407128a9605afb77523e49e9a627fd" target="_top" xlink:title=" ">
<polygon fill="none" stroke="black" points="526,-646.5 526,-665.5 615,-665.5 615,-646.5 526,-646.5"/>
<text text-anchor="middle" x="570.5" y="-653.5" font-family="Helvetica,sans-Serif" font-size="10.00">JS_IsUndefined</text>
</a>
</g>
</g>
<!-- Node31&#45;&gt;Node146 -->
<g id="edge42" class="edge">
<title>Node31&#45;&gt;Node146</title>
<path fill="none" stroke="midnightblue" d="M386.47,-437.87C391.9,-470.85 413.98,-578.1 478,-632 488.72,-641.02 502.45,-646.7 516,-650.25"/>
<polygon fill="midnightblue" stroke="midnightblue" points="515.26,-653.67 525.79,-652.48 516.82,-646.85 515.26,-653.67"/>
</g>
<!-- Node429 -->
<g id="node26" class="node">
<title>Node429</title>
<g id="a_node26"><a xlink:href="quickjs_8c.html#af2333dd9d30e60437b73af383477188c" target="_top" xlink:title=" ">
<polygon fill="none" stroke="red" points="514,-570.5 514,-589.5 627,-589.5 627,-570.5 514,-570.5"/>
<text text-anchor="middle" x="570.5" y="-577.5" font-family="Helvetica,sans-Serif" font-size="10.00">JS_NumberIsInteger</text>
</a>
</g>
</g>
<!-- Node31&#45;&gt;Node429 -->
<g id="edge45" class="edge">
<title>Node31&#45;&gt;Node429</title>
<path fill="none" stroke="midnightblue" d="M388.71,-437.58C398.85,-462.4 429.54,-529.06 478,-561 485.76,-566.11 494.63,-569.89 503.72,-572.67"/>
<polygon fill="midnightblue" stroke="midnightblue" points="503.07,-576.12 513.63,-575.32 504.87,-569.36 503.07,-576.12"/>
</g>
<!-- Node432 -->
<g id="node27" class="node">
<title>Node432</title>
<g id="a_node27"><a xlink:href="quickjs_8c.html#aced4796120beed3ba63dc0b234b399ab" target="_top" xlink:title=" ">
<polygon fill="none" stroke="black" points="478,-494.5 478,-513.5 663,-513.5 663,-494.5 478,-494.5"/>
<text text-anchor="middle" x="570.5" y="-501.5" font-family="Helvetica,sans-Serif" font-size="10.00">JS_NumberIsNegativeOrMinusZero</text>
</a>
</g>
</g>
<!-- Node31&#45;&gt;Node432 -->
<g id="edge46" class="edge">
<title>Node31&#45;&gt;Node432</title>
<path fill="none" stroke="midnightblue" d="M399.56,-437.68C417.39,-449.17 448.83,-468.24 478,-480 489.3,-484.56 501.75,-488.49 513.71,-491.78"/>
<polygon fill="midnightblue" stroke="midnightblue" points="513.06,-495.22 523.62,-494.38 514.84,-488.45 513.06,-495.22"/>
</g>
<!-- Node414 -->
<g id="node28" class="node">
<title>Node414</title>
<g id="a_node28"><a xlink:href="quickjs_8c.html#a24be89a128d1cd7c0908604815b2b854" target="_top" xlink:title=" ">
<polygon fill="none" stroke="red" points="526,-304.5 526,-323.5 615,-323.5 615,-304.5 526,-304.5"/>
<text text-anchor="middle" x="570.5" y="-311.5" font-family="Helvetica,sans-Serif" font-size="10.00">js_same_value</text>
</a>
</g>
</g>
<!-- Node31&#45;&gt;Node414 -->
<g id="edge47" class="edge">
<title>Node31&#45;&gt;Node414</title>
<path fill="none" stroke="midnightblue" d="M392.04,-418.48C406.19,-400.04 440.02,-359.38 478,-338 489.63,-331.45 503.1,-326.64 516.07,-323.13"/>
<polygon fill="midnightblue" stroke="midnightblue" points="517,-326.5 525.85,-320.68 515.3,-319.71 517,-326.5"/>
</g>
<!-- Node49&#45;&gt;Node50 -->
<g id="edge15" class="edge">
<title>Node49&#45;&gt;Node50</title>
<path fill="none" stroke="midnightblue" d="M618.94,-19.59C644.6,-24.77 676.45,-31.21 703.33,-36.65"/>
<polygon fill="midnightblue" stroke="midnightblue" points="702.88,-40.13 713.37,-38.68 704.27,-33.26 702.88,-40.13"/>
</g>
<!-- Node126&#45;&gt;Node4 -->
<g id="edge20" class="edge">
<title>Node126&#45;&gt;Node4</title>
<path fill="none" stroke="midnightblue" d="M640.73,-550.44C648.61,-553.09 656.23,-556.54 663,-561 668.99,-564.95 722.61,-644.1 747.24,-680.71"/>
<polygon fill="midnightblue" stroke="midnightblue" points="744.61,-683.07 753.09,-689.42 750.42,-679.17 744.61,-683.07"/>
</g>
<!-- Node126&#45;&gt;Node5 -->
<g id="edge21" class="edge">
<title>Node126&#45;&gt;Node5</title>
<path fill="none" stroke="midnightblue" d="M621.54,-551.57C635.05,-554.38 649.63,-557.61 663,-561 681.99,-565.82 702.84,-571.97 720.28,-577.37"/>
<polygon fill="midnightblue" stroke="midnightblue" points="719.53,-580.8 730.12,-580.44 721.62,-574.12 719.53,-580.8"/>
</g>
<!-- Node126&#45;&gt;Node54 -->
<g id="edge22" class="edge">
<title>Node126&#45;&gt;Node54</title>
<path fill="none" stroke="midnightblue" d="M640.89,-546.67C649.22,-549.87 656.92,-554.47 663,-561 744.34,-648.27 622.1,-735.79 699,-827 702.42,-831.05 706.69,-834.25 711.37,-836.78"/>
<polygon fill="midnightblue" stroke="midnightblue" points="710.2,-840.08 720.77,-840.85 712.98,-833.66 710.2,-840.08"/>
</g>
<!-- Node126&#45;&gt;Node88 -->
<g id="edge23" class="edge">
<title>Node126&#45;&gt;Node88</title>
<path fill="none" stroke="midnightblue" d="M639.52,-532.47C647.68,-530 655.7,-526.9 663,-523 698.71,-503.9 730.06,-467.49 746.74,-445.71"/>
<polygon fill="midnightblue" stroke="midnightblue" points="749.6,-447.74 752.78,-437.63 743.99,-443.55 749.6,-447.74"/>
</g>
<!-- Node126&#45;&gt;Node128 -->
<g id="edge24" class="edge">
<title>Node126&#45;&gt;Node128</title>
<path fill="none" stroke="midnightblue" d="M619.06,-532.46C633.22,-529.53 648.76,-526.22 663,-523 727.39,-508.43 801.39,-489.99 848.28,-478.1"/>
<polygon fill="midnightblue" stroke="midnightblue" points="849.32,-481.45 858.15,-475.59 847.59,-474.66 849.32,-481.45"/>
</g>
<!-- Node147&#45;&gt;Node88 -->
<g id="edge26" class="edge">
<title>Node147&#45;&gt;Node88</title>
<path fill="none" stroke="midnightblue" d="M618.94,-399.59C645.78,-405.01 679.38,-411.81 707.01,-417.39"/>
<polygon fill="midnightblue" stroke="midnightblue" points="706.4,-420.84 716.89,-419.39 707.78,-413.98 706.4,-420.84"/>
</g>
<!-- Node293&#45;&gt;Node4 -->
<g id="edge29" class="edge">
<title>Node293&#45;&gt;Node4</title>
<path fill="none" stroke="midnightblue" d="M599.14,-247.55C620.31,-256.4 648.29,-271.75 663,-295 738.08,-413.72 650.44,-477.19 699,-609 709.2,-636.68 729.58,-664.19 743.85,-681.37"/>
<polygon fill="midnightblue" stroke="midnightblue" points="741.52,-684.03 750.68,-689.36 746.84,-679.48 741.52,-684.03"/>
</g>
<!-- Node293&#45;&gt;Node5 -->
<g id="edge30" class="edge">
<title>Node293&#45;&gt;Node5</title>
<path fill="none" stroke="midnightblue" d="M597.56,-247.68C618.4,-256.76 646.73,-272.35 663,-295 703.51,-351.38 677.4,-381.02 699,-447 713.95,-492.66 737.41,-544.06 750.28,-571.07"/>
<polygon fill="midnightblue" stroke="midnightblue" points="747.17,-572.67 754.66,-580.16 753.48,-569.64 747.17,-572.67"/>
</g>
<!-- Node293&#45;&gt;Node6 -->
<g id="edge34" class="edge">
<title>Node293&#45;&gt;Node6</title>
<path fill="none" stroke="midnightblue" d="M590.56,-247.63C623.87,-264.46 692.78,-299.29 731.51,-318.86"/>
<polygon fill="midnightblue" stroke="midnightblue" points="730.16,-322.1 740.67,-323.48 733.32,-315.85 730.16,-322.1"/>
</g>
<!-- Node293&#45;&gt;Node32 -->
<g id="edge28" class="edge">
<title>Node293&#45;&gt;Node32</title>
<path fill="none" stroke="midnightblue" d="M622.87,-236.36C650.03,-235.49 683.22,-234.43 710.08,-233.58"/>
<polygon fill="midnightblue" stroke="midnightblue" points="710.53,-237.06 720.42,-233.25 710.31,-230.07 710.53,-237.06"/>
</g>
<!-- Node293&#45;&gt;Node294 -->
<g id="edge31" class="edge">
<title>Node293&#45;&gt;Node294</title>
<path fill="none" stroke="midnightblue" d="M600.05,-228.43C627.73,-219.16 670.42,-204.85 704.67,-193.37"/>
<polygon fill="midnightblue" stroke="midnightblue" points="706.17,-196.56 714.54,-190.07 703.95,-189.92 706.17,-196.56"/>
</g>
<!-- Node293&#45;&gt;Node50 -->
<g id="edge33" class="edge">
<title>Node293&#45;&gt;Node50</title>
<path fill="none" stroke="midnightblue" d="M576.03,-228.2C589.98,-199.06 635.28,-112.22 699,-67 701.82,-65 704.87,-63.2 708.03,-61.58"/>
<polygon fill="midnightblue" stroke="midnightblue" points="709.48,-64.77 717.2,-57.51 706.64,-58.37 709.48,-64.77"/>
</g>
<!-- Node293&#45;&gt;Node295 -->
<g id="edge32" class="edge">
<title>Node293&#45;&gt;Node295</title>
<path fill="none" stroke="midnightblue" d="M583.59,-228.4C605.58,-211.24 654.03,-174.88 699,-151 706.38,-147.08 714.54,-143.42 722.42,-140.2"/>
<polygon fill="midnightblue" stroke="midnightblue" points="723.8,-143.42 731.82,-136.51 721.23,-136.91 723.8,-143.42"/>
</g>
<!-- Node293&#45;&gt;Node245 -->
<g id="edge35" class="edge">
<title>Node293&#45;&gt;Node245</title>
<path fill="none" stroke="midnightblue" d="M578.43,-228.41C596.01,-204.73 644.77,-142.91 699,-108 704.06,-104.74 709.66,-101.89 715.36,-99.4"/>
<polygon fill="midnightblue" stroke="midnightblue" points="716.97,-102.53 724.96,-95.57 714.37,-96.03 716.97,-102.53"/>
</g>
<!-- Node293&#45;&gt;Node152 -->
<g id="edge36" class="edge">
<title>Node293&#45;&gt;Node152</title>
<path fill="none" stroke="midnightblue" d="M618.94,-247.59C646.07,-253.07 680.11,-259.95 707.9,-265.57"/>
<polygon fill="midnightblue" stroke="midnightblue" points="707.34,-269.03 717.84,-267.58 708.73,-262.17 707.34,-269.03"/>
</g>
<!-- Node152&#45;&gt;Node128 -->
<g id="edge37" class="edge">
<title>Node152&#45;&gt;Node128</title>
<path fill="none" stroke="midnightblue" d="M782.65,-285.52C795.34,-292.08 811.08,-301.8 822,-314 858.04,-354.26 880.29,-415.36 889.92,-446.41"/>
<polygon fill="midnightblue" stroke="midnightblue" points="886.69,-447.81 892.9,-456.39 893.4,-445.81 886.69,-447.81"/>
</g>
<!-- Node414&#45;&gt;Node6 -->
<g id="edge48" class="edge">
<title>Node414&#45;&gt;Node6</title>
<path fill="none" stroke="midnightblue" d="M615.1,-318.41C644.02,-321.33 681.97,-325.16 711.7,-328.17"/>
<polygon fill="midnightblue" stroke="midnightblue" points="711.55,-331.67 721.85,-329.2 712.25,-324.71 711.55,-331.67"/>
</g>
<!-- Node318&#45;&gt;Node49 -->
<g id="edge52" class="edge">
<title>Node318&#45;&gt;Node49</title>
<path fill="none" stroke="midnightblue" d="M387.5,-190.37C395.44,-161.76 422.86,-76.64 478,-34 486.55,-27.38 496.76,-22.58 507.2,-19.1"/>
<polygon fill="midnightblue" stroke="midnightblue" points="508.22,-22.45 516.82,-16.26 506.24,-15.74 508.22,-22.45"/>
</g>
</g>
</svg>
