<?xml version="1.0" encoding="UTF-8" standalone="no"?>
<!DOCTYPE svg PUBLIC "-//W3C//DTD SVG 1.1//EN"
 "http://www.w3.org/Graphics/SVG/1.1/DTD/svg11.dtd">
<!-- Generated by graphviz version 2.43.0 (0)
 -->
<!-- Title: async_func_resume Pages: 1 -->
<svg width="598pt" height="1054pt"
 viewBox="0.00 0.00 598.00 1054.00" xmlns="http://www.w3.org/2000/svg" xmlns:xlink="http://www.w3.org/1999/xlink">
<g id="graph0" class="graph" transform="scale(1 1) rotate(0) translate(4 1050)">
<title>async_func_resume</title>
<!-- Node1 -->
<g id="node1" class="node">
<title>Node1</title>
<g id="a_node1"><a xlink:title=" ">
<polygon fill="#bfbfbf" stroke="black" points="0,-513.5 0,-532.5 113,-532.5 113,-513.5 0,-513.5"/>
<text text-anchor="middle" x="56.5" y="-520.5" font-family="Helvetica,sans-Serif" font-size="10.00">async_func_resume</text>
</a>
</g>
</g>
<!-- Node2 -->
<g id="node2" class="node">
<title>Node2</title>
<g id="a_node2"><a xlink:href="quickjs_8c.html#ac2894ff4edcdb4e6841bcce9c76081e3" target="_top" xlink:title=" ">
<polygon fill="none" stroke="red" points="149,-513.5 149,-532.5 236,-532.5 236,-513.5 149,-513.5"/>
<text text-anchor="middle" x="192.5" y="-520.5" font-family="Helvetica,sans-Serif" font-size="10.00">JS_CallInternal</text>
</a>
</g>
</g>
<!-- Node1&#45;&gt;Node2 -->
<g id="edge1" class="edge">
<title>Node1&#45;&gt;Node2</title>
<path fill="none" stroke="midnightblue" d="M113.16,-523C121.65,-523 130.39,-523 138.81,-523"/>
<polygon fill="midnightblue" stroke="midnightblue" points="138.88,-526.5 148.88,-523 138.88,-519.5 138.88,-526.5"/>
</g>
<!-- Node218 -->
<g id="node29" class="node">
<title>Node218</title>
<g id="a_node29"><a xlink:href="quickjs_8c.html#af23ec7c9970ceb4671c59da7abd4b078" target="_top" xlink:title=" ">
<polygon fill="none" stroke="red" points="282,-0.5 282,-19.5 419,-19.5 419,-0.5 282,-0.5"/>
<text text-anchor="middle" x="350.5" y="-7.5" font-family="Helvetica,sans-Serif" font-size="10.00">js_check_stack_overflow</text>
</a>
</g>
</g>
<!-- Node1&#45;&gt;Node218 -->
<g id="edge40" class="edge">
<title>Node1&#45;&gt;Node218</title>
<path fill="none" stroke="midnightblue" d="M58.56,-513.41C65.29,-457.17 107.27,-167.97 272,-29 273.99,-27.32 276.11,-25.78 278.32,-24.38"/>
<polygon fill="midnightblue" stroke="midnightblue" points="280.11,-27.39 287.28,-19.59 276.81,-21.22 280.11,-27.39"/>
</g>
<!-- Node220 -->
<g id="node30" class="node">
<title>Node220</title>
<g id="a_node30"><a xlink:href="quickjs_8c.html#a8353f635fb8a20553c08db8cf38c17e0" target="_top" xlink:title=" ">
<polygon fill="none" stroke="black" points="285,-1026.5 285,-1045.5 416,-1045.5 416,-1026.5 285,-1026.5"/>
<text text-anchor="middle" x="350.5" y="-1033.5" font-family="Helvetica,sans-Serif" font-size="10.00">JS_ThrowStackOverflow</text>
</a>
</g>
</g>
<!-- Node1&#45;&gt;Node220 -->
<g id="edge41" class="edge">
<title>Node1&#45;&gt;Node220</title>
<path fill="none" stroke="midnightblue" d="M58.56,-532.59C65.29,-588.83 107.27,-878.03 272,-1017 273.99,-1018.68 276.11,-1020.22 278.32,-1021.62"/>
<polygon fill="midnightblue" stroke="midnightblue" points="276.81,-1024.78 287.28,-1026.41 280.11,-1018.61 276.81,-1024.78"/>
</g>
<!-- Node2&#45;&gt;Node2 -->
<g id="edge36" class="edge">
<title>Node2&#45;&gt;Node2</title>
<path fill="none" stroke="midnightblue" d="M171.54,-532.76C161.34,-541.57 168.33,-551 192.5,-551 207.99,-551 216.42,-547.13 217.8,-542.03"/>
<polygon fill="midnightblue" stroke="midnightblue" points="220.87,-540.33 213.46,-532.76 214.53,-543.3 220.87,-540.33"/>
</g>
<!-- Node3 -->
<g id="node3" class="node">
<title>Node3</title>
<g id="a_node3"><a xlink:href="quickjs_8c.html#a853f0924d441ea4225488f37c8b69f9a" target="_top" xlink:title=" ">
<polygon fill="none" stroke="black" points="487.5,-988.5 487.5,-1007.5 567.5,-1007.5 567.5,-988.5 487.5,-988.5"/>
<text text-anchor="middle" x="527.5" y="-995.5" font-family="Helvetica,sans-Serif" font-size="10.00">__attribute__</text>
</a>
</g>
</g>
<!-- Node2&#45;&gt;Node3 -->
<g id="edge2" class="edge">
<title>Node2&#45;&gt;Node3</title>
<path fill="none" stroke="midnightblue" d="M195.55,-532.51C201.95,-560.03 224.07,-640.69 272,-686 326.88,-737.88 376.04,-697.16 429,-751 494.11,-817.19 517.12,-932.11 523.97,-978.12"/>
<polygon fill="midnightblue" stroke="midnightblue" points="520.51,-978.6 525.35,-988.02 527.44,-977.64 520.51,-978.6"/>
</g>
<!-- Node4 -->
<g id="node4" class="node">
<title>Node4</title>
<g id="a_node4"><a xlink:href="quickjs_8c.html#a877fcb7651d95b411ce70e62b7f4a1f0" target="_top" xlink:title=" ">
<polygon fill="none" stroke="black" points="465,-656.5 465,-675.5 590,-675.5 590,-656.5 465,-656.5"/>
<text text-anchor="middle" x="527.5" y="-663.5" font-family="Helvetica,sans-Serif" font-size="10.00">__JS_AtomFromUInt32</text>
</a>
</g>
</g>
<!-- Node2&#45;&gt;Node4 -->
<g id="edge3" class="edge">
<title>Node2&#45;&gt;Node4</title>
<path fill="none" stroke="midnightblue" d="M195.7,-532.87C202.12,-559.02 223.52,-630.11 272,-659 335.67,-696.94 425.13,-688.18 479.27,-677.62"/>
<polygon fill="midnightblue" stroke="midnightblue" points="480.19,-681.01 489.28,-675.57 478.78,-674.15 480.19,-681.01"/>
</g>
<!-- Node5 -->
<g id="node5" class="node">
<title>Node5</title>
<g id="a_node5"><a xlink:href="quickjs_8h.html#a9bf98b18de88b4199910a43e933eb97d" target="_top" xlink:title=" ">
<polygon fill="none" stroke="black" points="300.5,-418.5 300.5,-437.5 400.5,-437.5 400.5,-418.5 300.5,-418.5"/>
<text text-anchor="middle" x="350.5" y="-425.5" font-family="Helvetica,sans-Serif" font-size="10.00">__JS_NewFloat64</text>
</a>
</g>
</g>
<!-- Node2&#45;&gt;Node5 -->
<g id="edge4" class="edge">
<title>Node2&#45;&gt;Node5</title>
<path fill="none" stroke="midnightblue" d="M201.66,-513.28C214.92,-498.09 242.62,-468.74 272,-452 279.91,-447.49 288.76,-443.73 297.58,-440.63"/>
<polygon fill="midnightblue" stroke="midnightblue" points="298.68,-443.95 307.09,-437.52 296.5,-437.3 298.68,-443.95"/>
</g>
<!-- Node6 -->
<g id="node6" class="node">
<title>Node6</title>
<g id="a_node6"><a xlink:href="quickjs_8c.html#a74547db03bf739a52c83a326b32db997" target="_top" xlink:title=" ">
<polygon fill="none" stroke="red" points="487,-589.5 487,-608.5 568,-608.5 568,-589.5 487,-589.5"/>
<text text-anchor="middle" x="527.5" y="-596.5" font-family="Helvetica,sans-Serif" font-size="10.00">add_property</text>
</a>
</g>
</g>
<!-- Node2&#45;&gt;Node6 -->
<g id="edge5" class="edge">
<title>Node2&#45;&gt;Node6</title>
<path fill="none" stroke="midnightblue" d="M196.65,-532.72C204.76,-555.92 228.82,-614.31 272,-637 347.1,-676.47 450.84,-636.46 499.39,-613.18"/>
<polygon fill="midnightblue" stroke="midnightblue" points="501.19,-616.2 508.61,-608.64 498.1,-609.92 501.19,-616.2"/>
</g>
<!-- Node64 -->
<g id="node7" class="node">
<title>Node64</title>
<g id="a_node7"><a xlink:href="quickjs_8c.html#a4956f45ffd2849b96dc051277264f87a" target="_top" xlink:title=" ">
<polygon fill="none" stroke="red" points="309.5,-342.5 309.5,-361.5 391.5,-361.5 391.5,-342.5 309.5,-342.5"/>
<text text-anchor="middle" x="350.5" y="-349.5" font-family="Helvetica,sans-Serif" font-size="10.00">build_arg_list</text>
</a>
</g>
</g>
<!-- Node2&#45;&gt;Node64 -->
<g id="edge6" class="edge">
<title>Node2&#45;&gt;Node64</title>
<path fill="none" stroke="midnightblue" d="M195.85,-513.48C202.78,-487.41 225.6,-414.32 272,-376 279.9,-369.47 289.57,-364.72 299.36,-361.26"/>
<polygon fill="midnightblue" stroke="midnightblue" points="300.64,-364.53 309.14,-358.21 298.55,-357.84 300.64,-364.53"/>
</g>
<!-- Node65 -->
<g id="node8" class="node">
<title>Node65</title>
<g id="a_node8"><a xlink:href="quickjs_8c.html#ac864482356b3efc2d0b0a509fcfa4c7c" target="_top" xlink:title=" ">
<polygon fill="none" stroke="red" points="489,-361.5 489,-380.5 566,-380.5 566,-361.5 489,-361.5"/>
<text text-anchor="middle" x="527.5" y="-368.5" font-family="Helvetica,sans-Serif" font-size="10.00">free_arg_list</text>
</a>
</g>
</g>
<!-- Node2&#45;&gt;Node65 -->
<g id="edge11" class="edge">
<title>Node2&#45;&gt;Node65</title>
<path fill="none" stroke="midnightblue" d="M197.01,-513.35C205.75,-490.82 230.82,-434.7 272,-409 305.57,-388.05 414.53,-377.9 478.48,-373.63"/>
<polygon fill="midnightblue" stroke="midnightblue" points="478.97,-377.11 488.72,-372.97 478.52,-370.12 478.97,-377.11"/>
</g>
<!-- Node160 -->
<g id="node9" class="node">
<title>Node160</title>
<g id="a_node9"><a xlink:href="quickjs_8c.html#a61c8dfb5e807af1b6ff7d8ca61576dda" target="_top" xlink:title=" ">
<polygon fill="none" stroke="red" points="303.5,-304.5 303.5,-323.5 397.5,-323.5 397.5,-304.5 303.5,-304.5"/>
<text text-anchor="middle" x="350.5" y="-311.5" font-family="Helvetica,sans-Serif" font-size="10.00">build_backtrace</text>
</a>
</g>
</g>
<!-- Node2&#45;&gt;Node160 -->
<g id="edge8" class="edge">
<title>Node2&#45;&gt;Node160</title>
<path fill="none" stroke="midnightblue" d="M194.47,-513.35C198.13,-482.1 214.06,-382.77 272,-333 278.2,-327.67 285.66,-323.79 293.47,-320.97"/>
<polygon fill="midnightblue" stroke="midnightblue" points="294.56,-324.3 303.11,-318.04 292.52,-317.61 294.56,-324.3"/>
</g>
<!-- Node246 -->
<g id="node10" class="node">
<title>Node246</title>
<g id="a_node10"><a xlink:href="quickjs_8c.html#a344894112559c2ba75043fd10bcfa02f" target="_top" xlink:title=" ">
<polygon fill="none" stroke="red" points="300,-266.5 300,-285.5 401,-285.5 401,-266.5 300,-266.5"/>
<text text-anchor="middle" x="350.5" y="-273.5" font-family="Helvetica,sans-Serif" font-size="10.00">close_lexical_var</text>
</a>
</g>
</g>
<!-- Node2&#45;&gt;Node246 -->
<g id="edge9" class="edge">
<title>Node2&#45;&gt;Node246</title>
<path fill="none" stroke="midnightblue" d="M193.72,-513.49C195.06,-478.6 204.59,-356.53 272,-295 277.22,-290.23 283.45,-286.61 290.06,-283.87"/>
<polygon fill="midnightblue" stroke="midnightblue" points="291.66,-287.02 299.97,-280.44 289.37,-280.4 291.66,-287.02"/>
</g>
<!-- Node247 -->
<g id="node11" class="node">
<title>Node247</title>
<g id="a_node11"><a xlink:href="quickjs_8c.html#a1782043fce951bd4f0d91c7796b31e24" target="_top" xlink:title=" ">
<polygon fill="none" stroke="red" points="307,-228.5 307,-247.5 394,-247.5 394,-228.5 307,-228.5"/>
<text text-anchor="middle" x="350.5" y="-235.5" font-family="Helvetica,sans-Serif" font-size="10.00">close_var_refs</text>
</a>
</g>
</g>
<!-- Node2&#45;&gt;Node247 -->
<g id="edge10" class="edge">
<title>Node2&#45;&gt;Node247</title>
<path fill="none" stroke="midnightblue" d="M193.18,-513.3C192.46,-474.67 195.2,-330.31 272,-257 278.99,-250.33 287.93,-245.88 297.23,-242.94"/>
<polygon fill="midnightblue" stroke="midnightblue" points="298.2,-246.31 306.99,-240.39 296.43,-239.53 298.2,-246.31"/>
</g>
<!-- Node53 -->
<g id="node12" class="node">
<title>Node53</title>
<g id="a_node12"><a xlink:href="quickjs_8c.html#a9e7b4bccf927d811b0f99b40b08c0472" target="_top" xlink:title=" ">
<polygon fill="none" stroke="red" points="489.5,-523.5 489.5,-542.5 565.5,-542.5 565.5,-523.5 489.5,-523.5"/>
<text text-anchor="middle" x="527.5" y="-530.5" font-family="Helvetica,sans-Serif" font-size="10.00">free_var_ref</text>
</a>
</g>
</g>
<!-- Node2&#45;&gt;Node53 -->
<g id="edge12" class="edge">
<title>Node2&#45;&gt;Node53</title>
<path fill="none" stroke="midnightblue" d="M236.08,-521.69C283.27,-520.55 361.63,-519.55 429,-523 445.31,-523.83 463.09,-525.45 478.96,-527.14"/>
<polygon fill="midnightblue" stroke="midnightblue" points="478.74,-530.64 489.07,-528.26 479.51,-523.68 478.74,-530.64"/>
</g>
<!-- Node249 -->
<g id="node13" class="node">
<title>Node249</title>
<g id="a_node13"><a xlink:href="cutils_8h.html#a7c82a3ee025fee89db5b11ff5b7691b8" target="_top" xlink:title=" ">
<polygon fill="none" stroke="black" points="324,-190.5 324,-209.5 377,-209.5 377,-190.5 324,-190.5"/>
<text text-anchor="middle" x="350.5" y="-197.5" font-family="Helvetica,sans-Serif" font-size="10.00">get_i16</text>
</a>
</g>
</g>
<!-- Node2&#45;&gt;Node249 -->
<g id="edge13" class="edge">
<title>Node2&#45;&gt;Node249</title>
<path fill="none" stroke="midnightblue" d="M194.68,-513.24C200.55,-466.07 228.18,-262.29 272,-219 282.94,-208.19 298.98,-203.18 313.62,-200.98"/>
<polygon fill="midnightblue" stroke="midnightblue" points="314.4,-204.41 323.95,-199.83 313.62,-197.46 314.4,-204.41"/>
</g>
<!-- Node250 -->
<g id="node14" class="node">
<title>Node250</title>
<g id="a_node14"><a xlink:href="cutils_8h.html#a288ee4e688944e23500af2ecc813c306" target="_top" xlink:title=" ">
<polygon fill="none" stroke="black" points="327,-152.5 327,-171.5 374,-171.5 374,-152.5 327,-152.5"/>
<text text-anchor="middle" x="350.5" y="-159.5" font-family="Helvetica,sans-Serif" font-size="10.00">get_i8</text>
</a>
</g>
</g>
<!-- Node2&#45;&gt;Node250 -->
<g id="edge14" class="edge">
<title>Node2&#45;&gt;Node250</title>
<path fill="none" stroke="midnightblue" d="M195.12,-513.22C204.02,-459.9 247.52,-205.84 272,-181 283.53,-169.29 301.02,-164.36 316.46,-162.43"/>
<polygon fill="midnightblue" stroke="midnightblue" points="317.08,-165.89 326.73,-161.53 316.47,-158.92 317.08,-165.89"/>
</g>
<!-- Node251 -->
<g id="node15" class="node">
<title>Node251</title>
<g id="a_node15"><a xlink:href="cutils_8h.html#ad587834d17e95461893d59661e5e9676" target="_top" xlink:title=" ">
<polygon fill="none" stroke="black" points="322.5,-114.5 322.5,-133.5 378.5,-133.5 378.5,-114.5 322.5,-114.5"/>
<text text-anchor="middle" x="350.5" y="-121.5" font-family="Helvetica,sans-Serif" font-size="10.00">get_u16</text>
</a>
</g>
</g>
<!-- Node2&#45;&gt;Node251 -->
<g id="edge15" class="edge">
<title>Node2&#45;&gt;Node251</title>
<path fill="none" stroke="midnightblue" d="M195.21,-513.24C205.45,-455.14 258.5,-157 272,-143 282.37,-132.25 297.75,-127.18 312.08,-124.92"/>
<polygon fill="midnightblue" stroke="midnightblue" points="312.73,-128.37 322.25,-123.73 311.91,-121.41 312.73,-128.37"/>
</g>
<!-- Node49 -->
<g id="node16" class="node">
<title>Node49</title>
<g id="a_node16"><a xlink:href="cutils_8h.html#a941262a5f72fda2ec43ae7911e97a0dc" target="_top" xlink:title=" ">
<polygon fill="none" stroke="black" points="322.5,-76.5 322.5,-95.5 378.5,-95.5 378.5,-76.5 322.5,-76.5"/>
<text text-anchor="middle" x="350.5" y="-83.5" font-family="Helvetica,sans-Serif" font-size="10.00">get_u32</text>
</a>
</g>
</g>
<!-- Node2&#45;&gt;Node49 -->
<g id="edge16" class="edge">
<title>Node2&#45;&gt;Node49</title>
<path fill="none" stroke="midnightblue" d="M195.18,-513.28C205.9,-451.21 264.62,-112.79 272,-105 282.27,-94.15 297.64,-89.07 311.99,-86.82"/>
<polygon fill="midnightblue" stroke="midnightblue" points="312.64,-90.27 322.17,-85.65 311.83,-83.32 312.64,-90.27"/>
</g>
<!-- Node252 -->
<g id="node17" class="node">
<title>Node252</title>
<g id="a_node17"><a xlink:href="quickjs_8c.html#a37fe43b6649456a848bd54846450b995" target="_top" xlink:title=" ">
<polygon fill="none" stroke="red" points="491.5,-466.5 491.5,-485.5 563.5,-485.5 563.5,-466.5 491.5,-466.5"/>
<text text-anchor="middle" x="527.5" y="-473.5" font-family="Helvetica,sans-Serif" font-size="10.00">get_var_ref</text>
</a>
</g>
</g>
<!-- Node2&#45;&gt;Node252 -->
<g id="edge17" class="edge">
<title>Node2&#45;&gt;Node252</title>
<path fill="none" stroke="midnightblue" d="M236.01,-517C298.96,-508.12 416.46,-491.53 481.05,-482.41"/>
<polygon fill="midnightblue" stroke="midnightblue" points="481.92,-485.83 491.33,-480.96 480.94,-478.9 481.92,-485.83"/>
</g>
<!-- Node196 -->
<g id="node18" class="node">
<title>Node196</title>
<g id="a_node18"><a xlink:href="list_8h.html#a663527a4d757540b2177bef0db1ce5c0" target="_top" xlink:title=" ">
<polygon fill="none" stroke="black" points="309.5,-38.5 309.5,-57.5 391.5,-57.5 391.5,-38.5 309.5,-38.5"/>
<text text-anchor="middle" x="350.5" y="-45.5" font-family="Helvetica,sans-Serif" font-size="10.00">init_list_head</text>
</a>
</g>
</g>
<!-- Node2&#45;&gt;Node196 -->
<g id="edge18" class="edge">
<title>Node2&#45;&gt;Node196</title>
<path fill="none" stroke="midnightblue" d="M195.17,-513.1C206.34,-446.74 270,-69.14 272,-67 279.23,-59.24 289.07,-54.43 299.3,-51.49"/>
<polygon fill="midnightblue" stroke="midnightblue" points="300.21,-54.87 309.16,-49.21 298.63,-48.05 300.21,-54.87"/>
</g>
<!-- Node253 -->
<g id="node19" class="node">
<title>Node253</title>
<g id="a_node19"><a xlink:href="quickjs_8c.html#a2bb0a2ca3b8320f3ff778c65034fce49" target="_top" xlink:title=" ">
<polygon fill="none" stroke="red" points="291,-950.5 291,-969.5 410,-969.5 410,-950.5 291,-950.5"/>
<text text-anchor="middle" x="350.5" y="-957.5" font-family="Helvetica,sans-Serif" font-size="10.00">is_backtrace_needed</text>
</a>
</g>
</g>
<!-- Node2&#45;&gt;Node253 -->
<g id="edge19" class="edge">
<title>Node2&#45;&gt;Node253</title>
<path fill="none" stroke="midnightblue" d="M194.99,-532.53C204.54,-593.36 257.25,-925.42 272,-941 274.95,-944.11 278.31,-946.75 281.95,-948.98"/>
<polygon fill="midnightblue" stroke="midnightblue" points="280.38,-952.11 290.88,-953.49 283.53,-945.86 280.38,-952.11"/>
</g>
<!-- Node180 -->
<g id="node20" class="node">
<title>Node180</title>
<g id="a_node20"><a xlink:href="quickjs_8c.html#a686cf78f8b0361621ee2ba6182195c31" target="_top" xlink:title=" ">
<polygon fill="none" stroke="black" points="306.5,-912.5 306.5,-931.5 394.5,-931.5 394.5,-912.5 306.5,-912.5"/>
<text text-anchor="middle" x="350.5" y="-919.5" font-family="Helvetica,sans-Serif" font-size="10.00">is_strict_mode</text>
</a>
</g>
</g>
<!-- Node2&#45;&gt;Node180 -->
<g id="edge20" class="edge">
<title>Node2&#45;&gt;Node180</title>
<path fill="none" stroke="midnightblue" d="M194.88,-532.73C202.99,-589.36 245.06,-875.05 272,-903 278.57,-909.81 287.15,-914.34 296.2,-917.32"/>
<polygon fill="midnightblue" stroke="midnightblue" points="295.56,-920.78 306.13,-919.98 297.37,-914.01 295.56,-920.78"/>
</g>
<!-- Node255 -->
<g id="node21" class="node">
<title>Node255</title>
<g id="a_node21"><a xlink:href="quickjs_8c.html#ae8ff05447c0d51fe277baccf616dc7c6" target="_top" xlink:title=" ">
<polygon fill="none" stroke="red" points="312.5,-874.5 312.5,-893.5 388.5,-893.5 388.5,-874.5 312.5,-874.5"/>
<text text-anchor="middle" x="350.5" y="-881.5" font-family="Helvetica,sans-Serif" font-size="10.00">js_add_slow</text>
</a>
</g>
</g>
<!-- Node2&#45;&gt;Node255 -->
<g id="edge21" class="edge">
<title>Node2&#45;&gt;Node255</title>
<path fill="none" stroke="midnightblue" d="M194.36,-532.6C199.07,-582.9 223.26,-815.53 272,-865 280.12,-873.24 291.19,-878.13 302.43,-880.97"/>
<polygon fill="midnightblue" stroke="midnightblue" points="301.77,-884.41 312.27,-882.98 303.17,-877.55 301.77,-884.41"/>
</g>
<!-- Node262 -->
<g id="node22" class="node">
<title>Node262</title>
<g id="a_node22"><a xlink:href="quickjs_8c.html#a6a21784a40b8684f2e779bd460dd13b2" target="_top" xlink:title=" ">
<polygon fill="none" stroke="red" points="311.5,-608.5 311.5,-627.5 389.5,-627.5 389.5,-608.5 311.5,-608.5"/>
<text text-anchor="middle" x="350.5" y="-615.5" font-family="Helvetica,sans-Serif" font-size="10.00">JS_AddBrand</text>
</a>
</g>
</g>
<!-- Node2&#45;&gt;Node262 -->
<g id="edge22" class="edge">
<title>Node2&#45;&gt;Node262</title>
<path fill="none" stroke="midnightblue" d="M200.57,-532.59C213.08,-548.85 240.79,-581.75 272,-599 281,-603.97 291.3,-607.66 301.39,-610.39"/>
<polygon fill="midnightblue" stroke="midnightblue" points="300.81,-613.85 311.35,-612.81 302.46,-607.05 300.81,-613.85"/>
</g>
<!-- Node265 -->
<g id="node23" class="node">
<title>Node265</title>
<g id="a_node23"><a xlink:href="quickjs_8c.html#a43208b0746998d2b6b9b8bd1ef8b5f99" target="_top" xlink:title=" ">
<polygon fill="none" stroke="red" points="288,-988.5 288,-1007.5 413,-1007.5 413,-988.5 288,-988.5"/>
<text text-anchor="middle" x="350.5" y="-995.5" font-family="Helvetica,sans-Serif" font-size="10.00">js_append_enumerate</text>
</a>
</g>
</g>
<!-- Node2&#45;&gt;Node265 -->
<g id="edge24" class="edge">
<title>Node2&#45;&gt;Node265</title>
<path fill="none" stroke="midnightblue" d="M195.03,-532.75C205.29,-598.13 264.01,-970.43 272,-979 274.08,-981.23 276.38,-983.22 278.84,-984.99"/>
<polygon fill="midnightblue" stroke="midnightblue" points="277.36,-988.18 287.76,-990.21 280.89,-982.14 277.36,-988.18"/>
</g>
<!-- Node97 -->
<g id="node24" class="node">
<title>Node97</title>
<g id="a_node24"><a xlink:href="quickjs_8c.html#a260bfa297ff6cb5bd18e229afaa54663" target="_top" xlink:title=" ">
<polygon fill="none" stroke="red" points="302.5,-836.5 302.5,-855.5 398.5,-855.5 398.5,-836.5 302.5,-836.5"/>
<text text-anchor="middle" x="350.5" y="-843.5" font-family="Helvetica,sans-Serif" font-size="10.00">JS_AtomToString</text>
</a>
</g>
</g>
<!-- Node2&#45;&gt;Node97 -->
<g id="edge26" class="edge">
<title>Node2&#45;&gt;Node97</title>
<path fill="none" stroke="midnightblue" d="M194.68,-532.76C200.55,-579.93 228.18,-783.71 272,-827 277.82,-832.74 285.07,-836.85 292.79,-839.77"/>
<polygon fill="midnightblue" stroke="midnightblue" points="291.78,-843.12 302.36,-842.77 293.87,-836.44 291.78,-843.12"/>
</g>
<!-- Node291 -->
<g id="node25" class="node">
<title>Node291</title>
<g id="a_node25"><a xlink:href="quickjs_8c.html#afa67965c1017685fc6783776d6d0d4d7" target="_top" xlink:title=" ">
<polygon fill="none" stroke="red" points="303,-798.5 303,-817.5 398,-817.5 398,-798.5 303,-798.5"/>
<text text-anchor="middle" x="350.5" y="-805.5" font-family="Helvetica,sans-Serif" font-size="10.00">JS_AtomToValue</text>
</a>
</g>
</g>
<!-- Node2&#45;&gt;Node291 -->
<g id="edge27" class="edge">
<title>Node2&#45;&gt;Node291</title>
<path fill="none" stroke="midnightblue" d="M193.18,-532.7C192.46,-571.33 195.2,-715.69 272,-789 277.98,-794.71 285.39,-798.79 293.24,-801.69"/>
<polygon fill="midnightblue" stroke="midnightblue" points="292.37,-805.09 302.96,-804.68 294.42,-798.4 292.37,-805.09"/>
</g>
<!-- Node292 -->
<g id="node26" class="node">
<title>Node292</title>
<g id="a_node26"><a xlink:href="quickjs_8c.html#a04d312757919ff6b4d79cd0c2c3e5bb2" target="_top" xlink:title=" ">
<polygon fill="none" stroke="red" points="294.5,-570.5 294.5,-589.5 406.5,-589.5 406.5,-570.5 294.5,-570.5"/>
<text text-anchor="middle" x="350.5" y="-577.5" font-family="Helvetica,sans-Serif" font-size="10.00">js_build_arguments</text>
</a>
</g>
</g>
<!-- Node2&#45;&gt;Node292 -->
<g id="edge28" class="edge">
<title>Node2&#45;&gt;Node292</title>
<path fill="none" stroke="midnightblue" d="M210.51,-532.53C226.11,-540.95 250.06,-553.1 272,-561 278.9,-563.48 286.26,-565.75 293.6,-567.79"/>
<polygon fill="midnightblue" stroke="midnightblue" points="292.97,-571.25 303.54,-570.42 294.77,-564.48 292.97,-571.25"/>
</g>
<!-- Node293 -->
<g id="node27" class="node">
<title>Node293</title>
<g id="a_node27"><a xlink:href="quickjs_8c.html#a1c459034f2971c4abc3a8d6d4693ef5f" target="_top" xlink:title=" ">
<polygon fill="none" stroke="red" points="272,-532.5 272,-551.5 429,-551.5 429,-532.5 272,-532.5"/>
<text text-anchor="middle" x="350.5" y="-539.5" font-family="Helvetica,sans-Serif" font-size="10.00">js_build_mapped_arguments</text>
</a>
</g>
</g>
<!-- Node2&#45;&gt;Node293 -->
<g id="edge30" class="edge">
<title>Node2&#45;&gt;Node293</title>
<path fill="none" stroke="midnightblue" d="M236.13,-528.19C244.19,-529.17 252.89,-530.23 261.76,-531.31"/>
<polygon fill="midnightblue" stroke="midnightblue" points="261.48,-534.81 271.83,-532.54 262.33,-527.86 261.48,-534.81"/>
</g>
<!-- Node294 -->
<g id="node28" class="node">
<title>Node294</title>
<g id="a_node28"><a xlink:href="quickjs_8c.html#a72f4829a5b32f5445fe3f2a59efeb8ea" target="_top" xlink:title=" ">
<polygon fill="none" stroke="red" points="311.5,-760.5 311.5,-779.5 389.5,-779.5 389.5,-760.5 311.5,-760.5"/>
<text text-anchor="middle" x="350.5" y="-767.5" font-family="Helvetica,sans-Serif" font-size="10.00">js_build_rest</text>
</a>
</g>
</g>
<!-- Node2&#45;&gt;Node294 -->
<g id="edge35" class="edge">
<title>Node2&#45;&gt;Node294</title>
<path fill="none" stroke="midnightblue" d="M193.94,-532.65C196.04,-566.95 207.83,-684.23 272,-746 280.08,-753.78 290.63,-759.04 301.34,-762.6"/>
<polygon fill="midnightblue" stroke="midnightblue" points="300.56,-766.02 311.14,-765.41 302.49,-759.29 300.56,-766.02"/>
</g>
<!-- Node2&#45;&gt;Node218 -->
<g id="edge37" class="edge">
<title>Node2&#45;&gt;Node218</title>
<path fill="none" stroke="midnightblue" d="M195.19,-513.4C201.05,-479.98 220.98,-365.65 236,-271 244.52,-217.3 235.38,-69.19 272,-29 273.19,-27.7 274.45,-26.48 275.77,-25.34"/>
<polygon fill="midnightblue" stroke="midnightblue" points="277.78,-28.2 283.97,-19.61 273.77,-22.47 277.78,-28.2"/>
</g>
<!-- Node2&#45;&gt;Node220 -->
<g id="edge38" class="edge">
<title>Node2&#45;&gt;Node220</title>
<path fill="none" stroke="midnightblue" d="M195.05,-532.84C205.95,-602.3 270.92,-1015.83 272,-1017 273.37,-1018.49 274.84,-1019.87 276.39,-1021.15"/>
<polygon fill="midnightblue" stroke="midnightblue" points="274.48,-1024.09 284.73,-1026.76 278.38,-1018.28 274.48,-1024.09"/>
</g>
<!-- Node64&#45;&gt;Node65 -->
<g id="edge7" class="edge">
<title>Node64&#45;&gt;Node65</title>
<path fill="none" stroke="midnightblue" d="M391.65,-356.36C417.6,-359.18 451.5,-362.86 478.82,-365.82"/>
<polygon fill="midnightblue" stroke="midnightblue" points="478.61,-369.32 488.93,-366.92 479.37,-362.36 478.61,-369.32"/>
</g>
<!-- Node262&#45;&gt;Node6 -->
<g id="edge23" class="edge">
<title>Node262&#45;&gt;Node6</title>
<path fill="none" stroke="midnightblue" d="M389.9,-613.83C415.42,-611.06 449.17,-607.4 476.74,-604.4"/>
<polygon fill="midnightblue" stroke="midnightblue" points="477.41,-607.85 486.97,-603.29 476.65,-600.89 477.41,-607.85"/>
</g>
<!-- Node265&#45;&gt;Node3 -->
<g id="edge25" class="edge">
<title>Node265&#45;&gt;Node3</title>
<path fill="none" stroke="midnightblue" d="M413.2,-998C434.23,-998 457.45,-998 477.36,-998"/>
<polygon fill="midnightblue" stroke="midnightblue" points="477.45,-1001.5 487.45,-998 477.45,-994.5 477.45,-1001.5"/>
</g>
<!-- Node292&#45;&gt;Node6 -->
<g id="edge29" class="edge">
<title>Node292&#45;&gt;Node6</title>
<path fill="none" stroke="midnightblue" d="M406.87,-586.01C429.26,-588.44 454.91,-591.23 476.7,-593.59"/>
<polygon fill="midnightblue" stroke="midnightblue" points="476.42,-597.08 486.74,-594.68 477.17,-590.12 476.42,-597.08"/>
</g>
<!-- Node293&#45;&gt;Node4 -->
<g id="edge31" class="edge">
<title>Node293&#45;&gt;Node4</title>
<path fill="none" stroke="midnightblue" d="M411.16,-551.55C417.51,-554.02 423.6,-557.12 429,-561 453.32,-578.51 444.89,-595.79 465,-618 476.19,-630.36 490.84,-641.94 503.04,-650.62"/>
<polygon fill="midnightblue" stroke="midnightblue" points="501.18,-653.59 511.4,-656.4 505.16,-647.84 501.18,-653.59"/>
</g>
<!-- Node293&#45;&gt;Node6 -->
<g id="edge32" class="edge">
<title>Node293&#45;&gt;Node6</title>
<path fill="none" stroke="midnightblue" d="M394.82,-551.56C406.03,-554.32 418.04,-557.54 429,-561 451.42,-568.08 476.1,-577.72 495.01,-585.51"/>
<polygon fill="midnightblue" stroke="midnightblue" points="493.76,-588.78 504.34,-589.4 496.45,-582.32 493.76,-588.78"/>
</g>
<!-- Node293&#45;&gt;Node53 -->
<g id="edge33" class="edge">
<title>Node293&#45;&gt;Node53</title>
<path fill="none" stroke="midnightblue" d="M429.02,-538.01C446.11,-537.13 463.71,-536.23 479.17,-535.43"/>
<polygon fill="midnightblue" stroke="midnightblue" points="479.69,-538.91 489.5,-534.9 479.33,-531.92 479.69,-538.91"/>
</g>
<!-- Node293&#45;&gt;Node252 -->
<g id="edge34" class="edge">
<title>Node293&#45;&gt;Node252</title>
<path fill="none" stroke="midnightblue" d="M376.95,-532.4C407.23,-520.98 457.95,-501.85 491.81,-489.08"/>
<polygon fill="midnightblue" stroke="midnightblue" points="493.19,-492.31 501.31,-485.5 490.71,-485.76 493.19,-492.31"/>
</g>
<!-- Node220&#45;&gt;Node3 -->
<g id="edge39" class="edge">
<title>Node220&#45;&gt;Node3</title>
<path fill="none" stroke="midnightblue" d="M395.66,-1026.41C420.6,-1021 451.82,-1014.22 477.51,-1008.64"/>
<polygon fill="midnightblue" stroke="midnightblue" points="478.39,-1012.03 487.42,-1006.49 476.91,-1005.19 478.39,-1012.03"/>
</g>
</g>
</svg>
