<?xml version="1.0" encoding="UTF-8" standalone="no"?>
<!DOCTYPE svg PUBLIC "-//W3C//DTD SVG 1.1//EN"
 "http://www.w3.org/Graphics/SVG/1.1/DTD/svg11.dtd">
<!-- Generated by graphviz version 2.43.0 (0)
 -->
<!-- Title: JS_WriteObjectTag Pages: 1 -->
<svg width="573pt" height="104pt"
 viewBox="0.00 0.00 573.00 104.00" xmlns="http://www.w3.org/2000/svg" xmlns:xlink="http://www.w3.org/1999/xlink">
<g id="graph0" class="graph" transform="scale(1 1) rotate(0) translate(4 100)">
<title>JS_WriteObjectTag</title>
<!-- Node1 -->
<g id="node1" class="node">
<title>Node1</title>
<g id="a_node1"><a xlink:title=" ">
<polygon fill="#bfbfbf" stroke="black" points="460,-38.5 460,-57.5 565,-57.5 565,-38.5 460,-38.5"/>
<text text-anchor="middle" x="512.5" y="-45.5" font-family="Helvetica,sans-Serif" font-size="10.00">JS_WriteObjectTag</text>
</a>
</g>
</g>
<!-- Node2 -->
<g id="node2" class="node">
<title>Node2</title>
<g id="a_node2"><a xlink:href="quickjs_8c.html#aa9342f7444c1c9f8743d43aa4d7f89e3" target="_top" xlink:title=" ">
<polygon fill="none" stroke="black" points="317,-38.5 317,-57.5 424,-57.5 424,-38.5 317,-38.5"/>
<text text-anchor="middle" x="370.5" y="-45.5" font-family="Helvetica,sans-Serif" font-size="10.00">JS_WriteObjectRec</text>
</a>
</g>
</g>
<!-- Node1&#45;&gt;Node2 -->
<g id="edge1" class="edge">
<title>Node1&#45;&gt;Node2</title>
<path fill="none" stroke="midnightblue" d="M449.63,-41.29C441.22,-41.21 432.65,-41.25 424.42,-41.43"/>
<polygon fill="midnightblue" stroke="midnightblue" points="449.71,-44.79 459.77,-41.46 449.83,-37.79 449.71,-44.79"/>
</g>
<!-- Node2&#45;&gt;Node1 -->
<g id="edge8" class="edge">
<title>Node2&#45;&gt;Node1</title>
<path fill="none" stroke="midnightblue" d="M434.6,-54.72C443.02,-54.79 451.57,-54.73 459.77,-54.54"/>
<polygon fill="midnightblue" stroke="midnightblue" points="434.48,-51.22 424.42,-54.57 434.37,-58.22 434.48,-51.22"/>
</g>
<!-- Node2&#45;&gt;Node2 -->
<g id="edge7" class="edge">
<title>Node2&#45;&gt;Node2</title>
<path fill="none" stroke="midnightblue" d="M397.01,-66.65C395.9,-71.94 387.06,-76 370.5,-76 345.26,-76 337.97,-66.57 348.61,-57.76"/>
<polygon fill="midnightblue" stroke="midnightblue" points="400.1,-65.02 392.39,-57.76 393.89,-68.24 400.1,-65.02"/>
</g>
<!-- Node3 -->
<g id="node3" class="node">
<title>Node3</title>
<g id="a_node3"><a xlink:href="quickjs_8c.html#aba35628e2e963dca8fa201e6708046d6" target="_top" xlink:title=" ">
<polygon fill="none" stroke="black" points="183.5,-76.5 183.5,-95.5 266.5,-95.5 266.5,-76.5 183.5,-76.5"/>
<text text-anchor="middle" x="225" y="-83.5" font-family="Helvetica,sans-Serif" font-size="10.00">JS_WriteArray</text>
</a>
</g>
</g>
<!-- Node2&#45;&gt;Node3 -->
<g id="edge2" class="edge">
<title>Node2&#45;&gt;Node3</title>
<path fill="none" stroke="midnightblue" d="M306.9,-57.88C284.17,-63.65 260.19,-70.67 244.3,-76.47"/>
<polygon fill="midnightblue" stroke="midnightblue" points="308.02,-61.21 316.88,-55.4 306.33,-54.41 308.02,-61.21"/>
</g>
<!-- Node4 -->
<g id="node4" class="node">
<title>Node4</title>
<g id="a_node4"><a xlink:href="quickjs_8c.html#a431ceb41084feaa6af4e466b8b772ab1" target="_top" xlink:title=" ">
<polygon fill="none" stroke="black" points="177.5,-38.5 177.5,-57.5 272.5,-57.5 272.5,-38.5 177.5,-38.5"/>
<text text-anchor="middle" x="225" y="-45.5" font-family="Helvetica,sans-Serif" font-size="10.00">JS_WriteObject2</text>
</a>
</g>
</g>
<!-- Node2&#45;&gt;Node4 -->
<g id="edge4" class="edge">
<title>Node2&#45;&gt;Node4</title>
<path fill="none" stroke="midnightblue" d="M306.61,-48C295.29,-48 283.68,-48 272.92,-48"/>
<polygon fill="midnightblue" stroke="midnightblue" points="306.88,-51.5 316.88,-48 306.88,-44.5 306.88,-51.5"/>
</g>
<!-- Node7 -->
<g id="node7" class="node">
<title>Node7</title>
<g id="a_node7"><a xlink:href="quickjs_8c.html#ab24f0a3286c69433ab7e48dcc39c36cb" target="_top" xlink:title=" ">
<polygon fill="none" stroke="black" points="169,-0.5 169,-19.5 281,-19.5 281,-0.5 169,-0.5"/>
<text text-anchor="middle" x="225" y="-7.5" font-family="Helvetica,sans-Serif" font-size="10.00">JS_WriteTypedArray</text>
</a>
</g>
</g>
<!-- Node2&#45;&gt;Node7 -->
<g id="edge9" class="edge">
<title>Node2&#45;&gt;Node7</title>
<path fill="none" stroke="midnightblue" d="M341.13,-34.98C324.03,-29.33 301.67,-23.04 281.21,-18.03"/>
<polygon fill="midnightblue" stroke="midnightblue" points="340.44,-38.45 351.03,-38.41 342.73,-31.83 340.44,-38.45"/>
</g>
<!-- Node3&#45;&gt;Node2 -->
<g id="edge3" class="edge">
<title>Node3&#45;&gt;Node2</title>
<path fill="none" stroke="midnightblue" d="M276.73,-79.05C302.53,-72.89 332.32,-64.4 351.03,-57.59"/>
<polygon fill="midnightblue" stroke="midnightblue" points="275.65,-75.71 266.7,-81.38 277.23,-82.53 275.65,-75.71"/>
</g>
<!-- Node5 -->
<g id="node5" class="node">
<title>Node5</title>
<g id="a_node5"><a xlink:href="quickjs-libc_8c.html#ab995f33d3c307ae55a13a18b88023d15" target="_top" xlink:title=" ">
<polygon fill="none" stroke="black" points="0,-57.5 0,-76.5 133,-76.5 133,-57.5 0,-57.5"/>
<text text-anchor="middle" x="66.5" y="-64.5" font-family="Helvetica,sans-Serif" font-size="10.00">js_worker_postMessage</text>
</a>
</g>
</g>
<!-- Node4&#45;&gt;Node5 -->
<g id="edge5" class="edge">
<title>Node4&#45;&gt;Node5</title>
<path fill="none" stroke="midnightblue" d="M167.48,-54.86C156.37,-56.21 144.63,-57.64 133.26,-59.02"/>
<polygon fill="midnightblue" stroke="midnightblue" points="167.96,-58.33 177.47,-53.65 167.12,-51.38 167.96,-58.33"/>
</g>
<!-- Node6 -->
<g id="node6" class="node">
<title>Node6</title>
<g id="a_node6"><a xlink:href="quickjs_8c.html#a8c807d481615ed55818787ae89621a37" target="_top" xlink:title=" ">
<polygon fill="none" stroke="black" points="22,-19.5 22,-38.5 111,-38.5 111,-19.5 22,-19.5"/>
<text text-anchor="middle" x="66.5" y="-26.5" font-family="Helvetica,sans-Serif" font-size="10.00">JS_WriteObject</text>
</a>
</g>
</g>
<!-- Node4&#45;&gt;Node6 -->
<g id="edge6" class="edge">
<title>Node4&#45;&gt;Node6</title>
<path fill="none" stroke="midnightblue" d="M167.39,-41.13C148.87,-38.88 128.59,-36.42 111.17,-34.3"/>
<polygon fill="midnightblue" stroke="midnightblue" points="167.12,-44.62 177.47,-42.35 167.96,-37.67 167.12,-44.62"/>
</g>
<!-- Node7&#45;&gt;Node2 -->
<g id="edge10" class="edge">
<title>Node7&#45;&gt;Node2</title>
<path fill="none" stroke="midnightblue" d="M253.83,-22.84C271.71,-28.78 295.52,-35.44 316.88,-40.6"/>
<polygon fill="midnightblue" stroke="midnightblue" points="254.89,-19.5 244.3,-19.53 252.6,-26.12 254.89,-19.5"/>
</g>
</g>
</svg>
