<?xml version="1.0" encoding="UTF-8" standalone="no"?>
<!DOCTYPE svg PUBLIC "-//W3C//DTD SVG 1.1//EN"
 "http://www.w3.org/Graphics/SVG/1.1/DTD/svg11.dtd">
<!-- Generated by graphviz version 2.43.0 (0)
 -->
<!-- Title: js_error_toString Pages: 1 -->
<!--zoomable 465 -->
<svg id="main" version="1.1" xmlns="http://www.w3.org/2000/svg" xmlns:xlink="http://www.w3.org/1999/xlink" xml:space="preserve" onload="init(evt)">
<style type="text/css"><![CDATA[
.edge:hover path { stroke: red; }
.edge:hover polygon { stroke: red; fill: red; }
]]></style>
<script type="text/javascript"><![CDATA[
var edges = document.getElementsByTagName('g');
if (edges && edges.length) {
  for (var i=0;i<edges.length;i++) {
    if (edges[i].id.substr(0,4)=='edge') {
      edges[i].setAttribute('class','edge');
    }
  }
}
]]></script>
        <defs>
                <circle id="rim" cx="0" cy="0" r="7"/>
                <circle id="rim2" cx="0" cy="0" r="3.5"/>
                <g id="zoomPlus">
                        <use xlink:href="#rim" fill="#404040">
                                <set attributeName="fill" to="#808080" begin="zoomplus.mouseover" end="zoomplus.mouseout"/>
                        </use>
                        <path d="M-4,0h8M0,-4v8" fill="none" stroke="white" stroke-width="1.5" pointer-events="none"/>
                </g>
                <g id="zoomMin">
                        <use xlink:href="#rim" fill="#404040">
                                <set attributeName="fill" to="#808080" begin="zoomminus.mouseover" end="zoomminus.mouseout"/>
                        </use>
                        <path d="M-4,0h8" fill="none" stroke="white" stroke-width="1.5" pointer-events="none"/>
                </g>
                <g id="dirArrow">
                        <path fill="none" stroke="white" stroke-width="1.5" d="M0,-3.0v7 M-2.5,-0.5L0,-3.0L2.5,-0.5"/>
                </g>
               <g id="resetDef">
                       <use xlink:href="#rim2" fill="#404040">
                               <set attributeName="fill" to="#808080" begin="reset.mouseover" end="reset.mouseout"/>
                       </use>
               </g>
        </defs>

<script type="text/javascript">
var viewWidth = 769;
var viewHeight = 465;
var sectionId = 'dynsection-1465';
</script>
<script xlink:href="svgpan.js"/>
<svg id="graph" class="graph">
<g id="viewport">
<title>js_error_toString</title>
<!-- Node1 -->
<g id="node1" class="node">
<title>Node1</title>
<g id="a_node1"><a xlink:title=" ">
<polygon fill="#bfbfbf" stroke="black" points="0,-190.5 0,-209.5 97,-209.5 97,-190.5 0,-190.5"/>
<text text-anchor="middle" x="48.5" y="-197.5" font-family="Helvetica,sans-Serif" font-size="10.00">js_error_toString</text>
</a>
</g>
</g>
<!-- Node2 -->
<g id="node2" class="node">
<title>Node2</title>
<g id="a_node2"><a xlink:href="quickjs_8c.html#a260bfa297ff6cb5bd18e229afaa54663" target="_top" xlink:title=" ">
<polygon fill="none" stroke="black" points="169,-380.5 169,-399.5 265,-399.5 265,-380.5 169,-380.5"/>
<text text-anchor="middle" x="217" y="-387.5" font-family="Helvetica,sans-Serif" font-size="10.00">JS_AtomToString</text>
</a>
</g>
</g>
<!-- Node1&#45;&gt;Node2 -->
<g id="edge1" class="edge">
<title>Node1&#45;&gt;Node2</title>
<path fill="none" stroke="midnightblue" d="M51.48,-209.55C57.87,-237.94 80.64,-322.51 133,-366 140.54,-372.26 149.63,-376.89 159,-380.31"/>
<polygon fill="midnightblue" stroke="midnightblue" points="158.21,-383.73 168.8,-383.45 160.35,-377.07 158.21,-383.73"/>
</g>
<!-- Node30 -->
<g id="node8" class="node">
<title>Node30</title>
<g id="a_node8"><a xlink:href="quickjs_8c.html#ab6d8a1a52baf4d686aed594b996699d7" target="_top" xlink:title=" ">
<polygon fill="none" stroke="black" points="170.5,-190.5 170.5,-209.5 263.5,-209.5 263.5,-190.5 170.5,-190.5"/>
<text text-anchor="middle" x="217" y="-197.5" font-family="Helvetica,sans-Serif" font-size="10.00">JS_ConcatString</text>
</a>
</g>
</g>
<!-- Node1&#45;&gt;Node30 -->
<g id="edge7" class="edge">
<title>Node1&#45;&gt;Node30</title>
<path fill="none" stroke="midnightblue" d="M97.21,-200C116.86,-200 139.76,-200 160.18,-200"/>
<polygon fill="midnightblue" stroke="midnightblue" points="160.29,-203.5 170.29,-200 160.29,-196.5 160.29,-203.5"/>
</g>
<!-- Node33 -->
<g id="node13" class="node">
<title>Node33</title>
<g id="a_node13"><a xlink:href="quickjs_8h.html#afaa20c47565bc704c6c85f3d77254e7d" target="_top" xlink:title=" ">
<polygon fill="none" stroke="black" points="527.5,-266.5 527.5,-285.5 606.5,-285.5 606.5,-266.5 527.5,-266.5"/>
<text text-anchor="middle" x="567" y="-273.5" font-family="Helvetica,sans-Serif" font-size="10.00">JS_FreeValue</text>
</a>
</g>
</g>
<!-- Node1&#45;&gt;Node33 -->
<g id="edge24" class="edge">
<title>Node1&#45;&gt;Node33</title>
<path fill="none" stroke="midnightblue" d="M52.63,-209.62C61.07,-233.8 86.87,-297.09 133,-323 260.55,-394.63 320.28,-369.29 462,-333 464.14,-332.45 509.97,-307.12 540.07,-290.42"/>
<polygon fill="midnightblue" stroke="midnightblue" points="541.8,-293.46 548.84,-285.55 538.4,-287.34 541.8,-293.46"/>
</g>
<!-- Node69 -->
<g id="node15" class="node">
<title>Node69</title>
<g id="a_node15"><a xlink:href="quickjs_8h.html#ad80a83d73e9b7d872b88fbf2943aebe9" target="_top" xlink:title=" ">
<polygon fill="none" stroke="black" points="356,-304.5 356,-323.5 443,-323.5 443,-304.5 356,-304.5"/>
<text text-anchor="middle" x="399.5" y="-311.5" font-family="Helvetica,sans-Serif" font-size="10.00">JS_IsException</text>
</a>
</g>
</g>
<!-- Node1&#45;&gt;Node69 -->
<g id="edge27" class="edge">
<title>Node1&#45;&gt;Node69</title>
<path fill="none" stroke="midnightblue" d="M54.59,-209.75C65.69,-229.88 94.25,-275.77 133,-295 200.61,-328.55 290.03,-327.02 345.9,-321.52"/>
<polygon fill="midnightblue" stroke="midnightblue" points="346.35,-324.99 355.93,-320.46 345.61,-318.03 346.35,-324.99"/>
</g>
<!-- Node72 -->
<g id="node18" class="node">
<title>Node72</title>
<g id="a_node18"><a xlink:href="quickjs_8c.html#a38cad713b74c445668210ea8614bfb65" target="_top" xlink:title=" ">
<polygon fill="none" stroke="black" points="354,-228.5 354,-247.5 445,-247.5 445,-228.5 354,-228.5"/>
<text text-anchor="middle" x="399.5" y="-235.5" font-family="Helvetica,sans-Serif" font-size="10.00">JS_ToStringFree</text>
</a>
</g>
</g>
<!-- Node1&#45;&gt;Node72 -->
<g id="edge31" class="edge">
<title>Node1&#45;&gt;Node72</title>
<path fill="none" stroke="midnightblue" d="M85.85,-209.54C100.42,-213.03 117.41,-216.68 133,-219 205.36,-229.76 289.75,-234.48 343.62,-236.51"/>
<polygon fill="midnightblue" stroke="midnightblue" points="343.53,-240.01 353.65,-236.87 343.78,-233.01 343.53,-240.01"/>
</g>
<!-- Node330 -->
<g id="node20" class="node">
<title>Node330</title>
<g id="a_node20"><a xlink:href="quickjs_8c.html#a964b0ba49f8823d8d8f21c6645a81542" target="_top" xlink:title=" ">
<polygon fill="none" stroke="red" points="167.5,-266.5 167.5,-285.5 266.5,-285.5 266.5,-266.5 167.5,-266.5"/>
<text text-anchor="middle" x="217" y="-273.5" font-family="Helvetica,sans-Serif" font-size="10.00">JS_ConcatString3</text>
</a>
</g>
</g>
<!-- Node1&#45;&gt;Node330 -->
<g id="edge20" class="edge">
<title>Node1&#45;&gt;Node330</title>
<path fill="none" stroke="midnightblue" d="M62.46,-209.66C78.36,-221.13 106.48,-240.18 133,-252 143.07,-256.49 154.2,-260.38 164.95,-263.64"/>
<polygon fill="midnightblue" stroke="midnightblue" points="164.1,-267.04 174.68,-266.46 166.05,-260.32 164.1,-267.04"/>
</g>
<!-- Node107 -->
<g id="node21" class="node">
<title>Node107</title>
<g id="a_node21"><a xlink:href="quickjs_8h.html#a89b7c8686c7eee70b86be722ee4730ad" target="_top" xlink:title=" ">
<polygon fill="none" stroke="red" points="172.5,-152.5 172.5,-171.5 261.5,-171.5 261.5,-152.5 172.5,-152.5"/>
<text text-anchor="middle" x="217" y="-159.5" font-family="Helvetica,sans-Serif" font-size="10.00">JS_GetProperty</text>
</a>
</g>
</g>
<!-- Node1&#45;&gt;Node107 -->
<g id="edge25" class="edge">
<title>Node1&#45;&gt;Node107</title>
<path fill="none" stroke="midnightblue" d="M91.51,-190.41C113.68,-185.35 141.07,-179.1 164.51,-173.75"/>
<polygon fill="midnightblue" stroke="midnightblue" points="165.32,-177.16 174.29,-171.52 163.76,-170.33 165.32,-177.16"/>
</g>
<!-- Node436 -->
<g id="node22" class="node">
<title>Node436</title>
<g id="a_node22"><a xlink:href="quickjs_8c.html#a31b40ad741f7d1cebdce14d1d979d6d4" target="_top" xlink:title=" ">
<polygon fill="none" stroke="black" points="167.5,-114.5 167.5,-133.5 266.5,-133.5 266.5,-114.5 167.5,-114.5"/>
<text text-anchor="middle" x="217" y="-121.5" font-family="Helvetica,sans-Serif" font-size="10.00">JS_IsEmptyString</text>
</a>
</g>
</g>
<!-- Node1&#45;&gt;Node436 -->
<g id="edge26" class="edge">
<title>Node1&#45;&gt;Node436</title>
<path fill="none" stroke="midnightblue" d="M60.57,-190.4C75.84,-177.67 104.69,-155.37 133,-143 140.69,-139.64 149.05,-136.83 157.41,-134.5"/>
<polygon fill="midnightblue" stroke="midnightblue" points="158.37,-137.87 167.18,-131.98 156.62,-131.09 158.37,-137.87"/>
</g>
<!-- Node286 -->
<g id="node23" class="node">
<title>Node286</title>
<g id="a_node23"><a xlink:href="quickjs_8h.html#a3d68fe446df2d9c7d1900b16371bff5b" target="_top" xlink:title=" ">
<polygon fill="none" stroke="black" points="181.5,-76.5 181.5,-95.5 252.5,-95.5 252.5,-76.5 181.5,-76.5"/>
<text text-anchor="middle" x="217" y="-83.5" font-family="Helvetica,sans-Serif" font-size="10.00">JS_IsObject</text>
</a>
</g>
</g>
<!-- Node1&#45;&gt;Node286 -->
<g id="edge28" class="edge">
<title>Node1&#45;&gt;Node286</title>
<path fill="none" stroke="midnightblue" d="M55.02,-190.42C66.72,-171.01 96.03,-127.03 133,-105 144.52,-98.13 158.31,-93.75 171.3,-90.95"/>
<polygon fill="midnightblue" stroke="midnightblue" points="172.31,-94.32 181.49,-89.02 171.01,-87.44 172.31,-94.32"/>
</g>
<!-- Node133 -->
<g id="node24" class="node">
<title>Node133</title>
<g id="a_node24"><a xlink:href="quickjs_8h.html#a4e407128a9605afb77523e49e9a627fd" target="_top" xlink:title=" ">
<polygon fill="none" stroke="black" points="172.5,-38.5 172.5,-57.5 261.5,-57.5 261.5,-38.5 172.5,-38.5"/>
<text text-anchor="middle" x="217" y="-45.5" font-family="Helvetica,sans-Serif" font-size="10.00">JS_IsUndefined</text>
</a>
</g>
</g>
<!-- Node1&#45;&gt;Node133 -->
<g id="edge29" class="edge">
<title>Node1&#45;&gt;Node133</title>
<path fill="none" stroke="midnightblue" d="M52.57,-190.48C61.05,-165.82 87.21,-99.52 133,-67 141.68,-60.84 152.04,-56.64 162.45,-53.79"/>
<polygon fill="midnightblue" stroke="midnightblue" points="163.46,-57.14 172.39,-51.44 161.86,-50.33 163.46,-57.14"/>
</g>
<!-- Node249 -->
<g id="node25" class="node">
<title>Node249</title>
<g id="a_node25"><a xlink:href="quickjs_8c.html#a726b00d108e0a0f4d958c36c2e426a64" target="_top" xlink:title=" ">
<polygon fill="none" stroke="black" points="133,-0.5 133,-19.5 301,-19.5 301,-0.5 133,-0.5"/>
<text text-anchor="middle" x="217" y="-7.5" font-family="Helvetica,sans-Serif" font-size="10.00">JS_ThrowTypeErrorNotAnObject</text>
</a>
</g>
</g>
<!-- Node1&#45;&gt;Node249 -->
<g id="edge30" class="edge">
<title>Node1&#45;&gt;Node249</title>
<path fill="none" stroke="midnightblue" d="M51.19,-190.44C56.88,-161.24 78.14,-72.54 133,-29 135.28,-27.19 137.7,-25.55 140.22,-24.06"/>
<polygon fill="midnightblue" stroke="midnightblue" points="141.81,-27.17 149.16,-19.54 138.66,-20.92 141.81,-27.17"/>
</g>
<!-- Node3 -->
<g id="node3" class="node">
<title>Node3</title>
<g id="a_node3"><a xlink:href="quickjs_8c.html#a06ff303a11e6641cbf1f6634e6a61811" target="_top" xlink:title=" ">
<polygon fill="none" stroke="black" points="347,-380.5 347,-399.5 452,-399.5 452,-380.5 347,-380.5"/>
<text text-anchor="middle" x="399.5" y="-387.5" font-family="Helvetica,sans-Serif" font-size="10.00">__JS_AtomToValue</text>
</a>
</g>
</g>
<!-- Node2&#45;&gt;Node3 -->
<g id="edge2" class="edge">
<title>Node2&#45;&gt;Node3</title>
<path fill="none" stroke="midnightblue" d="M265.42,-390C287.26,-390 313.45,-390 336.8,-390"/>
<polygon fill="midnightblue" stroke="midnightblue" points="336.96,-393.5 346.96,-390 336.96,-386.5 336.96,-393.5"/>
</g>
<!-- Node4 -->
<g id="node4" class="node">
<title>Node4</title>
<g id="a_node4"><a xlink:href="quickjs_8c.html#a288254c06a39c9fca740a7abdad2834e" target="_top" xlink:title=" ">
<polygon fill="none" stroke="black" points="505.5,-437.5 505.5,-456.5 628.5,-456.5 628.5,-437.5 505.5,-437.5"/>
<text text-anchor="middle" x="567" y="-444.5" font-family="Helvetica,sans-Serif" font-size="10.00">__JS_AtomIsTaggedInt</text>
</a>
</g>
</g>
<!-- Node3&#45;&gt;Node4 -->
<g id="edge3" class="edge">
<title>Node3&#45;&gt;Node4</title>
<path fill="none" stroke="midnightblue" d="M423.12,-399.55C442.73,-407.66 471.98,-419.32 498,-428 504.87,-430.29 512.2,-432.54 519.4,-434.64"/>
<polygon fill="midnightblue" stroke="midnightblue" points="518.52,-438.03 529.1,-437.41 520.44,-431.3 518.52,-438.03"/>
</g>
<!-- Node5 -->
<g id="node5" class="node">
<title>Node5</title>
<g id="a_node5"><a xlink:href="quickjs_8c.html#a89f38938cee8077ce1fbba07946ed185" target="_top" xlink:title=" ">
<polygon fill="none" stroke="black" points="512,-399.5 512,-418.5 622,-418.5 622,-399.5 512,-399.5"/>
<text text-anchor="middle" x="567" y="-406.5" font-family="Helvetica,sans-Serif" font-size="10.00">__JS_AtomToUInt32</text>
</a>
</g>
</g>
<!-- Node3&#45;&gt;Node5 -->
<g id="edge4" class="edge">
<title>Node3&#45;&gt;Node5</title>
<path fill="none" stroke="midnightblue" d="M452.41,-395.96C468.11,-397.76 485.54,-399.76 501.94,-401.65"/>
<polygon fill="midnightblue" stroke="midnightblue" points="501.65,-405.14 511.99,-402.8 502.45,-398.18 501.65,-405.14"/>
</g>
<!-- Node6 -->
<g id="node6" class="node">
<title>Node6</title>
<g id="a_node6"><a xlink:href="quickjs_8h.html#a775522f2d084fc8fa0fcb33f390006b4" target="_top" xlink:title=" ">
<polygon fill="none" stroke="black" points="528.5,-361.5 528.5,-380.5 605.5,-380.5 605.5,-361.5 528.5,-361.5"/>
<text text-anchor="middle" x="567" y="-368.5" font-family="Helvetica,sans-Serif" font-size="10.00">JS_DupValue</text>
</a>
</g>
</g>
<!-- Node3&#45;&gt;Node6 -->
<g id="edge5" class="edge">
<title>Node3&#45;&gt;Node6</title>
<path fill="none" stroke="midnightblue" d="M452.41,-384.04C473.5,-381.62 497.7,-378.84 518.33,-376.47"/>
<polygon fill="midnightblue" stroke="midnightblue" points="518.91,-379.93 528.45,-375.31 518.11,-372.97 518.91,-379.93"/>
</g>
<!-- Node7 -->
<g id="node7" class="node">
<title>Node7</title>
<g id="a_node7"><a xlink:href="quickjs_8c.html#a0ee6a3654a6016393fac5e1c108f403a" target="_top" xlink:title=" ">
<polygon fill="none" stroke="red" points="526.5,-323.5 526.5,-342.5 607.5,-342.5 607.5,-323.5 526.5,-323.5"/>
<text text-anchor="middle" x="567" y="-330.5" font-family="Helvetica,sans-Serif" font-size="10.00">JS_NewString</text>
</a>
</g>
</g>
<!-- Node3&#45;&gt;Node7 -->
<g id="edge6" class="edge">
<title>Node3&#45;&gt;Node7</title>
<path fill="none" stroke="midnightblue" d="M425.05,-380.41C453.63,-369.26 497.08,-352.31 498,-352 504.87,-349.71 512.2,-347.46 519.4,-345.36"/>
<polygon fill="midnightblue" stroke="midnightblue" points="520.44,-348.7 529.1,-342.59 518.52,-341.97 520.44,-348.7"/>
</g>
<!-- Node31 -->
<g id="node9" class="node">
<title>Node31</title>
<g id="a_node9"><a xlink:href="quickjs_8c.html#aa864584f81729321ec9d527d6362c633" target="_top" xlink:title=" ">
<polygon fill="none" stroke="black" points="350,-152.5 350,-171.5 449,-171.5 449,-152.5 350,-152.5"/>
<text text-anchor="middle" x="399.5" y="-159.5" font-family="Helvetica,sans-Serif" font-size="10.00">JS_ConcatString1</text>
</a>
</g>
</g>
<!-- Node30&#45;&gt;Node31 -->
<g id="edge8" class="edge">
<title>Node30&#45;&gt;Node31</title>
<path fill="none" stroke="midnightblue" d="M263.55,-190.41C287.8,-185.31 317.8,-178.99 343.36,-173.61"/>
<polygon fill="midnightblue" stroke="midnightblue" points="344.22,-177.01 353.28,-171.52 342.77,-170.16 344.22,-177.01"/>
</g>
<!-- Node30&#45;&gt;Node33 -->
<g id="edge12" class="edge">
<title>Node30&#45;&gt;Node33</title>
<path fill="none" stroke="midnightblue" d="M263.66,-194.13C314.64,-189.66 398.34,-188.63 462,-219 483,-229.02 478.08,-244.99 498,-257 504,-260.61 510.7,-263.56 517.5,-265.96"/>
<polygon fill="midnightblue" stroke="midnightblue" points="516.87,-269.43 527.46,-269.09 518.97,-262.75 516.87,-269.43"/>
</g>
<!-- Node30&#45;&gt;Node69 -->
<g id="edge14" class="edge">
<title>Node30&#45;&gt;Node69</title>
<path fill="none" stroke="midnightblue" d="M233.08,-209.52C264.4,-229.31 336.73,-274.99 374.52,-298.85"/>
<polygon fill="midnightblue" stroke="midnightblue" points="373.01,-302.04 383.34,-304.42 376.75,-296.12 373.01,-302.04"/>
</g>
<!-- Node70 -->
<g id="node16" class="node">
<title>Node70</title>
<g id="a_node16"><a xlink:href="quickjs_8c.html#ade5954b108a45072dff068d11f1c6d10" target="_top" xlink:title=" ">
<polygon fill="none" stroke="black" points="337,-95.5 337,-114.5 462,-114.5 462,-95.5 337,-95.5"/>
<text text-anchor="middle" x="399.5" y="-102.5" font-family="Helvetica,sans-Serif" font-size="10.00">js_malloc_usable_size</text>
</a>
</g>
</g>
<!-- Node30&#45;&gt;Node70 -->
<g id="edge15" class="edge">
<title>Node30&#45;&gt;Node70</title>
<path fill="none" stroke="midnightblue" d="M263.72,-194.52C276.36,-191.71 289.7,-187.45 301,-181 321.2,-169.47 318.95,-157.68 337,-143 347.65,-134.34 360.42,-126.14 371.57,-119.59"/>
<polygon fill="midnightblue" stroke="midnightblue" points="373.52,-122.51 380.46,-114.51 370.04,-116.43 373.52,-122.51"/>
</g>
<!-- Node30&#45;&gt;Node72 -->
<g id="edge17" class="edge">
<title>Node30&#45;&gt;Node72</title>
<path fill="none" stroke="midnightblue" d="M263.55,-209.59C287.98,-214.73 318.26,-221.11 343.94,-226.51"/>
<polygon fill="midnightblue" stroke="midnightblue" points="343.4,-229.98 353.9,-228.61 344.84,-223.13 343.4,-229.98"/>
</g>
<!-- Node9 -->
<g id="node10" class="node">
<title>Node9</title>
<g id="a_node10"><a xlink:href="quickjs_8c.html#a853f0924d441ea4225488f37c8b69f9a" target="_top" xlink:title=" ">
<polygon fill="none" stroke="black" points="527,-114.5 527,-133.5 607,-133.5 607,-114.5 527,-114.5"/>
<text text-anchor="middle" x="567" y="-121.5" font-family="Helvetica,sans-Serif" font-size="10.00">__attribute__</text>
</a>
</g>
</g>
<!-- Node31&#45;&gt;Node9 -->
<g id="edge9" class="edge">
<title>Node31&#45;&gt;Node9</title>
<path fill="none" stroke="midnightblue" d="M442.26,-152.41C464.97,-147.2 493.18,-140.72 516.94,-135.27"/>
<polygon fill="midnightblue" stroke="midnightblue" points="517.85,-138.65 526.81,-133 516.28,-131.82 517.85,-138.65"/>
</g>
<!-- Node32 -->
<g id="node11" class="node">
<title>Node32</title>
<g id="a_node11"><a xlink:href="quickjs_8c.html#a17da89ffe34d5b094b306c7668990cb1" target="_top" xlink:title=" ">
<polygon fill="none" stroke="black" points="532,-190.5 532,-209.5 602,-209.5 602,-190.5 532,-190.5"/>
<text text-anchor="middle" x="567" y="-197.5" font-family="Helvetica,sans-Serif" font-size="10.00">copy_str16</text>
</a>
</g>
</g>
<!-- Node31&#45;&gt;Node32 -->
<g id="edge10" class="edge">
<title>Node31&#45;&gt;Node32</title>
<path fill="none" stroke="midnightblue" d="M442.26,-171.59C466.59,-177.17 497.23,-184.21 521.94,-189.88"/>
<polygon fill="midnightblue" stroke="midnightblue" points="521.25,-193.32 531.78,-192.14 522.81,-186.49 521.25,-193.32"/>
</g>
<!-- Node11 -->
<g id="node12" class="node">
<title>Node11</title>
<g id="a_node12"><a xlink:href="quickjs_8c.html#ad303a9bc56766627b5fca41574933930" target="_top" xlink:title=" ">
<polygon fill="none" stroke="red" points="524,-152.5 524,-171.5 610,-171.5 610,-152.5 524,-152.5"/>
<text text-anchor="middle" x="567" y="-159.5" font-family="Helvetica,sans-Serif" font-size="10.00">js_alloc_string</text>
</a>
</g>
</g>
<!-- Node31&#45;&gt;Node11 -->
<g id="edge11" class="edge">
<title>Node31&#45;&gt;Node11</title>
<path fill="none" stroke="midnightblue" d="M449.26,-162C469.49,-162 493,-162 513.6,-162"/>
<polygon fill="midnightblue" stroke="midnightblue" points="513.76,-165.5 523.76,-162 513.76,-158.5 513.76,-165.5"/>
</g>
<!-- Node34 -->
<g id="node14" class="node">
<title>Node34</title>
<g id="a_node14"><a xlink:href="quickjs_8c.html#aa059f309c30fd5166d16c82a97973146" target="_top" xlink:title=" ">
<polygon fill="none" stroke="red" points="672,-266.5 672,-285.5 761,-285.5 761,-266.5 672,-266.5"/>
<text text-anchor="middle" x="716.5" y="-273.5" font-family="Helvetica,sans-Serif" font-size="10.00">__JS_FreeValue</text>
</a>
</g>
</g>
<!-- Node33&#45;&gt;Node34 -->
<g id="edge13" class="edge">
<title>Node33&#45;&gt;Node34</title>
<path fill="none" stroke="midnightblue" d="M606.75,-276C623.53,-276 643.45,-276 661.62,-276"/>
<polygon fill="midnightblue" stroke="midnightblue" points="661.8,-279.5 671.8,-276 661.8,-272.5 661.8,-279.5"/>
</g>
<!-- Node71 -->
<g id="node17" class="node">
<title>Node71</title>
<g id="a_node17"><a xlink:href="quickjs_8c.html#a9a3248be6328b083907b3655ec93777b" target="_top" xlink:title=" ">
<polygon fill="none" stroke="black" points="498,-76.5 498,-95.5 636,-95.5 636,-76.5 498,-76.5"/>
<text text-anchor="middle" x="567" y="-83.5" font-family="Helvetica,sans-Serif" font-size="10.00">js_malloc_usable_size_rt</text>
</a>
</g>
</g>
<!-- Node70&#45;&gt;Node71 -->
<g id="edge16" class="edge">
<title>Node70&#45;&gt;Node71</title>
<path fill="none" stroke="midnightblue" d="M462.13,-97.93C470.52,-96.96 479.21,-95.96 487.85,-94.97"/>
<polygon fill="midnightblue" stroke="midnightblue" points="488.39,-98.43 497.93,-93.81 487.59,-91.48 488.39,-98.43"/>
</g>
<!-- Node72&#45;&gt;Node33 -->
<g id="edge18" class="edge">
<title>Node72&#45;&gt;Node33</title>
<path fill="none" stroke="midnightblue" d="M442.26,-247.59C465.14,-252.84 493.6,-259.38 517.46,-264.85"/>
<polygon fill="midnightblue" stroke="midnightblue" points="516.84,-268.3 527.37,-267.13 518.41,-261.48 516.84,-268.3"/>
</g>
<!-- Node73 -->
<g id="node19" class="node">
<title>Node73</title>
<g id="a_node19"><a xlink:href="quickjs_8c.html#a7bcb8e1a20cbc8374a5f9ba4a2088cec" target="_top" xlink:title=" ">
<polygon fill="none" stroke="red" points="532,-228.5 532,-247.5 602,-247.5 602,-228.5 532,-228.5"/>
<text text-anchor="middle" x="567" y="-235.5" font-family="Helvetica,sans-Serif" font-size="10.00">JS_ToString</text>
</a>
</g>
</g>
<!-- Node72&#45;&gt;Node73 -->
<g id="edge19" class="edge">
<title>Node72&#45;&gt;Node73</title>
<path fill="none" stroke="midnightblue" d="M445.29,-238C469.05,-238 498.15,-238 521.83,-238"/>
<polygon fill="midnightblue" stroke="midnightblue" points="521.94,-241.5 531.94,-238 521.94,-234.5 521.94,-241.5"/>
</g>
<!-- Node330&#45;&gt;Node33 -->
<g id="edge21" class="edge">
<title>Node330&#45;&gt;Node33</title>
<path fill="none" stroke="midnightblue" d="M266.75,-276C333.07,-276 451.03,-276 517.31,-276"/>
<polygon fill="midnightblue" stroke="midnightblue" points="517.49,-279.5 527.49,-276 517.49,-272.5 517.49,-279.5"/>
</g>
<!-- Node330&#45;&gt;Node69 -->
<g id="edge22" class="edge">
<title>Node330&#45;&gt;Node69</title>
<path fill="none" stroke="midnightblue" d="M263.55,-285.59C288.53,-290.85 319.63,-297.4 345.68,-302.88"/>
<polygon fill="midnightblue" stroke="midnightblue" points="345.25,-306.37 355.76,-305 346.7,-299.52 345.25,-306.37"/>
</g>
<!-- Node330&#45;&gt;Node72 -->
<g id="edge23" class="edge">
<title>Node330&#45;&gt;Node72</title>
<path fill="none" stroke="midnightblue" d="M263.55,-266.41C287.98,-261.27 318.26,-254.89 343.94,-249.49"/>
<polygon fill="midnightblue" stroke="midnightblue" points="344.84,-252.87 353.9,-247.39 343.4,-246.02 344.84,-252.87"/>
</g>
</g>
</svg>
        <g id="navigator" transform="translate(0 0)" fill="#404254">
                <rect fill="#f2f5e9" fill-opacity="0.5" stroke="#606060" stroke-width=".5" x="0" y="0" width="60" height="60"/>
                <use id="zoomplus" xlink:href="#zoomPlus" x="17" y="9" onmousedown="handleZoom(evt,'in')"/>
                <use id="zoomminus" xlink:href="#zoomMin" x="42" y="9" onmousedown="handleZoom(evt,'out')"/>
                <use id="reset" xlink:href="#resetDef" x="30" y="36" onmousedown="handleReset()"/>
                <g id="arrowUp" xlink:href="#dirArrow" transform="translate(30 24)" onmousedown="handlePan(0,-1)">
                  <use xlink:href="#rim" fill="#404040">
                        <set attributeName="fill" to="#808080" begin="arrowUp.mouseover" end="arrowUp.mouseout"/>
                  </use>
                  <path fill="none" stroke="white" stroke-width="1.5" d="M0,-3.0v7 M-2.5,-0.5L0,-3.0L2.5,-0.5"/>
                </g>
                <g id="arrowRight" xlink:href="#dirArrow" transform="rotate(90) translate(36 -43)" onmousedown="handlePan(1,0)">
                  <use xlink:href="#rim" fill="#404040">
                        <set attributeName="fill" to="#808080" begin="arrowRight.mouseover" end="arrowRight.mouseout"/>
                  </use>
                  <path fill="none" stroke="white" stroke-width="1.5" d="M0,-3.0v7 M-2.5,-0.5L0,-3.0L2.5,-0.5"/>
                </g>
                <g id="arrowDown" xlink:href="#dirArrow" transform="rotate(180) translate(-30 -48)" onmousedown="handlePan(0,1)">
                  <use xlink:href="#rim" fill="#404040">
                        <set attributeName="fill" to="#808080" begin="arrowDown.mouseover" end="arrowDown.mouseout"/>
                  </use>
                  <path fill="none" stroke="white" stroke-width="1.5" d="M0,-3.0v7 M-2.5,-0.5L0,-3.0L2.5,-0.5"/>
                </g>
                <g id="arrowLeft" xlink:href="#dirArrow" transform="rotate(270) translate(-36 17)" onmousedown="handlePan(-1,0)">
                  <use xlink:href="#rim" fill="#404040">
                        <set attributeName="fill" to="#808080" begin="arrowLeft.mouseover" end="arrowLeft.mouseout"/>
                  </use>
                  <path fill="none" stroke="white" stroke-width="1.5" d="M0,-3.0v7 M-2.5,-0.5L0,-3.0L2.5,-0.5"/>
                </g>
        </g>
        <svg viewBox="0 0 15 15" width="100%" height="30px" preserveAspectRatio="xMaxYMin meet">
         <g id="arrow_out" transform="scale(0.3 0.3)">
          <a xlink:href="quickjs_8c_a367aedcd65b39452fb00ce58dac0c6f6_cgraph_org.svg" target="_base">
           <rect id="button" ry="5" rx="5" y="6" x="6" height="38" width="38"
                fill="#f2f5e9" fill-opacity="0.5" stroke="#606060" stroke-width="1.0"/>
           <path id="arrow"
             d="M 11.500037,31.436501 C 11.940474,20.09759 22.043105,11.32322 32.158766,21.979434 L 37.068811,17.246167 C 37.068811,17.246167 37.088388,32 37.088388,32 L 22.160133,31.978069 C 22.160133,31.978069 26.997745,27.140456 26.997745,27.140456 C 18.528582,18.264221 13.291696,25.230495 11.500037,31.436501 z"
             style="fill:#404040;"/>
          </a>
         </g>
        </svg>
</svg>
