<?xml version="1.0" encoding="UTF-8" standalone="no"?>
<!DOCTYPE svg PUBLIC "-//W3C//DTD SVG 1.1//EN"
 "http://www.w3.org/Graphics/SVG/1.1/DTD/svg11.dtd">
<!-- Generated by graphviz version 2.43.0 (0)
 -->
<!-- Title: js_object_valueOf Pages: 1 -->
<svg width="651pt" height="237pt"
 viewBox="0.00 0.00 651.00 237.00" xmlns="http://www.w3.org/2000/svg" xmlns:xlink="http://www.w3.org/1999/xlink">
<g id="graph0" class="graph" transform="scale(1 1) rotate(0) translate(4 233)">
<title>js_object_valueOf</title>
<!-- Node1 -->
<g id="node1" class="node">
<title>Node1</title>
<g id="a_node1"><a xlink:title=" ">
<polygon fill="#bfbfbf" stroke="black" points="0,-95.5 0,-114.5 104,-114.5 104,-95.5 0,-95.5"/>
<text text-anchor="middle" x="52" y="-102.5" font-family="Helvetica,sans-Serif" font-size="10.00">js_object_valueOf</text>
</a>
</g>
</g>
<!-- Node2 -->
<g id="node2" class="node">
<title>Node2</title>
<g id="a_node2"><a xlink:href="quickjs_8c.html#a710289a14c2810467e5b448d3c28bd55" target="_top" xlink:title=" ">
<polygon fill="none" stroke="black" points="140,-95.5 140,-114.5 213,-114.5 213,-95.5 140,-95.5"/>
<text text-anchor="middle" x="176.5" y="-102.5" font-family="Helvetica,sans-Serif" font-size="10.00">JS_ToObject</text>
</a>
</g>
</g>
<!-- Node1&#45;&gt;Node2 -->
<g id="edge1" class="edge">
<title>Node1&#45;&gt;Node2</title>
<path fill="none" stroke="midnightblue" d="M104.24,-105C112.63,-105 121.28,-105 129.53,-105"/>
<polygon fill="midnightblue" stroke="midnightblue" points="129.72,-108.5 139.72,-105 129.72,-101.5 129.72,-108.5"/>
</g>
<!-- Node3 -->
<g id="node3" class="node">
<title>Node3</title>
<g id="a_node3"><a xlink:href="quickjs_8c.html#a0a8765bd4012467d9139bc24aabcb3ca" target="_top" xlink:title=" ">
<polygon fill="none" stroke="black" points="249,-152.5 249,-171.5 380,-171.5 380,-152.5 249,-152.5"/>
<text text-anchor="middle" x="314.5" y="-159.5" font-family="Helvetica,sans-Serif" font-size="10.00">JS_DefinePropertyValue</text>
</a>
</g>
</g>
<!-- Node2&#45;&gt;Node3 -->
<g id="edge2" class="edge">
<title>Node2&#45;&gt;Node3</title>
<path fill="none" stroke="midnightblue" d="M197.05,-114.51C211.32,-121.34 231.2,-130.59 249,-138 257.91,-141.71 267.62,-145.47 276.74,-148.87"/>
<polygon fill="midnightblue" stroke="midnightblue" points="275.74,-152.23 286.33,-152.41 278.16,-145.67 275.74,-152.23"/>
</g>
<!-- Node31 -->
<g id="node5" class="node">
<title>Node31</title>
<g id="a_node5"><a xlink:href="quickjs_8h.html#a775522f2d084fc8fa0fcb33f390006b4" target="_top" xlink:title=" ">
<polygon fill="none" stroke="black" points="561,-209.5 561,-228.5 638,-228.5 638,-209.5 561,-209.5"/>
<text text-anchor="middle" x="599.5" y="-216.5" font-family="Helvetica,sans-Serif" font-size="10.00">JS_DupValue</text>
</a>
</g>
</g>
<!-- Node2&#45;&gt;Node31 -->
<g id="edge9" class="edge">
<title>Node2&#45;&gt;Node31</title>
<path fill="none" stroke="midnightblue" d="M183.33,-114.76C193.99,-131.59 218.35,-165.74 249,-181 347.47,-230.05 480.54,-228.87 550.67,-223.87"/>
<polygon fill="midnightblue" stroke="midnightblue" points="551.26,-227.34 560.96,-223.08 550.72,-220.36 551.26,-227.34"/>
</g>
<!-- Node68 -->
<g id="node7" class="node">
<title>Node68</title>
<g id="a_node7"><a xlink:href="quickjs_8h.html#ad80a83d73e9b7d872b88fbf2943aebe9" target="_top" xlink:title=" ">
<polygon fill="none" stroke="black" points="556,-114.5 556,-133.5 643,-133.5 643,-114.5 556,-114.5"/>
<text text-anchor="middle" x="599.5" y="-121.5" font-family="Helvetica,sans-Serif" font-size="10.00">JS_IsException</text>
</a>
</g>
</g>
<!-- Node2&#45;&gt;Node68 -->
<g id="edge10" class="edge">
<title>Node2&#45;&gt;Node68</title>
<path fill="none" stroke="midnightblue" d="M213.16,-102.23C275.61,-98 408.7,-91.72 520,-105 532.06,-106.44 544.95,-109.08 556.72,-111.94"/>
<polygon fill="midnightblue" stroke="midnightblue" points="556.18,-115.42 566.73,-114.49 557.9,-108.63 556.18,-115.42"/>
</g>
<!-- Node129 -->
<g id="node8" class="node">
<title>Node129</title>
<g id="a_node8"><a xlink:href="quickjs_8h.html#a2050bc428da1c65ac7eb87c3fa3b0392" target="_top" xlink:title=" ">
<polygon fill="none" stroke="black" points="561,-57.5 561,-76.5 638,-76.5 638,-57.5 561,-57.5"/>
<text text-anchor="middle" x="599.5" y="-64.5" font-family="Helvetica,sans-Serif" font-size="10.00">JS_NewInt32</text>
</a>
</g>
</g>
<!-- Node2&#45;&gt;Node129 -->
<g id="edge11" class="edge">
<title>Node2&#45;&gt;Node129</title>
<path fill="none" stroke="midnightblue" d="M213.02,-97.76C224.47,-95.63 237.23,-93.49 249,-92 356.27,-78.45 483.06,-71.67 550.56,-68.78"/>
<polygon fill="midnightblue" stroke="midnightblue" points="551.03,-72.27 560.87,-68.35 550.73,-65.27 551.03,-72.27"/>
</g>
<!-- Node227 -->
<g id="node9" class="node">
<title>Node227</title>
<g id="a_node9"><a xlink:href="quickjs_8c.html#a659dc0db7e440fd6eb012d613627faa3" target="_top" xlink:title=" ">
<polygon fill="none" stroke="red" points="259.5,-0.5 259.5,-19.5 369.5,-19.5 369.5,-0.5 259.5,-0.5"/>
<text text-anchor="middle" x="314.5" y="-7.5" font-family="Helvetica,sans-Serif" font-size="10.00">JS_NewObjectClass</text>
</a>
</g>
</g>
<!-- Node2&#45;&gt;Node227 -->
<g id="edge12" class="edge">
<title>Node2&#45;&gt;Node227</title>
<path fill="none" stroke="midnightblue" d="M184.85,-95.43C196.81,-80.43 221.88,-51.34 249,-34 255.44,-29.88 262.68,-26.33 269.93,-23.31"/>
<polygon fill="midnightblue" stroke="midnightblue" points="271.67,-26.39 279.74,-19.52 269.15,-19.86 271.67,-26.39"/>
</g>
<!-- Node435 -->
<g id="node10" class="node">
<title>Node435</title>
<g id="a_node10"><a xlink:href="quickjs_8c.html#a5cfd8b63940fcb5151b4df41e32dc68c" target="_top" xlink:title=" ">
<polygon fill="none" stroke="black" points="417.5,-114.5 417.5,-133.5 518.5,-133.5 518.5,-114.5 417.5,-114.5"/>
<text text-anchor="middle" x="468" y="-121.5" font-family="Helvetica,sans-Serif" font-size="10.00">JS_SetObjectData</text>
</a>
</g>
</g>
<!-- Node2&#45;&gt;Node435 -->
<g id="edge13" class="edge">
<title>Node2&#45;&gt;Node435</title>
<path fill="none" stroke="midnightblue" d="M213.29,-107.35C261.74,-110.53 348.85,-116.25 407.3,-120.08"/>
<polygon fill="midnightblue" stroke="midnightblue" points="407.29,-123.59 417.5,-120.75 407.75,-116.6 407.29,-123.59"/>
</g>
<!-- Node4 -->
<g id="node4" class="node">
<title>Node4</title>
<g id="a_node4"><a xlink:href="quickjs_8c.html#ab50618f1bf78e444caa6da0e3e2785d7" target="_top" xlink:title=" ">
<polygon fill="none" stroke="red" points="416,-152.5 416,-171.5 520,-171.5 520,-152.5 416,-152.5"/>
<text text-anchor="middle" x="468" y="-159.5" font-family="Helvetica,sans-Serif" font-size="10.00">JS_DefineProperty</text>
</a>
</g>
</g>
<!-- Node3&#45;&gt;Node4 -->
<g id="edge3" class="edge">
<title>Node3&#45;&gt;Node4</title>
<path fill="none" stroke="midnightblue" d="M380.19,-162C388.65,-162 397.3,-162 405.71,-162"/>
<polygon fill="midnightblue" stroke="midnightblue" points="405.8,-165.5 415.8,-162 405.8,-158.5 405.8,-165.5"/>
</g>
<!-- Node32 -->
<g id="node6" class="node">
<title>Node32</title>
<g id="a_node6"><a xlink:href="quickjs_8h.html#afaa20c47565bc704c6c85f3d77254e7d" target="_top" xlink:title=" ">
<polygon fill="none" stroke="red" points="560,-152.5 560,-171.5 639,-171.5 639,-152.5 560,-152.5"/>
<text text-anchor="middle" x="599.5" y="-159.5" font-family="Helvetica,sans-Serif" font-size="10.00">JS_FreeValue</text>
</a>
</g>
</g>
<!-- Node3&#45;&gt;Node32 -->
<g id="edge8" class="edge">
<title>Node3&#45;&gt;Node32</title>
<path fill="none" stroke="midnightblue" d="M356.33,-171.51C374.49,-175.28 396.2,-179.14 416,-181 462.02,-185.31 474.1,-186.48 520,-181 532.06,-179.56 544.95,-176.92 556.72,-174.06"/>
<polygon fill="midnightblue" stroke="midnightblue" points="557.9,-177.37 566.73,-171.51 556.18,-170.58 557.9,-177.37"/>
</g>
<!-- Node4&#45;&gt;Node31 -->
<g id="edge4" class="edge">
<title>Node4&#45;&gt;Node31</title>
<path fill="none" stroke="midnightblue" d="M490.68,-171.54C511.69,-180.79 543.77,-194.91 567.48,-205.35"/>
<polygon fill="midnightblue" stroke="midnightblue" points="566.19,-208.6 576.75,-209.43 569.01,-202.2 566.19,-208.6"/>
</g>
<!-- Node4&#45;&gt;Node32 -->
<g id="edge5" class="edge">
<title>Node4&#45;&gt;Node32</title>
<path fill="none" stroke="midnightblue" d="M520.18,-162C529.84,-162 539.92,-162 549.51,-162"/>
<polygon fill="midnightblue" stroke="midnightblue" points="549.67,-165.5 559.67,-162 549.67,-158.5 549.67,-165.5"/>
</g>
<!-- Node4&#45;&gt;Node68 -->
<g id="edge6" class="edge">
<title>Node4&#45;&gt;Node68</title>
<path fill="none" stroke="midnightblue" d="M501.68,-152.41C518.09,-147.6 538.18,-141.7 555.79,-136.53"/>
<polygon fill="midnightblue" stroke="midnightblue" points="557.22,-139.76 565.83,-133.59 555.25,-133.04 557.22,-139.76"/>
</g>
<!-- Node4&#45;&gt;Node129 -->
<g id="edge7" class="edge">
<title>Node4&#45;&gt;Node129</title>
<path fill="none" stroke="midnightblue" d="M501.37,-152.48C507.81,-149.9 514.33,-146.75 520,-143 539.4,-130.16 539.31,-121.21 556,-105 563.51,-97.71 572.06,-89.95 579.52,-83.37"/>
<polygon fill="midnightblue" stroke="midnightblue" points="581.86,-85.97 587.08,-76.75 577.25,-80.7 581.86,-85.97"/>
</g>
<!-- Node435&#45;&gt;Node32 -->
<g id="edge14" class="edge">
<title>Node435&#45;&gt;Node32</title>
<path fill="none" stroke="midnightblue" d="M501.68,-133.59C518.09,-138.4 538.18,-144.3 555.79,-149.47"/>
<polygon fill="midnightblue" stroke="midnightblue" points="555.25,-152.96 565.83,-152.41 557.22,-146.24 555.25,-152.96"/>
</g>
<!-- Node435&#45;&gt;Node68 -->
<g id="edge15" class="edge">
<title>Node435&#45;&gt;Node68</title>
<path fill="none" stroke="midnightblue" d="M518.7,-124C527.52,-124 536.73,-124 545.63,-124"/>
<polygon fill="midnightblue" stroke="midnightblue" points="545.9,-127.5 555.9,-124 545.9,-120.5 545.9,-127.5"/>
</g>
</g>
</svg>
