<?xml version="1.0" encoding="UTF-8" standalone="no"?>
<!DOCTYPE svg PUBLIC "-//W3C//DTD SVG 1.1//EN"
 "http://www.w3.org/Graphics/SVG/1.1/DTD/svg11.dtd">
<!-- Generated by graphviz version 2.43.0 (0)
 -->
<!-- Title: memcmp16 Pages: 1 -->
<svg width="547pt" height="370pt"
 viewBox="0.00 0.00 547.00 370.00" xmlns="http://www.w3.org/2000/svg" xmlns:xlink="http://www.w3.org/1999/xlink">
<g id="graph0" class="graph" transform="scale(1 1) rotate(0) translate(4 366)">
<title>memcmp16</title>
<!-- Node1 -->
<g id="node1" class="node">
<title>Node1</title>
<g id="a_node1"><a xlink:title=" ">
<polygon fill="#bfbfbf" stroke="black" points="464,-152.5 464,-171.5 539,-171.5 539,-152.5 464,-152.5"/>
<text text-anchor="middle" x="501.5" y="-159.5" font-family="Helvetica,sans-Serif" font-size="10.00">memcmp16</text>
</a>
</g>
</g>
<!-- Node2 -->
<g id="node2" class="node">
<title>Node2</title>
<g id="a_node2"><a xlink:href="quickjs_8c.html#aa3b85ecf2f1fbd87cb38b78548286017" target="_top" xlink:title=" ">
<polygon fill="none" stroke="black" points="318,-152.5 318,-171.5 428,-171.5 428,-152.5 318,-152.5"/>
<text text-anchor="middle" x="373" y="-159.5" font-family="Helvetica,sans-Serif" font-size="10.00">js_string_memcmp</text>
</a>
</g>
</g>
<!-- Node1&#45;&gt;Node2 -->
<g id="edge1" class="edge">
<title>Node1&#45;&gt;Node2</title>
<path fill="none" stroke="midnightblue" d="M453.73,-162C445.48,-162 436.83,-162 428.39,-162"/>
<polygon fill="midnightblue" stroke="midnightblue" points="453.91,-165.5 463.91,-162 453.91,-158.5 453.91,-165.5"/>
</g>
<!-- Node3 -->
<g id="node3" class="node">
<title>Node3</title>
<g id="a_node3"><a xlink:href="quickjs_8c.html#acd08798ec15cc37c60d2e7d70007c6a8" target="_top" xlink:title=" ">
<polygon fill="none" stroke="black" points="184.5,-247.5 184.5,-266.5 273.5,-266.5 273.5,-247.5 184.5,-247.5"/>
<text text-anchor="middle" x="229" y="-254.5" font-family="Helvetica,sans-Serif" font-size="10.00">__JS_NewAtom</text>
</a>
</g>
</g>
<!-- Node2&#45;&gt;Node3 -->
<g id="edge2" class="edge">
<title>Node2&#45;&gt;Node3</title>
<path fill="none" stroke="midnightblue" d="M349.17,-177.27C319.66,-197.02 269.13,-230.82 244.44,-247.34"/>
<polygon fill="midnightblue" stroke="midnightblue" points="351.24,-180.1 357.6,-171.63 347.35,-174.28 351.24,-180.1"/>
</g>
<!-- Node660 -->
<g id="node9" class="node">
<title>Node660</title>
<g id="a_node9"><a xlink:href="quickjs_8c.html#a3d9b165d4274aa43e051caba9bcbbe9f" target="_top" xlink:title=" ">
<polygon fill="none" stroke="black" points="176,-95.5 176,-114.5 282,-114.5 282,-95.5 176,-95.5"/>
<text text-anchor="middle" x="229" y="-102.5" font-family="Helvetica,sans-Serif" font-size="10.00">js_string_compare</text>
</a>
</g>
</g>
<!-- Node2&#45;&gt;Node660 -->
<g id="edge8" class="edge">
<title>Node2&#45;&gt;Node660</title>
<path fill="none" stroke="midnightblue" d="M338.76,-148.66C312.72,-138.2 277.12,-123.91 253.85,-114.57"/>
<polygon fill="midnightblue" stroke="midnightblue" points="337.65,-151.98 348.23,-152.46 340.26,-145.49 337.65,-151.98"/>
</g>
<!-- Node4 -->
<g id="node4" class="node">
<title>Node4</title>
<g id="a_node4"><a xlink:href="quickjs_8c.html#a128673f932e71b867730af75a44e3f97" target="_top" xlink:title=" ">
<polygon fill="none" stroke="red" points="17.5,-342.5 17.5,-361.5 122.5,-361.5 122.5,-342.5 17.5,-342.5"/>
<text text-anchor="middle" x="70" y="-349.5" font-family="Helvetica,sans-Serif" font-size="10.00">__JS_NewAtomInit</text>
</a>
</g>
</g>
<!-- Node3&#45;&gt;Node4 -->
<g id="edge3" class="edge">
<title>Node3&#45;&gt;Node4</title>
<path fill="none" stroke="midnightblue" d="M212.39,-274.4C195.98,-291.67 168.62,-317.72 140,-333 132.88,-336.8 124.92,-339.9 117.02,-342.41"/>
<polygon fill="midnightblue" stroke="midnightblue" points="215.29,-276.42 219.52,-266.71 210.16,-271.66 215.29,-276.42"/>
</g>
<!-- Node23 -->
<g id="node5" class="node">
<title>Node23</title>
<g id="a_node5"><a xlink:href="quickjs_8c.html#aa641af3a921335927dab07dc83285917" target="_top" xlink:title=" ">
<polygon fill="none" stroke="red" points="18,-304.5 18,-323.5 122,-323.5 122,-304.5 18,-304.5"/>
<text text-anchor="middle" x="70" y="-311.5" font-family="Helvetica,sans-Serif" font-size="10.00">JS_NewAtomInt64</text>
</a>
</g>
</g>
<!-- Node3&#45;&gt;Node23 -->
<g id="edge4" class="edge">
<title>Node3&#45;&gt;Node23</title>
<path fill="none" stroke="midnightblue" d="M198.7,-270.87C181.77,-278.57 159.95,-287.98 140,-295 130.15,-298.46 119.34,-301.7 109.25,-304.48"/>
<polygon fill="midnightblue" stroke="midnightblue" points="200.43,-273.93 208.04,-266.56 197.5,-267.57 200.43,-273.93"/>
</g>
<!-- Node56 -->
<g id="node6" class="node">
<title>Node56</title>
<g id="a_node6"><a xlink:href="quickjs_8c.html#a33fd643aff7f70e649d246385cd99b00" target="_top" xlink:title=" ">
<polygon fill="none" stroke="red" points="24,-266.5 24,-285.5 116,-285.5 116,-266.5 24,-266.5"/>
<text text-anchor="middle" x="70" y="-273.5" font-family="Helvetica,sans-Serif" font-size="10.00">JS_NewAtomStr</text>
</a>
</g>
</g>
<!-- Node3&#45;&gt;Node56 -->
<g id="edge5" class="edge">
<title>Node3&#45;&gt;Node56</title>
<path fill="none" stroke="midnightblue" d="M174.3,-263.5C155.37,-265.79 134.29,-268.34 116.14,-270.54"/>
<polygon fill="midnightblue" stroke="midnightblue" points="174.76,-266.97 184.27,-262.29 173.92,-260.02 174.76,-266.97"/>
</g>
<!-- Node656 -->
<g id="node7" class="node">
<title>Node656</title>
<g id="a_node7"><a xlink:href="quickjs_8c.html#a7445082229205ad47aec019d74536f8e" target="_top" xlink:title=" ">
<polygon fill="none" stroke="red" points="14.5,-228.5 14.5,-247.5 125.5,-247.5 125.5,-228.5 14.5,-228.5"/>
<text text-anchor="middle" x="70" y="-235.5" font-family="Helvetica,sans-Serif" font-size="10.00">JS_NewAtomUInt32</text>
</a>
</g>
</g>
<!-- Node3&#45;&gt;Node656 -->
<g id="edge6" class="edge">
<title>Node3&#45;&gt;Node656</title>
<path fill="none" stroke="midnightblue" d="M174.21,-250.49C158.55,-248.6 141.42,-246.52 125.7,-244.62"/>
<polygon fill="midnightblue" stroke="midnightblue" points="173.92,-253.98 184.27,-251.71 174.76,-247.03 173.92,-253.98"/>
</g>
<!-- Node657 -->
<g id="node8" class="node">
<title>Node657</title>
<g id="a_node8"><a xlink:href="quickjs_8c.html#a4709c57b3c941673dcc69e07eb45182c" target="_top" xlink:title=" ">
<polygon fill="none" stroke="red" points="25.5,-190.5 25.5,-209.5 114.5,-209.5 114.5,-190.5 25.5,-190.5"/>
<text text-anchor="middle" x="70" y="-197.5" font-family="Helvetica,sans-Serif" font-size="10.00">JS_NewSymbol</text>
</a>
</g>
</g>
<!-- Node3&#45;&gt;Node657 -->
<g id="edge7" class="edge">
<title>Node3&#45;&gt;Node657</title>
<path fill="none" stroke="midnightblue" d="M198.7,-243.13C181.77,-235.43 159.95,-226.02 140,-219 130.15,-215.54 119.34,-212.3 109.25,-209.52"/>
<polygon fill="midnightblue" stroke="midnightblue" points="197.5,-246.43 208.04,-247.44 200.43,-240.07 197.5,-246.43"/>
</g>
<!-- Node451 -->
<g id="node10" class="node">
<title>Node451</title>
<g id="a_node10"><a xlink:href="quickjs_8c.html#a341f4d5925a607eeaad8d3cbb03e9de1" target="_top" xlink:title=" ">
<polygon fill="none" stroke="red" points="8.5,-152.5 8.5,-171.5 131.5,-171.5 131.5,-152.5 8.5,-152.5"/>
<text text-anchor="middle" x="70" y="-159.5" font-family="Helvetica,sans-Serif" font-size="10.00">js_array_cmp_generic</text>
</a>
</g>
</g>
<!-- Node660&#45;&gt;Node451 -->
<g id="edge9" class="edge">
<title>Node660&#45;&gt;Node451</title>
<path fill="none" stroke="midnightblue" d="M198.7,-118.87C181.77,-126.57 159.95,-135.98 140,-143 130.15,-146.46 119.34,-149.7 109.25,-152.48"/>
<polygon fill="midnightblue" stroke="midnightblue" points="200.43,-121.93 208.04,-114.56 197.5,-115.57 200.43,-121.93"/>
</g>
<!-- Node556 -->
<g id="node11" class="node">
<title>Node556</title>
<g id="a_node11"><a xlink:href="quickjs_8c.html#ab4e100a9cde5f7ec87c92f5e766dbbab" target="_top" xlink:title=" ">
<polygon fill="none" stroke="red" points="0,-114.5 0,-133.5 140,-133.5 140,-114.5 0,-114.5"/>
<text text-anchor="middle" x="70" y="-121.5" font-family="Helvetica,sans-Serif" font-size="10.00">JS_AtomIsNumericIndex1</text>
</a>
</g>
</g>
<!-- Node660&#45;&gt;Node556 -->
<g id="edge10" class="edge">
<title>Node660&#45;&gt;Node556</title>
<path fill="none" stroke="midnightblue" d="M165.64,-112.55C157.24,-113.56 148.59,-114.61 140.09,-115.64"/>
<polygon fill="midnightblue" stroke="midnightblue" points="166.21,-116 175.72,-111.33 165.37,-109.05 166.21,-116"/>
</g>
<!-- Node446 -->
<g id="node12" class="node">
<title>Node446</title>
<g id="a_node12"><a xlink:href="quickjs_8c.html#ad48277f7656d161f492b5f1ff5d8c388" target="_top" xlink:title=" ">
<polygon fill="none" stroke="black" points="18,-76.5 18,-95.5 122,-95.5 122,-76.5 18,-76.5"/>
<text text-anchor="middle" x="70" y="-83.5" font-family="Helvetica,sans-Serif" font-size="10.00">js_relational_slow</text>
</a>
</g>
</g>
<!-- Node660&#45;&gt;Node446 -->
<g id="edge11" class="edge">
<title>Node660&#45;&gt;Node446</title>
<path fill="none" stroke="midnightblue" d="M165.45,-97.43C151.11,-95.7 136.04,-93.87 122.25,-92.2"/>
<polygon fill="midnightblue" stroke="midnightblue" points="165.37,-100.95 175.72,-98.67 166.21,-94 165.37,-100.95"/>
</g>
<!-- Node661 -->
<g id="node13" class="node">
<title>Node661</title>
<g id="a_node13"><a xlink:href="quickjs_8c.html#a6b7e8c810c238daa5ac20c70c2f22b24" target="_top" xlink:title=" ">
<polygon fill="none" stroke="red" points="31,-38.5 31,-57.5 109,-57.5 109,-38.5 31,-38.5"/>
<text text-anchor="middle" x="70" y="-45.5" font-family="Helvetica,sans-Serif" font-size="10.00">js_strict_eq2</text>
</a>
</g>
</g>
<!-- Node660&#45;&gt;Node661 -->
<g id="edge12" class="edge">
<title>Node660&#45;&gt;Node661</title>
<path fill="none" stroke="midnightblue" d="M198.7,-91.13C181.77,-83.43 159.95,-74.02 140,-67 130.15,-63.54 119.34,-60.3 109.25,-57.52"/>
<polygon fill="midnightblue" stroke="midnightblue" points="197.5,-94.43 208.04,-95.44 200.43,-88.07 197.5,-94.43"/>
</g>
<!-- Node575 -->
<g id="node14" class="node">
<title>Node575</title>
<g id="a_node14"><a xlink:href="quickjs_8c.html#a96177f318d170980abe8c9c41cdb52d5" target="_top" xlink:title=" ">
<polygon fill="none" stroke="black" points="1.5,-0.5 1.5,-19.5 138.5,-19.5 138.5,-0.5 1.5,-0.5"/>
<text text-anchor="middle" x="70" y="-7.5" font-family="Helvetica,sans-Serif" font-size="10.00">js_string_localeCompare</text>
</a>
</g>
</g>
<!-- Node660&#45;&gt;Node575 -->
<g id="edge13" class="edge">
<title>Node660&#45;&gt;Node575</title>
<path fill="none" stroke="midnightblue" d="M212.39,-87.6C195.98,-70.33 168.62,-44.28 140,-29 132.88,-25.2 124.92,-22.1 117.02,-19.59"/>
<polygon fill="midnightblue" stroke="midnightblue" points="210.16,-90.34 219.52,-95.29 215.29,-85.58 210.16,-90.34"/>
</g>
</g>
</svg>
