<?xml version="1.0" encoding="UTF-8" standalone="no"?>
<!DOCTYPE svg PUBLIC "-//W3C//DTD SVG 1.1//EN"
 "http://www.w3.org/Graphics/SVG/1.1/DTD/svg11.dtd">
<!-- Generated by graphviz version 2.43.0 (0)
 -->
<!-- Title: js_map_set Pages: 1 -->
<svg width="546pt" height="142pt"
 viewBox="0.00 0.00 546.00 142.00" xmlns="http://www.w3.org/2000/svg" xmlns:xlink="http://www.w3.org/1999/xlink">
<g id="graph0" class="graph" transform="scale(1 1) rotate(0) translate(4 138)">
<title>js_map_set</title>
<!-- Node1 -->
<g id="node1" class="node">
<title>Node1</title>
<g id="a_node1"><a xlink:title=" ">
<polygon fill="#bfbfbf" stroke="black" points="0,-57.5 0,-76.5 72,-76.5 72,-57.5 0,-57.5"/>
<text text-anchor="middle" x="36" y="-64.5" font-family="Helvetica,sans-Serif" font-size="10.00">js_map_set</text>
</a>
</g>
</g>
<!-- Node2 -->
<g id="node2" class="node">
<title>Node2</title>
<g id="a_node2"><a xlink:href="quickjs_8h.html#a775522f2d084fc8fa0fcb33f390006b4" target="_top" xlink:title=" ">
<polygon fill="none" stroke="black" points="153.5,-114.5 153.5,-133.5 230.5,-133.5 230.5,-114.5 153.5,-114.5"/>
<text text-anchor="middle" x="192" y="-121.5" font-family="Helvetica,sans-Serif" font-size="10.00">JS_DupValue</text>
</a>
</g>
</g>
<!-- Node1&#45;&gt;Node2 -->
<g id="edge1" class="edge">
<title>Node1&#45;&gt;Node2</title>
<path fill="none" stroke="midnightblue" d="M51.96,-76.53C65.96,-85.07 87.71,-97.4 108,-105 119.14,-109.17 131.47,-112.59 143.15,-115.33"/>
<polygon fill="midnightblue" stroke="midnightblue" points="142.67,-118.81 153.19,-117.56 144.19,-111.98 142.67,-118.81"/>
</g>
<!-- Node3 -->
<g id="node3" class="node">
<title>Node3</title>
<g id="a_node3"><a xlink:href="quickjs_8h.html#afaa20c47565bc704c6c85f3d77254e7d" target="_top" xlink:title=" ">
<polygon fill="none" stroke="black" points="152.5,-76.5 152.5,-95.5 231.5,-95.5 231.5,-76.5 152.5,-76.5"/>
<text text-anchor="middle" x="192" y="-83.5" font-family="Helvetica,sans-Serif" font-size="10.00">JS_FreeValue</text>
</a>
</g>
</g>
<!-- Node1&#45;&gt;Node3 -->
<g id="edge2" class="edge">
<title>Node1&#45;&gt;Node3</title>
<path fill="none" stroke="midnightblue" d="M72.33,-71.36C93.05,-73.91 119.52,-77.18 142.2,-79.98"/>
<polygon fill="midnightblue" stroke="midnightblue" points="141.97,-83.48 152.32,-81.23 142.83,-76.53 141.97,-83.48"/>
</g>
<!-- Node41 -->
<g id="node6" class="node">
<title>Node41</title>
<g id="a_node6"><a xlink:href="quickjs_8c.html#a726b00d108e0a0f4d958c36c2e426a64" target="_top" xlink:title=" ">
<polygon fill="none" stroke="black" points="108,-38.5 108,-57.5 276,-57.5 276,-38.5 108,-38.5"/>
<text text-anchor="middle" x="192" y="-45.5" font-family="Helvetica,sans-Serif" font-size="10.00">JS_ThrowTypeErrorNotAnObject</text>
</a>
</g>
</g>
<!-- Node1&#45;&gt;Node41 -->
<g id="edge5" class="edge">
<title>Node1&#45;&gt;Node41</title>
<path fill="none" stroke="midnightblue" d="M72.33,-62.64C81.85,-61.47 92.58,-60.14 103.61,-58.78"/>
<polygon fill="midnightblue" stroke="midnightblue" points="104.29,-62.22 113.78,-57.53 103.43,-55.28 104.29,-62.22"/>
</g>
<!-- Node42 -->
<g id="node7" class="node">
<title>Node42</title>
<g id="a_node7"><a xlink:href="quickjs_8c.html#a6e07161e854c5b51edf4112a23c1b3d7" target="_top" xlink:title=" ">
<polygon fill="none" stroke="black" points="134.5,-0.5 134.5,-19.5 249.5,-19.5 249.5,-0.5 134.5,-0.5"/>
<text text-anchor="middle" x="192" y="-7.5" font-family="Helvetica,sans-Serif" font-size="10.00">map_normalize_key</text>
</a>
</g>
</g>
<!-- Node1&#45;&gt;Node42 -->
<g id="edge6" class="edge">
<title>Node1&#45;&gt;Node42</title>
<path fill="none" stroke="midnightblue" d="M51.96,-57.47C65.96,-48.93 87.71,-36.6 108,-29 114.85,-26.43 122.16,-24.15 129.49,-22.14"/>
<polygon fill="midnightblue" stroke="midnightblue" points="130.65,-25.45 139.45,-19.55 128.89,-18.67 130.65,-25.45"/>
</g>
<!-- Node4 -->
<g id="node4" class="node">
<title>Node4</title>
<g id="a_node4"><a xlink:href="quickjs_8c.html#aa059f309c30fd5166d16c82a97973146" target="_top" xlink:title=" ">
<polygon fill="none" stroke="black" points="312,-76.5 312,-95.5 401,-95.5 401,-76.5 312,-76.5"/>
<text text-anchor="middle" x="356.5" y="-83.5" font-family="Helvetica,sans-Serif" font-size="10.00">__JS_FreeValue</text>
</a>
</g>
</g>
<!-- Node3&#45;&gt;Node4 -->
<g id="edge3" class="edge">
<title>Node3&#45;&gt;Node4</title>
<path fill="none" stroke="midnightblue" d="M231.51,-86C252.43,-86 278.63,-86 301.55,-86"/>
<polygon fill="midnightblue" stroke="midnightblue" points="301.82,-89.5 311.82,-86 301.82,-82.5 301.82,-89.5"/>
</g>
<!-- Node5 -->
<g id="node5" class="node">
<title>Node5</title>
<g id="a_node5"><a xlink:href="quickjs_8c.html#ab1ea3fad7d138be12144a38be4d36423" target="_top" xlink:title=" ">
<polygon fill="none" stroke="red" points="437,-76.5 437,-95.5 538,-95.5 538,-76.5 437,-76.5"/>
<text text-anchor="middle" x="487.5" y="-83.5" font-family="Helvetica,sans-Serif" font-size="10.00">__JS_FreeValueRT</text>
</a>
</g>
</g>
<!-- Node4&#45;&gt;Node5 -->
<g id="edge4" class="edge">
<title>Node4&#45;&gt;Node5</title>
<path fill="none" stroke="midnightblue" d="M401.17,-86C409.28,-86 417.88,-86 426.37,-86"/>
<polygon fill="midnightblue" stroke="midnightblue" points="426.65,-89.5 436.65,-86 426.65,-82.5 426.65,-89.5"/>
</g>
<!-- Node43 -->
<g id="node8" class="node">
<title>Node43</title>
<g id="a_node8"><a xlink:href="quickjs_8h.html#a2050bc428da1c65ac7eb87c3fa3b0392" target="_top" xlink:title=" ">
<polygon fill="none" stroke="black" points="318,-0.5 318,-19.5 395,-19.5 395,-0.5 318,-0.5"/>
<text text-anchor="middle" x="356.5" y="-7.5" font-family="Helvetica,sans-Serif" font-size="10.00">JS_NewInt32</text>
</a>
</g>
</g>
<!-- Node42&#45;&gt;Node43 -->
<g id="edge7" class="edge">
<title>Node42&#45;&gt;Node43</title>
<path fill="none" stroke="midnightblue" d="M249.83,-10C268.74,-10 289.6,-10 307.75,-10"/>
<polygon fill="midnightblue" stroke="midnightblue" points="307.8,-13.5 317.8,-10 307.8,-6.5 307.8,-13.5"/>
</g>
</g>
</svg>
