<?xml version="1.0" encoding="UTF-8" standalone="no"?>
<!DOCTYPE svg PUBLIC "-//W3C//DTD SVG 1.1//EN"
 "http://www.w3.org/Graphics/SVG/1.1/DTD/svg11.dtd">
<!-- Generated by graphviz version 2.43.0 (0)
 -->
<!-- Title: __JS_NewAtomInit Pages: 1 -->
<!--zoomable 408 -->
<svg id="main" version="1.1" xmlns="http://www.w3.org/2000/svg" xmlns:xlink="http://www.w3.org/1999/xlink" xml:space="preserve" onload="init(evt)">
<style type="text/css"><![CDATA[
.edge:hover path { stroke: red; }
.edge:hover polygon { stroke: red; fill: red; }
]]></style>
<script type="text/javascript"><![CDATA[
var edges = document.getElementsByTagName('g');
if (edges && edges.length) {
  for (var i=0;i<edges.length;i++) {
    if (edges[i].id.substr(0,4)=='edge') {
      edges[i].setAttribute('class','edge');
    }
  }
}
]]></script>
        <defs>
                <circle id="rim" cx="0" cy="0" r="7"/>
                <circle id="rim2" cx="0" cy="0" r="3.5"/>
                <g id="zoomPlus">
                        <use xlink:href="#rim" fill="#404040">
                                <set attributeName="fill" to="#808080" begin="zoomplus.mouseover" end="zoomplus.mouseout"/>
                        </use>
                        <path d="M-4,0h8M0,-4v8" fill="none" stroke="white" stroke-width="1.5" pointer-events="none"/>
                </g>
                <g id="zoomMin">
                        <use xlink:href="#rim" fill="#404040">
                                <set attributeName="fill" to="#808080" begin="zoomminus.mouseover" end="zoomminus.mouseout"/>
                        </use>
                        <path d="M-4,0h8" fill="none" stroke="white" stroke-width="1.5" pointer-events="none"/>
                </g>
                <g id="dirArrow">
                        <path fill="none" stroke="white" stroke-width="1.5" d="M0,-3.0v7 M-2.5,-0.5L0,-3.0L2.5,-0.5"/>
                </g>
               <g id="resetDef">
                       <use xlink:href="#rim2" fill="#404040">
                               <set attributeName="fill" to="#808080" begin="reset.mouseover" end="reset.mouseout"/>
                       </use>
               </g>
        </defs>

<script type="text/javascript">
var viewWidth = 667;
var viewHeight = 408;
var sectionId = 'dynsection-3';
</script>
<script xlink:href="svgpan.js"/>
<svg id="graph" class="graph">
<g id="viewport">
<title>__JS_NewAtomInit</title>
<!-- Node1 -->
<g id="node1" class="node">
<title>Node1</title>
<g id="a_node1"><a xlink:title=" ">
<polygon fill="#bfbfbf" stroke="black" points="0,-152.5 0,-171.5 105,-171.5 105,-152.5 0,-152.5"/>
<text text-anchor="middle" x="52.5" y="-159.5" font-family="Helvetica,sans-Serif" font-size="10.00">__JS_NewAtomInit</text>
</a>
</g>
</g>
<!-- Node2 -->
<g id="node2" class="node">
<title>Node2</title>
<g id="a_node2"><a xlink:href="quickjs_8c.html#acd08798ec15cc37c60d2e7d70007c6a8" target="_top" xlink:title=" ">
<polygon fill="none" stroke="black" points="146,-171.5 146,-190.5 235,-190.5 235,-171.5 146,-171.5"/>
<text text-anchor="middle" x="190.5" y="-178.5" font-family="Helvetica,sans-Serif" font-size="10.00">__JS_NewAtom</text>
</a>
</g>
</g>
<!-- Node1&#45;&gt;Node2 -->
<g id="edge1" class="edge">
<title>Node1&#45;&gt;Node2</title>
<path fill="none" stroke="midnightblue" d="M105.3,-169.24C115.22,-170.62 125.63,-172.08 135.61,-173.47"/>
<polygon fill="midnightblue" stroke="midnightblue" points="135.43,-176.98 145.82,-174.9 136.4,-170.05 135.43,-176.98"/>
</g>
<!-- Node18 -->
<g id="node18" class="node">
<title>Node18</title>
<g id="a_node18"><a xlink:href="quickjs_8c.html#a5837dfc67b8f09e0579a28c827b39d93" target="_top" xlink:title=" ">
<polygon fill="none" stroke="black" points="141,-133.5 141,-152.5 240,-152.5 240,-133.5 141,-133.5"/>
<text text-anchor="middle" x="190.5" y="-140.5" font-family="Helvetica,sans-Serif" font-size="10.00">js_alloc_string_rt</text>
</a>
</g>
</g>
<!-- Node1&#45;&gt;Node18 -->
<g id="edge21" class="edge">
<title>Node1&#45;&gt;Node18</title>
<path fill="none" stroke="midnightblue" d="M105.3,-154.76C113.72,-153.59 122.49,-152.36 131.05,-151.17"/>
<polygon fill="midnightblue" stroke="midnightblue" points="131.55,-154.63 140.97,-149.78 130.59,-147.7 131.55,-154.63"/>
</g>
<!-- Node3 -->
<g id="node3" class="node">
<title>Node3</title>
<g id="a_node3"><a xlink:href="quickjs_8c.html#a7f6796ee7a195631366f57c713a33f65" target="_top" xlink:title=" ">
<polygon fill="none" stroke="black" points="279,-380.5 279,-399.5 383,-399.5 383,-380.5 279,-380.5"/>
<text text-anchor="middle" x="331" y="-387.5" font-family="Helvetica,sans-Serif" font-size="10.00">__JS_AtomIsConst</text>
</a>
</g>
</g>
<!-- Node2&#45;&gt;Node3 -->
<g id="edge2" class="edge">
<title>Node2&#45;&gt;Node3</title>
<path fill="none" stroke="midnightblue" d="M193.07,-190.87C198.52,-221.95 219.49,-318.85 276,-371 277.72,-372.59 279.58,-374.04 281.54,-375.38"/>
<polygon fill="midnightblue" stroke="midnightblue" points="280.23,-378.66 290.66,-380.5 283.66,-372.55 280.23,-378.66"/>
</g>
<!-- Node4 -->
<g id="node4" class="node">
<title>Node4</title>
<g id="a_node4"><a xlink:href="quickjs_8c.html#ad7824788e3ed6ecfd045f02398647753" target="_top" xlink:title=" ">
<polygon fill="none" stroke="black" points="287,-342.5 287,-361.5 375,-361.5 375,-342.5 287,-342.5"/>
<text text-anchor="middle" x="331" y="-349.5" font-family="Helvetica,sans-Serif" font-size="10.00">atom_get_free</text>
</a>
</g>
</g>
<!-- Node2&#45;&gt;Node4 -->
<g id="edge3" class="edge">
<title>Node2&#45;&gt;Node4</title>
<path fill="none" stroke="midnightblue" d="M194.63,-190.61C203.43,-216.27 230.74,-287.2 276,-328 280.24,-331.82 285.18,-335.11 290.33,-337.93"/>
<polygon fill="midnightblue" stroke="midnightblue" points="289.18,-341.26 299.7,-342.49 292.24,-334.97 289.18,-341.26"/>
</g>
<!-- Node5 -->
<g id="node5" class="node">
<title>Node5</title>
<g id="a_node5"><a xlink:href="quickjs_8c.html#aba70a7ff210dcedf19125863f2b12d4e" target="_top" xlink:title=" ">
<polygon fill="none" stroke="black" points="572,-199.5 572,-218.5 659,-218.5 659,-199.5 572,-199.5"/>
<text text-anchor="middle" x="615.5" y="-206.5" font-family="Helvetica,sans-Serif" font-size="10.00">atom_set_free</text>
</a>
</g>
</g>
<!-- Node2&#45;&gt;Node5 -->
<g id="edge4" class="edge">
<title>Node2&#45;&gt;Node5</title>
<path fill="none" stroke="midnightblue" d="M199.3,-190.52C213.07,-206.68 243.33,-239.43 276,-257 335.05,-288.77 355.49,-286.49 422,-295 472.26,-301.43 489.64,-315.45 536,-295 567.28,-281.2 591.49,-248.11 604.32,-227.23"/>
<polygon fill="midnightblue" stroke="midnightblue" points="607.33,-229 609.4,-218.61 601.3,-225.45 607.33,-229"/>
</g>
<!-- Node6 -->
<g id="node6" class="node">
<title>Node6</title>
<g id="a_node6"><a xlink:href="quickjs_8c.html#a745328cb78cc898a3e105bc7bd7aee38" target="_top" xlink:title=" ">
<polygon fill="none" stroke="black" points="294.5,-228.5 294.5,-247.5 367.5,-247.5 367.5,-228.5 294.5,-228.5"/>
<text text-anchor="middle" x="331" y="-235.5" font-family="Helvetica,sans-Serif" font-size="10.00">hash_string</text>
</a>
</g>
</g>
<!-- Node2&#45;&gt;Node6 -->
<g id="edge5" class="edge">
<title>Node2&#45;&gt;Node6</title>
<path fill="none" stroke="midnightblue" d="M211.44,-190.54C228.44,-198.53 253.6,-210.04 276,-219 281.13,-221.05 286.58,-223.11 291.97,-225.07"/>
<polygon fill="midnightblue" stroke="midnightblue" points="290.93,-228.42 301.53,-228.49 293.29,-221.83 290.93,-228.42"/>
</g>
<!-- Node9 -->
<g id="node9" class="node">
<title>Node9</title>
<g id="a_node9"><a xlink:href="quickjs_8c.html#a69e19dda8a93d613203e0baa06f0ed8d" target="_top" xlink:title=" ">
<polygon fill="none" stroke="black" points="584.5,-142.5 584.5,-161.5 646.5,-161.5 646.5,-142.5 584.5,-142.5"/>
<text text-anchor="middle" x="615.5" y="-149.5" font-family="Helvetica,sans-Serif" font-size="10.00">js_free_rt</text>
</a>
</g>
</g>
<!-- Node2&#45;&gt;Node9 -->
<g id="edge8" class="edge">
<title>Node2&#45;&gt;Node9</title>
<path fill="none" stroke="midnightblue" d="M224.39,-171.42C229.95,-168.91 235.4,-165.8 240,-162 263.1,-142.92 249.76,-119.46 276,-105 377.2,-49.22 424.62,-74.21 536,-105 558.01,-111.09 580.06,-125.16 595.16,-136.33"/>
<polygon fill="midnightblue" stroke="midnightblue" points="593.13,-139.19 603.2,-142.49 597.39,-133.63 593.13,-139.19"/>
</g>
<!-- Node10 -->
<g id="node10" class="node">
<title>Node10</title>
<g id="a_node10"><a xlink:href="quickjs_8c.html#aa506aaf9df272c0e9e541bbf0138b483" target="_top" xlink:title=" ">
<polygon fill="none" stroke="black" points="289.5,-190.5 289.5,-209.5 372.5,-209.5 372.5,-190.5 289.5,-190.5"/>
<text text-anchor="middle" x="331" y="-197.5" font-family="Helvetica,sans-Serif" font-size="10.00">js_free_string</text>
</a>
</g>
</g>
<!-- Node2&#45;&gt;Node10 -->
<g id="edge9" class="edge">
<title>Node2&#45;&gt;Node10</title>
<path fill="none" stroke="midnightblue" d="M235.32,-187.01C249.22,-188.92 264.71,-191.04 279.07,-193.01"/>
<polygon fill="midnightblue" stroke="midnightblue" points="278.9,-196.52 289.29,-194.41 279.86,-189.59 278.9,-196.52"/>
</g>
<!-- Node12 -->
<g id="node12" class="node">
<title>Node12</title>
<g id="a_node12"><a xlink:href="quickjs_8c.html#ab7f82c24ed28f06191bf5a51f78bb710" target="_top" xlink:title=" ">
<polygon fill="none" stroke="black" points="276.5,-114.5 276.5,-133.5 385.5,-133.5 385.5,-114.5 276.5,-114.5"/>
<text text-anchor="middle" x="331" y="-121.5" font-family="Helvetica,sans-Serif" font-size="10.00">js_get_atom_index</text>
</a>
</g>
</g>
<!-- Node2&#45;&gt;Node12 -->
<g id="edge14" class="edge">
<title>Node2&#45;&gt;Node12</title>
<path fill="none" stroke="midnightblue" d="M216.22,-171.46C223.86,-168.47 232.29,-165.14 240,-162 259.44,-154.09 281.11,-144.95 298.31,-137.62"/>
<polygon fill="midnightblue" stroke="midnightblue" points="300.05,-140.68 307.88,-133.53 297.3,-134.24 300.05,-140.68"/>
</g>
<!-- Node13 -->
<g id="node13" class="node">
<title>Node13</title>
<g id="a_node13"><a xlink:href="quickjs_8c.html#ac8b63cf5ecd077231532b9ad543aad23" target="_top" xlink:title=" ">
<polygon fill="none" stroke="black" points="422,-114.5 422,-133.5 536,-133.5 536,-114.5 422,-114.5"/>
<text text-anchor="middle" x="479" y="-121.5" font-family="Helvetica,sans-Serif" font-size="10.00">JS_ResizeAtomHash</text>
</a>
</g>
</g>
<!-- Node2&#45;&gt;Node13 -->
<g id="edge15" class="edge">
<title>Node2&#45;&gt;Node13</title>
<path fill="none" stroke="midnightblue" d="M235.17,-172.61C274.61,-164.99 334.22,-153.4 386,-143 397.74,-140.64 410.32,-138.07 422.28,-135.61"/>
<polygon fill="midnightblue" stroke="midnightblue" points="423.07,-139.02 432.16,-133.57 421.66,-132.16 423.07,-139.02"/>
</g>
<!-- Node14 -->
<g id="node14" class="node">
<title>Node14</title>
<g id="a_node14"><a xlink:href="quickjs_8c.html#aa3b85ecf2f1fbd87cb38b78548286017" target="_top" xlink:title=" ">
<polygon fill="none" stroke="black" points="276,-38.5 276,-57.5 386,-57.5 386,-38.5 276,-38.5"/>
<text text-anchor="middle" x="331" y="-45.5" font-family="Helvetica,sans-Serif" font-size="10.00">js_string_memcmp</text>
</a>
</g>
</g>
<!-- Node2&#45;&gt;Node14 -->
<g id="edge17" class="edge">
<title>Node2&#45;&gt;Node14</title>
<path fill="none" stroke="midnightblue" d="M226.49,-171.36C231.44,-168.9 236.15,-165.82 240,-162 270.57,-131.65 246.12,-103.03 276,-72 279.64,-68.22 283.99,-64.99 288.61,-62.24"/>
<polygon fill="midnightblue" stroke="midnightblue" points="290.44,-65.23 297.72,-57.54 287.23,-59.01 290.44,-65.23"/>
</g>
<!-- Node17 -->
<g id="node17" class="node">
<title>Node17</title>
<g id="a_node17"><a xlink:href="cutils_8h.html#a94f155fcce337a2b9d4719ed8042cbbe" target="_top" xlink:title=" ">
<polygon fill="none" stroke="black" points="303,-0.5 303,-19.5 359,-19.5 359,-0.5 303,-0.5"/>
<text text-anchor="middle" x="331" y="-7.5" font-family="Helvetica,sans-Serif" font-size="10.00">max_int</text>
</a>
</g>
</g>
<!-- Node2&#45;&gt;Node17 -->
<g id="edge20" class="edge">
<title>Node2&#45;&gt;Node17</title>
<path fill="none" stroke="midnightblue" d="M227.38,-171.49C232.09,-169.02 236.5,-165.91 240,-162 280.88,-116.4 234.33,-73.87 276,-29 280.73,-23.91 286.89,-20.18 293.37,-17.46"/>
<polygon fill="midnightblue" stroke="midnightblue" points="294.64,-20.72 302.93,-14.13 292.34,-14.11 294.64,-20.72"/>
</g>
<!-- Node7 -->
<g id="node7" class="node">
<title>Node7</title>
<g id="a_node7"><a xlink:href="quickjs_8c.html#a8f1b36a26bf6d179e43696a67e8e0fff" target="_top" xlink:title=" ">
<polygon fill="none" stroke="black" points="436.5,-228.5 436.5,-247.5 521.5,-247.5 521.5,-228.5 436.5,-228.5"/>
<text text-anchor="middle" x="479" y="-235.5" font-family="Helvetica,sans-Serif" font-size="10.00">hash_string16</text>
</a>
</g>
</g>
<!-- Node6&#45;&gt;Node7 -->
<g id="edge6" class="edge">
<title>Node6&#45;&gt;Node7</title>
<path fill="none" stroke="midnightblue" d="M367.72,-238C385.32,-238 406.88,-238 426.25,-238"/>
<polygon fill="midnightblue" stroke="midnightblue" points="426.44,-241.5 436.44,-238 426.44,-234.5 426.44,-241.5"/>
</g>
<!-- Node8 -->
<g id="node8" class="node">
<title>Node8</title>
<g id="a_node8"><a xlink:href="quickjs_8c.html#a7f3a538c8f7ee373cfe88625181739ad" target="_top" xlink:title=" ">
<polygon fill="none" stroke="black" points="439.5,-266.5 439.5,-285.5 518.5,-285.5 518.5,-266.5 439.5,-266.5"/>
<text text-anchor="middle" x="479" y="-273.5" font-family="Helvetica,sans-Serif" font-size="10.00">hash_string8</text>
</a>
</g>
</g>
<!-- Node6&#45;&gt;Node8 -->
<g id="edge7" class="edge">
<title>Node6&#45;&gt;Node8</title>
<path fill="none" stroke="midnightblue" d="M367.72,-247.3C386.94,-252.3 410.88,-258.53 431.54,-263.91"/>
<polygon fill="midnightblue" stroke="midnightblue" points="430.82,-267.34 441.38,-266.47 432.59,-260.56 430.82,-267.34"/>
</g>
<!-- Node10&#45;&gt;Node9 -->
<g id="edge10" class="edge">
<title>Node10&#45;&gt;Node9</title>
<path fill="none" stroke="midnightblue" d="M372.67,-190.89C388.08,-187.57 405.81,-183.93 422,-181 474.51,-171.51 535.48,-162.69 574.49,-157.33"/>
<polygon fill="midnightblue" stroke="midnightblue" points="574.97,-160.8 584.4,-155.98 574.02,-153.86 574.97,-160.8"/>
</g>
<!-- Node11 -->
<g id="node11" class="node">
<title>Node11</title>
<g id="a_node11"><a xlink:href="quickjs_8c.html#a58c8965dad50b15b75918a09f3d9dc7c" target="_top" xlink:title=" ">
<polygon fill="none" stroke="black" points="425.5,-190.5 425.5,-209.5 532.5,-209.5 532.5,-190.5 425.5,-190.5"/>
<text text-anchor="middle" x="479" y="-197.5" font-family="Helvetica,sans-Serif" font-size="10.00">JS_FreeAtomStruct</text>
</a>
</g>
</g>
<!-- Node10&#45;&gt;Node11 -->
<g id="edge11" class="edge">
<title>Node10&#45;&gt;Node11</title>
<path fill="none" stroke="midnightblue" d="M372.67,-200C385.77,-200 400.62,-200 414.94,-200"/>
<polygon fill="midnightblue" stroke="midnightblue" points="415.25,-203.5 425.25,-200 415.25,-196.5 415.25,-203.5"/>
</g>
<!-- Node11&#45;&gt;Node5 -->
<g id="edge12" class="edge">
<title>Node11&#45;&gt;Node5</title>
<path fill="none" stroke="midnightblue" d="M532.77,-203.53C542.28,-204.17 552.2,-204.83 561.71,-205.47"/>
<polygon fill="midnightblue" stroke="midnightblue" points="561.63,-208.97 571.84,-206.15 562.1,-201.99 561.63,-208.97"/>
</g>
<!-- Node11&#45;&gt;Node9 -->
<g id="edge13" class="edge">
<title>Node11&#45;&gt;Node9</title>
<path fill="none" stroke="midnightblue" d="M506.89,-190.4C527.33,-183.11 555.65,-173 578.11,-164.99"/>
<polygon fill="midnightblue" stroke="midnightblue" points="579.41,-168.24 587.65,-161.58 577.06,-161.65 579.41,-168.24"/>
</g>
<!-- Node13&#45;&gt;Node9 -->
<g id="edge16" class="edge">
<title>Node13&#45;&gt;Node9</title>
<path fill="none" stroke="midnightblue" d="M525.91,-133.56C541.62,-136.83 559.05,-140.46 574.28,-143.63"/>
<polygon fill="midnightblue" stroke="midnightblue" points="573.91,-147.12 584.41,-145.74 575.33,-140.27 573.91,-147.12"/>
</g>
<!-- Node15 -->
<g id="node15" class="node">
<title>Node15</title>
<g id="a_node15"><a xlink:href="quickjs_8c.html#a98e9fec451d6851cae6d0d92ea860a26" target="_top" xlink:title=" ">
<polygon fill="none" stroke="black" points="441.5,-0.5 441.5,-19.5 516.5,-19.5 516.5,-0.5 441.5,-0.5"/>
<text text-anchor="middle" x="479" y="-7.5" font-family="Helvetica,sans-Serif" font-size="10.00">memcmp16</text>
</a>
</g>
</g>
<!-- Node14&#45;&gt;Node15 -->
<g id="edge18" class="edge">
<title>Node14&#45;&gt;Node15</title>
<path fill="none" stroke="midnightblue" d="M368.84,-38.41C387.85,-33.46 411.23,-27.38 431.47,-22.11"/>
<polygon fill="midnightblue" stroke="midnightblue" points="432.63,-25.43 441.42,-19.52 430.86,-18.65 432.63,-25.43"/>
</g>
<!-- Node16 -->
<g id="node16" class="node">
<title>Node16</title>
<g id="a_node16"><a xlink:href="quickjs_8c.html#add253cbbb280615066466e7fb8bef776" target="_top" xlink:title=" ">
<polygon fill="none" stroke="black" points="436,-38.5 436,-57.5 522,-57.5 522,-38.5 436,-38.5"/>
<text text-anchor="middle" x="479" y="-45.5" font-family="Helvetica,sans-Serif" font-size="10.00">memcmp16_8</text>
</a>
</g>
</g>
<!-- Node14&#45;&gt;Node16 -->
<g id="edge19" class="edge">
<title>Node14&#45;&gt;Node16</title>
<path fill="none" stroke="midnightblue" d="M386.37,-48C399.29,-48 413.04,-48 425.86,-48"/>
<polygon fill="midnightblue" stroke="midnightblue" points="425.91,-51.5 435.91,-48 425.91,-44.5 425.91,-51.5"/>
</g>
</g>
</svg>
        <g id="navigator" transform="translate(0 0)" fill="#404254">
                <rect fill="#f2f5e9" fill-opacity="0.5" stroke="#606060" stroke-width=".5" x="0" y="0" width="60" height="60"/>
                <use id="zoomplus" xlink:href="#zoomPlus" x="17" y="9" onmousedown="handleZoom(evt,'in')"/>
                <use id="zoomminus" xlink:href="#zoomMin" x="42" y="9" onmousedown="handleZoom(evt,'out')"/>
                <use id="reset" xlink:href="#resetDef" x="30" y="36" onmousedown="handleReset()"/>
                <g id="arrowUp" xlink:href="#dirArrow" transform="translate(30 24)" onmousedown="handlePan(0,-1)">
                  <use xlink:href="#rim" fill="#404040">
                        <set attributeName="fill" to="#808080" begin="arrowUp.mouseover" end="arrowUp.mouseout"/>
                  </use>
                  <path fill="none" stroke="white" stroke-width="1.5" d="M0,-3.0v7 M-2.5,-0.5L0,-3.0L2.5,-0.5"/>
                </g>
                <g id="arrowRight" xlink:href="#dirArrow" transform="rotate(90) translate(36 -43)" onmousedown="handlePan(1,0)">
                  <use xlink:href="#rim" fill="#404040">
                        <set attributeName="fill" to="#808080" begin="arrowRight.mouseover" end="arrowRight.mouseout"/>
                  </use>
                  <path fill="none" stroke="white" stroke-width="1.5" d="M0,-3.0v7 M-2.5,-0.5L0,-3.0L2.5,-0.5"/>
                </g>
                <g id="arrowDown" xlink:href="#dirArrow" transform="rotate(180) translate(-30 -48)" onmousedown="handlePan(0,1)">
                  <use xlink:href="#rim" fill="#404040">
                        <set attributeName="fill" to="#808080" begin="arrowDown.mouseover" end="arrowDown.mouseout"/>
                  </use>
                  <path fill="none" stroke="white" stroke-width="1.5" d="M0,-3.0v7 M-2.5,-0.5L0,-3.0L2.5,-0.5"/>
                </g>
                <g id="arrowLeft" xlink:href="#dirArrow" transform="rotate(270) translate(-36 17)" onmousedown="handlePan(-1,0)">
                  <use xlink:href="#rim" fill="#404040">
                        <set attributeName="fill" to="#808080" begin="arrowLeft.mouseover" end="arrowLeft.mouseout"/>
                  </use>
                  <path fill="none" stroke="white" stroke-width="1.5" d="M0,-3.0v7 M-2.5,-0.5L0,-3.0L2.5,-0.5"/>
                </g>
        </g>
        <svg viewBox="0 0 15 15" width="100%" height="30px" preserveAspectRatio="xMaxYMin meet">
         <g id="arrow_out" transform="scale(0.3 0.3)">
          <a xlink:href="quickjs_8c_a128673f932e71b867730af75a44e3f97_cgraph_org.svg" target="_base">
           <rect id="button" ry="5" rx="5" y="6" x="6" height="38" width="38"
                fill="#f2f5e9" fill-opacity="0.5" stroke="#606060" stroke-width="1.0"/>
           <path id="arrow"
             d="M 11.500037,31.436501 C 11.940474,20.09759 22.043105,11.32322 32.158766,21.979434 L 37.068811,17.246167 C 37.068811,17.246167 37.088388,32 37.088388,32 L 22.160133,31.978069 C 22.160133,31.978069 26.997745,27.140456 26.997745,27.140456 C 18.528582,18.264221 13.291696,25.230495 11.500037,31.436501 z"
             style="fill:#404040;"/>
          </a>
         </g>
        </svg>
</svg>
