<?xml version="1.0" encoding="UTF-8" standalone="no"?>
<!DOCTYPE svg PUBLIC "-//W3C//DTD SVG 1.1//EN"
 "http://www.w3.org/Graphics/SVG/1.1/DTD/svg11.dtd">
<!-- Generated by graphviz version 2.43.0 (0)
 -->
<!-- Title: js_parse_block Pages: 1 -->
<svg width="592pt" height="113pt"
 viewBox="0.00 0.00 592.00 113.00" xmlns="http://www.w3.org/2000/svg" xmlns:xlink="http://www.w3.org/1999/xlink">
<g id="graph0" class="graph" transform="scale(1 1) rotate(0) translate(4 109)">
<title>js_parse_block</title>
<!-- Node1 -->
<g id="node1" class="node">
<title>Node1</title>
<g id="a_node1"><a xlink:title=" ">
<polygon fill="#bfbfbf" stroke="black" points="495,-28.5 495,-47.5 584,-47.5 584,-28.5 495,-28.5"/>
<text text-anchor="middle" x="539.5" y="-35.5" font-family="Helvetica,sans-Serif" font-size="10.00">js_parse_block</text>
</a>
</g>
</g>
<!-- Node2 -->
<g id="node2" class="node">
<title>Node2</title>
<g id="a_node2"><a xlink:href="quickjs_8c.html#a9d844c16dcc71701436848074337d32c" target="_top" xlink:title=" ">
<polygon fill="none" stroke="black" points="346,-23 346,-53 459,-53 459,-23 346,-23"/>
<text text-anchor="start" x="354" y="-41" font-family="Helvetica,sans-Serif" font-size="10.00">js_parse_statement</text>
<text text-anchor="middle" x="402.5" y="-30" font-family="Helvetica,sans-Serif" font-size="10.00">_or_decl</text>
</a>
</g>
</g>
<!-- Node1&#45;&gt;Node2 -->
<g id="edge1" class="edge">
<title>Node1&#45;&gt;Node2</title>
<path fill="none" stroke="midnightblue" d="M484.43,-31.37C476.2,-31.22 467.69,-31.21 459.43,-31.34"/>
<polygon fill="midnightblue" stroke="midnightblue" points="484.58,-34.88 494.67,-31.63 484.76,-27.88 484.58,-34.88"/>
</g>
<!-- Node2&#45;&gt;Node1 -->
<g id="edge2" class="edge">
<title>Node2&#45;&gt;Node1</title>
<path fill="none" stroke="midnightblue" d="M469.43,-44.75C477.99,-44.77 486.59,-44.64 494.67,-44.37"/>
<polygon fill="midnightblue" stroke="midnightblue" points="469.46,-41.25 459.43,-44.66 469.39,-48.25 469.46,-41.25"/>
</g>
<!-- Node2&#45;&gt;Node2 -->
<g id="edge10" class="edge">
<title>Node2&#45;&gt;Node2</title>
<path fill="none" stroke="midnightblue" d="M426.67,-63.46C423.67,-68.18 415.61,-71.5 402.5,-71.5 380.98,-71.5 373.08,-62.56 378.8,-53.16"/>
<polygon fill="midnightblue" stroke="midnightblue" points="430.15,-62.99 426.2,-53.16 423.16,-63.31 430.15,-62.99"/>
</g>
<!-- Node3 -->
<g id="node3" class="node">
<title>Node3</title>
<g id="a_node3"><a xlink:href="quickjs_8c.html#ab59a3267a100decc9d2d81eb3297794a" target="_top" xlink:title=" ">
<polygon fill="none" stroke="black" points="170,-66.5 170,-85.5 310,-85.5 310,-66.5 170,-66.5"/>
<text text-anchor="middle" x="240" y="-73.5" font-family="Helvetica,sans-Serif" font-size="10.00">js_parse_source_element</text>
</a>
</g>
</g>
<!-- Node2&#45;&gt;Node3 -->
<g id="edge3" class="edge">
<title>Node2&#45;&gt;Node3</title>
<path fill="none" stroke="midnightblue" d="M335.98,-53.51C317.5,-57.89 297.94,-62.52 281.41,-66.43"/>
<polygon fill="midnightblue" stroke="midnightblue" points="336.89,-56.89 345.82,-51.18 335.28,-50.08 336.89,-56.89"/>
</g>
<!-- Node36 -->
<g id="node6" class="node">
<title>Node36</title>
<g id="a_node6"><a xlink:href="quickjs_8c.html#a729d43e44d20f1ed655cd9f4843995d3" target="_top" xlink:title=" ">
<polygon fill="none" stroke="black" points="183.5,-28.5 183.5,-47.5 296.5,-47.5 296.5,-28.5 183.5,-28.5"/>
<text text-anchor="middle" x="240" y="-35.5" font-family="Helvetica,sans-Serif" font-size="10.00">js_parse_statement</text>
</a>
</g>
</g>
<!-- Node2&#45;&gt;Node36 -->
<g id="edge6" class="edge">
<title>Node2&#45;&gt;Node36</title>
<path fill="none" stroke="midnightblue" d="M335.57,-31.35C322.62,-31.17 309.16,-31.24 296.59,-31.54"/>
<polygon fill="midnightblue" stroke="midnightblue" points="335.75,-34.85 345.82,-31.54 335.88,-27.85 335.75,-34.85"/>
</g>
<!-- Node4 -->
<g id="node4" class="node">
<title>Node4</title>
<g id="a_node4"><a xlink:href="quickjs_8c.html#acc9eb677cab8dfcf45f59381f8a19601" target="_top" xlink:title=" ">
<polygon fill="none" stroke="red" points="0,-85.5 0,-104.5 134,-104.5 134,-85.5 0,-85.5"/>
<text text-anchor="middle" x="67" y="-92.5" font-family="Helvetica,sans-Serif" font-size="10.00">js_parse_function_decl2</text>
</a>
</g>
</g>
<!-- Node3&#45;&gt;Node4 -->
<g id="edge4" class="edge">
<title>Node3&#45;&gt;Node4</title>
<path fill="none" stroke="midnightblue" d="M159.93,-84.79C151.34,-85.74 142.67,-86.7 134.27,-87.64"/>
<polygon fill="midnightblue" stroke="midnightblue" points="160.39,-88.26 169.94,-83.67 159.62,-81.3 160.39,-88.26"/>
</g>
<!-- Node29 -->
<g id="node5" class="node">
<title>Node29</title>
<g id="a_node5"><a xlink:href="quickjs_8c.html#aec05caae64451720670d1a56040110b3" target="_top" xlink:title=" ">
<polygon fill="none" stroke="red" points="15,-47.5 15,-66.5 119,-66.5 119,-47.5 15,-47.5"/>
<text text-anchor="middle" x="67" y="-54.5" font-family="Helvetica,sans-Serif" font-size="10.00">js_parse_program</text>
</a>
</g>
</g>
<!-- Node3&#45;&gt;Node29 -->
<g id="edge5" class="edge">
<title>Node3&#45;&gt;Node29</title>
<path fill="none" stroke="midnightblue" d="M159.92,-67.21C146.07,-65.67 132,-64.11 119.17,-62.69"/>
<polygon fill="midnightblue" stroke="midnightblue" points="159.62,-70.7 169.94,-68.33 160.39,-63.74 159.62,-70.7"/>
</g>
<!-- Node36&#45;&gt;Node2 -->
<g id="edge9" class="edge">
<title>Node36&#45;&gt;Node2</title>
<path fill="none" stroke="midnightblue" d="M306.83,-44.65C319.78,-44.83 333.24,-44.77 345.82,-44.46"/>
<polygon fill="midnightblue" stroke="midnightblue" points="306.65,-41.15 296.59,-44.46 306.52,-48.15 306.65,-41.15"/>
</g>
<!-- Node10 -->
<g id="node7" class="node">
<title>Node10</title>
<g id="a_node7"><a xlink:href="quickjs_8c.html#ac188b916dd086803591a67de7e7a85f6" target="_top" xlink:title=" ">
<polygon fill="none" stroke="black" points="14.5,-0.5 14.5,-19.5 119.5,-19.5 119.5,-0.5 14.5,-0.5"/>
<text text-anchor="middle" x="67" y="-7.5" font-family="Helvetica,sans-Serif" font-size="10.00">js_parse_for_in_of</text>
</a>
</g>
</g>
<!-- Node36&#45;&gt;Node10 -->
<g id="edge7" class="edge">
<title>Node36&#45;&gt;Node10</title>
<path fill="none" stroke="midnightblue" d="M173.21,-27.23C155.5,-24.33 136.59,-21.23 119.76,-18.48"/>
<polygon fill="midnightblue" stroke="midnightblue" points="173.05,-30.75 183.48,-28.91 174.18,-23.84 173.05,-30.75"/>
</g>
<!-- Node10&#45;&gt;Node2 -->
<g id="edge8" class="edge">
<title>Node10&#45;&gt;Node2</title>
<path fill="none" stroke="midnightblue" d="M129.79,-9.45C178.82,-9.7 249.02,-11.59 310,-19 321.6,-20.41 333.91,-22.53 345.61,-24.85"/>
<polygon fill="midnightblue" stroke="midnightblue" points="129.66,-5.95 119.65,-9.42 129.64,-12.95 129.66,-5.95"/>
</g>
</g>
</svg>
