<?xml version="1.0" encoding="UTF-8" standalone="no"?>
<!DOCTYPE svg PUBLIC "-//W3C//DTD SVG 1.1//EN"
 "http://www.w3.org/Graphics/SVG/1.1/DTD/svg11.dtd">
<!-- Generated by graphviz version 2.43.0 (0)
 -->
<!-- Title: js_dynamic_import Pages: 1 -->
<!--zoomable 802 -->
<svg id="main" version="1.1" xmlns="http://www.w3.org/2000/svg" xmlns:xlink="http://www.w3.org/1999/xlink" xml:space="preserve" onload="init(evt)">
<style type="text/css"><![CDATA[
.edge:hover path { stroke: red; }
.edge:hover polygon { stroke: red; fill: red; }
]]></style>
<script type="text/javascript"><![CDATA[
var edges = document.getElementsByTagName('g');
if (edges && edges.length) {
  for (var i=0;i<edges.length;i++) {
    if (edges[i].id.substr(0,4)=='edge') {
      edges[i].setAttribute('class','edge');
    }
  }
}
]]></script>
        <defs>
                <circle id="rim" cx="0" cy="0" r="7"/>
                <circle id="rim2" cx="0" cy="0" r="3.5"/>
                <g id="zoomPlus">
                        <use xlink:href="#rim" fill="#404040">
                                <set attributeName="fill" to="#808080" begin="zoomplus.mouseover" end="zoomplus.mouseout"/>
                        </use>
                        <path d="M-4,0h8M0,-4v8" fill="none" stroke="white" stroke-width="1.5" pointer-events="none"/>
                </g>
                <g id="zoomMin">
                        <use xlink:href="#rim" fill="#404040">
                                <set attributeName="fill" to="#808080" begin="zoomminus.mouseover" end="zoomminus.mouseout"/>
                        </use>
                        <path d="M-4,0h8" fill="none" stroke="white" stroke-width="1.5" pointer-events="none"/>
                </g>
                <g id="dirArrow">
                        <path fill="none" stroke="white" stroke-width="1.5" d="M0,-3.0v7 M-2.5,-0.5L0,-3.0L2.5,-0.5"/>
                </g>
               <g id="resetDef">
                       <use xlink:href="#rim2" fill="#404040">
                               <set attributeName="fill" to="#808080" begin="reset.mouseover" end="reset.mouseout"/>
                       </use>
               </g>
        </defs>

<script type="text/javascript">
var viewWidth = 1062;
var viewHeight = 802;
var sectionId = 'dynsection-78';
</script>
<script xlink:href="svgpan.js"/>
<svg id="graph" class="graph">
<g id="viewport">
<title>js_dynamic_import</title>
<!-- Node1 -->
<g id="node1" class="node">
<title>Node1</title>
<g id="a_node1"><a xlink:title=" ">
<polygon fill="#bfbfbf" stroke="black" points="0,-315.5 0,-334.5 110,-334.5 110,-315.5 0,-315.5"/>
<text text-anchor="middle" x="55" y="-322.5" font-family="Helvetica,sans-Serif" font-size="10.00">js_dynamic_import</text>
</a>
</g>
</g>
<!-- Node2 -->
<g id="node2" class="node">
<title>Node2</title>
<g id="a_node2"><a xlink:href="quickjs_8c.html#afa67965c1017685fc6783776d6d0d4d7" target="_top" xlink:title=" ">
<polygon fill="none" stroke="black" points="659,-618.5 659,-637.5 754,-637.5 754,-618.5 659,-618.5"/>
<text text-anchor="middle" x="706.5" y="-625.5" font-family="Helvetica,sans-Serif" font-size="10.00">JS_AtomToValue</text>
</a>
</g>
</g>
<!-- Node1&#45;&gt;Node2 -->
<g id="edge1" class="edge">
<title>Node1&#45;&gt;Node2</title>
<path fill="none" stroke="midnightblue" d="M56.49,-334.64C58.9,-372.43 72.63,-512.26 146,-590 297.06,-750.06 437.02,-840.69 623,-723 654.58,-703.01 631.86,-672.7 659,-647 660.65,-645.44 662.44,-644 664.33,-642.68"/>
<polygon fill="midnightblue" stroke="midnightblue" points="666.23,-645.62 673.1,-637.56 662.7,-639.57 666.23,-645.62"/>
</g>
<!-- Node31 -->
<g id="node8" class="node">
<title>Node31</title>
<g id="a_node8"><a xlink:href="quickjs_8c.html#a6357b7fdae71c70c140e78e6c20cb5c2" target="_top" xlink:title=" ">
<polygon fill="none" stroke="black" points="157,-410.5 157,-429.5 287,-429.5 287,-410.5 157,-410.5"/>
<text text-anchor="middle" x="222" y="-417.5" font-family="Helvetica,sans-Serif" font-size="10.00">js_dynamic_import_job</text>
</a>
</g>
</g>
<!-- Node1&#45;&gt;Node31 -->
<g id="edge7" class="edge">
<title>Node1&#45;&gt;Node31</title>
<path fill="none" stroke="midnightblue" d="M72.73,-334.63C101.64,-351.28 161.11,-385.52 195.3,-405.2"/>
<polygon fill="midnightblue" stroke="midnightblue" points="193.81,-408.39 204.23,-410.34 197.31,-402.32 193.81,-408.39"/>
</g>
<!-- Node79 -->
<g id="node11" class="node">
<title>Node79</title>
<g id="a_node11"><a xlink:href="quickjs_8c.html#ab7fc45a99935a1c0ba50b0216d9401a9" target="_top" xlink:title=" ">
<polygon fill="none" stroke="red" points="667.5,-158.5 667.5,-177.5 745.5,-177.5 745.5,-158.5 667.5,-158.5"/>
<text text-anchor="middle" x="706.5" y="-165.5" font-family="Helvetica,sans-Serif" font-size="10.00">JS_FreeAtom</text>
</a>
</g>
</g>
<!-- Node1&#45;&gt;Node79 -->
<g id="edge46" class="edge">
<title>Node1&#45;&gt;Node79</title>
<path fill="none" stroke="midnightblue" d="M58.24,-315.11C65.44,-285.73 90.76,-198.27 146,-154 213.56,-99.86 248.31,-115.35 334,-103 461.14,-84.67 502.1,-56.6 623,-100 650.82,-109.99 675.95,-133.86 690.97,-150.48"/>
<polygon fill="midnightblue" stroke="midnightblue" points="688.66,-153.16 697.87,-158.4 693.94,-148.56 688.66,-153.16"/>
</g>
<!-- Node80 -->
<g id="node12" class="node">
<title>Node80</title>
<g id="a_node12"><a xlink:href="quickjs_8h.html#afaa20c47565bc704c6c85f3d77254e7d" target="_top" xlink:title=" ">
<polygon fill="none" stroke="red" points="667,-656.5 667,-675.5 746,-675.5 746,-656.5 667,-656.5"/>
<text text-anchor="middle" x="706.5" y="-663.5" font-family="Helvetica,sans-Serif" font-size="10.00">JS_FreeValue</text>
</a>
</g>
</g>
<!-- Node1&#45;&gt;Node80 -->
<g id="edge47" class="edge">
<title>Node1&#45;&gt;Node80</title>
<path fill="none" stroke="midnightblue" d="M55.9,-334.66C55.93,-378.29 61.36,-559.65 146,-669 204.58,-744.68 241.38,-749.89 334,-774 458.97,-806.53 507.24,-801.22 623,-744 651.85,-729.74 677.46,-701.94 692.23,-683.67"/>
<polygon fill="midnightblue" stroke="midnightblue" points="695.16,-685.6 698.57,-675.57 689.65,-681.29 695.16,-685.6"/>
</g>
<!-- Node97 -->
<g id="node13" class="node">
<title>Node97</title>
<g id="a_node13"><a xlink:href="quickjs_8h.html#ad80a83d73e9b7d872b88fbf2943aebe9" target="_top" xlink:title=" ">
<polygon fill="none" stroke="black" points="663,-410.5 663,-429.5 750,-429.5 750,-410.5 663,-410.5"/>
<text text-anchor="middle" x="706.5" y="-417.5" font-family="Helvetica,sans-Serif" font-size="10.00">JS_IsException</text>
</a>
</g>
</g>
<!-- Node1&#45;&gt;Node97 -->
<g id="edge49" class="edge">
<title>Node1&#45;&gt;Node97</title>
<path fill="none" stroke="midnightblue" d="M66.46,-315.39C126.61,-261.27 432.4,-2.04 623,-144 665.3,-175.51 693.9,-342.48 702.66,-400.28"/>
<polygon fill="midnightblue" stroke="midnightblue" points="699.22,-400.94 704.15,-410.32 706.15,-399.91 699.22,-400.94"/>
</g>
<!-- Node425 -->
<g id="node26" class="node">
<title>Node425</title>
<g id="a_node26"><a xlink:href="quickjs_8c.html#a39d815a00b3ec1aed21699396fb43869" target="_top" xlink:title=" ">
<polygon fill="none" stroke="black" points="178,-38.5 178,-57.5 266,-57.5 266,-38.5 178,-38.5"/>
<text text-anchor="middle" x="222" y="-45.5" font-family="Helvetica,sans-Serif" font-size="10.00">JS_EnqueueJob</text>
</a>
</g>
</g>
<!-- Node1&#45;&gt;Node425 -->
<g id="edge43" class="edge">
<title>Node1&#45;&gt;Node425</title>
<path fill="none" stroke="midnightblue" d="M56.48,-315.38C58.87,-278.3 72.49,-143.19 146,-72 152.21,-65.98 159.93,-61.48 168.04,-58.1"/>
<polygon fill="midnightblue" stroke="midnightblue" points="169.44,-61.31 177.66,-54.63 167.07,-54.73 169.44,-61.31"/>
</g>
<!-- Node363 -->
<g id="node28" class="node">
<title>Node363</title>
<g id="a_node28"><a xlink:href="quickjs_8c.html#a3d9d43172bb33e53a4843dd3a770e889" target="_top" xlink:title=" ">
<polygon fill="none" stroke="red" points="146,-0.5 146,-19.5 298,-19.5 298,-0.5 146,-0.5"/>
<text text-anchor="middle" x="222" y="-7.5" font-family="Helvetica,sans-Serif" font-size="10.00">JS_GetScriptOrModuleName</text>
</a>
</g>
</g>
<!-- Node1&#45;&gt;Node363 -->
<g id="edge48" class="edge">
<title>Node1&#45;&gt;Node363</title>
<path fill="none" stroke="midnightblue" d="M55.78,-315.36C55.38,-274.19 59.53,-111.49 146,-29 147.49,-27.57 149.08,-26.25 150.74,-25.02"/>
<polygon fill="midnightblue" stroke="midnightblue" points="152.86,-27.83 159.59,-19.65 149.22,-21.85 152.86,-27.83"/>
</g>
<!-- Node426 -->
<g id="node29" class="node">
<title>Node426</title>
<g id="a_node29"><a xlink:href="quickjs_8c.html#a2287eaf81466a0d408341cdae08ed673" target="_top" xlink:title=" ">
<polygon fill="none" stroke="black" points="151,-561.5 151,-580.5 293,-580.5 293,-561.5 151,-561.5"/>
<text text-anchor="middle" x="222" y="-568.5" font-family="Helvetica,sans-Serif" font-size="10.00">JS_NewPromiseCapability</text>
</a>
</g>
</g>
<!-- Node1&#45;&gt;Node426 -->
<g id="edge50" class="edge">
<title>Node1&#45;&gt;Node426</title>
<path fill="none" stroke="midnightblue" d="M62.47,-334.64C87.21,-371.54 176.12,-504.09 208.82,-552.84"/>
<polygon fill="midnightblue" stroke="midnightblue" points="206.1,-555.07 214.58,-561.42 211.91,-551.17 206.1,-555.07"/>
</g>
<!-- Node3 -->
<g id="node3" class="node">
<title>Node3</title>
<g id="a_node3"><a xlink:href="quickjs_8c.html#a06ff303a11e6641cbf1f6634e6a61811" target="_top" xlink:title=" ">
<polygon fill="none" stroke="black" points="790,-618.5 790,-637.5 895,-637.5 895,-618.5 790,-618.5"/>
<text text-anchor="middle" x="842.5" y="-625.5" font-family="Helvetica,sans-Serif" font-size="10.00">__JS_AtomToValue</text>
</a>
</g>
</g>
<!-- Node2&#45;&gt;Node3 -->
<g id="edge2" class="edge">
<title>Node2&#45;&gt;Node3</title>
<path fill="none" stroke="midnightblue" d="M754.37,-628C762.52,-628 771.12,-628 779.6,-628"/>
<polygon fill="midnightblue" stroke="midnightblue" points="779.86,-631.5 789.86,-628 779.86,-624.5 779.86,-631.5"/>
</g>
<!-- Node4 -->
<g id="node4" class="node">
<title>Node4</title>
<g id="a_node4"><a xlink:href="quickjs_8c.html#a288254c06a39c9fca740a7abdad2834e" target="_top" xlink:title=" ">
<polygon fill="none" stroke="black" points="931,-618.5 931,-637.5 1054,-637.5 1054,-618.5 931,-618.5"/>
<text text-anchor="middle" x="992.5" y="-625.5" font-family="Helvetica,sans-Serif" font-size="10.00">__JS_AtomIsTaggedInt</text>
</a>
</g>
</g>
<!-- Node3&#45;&gt;Node4 -->
<g id="edge3" class="edge">
<title>Node3&#45;&gt;Node4</title>
<path fill="none" stroke="midnightblue" d="M895.26,-628C903.53,-628 912.21,-628 920.82,-628"/>
<polygon fill="midnightblue" stroke="midnightblue" points="920.88,-631.5 930.88,-628 920.88,-624.5 920.88,-631.5"/>
</g>
<!-- Node5 -->
<g id="node5" class="node">
<title>Node5</title>
<g id="a_node5"><a xlink:href="quickjs_8c.html#a89f38938cee8077ce1fbba07946ed185" target="_top" xlink:title=" ">
<polygon fill="none" stroke="black" points="937.5,-580.5 937.5,-599.5 1047.5,-599.5 1047.5,-580.5 937.5,-580.5"/>
<text text-anchor="middle" x="992.5" y="-587.5" font-family="Helvetica,sans-Serif" font-size="10.00">__JS_AtomToUInt32</text>
</a>
</g>
</g>
<!-- Node3&#45;&gt;Node5 -->
<g id="edge4" class="edge">
<title>Node3&#45;&gt;Node5</title>
<path fill="none" stroke="midnightblue" d="M880.85,-618.41C900.2,-613.44 924.03,-607.32 944.61,-602.04"/>
<polygon fill="midnightblue" stroke="midnightblue" points="945.61,-605.4 954.42,-599.52 943.87,-598.62 945.61,-605.4"/>
</g>
<!-- Node6 -->
<g id="node6" class="node">
<title>Node6</title>
<g id="a_node6"><a xlink:href="quickjs_8h.html#a775522f2d084fc8fa0fcb33f390006b4" target="_top" xlink:title=" ">
<polygon fill="none" stroke="black" points="954,-495.5 954,-514.5 1031,-514.5 1031,-495.5 954,-495.5"/>
<text text-anchor="middle" x="992.5" y="-502.5" font-family="Helvetica,sans-Serif" font-size="10.00">JS_DupValue</text>
</a>
</g>
</g>
<!-- Node3&#45;&gt;Node6 -->
<g id="edge5" class="edge">
<title>Node3&#45;&gt;Node6</title>
<path fill="none" stroke="midnightblue" d="M868.6,-618.48C877.34,-614.62 886.96,-609.71 895,-604 912.67,-591.46 953.43,-547.35 975.91,-522.45"/>
<polygon fill="midnightblue" stroke="midnightblue" points="978.69,-524.59 982.78,-514.81 973.49,-519.91 978.69,-524.59"/>
</g>
<!-- Node7 -->
<g id="node7" class="node">
<title>Node7</title>
<g id="a_node7"><a xlink:href="quickjs_8c.html#a0ee6a3654a6016393fac5e1c108f403a" target="_top" xlink:title=" ">
<polygon fill="none" stroke="red" points="952,-656.5 952,-675.5 1033,-675.5 1033,-656.5 952,-656.5"/>
<text text-anchor="middle" x="992.5" y="-663.5" font-family="Helvetica,sans-Serif" font-size="10.00">JS_NewString</text>
</a>
</g>
</g>
<!-- Node3&#45;&gt;Node7 -->
<g id="edge6" class="edge">
<title>Node3&#45;&gt;Node7</title>
<path fill="none" stroke="midnightblue" d="M880.85,-637.59C900.2,-642.56 924.03,-648.68 944.61,-653.96"/>
<polygon fill="midnightblue" stroke="midnightblue" points="943.87,-657.38 954.42,-656.48 945.61,-650.6 943.87,-657.38"/>
</g>
<!-- Node32 -->
<g id="node9" class="node">
<title>Node32</title>
<g id="a_node9"><a xlink:href="quickjs_8c.html#a1a4c02a29525d5cb2085dd8bca3af350" target="_top" xlink:title=" ">
<polygon fill="none" stroke="black" points="361,-467.5 361,-486.5 411,-486.5 411,-467.5 361,-467.5"/>
<text text-anchor="middle" x="386" y="-474.5" font-family="Helvetica,sans-Serif" font-size="10.00">JS_Call</text>
</a>
</g>
</g>
<!-- Node31&#45;&gt;Node32 -->
<g id="edge8" class="edge">
<title>Node31&#45;&gt;Node32</title>
<path fill="none" stroke="midnightblue" d="M250.12,-429.54C277.95,-439.34 321.33,-454.6 351.35,-465.16"/>
<polygon fill="midnightblue" stroke="midnightblue" points="350.38,-468.53 360.97,-468.55 352.7,-461.92 350.38,-468.53"/>
</g>
<!-- Node31&#45;&gt;Node80 -->
<g id="edge21" class="edge">
<title>Node31&#45;&gt;Node80</title>
<path fill="none" stroke="midnightblue" d="M228.41,-429.59C249.73,-467.33 327.06,-603.97 334,-612 385.9,-672.1 399.01,-696.88 474,-723 536.54,-744.78 559.78,-742.72 623,-723 648.24,-715.13 672.57,-696.53 688.18,-682.71"/>
<polygon fill="midnightblue" stroke="midnightblue" points="690.91,-684.96 695.91,-675.62 686.18,-679.8 690.91,-684.96"/>
</g>
<!-- Node31&#45;&gt;Node97 -->
<g id="edge30" class="edge">
<title>Node31&#45;&gt;Node97</title>
<path fill="none" stroke="midnightblue" d="M227.15,-410.41C239.31,-383.45 277.6,-306.52 334,-268 387.47,-231.48 568.83,-195.54 623,-231 681.74,-269.45 698.9,-359.9 703.71,-400.12"/>
<polygon fill="midnightblue" stroke="midnightblue" points="700.25,-400.68 704.79,-410.25 707.21,-399.94 700.25,-400.68"/>
</g>
<!-- Node112 -->
<g id="node15" class="node">
<title>Node112</title>
<g id="a_node15"><a xlink:href="quickjs_8c.html#ae0bc4f65da64810facb2cb9e476eda2e" target="_top" xlink:title=" ">
<polygon fill="none" stroke="black" points="505,-694.5 505,-713.5 592,-713.5 592,-694.5 505,-694.5"/>
<text text-anchor="middle" x="548.5" y="-701.5" font-family="Helvetica,sans-Serif" font-size="10.00">JS_FreeCString</text>
</a>
</g>
</g>
<!-- Node31&#45;&gt;Node112 -->
<g id="edge19" class="edge">
<title>Node31&#45;&gt;Node112</title>
<path fill="none" stroke="midnightblue" d="M231.24,-429.71C267.6,-472.38 414.57,-642.8 474,-680 480.96,-684.35 488.78,-688 496.67,-691.02"/>
<polygon fill="midnightblue" stroke="midnightblue" points="495.66,-694.38 506.26,-694.41 497.99,-687.78 495.66,-694.38"/>
</g>
<!-- Node393 -->
<g id="node16" class="node">
<title>Node393</title>
<g id="a_node16"><a xlink:href="quickjs_8c.html#a2f5aeb4e31e2001c555335ae5172165b" target="_top" xlink:title=" ">
<polygon fill="none" stroke="black" points="334,-505.5 334,-524.5 438,-524.5 438,-505.5 334,-505.5"/>
<text text-anchor="middle" x="386" y="-512.5" font-family="Helvetica,sans-Serif" font-size="10.00">js_get_module_ns</text>
</a>
</g>
</g>
<!-- Node31&#45;&gt;Node393 -->
<g id="edge22" class="edge">
<title>Node31&#45;&gt;Node393</title>
<path fill="none" stroke="midnightblue" d="M235.03,-429.7C254.76,-445.28 295.65,-476.11 334,-496 337.82,-497.98 341.9,-499.86 346.02,-501.61"/>
<polygon fill="midnightblue" stroke="midnightblue" points="345.03,-504.98 355.61,-505.44 347.62,-498.48 345.03,-504.98"/>
</g>
<!-- Node407 -->
<g id="node18" class="node">
<title>Node407</title>
<g id="a_node18"><a xlink:href="quickjs_8c.html#a8551eaac7ef616910807cebdc515760d" target="_top" xlink:title=" ">
<polygon fill="none" stroke="black" points="338,-429.5 338,-448.5 434,-448.5 434,-429.5 338,-429.5"/>
<text text-anchor="middle" x="386" y="-436.5" font-family="Helvetica,sans-Serif" font-size="10.00">JS_GetException</text>
</a>
</g>
</g>
<!-- Node31&#45;&gt;Node407 -->
<g id="edge29" class="edge">
<title>Node31&#45;&gt;Node407</title>
<path fill="none" stroke="midnightblue" d="M287.03,-427.51C300.43,-429.08 314.47,-430.73 327.61,-432.27"/>
<polygon fill="midnightblue" stroke="midnightblue" points="327.59,-435.79 337.93,-433.48 328.4,-428.84 327.59,-435.79"/>
</g>
<!-- Node343 -->
<g id="node19" class="node">
<title>Node343</title>
<g id="a_node19"><a xlink:href="quickjs_8h.html#aa53b9197dc6d5770e3a080c1e335f7cb" target="_top" xlink:title=" ">
<polygon fill="none" stroke="black" points="352,-391.5 352,-410.5 420,-410.5 420,-391.5 352,-391.5"/>
<text text-anchor="middle" x="386" y="-398.5" font-family="Helvetica,sans-Serif" font-size="10.00">JS_IsString</text>
</a>
</g>
</g>
<!-- Node31&#45;&gt;Node343 -->
<g id="edge31" class="edge">
<title>Node31&#45;&gt;Node343</title>
<path fill="none" stroke="midnightblue" d="M287.03,-412.49C305.34,-410.34 324.86,-408.05 341.62,-406.09"/>
<polygon fill="midnightblue" stroke="midnightblue" points="342.14,-409.55 351.66,-404.91 341.32,-402.6 342.14,-409.55"/>
</g>
<!-- Node408 -->
<g id="node20" class="node">
<title>Node408</title>
<g id="a_node20"><a xlink:href="quickjs_8c.html#aa75a2b06808d8da661d4eb6698b17cab" target="_top" xlink:title=" ">
<polygon fill="none" stroke="black" points="343,-277.5 343,-296.5 429,-296.5 429,-277.5 343,-277.5"/>
<text text-anchor="middle" x="386" y="-284.5" font-family="Helvetica,sans-Serif" font-size="10.00">JS_RunModule</text>
</a>
</g>
</g>
<!-- Node31&#45;&gt;Node408 -->
<g id="edge32" class="edge">
<title>Node31&#45;&gt;Node408</title>
<path fill="none" stroke="midnightblue" d="M234.65,-410.43C262.07,-387.92 330.94,-331.38 365.12,-303.32"/>
<polygon fill="midnightblue" stroke="midnightblue" points="367.51,-305.89 373.02,-296.84 363.07,-300.48 367.51,-305.89"/>
</g>
<!-- Node174 -->
<g id="node25" class="node">
<title>Node174</title>
<g id="a_node25"><a xlink:href="quickjs_8h.html#af931f06630ab719b5f82a16eb27effd1" target="_top" xlink:title=" ">
<polygon fill="none" stroke="red" points="347.5,-353.5 347.5,-372.5 424.5,-372.5 424.5,-353.5 347.5,-353.5"/>
<text text-anchor="middle" x="386" y="-360.5" font-family="Helvetica,sans-Serif" font-size="10.00">JS_ToCString</text>
</a>
</g>
</g>
<!-- Node31&#45;&gt;Node174 -->
<g id="edge42" class="edge">
<title>Node31&#45;&gt;Node174</title>
<path fill="none" stroke="midnightblue" d="M250.12,-410.46C276.98,-401.01 318.32,-386.46 348.16,-375.96"/>
<polygon fill="midnightblue" stroke="midnightblue" points="349.52,-379.19 357.8,-372.57 347.2,-372.59 349.52,-379.19"/>
</g>
<!-- Node33 -->
<g id="node10" class="node">
<title>Node33</title>
<g id="a_node10"><a xlink:href="quickjs_8c.html#ac2894ff4edcdb4e6841bcce9c76081e3" target="_top" xlink:title=" ">
<polygon fill="none" stroke="red" points="505,-410.5 505,-429.5 592,-429.5 592,-410.5 505,-410.5"/>
<text text-anchor="middle" x="548.5" y="-417.5" font-family="Helvetica,sans-Serif" font-size="10.00">JS_CallInternal</text>
</a>
</g>
</g>
<!-- Node32&#45;&gt;Node33 -->
<g id="edge9" class="edge">
<title>Node32&#45;&gt;Node33</title>
<path fill="none" stroke="midnightblue" d="M402.1,-467.49C423.17,-457.62 462.47,-442.92 494.9,-432.3"/>
<polygon fill="midnightblue" stroke="midnightblue" points="496.27,-435.54 504.72,-429.15 494.13,-428.87 496.27,-435.54"/>
</g>
<!-- Node33&#45;&gt;Node1 -->
<g id="edge14" class="edge">
<title>Node33&#45;&gt;Node1</title>
<path fill="none" stroke="midnightblue" d="M504.66,-414.63C493.93,-411.81 482.94,-407.52 474,-401 449.79,-383.34 463.87,-359.11 438,-344 333.74,-283.11 184.86,-299.13 107.35,-313.53"/>
<polygon fill="midnightblue" stroke="midnightblue" points="106.52,-310.13 97.36,-315.45 107.84,-317 106.52,-310.13"/>
</g>
<!-- Node33&#45;&gt;Node2 -->
<g id="edge10" class="edge">
<title>Node33&#45;&gt;Node2</title>
<path fill="none" stroke="midnightblue" d="M556.81,-429.75C581.22,-462.3 660.11,-567.49 691.97,-609.96"/>
<polygon fill="midnightblue" stroke="midnightblue" points="689.22,-612.13 698.02,-618.03 694.82,-607.93 689.22,-612.13"/>
</g>
<!-- Node33&#45;&gt;Node6 -->
<g id="edge13" class="edge">
<title>Node33&#45;&gt;Node6</title>
<path fill="none" stroke="midnightblue" d="M592.28,-428.23C675.23,-444.18 857.34,-479.2 943.94,-495.85"/>
<polygon fill="midnightblue" stroke="midnightblue" points="943.28,-499.29 953.76,-497.74 944.6,-492.42 943.28,-499.29"/>
</g>
<!-- Node33&#45;&gt;Node32 -->
<g id="edge11" class="edge">
<title>Node33&#45;&gt;Node32</title>
<path fill="none" stroke="midnightblue" d="M532.03,-429.68C506.59,-441.55 455.32,-460.24 421.07,-470.54"/>
<polygon fill="midnightblue" stroke="midnightblue" points="419.66,-467.3 411.03,-473.45 421.61,-474.03 419.66,-467.3"/>
</g>
<!-- Node33&#45;&gt;Node33 -->
<g id="edge12" class="edge">
<title>Node33&#45;&gt;Node33</title>
<path fill="none" stroke="midnightblue" d="M524.15,-429.76C512.3,-438.57 520.42,-448 548.5,-448 566.93,-448 576.76,-443.94 577.99,-438.65"/>
<polygon fill="midnightblue" stroke="midnightblue" points="580.89,-436.66 572.85,-429.76 574.82,-440.17 580.89,-436.66"/>
</g>
<!-- Node33&#45;&gt;Node79 -->
<g id="edge15" class="edge">
<title>Node33&#45;&gt;Node79</title>
<path fill="none" stroke="midnightblue" d="M592.25,-416.22C603.35,-413.42 614.55,-408.75 623,-401 686.45,-342.86 701.12,-232.83 704.5,-187.88"/>
<polygon fill="midnightblue" stroke="midnightblue" points="708,-187.9 705.15,-177.7 701.02,-187.46 708,-187.9"/>
</g>
<!-- Node33&#45;&gt;Node80 -->
<g id="edge16" class="edge">
<title>Node33&#45;&gt;Node80</title>
<path fill="none" stroke="midnightblue" d="M554.18,-429.52C565.87,-453.33 597.25,-517.38 623,-571 639.18,-604.69 631.86,-621.3 659,-647 660.65,-648.56 662.44,-650 664.33,-651.32"/>
<polygon fill="midnightblue" stroke="midnightblue" points="662.7,-654.43 673.1,-656.44 666.23,-648.38 662.7,-654.43"/>
</g>
<!-- Node33&#45;&gt;Node97 -->
<g id="edge17" class="edge">
<title>Node33&#45;&gt;Node97</title>
<path fill="none" stroke="midnightblue" d="M592.13,-420C610.87,-420 633.07,-420 652.84,-420"/>
<polygon fill="midnightblue" stroke="midnightblue" points="652.92,-423.5 662.92,-420 652.92,-416.5 652.92,-423.5"/>
</g>
<!-- Node129 -->
<g id="node14" class="node">
<title>Node129</title>
<g id="a_node14"><a xlink:href="quickjs_8h.html#a4e407128a9605afb77523e49e9a627fd" target="_top" xlink:title=" ">
<polygon fill="none" stroke="black" points="662,-504.5 662,-523.5 751,-523.5 751,-504.5 662,-504.5"/>
<text text-anchor="middle" x="706.5" y="-511.5" font-family="Helvetica,sans-Serif" font-size="10.00">JS_IsUndefined</text>
</a>
</g>
</g>
<!-- Node33&#45;&gt;Node129 -->
<g id="edge18" class="edge">
<title>Node33&#45;&gt;Node129</title>
<path fill="none" stroke="midnightblue" d="M565.32,-429.53C592.53,-445.93 648.4,-479.59 680.79,-499.11"/>
<polygon fill="midnightblue" stroke="midnightblue" points="679.27,-502.28 689.64,-504.44 682.88,-496.29 679.27,-502.28"/>
</g>
<!-- Node112&#45;&gt;Node80 -->
<g id="edge20" class="edge">
<title>Node112&#45;&gt;Node80</title>
<path fill="none" stroke="midnightblue" d="M588.87,-694.41C609.61,-689.36 635.23,-683.12 657.17,-677.77"/>
<polygon fill="midnightblue" stroke="midnightblue" points="658.07,-681.16 666.96,-675.39 656.41,-674.35 658.07,-681.16"/>
</g>
<!-- Node393&#45;&gt;Node6 -->
<g id="edge26" class="edge">
<title>Node393&#45;&gt;Node6</title>
<path fill="none" stroke="midnightblue" d="M438.4,-523.74C450.07,-525.43 462.44,-526.98 474,-528 597.99,-538.9 629.75,-540.3 754,-533 820.03,-529.12 895.85,-519.23 943.71,-512.31"/>
<polygon fill="midnightblue" stroke="midnightblue" points="944.39,-515.74 953.78,-510.83 943.38,-508.82 944.39,-515.74"/>
</g>
<!-- Node393&#45;&gt;Node97 -->
<g id="edge27" class="edge">
<title>Node393&#45;&gt;Node97</title>
<path fill="none" stroke="midnightblue" d="M437.02,-505.45C485.31,-495.59 560.16,-478.61 623,-457 641.68,-450.57 661.94,-441.52 677.71,-433.98"/>
<polygon fill="midnightblue" stroke="midnightblue" points="679.42,-437.04 686.89,-429.52 676.36,-430.74 679.42,-437.04"/>
</g>
<!-- Node393&#45;&gt;Node129 -->
<g id="edge28" class="edge">
<title>Node393&#45;&gt;Node129</title>
<path fill="none" stroke="midnightblue" d="M438.17,-514.84C496.56,-514.66 591.66,-514.36 651.29,-514.17"/>
<polygon fill="midnightblue" stroke="midnightblue" points="651.64,-517.67 661.63,-514.14 651.62,-510.67 651.64,-517.67"/>
</g>
<!-- Node394 -->
<g id="node17" class="node">
<title>Node394</title>
<g id="a_node17"><a xlink:href="quickjs_8c.html#ad12b6863ca31850fc39d208bb865420e" target="_top" xlink:title=" ">
<polygon fill="none" stroke="red" points="492,-580.5 492,-599.5 605,-599.5 605,-580.5 492,-580.5"/>
<text text-anchor="middle" x="548.5" y="-587.5" font-family="Helvetica,sans-Serif" font-size="10.00">js_build_module_ns</text>
</a>
</g>
</g>
<!-- Node393&#45;&gt;Node394 -->
<g id="edge23" class="edge">
<title>Node393&#45;&gt;Node394</title>
<path fill="none" stroke="midnightblue" d="M401.26,-524.66C418.09,-535.74 447.18,-553.93 474,-566 483.36,-570.21 493.7,-574.05 503.58,-577.36"/>
<polygon fill="midnightblue" stroke="midnightblue" points="502.67,-580.75 513.26,-580.49 504.82,-574.09 502.67,-580.75"/>
</g>
<!-- Node394&#45;&gt;Node80 -->
<g id="edge24" class="edge">
<title>Node394&#45;&gt;Node80</title>
<path fill="none" stroke="midnightblue" d="M601.57,-599.55C609.04,-602.02 616.41,-605.12 623,-609 643.04,-620.81 639.8,-633.86 659,-647 661.58,-648.77 664.35,-650.41 667.2,-651.93"/>
<polygon fill="midnightblue" stroke="midnightblue" points="665.95,-655.21 676.49,-656.37 668.98,-648.9 665.95,-655.21"/>
</g>
<!-- Node394&#45;&gt;Node97 -->
<g id="edge25" class="edge">
<title>Node394&#45;&gt;Node97</title>
<path fill="none" stroke="midnightblue" d="M558.33,-580.37C583.75,-552.67 657.33,-472.49 689.79,-437.12"/>
<polygon fill="midnightblue" stroke="midnightblue" points="692.58,-439.26 696.76,-429.52 687.42,-434.52 692.58,-439.26"/>
</g>
<!-- Node408&#45;&gt;Node6 -->
<g id="edge33" class="edge">
<title>Node408&#45;&gt;Node6</title>
<path fill="none" stroke="midnightblue" d="M389.37,-277.32C396.57,-250.24 421.06,-173.76 474,-144 582.5,-83.01 645.39,-88.21 754,-149 892.53,-226.54 965.26,-422.65 985.53,-485.38"/>
<polygon fill="midnightblue" stroke="midnightblue" points="982.27,-486.69 988.62,-495.18 988.95,-484.59 982.27,-486.69"/>
</g>
<!-- Node408&#45;&gt;Node80 -->
<g id="edge36" class="edge">
<title>Node408&#45;&gt;Node80</title>
<path fill="none" stroke="midnightblue" d="M399.45,-296.87C411.52,-307.21 429.26,-324.64 438,-344 465.9,-405.8 425.19,-599.93 474,-647 522.58,-693.84 606.57,-687.56 658.92,-677.6"/>
<polygon fill="midnightblue" stroke="midnightblue" points="659.84,-680.98 668.94,-675.57 658.45,-674.12 659.84,-680.98"/>
</g>
<!-- Node408&#45;&gt;Node97 -->
<g id="edge39" class="edge">
<title>Node408&#45;&gt;Node97</title>
<path fill="none" stroke="midnightblue" d="M429.26,-280.56C478.98,-275.13 562.43,-272.93 623,-307 660.75,-328.23 685.94,-374.72 697.75,-400.97"/>
<polygon fill="midnightblue" stroke="midnightblue" points="694.58,-402.45 701.74,-410.25 701.01,-399.68 694.58,-402.45"/>
</g>
<!-- Node409 -->
<g id="node21" class="node">
<title>Node409</title>
<g id="a_node21"><a xlink:href="quickjs_8c.html#af38ab3d672d41db0fa7a75b5c24149e4" target="_top" xlink:title=" ">
<polygon fill="none" stroke="red" points="502,-240.5 502,-259.5 595,-259.5 595,-240.5 502,-240.5"/>
<text text-anchor="middle" x="548.5" y="-247.5" font-family="Helvetica,sans-Serif" font-size="10.00">JS_EvalFunction</text>
</a>
</g>
</g>
<!-- Node408&#45;&gt;Node409 -->
<g id="edge34" class="edge">
<title>Node408&#45;&gt;Node409</title>
<path fill="none" stroke="midnightblue" d="M428.33,-277.47C449.03,-272.7 474.29,-266.88 496.22,-261.82"/>
<polygon fill="midnightblue" stroke="midnightblue" points="497.07,-265.22 506.03,-259.56 495.5,-258.4 497.07,-265.22"/>
</g>
<!-- Node75 -->
<g id="node22" class="node">
<title>Node75</title>
<g id="a_node22"><a xlink:href="quickjs_8c.html#adcabee55726eddca24893a78515c7ba2" target="_top" xlink:title=" ">
<polygon fill="none" stroke="red" points="500,-372.5 500,-391.5 597,-391.5 597,-372.5 500,-372.5"/>
<text text-anchor="middle" x="548.5" y="-379.5" font-family="Helvetica,sans-Serif" font-size="10.00">js_free_modules</text>
</a>
</g>
</g>
<!-- Node408&#45;&gt;Node75 -->
<g id="edge35" class="edge">
<title>Node408&#45;&gt;Node75</title>
<path fill="none" stroke="midnightblue" d="M413.99,-296.53C422.24,-300.24 430.98,-305.06 438,-311 459.45,-329.16 450.95,-346.92 474,-363 478.92,-366.43 484.41,-369.24 490.11,-371.54"/>
<polygon fill="midnightblue" stroke="midnightblue" points="489.25,-374.95 499.85,-374.96 491.57,-368.35 489.25,-374.95"/>
</g>
<!-- Node416 -->
<g id="node23" class="node">
<title>Node416</title>
<g id="a_node23"><a xlink:href="quickjs_8c.html#a90dd988b99a5bc7b2a4aaffd2de405a9" target="_top" xlink:title=" ">
<polygon fill="none" stroke="red" points="477.5,-153 477.5,-183 619.5,-183 619.5,-153 477.5,-153"/>
<text text-anchor="start" x="485.5" y="-171" font-family="Helvetica,sans-Serif" font-size="10.00">js_host_resolve_imported</text>
<text text-anchor="middle" x="548.5" y="-160" font-family="Helvetica,sans-Serif" font-size="10.00">_module</text>
</a>
</g>
</g>
<!-- Node408&#45;&gt;Node416 -->
<g id="edge37" class="edge">
<title>Node408&#45;&gt;Node416</title>
<path fill="none" stroke="midnightblue" d="M399.86,-277.46C425.51,-258.45 483.56,-215.4 518.75,-189.32"/>
<polygon fill="midnightblue" stroke="midnightblue" points="521.22,-191.84 527.17,-183.07 517.05,-186.22 521.22,-191.84"/>
</g>
<!-- Node423 -->
<g id="node24" class="node">
<title>Node423</title>
<g id="a_node24"><a xlink:href="quickjs_8c.html#a041f16b68daf31525cd76aa4794073ef" target="_top" xlink:title=" ">
<polygon fill="none" stroke="red" points="494.5,-316.5 494.5,-335.5 602.5,-335.5 602.5,-316.5 494.5,-316.5"/>
<text text-anchor="middle" x="548.5" y="-323.5" font-family="Helvetica,sans-Serif" font-size="10.00">js_resolve_module</text>
</a>
</g>
</g>
<!-- Node408&#45;&gt;Node423 -->
<g id="edge40" class="edge">
<title>Node408&#45;&gt;Node423</title>
<path fill="none" stroke="midnightblue" d="M426.26,-296.54C448.01,-301.82 475.24,-308.44 498.39,-314.07"/>
<polygon fill="midnightblue" stroke="midnightblue" points="497.82,-317.53 508.36,-316.49 499.47,-310.73 497.82,-317.53"/>
</g>
<!-- Node416&#45;&gt;Node79 -->
<g id="edge38" class="edge">
<title>Node416&#45;&gt;Node79</title>
<path fill="none" stroke="midnightblue" d="M619.74,-168C632.38,-168 645.29,-168 657.13,-168"/>
<polygon fill="midnightblue" stroke="midnightblue" points="657.22,-171.5 667.22,-168 657.22,-164.5 657.22,-171.5"/>
</g>
<!-- Node423&#45;&gt;Node423 -->
<g id="edge41" class="edge">
<title>Node423&#45;&gt;Node423</title>
<path fill="none" stroke="midnightblue" d="M524.15,-335.76C512.3,-344.57 520.42,-354 548.5,-354 566.93,-354 576.76,-349.94 577.99,-344.65"/>
<polygon fill="midnightblue" stroke="midnightblue" points="580.89,-342.66 572.85,-335.76 574.82,-346.17 580.89,-342.66"/>
</g>
<!-- Node425&#45;&gt;Node6 -->
<g id="edge44" class="edge">
<title>Node425&#45;&gt;Node6</title>
<path fill="none" stroke="midnightblue" d="M266.11,-39.71C328.1,-28.53 446.11,-10 547.5,-10 547.5,-10 547.5,-10 707.5,-10 930.53,-10 980.92,-392.75 989.83,-485.12"/>
<polygon fill="midnightblue" stroke="midnightblue" points="986.35,-485.47 990.74,-495.11 993.32,-484.84 986.35,-485.47"/>
</g>
<!-- Node53 -->
<g id="node27" class="node">
<title>Node53</title>
<g id="a_node27"><a xlink:href="list_8h.html#a3a5d0733570b2fafc18f4c71a2968ea5" target="_top" xlink:title=" ">
<polygon fill="none" stroke="red" points="348,-38.5 348,-57.5 424,-57.5 424,-38.5 348,-38.5"/>
<text text-anchor="middle" x="386" y="-45.5" font-family="Helvetica,sans-Serif" font-size="10.00">list_add_tail</text>
</a>
</g>
</g>
<!-- Node425&#45;&gt;Node53 -->
<g id="edge45" class="edge">
<title>Node425&#45;&gt;Node53</title>
<path fill="none" stroke="midnightblue" d="M266.41,-48C288.44,-48 315.23,-48 337.77,-48"/>
<polygon fill="midnightblue" stroke="midnightblue" points="337.79,-51.5 347.79,-48 337.79,-44.5 337.79,-51.5"/>
</g>
<!-- Node427 -->
<g id="node30" class="node">
<title>Node427</title>
<g id="a_node30"><a xlink:href="quickjs_8c.html#a28c0ccdd26317bc38d0a693f1dffe4dc" target="_top" xlink:title=" ">
<polygon fill="none" stroke="red" points="474,-618.5 474,-637.5 623,-637.5 623,-618.5 474,-618.5"/>
<text text-anchor="middle" x="548.5" y="-625.5" font-family="Helvetica,sans-Serif" font-size="10.00">js_new_promise_capability</text>
</a>
</g>
</g>
<!-- Node426&#45;&gt;Node427 -->
<g id="edge51" class="edge">
<title>Node426&#45;&gt;Node427</title>
<path fill="none" stroke="midnightblue" d="M277.31,-580.54C334.02,-590.5 422.93,-606.12 483.13,-616.69"/>
<polygon fill="midnightblue" stroke="midnightblue" points="482.82,-620.19 493.28,-618.48 484.04,-613.3 482.82,-620.19"/>
</g>
<!-- Node427&#45;&gt;Node6 -->
<g id="edge52" class="edge">
<title>Node427&#45;&gt;Node6</title>
<path fill="none" stroke="midnightblue" d="M604.07,-618.48C699.73,-601.76 888.23,-568.63 895,-566 923.71,-554.84 953.12,-534.76 971.8,-520.69"/>
<polygon fill="midnightblue" stroke="midnightblue" points="974.03,-523.39 979.83,-514.52 969.77,-517.84 974.03,-523.39"/>
</g>
<!-- Node427&#45;&gt;Node80 -->
<g id="edge53" class="edge">
<title>Node427&#45;&gt;Node80</title>
<path fill="none" stroke="midnightblue" d="M588.87,-637.59C609.61,-642.64 635.23,-648.88 657.17,-654.23"/>
<polygon fill="midnightblue" stroke="midnightblue" points="656.41,-657.65 666.96,-656.61 658.07,-650.84 656.41,-657.65"/>
</g>
<!-- Node427&#45;&gt;Node97 -->
<g id="edge54" class="edge">
<title>Node427&#45;&gt;Node97</title>
<path fill="none" stroke="midnightblue" d="M609.29,-618.35C614.31,-615.88 618.98,-612.81 623,-609 661.55,-572.44 636.83,-543.29 659,-495 668.42,-474.48 682.41,-452.72 692.58,-437.96"/>
<polygon fill="midnightblue" stroke="midnightblue" points="695.47,-439.94 698.35,-429.74 689.74,-435.92 695.47,-439.94"/>
</g>
<!-- Node427&#45;&gt;Node129 -->
<g id="edge55" class="edge">
<title>Node427&#45;&gt;Node129</title>
<path fill="none" stroke="midnightblue" d="M602.5,-618.44C609.68,-615.98 616.72,-612.89 623,-609 639.62,-598.71 673.34,-556.36 692.12,-531.81"/>
<polygon fill="midnightblue" stroke="midnightblue" points="695.04,-533.75 698.3,-523.67 689.46,-529.52 695.04,-533.75"/>
</g>
</g>
</svg>
        <g id="navigator" transform="translate(0 0)" fill="#404254">
                <rect fill="#f2f5e9" fill-opacity="0.5" stroke="#606060" stroke-width=".5" x="0" y="0" width="60" height="60"/>
                <use id="zoomplus" xlink:href="#zoomPlus" x="17" y="9" onmousedown="handleZoom(evt,'in')"/>
                <use id="zoomminus" xlink:href="#zoomMin" x="42" y="9" onmousedown="handleZoom(evt,'out')"/>
                <use id="reset" xlink:href="#resetDef" x="30" y="36" onmousedown="handleReset()"/>
                <g id="arrowUp" xlink:href="#dirArrow" transform="translate(30 24)" onmousedown="handlePan(0,-1)">
                  <use xlink:href="#rim" fill="#404040">
                        <set attributeName="fill" to="#808080" begin="arrowUp.mouseover" end="arrowUp.mouseout"/>
                  </use>
                  <path fill="none" stroke="white" stroke-width="1.5" d="M0,-3.0v7 M-2.5,-0.5L0,-3.0L2.5,-0.5"/>
                </g>
                <g id="arrowRight" xlink:href="#dirArrow" transform="rotate(90) translate(36 -43)" onmousedown="handlePan(1,0)">
                  <use xlink:href="#rim" fill="#404040">
                        <set attributeName="fill" to="#808080" begin="arrowRight.mouseover" end="arrowRight.mouseout"/>
                  </use>
                  <path fill="none" stroke="white" stroke-width="1.5" d="M0,-3.0v7 M-2.5,-0.5L0,-3.0L2.5,-0.5"/>
                </g>
                <g id="arrowDown" xlink:href="#dirArrow" transform="rotate(180) translate(-30 -48)" onmousedown="handlePan(0,1)">
                  <use xlink:href="#rim" fill="#404040">
                        <set attributeName="fill" to="#808080" begin="arrowDown.mouseover" end="arrowDown.mouseout"/>
                  </use>
                  <path fill="none" stroke="white" stroke-width="1.5" d="M0,-3.0v7 M-2.5,-0.5L0,-3.0L2.5,-0.5"/>
                </g>
                <g id="arrowLeft" xlink:href="#dirArrow" transform="rotate(270) translate(-36 17)" onmousedown="handlePan(-1,0)">
                  <use xlink:href="#rim" fill="#404040">
                        <set attributeName="fill" to="#808080" begin="arrowLeft.mouseover" end="arrowLeft.mouseout"/>
                  </use>
                  <path fill="none" stroke="white" stroke-width="1.5" d="M0,-3.0v7 M-2.5,-0.5L0,-3.0L2.5,-0.5"/>
                </g>
        </g>
        <svg viewBox="0 0 15 15" width="100%" height="30px" preserveAspectRatio="xMaxYMin meet">
         <g id="arrow_out" transform="scale(0.3 0.3)">
          <a xlink:href="quickjs_8c_a50e94675d1c4cf67c88e72169ea3c21a_cgraph_org.svg" target="_base">
           <rect id="button" ry="5" rx="5" y="6" x="6" height="38" width="38"
                fill="#f2f5e9" fill-opacity="0.5" stroke="#606060" stroke-width="1.0"/>
           <path id="arrow"
             d="M 11.500037,31.436501 C 11.940474,20.09759 22.043105,11.32322 32.158766,21.979434 L 37.068811,17.246167 C 37.068811,17.246167 37.088388,32 37.088388,32 L 22.160133,31.978069 C 22.160133,31.978069 26.997745,27.140456 26.997745,27.140456 C 18.528582,18.264221 13.291696,25.230495 11.500037,31.436501 z"
             style="fill:#404040;"/>
          </a>
         </g>
        </svg>
</svg>
