<?xml version="1.0" encoding="UTF-8" standalone="no"?>
<!DOCTYPE svg PUBLIC "-//W3C//DTD SVG 1.1//EN"
 "http://www.w3.org/Graphics/SVG/1.1/DTD/svg11.dtd">
<!-- Generated by graphviz version 2.43.0 (0)
 -->
<!-- Title: js_async_generator_resume_next Pages: 1 -->
<!--zoomable 1195 -->
<svg id="main" version="1.1" xmlns="http://www.w3.org/2000/svg" xmlns:xlink="http://www.w3.org/1999/xlink" xml:space="preserve" onload="init(evt)">
<style type="text/css"><![CDATA[
.edge:hover path { stroke: red; }
.edge:hover polygon { stroke: red; fill: red; }
]]></style>
<script type="text/javascript"><![CDATA[
var edges = document.getElementsByTagName('g');
if (edges && edges.length) {
  for (var i=0;i<edges.length;i++) {
    if (edges[i].id.substr(0,4)=='edge') {
      edges[i].setAttribute('class','edge');
    }
  }
}
]]></script>
        <defs>
                <circle id="rim" cx="0" cy="0" r="7"/>
                <circle id="rim2" cx="0" cy="0" r="3.5"/>
                <g id="zoomPlus">
                        <use xlink:href="#rim" fill="#404040">
                                <set attributeName="fill" to="#808080" begin="zoomplus.mouseover" end="zoomplus.mouseout"/>
                        </use>
                        <path d="M-4,0h8M0,-4v8" fill="none" stroke="white" stroke-width="1.5" pointer-events="none"/>
                </g>
                <g id="zoomMin">
                        <use xlink:href="#rim" fill="#404040">
                                <set attributeName="fill" to="#808080" begin="zoomminus.mouseover" end="zoomminus.mouseout"/>
                        </use>
                        <path d="M-4,0h8" fill="none" stroke="white" stroke-width="1.5" pointer-events="none"/>
                </g>
                <g id="dirArrow">
                        <path fill="none" stroke="white" stroke-width="1.5" d="M0,-3.0v7 M-2.5,-0.5L0,-3.0L2.5,-0.5"/>
                </g>
               <g id="resetDef">
                       <use xlink:href="#rim2" fill="#404040">
                               <set attributeName="fill" to="#808080" begin="reset.mouseover" end="reset.mouseout"/>
                       </use>
               </g>
        </defs>

<script type="text/javascript">
var viewWidth = 713;
var viewHeight = 1195;
var sectionId = 'dynsection-898';
</script>
<script xlink:href="svgpan.js"/>
<svg id="graph" class="graph">
<g id="viewport">
<title>js_async_generator_resume_next</title>
<!-- Node1 -->
<g id="node1" class="node">
<title>Node1</title>
<g id="a_node1"><a xlink:title=" ">
<polygon fill="#bfbfbf" stroke="black" points="0,-492 0,-522 111,-522 111,-492 0,-492"/>
<text text-anchor="start" x="8" y="-510" font-family="Helvetica,sans-Serif" font-size="10.00">js_async_generator</text>
<text text-anchor="middle" x="55.5" y="-499" font-family="Helvetica,sans-Serif" font-size="10.00">_resume_next</text>
</a>
</g>
</g>
<!-- Node2 -->
<g id="node2" class="node">
<title>Node2</title>
<g id="a_node2"><a xlink:href="quickjs_8c.html#ade71a22dc56e7371392393df663b28b3" target="_top" xlink:title=" ">
<polygon fill="none" stroke="black" points="147,-805.5 147,-824.5 260,-824.5 260,-805.5 147,-805.5"/>
<text text-anchor="middle" x="203.5" y="-812.5" font-family="Helvetica,sans-Serif" font-size="10.00">async_func_resume</text>
</a>
</g>
</g>
<!-- Node1&#45;&gt;Node2 -->
<g id="edge1" class="edge">
<title>Node1&#45;&gt;Node2</title>
<path fill="none" stroke="midnightblue" d="M63.09,-522.08C77.72,-555.45 114.22,-637.96 147,-706 162.43,-738.04 181.43,-774.81 192.72,-796.41"/>
<polygon fill="midnightblue" stroke="midnightblue" points="189.71,-798.22 197.46,-805.45 195.91,-794.97 189.71,-798.22"/>
</g>
<!-- Node36 -->
<g id="node9" class="node">
<title>Node36</title>
<g id="a_node9"><a xlink:href="quickjs_8h.html#a775522f2d084fc8fa0fcb33f390006b4" target="_top" xlink:title=" ">
<polygon fill="none" stroke="black" points="623,-568.5 623,-587.5 700,-587.5 700,-568.5 623,-568.5"/>
<text text-anchor="middle" x="661.5" y="-575.5" font-family="Helvetica,sans-Serif" font-size="10.00">JS_DupValue</text>
</a>
</g>
</g>
<!-- Node1&#45;&gt;Node36 -->
<g id="edge56" class="edge">
<title>Node1&#45;&gt;Node36</title>
<path fill="none" stroke="midnightblue" d="M71.29,-522.27C88.06,-538.58 116.97,-563.87 147,-577 306.03,-646.55 520.19,-610.89 613.63,-589.82"/>
<polygon fill="midnightblue" stroke="midnightblue" points="614.66,-593.17 623.62,-587.52 613.09,-586.35 614.66,-593.17"/>
</g>
<!-- Node75 -->
<g id="node10" class="node">
<title>Node75</title>
<g id="a_node10"><a xlink:href="quickjs_8h.html#ad80a83d73e9b7d872b88fbf2943aebe9" target="_top" xlink:title=" ">
<polygon fill="none" stroke="black" points="618,-435.5 618,-454.5 705,-454.5 705,-435.5 618,-435.5"/>
<text text-anchor="middle" x="661.5" y="-442.5" font-family="Helvetica,sans-Serif" font-size="10.00">JS_IsException</text>
</a>
</g>
</g>
<!-- Node1&#45;&gt;Node75 -->
<g id="edge59" class="edge">
<title>Node1&#45;&gt;Node75</title>
<path fill="none" stroke="midnightblue" d="M89.36,-522.09C175.85,-559.44 414.62,-646.97 582,-559 620.12,-538.97 643.34,-491.11 653.84,-464.21"/>
<polygon fill="midnightblue" stroke="midnightblue" points="657.16,-465.31 657.35,-454.72 650.6,-462.88 657.16,-465.31"/>
</g>
<!-- Node76 -->
<g id="node12" class="node">
<title>Node76</title>
<g id="a_node12"><a xlink:href="quickjs_8h.html#a2050bc428da1c65ac7eb87c3fa3b0392" target="_top" xlink:title=" ">
<polygon fill="none" stroke="black" points="623,-1062.5 623,-1081.5 700,-1081.5 700,-1062.5 623,-1062.5"/>
<text text-anchor="middle" x="661.5" y="-1069.5" font-family="Helvetica,sans-Serif" font-size="10.00">JS_NewInt32</text>
</a>
</g>
</g>
<!-- Node1&#45;&gt;Node76 -->
<g id="edge61" class="edge">
<title>Node1&#45;&gt;Node76</title>
<path fill="none" stroke="midnightblue" d="M58.6,-522.06C65.68,-569.83 91.44,-721.51 147,-834 195.62,-932.43 222.31,-949.63 296,-1031 355.75,-1096.97 360.12,-1134.54 443,-1167 500.52,-1189.53 527.9,-1196.82 582,-1167 608.24,-1152.54 598.65,-1132.87 618,-1110 624.67,-1102.12 632.95,-1094.36 640.44,-1087.92"/>
<polygon fill="midnightblue" stroke="midnightblue" points="642.68,-1090.6 648.12,-1081.51 638.2,-1085.23 642.68,-1090.6"/>
</g>
<!-- Node57 -->
<g id="node14" class="node">
<title>Node57</title>
<g id="a_node14"><a xlink:href="quickjs_8h.html#afaa20c47565bc704c6c85f3d77254e7d" target="_top" xlink:title=" ">
<polygon fill="none" stroke="red" points="622,-293.5 622,-312.5 701,-312.5 701,-293.5 622,-293.5"/>
<text text-anchor="middle" x="661.5" y="-300.5" font-family="Helvetica,sans-Serif" font-size="10.00">JS_FreeValue</text>
</a>
</g>
</g>
<!-- Node1&#45;&gt;Node57 -->
<g id="edge57" class="edge">
<title>Node1&#45;&gt;Node57</title>
<path fill="none" stroke="midnightblue" d="M58.21,-491.69C65.5,-429.07 96,-193.26 147,-142 285.37,-2.92 422.88,47.76 582,-67 653.02,-118.22 660.78,-236.37 660.94,-283.28"/>
<polygon fill="midnightblue" stroke="midnightblue" points="657.44,-283.33 660.86,-293.36 664.44,-283.39 657.44,-283.33"/>
</g>
<!-- Node127 -->
<g id="node15" class="node">
<title>Node127</title>
<g id="a_node15"><a xlink:href="quickjs_8h.html#a4e407128a9605afb77523e49e9a627fd" target="_top" xlink:title=" ">
<polygon fill="none" stroke="black" points="468,-682.5 468,-701.5 557,-701.5 557,-682.5 468,-682.5"/>
<text text-anchor="middle" x="512.5" y="-689.5" font-family="Helvetica,sans-Serif" font-size="10.00">JS_IsUndefined</text>
</a>
</g>
</g>
<!-- Node1&#45;&gt;Node127 -->
<g id="edge60" class="edge">
<title>Node1&#45;&gt;Node127</title>
<path fill="none" stroke="midnightblue" d="M60.54,-522.46C69.8,-554.45 95.78,-627.7 147,-661 241.97,-722.75 381.54,-713.5 457.46,-702.21"/>
<polygon fill="midnightblue" stroke="midnightblue" points="458.4,-705.61 467.74,-700.62 457.32,-698.69 458.4,-705.61"/>
</g>
<!-- Node208 -->
<g id="node16" class="node">
<title>Node208</title>
<g id="a_node16"><a xlink:href="quickjs_8c.html#a3ae8a83da71ef07d6e858d172d9c5a81" target="_top" xlink:title=" ">
<polygon fill="none" stroke="black" points="482,-530.5 482,-549.5 543,-549.5 543,-530.5 482,-530.5"/>
<text text-anchor="middle" x="512.5" y="-537.5" font-family="Helvetica,sans-Serif" font-size="10.00">JS_Throw</text>
</a>
</g>
</g>
<!-- Node1&#45;&gt;Node208 -->
<g id="edge62" class="edge">
<title>Node1&#45;&gt;Node208</title>
<path fill="none" stroke="midnightblue" d="M111.38,-510.98C204.13,-517.71 389.72,-531.17 471.37,-537.09"/>
<polygon fill="midnightblue" stroke="midnightblue" points="471.5,-540.61 481.73,-537.84 472.01,-533.63 471.5,-540.61"/>
</g>
<!-- Node436 -->
<g id="node18" class="node">
<title>Node436</title>
<g id="a_node18"><a xlink:href="list_8h.html#acc8877b883e77ef12325dd5bfa4be0d3" target="_top" xlink:title=" ">
<polygon fill="none" stroke="black" points="478.5,-644.5 478.5,-663.5 546.5,-663.5 546.5,-644.5 478.5,-644.5"/>
<text text-anchor="middle" x="512.5" y="-651.5" font-family="Helvetica,sans-Serif" font-size="10.00">list_empty</text>
</a>
</g>
</g>
<!-- Node1&#45;&gt;Node436 -->
<g id="edge63" class="edge">
<title>Node1&#45;&gt;Node436</title>
<path fill="none" stroke="midnightblue" d="M62.45,-522.06C74.07,-549.18 102.59,-605.67 147,-630 250.64,-686.77 396.52,-673.61 468.24,-662.25"/>
<polygon fill="midnightblue" stroke="midnightblue" points="468.97,-665.67 478.27,-660.59 467.83,-658.77 468.97,-665.67"/>
</g>
<!-- Node437 -->
<g id="node19" class="node">
<title>Node437</title>
<g id="a_node19"><a xlink:href="quickjs_8c.html#a0950cebccf1347ea44a3c6927d3a5fa6" target="_top" xlink:title=" ">
<polygon fill="none" stroke="black" points="296,-373 296,-403 407,-403 407,-373 296,-373"/>
<text text-anchor="start" x="304" y="-391" font-family="Helvetica,sans-Serif" font-size="10.00">js_async_generator</text>
<text text-anchor="middle" x="351.5" y="-380" font-family="Helvetica,sans-Serif" font-size="10.00">_await</text>
</a>
</g>
</g>
<!-- Node1&#45;&gt;Node437 -->
<g id="edge26" class="edge">
<title>Node1&#45;&gt;Node437</title>
<path fill="none" stroke="midnightblue" d="M87.66,-491.86C105,-483.6 127.04,-473.39 147,-465 197.93,-443.58 257.1,-421.5 298.46,-406.51"/>
<polygon fill="midnightblue" stroke="midnightblue" points="299.84,-409.73 308.05,-403.04 297.46,-403.15 299.84,-409.73"/>
</g>
<!-- Node446 -->
<g id="node23" class="node">
<title>Node446</title>
<g id="a_node23"><a xlink:href="quickjs_8c.html#ad753838f0911b2c87c2117e0d424e916" target="_top" xlink:title=" ">
<polygon fill="none" stroke="black" points="148,-351 148,-381 259,-381 259,-351 148,-351"/>
<text text-anchor="start" x="156" y="-369" font-family="Helvetica,sans-Serif" font-size="10.00">js_async_generator</text>
<text text-anchor="middle" x="203.5" y="-358" font-family="Helvetica,sans-Serif" font-size="10.00">_complete</text>
</a>
</g>
</g>
<!-- Node1&#45;&gt;Node446 -->
<g id="edge38" class="edge">
<title>Node1&#45;&gt;Node446</title>
<path fill="none" stroke="midnightblue" d="M66.82,-491.64C82.34,-469.33 113.46,-427.53 147,-399 152.28,-394.51 158.24,-390.26 164.26,-386.41"/>
<polygon fill="midnightblue" stroke="midnightblue" points="166.31,-389.25 173.02,-381.05 162.67,-383.28 166.31,-389.25"/>
</g>
<!-- Node448 -->
<g id="node25" class="node">
<title>Node448</title>
<g id="a_node25"><a xlink:href="quickjs_8c.html#a5d885b4633392386983e2d76c175dee7" target="_top" xlink:title=" ">
<polygon fill="none" stroke="black" points="296,-435 296,-465 407,-465 407,-435 296,-435"/>
<text text-anchor="start" x="304" y="-453" font-family="Helvetica,sans-Serif" font-size="10.00">js_async_generator</text>
<text text-anchor="middle" x="351.5" y="-442" font-family="Helvetica,sans-Serif" font-size="10.00">_completed_return</text>
</a>
</g>
</g>
<!-- Node1&#45;&gt;Node448 -->
<g id="edge40" class="edge">
<title>Node1&#45;&gt;Node448</title>
<path fill="none" stroke="midnightblue" d="M111.11,-496.41C160.56,-486.82 233.48,-472.69 285.83,-462.54"/>
<polygon fill="midnightblue" stroke="midnightblue" points="286.53,-465.97 295.68,-460.63 285.2,-459.09 286.53,-465.97"/>
</g>
<!-- Node449 -->
<g id="node26" class="node">
<title>Node449</title>
<g id="a_node26"><a xlink:href="quickjs_8c.html#afeff65269c8c136c7b74103e389befcf" target="_top" xlink:title=" ">
<polygon fill="none" stroke="black" points="148,-152 148,-182 259,-182 259,-152 148,-152"/>
<text text-anchor="start" x="156" y="-170" font-family="Helvetica,sans-Serif" font-size="10.00">js_async_generator</text>
<text text-anchor="middle" x="203.5" y="-159" font-family="Helvetica,sans-Serif" font-size="10.00">_reject</text>
</a>
</g>
</g>
<!-- Node1&#45;&gt;Node449 -->
<g id="edge46" class="edge">
<title>Node1&#45;&gt;Node449</title>
<path fill="none" stroke="midnightblue" d="M61.58,-491.82C74.43,-453.95 109.83,-352.44 147,-271 159.82,-242.91 176.81,-211.8 188.6,-190.99"/>
<polygon fill="midnightblue" stroke="midnightblue" points="191.7,-192.62 193.62,-182.2 185.62,-189.15 191.7,-192.62"/>
</g>
<!-- Node451 -->
<g id="node28" class="node">
<title>Node451</title>
<g id="a_node28"><a xlink:href="quickjs_8c.html#aceae944e32b3bc14f36a4c17f2ddd12e" target="_top" xlink:title=" ">
<polygon fill="none" stroke="black" points="296,-165 296,-195 407,-195 407,-165 296,-165"/>
<text text-anchor="start" x="304" y="-183" font-family="Helvetica,sans-Serif" font-size="10.00">js_async_generator</text>
<text text-anchor="middle" x="351.5" y="-172" font-family="Helvetica,sans-Serif" font-size="10.00">_resolve</text>
</a>
</g>
</g>
<!-- Node1&#45;&gt;Node451 -->
<g id="edge49" class="edge">
<title>Node1&#45;&gt;Node451</title>
<path fill="none" stroke="midnightblue" d="M62.44,-491.55C74.83,-460.64 105.75,-389.94 147,-341 197.52,-281.06 273.38,-228.22 316.8,-200.52"/>
<polygon fill="midnightblue" stroke="midnightblue" points="318.7,-203.46 325.29,-195.16 314.96,-197.54 318.7,-203.46"/>
</g>
<!-- Node353 -->
<g id="node30" class="node">
<title>Node353</title>
<g id="a_node30"><a xlink:href="quickjs_8c.html#a8551eaac7ef616910807cebdc515760d" target="_top" xlink:title=" ">
<polygon fill="none" stroke="black" points="155.5,-0.5 155.5,-19.5 251.5,-19.5 251.5,-0.5 155.5,-0.5"/>
<text text-anchor="middle" x="203.5" y="-7.5" font-family="Helvetica,sans-Serif" font-size="10.00">JS_GetException</text>
</a>
</g>
</g>
<!-- Node1&#45;&gt;Node353 -->
<g id="edge58" class="edge">
<title>Node1&#45;&gt;Node353</title>
<path fill="none" stroke="midnightblue" d="M57.54,-491.59C62.73,-418.53 88.03,-107.55 147,-34 149.92,-30.35 153.51,-27.25 157.44,-24.61"/>
<polygon fill="midnightblue" stroke="midnightblue" points="159.45,-27.49 166.46,-19.54 156.03,-21.39 159.45,-27.49"/>
</g>
<!-- Node3 -->
<g id="node3" class="node">
<title>Node3</title>
<g id="a_node3"><a xlink:href="quickjs_8c.html#ac2894ff4edcdb4e6841bcce9c76081e3" target="_top" xlink:title=" ">
<polygon fill="none" stroke="red" points="308,-853.5 308,-872.5 395,-872.5 395,-853.5 308,-853.5"/>
<text text-anchor="middle" x="351.5" y="-860.5" font-family="Helvetica,sans-Serif" font-size="10.00">JS_CallInternal</text>
</a>
</g>
</g>
<!-- Node2&#45;&gt;Node3 -->
<g id="edge2" class="edge">
<title>Node2&#45;&gt;Node3</title>
<path fill="none" stroke="midnightblue" d="M233.69,-824.6C256.07,-831.96 287.17,-842.18 311.65,-850.23"/>
<polygon fill="midnightblue" stroke="midnightblue" points="310.76,-853.62 321.36,-853.42 312.95,-846.97 310.76,-853.62"/>
</g>
<!-- Node219 -->
<g id="node13" class="node">
<title>Node219</title>
<g id="a_node13"><a xlink:href="quickjs_8c.html#af23ec7c9970ceb4671c59da7abd4b078" target="_top" xlink:title=" ">
<polygon fill="none" stroke="red" points="444,-720.5 444,-739.5 581,-739.5 581,-720.5 444,-720.5"/>
<text text-anchor="middle" x="512.5" y="-727.5" font-family="Helvetica,sans-Serif" font-size="10.00">js_check_stack_overflow</text>
</a>
</g>
</g>
<!-- Node2&#45;&gt;Node219 -->
<g id="edge24" class="edge">
<title>Node2&#45;&gt;Node219</title>
<path fill="none" stroke="midnightblue" d="M238.82,-805.5C294.7,-790.03 405.29,-759.41 467.08,-742.3"/>
<polygon fill="midnightblue" stroke="midnightblue" points="468.22,-745.61 476.93,-739.57 466.36,-738.87 468.22,-745.61"/>
</g>
<!-- Node221 -->
<g id="node17" class="node">
<title>Node221</title>
<g id="a_node17"><a xlink:href="quickjs_8c.html#a8353f635fb8a20553c08db8cf38c17e0" target="_top" xlink:title=" ">
<polygon fill="none" stroke="black" points="447,-1138.5 447,-1157.5 578,-1157.5 578,-1138.5 447,-1138.5"/>
<text text-anchor="middle" x="512.5" y="-1145.5" font-family="Helvetica,sans-Serif" font-size="10.00">JS_ThrowStackOverflow</text>
</a>
</g>
</g>
<!-- Node2&#45;&gt;Node221 -->
<g id="edge25" class="edge">
<title>Node2&#45;&gt;Node221</title>
<path fill="none" stroke="midnightblue" d="M209.93,-824.52C233.18,-864.55 328.29,-1021.41 443,-1114 453.01,-1122.08 465.25,-1128.91 476.6,-1134.29"/>
<polygon fill="midnightblue" stroke="midnightblue" points="475.31,-1137.54 485.86,-1138.45 478.18,-1131.16 475.31,-1137.54"/>
</g>
<!-- Node3&#45;&gt;Node3 -->
<g id="edge12" class="edge">
<title>Node3&#45;&gt;Node3</title>
<path fill="none" stroke="midnightblue" d="M328.69,-872.76C317.59,-881.57 325.2,-891 351.5,-891 368.76,-891 377.97,-886.94 379.13,-881.65"/>
<polygon fill="midnightblue" stroke="midnightblue" points="382.15,-879.89 374.31,-872.76 375.99,-883.22 382.15,-879.89"/>
</g>
<!-- Node4 -->
<g id="node4" class="node">
<title>Node4</title>
<g id="a_node4"><a xlink:href="quickjs_8c.html#a853f0924d441ea4225488f37c8b69f9a" target="_top" xlink:title=" ">
<polygon fill="none" stroke="black" points="621.5,-1119.5 621.5,-1138.5 701.5,-1138.5 701.5,-1119.5 621.5,-1119.5"/>
<text text-anchor="middle" x="661.5" y="-1126.5" font-family="Helvetica,sans-Serif" font-size="10.00">__attribute__</text>
</a>
</g>
</g>
<!-- Node3&#45;&gt;Node4 -->
<g id="edge3" class="edge">
<title>Node3&#45;&gt;Node4</title>
<path fill="none" stroke="midnightblue" d="M355.16,-872.53C366.01,-910.82 408.11,-1052.86 443,-1082 468.12,-1102.98 555.28,-1116.78 611.35,-1123.71"/>
<polygon fill="midnightblue" stroke="midnightblue" points="611.08,-1127.2 621.43,-1124.93 611.92,-1120.26 611.08,-1127.2"/>
</g>
<!-- Node5 -->
<g id="node5" class="node">
<title>Node5</title>
<g id="a_node5"><a xlink:href="quickjs_8c.html#a877fcb7651d95b411ce70e62b7f4a1f0" target="_top" xlink:title=" ">
<polygon fill="none" stroke="black" points="450,-1024.5 450,-1043.5 575,-1043.5 575,-1024.5 450,-1024.5"/>
<text text-anchor="middle" x="512.5" y="-1031.5" font-family="Helvetica,sans-Serif" font-size="10.00">__JS_AtomFromUInt32</text>
</a>
</g>
</g>
<!-- Node3&#45;&gt;Node5 -->
<g id="edge4" class="edge">
<title>Node3&#45;&gt;Node5</title>
<path fill="none" stroke="midnightblue" d="M355.37,-872.55C363.95,-899.38 391.99,-976.04 443,-1015 445.47,-1016.89 448.12,-1018.59 450.88,-1020.12"/>
<polygon fill="midnightblue" stroke="midnightblue" points="449.51,-1023.34 460.05,-1024.45 452.51,-1017.01 449.51,-1023.34"/>
</g>
<!-- Node6 -->
<g id="node6" class="node">
<title>Node6</title>
<g id="a_node6"><a xlink:href="quickjs_8h.html#a9bf98b18de88b4199910a43e933eb97d" target="_top" xlink:title=" ">
<polygon fill="none" stroke="black" points="462.5,-986.5 462.5,-1005.5 562.5,-1005.5 562.5,-986.5 462.5,-986.5"/>
<text text-anchor="middle" x="512.5" y="-993.5" font-family="Helvetica,sans-Serif" font-size="10.00">__JS_NewFloat64</text>
</a>
</g>
</g>
<!-- Node3&#45;&gt;Node6 -->
<g id="edge5" class="edge">
<title>Node3&#45;&gt;Node6</title>
<path fill="none" stroke="midnightblue" d="M357.37,-872.64C369.02,-894.67 400.66,-948.94 443,-977 446.12,-979.06 449.45,-980.91 452.91,-982.55"/>
<polygon fill="midnightblue" stroke="midnightblue" points="451.73,-985.85 462.31,-986.45 454.41,-979.38 451.73,-985.85"/>
</g>
<!-- Node7 -->
<g id="node7" class="node">
<title>Node7</title>
<g id="a_node7"><a xlink:href="quickjs_8c.html#a74547db03bf739a52c83a326b32db997" target="_top" xlink:title=" ">
<polygon fill="none" stroke="red" points="472,-948.5 472,-967.5 553,-967.5 553,-948.5 472,-948.5"/>
<text text-anchor="middle" x="512.5" y="-955.5" font-family="Helvetica,sans-Serif" font-size="10.00">add_property</text>
</a>
</g>
</g>
<!-- Node3&#45;&gt;Node7 -->
<g id="edge6" class="edge">
<title>Node3&#45;&gt;Node7</title>
<path fill="none" stroke="midnightblue" d="M361.28,-872.69C376.41,-888.81 409.05,-921.13 443,-939 449.02,-942.17 455.62,-944.85 462.27,-947.11"/>
<polygon fill="midnightblue" stroke="midnightblue" points="461.4,-950.51 471.99,-950.13 463.48,-943.82 461.4,-950.51"/>
</g>
<!-- Node65 -->
<g id="node8" class="node">
<title>Node65</title>
<g id="a_node8"><a xlink:href="quickjs_8c.html#a4956f45ffd2849b96dc051277264f87a" target="_top" xlink:title=" ">
<polygon fill="none" stroke="red" points="471.5,-834.5 471.5,-853.5 553.5,-853.5 553.5,-834.5 471.5,-834.5"/>
<text text-anchor="middle" x="512.5" y="-841.5" font-family="Helvetica,sans-Serif" font-size="10.00">build_arg_list</text>
</a>
</g>
</g>
<!-- Node3&#45;&gt;Node65 -->
<g id="edge7" class="edge">
<title>Node3&#45;&gt;Node65</title>
<path fill="none" stroke="midnightblue" d="M395.11,-857.91C415.43,-855.48 439.87,-852.56 461.1,-850.02"/>
<polygon fill="midnightblue" stroke="midnightblue" points="461.72,-853.47 471.24,-848.81 460.89,-846.52 461.72,-853.47"/>
</g>
<!-- Node3&#45;&gt;Node36 -->
<g id="edge14" class="edge">
<title>Node3&#45;&gt;Node36</title>
<path fill="none" stroke="midnightblue" d="M379.86,-872.61C426.57,-887.11 522.41,-908.39 582,-863 625.15,-830.13 650.57,-657.19 658.11,-597.94"/>
<polygon fill="midnightblue" stroke="midnightblue" points="661.63,-598.03 659.38,-587.68 654.68,-597.17 661.63,-598.03"/>
</g>
<!-- Node3&#45;&gt;Node75 -->
<g id="edge16" class="edge">
<title>Node3&#45;&gt;Node75</title>
<path fill="none" stroke="midnightblue" d="M373.84,-853.34C392.04,-845.28 418.98,-833.74 443,-825 503.77,-802.9 539.58,-830.81 582,-782 647.85,-706.22 592.34,-656.06 618,-559 627.09,-524.62 642.6,-486.16 652.16,-463.85"/>
<polygon fill="midnightblue" stroke="midnightblue" points="655.43,-465.12 656.2,-454.55 649.01,-462.33 655.43,-465.12"/>
</g>
<!-- Node161 -->
<g id="node11" class="node">
<title>Node161</title>
<g id="a_node11"><a xlink:href="quickjs_8c.html#a61c8dfb5e807af1b6ff7d8ca61576dda" target="_top" xlink:title=" ">
<polygon fill="none" stroke="red" points="465.5,-910.5 465.5,-929.5 559.5,-929.5 559.5,-910.5 465.5,-910.5"/>
<text text-anchor="middle" x="512.5" y="-917.5" font-family="Helvetica,sans-Serif" font-size="10.00">build_backtrace</text>
</a>
</g>
</g>
<!-- Node3&#45;&gt;Node161 -->
<g id="edge10" class="edge">
<title>Node3&#45;&gt;Node161</title>
<path fill="none" stroke="midnightblue" d="M378.61,-872.62C396.67,-879.25 421.27,-888.23 443,-896 453.16,-899.63 464.19,-903.52 474.37,-907.09"/>
<polygon fill="midnightblue" stroke="midnightblue" points="473.21,-910.39 483.81,-910.39 475.52,-903.78 473.21,-910.39"/>
</g>
<!-- Node3&#45;&gt;Node76 -->
<g id="edge18" class="edge">
<title>Node3&#45;&gt;Node76</title>
<path fill="none" stroke="midnightblue" d="M353.75,-872.61C358.5,-904.64 378.47,-1008.21 443,-1053 492.9,-1087.63 565.55,-1086.35 612.92,-1080.55"/>
<polygon fill="midnightblue" stroke="midnightblue" points="613.47,-1084.01 622.92,-1079.21 612.54,-1077.07 613.47,-1084.01"/>
</g>
<!-- Node3&#45;&gt;Node219 -->
<g id="edge13" class="edge">
<title>Node3&#45;&gt;Node219</title>
<path fill="none" stroke="midnightblue" d="M357.98,-853.35C370.42,-832.31 402.81,-781.94 443,-754 449.12,-749.75 456.06,-746.18 463.13,-743.21"/>
<polygon fill="midnightblue" stroke="midnightblue" points="464.68,-746.36 472.77,-739.51 462.18,-739.82 464.68,-746.36"/>
</g>
<!-- Node3&#45;&gt;Node57 -->
<g id="edge15" class="edge">
<title>Node3&#45;&gt;Node57</title>
<path fill="none" stroke="midnightblue" d="M360.36,-853.32C374.84,-836.19 407.49,-800.56 443,-782 499.27,-752.59 539.93,-796.55 582,-749 629.86,-694.91 602.11,-496.45 618,-426 626.53,-388.18 642.72,-345.79 652.47,-321.96"/>
<polygon fill="midnightblue" stroke="midnightblue" points="655.72,-323.25 656.33,-312.67 649.26,-320.56 655.72,-323.25"/>
</g>
<!-- Node3&#45;&gt;Node127 -->
<g id="edge17" class="edge">
<title>Node3&#45;&gt;Node127</title>
<path fill="none" stroke="midnightblue" d="M355.37,-853.45C363.95,-826.62 391.99,-749.96 443,-711 447.65,-707.45 452.93,-704.56 458.44,-702.21"/>
<polygon fill="midnightblue" stroke="midnightblue" points="459.69,-705.48 467.87,-698.75 457.27,-698.91 459.69,-705.48"/>
</g>
<!-- Node3&#45;&gt;Node208 -->
<g id="edge19" class="edge">
<title>Node3&#45;&gt;Node208</title>
<path fill="none" stroke="midnightblue" d="M355.47,-853.06C365.39,-820.55 399.2,-714.92 443,-635 458.77,-606.21 481.89,-575.96 496.82,-557.53"/>
<polygon fill="midnightblue" stroke="midnightblue" points="499.59,-559.67 503.24,-549.72 494.18,-555.22 499.59,-559.67"/>
</g>
<!-- Node3&#45;&gt;Node221 -->
<g id="edge21" class="edge">
<title>Node3&#45;&gt;Node221</title>
<path fill="none" stroke="midnightblue" d="M355.54,-872.52C370.23,-918.34 433.44,-1114.4 443,-1124 446.95,-1127.96 451.58,-1131.27 456.55,-1134.03"/>
<polygon fill="midnightblue" stroke="midnightblue" points="455.25,-1137.29 465.78,-1138.44 458.27,-1130.97 455.25,-1137.29"/>
</g>
<!-- Node3&#45;&gt;Node436 -->
<g id="edge23" class="edge">
<title>Node3&#45;&gt;Node436</title>
<path fill="none" stroke="midnightblue" d="M354.17,-853.4C360.11,-822.27 383.12,-723.28 443,-673 450.29,-666.88 459.4,-662.72 468.58,-659.9"/>
<polygon fill="midnightblue" stroke="midnightblue" points="469.68,-663.23 478.48,-657.34 467.92,-656.46 469.68,-663.23"/>
</g>
<!-- Node65&#45;&gt;Node36 -->
<g id="edge8" class="edge">
<title>Node65&#45;&gt;Node36</title>
<path fill="none" stroke="midnightblue" d="M553.63,-836.68C563.97,-833.13 574.34,-827.84 582,-820 644.03,-756.51 657.05,-643.56 659.78,-597.94"/>
<polygon fill="midnightblue" stroke="midnightblue" points="663.28,-598.02 660.27,-587.86 656.28,-597.68 663.28,-598.02"/>
</g>
<!-- Node65&#45;&gt;Node75 -->
<g id="edge9" class="edge">
<title>Node65&#45;&gt;Node75</title>
<path fill="none" stroke="midnightblue" d="M553.86,-837.77C564.46,-834.23 574.9,-828.68 582,-820 619.06,-774.67 603.69,-615.77 618,-559 626.69,-524.52 642.33,-486.09 652.02,-463.82"/>
<polygon fill="midnightblue" stroke="midnightblue" points="655.28,-465.09 656.13,-454.53 648.88,-462.26 655.28,-465.09"/>
</g>
<!-- Node161&#45;&gt;Node76 -->
<g id="edge11" class="edge">
<title>Node161&#45;&gt;Node76</title>
<path fill="none" stroke="midnightblue" d="M559.65,-927.55C567.62,-930.27 575.44,-933.97 582,-939 620.68,-968.65 644.01,-1023.25 654.28,-1052.42"/>
<polygon fill="midnightblue" stroke="midnightblue" points="651.08,-1053.89 657.59,-1062.25 657.72,-1051.66 651.08,-1053.89"/>
</g>
<!-- Node208&#45;&gt;Node57 -->
<g id="edge20" class="edge">
<title>Node208&#45;&gt;Node57</title>
<path fill="none" stroke="midnightblue" d="M527.14,-530.39C542.19,-519.21 566.35,-499.54 582,-478 618.92,-427.2 644.04,-356.27 654.72,-322.44"/>
<polygon fill="midnightblue" stroke="midnightblue" points="658.08,-323.42 657.67,-312.84 651.39,-321.37 658.08,-323.42"/>
</g>
<!-- Node221&#45;&gt;Node4 -->
<g id="edge22" class="edge">
<title>Node221&#45;&gt;Node4</title>
<path fill="none" stroke="midnightblue" d="M578.4,-1139.61C589.36,-1138.19 600.58,-1136.74 611.07,-1135.39"/>
<polygon fill="midnightblue" stroke="midnightblue" points="611.8,-1138.82 621.27,-1134.07 610.9,-1131.88 611.8,-1138.82"/>
</g>
<!-- Node437&#45;&gt;Node75 -->
<g id="edge31" class="edge">
<title>Node437&#45;&gt;Node75</title>
<path fill="none" stroke="midnightblue" d="M391.3,-372.89C396.81,-369.99 402.22,-366.69 407,-363 427,-347.56 420.17,-329.82 443,-319 498.83,-292.54 527.99,-289.01 582,-319 623.16,-341.85 645.55,-396.24 655,-425.53"/>
<polygon fill="midnightblue" stroke="midnightblue" points="651.74,-426.86 658,-435.41 658.44,-424.82 651.74,-426.86"/>
</g>
<!-- Node437&#45;&gt;Node57 -->
<g id="edge30" class="edge">
<title>Node437&#45;&gt;Node57</title>
<path fill="none" stroke="midnightblue" d="M393.42,-372.94C398.32,-370.1 403,-366.8 407,-363 432.07,-339.17 413.42,-311.93 443,-294 499.19,-259.94 579.37,-276.29 625.04,-290.29"/>
<polygon fill="midnightblue" stroke="midnightblue" points="624.2,-293.7 634.79,-293.41 626.33,-287.03 624.2,-293.7"/>
</g>
<!-- Node438 -->
<g id="node20" class="node">
<title>Node438</title>
<g id="a_node20"><a xlink:href="quickjs_8c.html#aa4b0672b30fbf661af60cf49cfadbe8f" target="_top" xlink:title=" ">
<polygon fill="none" stroke="red" points="443,-329 443,-359 582,-359 582,-329 443,-329"/>
<text text-anchor="start" x="451" y="-347" font-family="Helvetica,sans-Serif" font-size="10.00">js_async_generator</text>
<text text-anchor="middle" x="512.5" y="-336" font-family="Helvetica,sans-Serif" font-size="10.00">_resolve_function_create</text>
</a>
</g>
</g>
<!-- Node437&#45;&gt;Node438 -->
<g id="edge27" class="edge">
<title>Node437&#45;&gt;Node438</title>
<path fill="none" stroke="midnightblue" d="M406.77,-372.98C419.88,-369.35 434,-365.45 447.5,-361.71"/>
<polygon fill="midnightblue" stroke="midnightblue" points="448.5,-365.07 457.2,-359.03 446.63,-358.32 448.5,-365.07"/>
</g>
<!-- Node440 -->
<g id="node21" class="node">
<title>Node440</title>
<g id="a_node21"><a xlink:href="quickjs_8c.html#a192c7bd4fc5264ccdf89e13ed5bc0dcc" target="_top" xlink:title=" ">
<polygon fill="none" stroke="red" points="457,-378.5 457,-397.5 568,-397.5 568,-378.5 457,-378.5"/>
<text text-anchor="middle" x="512.5" y="-385.5" font-family="Helvetica,sans-Serif" font-size="10.00">js_promise_resolve</text>
</a>
</g>
</g>
<!-- Node437&#45;&gt;Node440 -->
<g id="edge32" class="edge">
<title>Node437&#45;&gt;Node440</title>
<path fill="none" stroke="midnightblue" d="M407.22,-388C419.91,-388 433.53,-388 446.61,-388"/>
<polygon fill="midnightblue" stroke="midnightblue" points="446.95,-391.5 456.95,-388 446.95,-384.5 446.95,-391.5"/>
</g>
<!-- Node442 -->
<g id="node22" class="node">
<title>Node442</title>
<g id="a_node22"><a xlink:href="quickjs_8c.html#a944c09a3f1ce23a5760b6ed6e83e3644" target="_top" xlink:title=" ">
<polygon fill="none" stroke="red" points="448.5,-416.5 448.5,-435.5 576.5,-435.5 576.5,-416.5 448.5,-416.5"/>
<text text-anchor="middle" x="512.5" y="-423.5" font-family="Helvetica,sans-Serif" font-size="10.00">perform_promise_then</text>
</a>
</g>
</g>
<!-- Node437&#45;&gt;Node442 -->
<g id="edge36" class="edge">
<title>Node437&#45;&gt;Node442</title>
<path fill="none" stroke="midnightblue" d="M407.22,-401.08C424.94,-405.31 444.49,-409.98 461.82,-414.13"/>
<polygon fill="midnightblue" stroke="midnightblue" points="461.2,-417.58 471.74,-416.5 462.83,-410.77 461.2,-417.58"/>
</g>
<!-- Node438&#45;&gt;Node75 -->
<g id="edge29" class="edge">
<title>Node438&#45;&gt;Node75</title>
<path fill="none" stroke="midnightblue" d="M562.6,-359.04C569.33,-361.92 575.99,-365.24 582,-369 607.46,-384.95 631.47,-410.26 646.07,-427.23"/>
<polygon fill="midnightblue" stroke="midnightblue" points="643.7,-429.85 652.81,-435.26 649.06,-425.35 643.7,-429.85"/>
</g>
<!-- Node438&#45;&gt;Node57 -->
<g id="edge28" class="edge">
<title>Node438&#45;&gt;Node57</title>
<path fill="none" stroke="midnightblue" d="M567.4,-328.97C583.53,-324.47 601.03,-319.59 616.45,-315.29"/>
<polygon fill="midnightblue" stroke="midnightblue" points="617.55,-318.61 626.24,-312.55 615.67,-311.87 617.55,-318.61"/>
</g>
<!-- Node440&#45;&gt;Node36 -->
<g id="edge33" class="edge">
<title>Node440&#45;&gt;Node36</title>
<path fill="none" stroke="midnightblue" d="M566.75,-397.64C572.26,-400.09 577.49,-403.16 582,-407 606.6,-427.95 640.07,-518.67 654,-558.79"/>
<polygon fill="midnightblue" stroke="midnightblue" points="650.76,-560.13 657.32,-568.46 657.38,-557.86 650.76,-560.13"/>
</g>
<!-- Node440&#45;&gt;Node75 -->
<g id="edge35" class="edge">
<title>Node440&#45;&gt;Node75</title>
<path fill="none" stroke="midnightblue" d="M552.65,-397.55C562.35,-400.27 572.65,-403.47 582,-407 599.78,-413.71 619,-422.97 633.96,-430.67"/>
<polygon fill="midnightblue" stroke="midnightblue" points="632.65,-433.93 643.13,-435.47 635.89,-427.73 632.65,-433.93"/>
</g>
<!-- Node440&#45;&gt;Node57 -->
<g id="edge34" class="edge">
<title>Node440&#45;&gt;Node57</title>
<path fill="none" stroke="midnightblue" d="M556.22,-378.45C565.01,-375.69 574.01,-372.24 582,-368 605.74,-355.4 628.94,-334.88 643.89,-320.26"/>
<polygon fill="midnightblue" stroke="midnightblue" points="646.71,-322.39 651.29,-312.84 641.75,-317.45 646.71,-322.39"/>
</g>
<!-- Node442&#45;&gt;Node36 -->
<g id="edge37" class="edge">
<title>Node442&#45;&gt;Node36</title>
<path fill="none" stroke="midnightblue" d="M522.7,-435.51C547.03,-460.67 613.37,-529.26 644.26,-561.21"/>
<polygon fill="midnightblue" stroke="midnightblue" points="641.84,-563.74 651.31,-568.5 646.87,-558.87 641.84,-563.74"/>
</g>
<!-- Node447 -->
<g id="node24" class="node">
<title>Node447</title>
<g id="a_node24"><a xlink:href="quickjs_8c.html#ab3180b5caf3b66ac6db634e41e56a4ef" target="_top" xlink:title=" ">
<polygon fill="none" stroke="red" points="303.5,-334.5 303.5,-353.5 399.5,-353.5 399.5,-334.5 303.5,-334.5"/>
<text text-anchor="middle" x="351.5" y="-341.5" font-family="Helvetica,sans-Serif" font-size="10.00">async_func_free</text>
</a>
</g>
</g>
<!-- Node446&#45;&gt;Node447 -->
<g id="edge39" class="edge">
<title>Node446&#45;&gt;Node447</title>
<path fill="none" stroke="midnightblue" d="M259.28,-357.75C270.31,-356.08 281.93,-354.33 293.04,-352.66"/>
<polygon fill="midnightblue" stroke="midnightblue" points="293.71,-356.1 303.08,-351.15 292.67,-349.18 293.71,-356.1"/>
</g>
<!-- Node448&#45;&gt;Node75 -->
<g id="edge43" class="edge">
<title>Node448&#45;&gt;Node75</title>
<path fill="none" stroke="midnightblue" d="M391.99,-465.04C407.63,-470.24 425.93,-475.42 443,-478 504.08,-487.23 521.44,-490.21 582,-478 600.19,-474.33 619.41,-466.33 634.28,-459.12"/>
<polygon fill="midnightblue" stroke="midnightblue" points="636.01,-462.17 643.37,-454.56 632.86,-455.92 636.01,-462.17"/>
</g>
<!-- Node448&#45;&gt;Node57 -->
<g id="edge42" class="edge">
<title>Node448&#45;&gt;Node57</title>
<path fill="none" stroke="midnightblue" d="M407.27,-463.29C456.63,-472.08 529.31,-476.86 582,-445 627.07,-417.75 648.18,-354.57 656.28,-322.47"/>
<polygon fill="midnightblue" stroke="midnightblue" points="659.74,-323.06 658.63,-312.52 652.93,-321.45 659.74,-323.06"/>
</g>
<!-- Node448&#45;&gt;Node438 -->
<g id="edge41" class="edge">
<title>Node448&#45;&gt;Node438</title>
<path fill="none" stroke="midnightblue" d="M377.14,-434.84C386.88,-428.34 397.9,-420.33 407,-412 425.38,-395.17 422.6,-383.32 443,-369 445.69,-367.11 448.55,-365.34 451.5,-363.7"/>
<polygon fill="midnightblue" stroke="midnightblue" points="453.24,-366.74 460.6,-359.12 450.09,-360.49 453.24,-366.74"/>
</g>
<!-- Node448&#45;&gt;Node440 -->
<g id="edge44" class="edge">
<title>Node448&#45;&gt;Node440</title>
<path fill="none" stroke="midnightblue" d="M380.89,-434.95C398.45,-426.04 421.65,-414.96 443,-407 449.29,-404.65 456.01,-402.44 462.68,-400.42"/>
<polygon fill="midnightblue" stroke="midnightblue" points="463.74,-403.76 472.36,-397.6 461.78,-397.04 463.74,-403.76"/>
</g>
<!-- Node448&#45;&gt;Node442 -->
<g id="edge45" class="edge">
<title>Node448&#45;&gt;Node442</title>
<path fill="none" stroke="midnightblue" d="M407.22,-441.74C417.29,-440.22 427.96,-438.61 438.47,-437.02"/>
<polygon fill="midnightblue" stroke="midnightblue" points="439.12,-440.47 448.48,-435.51 438.07,-433.54 439.12,-440.47"/>
</g>
<!-- Node450 -->
<g id="node27" class="node">
<title>Node450</title>
<g id="a_node27"><a xlink:href="quickjs_8c.html#a3e852026d167fa03c673f86697dd3e67" target="_top" xlink:title=" ">
<polygon fill="none" stroke="red" points="457,-77 457,-107 568,-107 568,-77 457,-77"/>
<text text-anchor="start" x="465" y="-95" font-family="Helvetica,sans-Serif" font-size="10.00">js_async_generator</text>
<text text-anchor="middle" x="512.5" y="-84" font-family="Helvetica,sans-Serif" font-size="10.00">_resolve_or_reject</text>
</a>
</g>
</g>
<!-- Node449&#45;&gt;Node450 -->
<g id="edge47" class="edge">
<title>Node449&#45;&gt;Node450</title>
<path fill="none" stroke="midnightblue" d="M259.03,-153.68C311.7,-140.81 391.46,-121.33 447.19,-107.71"/>
<polygon fill="midnightblue" stroke="midnightblue" points="448.08,-111.1 456.96,-105.32 446.42,-104.3 448.08,-111.1"/>
</g>
<!-- Node450&#45;&gt;Node57 -->
<g id="edge48" class="edge">
<title>Node450&#45;&gt;Node57</title>
<path fill="none" stroke="midnightblue" d="M560.69,-107.02C568.47,-111 575.95,-115.93 582,-122 628.45,-168.62 649.39,-247.21 656.95,-283.52"/>
<polygon fill="midnightblue" stroke="midnightblue" points="653.52,-284.22 658.88,-293.36 660.39,-282.87 653.52,-284.22"/>
</g>
<!-- Node451&#45;&gt;Node36 -->
<g id="edge54" class="edge">
<title>Node451&#45;&gt;Node36</title>
<path fill="none" stroke="midnightblue" d="M397.36,-195.11C449.75,-215.1 535.18,-255.42 582,-319 621.38,-372.47 598.37,-400.57 618,-464 628.51,-497.97 643.58,-536.56 652.66,-559"/>
<polygon fill="midnightblue" stroke="midnightblue" points="649.46,-560.43 656.48,-568.37 655.95,-557.79 649.46,-560.43"/>
</g>
<!-- Node451&#45;&gt;Node57 -->
<g id="edge55" class="edge">
<title>Node451&#45;&gt;Node57</title>
<path fill="none" stroke="midnightblue" d="M384.83,-164.87C431.83,-145.28 520.18,-117.81 582,-155 629.02,-183.29 649.37,-250.27 656.82,-283.54"/>
<polygon fill="midnightblue" stroke="midnightblue" points="653.42,-284.35 658.88,-293.43 660.27,-282.93 653.42,-284.35"/>
</g>
<!-- Node451&#45;&gt;Node450 -->
<g id="edge50" class="edge">
<title>Node451&#45;&gt;Node450</title>
<path fill="none" stroke="midnightblue" d="M373.87,-164.95C391.85,-152.62 418.48,-135.12 443,-122 449.92,-118.3 457.4,-114.67 464.77,-111.29"/>
<polygon fill="midnightblue" stroke="midnightblue" points="466.32,-114.43 474.02,-107.15 463.46,-108.04 466.32,-114.43"/>
</g>
<!-- Node452 -->
<g id="node29" class="node">
<title>Node452</title>
<g id="a_node29"><a xlink:href="quickjs_8c.html#a7346b86113acd072c9cfc8d238c4ff7c" target="_top" xlink:title=" ">
<polygon fill="none" stroke="red" points="461.5,-165 461.5,-195 563.5,-195 563.5,-165 461.5,-165"/>
<text text-anchor="start" x="469.5" y="-183" font-family="Helvetica,sans-Serif" font-size="10.00">js_create_iterator</text>
<text text-anchor="middle" x="512.5" y="-172" font-family="Helvetica,sans-Serif" font-size="10.00">_result</text>
</a>
</g>
</g>
<!-- Node451&#45;&gt;Node452 -->
<g id="edge51" class="edge">
<title>Node451&#45;&gt;Node452</title>
<path fill="none" stroke="midnightblue" d="M407.22,-180C421.39,-180 436.72,-180 451.16,-180"/>
<polygon fill="midnightblue" stroke="midnightblue" points="451.48,-183.5 461.48,-180 451.48,-176.5 451.48,-183.5"/>
</g>
<!-- Node452&#45;&gt;Node75 -->
<g id="edge53" class="edge">
<title>Node452&#45;&gt;Node75</title>
<path fill="none" stroke="midnightblue" d="M562.25,-195.09C569.59,-199.03 576.52,-203.93 582,-210 617.04,-248.8 601.46,-272.4 618,-322 630.27,-358.8 645.2,-401.57 653.7,-425.74"/>
<polygon fill="midnightblue" stroke="midnightblue" points="650.5,-427.19 657.12,-435.45 657.1,-424.86 650.5,-427.19"/>
</g>
<!-- Node452&#45;&gt;Node57 -->
<g id="edge52" class="edge">
<title>Node452&#45;&gt;Node57</title>
<path fill="none" stroke="midnightblue" d="M556.11,-195.05C565.09,-199.19 574.2,-204.18 582,-210 610.34,-231.15 635.17,-264.4 648.98,-284.88"/>
<polygon fill="midnightblue" stroke="midnightblue" points="646.1,-286.87 654.51,-293.31 651.95,-283.03 646.1,-286.87"/>
</g>
</g>
</svg>
        <g id="navigator" transform="translate(0 0)" fill="#404254">
                <rect fill="#f2f5e9" fill-opacity="0.5" stroke="#606060" stroke-width=".5" x="0" y="0" width="60" height="60"/>
                <use id="zoomplus" xlink:href="#zoomPlus" x="17" y="9" onmousedown="handleZoom(evt,'in')"/>
                <use id="zoomminus" xlink:href="#zoomMin" x="42" y="9" onmousedown="handleZoom(evt,'out')"/>
                <use id="reset" xlink:href="#resetDef" x="30" y="36" onmousedown="handleReset()"/>
                <g id="arrowUp" xlink:href="#dirArrow" transform="translate(30 24)" onmousedown="handlePan(0,-1)">
                  <use xlink:href="#rim" fill="#404040">
                        <set attributeName="fill" to="#808080" begin="arrowUp.mouseover" end="arrowUp.mouseout"/>
                  </use>
                  <path fill="none" stroke="white" stroke-width="1.5" d="M0,-3.0v7 M-2.5,-0.5L0,-3.0L2.5,-0.5"/>
                </g>
                <g id="arrowRight" xlink:href="#dirArrow" transform="rotate(90) translate(36 -43)" onmousedown="handlePan(1,0)">
                  <use xlink:href="#rim" fill="#404040">
                        <set attributeName="fill" to="#808080" begin="arrowRight.mouseover" end="arrowRight.mouseout"/>
                  </use>
                  <path fill="none" stroke="white" stroke-width="1.5" d="M0,-3.0v7 M-2.5,-0.5L0,-3.0L2.5,-0.5"/>
                </g>
                <g id="arrowDown" xlink:href="#dirArrow" transform="rotate(180) translate(-30 -48)" onmousedown="handlePan(0,1)">
                  <use xlink:href="#rim" fill="#404040">
                        <set attributeName="fill" to="#808080" begin="arrowDown.mouseover" end="arrowDown.mouseout"/>
                  </use>
                  <path fill="none" stroke="white" stroke-width="1.5" d="M0,-3.0v7 M-2.5,-0.5L0,-3.0L2.5,-0.5"/>
                </g>
                <g id="arrowLeft" xlink:href="#dirArrow" transform="rotate(270) translate(-36 17)" onmousedown="handlePan(-1,0)">
                  <use xlink:href="#rim" fill="#404040">
                        <set attributeName="fill" to="#808080" begin="arrowLeft.mouseover" end="arrowLeft.mouseout"/>
                  </use>
                  <path fill="none" stroke="white" stroke-width="1.5" d="M0,-3.0v7 M-2.5,-0.5L0,-3.0L2.5,-0.5"/>
                </g>
        </g>
        <svg viewBox="0 0 15 15" width="100%" height="30px" preserveAspectRatio="xMaxYMin meet">
         <g id="arrow_out" transform="scale(0.3 0.3)">
          <a xlink:href="quickjs_8c_a89b019c704a2d2914bc30b30a72040b3_cgraph_org.svg" target="_base">
           <rect id="button" ry="5" rx="5" y="6" x="6" height="38" width="38"
                fill="#f2f5e9" fill-opacity="0.5" stroke="#606060" stroke-width="1.0"/>
           <path id="arrow"
             d="M 11.500037,31.436501 C 11.940474,20.09759 22.043105,11.32322 32.158766,21.979434 L 37.068811,17.246167 C 37.068811,17.246167 37.088388,32 37.088388,32 L 22.160133,31.978069 C 22.160133,31.978069 26.997745,27.140456 26.997745,27.140456 C 18.528582,18.264221 13.291696,25.230495 11.500037,31.436501 z"
             style="fill:#404040;"/>
          </a>
         </g>
        </svg>
</svg>
