<?xml version="1.0" encoding="UTF-8" standalone="no"?>
<!DOCTYPE svg PUBLIC "-//W3C//DTD SVG 1.1//EN"
 "http://www.w3.org/Graphics/SVG/1.1/DTD/svg11.dtd">
<!-- Generated by graphviz version 2.43.0 (0)
 -->
<!-- Title: set_eval_ret_undefined Pages: 1 -->
<svg width="450pt" height="104pt"
 viewBox="0.00 0.00 450.00 104.00" xmlns="http://www.w3.org/2000/svg" xmlns:xlink="http://www.w3.org/1999/xlink">
<g id="graph0" class="graph" transform="scale(1 1) rotate(0) translate(4 100)">
<title>set_eval_ret_undefined</title>
<!-- Node1 -->
<g id="node1" class="node">
<title>Node1</title>
<g id="a_node1"><a xlink:title=" ">
<polygon fill="#bfbfbf" stroke="black" points="0,-19.5 0,-38.5 130,-38.5 130,-19.5 0,-19.5"/>
<text text-anchor="middle" x="65" y="-26.5" font-family="Helvetica,sans-Serif" font-size="10.00">set_eval_ret_undefined</text>
</a>
</g>
</g>
<!-- Node2 -->
<g id="node2" class="node">
<title>Node2</title>
<g id="a_node2"><a xlink:href="quickjs_8c.html#a832fb9c17eacb588e93f333cf8b76522" target="_top" xlink:title=" ">
<polygon fill="none" stroke="black" points="169,-38.5 169,-57.5 225,-57.5 225,-38.5 169,-38.5"/>
<text text-anchor="middle" x="197" y="-45.5" font-family="Helvetica,sans-Serif" font-size="10.00">emit_op</text>
</a>
</g>
</g>
<!-- Node1&#45;&gt;Node2 -->
<g id="edge1" class="edge">
<title>Node1&#45;&gt;Node2</title>
<path fill="none" stroke="midnightblue" d="M130.24,-38.39C139.99,-39.81 149.76,-41.24 158.67,-42.54"/>
<polygon fill="midnightblue" stroke="midnightblue" points="158.29,-46.03 168.69,-44.01 159.3,-39.1 158.29,-46.03"/>
</g>
<!-- Node7 -->
<g id="node6" class="node">
<title>Node7</title>
<g id="a_node6"><a xlink:href="quickjs_8c.html#a50b5ef50e38aaeb8cba27214601474c7" target="_top" xlink:title=" ">
<polygon fill="none" stroke="black" points="166,-0.5 166,-19.5 228,-19.5 228,-0.5 166,-0.5"/>
<text text-anchor="middle" x="197" y="-7.5" font-family="Helvetica,sans-Serif" font-size="10.00">emit_u16</text>
</a>
</g>
</g>
<!-- Node1&#45;&gt;Node7 -->
<g id="edge6" class="edge">
<title>Node1&#45;&gt;Node7</title>
<path fill="none" stroke="midnightblue" d="M130.24,-19.61C138.96,-18.34 147.71,-17.06 155.84,-15.87"/>
<polygon fill="midnightblue" stroke="midnightblue" points="156.38,-19.33 165.77,-14.42 155.37,-12.4 156.38,-19.33"/>
</g>
<!-- Node3 -->
<g id="node3" class="node">
<title>Node3</title>
<g id="a_node3"><a xlink:href="cutils_8h.html#a8ba08f82c43549fcb3c939229498354d" target="_top" xlink:title=" ">
<polygon fill="none" stroke="black" points="264,-76.5 264,-95.5 347,-95.5 347,-76.5 264,-76.5"/>
<text text-anchor="middle" x="305.5" y="-83.5" font-family="Helvetica,sans-Serif" font-size="10.00">dbuf_put_u32</text>
</a>
</g>
</g>
<!-- Node2&#45;&gt;Node3 -->
<g id="edge2" class="edge">
<title>Node2&#45;&gt;Node3</title>
<path fill="none" stroke="midnightblue" d="M224.87,-57.59C237.99,-62.27 253.97,-67.97 268.15,-73.03"/>
<polygon fill="midnightblue" stroke="midnightblue" points="267.04,-76.35 277.63,-76.41 269.39,-69.76 267.04,-76.35"/>
</g>
<!-- Node6 -->
<g id="node5" class="node">
<title>Node6</title>
<g id="a_node5"><a xlink:href="cutils_8h.html#aeed81d4787ccdbd55baa9b5fd6717e88" target="_top" xlink:title=" ">
<polygon fill="none" stroke="black" points="273,-38.5 273,-57.5 338,-57.5 338,-38.5 273,-38.5"/>
<text text-anchor="middle" x="305.5" y="-45.5" font-family="Helvetica,sans-Serif" font-size="10.00">dbuf_putc</text>
</a>
</g>
</g>
<!-- Node2&#45;&gt;Node6 -->
<g id="edge4" class="edge">
<title>Node2&#45;&gt;Node6</title>
<path fill="none" stroke="midnightblue" d="M225.15,-48C236.51,-48 249.98,-48 262.57,-48"/>
<polygon fill="midnightblue" stroke="midnightblue" points="262.86,-51.5 272.86,-48 262.86,-44.5 262.86,-51.5"/>
</g>
<!-- Node4 -->
<g id="node4" class="node">
<title>Node4</title>
<g id="a_node4"><a xlink:href="cutils_8h.html#ad1cfaae47347ae771136b5a9bbda49aa" target="_top" xlink:title=" ">
<polygon fill="none" stroke="red" points="383,-38.5 383,-57.5 442,-57.5 442,-38.5 383,-38.5"/>
<text text-anchor="middle" x="412.5" y="-45.5" font-family="Helvetica,sans-Serif" font-size="10.00">dbuf_put</text>
</a>
</g>
</g>
<!-- Node3&#45;&gt;Node4 -->
<g id="edge3" class="edge">
<title>Node3&#45;&gt;Node4</title>
<path fill="none" stroke="midnightblue" d="M333,-76.41C345.8,-71.78 361.38,-66.14 375.26,-61.11"/>
<polygon fill="midnightblue" stroke="midnightblue" points="376.8,-64.28 385.01,-57.59 374.42,-57.7 376.8,-64.28"/>
</g>
<!-- Node6&#45;&gt;Node4 -->
<g id="edge5" class="edge">
<title>Node6&#45;&gt;Node4</title>
<path fill="none" stroke="midnightblue" d="M338,-48C348.92,-48 361.28,-48 372.71,-48"/>
<polygon fill="midnightblue" stroke="midnightblue" points="372.88,-51.5 382.88,-48 372.88,-44.5 372.88,-51.5"/>
</g>
<!-- Node8 -->
<g id="node7" class="node">
<title>Node8</title>
<g id="a_node7"><a xlink:href="cutils_8h.html#a31a6b9f8517a73d45e976d8a026e964e" target="_top" xlink:title=" ">
<polygon fill="none" stroke="black" points="264,-0.5 264,-19.5 347,-19.5 347,-0.5 264,-0.5"/>
<text text-anchor="middle" x="305.5" y="-7.5" font-family="Helvetica,sans-Serif" font-size="10.00">dbuf_put_u16</text>
</a>
</g>
</g>
<!-- Node7&#45;&gt;Node8 -->
<g id="edge7" class="edge">
<title>Node7&#45;&gt;Node8</title>
<path fill="none" stroke="midnightblue" d="M228.23,-10C236.19,-10 244.99,-10 253.71,-10"/>
<polygon fill="midnightblue" stroke="midnightblue" points="253.85,-13.5 263.85,-10 253.85,-6.5 253.85,-13.5"/>
</g>
<!-- Node8&#45;&gt;Node4 -->
<g id="edge8" class="edge">
<title>Node8&#45;&gt;Node4</title>
<path fill="none" stroke="midnightblue" d="M333,-19.59C345.8,-24.22 361.38,-29.86 375.26,-34.89"/>
<polygon fill="midnightblue" stroke="midnightblue" points="374.42,-38.3 385.01,-38.41 376.8,-31.72 374.42,-38.3"/>
</g>
</g>
</svg>
