<?xml version="1.0" encoding="UTF-8" standalone="no"?>
<!DOCTYPE svg PUBLIC "-//W3C//DTD SVG 1.1//EN"
 "http://www.w3.org/Graphics/SVG/1.1/DTD/svg11.dtd">
<!-- Generated by graphviz version 2.43.0 (0)
 -->
<!-- Title: js_arguments_define_own_property Pages: 1 -->
<svg width="949pt" height="927pt"
 viewBox="0.00 0.00 949.00 926.94" xmlns="http://www.w3.org/2000/svg" xmlns:xlink="http://www.w3.org/1999/xlink">
<g id="graph0" class="graph" transform="scale(1 1) rotate(0) translate(4 922.94)">
<title>js_arguments_define_own_property</title>
<!-- Node1 -->
<g id="node1" class="node">
<title>Node1</title>
<g id="a_node1"><a xlink:title=" ">
<polygon fill="#bfbfbf" stroke="black" points="0,-450.94 0,-480.94 118,-480.94 118,-450.94 0,-450.94"/>
<text text-anchor="start" x="8" y="-468.94" font-family="Helvetica,sans-Serif" font-size="10.00">js_arguments_define</text>
<text text-anchor="middle" x="59" y="-457.94" font-family="Helvetica,sans-Serif" font-size="10.00">_own_property</text>
</a>
</g>
</g>
<!-- Node2 -->
<g id="node2" class="node">
<title>Node2</title>
<g id="a_node2"><a xlink:href="quickjs_8c.html#ac93c982cb636a5430b191d104083af3e" target="_top" xlink:title=" ">
<polygon fill="none" stroke="black" points="520.5,-855.94 520.5,-885.94 628.5,-885.94 628.5,-855.94 520.5,-855.94"/>
<text text-anchor="start" x="528.5" y="-873.94" font-family="Helvetica,sans-Serif" font-size="10.00">convert_fast_array</text>
<text text-anchor="middle" x="574.5" y="-862.94" font-family="Helvetica,sans-Serif" font-size="10.00">_to_array</text>
</a>
</g>
</g>
<!-- Node1&#45;&gt;Node2 -->
<g id="edge1" class="edge">
<title>Node1&#45;&gt;Node2</title>
<path fill="none" stroke="midnightblue" d="M62.92,-480.98C76.04,-543.89 135.93,-786.82 294,-878.94 362.99,-919.14 458.71,-904.38 518.33,-888.69"/>
<polygon fill="midnightblue" stroke="midnightblue" points="519.58,-891.98 528.3,-885.97 517.73,-885.22 519.58,-891.98"/>
</g>
<!-- Node64 -->
<g id="node9" class="node">
<title>Node64</title>
<g id="a_node9"><a xlink:href="quickjs_8c.html#aae16c5cdefab4e9dd9866993a7f0150e" target="_top" xlink:title=" ">
<polygon fill="none" stroke="black" points="515,-57.44 515,-76.44 634,-76.44 634,-57.44 515,-57.44"/>
<text text-anchor="middle" x="574.5" y="-64.44" font-family="Helvetica,sans-Serif" font-size="10.00">JS_AtomIsArrayIndex</text>
</a>
</g>
</g>
<!-- Node1&#45;&gt;Node64 -->
<g id="edge9" class="edge">
<title>Node1&#45;&gt;Node64</title>
<path fill="none" stroke="midnightblue" d="M63.45,-450.92C78.26,-390.24 142.77,-162.31 294,-73.94 366.35,-31.66 468.22,-43.22 526.9,-55.23"/>
<polygon fill="midnightblue" stroke="midnightblue" points="526.48,-58.72 536.99,-57.39 527.94,-51.88 526.48,-58.72"/>
</g>
<!-- Node68 -->
<g id="node13" class="node">
<title>Node68</title>
<g id="a_node13"><a xlink:href="quickjs_8c.html#ab50618f1bf78e444caa6da0e3e2785d7" target="_top" xlink:title=" ">
<polygon fill="none" stroke="red" points="154,-456.44 154,-475.44 258,-475.44 258,-456.44 154,-456.44"/>
<text text-anchor="middle" x="206" y="-463.44" font-family="Helvetica,sans-Serif" font-size="10.00">JS_DefineProperty</text>
</a>
</g>
</g>
<!-- Node1&#45;&gt;Node68 -->
<g id="edge13" class="edge">
<title>Node1&#45;&gt;Node68</title>
<path fill="none" stroke="midnightblue" d="M118.14,-465.94C126.54,-465.94 135.21,-465.94 143.68,-465.94"/>
<polygon fill="midnightblue" stroke="midnightblue" points="143.86,-469.44 153.86,-465.94 143.86,-462.44 143.86,-469.44"/>
</g>
<!-- Node3 -->
<g id="node3" class="node">
<title>Node3</title>
<g id="a_node3"><a xlink:href="quickjs_8c.html#a877fcb7651d95b411ce70e62b7f4a1f0" target="_top" xlink:title=" ">
<polygon fill="none" stroke="black" points="678,-823.44 678,-842.44 803,-842.44 803,-823.44 678,-823.44"/>
<text text-anchor="middle" x="740.5" y="-830.44" font-family="Helvetica,sans-Serif" font-size="10.00">__JS_AtomFromUInt32</text>
</a>
</g>
</g>
<!-- Node2&#45;&gt;Node3 -->
<g id="edge2" class="edge">
<title>Node2&#45;&gt;Node3</title>
<path fill="none" stroke="midnightblue" d="M628.75,-858.6C647.93,-854.16 669.52,-849.15 688.51,-844.75"/>
<polygon fill="midnightblue" stroke="midnightblue" points="689.52,-848.11 698.47,-842.45 687.94,-841.29 689.52,-848.11"/>
</g>
<!-- Node4 -->
<g id="node4" class="node">
<title>Node4</title>
<g id="a_node4"><a xlink:href="quickjs_8c.html#a74547db03bf739a52c83a326b32db997" target="_top" xlink:title=" ">
<polygon fill="none" stroke="red" points="700,-456.44 700,-475.44 781,-475.44 781,-456.44 700,-456.44"/>
<text text-anchor="middle" x="740.5" y="-463.44" font-family="Helvetica,sans-Serif" font-size="10.00">add_property</text>
</a>
</g>
</g>
<!-- Node2&#45;&gt;Node4 -->
<g id="edge3" class="edge">
<title>Node2&#45;&gt;Node4</title>
<path fill="none" stroke="midnightblue" d="M582.84,-855.83C594.86,-830.63 618.89,-778.23 634,-731.94 655.54,-665.94 643.6,-644.15 670,-579.94 684.96,-543.55 710.64,-505.29 726.24,-483.65"/>
<polygon fill="midnightblue" stroke="midnightblue" points="729.17,-485.58 732.25,-475.44 723.52,-481.44 729.17,-485.58"/>
</g>
<!-- Node18 -->
<g id="node5" class="node">
<title>Node18</title>
<g id="a_node5"><a xlink:href="quickjs_8c.html#a80e54dcf9ac687d4ccc2f90273565f30" target="_top" xlink:title=" ">
<polygon fill="none" stroke="red" points="869,-880.44 869,-899.44 919,-899.44 919,-880.44 869,-880.44"/>
<text text-anchor="middle" x="894" y="-887.44" font-family="Helvetica,sans-Serif" font-size="10.00">js_free</text>
</a>
</g>
</g>
<!-- Node2&#45;&gt;Node18 -->
<g id="edge4" class="edge">
<title>Node2&#45;&gt;Node18</title>
<path fill="none" stroke="midnightblue" d="M628.64,-874.12C694.15,-878.04 803.57,-884.59 858.83,-887.89"/>
<polygon fill="midnightblue" stroke="midnightblue" points="858.63,-891.39 868.82,-888.49 859.05,-884.4 858.63,-891.39"/>
</g>
<!-- Node63 -->
<g id="node6" class="node">
<title>Node63</title>
<g id="a_node6"><a xlink:href="quickjs_8c.html#a3dd8e78607dbc729614deacf55901b95" target="_top" xlink:title=" ">
<polygon fill="none" stroke="red" points="670,-782.44 670,-801.44 811,-801.44 811,-782.44 670,-782.44"/>
<text text-anchor="middle" x="740.5" y="-789.44" font-family="Helvetica,sans-Serif" font-size="10.00">js_shape_prepare_update</text>
</a>
</g>
</g>
<!-- Node2&#45;&gt;Node63 -->
<g id="edge5" class="edge">
<title>Node2&#45;&gt;Node63</title>
<path fill="none" stroke="midnightblue" d="M607.31,-855.86C616.13,-851.35 625.58,-846.2 634,-840.94 650.96,-830.34 652.21,-823.09 670,-813.94 676.81,-810.44 684.28,-807.36 691.72,-804.71"/>
<polygon fill="midnightblue" stroke="midnightblue" points="693.05,-807.95 701.43,-801.46 690.83,-801.31 693.05,-807.95"/>
</g>
<!-- Node14 -->
<g id="node8" class="node">
<title>Node14</title>
<g id="a_node8"><a xlink:href="quickjs_8c.html#aa80740ff93b724ea7e0c280826f4a25a" target="_top" xlink:title=" ">
<polygon fill="none" stroke="red" points="690,-899.44 690,-918.44 791,-918.44 791,-899.44 690,-899.44"/>
<text text-anchor="middle" x="740.5" y="-906.44" font-family="Helvetica,sans-Serif" font-size="10.00">resize_properties</text>
</a>
</g>
</g>
<!-- Node2&#45;&gt;Node14 -->
<g id="edge7" class="edge">
<title>Node2&#45;&gt;Node14</title>
<path fill="none" stroke="midnightblue" d="M628.75,-883.28C647.93,-887.72 669.52,-892.72 688.51,-897.12"/>
<polygon fill="midnightblue" stroke="midnightblue" points="687.94,-900.58 698.47,-899.43 689.52,-893.76 687.94,-900.58"/>
</g>
<!-- Node7 -->
<g id="node7" class="node">
<title>Node7</title>
<g id="a_node7"><a xlink:href="quickjs_8c.html#a643df594b75933007bcdbb071b5ea8c5" target="_top" xlink:title=" ">
<polygon fill="none" stroke="black" points="847,-513.44 847,-532.44 941,-532.44 941,-513.44 847,-513.44"/>
<text text-anchor="middle" x="894" y="-520.44" font-family="Helvetica,sans-Serif" font-size="10.00">get_shape_prop</text>
</a>
</g>
</g>
<!-- Node63&#45;&gt;Node7 -->
<g id="edge6" class="edge">
<title>Node63&#45;&gt;Node7</title>
<path fill="none" stroke="midnightblue" d="M783.28,-782.39C793.41,-778.4 803.48,-772.79 811,-764.94 872.64,-700.53 888.04,-588.11 891.81,-542.75"/>
<polygon fill="midnightblue" stroke="midnightblue" points="895.3,-542.96 892.54,-532.73 888.32,-542.45 895.3,-542.96"/>
</g>
<!-- Node14&#45;&gt;Node18 -->
<g id="edge8" class="edge">
<title>Node14&#45;&gt;Node18</title>
<path fill="none" stroke="midnightblue" d="M791.11,-902.72C813.2,-899.95 838.67,-896.75 858.62,-894.25"/>
<polygon fill="midnightblue" stroke="midnightblue" points="859.3,-897.69 868.79,-892.97 858.43,-890.75 859.3,-897.69"/>
</g>
<!-- Node6 -->
<g id="node10" class="node">
<title>Node6</title>
<g id="a_node10"><a xlink:href="quickjs_8c.html#a288254c06a39c9fca740a7abdad2834e" target="_top" xlink:title=" ">
<polygon fill="none" stroke="black" points="679,-370.44 679,-389.44 802,-389.44 802,-370.44 679,-370.44"/>
<text text-anchor="middle" x="740.5" y="-377.44" font-family="Helvetica,sans-Serif" font-size="10.00">__JS_AtomIsTaggedInt</text>
</a>
</g>
</g>
<!-- Node64&#45;&gt;Node6 -->
<g id="edge10" class="edge">
<title>Node64&#45;&gt;Node6</title>
<path fill="none" stroke="midnightblue" d="M588.16,-76.65C601.12,-87.14 621.13,-104.91 634,-123.94 648.2,-144.93 710.61,-305.09 732.15,-360.86"/>
<polygon fill="midnightblue" stroke="midnightblue" points="728.92,-362.21 735.79,-370.28 735.45,-359.69 728.92,-362.21"/>
</g>
<!-- Node65 -->
<g id="node11" class="node">
<title>Node65</title>
<g id="a_node11"><a xlink:href="quickjs_8c.html#a89f38938cee8077ce1fbba07946ed185" target="_top" xlink:title=" ">
<polygon fill="none" stroke="black" points="685.5,-171.44 685.5,-190.44 795.5,-190.44 795.5,-171.44 685.5,-171.44"/>
<text text-anchor="middle" x="740.5" y="-178.44" font-family="Helvetica,sans-Serif" font-size="10.00">__JS_AtomToUInt32</text>
</a>
</g>
</g>
<!-- Node64&#45;&gt;Node65 -->
<g id="edge11" class="edge">
<title>Node64&#45;&gt;Node65</title>
<path fill="none" stroke="midnightblue" d="M603.75,-76.44C613.65,-80.31 624.63,-85.22 634,-90.94 668.68,-112.1 703.48,-144.47 723.18,-164.08"/>
<polygon fill="midnightblue" stroke="midnightblue" points="720.89,-166.74 730.41,-171.39 725.87,-161.82 720.89,-166.74"/>
</g>
<!-- Node66 -->
<g id="node12" class="node">
<title>Node66</title>
<g id="a_node12"><a xlink:href="quickjs_8c.html#a1eaea8fa2599700598076ea84f1afcf3" target="_top" xlink:title=" ">
<polygon fill="none" stroke="red" points="698,-57.44 698,-76.44 783,-76.44 783,-57.44 698,-57.44"/>
<text text-anchor="middle" x="740.5" y="-64.44" font-family="Helvetica,sans-Serif" font-size="10.00">is_num_string</text>
</a>
</g>
</g>
<!-- Node64&#45;&gt;Node66 -->
<g id="edge12" class="edge">
<title>Node64&#45;&gt;Node66</title>
<path fill="none" stroke="midnightblue" d="M634.24,-66.94C651.67,-66.94 670.63,-66.94 687.6,-66.94"/>
<polygon fill="midnightblue" stroke="midnightblue" points="687.87,-70.44 697.87,-66.94 687.87,-63.44 687.87,-70.44"/>
</g>
<!-- Node68&#45;&gt;Node2 -->
<g id="edge18" class="edge">
<title>Node68&#45;&gt;Node2</title>
<path fill="none" stroke="midnightblue" d="M207.76,-475.53C212.19,-529.03 236.59,-790.09 294,-840.94 352.57,-892.82 447.4,-891.48 510.11,-883.24"/>
<polygon fill="midnightblue" stroke="midnightblue" points="510.85,-886.67 520.27,-881.81 509.88,-879.74 510.85,-886.67"/>
</g>
<!-- Node68&#45;&gt;Node63 -->
<g id="edge55" class="edge">
<title>Node68&#45;&gt;Node63</title>
<path fill="none" stroke="midnightblue" d="M207.94,-475.64C213.08,-526.4 239.54,-760.75 294,-802.94 351.75,-847.68 566.75,-820.42 675.55,-803.05"/>
<polygon fill="midnightblue" stroke="midnightblue" points="676.11,-806.5 685.42,-801.45 674.99,-799.59 676.11,-806.5"/>
</g>
<!-- Node68&#45;&gt;Node7 -->
<g id="edge23" class="edge">
<title>Node68&#45;&gt;Node7</title>
<path fill="none" stroke="midnightblue" d="M208.22,-475.63C214.45,-523.34 244.36,-732.51 294,-769.94 359.65,-819.44 397.37,-779.8 479,-769.94 640.11,-750.48 688.51,-724.39 811,-617.94 838.38,-594.14 864.83,-561.11 879.98,-540.93"/>
<polygon fill="midnightblue" stroke="midnightblue" points="882.98,-542.76 886.11,-532.64 877.35,-538.6 882.98,-542.76"/>
</g>
<!-- Node68&#45;&gt;Node6 -->
<g id="edge15" class="edge">
<title>Node68&#45;&gt;Node6</title>
<path fill="none" stroke="midnightblue" d="M258.1,-469.58C312.93,-472.64 402.47,-475.18 479,-465.94 549.42,-457.43 566.98,-451.17 634,-427.94 661.37,-418.45 691.32,-404.46 712.29,-394.02"/>
<polygon fill="midnightblue" stroke="midnightblue" points="713.9,-397.13 721.25,-389.51 710.75,-390.88 713.9,-397.13"/>
</g>
<!-- Node68&#45;&gt;Node65 -->
<g id="edge16" class="edge">
<title>Node68&#45;&gt;Node65</title>
<path fill="none" stroke="midnightblue" d="M207.98,-456.36C213.33,-406.22 240.72,-174.68 294,-131.94 411.9,-37.36 487.46,-86.88 634,-123.94 665.65,-131.94 698.1,-151.52 718.51,-165.5"/>
<polygon fill="midnightblue" stroke="midnightblue" points="716.54,-168.39 726.73,-171.28 720.56,-162.67 716.54,-168.39"/>
</g>
<!-- Node69 -->
<g id="node14" class="node">
<title>Node69</title>
<g id="a_node14"><a xlink:href="quickjs_8c.html#a014abd680db53ab89cb133345742a59c" target="_top" xlink:title=" ">
<polygon fill="none" stroke="red" points="534.5,-399.44 534.5,-418.44 614.5,-418.44 614.5,-399.44 534.5,-399.44"/>
<text text-anchor="middle" x="574.5" y="-406.44" font-family="Helvetica,sans-Serif" font-size="10.00">__attribute__</text>
</a>
</g>
</g>
<!-- Node68&#45;&gt;Node69 -->
<g id="edge14" class="edge">
<title>Node68&#45;&gt;Node69</title>
<path fill="none" stroke="midnightblue" d="M214.04,-456.33C227.36,-439.08 258.14,-403.4 294,-389.94 375.45,-359.37 479.53,-380.8 534.85,-396.48"/>
<polygon fill="midnightblue" stroke="midnightblue" points="534.02,-399.88 544.6,-399.33 535.98,-393.16 534.02,-399.88"/>
</g>
<!-- Node429 -->
<g id="node15" class="node">
<title>Node429</title>
<g id="a_node15"><a xlink:href="quickjs_8c.html#a68c7ae36cec3bf8bbf6cc0868a71cc4b" target="_top" xlink:title=" ">
<polygon fill="none" stroke="black" points="318.5,-323.44 318.5,-342.44 454.5,-342.44 454.5,-323.44 318.5,-323.44"/>
<text text-anchor="middle" x="386.5" y="-330.44" font-family="Helvetica,sans-Serif" font-size="10.00">check_define_prop_flags</text>
</a>
</g>
</g>
<!-- Node68&#45;&gt;Node429 -->
<g id="edge17" class="edge">
<title>Node68&#45;&gt;Node429</title>
<path fill="none" stroke="midnightblue" d="M211.84,-456.36C223.14,-435.02 253.41,-383.35 294,-356.94 301.02,-352.37 308.88,-348.67 316.97,-345.67"/>
<polygon fill="midnightblue" stroke="midnightblue" points="318.16,-348.96 326.52,-342.46 315.93,-342.32 318.16,-348.96"/>
</g>
<!-- Node86 -->
<g id="node16" class="node">
<title>Node86</title>
<g id="a_node16"><a xlink:href="quickjs_8c.html#a06b76f5124fd985e35f4c652fd018d6d" target="_top" xlink:title=" ">
<polygon fill="none" stroke="red" points="687,-19.44 687,-38.44 794,-38.44 794,-19.44 687,-19.44"/>
<text text-anchor="middle" x="740.5" y="-26.44" font-family="Helvetica,sans-Serif" font-size="10.00">find_own_property</text>
</a>
</g>
</g>
<!-- Node68&#45;&gt;Node86 -->
<g id="edge19" class="edge">
<title>Node68&#45;&gt;Node86</title>
<path fill="none" stroke="midnightblue" d="M207.67,-456.29C211.69,-401.27 234.52,-127.68 294,-73.94 404.94,26.3 600.65,1.32 691.13,-17.31"/>
<polygon fill="midnightblue" stroke="midnightblue" points="690.61,-20.77 701.11,-19.42 692.06,-13.92 690.61,-20.77"/>
</g>
<!-- Node52 -->
<g id="node17" class="node">
<title>Node52</title>
<g id="a_node17"><a xlink:href="quickjs_8c.html#a9e7b4bccf927d811b0f99b40b08c0472" target="_top" xlink:title=" ">
<polygon fill="none" stroke="red" points="348.5,-247.44 348.5,-266.44 424.5,-266.44 424.5,-247.44 348.5,-247.44"/>
<text text-anchor="middle" x="386.5" y="-254.44" font-family="Helvetica,sans-Serif" font-size="10.00">free_var_ref</text>
</a>
</g>
</g>
<!-- Node68&#45;&gt;Node52 -->
<g id="edge21" class="edge">
<title>Node68&#45;&gt;Node52</title>
<path fill="none" stroke="midnightblue" d="M208.35,-456.18C213.29,-424.59 233.29,-324.34 294,-275.94 306.49,-265.98 322.9,-260.87 338.37,-258.36"/>
<polygon fill="midnightblue" stroke="midnightblue" points="338.89,-261.82 348.36,-257.05 337.99,-254.88 338.89,-261.82"/>
</g>
<!-- Node295 -->
<g id="node18" class="node">
<title>Node295</title>
<g id="a_node18"><a xlink:href="quickjs_8c.html#a6df3ef223d7e76a0db2c14d972dbfa77" target="_top" xlink:title=" ">
<polygon fill="none" stroke="black" points="530.5,-209.44 530.5,-228.44 618.5,-228.44 618.5,-209.44 530.5,-209.44"/>
<text text-anchor="middle" x="574.5" y="-216.44" font-family="Helvetica,sans-Serif" font-size="10.00">get_prop_flags</text>
</a>
</g>
</g>
<!-- Node68&#45;&gt;Node295 -->
<g id="edge22" class="edge">
<title>Node68&#45;&gt;Node295</title>
<path fill="none" stroke="midnightblue" d="M207.27,-455.99C208.87,-419.59 219.76,-292.88 294,-237.94 360.89,-188.44 463.22,-196.62 523.74,-207.49"/>
<polygon fill="midnightblue" stroke="midnightblue" points="523.33,-210.97 533.81,-209.39 524.63,-204.1 523.33,-210.97"/>
</g>
<!-- Node130 -->
<g id="node19" class="node">
<title>Node130</title>
<g id="a_node19"><a xlink:href="quickjs_8c.html#ab4e100a9cde5f7ec87c92f5e766dbbab" target="_top" xlink:title=" ">
<polygon fill="none" stroke="red" points="316.5,-589.44 316.5,-608.44 456.5,-608.44 456.5,-589.44 316.5,-589.44"/>
<text text-anchor="middle" x="386.5" y="-596.44" font-family="Helvetica,sans-Serif" font-size="10.00">JS_AtomIsNumericIndex1</text>
</a>
</g>
</g>
<!-- Node68&#45;&gt;Node130 -->
<g id="edge24" class="edge">
<title>Node68&#45;&gt;Node130</title>
<path fill="none" stroke="midnightblue" d="M211.84,-475.51C223.14,-496.86 253.41,-548.53 294,-574.94 301.02,-579.51 308.88,-583.21 316.97,-586.21"/>
<polygon fill="midnightblue" stroke="midnightblue" points="315.93,-589.55 326.52,-589.42 318.16,-582.92 315.93,-589.55"/>
</g>
<!-- Node55 -->
<g id="node20" class="node">
<title>Node55</title>
<g id="a_node20"><a xlink:href="quickjs_8h.html#afaa20c47565bc704c6c85f3d77254e7d" target="_top" xlink:title=" ">
<polygon fill="none" stroke="red" points="535,-627.44 535,-646.44 614,-646.44 614,-627.44 535,-627.44"/>
<text text-anchor="middle" x="574.5" y="-634.44" font-family="Helvetica,sans-Serif" font-size="10.00">JS_FreeValue</text>
</a>
</g>
</g>
<!-- Node68&#45;&gt;Node55 -->
<g id="edge47" class="edge">
<title>Node68&#45;&gt;Node55</title>
<path fill="none" stroke="midnightblue" d="M209.18,-475.62C216.01,-503.48 239.88,-584.05 294,-617.94 364.39,-662.01 465.22,-655.74 524.57,-646.68"/>
<polygon fill="midnightblue" stroke="midnightblue" points="525.49,-650.08 534.8,-645.03 524.37,-643.17 525.49,-650.08"/>
</g>
<!-- Node91 -->
<g id="node21" class="node">
<title>Node91</title>
<g id="a_node21"><a xlink:href="quickjs_8h.html#ad80a83d73e9b7d872b88fbf2943aebe9" target="_top" xlink:title=" ">
<polygon fill="none" stroke="black" points="531,-703.44 531,-722.44 618,-722.44 618,-703.44 531,-703.44"/>
<text text-anchor="middle" x="574.5" y="-710.44" font-family="Helvetica,sans-Serif" font-size="10.00">JS_IsException</text>
</a>
</g>
</g>
<!-- Node68&#45;&gt;Node91 -->
<g id="edge48" class="edge">
<title>Node68&#45;&gt;Node91</title>
<path fill="none" stroke="midnightblue" d="M207.39,-475.63C209.37,-511.12 221.46,-634.67 294,-688.94 359.62,-738.03 459.73,-732.95 520.64,-723.71"/>
<polygon fill="midnightblue" stroke="midnightblue" points="521.49,-727.12 530.8,-722.07 520.37,-720.21 521.49,-727.12"/>
</g>
<!-- Node131 -->
<g id="node22" class="node">
<title>Node131</title>
<g id="a_node22"><a xlink:href="quickjs_8h.html#a2050bc428da1c65ac7eb87c3fa3b0392" target="_top" xlink:title=" ">
<polygon fill="none" stroke="black" points="702,-589.44 702,-608.44 779,-608.44 779,-589.44 702,-589.44"/>
<text text-anchor="middle" x="740.5" y="-596.44" font-family="Helvetica,sans-Serif" font-size="10.00">JS_NewInt32</text>
</a>
</g>
</g>
<!-- Node68&#45;&gt;Node131 -->
<g id="edge51" class="edge">
<title>Node68&#45;&gt;Node131</title>
<path fill="none" stroke="midnightblue" d="M208.14,-475.83C212.43,-507.8 230.67,-608.62 294,-649.94 357.29,-691.23 560.74,-674.46 634,-655.94 665.65,-647.94 698.1,-628.35 718.51,-614.38"/>
<polygon fill="midnightblue" stroke="midnightblue" points="720.56,-617.21 726.73,-608.6 716.54,-611.48 720.56,-617.21"/>
</g>
<!-- Node150 -->
<g id="node23" class="node">
<title>Node150</title>
<g id="a_node23"><a xlink:href="quickjs_8c.html#a8aac7988cf0c6f3c2b629a6662fd7ec8" target="_top" xlink:title=" ">
<polygon fill="none" stroke="red" points="331.5,-741.44 331.5,-760.44 441.5,-760.44 441.5,-741.44 331.5,-741.44"/>
<text text-anchor="middle" x="386.5" y="-748.44" font-family="Helvetica,sans-Serif" font-size="10.00">JS_AutoInitProperty</text>
</a>
</g>
</g>
<!-- Node68&#45;&gt;Node150 -->
<g id="edge30" class="edge">
<title>Node68&#45;&gt;Node150</title>
<path fill="none" stroke="midnightblue" d="M207.12,-475.45C208.14,-513.34 217.14,-654.94 294,-726.94 301.72,-734.17 311.35,-739.28 321.44,-742.88"/>
<polygon fill="midnightblue" stroke="midnightblue" points="320.61,-746.29 331.2,-745.89 322.67,-739.6 320.61,-746.29"/>
</g>
<!-- Node294 -->
<g id="node24" class="node">
<title>Node294</title>
<g id="a_node24"><a xlink:href="quickjs_8c.html#ad5565bb5cfd5321f181573257f3b0c91" target="_top" xlink:title=" ">
<polygon fill="none" stroke="red" points="334.5,-285.44 334.5,-304.44 438.5,-304.44 438.5,-285.44 334.5,-285.44"/>
<text text-anchor="middle" x="386.5" y="-292.44" font-family="Helvetica,sans-Serif" font-size="10.00">JS_CreateProperty</text>
</a>
</g>
</g>
<!-- Node68&#45;&gt;Node294 -->
<g id="edge33" class="edge">
<title>Node68&#45;&gt;Node294</title>
<path fill="none" stroke="midnightblue" d="M209.52,-456.22C217.13,-428.96 242.57,-351.27 294,-313.94 302.95,-307.44 313.61,-303.06 324.45,-300.13"/>
<polygon fill="midnightblue" stroke="midnightblue" points="325.46,-303.49 334.41,-297.82 323.87,-296.67 325.46,-303.49"/>
</g>
<!-- Node34 -->
<g id="node25" class="node">
<title>Node34</title>
<g id="a_node25"><a xlink:href="quickjs_8h.html#a775522f2d084fc8fa0fcb33f390006b4" target="_top" xlink:title=" ">
<polygon fill="none" stroke="black" points="536,-171.44 536,-190.44 613,-190.44 613,-171.44 536,-171.44"/>
<text text-anchor="middle" x="574.5" y="-178.44" font-family="Helvetica,sans-Serif" font-size="10.00">JS_DupValue</text>
</a>
</g>
</g>
<!-- Node68&#45;&gt;Node34 -->
<g id="edge46" class="edge">
<title>Node68&#45;&gt;Node34</title>
<path fill="none" stroke="midnightblue" d="M206.61,-456.18C205.58,-416.01 207.58,-262.51 294,-195.94 361.87,-143.66 468.82,-156.27 528.83,-169.19"/>
<polygon fill="midnightblue" stroke="midnightblue" points="528.24,-172.65 538.76,-171.43 529.77,-165.82 528.24,-172.65"/>
</g>
<!-- Node247 -->
<g id="node26" class="node">
<title>Node247</title>
<g id="a_node26"><a xlink:href="quickjs_8c.html#a1ca9cdb1fa2ffc3e6506e92b200e490f" target="_top" xlink:title=" ">
<polygon fill="none" stroke="black" points="534.5,-133.44 534.5,-152.44 614.5,-152.44 614.5,-133.44 534.5,-133.44"/>
<text text-anchor="middle" x="574.5" y="-140.44" font-family="Helvetica,sans-Serif" font-size="10.00">JS_IsFunction</text>
</a>
</g>
</g>
<!-- Node68&#45;&gt;Node247 -->
<g id="edge49" class="edge">
<title>Node68&#45;&gt;Node247</title>
<path fill="none" stroke="midnightblue" d="M208.23,-456.14C214.52,-407.9 244.65,-196.29 294,-156.94 328.35,-129.55 453.66,-133.87 524.27,-138.77"/>
<polygon fill="midnightblue" stroke="midnightblue" points="524.05,-142.26 534.27,-139.49 524.55,-135.28 524.05,-142.26"/>
</g>
<!-- Node154 -->
<g id="node27" class="node">
<title>Node154</title>
<g id="a_node27"><a xlink:href="quickjs_8h.html#a88259aa0da61ac754402c64ccecee116" target="_top" xlink:title=" ">
<polygon fill="none" stroke="red" points="532,-475.44 532,-494.44 617,-494.44 617,-475.44 532,-475.44"/>
<text text-anchor="middle" x="574.5" y="-482.44" font-family="Helvetica,sans-Serif" font-size="10.00">JS_NewUint32</text>
</a>
</g>
</g>
<!-- Node68&#45;&gt;Node154 -->
<g id="edge52" class="edge">
<title>Node68&#45;&gt;Node154</title>
<path fill="none" stroke="midnightblue" d="M214.04,-475.55C227.36,-492.8 258.14,-528.48 294,-541.94 370.98,-570.83 402.37,-571.75 479,-541.94 499.23,-534.07 496.68,-520.57 515,-508.94 521.24,-504.97 528.25,-501.43 535.19,-498.37"/>
<polygon fill="midnightblue" stroke="midnightblue" points="536.64,-501.56 544.53,-494.49 533.96,-495.09 536.64,-501.56"/>
</g>
<!-- Node149 -->
<g id="node28" class="node">
<title>Node149</title>
<g id="a_node28"><a xlink:href="quickjs_8h.html#a4e407128a9605afb77523e49e9a627fd" target="_top" xlink:title=" ">
<polygon fill="none" stroke="black" points="342,-513.44 342,-532.44 431,-532.44 431,-513.44 342,-513.44"/>
<text text-anchor="middle" x="386.5" y="-520.44" font-family="Helvetica,sans-Serif" font-size="10.00">JS_IsUndefined</text>
</a>
</g>
</g>
<!-- Node68&#45;&gt;Node149 -->
<g id="edge50" class="edge">
<title>Node68&#45;&gt;Node149</title>
<path fill="none" stroke="midnightblue" d="M230.39,-475.59C247.77,-482.56 272.15,-491.95 294,-498.94 307.21,-503.16 321.67,-507.21 335.11,-510.74"/>
<polygon fill="midnightblue" stroke="midnightblue" points="334.59,-514.23 345.15,-513.34 336.34,-507.45 334.59,-514.23"/>
</g>
<!-- Node430 -->
<g id="node29" class="node">
<title>Node430</title>
<g id="a_node29"><a xlink:href="quickjs_8c.html#af2333dd9d30e60437b73af383477188c" target="_top" xlink:title=" ">
<polygon fill="none" stroke="red" points="330,-437.44 330,-456.44 443,-456.44 443,-437.44 330,-437.44"/>
<text text-anchor="middle" x="386.5" y="-444.44" font-family="Helvetica,sans-Serif" font-size="10.00">JS_NumberIsInteger</text>
</a>
</g>
</g>
<!-- Node68&#45;&gt;Node430 -->
<g id="edge53" class="edge">
<title>Node68&#45;&gt;Node430</title>
<path fill="none" stroke="midnightblue" d="M258.15,-460.49C277.36,-458.45 299.48,-456.1 319.83,-453.93"/>
<polygon fill="midnightblue" stroke="midnightblue" points="320.39,-457.39 329.97,-452.85 319.65,-450.43 320.39,-457.39"/>
</g>
<!-- Node433 -->
<g id="node30" class="node">
<title>Node433</title>
<g id="a_node30"><a xlink:href="quickjs_8c.html#aced4796120beed3ba63dc0b234b399ab" target="_top" xlink:title=" ">
<polygon fill="none" stroke="black" points="294,-399.44 294,-418.44 479,-418.44 479,-399.44 294,-399.44"/>
<text text-anchor="middle" x="386.5" y="-406.44" font-family="Helvetica,sans-Serif" font-size="10.00">JS_NumberIsNegativeOrMinusZero</text>
</a>
</g>
</g>
<!-- Node68&#45;&gt;Node433 -->
<g id="edge54" class="edge">
<title>Node68&#45;&gt;Node433</title>
<path fill="none" stroke="midnightblue" d="M225.91,-456.32C243.24,-447.83 269.81,-435.64 294,-427.94 302.42,-425.26 311.41,-422.85 320.33,-420.74"/>
<polygon fill="midnightblue" stroke="midnightblue" points="321.37,-424.09 330.35,-418.47 319.82,-417.26 321.37,-424.09"/>
</g>
<!-- Node86&#45;&gt;Node7 -->
<g id="edge20" class="edge">
<title>Node86&#45;&gt;Node7</title>
<path fill="none" stroke="midnightblue" d="M794.2,-36.27C800.53,-39.07 806.37,-42.85 811,-47.94 873.21,-116.42 889.13,-420.99 892.31,-502.71"/>
<polygon fill="midnightblue" stroke="midnightblue" points="888.83,-503.23 892.69,-513.09 895.82,-502.97 888.83,-503.23"/>
</g>
<!-- Node130&#45;&gt;Node6 -->
<g id="edge25" class="edge">
<title>Node130&#45;&gt;Node6</title>
<path fill="none" stroke="midnightblue" d="M456.67,-598.03C510.88,-593.79 585.08,-579.7 634,-536.94 666.44,-508.58 645.96,-482.69 670,-446.94 683.42,-426.99 703.62,-408.36 718.79,-395.84"/>
<polygon fill="midnightblue" stroke="midnightblue" points="721.02,-398.53 726.62,-389.54 716.64,-393.08 721.02,-398.53"/>
</g>
<!-- Node130&#45;&gt;Node65 -->
<g id="edge26" class="edge">
<title>Node130&#45;&gt;Node65</title>
<path fill="none" stroke="midnightblue" d="M426.3,-589.39C443.13,-584.35 462.69,-577.25 479,-567.94 497.34,-557.47 496.38,-546.89 515,-536.94 563.41,-511.07 595.66,-543.21 634,-503.94 679.79,-457.05 650.16,-423.4 670,-360.94 689.03,-301.02 717.52,-232.21 731.36,-199.75"/>
<polygon fill="midnightblue" stroke="midnightblue" points="734.58,-201.12 735.31,-190.55 728.15,-198.35 734.58,-201.12"/>
</g>
<!-- Node130&#45;&gt;Node55 -->
<g id="edge27" class="edge">
<title>Node130&#45;&gt;Node55</title>
<path fill="none" stroke="midnightblue" d="M434.44,-608.53C462.04,-614.17 496.89,-621.29 524.79,-626.99"/>
<polygon fill="midnightblue" stroke="midnightblue" points="524.24,-630.45 534.73,-629.02 525.64,-623.59 524.24,-630.45"/>
</g>
<!-- Node130&#45;&gt;Node91 -->
<g id="edge28" class="edge">
<title>Node130&#45;&gt;Node91</title>
<path fill="none" stroke="midnightblue" d="M403.04,-608.46C435.45,-628.33 510.48,-674.31 549.28,-698.1"/>
<polygon fill="midnightblue" stroke="midnightblue" points="547.52,-701.12 557.88,-703.36 551.18,-695.15 547.52,-701.12"/>
</g>
<!-- Node130&#45;&gt;Node131 -->
<g id="edge29" class="edge">
<title>Node130&#45;&gt;Node131</title>
<path fill="none" stroke="midnightblue" d="M456.62,-598.94C526.09,-598.94 631.29,-598.94 691.91,-598.94"/>
<polygon fill="midnightblue" stroke="midnightblue" points="691.97,-602.44 701.97,-598.94 691.97,-595.44 691.97,-602.44"/>
</g>
<!-- Node150&#45;&gt;Node63 -->
<g id="edge32" class="edge">
<title>Node150&#45;&gt;Node63</title>
<path fill="none" stroke="midnightblue" d="M441.73,-757.26C499.97,-764.04 593.1,-774.89 659.7,-782.64"/>
<polygon fill="midnightblue" stroke="midnightblue" points="659.4,-786.13 669.74,-783.81 660.21,-779.18 659.4,-786.13"/>
</g>
<!-- Node150&#45;&gt;Node91 -->
<g id="edge31" class="edge">
<title>Node150&#45;&gt;Node91</title>
<path fill="none" stroke="midnightblue" d="M434.44,-741.35C460.68,-735.99 493.47,-729.29 520.62,-723.74"/>
<polygon fill="midnightblue" stroke="midnightblue" points="521.62,-727.11 530.72,-721.68 520.22,-720.25 521.62,-727.11"/>
</g>
<!-- Node294&#45;&gt;Node2 -->
<g id="edge38" class="edge">
<title>Node294&#45;&gt;Node2</title>
<path fill="none" stroke="midnightblue" d="M438.89,-294.43C453.85,-296.94 468.88,-302.53 479,-313.94 540.89,-383.66 492.64,-641.43 515,-731.94 525.34,-773.82 546.61,-819.37 560.45,-846.52"/>
<polygon fill="midnightblue" stroke="midnightblue" points="557.47,-848.38 565.18,-855.64 563.68,-845.16 557.47,-848.38"/>
</g>
<!-- Node294&#45;&gt;Node4 -->
<g id="edge37" class="edge">
<title>Node294&#45;&gt;Node4</title>
<path fill="none" stroke="midnightblue" d="M438.84,-299.96C452.49,-302.77 466.81,-307.14 479,-313.94 499.32,-325.27 495.3,-339.57 515,-351.94 562.02,-381.47 584.42,-364.96 634,-389.94 666.81,-406.47 700.54,-432.7 720.76,-449.61"/>
<polygon fill="midnightblue" stroke="midnightblue" points="718.67,-452.43 728.56,-456.24 723.21,-447.09 718.67,-452.43"/>
</g>
<!-- Node294&#45;&gt;Node7 -->
<g id="edge40" class="edge">
<title>Node294&#45;&gt;Node7</title>
<path fill="none" stroke="midnightblue" d="M438.6,-288.16C524.93,-279.62 700.97,-275.15 811,-360.94 858.11,-397.67 880.4,-468.78 888.81,-503.25"/>
<polygon fill="midnightblue" stroke="midnightblue" points="885.41,-504.11 891.07,-513.07 892.24,-502.54 885.41,-504.11"/>
</g>
<!-- Node294&#45;&gt;Node64 -->
<g id="edge41" class="edge">
<title>Node294&#45;&gt;Node64</title>
<path fill="none" stroke="midnightblue" d="M438.87,-294.35C453.47,-291.73 468.3,-286.35 479,-275.94 528.77,-227.54 480.78,-184.34 515,-123.94 524.09,-107.9 539.03,-93.45 551.54,-83.11"/>
<polygon fill="midnightblue" stroke="midnightblue" points="554.04,-85.6 559.71,-76.65 549.7,-80.11 554.04,-85.6"/>
</g>
<!-- Node294&#45;&gt;Node6 -->
<g id="edge35" class="edge">
<title>Node294&#45;&gt;Node6</title>
<path fill="none" stroke="midnightblue" d="M435.55,-304.51C449.58,-307.41 464.93,-310.7 479,-313.94 554.65,-331.37 642.02,-354.03 693.91,-367.75"/>
<polygon fill="midnightblue" stroke="midnightblue" points="693.24,-371.19 703.8,-370.37 695.03,-364.43 693.24,-371.19"/>
</g>
<!-- Node294&#45;&gt;Node65 -->
<g id="edge36" class="edge">
<title>Node294&#45;&gt;Node65</title>
<path fill="none" stroke="midnightblue" d="M435.06,-285.4C449.22,-282.47 464.76,-279.16 479,-275.94 548.18,-260.28 567.82,-263.45 634,-237.94 663.48,-226.58 695.08,-208.65 715.93,-195.94"/>
<polygon fill="midnightblue" stroke="midnightblue" points="718.05,-198.75 724.71,-190.51 714.36,-192.8 718.05,-198.75"/>
</g>
<!-- Node294&#45;&gt;Node69 -->
<g id="edge34" class="edge">
<title>Node294&#45;&gt;Node69</title>
<path fill="none" stroke="midnightblue" d="M438.87,-297.44C452.98,-300.19 467.53,-305.16 479,-313.94 507.1,-335.44 489,-360.94 515,-384.94 519.18,-388.8 524.08,-392.08 529.21,-394.86"/>
<polygon fill="midnightblue" stroke="midnightblue" points="528.1,-398.21 538.63,-399.34 531.1,-391.89 528.1,-398.21"/>
</g>
<!-- Node294&#45;&gt;Node295 -->
<g id="edge39" class="edge">
<title>Node294&#45;&gt;Node295</title>
<path fill="none" stroke="midnightblue" d="M438.53,-289.35C452.18,-286.53 466.58,-282.3 479,-275.94 498.32,-266.04 496.68,-254.57 515,-242.94 521.24,-238.97 528.25,-235.43 535.19,-232.37"/>
<polygon fill="midnightblue" stroke="midnightblue" points="536.64,-235.56 544.53,-228.49 533.96,-229.09 536.64,-235.56"/>
</g>
<!-- Node294&#45;&gt;Node34 -->
<g id="edge42" class="edge">
<title>Node294&#45;&gt;Node34</title>
<path fill="none" stroke="midnightblue" d="M438.55,-292.72C452.81,-290 467.52,-284.97 479,-275.94 508.38,-252.83 486.93,-224.62 515,-199.94 518.43,-196.92 522.35,-194.38 526.5,-192.25"/>
<polygon fill="midnightblue" stroke="midnightblue" points="528.06,-195.38 535.84,-188.18 525.27,-188.96 528.06,-195.38"/>
</g>
<!-- Node294&#45;&gt;Node247 -->
<g id="edge43" class="edge">
<title>Node294&#45;&gt;Node247</title>
<path fill="none" stroke="midnightblue" d="M438.88,-293.77C453.32,-291.1 468.05,-285.84 479,-275.94 518.42,-240.32 477.58,-199.66 515,-161.94 518,-158.91 521.49,-156.37 525.25,-154.23"/>
<polygon fill="midnightblue" stroke="midnightblue" points="526.81,-157.36 534.37,-149.93 523.83,-151.02 526.81,-157.36"/>
</g>
<!-- Node294&#45;&gt;Node154 -->
<g id="edge44" class="edge">
<title>Node294&#45;&gt;Node154</title>
<path fill="none" stroke="midnightblue" d="M438.88,-296.11C453.32,-298.78 468.05,-304.04 479,-313.94 518.42,-349.56 487.13,-382.7 515,-427.94 524.79,-443.83 539.98,-458.45 552.42,-468.9"/>
<polygon fill="midnightblue" stroke="midnightblue" points="550.53,-471.87 560.5,-475.44 554.93,-466.43 550.53,-471.87"/>
</g>
<!-- Node154&#45;&gt;Node131 -->
<g id="edge45" class="edge">
<title>Node154&#45;&gt;Node131</title>
<path fill="none" stroke="midnightblue" d="M589.2,-494.46C617.47,-514.11 682.49,-559.31 717.01,-583.31"/>
<polygon fill="midnightblue" stroke="midnightblue" points="715.28,-586.37 725.49,-589.2 719.28,-580.62 715.28,-586.37"/>
</g>
</g>
</svg>
