<?xml version="1.0" encoding="UTF-8" standalone="no"?>
<!DOCTYPE svg PUBLIC "-//W3C//DTD SVG 1.1//EN"
 "http://www.w3.org/Graphics/SVG/1.1/DTD/svg11.dtd">
<!-- Generated by graphviz version 2.43.0 (0)
 -->
<!-- Title: js_find_loaded_module Pages: 1 -->
<svg width="758pt" height="143pt"
 viewBox="0.00 0.00 758.00 143.00" xmlns="http://www.w3.org/2000/svg" xmlns:xlink="http://www.w3.org/1999/xlink">
<g id="graph0" class="graph" transform="scale(1 1) rotate(0) translate(4 139)">
<title>js_find_loaded_module</title>
<!-- Node1 -->
<g id="node1" class="node">
<title>Node1</title>
<g id="a_node1"><a xlink:title=" ">
<polygon fill="#bfbfbf" stroke="black" points="622,-28.5 622,-47.5 750,-47.5 750,-28.5 622,-28.5"/>
<text text-anchor="middle" x="686" y="-35.5" font-family="Helvetica,sans-Serif" font-size="10.00">js_find_loaded_module</text>
</a>
</g>
</g>
<!-- Node2 -->
<g id="node2" class="node">
<title>Node2</title>
<g id="a_node2"><a xlink:href="quickjs_8c.html#a90dd988b99a5bc7b2a4aaffd2de405a9" target="_top" xlink:title=" ">
<polygon fill="none" stroke="black" points="444,-51 444,-81 586,-81 586,-51 444,-51"/>
<text text-anchor="start" x="452" y="-69" font-family="Helvetica,sans-Serif" font-size="10.00">js_host_resolve_imported</text>
<text text-anchor="middle" x="515" y="-58" font-family="Helvetica,sans-Serif" font-size="10.00">_module</text>
</a>
</g>
</g>
<!-- Node1&#45;&gt;Node2 -->
<g id="edge1" class="edge">
<title>Node1&#45;&gt;Node2</title>
<path fill="none" stroke="midnightblue" d="M617.26,-49.22C607.06,-50.91 596.53,-52.66 586.29,-54.35"/>
<polygon fill="midnightblue" stroke="midnightblue" points="618.02,-52.65 627.31,-47.56 616.87,-45.74 618.02,-52.65"/>
</g>
<!-- Node615 -->
<g id="node6" class="node">
<title>Node615</title>
<g id="a_node6"><a xlink:href="quickjs_8c.html#a2c15f4e9fa1344bb2d7caca8e21b34f4" target="_top" xlink:title=" ">
<polygon fill="none" stroke="black" points="468.5,-6.5 468.5,-25.5 561.5,-25.5 561.5,-6.5 468.5,-6.5"/>
<text text-anchor="middle" x="515" y="-13.5" font-family="Helvetica,sans-Serif" font-size="10.00">js_import_meta</text>
</a>
</g>
</g>
<!-- Node1&#45;&gt;Node615 -->
<g id="edge7" class="edge">
<title>Node1&#45;&gt;Node615</title>
<path fill="none" stroke="midnightblue" d="M611.66,-28.45C594.63,-26.24 576.99,-23.94 561.56,-21.93"/>
<polygon fill="midnightblue" stroke="midnightblue" points="611.22,-31.93 621.59,-29.75 612.13,-24.98 611.22,-31.93"/>
</g>
<!-- Node3 -->
<g id="node3" class="node">
<title>Node3</title>
<g id="a_node3"><a xlink:href="quickjs_8c.html#a5b9215d5347fb8696212caf3f8ebfad0" target="_top" xlink:title=" ">
<polygon fill="none" stroke="black" points="266,-95 266,-125 408,-125 408,-95 266,-95"/>
<text text-anchor="start" x="274" y="-113" font-family="Helvetica,sans-Serif" font-size="10.00">js_host_resolve_imported</text>
<text text-anchor="middle" x="337" y="-102" font-family="Helvetica,sans-Serif" font-size="10.00">_module_atom</text>
</a>
</g>
</g>
<!-- Node2&#45;&gt;Node3 -->
<g id="edge2" class="edge">
<title>Node2&#45;&gt;Node3</title>
<path fill="none" stroke="midnightblue" d="M444.06,-83.49C428.85,-87.29 412.89,-91.28 398.1,-94.97"/>
<polygon fill="midnightblue" stroke="midnightblue" points="445.07,-86.84 453.92,-81.02 443.37,-80.05 445.07,-86.84"/>
</g>
<!-- Node11 -->
<g id="node5" class="node">
<title>Node11</title>
<g id="a_node5"><a xlink:href="quickjs_8c.html#aa75a2b06808d8da661d4eb6698b17cab" target="_top" xlink:title=" ">
<polygon fill="none" stroke="red" points="0,-75.5 0,-94.5 86,-94.5 86,-75.5 0,-75.5"/>
<text text-anchor="middle" x="43" y="-82.5" font-family="Helvetica,sans-Serif" font-size="10.00">JS_RunModule</text>
</a>
</g>
</g>
<!-- Node2&#45;&gt;Node11 -->
<g id="edge6" class="edge">
<title>Node2&#45;&gt;Node11</title>
<path fill="none" stroke="midnightblue" d="M433.77,-69.24C333.16,-73.31 164.38,-80.13 86.16,-83.3"/>
<polygon fill="midnightblue" stroke="midnightblue" points="434.04,-72.74 443.89,-68.83 433.76,-65.74 434.04,-72.74"/>
</g>
<!-- Node4 -->
<g id="node4" class="node">
<title>Node4</title>
<g id="a_node4"><a xlink:href="quickjs_8c.html#a041f16b68daf31525cd76aa4794073ef" target="_top" xlink:title=" ">
<polygon fill="none" stroke="red" points="122,-97.5 122,-116.5 230,-116.5 230,-97.5 122,-97.5"/>
<text text-anchor="middle" x="176" y="-104.5" font-family="Helvetica,sans-Serif" font-size="10.00">js_resolve_module</text>
</a>
</g>
</g>
<!-- Node3&#45;&gt;Node4 -->
<g id="edge3" class="edge">
<title>Node3&#45;&gt;Node4</title>
<path fill="none" stroke="midnightblue" d="M255.65,-108.48C246.98,-108.32 238.33,-108.16 230.11,-108"/>
<polygon fill="midnightblue" stroke="midnightblue" points="255.73,-111.99 265.8,-108.68 255.87,-104.99 255.73,-111.99"/>
</g>
<!-- Node4&#45;&gt;Node4 -->
<g id="edge4" class="edge">
<title>Node4&#45;&gt;Node4</title>
<path fill="none" stroke="midnightblue" d="M200.55,-126.03C199.21,-131.13 191.03,-135 176,-135 152.54,-135 145.76,-125.57 155.65,-116.76"/>
<polygon fill="midnightblue" stroke="midnightblue" points="203.67,-124.42 196.35,-116.76 197.29,-127.31 203.67,-124.42"/>
</g>
<!-- Node4&#45;&gt;Node11 -->
<g id="edge5" class="edge">
<title>Node4&#45;&gt;Node11</title>
<path fill="none" stroke="midnightblue" d="M111.7,-96.37C103.12,-94.93 94.49,-93.48 86.4,-92.12"/>
<polygon fill="midnightblue" stroke="midnightblue" points="111.28,-99.85 121.72,-98.05 112.44,-92.94 111.28,-99.85"/>
</g>
<!-- Node14 -->
<g id="node7" class="node">
<title>Node14</title>
<g id="a_node7"><a xlink:href="quickjs_8c.html#ac2894ff4edcdb4e6841bcce9c76081e3" target="_top" xlink:title=" ">
<polygon fill="none" stroke="red" points="293.5,-0.5 293.5,-19.5 380.5,-19.5 380.5,-0.5 293.5,-0.5"/>
<text text-anchor="middle" x="337" y="-7.5" font-family="Helvetica,sans-Serif" font-size="10.00">JS_CallInternal</text>
</a>
</g>
</g>
<!-- Node615&#45;&gt;Node14 -->
<g id="edge8" class="edge">
<title>Node615&#45;&gt;Node14</title>
<path fill="none" stroke="midnightblue" d="M458.09,-14.09C432.98,-13.24 403.83,-12.24 380.53,-11.45"/>
<polygon fill="midnightblue" stroke="midnightblue" points="458.1,-17.6 468.22,-14.44 458.34,-10.6 458.1,-17.6"/>
</g>
<!-- Node14&#45;&gt;Node14 -->
<g id="edge9" class="edge">
<title>Node14&#45;&gt;Node14</title>
<path fill="none" stroke="midnightblue" d="M366.94,-28.27C366.09,-33.74 356.11,-38 337,-38 308.56,-38 300.34,-28.57 312.34,-19.76"/>
<polygon fill="midnightblue" stroke="midnightblue" points="369.9,-26.41 361.66,-19.76 363.95,-30.1 369.9,-26.41"/>
</g>
</g>
</svg>
