<?xml version="1.0" encoding="UTF-8" standalone="no"?>
<!DOCTYPE svg PUBLIC "-//W3C//DTD SVG 1.1//EN"
 "http://www.w3.org/Graphics/SVG/1.1/DTD/svg11.dtd">
<!-- Generated by graphviz version 2.43.0 (0)
 -->
<!-- Title: js_shape_prepare_update Pages: 1 -->
<!--zoomable 344 -->
<svg id="main" version="1.1" xmlns="http://www.w3.org/2000/svg" xmlns:xlink="http://www.w3.org/1999/xlink" xml:space="preserve" onload="init(evt)">
<style type="text/css"><![CDATA[
.edge:hover path { stroke: red; }
.edge:hover polygon { stroke: red; fill: red; }
]]></style>
<script type="text/javascript"><![CDATA[
var edges = document.getElementsByTagName('g');
if (edges && edges.length) {
  for (var i=0;i<edges.length;i++) {
    if (edges[i].id.substr(0,4)=='edge') {
      edges[i].setAttribute('class','edge');
    }
  }
}
]]></script>
        <defs>
                <circle id="rim" cx="0" cy="0" r="7"/>
                <circle id="rim2" cx="0" cy="0" r="3.5"/>
                <g id="zoomPlus">
                        <use xlink:href="#rim" fill="#404040">
                                <set attributeName="fill" to="#808080" begin="zoomplus.mouseover" end="zoomplus.mouseout"/>
                        </use>
                        <path d="M-4,0h8M0,-4v8" fill="none" stroke="white" stroke-width="1.5" pointer-events="none"/>
                </g>
                <g id="zoomMin">
                        <use xlink:href="#rim" fill="#404040">
                                <set attributeName="fill" to="#808080" begin="zoomminus.mouseover" end="zoomminus.mouseout"/>
                        </use>
                        <path d="M-4,0h8" fill="none" stroke="white" stroke-width="1.5" pointer-events="none"/>
                </g>
                <g id="dirArrow">
                        <path fill="none" stroke="white" stroke-width="1.5" d="M0,-3.0v7 M-2.5,-0.5L0,-3.0L2.5,-0.5"/>
                </g>
               <g id="resetDef">
                       <use xlink:href="#rim2" fill="#404040">
                               <set attributeName="fill" to="#808080" begin="reset.mouseover" end="reset.mouseout"/>
                       </use>
               </g>
        </defs>

<script type="text/javascript">
var viewWidth = 951;
var viewHeight = 344;
var sectionId = 'dynsection-112';
</script>
<script xlink:href="svgpan.js"/>
<svg id="graph" class="graph">
<g id="viewport">
<title>js_shape_prepare_update</title>
<!-- Node1 -->
<g id="node1" class="node">
<title>Node1</title>
<g id="a_node1"><a xlink:title=" ">
<polygon fill="#bfbfbf" stroke="black" points="802,-152.5 802,-171.5 943,-171.5 943,-152.5 802,-152.5"/>
<text text-anchor="middle" x="872.5" y="-159.5" font-family="Helvetica,sans-Serif" font-size="10.00">js_shape_prepare_update</text>
</a>
</g>
</g>
<!-- Node2 -->
<g id="node2" class="node">
<title>Node2</title>
<g id="a_node2"><a xlink:href="quickjs_8c.html#ac93c982cb636a5430b191d104083af3e" target="_top" xlink:title=" ">
<polygon fill="none" stroke="black" points="646.5,-267 646.5,-297 754.5,-297 754.5,-267 646.5,-267"/>
<text text-anchor="start" x="654.5" y="-285" font-family="Helvetica,sans-Serif" font-size="10.00">convert_fast_array</text>
<text text-anchor="middle" x="700.5" y="-274" font-family="Helvetica,sans-Serif" font-size="10.00">_to_array</text>
</a>
</g>
</g>
<!-- Node1&#45;&gt;Node2 -->
<g id="edge1" class="edge">
<title>Node1&#45;&gt;Node2</title>
<path fill="none" stroke="midnightblue" d="M854.69,-178.89C834.78,-198.26 800.01,-230.16 766,-252 757.48,-257.47 747.8,-262.52 738.58,-266.85"/>
<polygon fill="midnightblue" stroke="midnightblue" points="857.37,-181.17 862.03,-171.65 852.45,-176.18 857.37,-181.17"/>
</g>
<!-- Node3 -->
<g id="node3" class="node">
<title>Node3</title>
<g id="a_node3"><a xlink:href="quickjs_8c.html#a2b9a2014cb970af5b5b7dde00afbdffa" target="_top" xlink:title=" ">
<polygon fill="none" stroke="black" points="498.5,-174.5 498.5,-193.5 592.5,-193.5 592.5,-174.5 498.5,-174.5"/>
<text text-anchor="middle" x="545.5" y="-181.5" font-family="Helvetica,sans-Serif" font-size="10.00">delete_property</text>
</a>
</g>
</g>
<!-- Node1&#45;&gt;Node3 -->
<g id="edge14" class="edge">
<title>Node1&#45;&gt;Node3</title>
<path fill="none" stroke="midnightblue" d="M791.55,-167.41C729.01,-171.65 644.26,-177.38 592.58,-180.88"/>
<polygon fill="midnightblue" stroke="midnightblue" points="792.04,-170.89 801.78,-166.72 791.57,-163.9 792.04,-170.89"/>
</g>
<!-- Node164 -->
<g id="node6" class="node">
<title>Node164</title>
<g id="a_node6"><a xlink:href="quickjs_8c.html#ab50618f1bf78e444caa6da0e3e2785d7" target="_top" xlink:title=" ">
<polygon fill="none" stroke="red" points="183.5,-228.5 183.5,-247.5 287.5,-247.5 287.5,-228.5 183.5,-228.5"/>
<text text-anchor="middle" x="235.5" y="-235.5" font-family="Helvetica,sans-Serif" font-size="10.00">JS_DefineProperty</text>
</a>
</g>
</g>
<!-- Node1&#45;&gt;Node164 -->
<g id="edge20" class="edge">
<title>Node1&#45;&gt;Node164</title>
<path fill="none" stroke="midnightblue" d="M826.15,-174.11C807.61,-178.7 785.89,-183.63 766,-187 591.86,-216.49 382.39,-230.38 287.56,-235.52"/>
<polygon fill="midnightblue" stroke="midnightblue" points="827.25,-177.44 836.09,-171.61 825.53,-170.66 827.25,-177.44"/>
</g>
<!-- Node616 -->
<g id="node10" class="node">
<title>Node616</title>
<g id="a_node10"><a xlink:href="quickjs_8c.html#a8aac7988cf0c6f3c2b629a6662fd7ec8" target="_top" xlink:title=" ">
<polygon fill="none" stroke="black" points="346,-38.5 346,-57.5 456,-57.5 456,-38.5 346,-38.5"/>
<text text-anchor="middle" x="401" y="-45.5" font-family="Helvetica,sans-Serif" font-size="10.00">JS_AutoInitProperty</text>
</a>
</g>
</g>
<!-- Node1&#45;&gt;Node616 -->
<g id="edge15" class="edge">
<title>Node1&#45;&gt;Node616</title>
<path fill="none" stroke="midnightblue" d="M850.28,-146.62C829.71,-132.43 797.14,-111.83 766,-100 661.28,-60.2 529.07,-50.53 456.28,-48.38"/>
<polygon fill="midnightblue" stroke="midnightblue" points="848.38,-149.56 858.58,-152.44 852.4,-143.83 848.38,-149.56"/>
</g>
<!-- Node604 -->
<g id="node13" class="node">
<title>Node604</title>
<g id="a_node13"><a xlink:href="quickjs_8c.html#a11b9662411b5b3f631925a0ca708ce25" target="_top" xlink:title=" ">
<polygon fill="none" stroke="red" points="635,-0.5 635,-19.5 766,-19.5 766,-0.5 635,-0.5"/>
<text text-anchor="middle" x="700.5" y="-7.5" font-family="Helvetica,sans-Serif" font-size="10.00">JS_SetPrototypeInternal</text>
</a>
</g>
</g>
<!-- Node1&#45;&gt;Node604 -->
<g id="edge21" class="edge">
<title>Node1&#45;&gt;Node604</title>
<path fill="none" stroke="midnightblue" d="M860.74,-143.53C843.85,-116.04 808.6,-64.34 766,-34 757.44,-27.9 747.14,-23.16 737.31,-19.56"/>
<polygon fill="midnightblue" stroke="midnightblue" points="857.78,-145.4 865.93,-152.17 863.78,-141.8 857.78,-145.4"/>
</g>
<!-- Node617 -->
<g id="node14" class="node">
<title>Node617</title>
<g id="a_node14"><a xlink:href="quickjs_8c.html#a6d48937f79966a773376cc24834c663f" target="_top" xlink:title=" ">
<polygon fill="none" stroke="black" points="645.5,-109 645.5,-139 755.5,-139 755.5,-109 645.5,-109"/>
<text text-anchor="start" x="653.5" y="-127" font-family="Helvetica,sans-Serif" font-size="10.00">js_update_property</text>
<text text-anchor="middle" x="700.5" y="-116" font-family="Helvetica,sans-Serif" font-size="10.00">_flags</text>
</a>
</g>
</g>
<!-- Node1&#45;&gt;Node617 -->
<g id="edge22" class="edge">
<title>Node1&#45;&gt;Node617</title>
<path fill="none" stroke="midnightblue" d="M818.71,-150.2C798.68,-145.72 775.84,-140.62 755.68,-136.11"/>
<polygon fill="midnightblue" stroke="midnightblue" points="818.08,-153.65 828.6,-152.41 819.61,-146.81 818.08,-153.65"/>
</g>
<!-- Node2&#45;&gt;Node3 -->
<g id="edge2" class="edge">
<title>Node2&#45;&gt;Node3</title>
<path fill="none" stroke="midnightblue" d="M667.22,-261.32C634.69,-240.49 585.92,-209.25 561.52,-193.62"/>
<polygon fill="midnightblue" stroke="midnightblue" points="665.62,-264.46 675.93,-266.9 669.4,-258.56 665.62,-264.46"/>
</g>
<!-- Node2&#45;&gt;Node164 -->
<g id="edge13" class="edge">
<title>Node2&#45;&gt;Node164</title>
<path fill="none" stroke="midnightblue" d="M636.34,-277.45C565.56,-272.17 447.43,-262.78 346,-252 326.94,-249.97 306.06,-247.39 287.7,-245"/>
<polygon fill="midnightblue" stroke="midnightblue" points="636.2,-280.95 646.43,-278.2 636.72,-273.97 636.2,-280.95"/>
</g>
<!-- Node165 -->
<g id="node7" class="node">
<title>Node165</title>
<g id="a_node7"><a xlink:href="quickjs_8c.html#a9105ee38f5a557a7922fe6cfee0f9bb2" target="_top" xlink:title=" ">
<polygon fill="none" stroke="black" points="3.5,-292 3.5,-322 121.5,-322 121.5,-292 3.5,-292"/>
<text text-anchor="start" x="11.5" y="-310" font-family="Helvetica,sans-Serif" font-size="10.00">js_arguments_define</text>
<text text-anchor="middle" x="62.5" y="-299" font-family="Helvetica,sans-Serif" font-size="10.00">_own_property</text>
</a>
</g>
</g>
<!-- Node2&#45;&gt;Node165 -->
<g id="edge9" class="edge">
<title>Node2&#45;&gt;Node165</title>
<path fill="none" stroke="midnightblue" d="M644.21,-300.06C629.61,-304.4 613.81,-308.72 599,-312 536.28,-325.89 520.07,-328.32 456,-333 337.32,-341.67 198.35,-326.49 121.71,-315.91"/>
<polygon fill="midnightblue" stroke="midnightblue" points="645.53,-303.32 654.09,-297.07 643.5,-296.62 645.53,-303.32"/>
</g>
<!-- Node221 -->
<g id="node9" class="node">
<title>Node221</title>
<g id="a_node9"><a xlink:href="quickjs_8c.html#ad5565bb5cfd5321f181573257f3b0c91" target="_top" xlink:title=" ">
<polygon fill="none" stroke="red" points="349,-304.5 349,-323.5 453,-323.5 453,-304.5 349,-304.5"/>
<text text-anchor="middle" x="401" y="-311.5" font-family="Helvetica,sans-Serif" font-size="10.00">JS_CreateProperty</text>
</a>
</g>
</g>
<!-- Node2&#45;&gt;Node221 -->
<g id="edge10" class="edge">
<title>Node2&#45;&gt;Node221</title>
<path fill="none" stroke="midnightblue" d="M636.07,-288.82C581.54,-294.69 503.9,-303.04 453.23,-308.49"/>
<polygon fill="midnightblue" stroke="midnightblue" points="636.74,-292.27 646.31,-287.72 636,-285.31 636.74,-292.27"/>
</g>
<!-- Node4 -->
<g id="node4" class="node">
<title>Node4</title>
<g id="a_node4"><a xlink:href="quickjs_8c.html#a2b88ed25233c441cbed7b0a027c9ee2f" target="_top" xlink:title=" ">
<polygon fill="none" stroke="red" points="349,-152.5 349,-171.5 453,-171.5 453,-152.5 349,-152.5"/>
<text text-anchor="middle" x="401" y="-159.5" font-family="Helvetica,sans-Serif" font-size="10.00">JS_DeleteProperty</text>
</a>
</g>
</g>
<!-- Node3&#45;&gt;Node4 -->
<g id="edge3" class="edge">
<title>Node3&#45;&gt;Node4</title>
<path fill="none" stroke="midnightblue" d="M488.31,-175.32C476.82,-173.55 464.78,-171.69 453.46,-169.94"/>
<polygon fill="midnightblue" stroke="midnightblue" points="487.82,-178.79 498.23,-176.86 488.89,-171.87 487.82,-178.79"/>
</g>
<!-- Node223 -->
<g id="node5" class="node">
<title>Node223</title>
<g id="a_node5"><a xlink:href="quickjs_8c.html#ad55fe6f65ecb58e327ac9e9b4ab475f5" target="_top" xlink:title=" ">
<polygon fill="none" stroke="black" points="352,-190.5 352,-209.5 450,-209.5 450,-190.5 352,-190.5"/>
<text text-anchor="middle" x="401" y="-197.5" font-family="Helvetica,sans-Serif" font-size="10.00">set_array_length</text>
</a>
</g>
</g>
<!-- Node3&#45;&gt;Node223 -->
<g id="edge4" class="edge">
<title>Node3&#45;&gt;Node223</title>
<path fill="none" stroke="midnightblue" d="M487.99,-190.34C475.58,-191.74 462.55,-193.2 450.48,-194.56"/>
<polygon fill="midnightblue" stroke="midnightblue" points="488.69,-193.79 498.23,-189.19 487.91,-186.83 488.69,-193.79"/>
</g>
<!-- Node223&#45;&gt;Node164 -->
<g id="edge5" class="edge">
<title>Node223&#45;&gt;Node164</title>
<path fill="none" stroke="midnightblue" d="M348.82,-211.9C325.83,-217.24 299.09,-223.45 277.46,-228.48"/>
<polygon fill="midnightblue" stroke="midnightblue" points="349.79,-215.26 358.74,-209.59 348.21,-208.44 349.79,-215.26"/>
</g>
<!-- Node130 -->
<g id="node8" class="node">
<title>Node130</title>
<g id="a_node8"><a xlink:href="quickjs_8c.html#ad7f03358a8088ca920ab308225c6b2e6" target="_top" xlink:title=" ">
<polygon fill="none" stroke="red" points="0,-209.5 0,-228.5 125,-228.5 125,-209.5 0,-209.5"/>
<text text-anchor="middle" x="62.5" y="-216.5" font-family="Helvetica,sans-Serif" font-size="10.00">JS_SetPropertyInternal</text>
</a>
</g>
</g>
<!-- Node223&#45;&gt;Node130 -->
<g id="edge8" class="edge">
<title>Node223&#45;&gt;Node130</title>
<path fill="none" stroke="midnightblue" d="M341.63,-203.3C281.07,-206.72 186.75,-212.04 125.04,-215.53"/>
<polygon fill="midnightblue" stroke="midnightblue" points="342,-206.78 351.79,-202.72 341.61,-199.79 342,-206.78"/>
</g>
<!-- Node164&#45;&gt;Node165 -->
<g id="edge6" class="edge">
<title>Node164&#45;&gt;Node165</title>
<path fill="none" stroke="midnightblue" d="M201.11,-251.47C172.32,-263.09 130.78,-279.85 100.88,-291.92"/>
<polygon fill="midnightblue" stroke="midnightblue" points="202.76,-254.58 210.72,-247.59 200.14,-248.09 202.76,-254.58"/>
</g>
<!-- Node164&#45;&gt;Node130 -->
<g id="edge7" class="edge">
<title>Node164&#45;&gt;Node130</title>
<path fill="none" stroke="midnightblue" d="M173.11,-231.18C157.48,-229.44 140.67,-227.57 125.03,-225.84"/>
<polygon fill="midnightblue" stroke="midnightblue" points="172.87,-234.67 183.19,-232.3 173.64,-227.72 172.87,-234.67"/>
</g>
<!-- Node221&#45;&gt;Node164 -->
<g id="edge11" class="edge">
<title>Node221&#45;&gt;Node164</title>
<path fill="none" stroke="midnightblue" d="M368.94,-300.36C361.42,-297.01 353.41,-293.4 346,-290 314.45,-275.5 278.08,-258.09 256.21,-247.54"/>
<polygon fill="midnightblue" stroke="midnightblue" points="367.58,-303.58 378.14,-304.43 370.41,-297.18 367.58,-303.58"/>
</g>
<!-- Node221&#45;&gt;Node130 -->
<g id="edge12" class="edge">
<title>Node221&#45;&gt;Node130</title>
<path fill="none" stroke="midnightblue" d="M341.35,-302.37C292.59,-292.14 221.63,-275.95 161,-257 134.64,-248.76 105.21,-236.91 85.65,-228.64"/>
<polygon fill="midnightblue" stroke="midnightblue" points="340.9,-305.85 351.4,-304.46 342.33,-299 340.9,-305.85"/>
</g>
<!-- Node616&#45;&gt;Node164 -->
<g id="edge16" class="edge">
<title>Node616&#45;&gt;Node164</title>
<path fill="none" stroke="midnightblue" d="M351.44,-62.69C349.52,-64 347.69,-65.44 346,-67 317.05,-93.72 330.64,-114.45 310,-148 290.55,-179.62 261.09,-212.28 246.06,-228.15"/>
<polygon fill="midnightblue" stroke="midnightblue" points="353.4,-65.6 360.38,-57.63 349.96,-59.51 353.4,-65.6"/>
</g>
<!-- Node616&#45;&gt;Node130 -->
<g id="edge19" class="edge">
<title>Node616&#45;&gt;Node130</title>
<path fill="none" stroke="midnightblue" d="M360.73,-61.01C355.72,-62.9 350.71,-64.92 346,-67 339.11,-70.05 141.82,-176.65 81.11,-209.48"/>
<polygon fill="midnightblue" stroke="midnightblue" points="362.05,-64.25 370.25,-57.54 359.66,-57.68 362.05,-64.25"/>
</g>
<!-- Node376 -->
<g id="node11" class="node">
<title>Node376</title>
<g id="a_node11"><a xlink:href="quickjs_8c.html#ad13892c0a0f11781b566808876658099" target="_top" xlink:title=" ">
<polygon fill="none" stroke="red" points="161,-19.5 161,-38.5 310,-38.5 310,-19.5 161,-19.5"/>
<text text-anchor="middle" x="235.5" y="-26.5" font-family="Helvetica,sans-Serif" font-size="10.00">JS_GetOwnPropertyInternal</text>
</a>
</g>
</g>
<!-- Node616&#45;&gt;Node376 -->
<g id="edge17" class="edge">
<title>Node616&#45;&gt;Node376</title>
<path fill="none" stroke="midnightblue" d="M335.56,-40.51C327.23,-39.54 318.66,-38.55 310.2,-37.57"/>
<polygon fill="midnightblue" stroke="midnightblue" points="335.22,-44 345.56,-41.67 336.03,-37.04 335.22,-44"/>
</g>
<!-- Node325 -->
<g id="node12" class="node">
<title>Node325</title>
<g id="a_node12"><a xlink:href="quickjs_8c.html#a5762c57ae0c9937e986040c01222833a" target="_top" xlink:title=" ">
<polygon fill="none" stroke="red" points="172,-57.5 172,-76.5 299,-76.5 299,-57.5 172,-57.5"/>
<text text-anchor="middle" x="235.5" y="-64.5" font-family="Helvetica,sans-Serif" font-size="10.00">JS_GetPropertyInternal</text>
</a>
</g>
</g>
<!-- Node616&#45;&gt;Node325 -->
<g id="edge18" class="edge">
<title>Node616&#45;&gt;Node325</title>
<path fill="none" stroke="midnightblue" d="M335.27,-55.52C323.39,-56.9 311.01,-58.34 299.19,-59.72"/>
<polygon fill="midnightblue" stroke="midnightblue" points="336.03,-58.96 345.56,-54.33 335.22,-52 336.03,-58.96"/>
</g>
<!-- Node617&#45;&gt;Node164 -->
<g id="edge23" class="edge">
<title>Node617&#45;&gt;Node164</title>
<path fill="none" stroke="midnightblue" d="M635.4,-115.33C562.45,-108.16 441.1,-104.56 346,-143 299.8,-161.68 259.56,-208.29 243.7,-228.46"/>
<polygon fill="midnightblue" stroke="midnightblue" points="635.06,-118.82 645.37,-116.36 635.78,-111.85 635.06,-118.82"/>
</g>
<!-- Node618 -->
<g id="node15" class="node">
<title>Node618</title>
<g id="a_node15"><a xlink:href="quickjs_8c.html#a0f23e03f0a367d4b5559a14efbb1f4ee" target="_top" xlink:title=" ">
<polygon fill="none" stroke="black" points="492,-76.5 492,-95.5 599,-95.5 599,-76.5 492,-76.5"/>
<text text-anchor="middle" x="545.5" y="-83.5" font-family="Helvetica,sans-Serif" font-size="10.00">seal_template_obj</text>
</a>
</g>
</g>
<!-- Node617&#45;&gt;Node618 -->
<g id="edge24" class="edge">
<title>Node617&#45;&gt;Node618</title>
<path fill="none" stroke="midnightblue" d="M635.17,-108.02C618.05,-103.77 600.09,-99.31 584.85,-95.52"/>
<polygon fill="midnightblue" stroke="midnightblue" points="634.58,-111.48 645.13,-110.5 636.27,-104.69 634.58,-111.48"/>
</g>
<!-- Node216 -->
<g id="node16" class="node">
<title>Node216</title>
<g id="a_node16"><a xlink:href="quickjs_8c.html#a035daca514f14aacc1e0cff81d8e423a" target="_top" xlink:title=" ">
<polygon fill="none" stroke="red" points="347.5,-76.5 347.5,-95.5 454.5,-95.5 454.5,-76.5 347.5,-76.5"/>
<text text-anchor="middle" x="401" y="-83.5" font-family="Helvetica,sans-Serif" font-size="10.00">js_parse_template</text>
</a>
</g>
</g>
<!-- Node618&#45;&gt;Node216 -->
<g id="edge25" class="edge">
<title>Node618&#45;&gt;Node216</title>
<path fill="none" stroke="midnightblue" d="M481.82,-86C472.84,-86 463.68,-86 454.92,-86"/>
<polygon fill="midnightblue" stroke="midnightblue" points="481.84,-89.5 491.84,-86 481.84,-82.5 481.84,-89.5"/>
</g>
</g>
</svg>
        <g id="navigator" transform="translate(0 0)" fill="#404254">
                <rect fill="#f2f5e9" fill-opacity="0.5" stroke="#606060" stroke-width=".5" x="0" y="0" width="60" height="60"/>
                <use id="zoomplus" xlink:href="#zoomPlus" x="17" y="9" onmousedown="handleZoom(evt,'in')"/>
                <use id="zoomminus" xlink:href="#zoomMin" x="42" y="9" onmousedown="handleZoom(evt,'out')"/>
                <use id="reset" xlink:href="#resetDef" x="30" y="36" onmousedown="handleReset()"/>
                <g id="arrowUp" xlink:href="#dirArrow" transform="translate(30 24)" onmousedown="handlePan(0,-1)">
                  <use xlink:href="#rim" fill="#404040">
                        <set attributeName="fill" to="#808080" begin="arrowUp.mouseover" end="arrowUp.mouseout"/>
                  </use>
                  <path fill="none" stroke="white" stroke-width="1.5" d="M0,-3.0v7 M-2.5,-0.5L0,-3.0L2.5,-0.5"/>
                </g>
                <g id="arrowRight" xlink:href="#dirArrow" transform="rotate(90) translate(36 -43)" onmousedown="handlePan(1,0)">
                  <use xlink:href="#rim" fill="#404040">
                        <set attributeName="fill" to="#808080" begin="arrowRight.mouseover" end="arrowRight.mouseout"/>
                  </use>
                  <path fill="none" stroke="white" stroke-width="1.5" d="M0,-3.0v7 M-2.5,-0.5L0,-3.0L2.5,-0.5"/>
                </g>
                <g id="arrowDown" xlink:href="#dirArrow" transform="rotate(180) translate(-30 -48)" onmousedown="handlePan(0,1)">
                  <use xlink:href="#rim" fill="#404040">
                        <set attributeName="fill" to="#808080" begin="arrowDown.mouseover" end="arrowDown.mouseout"/>
                  </use>
                  <path fill="none" stroke="white" stroke-width="1.5" d="M0,-3.0v7 M-2.5,-0.5L0,-3.0L2.5,-0.5"/>
                </g>
                <g id="arrowLeft" xlink:href="#dirArrow" transform="rotate(270) translate(-36 17)" onmousedown="handlePan(-1,0)">
                  <use xlink:href="#rim" fill="#404040">
                        <set attributeName="fill" to="#808080" begin="arrowLeft.mouseover" end="arrowLeft.mouseout"/>
                  </use>
                  <path fill="none" stroke="white" stroke-width="1.5" d="M0,-3.0v7 M-2.5,-0.5L0,-3.0L2.5,-0.5"/>
                </g>
        </g>
        <svg viewBox="0 0 15 15" width="100%" height="30px" preserveAspectRatio="xMaxYMin meet">
         <g id="arrow_out" transform="scale(0.3 0.3)">
          <a xlink:href="quickjs_8c_a3dd8e78607dbc729614deacf55901b95_icgraph_org.svg" target="_base">
           <rect id="button" ry="5" rx="5" y="6" x="6" height="38" width="38"
                fill="#f2f5e9" fill-opacity="0.5" stroke="#606060" stroke-width="1.0"/>
           <path id="arrow"
             d="M 11.500037,31.436501 C 11.940474,20.09759 22.043105,11.32322 32.158766,21.979434 L 37.068811,17.246167 C 37.068811,17.246167 37.088388,32 37.088388,32 L 22.160133,31.978069 C 22.160133,31.978069 26.997745,27.140456 26.997745,27.140456 C 18.528582,18.264221 13.291696,25.230495 11.500037,31.436501 z"
             style="fill:#404040;"/>
          </a>
         </g>
        </svg>
</svg>
