<?xml version="1.0" encoding="UTF-8" standalone="no"?>
<!DOCTYPE svg PUBLIC "-//W3C//DTD SVG 1.1//EN"
 "http://www.w3.org/Graphics/SVG/1.1/DTD/svg11.dtd">
<!-- Generated by graphviz version 2.43.0 (0)
 -->
<!-- Title: JS_DefinePropertyValueUint32 Pages: 1 -->
<svg width="971pt" height="635pt"
 viewBox="0.00 0.00 971.00 635.00" xmlns="http://www.w3.org/2000/svg" xmlns:xlink="http://www.w3.org/1999/xlink">
<g id="graph0" class="graph" transform="scale(1 1) rotate(0) translate(4 631)">
<title>JS_DefinePropertyValueUint32</title>
<!-- Node1 -->
<g id="node1" class="node">
<title>Node1</title>
<g id="a_node1"><a xlink:title=" ">
<polygon fill="#bfbfbf" stroke="black" points="800,-322.5 800,-341.5 963,-341.5 963,-322.5 800,-322.5"/>
<text text-anchor="middle" x="881.5" y="-329.5" font-family="Helvetica,sans-Serif" font-size="10.00">JS_DefinePropertyValueUint32</text>
</a>
</g>
</g>
<!-- Node2 -->
<g id="node2" class="node">
<title>Node2</title>
<g id="a_node2"><a xlink:href="quickjs_8c.html#a43208b0746998d2b6b9b8bd1ef8b5f99" target="_top" xlink:title=" ">
<polygon fill="none" stroke="black" points="623,-493.5 623,-512.5 748,-512.5 748,-493.5 623,-493.5"/>
<text text-anchor="middle" x="685.5" y="-500.5" font-family="Helvetica,sans-Serif" font-size="10.00">js_append_enumerate</text>
</a>
</g>
</g>
<!-- Node1&#45;&gt;Node2 -->
<g id="edge1" class="edge">
<title>Node1&#45;&gt;Node2</title>
<path fill="none" stroke="midnightblue" d="M870.81,-350.44C853.53,-381.55 814.43,-444.47 764,-479 754.82,-485.29 743.92,-489.98 733.25,-493.46"/>
<polygon fill="midnightblue" stroke="midnightblue" points="873.95,-351.99 875.64,-341.53 867.8,-348.65 873.95,-351.99"/>
</g>
<!-- Node73 -->
<g id="node6" class="node">
<title>Node73</title>
<g id="a_node6"><a xlink:href="quickjs_8c.html#a7a5c4f3ad3260974d9a0c75120ce5647" target="_top" xlink:title=" ">
<polygon fill="none" stroke="black" points="0,-474.5 0,-493.5 87,-493.5 87,-474.5 0,-474.5"/>
<text text-anchor="middle" x="43.5" y="-481.5" font-family="Helvetica,sans-Serif" font-size="10.00">js_promise_all</text>
</a>
</g>
</g>
<!-- Node1&#45;&gt;Node73 -->
<g id="edge23" class="edge">
<title>Node1&#45;&gt;Node73</title>
<path fill="none" stroke="midnightblue" d="M862.18,-348.22C840.46,-366.38 802.35,-394.96 764,-408 660.81,-443.09 628.49,-427 519.5,-427 519.5,-427 519.5,-427 357.5,-427 252.25,-427 225.75,-437.21 123,-460 105.75,-463.83 86.79,-469.58 71.83,-474.49"/>
<polygon fill="midnightblue" stroke="midnightblue" points="864.6,-350.76 869.92,-341.6 860.05,-345.44 864.6,-350.76"/>
</g>
<!-- Node88 -->
<g id="node7" class="node">
<title>Node88</title>
<g id="a_node7"><a xlink:href="quickjs_8c.html#a0bfdeb7e158aebcb79b7c9367a60be80" target="_top" xlink:title=" ">
<polygon fill="none" stroke="black" points="123,-469 123,-499 251,-499 251,-469 123,-469"/>
<text text-anchor="start" x="131" y="-487" font-family="Helvetica,sans-Serif" font-size="10.00">js_promise_all_resolve</text>
<text text-anchor="middle" x="187" y="-476" font-family="Helvetica,sans-Serif" font-size="10.00">_element</text>
</a>
</g>
</g>
<!-- Node1&#45;&gt;Node88 -->
<g id="edge24" class="edge">
<title>Node1&#45;&gt;Node88</title>
<path fill="none" stroke="midnightblue" d="M867.84,-349.86C848.66,-375.27 809.63,-420.98 764,-441 718,-461.18 391.13,-476.11 251.25,-481.65"/>
<polygon fill="midnightblue" stroke="midnightblue" points="870.88,-351.64 873.98,-341.5 865.23,-347.49 870.88,-351.64"/>
</g>
<!-- Node222 -->
<g id="node10" class="node">
<title>Node222</title>
<g id="a_node10"><a xlink:href="quickjs_8c.html#a1c459034f2971c4abc3a8d6d4693ef5f" target="_top" xlink:title=" ">
<polygon fill="none" stroke="black" points="607,-569.5 607,-588.5 764,-588.5 764,-569.5 607,-569.5"/>
<text text-anchor="middle" x="685.5" y="-576.5" font-family="Helvetica,sans-Serif" font-size="10.00">js_build_mapped_arguments</text>
</a>
</g>
</g>
<!-- Node1&#45;&gt;Node222 -->
<g id="edge14" class="edge">
<title>Node1&#45;&gt;Node222</title>
<path fill="none" stroke="midnightblue" d="M876.38,-351.39C865.91,-395.66 834.05,-504.57 764,-560 759.11,-563.87 753.55,-566.96 747.69,-569.44"/>
<polygon fill="midnightblue" stroke="midnightblue" points="879.8,-352.13 878.58,-341.6 872.97,-350.59 879.8,-352.13"/>
</g>
<!-- Node608 -->
<g id="node11" class="node">
<title>Node608</title>
<g id="a_node11"><a xlink:href="quickjs_8c.html#a72f4829a5b32f5445fe3f2a59efeb8ea" target="_top" xlink:title=" ">
<polygon fill="none" stroke="black" points="646.5,-531.5 646.5,-550.5 724.5,-550.5 724.5,-531.5 646.5,-531.5"/>
<text text-anchor="middle" x="685.5" y="-538.5" font-family="Helvetica,sans-Serif" font-size="10.00">js_build_rest</text>
</a>
</g>
</g>
<!-- Node1&#45;&gt;Node608 -->
<g id="edge16" class="edge">
<title>Node1&#45;&gt;Node608</title>
<path fill="none" stroke="midnightblue" d="M874.32,-351.28C860.86,-390.01 825.13,-477.37 764,-522 752.59,-530.33 737.97,-535.04 724.5,-537.69"/>
<polygon fill="midnightblue" stroke="midnightblue" points="877.66,-352.32 877.52,-341.72 871.02,-350.09 877.66,-352.32"/>
</g>
<!-- Node609 -->
<g id="node12" class="node">
<title>Node609</title>
<g id="a_node12"><a xlink:href="quickjs-libc_8c.html#a6d1c957c402e5cda23a3b00762208185" target="_top" xlink:title=" ">
<polygon fill="none" stroke="black" points="651.5,-379.5 651.5,-398.5 719.5,-398.5 719.5,-379.5 651.5,-379.5"/>
<text text-anchor="middle" x="685.5" y="-386.5" font-family="Helvetica,sans-Serif" font-size="10.00">js_os_pipe</text>
</a>
</g>
</g>
<!-- Node1&#45;&gt;Node609 -->
<g id="edge18" class="edge">
<title>Node1&#45;&gt;Node609</title>
<path fill="none" stroke="midnightblue" d="M838.35,-344.38C802.53,-354.91 751.85,-369.8 719.08,-379.43"/>
<polygon fill="midnightblue" stroke="midnightblue" points="839.42,-347.72 848.03,-341.54 837.45,-341 839.42,-347.72"/>
</g>
<!-- Node551 -->
<g id="node13" class="node">
<title>Node551</title>
<g id="a_node13"><a xlink:href="quickjs-libc_8c.html#a64270f007df853e9d2f443383d26ec60" target="_top" xlink:title=" ">
<polygon fill="none" stroke="black" points="478,-228.5 478,-247.5 559,-247.5 559,-228.5 478,-228.5"/>
<text text-anchor="middle" x="518.5" y="-235.5" font-family="Helvetica,sans-Serif" font-size="10.00">js_os_readdir</text>
</a>
</g>
</g>
<!-- Node1&#45;&gt;Node551 -->
<g id="edge19" class="edge">
<title>Node1&#45;&gt;Node551</title>
<path fill="none" stroke="midnightblue" d="M830.3,-343.55C773.52,-354.05 679.54,-363.58 607,-332 566.52,-314.38 536.32,-267.78 524.71,-247.58"/>
<polygon fill="midnightblue" stroke="midnightblue" points="831.3,-346.92 840.45,-341.58 829.97,-340.05 831.3,-346.92"/>
</g>
<!-- Node469 -->
<g id="node14" class="node">
<title>Node469</title>
<g id="a_node14"><a xlink:href="quickjs-libc_8c.html#a9caf548a60b412734dc8a40a7ebc914e" target="_top" xlink:title=" ">
<polygon fill="none" stroke="black" points="627.5,-303.5 627.5,-322.5 743.5,-322.5 743.5,-303.5 627.5,-303.5"/>
<text text-anchor="middle" x="685.5" y="-310.5" font-family="Helvetica,sans-Serif" font-size="10.00">js_os_ttyGetWinSize</text>
</a>
</g>
</g>
<!-- Node1&#45;&gt;Node469 -->
<g id="edge20" class="edge">
<title>Node1&#45;&gt;Node469</title>
<path fill="none" stroke="midnightblue" d="M789.69,-323.11C774.06,-321.58 758.21,-320.02 743.79,-318.61"/>
<polygon fill="midnightblue" stroke="midnightblue" points="789.62,-326.62 799.91,-324.11 790.3,-319.65 789.62,-326.62"/>
</g>
<!-- Node471 -->
<g id="node15" class="node">
<title>Node471</title>
<g id="a_node15"><a xlink:href="quickjs-libc_8c.html#aedcefc332980a5da1b0a3c512232d46f" target="_top" xlink:title=" ">
<polygon fill="none" stroke="black" points="644,-265.5 644,-284.5 727,-284.5 727,-265.5 644,-265.5"/>
<text text-anchor="middle" x="685.5" y="-272.5" font-family="Helvetica,sans-Serif" font-size="10.00">js_os_waitpid</text>
</a>
</g>
</g>
<!-- Node1&#45;&gt;Node471 -->
<g id="edge21" class="edge">
<title>Node1&#45;&gt;Node471</title>
<path fill="none" stroke="midnightblue" d="M843.29,-319.08C820.53,-311.37 790.73,-301.62 764,-294 752.14,-290.62 739.16,-287.29 727.28,-284.39"/>
<polygon fill="midnightblue" stroke="midnightblue" points="842.31,-322.44 852.9,-322.35 844.57,-315.81 842.31,-322.44"/>
</g>
<!-- Node213 -->
<g id="node16" class="node">
<title>Node213</title>
<g id="a_node16"><a xlink:href="quickjs_8c.html#a035daca514f14aacc1e0cff81d8e423a" target="_top" xlink:title=" ">
<polygon fill="none" stroke="red" points="632,-227.5 632,-246.5 739,-246.5 739,-227.5 632,-227.5"/>
<text text-anchor="middle" x="685.5" y="-234.5" font-family="Helvetica,sans-Serif" font-size="10.00">js_parse_template</text>
</a>
</g>
</g>
<!-- Node1&#45;&gt;Node213 -->
<g id="edge22" class="edge">
<title>Node1&#45;&gt;Node213</title>
<path fill="none" stroke="midnightblue" d="M860.7,-316.05C838.42,-298.87 800.57,-271.86 764,-256 755.23,-252.2 745.56,-249.06 736.11,-246.51"/>
<polygon fill="midnightblue" stroke="midnightblue" points="858.67,-318.92 868.7,-322.33 862.99,-313.41 858.67,-318.92"/>
</g>
<!-- Node53 -->
<g id="node17" class="node">
<title>Node53</title>
<g id="a_node17"><a xlink:href="quickjs_8c.html#a18da561cb430d36d47200cd3ab394984" target="_top" xlink:title=" ">
<polygon fill="none" stroke="red" points="644.5,-189.5 644.5,-208.5 726.5,-208.5 726.5,-189.5 644.5,-189.5"/>
<text text-anchor="middle" x="685.5" y="-196.5" font-family="Helvetica,sans-Serif" font-size="10.00">JS_ReadArray</text>
</a>
</g>
</g>
<!-- Node1&#45;&gt;Node53 -->
<g id="edge25" class="edge">
<title>Node1&#45;&gt;Node53</title>
<path fill="none" stroke="midnightblue" d="M867.5,-314.28C847.94,-288.96 808.47,-242.73 764,-218 752.62,-211.67 739.15,-207.43 726.65,-204.59"/>
<polygon fill="midnightblue" stroke="midnightblue" points="864.74,-316.44 873.56,-322.3 870.32,-312.22 864.74,-316.44"/>
</g>
<!-- Node138 -->
<g id="node18" class="node">
<title>Node138</title>
<g id="a_node18"><a xlink:href="quickjs_8c.html#a9eb2d90f27f684820f9de13189502b7c" target="_top" xlink:title=" ">
<polygon fill="none" stroke="red" points="639.5,-151.5 639.5,-170.5 731.5,-170.5 731.5,-151.5 639.5,-151.5"/>
<text text-anchor="middle" x="685.5" y="-158.5" font-family="Helvetica,sans-Serif" font-size="10.00">js_regexp_exec</text>
</a>
</g>
</g>
<!-- Node1&#45;&gt;Node138 -->
<g id="edge26" class="edge">
<title>Node1&#45;&gt;Node138</title>
<path fill="none" stroke="midnightblue" d="M871.44,-313.07C854.87,-280.55 816.5,-214.29 764,-180 754.37,-173.71 742.84,-169.5 731.65,-166.69"/>
<polygon fill="midnightblue" stroke="midnightblue" points="868.47,-314.95 876.04,-322.35 874.74,-311.84 868.47,-314.95"/>
</g>
<!-- Node305 -->
<g id="node19" class="node">
<title>Node305</title>
<g id="a_node19"><a xlink:href="quickjs_8c.html#a756c1ab5dee9a6dd07723d7a075e2a53" target="_top" xlink:title=" ">
<polygon fill="none" stroke="red" points="635,-95.5 635,-114.5 736,-114.5 736,-95.5 635,-95.5"/>
<text text-anchor="middle" x="685.5" y="-102.5" font-family="Helvetica,sans-Serif" font-size="10.00">json_parse_value</text>
</a>
</g>
</g>
<!-- Node1&#45;&gt;Node305 -->
<g id="edge27" class="edge">
<title>Node1&#45;&gt;Node305</title>
<path fill="none" stroke="midnightblue" d="M873.09,-312.72C857.87,-275.33 819.74,-192.2 764,-142 750.37,-129.73 731.95,-120.71 716.48,-114.65"/>
<polygon fill="midnightblue" stroke="midnightblue" points="869.99,-314.38 876.93,-322.39 876.49,-311.8 869.99,-314.38"/>
</g>
<!-- Node610 -->
<g id="node20" class="node">
<title>Node610</title>
<g id="a_node20"><a xlink:href="quickjs-libc_8c.html#a0210b73e16d177f7668621a6573576aa" target="_top" xlink:title=" ">
<polygon fill="none" stroke="black" points="639.5,-57.5 639.5,-76.5 731.5,-76.5 731.5,-57.5 639.5,-57.5"/>
<text text-anchor="middle" x="685.5" y="-64.5" font-family="Helvetica,sans-Serif" font-size="10.00">make_obj_error</text>
</a>
</g>
</g>
<!-- Node1&#45;&gt;Node610 -->
<g id="edge29" class="edge">
<title>Node1&#45;&gt;Node610</title>
<path fill="none" stroke="midnightblue" d="M877.11,-312.38C867.96,-265.54 838.24,-146.59 764,-86 754.88,-78.55 743.27,-73.96 731.83,-71.14"/>
<polygon fill="midnightblue" stroke="midnightblue" points="873.71,-313.23 878.97,-322.42 880.59,-311.95 873.71,-313.23"/>
</g>
<!-- Node3 -->
<g id="node3" class="node">
<title>Node3</title>
<g id="a_node3"><a xlink:href="quickjs_8c.html#ac2894ff4edcdb4e6841bcce9c76081e3" target="_top" xlink:title=" ">
<polygon fill="none" stroke="black" points="475,-531.5 475,-550.5 562,-550.5 562,-531.5 475,-531.5"/>
<text text-anchor="middle" x="518.5" y="-538.5" font-family="Helvetica,sans-Serif" font-size="10.00">JS_CallInternal</text>
</a>
</g>
</g>
<!-- Node2&#45;&gt;Node3 -->
<g id="edge2" class="edge">
<title>Node2&#45;&gt;Node3</title>
<path fill="none" stroke="midnightblue" d="M632.85,-514.9C609.65,-520.24 582.66,-526.45 560.84,-531.48"/>
<polygon fill="midnightblue" stroke="midnightblue" points="633.9,-518.24 642.86,-512.59 632.33,-511.42 633.9,-518.24"/>
</g>
<!-- Node3&#45;&gt;Node3 -->
<g id="edge13" class="edge">
<title>Node3&#45;&gt;Node3</title>
<path fill="none" stroke="midnightblue" d="M548.44,-559.27C547.59,-564.74 537.61,-569 518.5,-569 490.06,-569 481.84,-559.57 493.84,-550.76"/>
<polygon fill="midnightblue" stroke="midnightblue" points="551.4,-557.41 543.16,-550.76 545.45,-561.1 551.4,-557.41"/>
</g>
<!-- Node4 -->
<g id="node4" class="node">
<title>Node4</title>
<g id="a_node4"><a xlink:href="quickjs_8c.html#ade71a22dc56e7371392393df663b28b3" target="_top" xlink:title=" ">
<polygon fill="none" stroke="red" points="302,-569.5 302,-588.5 415,-588.5 415,-569.5 302,-569.5"/>
<text text-anchor="middle" x="358.5" y="-576.5" font-family="Helvetica,sans-Serif" font-size="10.00">async_func_resume</text>
</a>
</g>
</g>
<!-- Node3&#45;&gt;Node4 -->
<g id="edge3" class="edge">
<title>Node3&#45;&gt;Node4</title>
<path fill="none" stroke="midnightblue" d="M467.74,-552.97C445.6,-558.29 419.89,-564.48 399.08,-569.48"/>
<polygon fill="midnightblue" stroke="midnightblue" points="468.73,-556.33 477.63,-550.59 467.09,-549.52 468.73,-556.33"/>
</g>
<!-- Node23 -->
<g id="node5" class="node">
<title>Node23</title>
<g id="a_node5"><a xlink:href="quickjs_8c.html#a1a4c02a29525d5cb2085dd8bca3af350" target="_top" xlink:title=" ">
<polygon fill="none" stroke="red" points="333.5,-531.5 333.5,-550.5 383.5,-550.5 383.5,-531.5 333.5,-531.5"/>
<text text-anchor="middle" x="358.5" y="-538.5" font-family="Helvetica,sans-Serif" font-size="10.00">JS_Call</text>
</a>
</g>
</g>
<!-- Node3&#45;&gt;Node23 -->
<g id="edge4" class="edge">
<title>Node3&#45;&gt;Node23</title>
<path fill="none" stroke="midnightblue" d="M464.51,-534.59C437.13,-533.85 405.05,-534.32 383.63,-535.98"/>
<polygon fill="midnightblue" stroke="midnightblue" points="464.63,-538.09 474.74,-534.93 464.86,-531.1 464.63,-538.09"/>
</g>
<!-- Node108 -->
<g id="node8" class="node">
<title>Node108</title>
<g id="a_node8"><a xlink:href="quickjs_8c.html#ad35594576a14c10812efaf958c99af8a" target="_top" xlink:title=" ">
<polygon fill="none" stroke="red" points="287,-493.5 287,-512.5 430,-512.5 430,-493.5 287,-493.5"/>
<text text-anchor="middle" x="358.5" y="-500.5" font-family="Helvetica,sans-Serif" font-size="10.00">JS_CallConstructorInternal</text>
</a>
</g>
</g>
<!-- Node3&#45;&gt;Node108 -->
<g id="edge9" class="edge">
<title>Node3&#45;&gt;Node108</title>
<path fill="none" stroke="midnightblue" d="M487.22,-528.27C470.11,-523.09 448,-517.36 426.99,-512.55"/>
<polygon fill="midnightblue" stroke="midnightblue" points="486.58,-531.74 497.17,-531.41 488.68,-525.06 486.58,-531.74"/>
</g>
<!-- Node122 -->
<g id="node9" class="node">
<title>Node122</title>
<g id="a_node9"><a xlink:href="quickjs_8c.html#a75f6ee5e4235a7dc99889f3d2eb2c147" target="_top" xlink:title=" ">
<polygon fill="none" stroke="red" points="323,-607.5 323,-626.5 394,-626.5 394,-607.5 323,-607.5"/>
<text text-anchor="middle" x="358.5" y="-614.5" font-family="Helvetica,sans-Serif" font-size="10.00">JS_CallFree</text>
</a>
</g>
</g>
<!-- Node3&#45;&gt;Node122 -->
<g id="edge11" class="edge">
<title>Node3&#45;&gt;Node122</title>
<path fill="none" stroke="midnightblue" d="M487.07,-556.19C470.84,-566.72 450.11,-580.01 430,-589 411.71,-597.17 389.15,-602.49 374.55,-607.49"/>
<polygon fill="midnightblue" stroke="midnightblue" points="489.11,-559.04 495.6,-550.67 485.3,-553.17 489.11,-559.04"/>
</g>
<!-- Node23&#45;&gt;Node3 -->
<g id="edge5" class="edge">
<title>Node23&#45;&gt;Node3</title>
<path fill="none" stroke="midnightblue" d="M393.92,-546.69C417.66,-547.96 449.38,-548.09 474.74,-547.07"/>
<polygon fill="midnightblue" stroke="midnightblue" points="393.83,-543.17 383.63,-546.02 393.38,-550.16 393.83,-543.17"/>
</g>
<!-- Node23&#45;&gt;Node73 -->
<g id="edge6" class="edge">
<title>Node23&#45;&gt;Node73</title>
<path fill="none" stroke="midnightblue" d="M323.26,-538.2C277.3,-534.01 193.28,-524.86 123,-509 105.28,-505 85.82,-498.82 70.71,-493.6"/>
<polygon fill="midnightblue" stroke="midnightblue" points="323.02,-541.69 333.29,-539.08 323.64,-534.71 323.02,-541.69"/>
</g>
<!-- Node23&#45;&gt;Node88 -->
<g id="edge7" class="edge">
<title>Node23&#45;&gt;Node88</title>
<path fill="none" stroke="midnightblue" d="M323.66,-532.64C311.97,-529.55 298.84,-525.86 287,-522 266.17,-515.22 243.31,-506.53 224.81,-499.17"/>
<polygon fill="midnightblue" stroke="midnightblue" points="322.94,-536.07 333.5,-535.19 324.69,-529.29 322.94,-536.07"/>
</g>
<!-- Node88&#45;&gt;Node73 -->
<g id="edge8" class="edge">
<title>Node88&#45;&gt;Node73</title>
<path fill="none" stroke="midnightblue" d="M112.48,-484C103.77,-484 95.11,-484 87.04,-484"/>
<polygon fill="midnightblue" stroke="midnightblue" points="112.7,-487.5 122.7,-484 112.7,-480.5 112.7,-487.5"/>
</g>
<!-- Node108&#45;&gt;Node3 -->
<g id="edge10" class="edge">
<title>Node108&#45;&gt;Node3</title>
<path fill="none" stroke="midnightblue" d="M389.34,-515.6C413.46,-522.92 447.71,-531.37 474.74,-536.79"/>
<polygon fill="midnightblue" stroke="midnightblue" points="390.27,-512.22 379.68,-512.54 388.16,-518.89 390.27,-512.22"/>
</g>
<!-- Node122&#45;&gt;Node3 -->
<g id="edge12" class="edge">
<title>Node122&#45;&gt;Node3</title>
<path fill="none" stroke="midnightblue" d="M404.06,-616.08C412.84,-613.72 421.84,-610.65 430,-607 463.1,-592.2 497.89,-565.74 511.52,-550.57"/>
<polygon fill="midnightblue" stroke="midnightblue" points="403.22,-612.69 394.31,-618.43 404.86,-619.49 403.22,-612.69"/>
</g>
<!-- Node222&#45;&gt;Node3 -->
<g id="edge15" class="edge">
<title>Node222&#45;&gt;Node3</title>
<path fill="none" stroke="midnightblue" d="M632.85,-567.1C609.65,-561.76 582.66,-555.55 560.84,-550.52"/>
<polygon fill="midnightblue" stroke="midnightblue" points="632.33,-570.58 642.86,-569.41 633.9,-563.76 632.33,-570.58"/>
</g>
<!-- Node608&#45;&gt;Node3 -->
<g id="edge17" class="edge">
<title>Node608&#45;&gt;Node3</title>
<path fill="none" stroke="midnightblue" d="M636.16,-541C612.73,-541 584.84,-541 562.21,-541"/>
<polygon fill="midnightblue" stroke="midnightblue" points="636.23,-544.5 646.23,-541 636.23,-537.5 636.23,-544.5"/>
</g>
<!-- Node305&#45;&gt;Node305 -->
<g id="edge28" class="edge">
<title>Node305&#45;&gt;Node305</title>
<path fill="none" stroke="midnightblue" d="M716.56,-123.27C715.68,-128.74 705.32,-133 685.5,-133 656,-133 647.47,-123.57 659.91,-114.76"/>
<polygon fill="midnightblue" stroke="midnightblue" points="719.44,-121.27 711.09,-114.76 713.55,-125.06 719.44,-121.27"/>
</g>
<!-- Node610&#45;&gt;Node551 -->
<g id="edge30" class="edge">
<title>Node610&#45;&gt;Node551</title>
<path fill="none" stroke="midnightblue" d="M629.35,-74.62C621.36,-77.34 613.61,-81.03 607,-86 556.13,-124.23 530,-201.35 522.12,-228.38"/>
<polygon fill="midnightblue" stroke="midnightblue" points="630.54,-77.91 639.15,-71.74 628.57,-71.2 630.54,-77.91"/>
</g>
<!-- Node241 -->
<g id="node21" class="node">
<title>Node241</title>
<g id="a_node21"><a xlink:href="quickjs-libc_8c.html#a0142166ddf6e134f89207c3ee3c7572c" target="_top" xlink:title=" ">
<polygon fill="none" stroke="black" points="486,-76.5 486,-95.5 551,-95.5 551,-76.5 486,-76.5"/>
<text text-anchor="middle" x="518.5" y="-83.5" font-family="Helvetica,sans-Serif" font-size="10.00">js_os_stat</text>
</a>
</g>
</g>
<!-- Node610&#45;&gt;Node241 -->
<g id="edge31" class="edge">
<title>Node610&#45;&gt;Node241</title>
<path fill="none" stroke="midnightblue" d="M629.31,-73.35C603.34,-76.35 573.29,-79.81 551.2,-82.35"/>
<polygon fill="midnightblue" stroke="midnightblue" points="629.88,-76.81 639.41,-72.19 629.08,-69.86 629.88,-76.81"/>
</g>
<!-- Node611 -->
<g id="node22" class="node">
<title>Node611</title>
<g id="a_node22"><a xlink:href="quickjs-libc_8c.html#ae77b81ae623983a6ab0351277d33e0f4" target="_top" xlink:title=" ">
<polygon fill="none" stroke="black" points="466,-38.5 466,-57.5 571,-57.5 571,-38.5 466,-38.5"/>
<text text-anchor="middle" x="518.5" y="-45.5" font-family="Helvetica,sans-Serif" font-size="10.00">make_string_error</text>
</a>
</g>
</g>
<!-- Node610&#45;&gt;Node611 -->
<g id="edge32" class="edge">
<title>Node610&#45;&gt;Node611</title>
<path fill="none" stroke="midnightblue" d="M629.25,-60.64C610.53,-58.48 589.69,-56.08 571.24,-53.96"/>
<polygon fill="midnightblue" stroke="midnightblue" points="629.08,-64.14 639.41,-61.81 629.88,-57.19 629.08,-64.14"/>
</g>
<!-- Node612 -->
<g id="node23" class="node">
<title>Node612</title>
<g id="a_node23"><a xlink:href="quickjs-libc_8c.html#ae652036c9a8e00ce0926d51f67628174" target="_top" xlink:title=" ">
<polygon fill="none" stroke="black" points="317.5,-76.5 317.5,-95.5 399.5,-95.5 399.5,-76.5 317.5,-76.5"/>
<text text-anchor="middle" x="358.5" y="-83.5" font-family="Helvetica,sans-Serif" font-size="10.00">js_os_getcwd</text>
</a>
</g>
</g>
<!-- Node611&#45;&gt;Node612 -->
<g id="edge33" class="edge">
<title>Node611&#45;&gt;Node612</title>
<path fill="none" stroke="midnightblue" d="M467.74,-59.97C445.6,-65.29 419.89,-71.48 399.08,-76.48"/>
<polygon fill="midnightblue" stroke="midnightblue" points="468.73,-63.33 477.63,-57.59 467.09,-56.52 468.73,-63.33"/>
</g>
<!-- Node552 -->
<g id="node24" class="node">
<title>Node552</title>
<g id="a_node24"><a xlink:href="quickjs-libc_8c.html#a2173b95ca89b7de47e5bf9d5866877b9" target="_top" xlink:title=" ">
<polygon fill="none" stroke="black" points="315.5,-38.5 315.5,-57.5 401.5,-57.5 401.5,-38.5 315.5,-38.5"/>
<text text-anchor="middle" x="358.5" y="-45.5" font-family="Helvetica,sans-Serif" font-size="10.00">js_os_readlink</text>
</a>
</g>
</g>
<!-- Node611&#45;&gt;Node552 -->
<g id="edge34" class="edge">
<title>Node611&#45;&gt;Node552</title>
<path fill="none" stroke="midnightblue" d="M455.58,-48C437.5,-48 418.16,-48 401.6,-48"/>
<polygon fill="midnightblue" stroke="midnightblue" points="455.76,-51.5 465.76,-48 455.76,-44.5 455.76,-51.5"/>
</g>
<!-- Node553 -->
<g id="node25" class="node">
<title>Node553</title>
<g id="a_node25"><a xlink:href="quickjs-libc_8c.html#a02dc6b1cce70abfcd4bd5c862584e0a4" target="_top" xlink:title=" ">
<polygon fill="none" stroke="black" points="315,-0.5 315,-19.5 402,-19.5 402,-0.5 315,-0.5"/>
<text text-anchor="middle" x="358.5" y="-7.5" font-family="Helvetica,sans-Serif" font-size="10.00">js_os_realpath</text>
</a>
</g>
</g>
<!-- Node611&#45;&gt;Node553 -->
<g id="edge35" class="edge">
<title>Node611&#45;&gt;Node553</title>
<path fill="none" stroke="midnightblue" d="M467.74,-36.03C445.6,-30.71 419.89,-24.52 399.08,-19.52"/>
<polygon fill="midnightblue" stroke="midnightblue" points="467.09,-39.48 477.63,-38.41 468.73,-32.67 467.09,-39.48"/>
</g>
</g>
</svg>
