<?xml version="1.0" encoding="UTF-8" standalone="no"?>
<!DOCTYPE svg PUBLIC "-//W3C//DTD SVG 1.1//EN"
 "http://www.w3.org/Graphics/SVG/1.1/DTD/svg11.dtd">
<!-- Generated by graphviz version 2.43.0 (0)
 -->
<!-- Title: __JS_FreeValue Pages: 1 -->
<svg width="588pt" height="1072pt"
 viewBox="0.00 0.00 588.00 1072.00" xmlns="http://www.w3.org/2000/svg" xmlns:xlink="http://www.w3.org/1999/xlink">
<g id="graph0" class="graph" transform="scale(1 1) rotate(0) translate(4 1068)">
<title>__JS_FreeValue</title>
<!-- Node1 -->
<g id="node1" class="node">
<title>Node1</title>
<g id="a_node1"><a xlink:title=" ">
<polygon fill="#bfbfbf" stroke="black" points="491,-513.5 491,-532.5 580,-532.5 580,-513.5 491,-513.5"/>
<text text-anchor="middle" x="535.5" y="-520.5" font-family="Helvetica,sans-Serif" font-size="10.00">__JS_FreeValue</text>
</a>
</g>
</g>
<!-- Node2 -->
<g id="node2" class="node">
<title>Node2</title>
<g id="a_node2"><a xlink:href="quickjs_8h.html#afaa20c47565bc704c6c85f3d77254e7d" target="_top" xlink:title=" ">
<polygon fill="none" stroke="red" points="376,-513.5 376,-532.5 455,-532.5 455,-513.5 376,-513.5"/>
<text text-anchor="middle" x="415.5" y="-520.5" font-family="Helvetica,sans-Serif" font-size="10.00">JS_FreeValue</text>
</a>
</g>
</g>
<!-- Node1&#45;&gt;Node2 -->
<g id="edge1" class="edge">
<title>Node1&#45;&gt;Node2</title>
<path fill="none" stroke="midnightblue" d="M480.88,-523C472.24,-523 463.45,-523 455.25,-523"/>
<polygon fill="midnightblue" stroke="midnightblue" points="480.9,-526.5 490.9,-523 480.9,-519.5 480.9,-526.5"/>
</g>
<!-- Node3 -->
<g id="node3" class="node">
<title>Node3</title>
<g id="a_node3"><a xlink:href="quickjs_8c.html#adbffd820afae76d09c641b5b911e3600" target="_top" xlink:title=" ">
<polygon fill="none" stroke="red" points="195,-1044.5 195,-1063.5 330,-1063.5 330,-1044.5 195,-1044.5"/>
<text text-anchor="middle" x="262.5" y="-1051.5" font-family="Helvetica,sans-Serif" font-size="10.00">add_fast_array_element</text>
</a>
</g>
</g>
<!-- Node2&#45;&gt;Node3 -->
<g id="edge2" class="edge">
<title>Node2&#45;&gt;Node3</title>
<path fill="none" stroke="midnightblue" d="M414.45,-542.9C413.85,-628.07 407.16,-960.84 340,-1035 336.6,-1038.75 332.59,-1041.82 328.21,-1044.32"/>
<polygon fill="midnightblue" stroke="midnightblue" points="417.96,-542.79 414.51,-532.78 410.96,-542.76 417.96,-542.79"/>
</g>
<!-- Node179 -->
<g id="node4" class="node">
<title>Node179</title>
<g id="a_node4"><a xlink:href="quickjs-libc_8c.html#afc77720d4d1c0b90749ce275a4a16f74" target="_top" xlink:title=" ">
<polygon fill="none" stroke="red" points="227.5,-1006.5 227.5,-1025.5 297.5,-1025.5 297.5,-1006.5 227.5,-1006.5"/>
<text text-anchor="middle" x="262.5" y="-1013.5" font-family="Helvetica,sans-Serif" font-size="10.00">build_envp</text>
</a>
</g>
</g>
<!-- Node2&#45;&gt;Node179 -->
<g id="edge3" class="edge">
<title>Node2&#45;&gt;Node179</title>
<path fill="none" stroke="midnightblue" d="M414.19,-543.21C412.53,-624.85 402.21,-929.09 340,-997 329.37,-1008.6 312.85,-1013.62 297.88,-1015.62"/>
<polygon fill="midnightblue" stroke="midnightblue" points="417.7,-542.9 414.38,-532.84 410.7,-542.77 417.7,-542.9"/>
</g>
<!-- Node134 -->
<g id="node5" class="node">
<title>Node134</title>
<g id="a_node5"><a xlink:href="quickjs_8c.html#aa40a5354bee3b56e05a71244910bcc78" target="_top" xlink:title=" ">
<polygon fill="none" stroke="red" points="205,-968.5 205,-987.5 320,-987.5 320,-968.5 205,-968.5"/>
<text text-anchor="middle" x="262.5" y="-975.5" font-family="Helvetica,sans-Serif" font-size="10.00">build_for_in_iterator</text>
</a>
</g>
</g>
<!-- Node2&#45;&gt;Node134 -->
<g id="edge4" class="edge">
<title>Node2&#45;&gt;Node134</title>
<path fill="none" stroke="midnightblue" d="M413.89,-543.06C411.15,-620.3 397.4,-897.17 340,-959 334.6,-964.82 327.72,-968.97 320.31,-971.92"/>
<polygon fill="midnightblue" stroke="midnightblue" points="417.4,-542.91 414.23,-532.8 410.4,-542.68 417.4,-542.91"/>
</g>
<!-- Node30 -->
<g id="node6" class="node">
<title>Node30</title>
<g id="a_node6"><a xlink:href="quickjs-libc_8c.html#abb1cbe3fdf905e81f603a3a0bfce475a" target="_top" xlink:title=" ">
<polygon fill="none" stroke="black" points="224.5,-930.5 224.5,-949.5 300.5,-949.5 300.5,-930.5 224.5,-930.5"/>
<text text-anchor="middle" x="262.5" y="-937.5" font-family="Helvetica,sans-Serif" font-size="10.00">call_handler</text>
</a>
</g>
</g>
<!-- Node2&#45;&gt;Node30 -->
<g id="edge5" class="edge">
<title>Node2&#45;&gt;Node30</title>
<path fill="none" stroke="midnightblue" d="M413.56,-542.7C409.68,-615.11 392.65,-865.18 340,-921 329.95,-931.65 314.94,-936.72 300.87,-939.01"/>
<polygon fill="midnightblue" stroke="midnightblue" points="417.05,-542.83 414.07,-532.66 410.06,-542.47 417.05,-542.83"/>
</g>
<!-- Node129 -->
<g id="node7" class="node">
<title>Node129</title>
<g id="a_node7"><a xlink:href="quickjs_8c.html#a3fb71f8d31b557ebebec82476999408a" target="_top" xlink:title=" ">
<polygon fill="none" stroke="red" points="228.5,-892.5 228.5,-911.5 296.5,-911.5 296.5,-892.5 228.5,-892.5"/>
<text text-anchor="middle" x="262.5" y="-899.5" font-family="Helvetica,sans-Serif" font-size="10.00">call_setter</text>
</a>
</g>
</g>
<!-- Node2&#45;&gt;Node129 -->
<g id="edge6" class="edge">
<title>Node2&#45;&gt;Node129</title>
<path fill="none" stroke="midnightblue" d="M413.11,-542.98C407.97,-611.17 387.77,-833.31 340,-883 328.9,-894.54 311.97,-899.5 296.85,-901.49"/>
<polygon fill="midnightblue" stroke="midnightblue" points="416.62,-542.98 413.86,-532.75 409.64,-542.47 416.62,-542.98"/>
</g>
<!-- Node616 -->
<g id="node8" class="node">
<title>Node616</title>
<g id="a_node8"><a xlink:href="quickjs_8c.html#af98c0c68d51e36b9779a0bb215c3a923" target="_top" xlink:title=" ">
<polygon fill="none" stroke="red" points="201,-854.5 201,-873.5 324,-873.5 324,-854.5 201,-854.5"/>
<text text-anchor="middle" x="262.5" y="-861.5" font-family="Helvetica,sans-Serif" font-size="10.00">check_exception_free</text>
</a>
</g>
</g>
<!-- Node2&#45;&gt;Node616 -->
<g id="edge7" class="edge">
<title>Node2&#45;&gt;Node616</title>
<path fill="none" stroke="midnightblue" d="M412.39,-542.89C405.4,-605.32 381.03,-795.85 340,-840 334.12,-846.32 326.61,-850.99 318.59,-854.43"/>
<polygon fill="midnightblue" stroke="midnightblue" points="415.89,-543.11 413.5,-532.79 408.93,-542.35 415.89,-543.11"/>
</g>
<!-- Node34 -->
<g id="node9" class="node">
<title>Node34</title>
<g id="a_node9"><a xlink:href="quickjs_8c.html#aa0bbf08a7e91459c68a312fba7016c6d" target="_top" xlink:title=" ">
<polygon fill="none" stroke="black" points="30,-835.5 30,-854.5 119,-854.5 119,-835.5 30,-835.5"/>
<text text-anchor="middle" x="74.5" y="-842.5" font-family="Helvetica,sans-Serif" font-size="10.00">js_array_every</text>
</a>
</g>
</g>
<!-- Node2&#45;&gt;Node34 -->
<g id="edge30" class="edge">
<title>Node2&#45;&gt;Node34</title>
<path fill="none" stroke="midnightblue" d="M412.17,-542.59C404.81,-600.83 380.21,-771.13 340,-807 308.2,-835.37 185.78,-842.59 119.21,-844.41"/>
<polygon fill="midnightblue" stroke="midnightblue" points="415.66,-542.86 413.41,-532.5 408.71,-542 415.66,-542.86"/>
</g>
<!-- Node181 -->
<g id="node10" class="node">
<title>Node181</title>
<g id="a_node10"><a xlink:href="quickjs_8c.html#a93aaed931ba8fcbf558c02a846fc7844" target="_top" xlink:title=" ">
<polygon fill="none" stroke="red" points="203,-778.5 203,-797.5 322,-797.5 322,-778.5 203,-778.5"/>
<text text-anchor="middle" x="262.5" y="-785.5" font-family="Helvetica,sans-Serif" font-size="10.00">check_regexp_g_flag</text>
</a>
</g>
</g>
<!-- Node2&#45;&gt;Node181 -->
<g id="edge9" class="edge">
<title>Node2&#45;&gt;Node181</title>
<path fill="none" stroke="midnightblue" d="M414.67,-543.01C413.94,-589.76 405.3,-706.93 340,-769 334.94,-773.81 328.86,-777.46 322.37,-780.21"/>
<polygon fill="midnightblue" stroke="midnightblue" points="418.17,-542.73 414.72,-532.71 411.17,-542.7 418.17,-542.73"/>
</g>
<!-- Node617 -->
<g id="node11" class="node">
<title>Node617</title>
<g id="a_node11"><a xlink:href="quickjs_8c.html#a2b9a2014cb970af5b5b7dde00afbdffa" target="_top" xlink:title=" ">
<polygon fill="none" stroke="red" points="215.5,-740.5 215.5,-759.5 309.5,-759.5 309.5,-740.5 215.5,-740.5"/>
<text text-anchor="middle" x="262.5" y="-747.5" font-family="Helvetica,sans-Serif" font-size="10.00">delete_property</text>
</a>
</g>
</g>
<!-- Node2&#45;&gt;Node617 -->
<g id="edge10" class="edge">
<title>Node2&#45;&gt;Node617</title>
<path fill="none" stroke="midnightblue" d="M413.41,-542.7C410.01,-584.04 396.17,-680.21 340,-731 331.58,-738.62 320.57,-743.29 309.55,-746.13"/>
<polygon fill="midnightblue" stroke="midnightblue" points="416.91,-542.8 414.11,-532.58 409.93,-542.31 416.91,-542.8"/>
</g>
<!-- Node618 -->
<g id="node12" class="node">
<title>Node618</title>
<g id="a_node12"><a xlink:href="quickjs_8c.html#ac864482356b3efc2d0b0a509fcfa4c7c" target="_top" xlink:title=" ">
<polygon fill="none" stroke="red" points="224,-702.5 224,-721.5 301,-721.5 301,-702.5 224,-702.5"/>
<text text-anchor="middle" x="262.5" y="-709.5" font-family="Helvetica,sans-Serif" font-size="10.00">free_arg_list</text>
</a>
</g>
</g>
<!-- Node2&#45;&gt;Node618 -->
<g id="edge11" class="edge">
<title>Node2&#45;&gt;Node618</title>
<path fill="none" stroke="midnightblue" d="M411.57,-542.98C405.25,-578.7 386.9,-653.45 340,-693 329.22,-702.09 314.74,-706.94 301.27,-709.49"/>
<polygon fill="midnightblue" stroke="midnightblue" points="415.07,-543.28 413.22,-532.85 408.16,-542.16 415.07,-543.28"/>
</g>
<!-- Node619 -->
<g id="node13" class="node">
<title>Node619</title>
<g id="a_node13"><a xlink:href="quickjs_8c.html#a7cd95e5ed87d4b27630af7944855779f" target="_top" xlink:title=" ">
<polygon fill="none" stroke="red" points="228.5,-664.5 228.5,-683.5 296.5,-683.5 296.5,-664.5 228.5,-664.5"/>
<text text-anchor="middle" x="262.5" y="-671.5" font-family="Helvetica,sans-Serif" font-size="10.00">free_token</text>
</a>
</g>
</g>
<!-- Node2&#45;&gt;Node619 -->
<g id="edge12" class="edge">
<title>Node2&#45;&gt;Node619</title>
<path fill="none" stroke="midnightblue" d="M408.95,-542.55C399.64,-571.66 378.07,-626.04 340,-655 327.58,-664.44 311.05,-669.24 296.54,-671.66"/>
<polygon fill="midnightblue" stroke="midnightblue" points="412.37,-543.33 411.92,-532.74 405.67,-541.3 412.37,-543.33"/>
</g>
<!-- Node234 -->
<g id="node14" class="node">
<title>Node234</title>
<g id="a_node14"><a xlink:href="quickjs-libc_8c.html#ad94572b16428965bd7780a285c188c77" target="_top" xlink:title=" ">
<polygon fill="none" stroke="red" points="215,-626.5 215,-645.5 310,-645.5 310,-626.5 215,-626.5"/>
<text text-anchor="middle" x="262.5" y="-633.5" font-family="Helvetica,sans-Serif" font-size="10.00">get_bool_option</text>
</a>
</g>
</g>
<!-- Node2&#45;&gt;Node234 -->
<g id="edge13" class="edge">
<title>Node2&#45;&gt;Node234</title>
<path fill="none" stroke="midnightblue" d="M404.81,-541.55C392.61,-563.04 369.61,-597.94 340,-617 331.03,-622.78 320.42,-626.8 310.01,-629.6"/>
<polygon fill="midnightblue" stroke="midnightblue" points="407.91,-543.18 409.64,-532.72 401.77,-539.81 407.91,-543.18"/>
</g>
<!-- Node31 -->
<g id="node15" class="node">
<title>Node31</title>
<g id="a_node15"><a xlink:href="quickjs-libc_8c.html#a9fa4c190ba56314c7ed9b00bbc7ad0f9" target="_top" xlink:title=" ">
<polygon fill="none" stroke="black" points="194,-588.5 194,-607.5 331,-607.5 331,-588.5 194,-588.5"/>
<text text-anchor="middle" x="262.5" y="-595.5" font-family="Helvetica,sans-Serif" font-size="10.00">handle_posted_message</text>
</a>
</g>
</g>
<!-- Node2&#45;&gt;Node31 -->
<g id="edge14" class="edge">
<title>Node2&#45;&gt;Node31</title>
<path fill="none" stroke="midnightblue" d="M396.71,-539.65C382.41,-552.19 361.25,-568.89 340,-579 331.97,-582.82 323.08,-585.93 314.29,-588.43"/>
<polygon fill="midnightblue" stroke="midnightblue" points="399.2,-542.12 404.29,-532.83 394.52,-536.92 399.2,-542.12"/>
</g>
<!-- Node32 -->
<g id="node16" class="node">
<title>Node32</title>
<g id="a_node16"><a xlink:href="quickjs_8c.html#a624282391413d4c5a030adbd8b77aa80" target="_top" xlink:title=" ">
<polygon fill="none" stroke="red" points="192.5,-532.5 192.5,-551.5 332.5,-551.5 332.5,-532.5 192.5,-532.5"/>
<text text-anchor="middle" x="262.5" y="-539.5" font-family="Helvetica,sans-Serif" font-size="10.00">internalize_json_property</text>
</a>
</g>
</g>
<!-- Node2&#45;&gt;Node32 -->
<g id="edge15" class="edge">
<title>Node2&#45;&gt;Node32</title>
<path fill="none" stroke="midnightblue" d="M365.45,-529.17C355,-530.49 343.77,-531.9 332.73,-533.29"/>
<polygon fill="midnightblue" stroke="midnightblue" points="366.13,-532.61 375.61,-527.89 365.26,-525.67 366.13,-532.61"/>
</g>
<!-- Node71 -->
<g id="node17" class="node">
<title>Node71</title>
<g id="a_node17"><a xlink:href="quickjs_8c.html#a9f70dbefcf33550d6f9e588c05c9ffef" target="_top" xlink:title=" ">
<polygon fill="none" stroke="red" points="213.5,-494.5 213.5,-513.5 311.5,-513.5 311.5,-494.5 213.5,-494.5"/>
<text text-anchor="middle" x="262.5" y="-501.5" font-family="Helvetica,sans-Serif" font-size="10.00">iterator_to_array</text>
</a>
</g>
</g>
<!-- Node2&#45;&gt;Node71 -->
<g id="edge17" class="edge">
<title>Node2&#45;&gt;Node71</title>
<path fill="none" stroke="midnightblue" d="M365.22,-516.8C348.05,-514.64 328.8,-512.22 311.71,-510.07"/>
<polygon fill="midnightblue" stroke="midnightblue" points="365.26,-520.33 375.61,-518.11 366.13,-513.39 365.26,-520.33"/>
</g>
<!-- Node310 -->
<g id="node18" class="node">
<title>Node310</title>
<g id="a_node18"><a xlink:href="quickjs_8c.html#ae8ff05447c0d51fe277baccf616dc7c6" target="_top" xlink:title=" ">
<polygon fill="none" stroke="red" points="224.5,-456.5 224.5,-475.5 300.5,-475.5 300.5,-456.5 224.5,-456.5"/>
<text text-anchor="middle" x="262.5" y="-463.5" font-family="Helvetica,sans-Serif" font-size="10.00">js_add_slow</text>
</a>
</g>
</g>
<!-- Node2&#45;&gt;Node310 -->
<g id="edge18" class="edge">
<title>Node2&#45;&gt;Node310</title>
<path fill="none" stroke="midnightblue" d="M389.34,-508.35C375.2,-500.58 357.02,-491.36 340,-485 327.44,-480.31 313.28,-476.42 300.59,-473.41"/>
<polygon fill="midnightblue" stroke="midnightblue" points="387.98,-511.6 398.42,-513.44 391.41,-505.49 387.98,-511.6"/>
</g>
<!-- Node630 -->
<g id="node19" class="node">
<title>Node630</title>
<g id="a_node19"><a xlink:href="quickjs_8c.html#a6a21784a40b8684f2e779bd460dd13b2" target="_top" xlink:title=" ">
<polygon fill="none" stroke="red" points="223.5,-418.5 223.5,-437.5 301.5,-437.5 301.5,-418.5 223.5,-418.5"/>
<text text-anchor="middle" x="262.5" y="-425.5" font-family="Helvetica,sans-Serif" font-size="10.00">JS_AddBrand</text>
</a>
</g>
</g>
<!-- Node2&#45;&gt;Node630 -->
<g id="edge19" class="edge">
<title>Node2&#45;&gt;Node630</title>
<path fill="none" stroke="midnightblue" d="M401.78,-505.17C388.38,-487.72 365.68,-461.68 340,-447 328.36,-440.34 314.42,-436 301.65,-433.17"/>
<polygon fill="midnightblue" stroke="midnightblue" points="399.13,-507.48 407.91,-513.41 404.75,-503.3 399.13,-507.48"/>
</g>
<!-- Node6 -->
<g id="node20" class="node">
<title>Node6</title>
<g id="a_node20"><a xlink:href="quickjs_8c.html#a4c9489297c684663f30e517204a9ec14" target="_top" xlink:title=" ">
<polygon fill="none" stroke="red" points="0,-247.5 0,-266.5 149,-266.5 149,-247.5 0,-247.5"/>
<text text-anchor="middle" x="74.5" y="-254.5" font-family="Helvetica,sans-Serif" font-size="10.00">JS_AddIntrinsicBaseObjects</text>
</a>
</g>
</g>
<!-- Node2&#45;&gt;Node6 -->
<g id="edge20" class="edge">
<title>Node2&#45;&gt;Node6</title>
<path fill="none" stroke="midnightblue" d="M407.29,-503.89C396.61,-478.25 374.09,-433.14 340,-409 282.12,-368.01 246.45,-406.43 185,-371 137.21,-343.45 96.96,-288.88 81.87,-266.71"/>
<polygon fill="midnightblue" stroke="midnightblue" points="404.08,-505.29 411.03,-513.28 410.58,-502.69 404.08,-505.29"/>
</g>
<!-- Node17 -->
<g id="node21" class="node">
<title>Node17</title>
<g id="a_node21"><a xlink:href="quickjs_8c.html#a2e66fcf1bc1d19f346317f10ee590621" target="_top" xlink:title=" ">
<polygon fill="none" stroke="red" points="198.5,-342.5 198.5,-361.5 326.5,-361.5 326.5,-342.5 198.5,-342.5"/>
<text text-anchor="middle" x="262.5" y="-349.5" font-family="Helvetica,sans-Serif" font-size="10.00">JS_AddIntrinsicPromise</text>
</a>
</g>
</g>
<!-- Node2&#45;&gt;Node17 -->
<g id="edge21" class="edge">
<title>Node2&#45;&gt;Node17</title>
<path fill="none" stroke="midnightblue" d="M409.95,-503.79C401.55,-472.45 380.62,-410.41 340,-376 332.57,-369.7 323.48,-365.05 314.2,-361.62"/>
<polygon fill="midnightblue" stroke="midnightblue" points="406.56,-504.66 412.41,-513.49 413.35,-502.94 406.56,-504.66"/>
</g>
<!-- Node56 -->
<g id="node22" class="node">
<title>Node56</title>
<g id="a_node22"><a xlink:href="quickjs_8c.html#a177d09828596bfe6df4bd90b2e93989d" target="_top" xlink:title=" ">
<polygon fill="none" stroke="red" points="188,-304.5 188,-323.5 337,-323.5 337,-304.5 188,-304.5"/>
<text text-anchor="middle" x="262.5" y="-311.5" font-family="Helvetica,sans-Serif" font-size="10.00">JS_AddIntrinsicTypedArrays</text>
</a>
</g>
</g>
<!-- Node2&#45;&gt;Node56 -->
<g id="edge22" class="edge">
<title>Node2&#45;&gt;Node56</title>
<path fill="none" stroke="midnightblue" d="M412.66,-503.41C407.94,-464.76 391.87,-378.52 340,-333 335.58,-329.12 330.48,-326.01 325.06,-323.51"/>
<polygon fill="midnightblue" stroke="midnightblue" points="409.18,-503.81 413.74,-513.37 416.14,-503.05 409.18,-503.81"/>
</g>
<!-- Node73 -->
<g id="node23" class="node">
<title>Node73</title>
<g id="a_node23"><a xlink:href="quickjs_8c.html#a43208b0746998d2b6b9b8bd1ef8b5f99" target="_top" xlink:title=" ">
<polygon fill="none" stroke="red" points="200,-266.5 200,-285.5 325,-285.5 325,-266.5 200,-266.5"/>
<text text-anchor="middle" x="262.5" y="-273.5" font-family="Helvetica,sans-Serif" font-size="10.00">js_append_enumerate</text>
</a>
</g>
</g>
<!-- Node2&#45;&gt;Node73 -->
<g id="edge23" class="edge">
<title>Node2&#45;&gt;Node73</title>
<path fill="none" stroke="midnightblue" d="M414.11,-502.93C412.11,-458.57 400.87,-351.62 340,-295 335.69,-290.99 330.67,-287.79 325.3,-285.25"/>
<polygon fill="midnightblue" stroke="midnightblue" points="410.61,-503.15 414.45,-513.02 417.61,-502.91 410.61,-503.15"/>
</g>
<!-- Node183 -->
<g id="node24" class="node">
<title>Node183</title>
<g id="a_node24"><a xlink:href="quickjs_8c.html#a06f84cf8ea00e2baf1a9b94f1a319b18" target="_top" xlink:title=" ">
<polygon fill="none" stroke="red" points="185,-228.5 185,-247.5 340,-247.5 340,-228.5 185,-228.5"/>
<text text-anchor="middle" x="262.5" y="-235.5" font-family="Helvetica,sans-Serif" font-size="10.00">js_array_buffer_constructor3</text>
</a>
</g>
</g>
<!-- Node2&#45;&gt;Node183 -->
<g id="edge24" class="edge">
<title>Node2&#45;&gt;Node183</title>
<path fill="none" stroke="midnightblue" d="M415.21,-503.07C415.83,-453.77 410.24,-325.19 340,-257 336.07,-253.19 331.5,-250.1 326.59,-247.61"/>
<polygon fill="midnightblue" stroke="midnightblue" points="411.71,-503.24 414.98,-513.32 418.71,-503.41 411.71,-503.24"/>
</g>
<!-- Node116 -->
<g id="node25" class="node">
<title>Node116</title>
<g id="a_node25"><a xlink:href="quickjs_8c.html#a8160f52fd4197ade647faa287b34862e" target="_top" xlink:title=" ">
<polygon fill="none" stroke="black" points="204,-190.5 204,-209.5 321,-209.5 321,-190.5 204,-190.5"/>
<text text-anchor="middle" x="262.5" y="-197.5" font-family="Helvetica,sans-Serif" font-size="10.00">js_array_buffer_slice</text>
</a>
</g>
</g>
<!-- Node2&#45;&gt;Node116 -->
<g id="edge25" class="edge">
<title>Node2&#45;&gt;Node116</title>
<path fill="none" stroke="midnightblue" d="M412.29,-503.03C405.14,-442.05 380.73,-259.85 340,-219 334.69,-213.67 328.12,-209.75 321.1,-206.89"/>
<polygon fill="midnightblue" stroke="midnightblue" points="408.84,-503.71 413.46,-513.25 415.8,-502.91 408.84,-503.71"/>
</g>
<!-- Node119 -->
<g id="node26" class="node">
<title>Node119</title>
<g id="a_node26"><a xlink:href="quickjs_8c.html#aaa85fa359f7aa8985f0299147272adef" target="_top" xlink:title=" ">
<polygon fill="none" stroke="black" points="216,-152.5 216,-171.5 309,-171.5 309,-152.5 216,-152.5"/>
<text text-anchor="middle" x="262.5" y="-159.5" font-family="Helvetica,sans-Serif" font-size="10.00">js_array_concat</text>
</a>
</g>
</g>
<!-- Node2&#45;&gt;Node119 -->
<g id="edge26" class="edge">
<title>Node2&#45;&gt;Node119</title>
<path fill="none" stroke="midnightblue" d="M412.89,-503.18C407.14,-437.4 385.54,-227.87 340,-181 331.8,-172.56 320.48,-167.64 309.05,-164.84"/>
<polygon fill="midnightblue" stroke="midnightblue" points="409.42,-503.73 413.75,-513.4 416.4,-503.14 409.42,-503.73"/>
</g>
<!-- Node138 -->
<g id="node27" class="node">
<title>Node138</title>
<g id="a_node27"><a xlink:href="quickjs_8c.html#a68c7842d6b1ef577bc4625aec4ede310" target="_top" xlink:title=" ">
<polygon fill="none" stroke="red" points="204.5,-114.5 204.5,-133.5 320.5,-133.5 320.5,-114.5 204.5,-114.5"/>
<text text-anchor="middle" x="262.5" y="-121.5" font-family="Helvetica,sans-Serif" font-size="10.00">js_array_constructor</text>
</a>
</g>
</g>
<!-- Node2&#45;&gt;Node138 -->
<g id="edge27" class="edge">
<title>Node2&#45;&gt;Node138</title>
<path fill="none" stroke="midnightblue" d="M413.36,-503.3C408.92,-433.01 390.37,-195.94 340,-143 334.62,-137.35 327.85,-133.27 320.56,-130.35"/>
<polygon fill="midnightblue" stroke="midnightblue" points="409.88,-503.65 413.98,-513.42 416.87,-503.23 409.88,-503.65"/>
</g>
<!-- Node157 -->
<g id="node28" class="node">
<title>Node157</title>
<g id="a_node28"><a xlink:href="quickjs_8c.html#a93380da0068e066053740a43c8d8f15a" target="_top" xlink:title=" ">
<polygon fill="none" stroke="black" points="204.5,-76.5 204.5,-95.5 320.5,-95.5 320.5,-76.5 204.5,-76.5"/>
<text text-anchor="middle" x="262.5" y="-83.5" font-family="Helvetica,sans-Serif" font-size="10.00">js_array_copyWithin</text>
</a>
</g>
</g>
<!-- Node2&#45;&gt;Node157 -->
<g id="edge29" class="edge">
<title>Node2&#45;&gt;Node157</title>
<path fill="none" stroke="midnightblue" d="M413.73,-502.81C410.43,-427.45 395.08,-163.9 340,-105 334.67,-99.3 327.92,-95.2 320.65,-92.27"/>
<polygon fill="midnightblue" stroke="midnightblue" points="410.25,-503.38 414.16,-513.23 417.24,-503.1 410.25,-503.38"/>
</g>
<!-- Node153 -->
<g id="node29" class="node">
<title>Node153</title>
<g id="a_node29"><a xlink:href="quickjs_8c.html#ae2647134d809434118ae04182c0169cb" target="_top" xlink:title=" ">
<polygon fill="none" stroke="black" points="226,-38.5 226,-57.5 299,-57.5 299,-38.5 226,-38.5"/>
<text text-anchor="middle" x="262.5" y="-45.5" font-family="Helvetica,sans-Serif" font-size="10.00">js_array_fill</text>
</a>
</g>
</g>
<!-- Node2&#45;&gt;Node153 -->
<g id="edge31" class="edge">
<title>Node2&#45;&gt;Node153</title>
<path fill="none" stroke="midnightblue" d="M414.06,-503.04C411.91,-423.73 399.98,-132.07 340,-67 329.61,-55.73 313.67,-50.68 299.02,-48.57"/>
<polygon fill="midnightblue" stroke="midnightblue" points="410.57,-503.24 414.31,-513.15 417.56,-503.06 410.57,-503.24"/>
</g>
<!-- Node35 -->
<g id="node30" class="node">
<title>Node35</title>
<g id="a_node30"><a xlink:href="quickjs_8c.html#a9dd41b086da4e13b3487cc9c6e2af2b8" target="_top" xlink:title=" ">
<polygon fill="none" stroke="black" points="223,-0.5 223,-19.5 302,-19.5 302,-0.5 223,-0.5"/>
<text text-anchor="middle" x="262.5" y="-7.5" font-family="Helvetica,sans-Serif" font-size="10.00">js_array_find</text>
</a>
</g>
</g>
<!-- Node2&#45;&gt;Node35 -->
<g id="edge32" class="edge">
<title>Node2&#45;&gt;Node35</title>
<path fill="none" stroke="midnightblue" d="M414.34,-503C413.24,-419.57 404.83,-100.21 340,-29 330.42,-18.48 316,-13.37 302.25,-11.01"/>
<polygon fill="midnightblue" stroke="midnightblue" points="410.84,-503.2 414.45,-513.16 417.84,-503.12 410.84,-503.2"/>
</g>
<!-- Node616&#45;&gt;Node34 -->
<g id="edge8" class="edge">
<title>Node616&#45;&gt;Node34</title>
<path fill="none" stroke="midnightblue" d="M190.71,-856.77C166.68,-854.31 140.56,-851.65 119.27,-849.47"/>
<polygon fill="midnightblue" stroke="midnightblue" points="190.55,-860.27 200.85,-857.8 191.26,-853.31 190.55,-860.27"/>
</g>
<!-- Node32&#45;&gt;Node32 -->
<g id="edge16" class="edge">
<title>Node32&#45;&gt;Node32</title>
<path fill="none" stroke="midnightblue" d="M290.87,-560.65C289.69,-565.94 280.23,-570 262.5,-570 235.48,-570 227.68,-560.57 239.07,-551.76"/>
<polygon fill="midnightblue" stroke="midnightblue" points="293.84,-558.8 285.93,-551.76 287.73,-562.2 293.84,-558.8"/>
</g>
<!-- Node138&#45;&gt;Node6 -->
<g id="edge28" class="edge">
<title>Node138&#45;&gt;Node6</title>
<path fill="none" stroke="midnightblue" d="M197.37,-136.99C193.07,-138.75 188.9,-140.74 185,-143 137.25,-170.62 96.98,-225.15 81.88,-247.3"/>
<polygon fill="midnightblue" stroke="midnightblue" points="198.73,-140.22 206.93,-133.51 196.33,-133.64 198.73,-140.22"/>
</g>
</g>
</svg>
