<?xml version="1.0" encoding="UTF-8" standalone="no"?>
<!DOCTYPE svg PUBLIC "-//W3C//DTD SVG 1.1//EN"
 "http://www.w3.org/Graphics/SVG/1.1/DTD/svg11.dtd">
<!-- Generated by graphviz version 2.43.0 (0)
 -->
<!-- Title: time_clip Pages: 1 -->
<svg width="748pt" height="157pt"
 viewBox="0.00 0.00 748.00 156.75" xmlns="http://www.w3.org/2000/svg" xmlns:xlink="http://www.w3.org/1999/xlink">
<g id="graph0" class="graph" transform="scale(1 1) rotate(0) translate(4 152.75)">
<title>time_clip</title>
<!-- Node1 -->
<g id="node1" class="node">
<title>Node1</title>
<g id="a_node1"><a xlink:title=" ">
<polygon fill="#bfbfbf" stroke="black" points="678,-114.5 678,-133.5 740,-133.5 740,-114.5 678,-114.5"/>
<text text-anchor="middle" x="709" y="-121.5" font-family="Helvetica,sans-Serif" font-size="10.00">time_clip</text>
</a>
</g>
</g>
<!-- Node2 -->
<g id="node2" class="node">
<title>Node2</title>
<g id="a_node2"><a xlink:href="quickjs_8c.html#a7e4e02ec8849f3beaf28dc0613bb4016" target="_top" xlink:title=" ">
<polygon fill="none" stroke="black" points="275,-114.5 275,-133.5 387,-133.5 387,-114.5 275,-114.5"/>
<text text-anchor="middle" x="331" y="-121.5" font-family="Helvetica,sans-Serif" font-size="10.00">js_date_constructor</text>
</a>
</g>
</g>
<!-- Node1&#45;&gt;Node2 -->
<g id="edge1" class="edge">
<title>Node1&#45;&gt;Node2</title>
<path fill="none" stroke="midnightblue" d="M671.78,-136.4C662.21,-139.13 651.81,-141.62 642,-143 551.77,-155.73 445.57,-143.37 383.81,-133.5"/>
<polygon fill="midnightblue" stroke="midnightblue" points="672.83,-139.74 681.4,-133.5 670.81,-133.03 672.83,-139.74"/>
</g>
<!-- Node8 -->
<g id="node5" class="node">
<title>Node8</title>
<g id="a_node5"><a xlink:href="quickjs_8c.html#a6239be8f34a111eef7801fa6abdb5d28" target="_top" xlink:title=" ">
<polygon fill="none" stroke="black" points="545,-114.5 545,-133.5 642,-133.5 642,-114.5 545,-114.5"/>
<text text-anchor="middle" x="593.5" y="-121.5" font-family="Helvetica,sans-Serif" font-size="10.00">js_date_setTime</text>
</a>
</g>
</g>
<!-- Node1&#45;&gt;Node8 -->
<g id="edge4" class="edge">
<title>Node1&#45;&gt;Node8</title>
<path fill="none" stroke="midnightblue" d="M667.78,-124C659.55,-124 650.81,-124 642.33,-124"/>
<polygon fill="midnightblue" stroke="midnightblue" points="667.88,-127.5 677.88,-124 667.88,-120.5 667.88,-127.5"/>
</g>
<!-- Node9 -->
<g id="node6" class="node">
<title>Node9</title>
<g id="a_node6"><a xlink:href="quickjs_8c.html#ad3c70a30f3676b516a77c91e3761a124" target="_top" xlink:title=" ">
<polygon fill="none" stroke="black" points="548.5,-76.5 548.5,-95.5 638.5,-95.5 638.5,-76.5 548.5,-76.5"/>
<text text-anchor="middle" x="593.5" y="-83.5" font-family="Helvetica,sans-Serif" font-size="10.00">set_date_fields</text>
</a>
</g>
</g>
<!-- Node1&#45;&gt;Node9 -->
<g id="edge5" class="edge">
<title>Node1&#45;&gt;Node9</title>
<path fill="none" stroke="midnightblue" d="M669.69,-111.17C654.46,-106.08 637.24,-100.31 623.13,-95.59"/>
<polygon fill="midnightblue" stroke="midnightblue" points="668.77,-114.56 679.36,-114.41 670.99,-107.92 668.77,-114.56"/>
</g>
<!-- Node3 -->
<g id="node3" class="node">
<title>Node3</title>
<g id="a_node3"><a xlink:href="quickjs_8c.html#a8ecbf5799518b7bfc3fefd47c7a0dd4e" target="_top" xlink:title=" ">
<polygon fill="none" stroke="black" points="127,-114.5 127,-133.5 239,-133.5 239,-114.5 127,-114.5"/>
<text text-anchor="middle" x="183" y="-121.5" font-family="Helvetica,sans-Serif" font-size="10.00">JS_AddIntrinsicDate</text>
</a>
</g>
</g>
<!-- Node2&#45;&gt;Node3 -->
<g id="edge2" class="edge">
<title>Node2&#45;&gt;Node3</title>
<path fill="none" stroke="midnightblue" d="M264.59,-124C256.14,-124 247.54,-124 239.27,-124"/>
<polygon fill="midnightblue" stroke="midnightblue" points="264.8,-127.5 274.8,-124 264.8,-120.5 264.8,-127.5"/>
</g>
<!-- Node4 -->
<g id="node4" class="node">
<title>Node4</title>
<g id="a_node4"><a xlink:href="quickjs_8c.html#ad8aedb643b8753b7a15f6cb2df61945e" target="_top" xlink:title=" ">
<polygon fill="none" stroke="red" points="0,-114.5 0,-133.5 91,-133.5 91,-114.5 0,-114.5"/>
<text text-anchor="middle" x="45.5" y="-121.5" font-family="Helvetica,sans-Serif" font-size="10.00">JS_NewContext</text>
</a>
</g>
</g>
<!-- Node3&#45;&gt;Node4 -->
<g id="edge3" class="edge">
<title>Node3&#45;&gt;Node4</title>
<path fill="none" stroke="midnightblue" d="M116.78,-124C108.12,-124 99.4,-124 91.2,-124"/>
<polygon fill="midnightblue" stroke="midnightblue" points="116.89,-127.5 126.89,-124 116.89,-120.5 116.89,-127.5"/>
</g>
<!-- Node9&#45;&gt;Node2 -->
<g id="edge6" class="edge">
<title>Node9&#45;&gt;Node2</title>
<path fill="none" stroke="midnightblue" d="M544.85,-97.85C533.18,-100.47 520.68,-103.05 509,-105 468.46,-111.77 422.27,-116.63 387.24,-119.74"/>
<polygon fill="midnightblue" stroke="midnightblue" points="545.9,-101.2 554.86,-95.55 544.33,-94.38 545.9,-101.2"/>
</g>
<!-- Node10 -->
<g id="node7" class="node">
<title>Node10</title>
<g id="a_node7"><a xlink:href="quickjs_8c.html#ac2ddbbd09d32a6d9a4b7530d7f68c6f0" target="_top" xlink:title=" ">
<polygon fill="none" stroke="black" points="423,-76.5 423,-95.5 509,-95.5 509,-76.5 423,-76.5"/>
<text text-anchor="middle" x="466" y="-83.5" font-family="Helvetica,sans-Serif" font-size="10.00">js_Date_parse</text>
</a>
</g>
</g>
<!-- Node9&#45;&gt;Node10 -->
<g id="edge7" class="edge">
<title>Node9&#45;&gt;Node10</title>
<path fill="none" stroke="midnightblue" d="M538.25,-86C528.51,-86 518.5,-86 509.16,-86"/>
<polygon fill="midnightblue" stroke="midnightblue" points="538.25,-89.5 548.25,-86 538.25,-82.5 538.25,-89.5"/>
</g>
<!-- Node11 -->
<g id="node8" class="node">
<title>Node11</title>
<g id="a_node8"><a xlink:href="quickjs_8c.html#a012f5a8b9132f7bf7eb8249bdc78b8e2" target="_top" xlink:title=" ">
<polygon fill="none" stroke="black" points="427,-38.5 427,-57.5 505,-57.5 505,-38.5 427,-38.5"/>
<text text-anchor="middle" x="466" y="-45.5" font-family="Helvetica,sans-Serif" font-size="10.00">js_Date_UTC</text>
</a>
</g>
</g>
<!-- Node9&#45;&gt;Node11 -->
<g id="edge9" class="edge">
<title>Node9&#45;&gt;Node11</title>
<path fill="none" stroke="midnightblue" d="M551.1,-73.46C534.03,-68.3 514.56,-62.4 498.66,-57.59"/>
<polygon fill="midnightblue" stroke="midnightblue" points="550.25,-76.86 560.83,-76.41 552.27,-70.16 550.25,-76.86"/>
</g>
<!-- Node12 -->
<g id="node9" class="node">
<title>Node12</title>
<g id="a_node9"><a xlink:href="quickjs_8c.html#a12803d7cccf6345067677bd4d25287ed" target="_top" xlink:title=" ">
<polygon fill="none" stroke="black" points="423.5,-0.5 423.5,-19.5 508.5,-19.5 508.5,-0.5 423.5,-0.5"/>
<text text-anchor="middle" x="466" y="-7.5" font-family="Helvetica,sans-Serif" font-size="10.00">set_date_field</text>
</a>
</g>
</g>
<!-- Node9&#45;&gt;Node12 -->
<g id="edge10" class="edge">
<title>Node9&#45;&gt;Node12</title>
<path fill="none" stroke="midnightblue" d="M571.58,-70.21C555.07,-58.13 531.21,-41.48 509,-29 503,-25.63 496.29,-22.38 490.03,-19.55"/>
<polygon fill="midnightblue" stroke="midnightblue" points="569.81,-73.26 579.93,-76.39 573.98,-67.63 569.81,-73.26"/>
</g>
<!-- Node10&#45;&gt;Node2 -->
<g id="edge8" class="edge">
<title>Node10&#45;&gt;Node2</title>
<path fill="none" stroke="midnightblue" d="M421.63,-98.39C403.42,-103.59 382.56,-109.55 365.55,-114.41"/>
<polygon fill="midnightblue" stroke="midnightblue" points="422.78,-101.7 431.44,-95.59 420.86,-94.97 422.78,-101.7"/>
</g>
<!-- Node13 -->
<g id="node10" class="node">
<title>Node13</title>
<g id="a_node10"><a xlink:href="quickjs_8c.html#aea694f707706fc250d38365486dc8c96" target="_top" xlink:title=" ">
<polygon fill="none" stroke="black" points="285,-0.5 285,-19.5 377,-19.5 377,-0.5 285,-0.5"/>
<text text-anchor="middle" x="331" y="-7.5" font-family="Helvetica,sans-Serif" font-size="10.00">js_date_setYear</text>
</a>
</g>
</g>
<!-- Node12&#45;&gt;Node13 -->
<g id="edge11" class="edge">
<title>Node12&#45;&gt;Node13</title>
<path fill="none" stroke="midnightblue" d="M413.09,-10C401.26,-10 388.79,-10 377.26,-10"/>
<polygon fill="midnightblue" stroke="midnightblue" points="413.28,-13.5 423.28,-10 413.28,-6.5 413.28,-13.5"/>
</g>
</g>
</svg>
