<?xml version="1.0" encoding="UTF-8" standalone="no"?>
<!DOCTYPE svg PUBLIC "-//W3C//DTD SVG 1.1//EN"
 "http://www.w3.org/Graphics/SVG/1.1/DTD/svg11.dtd">
<!-- Generated by graphviz version 2.43.0 (0)
 -->
<!-- Title: qjs::js_traits&lt; const char * &gt;::unwrap Pages: 1 -->
<svg width="573pt" height="78pt"
 viewBox="0.00 0.00 573.00 77.50" xmlns="http://www.w3.org/2000/svg" xmlns:xlink="http://www.w3.org/1999/xlink">
<g id="graph0" class="graph" transform="scale(1 1) rotate(0) translate(4 73.5)">
<title>qjs::js_traits&lt; const char * &gt;::unwrap</title>
<!-- Node1 -->
<g id="node1" class="node">
<title>Node1</title>
<g id="a_node1"><a xlink:title=" ">
<polygon fill="#bfbfbf" stroke="black" points="0,-17 0,-47 113,-47 113,-17 0,-17"/>
<text text-anchor="start" x="8" y="-35" font-family="Helvetica,sans-Serif" font-size="10.00">qjs::js_traits&lt; const</text>
<text text-anchor="middle" x="56.5" y="-24" font-family="Helvetica,sans-Serif" font-size="10.00"> char * &gt;::unwrap</text>
</a>
</g>
</g>
<!-- Node2 -->
<g id="node2" class="node">
<title>Node2</title>
<g id="a_node2"><a xlink:href="structqjs_1_1js__traits_3_01std_1_1string__view_01_4.html#a722fb92e222abf0655072de681e46b23" target="_top" xlink:title=" ">
<polygon fill="none" stroke="black" points="149,-17 149,-47 281,-47 281,-17 149,-17"/>
<text text-anchor="start" x="157" y="-35" font-family="Helvetica,sans-Serif" font-size="10.00">qjs::js_traits&lt; std</text>
<text text-anchor="middle" x="215" y="-24" font-family="Helvetica,sans-Serif" font-size="10.00">::string_view &gt;::unwrap</text>
</a>
</g>
</g>
<!-- Node1&#45;&gt;Node2 -->
<g id="edge1" class="edge">
<title>Node1&#45;&gt;Node2</title>
<path fill="none" stroke="midnightblue" d="M113.12,-32C121.45,-32 130.16,-32 138.82,-32"/>
<polygon fill="midnightblue" stroke="midnightblue" points="138.94,-35.5 148.94,-32 138.94,-28.5 138.94,-35.5"/>
</g>
<!-- Node3 -->
<g id="node3" class="node">
<title>Node3</title>
<g id="a_node3"><a xlink:href="classqjs_1_1detail_1_1js__string.html#a3fbe9b33a0f1276bab6e250f8beadeeb" target="_top" xlink:title=" ">
<polygon fill="none" stroke="black" points="317,-39 317,-69 429,-69 429,-39 317,-39"/>
<text text-anchor="start" x="325" y="-57" font-family="Helvetica,sans-Serif" font-size="10.00">qjs::detail::js_string</text>
<text text-anchor="middle" x="373" y="-46" font-family="Helvetica,sans-Serif" font-size="10.00">::js_string</text>
</a>
</g>
</g>
<!-- Node2&#45;&gt;Node3 -->
<g id="edge2" class="edge">
<title>Node2&#45;&gt;Node3</title>
<path fill="none" stroke="midnightblue" d="M281.25,-41.2C289.68,-42.39 298.32,-43.61 306.74,-44.8"/>
<polygon fill="midnightblue" stroke="midnightblue" points="306.51,-48.3 316.9,-46.23 307.48,-41.37 306.51,-48.3"/>
</g>
<!-- Node4 -->
<g id="node4" class="node">
<title>Node4</title>
<g id="a_node4"><a xlink:href="quickjs_8h.html#a1e7f56471f8608df9405987087a56070" target="_top" xlink:title=" ">
<polygon fill="none" stroke="black" points="326,-0.5 326,-19.5 420,-19.5 420,-0.5 326,-0.5"/>
<text text-anchor="middle" x="373" y="-7.5" font-family="Helvetica,sans-Serif" font-size="10.00">JS_ToCStringLen</text>
</a>
</g>
</g>
<!-- Node2&#45;&gt;Node4 -->
<g id="edge3" class="edge">
<title>Node2&#45;&gt;Node4</title>
<path fill="none" stroke="midnightblue" d="M281.25,-22.8C292.76,-21.17 304.65,-19.5 315.88,-17.91"/>
<polygon fill="midnightblue" stroke="midnightblue" points="316.56,-21.35 325.97,-16.49 315.58,-14.42 316.56,-21.35"/>
</g>
<!-- Node5 -->
<g id="node5" class="node">
<title>Node5</title>
<g id="a_node5"><a xlink:href="quickjs_8c.html#af49e67b73f845dc1f9c3ee648dd9f95c" target="_top" xlink:title=" ">
<polygon fill="none" stroke="red" points="465,-0.5 465,-19.5 565,-19.5 565,-0.5 465,-0.5"/>
<text text-anchor="middle" x="515" y="-7.5" font-family="Helvetica,sans-Serif" font-size="10.00">JS_ToCStringLen2</text>
</a>
</g>
</g>
<!-- Node4&#45;&gt;Node5 -->
<g id="edge4" class="edge">
<title>Node4&#45;&gt;Node5</title>
<path fill="none" stroke="midnightblue" d="M420.23,-10C431.32,-10 443.31,-10 454.89,-10"/>
<polygon fill="midnightblue" stroke="midnightblue" points="454.93,-13.5 464.93,-10 454.93,-6.5 454.93,-13.5"/>
</g>
</g>
</svg>
