<?xml version="1.0" encoding="UTF-8" standalone="no"?>
<!DOCTYPE svg PUBLIC "-//W3C//DTD SVG 1.1//EN"
 "http://www.w3.org/Graphics/SVG/1.1/DTD/svg11.dtd">
<!-- Generated by graphviz version 2.43.0 (0)
 -->
<!-- Title: JSPromiseData Pages: 1 -->
<svg width="218pt" height="164pt"
 viewBox="0.00 0.00 217.50 164.00" xmlns="http://www.w3.org/2000/svg" xmlns:xlink="http://www.w3.org/1999/xlink">
<g id="graph0" class="graph" transform="scale(1 1) rotate(0) translate(4 160)">
<title>JSPromiseData</title>
<!-- Node1 -->
<g id="node1" class="node">
<title>Node1</title>
<g id="a_node1"><a xlink:title=" ">
<polygon fill="#bfbfbf" stroke="black" points="44,-0.5 44,-19.5 133,-19.5 133,-0.5 44,-0.5"/>
<text text-anchor="middle" x="88.5" y="-7.5" font-family="Helvetica,sans-Serif" font-size="10.00">JSPromiseData</text>
</a>
</g>
</g>
<!-- Node2 -->
<g id="node2" class="node">
<title>Node2</title>
<g id="a_node2"><a xlink:href="structlist__head.html" target="_top" xlink:title=" ">
<polygon fill="none" stroke="black" points="0,-68.5 0,-87.5 61,-87.5 61,-68.5 0,-68.5"/>
<text text-anchor="middle" x="30.5" y="-75.5" font-family="Helvetica,sans-Serif" font-size="10.00">list_head</text>
</a>
</g>
</g>
<!-- Node2&#45;&gt;Node1 -->
<g id="edge1" class="edge">
<title>Node2&#45;&gt;Node1</title>
<path fill="none" stroke="#9a32cd" stroke-dasharray="5,2" d="M27.08,-58.52C26.75,-51.59 27.62,-43.96 31.5,-38 37.06,-29.47 46.1,-23.57 55.36,-19.52"/>
<polygon fill="#9a32cd" stroke="#9a32cd" points="23.62,-59 28.32,-68.49 30.56,-58.14 23.62,-59"/>
<text text-anchor="middle" x="78.5" y="-41" font-family="Helvetica,sans-Serif" font-size="10.00"> promise_reactions</text>
</g>
<!-- Node2&#45;&gt;Node2 -->
<g id="edge2" class="edge">
<title>Node2&#45;&gt;Node2</title>
<path fill="none" stroke="#9a32cd" stroke-dasharray="5,2" d="M71.58,-83.35C76.09,-82.33 79,-80.55 79,-78 79,-73.82 71.17,-71.69 61.28,-71.63"/>
<polygon fill="#9a32cd" stroke="#9a32cd" points="70.89,-79.91 61.28,-84.37 71.58,-86.87 70.89,-79.91"/>
<text text-anchor="middle" x="91.5" y="-81" font-family="Helvetica,sans-Serif" font-size="10.00"> prev</text>
<text text-anchor="middle" x="91.5" y="-70" font-family="Helvetica,sans-Serif" font-size="10.00">next</text>
</g>
<!-- Node3 -->
<g id="node3" class="node">
<title>Node3</title>
<g id="a_node3"><a xlink:href="structJSValue.html" target="_top" xlink:title=" ">
<polygon fill="none" stroke="black" points="122,-68.5 122,-87.5 175,-87.5 175,-68.5 122,-68.5"/>
<text text-anchor="middle" x="148.5" y="-75.5" font-family="Helvetica,sans-Serif" font-size="10.00">JSValue</text>
</a>
</g>
</g>
<!-- Node3&#45;&gt;Node1 -->
<g id="edge3" class="edge">
<title>Node3&#45;&gt;Node1</title>
<path fill="none" stroke="#9a32cd" stroke-dasharray="5,2" d="M139.85,-58.91C136.02,-51.94 131.11,-44.18 125.5,-38 118.98,-30.81 110.27,-24.34 102.94,-19.54"/>
<polygon fill="#9a32cd" stroke="#9a32cd" points="136.97,-60.97 144.64,-68.27 143.2,-57.78 136.97,-60.97"/>
<text text-anchor="middle" x="171.5" y="-41" font-family="Helvetica,sans-Serif" font-size="10.00"> promise_result</text>
</g>
<!-- Node4 -->
<g id="node4" class="node">
<title>Node4</title>
<g id="a_node4"><a xlink:href="unionJSValueUnion.html" target="_top" xlink:title=" ">
<polygon fill="none" stroke="black" points="108,-136.5 108,-155.5 189,-155.5 189,-136.5 108,-136.5"/>
<text text-anchor="middle" x="148.5" y="-143.5" font-family="Helvetica,sans-Serif" font-size="10.00">JSValueUnion</text>
</a>
</g>
</g>
<!-- Node4&#45;&gt;Node3 -->
<g id="edge4" class="edge">
<title>Node4&#45;&gt;Node3</title>
<path fill="none" stroke="#9a32cd" stroke-dasharray="5,2" d="M148.5,-126.04C148.5,-113.47 148.5,-97.56 148.5,-87.84"/>
<polygon fill="#9a32cd" stroke="#9a32cd" points="145,-126.37 148.5,-136.37 152,-126.37 145,-126.37"/>
<text text-anchor="middle" x="153.5" y="-110" font-family="Helvetica,sans-Serif" font-size="10.00"> u</text>
</g>
</g>
</svg>
