<?xml version="1.0" encoding="UTF-8" standalone="no"?>
<!DOCTYPE svg PUBLIC "-//W3C//DTD SVG 1.1//EN"
 "http://www.w3.org/Graphics/SVG/1.1/DTD/svg11.dtd">
<!-- Generated by graphviz version 2.43.0 (0)
 -->
<!-- Title: JSModuleDef Pages: 1 -->
<svg width="1057pt" height="277pt"
 viewBox="0.00 0.00 1057.00 277.00" xmlns="http://www.w3.org/2000/svg" xmlns:xlink="http://www.w3.org/1999/xlink">
<g id="graph0" class="graph" transform="scale(1 1) rotate(0) translate(4 273)">
<title>JSModuleDef</title>
<!-- Node1 -->
<g id="node1" class="node">
<title>Node1</title>
<g id="a_node1"><a xlink:title=" ">
<polygon fill="#bfbfbf" stroke="black" points="728,-95.5 728,-114.5 807,-114.5 807,-95.5 728,-95.5"/>
<text text-anchor="middle" x="767.5" y="-102.5" font-family="Helvetica,sans-Serif" font-size="10.00">JSModuleDef</text>
</a>
</g>
</g>
<!-- Node7 -->
<g id="node7" class="node">
<title>Node7</title>
<g id="a_node7"><a xlink:href="structJSReqModuleEntry.html" target="_top" xlink:title=" ">
<polygon fill="none" stroke="black" points="943,-95.5 943,-114.5 1049,-114.5 1049,-95.5 943,-95.5"/>
<text text-anchor="middle" x="996" y="-102.5" font-family="Helvetica,sans-Serif" font-size="10.00">JSReqModuleEntry</text>
</a>
</g>
</g>
<!-- Node1&#45;&gt;Node7 -->
<g id="edge8" class="edge">
<title>Node1&#45;&gt;Node7</title>
<path fill="none" stroke="#9a32cd" stroke-dasharray="5,2" d="M817.23,-105C854.25,-105 905.07,-105 942.89,-105"/>
<polygon fill="#9a32cd" stroke="#9a32cd" points="817.18,-101.5 807.18,-105 817.18,-108.5 817.18,-101.5"/>
<text text-anchor="middle" x="875" y="-108" font-family="Helvetica,sans-Serif" font-size="10.00"> module</text>
</g>
<!-- Node2 -->
<g id="node2" class="node">
<title>Node2</title>
<g id="a_node2"><a xlink:href="structlist__head.html" target="_top" xlink:title=" ">
<polygon fill="none" stroke="black" points="10,-209.5 10,-228.5 71,-228.5 71,-209.5 10,-209.5"/>
<text text-anchor="middle" x="40.5" y="-216.5" font-family="Helvetica,sans-Serif" font-size="10.00">list_head</text>
</a>
</g>
</g>
<!-- Node2&#45;&gt;Node1 -->
<g id="edge1" class="edge">
<title>Node2&#45;&gt;Node1</title>
<path fill="none" stroke="#9a32cd" stroke-dasharray="5,2" d="M81.36,-226.82C111.48,-232.06 153.93,-238 191.5,-238 191.5,-238 191.5,-238 542,-238 620.71,-238 646.39,-228.35 710,-182 735.19,-163.64 753.85,-130.72 761.99,-114.53"/>
<polygon fill="#9a32cd" stroke="#9a32cd" points="81.7,-223.33 71.24,-225.01 80.47,-230.22 81.7,-223.33"/>
<text text-anchor="middle" x="348" y="-241" font-family="Helvetica,sans-Serif" font-size="10.00"> link</text>
</g>
<!-- Node2&#45;&gt;Node2 -->
<g id="edge2" class="edge">
<title>Node2&#45;&gt;Node2</title>
<path fill="none" stroke="#9a32cd" stroke-dasharray="5,2" d="M27.98,-238.77C28.96,-243.5 33.14,-247 40.5,-247 52.59,-247 56.08,-237.57 50.98,-228.76"/>
<polygon fill="#9a32cd" stroke="#9a32cd" points="31.45,-239.25 30.02,-228.76 24.59,-237.86 31.45,-239.25"/>
<text text-anchor="middle" x="40.5" y="-261" font-family="Helvetica,sans-Serif" font-size="10.00"> prev</text>
<text text-anchor="middle" x="40.5" y="-250" font-family="Helvetica,sans-Serif" font-size="10.00">next</text>
</g>
<!-- Node11 -->
<g id="node11" class="node">
<title>Node11</title>
<g id="a_node11"><a xlink:href="structJSGCObjectHeader.html" target="_top" xlink:title=" ">
<polygon fill="none" stroke="black" points="139,-190.5 139,-209.5 246,-209.5 246,-190.5 139,-190.5"/>
<text text-anchor="middle" x="192.5" y="-197.5" font-family="Helvetica,sans-Serif" font-size="10.00">JSGCObjectHeader</text>
</a>
</g>
</g>
<!-- Node2&#45;&gt;Node11 -->
<g id="edge14" class="edge">
<title>Node2&#45;&gt;Node11</title>
<path fill="none" stroke="#9a32cd" stroke-dasharray="5,2" d="M81.11,-213.98C98.79,-211.74 119.87,-209.07 138.85,-206.67"/>
<polygon fill="#9a32cd" stroke="#9a32cd" points="80.62,-210.52 71.14,-215.25 81.5,-217.46 80.62,-210.52"/>
<text text-anchor="middle" x="110" y="-214" font-family="Helvetica,sans-Serif" font-size="10.00"> link</text>
</g>
<!-- Node3 -->
<g id="node3" class="node">
<title>Node3</title>
<g id="a_node3"><a xlink:href="structJSValue.html" target="_top" xlink:title=" ">
<polygon fill="none" stroke="black" points="166,-131.5 166,-150.5 219,-150.5 219,-131.5 166,-131.5"/>
<text text-anchor="middle" x="192.5" y="-138.5" font-family="Helvetica,sans-Serif" font-size="10.00">JSValue</text>
</a>
</g>
</g>
<!-- Node3&#45;&gt;Node1 -->
<g id="edge3" class="edge">
<title>Node3&#45;&gt;Node1</title>
<path fill="none" stroke="#9a32cd" stroke-dasharray="5,2" d="M229.06,-139.21C312.88,-134.93 529.37,-123.41 710,-110 715.79,-109.57 721.92,-109.07 727.91,-108.56"/>
<polygon fill="#9a32cd" stroke="#9a32cd" points="228.85,-135.72 219.04,-139.72 229.21,-142.71 228.85,-135.72"/>
<text text-anchor="middle" x="432.5" y="-165" font-family="Helvetica,sans-Serif" font-size="10.00"> func_obj</text>
<text text-anchor="middle" x="432.5" y="-154" font-family="Helvetica,sans-Serif" font-size="10.00">meta_obj</text>
<text text-anchor="middle" x="432.5" y="-143" font-family="Helvetica,sans-Serif" font-size="10.00">eval_exception</text>
<text text-anchor="middle" x="432.5" y="-132" font-family="Helvetica,sans-Serif" font-size="10.00">module_ns</text>
</g>
<!-- Node10 -->
<g id="node10" class="node">
<title>Node10</title>
<g id="a_node10"><a xlink:href="structJSVarRef.html" target="_top" xlink:title=" ">
<polygon fill="none" stroke="black" points="319,-181.5 319,-200.5 377,-200.5 377,-181.5 319,-181.5"/>
<text text-anchor="middle" x="348" y="-188.5" font-family="Helvetica,sans-Serif" font-size="10.00">JSVarRef</text>
</a>
</g>
</g>
<!-- Node3&#45;&gt;Node10 -->
<g id="edge12" class="edge">
<title>Node3&#45;&gt;Node10</title>
<path fill="none" stroke="#9a32cd" stroke-dasharray="5,2" d="M229.12,-147.34C250.37,-151.68 277.67,-158.24 301,-167 311.29,-170.86 322.22,-176.49 330.84,-181.33"/>
<polygon fill="#9a32cd" stroke="#9a32cd" points="229.71,-143.89 219.22,-145.39 228.35,-150.76 229.71,-143.89"/>
<text text-anchor="middle" x="282.5" y="-181" font-family="Helvetica,sans-Serif" font-size="10.00"> pvalue</text>
<text text-anchor="middle" x="282.5" y="-170" font-family="Helvetica,sans-Serif" font-size="10.00">value</text>
</g>
<!-- Node4 -->
<g id="node4" class="node">
<title>Node4</title>
<g id="a_node4"><a xlink:href="unionJSValueUnion.html" target="_top" xlink:title=" ">
<polygon fill="none" stroke="black" points="0,-131.5 0,-150.5 81,-150.5 81,-131.5 0,-131.5"/>
<text text-anchor="middle" x="40.5" y="-138.5" font-family="Helvetica,sans-Serif" font-size="10.00">JSValueUnion</text>
</a>
</g>
</g>
<!-- Node4&#45;&gt;Node3 -->
<g id="edge4" class="edge">
<title>Node4&#45;&gt;Node3</title>
<path fill="none" stroke="#9a32cd" stroke-dasharray="5,2" d="M91.32,-141C116.21,-141 145.29,-141 165.69,-141"/>
<polygon fill="#9a32cd" stroke="#9a32cd" points="91.3,-137.5 81.3,-141 91.3,-144.5 91.3,-137.5"/>
<text text-anchor="middle" x="110" y="-144" font-family="Helvetica,sans-Serif" font-size="10.00"> u</text>
</g>
<!-- Node5 -->
<g id="node5" class="node">
<title>Node5</title>
<g id="a_node5"><a xlink:href="structJSRefCountHeader.html" target="_top" xlink:title=" ">
<polygon fill="none" stroke="black" points="488,-76.5 488,-95.5 594,-95.5 594,-76.5 488,-76.5"/>
<text text-anchor="middle" x="541" y="-83.5" font-family="Helvetica,sans-Serif" font-size="10.00">JSRefCountHeader</text>
</a>
</g>
</g>
<!-- Node5&#45;&gt;Node1 -->
<g id="edge5" class="edge">
<title>Node5&#45;&gt;Node1</title>
<path fill="none" stroke="#9a32cd" stroke-dasharray="5,2" d="M604.26,-90.39C635.94,-92.73 675.04,-95.79 710,-99 715.8,-99.53 721.92,-100.14 727.92,-100.75"/>
<polygon fill="#9a32cd" stroke="#9a32cd" points="604.48,-86.9 594.25,-89.66 603.96,-93.88 604.48,-86.9"/>
<text text-anchor="middle" x="661" y="-102" font-family="Helvetica,sans-Serif" font-size="10.00"> header</text>
</g>
<!-- Node6 -->
<g id="node6" class="node">
<title>Node6</title>
<g id="a_node6"><a xlink:href="structJSStarExportEntry.html" target="_top" xlink:title=" ">
<polygon fill="none" stroke="black" points="490,-38.5 490,-57.5 592,-57.5 592,-38.5 490,-38.5"/>
<text text-anchor="middle" x="541" y="-45.5" font-family="Helvetica,sans-Serif" font-size="10.00">JSStarExportEntry</text>
</a>
</g>
</g>
<!-- Node6&#45;&gt;Node1 -->
<g id="edge6" class="edge">
<title>Node6&#45;&gt;Node1</title>
<path fill="none" stroke="#9a32cd" stroke-dasharray="5,2" d="M602.41,-54.14C634.85,-58.5 675.22,-65.65 710,-77 724.15,-81.62 739.21,-89.23 750.22,-95.36"/>
<polygon fill="#9a32cd" stroke="#9a32cd" points="602.53,-50.62 592.17,-52.82 601.64,-57.57 602.53,-50.62"/>
<text text-anchor="middle" x="661" y="-80" font-family="Helvetica,sans-Serif" font-size="10.00"> star_export_entries</text>
</g>
<!-- Node7&#45;&gt;Node1 -->
<g id="edge7" class="edge">
<title>Node7&#45;&gt;Node1</title>
<path fill="none" stroke="#9a32cd" stroke-dasharray="5,2" d="M950.38,-93.23C942,-91.47 933.28,-89.93 925,-89 880.84,-84.02 869.02,-82.89 825,-89 815.51,-90.32 805.37,-92.83 796.34,-95.47"/>
<polygon fill="#9a32cd" stroke="#9a32cd" points="949.85,-96.7 960.37,-95.47 951.38,-89.87 949.85,-96.7"/>
<text text-anchor="middle" x="875" y="-92" font-family="Helvetica,sans-Serif" font-size="10.00"> req_module_entries</text>
</g>
<!-- Node8 -->
<g id="node8" class="node">
<title>Node8</title>
<g id="a_node8"><a xlink:href="structJSImportEntry.html" target="_top" xlink:title=" ">
<polygon fill="none" stroke="black" points="499.5,-0.5 499.5,-19.5 582.5,-19.5 582.5,-0.5 499.5,-0.5"/>
<text text-anchor="middle" x="541" y="-7.5" font-family="Helvetica,sans-Serif" font-size="10.00">JSImportEntry</text>
</a>
</g>
</g>
<!-- Node8&#45;&gt;Node1 -->
<g id="edge9" class="edge">
<title>Node8&#45;&gt;Node1</title>
<path fill="none" stroke="#9a32cd" stroke-dasharray="5,2" d="M592.52,-10.77C627.51,-13.27 674.06,-20.66 710,-41 733.48,-54.29 752.13,-81.03 760.95,-95.38"/>
<polygon fill="#9a32cd" stroke="#9a32cd" points="592.72,-7.27 582.52,-10.16 592.29,-14.26 592.72,-7.27"/>
<text text-anchor="middle" x="661" y="-44" font-family="Helvetica,sans-Serif" font-size="10.00"> import_entries</text>
</g>
<!-- Node9 -->
<g id="node9" class="node">
<title>Node9</title>
<g id="a_node9"><a xlink:href="structJSExportEntry.html" target="_top" xlink:title=" ">
<polygon fill="none" stroke="black" points="499.5,-173.5 499.5,-192.5 582.5,-192.5 582.5,-173.5 499.5,-173.5"/>
<text text-anchor="middle" x="541" y="-180.5" font-family="Helvetica,sans-Serif" font-size="10.00">JSExportEntry</text>
</a>
</g>
</g>
<!-- Node9&#45;&gt;Node1 -->
<g id="edge10" class="edge">
<title>Node9&#45;&gt;Node1</title>
<path fill="none" stroke="#9a32cd" stroke-dasharray="5,2" d="M592.86,-173.09C626.8,-165.59 671.99,-153.85 710,-138 725.31,-131.62 741.53,-121.78 752.65,-114.51"/>
<polygon fill="#9a32cd" stroke="#9a32cd" points="591.75,-169.75 582.71,-175.28 593.22,-176.59 591.75,-169.75"/>
<text text-anchor="middle" x="661" y="-170" font-family="Helvetica,sans-Serif" font-size="10.00"> export_entries</text>
</g>
<!-- Node10&#45;&gt;Node9 -->
<g id="edge11" class="edge">
<title>Node10&#45;&gt;Node9</title>
<path fill="none" stroke="#9a32cd" stroke-dasharray="5,2" d="M387.2,-189.4C419.68,-188.04 466.18,-186.09 499.34,-184.7"/>
<polygon fill="#9a32cd" stroke="#9a32cd" points="387.03,-185.9 377.18,-189.82 387.32,-192.9 387.03,-185.9"/>
<text text-anchor="middle" x="432.5" y="-192" font-family="Helvetica,sans-Serif" font-size="10.00"> var_ref</text>
</g>
<!-- Node11&#45;&gt;Node10 -->
<g id="edge13" class="edge">
<title>Node11&#45;&gt;Node10</title>
<path fill="none" stroke="#9a32cd" stroke-dasharray="5,2" d="M256.46,-196.31C278.08,-195.04 301.21,-193.68 318.68,-192.66"/>
<polygon fill="#9a32cd" stroke="#9a32cd" points="256.1,-192.82 246.33,-196.9 256.51,-199.81 256.1,-192.82"/>
<text text-anchor="middle" x="282.5" y="-198" font-family="Helvetica,sans-Serif" font-size="10.00"> header</text>
</g>
</g>
</svg>
