<?xml version="1.0" encoding="UTF-8" standalone="no"?>
<!DOCTYPE svg PUBLIC "-//W3C//DTD SVG 1.1//EN"
 "http://www.w3.org/Graphics/SVG/1.1/DTD/svg11.dtd">
<!-- Generated by graphviz version 2.43.0 (0)
 -->
<!-- Title: qjs::js_property_traits&lt; const char * &gt;::set_property Pages: 1 -->
<!--zoomable 1190 -->
<svg id="main" version="1.1" xmlns="http://www.w3.org/2000/svg" xmlns:xlink="http://www.w3.org/1999/xlink" xml:space="preserve" onload="init(evt)">
<style type="text/css"><![CDATA[
.edge:hover path { stroke: red; }
.edge:hover polygon { stroke: red; fill: red; }
]]></style>
<script type="text/javascript"><![CDATA[
var edges = document.getElementsByTagName('g');
if (edges && edges.length) {
  for (var i=0;i<edges.length;i++) {
    if (edges[i].id.substr(0,4)=='edge') {
      edges[i].setAttribute('class','edge');
    }
  }
}
]]></script>
        <defs>
                <circle id="rim" cx="0" cy="0" r="7"/>
                <circle id="rim2" cx="0" cy="0" r="3.5"/>
                <g id="zoomPlus">
                        <use xlink:href="#rim" fill="#404040">
                                <set attributeName="fill" to="#808080" begin="zoomplus.mouseover" end="zoomplus.mouseout"/>
                        </use>
                        <path d="M-4,0h8M0,-4v8" fill="none" stroke="white" stroke-width="1.5" pointer-events="none"/>
                </g>
                <g id="zoomMin">
                        <use xlink:href="#rim" fill="#404040">
                                <set attributeName="fill" to="#808080" begin="zoomminus.mouseover" end="zoomminus.mouseout"/>
                        </use>
                        <path d="M-4,0h8" fill="none" stroke="white" stroke-width="1.5" pointer-events="none"/>
                </g>
                <g id="dirArrow">
                        <path fill="none" stroke="white" stroke-width="1.5" d="M0,-3.0v7 M-2.5,-0.5L0,-3.0L2.5,-0.5"/>
                </g>
               <g id="resetDef">
                       <use xlink:href="#rim2" fill="#404040">
                               <set attributeName="fill" to="#808080" begin="reset.mouseover" end="reset.mouseout"/>
                       </use>
               </g>
        </defs>

<script type="text/javascript">
var viewWidth = 1127;
var viewHeight = 1190;
var sectionId = 'dynsection-0';
</script>
<script xlink:href="svgpan.js"/>
<svg id="graph" class="graph">
<g id="viewport">
<title>qjs::js_property_traits&lt; const char * &gt;::set_property</title>
<!-- Node1 -->
<g id="node1" class="node">
<title>Node1</title>
<g id="a_node1"><a xlink:title=" ">
<polygon fill="#bfbfbf" stroke="black" points="0,-540.5 0,-581.5 122,-581.5 122,-540.5 0,-540.5"/>
<text text-anchor="start" x="8" y="-569.5" font-family="Helvetica,sans-Serif" font-size="10.00">qjs::js_property_traits</text>
<text text-anchor="start" x="8" y="-558.5" font-family="Helvetica,sans-Serif" font-size="10.00">&lt; const char * &gt;::set</text>
<text text-anchor="middle" x="61" y="-547.5" font-family="Helvetica,sans-Serif" font-size="10.00">_property</text>
</a>
</g>
</g>
<!-- Node2 -->
<g id="node2" class="node">
<title>Node2</title>
<g id="a_node2"><a xlink:href="quickjs_8c.html#a62617fe11025d2e5a545db069fc28e64" target="_top" xlink:title=" ">
<polygon fill="none" stroke="black" points="158,-551.5 158,-570.5 259,-570.5 259,-551.5 158,-551.5"/>
<text text-anchor="middle" x="208.5" y="-558.5" font-family="Helvetica,sans-Serif" font-size="10.00">JS_SetPropertyStr</text>
</a>
</g>
</g>
<!-- Node1&#45;&gt;Node2 -->
<g id="edge1" class="edge">
<title>Node1&#45;&gt;Node2</title>
<path fill="none" stroke="midnightblue" d="M122.02,-561C130.48,-561 139.18,-561 147.63,-561"/>
<polygon fill="midnightblue" stroke="midnightblue" points="147.8,-564.5 157.8,-561 147.8,-557.5 147.8,-564.5"/>
</g>
<!-- Node3 -->
<g id="node3" class="node">
<title>Node3</title>
<g id="a_node3"><a xlink:href="quickjs_8c.html#ab7fc45a99935a1c0ba50b0216d9401a9" target="_top" xlink:title=" ">
<polygon fill="none" stroke="black" points="822.5,-19.5 822.5,-38.5 900.5,-38.5 900.5,-19.5 822.5,-19.5"/>
<text text-anchor="middle" x="861.5" y="-26.5" font-family="Helvetica,sans-Serif" font-size="10.00">JS_FreeAtom</text>
</a>
</g>
</g>
<!-- Node2&#45;&gt;Node3 -->
<g id="edge2" class="edge">
<title>Node2&#45;&gt;Node3</title>
<path fill="none" stroke="midnightblue" d="M210.86,-551.34C219.54,-493.5 272.97,-191.22 456,-66 565.12,8.65 731.36,-6.2 812.53,-19.49"/>
<polygon fill="midnightblue" stroke="midnightblue" points="812.02,-22.95 822.47,-21.18 813.2,-16.05 812.02,-22.95"/>
</g>
<!-- Node9 -->
<g id="node6" class="node">
<title>Node9</title>
<g id="a_node6"><a xlink:href="quickjs_8c.html#aa2ef5af1544a3012f91a80c98c326b8f" target="_top" xlink:title=" ">
<polygon fill="none" stroke="black" points="318,-861.5 318,-880.5 397,-880.5 397,-861.5 318,-861.5"/>
<text text-anchor="middle" x="357.5" y="-868.5" font-family="Helvetica,sans-Serif" font-size="10.00">JS_NewAtom</text>
</a>
</g>
</g>
<!-- Node2&#45;&gt;Node9 -->
<g id="edge5" class="edge">
<title>Node2&#45;&gt;Node9</title>
<path fill="none" stroke="midnightblue" d="M214.06,-570.62C234.72,-614.19 319.76,-793.53 347.62,-852.27"/>
<polygon fill="midnightblue" stroke="midnightblue" points="344.55,-853.96 351.99,-861.49 350.87,-850.96 344.55,-853.96"/>
</g>
<!-- Node56 -->
<g id="node9" class="node">
<title>Node56</title>
<g id="a_node9"><a xlink:href="quickjs_8c.html#ad7f03358a8088ca920ab308225c6b2e6" target="_top" xlink:title=" ">
<polygon fill="none" stroke="red" points="295,-551.5 295,-570.5 420,-570.5 420,-551.5 295,-551.5"/>
<text text-anchor="middle" x="357.5" y="-558.5" font-family="Helvetica,sans-Serif" font-size="10.00">JS_SetPropertyInternal</text>
</a>
</g>
</g>
<!-- Node2&#45;&gt;Node56 -->
<g id="edge8" class="edge">
<title>Node2&#45;&gt;Node56</title>
<path fill="none" stroke="midnightblue" d="M259.27,-561C267.47,-561 276.11,-561 284.72,-561"/>
<polygon fill="midnightblue" stroke="midnightblue" points="284.79,-564.5 294.79,-561 284.79,-557.5 284.79,-564.5"/>
</g>
<!-- Node4 -->
<g id="node4" class="node">
<title>Node4</title>
<g id="a_node4"><a xlink:href="quickjs_8c.html#a7f6796ee7a195631366f57c713a33f65" target="_top" xlink:title=" ">
<polygon fill="none" stroke="black" points="990,-0.5 990,-19.5 1094,-19.5 1094,-0.5 990,-0.5"/>
<text text-anchor="middle" x="1042" y="-7.5" font-family="Helvetica,sans-Serif" font-size="10.00">__JS_AtomIsConst</text>
</a>
</g>
</g>
<!-- Node3&#45;&gt;Node4 -->
<g id="edge3" class="edge">
<title>Node3&#45;&gt;Node4</title>
<path fill="none" stroke="midnightblue" d="M900.79,-24.92C923.76,-22.48 953.51,-19.31 979.68,-16.53"/>
<polygon fill="midnightblue" stroke="midnightblue" points="980.32,-19.98 989.9,-15.44 979.58,-13.02 980.32,-19.98"/>
</g>
<!-- Node5 -->
<g id="node5" class="node">
<title>Node5</title>
<g id="a_node5"><a xlink:href="quickjs_8c.html#a0bbd9e3ecd55e3ea6c9d44bfda382095" target="_top" xlink:title=" ">
<polygon fill="none" stroke="red" points="997.5,-38.5 997.5,-57.5 1086.5,-57.5 1086.5,-38.5 997.5,-38.5"/>
<text text-anchor="middle" x="1042" y="-45.5" font-family="Helvetica,sans-Serif" font-size="10.00">__JS_FreeAtom</text>
</a>
</g>
</g>
<!-- Node3&#45;&gt;Node5 -->
<g id="edge4" class="edge">
<title>Node3&#45;&gt;Node5</title>
<path fill="none" stroke="midnightblue" d="M900.79,-33.08C926.06,-35.77 959.53,-39.33 987.44,-42.3"/>
<polygon fill="midnightblue" stroke="midnightblue" points="987.12,-45.78 997.44,-43.36 987.86,-38.82 987.12,-45.78"/>
</g>
<!-- Node10 -->
<g id="node7" class="node">
<title>Node10</title>
<g id="a_node7"><a xlink:href="quickjs_8c.html#a522741f41afb1d0da0aa55968cd8579e" target="_top" xlink:title=" ">
<polygon fill="none" stroke="red" points="483.5,-1152.5 483.5,-1171.5 579.5,-1171.5 579.5,-1152.5 483.5,-1152.5"/>
<text text-anchor="middle" x="531.5" y="-1159.5" font-family="Helvetica,sans-Serif" font-size="10.00">JS_NewAtomLen</text>
</a>
</g>
</g>
<!-- Node9&#45;&gt;Node10 -->
<g id="edge6" class="edge">
<title>Node9&#45;&gt;Node10</title>
<path fill="none" stroke="midnightblue" d="M359.08,-880.63C361.92,-918.99 377.59,-1062.55 456,-1138 461.07,-1142.87 467.13,-1146.76 473.57,-1149.85"/>
<polygon fill="midnightblue" stroke="midnightblue" points="472.65,-1153.26 483.22,-1153.85 475.32,-1146.79 472.65,-1153.26"/>
</g>
<!-- Node14 -->
<g id="node8" class="node">
<title>Node14</title>
<g id="a_node8"><a xlink:href="quickjs_8h.html#ad80a83d73e9b7d872b88fbf2943aebe9" target="_top" xlink:title=" ">
<polygon fill="none" stroke="black" points="998.5,-988.5 998.5,-1007.5 1085.5,-1007.5 1085.5,-988.5 998.5,-988.5"/>
<text text-anchor="middle" x="1042" y="-995.5" font-family="Helvetica,sans-Serif" font-size="10.00">JS_IsException</text>
</a>
</g>
</g>
<!-- Node10&#45;&gt;Node14 -->
<g id="edge7" class="edge">
<title>Node10&#45;&gt;Node14</title>
<path fill="none" stroke="midnightblue" d="M579.68,-1170.84C657.41,-1182.95 815.12,-1197.03 929,-1138 980.87,-1111.11 1016.88,-1048.4 1032.41,-1016.84"/>
<polygon fill="midnightblue" stroke="midnightblue" points="1035.59,-1018.31 1036.73,-1007.78 1029.27,-1015.3 1035.59,-1018.31"/>
</g>
<!-- Node56&#45;&gt;Node14 -->
<g id="edge63" class="edge">
<title>Node56&#45;&gt;Node14</title>
<path fill="none" stroke="midnightblue" d="M360.75,-570.5C369.31,-606.85 400.33,-740.64 420,-852 429.88,-907.92 413.11,-1067.78 456,-1105 539.74,-1177.67 894.71,-1053.1 1006.88,-1011.09"/>
<polygon fill="midnightblue" stroke="midnightblue" points="1008.23,-1014.32 1016.36,-1007.52 1005.77,-1007.77 1008.23,-1014.32"/>
</g>
<!-- Node57 -->
<g id="node10" class="node">
<title>Node57</title>
<g id="a_node10"><a xlink:href="quickjs_8c.html#a014abd680db53ab89cb133345742a59c" target="_top" xlink:title=" ">
<polygon fill="none" stroke="red" points="821.5,-209.5 821.5,-228.5 901.5,-228.5 901.5,-209.5 821.5,-209.5"/>
<text text-anchor="middle" x="861.5" y="-216.5" font-family="Helvetica,sans-Serif" font-size="10.00">__attribute__</text>
</a>
</g>
</g>
<!-- Node56&#45;&gt;Node57 -->
<g id="edge9" class="edge">
<title>Node56&#45;&gt;Node57</title>
<path fill="none" stroke="midnightblue" d="M359.81,-551.24C366.86,-500.16 402.04,-264.19 456,-219 559.11,-132.65 624.08,-187.69 758,-200 775.46,-201.6 794.39,-204.72 811.17,-207.96"/>
<polygon fill="midnightblue" stroke="midnightblue" points="810.82,-211.46 821.31,-209.99 812.19,-204.6 810.82,-211.46"/>
</g>
<!-- Node38 -->
<g id="node11" class="node">
<title>Node38</title>
<g id="a_node11"><a xlink:href="quickjs_8c.html#a288254c06a39c9fca740a7abdad2834e" target="_top" xlink:title=" ">
<polygon fill="none" stroke="black" points="800,-475.5 800,-494.5 923,-494.5 923,-475.5 800,-475.5"/>
<text text-anchor="middle" x="861.5" y="-482.5" font-family="Helvetica,sans-Serif" font-size="10.00">__JS_AtomIsTaggedInt</text>
</a>
</g>
</g>
<!-- Node56&#45;&gt;Node38 -->
<g id="edge10" class="edge">
<title>Node56&#45;&gt;Node38</title>
<path fill="none" stroke="midnightblue" d="M407.6,-551.41C423.08,-548.39 440.25,-545.05 456,-542 539.09,-525.91 559.23,-518.08 643,-506 691.84,-498.96 747.2,-493.65 789.84,-490.13"/>
<polygon fill="midnightblue" stroke="midnightblue" points="790.16,-493.62 799.84,-489.32 789.59,-486.64 790.16,-493.62"/>
</g>
<!-- Node39 -->
<g id="node12" class="node">
<title>Node39</title>
<g id="a_node12"><a xlink:href="quickjs_8c.html#a89f38938cee8077ce1fbba07946ed185" target="_top" xlink:title=" ">
<polygon fill="none" stroke="black" points="806.5,-361.5 806.5,-380.5 916.5,-380.5 916.5,-361.5 806.5,-361.5"/>
<text text-anchor="middle" x="861.5" y="-368.5" font-family="Helvetica,sans-Serif" font-size="10.00">__JS_AtomToUInt32</text>
</a>
</g>
</g>
<!-- Node56&#45;&gt;Node39 -->
<g id="edge11" class="edge">
<title>Node56&#45;&gt;Node39</title>
<path fill="none" stroke="midnightblue" d="M361.23,-551.41C369.87,-522.97 399.42,-438.5 456,-398 563.44,-321.1 730.81,-342.46 812.45,-359.33"/>
<polygon fill="midnightblue" stroke="midnightblue" points="811.94,-362.79 822.45,-361.46 813.4,-355.95 811.94,-362.79"/>
</g>
<!-- Node215 -->
<g id="node13" class="node">
<title>Node215</title>
<g id="a_node13"><a xlink:href="quickjs_8c.html#adbffd820afae76d09c641b5b911e3600" target="_top" xlink:title=" ">
<polygon fill="none" stroke="red" points="794,-285.5 794,-304.5 929,-304.5 929,-285.5 794,-285.5"/>
<text text-anchor="middle" x="861.5" y="-292.5" font-family="Helvetica,sans-Serif" font-size="10.00">add_fast_array_element</text>
</a>
</g>
</g>
<!-- Node56&#45;&gt;Node215 -->
<g id="edge12" class="edge">
<title>Node56&#45;&gt;Node215</title>
<path fill="none" stroke="midnightblue" d="M359.55,-551.07C363.86,-515.88 383.52,-396.31 456,-343 555.32,-269.95 706.97,-274.13 793.61,-284.24"/>
<polygon fill="midnightblue" stroke="midnightblue" points="793.24,-287.72 803.59,-285.46 794.09,-280.77 793.24,-287.72"/>
</g>
<!-- Node79 -->
<g id="node14" class="node">
<title>Node79</title>
<g id="a_node14"><a xlink:href="quickjs_8h.html#afaa20c47565bc704c6c85f3d77254e7d" target="_top" xlink:title=" ">
<polygon fill="none" stroke="red" points="1002.5,-285.5 1002.5,-304.5 1081.5,-304.5 1081.5,-285.5 1002.5,-285.5"/>
<text text-anchor="middle" x="1042" y="-292.5" font-family="Helvetica,sans-Serif" font-size="10.00">JS_FreeValue</text>
</a>
</g>
</g>
<!-- Node56&#45;&gt;Node79 -->
<g id="edge61" class="edge">
<title>Node56&#45;&gt;Node79</title>
<path fill="none" stroke="midnightblue" d="M359.08,-551.3C362.83,-492.13 385.79,-180.27 456,-124 538.24,-58.08 838.7,-104.64 929,-159 935.43,-162.87 997.89,-240.82 1026.64,-276.93"/>
<polygon fill="midnightblue" stroke="midnightblue" points="1024.21,-279.49 1033.17,-285.13 1029.69,-275.13 1024.21,-279.49"/>
</g>
<!-- Node145 -->
<g id="node15" class="node">
<title>Node145</title>
<g id="a_node15"><a xlink:href="quickjs_8h.html#a2050bc428da1c65ac7eb87c3fa3b0392" target="_top" xlink:title=" ">
<polygon fill="none" stroke="black" points="1003.5,-589.5 1003.5,-608.5 1080.5,-608.5 1080.5,-589.5 1003.5,-589.5"/>
<text text-anchor="middle" x="1042" y="-596.5" font-family="Helvetica,sans-Serif" font-size="10.00">JS_NewInt32</text>
</a>
</g>
</g>
<!-- Node56&#45;&gt;Node145 -->
<g id="edge65" class="edge">
<title>Node56&#45;&gt;Node145</title>
<path fill="none" stroke="midnightblue" d="M359.07,-570.53C361.83,-607.15 377.14,-739.6 456,-796 523.74,-844.44 559.76,-805.33 643,-808 770.99,-812.1 823.34,-845.35 929,-773 986.2,-733.84 1020.8,-654.86 1034.37,-618.34"/>
<polygon fill="midnightblue" stroke="midnightblue" points="1037.7,-619.43 1037.78,-608.84 1031.11,-617.07 1037.7,-619.43"/>
</g>
<!-- Node216 -->
<g id="node16" class="node">
<title>Node216</title>
<g id="a_node16"><a xlink:href="quickjs_8c.html#adba489eac6c2332de312326782457940" target="_top" xlink:title=" ">
<polygon fill="none" stroke="red" points="965,-171.5 965,-190.5 1119,-190.5 1119,-171.5 965,-171.5"/>
<text text-anchor="middle" x="1042" y="-178.5" font-family="Helvetica,sans-Serif" font-size="10.00">JS_ThrowTypeErrorReadOnly</text>
</a>
</g>
</g>
<!-- Node56&#45;&gt;Node216 -->
<g id="edge68" class="edge">
<title>Node56&#45;&gt;Node216</title>
<path fill="none" stroke="midnightblue" d="M358.9,-551.33C361.71,-489.45 380.44,-149.57 456,-88 508.02,-45.61 539.89,-87.78 607,-88 674.11,-88.22 691.75,-78.28 758,-89 852.67,-104.32 958.84,-145.8 1010.06,-167.44"/>
<polygon fill="midnightblue" stroke="midnightblue" points="1008.98,-170.78 1019.55,-171.49 1011.73,-164.35 1008.98,-170.78"/>
</g>
<!-- Node122 -->
<g id="node17" class="node">
<title>Node122</title>
<g id="a_node17"><a xlink:href="quickjs_8c.html#a74547db03bf739a52c83a326b32db997" target="_top" xlink:title=" ">
<polygon fill="none" stroke="red" points="821,-437.5 821,-456.5 902,-456.5 902,-437.5 821,-437.5"/>
<text text-anchor="middle" x="861.5" y="-444.5" font-family="Helvetica,sans-Serif" font-size="10.00">add_property</text>
</a>
</g>
</g>
<!-- Node56&#45;&gt;Node122 -->
<g id="edge16" class="edge">
<title>Node56&#45;&gt;Node122</title>
<path fill="none" stroke="midnightblue" d="M372.32,-551.45C390.6,-539.32 424.22,-518.67 456,-508 579.14,-466.67 732.8,-453.26 810.51,-448.97"/>
<polygon fill="midnightblue" stroke="midnightblue" points="811.16,-452.44 820.96,-448.43 810.79,-445.45 811.16,-452.44"/>
</g>
<!-- Node426 -->
<g id="node18" class="node">
<title>Node426</title>
<g id="a_node18"><a xlink:href="quickjs_8c.html#a3fb71f8d31b557ebebec82476999408a" target="_top" xlink:title=" ">
<polygon fill="none" stroke="red" points="666.5,-779.5 666.5,-798.5 734.5,-798.5 734.5,-779.5 666.5,-779.5"/>
<text text-anchor="middle" x="700.5" y="-786.5" font-family="Helvetica,sans-Serif" font-size="10.00">call_setter</text>
</a>
</g>
</g>
<!-- Node56&#45;&gt;Node426 -->
<g id="edge17" class="edge">
<title>Node56&#45;&gt;Node426</title>
<path fill="none" stroke="midnightblue" d="M359.81,-570.82C364.89,-604.56 386.58,-716.32 456,-765 515.34,-806.62 603.75,-803.42 656.12,-796.66"/>
<polygon fill="midnightblue" stroke="midnightblue" points="656.67,-800.12 666.09,-795.27 655.7,-793.18 656.67,-800.12"/>
</g>
<!-- Node40 -->
<g id="node19" class="node">
<title>Node40</title>
<g id="a_node19"><a xlink:href="quickjs_8h.html#a775522f2d084fc8fa0fcb33f390006b4" target="_top" xlink:title=" ">
<polygon fill="none" stroke="black" points="823,-703.5 823,-722.5 900,-722.5 900,-703.5 823,-703.5"/>
<text text-anchor="middle" x="861.5" y="-710.5" font-family="Helvetica,sans-Serif" font-size="10.00">JS_DupValue</text>
</a>
</g>
</g>
<!-- Node56&#45;&gt;Node40 -->
<g id="edge60" class="edge">
<title>Node56&#45;&gt;Node40</title>
<path fill="none" stroke="midnightblue" d="M366.47,-570.51C382.07,-588.63 418.38,-628.46 456,-653 531.56,-702.3 554.57,-714.09 643,-732 693.09,-742.15 707.1,-736.68 758,-732 776.08,-730.34 795.73,-727.06 812.94,-723.69"/>
<polygon fill="midnightblue" stroke="midnightblue" points="813.65,-727.12 822.76,-721.71 812.27,-720.26 813.65,-727.12"/>
</g>
<!-- Node74 -->
<g id="node20" class="node">
<title>Node74</title>
<g id="a_node20"><a xlink:href="quickjs_8c.html#a06b76f5124fd985e35f4c652fd018d6d" target="_top" xlink:title=" ">
<polygon fill="none" stroke="red" points="647,-703.5 647,-722.5 754,-722.5 754,-703.5 647,-703.5"/>
<text text-anchor="middle" x="700.5" y="-710.5" font-family="Helvetica,sans-Serif" font-size="10.00">find_own_property</text>
</a>
</g>
</g>
<!-- Node56&#45;&gt;Node74 -->
<g id="edge21" class="edge">
<title>Node56&#45;&gt;Node74</title>
<path fill="none" stroke="midnightblue" d="M379.49,-570.63C426.52,-592.16 544,-645.71 643,-689 650.84,-692.43 659.33,-696.07 667.28,-699.45"/>
<polygon fill="midnightblue" stroke="midnightblue" points="666.06,-702.74 676.64,-703.42 668.79,-696.29 666.06,-702.74"/>
</g>
<!-- Node143 -->
<g id="node21" class="node">
<title>Node143</title>
<g id="a_node21"><a xlink:href="quickjs_8c.html#add3eea1f6d626963ade3c28a1fd563d1" target="_top" xlink:title=" ">
<polygon fill="none" stroke="red" points="794.5,-855.5 794.5,-874.5 928.5,-874.5 928.5,-855.5 794.5,-855.5"/>
<text text-anchor="middle" x="861.5" y="-862.5" font-family="Helvetica,sans-Serif" font-size="10.00">JS_AtomIsNumericIndex</text>
</a>
</g>
</g>
<!-- Node56&#45;&gt;Node143 -->
<g id="edge22" class="edge">
<title>Node56&#45;&gt;Node143</title>
<path fill="none" stroke="midnightblue" d="M358.22,-570.53C357.56,-612.65 360.99,-783.42 456,-860 560.71,-944.4 623.82,-888.12 758,-879 768.7,-878.27 779.99,-877.12 791,-875.79"/>
<polygon fill="midnightblue" stroke="midnightblue" points="791.54,-879.25 801.02,-874.51 790.66,-872.3 791.54,-879.25"/>
</g>
<!-- Node159 -->
<g id="node22" class="node">
<title>Node159</title>
<g id="a_node22"><a xlink:href="quickjs_8h.html#a4e407128a9605afb77523e49e9a627fd" target="_top" xlink:title=" ">
<polygon fill="none" stroke="black" points="997.5,-855.5 997.5,-874.5 1086.5,-874.5 1086.5,-855.5 997.5,-855.5"/>
<text text-anchor="middle" x="1042" y="-862.5" font-family="Helvetica,sans-Serif" font-size="10.00">JS_IsUndefined</text>
</a>
</g>
</g>
<!-- Node56&#45;&gt;Node159 -->
<g id="edge64" class="edge">
<title>Node56&#45;&gt;Node159</title>
<path fill="none" stroke="midnightblue" d="M359.78,-570.63C366.7,-621.05 401.33,-853.82 456,-896 537.83,-959.14 858.46,-902.48 987.14,-876.45"/>
<polygon fill="midnightblue" stroke="midnightblue" points="988.06,-879.83 997.16,-874.41 986.66,-872.97 988.06,-879.83"/>
</g>
<!-- Node160 -->
<g id="node23" class="node">
<title>Node160</title>
<g id="a_node23"><a xlink:href="quickjs_8c.html#a8aac7988cf0c6f3c2b629a6662fd7ec8" target="_top" xlink:title=" ">
<polygon fill="none" stroke="red" points="645.5,-1007.5 645.5,-1026.5 755.5,-1026.5 755.5,-1007.5 645.5,-1007.5"/>
<text text-anchor="middle" x="700.5" y="-1014.5" font-family="Helvetica,sans-Serif" font-size="10.00">JS_AutoInitProperty</text>
</a>
</g>
</g>
<!-- Node56&#45;&gt;Node160 -->
<g id="edge26" class="edge">
<title>Node56&#45;&gt;Node160</title>
<path fill="none" stroke="midnightblue" d="M360.54,-570.54C368.36,-607.03 397.04,-741.27 420,-852 436.3,-930.61 393.84,-978.21 456,-1029 516.99,-1078.84 617.98,-1049.88 668.59,-1030.34"/>
<polygon fill="midnightblue" stroke="midnightblue" points="670.02,-1033.54 678.01,-1026.59 667.43,-1027.04 670.02,-1033.54"/>
</g>
<!-- Node214 -->
<g id="node24" class="node">
<title>Node214</title>
<g id="a_node24"><a xlink:href="quickjs_8c.html#ad5565bb5cfd5321f181573257f3b0c91" target="_top" xlink:title=" ">
<polygon fill="none" stroke="red" points="648.5,-399.5 648.5,-418.5 752.5,-418.5 752.5,-399.5 648.5,-399.5"/>
<text text-anchor="middle" x="700.5" y="-406.5" font-family="Helvetica,sans-Serif" font-size="10.00">JS_CreateProperty</text>
</a>
</g>
</g>
<!-- Node56&#45;&gt;Node214 -->
<g id="edge28" class="edge">
<title>Node56&#45;&gt;Node214</title>
<path fill="none" stroke="midnightblue" d="M362.45,-551.47C373.24,-526.84 405.75,-461.04 456,-433 511.99,-401.75 586.6,-399.01 638.42,-402.02"/>
<polygon fill="midnightblue" stroke="midnightblue" points="638.25,-405.52 648.46,-402.69 638.72,-398.53 638.25,-405.52"/>
</g>
<!-- Node210 -->
<g id="node25" class="node">
<title>Node210</title>
<g id="a_node25"><a xlink:href="quickjs_8c.html#ab50618f1bf78e444caa6da0e3e2785d7" target="_top" xlink:title=" ">
<polygon fill="none" stroke="red" points="479.5,-551.5 479.5,-570.5 583.5,-570.5 583.5,-551.5 479.5,-551.5"/>
<text text-anchor="middle" x="531.5" y="-558.5" font-family="Helvetica,sans-Serif" font-size="10.00">JS_DefineProperty</text>
</a>
</g>
</g>
<!-- Node56&#45;&gt;Node210 -->
<g id="edge37" class="edge">
<title>Node56&#45;&gt;Node210</title>
<path fill="none" stroke="midnightblue" d="M420.11,-561C436,-561 453.11,-561 469,-561"/>
<polygon fill="midnightblue" stroke="midnightblue" points="469.24,-564.5 479.24,-561 469.24,-557.5 469.24,-564.5"/>
</g>
<!-- Node237 -->
<g id="node26" class="node">
<title>Node237</title>
<g id="a_node26"><a xlink:href="quickjs_8c.html#aee75cc1546e19479e3ccda58f3b50a96" target="_top" xlink:title=" ">
<polygon fill="none" stroke="red" points="643,-209.5 643,-228.5 758,-228.5 758,-209.5 643,-209.5"/>
<text text-anchor="middle" x="700.5" y="-216.5" font-family="Helvetica,sans-Serif" font-size="10.00">JS_SetPropertyValue</text>
</a>
</g>
</g>
<!-- Node56&#45;&gt;Node237 -->
<g id="edge66" class="edge">
<title>Node56&#45;&gt;Node237</title>
<path fill="none" stroke="midnightblue" d="M358.66,-551.35C359.83,-510.06 369.91,-351 456,-272 503.93,-228.01 578.66,-214.23 632.69,-212.18"/>
<polygon fill="midnightblue" stroke="midnightblue" points="632.96,-215.67 642.87,-211.92 632.78,-208.67 632.96,-215.67"/>
</g>
<!-- Node241 -->
<g id="node27" class="node">
<title>Node241</title>
<g id="a_node27"><a xlink:href="quickjs_8c.html#ad55fe6f65ecb58e327ac9e9b4ab475f5" target="_top" xlink:title=" ">
<polygon fill="none" stroke="red" points="651.5,-133.5 651.5,-152.5 749.5,-152.5 749.5,-133.5 651.5,-133.5"/>
<text text-anchor="middle" x="700.5" y="-140.5" font-family="Helvetica,sans-Serif" font-size="10.00">set_array_length</text>
</a>
</g>
</g>
<!-- Node56&#45;&gt;Node241 -->
<g id="edge70" class="edge">
<title>Node56&#45;&gt;Node241</title>
<path fill="none" stroke="midnightblue" d="M359.42,-551.27C364.85,-495.8 394.72,-220.02 456,-167 507.61,-122.35 590.33,-124.29 644.8,-131.93"/>
<polygon fill="midnightblue" stroke="midnightblue" points="644.55,-135.43 654.96,-133.46 645.6,-128.51 644.55,-135.43"/>
</g>
<!-- Node169 -->
<g id="node28" class="node">
<title>Node169</title>
<g id="a_node28"><a xlink:href="quickjs_8c.html#a93550bf785e919d0881399712c54cb34" target="_top" xlink:title=" ">
<polygon fill="none" stroke="black" points="461.5,-1076.5 461.5,-1095.5 601.5,-1095.5 601.5,-1076.5 461.5,-1076.5"/>
<text text-anchor="middle" x="531.5" y="-1083.5" font-family="Helvetica,sans-Serif" font-size="10.00">JS_GetPrototypePrimitive</text>
</a>
</g>
</g>
<!-- Node56&#45;&gt;Node169 -->
<g id="edge62" class="edge">
<title>Node56&#45;&gt;Node169</title>
<path fill="none" stroke="midnightblue" d="M360.65,-570.52C368.85,-606.93 398.75,-740.93 420,-852 437.79,-945.01 393.95,-990.46 456,-1062 459.22,-1065.72 463.03,-1068.86 467.18,-1071.53"/>
<polygon fill="midnightblue" stroke="midnightblue" points="465.66,-1074.68 476.13,-1076.34 468.98,-1068.52 465.66,-1074.68"/>
</g>
<!-- Node173 -->
<g id="node29" class="node">
<title>Node173</title>
<g id="a_node29"><a xlink:href="quickjs_8c.html#ab8d0b87c9eed4eb6c054b6f4e1731554" target="_top" xlink:title=" ">
<polygon fill="none" stroke="red" points="456,-989 456,-1019 607,-1019 607,-989 456,-989"/>
<text text-anchor="start" x="464" y="-1007" font-family="Helvetica,sans-Serif" font-size="10.00">JS_ThrowReferenceErrorNot</text>
<text text-anchor="middle" x="531.5" y="-996" font-family="Helvetica,sans-Serif" font-size="10.00">Defined</text>
</a>
</g>
</g>
<!-- Node56&#45;&gt;Node173 -->
<g id="edge67" class="edge">
<title>Node56&#45;&gt;Node173</title>
<path fill="none" stroke="midnightblue" d="M360.45,-570.52C372.9,-631.28 441.43,-962.98 456,-979 457.2,-980.32 458.47,-981.57 459.8,-982.75"/>
<polygon fill="midnightblue" stroke="midnightblue" points="457.9,-985.7 468.03,-988.83 462.07,-980.07 457.9,-985.7"/>
</g>
<!-- Node148 -->
<g id="node30" class="node">
<title>Node148</title>
<g id="a_node30"><a xlink:href="quickjs_8c.html#ae738291483438efefca5c9fa4d269504" target="_top" xlink:title=" ">
<polygon fill="none" stroke="red" points="481,-950.5 481,-969.5 582,-969.5 582,-950.5 481,-950.5"/>
<text text-anchor="middle" x="531.5" y="-957.5" font-family="Helvetica,sans-Serif" font-size="10.00">JS_ToNumberFree</text>
</a>
</g>
</g>
<!-- Node56&#45;&gt;Node148 -->
<g id="edge69" class="edge">
<title>Node56&#45;&gt;Node148</title>
<path fill="none" stroke="midnightblue" d="M360.42,-570.58C371.65,-626.37 429.39,-907.82 456,-936 460.41,-940.67 465.73,-944.43 471.47,-947.46"/>
<polygon fill="midnightblue" stroke="midnightblue" points="470.22,-950.74 480.77,-951.65 473.09,-944.36 470.22,-950.74"/>
</g>
<!-- Node215&#45;&gt;Node79 -->
<g id="edge13" class="edge">
<title>Node215&#45;&gt;Node79</title>
<path fill="none" stroke="midnightblue" d="M929.22,-295C950.12,-295 972.79,-295 992.21,-295"/>
<polygon fill="midnightblue" stroke="midnightblue" points="992.34,-298.5 1002.34,-295 992.34,-291.5 992.34,-298.5"/>
</g>
<!-- Node215&#45;&gt;Node145 -->
<g id="edge14" class="edge">
<title>Node215&#45;&gt;Node145</title>
<path fill="none" stroke="midnightblue" d="M877.1,-304.63C891.79,-314.92 914.3,-332.42 929,-352 985.55,-427.33 1022.11,-535.76 1035.39,-579.55"/>
<polygon fill="midnightblue" stroke="midnightblue" points="1032.06,-580.65 1038.26,-589.24 1038.78,-578.66 1032.06,-580.65"/>
</g>
<!-- Node215&#45;&gt;Node216 -->
<g id="edge15" class="edge">
<title>Node215&#45;&gt;Node216</title>
<path fill="none" stroke="midnightblue" d="M877.41,-285.48C908.31,-265.74 979.56,-220.24 1017,-196.32"/>
<polygon fill="midnightblue" stroke="midnightblue" points="1019.21,-199.07 1025.75,-190.74 1015.44,-193.17 1019.21,-199.07"/>
</g>
<!-- Node426&#45;&gt;Node14 -->
<g id="edge20" class="edge">
<title>Node426&#45;&gt;Node14</title>
<path fill="none" stroke="midnightblue" d="M734.59,-798.54C742.93,-802.09 751.38,-806.81 758,-813 783.85,-837.16 768.53,-859.45 794,-884 850.34,-938.3 937.22,-970.07 991.5,-985.72"/>
<polygon fill="midnightblue" stroke="midnightblue" points="990.67,-989.12 1001.25,-988.46 992.57,-982.38 990.67,-989.12"/>
</g>
<!-- Node426&#45;&gt;Node79 -->
<g id="edge19" class="edge">
<title>Node426&#45;&gt;Node79</title>
<path fill="none" stroke="midnightblue" d="M734.9,-790.69C784.43,-791.26 877.08,-784.59 929,-732 977.77,-682.59 948.05,-647.32 965,-580 990.17,-479.99 1022.77,-360.95 1035.54,-314.72"/>
<polygon fill="midnightblue" stroke="midnightblue" points="1038.98,-315.39 1038.27,-304.82 1032.24,-313.52 1038.98,-315.39"/>
</g>
<!-- Node426&#45;&gt;Node40 -->
<g id="edge18" class="edge">
<title>Node426&#45;&gt;Node40</title>
<path fill="none" stroke="midnightblue" d="M725.02,-779.43C735.23,-775.17 747.27,-769.99 758,-765 783.93,-752.93 812.94,-738.08 833.47,-727.34"/>
<polygon fill="midnightblue" stroke="midnightblue" points="835.31,-730.33 842.54,-722.58 832.06,-724.13 835.31,-730.33"/>
</g>
<!-- Node143&#45;&gt;Node14 -->
<g id="edge24" class="edge">
<title>Node143&#45;&gt;Node14</title>
<path fill="none" stroke="midnightblue" d="M897.62,-874.55C908.15,-878.23 919.43,-883.01 929,-889 969.77,-914.51 1007.77,-956.94 1027.29,-980.64"/>
<polygon fill="midnightblue" stroke="midnightblue" points="1024.61,-982.88 1033.62,-988.45 1030.05,-978.48 1024.61,-982.88"/>
</g>
<!-- Node143&#45;&gt;Node79 -->
<g id="edge23" class="edge">
<title>Node143&#45;&gt;Node79</title>
<path fill="none" stroke="midnightblue" d="M873.24,-855.46C888.3,-841.4 915.39,-813.59 929,-784 967.47,-700.35 945.12,-669.9 965,-580 987.27,-479.3 1021.54,-360.66 1035.14,-314.62"/>
<polygon fill="midnightblue" stroke="midnightblue" points="1038.58,-315.35 1038.07,-304.77 1031.87,-313.36 1038.58,-315.35"/>
</g>
<!-- Node143&#45;&gt;Node159 -->
<g id="edge25" class="edge">
<title>Node143&#45;&gt;Node159</title>
<path fill="none" stroke="midnightblue" d="M928.71,-865C947.96,-865 968.74,-865 987.14,-865"/>
<polygon fill="midnightblue" stroke="midnightblue" points="987.37,-868.5 997.37,-865 987.37,-861.5 987.37,-868.5"/>
</g>
<!-- Node160&#45;&gt;Node14 -->
<g id="edge27" class="edge">
<title>Node160&#45;&gt;Node14</title>
<path fill="none" stroke="midnightblue" d="M755.67,-1013.97C819.51,-1010.4 924.89,-1004.5 988.15,-1000.96"/>
<polygon fill="midnightblue" stroke="midnightblue" points="988.52,-1004.44 998.31,-1000.39 988.13,-997.45 988.52,-1004.44"/>
</g>
<!-- Node214&#45;&gt;Node57 -->
<g id="edge29" class="edge">
<title>Node214&#45;&gt;Node57</title>
<path fill="none" stroke="midnightblue" d="M707.03,-399.37C720.34,-376.59 755.9,-318.15 794,-276 807.85,-260.68 825.72,-245.57 839.45,-234.76"/>
<polygon fill="midnightblue" stroke="midnightblue" points="841.62,-237.51 847.39,-228.63 837.33,-231.97 841.62,-237.51"/>
</g>
<!-- Node214&#45;&gt;Node38 -->
<g id="edge30" class="edge">
<title>Node214&#45;&gt;Node38</title>
<path fill="none" stroke="midnightblue" d="M714.35,-418.51C731.66,-430.94 763.8,-452.68 794,-466 799.35,-468.36 805.07,-470.51 810.82,-472.44"/>
<polygon fill="midnightblue" stroke="midnightblue" points="809.9,-475.82 820.49,-475.49 812,-469.14 809.9,-475.82"/>
</g>
<!-- Node214&#45;&gt;Node39 -->
<g id="edge31" class="edge">
<title>Node214&#45;&gt;Node39</title>
<path fill="none" stroke="midnightblue" d="M741.62,-399.41C762.6,-394.4 788.48,-388.21 810.73,-382.89"/>
<polygon fill="midnightblue" stroke="midnightblue" points="811.75,-386.25 820.67,-380.52 810.13,-379.44 811.75,-386.25"/>
</g>
<!-- Node214&#45;&gt;Node215 -->
<g id="edge32" class="edge">
<title>Node214&#45;&gt;Node215</title>
<path fill="none" stroke="midnightblue" d="M714.78,-399.48C742.19,-379.83 805.23,-334.63 838.7,-310.63"/>
<polygon fill="midnightblue" stroke="midnightblue" points="840.83,-313.41 846.92,-304.74 836.75,-307.72 840.83,-313.41"/>
</g>
<!-- Node214&#45;&gt;Node216 -->
<g id="edge36" class="edge">
<title>Node214&#45;&gt;Node216</title>
<path fill="none" stroke="midnightblue" d="M745.22,-418.54C795.26,-426.76 876.98,-431.56 929,-390 970.51,-356.83 939.98,-322.87 965,-276 981.04,-245.95 1007.04,-216.05 1024.08,-198.04"/>
<polygon fill="midnightblue" stroke="midnightblue" points="1026.79,-200.28 1031.21,-190.65 1021.75,-195.42 1026.79,-200.28"/>
</g>
<!-- Node214&#45;&gt;Node122 -->
<g id="edge33" class="edge">
<title>Node214&#45;&gt;Node122</title>
<path fill="none" stroke="midnightblue" d="M741.62,-418.59C762.68,-423.62 788.68,-429.84 810.98,-435.17"/>
<polygon fill="midnightblue" stroke="midnightblue" points="810.4,-438.63 820.94,-437.55 812.03,-431.82 810.4,-438.63"/>
</g>
<!-- Node214&#45;&gt;Node40 -->
<g id="edge35" class="edge">
<title>Node214&#45;&gt;Node40</title>
<path fill="none" stroke="midnightblue" d="M706.61,-418.77C729.23,-462.01 820.52,-636.56 850.73,-694.33"/>
<polygon fill="midnightblue" stroke="midnightblue" points="847.75,-696.18 855.49,-703.42 853.95,-692.93 847.75,-696.18"/>
</g>
<!-- Node214&#45;&gt;Node143 -->
<g id="edge34" class="edge">
<title>Node214&#45;&gt;Node143</title>
<path fill="none" stroke="midnightblue" d="M703.59,-418.73C712.28,-458.44 747.23,-611.87 794,-732 810.45,-774.26 835.64,-821.15 849.83,-846.42"/>
<polygon fill="midnightblue" stroke="midnightblue" points="846.87,-848.3 854.85,-855.28 852.96,-844.85 846.87,-848.3"/>
</g>
<!-- Node210&#45;&gt;Node14 -->
<g id="edge46" class="edge">
<title>Node210&#45;&gt;Node14</title>
<path fill="none" stroke="midnightblue" d="M535.16,-570.77C545,-605.65 581.94,-726.37 643,-808 695.87,-878.68 715.49,-896.67 794,-937 856.43,-969.07 936.53,-984.83 988.3,-992.17"/>
<polygon fill="midnightblue" stroke="midnightblue" points="987.89,-995.65 998.27,-993.53 988.83,-988.71 987.89,-995.65"/>
</g>
<!-- Node210&#45;&gt;Node57 -->
<g id="edge38" class="edge">
<title>Node210&#45;&gt;Node57</title>
<path fill="none" stroke="midnightblue" d="M535.72,-551.47C546.57,-520.46 584.45,-420.81 643,-358 698.06,-298.94 783.36,-254.16 829.06,-232.81"/>
<polygon fill="midnightblue" stroke="midnightblue" points="830.56,-235.97 838.18,-228.62 827.63,-229.61 830.56,-235.97"/>
</g>
<!-- Node210&#45;&gt;Node38 -->
<g id="edge39" class="edge">
<title>Node210&#45;&gt;Node38</title>
<path fill="none" stroke="midnightblue" d="M573.71,-551.45C633.57,-537.58 744.49,-511.88 809.44,-496.83"/>
<polygon fill="midnightblue" stroke="midnightblue" points="810.51,-500.18 819.46,-494.51 808.93,-493.36 810.51,-500.18"/>
</g>
<!-- Node210&#45;&gt;Node39 -->
<g id="edge40" class="edge">
<title>Node210&#45;&gt;Node39</title>
<path fill="none" stroke="midnightblue" d="M535.35,-551.44C544.84,-521.43 578.51,-428.84 643,-390 688.88,-362.36 750.38,-359.45 796.28,-362.38"/>
<polygon fill="midnightblue" stroke="midnightblue" points="796.18,-365.89 806.41,-363.14 796.7,-358.91 796.18,-365.89"/>
</g>
<!-- Node210&#45;&gt;Node79 -->
<g id="edge45" class="edge">
<title>Node210&#45;&gt;Node79</title>
<path fill="none" stroke="midnightblue" d="M583.78,-567.88C665.22,-575.94 825.47,-579.79 929,-504 994.86,-455.78 1025.89,-356.88 1036.53,-314.73"/>
<polygon fill="midnightblue" stroke="midnightblue" points="1039.97,-315.41 1038.91,-304.87 1033.16,-313.77 1039.97,-315.41"/>
</g>
<!-- Node210&#45;&gt;Node145 -->
<g id="edge48" class="edge">
<title>Node210&#45;&gt;Node145</title>
<path fill="none" stroke="midnightblue" d="M583.59,-568.18C602.25,-570.62 623.55,-573.18 643,-575 769.22,-586.79 918.53,-593.99 993.3,-597.14"/>
<polygon fill="midnightblue" stroke="midnightblue" points="993.21,-600.64 1003.35,-597.56 993.5,-593.64 993.21,-600.64"/>
</g>
<!-- Node210&#45;&gt;Node40 -->
<g id="edge44" class="edge">
<title>Node210&#45;&gt;Node40</title>
<path fill="none" stroke="midnightblue" d="M554.9,-570.61C570.56,-578.01 591.38,-589.29 607,-603 627.04,-620.59 621.03,-635.89 643,-651 670.56,-669.96 757.79,-691.15 813.05,-703.2"/>
<polygon fill="midnightblue" stroke="midnightblue" points="812.46,-706.65 822.97,-705.34 813.94,-699.81 812.46,-706.65"/>
</g>
<!-- Node210&#45;&gt;Node74 -->
<g id="edge41" class="edge">
<title>Node210&#45;&gt;Node74</title>
<path fill="none" stroke="midnightblue" d="M541.97,-570.72C556.42,-585.67 584.64,-615.37 607,-642 623.92,-662.15 622.2,-672.88 643,-689 648.09,-692.94 653.91,-696.36 659.85,-699.28"/>
<polygon fill="midnightblue" stroke="midnightblue" points="658.63,-702.57 669.19,-703.47 661.5,-696.18 658.63,-702.57"/>
</g>
<!-- Node210&#45;&gt;Node159 -->
<g id="edge47" class="edge">
<title>Node210&#45;&gt;Node159</title>
<path fill="none" stroke="midnightblue" d="M564.97,-570.55C654.28,-597.02 899,-670.85 929,-694 982.72,-735.46 1018.68,-810.39 1033.43,-845.66"/>
<polygon fill="midnightblue" stroke="midnightblue" points="1030.32,-847.3 1037.33,-855.25 1036.81,-844.67 1030.32,-847.3"/>
</g>
<!-- Node210&#45;&gt;Node160 -->
<g id="edge42" class="edge">
<title>Node210&#45;&gt;Node160</title>
<path fill="none" stroke="midnightblue" d="M535.99,-570.52C556.7,-627.08 663.6,-918.99 692.37,-997.52"/>
<polygon fill="midnightblue" stroke="midnightblue" points="689.16,-998.96 695.89,-1007.14 695.74,-996.55 689.16,-998.96"/>
</g>
<!-- Node210&#45;&gt;Node214 -->
<g id="edge43" class="edge">
<title>Node210&#45;&gt;Node214</title>
<path fill="none" stroke="midnightblue" d="M542.95,-551.49C570.71,-526.22 646.6,-457.15 681.5,-425.38"/>
<polygon fill="midnightblue" stroke="midnightblue" points="684.02,-427.82 689.06,-418.5 679.31,-422.65 684.02,-427.82"/>
</g>
<!-- Node210&#45;&gt;Node237 -->
<g id="edge49" class="edge">
<title>Node210&#45;&gt;Node237</title>
<path fill="none" stroke="midnightblue" d="M533.1,-551.26C536.2,-508.85 553.99,-338.21 643,-243 646.55,-239.2 650.79,-235.98 655.34,-233.26"/>
<polygon fill="midnightblue" stroke="midnightblue" points="657.08,-236.3 664.36,-228.6 653.87,-230.08 657.08,-236.3"/>
</g>
<!-- Node210&#45;&gt;Node241 -->
<g id="edge55" class="edge">
<title>Node210&#45;&gt;Node241</title>
<path fill="none" stroke="midnightblue" d="M533.72,-551.39C539.56,-507.89 567.64,-326 643,-200 652.41,-184.26 667.08,-169.64 679.12,-159.14"/>
<polygon fill="midnightblue" stroke="midnightblue" points="681.53,-161.69 686.93,-152.58 677.02,-156.33 681.53,-161.69"/>
</g>
<!-- Node237&#45;&gt;Node3 -->
<g id="edge52" class="edge">
<title>Node237&#45;&gt;Node3</title>
<path fill="none" stroke="midnightblue" d="M711.89,-209.27C723.53,-198.21 742.77,-179.41 758,-162 792.51,-122.55 829.11,-72.91 847.84,-46.85"/>
<polygon fill="midnightblue" stroke="midnightblue" points="850.71,-48.84 853.68,-38.67 845.02,-44.77 850.71,-48.84"/>
</g>
<!-- Node237&#45;&gt;Node56 -->
<g id="edge54" class="edge">
<title>Node237&#45;&gt;Node56</title>
<path fill="none" stroke="midnightblue" d="M642.87,-225.63C588.4,-230.58 507.02,-243.18 456,-290 380.18,-359.58 363.32,-491.26 359.57,-541.31"/>
<polygon fill="midnightblue" stroke="midnightblue" points="356.07,-541.25 358.91,-551.46 363.05,-541.7 356.07,-541.25"/>
</g>
<!-- Node237&#45;&gt;Node57 -->
<g id="edge50" class="edge">
<title>Node237&#45;&gt;Node57</title>
<path fill="none" stroke="midnightblue" d="M758.01,-219C775.3,-219 794.19,-219 810.98,-219"/>
<polygon fill="midnightblue" stroke="midnightblue" points="811.14,-222.5 821.14,-219 811.14,-215.5 811.14,-222.5"/>
</g>
<!-- Node237&#45;&gt;Node215 -->
<g id="edge51" class="edge">
<title>Node237&#45;&gt;Node215</title>
<path fill="none" stroke="midnightblue" d="M716.8,-228.64C734.82,-239.75 765.86,-258.12 794,-271 802.61,-274.94 812.06,-278.68 821.07,-281.99"/>
<polygon fill="midnightblue" stroke="midnightblue" points="820.02,-285.33 830.62,-285.4 822.38,-278.74 820.02,-285.33"/>
</g>
<!-- Node237&#45;&gt;Node79 -->
<g id="edge53" class="edge">
<title>Node237&#45;&gt;Node79</title>
<path fill="none" stroke="midnightblue" d="M744.15,-228.55C807.51,-242.73 926.13,-269.28 992.63,-284.17"/>
<polygon fill="midnightblue" stroke="midnightblue" points="991.92,-287.6 1002.45,-286.37 993.45,-280.77 991.92,-287.6"/>
</g>
<!-- Node241&#45;&gt;Node3 -->
<g id="edge57" class="edge">
<title>Node241&#45;&gt;Node3</title>
<path fill="none" stroke="midnightblue" d="M714.78,-133.48C742.19,-113.83 805.23,-68.63 838.7,-44.63"/>
<polygon fill="midnightblue" stroke="midnightblue" points="840.83,-47.41 846.92,-38.74 836.75,-41.72 840.83,-47.41"/>
</g>
<!-- Node241&#45;&gt;Node57 -->
<g id="edge56" class="edge">
<title>Node241&#45;&gt;Node57</title>
<path fill="none" stroke="midnightblue" d="M727.78,-152.51C737.54,-156.47 748.54,-161.44 758,-167 775.47,-177.27 776.25,-185.22 794,-195 801.57,-199.17 810.01,-202.87 818.27,-206.03"/>
<polygon fill="midnightblue" stroke="midnightblue" points="817.22,-209.37 827.81,-209.49 819.61,-202.79 817.22,-209.37"/>
</g>
<!-- Node241&#45;&gt;Node79 -->
<g id="edge58" class="edge">
<title>Node241&#45;&gt;Node79</title>
<path fill="none" stroke="midnightblue" d="M749.84,-152.42C806.93,-164.01 898.03,-184.09 929,-200 968.22,-220.14 1005.55,-256.41 1025.66,-277.84"/>
<polygon fill="midnightblue" stroke="midnightblue" points="1023.14,-280.27 1032.49,-285.26 1028.29,-275.53 1023.14,-280.27"/>
</g>
<!-- Node241&#45;&gt;Node216 -->
<g id="edge59" class="edge">
<title>Node241&#45;&gt;Node216</title>
<path fill="none" stroke="midnightblue" d="M749.9,-147.83C795.98,-152.5 867.25,-159.88 929,-167 937.94,-168.03 947.27,-169.14 956.56,-170.27"/>
<polygon fill="midnightblue" stroke="midnightblue" points="956.27,-173.76 966.62,-171.5 957.12,-166.81 956.27,-173.76"/>
</g>
</g>
</svg>
        <g id="navigator" transform="translate(0 0)" fill="#404254">
                <rect fill="#f2f5e9" fill-opacity="0.5" stroke="#606060" stroke-width=".5" x="0" y="0" width="60" height="60"/>
                <use id="zoomplus" xlink:href="#zoomPlus" x="17" y="9" onmousedown="handleZoom(evt,'in')"/>
                <use id="zoomminus" xlink:href="#zoomMin" x="42" y="9" onmousedown="handleZoom(evt,'out')"/>
                <use id="reset" xlink:href="#resetDef" x="30" y="36" onmousedown="handleReset()"/>
                <g id="arrowUp" xlink:href="#dirArrow" transform="translate(30 24)" onmousedown="handlePan(0,-1)">
                  <use xlink:href="#rim" fill="#404040">
                        <set attributeName="fill" to="#808080" begin="arrowUp.mouseover" end="arrowUp.mouseout"/>
                  </use>
                  <path fill="none" stroke="white" stroke-width="1.5" d="M0,-3.0v7 M-2.5,-0.5L0,-3.0L2.5,-0.5"/>
                </g>
                <g id="arrowRight" xlink:href="#dirArrow" transform="rotate(90) translate(36 -43)" onmousedown="handlePan(1,0)">
                  <use xlink:href="#rim" fill="#404040">
                        <set attributeName="fill" to="#808080" begin="arrowRight.mouseover" end="arrowRight.mouseout"/>
                  </use>
                  <path fill="none" stroke="white" stroke-width="1.5" d="M0,-3.0v7 M-2.5,-0.5L0,-3.0L2.5,-0.5"/>
                </g>
                <g id="arrowDown" xlink:href="#dirArrow" transform="rotate(180) translate(-30 -48)" onmousedown="handlePan(0,1)">
                  <use xlink:href="#rim" fill="#404040">
                        <set attributeName="fill" to="#808080" begin="arrowDown.mouseover" end="arrowDown.mouseout"/>
                  </use>
                  <path fill="none" stroke="white" stroke-width="1.5" d="M0,-3.0v7 M-2.5,-0.5L0,-3.0L2.5,-0.5"/>
                </g>
                <g id="arrowLeft" xlink:href="#dirArrow" transform="rotate(270) translate(-36 17)" onmousedown="handlePan(-1,0)">
                  <use xlink:href="#rim" fill="#404040">
                        <set attributeName="fill" to="#808080" begin="arrowLeft.mouseover" end="arrowLeft.mouseout"/>
                  </use>
                  <path fill="none" stroke="white" stroke-width="1.5" d="M0,-3.0v7 M-2.5,-0.5L0,-3.0L2.5,-0.5"/>
                </g>
        </g>
        <svg viewBox="0 0 15 15" width="100%" height="30px" preserveAspectRatio="xMaxYMin meet">
         <g id="arrow_out" transform="scale(0.3 0.3)">
          <a xlink:href="structqjs_1_1js__property__traits_3_01const_01char_01_5_01_4_ad7131d2b5de0ffc36fba2524b6d88f11_cgraph_org.svg" target="_base">
           <rect id="button" ry="5" rx="5" y="6" x="6" height="38" width="38"
                fill="#f2f5e9" fill-opacity="0.5" stroke="#606060" stroke-width="1.0"/>
           <path id="arrow"
             d="M 11.500037,31.436501 C 11.940474,20.09759 22.043105,11.32322 32.158766,21.979434 L 37.068811,17.246167 C 37.068811,17.246167 37.088388,32 37.088388,32 L 22.160133,31.978069 C 22.160133,31.978069 26.997745,27.140456 26.997745,27.140456 C 18.528582,18.264221 13.291696,25.230495 11.500037,31.436501 z"
             style="fill:#404040;"/>
          </a>
         </g>
        </svg>
</svg>
