<?xml version="1.0" encoding="UTF-8" standalone="no"?>
<!DOCTYPE svg PUBLIC "-//W3C//DTD SVG 1.1//EN"
 "http://www.w3.org/Graphics/SVG/1.1/DTD/svg11.dtd">
<!-- Generated by graphviz version 2.43.0 (0)
 -->
<!-- Title: qjs::js_traits&lt; std::variant&lt; Ts... &gt; &gt;::isCompatible Pages: 1 -->
<svg width="558pt" height="72pt"
 viewBox="0.00 0.00 558.00 71.50" xmlns="http://www.w3.org/2000/svg" xmlns:xlink="http://www.w3.org/1999/xlink">
<g id="graph0" class="graph" transform="scale(1 1) rotate(0) translate(4 67.5)">
<title>qjs::js_traits&lt; std::variant&lt; Ts... &gt; &gt;::isCompatible</title>
<!-- Node1 -->
<g id="node1" class="node">
<title>Node1</title>
<g id="a_node1"><a xlink:title=" ">
<polygon fill="#bfbfbf" stroke="black" points="0,-14 0,-55 110,-55 110,-14 0,-14"/>
<text text-anchor="start" x="8" y="-43" font-family="Helvetica,sans-Serif" font-size="10.00">qjs::js_traits&lt; std</text>
<text text-anchor="start" x="8" y="-32" font-family="Helvetica,sans-Serif" font-size="10.00">::variant&lt; Ts... &gt; &gt;</text>
<text text-anchor="middle" x="55" y="-21" font-family="Helvetica,sans-Serif" font-size="10.00">::isCompatible</text>
</a>
</g>
</g>
<!-- Node2 -->
<g id="node2" class="node">
<title>Node2</title>
<g id="a_node2"><a xlink:href="quickjs_8c.html#a2ed7afcec91f58b473ea9e0dc4d0ae04" target="_top" xlink:title=" ">
<polygon fill="none" stroke="black" points="146,-44 146,-63 231,-63 231,-44 146,-44"/>
<text text-anchor="middle" x="188.5" y="-51" font-family="Helvetica,sans-Serif" font-size="10.00">JS_GetClassID</text>
</a>
</g>
</g>
<!-- Node1&#45;&gt;Node2 -->
<g id="edge1" class="edge">
<title>Node1&#45;&gt;Node2</title>
<path fill="none" stroke="midnightblue" d="M110.25,-42.34C118.7,-43.56 127.41,-44.82 135.8,-46.03"/>
<polygon fill="midnightblue" stroke="midnightblue" points="135.44,-49.51 145.84,-47.48 136.44,-42.59 135.44,-49.51"/>
</g>
<!-- Node3 -->
<g id="node3" class="node">
<title>Node3</title>
<g id="a_node3"><a xlink:href="quickjs_8c.html#a1fc2c29e89230a9792fd36ae50b270e4" target="_top" xlink:title=" ">
<polygon fill="none" stroke="black" points="156,-6 156,-25 221,-25 221,-6 156,-6"/>
<text text-anchor="middle" x="188.5" y="-13" font-family="Helvetica,sans-Serif" font-size="10.00">JS_IsArray</text>
</a>
</g>
</g>
<!-- Node1&#45;&gt;Node3 -->
<g id="edge2" class="edge">
<title>Node1&#45;&gt;Node3</title>
<path fill="none" stroke="midnightblue" d="M110.25,-26.66C122.16,-24.94 134.6,-23.14 145.92,-21.51"/>
<polygon fill="midnightblue" stroke="midnightblue" points="146.57,-24.95 155.97,-20.06 145.57,-18.02 146.57,-24.95"/>
</g>
<!-- Node4 -->
<g id="node4" class="node">
<title>Node4</title>
<g id="a_node4"><a xlink:href="quickjs_8c.html#a91b2b06caf6cc28b1edf48334b95b51a" target="_top" xlink:title=" ">
<polygon fill="none" stroke="black" points="267,-6 267,-25 365,-25 365,-6 267,-6"/>
<text text-anchor="middle" x="316" y="-13" font-family="Helvetica,sans-Serif" font-size="10.00">js_proxy_isArray</text>
</a>
</g>
</g>
<!-- Node3&#45;&gt;Node4 -->
<g id="edge3" class="edge">
<title>Node3&#45;&gt;Node4</title>
<path fill="none" stroke="midnightblue" d="M221.17,-15.5C231.95,-15.5 244.36,-15.5 256.56,-15.5"/>
<polygon fill="midnightblue" stroke="midnightblue" points="256.71,-19 266.71,-15.5 256.71,-12 256.71,-19"/>
</g>
<!-- Node5 -->
<g id="node5" class="node">
<title>Node5</title>
<g id="a_node5"><a xlink:href="quickjs_8c.html#a199d64ccbee0a90d93e1ad12745417f6" target="_top" xlink:title=" ">
<polygon fill="none" stroke="black" points="401,-0.5 401,-30.5 550,-30.5 550,-0.5 401,-0.5"/>
<text text-anchor="start" x="409" y="-18.5" font-family="Helvetica,sans-Serif" font-size="10.00">JS_ThrowTypeErrorRevoked</text>
<text text-anchor="middle" x="475.5" y="-7.5" font-family="Helvetica,sans-Serif" font-size="10.00">Proxy</text>
</a>
</g>
</g>
<!-- Node4&#45;&gt;Node5 -->
<g id="edge4" class="edge">
<title>Node4&#45;&gt;Node5</title>
<path fill="none" stroke="midnightblue" d="M365.11,-15.5C373.24,-15.5 381.88,-15.5 390.61,-15.5"/>
<polygon fill="midnightblue" stroke="midnightblue" points="390.87,-19 400.87,-15.5 390.87,-12 390.87,-19"/>
</g>
</g>
</svg>
