<?xml version="1.0" encoding="UTF-8" standalone="no"?>
<!DOCTYPE svg PUBLIC "-//W3C//DTD SVG 1.1//EN"
 "http://www.w3.org/Graphics/SVG/1.1/DTD/svg11.dtd">
<!-- Generated by graphviz version 2.43.0 (0)
 -->
<!-- Title: ExportedNameEntry Pages: 1 -->
<!--zoomable 260 -->
<svg id="main" version="1.1" xmlns="http://www.w3.org/2000/svg" xmlns:xlink="http://www.w3.org/1999/xlink" xml:space="preserve" onload="init(evt)">
<style type="text/css"><![CDATA[
.edge:hover path { stroke: red; }
.edge:hover polygon { stroke: red; fill: red; }
]]></style>
<script type="text/javascript"><![CDATA[
var edges = document.getElementsByTagName('g');
if (edges && edges.length) {
  for (var i=0;i<edges.length;i++) {
    if (edges[i].id.substr(0,4)=='edge') {
      edges[i].setAttribute('class','edge');
    }
  }
}
]]></script>
        <defs>
                <circle id="rim" cx="0" cy="0" r="7"/>
                <circle id="rim2" cx="0" cy="0" r="3.5"/>
                <g id="zoomPlus">
                        <use xlink:href="#rim" fill="#404040">
                                <set attributeName="fill" to="#808080" begin="zoomplus.mouseover" end="zoomplus.mouseout"/>
                        </use>
                        <path d="M-4,0h8M0,-4v8" fill="none" stroke="white" stroke-width="1.5" pointer-events="none"/>
                </g>
                <g id="zoomMin">
                        <use xlink:href="#rim" fill="#404040">
                                <set attributeName="fill" to="#808080" begin="zoomminus.mouseover" end="zoomminus.mouseout"/>
                        </use>
                        <path d="M-4,0h8" fill="none" stroke="white" stroke-width="1.5" pointer-events="none"/>
                </g>
                <g id="dirArrow">
                        <path fill="none" stroke="white" stroke-width="1.5" d="M0,-3.0v7 M-2.5,-0.5L0,-3.0L2.5,-0.5"/>
                </g>
               <g id="resetDef">
                       <use xlink:href="#rim2" fill="#404040">
                               <set attributeName="fill" to="#808080" begin="reset.mouseover" end="reset.mouseout"/>
                       </use>
               </g>
        </defs>

<script type="text/javascript">
var viewWidth = 1066;
var viewHeight = 260;
var sectionId = 'dynsection-0';
</script>
<script xlink:href="svgpan.js"/>
<svg id="graph" class="graph">
<g id="viewport">
<title>ExportedNameEntry</title>
<!-- Node1 -->
<g id="node1" class="node">
<title>Node1</title>
<g id="a_node1"><a xlink:title=" ">
<polygon fill="#bfbfbf" stroke="black" points="943,-211.5 943,-230.5 1058,-230.5 1058,-211.5 943,-211.5"/>
<text text-anchor="middle" x="1000.5" y="-218.5" font-family="Helvetica,sans-Serif" font-size="10.00">ExportedNameEntry</text>
</a>
</g>
</g>
<!-- Node2 -->
<g id="node2" class="node">
<title>Node2</title>
<g id="a_node2"><a xlink:href="structJSVarRef.html" target="_top" xlink:title=" ">
<polygon fill="none" stroke="black" points="319,-204.5 319,-223.5 377,-223.5 377,-204.5 319,-204.5"/>
<text text-anchor="middle" x="348" y="-211.5" font-family="Helvetica,sans-Serif" font-size="10.00">JSVarRef</text>
</a>
</g>
</g>
<!-- Node2&#45;&gt;Node1 -->
<g id="edge1" class="edge">
<title>Node2&#45;&gt;Node1</title>
<path fill="none" stroke="#9a32cd" stroke-dasharray="5,2" d="M377.86,-227.54C383.45,-229.69 389.33,-231.65 395,-233 435.33,-242.59 446.58,-238.44 488,-240 601.26,-244.26 866.3,-240.92 925,-235 934.95,-234 945.56,-232.36 955.56,-230.54"/>
<polygon fill="#9a32cd" stroke="#9a32cd" points="378.82,-224.15 368.24,-223.54 376.14,-230.61 378.82,-224.15"/>
<text text-anchor="middle" x="661" y="-244" font-family="Helvetica,sans-Serif" font-size="10.00"> var_ref</text>
</g>
<!-- Node12 -->
<g id="node12" class="node">
<title>Node12</title>
<g id="a_node12"><a xlink:href="structJSExportEntry.html" target="_top" xlink:title=" ">
<polygon fill="none" stroke="black" points="499.5,-211.5 499.5,-230.5 582.5,-230.5 582.5,-211.5 499.5,-211.5"/>
<text text-anchor="middle" x="541" y="-218.5" font-family="Helvetica,sans-Serif" font-size="10.00">JSExportEntry</text>
</a>
</g>
</g>
<!-- Node2&#45;&gt;Node12 -->
<g id="edge16" class="edge">
<title>Node2&#45;&gt;Node12</title>
<path fill="none" stroke="#9a32cd" stroke-dasharray="5,2" d="M387.2,-215.4C419.68,-216.59 466.18,-218.29 499.34,-219.51"/>
<polygon fill="#9a32cd" stroke="#9a32cd" points="387.3,-211.9 377.18,-215.03 387.05,-218.9 387.3,-211.9"/>
<text text-anchor="middle" x="432.5" y="-221" font-family="Helvetica,sans-Serif" font-size="10.00"> var_ref</text>
</g>
<!-- Node3 -->
<g id="node3" class="node">
<title>Node3</title>
<g id="a_node3"><a xlink:href="structJSValue.html" target="_top" xlink:title=" ">
<polygon fill="none" stroke="black" points="166,-161.5 166,-180.5 219,-180.5 219,-161.5 166,-161.5"/>
<text text-anchor="middle" x="192.5" y="-168.5" font-family="Helvetica,sans-Serif" font-size="10.00">JSValue</text>
</a>
</g>
</g>
<!-- Node3&#45;&gt;Node2 -->
<g id="edge2" class="edge">
<title>Node3&#45;&gt;Node2</title>
<path fill="none" stroke="#9a32cd" stroke-dasharray="5,2" d="M229.13,-180.98C256.45,-188.64 293.64,-199.05 318.88,-206.12"/>
<polygon fill="#9a32cd" stroke="#9a32cd" points="229.77,-177.52 219.19,-178.2 227.88,-184.27 229.77,-177.52"/>
<text text-anchor="middle" x="282.5" y="-214" font-family="Helvetica,sans-Serif" font-size="10.00"> pvalue</text>
<text text-anchor="middle" x="282.5" y="-203" font-family="Helvetica,sans-Serif" font-size="10.00">value</text>
</g>
<!-- Node7 -->
<g id="node7" class="node">
<title>Node7</title>
<g id="a_node7"><a xlink:href="structJSModuleDef.html" target="_top" xlink:title=" ">
<polygon fill="none" stroke="black" points="728,-114.5 728,-133.5 807,-133.5 807,-114.5 728,-114.5"/>
<text text-anchor="middle" x="767.5" y="-121.5" font-family="Helvetica,sans-Serif" font-size="10.00">JSModuleDef</text>
</a>
</g>
</g>
<!-- Node3&#45;&gt;Node7 -->
<g id="edge9" class="edge">
<title>Node3&#45;&gt;Node7</title>
<path fill="none" stroke="#9a32cd" stroke-dasharray="5,2" d="M229.12,-169.71C330.12,-165.91 617.07,-154.06 710,-139 718.21,-137.67 726.96,-135.65 735.06,-133.52"/>
<polygon fill="#9a32cd" stroke="#9a32cd" points="228.97,-166.21 219.11,-170.08 229.23,-173.21 228.97,-166.21"/>
<text text-anchor="middle" x="432.5" y="-198" font-family="Helvetica,sans-Serif" font-size="10.00"> func_obj</text>
<text text-anchor="middle" x="432.5" y="-187" font-family="Helvetica,sans-Serif" font-size="10.00">meta_obj</text>
<text text-anchor="middle" x="432.5" y="-176" font-family="Helvetica,sans-Serif" font-size="10.00">eval_exception</text>
<text text-anchor="middle" x="432.5" y="-165" font-family="Helvetica,sans-Serif" font-size="10.00">module_ns</text>
</g>
<!-- Node4 -->
<g id="node4" class="node">
<title>Node4</title>
<g id="a_node4"><a xlink:href="unionJSValueUnion.html" target="_top" xlink:title=" ">
<polygon fill="none" stroke="black" points="0,-161.5 0,-180.5 81,-180.5 81,-161.5 0,-161.5"/>
<text text-anchor="middle" x="40.5" y="-168.5" font-family="Helvetica,sans-Serif" font-size="10.00">JSValueUnion</text>
</a>
</g>
</g>
<!-- Node4&#45;&gt;Node3 -->
<g id="edge3" class="edge">
<title>Node4&#45;&gt;Node3</title>
<path fill="none" stroke="#9a32cd" stroke-dasharray="5,2" d="M91.32,-171C116.21,-171 145.29,-171 165.69,-171"/>
<polygon fill="#9a32cd" stroke="#9a32cd" points="91.3,-167.5 81.3,-171 91.3,-174.5 91.3,-167.5"/>
<text text-anchor="middle" x="110" y="-174" font-family="Helvetica,sans-Serif" font-size="10.00"> u</text>
</g>
<!-- Node5 -->
<g id="node5" class="node">
<title>Node5</title>
<g id="a_node5"><a xlink:href="structJSGCObjectHeader.html" target="_top" xlink:title=" ">
<polygon fill="none" stroke="black" points="139,-120.5 139,-139.5 246,-139.5 246,-120.5 139,-120.5"/>
<text text-anchor="middle" x="192.5" y="-127.5" font-family="Helvetica,sans-Serif" font-size="10.00">JSGCObjectHeader</text>
</a>
</g>
</g>
<!-- Node5&#45;&gt;Node2 -->
<g id="edge4" class="edge">
<title>Node5&#45;&gt;Node2</title>
<path fill="none" stroke="#9a32cd" stroke-dasharray="5,2" d="M231.63,-143.17C252.81,-151.25 279.2,-162.61 301,-176 314.42,-184.24 328.12,-196.09 337.04,-204.36"/>
<polygon fill="#9a32cd" stroke="#9a32cd" points="232.59,-139.8 222,-139.59 230.15,-146.36 232.59,-139.8"/>
<text text-anchor="middle" x="282.5" y="-179" font-family="Helvetica,sans-Serif" font-size="10.00"> header</text>
</g>
<!-- Node6 -->
<g id="node6" class="node">
<title>Node6</title>
<g id="a_node6"><a xlink:href="structlist__head.html" target="_top" xlink:title=" ">
<polygon fill="none" stroke="black" points="10,-81.5 10,-100.5 71,-100.5 71,-81.5 10,-81.5"/>
<text text-anchor="middle" x="40.5" y="-88.5" font-family="Helvetica,sans-Serif" font-size="10.00">list_head</text>
</a>
</g>
</g>
<!-- Node6&#45;&gt;Node5 -->
<g id="edge5" class="edge">
<title>Node6&#45;&gt;Node5</title>
<path fill="none" stroke="#9a32cd" stroke-dasharray="5,2" d="M80.87,-101.24C103.73,-107.18 132.35,-114.62 154.76,-120.45"/>
<polygon fill="#9a32cd" stroke="#9a32cd" points="81.69,-97.83 71.14,-98.71 79.93,-104.61 81.69,-97.83"/>
<text text-anchor="middle" x="110" y="-114" font-family="Helvetica,sans-Serif" font-size="10.00"> link</text>
</g>
<!-- Node6&#45;&gt;Node6 -->
<g id="edge6" class="edge">
<title>Node6&#45;&gt;Node6</title>
<path fill="none" stroke="#9a32cd" stroke-dasharray="5,2" d="M27.98,-110.77C28.96,-115.5 33.14,-119 40.5,-119 52.59,-119 56.08,-109.57 50.98,-100.76"/>
<polygon fill="#9a32cd" stroke="#9a32cd" points="31.45,-111.25 30.02,-100.76 24.59,-109.86 31.45,-111.25"/>
<text text-anchor="middle" x="40.5" y="-133" font-family="Helvetica,sans-Serif" font-size="10.00"> prev</text>
<text text-anchor="middle" x="40.5" y="-122" font-family="Helvetica,sans-Serif" font-size="10.00">next</text>
</g>
<!-- Node6&#45;&gt;Node7 -->
<g id="edge8" class="edge">
<title>Node6&#45;&gt;Node7</title>
<path fill="none" stroke="#9a32cd" stroke-dasharray="5,2" d="M81.24,-88.95C111.46,-87.57 154.09,-86 191.5,-86 191.5,-86 191.5,-86 542,-86 609.99,-86 687.96,-103.15 731.81,-114.41"/>
<polygon fill="#9a32cd" stroke="#9a32cd" points="80.91,-85.47 71.09,-89.43 81.24,-92.46 80.91,-85.47"/>
<text text-anchor="middle" x="348" y="-89" font-family="Helvetica,sans-Serif" font-size="10.00"> link</text>
</g>
<!-- Node7&#45;&gt;Node1 -->
<g id="edge7" class="edge">
<title>Node7&#45;&gt;Node1</title>
<path fill="none" stroke="#9a32cd" stroke-dasharray="5,2" d="M800.98,-137.64C848.37,-157.54 935.33,-194.05 976.6,-211.38"/>
<polygon fill="#9a32cd" stroke="#9a32cd" points="802.07,-134.3 791.49,-133.66 799.36,-140.75 802.07,-134.3"/>
<text text-anchor="middle" x="875" y="-192" font-family="Helvetica,sans-Serif" font-size="10.00"> module</text>
</g>
<!-- Node10 -->
<g id="node10" class="node">
<title>Node10</title>
<g id="a_node10"><a xlink:href="structJSReqModuleEntry.html" target="_top" xlink:title=" ">
<polygon fill="none" stroke="black" points="947.5,-114.5 947.5,-133.5 1053.5,-133.5 1053.5,-114.5 947.5,-114.5"/>
<text text-anchor="middle" x="1000.5" y="-121.5" font-family="Helvetica,sans-Serif" font-size="10.00">JSReqModuleEntry</text>
</a>
</g>
</g>
<!-- Node7&#45;&gt;Node10 -->
<g id="edge13" class="edge">
<title>Node7&#45;&gt;Node10</title>
<path fill="none" stroke="#9a32cd" stroke-dasharray="5,2" d="M808.45,-112.03C813.96,-110.78 819.59,-109.71 825,-109 869.07,-103.25 880.77,-104.59 925,-109 936.29,-110.13 948.4,-112.19 959.51,-114.43"/>
<polygon fill="#9a32cd" stroke="#9a32cd" points="807.57,-108.64 798.71,-114.44 809.25,-115.43 807.57,-108.64"/>
<text text-anchor="middle" x="875" y="-112" font-family="Helvetica,sans-Serif" font-size="10.00"> module</text>
</g>
<!-- Node8 -->
<g id="node8" class="node">
<title>Node8</title>
<g id="a_node8"><a xlink:href="structJSRefCountHeader.html" target="_top" xlink:title=" ">
<polygon fill="none" stroke="black" points="488,-38.5 488,-57.5 594,-57.5 594,-38.5 488,-38.5"/>
<text text-anchor="middle" x="541" y="-45.5" font-family="Helvetica,sans-Serif" font-size="10.00">JSRefCountHeader</text>
</a>
</g>
</g>
<!-- Node8&#45;&gt;Node7 -->
<g id="edge10" class="edge">
<title>Node8&#45;&gt;Node7</title>
<path fill="none" stroke="#9a32cd" stroke-dasharray="5,2" d="M604.66,-41.99C637.58,-41.44 677.69,-45.05 710,-61 733.98,-72.83 752.42,-99.68 761.08,-114.22"/>
<polygon fill="#9a32cd" stroke="#9a32cd" points="604.13,-38.5 594.24,-42.3 604.34,-45.5 604.13,-38.5"/>
<text text-anchor="middle" x="661" y="-64" font-family="Helvetica,sans-Serif" font-size="10.00"> header</text>
</g>
<!-- Node9 -->
<g id="node9" class="node">
<title>Node9</title>
<g id="a_node9"><a xlink:href="structJSStarExportEntry.html" target="_top" xlink:title=" ">
<polygon fill="none" stroke="black" points="490,-0.5 490,-19.5 592,-19.5 592,-0.5 490,-0.5"/>
<text text-anchor="middle" x="541" y="-7.5" font-family="Helvetica,sans-Serif" font-size="10.00">JSStarExportEntry</text>
</a>
</g>
</g>
<!-- Node9&#45;&gt;Node7 -->
<g id="edge11" class="edge">
<title>Node9&#45;&gt;Node7</title>
<path fill="none" stroke="#9a32cd" stroke-dasharray="5,2" d="M602.51,-3.26C636.59,-2.45 678.51,-6.72 710,-27 742.28,-47.79 758.34,-94.02 764.02,-114.23"/>
<polygon fill="#9a32cd" stroke="#9a32cd" points="602.06,0.23 592.21,-3.66 602.34,-6.77 602.06,0.23"/>
<text text-anchor="middle" x="661" y="-30" font-family="Helvetica,sans-Serif" font-size="10.00"> star_export_entries</text>
</g>
<!-- Node10&#45;&gt;Node7 -->
<g id="edge12" class="edge">
<title>Node10&#45;&gt;Node7</title>
<path fill="none" stroke="#9a32cd" stroke-dasharray="5,2" d="M937.01,-124C895.6,-124 842.57,-124 807.16,-124"/>
<polygon fill="#9a32cd" stroke="#9a32cd" points="937.27,-127.5 947.27,-124 937.27,-120.5 937.27,-127.5"/>
<text text-anchor="middle" x="875" y="-127" font-family="Helvetica,sans-Serif" font-size="10.00"> req_module_entries</text>
</g>
<!-- Node11 -->
<g id="node11" class="node">
<title>Node11</title>
<g id="a_node11"><a xlink:href="structJSImportEntry.html" target="_top" xlink:title=" ">
<polygon fill="none" stroke="black" points="499.5,-114.5 499.5,-133.5 582.5,-133.5 582.5,-114.5 499.5,-114.5"/>
<text text-anchor="middle" x="541" y="-121.5" font-family="Helvetica,sans-Serif" font-size="10.00">JSImportEntry</text>
</a>
</g>
</g>
<!-- Node11&#45;&gt;Node7 -->
<g id="edge14" class="edge">
<title>Node11&#45;&gt;Node7</title>
<path fill="none" stroke="#9a32cd" stroke-dasharray="5,2" d="M592.69,-124C633.59,-124 690.28,-124 727.65,-124"/>
<polygon fill="#9a32cd" stroke="#9a32cd" points="592.66,-120.5 582.66,-124 592.66,-127.5 592.66,-120.5"/>
<text text-anchor="middle" x="661" y="-127" font-family="Helvetica,sans-Serif" font-size="10.00"> import_entries</text>
</g>
<!-- Node12&#45;&gt;Node1 -->
<g id="edge17" class="edge">
<title>Node12&#45;&gt;Node1</title>
<path fill="none" stroke="#9a32cd" stroke-dasharray="5,2" d="M592.64,-221C678.68,-221 852.8,-221 942.79,-221"/>
<polygon fill="#9a32cd" stroke="#9a32cd" points="592.6,-217.5 582.6,-221 592.6,-224.5 592.6,-217.5"/>
<text text-anchor="middle" x="767.5" y="-224" font-family="Helvetica,sans-Serif" font-size="10.00"> me</text>
</g>
<!-- Node12&#45;&gt;Node7 -->
<g id="edge15" class="edge">
<title>Node12&#45;&gt;Node7</title>
<path fill="none" stroke="#9a32cd" stroke-dasharray="5,2" d="M576.24,-207.9C587.53,-203.82 600.22,-199.47 612,-196 654.91,-183.35 670.16,-193.36 710,-173 729.42,-163.07 747.69,-145.07 757.95,-133.87"/>
<polygon fill="#9a32cd" stroke="#9a32cd" points="574.9,-204.67 566.72,-211.4 577.32,-211.24 574.9,-204.67"/>
<text text-anchor="middle" x="661" y="-199" font-family="Helvetica,sans-Serif" font-size="10.00"> export_entries</text>
</g>
</g>
</svg>
        <g id="navigator" transform="translate(0 0)" fill="#404254">
                <rect fill="#f2f5e9" fill-opacity="0.5" stroke="#606060" stroke-width=".5" x="0" y="0" width="60" height="60"/>
                <use id="zoomplus" xlink:href="#zoomPlus" x="17" y="9" onmousedown="handleZoom(evt,'in')"/>
                <use id="zoomminus" xlink:href="#zoomMin" x="42" y="9" onmousedown="handleZoom(evt,'out')"/>
                <use id="reset" xlink:href="#resetDef" x="30" y="36" onmousedown="handleReset()"/>
                <g id="arrowUp" xlink:href="#dirArrow" transform="translate(30 24)" onmousedown="handlePan(0,-1)">
                  <use xlink:href="#rim" fill="#404040">
                        <set attributeName="fill" to="#808080" begin="arrowUp.mouseover" end="arrowUp.mouseout"/>
                  </use>
                  <path fill="none" stroke="white" stroke-width="1.5" d="M0,-3.0v7 M-2.5,-0.5L0,-3.0L2.5,-0.5"/>
                </g>
                <g id="arrowRight" xlink:href="#dirArrow" transform="rotate(90) translate(36 -43)" onmousedown="handlePan(1,0)">
                  <use xlink:href="#rim" fill="#404040">
                        <set attributeName="fill" to="#808080" begin="arrowRight.mouseover" end="arrowRight.mouseout"/>
                  </use>
                  <path fill="none" stroke="white" stroke-width="1.5" d="M0,-3.0v7 M-2.5,-0.5L0,-3.0L2.5,-0.5"/>
                </g>
                <g id="arrowDown" xlink:href="#dirArrow" transform="rotate(180) translate(-30 -48)" onmousedown="handlePan(0,1)">
                  <use xlink:href="#rim" fill="#404040">
                        <set attributeName="fill" to="#808080" begin="arrowDown.mouseover" end="arrowDown.mouseout"/>
                  </use>
                  <path fill="none" stroke="white" stroke-width="1.5" d="M0,-3.0v7 M-2.5,-0.5L0,-3.0L2.5,-0.5"/>
                </g>
                <g id="arrowLeft" xlink:href="#dirArrow" transform="rotate(270) translate(-36 17)" onmousedown="handlePan(-1,0)">
                  <use xlink:href="#rim" fill="#404040">
                        <set attributeName="fill" to="#808080" begin="arrowLeft.mouseover" end="arrowLeft.mouseout"/>
                  </use>
                  <path fill="none" stroke="white" stroke-width="1.5" d="M0,-3.0v7 M-2.5,-0.5L0,-3.0L2.5,-0.5"/>
                </g>
        </g>
        <svg viewBox="0 0 15 15" width="100%" height="30px" preserveAspectRatio="xMaxYMin meet">
         <g id="arrow_out" transform="scale(0.3 0.3)">
          <a xlink:href="structExportedNameEntry__coll__graph_org.svg" target="_base">
           <rect id="button" ry="5" rx="5" y="6" x="6" height="38" width="38"
                fill="#f2f5e9" fill-opacity="0.5" stroke="#606060" stroke-width="1.0"/>
           <path id="arrow"
             d="M 11.500037,31.436501 C 11.940474,20.09759 22.043105,11.32322 32.158766,21.979434 L 37.068811,17.246167 C 37.068811,17.246167 37.088388,32 37.088388,32 L 22.160133,31.978069 C 22.160133,31.978069 26.997745,27.140456 26.997745,27.140456 C 18.528582,18.264221 13.291696,25.230495 11.500037,31.436501 z"
             style="fill:#404040;"/>
          </a>
         </g>
        </svg>
</svg>
