<?xml version="1.0" encoding="UTF-8" standalone="no"?>
<!DOCTYPE svg PUBLIC "-//W3C//DTD SVG 1.1//EN"
 "http://www.w3.org/Graphics/SVG/1.1/DTD/svg11.dtd">
<!-- Generated by graphviz version 2.43.0 (0)
 -->
<!-- Title: JSPromiseReactionData Pages: 1 -->
<svg width="211pt" height="175pt"
 viewBox="0.00 0.00 210.50 175.00" xmlns="http://www.w3.org/2000/svg" xmlns:xlink="http://www.w3.org/1999/xlink">
<g id="graph0" class="graph" transform="scale(1 1) rotate(0) translate(4 171)">
<title>JSPromiseReactionData</title>
<!-- Node1 -->
<g id="node1" class="node">
<title>Node1</title>
<g id="a_node1"><a xlink:title=" ">
<polygon fill="#bfbfbf" stroke="black" points="23,-0.5 23,-19.5 154,-19.5 154,-0.5 23,-0.5"/>
<text text-anchor="middle" x="88.5" y="-7.5" font-family="Helvetica,sans-Serif" font-size="10.00">JSPromiseReactionData</text>
</a>
</g>
</g>
<!-- Node2 -->
<g id="node2" class="node">
<title>Node2</title>
<g id="a_node2"><a xlink:href="structlist__head.html" target="_top" xlink:title=" ">
<polygon fill="none" stroke="black" points="0,-79.5 0,-98.5 61,-98.5 61,-79.5 0,-79.5"/>
<text text-anchor="middle" x="30.5" y="-86.5" font-family="Helvetica,sans-Serif" font-size="10.00">list_head</text>
</a>
</g>
</g>
<!-- Node2&#45;&gt;Node1 -->
<g id="edge1" class="edge">
<title>Node2&#45;&gt;Node1</title>
<path fill="none" stroke="#9a32cd" stroke-dasharray="5,2" d="M43.22,-71.12C55.13,-55.3 72.48,-32.27 81.86,-19.81"/>
<polygon fill="#9a32cd" stroke="#9a32cd" points="40.15,-69.37 36.93,-79.47 45.74,-73.58 40.15,-69.37"/>
<text text-anchor="middle" x="78.5" y="-46.5" font-family="Helvetica,sans-Serif" font-size="10.00"> link</text>
</g>
<!-- Node2&#45;&gt;Node2 -->
<g id="edge2" class="edge">
<title>Node2&#45;&gt;Node2</title>
<path fill="none" stroke="#9a32cd" stroke-dasharray="5,2" d="M71.58,-94.35C76.09,-93.33 79,-91.55 79,-89 79,-84.82 71.17,-82.69 61.28,-82.63"/>
<polygon fill="#9a32cd" stroke="#9a32cd" points="70.89,-90.91 61.28,-95.37 71.58,-97.87 70.89,-90.91"/>
<text text-anchor="middle" x="91.5" y="-92" font-family="Helvetica,sans-Serif" font-size="10.00"> prev</text>
<text text-anchor="middle" x="91.5" y="-81" font-family="Helvetica,sans-Serif" font-size="10.00">next</text>
</g>
<!-- Node3 -->
<g id="node3" class="node">
<title>Node3</title>
<g id="a_node3"><a xlink:href="structJSValue.html" target="_top" xlink:title=" ">
<polygon fill="none" stroke="black" points="122,-79.5 122,-98.5 175,-98.5 175,-79.5 122,-79.5"/>
<text text-anchor="middle" x="148.5" y="-86.5" font-family="Helvetica,sans-Serif" font-size="10.00">JSValue</text>
</a>
</g>
</g>
<!-- Node3&#45;&gt;Node1 -->
<g id="edge3" class="edge">
<title>Node3&#45;&gt;Node1</title>
<path fill="none" stroke="#9a32cd" stroke-dasharray="5,2" d="M135.69,-71.56C123.35,-55.73 105.17,-32.39 95.36,-19.81"/>
<polygon fill="#9a32cd" stroke="#9a32cd" points="132.94,-73.73 141.85,-79.47 138.46,-69.43 132.94,-73.73"/>
<text text-anchor="middle" x="164" y="-52" font-family="Helvetica,sans-Serif" font-size="10.00"> handler</text>
<text text-anchor="middle" x="164" y="-41" font-family="Helvetica,sans-Serif" font-size="10.00">resolving_funcs</text>
</g>
<!-- Node4 -->
<g id="node4" class="node">
<title>Node4</title>
<g id="a_node4"><a xlink:href="unionJSValueUnion.html" target="_top" xlink:title=" ">
<polygon fill="none" stroke="black" points="108,-147.5 108,-166.5 189,-166.5 189,-147.5 108,-147.5"/>
<text text-anchor="middle" x="148.5" y="-154.5" font-family="Helvetica,sans-Serif" font-size="10.00">JSValueUnion</text>
</a>
</g>
</g>
<!-- Node4&#45;&gt;Node3 -->
<g id="edge4" class="edge">
<title>Node4&#45;&gt;Node3</title>
<path fill="none" stroke="#9a32cd" stroke-dasharray="5,2" d="M148.5,-137.04C148.5,-124.47 148.5,-108.56 148.5,-98.84"/>
<polygon fill="#9a32cd" stroke="#9a32cd" points="145,-137.37 148.5,-147.37 152,-137.37 145,-137.37"/>
<text text-anchor="middle" x="153.5" y="-121" font-family="Helvetica,sans-Serif" font-size="10.00"> u</text>
</g>
</g>
</svg>
