<?xml version="1.0" encoding="UTF-8" standalone="no"?>
<!DOCTYPE svg PUBLIC "-//W3C//DTD SVG 1.1//EN"
 "http://www.w3.org/Graphics/SVG/1.1/DTD/svg11.dtd">
<!-- Generated by graphviz version 2.43.0 (0)
 -->
<!-- Title: JSOperatorSetData Pages: 1 -->
<svg width="1610pt" height="1291pt"
 viewBox="0.00 0.00 1610.00 1291.33" xmlns="http://www.w3.org/2000/svg" xmlns:xlink="http://www.w3.org/1999/xlink">
<g id="graph0" class="graph" transform="scale(1 1) rotate(0) translate(4 1287.33)">
<title>JSOperatorSetData</title>
<!-- Node1 -->
<g id="node1" class="node">
<title>Node1</title>
<g id="a_node1"><a xlink:title=" ">
<polygon fill="#bfbfbf" stroke="black" points="1492,-454.83 1492,-473.83 1599,-473.83 1599,-454.83 1492,-454.83"/>
<text text-anchor="middle" x="1545.5" y="-461.83" font-family="Helvetica,sans-Serif" font-size="10.00">JSOperatorSetData</text>
</a>
</g>
</g>
<!-- Node2 -->
<g id="node2" class="node">
<title>Node2</title>
<g id="a_node2"><a xlink:href="structJSObject.html" target="_top" xlink:title=" ">
<polygon fill="none" stroke="black" points="826,-556.83 826,-575.83 883,-575.83 883,-556.83 826,-556.83"/>
<text text-anchor="middle" x="854.5" y="-563.83" font-family="Helvetica,sans-Serif" font-size="10.00">JSObject</text>
</a>
</g>
</g>
<!-- Node2&#45;&gt;Node1 -->
<g id="edge1" class="edge">
<title>Node2&#45;&gt;Node1</title>
<path fill="none" stroke="#9a32cd" stroke-dasharray="5,2" d="M864.35,-547.29C871.95,-533.33 884.32,-515.3 901,-506.33 907.49,-502.84 1339.41,-476.63 1491.9,-467.48"/>
<polygon fill="#9a32cd" stroke="#9a32cd" points="861.06,-546.05 859.67,-556.56 867.31,-549.21 861.06,-546.05"/>
<text text-anchor="middle" x="1239" y="-488.33" font-family="Helvetica,sans-Serif" font-size="10.00"> self_ops</text>
</g>
<!-- Node2&#45;&gt;Node2 -->
<g id="edge31" class="edge">
<title>Node2&#45;&gt;Node2</title>
<path fill="none" stroke="#9a32cd" stroke-dasharray="5,2" d="M836.35,-585.73C837.56,-590.65 843.61,-594.33 854.5,-594.33 871.92,-594.33 876.95,-584.9 869.6,-576.09"/>
<polygon fill="#9a32cd" stroke="#9a32cd" points="839.72,-586.68 839.4,-576.09 833.05,-584.57 839.72,-586.68"/>
<text text-anchor="middle" x="854.5" y="-597.33" font-family="Helvetica,sans-Serif" font-size="10.00"> home_object</text>
</g>
<!-- Node3 -->
<g id="node3" class="node">
<title>Node3</title>
<g id="a_node3"><a xlink:href="structJSProperty.html" target="_top" xlink:title=" ">
<polygon fill="none" stroke="black" points="1069,-767.83 1069,-786.83 1136,-786.83 1136,-767.83 1069,-767.83"/>
<text text-anchor="middle" x="1102.5" y="-774.83" font-family="Helvetica,sans-Serif" font-size="10.00">JSProperty</text>
</a>
</g>
</g>
<!-- Node2&#45;&gt;Node3 -->
<g id="edge4" class="edge">
<title>Node2&#45;&gt;Node3</title>
<path fill="none" stroke="#9a32cd" stroke-dasharray="5,2" d="M858.08,-585.83C863.82,-626.12 878.89,-716.58 901,-737.33 902.54,-738.78 1012.24,-760.11 1068.7,-771.02"/>
<polygon fill="#9a32cd" stroke="#9a32cd" points="861.55,-585.32 856.71,-575.89 854.61,-586.27 861.55,-585.32"/>
<text text-anchor="middle" x="957" y="-772.33" font-family="Helvetica,sans-Serif" font-size="10.00"> getter</text>
<text text-anchor="middle" x="957" y="-761.33" font-family="Helvetica,sans-Serif" font-size="10.00">setter</text>
</g>
<!-- Node18 -->
<g id="node15" class="node">
<title>Node18</title>
<g id="a_node15"><a xlink:href="structJSTypedArray.html" target="_top" xlink:title=" ">
<polygon fill="none" stroke="red" points="1062.5,-624.83 1062.5,-643.83 1142.5,-643.83 1142.5,-624.83 1062.5,-624.83"/>
<text text-anchor="middle" x="1102.5" y="-631.83" font-family="Helvetica,sans-Serif" font-size="10.00">JSTypedArray</text>
</a>
</g>
</g>
<!-- Node2&#45;&gt;Node18 -->
<g id="edge26" class="edge">
<title>Node2&#45;&gt;Node18</title>
<path fill="none" stroke="#9a32cd" stroke-dasharray="5,2" d="M887.54,-579.62C892.02,-581.3 896.6,-582.92 901,-584.33 956.17,-602.04 1021.52,-617.3 1062.26,-626.16"/>
<polygon fill="#9a32cd" stroke="#9a32cd" points="888.56,-576.26 877.97,-575.9 886.02,-582.78 888.56,-576.26"/>
<text text-anchor="middle" x="957" y="-627.33" font-family="Helvetica,sans-Serif" font-size="10.00"> obj</text>
<text text-anchor="middle" x="957" y="-616.33" font-family="Helvetica,sans-Serif" font-size="10.00">buffer</text>
</g>
<!-- Node27 -->
<g id="node20" class="node">
<title>Node27</title>
<g id="a_node20"><a xlink:href="structJSAsyncGeneratorData.html" target="_top" xlink:title=" ">
<polygon fill="none" stroke="red" points="1038.5,-562.83 1038.5,-581.83 1166.5,-581.83 1166.5,-562.83 1038.5,-562.83"/>
<text text-anchor="middle" x="1102.5" y="-569.83" font-family="Helvetica,sans-Serif" font-size="10.00">JSAsyncGeneratorData</text>
</a>
</g>
</g>
<!-- Node2&#45;&gt;Node27 -->
<g id="edge35" class="edge">
<title>Node2&#45;&gt;Node27</title>
<path fill="none" stroke="#9a32cd" stroke-dasharray="5,2" d="M893.52,-567.26C932.12,-568.2 992.56,-569.68 1038.36,-570.79"/>
<polygon fill="#9a32cd" stroke="#9a32cd" points="893.32,-563.75 883.24,-567.01 893.15,-570.75 893.32,-563.75"/>
<text text-anchor="middle" x="957" y="-572.33" font-family="Helvetica,sans-Serif" font-size="10.00"> generator</text>
</g>
<!-- Node34 -->
<g id="node23" class="node">
<title>Node34</title>
<g id="a_node23"><a xlink:href="structJSShape.html" target="_top" xlink:title=" ">
<polygon fill="none" stroke="red" points="1074.5,-917.83 1074.5,-936.83 1130.5,-936.83 1130.5,-917.83 1074.5,-917.83"/>
<text text-anchor="middle" x="1102.5" y="-924.83" font-family="Helvetica,sans-Serif" font-size="10.00">JSShape</text>
</a>
</g>
</g>
<!-- Node2&#45;&gt;Node34 -->
<g id="edge41" class="edge">
<title>Node2&#45;&gt;Node34</title>
<path fill="none" stroke="#9a32cd" stroke-dasharray="5,2" d="M858.11,-586.02C867.38,-655.84 898.33,-887.55 901,-890.33 924.45,-914.81 1025.01,-923.37 1074.2,-926.13"/>
<polygon fill="#9a32cd" stroke="#9a32cd" points="861.56,-585.39 856.77,-575.94 854.62,-586.31 861.56,-585.39"/>
<text text-anchor="middle" x="957" y="-923.33" font-family="Helvetica,sans-Serif" font-size="10.00"> proto</text>
</g>
<!-- Node46 -->
<g id="node30" class="node">
<title>Node46</title>
<g id="a_node30"><a xlink:href="structJSBinaryOperatorDefEntry.html" target="_top" xlink:title=" ">
<polygon fill="none" stroke="black" points="1031,-434.83 1031,-453.83 1174,-453.83 1174,-434.83 1031,-434.83"/>
<text text-anchor="middle" x="1102.5" y="-441.83" font-family="Helvetica,sans-Serif" font-size="10.00">JSBinaryOperatorDefEntry</text>
</a>
</g>
</g>
<!-- Node2&#45;&gt;Node46 -->
<g id="edge64" class="edge">
<title>Node2&#45;&gt;Node46</title>
<path fill="none" stroke="#9a32cd" stroke-dasharray="5,2" d="M857.56,-546.46C861.34,-521.12 871.91,-478.1 901,-457.33 946.56,-424.8 1013.81,-427.95 1057.63,-434.83"/>
<polygon fill="#9a32cd" stroke="#9a32cd" points="854.04,-546.36 856.25,-556.72 860.99,-547.24 854.04,-546.36"/>
<text text-anchor="middle" x="957" y="-460.33" font-family="Helvetica,sans-Serif" font-size="10.00"> ops</text>
</g>
<!-- Node3&#45;&gt;Node2 -->
<g id="edge2" class="edge">
<title>Node3&#45;&gt;Node2</title>
<path fill="none" stroke="#9a32cd" stroke-dasharray="5,2" d="M1079.31,-761.86C1061.99,-750.46 1036.92,-735.41 1013,-726.33 965.49,-708.31 938.99,-737.08 901,-703.33 862.4,-669.04 856.46,-601.23 855.61,-576.05"/>
<polygon fill="#9a32cd" stroke="#9a32cd" points="1077.83,-765.08 1088.09,-767.76 1081.74,-759.27 1077.83,-765.08"/>
<text text-anchor="middle" x="957" y="-729.33" font-family="Helvetica,sans-Serif" font-size="10.00"> prop</text>
</g>
<!-- Node4 -->
<g id="node4" class="node">
<title>Node4</title>
<g id="a_node4"><a xlink:href="structJSValue.html" target="_top" xlink:title=" ">
<polygon fill="none" stroke="red" points="9.5,-510.83 9.5,-529.83 62.5,-529.83 62.5,-510.83 9.5,-510.83"/>
<text text-anchor="middle" x="36" y="-517.83" font-family="Helvetica,sans-Serif" font-size="10.00">JSValue</text>
</a>
</g>
</g>
<!-- Node4&#45;&gt;Node2 -->
<g id="edge14" class="edge">
<title>Node4&#45;&gt;Node2</title>
<path fill="none" stroke="#9a32cd" stroke-dasharray="5,2" d="M38.33,-540.25C42.28,-592.42 55.84,-730.94 90,-758.33 121.21,-783.35 777.42,-731.11 808,-705.33 848.19,-671.45 853.13,-601.48 853.55,-575.94"/>
<polygon fill="#9a32cd" stroke="#9a32cd" points="41.8,-539.7 37.6,-529.98 34.82,-540.2 41.8,-539.7"/>
<text text-anchor="middle" x="429.5" y="-771.33" font-family="Helvetica,sans-Serif" font-size="10.00"> object_data</text>
<text text-anchor="middle" x="429.5" y="-760.33" font-family="Helvetica,sans-Serif" font-size="10.00">values</text>
</g>
<!-- Node4&#45;&gt;Node3 -->
<g id="edge3" class="edge">
<title>Node4&#45;&gt;Node3</title>
<path fill="none" stroke="#9a32cd" stroke-dasharray="5,2" d="M37.9,-540.13C40.94,-598.25 52.87,-766.65 90,-804.33 165.18,-880.63 222.91,-828.61 330,-826.33 633.76,-819.89 711.83,-837.43 1013,-797.33 1031.74,-794.84 1052.35,-790.29 1068.97,-786.16"/>
<polygon fill="#9a32cd" stroke="#9a32cd" points="41.39,-539.87 37.4,-530.05 34.4,-540.21 41.39,-539.87"/>
<text text-anchor="middle" x="607.5" y="-827.33" font-family="Helvetica,sans-Serif" font-size="10.00"> value</text>
</g>
<!-- Node6 -->
<g id="node5" class="node">
<title>Node6</title>
<g id="a_node5"><a xlink:href="structJSVarRef.html" target="_top" xlink:title=" ">
<polygon fill="none" stroke="black" points="578.5,-779.83 578.5,-798.83 636.5,-798.83 636.5,-779.83 578.5,-779.83"/>
<text text-anchor="middle" x="607.5" y="-786.83" font-family="Helvetica,sans-Serif" font-size="10.00">JSVarRef</text>
</a>
</g>
</g>
<!-- Node4&#45;&gt;Node6 -->
<g id="edge6" class="edge">
<title>Node4&#45;&gt;Node6</title>
<path fill="none" stroke="#9a32cd" stroke-dasharray="5,2" d="M37.89,-540.08C40.85,-595.8 52.41,-752.2 90,-783.33 127.64,-814.51 475.72,-796.94 578.23,-791.04"/>
<polygon fill="#9a32cd" stroke="#9a32cd" points="41.38,-539.89 37.39,-530.07 34.39,-540.23 41.38,-539.89"/>
<text text-anchor="middle" x="264.5" y="-814.33" font-family="Helvetica,sans-Serif" font-size="10.00"> pvalue</text>
<text text-anchor="middle" x="264.5" y="-803.33" font-family="Helvetica,sans-Serif" font-size="10.00">value</text>
</g>
<!-- Node9 -->
<g id="node7" class="node">
<title>Node9</title>
<g id="a_node7"><a xlink:href="unionJSCFunctionType.html" target="_top" xlink:title=" ">
<polygon fill="none" stroke="black" points="381.5,-691.83 381.5,-710.83 477.5,-710.83 477.5,-691.83 381.5,-691.83"/>
<text text-anchor="middle" x="429.5" y="-698.83" font-family="Helvetica,sans-Serif" font-size="10.00">JSCFunctionType</text>
</a>
</g>
</g>
<!-- Node4&#45;&gt;Node9 -->
<g id="edge9" class="edge">
<title>Node4&#45;&gt;Node9</title>
<path fill="none" stroke="#9a32cd" stroke-dasharray="5,2" d="M38.43,-540.25C41.78,-570.93 52.94,-629.26 90,-658.33 112.49,-675.98 293.46,-691.46 381.17,-698.01"/>
<polygon fill="#9a32cd" stroke="#9a32cd" points="41.88,-539.6 37.49,-529.96 34.91,-540.24 41.88,-539.6"/>
<text text-anchor="middle" x="135.5" y="-746.33" font-family="Helvetica,sans-Serif" font-size="10.00"> getter_magic</text>
<text text-anchor="middle" x="135.5" y="-735.33" font-family="Helvetica,sans-Serif" font-size="10.00">constructor_magic</text>
<text text-anchor="middle" x="135.5" y="-724.33" font-family="Helvetica,sans-Serif" font-size="10.00">getter</text>
<text text-anchor="middle" x="135.5" y="-713.33" font-family="Helvetica,sans-Serif" font-size="10.00">generic_magic</text>
<text text-anchor="middle" x="135.5" y="-702.33" font-family="Helvetica,sans-Serif" font-size="10.00">iterator_next</text>
<text text-anchor="middle" x="135.5" y="-691.33" font-family="Helvetica,sans-Serif" font-size="10.00">setter_magic</text>
<text text-anchor="middle" x="135.5" y="-680.33" font-family="Helvetica,sans-Serif" font-size="10.00">setter</text>
</g>
<!-- Node10 -->
<g id="node8" class="node">
<title>Node10</title>
<g id="a_node8"><a xlink:href="structJSPromiseFunctionData.html" target="_top" xlink:title=" ">
<polygon fill="none" stroke="red" points="364.5,-538.83 364.5,-557.83 494.5,-557.83 494.5,-538.83 364.5,-538.83"/>
<text text-anchor="middle" x="429.5" y="-545.83" font-family="Helvetica,sans-Serif" font-size="10.00">JSPromiseFunctionData</text>
</a>
</g>
</g>
<!-- Node4&#45;&gt;Node10 -->
<g id="edge11" class="edge">
<title>Node4&#45;&gt;Node10</title>
<path fill="none" stroke="#9a32cd" stroke-dasharray="5,2" d="M73.02,-522.91C139.22,-527.64 281.07,-537.79 364.18,-543.73"/>
<polygon fill="#9a32cd" stroke="#9a32cd" points="72.91,-519.39 62.69,-522.17 72.41,-526.37 72.91,-519.39"/>
<text text-anchor="middle" x="135.5" y="-532.33" font-family="Helvetica,sans-Serif" font-size="10.00"> promise</text>
</g>
<!-- Node12 -->
<g id="node9" class="node">
<title>Node12</title>
<g id="a_node9"><a xlink:href="structJSRegExpStringIteratorData.html" target="_top" xlink:title=" ">
<polygon fill="none" stroke="black" points="354.5,-504.83 354.5,-523.83 504.5,-523.83 504.5,-504.83 354.5,-504.83"/>
<text text-anchor="middle" x="429.5" y="-511.83" font-family="Helvetica,sans-Serif" font-size="10.00">JSRegExpStringIteratorData</text>
</a>
</g>
</g>
<!-- Node4&#45;&gt;Node12 -->
<g id="edge13" class="edge">
<title>Node4&#45;&gt;Node12</title>
<path fill="none" stroke="#9a32cd" stroke-dasharray="5,2" d="M64.37,-506.58C72.42,-503.19 81.39,-500.05 90,-498.33 191.84,-478.04 314.16,-493.33 380.3,-504.79"/>
<polygon fill="#9a32cd" stroke="#9a32cd" points="62.77,-503.46 55.08,-510.74 65.64,-509.84 62.77,-503.46"/>
<text text-anchor="middle" x="135.5" y="-512.33" font-family="Helvetica,sans-Serif" font-size="10.00"> iterated_string</text>
<text text-anchor="middle" x="135.5" y="-501.33" font-family="Helvetica,sans-Serif" font-size="10.00">iterating_regexp</text>
</g>
<!-- Node13 -->
<g id="node10" class="node">
<title>Node13</title>
<g id="a_node10"><a xlink:href="structJSAsyncFromSyncIteratorData.html" target="_top" xlink:title=" ">
<polygon fill="none" stroke="black" points="348,-457.83 348,-476.83 511,-476.83 511,-457.83 348,-457.83"/>
<text text-anchor="middle" x="429.5" y="-464.83" font-family="Helvetica,sans-Serif" font-size="10.00">JSAsyncFromSyncIteratorData</text>
</a>
</g>
</g>
<!-- Node4&#45;&gt;Node13 -->
<g id="edge16" class="edge">
<title>Node4&#45;&gt;Node13</title>
<path fill="none" stroke="#9a32cd" stroke-dasharray="5,2" d="M47.81,-501.93C57.05,-488.16 71.75,-470.38 90,-462.33 134.44,-442.74 262.55,-450.53 347.8,-458.51"/>
<polygon fill="#9a32cd" stroke="#9a32cd" points="44.68,-500.33 42.3,-510.65 50.6,-504.06 44.68,-500.33"/>
<text text-anchor="middle" x="135.5" y="-476.33" font-family="Helvetica,sans-Serif" font-size="10.00"> sync_iter</text>
<text text-anchor="middle" x="135.5" y="-465.33" font-family="Helvetica,sans-Serif" font-size="10.00">next_method</text>
</g>
<!-- Node14 -->
<g id="node11" class="node">
<title>Node14</title>
<g id="a_node11"><a xlink:href="structJSPromiseData.html" target="_top" xlink:title=" ">
<polygon fill="none" stroke="red" points="385,-428.83 385,-447.83 474,-447.83 474,-428.83 385,-428.83"/>
<text text-anchor="middle" x="429.5" y="-435.83" font-family="Helvetica,sans-Serif" font-size="10.00">JSPromiseData</text>
</a>
</g>
</g>
<!-- Node4&#45;&gt;Node14 -->
<g id="edge18" class="edge">
<title>Node4&#45;&gt;Node14</title>
<path fill="none" stroke="#9a32cd" stroke-dasharray="5,2" d="M42.73,-500.88C49.98,-480.17 64.7,-448.46 90,-434.33 139.26,-406.83 305.04,-422.83 384.85,-432.55"/>
<polygon fill="#9a32cd" stroke="#9a32cd" points="39.34,-499.97 39.59,-510.56 46,-502.13 39.34,-499.97"/>
<text text-anchor="middle" x="135.5" y="-437.33" font-family="Helvetica,sans-Serif" font-size="10.00"> promise_result</text>
</g>
<!-- Node15 -->
<g id="node12" class="node">
<title>Node15</title>
<g id="a_node12"><a xlink:href="structJSMapRecord.html" target="_top" xlink:title=" ">
<polygon fill="none" stroke="red" points="224.5,-610.83 224.5,-629.83 304.5,-629.83 304.5,-610.83 224.5,-610.83"/>
<text text-anchor="middle" x="264.5" y="-617.83" font-family="Helvetica,sans-Serif" font-size="10.00">JSMapRecord</text>
</a>
</g>
</g>
<!-- Node4&#45;&gt;Node15 -->
<g id="edge20" class="edge">
<title>Node4&#45;&gt;Node15</title>
<path fill="none" stroke="#9a32cd" stroke-dasharray="5,2" d="M48.64,-538.35C58.18,-551.66 72.87,-569.17 90,-579.33 95.82,-582.79 174.76,-600.68 224.13,-611.65"/>
<polygon fill="#9a32cd" stroke="#9a32cd" points="51.43,-536.22 42.89,-529.94 45.65,-540.17 51.43,-536.22"/>
<text text-anchor="middle" x="135.5" y="-615.33" font-family="Helvetica,sans-Serif" font-size="10.00"> key</text>
<text text-anchor="middle" x="135.5" y="-604.33" font-family="Helvetica,sans-Serif" font-size="10.00">value</text>
</g>
<!-- Node17 -->
<g id="node14" class="node">
<title>Node17</title>
<g id="a_node14"><a xlink:href="structJSBoundFunction.html" target="_top" xlink:title=" ">
<polygon fill="none" stroke="black" points="380.5,-224.83 380.5,-243.83 478.5,-243.83 478.5,-224.83 380.5,-224.83"/>
<text text-anchor="middle" x="429.5" y="-231.83" font-family="Helvetica,sans-Serif" font-size="10.00">JSBoundFunction</text>
</a>
</g>
</g>
<!-- Node4&#45;&gt;Node17 -->
<g id="edge24" class="edge">
<title>Node4&#45;&gt;Node17</title>
<path fill="none" stroke="#9a32cd" stroke-dasharray="5,2" d="M38.46,-500.66C42.75,-448.47 57.15,-308.46 90,-278.33 111.02,-259.06 291.83,-243.89 380.23,-237.55"/>
<polygon fill="#9a32cd" stroke="#9a32cd" points="34.97,-500.4 37.67,-510.65 41.95,-500.95 34.97,-500.4"/>
<text text-anchor="middle" x="135.5" y="-303.33" font-family="Helvetica,sans-Serif" font-size="10.00"> func_obj</text>
<text text-anchor="middle" x="135.5" y="-292.33" font-family="Helvetica,sans-Serif" font-size="10.00">this_val</text>
<text text-anchor="middle" x="135.5" y="-281.33" font-family="Helvetica,sans-Serif" font-size="10.00">argv</text>
</g>
<!-- Node22 -->
<g id="node17" class="node">
<title>Node22</title>
<g id="a_node17"><a xlink:href="structJSProxyData.html" target="_top" xlink:title=" ">
<polygon fill="none" stroke="black" points="226,-315.83 226,-334.83 303,-334.83 303,-315.83 226,-315.83"/>
<text text-anchor="middle" x="264.5" y="-322.83" font-family="Helvetica,sans-Serif" font-size="10.00">JSProxyData</text>
</a>
</g>
</g>
<!-- Node4&#45;&gt;Node22 -->
<g id="edge29" class="edge">
<title>Node4&#45;&gt;Node22</title>
<path fill="none" stroke="#9a32cd" stroke-dasharray="5,2" d="M36.39,-500.64C36.41,-463.4 42.31,-382.82 90,-343.33 127.79,-312.04 187.23,-313.15 225.79,-318.18"/>
<polygon fill="#9a32cd" stroke="#9a32cd" points="32.89,-500.77 36.53,-510.72 39.89,-500.67 32.89,-500.77"/>
<text text-anchor="middle" x="135.5" y="-357.33" font-family="Helvetica,sans-Serif" font-size="10.00"> target</text>
<text text-anchor="middle" x="135.5" y="-346.33" font-family="Helvetica,sans-Serif" font-size="10.00">handler</text>
</g>
<!-- Node28 -->
<g id="node21" class="node">
<title>Node28</title>
<g id="a_node21"><a xlink:href="structJSArrayIteratorData.html" target="_top" xlink:title=" ">
<polygon fill="none" stroke="black" points="208.5,-144.83 208.5,-163.83 320.5,-163.83 320.5,-144.83 208.5,-144.83"/>
<text text-anchor="middle" x="264.5" y="-151.83" font-family="Helvetica,sans-Serif" font-size="10.00">JSArrayIteratorData</text>
</a>
</g>
</g>
<!-- Node4&#45;&gt;Node28 -->
<g id="edge37" class="edge">
<title>Node4&#45;&gt;Node28</title>
<path fill="none" stroke="#9a32cd" stroke-dasharray="5,2" d="M38.51,-500.65C43.19,-444.27 58.98,-283.57 90,-242.33 109.24,-216.76 195.06,-180.83 238.35,-163.89"/>
<polygon fill="#9a32cd" stroke="#9a32cd" points="35.01,-500.5 37.7,-510.74 41.99,-501.06 35.01,-500.5"/>
<text text-anchor="middle" x="135.5" y="-245.33" font-family="Helvetica,sans-Serif" font-size="10.00"> obj</text>
</g>
<!-- Node29 -->
<g id="node22" class="node">
<title>Node29</title>
<g id="a_node22"><a xlink:href="structJSContext.html" target="_top" xlink:title=" ">
<polygon fill="none" stroke="red" points="1330.5,-989.83 1330.5,-1008.83 1394.5,-1008.83 1394.5,-989.83 1330.5,-989.83"/>
<text text-anchor="middle" x="1362.5" y="-996.83" font-family="Helvetica,sans-Serif" font-size="10.00">JSContext</text>
</a>
</g>
</g>
<!-- Node4&#45;&gt;Node29 -->
<g id="edge39" class="edge">
<title>Node4&#45;&gt;Node29</title>
<path fill="none" stroke="#9a32cd" stroke-dasharray="5,2" d="M40.11,-540.18C46.99,-584.77 63.53,-696.36 72,-790.33 73.76,-809.89 75.77,-1129.81 90,-1143.33 275.3,-1319.42 1154.92,-1062.57 1330.84,-1008.85"/>
<polygon fill="#9a32cd" stroke="#9a32cd" points="43.54,-539.45 38.55,-530.11 36.62,-540.53 43.54,-539.45"/>
<text text-anchor="middle" x="756" y="-1275.33" font-family="Helvetica,sans-Serif" font-size="10.00"> async_iterator_proto</text>
<text text-anchor="middle" x="756" y="-1264.33" font-family="Helvetica,sans-Serif" font-size="10.00">function_proto</text>
<text text-anchor="middle" x="756" y="-1253.33" font-family="Helvetica,sans-Serif" font-size="10.00">function_ctor</text>
<text text-anchor="middle" x="756" y="-1242.33" font-family="Helvetica,sans-Serif" font-size="10.00">array_ctor</text>
<text text-anchor="middle" x="756" y="-1231.33" font-family="Helvetica,sans-Serif" font-size="10.00">class_proto</text>
<text text-anchor="middle" x="756" y="-1220.33" font-family="Helvetica,sans-Serif" font-size="10.00">array_proto_values</text>
<text text-anchor="middle" x="756" y="-1209.33" font-family="Helvetica,sans-Serif" font-size="10.00">regexp_ctor</text>
<text text-anchor="middle" x="756" y="-1198.33" font-family="Helvetica,sans-Serif" font-size="10.00">throw_type_error</text>
<text text-anchor="middle" x="756" y="-1187.33" font-family="Helvetica,sans-Serif" font-size="10.00">native_error_proto</text>
<text text-anchor="middle" x="756" y="-1176.33" font-family="Helvetica,sans-Serif" font-size="10.00">eval_obj</text>
<text text-anchor="middle" x="756" y="-1165.33" font-family="Helvetica,sans-Serif" font-size="10.00">...</text>
</g>
<!-- Node38 -->
<g id="node24" class="node">
<title>Node38</title>
<g id="a_node24"><a xlink:href="structJSFunctionBytecode.html" target="_top" xlink:title=" ">
<polygon fill="none" stroke="red" points="1489,-1100.83 1489,-1119.83 1602,-1119.83 1602,-1100.83 1489,-1100.83"/>
<text text-anchor="middle" x="1545.5" y="-1107.83" font-family="Helvetica,sans-Serif" font-size="10.00">JSFunctionBytecode</text>
</a>
</g>
</g>
<!-- Node4&#45;&gt;Node38 -->
<g id="edge47" class="edge">
<title>Node4&#45;&gt;Node38</title>
<path fill="none" stroke="#9a32cd" stroke-dasharray="5,2" d="M38.7,-540.35C44.14,-601.64 62.44,-785.69 90,-838.33 245.38,-1135.16 419.97,-1193.33 755,-1193.33 755,-1193.33 755,-1193.33 1363.5,-1193.33 1433.33,-1193.33 1505.65,-1141.66 1533.06,-1119.85"/>
<polygon fill="#9a32cd" stroke="#9a32cd" points="42.16,-539.76 37.8,-530.1 35.18,-540.37 42.16,-539.76"/>
<text text-anchor="middle" x="854.5" y="-1196.33" font-family="Helvetica,sans-Serif" font-size="10.00"> cpool</text>
</g>
<!-- Node41 -->
<g id="node25" class="node">
<title>Node41</title>
<g id="a_node25"><a xlink:href="structJSAsyncFunctionData.html" target="_top" xlink:title=" ">
<polygon fill="none" stroke="red" points="547.5,-609.83 547.5,-628.83 667.5,-628.83 667.5,-609.83 547.5,-609.83"/>
<text text-anchor="middle" x="607.5" y="-616.83" font-family="Helvetica,sans-Serif" font-size="10.00">JSAsyncFunctionData</text>
</a>
</g>
</g>
<!-- Node4&#45;&gt;Node41 -->
<g id="edge51" class="edge">
<title>Node4&#45;&gt;Node41</title>
<path fill="none" stroke="#9a32cd" stroke-dasharray="5,2" d="M63.8,-534.23C72.02,-538.01 81.22,-541.76 90,-544.33 174.9,-569.18 430.74,-599.75 547.39,-612.86"/>
<polygon fill="#9a32cd" stroke="#9a32cd" points="65.2,-531.02 54.67,-529.85 62.17,-537.33 65.2,-531.02"/>
<text text-anchor="middle" x="264.5" y="-588.33" font-family="Helvetica,sans-Serif" font-size="10.00"> resolving_funcs</text>
</g>
<!-- Node42 -->
<g id="node26" class="node">
<title>Node42</title>
<g id="a_node26"><a xlink:href="structJSForInIterator.html" target="_top" xlink:title=" ">
<polygon fill="none" stroke="black" points="221.5,-102.83 221.5,-121.83 307.5,-121.83 307.5,-102.83 221.5,-102.83"/>
<text text-anchor="middle" x="264.5" y="-109.83" font-family="Helvetica,sans-Serif" font-size="10.00">JSForInIterator</text>
</a>
</g>
</g>
<!-- Node4&#45;&gt;Node42 -->
<g id="edge54" class="edge">
<title>Node4&#45;&gt;Node42</title>
<path fill="none" stroke="#9a32cd" stroke-dasharray="5,2" d="M37.44,-500.51C39.3,-434.69 48.42,-224.75 90,-174.33 122.26,-135.22 181.08,-120.77 221.21,-115.44"/>
<polygon fill="#9a32cd" stroke="#9a32cd" points="33.94,-500.65 37.18,-510.74 40.94,-500.83 33.94,-500.65"/>
<text text-anchor="middle" x="135.5" y="-177.33" font-family="Helvetica,sans-Serif" font-size="10.00"> obj</text>
</g>
<!-- Node43 -->
<g id="node27" class="node">
<title>Node43</title>
<g id="a_node27"><a xlink:href="structJSMapIteratorData.html" target="_top" xlink:title=" ">
<polygon fill="none" stroke="black" points="554.5,-383.83 554.5,-402.83 660.5,-402.83 660.5,-383.83 554.5,-383.83"/>
<text text-anchor="middle" x="607.5" y="-390.83" font-family="Helvetica,sans-Serif" font-size="10.00">JSMapIteratorData</text>
</a>
</g>
</g>
<!-- Node4&#45;&gt;Node43 -->
<g id="edge58" class="edge">
<title>Node4&#45;&gt;Node43</title>
<path fill="none" stroke="#9a32cd" stroke-dasharray="5,2" d="M40.82,-500.69C46.73,-476.06 60.63,-434.6 90,-414.33 163.97,-363.31 438.25,-379.26 554.21,-388.63"/>
<polygon fill="#9a32cd" stroke="#9a32cd" points="37.35,-500.17 38.64,-510.69 44.19,-501.67 37.35,-500.17"/>
<text text-anchor="middle" x="264.5" y="-387.33" font-family="Helvetica,sans-Serif" font-size="10.00"> obj</text>
</g>
<!-- Node44 -->
<g id="node28" class="node">
<title>Node44</title>
<g id="a_node28"><a xlink:href="structJSCFunctionDataRecord.html" target="_top" xlink:title=" ">
<polygon fill="none" stroke="black" points="199,-55.83 199,-74.83 330,-74.83 330,-55.83 199,-55.83"/>
<text text-anchor="middle" x="264.5" y="-62.83" font-family="Helvetica,sans-Serif" font-size="10.00">JSCFunctionDataRecord</text>
</a>
</g>
</g>
<!-- Node4&#45;&gt;Node44 -->
<g id="edge60" class="edge">
<title>Node4&#45;&gt;Node44</title>
<path fill="none" stroke="#9a32cd" stroke-dasharray="5,2" d="M36.72,-500.55C36.11,-426.67 37.79,-168.23 90,-109.33 116.9,-78.99 161.46,-68.15 198.69,-64.81"/>
<polygon fill="#9a32cd" stroke="#9a32cd" points="33.23,-500.8 36.84,-510.76 40.23,-500.72 33.23,-500.8"/>
<text text-anchor="middle" x="135.5" y="-112.33" font-family="Helvetica,sans-Serif" font-size="10.00"> data</text>
</g>
<!-- Node6&#45;&gt;Node2 -->
<g id="edge45" class="edge">
<title>Node6&#45;&gt;Node2</title>
<path fill="none" stroke="#9a32cd" stroke-dasharray="5,2" d="M646.67,-782.02C703.76,-771 805.07,-751.14 808,-748.33 833.51,-723.88 848.47,-610.11 852.43,-576.02"/>
<polygon fill="#9a32cd" stroke="#9a32cd" points="645.71,-778.64 636.55,-783.97 647.04,-785.51 645.71,-778.64"/>
<text text-anchor="middle" x="756" y="-772.33" font-family="Helvetica,sans-Serif" font-size="10.00"> var_refs</text>
</g>
<!-- Node6&#45;&gt;Node3 -->
<g id="edge5" class="edge">
<title>Node6&#45;&gt;Node3</title>
<path fill="none" stroke="#9a32cd" stroke-dasharray="5,2" d="M647.35,-789.17C719.45,-788.74 878.81,-787.28 1013,-782.33 1031.45,-781.65 1052.05,-780.51 1068.73,-779.49"/>
<polygon fill="#9a32cd" stroke="#9a32cd" points="646.93,-785.67 636.95,-789.22 646.97,-792.67 646.93,-785.67"/>
<text text-anchor="middle" x="854.5" y="-789.33" font-family="Helvetica,sans-Serif" font-size="10.00"> var_ref</text>
</g>
<!-- Node7 -->
<g id="node6" class="node">
<title>Node7</title>
<g id="a_node6"><a xlink:href="structJSGCObjectHeader.html" target="_top" xlink:title=" ">
<polygon fill="none" stroke="red" points="211,-915.83 211,-934.83 318,-934.83 318,-915.83 211,-915.83"/>
<text text-anchor="middle" x="264.5" y="-922.83" font-family="Helvetica,sans-Serif" font-size="10.00">JSGCObjectHeader</text>
</a>
</g>
</g>
<!-- Node7&#45;&gt;Node2 -->
<g id="edge61" class="edge">
<title>Node7&#45;&gt;Node2</title>
<path fill="none" stroke="#9a32cd" stroke-dasharray="5,2" d="M328.1,-922.43C377.99,-919.35 449.43,-913.21 511,-901.33 515.97,-900.37 681.32,-852.26 686,-850.33 743.03,-826.91 771.17,-833.77 808,-784.33 833.41,-750.23 848.75,-613.74 852.56,-576.03"/>
<polygon fill="#9a32cd" stroke="#9a32cd" points="327.88,-918.94 318.11,-923.03 328.3,-925.93 327.88,-918.94"/>
<text text-anchor="middle" x="607.5" y="-898.33" font-family="Helvetica,sans-Serif" font-size="10.00"> header</text>
</g>
<!-- Node7&#45;&gt;Node6 -->
<g id="edge7" class="edge">
<title>Node7&#45;&gt;Node6</title>
<path fill="none" stroke="#9a32cd" stroke-dasharray="5,2" d="M293.15,-911.46C308.87,-904.12 329.13,-895.57 348,-890.33 418.5,-870.77 454.79,-914.16 511,-867.33 530.44,-851.14 510.92,-831.03 529,-813.33 542.09,-800.52 561.87,-794.54 578.17,-791.74"/>
<polygon fill="#9a32cd" stroke="#9a32cd" points="291.52,-908.36 284,-915.83 294.53,-914.67 291.52,-908.36"/>
<text text-anchor="middle" x="429.5" y="-893.33" font-family="Helvetica,sans-Serif" font-size="10.00"> header</text>
</g>
<!-- Node7&#45;&gt;Node29 -->
<g id="edge44" class="edge">
<title>Node7&#45;&gt;Node29</title>
<path fill="none" stroke="#9a32cd" stroke-dasharray="5,2" d="M287,-940.9C303,-951.63 325.83,-965.21 348,-972.33 457.97,-1007.68 490.99,-999.33 606.5,-999.33 606.5,-999.33 606.5,-999.33 1103.5,-999.33 1185.24,-999.33 1281.56,-999.33 1330.13,-999.33"/>
<polygon fill="#9a32cd" stroke="#9a32cd" points="288.64,-937.78 278.42,-934.97 284.66,-943.54 288.64,-937.78"/>
<text text-anchor="middle" x="854.5" y="-1002.33" font-family="Helvetica,sans-Serif" font-size="10.00"> header</text>
</g>
<!-- Node7&#45;&gt;Node34 -->
<g id="edge43" class="edge">
<title>Node7&#45;&gt;Node34</title>
<path fill="none" stroke="#9a32cd" stroke-dasharray="5,2" d="M328.52,-926.65C442.67,-928.97 691.28,-933.68 901,-935.33 950.78,-935.72 963.27,-937.58 1013,-935.33 1033.65,-934.4 1056.93,-932.25 1074.43,-930.42"/>
<polygon fill="#9a32cd" stroke="#9a32cd" points="328.29,-923.15 318.22,-926.44 328.15,-930.15 328.29,-923.15"/>
<text text-anchor="middle" x="756" y="-937.33" font-family="Helvetica,sans-Serif" font-size="10.00"> header</text>
</g>
<!-- Node7&#45;&gt;Node38 -->
<g id="edge49" class="edge">
<title>Node7&#45;&gt;Node38</title>
<path fill="none" stroke="#9a32cd" stroke-dasharray="5,2" d="M281.66,-942.75C297.41,-958.97 322.63,-983.04 348,-999.33 493.2,-1092.59 535.06,-1119.15 704,-1154.33 813.69,-1177.18 843.96,-1147.33 956,-1147.33 956,-1147.33 956,-1147.33 1363.5,-1147.33 1418.35,-1147.33 1480.68,-1130.82 1516.03,-1119.86"/>
<polygon fill="#9a32cd" stroke="#9a32cd" points="283.77,-939.89 274.34,-935.06 278.7,-944.72 283.77,-939.89"/>
<text text-anchor="middle" x="957" y="-1152.33" font-family="Helvetica,sans-Serif" font-size="10.00"> header</text>
</g>
<!-- Node7&#45;&gt;Node41 -->
<g id="edge52" class="edge">
<title>Node7&#45;&gt;Node41</title>
<path fill="none" stroke="#9a32cd" stroke-dasharray="5,2" d="M282.43,-908.34C298.38,-892.94 323.44,-870.28 348,-854.33 415.19,-810.7 463.7,-842 511,-777.33 546.47,-728.83 490.2,-689.22 529,-643.33 534.28,-637.1 541.14,-632.45 548.6,-629"/>
<polygon fill="#9a32cd" stroke="#9a32cd" points="279.65,-906.16 274.96,-915.66 284.56,-911.16 279.65,-906.16"/>
<text text-anchor="middle" x="429.5" y="-857.33" font-family="Helvetica,sans-Serif" font-size="10.00"> header</text>
</g>
<!-- Node9&#45;&gt;Node2 -->
<g id="edge8" class="edge">
<title>Node9&#45;&gt;Node2</title>
<path fill="none" stroke="#9a32cd" stroke-dasharray="5,2" d="M487.86,-705.25C580.64,-710.41 758.28,-715.06 808,-679.33 842.69,-654.4 850.96,-598.46 852.91,-575.97"/>
<polygon fill="#9a32cd" stroke="#9a32cd" points="487.98,-701.75 477.79,-704.67 487.57,-708.74 487.98,-701.75"/>
<text text-anchor="middle" x="607.5" y="-711.33" font-family="Helvetica,sans-Serif" font-size="10.00"> c_function</text>
</g>
<!-- Node10&#45;&gt;Node2 -->
<g id="edge10" class="edge">
<title>Node10&#45;&gt;Node2</title>
<path fill="none" stroke="#9a32cd" stroke-dasharray="5,2" d="M504.92,-551.5C600.45,-555.56 761.53,-562.42 825.8,-565.15"/>
<polygon fill="#9a32cd" stroke="#9a32cd" points="504.88,-548 494.74,-551.07 504.59,-554.99 504.88,-548"/>
<text text-anchor="middle" x="607.5" y="-561.33" font-family="Helvetica,sans-Serif" font-size="10.00"> promise_function_data</text>
</g>
<!-- Node12&#45;&gt;Node2 -->
<g id="edge12" class="edge">
<title>Node12&#45;&gt;Node2</title>
<path fill="none" stroke="#9a32cd" stroke-dasharray="5,2" d="M514.94,-519.44C591.85,-525.06 708.29,-535.97 808,-555.33 813.74,-556.45 819.86,-557.81 825.67,-559.18"/>
<polygon fill="#9a32cd" stroke="#9a32cd" points="515.05,-515.94 504.83,-518.72 514.55,-522.93 515.05,-515.94"/>
<text text-anchor="middle" x="607.5" y="-538.33" font-family="Helvetica,sans-Serif" font-size="10.00"> regexp_string_iterator_data</text>
</g>
<!-- Node13&#45;&gt;Node2 -->
<g id="edge15" class="edge">
<title>Node13&#45;&gt;Node2</title>
<path fill="none" stroke="#9a32cd" stroke-dasharray="5,2" d="M521.59,-470.99C600.44,-477.02 715.94,-492.87 808,-534.33 820.68,-540.04 833.49,-549.45 842.27,-556.6"/>
<polygon fill="#9a32cd" stroke="#9a32cd" points="521.43,-467.47 511.2,-470.23 520.92,-474.45 521.43,-467.47"/>
<text text-anchor="middle" x="607.5" y="-496.33" font-family="Helvetica,sans-Serif" font-size="10.00"> async_from_sync_iterator_data</text>
</g>
<!-- Node14&#45;&gt;Node2 -->
<g id="edge17" class="edge">
<title>Node14&#45;&gt;Node2</title>
<path fill="none" stroke="#9a32cd" stroke-dasharray="5,2" d="M484.38,-431.5C563.75,-424.47 712.93,-423.21 808,-496.33 829.14,-512.59 843.4,-541.64 849.74,-556.69"/>
<polygon fill="#9a32cd" stroke="#9a32cd" points="483.75,-428.04 474.12,-432.47 484.41,-435.01 483.75,-428.04"/>
<text text-anchor="middle" x="607.5" y="-443.33" font-family="Helvetica,sans-Serif" font-size="10.00"> promise_data</text>
</g>
<!-- Node15&#45;&gt;Node2 -->
<g id="edge19" class="edge">
<title>Node15&#45;&gt;Node2</title>
<path fill="none" stroke="#9a32cd" stroke-dasharray="5,2" d="M302.65,-632.95C395.1,-661.97 640.12,-724.04 808,-630.33 829.67,-618.24 843.52,-590.99 849.72,-576.25"/>
<polygon fill="#9a32cd" stroke="#9a32cd" points="303.5,-629.55 292.91,-629.84 301.37,-636.22 303.5,-629.55"/>
<text text-anchor="middle" x="607.5" y="-682.33" font-family="Helvetica,sans-Serif" font-size="10.00"> first_weak_ref</text>
</g>
<!-- Node15&#45;&gt;Node15 -->
<g id="edge21" class="edge">
<title>Node15&#45;&gt;Node15</title>
<path fill="none" stroke="#9a32cd" stroke-dasharray="5,2" d="M240.69,-639.36C241.99,-644.46 249.93,-648.33 264.5,-648.33 287.25,-648.33 293.83,-638.9 284.23,-630.09"/>
<polygon fill="#9a32cd" stroke="#9a32cd" points="243.95,-640.65 244.77,-630.09 237.54,-637.83 243.95,-640.65"/>
<text text-anchor="middle" x="264.5" y="-651.33" font-family="Helvetica,sans-Serif" font-size="10.00"> next_weak_ref</text>
</g>
<!-- Node15&#45;&gt;Node43 -->
<g id="edge57" class="edge">
<title>Node15&#45;&gt;Node43</title>
<path fill="none" stroke="#9a32cd" stroke-dasharray="5,2" d="M314.05,-609.29C320.19,-606.03 325.79,-601.8 330,-596.33 355.19,-563.6 318.39,-440.14 348,-411.33 362.43,-397.29 483.06,-394.09 554.33,-393.43"/>
<polygon fill="#9a32cd" stroke="#9a32cd" points="312.49,-606.16 304.76,-613.41 315.32,-612.56 312.49,-606.16"/>
<text text-anchor="middle" x="429.5" y="-414.33" font-family="Helvetica,sans-Serif" font-size="10.00"> cur_record</text>
</g>
<!-- Node16 -->
<g id="node13" class="node">
<title>Node16</title>
<g id="a_node13"><a xlink:href="structJSMapState.html" target="_top" xlink:title=" ">
<polygon fill="none" stroke="red" points="0,-799.83 0,-818.83 72,-818.83 72,-799.83 0,-799.83"/>
<text text-anchor="middle" x="36" y="-806.83" font-family="Helvetica,sans-Serif" font-size="10.00">JSMapState</text>
</a>
</g>
</g>
<!-- Node16&#45;&gt;Node2 -->
<g id="edge30" class="edge">
<title>Node16&#45;&gt;Node2</title>
<path fill="none" stroke="#9a32cd" stroke-dasharray="5,2" d="M50.52,-827.08C75.64,-858.35 133.01,-922.07 199,-944.33 299.49,-978.24 581.28,-944.61 686,-907.33 747.09,-885.59 772.38,-881.52 808,-827.33 836.17,-784.48 849.79,-618.24 852.83,-576.09"/>
<polygon fill="#9a32cd" stroke="#9a32cd" points="52.98,-824.54 44.05,-818.84 47.47,-828.87 52.98,-824.54"/>
<text text-anchor="middle" x="429.5" y="-960.33" font-family="Helvetica,sans-Serif" font-size="10.00"> map_state</text>
</g>
<!-- Node16&#45;&gt;Node15 -->
<g id="edge22" class="edge">
<title>Node16&#45;&gt;Node15</title>
<path fill="none" stroke="#9a32cd" stroke-dasharray="5,2" d="M37.22,-789.61C38.75,-755.02 47.26,-683.66 90,-647.33 109.68,-630.6 179.36,-624.19 224.2,-621.77"/>
<polygon fill="#9a32cd" stroke="#9a32cd" points="33.72,-789.73 36.93,-799.82 40.71,-789.93 33.72,-789.73"/>
<text text-anchor="middle" x="135.5" y="-650.33" font-family="Helvetica,sans-Serif" font-size="10.00"> map</text>
</g>
<!-- Node17&#45;&gt;Node2 -->
<g id="edge23" class="edge">
<title>Node17&#45;&gt;Node2</title>
<path fill="none" stroke="#9a32cd" stroke-dasharray="5,2" d="M458.76,-220.27C528.38,-187.84 709.66,-117.32 808,-208.33 834.44,-232.8 850.1,-502.28 853.01,-556.76"/>
<polygon fill="#9a32cd" stroke="#9a32cd" points="456.85,-217.3 449.32,-224.75 459.85,-223.62 456.85,-217.3"/>
<text text-anchor="middle" x="607.5" y="-192.33" font-family="Helvetica,sans-Serif" font-size="10.00"> bound_function</text>
</g>
<!-- Node18&#45;&gt;Node2 -->
<g id="edge25" class="edge">
<title>Node18&#45;&gt;Node2</title>
<path fill="none" stroke="#9a32cd" stroke-dasharray="5,2" d="M1066.47,-646.87C1024.22,-659.69 952.48,-673.9 901,-644.33 875.03,-629.42 862.49,-593.34 857.79,-575.98"/>
<polygon fill="#9a32cd" stroke="#9a32cd" points="1067.56,-650.2 1076.04,-643.84 1065.45,-643.53 1067.56,-650.2"/>
<text text-anchor="middle" x="957" y="-664.33" font-family="Helvetica,sans-Serif" font-size="10.00"> typed_array</text>
</g>
<!-- Node19 -->
<g id="node16" class="node">
<title>Node19</title>
<g id="a_node16"><a xlink:href="structJSRegExp.html" target="_top" xlink:title=" ">
<polygon fill="none" stroke="red" points="576.5,-345.83 576.5,-364.83 638.5,-364.83 638.5,-345.83 576.5,-345.83"/>
<text text-anchor="middle" x="607.5" y="-352.83" font-family="Helvetica,sans-Serif" font-size="10.00">JSRegExp</text>
</a>
</g>
</g>
<!-- Node19&#45;&gt;Node2 -->
<g id="edge27" class="edge">
<title>Node19&#45;&gt;Node2</title>
<path fill="none" stroke="#9a32cd" stroke-dasharray="5,2" d="M648.42,-345.02C692.77,-336.14 763.92,-329.97 808,-367.33 837.6,-392.42 849.86,-520.22 852.78,-556.64"/>
<polygon fill="#9a32cd" stroke="#9a32cd" points="647.62,-341.61 638.57,-347.12 649.08,-348.45 647.62,-341.61"/>
<text text-anchor="middle" x="756" y="-370.33" font-family="Helvetica,sans-Serif" font-size="10.00"> regexp</text>
</g>
<!-- Node22&#45;&gt;Node2 -->
<g id="edge28" class="edge">
<title>Node22&#45;&gt;Node2</title>
<path fill="none" stroke="#9a32cd" stroke-dasharray="5,2" d="M313.18,-322.58C438.73,-315.8 771.38,-301.1 808,-333.33 842.34,-363.56 851.34,-516.58 853.12,-556.69"/>
<polygon fill="#9a32cd" stroke="#9a32cd" points="312.88,-319.09 303.09,-323.13 313.26,-326.08 312.88,-319.09"/>
<text text-anchor="middle" x="607.5" y="-316.33" font-family="Helvetica,sans-Serif" font-size="10.00"> proxy_data</text>
</g>
<!-- Node23 -->
<g id="node18" class="node">
<title>Node23</title>
<g id="a_node18"><a xlink:href="structJSGeneratorData.html" target="_top" xlink:title=" ">
<polygon fill="none" stroke="red" points="558.5,-260.83 558.5,-279.83 656.5,-279.83 656.5,-260.83 558.5,-260.83"/>
<text text-anchor="middle" x="607.5" y="-267.83" font-family="Helvetica,sans-Serif" font-size="10.00">JSGeneratorData</text>
</a>
</g>
</g>
<!-- Node23&#45;&gt;Node2 -->
<g id="edge32" class="edge">
<title>Node23&#45;&gt;Node2</title>
<path fill="none" stroke="#9a32cd" stroke-dasharray="5,2" d="M665.06,-259.51C709.7,-254.48 770.5,-255.99 808,-291.33 847.53,-328.59 852.72,-511.99 853.4,-556.56"/>
<polygon fill="#9a32cd" stroke="#9a32cd" points="664.42,-256.07 654.94,-260.79 665.3,-263.01 664.42,-256.07"/>
<text text-anchor="middle" x="756" y="-294.33" font-family="Helvetica,sans-Serif" font-size="10.00"> generator_data</text>
</g>
<!-- Node26 -->
<g id="node19" class="node">
<title>Node26</title>
<g id="a_node19"><a xlink:href="structJSArrayBuffer.html" target="_top" xlink:title=" ">
<polygon fill="none" stroke="red" points="566.5,-222.83 566.5,-241.83 648.5,-241.83 648.5,-222.83 566.5,-222.83"/>
<text text-anchor="middle" x="607.5" y="-229.83" font-family="Helvetica,sans-Serif" font-size="10.00">JSArrayBuffer</text>
</a>
</g>
</g>
<!-- Node26&#45;&gt;Node2 -->
<g id="edge33" class="edge">
<title>Node26&#45;&gt;Node2</title>
<path fill="none" stroke="#9a32cd" stroke-dasharray="5,2" d="M650.84,-220.45C695.78,-210.66 765.97,-203.91 808,-242.33 855.68,-285.93 854.55,-507.92 853.71,-556.8"/>
<polygon fill="#9a32cd" stroke="#9a32cd" points="649.78,-217.1 640.83,-222.77 651.36,-223.92 649.78,-217.1"/>
<text text-anchor="middle" x="756" y="-245.33" font-family="Helvetica,sans-Serif" font-size="10.00"> array_buffer</text>
</g>
<!-- Node27&#45;&gt;Node2 -->
<g id="edge34" class="edge">
<title>Node27&#45;&gt;Node2</title>
<path fill="none" stroke="#9a32cd" stroke-dasharray="5,2" d="M1052.91,-560.63C1040.02,-558.02 1026.05,-555.65 1013,-554.33 963.47,-549.35 950.36,-547.93 901,-554.33 895.17,-555.09 889.02,-556.37 883.19,-557.82"/>
<polygon fill="#9a32cd" stroke="#9a32cd" points="1052.48,-564.11 1062.99,-562.75 1053.92,-557.26 1052.48,-564.11"/>
<text text-anchor="middle" x="957" y="-557.33" font-family="Helvetica,sans-Serif" font-size="10.00"> async_generator_data</text>
</g>
<!-- Node28&#45;&gt;Node2 -->
<g id="edge36" class="edge">
<title>Node28&#45;&gt;Node2</title>
<path fill="none" stroke="#9a32cd" stroke-dasharray="5,2" d="M330.7,-144.4C460.06,-126.33 742.39,-95.61 808,-160.33 837.22,-189.16 850.8,-497.86 853.13,-556.68"/>
<polygon fill="#9a32cd" stroke="#9a32cd" points="329.94,-140.97 320.53,-145.84 330.92,-147.9 329.94,-140.97"/>
<text text-anchor="middle" x="607.5" y="-127.33" font-family="Helvetica,sans-Serif" font-size="10.00"> array_iterator_data</text>
</g>
<!-- Node29&#45;&gt;Node2 -->
<g id="edge38" class="edge">
<title>Node29&#45;&gt;Node2</title>
<path fill="none" stroke="#9a32cd" stroke-dasharray="5,2" d="M1353.03,-980.43C1330.88,-933.25 1266.51,-809.64 1174,-747.33 1167.5,-742.96 906.91,-681.48 901,-676.33 869.83,-649.19 859.59,-597.32 856.6,-575.92"/>
<polygon fill="#9a32cd" stroke="#9a32cd" points="1349.96,-982.14 1357.32,-989.76 1356.32,-979.21 1349.96,-982.14"/>
<text text-anchor="middle" x="1102.5" y="-750.33" font-family="Helvetica,sans-Serif" font-size="10.00"> realm</text>
</g>
<!-- Node29&#45;&gt;Node38 -->
<g id="edge48" class="edge">
<title>Node29&#45;&gt;Node38</title>
<path fill="none" stroke="#9a32cd" stroke-dasharray="5,2" d="M1388.1,-1014.42C1425.96,-1037.64 1497.42,-1081.46 1528.92,-1100.78"/>
<polygon fill="#9a32cd" stroke="#9a32cd" points="1389.6,-1011.23 1379.25,-1008.99 1385.94,-1017.2 1389.6,-1011.23"/>
<text text-anchor="middle" x="1455" y="-1067.33" font-family="Helvetica,sans-Serif" font-size="10.00"> realm</text>
</g>
<!-- Node34&#45;&gt;Node2 -->
<g id="edge55" class="edge">
<title>Node34&#45;&gt;Node2</title>
<path fill="none" stroke="#9a32cd" stroke-dasharray="5,2" d="M1076.26,-912.55C1027.63,-883.58 923.73,-819.14 901,-784.33 855.55,-714.73 854.35,-608.28 855.13,-575.96"/>
<polygon fill="#9a32cd" stroke="#9a32cd" points="1074.55,-915.61 1084.93,-917.69 1078.12,-909.59 1074.55,-915.61"/>
<text text-anchor="middle" x="957" y="-875.33" font-family="Helvetica,sans-Serif" font-size="10.00"> shape</text>
</g>
<!-- Node34&#45;&gt;Node29 -->
<g id="edge40" class="edge">
<title>Node34&#45;&gt;Node29</title>
<path fill="none" stroke="#9a32cd" stroke-dasharray="5,2" d="M1140.4,-936.06C1177.41,-944.99 1235.93,-959.62 1286,-974.33 1302.03,-979.05 1319.77,-984.89 1334.03,-989.74"/>
<polygon fill="#9a32cd" stroke="#9a32cd" points="1141.1,-932.63 1130.56,-933.69 1139.46,-939.43 1141.1,-932.63"/>
<text text-anchor="middle" x="1239" y="-977.33" font-family="Helvetica,sans-Serif" font-size="10.00"> array_shape</text>
</g>
<!-- Node34&#45;&gt;Node34 -->
<g id="edge42" class="edge">
<title>Node34&#45;&gt;Node34</title>
<path fill="none" stroke="#9a32cd" stroke-dasharray="5,2" d="M1077.2,-946.36C1078.58,-951.46 1087.01,-955.33 1102.5,-955.33 1126.67,-955.33 1133.66,-945.9 1123.46,-937.09"/>
<polygon fill="#9a32cd" stroke="#9a32cd" points="1080.47,-947.63 1081.54,-937.09 1074.13,-944.67 1080.47,-947.63"/>
<text text-anchor="middle" x="1102.5" y="-958.33" font-family="Helvetica,sans-Serif" font-size="10.00"> shape_hash_next</text>
</g>
<!-- Node38&#45;&gt;Node2 -->
<g id="edge46" class="edge">
<title>Node38&#45;&gt;Node2</title>
<path fill="none" stroke="#9a32cd" stroke-dasharray="5,2" d="M1538.67,-1090.78C1512.69,-1007.54 1398.68,-681.01 1174,-553.33 1068.46,-493.36 1019.56,-519.29 901,-545.33 890.8,-547.57 880.17,-552.33 871.75,-556.75"/>
<polygon fill="#9a32cd" stroke="#9a32cd" points="1535.37,-1091.95 1541.64,-1100.49 1542.06,-1089.9 1535.37,-1091.95"/>
<text text-anchor="middle" x="1239" y="-640.33" font-family="Helvetica,sans-Serif" font-size="10.00"> function_bytecode</text>
</g>
<!-- Node41&#45;&gt;Node2 -->
<g id="edge50" class="edge">
<title>Node41&#45;&gt;Node2</title>
<path fill="none" stroke="#9a32cd" stroke-dasharray="5,2" d="M677.61,-617.89C716.79,-615.3 766.2,-609.03 808,-594.33 820.07,-590.09 832.35,-582.28 841.11,-575.99"/>
<polygon fill="#9a32cd" stroke="#9a32cd" points="677.39,-614.39 667.62,-618.48 677.81,-621.38 677.39,-614.39"/>
<text text-anchor="middle" x="756" y="-618.33" font-family="Helvetica,sans-Serif" font-size="10.00"> async_function_data</text>
</g>
<!-- Node42&#45;&gt;Node2 -->
<g id="edge53" class="edge">
<title>Node42&#45;&gt;Node2</title>
<path fill="none" stroke="#9a32cd" stroke-dasharray="5,2" d="M317.76,-104.45C440.37,-87.26 741.22,-53.18 808,-121.33 839.59,-153.58 851.33,-494.3 853.22,-556.59"/>
<polygon fill="#9a32cd" stroke="#9a32cd" points="316.91,-101.03 307.5,-105.9 317.89,-107.96 316.91,-101.03"/>
<text text-anchor="middle" x="607.5" y="-86.33" font-family="Helvetica,sans-Serif" font-size="10.00"> for_in_iterator</text>
</g>
<!-- Node43&#45;&gt;Node2 -->
<g id="edge56" class="edge">
<title>Node43&#45;&gt;Node2</title>
<path fill="none" stroke="#9a32cd" stroke-dasharray="5,2" d="M670.91,-383.21C714.12,-379.83 770.4,-383.15 808,-414.33 852.31,-451.09 854.6,-529.14 853.94,-556.56"/>
<polygon fill="#9a32cd" stroke="#9a32cd" points="670.42,-379.74 660.79,-384.14 671.07,-386.71 670.42,-379.74"/>
<text text-anchor="middle" x="756" y="-417.33" font-family="Helvetica,sans-Serif" font-size="10.00"> map_iterator_data</text>
</g>
<!-- Node44&#45;&gt;Node2 -->
<g id="edge59" class="edge">
<title>Node44&#45;&gt;Node2</title>
<path fill="none" stroke="#9a32cd" stroke-dasharray="5,2" d="M300.02,-52.44C396.6,-18.83 671.41,59.36 808,-82.33 842.19,-117.8 851.86,-491.23 853.3,-556.6"/>
<polygon fill="#9a32cd" stroke="#9a32cd" points="298.71,-49.19 290.45,-55.82 301.04,-55.79 298.71,-49.19"/>
<text text-anchor="middle" x="607.5" y="-15.33" font-family="Helvetica,sans-Serif" font-size="10.00"> c_function_data_record</text>
</g>
<!-- Node45 -->
<g id="node29" class="node">
<title>Node45</title>
<g id="a_node29"><a xlink:href="structJSBinaryOperatorDef.html" target="_top" xlink:title=" ">
<polygon fill="none" stroke="black" points="1304,-434.83 1304,-453.83 1421,-453.83 1421,-434.83 1304,-434.83"/>
<text text-anchor="middle" x="1362.5" y="-441.83" font-family="Helvetica,sans-Serif" font-size="10.00">JSBinaryOperatorDef</text>
</a>
</g>
</g>
<!-- Node45&#45;&gt;Node1 -->
<g id="edge62" class="edge">
<title>Node45&#45;&gt;Node1</title>
<path fill="none" stroke="#9a32cd" stroke-dasharray="5,2" d="M1431.15,-443.31C1444.4,-443.75 1458.17,-444.66 1471,-446.33 1484.68,-448.11 1499.5,-451.46 1512.23,-454.79"/>
<polygon fill="#9a32cd" stroke="#9a32cd" points="1431.22,-439.81 1421.14,-443.06 1431.05,-446.81 1431.22,-439.81"/>
<text text-anchor="middle" x="1455" y="-460.33" font-family="Helvetica,sans-Serif" font-size="10.00"> right</text>
<text text-anchor="middle" x="1455" y="-449.33" font-family="Helvetica,sans-Serif" font-size="10.00">left</text>
</g>
<!-- Node46&#45;&gt;Node45 -->
<g id="edge63" class="edge">
<title>Node46&#45;&gt;Node45</title>
<path fill="none" stroke="#9a32cd" stroke-dasharray="5,2" d="M1184.55,-444.33C1223.27,-444.33 1268.71,-444.33 1303.85,-444.33"/>
<polygon fill="#9a32cd" stroke="#9a32cd" points="1184.34,-440.83 1174.34,-444.33 1184.34,-447.83 1184.34,-440.83"/>
<text text-anchor="middle" x="1239" y="-447.33" font-family="Helvetica,sans-Serif" font-size="10.00"> tab</text>
</g>
</g>
</svg>
